ply
format ascii 1.0
element vertex 728
property float x
property float y
property float z
property uchar red
property uchar green
property uchar blue
element face 1268
property list uchar int vertex_indices
end_header
-9.01222705841064453 -7 -6 23 3 1
-9 -7.00033998489379883 -6 17 30 1
-9 -7 -6.00064992904663086 12 12 4
-9 -7 -5.99394559860229492 1 0 1
-9.83377647399902344 -6 -8 24 0 5
-9 -6.45387458801269531 -8 2 15 8
-9 -6 -8.13230800628662109 8 6 2
-9 -6 -7.57543754577636719 14 13 15
-9 -6.99965572357177734 -6 1 0 1
-9.88829326629638672 -5 -9 7 30 1
-9 -5.19467544555664062 -9 8 6 2
-9 -5 -9.88829326629638672 4 1 6
-9 -5.90495586395263672 -8 14 13 15
-9 -5 -8.85726451873779297 4 7 7
-9.83355903625488281 -5 8 9 8 9
-9 -5.13123035430908203 8 20 10 10
-9 -5 7.75569295883178711 7 6 1
-9 -5 8.83355903625488281 32 14 15
-9 -4.85332870483398438 -9 4 7 7
-9 -4.7728571891784668 8 32 14 15
-9.37126731872558594 5 6 0 3 6
-9 4.98166894912719727 6 34 34 34
-9 5 5.96599578857421875 3 0 3
-9 5 6.05520820617675781 30 0 1
-9.89771270751953125 6 -9 28 36 34
-9 5.84435892105102539 -9 25 27 36
-9 6 -9.89771270751953125 2 2 2
-9 6 -8.84670257568359375 15 0 4
-9 5.01635599136352539 6 30 0 1
-9.85344123840332031 6 8 1 0 0
-9 5.73584175109863281 8 3 3 3
-9 6 7.72173881530761719 1 1 2
-9 6 8.85344123840332031 17 2 39
-9 6.20517349243164062 -9 15 0 4
-9.85638809204101562 7 -8 23 21 31
-9 6.89045810699462891 -8 26 15 6
-9 7 -8.14922142028808594 17 8 13
-9 7 -7.49646806716918945 22 17 20
-9 6.15051507949829102 8 17 2 39
-9 7.47535037994384766 -8 22 17 20
-9.52669143676757812 8 -6 30 6 11
-9 7.96984624862670898 -6 22 6 10
-9 8 -6.05237817764282227 20 1 19
-9 8 -5.45218038558959961 5 5 2
-9 8.52669143676757812 -6 5 5 2
-8.00894260406494141 -8 8 7 7 7
-8 -8.00904655456542969 8 12 9 4
-8 -8 7.98048067092895508 7 6 8
-8 -8 8.239715576171875 4 2 1
-8.99967479705810547 -7 -6 1 0 1
-8 -7.98947954177856445 8 4 2 1
-8.90105819702148438 -6 -8 14 13 15
-8.85927295684814453 -5 -9 4 7 7
-8.37769412994384766 -5 8 32 14 15
-8.07944393157958984 -3 -9 5 9 7
-8 -3.04637813568115234 -9 4 10 24
-8 -3 -9.70030307769775391 21 7 11
-8 -3 -8.88190364837646484 0 8 30
-8 -2.89377474784851074 -9 0 8 30
-8.05293464660644531 -2 -8 12 10 20
-8 -2.13190007209777832 -8 0 3 12
-8 -2 -8.11882877349853516 3 0 12
-8 -2 -7.91600513458251953 0 1 0
-8.06614875793457031 -1 -8 29 31 27
-8 -1 -8.06714439392089844 0 5 7
-8 -1 -7.93660449981689453 0 2 1
-8.02452564239501953 0 -9 22 24 24
-8 -0.0319070480763912201 -9 0 5 7
-8 0 -9.52159404754638672 8 31 5
-8 -0.923524975776672363 -8 0 2 1
-8 0 -8.96346759796142578 0 3 3
-8.02629184722900391 1 -9 21 25 22
-8 1 -9.53973960876464844 22 32 11
-8 1 -8.96075248718261719 0 3 2
-8 1.03447842597961426 -9 0 3 2
-8.07098388671875 2 -8 33 17 15
-8 1.91662943363189697 -8 3 3 3
-8 2 -8.07365131378173828 6 5 6
-8 2 -7.93054866790771484 1 1 0
-8.05959606170654297 3 -8 7 23 11
-8 3 -8.13345527648925781 8 5 6
-8 3 -7.90404748916625977 1 0 0
-8.08118629455566406 4 -9 11 1 14
-8 3.88953852653503418 -9 8 5 6
-8 4 -9.70876979827880859 11 6 25
-8 3.14834880828857422 -8 1 0 0
-8 4 -8.8768463134765625 34 32 29
-8 4.04900979995727539 -9 34 32 29
-8.96619224548339844 5 6 30 0 1
-8.84445285797119141 6 -9 15 0 4
-8.24471569061279297 6 8 17 2 39
-8.88682365417480469 7 -8 22 17 20
-8.97237682342529297 8 -6 5 5 2
-7.78520488739013672 -8 8 4 2 1
-7.06155776977539062 -4 -9 4 10 24
-7 -4.08380603790283203 -9 8 11 7
-7 -4 -9.75913333892822266 0 0 6
-7 -4 -8.89378452301025391 12 7 10
-7 -3 -9.76381206512451172 1 0 0
-7 -3 -8.9226531982421875 2 1 2
-7 -2.88546466827392578 -9 2 1 2
-7.93502569198608398 -2 -8 0 1 0
-7.94137859344482422 -1 -8 0 2 1
-7.96997308731079102 0 -9 0 3 3
-7.96771144866943359 1 -9 0 3 2
-7.93573141098022461 2 -8 1 1 0
-7.92602634429931641 3 -8 1 0 0
-7 3.86858224868774414 -9 4 1 4
-7 4 -9.78879451751708984 2 2 2
-7 4 -8.91063690185546875 0 0 0
-7.07479429244995117 5 -9 29 9 6
-7 5 -9.79242801666259766 10 6 5
-7 5 -8.87264728546142578 8 4 5
-7 5.10144805908203125 -9 8 4 5
-7.00329303741455078 6 -8 1 0 26
-7 5.99487590789794922 -8 2 2 7
-7 6 -8.00396919250488281 3 5 5
-7 6 -7.98473215103149414 3 3 3
-7 6.01605796813964844 -8 3 3 3
-6.01841545104980469 -5 -9 8 11 7
-6 -5.08136415481567383 -9 4 2 3
-6 -5 -9.39261817932128906 8 4 4
-6 -5 -8.98427391052246094 4 4 4
-6.92205429077148438 -4 -9 12 7 10
-6 -4.98295736312866211 -9 4 4 4
-6.92003679275512695 -3 -9 2 1 2
-6.90762138366699219 4 -9 0 0 0
-6.90559148788452148 5 -9 8 4 5
-6.03938913345336914 6 -9 3 5 5
-6 5.96351909637451172 -9 7 4 1
-6 6 -9.58097553253173828 0 0 1
-6.99661350250244141 6 -8 3 3 3
-6 6 -8.96621322631835938 0 0 0
-6 6.18583869934082031 -9 0 0 0
-5.98359107971191406 -5 -9 4 4 4
-5.96474027633666992 6 -9 0 0 0
-4.02157974243164062 -6 -2 5 26 1
-4 -6.02242946624755859 -2 4 4 4
-4 -6 -2.13474559783935547 2 1 0
-4 -6 -1.96057438850402832 1 1 0
-4 -5.44315910339355469 -2 1 1 0
-4.02613401412963867 -5 1 10 0 26
-4 -5.02103567123413086 1 1 0 1
-4 -5 0.941213846206665039 2 0 12
-4 -5 1.02458107471466064 0 0 0
-4 -4.96140861511230469 1 0 0 0
-4.00258445739746094 6 1 32 3 2
-4 5.99575042724609375 1 1 2 4
-4 6 0.993343114852905273 1 4 0
-4 6 1.00264358520507812 4 3 7
-4 6.00240325927734375 1 4 3 7
-3.14802455902099609 -7 -1 0 4 7
-3 -7.10489416122436523 -1 0 2 29
-3 -7 -1.29001379013061523 3 1 4
-3 -7 -0.908315181732177734 0 0 0
-3.9899754524230957 -6 -2 1 1 0
-3 -6.84189558029174805 -1 0 0 0
-3.9815375804901123 -5 1 0 0 0
-3.00542736053466797 -3 -3 23 8 14
-3 -3.0301821231842041 -3 8 5 6
-3 -3 -3.01180744171142578 26 10 2
-3 -3 -2.99172234535217285 15 29 5
-3.01396441459655762 -2 -3 0 12 7
-3 -2 -3.06794953346252441 0 0 19
-3 -2 -2.86200189590454102 4 2 11
-3.00833487510681152 -1 -3 1 19 4
-3 -1 -3.00645828247070312 0 0 0
-3 -1 -2.9944298267364502 10 1 2
-3 -0.98605269193649292 -3 10 1 2
-3.05040073394775391 0 0 11 13 30
-3 -0.0241477470844984055 0 28 1 7
-3 0 -0.0416239798069000244 9 1 1
-3 0 0.0238037072122097015 17 7 7
-3.04646944999694824 1 0 21 17 31
-3 1 -0.0382839739322662354 10 0 0
-3 1 0.0218887347728013992 18 12 13
-3.00000667572021484 2 -3 21 15 11
-3 1.99998891353607178 -3 6 1 2
-3 2 -3.00000524520874023 0 0 1
-3 2 -2.99999547004699707 12 11 11
-3 1.02163171768188477 0 18 12 13
-3 2.00299263000488281 -3 12 11 11
-3.99797868728637695 6 1 4 3 7
-3.06441998481750488 8 -1 12 0 5
-3 7.91379308700561523 -1 4 3 0
-3 8 -1.1371610164642334 0 4 5
-3 8 -0.951486527919769287 4 5 10
-3 8.50312995910644531 -1 4 5 10
-2.02521824836730957 -9 0 8 13 12
-2 -9.53801536560058594 0 8 3 12
-2 -9 -0.283646583557128906 0 12 4
-2 -9 0.0256992653012275696 11 23 13
-2.07056427001953125 -8 -2 13 8 9
-2 -8.08557796478271484 -2 18 18 18
-2 -8 -2.61523556709289551 2 1 1
-2 -8 -1.94084751605987549 1 0 0
-2 -8.93394947052001953 0 11 23 13
-2 -7.92598915100097656 -2 1 0 0
-2.9345855712890625 -7 -1 0 0 0
-2.04291439056396484 -6 2 29 5 7
-2 -6.06629800796508789 2 30 21 23
-2 -6 1.96974897384643555 0 7 2
-2 -6 2.49981069564819336 3 0 0
-2 -5.94906425476074219 2 3 0 0
-2.12205386161804199 -4 -2 7 24 5
-2 -4.0433807373046875 -2 5 17 23
-2 -4 -2.81722354888916016 10 6 7
-2.06096410751342773 -4 -1 1 22 30
-2 -4.49848079681396484 -1 7 0 1
-2 -4 -0.954069197177886963 21 2 15
-2.98723793029785156 -3 -3 15 29 5
-2 -3.8985142707824707 -2 17 2 29
-2 -3.83025002479553223 -1 21 2 15
-2.07435393333435059 -3 0 6 8 7
-2 -3.06050014495849609 0 11 9 6
-2 -3 -0.214754208922386169 6 6 7
-2.03224849700927734 -3 1 31 2 9
-2 -3.40902996063232422 1 6 1 1
-2 -3 1.09092497825622559 9 14 7
-2.97536253929138184 -2 -3 4 2 11
-2 -2.94286465644836426 0 9 8 8
-2.05243539810180664 -2 1 9 8 8
-2 -2 0.949598908424377441 2 4 7
-2 -2 1.0498957633972168 8 4 4
-2.98553633689880371 -1 -3 10 1 2
-2 -1.84751045703887939 1 8 4 4
-2.97080469131469727 0 0 17 7 7
-2.13447976112365723 0 2 30 23 7
-2 -0.350002378225326538 2 7 3 3
-2 0 1.94141852855682373 16 0 30
-2 0 2.07739472389221191 28 0 31
-2.97329235076904297 1 0 18 12 13
-2.1296689510345459 1 2 31 16 15
-2 1 1.94327926635742188 2 0 31
-2 1 2.07454037666320801 18 0 32
-2.99998855590820312 2 -3 12 11 11
-2 1.30097103118896484 2 18 0 32
-2.04552721977233887 3 1 5 0 0
-2 2.87222933769226074 1 0 2 7
-2 3 0.95636141300201416 11 5 1
-2 3 1.04260241985321045 4 0 2
-2.05994582176208496 4 0 4 0 2
-2 3.95160436630249023 0 11 5 1
-2 4 -0.16866593062877655 12 0 2
-2.02141356468200684 4 1 22 29 34
-2 4 1.05768072605133057 16 11 17
-2.08689332008361816 5 -2 17 25 30
-2 4.92486763000488281 -2 10 4 4
-2 5 -2.56898069381713867 1 3 2
-2.01219010353088379 5 -1 25 34 24
-2 4.96699142456054688 -1 12 0 2
-2 4.05366277694702148 0 3 1 4
-2 5 -0.99054950475692749 26 13 24
-2 4.25555515289306641 1 16 11 17
-2 5.03013944625854492 -2 34 33 32
-2 5.11619377136230469 -1 26 13 24
-2.02278470993041992 7 2 38 35 2
-2 6.97210121154785156 2 3 38 8
-2 7 1.98322010040283203 1 0 0
-2 7 2.23610568046569824 1 2 4
-2.9683678150177002 8 -1 4 5 10
-2 7.03666210174560547 2 1 2 4
-1.94748592376708984 -9 0 11 23 13
-1.86308908462524414 -8 -2 1 0 0
-1.09015333652496338 -8 1 19 20 21
-1 -8.06121253967285156 1 2 3 1
-1 -8 0.909460365772247314 8 8 8
-1 -8 1.08138680458068848 4 1 1
-1 -7.91606760025024414 1 4 1 1
-1.055489182472229 -7 3 5 2 4
-1 -7.06461000442504883 3 32 32 32
-1 -7 2.96006226539611816 3 2 2
-1 -7 3.05718636512756348 4 0 1
-1.93204092979431152 -6 2 3 0 0
-1 -6.88959693908691406 3 4 0 1
-1.03234100341796875 -5 -2 5 17 23
-1 -5.03620672225952148 -2 20 18 7
-1 -5 -2.04809045791625977 11 0 0
-1 -5 -1.9671856164932251 10 1 6
-1.93654036521911621 -4 -2 17 2 29
-1 -4.95243597030639648 -2 10 1 6
-1.90846705436706543 -4 -1 21 2 15
-1.06642699241638184 -4 0 11 9 6
-1 -4.13598012924194336 0 29 24 26
-1 -4 -0.129614174365997314 0 0 0
-1 -4 0.0594921410083770752 2 1 4
-1.05360007286071777 -4 2 31 8 24
-1 -4.06592702865600586 2 34 27 30
-1 -4 1.94924342632293701 10 20 5
-1 -4 2.0725862979888916 7 2 6
-1.09162116050720215 -3 0 9 8 8
-1 -3.08364772796630859 0 2 1 4
-1.94466733932495117 -3 1 9 14 7
-1 -3.77703666687011719 2 7 2 6
-1 -2.03602290153503418 1 13 8 21
-1 -2 0.845874965190887451 22 7 10
-1 -2 1.0304255485534668 1 0 0
-1 -1.87496161460876465 1 1 0 0
-1.06190335750579834 -1 3 6 5 3
-1 -1.04335343837738037 3 1 0 0
-1 -1 2.94181442260742188 0 0 0
-1 -1 3.0257568359375 5 5 5
-1.93559920787811279 0 2 28 0 31
-1 -0.971637427806854248 3 5 5 5
-1.93796956539154053 1 2 18 0 32
-1.05105137825012207 2 3 6 9 7
-1 1.97706246376037598 3 26 25 24
-1 2 2.95198774337768555 0 1 1
-1 2 3.02094602584838867 3 0 1
-1 2.91399955749511719 1 22 0 1
-1 3 0.89565885066986084 25 3 7
-1 3 1.02066433429718018 1 2 4
-1 2.03710222244262695 3 3 0 1
-1.23683536052703857 4 0 3 1 4
-1.96211791038513184 4 1 16 11 17
-1 3.02559876441955566 1 1 2 4
-1.95526432991027832 5 -2 34 33 32
-1.98104870319366455 5 -1 26 13 24
-1.05943107604980469 5 0 13 0 17
-1 4.21783685684204102 0 3 5 3
-1 5 -0.113424919545650482 3 3 0
-1 5 0.0497087687253952026 10 2 1
-1.04177820682525635 5 2 35 26 31
-1 4.82252836227416992 2 12 0 32
-1 5 1.96115386486053467 1 16 26
-1 5 2.05715680122375488 0 11 3
-1.01318979263305664 6 -2 28 14 15
-1 5.9802556037902832 -2 32 12 33
-1 6 -2.01914167404174805 5 19 0
-1 6 -1.98640799522399902 1 0 1
-1 5.11925601959228516 0 10 2 1
-1 5.05192232131958008 2 0 11 3
-1 6.01515007019042969 -2 1 0 1
-1.96157395839691162 7 2 1 2 4
-1.01278603076934814 8 3 2 3 3
-1 7.97447299957275391 3 0 0 0
-1 8 2.99145364761352539 4 4 1
-1 8 3.0125582218170166 0 14 9
-1 8.21623706817626953 3 0 14 9
-0.906211495399475098 -8 1 4 1 1
-0.957178294658660889 -7 3 4 0 1
-0.0231707189232110977 -6 -3 30 12 26
0 -6.03669118881225586 -3 3 1 0
0 -6 -3.02743625640869141 3 1 4
0 -6 -2.96768045425415039 0 0 9
-0.0424302630126476288 -5 -3 11 0 0
0 -5 -3.23737883567810059 2 1 3
-0.478972047567367554 -5 -2 10 1 6
0 -5 -2.51174497604370117 1 0 0
-0.0721286013722419739 -5 0 29 24 26
0 -5.06540775299072266 0 3 1 1
0 -5 -0.0715641602873802185 0 0 0
0 -5 0.0422219559550285339 0 3 10
0 -4.92375087738037109 -3 1 0 0
-0.836961269378662109 -4 0 2 1 4
0 -4.91222810745239258 0 0 3 10
0 -4.02506780624389648 2 8 0 8
0 -4 1.97760212421417236 1 0 0
0 -4 2.01992607116699219 2 0 2
0 -3.98439240455627441 2 2 0 2
-0.0341943129897117615 -3 3 33 6 28
0 -3.06479978561401367 3 11 1 0
0 -3 2.94873499870300293 10 12 13
0 -3 3.04925751686096191 1 5 5
-0.841379165649414062 -2 1 1 0 0
0 -2.96168994903564453 3 1 5 5
-0.967964768409729004 -1 3 5 5 5
-0.0471276715397834778 0 -3 12 31 3
0 -0.337419331073760986 -3 22 4 6
0 0 -3.33340644836425781 20 9 9
-0.0131538091227412224 0 -2 8 0 31
0 -0.876521289348602295 -2 20 5 19
-0.0357374176383018494 0 -1 31 28 0
0 -0.104015320539474487 -1 21 3 7
-0.00497745350003242493 0 0 15 11 4
0 -0.00729399407282471657 0 33 14 11
0 0 0.0136472573503851891 28 6 6
-0.0169846750795841217 0 3 21 25 17
0 -0.0192131437361240387 3 35 20 16
0 0 2.96956968307495117 24 16 16
0 0 3.21167254447937012 4 1 1
-0.043714817613363266 1 -3 6 32 12
0 1 -3.3088986873626709 21 14 14
-0.011035919189453125 1 -2 21 0 32
-0.0322399549186229706 1 -1 17 32 1
-0.00298083014786243439 1 0 14 15 7
0 1 0.00813402514904737473 29 11 12
-0.0150397596880793571 1 3 26 25 24
0 1 2.97298860549926758 25 10 10
0 1 3.18704080581665039 4 0 0
0 1.2970041036605835 -3 20 17 18
0 1.56262648105621338 -2 21 18 19
0 1.09222400188446045 -1 20 15 20
0 1.00434112548828125 0 29 11 12
-0.974021255970001221 2 3 3 0 1
0 1.0170520544052124 3 4 0 0
-0.891565918922424316 3 1 1 2 4
-0.0241122934967279434 4 3 37 14 16
0 3.97422051429748535 3 1 28 10
0 4 2.96402645111083984 17 8 0
0 4 3.03427290916442871 0 0 0
-0.866077125072479248 5 0 10 2 1
-0.144391179084777832 5 2 0 11 3
0 4.04365921020507812 3 0 0 0
-0.0158929042518138885 6 -3 5 19 0
0 5.97020339965820312 -3 17 2 4
0 6 -3.09515285491943359 10 9 2
-0.7639121413230896 6 -2 1 0 1
0 6 -2.79633545875549316 2 3 5
-0.0062749241478741169 6 0 30 34 16
0 5.99284029006958008 0 25 0 3
0 6 -0.00623092334717512131 4 5 0
0 6 0.00347812031395733356 0 19 19
-0.00603482173755764961 7 -3 33 32 36
0 7 -3.00704503059387207 11 2 5
0 7 -2.99165630340576172 0 0 0
0 6.00529098510742188 0 0 19 19
0 7.00932741165161133 -3 0 0 0
-0.990835607051849365 8 3 0 14 9
0.93169093132019043 -7 -2 31 0 22
1 -7.04728412628173828 -2 26 33 10
1 -7 -2.06368184089660645 0 21 1
1 -7 -1.89520204067230225 31 29 33
0.058064732700586319 -6 -3 0 0 9
1 -6.9028325080871582 -2 31 29 33
0.886936664581298828 -6 0 3 1 1
1 -6.87718772888183594 0 6 9 0
1 -6 -0.0788771212100982666 3 0 2
1 -6 0.122348956763744354 0 3 2
0.954355180263519287 -6 2 15 33 35
1 -6.04990673065185547 2 2 30 12
1 -6 1.9089963436126709 1 2 4
1 -6 2.04308152198791504 0 0 0
0.0379488877952098846 -5 -3 1 0 0
0.0858840495347976685 -5 0 0 3 10
1 -5.85387420654296875 0 0 3 2
1 -5.91737651824951172 2 0 0 0
0.0168945211917161942 -4 2 2 0 2
0.957447409629821777 -4 3 11 1 0
1 -4.02061176300048828 3 23 6 8
1 -4 2.96379399299621582 26 8 14
1 -4 3.0298001766204834 5 3 0
0.0714881792664527893 -3 3 1 5 5
1 -3.95293974876403809 3 5 3 0
0.978682219982147217 -2 -3 26 0 24
1 -2.04857110977172852 -3 1 8 20
1 -2 -3.39940118789672852 5 0 21
0.826473236083984375 -2 -2 21 0 29
1 -2.2158503532409668 -2 2 8 20
0.982695698738098145 -2 -1 26 31 15
1 -2.56004238128662109 -1 29 9 23
1 -2 -0.92125093936920166 0 22 17
1 -1.98615598678588867 -3 32 0 1
1 -1.92071306705474854 -2 0 20 22
1 -1.97667431831359863 -1 0 22 17
0.986361324787139893 -1 0 33 14 11
1 -1.06705856323242188 0 1 0 23
1 -1 -0.0196871198713779449 6 11 33
0.997860133647918701 -1 1 27 22 3
1 -1.00345146656036377 1 27 25 34
1 -1 1.00225448608398438 31 1 20
0.180415496230125427 0 -3 20 11 16
0.139833167195320129 0 -2 21 12 17
1 -0.0172097180038690567 -1 6 11 33
1 0 -1.11764395236968994 28 7 7
1 -0.986560523509979248 1 31 1 20
1 0 0.28018641471862793 6 23 22
0.972897946834564209 0 2 24 16 16
1 -0.0155660239979624748 2 13 4 14
1 0 1.91296994686126709 6 1 23
0.0194975454360246658 0 3 4 1 1
1 0 2.01734352111816406 35 0 7
0.167100518941879272 1 -3 20 17 18
0.116995885968208313 1 -2 21 18 19
1 1 -1.08739995956420898 29 13 13
1 1 0.271988511085510254 11 18 23
0.975368201732635498 1 2 25 10 10
1 1 1.92108070850372314 17 4 24
0.0172995962202548981 1 3 4 0 0
1 1 2.0157618522644043 35 0 3
1 1.01254606246948242 -1 25 0 25
0.993482291698455811 2 0 7 35 0
1 2 -0.00931653380393981934 0 35 9
1 2 0.68662947416305542 18 15 24
1 1.01407253742218018 2 35 0 3
0.861380338668823242 3 -2 21 31 25
1 2.93645048141479492 -2 34 25 0
1 3 -2.91721200942993164 34 11 32
0.995332002639770508 3 -1 18 34 0
1 2.99373841285705566 -1 0 35 9
1 2.03113818168640137 0 18 15 24
1 3 -0.978920042514801025 23 21 24
1 3.17082691192626953 -2 24 22 23
1 3.14280939102172852 -1 23 21 24
0.0509137362241744995 4 3 0 0 0
0.984415888786315918 5 3 15 14 17
1 4.98173713684082031 3 13 16 2
1 5 2.986358642578125 30 1 15
1 5 3.01126408576965332 1 0 1
0.0145975062623620033 6 -3 2 3 5
0.00692075490951538086 6 0 0 19 19
1 5.00789117813110352 3 1 0 1
0.0157783124595880508 7 -3 0 0 0
0.925443172454833984 7 0 4 4 0
1 6.90452384948730469 0 25 1 8
1 7 -0.0519090928137302399 5 1 0
1 7 0.0891108289361000061 6 0 0
0.974953591823577881 7 2 41 12 16
1 6.95467758178710938 2 1 0 1
1 7 1.94655311107635498 3 1 2
1 7 2.02357959747314453 8 2 2
0.966688573360443115 8 -2 5 14 41
1 7.95035028457641602 -2 0 7 4
1 8 -2.03043413162231445 32 7 13
1 8 -1.94440627098083496 40 22 37
1 7.58901500701904297 0 6 0 0
1 7.02715778350830078 2 8 2 2
1 8.526947021484375 -2 40 22 37
1.24145114421844482 -7 -2 31 29 33
1.92082333564758301 -7 1 29 23 3
2 -7.09482908248901367 1 0 30 36
2 -7 0.874276399612426758 33 14 30
2 -7 1.08078849315643311 32 35 27
1.12384772300720215 -6 0 0 3 2
2 -6.83342456817626953 1 32 35 27
1.0678178071975708 -6 2 0 0 0
1.96161365509033203 -4 -3 31 13 16
2 -4.01539754867553711 -3 32 30 31
2 -4 -3.0662696361541748 28 18 28
2 -4 -2.84428262710571289 16 24 11
1.04540085792541504 -4 3 5 3 0
2 -3.95055556297302246 -3 16 24 11
1.83350050449371338 -3 -2 2 8 20
2 -3.43997359275817871 -2 20 22 29
2 -3 -2.1813805103302002 33 10 10
1.28969717025756836 -3 -1 29 9 23
2 -3.03554272651672363 -1 11 18 19
2 -3 -0.0132853742688894272 22 9 2
1.89377927780151367 -3 1 32 15 17
2 -3.03551769256591797 1 13 15 0
2 -3 0.0103159630671143532 23 14 6
2 -3 1.03444159030914307 11 21 33
1.02935945987701416 -2 -3 32 0 1
1.19083070755004883 -2 -2 0 20 22
2 -2.85386562347412109 -2 34 6 19
1.16351890563964844 -2 -1 0 22 17
2 -2.72646379470825195 -1 22 9 2
1.7397230863571167 -2 0 1 0 23
2 -2.99373888969421387 0 23 14 6
2 -2 -0.445878177881240845 31 14 27
2 -2.45327949523925781 1 11 21 33
2 -2 0.666159987449645996 24 8 0
2 -1 -0.0881845876574516296 29 0 11
2 -1.47178590297698975 1 24 9 2
2 -1 1.03421449661254883 23 7 0
2 -0.104326993227005005 -1 29 0 11
2 0 -1.03368556499481201 2 1 2
1.54227590560913086 0 0 6 23 22
2 -0.704423248767852783 0 34 11 24
2 0 -0.664294421672821045 35 1 4
1.78906059265136719 0 1 6 1 23
2 0 0.551374673843383789 31 1 25
1.36582779884338379 0 2 35 0 7
2 0 1.61798882484436035 1 28 12
2 1 -1.03044557571411133 1 0 2
1.52645516395568848 1 0 11 18 23
2 1 -0.692697525024414062 36 0 0
1.79802441596984863 1 1 17 4 24
2 1 0.570407986640930176 31 5 20
1.33121860027313232 1 2 35 0 3
2 1 1.59398186206817627 4 28 27
2 1.09272563457489014 -1 36 0 0
2 1.77869391441345215 0 31 5 20
2 2 -0.0614501126110553741 31 9 10
1.11566758155822754 2 1 32 3 6
2 2 1.02601790428161621 20 25 7
1.15237021446228027 3 -2 24 22 23
1.04117369651794434 3 -1 23 21 24
1.78760242462158203 3 0 25 15 19
2 3 -0.349709481000900269 33 2 2
2 2.32880783081054688 1 20 25 7
2 3 0.540876507759094238 14 26 26
1.89666759967803955 4 -2 23 18 19
2 3.90863561630249023 -2 35 2 24
2 4 -2.10923218727111816 36 3 37
1.64329540729522705 4 -1 32 13 15
2 3.87495017051696777 -1 33 2 2
2 3.74615812301635742 0 14 26 26
2 4 -0.5614166259765625 17 23 25
1.94384384155273438 4 1 35 1 17
2 3.68944621086120605 1 8 25 13
2 4 0.470827490091323853 13 24 26
2 4 1.01785671710968018 37 1 13
2 4.26902580261230469 -2 37 8 12
2 4.01640653610229492 -1 17 23 25
2 4.01833820343017578 1 37 1 13
1.01786744594573975 5 3 1 0 1
1.08868801593780518 7 0 6 0 0
1.04141104221343994 7 2 8 2 2
1.12113058567047119 8 -2 40 22 37
1.95540428161621094 8 1 36 0 1
2 7.91649723052978516 1 5 23 1
2 8 0.930124878883361816 41 1 34
2 8 1.04566085338592529 44 0 1
2 8.54381179809570312 1 44 0 1
2.07773470878601074 -7 1 32 35 27
2.20918059349060059 -4 -3 16 24 11
2.9899444580078125 -4 -1 11 18 19
3 -4.00902652740478516 -1 13 20 3
3 -4 -1.22906935214996338 13 23 8
3 -4 -0.97362673282623291 11 24 13
2.04095053672790527 -3 -2 34 6 19
2.03800392150878906 -3 -1 22 9 2
3 -3.98922824859619141 -1 11 24 13
2.01597476005554199 -3 0 23 14 6
3 -3.07536458969116211 0 21 22 21
3 -3 -0.031725611537694931 28 25 27
2.17760181427001953 -3 1 11 21 33
3 -3 0.121775105595588684 4 24 10
2.09082913398742676 -2 0 24 8 0
3 -2.96267437934875488 0 4 24 10
2.61774921417236328 -2 1 24 9 2
3 -2.09974002838134766 1 29 28 19
3 -2 0.969951331615447998 32 24 26
3 -2 1.04177713394165039 1 25 5
2.9782867431640625 -1 -1 29 0 11
3 -1.00877416133880615 -1 10 22 20
3 -1 -1.00541865825653076 5 2 1
2.05552291870117188 -1 0 34 11 24
3 -1 -0.986688315868377686 4 0 4
2.04016852378845215 -1 1 23 7 0
3 -1.97182393074035645 1 1 25 5
2.02709317207336426 0 -1 35 1 4
3 -0.994721651077270508 -1 4 0 4
2.05205130577087402 0 1 1 28 12
2.02463102340698242 1 -1 36 0 0
2.04977130889892578 1 1 4 28 27
2.03864216804504395 2 0 35 0 3
2.0307924747467041 2 1 20 25 7
2.07303833961486816 3 0 14 26 26
2.84341216087341309 3 1 8 25 13
3 2.98810267448425293 1 30 14 25
3 3 0.987734675407409668 34 0 4
3 3 1.01736032962799072 27 13 8
2.02563810348510742 4 -2 37 8 12
2.01796913146972656 4 -1 17 23 25
2.67370223999023438 4 0 13 24 26
3 3.98718357086181641 0 34 0 4
3 4 -0.011217084713280201 32 6 6
2.09389615058898926 4 1 37 1 13
3 3.04096245765686035 1 27 13 8
3 4 0.0427471771836280823 25 27 13
3 4.02555942535400391 0 25 27 13
2.03939270973205566 8 1 44 0 1
3.22015619277954102 -4 -1 11 24 13
3.04410529136657715 -3 0 4 24 10
3.02537322044372559 -2 1 1 25 5
3.00819778442382812 -1 -1 4 0 4
3.01045632362365723 3 1 27 13 8
3.01507997512817383 4 0 25 27 13
4.97638082504272461 8 -9 34 0 0
5 7.99221229553222656 -9 40 33 41
5 8 -9.13364028930664062 19 48 16
5 8 -8.99080371856689453 39 0 28
5 8.13364028930664062 -9 39 0 28
5.8897089958190918 -5 -9 17 14 14
6 -5.00626039505004883 -9 30 11 24
6 -5 -9.22847652435302734 40 3 8
6 -5 -8.99345779418945312 4 4 4
6 -4.99297857284545898 -9 4 4 4
5.55289173126220703 6 -9 1 8 23
6 5.97156810760498047 -9 30 7 44
6 6 -9.54673576354980469 31 35 45
6 6 -8.97341156005859375 2 0 11
6 6.02512407302856445 -9 2 0 11
5.03035926818847656 8 -9 39 0 28
6.97476625442504883 -8 8 17 7 2
7 -8.00759315490722656 8 47 33 43
7 -8 7.97941875457763672 37 8 14
7 -8 8.26549911499023438 3 9 5
7 -7.9726557731628418 8 3 9 5
6.00761127471923828 -5 -9 4 4 4
6.94145393371582031 -5 8 11 16 10
7 -5.0168304443359375 8 21 12 13
7 -5 7.98455095291137695 11 7 8
7 -5 8.41892528533935547 2 6 0
7 -4.97566699981689453 8 2 6 0
6.03103494644165039 6 -9 2 0 11
6.7983241081237793 6 8 24 22 23
7 5.91891670227050781 8 10 8 9
7 6 7.94821357727050781 16 15 16
7 6 8.71136951446533203 11 12 10
7 6.05457782745361328 8 11 12 10
7.02528715133666992 -8 8 3 9 5
7.9310150146484375 -6 -8 13 4 40
8 -6.12318229675292969 -8 0 0 0
8 -6 -8.11982154846191406 0 0 0
7.97764253616333008 -6 -7 22 1 39
8 -6.06951713562011719 -7 1 2 1
8 -6 -6.97585058212280273 14 25 17
8 -5.91765117645263672 -8 42 0 0
8 -5.97573280334472656 -7 14 25 17
7.27288103103637695 -5 8 2 6 0
7.94539070129394531 -2 7 2 38 3
8 -2.10394382476806641 7 9 43 8
8 -2 6.9006800651550293 31 0 1
8 -2 7.05888128280639648 1 41 48
8 -1.94878041744232178 7 1 41 48
7.93874931335449219 3 7 3 19 41
8 2.94264960289001465 7 47 18 18
8 3 6.8908238410949707 34 13 27
8 3 7.06654500961303711 28 0 50
8 3.11321234703063965 7 28 0 50
7.7169647216796875 6 8 11 12 10
7.93427038192749023 7 -8 45 47 5
8 6.91762876510620117 -8 28 41 48
8 7 -8.11340427398681641 9 5 6
7.96263360977172852 7 -7 47 18 12
8 6.95778322219848633 -7 37 48 20
8 7 -6.95784235000610352 1 33 33
8 7.11662912368774414 -8 26 24 48
8 7.1304473876953125 -7 1 33 33
8.77552509307861328 -6 -8 42 0 0
8.51830482482910156 -6 -7 14 25 17
8.71312904357910156 -2 7 1 41 48
8.73730087280273438 3 7 28 0 50
8.77179336547851562 7 -8 26 24 48
8.65175628662109375 7 -7 1 33 33
3 2 1 0
3 1 3 0
3 6 5 4
3 5 7 4
3 2 0 8
3 0 3 8
3 11 10 9
3 12 13 9
3 12 9 4
3 10 6 9
3 6 4 9
3 4 7 12
3 16 15 14
3 15 17 14
3 11 9 18
3 9 13 18
3 16 14 19
3 14 17 19
3 22 21 20
3 21 23 20
3 26 25 24
3 25 27 24
3 22 20 28
3 20 23 28
3 31 30 29
3 30 32 29
3 26 24 33
3 36 33 24
3 36 24 34
3 27 35 24
3 35 34 24
3 35 37 34
3 31 29 38
3 29 32 38
3 36 34 39
3 34 37 39
3 42 41 40
3 41 43 40
3 42 40 44
3 40 43 44
3 47 46 45
3 46 48 45
3 1 2 49
3 1 49 3
3 47 45 50
3 45 48 50
3 5 6 51
3 5 51 7
3 49 2 8
3 49 8 3
3 10 11 52
3 13 12 51
3 13 51 52
3 6 10 51
3 10 52 51
3 51 12 7
3 15 16 53
3 15 53 17
3 52 11 18
3 52 18 13
3 53 16 19
3 53 19 17
3 56 55 54
3 55 57 54
3 56 54 58
3 61 58 54
3 61 54 59
3 57 60 54
3 60 59 54
3 60 62 59
3 64 61 59
3 63 64 59
3 62 65 63
3 59 62 63
3 68 67 66
3 69 70 66
3 69 66 63
3 67 64 66
3 64 63 66
3 63 65 69
3 72 68 66
3 71 72 66
3 70 73 71
3 66 70 71
3 72 71 74
3 77 74 71
3 77 71 75
3 73 76 71
3 76 75 71
3 76 78 75
3 80 77 75
3 79 80 75
3 78 81 79
3 75 78 79
3 84 83 82
3 85 86 82
3 85 82 79
3 83 80 82
3 80 79 82
3 79 81 85
3 84 82 87
3 82 86 87
3 21 22 88
3 21 88 23
3 25 26 89
3 25 89 27
3 88 22 28
3 88 28 23
3 30 31 90
3 30 90 32
3 89 26 33
3 35 27 89
3 35 89 91
3 33 36 89
3 36 91 89
3 35 91 37
3 90 31 38
3 90 38 32
3 91 36 39
3 91 39 37
3 41 42 92
3 41 92 43
3 92 42 44
3 92 44 43
3 46 47 93
3 46 93 48
3 93 47 50
3 93 50 48
3 96 95 94
3 95 97 94
3 94 55 56
3 94 56 96
3 96 56 98
3 55 94 97
3 55 97 57
3 57 97 99
3 98 56 58
3 100 98 58
3 57 99 101
3 57 101 60
3 99 100 101
3 61 101 58
3 100 58 101
3 60 101 62
3 102 101 61
3 64 102 61
3 101 102 65
3 62 101 65
3 67 68 103
3 70 69 102
3 70 102 103
3 64 67 102
3 67 103 102
3 102 69 65
3 104 103 68
3 72 104 68
3 103 104 73
3 70 103 73
3 104 72 74
3 76 73 104
3 76 104 105
3 74 77 104
3 77 105 104
3 76 105 78
3 106 105 77
3 80 106 77
3 105 106 81
3 78 105 81
3 84 108 107
3 83 84 107
3 83 107 106
3 83 106 80
3 107 109 106
3 85 106 86
3 109 86 106
3 106 85 81
3 87 110 111
3 87 111 84
3 84 111 108
3 110 87 86
3 110 86 112
3 112 86 109
3 111 110 113
3 116 113 110
3 116 110 114
3 112 115 110
3 115 114 110
3 115 117 114
3 116 114 118
3 114 117 118
3 121 120 119
3 120 122 119
3 123 124 121
3 123 121 96
3 119 95 121
3 95 96 121
3 95 119 122
3 95 122 97
3 124 123 122
3 123 97 122
3 125 123 96
3 98 125 96
3 123 125 99
3 97 123 99
3 125 98 100
3 125 100 99
3 107 108 126
3 107 126 109
3 127 126 108
3 111 127 108
3 126 127 112
3 109 126 112
3 113 128 130
3 113 130 111
3 129 127 130
3 127 111 130
3 129 112 127
3 129 115 112
3 129 132 115
3 131 115 132
3 128 113 116
3 115 131 117
3 130 128 133
3 131 132 133
3 131 133 118
3 128 116 133
3 116 118 133
3 131 118 117
3 120 121 134
3 120 134 122
3 134 121 124
3 134 124 122
3 129 130 135
3 129 135 132
3 135 130 133
3 135 133 132
3 138 137 136
3 137 139 136
3 138 136 140
3 136 139 140
3 143 142 141
3 142 144 141
3 143 141 145
3 141 144 145
3 148 147 146
3 147 149 146
3 148 146 150
3 146 149 150
3 153 152 151
3 152 154 151
3 137 138 155
3 153 151 156
3 155 139 137
3 151 154 156
3 155 138 140
3 155 140 139
3 142 143 157
3 142 157 144
3 157 143 145
3 157 145 144
3 160 159 158
3 159 161 158
3 163 160 158
3 162 163 158
3 161 164 162
3 158 161 162
3 166 163 162
3 165 166 162
3 164 167 165
3 162 164 165
3 166 165 168
3 165 167 168
3 171 170 169
3 170 172 169
3 174 171 169
3 173 174 169
3 172 175 173
3 169 172 173
3 178 177 176
3 177 179 176
3 174 173 180
3 173 175 180
3 178 176 181
3 176 179 181
3 147 148 182
3 147 182 149
3 182 148 150
3 182 150 149
3 185 184 183
3 184 186 183
3 185 183 187
3 183 186 187
3 190 189 188
3 189 191 188
3 194 193 192
3 193 195 192
3 190 188 196
3 188 191 196
3 194 192 197
3 192 195 197
3 153 198 152
3 152 198 154
3 198 153 156
3 198 156 154
3 201 200 199
3 200 202 199
3 201 199 203
3 199 202 203
3 206 205 204
3 205 208 207
3 204 205 207
3 208 209 207
3 159 160 210
3 206 204 211
3 210 161 159
3 204 207 212
3 211 204 212
3 215 212 207
3 215 207 213
3 209 214 207
3 214 213 207
3 214 217 216
3 213 214 216
3 217 218 216
3 219 210 160
3 163 219 160
3 210 219 164
3 161 210 164
3 215 213 220
3 222 220 213
3 222 213 221
3 221 213 216
3 218 223 221
3 216 218 221
3 224 219 163
3 166 224 163
3 219 224 167
3 164 219 167
3 222 221 225
3 221 223 225
3 224 166 168
3 224 168 167
3 170 171 226
3 170 226 172
3 229 228 227
3 228 230 227
3 231 226 171
3 174 231 171
3 226 231 175
3 172 226 175
3 233 229 227
3 232 233 227
3 230 234 232
3 227 230 232
3 177 178 235
3 177 235 179
3 231 174 180
3 231 180 175
3 233 232 236
3 232 234 236
3 235 178 181
3 235 181 179
3 239 238 237
3 238 240 237
3 243 242 241
3 242 239 237
3 242 237 241
3 241 237 244
3 240 245 244
3 237 240 244
3 248 247 246
3 247 250 249
3 246 247 249
3 251 252 249
3 251 249 241
3 250 243 249
3 243 241 249
3 241 244 253
3 251 241 253
3 244 245 253
3 248 246 254
3 246 249 255
3 254 246 255
3 249 252 255
3 258 257 256
3 257 259 256
3 184 185 260
3 184 260 186
3 258 256 261
3 256 259 261
3 260 185 187
3 260 187 186
3 189 190 262
3 189 262 191
3 193 194 263
3 193 263 195
3 262 190 196
3 262 196 191
3 265 264 266
3 265 267 264
3 263 194 197
3 263 197 195
3 266 264 268
3 264 267 268
3 271 270 269
3 270 272 269
3 200 201 273
3 271 269 274
3 273 202 200
3 269 272 274
3 277 276 275
3 276 278 275
3 273 201 203
3 273 203 202
3 279 280 277
3 279 277 206
3 275 205 277
3 205 206 277
3 279 281 278
3 279 278 280
3 281 208 278
3 275 278 205
3 208 205 278
3 282 209 208
3 282 208 283
3 281 284 208
3 284 283 208
3 283 285 282
3 288 287 286
3 287 289 286
3 279 206 211
3 281 279 211
3 212 281 211
3 281 291 284
3 281 290 291
3 281 212 290
3 215 290 212
3 209 282 214
3 290 292 285
3 290 285 291
3 292 217 285
3 282 285 214
3 217 214 285
3 288 286 293
3 292 218 217
3 286 289 293
3 290 215 220
3 294 292 290
3 294 290 222
3 294 222 295
3 222 290 220
3 292 294 296
3 292 296 218
3 218 296 223
3 295 222 225
3 297 295 225
3 297 225 223
3 296 297 223
3 300 299 298
3 299 301 298
3 228 229 302
3 300 298 303
3 302 230 228
3 298 301 303
3 304 302 229
3 233 304 229
3 302 304 234
3 230 302 234
3 304 233 236
3 304 236 234
3 306 305 307
3 306 308 305
3 239 310 309
3 238 239 309
3 238 309 311
3 240 238 311
3 307 305 312
3 305 308 312
3 242 243 313
3 315 310 239
3 315 239 313
3 315 313 314
3 242 313 239
3 315 314 245
3 315 245 311
3 311 245 240
3 247 248 316
3 250 247 316
3 317 250 316
3 250 313 243
3 250 319 313
3 250 317 319
3 320 319 317
3 252 251 318
3 251 253 321
3 251 321 318
3 253 314 321
3 319 321 313
3 314 313 321
3 314 253 245
3 323 322 324
3 323 325 322
3 254 326 328
3 254 328 248
3 327 316 328
3 316 248 328
3 254 255 329
3 254 329 326
3 255 317 329
3 327 329 316
3 317 316 329
3 252 318 330
3 252 330 255
3 320 317 330
3 317 255 330
3 318 321 330
3 324 322 331
3 322 325 331
3 328 326 332
3 326 329 332
3 257 258 333
3 257 333 259
3 333 258 261
3 333 261 259
3 335 334 336
3 335 337 334
3 336 334 338
3 334 337 338
3 265 266 339
3 265 339 267
3 339 266 268
3 339 268 267
3 270 271 340
3 270 340 272
3 343 342 341
3 342 344 341
3 340 271 274
3 340 274 272
3 346 343 341
3 345 346 341
3 345 341 276
3 345 276 277
3 341 344 276
3 347 276 348
3 344 348 276
3 276 347 278
3 351 350 349
3 350 352 349
3 346 345 353
3 347 348 353
3 347 353 280
3 345 277 353
3 277 280 353
3 347 280 278
3 354 355 351
3 354 351 284
3 349 283 351
3 283 284 351
3 283 349 352
3 283 352 285
3 355 354 352
3 354 285 352
3 288 357 356
3 287 288 356
3 287 356 358
3 289 287 358
3 354 284 291
3 354 291 285
3 357 288 293
3 359 357 293
3 359 293 360
3 359 360 362
3 293 289 360
3 361 360 358
3 289 358 360
3 361 363 360
3 294 295 364
3 294 364 296
3 362 360 365
3 360 363 365
3 364 295 297
3 364 297 296
3 299 300 366
3 299 366 301
3 369 368 367
3 368 371 370
3 367 368 370
3 371 373 372
3 370 371 372
3 373 375 374
3 372 373 374
3 375 376 374
3 303 377 379
3 303 379 300
3 378 366 379
3 366 300 379
3 377 303 301
3 377 301 380
3 366 378 301
3 378 380 301
3 382 369 367
3 381 382 367
3 367 370 381
3 370 383 381
3 370 372 383
3 372 384 383
3 372 374 384
3 374 385 384
3 376 386 385
3 374 376 385
3 388 379 377
3 387 388 377
3 380 389 387
3 377 380 387
3 382 381 390
3 381 383 391
3 390 381 391
3 383 384 392
3 391 383 392
3 384 385 393
3 392 384 393
3 385 386 393
3 394 395 388
3 394 388 307
3 387 306 388
3 306 307 388
3 306 387 389
3 306 389 308
3 395 394 389
3 394 308 389
3 309 310 396
3 309 396 311
3 394 307 312
3 394 312 308
3 396 310 315
3 396 315 311
3 399 398 397
3 398 400 397
3 319 320 401
3 319 401 321
3 323 324 402
3 399 397 403
3 402 325 323
3 397 400 403
3 406 405 404
3 328 404 405
3 328 405 327
3 408 407 405
3 407 327 405
3 327 407 329
3 330 409 411
3 330 411 320
3 410 401 411
3 401 320 411
3 409 330 321
3 409 321 412
3 401 410 321
3 410 412 321
3 402 324 331
3 402 331 325
3 414 406 404
3 413 414 404
3 408 415 332
3 408 332 407
3 415 413 332
3 328 332 404
3 413 404 332
3 407 332 329
3 411 409 416
3 409 412 416
3 414 413 417
3 413 415 417
3 335 336 418
3 335 418 337
3 418 336 338
3 418 338 337
3 421 420 419
3 420 422 419
3 342 343 423
3 421 419 424
3 423 344 342
3 419 422 424
3 427 426 425
3 426 428 425
3 431 430 429
3 430 432 429
3 433 423 343
3 346 433 343
3 423 433 348
3 344 423 348
3 434 435 427
3 434 427 351
3 425 350 427
3 350 351 427
3 350 425 428
3 350 428 352
3 435 434 428
3 434 352 428
3 431 429 436
3 429 432 436
3 433 346 353
3 433 353 348
3 434 351 355
3 434 355 352
3 356 357 437
3 438 358 356
3 438 356 439
3 437 440 356
3 440 439 356
3 439 441 438
3 437 357 359
3 437 443 440
3 437 442 443
3 437 359 442
3 362 442 359
3 358 438 361
3 361 438 441
3 361 441 363
3 443 442 441
3 442 363 441
3 446 445 444
3 445 448 447
3 444 445 447
3 448 450 449
3 447 448 449
3 450 451 449
3 442 362 365
3 442 365 363
3 446 444 452
3 444 447 453
3 452 444 453
3 447 449 454
3 453 447 454
3 457 454 449
3 457 449 455
3 451 456 449
3 456 455 449
3 456 459 458
3 455 456 458
3 459 460 458
3 368 369 461
3 371 368 461
3 462 371 461
3 462 464 463
3 462 463 371
3 371 463 373
3 455 463 457
3 455 375 463
3 375 373 463
3 465 455 458
3 465 376 455
3 465 466 376
3 376 375 455
3 469 465 458
3 469 458 467
3 460 468 458
3 468 467 458
3 379 467 468
3 379 468 378
3 471 470 468
3 470 378 468
3 378 470 380
3 472 461 369
3 382 472 369
3 461 472 462
3 462 472 473
3 464 473 474
3 462 473 464
3 466 475 376
3 475 386 376
3 477 469 467
3 476 477 467
3 467 379 476
3 476 379 388
3 470 471 479
3 470 479 478
3 470 478 389
3 380 470 389
3 472 382 390
3 473 472 390
3 391 473 390
3 474 473 391
3 474 391 480
3 480 391 392
3 482 393 481
3 482 480 393
3 480 392 393
3 481 393 386
3 481 386 483
3 483 386 475
3 477 476 484
3 478 479 484
3 478 484 395
3 476 388 484
3 388 395 484
3 478 395 389
3 487 486 485
3 486 489 488
3 485 486 488
3 490 491 488
3 490 488 481
3 489 482 488
3 482 481 488
3 481 483 490
3 487 485 492
3 485 488 493
3 492 485 493
3 488 491 493
3 398 399 494
3 398 494 400
3 403 495 497
3 403 497 399
3 496 494 497
3 494 399 497
3 495 403 400
3 495 400 498
3 494 496 400
3 496 498 400
3 405 406 499
3 405 499 408
3 410 411 500
3 410 500 412
3 497 495 501
3 495 498 501
3 502 499 406
3 414 502 406
3 499 502 415
3 408 499 415
3 416 503 505
3 416 505 411
3 504 500 505
3 500 411 505
3 503 416 412
3 503 412 506
3 500 504 412
3 504 506 412
3 509 508 507
3 508 510 507
3 502 414 417
3 502 417 415
3 512 511 513
3 512 514 511
3 505 503 515
3 503 506 515
3 509 507 516
3 507 510 516
3 513 511 517
3 511 514 517
3 420 421 518
3 420 518 422
3 521 520 519
3 520 522 519
3 518 421 424
3 518 424 422
3 426 427 523
3 521 519 524
3 523 428 426
3 519 522 524
3 431 525 430
3 430 525 432
3 523 427 435
3 523 435 428
3 525 431 436
3 525 436 432
3 528 527 526
3 527 529 526
3 439 440 530
3 439 530 441
3 528 526 531
3 534 531 526
3 534 526 532
3 529 533 526
3 533 532 526
3 533 536 535
3 532 533 535
3 536 537 535
3 540 539 538
3 539 541 538
3 530 440 443
3 530 443 441
3 445 446 542
3 448 445 534
3 448 534 532
3 445 542 534
3 544 534 543
3 542 543 534
3 544 543 546
3 546 543 545
3 448 532 535
3 448 535 450
3 535 451 450
3 535 547 451
3 535 537 547
3 548 547 537
3 546 545 549
3 550 551 547
3 550 547 538
3 548 540 547
3 540 538 547
3 538 541 550
3 542 446 452
3 543 542 452
3 453 543 452
3 545 543 453
3 454 545 453
3 547 456 451
3 549 545 457
3 549 457 552
3 457 545 454
3 551 456 547
3 551 553 456
3 553 459 456
3 459 553 554
3 460 459 554
3 464 556 555
3 463 464 555
3 555 457 463
3 555 552 457
3 558 559 557
3 561 558 557
3 560 466 465
3 560 465 469
3 563 562 460
3 563 460 554
3 460 562 468
3 468 562 471
3 556 464 564
3 564 464 474
3 566 557 559
3 565 557 566
3 560 475 466
3 560 567 475
3 557 565 561
3 565 568 561
3 560 469 567
3 567 469 477
3 562 563 570
3 562 570 569
3 562 569 479
3 471 562 479
3 564 474 480
3 571 564 480
3 573 480 482
3 573 571 480
3 566 572 565
3 475 574 483
3 475 567 574
3 568 565 572
3 570 575 484
3 570 484 569
3 575 574 484
3 477 484 567
3 574 567 484
3 569 484 479
3 486 487 576
3 489 486 576
3 577 489 576
3 578 491 490
3 577 579 489
3 579 482 489
3 579 573 482
3 578 580 581
3 490 580 578
3 490 574 580
3 490 483 574
3 574 575 580
3 492 582 584
3 492 584 487
3 583 576 584
3 576 487 584
3 492 585 582
3 492 493 585
3 583 586 576
3 586 577 576
3 493 588 585
3 493 587 588
3 493 491 587
3 578 587 491
3 577 586 579
3 591 587 578
3 591 578 589
3 581 590 578
3 590 589 578
3 590 592 589
3 584 582 593
3 582 585 594
3 593 582 594
3 585 588 594
3 591 589 595
3 589 592 595
3 496 497 596
3 496 596 498
3 596 497 501
3 596 501 498
3 504 505 597
3 504 597 506
3 508 509 598
3 508 598 510
3 512 513 599
3 512 599 514
3 597 505 515
3 597 515 506
3 601 600 602
3 601 603 600
3 509 516 598
3 598 516 510
3 599 513 517
3 599 517 514
3 602 600 604
3 600 603 604
3 520 521 605
3 520 605 522
3 605 521 524
3 605 524 522
3 527 528 606
3 527 606 529
3 609 608 607
3 608 610 607
3 606 528 531
3 533 529 606
3 533 606 611
3 531 534 606
3 534 611 606
3 536 533 609
3 536 609 607
3 533 611 609
3 613 609 612
3 611 612 609
3 607 537 536
3 607 614 537
3 607 610 614
3 615 614 610
3 613 612 616
3 540 614 615
3 540 615 539
3 618 617 615
3 617 539 615
3 539 617 541
3 611 534 544
3 612 611 544
3 546 612 544
3 612 620 616
3 612 619 620
3 612 546 619
3 549 619 546
3 537 614 548
3 621 551 550
3 620 619 623
3 614 540 548
3 617 618 622
3 621 550 541
3 621 541 624
3 617 622 541
3 622 624 541
3 627 626 625
3 628 619 626
3 628 626 629
3 619 549 626
3 625 626 552
3 549 552 626
3 551 621 553
3 623 619 631
3 619 630 631
3 619 628 630
3 553 621 624
3 553 624 554
3 631 630 624
3 630 554 624
3 632 633 627
3 632 627 556
3 625 555 627
3 555 556 627
3 629 558 628
3 629 559 558
3 629 633 559
3 632 559 633
3 625 552 555
3 558 561 634
3 558 634 628
3 628 634 630
3 630 634 563
3 554 630 563
3 635 632 556
3 564 635 556
3 632 635 566
3 559 632 566
3 636 634 561
3 568 636 561
3 634 636 570
3 563 634 570
3 635 564 571
3 572 566 635
3 572 635 637
3 571 573 635
3 573 637 635
3 568 572 637
3 568 637 636
3 636 637 638
3 636 638 575
3 570 636 575
3 639 637 573
3 579 639 573
3 580 640 581
3 641 638 642
3 638 639 642
3 638 637 639
3 640 580 575
3 640 575 643
3 638 641 575
3 641 643 575
3 583 584 644
3 586 583 644
3 645 586 644
3 586 639 579
3 586 647 639
3 586 645 647
3 648 647 645
3 588 587 646
3 639 647 642
3 640 590 581
3 646 587 591
3 650 651 649
3 590 640 643
3 590 643 592
3 650 649 643
3 649 592 643
3 644 584 593
3 645 644 593
3 594 645 593
3 588 646 652
3 588 652 594
3 648 645 652
3 645 594 652
3 649 651 652
3 649 652 595
3 646 591 652
3 591 595 652
3 649 595 592
3 601 602 653
3 601 653 603
3 653 602 604
3 653 604 603
3 608 609 654
3 608 654 610
3 654 609 613
3 615 610 654
3 615 654 655
3 613 616 654
3 616 655 654
3 615 655 618
3 655 616 620
3 622 618 655
3 622 655 656
3 620 623 655
3 623 656 655
3 622 656 624
3 626 627 657
3 626 657 629
3 656 623 631
3 656 631 624
3 657 627 633
3 657 633 629
3 641 642 658
3 641 658 643
3 647 648 659
3 651 650 658
3 651 658 659
3 642 647 658
3 647 659 658
3 658 650 643
3 659 648 652
3 659 652 651
3 662 661 660
3 661 663 660
3 662 660 664
3 660 663 664
3 667 666 665
3 666 668 665
3 667 665 669
3 665 668 669
3 672 671 670
3 671 673 670
3 672 670 674
3 670 673 674
3 661 662 675
3 661 675 663
3 675 662 664
3 675 664 663
3 678 677 676
3 677 679 676
3 678 676 680
3 676 679 680
3 666 667 681
3 666 681 668
3 684 683 682
3 683 685 682
3 681 667 669
3 681 669 668
3 684 682 686
3 682 685 686
3 671 672 687
3 671 687 673
3 690 689 688
3 689 691 688
3 687 672 674
3 687 674 673
3 690 688 692
3 688 691 692
3 677 678 693
3 677 693 679
3 693 678 680
3 693 680 679
3 696 695 694
3 695 698 697
3 694 695 697
3 698 699 697
3 696 694 700
3 694 697 701
3 700 694 701
3 697 699 701
3 683 684 702
3 683 702 685
3 702 684 686
3 702 686 685
3 705 704 703
3 704 706 703
3 705 703 707
3 703 706 707
3 710 709 708
3 709 711 708
3 710 708 712
3 708 711 712
3 689 690 713
3 689 713 691
3 716 715 714
3 715 718 717
3 714 715 717
3 718 719 717
3 713 690 692
3 713 692 691
3 716 714 720
3 714 717 721
3 720 714 721
3 717 719 721
3 695 696 722
3 698 695 722
3 723 698 722
3 698 723 699
3 722 696 700
3 723 722 700
3 701 723 700
3 723 701 699
3 704 705 724
3 704 724 706
3 724 705 707
3 724 707 706
3 709 710 725
3 709 725 711
3 725 710 712
3 725 712 711
3 715 716 726
3 718 715 726
3 727 718 726
3 718 727 719
3 726 716 720
3 727 726 720
3 721 727 720
3 727 721 719
