ply
format ascii 1.0
element vertex 720
property float x
property float y
property float z
property uchar red
property uchar green
property uchar blue
element face 1436
property list uchar int vertex_indices
end_header
-9.91281509399414062 8 -9 68 0 255
-9 7.28347158432006836 -9 24 205 179
-9 8 -9.91281509399414062 106 0 255
-9.906158447265625 8 -8 0 10 255
-9 7.11632061004638672 -8 83 168 167
-9.90699958801269531 8 -7 91 227 255
-9 7.37050342559814453 -7 52 81 21
-9.90195655822753906 8 -6 16 130 255
-9 7.29125452041625977 -6 68 50 41
-9.88790607452392578 8 -5 22 90 27
-9 7.25667810440063477 -5 242 255 209
-9.89027118682861328 8 -4 163 130 46
-9 7.24461030960083008 -4 245 234 143
-9.89150714874267578 8 -3 210 233 125
-9 7.23868942260742188 -3 6 5 0
-9.64608097076416016 8 -2 173 255 148
-9 7.62723445892333984 -2 50 144 0
-9.87302589416503906 8 -1 142 255 148
-9 7.25841236114501953 -1 16 22 1
-9.8791961669921875 8 0 148 255 98
-9 7.332427978515625 0 48 255 0
-9.83552837371826172 8 1 255 183 23
-9 7.63729715347290039 1 166 36 0
-9.85857963562011719 8 2 130 43 0
-9 7.42561578750610352 2 99 255 0
-9.67059898376464844 8 3 91 29 0
-9 7.69303321838378906 3 124 255 0
-9.88668251037597656 8 4 186 255 32
-9 7.18331241607666016 4 110 84 0
-9.88712787628173828 8 5 255 19 0
-9 7.30744028091430664 5 184 255 0
-9.88315582275390625 8 6 116 255 222
-9 7.1303248405456543 6 1 0 0
-9.79900550842285156 8 7 105 255 193
-9 7.50189399719238281 7 252 229 0
-9.91683101654052734 8 8 84 45 1
-9 7.39894342422485352 8 255 123 0
-9 8 8.91683101654052734 255 108 0
-9 8.91281509399414062 -9 30 0 255
-9 8.906158447265625 -8 137 219 181
-9 8.90699958801269531 -7 1 41 45
-9 8.90195655822753906 -6 255 75 51
-9 8.88790607452392578 -5 255 247 179
-9 8.89027118682861328 -4 221 255 191
-9 8.89150714874267578 -3 240 255 131
-9 8.64608097076416016 -2 111 211 4
-9 8.87302589416503906 -1 70 149 0
-9 8.8791961669921875 0 78 135 0
-9 8.83552837371826172 1 255 29 0
-9 8.85857963562011719 2 255 39 0
-9 8.67059898376464844 3 63 32 0
-9 8.88668251037597656 4 118 102 0
-9 8.88712787628173828 5 98 70 0
-9 8.88315582275390625 6 107 46 0
-9 8.79900550842285156 7 96 6 0
-9 8.91683101654052734 8 255 108 0
-8 7.23285102844238281 -9 142 197 255
-8 8 -9.9055328369140625 60 0 255
-8 7.13704252243041992 -8 227 178 80
-8 7.50604486465454102 -7 238 229 220
-8 7.26281309127807617 -6 254 255 227
-8 7.45605707168579102 -5 46 255 111
-8 7.31286048889160156 -4 0 172 12
-8 7.31796550750732422 -3 0 255 67
-8 7.3269038200378418 -2 0 255 27
-8 7.42798519134521484 -1 34 255 0
-8 7.36541891098022461 0 145 255 0
-8 7.41184425354003906 1 131 255 0
-8 7.41548299789428711 2 159 255 0
-8 7.41675376892089844 3 185 255 0
-8 7.41464376449584961 4 218 255 0
-8 7.36739873886108398 5 180 255 0
-8 7.32161140441894531 6 208 255 0
-8 7.43373584747314453 7 255 232 0
-8 7.32410717010498047 8 201 255 0
-8 8 8.88663482666015625 130 95 0
-8 8.9055328369140625 -9 168 206 184
-8 8.88317966461181641 -8 56 100 240
-8 8.73212718963623047 -7 0 117 171
-8 8.88962078094482422 -6 255 254 228
-8 8.89495944976806641 -5 147 255 21
-8 8.87162017822265625 -4 25 144 0
-8 8.87922286987304688 -3 11 155 0
-8 8.87914466857910156 -2 0 202 2
-8 8.85390186309814453 -1 0 255 3
-8 8.86945056915283203 0 148 255 0
-8 8.85876941680908203 1 102 255 0
-8 8.85800838470458984 2 141 255 0
-8 8.85802078247070312 3 166 255 0
-8 8.85944652557373047 4 177 255 0
-8 8.87720870971679688 5 191 255 0
-8 8.90281105041503906 6 44 25 0
-8 8.90535163879394531 7 104 11 0
-8 8.88663482666015625 8 130 95 0
-7 7.12253761291503906 -9 96 217 64
-7 8 -9.89731979370117188 180 229 242
-7 7.49206638336181641 -8 252 241 235
-7 7.25009965896606445 -7 252 233 172
-7 7.23623085021972656 -6 24 36 7
-7 7.46597862243652344 -5 11 255 201
-7 7.31333494186401367 -4 5 255 79
-7 7.3409881591796875 -3 130 255 32
-7 7.38567733764648438 -2 16 255 0
-7 7.37327671051025391 -1 79 255 0
-7 7.41366720199584961 0 155 160 0
-7 7.5905451774597168 1 255 210 27
-7 7.56568050384521484 2 56 32 12
-7 7.5842137336730957 3 147 124 21
-7 7.54135608673095703 4 130 77 0
-7 7.38940286636352539 5 255 214 0
-7 7.38651657104492188 6 255 242 0
-7 7.38389301300048828 7 242 255 0
-7 7.3917546272277832 8 204 255 0
-7 8 8.85897350311279297 188 255 0
-7 8.89731979370117188 -9 55 86 145
-7 8.73882198333740234 -8 137 255 228
-7 8.88841724395751953 -7 255 253 246
-7 8.89083099365234375 -6 232 255 127
-7 8.88582611083984375 -5 0 65 4
-7 8.88216686248779297 -4 0 186 58
-7 8.87598705291748047 -3 0 255 70
-7 8.86606121063232422 -2 0 255 37
-7 8.86524581909179688 -1 44 255 0
-7 8.86386775970458984 0 113 255 0
-7 8.86582183837890625 1 151 243 0
-7 8.86727142333984375 2 184 246 0
-7 8.86679935455322266 3 214 251 0
-7 8.86448097229003906 4 238 255 0
-7 8.86396217346191406 5 236 255 0
-7 8.86594295501708984 6 239 255 0
-7 8.86634349822998047 7 228 255 0
-7 8.85897350311279297 8 188 255 0
-6 7.32651329040527344 -9 223 200 198
-6 8 -9.85039520263671875 52 66 255
-6 7.27829647064208984 -8 255 238 212
-6 7.24066781997680664 -7 37 74 24
-6 7.28920698165893555 -6 6 240 192
-6 7.32984495162963867 -5 0 255 201
-6 7.36633872985839844 -4 0 255 103
-6 7.36224031448364258 -3 0 255 14
-6 7.59963512420654297 -2 195 109 73
-6 7.38799858093261719 -1 232 233 217
-6 7.44019508361816406 0 166 174 162
-6 7.34705305099487305 1 27 60 32
-6 7.37441635131835938 2 49 103 28
-6 7.39440536499023438 3 41 146 56
-6 7.33620452880859375 4 13 32 24
-6 7.70544672012329102 5 183 203 185
-6 7.27700138092041016 6 255 250 141
-6 7.46467018127441406 7 34 6 0
-6 7.35535907745361328 8 255 232 0
-6 8 8.87235641479492188 243 255 0
-6 8.85039520263671875 -9 35 107 65
-6 8.88848590850830078 -8 255 243 223
-6 8.89192485809326172 -7 101 250 99
-6 8.88331413269042969 -6 24 137 49
-6 8.88608551025390625 -5 28 85 45
-6 8.87129306793212891 -4 4 255 115
-6 8.86750984191894531 -3 0 255 49
-6 8.86962127685546875 -2 29 255 0
-6 8.84523200988769531 -1 45 39 0
-6 8.81758403778076172 0 176 117 77
-6 8.88080787658691406 1 204 181 138
-6 8.88138771057128906 2 178 194 142
-6 8.88345623016357422 3 182 202 136
-6 8.88550376892089844 4 242 187 122
-6 8.55147743225097656 5 197 255 24
-6 8.86739826202392578 6 207 151 0
-6 8.86998844146728516 7 255 238 0
-6 8.87235641479492188 8 243 255 0
-5 7.26642990112304688 -9 255 226 191
-5 8 -9.89040374755859375 255 210 210
-5 7.27214717864990234 -8 1 58 41
-5 7.31664562225341797 -7 37 243 255
-5 7.54051399230957031 -6 34 255 248
-5 7.36703109741210938 -5 5 255 157
-5 7.38880634307861328 -4 60 186 35
-5 7.3743138313293457 -3 251 245 239
-5 7.35123014450073242 -2 27 36 22
-5 7.47192811965942383 -1 153 255 76
-5 7.61793327331542969 0 222 253 71
-5 7.52713489532470703 1 87 195 79
-5 7.53603124618530273 2 156 82 0
-5 7.47358131408691406 3 148 89 0
-5 7.43551158905029297 4 77 255 126
-5 7.33807086944580078 5 229 141 40
-5 7.47718143463134766 6 212 89 0
-5 7.369354248046875 7 177 190 180
-5 7.32147407531738281 8 255 161 112
-5 8 8.87643241882324219 246 210 0
-5 8.89040374755859375 -9 255 229 207
-5 8.88325977325439453 -8 255 243 206
-5 8.88504695892333984 -7 25 120 65
-5 8.75619602203369141 -6 64 60 58
-5 8.86885166168212891 -5 0 255 178
-5 8.86920261383056641 -4 0 255 92
-5 8.86028003692626953 -3 63 134 13
-5 8.87462997436523438 -2 230 195 192
-5 8.87267398834228516 -1 135 144 126
-5 8.84330940246582031 0 171 210 68
-5 8.78809642791748047 1 222 246 30
-5 8.79221820831298828 2 255 254 22
-5 8.82998943328857422 3 255 248 15
-5 8.88665008544921875 4 94 48 20
-5 8.86752510070800781 5 25 73 48
-5 8.88811016082763672 6 157 177 159
-5 8.81512355804443359 7 33 28 9
-5 8.87643241882324219 8 246 210 0
-4 7.23080539703369141 -9 53 49 47
-4 8 -9.88680171966552734 183 163 157
-4 7.47663688659667969 -8 132 233 100
-4 7.35923337936401367 -7 59 255 244
-4 7.35657405853271484 -6 24 255 198
-4 7.40011167526245117 -5 59 139 45
-4 7.49080801010131836 -4 226 205 151
-4 7.3315730094909668 -3 112 137 71
-4 7.66988706588745117 -2 145 150 100
-4 7.38262081146240234 -1 203 65 28
-4 7.53035879135131836 0 231 233 101
-4 7.57479238510131836 1 255 232 202
-4 7.51848840713500977 2 182 193 172
-4 7.52220487594604492 3 220 238 195
-4 7.60088634490966797 4 255 226 141
-4 7.84046077728271484 5 193 229 15
-4 7.40648412704467773 6 116 175 199
-4 7.35136556625366211 7 177 88 43
-4 7.30376386642456055 8 3 4 0
-4 8 8.89690303802490234 192 219 164
-4 8.88680171966552734 -9 255 234 187
-4 8.89233112335205078 -8 3 6 2
-4 8.85719776153564453 -7 254 255 174
-4 8.87180805206298828 -6 0 255 201
-4 8.87094020843505859 -5 9 255 138
-4 8.80600833892822266 -4 126 107 45
-4 8.86917972564697266 -3 178 176 135
-4 8.81432723999023438 -2 240 71 36
-4 8.87895393371582031 -1 38 34 16
-4 8.85541725158691406 0 162 255 218
-4 8.86924648284912109 1 194 252 255
-4 8.85596847534179688 2 226 255 49
-4 8.86007213592529297 3 94 255 148
-4 8.86935615539550781 4 121 211 221
-4 8.48167991638183594 5 76 160 60
-4 8.85227394104003906 6 255 213 18
-4 8.83528614044189453 7 79 217 168
-4 8.89690303802490234 8 192 219 164
-3 7.24389505386352539 -9 15 113 93
-3 8 -9.89420986175537109 255 210 165
-3 7.41244649887084961 -8 55 232 255
-3 7.33829832077026367 -7 35 255 226
-3 7.35663652420043945 -6 71 255 147
-3 7.43307352066040039 -5 245 201 153
-3 7.37163352966308594 -4 145 204 133
-3 7.36590003967285156 -3 161 168 163
-3 7.57154464721679688 -2 228 168 120
-3 7.45321416854858398 -1 20 25 20
-3 7.86851215362548828 0 152 240 241
-3 7.49781894683837891 1 160 233 255
-3 7.40242385864257812 2 167 224 255
-3 7.4010615348815918 3 179 223 255
-3 7.56332731246948242 4 190 224 249
-3 7.50299835205078125 5 171 188 195
-3 7.53186416625976562 6 225 250 198
-3 7.46035432815551758 7 189 173 0
-3 7.58431434631347656 8 89 29 23
-3 8 8.86422443389892578 63 20 0
-3 8.89420986175537109 -9 12 11 10
-3 8.88541507720947266 -8 27 38 28
-3 8.87827110290527344 -7 32 255 235
-3 8.87251567840576172 -6 23 255 170
-3 8.84478187561035156 -5 13 18 6
-3 8.86618423461914062 -4 175 164 113
-3 8.85999679565429688 -3 140 238 128
-3 8.83000278472900391 -2 226 255 243
-3 8.85973930358886719 -1 234 58 37
-3 8.37117862701416016 0 11 9 7
-3 8.79201984405517578 1 159 161 151
-3 8.84596157073974609 2 10 11 10
-3 8.84350776672363281 3 27 29 28
-3 8.73131561279296875 4 255 252 184
-3 8.77684497833251953 5 187 255 53
-3 8.84660053253173828 6 231 213 0
-3 8.84318828582763672 7 255 165 139
-3 8.86422443389892578 8 63 20 0
-2 7.40758132934570312 -9 231 229 229
-2 8 -9.89377593994140625 255 217 146
-2 7.40412425994873047 -8 51 254 255
-2 7.34040164947509766 -7 61 255 200
-2 7.51798105239868164 -6 255 248 239
-2 7.43915843963623047 -5 144 106 77
-2 7.50261974334716797 -4 214 219 163
-2 7.61383295059204102 -3 3 2 2
-2 7.4898371696472168 -2 102 186 142
-2 7.44148159027099609 -1 117 255 248
-2 7.38003349304199219 0 115 234 255
-2 7.37196445465087891 1 123 217 255
-2 7.36436986923217773 2 133 208 255
-2 7.35541963577270508 3 144 204 255
-2 7.34466409683227539 4 155 206 255
-2 7.33500957489013672 5 169 212 255
-2 7.47638225555419922 6 187 222 252
-2 7.39331960678100586 7 20 21 21
-2 7.47297096252441406 8 204 184 11
-2 8 8.83620357513427734 237 255 222
-2 8.89377593994140625 -9 7 22 13
-2 8.83191490173339844 -8 150 255 166
-2 8.87518119812011719 -7 35 255 206
-2 8.87224960327148438 -6 60 244 126
-2 8.86593818664550781 -5 209 183 140
-2 8.81968021392822266 -4 242 145 81
-2 8.85356616973876953 -3 250 255 157
-2 8.81741428375244141 -2 255 168 118
-2 8.83612537384033203 -1 18 22 17
-2 8.86755657196044922 0 159 255 247
-2 8.86990261077880859 1 157 239 255
-2 8.87119960784912109 2 164 229 255
-2 8.87287521362304688 3 175 227 255
-2 8.87496089935302734 4 190 232 255
-2 8.87516593933105469 5 193 219 224
-2 8.78519344329833984 6 247 255 199
-2 8.85730552673339844 7 225 187 0
-2 8.83620357513427734 8 237 255 222
-1 7.80416154861450195 -9 234 244 156
-1 8 -9.6944122314453125 255 219 138
-1 7.31223773956298828 -8 68 255 239
-1 7.36165714263916016 -7 97 217 121
-1 7.79296207427978516 -6 228 184 124
-1 7.59686660766601562 -5 72 71 48
-1 7.87139701843261719 -4 235 126 123
-1 7.45537519454956055 -3 82 156 108
-1 7.4292149543762207 -2 96 255 232
-1 7.39609479904174805 -1 87 253 255
-1 7.39163875579833984 0 86 233 255
-1 7.38323020935058594 1 98 215 255
-1 7.37428712844848633 2 110 205 255
-1 7.36540651321411133 3 120 199 255
-1 7.35585784912109375 4 129 196 255
-1 7.34282875061035156 5 139 198 255
-1 7.32176113128662109 6 152 205 255
-1 7.39374065399169922 7 170 219 255
-1 7.41935157775878906 8 114 116 114
-1 8 8.85803508758544922 231 183 11
-1 8.6944122314453125 -9 253 247 246
-1 8.88327121734619141 -8 59 255 237
-1 8.87620735168457031 -7 58 255 188
-1 8.53132724761962891 -6 255 216 189
-1 8.73961162567138672 -5 255 246 242
-1 8.41757678985595703 -4 69 75 67
-1 8.84465408325195312 -3 255 143 113
-1 8.84852790832519531 -2 78 115 83
-1 8.86583614349365234 -1 127 255 246
-1 8.86607837677001953 0 117 244 255
-1 8.86678123474121094 1 121 229 255
-1 8.86808872222900391 2 130 218 255
-1 8.86995410919189453 3 141 213 255
-1 8.87252998352050781 4 152 213 255
-1 8.87606430053710938 5 165 218 255
-1 8.88006019592285156 6 188 234 255
-1 8.82875823974609375 7 196 204 185
-1 8.85803508758544922 8 231 183 11
0 7.46995639801025391 -9 102 251 255
0 8 -9.75609016418457031 219 200 191
0 7.30978584289550781 -8 89 255 226
0 7.5850834846496582 -7 213 206 202
0 7.37579917907714844 -6 28 30 16
0 7.45394992828369141 -5 147 111 74
0 7.55049705505371094 -4 217 196 155
0 7.56557369232177734 -3 88 250 212
0 7.41087722778320312 -2 76 255 248
0 7.40980195999145508 -1 70 239 255
0 7.40071582794189453 0 73 226 255
0 7.39014530181884766 1 80 222 255
0 7.36741781234741211 2 203 243 194
0 7.36976242065429688 3 129 222 248
0 7.36112594604492188 4 112 200 255
0 7.3504185676574707 5 115 194 255
0 7.33092689514160156 6 123 196 255
0 7.2982635498046875 7 135 205 255
0 7.65620517730712891 8 149 213 236
0 8 8.59286308288574219 66 69 45
0 8.75609016418457031 -9 255 244 243
0 8.88230133056640625 -8 73 255 230
0 8.87680912017822266 -7 88 255 171
0 8.86534023284912109 -6 211 168 107
0 8.83672237396240234 -5 242 255 245
0 8.86019802093505859 -4 196 102 61
0 8.76886940002441406 -3 157 154 124
0 8.86340141296386719 -2 117 255 237
0 8.86270236968994141 -1 102 245 255
0 8.86275768280029297 0 98 228 255
0 8.86398601531982422 1 102 217 255
0 8.86583518981933594 2 107 211 255
0 8.86781024932861328 3 113 209 255
0 8.870269775390625 4 123 207 255
0 8.87404537200927734 5 133 208 255
0 8.87926387786865234 6 145 215 255
0 8.88432598114013672 7 174 240 255
0 8.59286308288574219 8 66 69 45
1 7.52918577194213867 -9 113 252 255
1 8 -9.70784473419189453 255 207 181
1 7.30196714401245117 -8 113 255 217
1 7.4055328369140625 -7 255 148 115
1 7.53185510635375977 -6 197 252 205
1 7.48006153106689453 -5 172 121 88
1 7.4363250732421875 -4 67 154 96
1 7.4294276237487793 -3 70 255 228
1 7.42523908615112305 -2 60 250 255
1 7.41954278945922852 -1 58 229 255
1 7.39398097991943359 0 139 253 198
1 7.4638819694519043 1 245 239 213
1 7.5127568244934082 2 144 243 243
1 7.49759435653686523 3 173 229 198
1 7.41887903213500977 4 52 53 52
1 7.34964752197265625 5 113 206 255
1 7.33455610275268555 6 97 196 255
1 7.29930877685546875 7 105 201 255
1 7.29128742218017578 8 118 216 255
1 8 8.86967372894287109 56 67 54
1 8.70784473419189453 -9 255 251 248
1 8.88328075408935547 -8 91 255 224
1 8.87025165557861328 -7 84 161 85
1 8.86516666412353516 -6 171 148 70
1 8.82169151306152344 -5 224 191 153
1 8.85893440246582031 -4 255 171 145
1 8.85679531097412109 -3 107 207 158
1 8.86086654663085938 -2 94 255 251
1 8.859710693359375 -1 85 233 255
1 8.8602294921875 0 83 216 255
1 8.86254596710205078 1 88 206 255
1 8.86486911773681641 2 95 201 255
1 8.86700153350830078 3 100 198 255
1 8.86932563781738281 4 105 198 255
1 8.87285041809082031 5 110 201 255
1 8.87857151031494141 6 117 208 255
1 8.88556098937988281 7 129 222 255
1 8.86967372894287109 8 56 67 54
2 7.40171098709106445 -9 131 254 255
2 8 -9.79507064819335938 144 138 119
2 7.2916865348815918 -8 138 255 213
2 7.44516181945800781 -7 251 144 70
2 7.42200851440429688 -6 57 72 22
2 7.40851593017578125 -5 223 187 169
2 7.58730506896972656 -4 70 218 160
2 7.42690181732177734 -3 55 255 236
2 7.43601751327514648 -2 47 242 255
2 7.39015960693359375 -1 255 254 252
2 7.49889230728149414 0 91 128 95
2 7.58410453796386719 1 160 255 141
2 7.49266242980957031 2 140 208 152
2 7.40334272384643555 3 28 37 36
2 7.48903894424438477 4 95 190 255
2 7.33788490295410156 5 241 255 227
2 7.33225870132446289 6 85 186 255
2 7.29664516448974609 7 84 194 255
2 7.25061559677124023 8 92 210 255
2 8 8.88925743103027344 99 167 150
2 8.79507064819335938 -9 99 171 152
2 8.88538360595703125 -8 112 255 222
2 8.84332275390625 -7 57 57 41
2 8.85656070709228516 -6 243 255 243
2 8.86324882507324219 -5 38 36 24
2 8.75891876220703125 -4 222 223 201
2 8.86148929595947266 -3 101 255 220
2 8.85898208618164062 -2 78 250 255
2 8.85750579833984375 -1 71 224 255
2 8.85863208770751953 0 70 207 255
2 8.86174392700195312 1 79 196 255
2 8.86903572082519531 2 170 255 228
2 8.86752033233642578 3 103 191 255
2 8.86934089660644531 4 91 187 255
2 8.87284278869628906 5 93 190 255
2 8.87898635864257812 6 98 196 255
2 8.88635444641113281 7 106 209 255
2 8.88925743103027344 8 99 167 150
3 7.4165654182434082 -9 152 255 253
3 8 -9.77051544189453125 255 241 112
3 7.2766270637512207 -8 161 255 216
3 7.47784948348999023 -7 255 120 113
3 7.52507495880126953 -6 78 94 20
3 7.39373207092285156 -5 238 228 208
3 7.59701967239379883 -4 60 231 173
3 7.4273529052734375 -3 43 255 238
3 7.44210100173950195 -2 35 238 255
3 7.42394351959228516 -1 86 248 255
3 7.55287313461303711 0 53 219 255
3 7.40151357650756836 1 47 65 62
3 7.47340297698974609 2 246 255 228
3 7.58593893051147461 3 58 46 46
3 7.58426666259765625 4 0 1 0
3 7.4851841926574707 5 74 192 237
3 7.29775714874267578 6 251 255 240
3 7.28585100173950195 7 66 185 255
3 7.23305654525756836 8 72 202 255
3 8 8.89295005798339844 100 202 190
3 8.77051544189453125 -9 62 91 77
3 8.88818073272705078 -8 133 255 225
3 8.81704521179199219 -7 176 163 152
3 8.80406665802001953 -6 255 185 112
3 8.86882781982421875 -5 40 35 32
3 8.7500457763671875 -4 206 207 204
3 8.86289215087890625 -3 83 255 224
3 8.85871982574462891 -2 63 246 255
3 8.85681056976318359 -1 57 219 255
3 8.85768318176269531 0 57 200 255
3 8.86702251434326172 1 164 255 210
3 8.86627960205078125 2 109 205 255
3 8.86890220642089844 3 112 201 255
3 8.87520503997802734 4 187 255 214
3 8.87394809722900391 5 76 181 255
3 8.88076591491699219 6 80 187 255
3 8.88829994201660156 7 85 201 255
3 8.89295005798339844 8 100 202 190
4 7.4798426628112793 -9 173 255 254
4 8 -9.697845458984375 255 212 65
4 7.25135278701782227 -8 180 255 228
4 7.365386962890625 -7 234 255 242
4 7.4932861328125 -6 101 255 132
4 7.38803339004516602 -5 202 181 175
4 7.40446758270263672 -4 48 220 147
4 7.41710805892944336 -3 27 255 228
4 7.43467473983764648 -2 19 244 255
4 7.39138078689575195 -1 255 246 226
4 7.40308570861816406 0 63 135 123
4 7.54768943786621094 1 117 115 114
4 7.40691232681274414 2 37 46 41
4 7.39792871475219727 3 59 71 65
4 7.42197132110595703 4 69 167 255
4 7.33677768707275391 5 38 181 255
4 7.30394601821899414 6 80 182 255
4 7.26358890533447266 7 46 184 255
4 7.21880197525024414 8 51 205 255
4 8 8.89025688171386719 42 90 65
4 8.697845458984375 -9 203 205 181
4 8.89164924621582031 -8 156 255 233
4 8.85031986236572266 -7 73 73 64
4 8.87654590606689453 -6 187 172 120
4 8.85879325866699219 -5 141 112 95
4 8.86480045318603516 -4 251 255 240
4 8.86554908752441406 -3 72 255 208
4 8.86142158508300781 -2 45 254 255
4 8.85969924926757812 -1 40 222 255
4 8.85893154144287109 0 39 201 255
4 8.86389541625976562 1 76 190 255
4 8.87003898620605469 2 138 255 232
4 8.87074375152587891 3 100 200 255
4 8.87857341766357422 4 214 255 201
4 8.87683486938476562 5 55 179 255
4 8.88413810729980469 6 60 185 255
4 8.89159679412841797 7 65 202 255
4 8.89025688171386719 8 42 90 65
5 7.15596914291381836 -9 222 255 219
5 8 -9.89323329925537109 255 248 35
5 7.21846151351928711 -8 199 255 242
5 7.29764461517333984 -7 254 125 78
5 7.27461481094360352 -6 32 44 21
5 7.51708698272705078 -5 179 158 140
5 7.42719793319702148 -4 17 53 13
5 7.43157958984375 -3 8 255 202
5 7.40872716903686523 -2 2 255 251
5 7.4083099365234375 -1 44 231 255
5 7.40624380111694336 0 0 209 255
5 7.37114667892456055 1 70 138 134
5 7.40992355346679688 2 124 255 187
5 7.38058948516845703 3 250 255 210
5 7.32883644104003906 4 10 194 255
5 7.32324790954589844 5 19 174 255
5 7.24960947036743164 6 255 253 228
5 7.23067712783813477 7 26 191 255
5 7.43193864822387695 8 33 216 255
5 8 8.70957851409912109 120 140 90
5 8.89323329925537109 -9 56 24 11
5 8.89572811126708984 -8 182 255 243
5 8.88191127777099609 -7 118 138 118
5 8.88144779205322266 -6 185 93 77
5 8.77741527557373047 -5 130 255 177
5 8.87391281127929688 -4 247 210 206
5 8.85193538665771484 -3 35 112 43
5 8.86736202239990234 -2 27 255 235
5 8.86492061614990234 -1 22 235 255
5 8.86384868621826172 0 17 215 255
5 8.87272453308105469 1 158 255 153
5 8.8690185546875 2 53 178 255
5 8.87239265441894531 3 55 174 255
5 8.87834072113037109 4 85 206 255
5 8.8820343017578125 5 34 183 255
5 8.88835239410400391 6 37 196 255
5 8.89631462097167969 7 49 212 255
5 8.70957851409912109 8 120 140 90
6 7.16522359848022461 -9 49 66 23
6 8 -9.90211868286132812 32 30 12
6 7.17850971221923828 -8 220 255 251
6 7.51793956756591797 -7 235 242 109
6 7.53688192367553711 -6 62 61 25
6 7.29773521423339844 -5 67 75 49
6 7.42485141754150391 -4 175 255 163
6 7.42990541458129883 -3 0 255 178
6 7.37482452392578125 -2 0 255 225
6 7.35695600509643555 -1 210 255 124
6 7.39440393447875977 0 0 228 255
6 7.38415002822875977 1 0 202 255
6 7.36253261566162109 2 0 196 255
6 7.34801959991455078 3 0 186 255
6 7.32671594619750977 4 0 181 255
6 7.25524520874023438 5 255 250 198
6 7.24560308456420898 6 0 200 255
6 7.2036595344543457 7 2 220 255
6 7.16368770599365234 8 32 209 183
6 8 8.89048957824707031 251 255 246
6 8.90211868286132812 -9 83 25 17
6 8.90134048461914062 -8 249 253 252
6 8.89328575134277344 -7 200 234 219
6 8.89051914215087891 -6 185 235 202
6 8.88933181762695312 -5 67 110 50
6 8.87704563140869141 -4 211 186 167
6 8.8356781005859375 -3 175 255 178
6 8.87557601928710938 -2 24 255 205
6 8.87089347839355469 -1 0 255 240
6 8.87097072601318359 0 3 229 255
6 8.87174415588378906 1 0 218 255
6 8.87444496154785156 2 12 191 255
6 8.87739849090576172 3 4 198 255
6 8.88237953186035156 4 10 194 255
6 8.88749408721923828 5 15 201 255
6 8.8941802978515625 6 16 217 255
6 8.89528846740722656 7 41 168 123
6 8.89048957824707031 8 251 255 246
7 7.14728116989135742 -9 51 15 4
7 8 -9.90539169311523438 255 157 0
7 7.13512182235717773 -8 246 255 254
7 7.23010730743408203 -7 152 168 156
7 7.47913503646850586 -6 226 180 55
7 7.61380386352539062 -5 65 255 102
7 7.36934661865234375 -4 218 212 210
7 7.53217363357543945 -3 252 201 57
7 7.66740894317626953 -2 0 255 188
7 7.34338283538818359 -1 0 255 231
7 7.3083653450012207 0 255 232 135
7 7.31708240509033203 1 154 255 101
7 7.33944988250732422 2 0 226 255
7 7.31832218170166016 3 0 220 255
7 7.26981115341186523 4 34 240 255
7 7.24331760406494141 5 0 227 255
7 7.20804500579833984 6 0 233 255
7 7.15696382522583008 7 0 247 255
7 7.32023429870605469 8 157 255 202
7 8 8.88406562805175781 255 231 221
7 8.90539169311523438 -9 191 56 12
7 8.90559196472167969 -8 176 215 188
7 8.89919376373291016 -7 233 255 249
7 8.74751091003417969 -6 61 255 68
7 8.81371688842773438 -5 179 110 68
7 8.84751224517822266 -4 122 255 152
7 8.88089847564697266 -3 255 253 253
7 8.6442413330078125 -2 21 28 12
7 8.88166904449462891 -1 1 255 206
7 8.87883663177490234 0 0 255 235
7 8.87862491607666016 1 0 248 255
7 8.88104248046875 2 0 228 255
7 8.88429927825927734 3 0 222 255
7 8.88848781585693359 4 0 231 255
7 8.89506340026855469 5 0 232 255
7 8.89636421203613281 6 28 210 154
7 8.88806056976318359 7 186 255 204
7 8.88406562805175781 8 255 231 221
8 7.0972895622253418 -9 151 24 0
8 8 -9.90513992309570312 255 42 0
8 7.07419013977050781 -8 167 244 199
8 7.14638042449951172 -7 234 255 251
8 7.35241127014160156 -6 91 144 104
8 7.43803548812866211 -5 133 255 82
8 7.57682943344116211 -4 24 23 7
8 7.57670927047729492 -3 255 222 184
8 7.54906320571899414 -2 245 177 48
8 7.30045223236083984 -1 0 255 193
8 7.37841653823852539 0 0 255 211
8 7.29324817657470703 1 0 255 236
8 7.27800559997558594 2 0 255 238
8 7.25758695602416992 3 0 255 244
8 7.23294830322265625 4 0 249 255
8 7.40977811813354492 5 0 255 243
8 7.15175056457519531 6 0 255 216
8 7.30991411209106445 7 128 255 185
8 7.31226015090942383 8 242 236 234
8 8 8.84154033660888672 52 255 245
8 8.90513992309570312 -9 255 200 0
8 8.9027252197265625 -8 134 37 12
8 8.90483856201171875 -7 231 241 239
8 8.89610099792480469 -6 161 176 167
8 8.8951568603515625 -5 112 215 84
8 8.86874580383300781 -4 57 255 113
8 8.68169975280761719 -3 139 188 70
8 8.88192844390869141 -2 255 228 220
8 8.87629890441894531 -1 137 255 158
8 8.84764957427978516 0 7 15 1
8 8.88978004455566406 1 0 255 209
8 8.89237403869628906 2 0 255 245
8 8.89501953125 3 0 255 249
8 8.89573001861572266 4 5 255 192
8 8.75228977203369141 5 180 196 57
8 8.89342975616455078 6 180 255 173
8 8.89225673675537109 7 252 240 239
8 8.84154033660888672 8 52 255 245
8.90513992309570312 8 -9 255 200 0
8.9027252197265625 8 -8 134 37 12
8.90483856201171875 8 -7 231 241 239
8.89610099792480469 8 -6 161 176 167
8.8951568603515625 8 -5 112 215 84
8.86874580383300781 8 -4 57 255 113
8.68169975280761719 8 -3 139 188 70
8.88192844390869141 8 -2 255 228 220
8.87629890441894531 8 -1 137 255 158
8.84764957427978516 8 0 7 15 1
8.88978004455566406 8 1 0 255 209
8.89237403869628906 8 2 0 255 245
8.89501953125 8 3 0 255 249
8.89573001861572266 8 4 5 255 192
8.75228977203369141 8 5 180 196 57
8.89342975616455078 8 6 180 255 173
8.89225673675537109 8 7 252 240 239
8.84154033660888672 8 8 52 255 245
3 2 1 0
3 1 4 3
3 0 1 3
3 4 6 5
3 3 4 5
3 6 8 7
3 5 6 7
3 8 10 9
3 7 8 9
3 10 12 11
3 9 10 11
3 12 14 13
3 11 12 13
3 14 16 15
3 13 14 15
3 16 18 17
3 15 16 17
3 18 20 19
3 17 18 19
3 20 22 21
3 19 20 21
3 22 24 23
3 21 22 23
3 24 26 25
3 23 24 25
3 26 28 27
3 25 26 27
3 28 30 29
3 27 28 29
3 30 32 31
3 29 30 31
3 32 34 33
3 31 32 33
3 34 36 35
3 33 34 35
3 36 37 35
3 2 0 38
3 0 3 39
3 38 0 39
3 3 5 40
3 39 3 40
3 5 7 41
3 40 5 41
3 7 9 42
3 41 7 42
3 9 11 43
3 42 9 43
3 11 13 44
3 43 11 44
3 13 15 45
3 44 13 45
3 15 17 46
3 45 15 46
3 17 19 47
3 46 17 47
3 19 21 48
3 47 19 48
3 21 23 49
3 48 21 49
3 23 25 50
3 49 23 50
3 25 27 51
3 50 25 51
3 27 29 52
3 51 27 52
3 29 31 53
3 52 29 53
3 31 33 54
3 53 31 54
3 33 35 55
3 54 33 55
3 35 37 55
3 2 57 56
3 1 2 56
3 56 58 1
3 1 58 4
3 58 59 4
3 4 59 6
3 59 60 6
3 6 60 8
3 60 61 8
3 8 61 10
3 61 62 10
3 10 62 12
3 62 63 12
3 12 63 14
3 63 64 14
3 14 64 16
3 64 65 16
3 16 65 18
3 65 66 18
3 18 66 20
3 66 67 20
3 20 67 22
3 67 68 22
3 22 68 24
3 68 69 24
3 24 69 26
3 69 70 26
3 26 70 28
3 70 71 28
3 28 71 30
3 71 72 30
3 30 72 32
3 72 73 32
3 32 73 34
3 73 74 34
3 34 74 36
3 36 74 75
3 37 36 75
3 57 2 38
3 76 57 38
3 76 38 77
3 38 39 77
3 77 39 78
3 39 40 78
3 78 40 79
3 40 41 79
3 79 41 80
3 41 42 80
3 80 42 81
3 42 43 81
3 81 43 82
3 43 44 82
3 82 44 83
3 44 45 83
3 83 45 84
3 45 46 84
3 84 46 85
3 46 47 85
3 85 47 86
3 47 48 86
3 86 48 87
3 48 49 87
3 87 49 88
3 49 50 88
3 88 50 89
3 50 51 89
3 89 51 90
3 51 52 90
3 90 52 91
3 52 53 91
3 91 53 92
3 53 54 92
3 92 54 93
3 54 55 93
3 93 55 37
3 75 93 37
3 57 95 94
3 56 57 94
3 94 96 56
3 56 96 58
3 96 97 58
3 58 97 59
3 97 98 59
3 59 98 60
3 98 99 60
3 60 99 61
3 99 100 61
3 61 100 62
3 100 101 62
3 62 101 63
3 101 102 63
3 63 102 64
3 102 103 64
3 64 103 65
3 103 104 65
3 65 104 66
3 104 105 66
3 66 105 67
3 105 106 67
3 67 106 68
3 106 107 68
3 68 107 69
3 107 108 69
3 69 108 70
3 108 109 70
3 70 109 71
3 109 110 71
3 71 110 72
3 110 111 72
3 72 111 73
3 111 112 73
3 73 112 74
3 74 112 113
3 75 74 113
3 95 57 76
3 114 95 76
3 114 76 115
3 76 77 115
3 115 77 116
3 77 78 116
3 116 78 117
3 78 79 117
3 117 79 118
3 79 80 118
3 118 80 119
3 80 81 119
3 119 81 120
3 81 82 120
3 120 82 121
3 82 83 121
3 121 83 122
3 83 84 122
3 122 84 123
3 84 85 123
3 123 85 124
3 85 86 124
3 124 86 125
3 86 87 125
3 125 87 126
3 87 88 126
3 126 88 127
3 88 89 127
3 127 89 128
3 89 90 128
3 128 90 129
3 90 91 129
3 129 91 130
3 91 92 130
3 130 92 131
3 92 93 131
3 131 93 75
3 113 131 75
3 95 133 132
3 94 95 132
3 132 134 94
3 94 134 96
3 134 135 96
3 96 135 97
3 135 136 97
3 97 136 98
3 136 137 98
3 98 137 99
3 137 138 99
3 99 138 100
3 138 139 100
3 100 139 101
3 139 140 101
3 101 140 102
3 140 141 102
3 102 141 103
3 141 142 103
3 103 142 104
3 142 143 104
3 104 143 105
3 143 144 105
3 105 144 106
3 144 145 106
3 106 145 107
3 145 146 107
3 107 146 108
3 146 147 108
3 108 147 109
3 147 148 109
3 109 148 110
3 148 149 110
3 110 149 111
3 149 150 111
3 111 150 112
3 112 150 151
3 113 112 151
3 133 95 114
3 152 133 114
3 152 114 153
3 114 115 153
3 153 115 154
3 115 116 154
3 154 116 155
3 116 117 155
3 155 117 156
3 117 118 156
3 156 118 157
3 118 119 157
3 157 119 158
3 119 120 158
3 158 120 159
3 120 121 159
3 159 121 160
3 121 122 160
3 160 122 161
3 122 123 161
3 161 123 162
3 123 124 162
3 162 124 163
3 124 125 163
3 163 125 164
3 125 126 164
3 164 126 165
3 126 127 165
3 165 127 166
3 127 128 166
3 166 128 167
3 128 129 167
3 167 129 168
3 129 130 168
3 168 130 169
3 130 131 169
3 169 131 113
3 151 169 113
3 133 171 170
3 132 133 170
3 170 172 132
3 132 172 134
3 172 173 134
3 134 173 135
3 173 174 135
3 135 174 136
3 174 175 136
3 136 175 137
3 175 176 137
3 137 176 138
3 176 177 138
3 138 177 139
3 177 178 139
3 139 178 140
3 178 179 140
3 140 179 141
3 179 180 141
3 141 180 142
3 180 181 142
3 142 181 143
3 181 182 143
3 143 182 144
3 182 183 144
3 144 183 145
3 183 184 145
3 145 184 146
3 184 185 146
3 146 185 147
3 185 186 147
3 147 186 148
3 186 187 148
3 148 187 149
3 187 188 149
3 149 188 150
3 150 188 189
3 151 150 189
3 171 133 152
3 190 171 152
3 190 152 191
3 152 153 191
3 191 153 192
3 153 154 192
3 192 154 193
3 154 155 193
3 193 155 194
3 155 156 194
3 194 156 195
3 156 157 195
3 195 157 196
3 157 158 196
3 196 158 197
3 158 159 197
3 197 159 198
3 159 160 198
3 198 160 199
3 160 161 199
3 199 161 200
3 161 162 200
3 200 162 201
3 162 163 201
3 201 163 202
3 163 164 202
3 202 164 203
3 164 165 203
3 203 165 204
3 165 166 204
3 204 166 205
3 166 167 205
3 205 167 206
3 167 168 206
3 206 168 207
3 168 169 207
3 207 169 151
3 189 207 151
3 171 209 208
3 170 171 208
3 208 210 170
3 170 210 172
3 210 211 172
3 172 211 173
3 211 212 173
3 173 212 174
3 212 213 174
3 174 213 175
3 213 214 175
3 175 214 176
3 214 215 176
3 176 215 177
3 215 216 177
3 177 216 178
3 216 217 178
3 178 217 179
3 217 218 179
3 179 218 180
3 218 219 180
3 180 219 181
3 219 220 181
3 181 220 182
3 220 221 182
3 182 221 183
3 221 222 183
3 183 222 184
3 222 223 184
3 184 223 185
3 223 224 185
3 185 224 186
3 224 225 186
3 186 225 187
3 225 226 187
3 187 226 188
3 188 226 227
3 189 188 227
3 209 171 190
3 228 209 190
3 228 190 229
3 190 191 229
3 229 191 230
3 191 192 230
3 230 192 231
3 192 193 231
3 231 193 232
3 193 194 232
3 232 194 233
3 194 195 233
3 233 195 234
3 195 196 234
3 234 196 235
3 196 197 235
3 235 197 236
3 197 198 236
3 236 198 237
3 198 199 237
3 237 199 238
3 199 200 238
3 238 200 239
3 200 201 239
3 239 201 240
3 201 202 240
3 240 202 241
3 202 203 241
3 241 203 242
3 203 204 242
3 242 204 243
3 204 205 243
3 243 205 244
3 205 206 244
3 244 206 245
3 206 207 245
3 245 207 189
3 227 245 189
3 209 247 246
3 208 209 246
3 246 248 208
3 208 248 210
3 248 249 210
3 210 249 211
3 249 250 211
3 211 250 212
3 250 251 212
3 212 251 213
3 251 252 213
3 213 252 214
3 252 253 214
3 214 253 215
3 253 254 215
3 215 254 216
3 254 255 216
3 216 255 217
3 255 256 217
3 217 256 218
3 256 257 218
3 218 257 219
3 257 258 219
3 219 258 220
3 258 259 220
3 220 259 221
3 259 260 221
3 221 260 222
3 260 261 222
3 222 261 223
3 261 262 223
3 223 262 224
3 262 263 224
3 224 263 225
3 263 264 225
3 225 264 226
3 226 264 265
3 227 226 265
3 247 209 228
3 266 247 228
3 266 228 267
3 228 229 267
3 267 229 268
3 229 230 268
3 268 230 269
3 230 231 269
3 269 231 270
3 231 232 270
3 270 232 271
3 232 233 271
3 271 233 272
3 233 234 272
3 272 234 273
3 234 235 273
3 273 235 274
3 235 236 274
3 274 236 275
3 236 237 275
3 275 237 276
3 237 238 276
3 276 238 277
3 238 239 277
3 277 239 278
3 239 240 278
3 278 240 279
3 240 241 279
3 279 241 280
3 241 242 280
3 280 242 281
3 242 243 281
3 281 243 282
3 243 244 282
3 282 244 283
3 244 245 283
3 283 245 227
3 265 283 227
3 247 285 284
3 246 247 284
3 284 286 246
3 246 286 248
3 286 287 248
3 248 287 249
3 287 288 249
3 249 288 250
3 288 289 250
3 250 289 251
3 289 290 251
3 251 290 252
3 290 291 252
3 252 291 253
3 291 292 253
3 253 292 254
3 292 293 254
3 254 293 255
3 293 294 255
3 255 294 256
3 294 295 256
3 256 295 257
3 295 296 257
3 257 296 258
3 296 297 258
3 258 297 259
3 297 298 259
3 259 298 260
3 298 299 260
3 260 299 261
3 299 300 261
3 261 300 262
3 300 301 262
3 262 301 263
3 301 302 263
3 263 302 264
3 264 302 303
3 265 264 303
3 285 247 266
3 304 285 266
3 304 266 305
3 266 267 305
3 305 267 306
3 267 268 306
3 306 268 307
3 268 269 307
3 307 269 308
3 269 270 308
3 308 270 309
3 270 271 309
3 309 271 310
3 271 272 310
3 310 272 311
3 272 273 311
3 311 273 312
3 273 274 312
3 312 274 313
3 274 275 313
3 313 275 314
3 275 276 314
3 314 276 315
3 276 277 315
3 315 277 316
3 277 278 316
3 316 278 317
3 278 279 317
3 317 279 318
3 279 280 318
3 318 280 319
3 280 281 319
3 319 281 320
3 281 282 320
3 320 282 321
3 282 283 321
3 321 283 265
3 303 321 265
3 285 323 322
3 284 285 322
3 322 324 284
3 284 324 286
3 324 325 286
3 286 325 287
3 325 326 287
3 287 326 288
3 326 327 288
3 288 327 289
3 327 328 289
3 289 328 290
3 328 329 290
3 290 329 291
3 329 330 291
3 291 330 292
3 330 331 292
3 292 331 293
3 331 332 293
3 293 332 294
3 332 333 294
3 294 333 295
3 333 334 295
3 295 334 296
3 334 335 296
3 296 335 297
3 335 336 297
3 297 336 298
3 336 337 298
3 298 337 299
3 337 338 299
3 299 338 300
3 338 339 300
3 300 339 301
3 339 340 301
3 301 340 302
3 302 340 341
3 303 302 341
3 323 285 304
3 342 323 304
3 342 304 343
3 304 305 343
3 343 305 344
3 305 306 344
3 344 306 345
3 306 307 345
3 345 307 346
3 307 308 346
3 346 308 347
3 308 309 347
3 347 309 348
3 309 310 348
3 348 310 349
3 310 311 349
3 349 311 350
3 311 312 350
3 350 312 351
3 312 313 351
3 351 313 352
3 313 314 352
3 352 314 353
3 314 315 353
3 353 315 354
3 315 316 354
3 354 316 355
3 316 317 355
3 355 317 356
3 317 318 356
3 356 318 357
3 318 319 357
3 357 319 358
3 319 320 358
3 358 320 359
3 320 321 359
3 359 321 303
3 341 359 303
3 323 361 360
3 322 323 360
3 360 362 322
3 322 362 324
3 362 363 324
3 324 363 325
3 363 364 325
3 325 364 326
3 364 365 326
3 326 365 327
3 365 366 327
3 327 366 328
3 366 367 328
3 328 367 329
3 367 368 329
3 329 368 330
3 368 369 330
3 330 369 331
3 369 370 331
3 331 370 332
3 370 371 332
3 332 371 333
3 371 372 333
3 333 372 334
3 372 373 334
3 334 373 335
3 373 374 335
3 335 374 336
3 374 375 336
3 336 375 337
3 375 376 337
3 337 376 338
3 376 377 338
3 338 377 339
3 377 378 339
3 339 378 340
3 340 378 379
3 341 340 379
3 361 323 342
3 380 361 342
3 380 342 381
3 342 343 381
3 381 343 382
3 343 344 382
3 382 344 383
3 344 345 383
3 383 345 384
3 345 346 384
3 384 346 385
3 346 347 385
3 385 347 386
3 347 348 386
3 386 348 387
3 348 349 387
3 387 349 388
3 349 350 388
3 388 350 389
3 350 351 389
3 389 351 390
3 351 352 390
3 390 352 391
3 352 353 391
3 391 353 392
3 353 354 392
3 392 354 393
3 354 355 393
3 393 355 394
3 355 356 394
3 394 356 395
3 356 357 395
3 395 357 396
3 357 358 396
3 396 358 397
3 358 359 397
3 397 359 341
3 379 397 341
3 361 399 398
3 360 361 398
3 398 400 360
3 360 400 362
3 400 401 362
3 362 401 363
3 401 402 363
3 363 402 364
3 402 403 364
3 364 403 365
3 403 404 365
3 365 404 366
3 404 405 366
3 366 405 367
3 405 406 367
3 367 406 368
3 406 407 368
3 368 407 369
3 407 408 369
3 369 408 370
3 408 409 370
3 370 409 371
3 409 410 371
3 371 410 372
3 410 411 372
3 372 411 373
3 411 412 373
3 373 412 374
3 412 413 374
3 374 413 375
3 413 414 375
3 375 414 376
3 414 415 376
3 376 415 377
3 415 416 377
3 377 416 378
3 378 416 417
3 379 378 417
3 399 361 380
3 418 399 380
3 418 380 419
3 380 381 419
3 419 381 420
3 381 382 420
3 420 382 421
3 382 383 421
3 421 383 422
3 383 384 422
3 422 384 423
3 384 385 423
3 423 385 424
3 385 386 424
3 424 386 425
3 386 387 425
3 425 387 426
3 387 388 426
3 426 388 427
3 388 389 427
3 427 389 428
3 389 390 428
3 428 390 429
3 390 391 429
3 429 391 430
3 391 392 430
3 430 392 431
3 392 393 431
3 431 393 432
3 393 394 432
3 432 394 433
3 394 395 433
3 433 395 434
3 395 396 434
3 434 396 435
3 396 397 435
3 435 397 379
3 417 435 379
3 399 437 436
3 398 399 436
3 436 438 398
3 398 438 400
3 438 439 400
3 400 439 401
3 439 440 401
3 401 440 402
3 440 441 402
3 402 441 403
3 441 442 403
3 403 442 404
3 442 443 404
3 404 443 405
3 443 444 405
3 405 444 406
3 444 445 406
3 406 445 407
3 445 446 407
3 407 446 408
3 446 447 408
3 408 447 409
3 447 448 409
3 409 448 410
3 448 449 410
3 410 449 411
3 449 450 411
3 411 450 412
3 450 451 412
3 412 451 413
3 451 452 413
3 413 452 414
3 452 453 414
3 414 453 415
3 453 454 415
3 415 454 416
3 416 454 455
3 417 416 455
3 437 399 418
3 456 437 418
3 456 418 457
3 418 419 457
3 457 419 458
3 419 420 458
3 458 420 459
3 420 421 459
3 459 421 460
3 421 422 460
3 460 422 461
3 422 423 461
3 461 423 462
3 423 424 462
3 462 424 463
3 424 425 463
3 463 425 464
3 425 426 464
3 464 426 465
3 426 427 465
3 465 427 466
3 427 428 466
3 466 428 467
3 428 429 467
3 467 429 468
3 429 430 468
3 468 430 469
3 430 431 469
3 469 431 470
3 431 432 470
3 470 432 471
3 432 433 471
3 471 433 472
3 433 434 472
3 472 434 473
3 434 435 473
3 473 435 417
3 455 473 417
3 437 475 474
3 436 437 474
3 474 476 436
3 436 476 438
3 476 477 438
3 438 477 439
3 477 478 439
3 439 478 440
3 478 479 440
3 440 479 441
3 479 480 441
3 441 480 442
3 480 481 442
3 442 481 443
3 481 482 443
3 443 482 444
3 482 483 444
3 444 483 445
3 483 484 445
3 445 484 446
3 484 485 446
3 446 485 447
3 485 486 447
3 447 486 448
3 486 487 448
3 448 487 449
3 487 488 449
3 449 488 450
3 488 489 450
3 450 489 451
3 489 490 451
3 451 490 452
3 490 491 452
3 452 491 453
3 491 492 453
3 453 492 454
3 454 492 493
3 455 454 493
3 475 437 456
3 494 475 456
3 494 456 495
3 456 457 495
3 495 457 496
3 457 458 496
3 496 458 497
3 458 459 497
3 497 459 498
3 459 460 498
3 498 460 499
3 460 461 499
3 499 461 500
3 461 462 500
3 500 462 501
3 462 463 501
3 501 463 502
3 463 464 502
3 502 464 503
3 464 465 503
3 503 465 504
3 465 466 504
3 504 466 505
3 466 467 505
3 505 467 506
3 467 468 506
3 506 468 507
3 468 469 507
3 507 469 508
3 469 470 508
3 508 470 509
3 470 471 509
3 509 471 510
3 471 472 510
3 510 472 511
3 472 473 511
3 511 473 455
3 493 511 455
3 475 513 512
3 474 475 512
3 512 514 474
3 474 514 476
3 514 515 476
3 476 515 477
3 515 516 477
3 477 516 478
3 516 517 478
3 478 517 479
3 517 518 479
3 479 518 480
3 518 519 480
3 480 519 481
3 519 520 481
3 481 520 482
3 520 521 482
3 482 521 483
3 521 522 483
3 483 522 484
3 522 523 484
3 484 523 485
3 523 524 485
3 485 524 486
3 524 525 486
3 486 525 487
3 525 526 487
3 487 526 488
3 526 527 488
3 488 527 489
3 527 528 489
3 489 528 490
3 528 529 490
3 490 529 491
3 529 530 491
3 491 530 492
3 492 530 531
3 493 492 531
3 513 475 494
3 532 513 494
3 532 494 533
3 494 495 533
3 533 495 534
3 495 496 534
3 534 496 535
3 496 497 535
3 535 497 536
3 497 498 536
3 536 498 537
3 498 499 537
3 537 499 538
3 499 500 538
3 538 500 539
3 500 501 539
3 539 501 540
3 501 502 540
3 540 502 541
3 502 503 541
3 541 503 542
3 503 504 542
3 542 504 543
3 504 505 543
3 543 505 544
3 505 506 544
3 544 506 545
3 506 507 545
3 545 507 546
3 507 508 546
3 546 508 547
3 508 509 547
3 547 509 548
3 509 510 548
3 548 510 549
3 510 511 549
3 549 511 493
3 531 549 493
3 513 551 550
3 512 513 550
3 550 552 512
3 512 552 514
3 552 553 514
3 514 553 515
3 553 554 515
3 515 554 516
3 554 555 516
3 516 555 517
3 555 556 517
3 517 556 518
3 556 557 518
3 518 557 519
3 557 558 519
3 519 558 520
3 558 559 520
3 520 559 521
3 559 560 521
3 521 560 522
3 560 561 522
3 522 561 523
3 561 562 523
3 523 562 524
3 562 563 524
3 524 563 525
3 563 564 525
3 525 564 526
3 564 565 526
3 526 565 527
3 565 566 527
3 527 566 528
3 566 567 528
3 528 567 529
3 567 568 529
3 529 568 530
3 530 568 569
3 531 530 569
3 551 513 532
3 570 551 532
3 570 532 571
3 532 533 571
3 571 533 572
3 533 534 572
3 572 534 573
3 534 535 573
3 573 535 574
3 535 536 574
3 574 536 575
3 536 537 575
3 575 537 576
3 537 538 576
3 576 538 577
3 538 539 577
3 577 539 578
3 539 540 578
3 578 540 579
3 540 541 579
3 579 541 580
3 541 542 580
3 580 542 581
3 542 543 581
3 581 543 582
3 543 544 582
3 582 544 583
3 544 545 583
3 583 545 584
3 545 546 584
3 584 546 585
3 546 547 585
3 585 547 586
3 547 548 586
3 586 548 587
3 548 549 587
3 587 549 531
3 569 587 531
3 551 589 588
3 550 551 588
3 588 590 550
3 550 590 552
3 590 591 552
3 552 591 553
3 591 592 553
3 553 592 554
3 592 593 554
3 554 593 555
3 593 594 555
3 555 594 556
3 594 595 556
3 556 595 557
3 595 596 557
3 557 596 558
3 596 597 558
3 558 597 559
3 597 598 559
3 559 598 560
3 598 599 560
3 560 599 561
3 599 600 561
3 561 600 562
3 600 601 562
3 562 601 563
3 601 602 563
3 563 602 564
3 602 603 564
3 564 603 565
3 603 604 565
3 565 604 566
3 604 605 566
3 566 605 567
3 605 606 567
3 567 606 568
3 568 606 607
3 569 568 607
3 589 551 570
3 608 589 570
3 608 570 609
3 570 571 609
3 609 571 610
3 571 572 610
3 610 572 611
3 572 573 611
3 611 573 612
3 573 574 612
3 612 574 613
3 574 575 613
3 613 575 614
3 575 576 614
3 614 576 615
3 576 577 615
3 615 577 616
3 577 578 616
3 616 578 617
3 578 579 617
3 617 579 618
3 579 580 618
3 618 580 619
3 580 581 619
3 619 581 620
3 581 582 620
3 620 582 621
3 582 583 621
3 621 583 622
3 583 584 622
3 622 584 623
3 584 585 623
3 623 585 624
3 585 586 624
3 624 586 625
3 586 587 625
3 625 587 569
3 607 625 569
3 589 627 626
3 588 589 626
3 626 628 588
3 588 628 590
3 628 629 590
3 590 629 591
3 629 630 591
3 591 630 592
3 630 631 592
3 592 631 593
3 631 632 593
3 593 632 594
3 632 633 594
3 594 633 595
3 633 634 595
3 595 634 596
3 634 635 596
3 596 635 597
3 635 636 597
3 597 636 598
3 636 637 598
3 598 637 599
3 637 638 599
3 599 638 600
3 638 639 600
3 600 639 601
3 639 640 601
3 601 640 602
3 640 641 602
3 602 641 603
3 641 642 603
3 603 642 604
3 642 643 604
3 604 643 605
3 643 644 605
3 605 644 606
3 606 644 645
3 607 606 645
3 627 589 608
3 646 627 608
3 646 608 647
3 608 609 647
3 647 609 648
3 609 610 648
3 648 610 649
3 610 611 649
3 649 611 650
3 611 612 650
3 650 612 651
3 612 613 651
3 651 613 652
3 613 614 652
3 652 614 653
3 614 615 653
3 653 615 654
3 615 616 654
3 654 616 655
3 616 617 655
3 655 617 656
3 617 618 656
3 656 618 657
3 618 619 657
3 657 619 658
3 619 620 658
3 658 620 659
3 620 621 659
3 659 621 660
3 621 622 660
3 660 622 661
3 622 623 661
3 661 623 662
3 623 624 662
3 662 624 663
3 624 625 663
3 663 625 607
3 645 663 607
3 627 665 664
3 626 627 664
3 664 666 626
3 626 666 628
3 666 667 628
3 628 667 629
3 667 668 629
3 629 668 630
3 668 669 630
3 630 669 631
3 669 670 631
3 631 670 632
3 670 671 632
3 632 671 633
3 671 672 633
3 633 672 634
3 672 673 634
3 634 673 635
3 673 674 635
3 635 674 636
3 674 675 636
3 636 675 637
3 675 676 637
3 637 676 638
3 676 677 638
3 638 677 639
3 677 678 639
3 639 678 640
3 678 679 640
3 640 679 641
3 679 680 641
3 641 680 642
3 680 681 642
3 642 681 643
3 681 682 643
3 643 682 644
3 644 682 683
3 645 644 683
3 665 627 646
3 684 665 646
3 684 646 685
3 646 647 685
3 685 647 686
3 647 648 686
3 686 648 687
3 648 649 687
3 687 649 688
3 649 650 688
3 688 650 689
3 650 651 689
3 689 651 690
3 651 652 690
3 690 652 691
3 652 653 691
3 691 653 692
3 653 654 692
3 692 654 693
3 654 655 693
3 693 655 694
3 655 656 694
3 694 656 695
3 656 657 695
3 695 657 696
3 657 658 696
3 696 658 697
3 658 659 697
3 697 659 698
3 659 660 698
3 698 660 699
3 660 661 699
3 699 661 700
3 661 662 700
3 700 662 701
3 662 663 701
3 701 663 645
3 683 701 645
3 664 665 702
3 666 664 702
3 703 666 702
3 667 666 703
3 704 667 703
3 668 667 704
3 705 668 704
3 669 668 705
3 706 669 705
3 670 669 706
3 707 670 706
3 671 670 707
3 708 671 707
3 672 671 708
3 709 672 708
3 673 672 709
3 710 673 709
3 674 673 710
3 711 674 710
3 675 674 711
3 712 675 711
3 676 675 712
3 713 676 712
3 677 676 713
3 714 677 713
3 678 677 714
3 715 678 714
3 679 678 715
3 716 679 715
3 680 679 716
3 717 680 716
3 681 680 717
3 718 681 717
3 682 681 718
3 719 682 718
3 682 719 683
3 702 665 684
3 703 702 684
3 685 703 684
3 704 703 685
3 686 704 685
3 705 704 686
3 687 705 686
3 706 705 687
3 688 706 687
3 707 706 688
3 689 707 688
3 708 707 689
3 690 708 689
3 709 708 690
3 691 709 690
3 710 709 691
3 692 710 691
3 711 710 692
3 693 711 692
3 712 711 693
3 694 712 693
3 713 712 694
3 695 713 694
3 714 713 695
3 696 714 695
3 715 714 696
3 697 715 696
3 716 715 697
3 698 716 697
3 717 716 698
3 699 717 698
3 718 717 699
3 700 718 699
3 719 718 700
3 701 719 700
3 719 701 683
