ply
format ascii 1.0
element vertex 482
property float x
property float y
property float z
property uchar red
property uchar green
property uchar blue
element face 852
property list uchar int vertex_indices
end_header
-9.68430137634277344 -7 7 79 70 50
-9 -7.12877941131591797 7 31 76 65
-9 -7 6.7595057487487793 127 103 103
-9 -7 7.08812046051025391 85 79 71
-9.80309963226318359 -6 7 110 83 83
-9 -6 6.84436321258544922 106 111 111
-9.85199165344238281 -6 8 15 17 15
-9 -6.2042231559753418 8 23 32 23
-9 -6 8.85199165344238281 143 135 113
-9.5661163330078125 -5 -7 67 160 0
-9 -5.05310344696044922 -7 116 170 0
-9 -5 -7.05305576324462891 81 164 0
-9 -5 -6.7116551399230957 0 7 8
-9.25892543792724609 -5 -4 15 48 75
-9 -5.11605978012084961 -4 0 37 11
-9 -5 -4.05351495742797852 176 40 27
-9 -5 -3.98654723167419434 186 125 88
-9.16727924346923828 -5 0 12 61 104
-9 -5.01089668273925781 0 49 77 82
-9 -5 -0.016452515497803688 33 71 59
-9 -5 0.0119928400963544846 182 68 25
-9 -5.83117294311523438 7 163 177 138
-9.88062000274658203 -5 8 6 7 6
-9 -5 7.7313389778137207 118 124 124
-9 -5 8.88062000274658203 147 139 101
-9.80259323120117188 -4 -9 2 48 32
-9 -4.15837335586547852 -9 27 157 0
-9 -4 -9.80259323120117188 10 154 0
-9 -4 -8.03131294250488281 64 0 132
-9 -4.9465174674987793 -7 0 7 8
-9 -4.98639392852783203 -4 186 125 88
-9 -4.96817827224731445 0 182 68 25
-9.50167274475097656 -4 3 107 119 121
-9 -4.06226444244384766 3 44 101 97
-9 -4 2.9574580192565918 19 23 19
-9 -4 3.04417705535888672 162 147 96
-9 -4.70902395248413086 8 147 139 101
-9 -3.84448552131652832 -9 64 0 132
-9 -3.94166302680969238 3 162 147 96
-9.34409332275390625 -2 -8 13 130 0
-9 -2.02236247062683105 -8 0 99 11
-9 -2 -8.02115917205810547 30 137 0
-9 -2 -7.97599029541015625 4 0 112
-9 -1.9730525016784668 -8 4 0 112
-9.65474033355712891 -1 8 122 106 96
-9 -1.14690613746643066 8 111 142 138
-9 -1 7.88204097747802734 150 150 150
-9 -1 8.65474033355712891 133 137 107
-9 -0.889991104602813721 8 133 137 107
-8.42984867095947266 -7 7 85 79 71
-8.02086830139160156 -6 6 106 111 111
-8 -6.05016326904296875 6 34 31 25
-8 -6 5.08605813980102539 166 198 150
-8.8465118408203125 -6 7 163 177 138
-8 -6 6.02053451538085938 98 54 53
-8.50782203674316406 -6 8 143 135 113
-8.05633354187011719 -5 -7 0 7 8
-8.98288536071777344 -5 -4 186 125 88
-8.99256229400634766 -5 0 182 68 25
-8 -5.80337429046630859 6 98 54 53
-8.18148899078369141 -5 7 118 124 124
-8 -5.16522789001464844 7 107 108 108
-8 -5 6.30205345153808594 46 49 44
-8.73019504547119141 -5 8 147 139 101
-8 -5 7.18235445022583008 128 101 70
-8.50554656982421875 -4 -9 64 0 132
-8.01302528381347656 -4 2 19 23 19
-8 -4.01375913619995117 2 15 16 10
-8 -4 1.98740839958190918 90 74 68
-8.86662387847900391 -4 3 162 147 96
-8 -4 2.04371333122253418 11 11 8
-8.13327121734619141 -4 7 97 104 102
-8 -4 6.88880681991577148 116 97 80
-8.22903060913085938 -4 8 119 139 140
-8 -4.21102523803710938 8 111 123 120
-8 -4 8.84226417541503906 88 78 71
-8 -3.98662972450256348 2 11 11 8
-8 -3.94225478172302246 7 35 35 35
-8.00303936004638672 -3 8 133 140 138
-8 -3 7.99722003936767578 23 24 22
-8 -3 8.05342388153076172 130 132 124
-8.977691650390625 -2 -8 4 0 112
-8 -2.99425673484802246 8 130 132 124
-8.77635860443115234 -1 8 133 137 107
-7.97996664047241211 -6 6 98 54 53
-7.83019685745239258 -5 7 128 101 70
-7.00438690185546875 -4 -7 7 29 14
-7 -4.07029104232788086 -7 12 41 17
-7 -4 -7.00513410568237305 0 0 0
-7 -4 -6.98733425140380859 174 105 65
-7.98846864700317383 -4 2 11 11 8
-7.88721561431884766 -4 7 35 35 35
-7 -4.36446237564086914 8 80 90 82
-7 -4 7.77779150009155273 81 93 80
-7 -4 8.73604965209960938 172 172 172
-7.0512847900390625 -3 -9 77 148 0
-7 -3.04368686676025391 -9 116 147 0
-7 -3 -9.52021408081054688 0 43 33
-7 -3 -8.95986557006835938 1 17 11
-7 -3.99524807929992676 -7 174 105 65
-7.02824258804321289 -3 5 95 90 89
-7 -3.0513908863067627 5 4 4 4
-7 -3 4.96982240676879883 151 176 85
-7 -3 5.05170679092407227 58 90 62
-7.99738740921020508 -3 8 130 132 124
-7 -3.88541722297668457 8 172 172 172
-7 -2.8063657283782959 -9 1 17 11
-7 -2.97254800796508789 5 58 90 62
-7.47754573822021484 8 -5 10 14 13
-7 7.96564912796020508 -5 118 121 134
-7 8 -5.81790924072265625 51 58 59
-7 8 -4.67880344390869141 49 57 60
-7 8.31496334075927734 -5 49 57 60
-6.0213780403137207 -5 -9 50 138 0
-6 -5.02300548553466797 -9 182 120 0
-6 -5 -9.34900760650634766 168 181 0
-6 -5 -8.96183109283447266 0 22 17
-6 -4.97902345657348633 -9 0 22 17
-6.98552083969116211 -4 -7 174 105 65
-6.01660776138305664 -4 5 4 4 4
-6 -4.01955032348632812 5 191 204 193
-6 -4 4.99100446701049805 116 197 84
-6 -4 5.00894594192504883 25 30 16
-6 -4.64026308059692383 8 88 92 86
-6 -4 7.74318933486938477 1 1 1
-6 -4 8.81865692138671875 29 27 27
-6.80039119720458984 -3 -9 1 17 11
-6 -3 4.99691486358642578 120 195 98
-6 -3 5.00672149658203125 51 95 53
-6.11552190780639648 -3 8 52 54 49
-6 -3 7.88349056243896484 117 125 107
-6 -3 8.73783779144287109 71 65 60
-6 -2.99712085723876953 5 51 95 53
-6 -2.89268684387207031 8 71 65 60
-6.97771406173706055 8 -5 49 57 60
-5.97980213165283203 -5 -9 0 22 17
-5.37073659896850586 -5 8 88 92 86
-5 -5.0771479606628418 8 55 33 33
-5 -5 7.93975591659545898 135 148 129
-5 -5 8.59909820556640625 60 62 54
-5.98791217803955078 -4 5 25 30 16
-5.30805492401123047 -4 8 29 27 27
-5 -4.57354640960693359 8 60 62 54
-5.99707651138305664 -3 5 51 95 53
-5.01901435852050781 -3 7 117 125 107
-5 -3.0169672966003418 7 134 181 128
-5 -3 6.97676753997802734 154 165 156
-5.83852815628051758 -3 8 71 65 60
-5 -3 7.02752447128295898 79 104 73
-5.00107812881469727 -2 7 132 149 113
-5 -2 6.99898481369018555 179 191 186
-5.05776548385620117 -2 8 112 113 104
-5 -2.08942341804504395 8 53 44 39
-5 -2 8.58937454223632812 77 85 69
-5 -1.99872744083404541 7 89 106 87
-5 -1.87974238395690918 8 77 85 69
-4 -5.15815305709838867 8 27 27 25
-4 -5 7.8950495719909668 121 190 129
-4 -5 8.73900699615478516 13 11 11
-4 -4.789154052734375 8 13 11 11
-4.97538900375366211 -3 7 79 104 73
-4.99899435043334961 -2 7 89 106 87
-4 -2.04206085205078125 8 99 102 83
-4 -2 7.97493600845336914 156 191 166
-4 -2 8.39202213287353516 98 112 90
-4 -1.74121475219726562 8 98 112 90
-4.31465530395507812 8 0 29 31 29
-4 7.8961949348449707 0 51 52 51
-4 8 -0.821279227733612061 75 57 55
-4 8 0.389882296323776245 149 148 145
-4.11594390869140625 8 4 9 9 8
-4 7.92237281799316406 4 158 170 152
-4 8 3.818878173828125 87 77 74
-4 8 4.03410005569458008 137 138 106
-4 8.76700019836425781 0 149 148 145
-4 8.48069000244140625 4 137 138 106
-3.79479646682739258 -5 8 13 11 11
-3.00150275230407715 -4 6 107 178 107
-3 -4.05389308929443359 6 65 73 41
-3 -4 5.99744462966918945 20 11 11
-3.04430437088012695 -4 7 149 202 165
-3 -4.04709339141845703 7 132 202 161
-3 -4 7.04621601104736328 78 87 58
-3 -3.99541592597961426 6 68 75 54
-3 -3.1156761646270752 7 78 87 58
-3 -2.01408863067626953 8 154 192 186
-3 -2 7.98778295516967773 145 193 172
-3 -2 8.24381828308105469 99 108 89
-3 -1.87755501270294189 8 99 108 89
-3.02706170082092285 8 -8 28 29 28
-3 7.94319057464599609 -8 58 74 75
-3 8 -8.03203582763671875 114 113 97
-3.07605671882629395 8 -7 9 9 9
-3 7.97470664978027344 -7 38 41 39
-3 8 -6.92952680587768555 94 106 113
-3.82232046127319336 8 -1 75 57 55
-3 7.89365005493164062 -1 72 64 64
-3 8 -1.34355723857879639 4 4 4
-3 7.91191291809082031 0 73 105 74
-3.2253272533416748 8 1 64 62 61
-3 7.95812797546386719 1 102 106 103
-3 8 1.09240186214447021 131 169 109
-3.8820192813873291 8 4 137 138 106
-3 8.41594314575195312 -8 2 2 2
-3 8.38065719604492188 -7 94 106 113
-3 8.76826858520507812 -1 156 156 153
-3 8.76574134826660156 0 172 173 163
-3 8.59973716735839844 1 131 169 109
-2.99868607521057129 -4 6 68 75 54
-2.70923304557800293 -4 7 78 87 58
-2.74057292938232422 -2 8 99 108 89
-2 7.98312854766845703 -8 130 122 118
-2 8 -8.02375316619873047 61 65 65
-2.97486710548400879 8 -7 94 106 113
-2 8 -7.97463417053222656 25 26 26
-2.03495216369628906 8 -5 178 175 153
-2 7.97405052185058594 -5 81 105 100
-2 8 -5.07746601104736328 14 20 15
-2 8 -4.95381021499633789 38 50 41
-2.36326980590820312 8 -2 4 4 4
-2 7.82292795181274414 -2 192 192 192
-2 8 -2.52511453628540039 16 15 12
-2 7.69113683700561523 -1 181 195 173
-2.77037835121154785 8 0 172 173 163
-2 8 -0.764228165149688721 174 175 169
-2 7.91504907608032227 1 71 83 62
-2 8 0.783053576946258545 157 160 143
-2 8 1.91842687129974365 161 167 152
-2.04341292381286621 8 5 48 53 29
-2 7.94910764694213867 5 144 175 147
-2 8 4.95154619216918945 15 11 10
-2 8 5.1483464241027832 129 164 114
-2 8.38289165496826172 -8 25 26 26
-2 8.41954708099365234 -5 38 50 41
-2 8.78327274322509766 -2 153 153 153
-2 8.77186298370361328 -1 174 175 169
-2 8.75237369537353516 1 161 167 152
-2 8.40824413299560547 5 129 164 114
-1.94250929355621338 8 -8 25 26 26
-1.03693294525146484 8 -7 159 150 145
-1 7.97379875183105469 -7 175 146 110
-1 8 -7.08246755599975586 120 120 120
-1 8 -6.95661306381225586 92 113 114
-1.94928097724914551 8 -5 38 50 41
-1 7.81385469436645508 -2 122 123 98
-1 8 -2.72466301918029785 142 140 135
-1.81703543663024902 8 -1 174 175 169
-1 8 -1.79234457015991211 169 169 164
-1.27256608009338379 8 0 157 160 143
-1 7.87639808654785156 0 10 10 10
-1 8 -0.213823586702346802 117 116 116
-1 7.99138879776000977 1 137 137 136
-1 8 1.00927674770355225 154 193 150
-1.19279026985168457 8 3 153 181 147
-1 7.98726892471313477 3 120 125 111
-1 8 2.9852299690246582 72 81 68
-1 8 3.04370737075805664 147 184 137
-1.97017598152160645 8 5 129 164 114
-1 8.47760105133056641 -7 92 113 114
-1 8.79836940765380859 -2 169 169 164
-1 8.80427360534667969 0 192 196 192
-1 8.16373538970947266 1 154 193 150
-1 8.23865795135498047 3 147 184 137
-0.954362750053405762 8 -7 92 113 114
-0.698529839515686035 8 -3 142 140 135
0 7.85421276092529297 -3 40 33 32
0 8 -3.17676854133605957 177 193 161
-0.499354302883148193 8 -2 169 169 164
0 8 -2.53116488456726074 135 135 134
-0.675683557987213135 8 0 192 196 192
-0.990438103675842285 8 1 154 193 150
-0.139488756656646729 8 2 72 81 68
0 7.89248466491699219 2 74 65 43
0 8 1.85680282115936279 57 73 54
-0.985846638679504395 8 3 147 184 137
0 8 2.13437581062316895 96 181 96
0 8.77708053588867188 -3 135 135 134
0 8.77218437194824219 2 96 181 96
0.950721263885498047 -3 8 170 204 176
1 -3.05903244018554688 8 175 212 171
1 -3 7.29818296432495117 16 16 15
1 -3 8.55225467681884766 70 75 70
1 -2.40523481369018555 8 70 75 70
0.401317626237869263 8 -3 135 135 134
0.524053096771240234 8 -2 85 78 76
1 7.73180627822875977 -2 120 194 130
1 8 -2.40819215774536133 16 16 15
1 8 -1.74220097064971924 126 130 75
0.550223231315612793 8 2 96 181 96
1 8.78198432922363281 -2 126 130 75
1.80334258079528809 -5 8 45 34 31
2 -5.11474418640136719 8 77 71 65
2 -5 7.80424976348876953 84 65 64
2 -5 8.68811225891113281 19 21 18
1.96118390560150146 -4 8 175 212 171
2 -4 7.92166519165039062 106 100 81
2 -4 8.44257354736328125 60 68 60
1.10630178451538086 -3 8 70 75 70
2 -3.9288787841796875 8 60 68 60
1.83389699459075928 8 -5 174 179 161
2 7.90936422348022461 -5 173 181 154
2 8 -5.19951629638671875 43 39 34
2 8 -4.85783052444458008 67 68 67
2 7.89421415328979492 -2 82 83 83
2 8 -2.15472984313964844 38 42 38
1.75779926776885986 8 -1 34 20 16
2 7.84457254409790039 -1 179 181 177
2 8 -0.828608453273773193 180 186 159
2 8.75808143615722656 -5 67 68 67
2 8.79973793029785156 -2 106 93 91
2 8.76746559143066406 -1 180 186 159
2.95702457427978516 -6 8 77 71 65
3 -6.03120613098144531 8 54 55 53
3 -6 7.95625114440917969 220 232 195
3 -6 8.43322181701660156 103 102 101
2.98749685287475586 -5 7 84 65 64
3 -5.00682258605957031 7 220 232 195
3 -5 6.19601869583129883 53 53 53
2.13413023948669434 -5 8 19 21 18
3 -5.949066162109375 8 103 102 101
3 -5 7.00799417495727539 6 6 5
2.88437914848327637 -4 7 106 100 81
3 -4 6.94002437591552734 187 199 162
3 -4.0855860710144043 8 212 216 199
3 -4 8.57137775421142578 70 79 73
3 -3.93962502479553223 7 51 58 51
2.80696606636047363 -3 8 137 136 135
3 -3 7.88456106185913086 170 195 153
3 -3 8.71268367767333984 63 84 68
3 -2.90488791465759277 8 63 84 68
3 7.83018732070922852 -5 27 27 27
3 8 -5.10430049896240234 161 159 121
3 8 -4.28738021850585938 53 83 63
2.61861085891723633 8 -2 106 93 91
2.39338302612304688 8 -1 180 186 159
3 8.73094367980957031 -5 53 83 63
3.09318208694458008 -6 8 103 102 101
4 -5.13179588317871094 7 12 14 12
4 -5 6.89550304412841797 187 228 173
4 -5 7.16549110412597656 13 15 13
3.07660198211669922 -4 7 51 58 51
4 -4.88556385040283203 7 13 15 13
4 -4.04056072235107422 8 4 4 4
4 -4 7.9731907844543457 165 214 138
4 -4 8.28853702545166016 76 79 78
3.91946864128112793 -3 7 170 195 153
4 -3.10159015655517578 7 165 214 138
4 -3 6.9116520881652832 169 172 140
4 -3 8.47234153747558594 19 19 11
4 -2.92267417907714844 7 77 83 81
4 -2.9523160457611084 8 19 19 11
3.27935171127319336 8 -5 53 83 63
3.29407882690429688 8 -4 25 25 23
4 7.92855358123779297 -4 14 17 13
4 8 -4.27285861968994141 14 19 12
4 8 -3.89684128761291504 36 63 43
3.71371912956237793 8 -1 193 196 169
4 7.94290351867675781 -1 1 2 1
4 8 -1.53244006633758545 108 79 70
4 8 -0.836534500122070312 141 118 115
4 8.72450733184814453 -4 36 63 43
4 8.67120742797851562 -1 141 118 115
4.93915367126464844 -6 8 224 223 218
5 -6.018402099609375 8 31 43 39
5 -6 7.9683842658996582 5 5 5
5 -6 8.32520484924316406 4 5 4
4.08333063125610352 -5 7 13 15 13
5 -5.97866010665893555 8 4 5 4
4.94975614547729492 -4 -9 26 56 30
5 -4.03999853134155273 -9 26 50 7
5 -4 -9.50523281097412109 32 46 3
5 -4 -8.96240806579589844 145 106 86
4.02473068237304688 -4 8 76 79 78
5 -3.9504244327545166 -9 145 106 86
4.38557767868041992 -3 7 77 83 81
4.03863430023193359 -3 8 19 19 11
4.96970558166503906 8 -4 36 63 43
5 7.89136362075805664 -1 166 139 126
5 8 -1.06289231777191162 190 198 84
5 8 -0.952896237373352051 93 90 68
5 8.53598785400390625 -1 93 90 68
5.02252340316772461 -6 8 4 5 4
5.94024896621704102 -5 4 77 73 52
6 -5.26030588150024414 4 12 12 12
6 -5 3.76582789421081543 37 52 47
6 -5 4.36948013305664062 25 36 31
5.05843830108642578 -4 -9 145 106 86
6 -4.84619522094726562 4 25 36 31
5.53139829635620117 -3 7 79 77 74
6 -3.0949409008026123 7 168 167 167
6 -3 6.56757640838623047 95 93 90
6 -3 7.92821550369262695 80 82 82
6 -2.51204895973205566 7 80 82 82
5.90961599349975586 -2 8 164 148 74
6 -2.9233708381652832 8 171 135 125
6 -2 7.52965211868286133 83 82 80
6 -2 8.68552875518798828 45 46 20
6 -1.88876140117645264 8 45 46 20
5.99582290649414062 8 -2 190 198 84
6 7.9944767951965332 -2 32 39 30
6 8 -2.0262906551361084 26 60 48
5.06516122817993164 8 -1 93 90 68
6 8 -1.99566245079040527 10 12 10
5.92772102355957031 8 1 3 5 2
6 7.97822046279907227 1 62 84 90
6 8 0.971390306949615479 20 46 37
6 8 1.32702803611755371 83 87 37
6 8.06733322143554688 -2 10 12 10
6 8.40584850311279297 1 83 87 37
6.79016590118408203 -6 7 193 173 161
7 -6.09586906433105469 7 42 56 59
7 -6 6.90667152404785156 8 9 8
7 -6 7.11186742782592773 221 192 151
6.0135498046875 -5 4 25 36 31
7 -5.89666366577148438 7 221 192 151
6.58623600006103516 -5 8 156 148 144
7 -5.23585605621337891 8 44 66 72
7 -5 7.77978610992431641 9 15 12
7 -5 8.85775661468505859 185 123 107
6.9935307502746582 -4 2 124 121 121
7 -4.00419998168945312 2 230 243 149
7 -4 1.85925829410552979 25 41 33
6.918212890625 -4 3 143 127 126
7 -4.09110498428344727 3 228 218 161
7 -4 3.0329594612121582 34 45 41
6.75361537933349609 -4 6 20 27 22
7 -4.08186578750610352 6 39 43 40
7 -4 5.87436342239379883 224 220 185
7 -4 6.07044029235839844 61 64 65
7 -4.00068092346191406 8 185 123 107
7 -3.99480986595153809 2 48 50 49
7 -3.88956236839294434 3 34 45 41
7 -3.87034201622009277 6 61 64 65
7 -3.04066133499145508 7 92 97 82
7 -3 6.92308425903320312 211 209 198
7 -3 7.04379749298095703 84 86 86
7 -2.8822474479675293 7 84 86 86
7 -2.08813691139221191 8 0 0 0
7 -2 7.7802433967590332 194 160 148
7 -2 8.65276813507080078 149 81 78
7 -1.91796970367431641 8 149 81 78
6.01118898391723633 8 -2 10 12 10
6.02885913848876953 8 1 83 87 37
7.10747051239013672 -6 7 221 192 151
7.24394655227661133 -5 8 185 123 107
7.97062444686889648 -4 -7 49 69 67
8 -4.02177762985229492 -7 109 110 69
8 -4 -7.02365255355834961 50 84 29
7.79808378219604492 -4 -6 129 112 105
8 -4.27427482604980469 -6 11 22 17
8 -4 -5.96036863327026367 224 212 178
7.01342153549194336 -4 2 48 50 49
7.04121971130371094 -4 3 34 45 41
7.12628269195556641 -4 6 61 64 65
7.00053548812866211 -4 8 69 70 70
8 -4.29088973999023438 8 48 71 90
8 -4 7.50635862350463867 79 82 89
8 -4 8.88461494445800781 166 98 80
7.98038053512573242 -3 -9 54 77 28
8 -3.037200927734375 -9 119 113 83
8 -3 -9.31190395355224609 18 59 103
7.94277715682983398 -3 -8 30 50 46
8 -3.04735994338989258 -8 50 84 29
7.88642692565917969 -3 -7 39 51 46
8 -3.96088361740112305 -6 224 212 178
8 -3 -6.93691635131835938 134 118 99
7.14671134948730469 -3 7 84 86 86
7.78372383117675781 -3 8 0 0 0
8 -3 7.49118471145629883 169 112 101
8 -3 8.84294795989990234 45 47 44
8 -2.94458937644958496 -9 58 72 44
8 -2.90607762336730957 -8 146 116 101
8 -2.94001054763793945 -7 134 118 99
7.12937259674072266 -2 8 149 81 78
8 -2.70212173461914062 8 45 47 44
8.34994983673095703 -4 -7 10 18 14
8.50257587432861328 -4 -6 224 212 178
8.88461494445800781 -4 8 166 98 80
8.31190395355224609 -3 -9 58 72 44
8.52488422393798828 -3 -8 146 116 101
8.62562274932861328 -3 -7 134 118 99
8.84294795989990234 -3 8 45 47 44
3 2 1 0
3 1 3 0
3 5 2 0
3 4 5 0
3 3 7 6
3 3 6 0
3 0 6 4
3 7 8 6
3 11 10 9
3 10 12 9
3 15 14 13
3 14 16 13
3 19 18 17
3 18 20 17
3 5 4 21
3 23 21 4
3 23 4 22
3 22 4 6
3 8 24 22
3 6 8 22
3 27 26 25
3 26 28 25
3 11 9 29
3 9 12 29
3 15 13 30
3 13 16 30
3 19 17 31
3 17 20 31
3 34 33 32
3 33 35 32
3 23 22 36
3 22 24 36
3 27 25 37
3 25 28 37
3 34 32 38
3 32 35 38
3 41 40 39
3 40 42 39
3 41 39 43
3 39 42 43
3 46 45 44
3 45 47 44
3 46 44 48
3 44 47 48
3 1 2 49
3 1 49 3
3 52 51 50
3 53 49 51
3 53 51 54
3 49 2 51
3 50 51 5
3 2 5 51
3 7 3 49
3 7 49 55
3 55 49 53
3 7 55 8
3 10 11 56
3 10 56 12
3 14 15 57
3 14 57 16
3 18 19 58
3 18 58 20
3 52 50 59
3 59 60 62
3 59 21 60
3 59 50 21
3 5 21 50
3 54 61 53
3 21 23 60
3 53 61 63
3 53 63 55
3 63 61 64
3 55 63 24
3 8 55 24
3 26 27 65
3 26 65 28
3 56 11 29
3 56 29 12
3 57 15 30
3 57 30 16
3 58 19 31
3 58 31 20
3 68 67 66
3 34 66 67
3 34 67 33
3 70 69 67
3 69 33 67
3 33 69 35
3 72 62 60
3 71 72 60
3 64 74 63
3 60 23 73
3 60 73 71
3 73 23 36
3 73 36 24
3 73 24 75
3 63 74 24
3 74 75 24
3 65 27 37
3 65 37 28
3 68 66 76
3 69 70 76
3 69 76 38
3 66 34 76
3 34 38 76
3 69 38 35
3 72 71 77
3 79 77 71
3 79 71 78
3 78 71 73
3 75 80 78
3 73 75 78
3 40 41 81
3 40 81 42
3 79 78 82
3 78 80 82
3 81 41 43
3 81 43 42
3 45 46 83
3 45 83 47
3 83 46 48
3 83 48 47
3 51 52 84
3 51 84 54
3 84 52 59
3 61 54 84
3 61 84 85
3 59 62 84
3 62 85 84
3 61 85 64
3 88 87 86
3 87 89 86
3 67 68 90
3 67 90 70
3 91 85 62
3 72 91 62
3 64 85 91
3 64 91 92
3 64 92 74
3 93 92 91
3 74 92 94
3 75 74 94
3 97 96 95
3 96 98 95
3 88 86 99
3 86 89 99
3 90 68 76
3 90 76 70
3 102 101 100
3 101 103 100
3 91 72 77
3 77 79 104
3 91 77 104
3 91 104 105
3 91 105 93
3 105 104 80
3 105 80 94
3 94 80 75
3 97 95 106
3 95 98 106
3 102 100 107
3 100 103 107
3 104 79 82
3 104 82 80
3 110 109 108
3 109 111 108
3 110 108 112
3 108 111 112
3 115 114 113
3 114 116 113
3 115 113 117
3 113 116 117
3 87 88 118
3 87 118 89
3 121 120 119
3 120 122 119
3 93 124 123
3 92 93 123
3 92 123 125
3 94 92 125
3 96 97 126
3 96 126 98
3 118 88 99
3 118 99 89
3 119 101 102
3 119 102 121
3 121 102 127
3 101 119 122
3 101 122 103
3 103 122 128
3 105 129 130
3 105 130 93
3 93 130 124
3 129 105 94
3 129 94 131
3 131 94 125
3 126 97 106
3 126 106 98
3 127 102 107
3 132 127 107
3 132 107 103
3 128 132 103
3 130 129 133
3 129 131 133
3 109 110 134
3 109 134 111
3 134 110 112
3 134 112 111
3 114 115 135
3 114 135 116
3 138 137 136
3 137 139 136
3 135 115 117
3 135 117 116
3 120 121 140
3 120 140 122
3 141 142 138
3 141 138 124
3 136 123 138
3 123 124 138
3 123 136 139
3 123 139 125
3 142 141 139
3 141 125 139
3 143 140 121
3 127 143 121
3 140 143 128
3 122 140 128
3 146 145 144
3 147 141 145
3 147 145 148
3 141 124 145
3 144 145 130
3 124 130 145
3 141 147 131
3 125 141 131
3 143 127 132
3 143 132 128
3 150 146 144
3 149 150 144
3 148 152 147
3 144 130 151
3 144 151 149
3 151 130 133
3 151 133 131
3 151 131 153
3 147 152 131
3 152 153 131
3 150 149 154
3 149 151 155
3 154 149 155
3 151 153 155
3 138 157 156
3 137 138 156
3 137 156 158
3 139 137 158
3 157 138 142
3 159 157 142
3 159 142 139
3 158 159 139
3 145 146 160
3 145 160 148
3 161 160 146
3 150 161 146
3 148 160 161
3 148 161 162
3 148 162 152
3 163 162 161
3 152 162 164
3 153 152 164
3 161 150 154
3 163 161 154
3 163 154 165
3 165 154 155
3 165 155 153
3 164 165 153
3 168 167 166
3 167 169 166
3 172 171 170
3 171 173 170
3 168 166 174
3 166 169 174
3 172 170 175
3 170 173 175
3 156 157 176
3 156 176 158
3 179 178 177
3 178 181 180
3 177 178 180
3 181 182 180
3 157 159 176
3 176 159 158
3 179 177 183
3 177 180 184
3 183 177 184
3 180 182 184
3 163 186 185
3 162 163 185
3 162 185 187
3 164 162 187
3 186 163 165
3 188 186 165
3 188 165 164
3 187 188 164
3 191 190 189
3 190 193 192
3 189 190 192
3 193 194 192
3 197 196 195
3 168 195 196
3 168 196 167
3 167 196 198
3 199 169 167
3 199 167 200
3 200 167 198
3 200 201 199
3 171 172 202
3 171 202 173
3 191 189 203
3 189 192 204
3 203 189 204
3 192 194 204
3 197 195 205
3 195 168 174
3 195 174 205
3 205 174 206
3 169 199 207
3 169 207 174
3 174 207 206
3 199 201 207
3 202 172 175
3 202 175 173
3 178 179 208
3 181 178 208
3 209 181 208
3 181 209 182
3 208 179 183
3 209 208 183
3 184 209 183
3 209 184 182
3 185 186 210
3 185 210 187
3 210 186 188
3 210 188 187
3 191 212 211
3 190 191 211
3 214 213 193
3 214 193 211
3 211 193 190
3 193 213 194
3 217 216 215
3 216 218 215
3 221 220 219
3 197 219 220
3 197 220 196
3 196 220 222
3 224 223 198
3 224 198 222
3 222 198 196
3 223 226 225
3 223 225 198
3 198 225 200
3 200 225 227
3 201 200 227
3 230 229 228
3 229 231 228
3 212 191 203
3 232 212 203
3 213 214 232
3 213 232 204
3 204 232 203
3 213 204 194
3 217 215 233
3 215 218 233
3 221 219 234
3 219 197 205
3 219 205 234
3 234 205 235
3 223 224 235
3 223 235 206
3 206 235 205
3 226 223 206
3 226 206 236
3 236 206 207
3 236 207 201
3 227 236 201
3 230 228 237
3 228 231 237
3 211 212 238
3 239 214 211
3 239 211 240
3 238 241 211
3 241 240 211
3 240 242 239
3 216 217 243
3 216 243 218
3 221 245 244
3 220 221 244
3 247 246 222
3 247 222 244
3 244 222 220
3 248 224 222
3 248 222 249
3 246 250 222
3 250 249 222
3 226 248 249
3 226 249 225
3 225 249 251
3 225 251 252
3 227 225 252
3 255 254 253
3 254 256 253
3 229 230 257
3 229 257 231
3 238 212 232
3 214 239 258
3 214 258 232
3 241 238 258
3 238 232 258
3 239 242 258
3 243 217 233
3 243 233 218
3 245 221 234
3 259 245 234
3 246 247 259
3 246 259 235
3 235 259 234
3 224 248 260
3 224 260 235
3 250 246 260
3 246 235 260
3 248 226 236
3 248 236 260
3 260 236 261
3 261 236 227
3 252 261 227
3 255 253 262
3 253 256 262
3 257 230 237
3 257 237 231
3 240 241 263
3 240 263 242
3 266 265 264
3 245 264 265
3 245 265 244
3 268 267 265
3 267 244 265
3 244 267 247
3 249 250 269
3 251 249 269
3 270 251 269
3 271 252 251
3 271 251 272
3 270 273 251
3 273 272 251
3 255 271 272
3 255 272 254
3 275 274 272
3 274 254 272
3 254 274 256
3 263 241 258
3 263 258 242
3 266 264 276
3 267 268 276
3 267 276 259
3 264 245 276
3 245 259 276
3 267 259 247
3 269 250 260
3 270 269 260
3 261 270 260
3 252 271 277
3 252 277 261
3 273 270 277
3 270 261 277
3 274 275 277
3 274 277 262
3 271 255 277
3 255 262 277
3 274 262 256
3 280 279 278
3 279 281 278
3 280 278 282
3 278 281 282
3 265 266 283
3 284 268 265
3 284 265 285
3 283 286 265
3 286 285 265
3 285 287 284
3 272 273 288
3 272 288 275
3 283 266 276
3 268 284 289
3 268 289 276
3 286 283 289
3 283 276 289
3 284 287 289
3 288 273 277
3 288 277 275
3 292 291 290
3 291 293 290
3 295 292 290
3 294 295 290
3 293 296 294
3 290 293 294
3 297 298 295
3 297 295 280
3 294 279 295
3 279 280 295
3 279 294 296
3 279 296 281
3 298 297 296
3 297 281 296
3 297 280 282
3 297 282 281
3 301 300 299
3 300 302 299
3 286 304 303
3 285 286 303
3 305 287 285
3 305 285 306
3 306 285 303
3 306 307 305
3 301 299 308
3 299 302 308
3 304 286 289
3 309 304 289
3 287 305 310
3 287 310 289
3 289 310 309
3 305 307 310
3 313 312 311
3 312 314 311
3 317 316 315
3 313 315 316
3 313 292 315
3 313 311 292
3 291 292 311
3 319 320 318
3 291 311 314
3 291 314 293
3 319 318 314
3 318 293 314
3 322 317 315
3 321 322 315
3 315 295 321
3 315 292 295
3 318 320 323
3 318 323 324
3 318 324 293
3 293 324 296
3 322 321 325
3 327 298 326
3 325 298 327
3 325 295 298
3 325 321 295
3 326 298 296
3 326 296 328
3 328 296 324
3 327 326 329
3 326 328 329
3 301 331 330
3 300 301 330
3 300 330 332
3 302 300 332
3 303 304 333
3 306 303 333
3 334 306 333
3 306 334 307
3 331 301 308
3 335 331 308
3 335 308 302
3 332 335 302
3 333 304 309
3 334 333 309
3 310 334 309
3 334 310 307
3 312 313 336
3 312 336 314
3 317 338 337
3 316 317 337
3 316 337 336
3 316 336 313
3 337 339 336
3 319 336 320
3 339 320 336
3 336 319 314
3 340 341 338
3 340 338 322
3 322 338 317
3 339 323 320
3 339 342 323
3 343 341 340
3 323 342 344
3 324 323 344
3 325 345 347
3 325 347 322
3 346 340 347
3 340 322 347
3 346 343 340
3 345 325 327
3 344 348 324
3 348 328 324
3 347 345 349
3 345 327 329
3 345 329 349
3 349 329 350
3 350 329 328
3 348 350 328
3 330 331 351
3 352 332 330
3 352 330 353
3 351 354 330
3 354 353 330
3 353 355 352
3 358 357 356
3 357 359 356
3 351 331 335
3 332 352 360
3 332 360 335
3 354 351 360
3 351 335 360
3 352 355 360
3 358 356 361
3 356 359 361
3 364 363 362
3 363 365 362
3 337 338 366
3 364 362 367
3 366 339 337
3 362 365 367
3 370 369 368
3 369 371 368
3 366 338 341
3 342 339 366
3 342 366 372
3 341 343 366
3 343 372 366
3 342 372 344
3 370 368 373
3 368 371 373
3 346 347 374
3 343 346 374
3 343 374 372
3 372 374 375
3 372 375 348
3 344 372 348
3 374 347 349
3 375 374 349
3 350 375 349
3 375 350 348
3 353 354 376
3 353 376 355
3 358 378 377
3 357 358 377
3 357 377 379
3 359 357 379
3 376 354 360
3 376 360 355
3 378 358 361
3 380 378 361
3 380 361 359
3 379 380 359
3 363 364 381
3 363 381 365
3 384 383 382
3 383 385 382
3 381 364 367
3 381 367 365
3 369 370 386
3 369 386 371
3 384 382 387
3 382 385 387
3 386 370 373
3 386 373 371
3 390 389 388
3 389 391 388
3 390 388 392
3 395 392 388
3 395 388 393
3 391 394 388
3 394 393 388
3 394 396 393
3 395 393 397
3 393 396 397
3 400 399 398
3 378 398 399
3 378 399 377
3 402 401 399
3 401 377 399
3 377 401 379
3 405 404 403
3 404 406 403
3 400 398 407
3 401 402 407
3 401 407 380
3 398 378 407
3 378 380 407
3 401 380 379
3 405 403 408
3 403 406 408
3 411 410 409
3 410 412 409
3 383 384 413
3 383 413 385
3 411 409 414
3 417 414 409
3 417 409 415
3 412 416 409
3 416 415 409
3 416 418 415
3 421 420 419
3 420 423 422
3 419 420 422
3 423 424 422
3 384 387 413
3 413 387 385
3 427 426 425
3 426 428 425
3 417 415 429
3 415 418 429
3 421 419 430
3 419 422 431
3 430 419 431
3 422 424 431
3 427 425 432
3 433 389 425
3 433 425 428
3 389 390 425
3 432 425 434
3 390 434 425
3 389 433 435
3 391 389 435
3 434 390 392
3 436 434 392
3 435 437 391
3 391 437 394
3 438 436 392
3 438 392 395
3 394 437 439
3 396 394 439
3 438 395 397
3 440 438 397
3 440 397 396
3 439 440 396
3 399 400 441
3 399 441 402
3 404 405 442
3 404 442 406
3 441 400 407
3 441 407 402
3 442 405 408
3 442 408 406
3 410 411 443
3 410 443 412
3 443 411 414
3 416 412 443
3 416 443 444
3 414 417 443
3 417 444 443
3 416 444 418
3 447 446 445
3 446 449 448
3 445 446 448
3 449 450 448
3 420 421 451
3 423 420 451
3 452 423 451
3 423 452 424
3 426 427 453
3 426 453 428
3 429 454 456
3 429 456 417
3 455 444 456
3 444 417 456
3 454 429 418
3 454 418 457
3 444 455 418
3 455 457 418
3 460 459 458
3 459 462 461
3 458 459 461
3 462 447 445
3 462 445 461
3 461 445 463
3 464 465 463
3 464 463 448
3 448 463 445
3 448 450 464
3 451 421 430
3 452 451 430
3 431 452 430
3 452 431 424
3 453 427 432
3 433 428 453
3 433 453 466
3 432 434 453
3 434 466 453
3 468 456 433
3 468 433 466
3 456 454 433
3 435 433 467
3 454 467 433
3 457 469 467
3 454 457 467
3 460 458 470
3 458 461 471
3 470 458 471
3 461 463 472
3 471 461 472
3 463 465 472
3 466 434 436
3 466 474 468
3 466 473 474
3 466 436 473
3 438 473 436
3 435 467 437
3 437 467 469
3 437 469 439
3 474 473 469
3 473 439 469
3 473 438 440
3 473 440 439
3 446 447 475
3 449 446 475
3 476 449 475
3 449 476 450
3 455 456 477
3 455 477 457
3 459 460 478
3 462 459 478
3 479 462 478
3 447 462 479
3 447 479 475
3 475 479 480
3 465 464 476
3 465 476 480
3 480 476 475
3 476 464 450
3 481 477 456
3 468 481 456
3 477 481 469
3 457 477 469
3 478 460 470
3 479 478 470
3 471 479 470
3 480 479 471
3 472 480 471
3 480 472 465
3 481 468 474
3 481 474 469
