ply
format ascii 1.0
element vertex 360
property float x
property float y
property float z
property uchar red
property uchar green
property uchar blue
element face 716
property list uchar int vertex_indices
end_header
0.369655877351760864 8 8 75 64 61
1 7.51178741455078125 8 153 136 132
1 8 7.68180942535400391 46 41 39
1 8 8.60165500640869141 23 20 19
1 8.60165500640869141 8 23 20 19
1.57352578639984131 7 8 153 136 132
2 6.58334636688232422 8 205 202 185
2 7 7.75301027297973633 128 120 115
2 7 8.54072761535644531 107 96 93
2 8 7.09115314483642578 7 6 6
2 8 8.80607986450195312 30 27 25
2 8.80607986450195312 8 30 27 25
2.53089332580566406 6 8 205 202 185
3 5.42498159408569336 8 221 235 219
3 6 7.69328689575195312 185 182 172
3 6 8.59292411804199219 169 168 152
3 7 7.08913755416870117 78 73 70
3 7 8.80638313293457031 56 50 48
2.13649439811706543 8 7 7 6 6
3 7.13384914398193359 7 78 73 70
3 8 6.38925552368164062 38 37 34
3 8 8.87521266937255859 83 75 69
3 8.7250823974609375 7 61 52 52
3 8.87521266937255859 8 83 75 69
3.96609973907470703 4 8 242 254 248
4 3.94042801856994629 8 241 251 251
4 4 7.97529172897338867 245 253 246
4 4 8.10667610168457031 235 249 245
3.31483912467956543 5 8 221 235 219
4 5 7.50073099136352539 216 221 210
4 5 8.70083999633789062 193 209 193
3.93586087226867676 6 7 185 182 172
4 5.91237926483154297 7 216 221 210
4 6 6.94939184188842773 163 162 154
4 6 8.82632064819335938 123 124 111
3.12028360366821289 7 7 78 73 70
4 7 6.3062291145324707 48 47 44
4 7 8.88000392913818359 2 1 1
3.48780965805053711 8 6 38 37 34
4 7.42709016799926758 6 48 47 44
4 8 5.56017875671386719 69 70 64
4 8 8.90938949584960938 132 121 110
4 8.63833427429199219 6 91 86 81
4 8.85467720031738281 7 112 99 96
4 8.90938949584960938 8 132 121 110
4.94036006927490234 2 8 219 226 227
5 1.83846807479858398 8 212 220 221
5 2 7.95207118988037109 235 240 239
5 2 8.18789577484130859 235 244 246
4.49681615829467773 3 8 241 251 251
5 3 7.59557819366455078 248 254 252
5 3 8.65627479553222656 241 252 254
5 4 7.17026662826538086 231 241 234
5 4 8.79225063323974609 217 233 230
4.6153569221496582 5 7 216 221 210
5 4.34761619567871094 7 231 241 234
5 5 6.66518306732177734 202 204 196
5 5 8.85550785064697266 158 173 161
5 6 6.07648801803588867 117 116 110
5 6 8.89135551452636719 72 74 65
4.34931564331054688 7 6 48 47 44
5 6.11683225631713867 6 117 116 110
5 7 5.38324499130249023 16 16 15
5 7 8.91404247283935547 52 47 44
4.58975315093994141 8 5 69 70 64
5 7.49339437484741211 5 16 16 15
5 8 4.5736546516418457 97 102 94
5 8 8.92945671081542969 176 160 146
5 8.60994529724121094 5 121 120 109
5 8.84307956695556641 6 140 127 123
5 8.90257072448730469 7 158 142 135
5 8.92945671081542969 8 176 160 146
5.04090309143066406 -9 8 200 231 145
6 -9.79452705383300781 8 188 254 142
6 -9 7.15905475616455078 204 244 155
6 -9 8.79452705383300781 230 249 153
5.37146282196044922 -8 8 199 199 136
6 -8 7.4488224983215332 213 219 152
6 -8 8.72075653076171875 229 218 154
5.62998867034912109 -7 8 166 155 122
6 -7 7.67548227310180664 191 183 143
6 -7 8.60650825500488281 205 182 148
5.81953191757202148 -6 8 138 128 108
6 -6 7.84169530868530273 167 157 133
6 -6 8.43171024322509766 183 162 141
5.94216632843017578 -5 8 120 114 99
6 -5 7.94925975799560547 150 144 126
6 -5 8.19685077667236328 167 154 136
5.99914360046386719 -4 8 113 112 97
6 -4 7.99924850463867188 143 143 125
6 -4 8.00362777709960938 161 157 137
5.99099302291870117 -3 8 113 117 105
6 -3 7.99209451675415039 143 147 133
6 -3 8.03686904907226562 159 164 145
5.91756486892700195 -2 8 124 133 122
6 -2 7.9276280403137207 153 161 150
6 -2 8.25872325897216797 164 177 161
5.77802324295043945 -1 8 148 158 151
6 -1 7.8050689697265625 174 183 176
6 -1 8.48263359069824219 183 198 188
5.57078266143798828 0 8 180 189 187
6 0 7.62297296524047852 202 210 207
6 0 8.64076995849609375 208 222 219
5.2933955192565918 1 8 212 220 221
6 1 7.3791351318359375 228 236 235
6 1 8.7430877685546875 229 241 243
6 2 7.0704498291015625 244 253 252
6 2 8.80938911437988281 239 250 254
5.67235326766967773 3 7 248 254 252
6 2.19019818305969238 7 244 253 252
6 3 6.68809652328491211 249 253 250
6 3 8.85357475280761719 228 240 245
5.19213628768920898 4 7 231 241 234
6 4 6.23076391220092773 222 229 221
6 4 8.88402271270751953 188 205 205
5.69660091400146484 5 6 202 204 196
6 4.43716764450073242 6 222 229 221
6 5 5.68520879745483398 183 184 178
6 5 8.90567684173583984 116 129 120
5.08010101318359375 6 6 117 116 110
6 6 5.04568195343017578 88 88 84
6 6 8.92151641845703125 19 20 18
5.37032079696655273 7 5 16 16 15
6 6.06439590454101562 5 88 88 84
6 7 4.28354930877685547 16 17 16
6 7 8.93338489532470703 104 96 88
5.50797033309936523 8 4 97 102 94
6 7.33461189270019531 4 16 17 16
6 8 3.3810882568359375 124 134 123
6 8 8.94246387481689453 211 190 173
6 8.67083740234375 4 146 151 137
6 8.84621429443359375 5 167 160 149
6 8.90085029602050781 6 183 159 159
6 8.92717266082763672 7 198 179 167
6 8.94246387481689453 8 211 190 173
6.16649484634399414 -9 7 204 244 155
7 -9.78546905517578125 7 171 248 140
7 -9 6.14090633392333984 213 252 161
7 -9.88855552673339844 8 207 242 132
7 -9 8.88855552673339844 254 246 153
6.46982240676879883 -8 7 213 219 152
7 -8 6.45354032516479492 231 236 165
7 -8 8.87129592895507812 249 211 163
6.707061767578125 -7 7 191 183 143
7 -7 6.69804573059082031 214 203 161
7 -7 8.85284233093261719 234 187 165
6.88097047805786133 -6 7 167 157 133
7 -6 6.87729215621948242 193 180 154
7 -6 8.83504676818847656 218 177 164
6.99342012405395508 -5 7 150 144 126
7 -5 6.99321556091308594 178 169 150
7 -5 8.82077503204345703 206 178 164
7 -4.87410545349121094 7 193 182 158
7 -4 7.04620075225830078 187 185 160
7 -4 8.81319808959960938 201 189 167
7 -3 7.03836441040039062 183 190 169
7 -3 8.81434917449951172 201 204 176
6.97008180618286133 -2 7 153 161 150
7 -2.44084453582763672 7 183 190 169
7 -2 6.96912384033203125 180 187 175
7 -2 8.82391548156738281 198 214 190
6.84162425994873047 -1 7 174 183 176
7 -1 6.83648395538330078 196 206 196
7 -1 8.83943653106689453 207 228 212
6.65100812911987305 0 7 202 210 207
7 0 6.63951587677001953 220 227 222
7 0 8.85769367218017578 224 244 239
6.39603328704833984 1 7 228 236 235
7 1 6.37584161758422852 239 246 243
7 1 8.87603473663330078 234 251 254
6.07355880737304688 2 7 244 253 252
7 2 6.04213047027587891 247 254 251
7 2 8.89286994934082031 230 243 250
6.66656303405761719 3 6 249 253 250
7 2.10546231269836426 6 247 254 251
7 3 5.62425374984741211 244 248 244
7 3 8.90752601623535156 205 217 224
6.22349357604980469 4 6 222 229 221
7 4 5.1246490478515625 210 213 207
7 4 8.91990852355957031 151 166 168
6.61188602447509766 5 5 183 184 178
7 4.21773195266723633 5 210 213 207
7 5 4.51982593536376953 159 160 156
7 5 8.93020248413085938 69 79 75
6.85642862319946289 6 4 107 109 105
7 5.74260425567626953 4 159 160 156
7 6 3.80346870422363281 75 77 74
6.04081106185913086 6 5 88 88 84
7 6 8.93869590759277344 31 34 29
6.96466255187988281 7 3 3 3 3
7 6.94290065765380859 3 75 77 74
7 7 2.94595479965209961 31 33 32
6.2320709228515625 7 4 16 17 16
7 7 8.94568920135498047 152 144 127
6.94039773941040039 8 2 108 118 112
7 7.91228055953979492 2 31 33 32
7 8 1.89688718318939209 138 153 144
6.28346157073974609 8 3 124 134 123
7 8 8.95145130157470703 237 207 192
7 8.21526718139648438 2 150 166 151
7 8.76031398773193359 3 169 179 161
7 8.86235713958740234 4 192 191 172
7 8.90482044219970703 5 205 188 180
7 8.92777061462402344 6 217 193 186
7 8.94195079803466797 7 228 207 190
7 8.95145130157470703 8 237 207 192
7.95458126068115234 -9 5 225 248 163
8 -9.1842041015625 5 168 243 141
8 -9 4.93958139419555664 243 254 165
7.12741661071777344 -9 6 213 252 161
8 -9.80440235137939453 6 161 236 134
8 -9.88996696472167969 7 180 228 126
8 -9.92360115051269531 8 217 208 116
8 -9 8.92360115051269531 246 194 144
8 -8.83312416076660156 5 222 254 163
7.41007137298583984 -8 6 231 236 165
8 -8 5.28472757339477539 248 247 172
8 -8 8.91649055480957031 254 174 162
7.63104534149169922 -7 6 214 203 161
8 -7 5.55265712738037109 232 215 173
8 -7 8.90967559814453125 251 181 172
7.79293537139892578 -6 6 193 180 154
8 -6 5.74892044067382812 216 196 172
8 -6 8.90376186370849609 242 189 178
7.89750576019287109 -5 6 178 169 150
8 -5 5.87569665908813477 203 188 170
8 -5 8.89942550659179688 235 185 182
7.94582319259643555 -4 6 172 169 151
8 -4 5.93427658081054688 198 190 173
7.04496955871582031 -4 7 187 185 160
8 -4 8.89725780487060547 231 200 188
7.93834018707275391 -3 6 172 175 159
8 -3 5.92516994476318359 200 200 181
7.03733205795288086 -3 7 183 190 169
8 -3 8.89759063720703125 233 225 196
7.87493610382080078 -2 6 180 187 175
8 -2 5.84815073013305664 204 209 195
8 -2 8.90037441253662109 226 239 207
7.75491094589233398 -1 6 196 206 196
8 -1 5.7022552490234375 216 224 213
8 -1 8.90520000457763672 219 248 220
7.57693243026733398 0 6 220 227 222
8 0 5.48572731018066406 232 241 232
8 0 8.91143608093261719 227 254 244
7.33893728256225586 1 6 239 246 243
8 1 5.19591999053955078 245 253 246
8 1 8.91840934753417969 227 249 252
7.86695432662963867 2 5 251 254 251
8 1.53914356231689453 5 245 253 246
8 2 4.82230377197265625 252 254 250
7.03798151016235352 2 6 247 254 251
8 2 8.92554473876953125 210 225 234
7.51866483688354492 3 5 244 248 244
8 3 4.35679054260253906 236 239 234
8 3 8.93242740631103516 171 183 192
7.85872697830200195 4 4 224 225 222
8 3.64902186393737793 4 236 239 234
8 4 3.79096817970275879 207 208 205
7.10357427597045898 4 5 210 213 207
8 4 8.93880653381347656 107 119 123
7.3953547477722168 5 4 159 160 156
8 5 3.10543155670166016 130 132 128
8 5 8.94455623626708984 21 25 24
7.55477380752563477 6 3 75 77 74
8 5.13681364059448242 3 130 132 128
8 6 2.26376438140869141 39 41 39
8 6 8.94964408874511719 75 88 74
7.58724546432495117 7 2 31 33 32
8 6.27846622467041016 2 39 41 39
8 7 1.22770583629608154 67 73 69
8 7 8.95408916473388672 193 191 159
7.96043968200683594 8 0 126 142 137
8 7.93697309494018555 0 53 58 57
8 8 -0.100225113332271576 156 180 169
7.49452400207519531 8 1 138 153 144
8 7.19511508941650391 1 67 73 69
8 8 8.95794105529785156 252 208 201
8 8.16427707672119141 0 164 187 173
8 8.70920944213867188 1 173 196 175
8 8.83138275146484375 2 189 206 182
8 8.88419055938720703 3 212 215 190
8 8.91312122344970703 4 225 213 197
8 8.93108749389648438 5 234 202 202
8 8.94314670562744141 6 241 217 204
8 8.95167732238769531 7 247 222 203
8 8.95794105529785156 8 252 208 201
8.1842041015625 -9 5 222 254 163
8.80440235137939453 -9 6 220 254 158
8.88996696472167969 -9 7 244 251 152
8.92360115051269531 -9 8 246 194 144
8.73903179168701172 -8 6 252 251 171
8.8732147216796875 -8 7 254 229 168
8.91649055480957031 -8 8 254 174 162
8.64242267608642578 -7 6 240 223 175
8.8553924560546875 -7 7 246 208 175
8.90967559814453125 -7 8 251 181 172
8.50467300415039062 -6 6 226 207 176
8.83829593658447266 -6 7 235 199 178
8.90376186370849609 -6 8 242 189 178
8.33675956726074219 -5 6 215 202 176
8.82465648651123047 -5 7 226 202 180
8.89942550659179688 -5 8 235 185 182
8.21213436126708984 -4 6 210 207 180
8.8174591064453125 -4 7 221 212 185
8.89725780487060547 -4 8 231 200 188
8.23451042175292969 -3 6 207 212 189
8.81859588623046875 -3 7 218 223 194
8.89759063720703125 -3 8 233 225 196
8.38233757019042969 -2 6 208 221 202
8.82776641845703125 -2 7 213 231 206
8.90037441253662109 -2 8 226 239 207
8.54630374908447266 -1 6 218 234 220
8.84265708923339844 -1 7 220 242 225
8.90520000457763672 -1 8 219 248 220
8.67271518707275391 0 6 233 247 240
8.86023139953613281 0 7 232 251 246
8.91143608093261719 0 8 227 254 244
8.75981712341308594 1 6 242 254 251
8.87795829772949219 1 7 235 253 254
8.91840934753417969 1 8 227 249 252
8.39718437194824219 2 5 244 252 246
8.81869029998779297 2 6 235 248 245
8.89429664611816406 2 7 224 239 242
8.92554473876953125 2 8 210 225 234
8.69982528686523438 3 5 221 230 221
8.85905170440673828 3 6 206 220 214
8.90857410430908203 3 7 190 205 207
8.93242740631103516 3 8 171 183 192
8.41154193878173828 4 4 192 194 188
8.80867290496826172 4 5 173 178 170
8.88740921020507812 4 6 149 161 151
8.92067623138427734 4 7 129 143 139
8.93880653381347656 4 8 107 119 123
8.74391651153564453 5 4 112 113 108
8.86340522766113281 5 5 91 93 87
8.90785598754882812 5 6 68 71 65
8.93076515197753906 5 7 43 48 43
8.94455623626708984 5 8 21 25 24
8.68355560302734375 6 3 21 21 20
8.84117412567138672 6 4 0 0 0
8.89569187164306641 6 5 21 20 19
8.92296314239501953 6 6 43 43 38
8.93911075592041016 6 7 63 65 57
8.94964408874511719 6 8 75 88 74
8.66724395751953125 7 2 83 89 82
8.82848453521728516 7 3 103 106 98
8.88690853118896484 7 4 124 122 113
8.91662883758544922 7 5 142 133 127
8.93436908721923828 7 6 160 145 140
8.94599437713623047 7 7 177 162 150
8.95408916473388672 7 8 193 191 159
8.16427707672119141 8 0 164 187 173
8.70920944213867188 8 1 173 196 175
8.83138275146484375 8 2 189 206 182
8.88419055938720703 8 3 212 215 190
8.91312122344970703 8 4 225 213 197
8.93108749389648438 8 5 234 202 202
8.94314670562744141 8 6 241 217 204
8.95167732238769531 8 7 247 222 203
8.95794105529785156 8 8 252 208 201
3 2 1 0
3 1 3 0
3 2 0 4
3 0 3 4
3 7 6 5
3 6 8 5
3 5 1 2
3 5 2 7
3 7 2 9
3 1 5 8
3 1 8 3
3 3 8 10
3 9 2 4
3 11 9 4
3 11 4 3
3 10 11 3
3 14 13 12
3 13 15 12
3 12 6 7
3 12 7 14
3 14 7 16
3 6 12 15
3 6 15 8
3 8 15 17
3 20 19 18
3 19 9 18
3 19 16 9
3 16 7 9
3 17 21 8
3 21 10 8
3 20 18 22
3 18 9 11
3 18 11 22
3 22 11 23
3 23 11 10
3 21 23 10
3 26 25 24
3 25 27 24
3 29 26 24
3 28 29 24
3 27 30 28
3 24 27 28
3 33 32 31
3 28 13 14
3 29 28 14
3 29 14 31
3 29 31 32
3 13 28 30
3 13 30 15
3 15 30 34
3 36 33 31
3 35 36 31
3 31 16 35
3 14 16 31
3 34 37 15
3 37 17 15
3 40 39 38
3 35 19 20
3 36 35 20
3 36 20 38
3 36 38 39
3 35 16 19
3 37 41 17
3 41 21 17
3 40 38 42
3 38 20 22
3 38 22 42
3 42 22 43
3 43 22 44
3 22 23 44
3 44 23 21
3 41 44 21
3 47 46 45
3 46 48 45
3 50 47 45
3 49 50 45
3 48 51 49
3 45 48 49
3 49 25 26
3 49 26 50
3 50 26 52
3 25 49 51
3 25 51 27
3 27 51 53
3 56 55 54
3 55 29 54
3 55 52 29
3 52 26 29
3 53 57 27
3 57 30 27
3 54 32 33
3 54 33 56
3 56 33 58
3 54 29 32
3 57 59 30
3 59 34 30
3 62 61 60
3 61 36 60
3 61 58 36
3 58 33 36
3 59 63 34
3 63 37 34
3 66 65 64
3 60 39 40
3 62 60 40
3 62 40 64
3 62 64 65
3 60 36 39
3 63 67 37
3 67 41 37
3 66 64 68
3 64 40 42
3 64 42 68
3 68 42 69
3 69 42 70
3 42 43 70
3 70 43 71
3 43 44 71
3 71 44 41
3 67 71 41
3 74 73 72
3 73 75 72
3 77 74 72
3 76 77 72
3 75 78 76
3 72 75 76
3 80 77 76
3 79 80 76
3 78 81 79
3 76 78 79
3 83 80 79
3 82 83 79
3 81 84 82
3 79 81 82
3 86 83 82
3 85 86 82
3 84 87 85
3 82 84 85
3 89 86 85
3 88 89 85
3 87 90 88
3 85 87 88
3 92 89 88
3 91 92 88
3 90 93 91
3 88 90 91
3 95 92 91
3 94 95 91
3 93 96 94
3 91 93 94
3 98 95 94
3 97 98 94
3 96 99 97
3 94 96 97
3 101 98 97
3 100 101 97
3 99 102 100
3 97 99 100
3 104 101 100
3 103 104 100
3 102 105 103
3 100 102 103
3 103 46 47
3 103 47 104
3 104 47 106
3 46 103 105
3 46 105 48
3 48 105 107
3 110 109 108
3 109 50 108
3 109 106 50
3 106 47 50
3 107 111 48
3 111 51 48
3 113 110 108
3 112 113 108
3 108 52 112
3 50 52 108
3 111 114 51
3 114 53 51
3 117 116 115
3 112 55 56
3 113 112 56
3 113 56 115
3 113 115 116
3 112 52 55
3 114 118 53
3 118 57 53
3 120 117 115
3 119 120 115
3 115 58 119
3 56 58 115
3 118 121 57
3 121 59 57
3 124 123 122
3 119 61 62
3 120 119 62
3 120 62 122
3 120 122 123
3 119 58 61
3 121 125 59
3 125 63 59
3 128 127 126
3 122 65 66
3 124 122 66
3 124 66 126
3 124 126 127
3 122 62 65
3 125 129 63
3 129 67 63
3 128 126 130
3 126 66 68
3 126 68 130
3 130 68 131
3 131 68 132
3 68 69 132
3 132 69 133
3 69 70 133
3 133 70 134
3 70 71 134
3 134 71 67
3 129 134 67
3 137 136 135
3 74 135 136
3 74 136 73
3 73 136 138
3 73 138 139
3 75 73 139
3 141 137 135
3 140 141 135
3 135 77 140
3 74 77 135
3 139 142 75
3 142 78 75
3 144 141 140
3 143 144 140
3 140 80 143
3 77 80 140
3 142 145 78
3 145 81 78
3 147 144 143
3 146 147 143
3 143 83 146
3 80 83 143
3 145 148 81
3 148 84 81
3 150 147 146
3 149 150 146
3 146 86 149
3 83 86 146
3 148 151 84
3 151 87 84
3 150 149 152
3 149 153 152
3 149 86 153
3 86 89 153
3 151 154 87
3 154 90 87
3 153 89 155
3 155 89 92
3 154 156 90
3 156 93 90
3 159 158 157
3 158 95 157
3 158 155 95
3 155 92 95
3 156 160 93
3 160 96 93
3 162 159 157
3 161 162 157
3 157 98 161
3 95 98 157
3 160 163 96
3 163 99 96
3 165 162 161
3 164 165 161
3 161 101 164
3 98 101 161
3 163 166 99
3 166 102 99
3 168 165 164
3 167 168 164
3 164 104 167
3 101 104 164
3 166 169 102
3 169 105 102
3 171 168 167
3 170 171 167
3 167 106 170
3 104 106 167
3 169 172 105
3 172 107 105
3 175 174 173
3 170 109 110
3 171 170 110
3 171 110 173
3 171 173 174
3 170 106 109
3 172 176 107
3 176 111 107
3 178 175 173
3 177 178 173
3 173 113 177
3 110 113 173
3 176 179 111
3 179 114 111
3 182 181 180
3 177 116 117
3 178 177 117
3 178 117 180
3 178 180 181
3 177 113 116
3 179 183 114
3 183 118 114
3 186 185 184
3 185 182 180
3 185 180 184
3 184 180 187
3 180 120 187
3 117 120 180
3 183 188 118
3 188 121 118
3 191 190 189
3 190 186 184
3 190 184 189
3 189 184 192
3 124 187 123
3 124 192 187
3 192 184 187
3 187 120 123
3 188 193 121
3 193 125 121
3 196 195 194
3 195 191 189
3 195 189 194
3 194 189 197
3 128 192 127
3 128 197 192
3 197 189 192
3 192 124 127
3 193 198 125
3 198 129 125
3 196 194 199
3 194 197 200
3 199 194 200
3 197 128 130
3 197 130 200
3 200 130 201
3 201 130 202
3 130 131 202
3 202 131 203
3 131 132 203
3 203 132 204
3 132 133 204
3 204 133 205
3 133 134 205
3 205 134 129
3 198 205 129
3 208 207 206
3 207 210 209
3 206 207 209
3 137 209 210
3 137 210 136
3 136 210 211
3 211 212 136
3 136 212 138
3 138 212 213
3 139 138 213
3 208 206 214
3 216 214 206
3 216 206 215
3 215 206 209
3 209 141 215
3 137 141 209
3 213 217 139
3 217 142 139
3 219 216 215
3 218 219 215
3 215 144 218
3 141 144 215
3 217 220 142
3 220 145 142
3 222 219 218
3 221 222 218
3 218 147 221
3 144 147 218
3 220 223 145
3 223 148 145
3 225 222 221
3 224 225 221
3 221 150 224
3 147 150 221
3 223 226 148
3 226 151 148
3 228 225 224
3 227 228 224
3 152 224 150
3 152 229 224
3 229 227 224
3 152 153 229
3 226 230 151
3 230 154 151
3 232 228 227
3 231 232 227
3 227 229 231
3 229 233 231
3 229 155 233
3 153 155 229
3 230 234 154
3 234 156 154
3 236 232 231
3 235 236 231
3 159 233 158
3 159 235 233
3 235 231 233
3 233 155 158
3 234 237 156
3 237 160 156
3 239 236 235
3 238 239 235
3 235 162 238
3 159 162 235
3 237 240 160
3 240 163 160
3 242 239 238
3 241 242 238
3 238 165 241
3 162 165 238
3 240 243 163
3 243 166 163
3 245 242 241
3 244 245 241
3 241 168 244
3 165 168 241
3 243 246 166
3 246 169 166
3 249 248 247
3 248 245 244
3 248 244 247
3 247 244 250
3 244 171 250
3 168 171 244
3 246 251 169
3 251 172 169
3 253 249 247
3 252 253 247
3 175 250 174
3 175 252 250
3 252 247 250
3 250 171 174
3 251 254 172
3 254 176 172
3 257 256 255
3 256 253 252
3 256 252 255
3 255 252 258
3 252 178 258
3 175 178 252
3 254 259 176
3 259 179 176
3 261 257 255
3 260 261 255
3 182 258 181
3 182 260 258
3 260 255 258
3 258 178 181
3 259 262 179
3 262 183 179
3 265 264 263
3 260 185 186
3 261 260 186
3 261 186 263
3 261 263 264
3 260 182 185
3 262 266 183
3 266 188 183
3 269 268 267
3 263 190 191
3 265 263 191
3 265 191 267
3 265 267 268
3 263 186 190
3 266 270 188
3 270 193 188
3 273 272 271
3 272 275 274
3 271 272 274
3 267 195 196
3 269 267 196
3 269 196 274
3 269 274 275
3 267 191 195
3 270 276 193
3 276 198 193
3 273 271 277
3 271 274 278
3 277 271 278
3 274 196 199
3 274 199 278
3 278 199 279
3 279 199 280
3 199 200 280
3 280 200 281
3 200 201 281
3 281 201 282
3 201 202 282
3 282 202 283
3 202 203 283
3 283 203 284
3 203 204 284
3 284 204 285
3 204 205 285
3 285 205 198
3 276 285 198
3 207 208 286
3 210 207 286
3 287 210 286
3 211 210 287
3 288 211 287
3 212 211 288
3 289 212 288
3 212 289 213
3 286 208 214
3 214 216 290
3 214 290 286
3 286 290 287
3 287 290 288
3 288 290 291
3 288 291 289
3 289 291 292
3 289 292 217
3 213 289 217
3 293 290 216
3 219 293 216
3 290 293 291
3 291 293 294
3 291 294 292
3 292 294 295
3 292 295 220
3 217 292 220
3 296 293 219
3 222 296 219
3 293 296 294
3 294 296 297
3 294 297 295
3 295 297 298
3 295 298 223
3 220 295 223
3 299 296 222
3 225 299 222
3 296 299 297
3 297 299 300
3 297 300 298
3 298 300 301
3 298 301 226
3 223 298 226
3 302 299 225
3 228 302 225
3 299 302 300
3 300 302 303
3 300 303 301
3 301 303 304
3 301 304 230
3 226 301 230
3 305 302 228
3 232 305 228
3 302 305 303
3 303 305 306
3 303 306 304
3 304 306 307
3 304 307 234
3 230 304 234
3 308 305 232
3 236 308 232
3 305 308 306
3 306 308 309
3 306 309 307
3 307 309 310
3 307 310 237
3 234 307 237
3 311 308 236
3 239 311 236
3 308 311 309
3 309 311 312
3 309 312 310
3 310 312 313
3 310 313 240
3 237 310 240
3 314 311 239
3 242 314 239
3 311 314 312
3 312 314 315
3 312 315 313
3 313 315 316
3 313 316 243
3 240 313 243
3 317 314 242
3 245 317 242
3 314 317 315
3 315 317 318
3 315 318 316
3 316 318 319
3 316 319 246
3 243 316 246
3 248 249 320
3 245 248 320
3 245 320 317
3 317 320 321
3 317 321 318
3 318 321 322
3 318 322 319
3 319 322 323
3 319 323 251
3 246 319 251
3 324 320 249
3 253 324 249
3 320 324 321
3 321 324 325
3 321 325 322
3 322 325 326
3 322 326 323
3 323 326 327
3 323 327 254
3 251 323 254
3 256 257 328
3 253 256 328
3 253 328 324
3 324 328 329
3 324 329 325
3 325 329 330
3 325 330 326
3 326 330 331
3 326 331 327
3 327 331 332
3 327 332 259
3 254 327 259
3 333 328 257
3 261 333 257
3 328 333 329
3 329 333 334
3 329 334 330
3 330 334 335
3 330 335 331
3 331 335 336
3 331 336 332
3 332 336 337
3 332 337 262
3 259 332 262
3 264 265 338
3 261 264 338
3 261 338 333
3 333 338 339
3 333 339 334
3 334 339 340
3 334 340 335
3 335 340 341
3 335 341 336
3 336 341 342
3 336 342 337
3 337 342 343
3 337 343 266
3 262 337 266
3 268 269 344
3 265 268 344
3 265 344 338
3 338 344 345
3 338 345 339
3 339 345 346
3 339 346 340
3 340 346 347
3 340 347 341
3 341 347 348
3 341 348 342
3 342 348 349
3 342 349 343
3 343 349 350
3 343 350 270
3 266 343 270
3 272 273 351
3 275 272 351
3 352 275 351
3 269 275 352
3 269 352 344
3 344 352 353
3 344 353 345
3 345 353 354
3 345 354 346
3 346 354 355
3 346 355 347
3 347 355 356
3 347 356 348
3 348 356 357
3 348 357 349
3 349 357 358
3 349 358 350
3 350 358 359
3 350 359 276
3 270 350 276
3 351 273 277
3 352 351 277
3 278 352 277
3 353 352 278
3 279 353 278
3 354 353 279
3 280 354 279
3 355 354 280
3 281 355 280
3 356 355 281
3 282 356 281
3 357 356 282
3 283 357 282
3 358 357 283
3 284 358 283
3 359 358 284
3 285 359 284
3 359 285 276
