ply
format ascii 1.0
element vertex 26
property float x
property float y
property float z
property uchar red
property uchar green
property uchar blue
element face 48
property list uchar int vertex_indices
end_header
7.7065281867980957 -3 8 168 191 252
8 -3.96689105033874512 8 92 92 147
8 -3 7.77555561065673828 157 164 247
8 -3 8.28569412231445312 96 102 152
7.52204227447509766 -2 8 170 199 251
8 -2 7.63446760177612305 159 173 245
8 -2 8.39365291595458984 95 105 147
7.45772361755371094 -1 8 170 202 247
8 -1 7.58527994155883789 157 176 240
8 -1 8.42387294769287109 86 98 132
7.51399135589599609 0 8 164 198 237
8 0 7.6283106803894043 151 171 228
8 0 8.39761161804199219 69 80 105
7.69047927856445312 1 8 152 182 218
8 1 7.76328182220458984 138 155 206
8 1 8.29662227630615234 44 50 66
7.98604917526245117 2 8 132 153 186
8 2 7.98933029174804688 116 127 172
8 2 8.01875019073486328 11 12 17
8 2.0335538387298584 8 11 12 17
8.28569412231445312 -3 8 96 102 152
8.39365291595458984 -2 8 95 105 147
8.42387294769287109 -1 8 86 98 132
8.39761161804199219 0 8 69 80 105
8.29662227630615234 1 8 44 50 66
8.01875019073486328 2 8 11 12 17
3 2 1 0
3 1 3 0
3 5 2 0
3 4 5 0
3 3 6 4
3 0 3 4
3 8 5 4
3 7 8 4
3 6 9 7
3 4 6 7
3 11 8 7
3 10 11 7
3 9 12 10
3 7 9 10
3 14 11 10
3 13 14 10
3 12 15 13
3 10 12 13
3 17 14 13
3 16 17 13
3 15 18 16
3 13 15 16
3 17 16 19
3 16 18 19
3 1 2 20
3 1 20 3
3 21 20 2
3 5 21 2
3 20 21 6
3 3 20 6
3 22 21 5
3 8 22 5
3 21 22 9
3 6 21 9
3 23 22 8
3 11 23 8
3 22 23 12
3 9 22 12
3 24 23 11
3 14 24 11
3 23 24 15
3 12 23 15
3 25 24 14
3 17 25 14
3 24 25 18
3 15 24 18
3 25 17 19
3 25 19 18
