ply
format ascii 1.0
element vertex 304
property float x
property float y
property float z
property uchar red
property uchar green
property uchar blue
element face 520
property list uchar int vertex_indices
end_header
-9.42806243896484375 -9 -9 34 34 35
-9 -9.42806243896484375 -9 43 43 41
-9 -9 -9.42806243896484375 10 10 10
-9 -9 -8.9510498046875 44 44 44
-9.78427219390869141 -9 8 87 120 102
-9 -9.78427219390869141 8 17 14 14
-9 -9 7.693878173828125 126 167 181
-9 -9 8.78427219390869141 14 14 11
-9 -8.92037487030029297 -9 44 44 44
-9 -8.65123176574707031 8 14 14 11
-9.69760417938232422 -6 7 65 88 69
-9 -6.05587100982666016 7 31 25 25
-9 -6 6.78795719146728516 2 1 2
-9 -6 7.08489656448364258 18 14 18
-9.62226676940917969 -5 7 82 118 91
-9 -5 6.87660408020019531 121 117 168
-9 -5 7.05145788192749023 17 21 22
-9.71915435791015625 -4 7 12 13 15
-9 -4 6.78406763076782227 89 122 107
-9 -4 7.64452648162841797 64 86 64
-9 -3.82064509391784668 7 64 86 64
-9.18928337097167969 -2 -8 27 26 28
-9 -2.07466578483581543 -8 90 87 87
-9 -2 -8.08526229858398438 99 95 95
-9 -2 -7.98951244354248047 92 95 91
-9.23635768890380859 -2 5 54 68 64
-9 -2.03159642219543457 5 9 11 12
-9 -2 4.97029399871826172 32 37 35
-9 -2 5.02354001998901367 1 1 1
-9.822235107421875 -2 8 0 0 0
-9 -2.20482850074768066 8 7 9 7
-9 -2 7.60979032516479492 94 93 129
-9 -2 8.822235107421875 120 118 180
-9 -1.99086201190948486 -8 92 95 91
-9 -1.97196376323699951 5 1 1 1
-9 -1.61756992340087891 8 120 118 180
-9.32627391815185547 2 -8 64 59 65
-9 1.88550674915313721 -8 161 139 139
-9 2 -8.01924991607666016 90 96 91
-9 2 -7.97934484481811523 164 142 142
-9 2.02086424827575684 -8 164 142 142
-9.26397991180419922 3 5 38 49 46
-9 2.79205489158630371 5 7 9 8
-9 3 4.99151325225830078 6 5 6
-9 3 5.11660385131835938 38 32 30
-9.68677139282226562 4 -9 3 3 3
-9 3.9197998046875 -9 107 113 106
-9 4 -9.68677139282226562 88 93 89
-9 4 -8.95135879516601562 64 64 64
-9 3.03225159645080566 5 38 32 30
-9 4.26697731018066406 -9 64 64 64
-9.29098606109619141 5 5 24 31 25
-9 4.96326541900634766 5 37 42 48
-9 5 4.97180366516113281 25 30 24
-9 5 5.03553485870361328 19 22 17
-9.84309959411621094 5 8 18 19 26
-9 4.60793352127075195 8 114 94 134
-9 5 7.51948308944702148 172 120 144
-9 5 8.84309959411621094 99 100 72
-9.43327522277832031 6 -7 20 21 22
-9 5.98257684707641602 -7 37 39 39
-9 6 -7.10453271865844727 120 110 110
-9 6 -6.96593999862670898 49 50 49
-9 5.07614707946777344 5 19 22 17
-9 5.19487714767456055 8 99 100 72
-9 6.35406017303466797 -7 49 50 49
-9.19597339630126953 7 4 172 124 148
-9 6.97641563415527344 4 52 66 67
-9 7 3.6221930980682373 66 64 54
-9 7 4.0192265510559082 61 64 52
-9.11213016510009766 7 7 25 35 31
-9 6.98721408843994141 7 160 117 169
-9 7 6.98211479187011719 191 133 153
-9.16877460479736328 7 8 19 16 23
-9 6.9909367561340332 8 38 32 29
-9 7 8.16877460479736328 19 27 22
-9.37808036804199219 8 -6 19 19 19
-9 7.93832874298095703 -6 121 114 108
-9 8 -6.01400947570800781 126 137 131
-9 8 -5.96049356460571289 152 132 132
-9.06690311431884766 8 3 4 5 4
-9 7.84844779968261719 3 66 64 54
-9 8 2.97361516952514648 79 70 67
-9 7.01937341690063477 4 61 64 52
-9 8 3.00577783584594727 64 65 54
-9 7.02050924301147461 7 96 131 103
-9.84811782836914062 8 8 88 135 118
-9 8 7.51925802230834961 59 76 77
-9 8 8.84811782836914062 64 48 64
-9 8.37808036804199219 -6 152 132 132
-9 8.06690311431884766 3 64 65 54
-9 8.84811782836914062 8 64 48 64
-8.94636726379394531 -9 -9 44 44 44
-8.04881572723388672 -9 7 126 167 181
-8 -9.29721164703369141 7 120 156 163
-8 -9 6.82239484786987305 91 93 75
-8.72399139404296875 -9 8 14 14 11
-8 -9 7.0424647331237793 98 104 83
-8.0574798583984375 -8 7 83 113 83
-8 -8 6.76208686828613281 31 29 26
-8.22791290283203125 -8 8 122 181 134
-8 -8.17364311218261719 8 123 165 149
-8 -8 8.66709136962890625 92 125 111
-8 -7.70403337478637695 7 13 12 11
-8.19383907318115234 -7 8 115 121 87
-8 -7 7.39677047729492188 30 27 24
-8 -7 8.69957447052001953 31 37 28
-8.80301570892333984 -6 7 18 14 18
-8 -6.90993642807006836 8 31 37 28
-8.87584018707275391 -5 7 17 21 22
-8.82087421417236328 -4 7 64 86 64
-8.98286247253417969 -2 -8 92 95 91
-8.990234375 -2 5 1 1 1
-8.00216293334960938 -2 6 54 67 54
-8 -2.0040585994720459 6 14 18 14
-8 -2 5.99911403656005859 9 11 10
-8.16731739044189453 -2 7 94 93 129
-8 -2.24101471900939941 7 60 62 50
-8.66957569122314453 -2 8 120 118 180
-8 -2 7.13416814804077148 5 5 4
-8 -1.99780213832855225 6 41 52 42
-8 -1.49614858627319336 7 5 5 4
-8.62699317932128906 2 -8 164 142 142
-8.99249935150146484 3 5 38 32 30
-8.83250904083251953 4 -9 64 64 64
-8.99163150787353516 5 5 19 22 17
-8.31139945983886719 5 7 172 120 144
-8 4.44297122955322266 7 33 38 44
-8 5 6.48419618606567383 72 93 87
-8.61948490142822266 5 8 99 100 72
-8 5 7.23094654083251953 35 43 32
-8.94566822052001953 6 -7 49 50 49
-8 5.79219913482666016 7 35 43 32
-8.94671058654785156 7 4 61 64 52
-8.17384815216064453 7 6 191 133 153
-8 6.8083653450012207 6 28 30 38
-8 7 5.05926179885864258 87 105 83
-8.987060546875 7 7 96 131 103
-8 7 6.1315464973449707 56 60 46
-8.96370792388916016 7 8 19 27 22
-8.10027885437011719 8 -9 13 13 13
-8 7.85972070693969727 -9 126 137 131
-8 8 -9.53067302703857422 17 17 17
-8 8 -8.77197456359863281 109 110 113
-8.00268268585205078 8 -7 126 137 131
-8 7.99459743499755859 -7 188 172 164
-8 8 -7.02918767929077148 85 89 84
-8.97059154510498047 8 -6 152 132 132
-8 8 -6.99429655075073242 56 55 53
-8.99736404418945312 8 3 64 65 54
-8 7.21001338958740234 6 56 60 46
-8.87725257873535156 8 8 64 48 64
-8 8.53067302703857422 -9 109 110 113
-8 8.10321140289306641 -7 56 55 53
-7.69867801666259766 -9 7 98 104 83
-7.61473989486694336 -8 7 13 12 11
-7 -8.01676654815673828 8 66 51 51
-7 -8 7.59328842163085938 2 1 1
-7 -8 8.41324996948242188 4 4 3
-7 -7 7.86197423934936523 135 101 100
-7 -7 8.44312000274658203 4 4 3
-7 -6.92906618118286133 8 4 4 3
-7.16131114959716797 -3 8 92 129 90
-7 -3.24340486526489258 8 56 48 44
-7 -3 7.6885523796081543 41 53 47
-7 -3 8.61954879760742188 40 40 32
-7.99895095825195312 -2 6 41 52 42
-7.87406349182128906 -2 7 5 5 4
-7.05785989761352539 -2 8 109 156 164
-7 -2 7.94598197937011719 56 76 73
-7 -2 8.36533069610595703 23 27 21
-7.20259523391723633 -1 8 42 45 35
-7 -1 7.81084108352661133 23 22 19
-7 -1 8.66335868835449219 15 14 11
-7 -0.130602702498435974 8 15 14 11
-7.33090925216674805 4 8 11 10 8
-7 3.28137707710266113 8 67 81 60
-7 4 7.02440500259399414 23 21 18
-7 4 8.73641777038574219 29 29 21
-7.03862714767456055 5 -9 38 38 38
-7 4.03352499008178711 -9 29 29 30
-7 5 -9.44259166717529297 27 27 27
-7 5 -8.68881416320800781 6 7 7
-7.76063060760498047 5 7 35 43 32
-7.1818995475769043 5 8 16 15 12
-7 5 7.81102657318115234 77 101 94
-7 5 8.66045188903808594 50 69 65
-7 5.33912420272827148 -9 6 7 7
-7.32903814315795898 6 8 117 124 168
-7 6 7.70870161056518555 85 111 100
-7 6 8.73522853851318359 38 49 49
-7.86720132827758789 7 6 56 60 46
-7.10674715042114258 7 7 0 0 0
-7 6.85439443588256836 7 85 111 100
-7 7 6.89220762252807617 87 112 102
-7.09771442413330078 7 8 111 140 155
-7 7 8.36864757537841797 33 32 26
-7.95149755477905273 8 -9 109 110 113
-7.99017190933227539 8 -7 56 55 53
-7.18889427185058594 8 7 126 174 170
-7 8 6.391510009765625 93 103 79
-7 7.07882308959960938 8 33 32 26
-7 8 7.21325922012329102 26 32 27
-7 8.64908790588378906 7 26 32 27
-6.82529306411743164 -8 8 4 4 3
-6.89449262619018555 -7 8 4 4 3
-6.01021766662597656 -5 8 136 119 96
-6 -5.00968742370605469 8 160 172 121
-6 -5 7.98873281478881836 53 56 45
-6 -5 8.08873367309570312 21 21 17
-6 -4.54110336303710938 8 21 21 17
-6.84737300872802734 -3 8 40 40 32
-6.93961524963378906 -2 8 23 27 21
-6.92034578323364258 -1 8 15 14 11
-6.94116926193237305 4 8 29 29 21
-6.91958141326904297 5 -9 6 7 7
-6.68811273574829102 5 8 50 69 65
-6.74611091613769531 6 8 38 49 49
-6 6.96981048583984375 7 11 9 10
-6 7 6.63095283508300781 7 6 6
-6.20345640182495117 7 8 33 32 26
-6 7 7.80389595031738281 104 87 78
-6.82887125015258789 8 7 26 32 27
-6 7.06388187408447266 7 104 87 78
-6.23652887344360352 8 8 129 188 154
-6 7.06589841842651367 8 40 34 30
-6 8 7.80908298492431641 104 134 104
-6 8 8.67887687683105469 63 84 85
-6 8.67887687683105469 8 63 84 85
-5.87812328338623047 -5 8 21 21 17
-5.08211803436279297 5 8 81 106 78
-5 4.97449731826782227 8 166 132 115
-5 5 7.91096115112304688 134 163 182
-5 5 8.27742099761962891 77 69 57
-5 5.01171112060546875 8 77 69 57
-5.91199493408203125 7 7 104 87 78
-5 7.96586084365844727 8 68 51 51
-5 8 7.95538520812988281 31 25 25
-5 8 8.57448768615722656 130 126 95
-5 8.57448768615722656 8 130 126 95
-4.77309036254882812 5 8 77 69 57
-4.95980215072631836 8 8 130 126 95
3.5036461353302002 7 8 172 134 134
4 6.97063827514648438 8 46 40 40
4 7 7.96075820922851562 77 89 90
4 7 8.45740032196044922 214 159 159
4 7.02924346923828125 8 214 159 159
4.79468011856079102 -4 8 147 120 120
5 -4.01433849334716797 8 153 159 130
5 -4 7.98014688491821289 0 0 0
5 -4 8.28447914123535156 199 157 157
5 -3.98592042922973633 8 199 157 157
5 6.94832420349121094 8 88 74 74
5 7 7.93864059448242188 194 192 162
5 7 8.64362812042236328 121 100 100
5 7.05283498764038086 8 121 100 100
5.95001602172851562 -9 8 147 126 126
6 -9.45312118530273438 8 202 174 174
6 -9 7.97346353530883789 91 88 91
6 -9 8.45312118530273438 205 176 176
6 -8.97523307800292969 8 205 176 176
6 -4.04886627197265625 8 135 156 129
6 -4 7.93178558349609375 65 58 63
6 -4 8.603118896484375 114 100 100
6 -3.93859457969665527 8 114 100 100
6 6.91403484344482422 8 56 49 49
6 7 7.89214849472045898 121 122 141
6 7 8.76882171630859375 53 46 46
6 7.08450174331665039 8 53 46 46
7 -9.67263603210449219 8 181 206 185
7 -9 7.94307327270507812 97 91 92
7 -9 8.67263603210449219 208 179 179
7 -8.94603633880615234 8 208 179 179
6.96840858459472656 -5 7 5 4 4
7 -5.0136723518371582 7 140 164 157
7 -5 6.97751903533935547 187 192 170
7 -5 7.01575088500976562 3 3 3
7 -4.98195934295654297 7 3 3 3
6.04425430297851562 -4 8 114 100 100
6.96941280364990234 -3 8 28 26 27
7 -3.02184343338012695 8 94 81 81
7 -3 7.96826887130737305 75 67 67
7 -3 8.42293167114257812 8 7 7
7 -2.97795200347900391 8 8 7 7
7 6.89118337631225586 8 220 199 176
7 7 7.83650970458984375 173 222 176
7 7 8.82367897033691406 59 52 52
7 7.11138057708740234 8 59 52 52
7.39588546752929688 -9 8 208 179 179
7.67451953887939453 -5 7 3 3 3
7.04210376739501953 -3 8 8 7 7
7.90764665603637695 2 -9 178 176 171
8 1.96116125583648682 -9 178 192 194
8 2 -9.57921028137207031 91 102 108
8 2 -8.94871807098388672 194 188 185
8 2.0356595516204834 -9 194 188 185
7.9814915657043457 6 8 220 199 176
8 5.97757720947265625 8 216 169 169
8 6 7.97864627838134766 154 130 130
8 6 8.41909694671630859 170 138 138
7.09159517288208008 7 8 59 52 52
8 6.01533365249633789 8 170 138 138
8.57921028137207031 2 -9 194 188 185
8.41909694671630859 6 8 170 138 138
3 2 1 0
3 1 3 0
3 6 5 4
3 5 7 4
3 2 0 8
3 0 3 8
3 6 4 9
3 4 7 9
3 12 11 10
3 11 13 10
3 15 12 10
3 14 15 10
3 13 16 14
3 10 13 14
3 18 15 14
3 17 18 14
3 16 19 17
3 14 16 17
3 18 17 20
3 17 19 20
3 23 22 21
3 22 24 21
3 27 26 25
3 26 28 25
3 31 30 29
3 30 32 29
3 23 21 33
3 21 24 33
3 27 25 34
3 25 28 34
3 31 29 35
3 29 32 35
3 38 37 36
3 37 39 36
3 38 36 40
3 36 39 40
3 43 42 41
3 42 44 41
3 47 46 45
3 46 48 45
3 43 41 49
3 41 44 49
3 47 45 50
3 45 48 50
3 53 52 51
3 52 54 51
3 57 56 55
3 56 58 55
3 61 60 59
3 60 62 59
3 53 51 63
3 51 54 63
3 57 55 64
3 55 58 64
3 61 59 65
3 59 62 65
3 68 67 66
3 67 69 66
3 72 71 70
3 71 74 73
3 70 71 73
3 74 75 73
3 78 77 76
3 77 79 76
3 82 81 80
3 83 84 80
3 83 80 66
3 81 68 80
3 68 66 80
3 66 69 83
3 72 70 85
3 87 85 70
3 87 70 86
3 86 70 73
3 75 88 86
3 73 75 86
3 78 76 89
3 76 79 89
3 82 80 90
3 80 84 90
3 87 86 91
3 86 88 91
3 1 2 92
3 1 92 3
3 95 94 93
3 6 93 94
3 6 94 5
3 97 96 94
3 96 5 94
3 5 96 7
3 92 2 8
3 92 8 3
3 99 95 93
3 98 99 93
3 97 101 96
3 93 6 100
3 93 100 98
3 100 6 9
3 100 9 7
3 100 7 102
3 96 101 7
3 101 102 7
3 99 98 103
3 105 103 98
3 105 98 104
3 104 98 100
3 102 106 104
3 100 102 104
3 11 12 107
3 105 104 108
3 107 13 11
3 104 106 108
3 109 107 12
3 15 109 12
3 107 109 16
3 13 107 16
3 110 109 15
3 18 110 15
3 109 110 19
3 16 109 19
3 110 18 20
3 110 20 19
3 22 23 111
3 22 111 24
3 26 27 112
3 113 28 26
3 113 26 114
3 112 115 26
3 115 114 26
3 114 117 116
3 113 114 116
3 31 116 117
3 31 117 30
3 119 118 117
3 118 30 117
3 30 118 32
3 111 23 33
3 111 33 24
3 112 27 34
3 28 113 120
3 28 120 34
3 115 112 120
3 112 34 120
3 113 116 121
3 120 113 121
3 118 119 121
3 118 121 35
3 116 31 121
3 31 35 121
3 118 35 32
3 37 38 122
3 37 122 39
3 122 38 40
3 122 40 39
3 42 43 123
3 42 123 44
3 46 47 124
3 46 124 48
3 123 43 49
3 123 49 44
3 124 47 50
3 124 50 48
3 52 53 125
3 52 125 54
3 128 127 126
3 57 126 127
3 57 127 56
3 130 129 127
3 129 56 127
3 56 129 58
3 60 61 131
3 60 131 62
3 125 53 63
3 125 63 54
3 128 126 132
3 129 130 132
3 129 132 64
3 126 57 132
3 57 64 132
3 129 64 58
3 131 61 65
3 131 65 62
3 67 68 133
3 67 133 69
3 136 135 134
3 72 134 135
3 72 135 71
3 138 137 135
3 137 71 135
3 74 71 137
3 139 74 137
3 74 139 75
3 142 141 140
3 141 143 140
3 146 145 144
3 78 144 145
3 78 145 77
3 148 147 145
3 147 77 145
3 77 147 79
3 81 82 149
3 84 83 133
3 84 133 149
3 68 81 133
3 81 149 133
3 133 83 69
3 136 134 150
3 137 138 150
3 137 150 85
3 134 72 150
3 72 85 150
3 85 87 151
3 85 151 137
3 137 151 139
3 139 151 88
3 75 139 88
3 142 140 152
3 140 143 152
3 146 144 153
3 147 148 153
3 147 153 89
3 144 78 153
3 78 89 153
3 147 89 79
3 149 82 90
3 149 90 84
3 151 87 91
3 151 91 88
3 94 95 154
3 94 154 97
3 155 154 95
3 99 155 95
3 97 154 155
3 97 155 156
3 97 156 101
3 157 156 155
3 101 156 158
3 102 101 158
3 155 99 103
3 103 157 155
3 103 105 157
3 105 159 157
3 158 160 102
3 160 106 102
3 159 105 108
3 161 159 108
3 161 108 106
3 160 161 106
3 164 163 162
3 163 165 162
3 114 115 166
3 117 114 166
3 167 117 166
3 169 164 117
3 169 117 167
3 164 162 117
3 119 117 168
3 162 168 117
3 165 170 168
3 162 165 168
3 166 115 120
3 167 166 120
3 121 167 120
3 168 171 121
3 168 121 119
3 171 172 121
3 167 121 169
3 172 169 121
3 170 173 171
3 168 170 171
3 172 171 174
3 171 173 174
3 177 176 175
3 176 178 175
3 181 180 179
3 180 182 179
3 127 128 183
3 185 177 127
3 185 127 183
3 177 175 127
3 130 127 184
3 175 184 127
3 178 186 184
3 175 178 184
3 181 179 187
3 179 182 187
3 183 128 132
3 184 188 132
3 184 132 130
3 188 189 132
3 183 132 185
3 189 185 132
3 186 190 188
3 184 186 188
3 135 136 191
3 192 138 135
3 192 135 193
3 191 194 135
3 194 193 135
3 193 189 188
3 193 188 192
3 192 188 195
3 190 196 195
3 188 190 195
3 141 142 197
3 141 197 143
3 145 146 198
3 145 198 148
3 191 136 150
3 192 199 150
3 192 150 138
3 199 200 150
3 191 150 194
3 200 194 150
3 201 202 199
3 201 199 195
3 195 199 192
3 195 196 201
3 197 142 152
3 197 152 143
3 198 146 153
3 198 153 148
3 200 199 203
3 199 202 203
3 156 157 204
3 156 204 158
3 205 204 157
3 159 205 157
3 204 205 160
3 158 204 160
3 205 159 161
3 205 161 160
3 208 207 206
3 207 209 206
3 208 206 210
3 206 209 210
3 163 164 211
3 163 211 165
3 212 211 164
3 169 212 164
3 211 212 170
3 165 211 170
3 213 212 169
3 172 213 169
3 212 213 173
3 170 212 173
3 213 172 174
3 213 174 173
3 176 177 214
3 176 214 178
3 180 181 215
3 180 215 182
3 216 214 177
3 185 216 177
3 214 216 186
3 178 214 186
3 215 181 187
3 215 187 182
3 217 216 185
3 189 217 185
3 216 217 190
3 186 216 190
3 194 219 218
3 193 194 218
3 189 193 218
3 189 218 220
3 189 220 217
3 220 218 221
3 217 220 196
3 190 217 196
3 222 223 219
3 222 219 200
3 200 219 194
3 221 225 220
3 226 223 222
3 201 224 202
3 224 201 196
3 224 196 227
3 220 225 196
3 225 227 196
3 222 200 203
3 202 224 228
3 202 228 203
3 226 222 228
3 222 203 228
3 224 227 228
3 207 208 229
3 207 229 209
3 229 208 210
3 229 210 209
3 232 231 230
3 231 233 230
3 232 230 234
3 230 233 234
3 218 219 235
3 218 235 221
3 235 219 223
3 226 237 235
3 226 235 223
3 237 236 235
3 221 235 225
3 236 225 235
3 225 236 238
3 227 225 238
3 237 226 228
3 239 237 228
3 239 228 227
3 238 239 227
3 231 232 240
3 231 240 233
3 240 232 234
3 240 234 233
3 236 237 241
3 236 241 238
3 241 237 239
3 241 239 238
3 244 243 242
3 243 245 242
3 244 242 246
3 242 245 246
3 249 248 247
3 248 250 247
3 249 247 251
3 247 250 251
3 244 253 252
3 243 244 252
3 243 252 254
3 245 243 254
3 253 244 246
3 255 253 246
3 255 246 245
3 254 255 245
3 258 257 256
3 257 259 256
3 258 256 260
3 256 259 260
3 249 262 261
3 248 249 261
3 248 261 263
3 250 248 263
3 262 249 251
3 264 262 251
3 264 251 250
3 263 264 250
3 253 266 265
3 252 253 265
3 252 265 267
3 254 252 267
3 266 253 255
3 268 266 255
3 268 255 254
3 267 268 254
3 258 270 269
3 257 258 269
3 257 269 271
3 259 257 271
3 270 258 260
3 272 270 260
3 272 260 259
3 271 272 259
3 275 274 273
3 274 276 273
3 275 273 277
3 273 276 277
3 262 278 261
3 261 278 263
3 264 279 281
3 264 281 262
3 280 278 281
3 278 262 281
3 279 264 263
3 279 263 282
3 278 280 263
3 280 282 263
3 281 279 283
3 279 282 283
3 266 285 284
3 265 266 284
3 265 284 286
3 267 265 286
3 285 266 268
3 287 285 268
3 287 268 267
3 286 287 267
3 269 270 288
3 269 288 271
3 288 270 272
3 288 272 271
3 274 275 289
3 274 289 276
3 289 275 277
3 289 277 276
3 280 281 290
3 280 290 282
3 290 281 283
3 290 283 282
3 293 292 291
3 292 294 291
3 293 291 295
3 291 294 295
3 298 297 296
3 297 299 296
3 300 301 298
3 300 298 285
3 296 284 298
3 284 285 298
3 284 296 299
3 284 299 286
3 301 300 299
3 300 286 299
3 300 285 287
3 300 287 286
3 292 293 302
3 292 302 294
3 302 293 295
3 302 295 294
3 297 298 303
3 297 303 299
3 303 298 301
3 303 301 299
