ply
format ascii 1.0
element vertex 344
property float x
property float y
property float z
property uchar red
property uchar green
property uchar blue
element face 680
property list uchar int vertex_indices
end_header
-9.79154014587402344 -5 8 254 151 89
-9 -5.99052858352661133 8 220 124 74
-9 -5 7.57205867767333984 131 66 60
-9 -5 8.79154014587402344 233 109 88
-9.87104988098144531 -4 8 253 129 97
-9 -4 7.23870515823364258 151 96 76
-9 -4 8.87104988098144531 244 107 102
-9.89834499359130859 -3 8 247 111 103
-9 -3 7.00403213500976562 172 128 94
-9 -3 8.89834499359130859 251 140 115
-9.53935813903808594 -2 7 245 166 126
-9 -2.97035121917724609 7 172 128 94
-9 -2 6.85460710525512695 77 71 52
-9.90945148468017578 -2 8 237 116 106
-9 -2 8.90945148468017578 254 165 124
-9.60031318664550781 -1 7 251 188 136
-9 -1 6.81349611282348633 103 99 72
-9.91208744049072266 -1 8 224 129 108
-9 -1 8.91208744049072266 253 182 130
-9.48913192749023438 0 7 254 203 144
-9 0 6.88110971450805664 129 128 93
-9.90766716003417969 0 8 208 135 107
-9 0 8.90766716003417969 248 192 133
-9 0.674221515655517578 7 227 208 141
-9.89373302459716797 1 8 189 135 106
-9 1 7.0521397590637207 239 226 151
-9 1 8.89373302459716797 239 196 135
-9.85944461822509766 2 8 168 130 105
-9 2 7.3108668327331543 248 239 160
-9 2 8.85944461822509766 228 196 138
-9.74641036987304688 3 8 145 122 105
-9 3 7.6682744026184082 253 247 172
-9 3 8.74641036987304688 215 192 144
-9 3.72732925415039062 8 215 192 144
-8.28084659576416016 -5 8 233 109 88
-8 -4.49866676330566406 8 181 82 76
-8 -4 7.83376789093017578 63 48 35
-8 -4 8.59595394134521484 204 120 95
-8 -3 7.59909439086914062 92 78 56
-8 -3 8.78056716918945312 223 155 113
-8.77824020385742188 -2 7 193 158 112
-8 -2 7.46310138702392578 121 110 78
-8 -2 8.82650566101074219 238 185 128
-8.71553516387939453 -1 7 212 185 128
-8 -1 7.42578840255737305 148 142 99
-8 -1 8.83592987060546875 248 207 140
-8.81866264343261719 0 7 227 208 141
-8 0 7.48715543746948242 173 171 118
-8 0 8.81983375549316406 253 223 147
-8 1 7.64720249176025391 192 194 133
-8 1 8.75788974761962891 254 232 151
-8 2 7.9059295654296875 206 212 145
-8 2 8.45494651794433594 252 237 155
-8.44253635406494141 3 8 215 192 144
-8 2.26320266723632812 8 252 237 155
-7.66930866241455078 -4 8 204 120 95
-7.20246505737304688 -3 8 223 155 113
-7 -2.25161480903625488 8 180 143 100
-7 -2 7.96578216552734375 48 46 33
-7 -2 8.23290157318115234 204 176 120
-7 -1 7.92846918106079102 79 80 57
-7 -1 8.38826274871826172 223 204 137
-7 0 7.98983621597290039 106 109 81
-7 0 8.08272361755371094 237 225 149
-7.29816770553588867 1 8 254 232 151
-7 0.063506007194519043 8 237 225 149
-7.81286239624023438 2 8 252 237 155
-6.91660261154174805 -2 8 204 176 120
-6.82566165924072266 -1 8 223 204 137
-6.97522783279418945 0 8 237 225 149
2.79009485244750977 -2 8 118 97 69
3 -2.65002107620239258 8 128 82 64
3 -2 7.91160154342651367 25 22 16
3 -2 8.43957328796386719 160 116 85
2.70149374008178711 -1 8 149 130 91
3 -1 7.87428855895996094 9 8 5
3 -1 8.52728271484375 186 147 103
2.84721183776855469 0 8 175 160 109
3 0 7.93565559387207031 41 39 28
3 0 8.36343193054199219 207 174 119
3 0.402034789323806763 8 207 174 119
3.54967617988586426 -4 8 91 48 42
4 -4.69370508193969727 8 109 57 41
4 -4 7.76875114440917969 34 19 16
4 -4 8.67233085632324219 145 65 60
3.09268379211425781 -3 8 128 82 64
4 -3 7.53407764434814453 1 1 0
4 -3 8.80522346496582031 176 88 79
4 -2 7.39808464050292969 36 28 20
4 -2 8.84228992462158203 202 120 97
4 -1 7.36077165603637695 70 58 41
4 -1 8.85011577606201172 222 149 113
4 0 7.42213869094848633 101 88 61
4 0 8.83679676055908203 236 174 127
3.18636703491210938 1 8 224 196 132
4 1 7.58218574523925781 128 116 80
4 1 8.78756141662597656 246 193 140
3.6902008056640625 2 8 235 213 146
4 2 7.84091281890869141 152 141 98
4 2 8.58533191680908203 251 209 156
4 2.4451146125793457 8 251 209 156
4.88156318664550781 -6 8 72 45 24
5 -6.13521575927734375 8 110 100 33
5 -6 7.92823934555053711 21 13 7
5 -6 8.38902473449707031 140 107 45
4.16851711273193359 -5 8 109 57 41
5 -5 7.49620580673217773 7 4 3
5 -5 8.81718921661376953 170 111 60
5 -4 7.16285228729248047 41 19 17
5 -4 8.88134765625 198 112 76
4.88146400451660156 -3 7 1 1 0
5 -3.3060455322265625 7 41 19 17
5 -3 6.92086887359619141 84 57 46
5 -3 8.90485382080078125 221 110 92
4.65701532363891602 -2 7 36 28 20
5 -2 6.77103376388549805 54 41 31
5 -2 8.91465282440185547 237 108 107
4.59543228149414062 -1 7 70 58 41
5 -1 6.72992277145385742 22 18 13
5 -1 8.91699790954589844 248 134 121
4.69671487808227539 0 7 101 88 61
5 0 6.79753589630126953 8 7 5
5 0 8.91306972503662109 253 157 134
4.96086311340332031 1 7 128 116 80
5 1 6.97387361526489258 39 35 25
5 1 8.90082645416259766 254 177 149
5 1.0916520357131958 7 185 150 111
5 2 7.23501443862915039 204 174 132
5 2 8.87159156799316406 253 195 168
4.3273158073425293 3 8 254 223 179
5 3 7.59242153167724609 219 196 160
5 3 8.78338146209716797 249 213 192
5 3.89364123344421387 8 249 213 192
5.65726184844970703 -7 8 110 100 33
6 -7.38025093078613281 8 126 168 55
6 -7 7.76067256927490234 66 63 21
6 -7 8.67984962463378906 167 184 60
6 -6 7.22995901107788086 72 58 24
6 -6 8.87232685089111328 204 193 69
5.71061134338378906 -5 7 7 4 3
6 -5.46772861480712891 7 72 58 24
6 -5 6.77735757827758789 147 91 67
6 -5 8.91427993774414062 223 185 81
5.23321962356567383 -4 7 41 19 17
6 -4 6.41007423400878906 12 6 5
6 -4 8.93161773681640625 239 175 93
6 -3 6.15151453018188477 8 4 4
6 -3 8.94014167785644531 250 165 105
6 -2 6.00167942047119141 37 22 19
6 -2 8.94417381286621094 254 155 117
5.94874715805053711 -1 6 22 18 13
6 -1.95914673805236816 6 37 22 19
6 -1 5.9560999870300293 203 170 140
6 -1 8.94518661499023438 254 150 128
6 -0.416808485984802246 6 67 45 37
6 0 6.02818155288696289 96 72 56
6 0 8.94350051879882812 249 149 141
6 1 6.20451927185058594 124 99 78
6 1 8.93857192993164062 241 156 155
5.33656167984008789 2 7 204 174 132
6 2 6.48958063125610352 151 128 104
6 2 8.92848682403564453 231 176 173
5.84840106964111328 3 7 219 196 160
6 3 6.88336658477783203 175 158 138
6 3 8.90751171112060547 219 194 191
6 3.2321016788482666 7 250 220 204
5.06946897506713867 4 8 243 230 222
6 4 7.35022878646850586 254 247 243
6 4 8.8521881103515625 206 206 206
5.86394596099853516 5 8 236 228 223
6 5 7.90499591827392578 254 238 230
6 5 8.45739555358886719 192 176 174
6 5.14538860321044922 8 192 176 174
6.49334144592285156 -8 8 126 168 55
7 -8.55021286010742188 8 106 238 97
7 -8 7.59940433502197266 172 246 102
7 -8 8.78043460845947266 141 234 93
6.96207094192504883 -7 7 66 63 21
7 -7.04764747619628906 7 172 246 102
7 -7 6.96695852279663086 72 192 80
7 -7 8.90137100219726562 177 240 94
6.29084396362304688 -6 7 72 58 24
7 -6 6.38222646713256836 254 233 109
7 -6 8.93265056610107422 214 247 99
6.89234638214111328 -5 6 147 91 67
7 -5.19701623916625977 6 254 233 109
7 -5 5.89559125900268555 9 21 11
7 -5 8.94647121429443359 248 253 105
6.4707331657409668 -4 6 12 6 5
7 -4 5.48668766021728516 254 196 136
7 -4 8.95378780364990234 254 236 112
6.17392730712890625 -3 6 8 4 4
7 -3 5.19882869720458984 131 82 69
7 -3 8.95784378051757812 251 214 119
6.00192785263061523 -2 6 37 22 19
7 -2 5.03201436996459961 250 156 151
7 -2 8.9598846435546875 242 194 126
6.98581743240356445 -1 5 203 170 140
7 -1.30052995681762695 5 250 156 151
7 -1 4.98448705673217773 0 0 0
7 -1 8.96041011810302734 229 179 133
7 -0.817268311977386475 5 251 184 165
6.03235054016113281 0 6 96 72 56
7 0 5.06152009963989258 253 200 176
7 0 8.95953845977783203 213 168 140
6.2347722053527832 1 6 124 99 78
7 1 5.25783967971801758 242 207 184
7 1 8.95707130432128906 196 162 146
6.56200075149536133 2 6 151 128 104
7 2 5.57520389556884766 213 196 182
7 2 8.95237827301025391 177 158 151
7 2.9689486026763916 6 221 180 169
7 3 6.01222753524780273 236 216 210
7 3 8.94390773773193359 158 153 152
6.44295644760131836 4 7 254 247 243
7 4 6.51473760604858398 247 242 240
7 4 8.92743587493896484 137 133 132
7 4.79390573501586914 7 242 230 230
7 5 7.1143345832824707 229 201 200
7 5 8.88711357116699219 115 109 108
6.706298828125 6 8 175 154 153
7 6 7.76778173446655273 210 181 180
7 6 8.67325115203857422 89 87 86
7 6.30874824523925781 8 89 87 86
7.37085151672363281 -9 8 106 238 97
8 -9.83135128021240234 8 32 73 73
8 -9 7.44443464279174805 105 199 236
8 -9 8.83135128021240234 112 251 145
7.67879390716552734 -8 7 172 246 102
8 -8.38957500457763672 7 105 199 236
8 -8 6.68749094009399414 221 227 108
8 -8 8.91928768157958984 120 253 117
7.99386882781982422 -7 6 72 192 80
8 -7.00860214233398438 6 221 227 108
8 -7 5.99335861206054688 135 165 68
8 -7 8.94436454772949219 152 252 119
7.39286375045776367 -6 6 254 233 109
8 -6 5.34236574172973633 147 74 61
8 -6 8.95591449737548828 177 248 120
7.82682132720947266 -5 5 9 21 11
8 -5.35396385192871094 5 147 74 61
8 -5 4.78844404220581055 119 106 54
8 -5 8.96228790283203125 195 240 121
7.44931650161743164 -4 5 254 196 136
8 -4 4.32728195190429688 109 104 53
8 -4 8.96607208251953125 205 227 121
7.18356132507324219 -3 5 131 82 69
8 -3 4.00263452529907227 104 104 55
8 -3 8.96831130981445312 204 210 120
7.84815168380737305 -2 4 10 8 6
8 -2.98599672317504883 4 104 104 55
8 -2 3.78732037544250488 122 85 73
7.0295562744140625 -2 5 250 156 151
8 -2 8.96947765350341797 189 184 117
7.80589628219604492 -1 4 0 0 0
8 -1 3.72813773155212402 131 90 84
8 -1 8.96978378295898438 165 156 113
7.87539148330688477 0 4 23 24 15
8 0 3.82547259330749512 150 104 104
7.05679607391357422 0 5 253 200 176
8 0 8.96927833557128906 139 131 107
8 0.687515795230865479 4 146 178 121
7.23804092407226562 1 5 242 207 184
8 1 4.06918716430664062 180 200 152
8 1 8.96787643432617188 113 108 96
7.5310359001159668 2 5 213 196 182
8 2 4.42711114883422852 190 213 183
8 2 8.96531867980957031 88 85 81
7.93578052520751953 3 5 238 231 226
8 3 4.92154932022094727 229 229 226
7.01256799697875977 3 6 236 216 210
8 3 8.96103286743164062 62 61 60
8 3.12433695793151855 5 57 52 51
7.52906274795532227 4 6 247 242 240
8 4 5.48989295959472656 137 113 111
8 4 8.95373821258544922 35 35 34
8 4.74960803985595703 6 245 222 219
7.12947750091552734 5 7 229 201 200
8 5 6.15304803848266602 226 195 191
8 5 8.94009685516357422 5 5 5
7.86947250366210938 6 7 210 181 180
8 6 6.87300682067871094 139 119 116
8 6 8.90822029113769531 27 26 24
8 6.15324735641479492 7 116 114 112
7.58876991271972656 7 8 55 54 53
8 7 7.63686609268188477 66 64 63
8 7 8.76314926147460938 67 64 59
8 7.42681074142456055 8 67 64 59
8.83135128021240234 -9 8 112 251 145
8.71564292907714844 -8 7 135 250 119
8.91928768157958984 -8 8 120 253 117
8.04583740234375 -7 6 63 155 117
8.89012527465820312 -7 7 165 239 107
8.94436454772949219 -7 8 152 252 119
8.82629871368408203 -6 6 191 210 103
8.92759037017822266 -6 7 196 239 108
8.95591449737548828 -6 8 177 248 120
8.57571125030517578 -5 5 113 221 173
8.89572906494140625 -5 6 202 198 90
8.94332218170166016 -5 7 227 245 114
8.96228790283203125 -5 8 195 240 121
8.81184291839599609 -4 5 150 147 71
8.92030715942382812 -4 6 197 173 92
8.95145988464355469 -4 7 250 245 123
8.96607208251953125 -4 8 205 227 121
8.86480903625488281 -3 5 246 191 140
8.93164920806884766 -3 6 208 167 104
8.95591545104980469 -3 7 254 231 134
8.96831130981445312 -3 8 204 210 120
8.54332923889160156 -2 4 114 77 64
8.88376998901367188 -2 5 223 162 139
8.93685722351074219 -2 6 221 168 121
8.95814228057861328 -2 7 254 220 147
8.96947765350341797 -2 8 189 184 117
8.60330677032470703 -1 4 88 143 92
8.8880767822265625 -1 5 253 179 163
8.93815040588378906 -1 6 234 174 142
8.95871448516845703 -1 7 251 212 161
8.96978378295898438 -1 8 165 156 113
8.49401187896728516 0 4 146 178 121
8.88081264495849609 0 5 247 180 173
8.93599510192871094 0 6 244 186 166
8.95776462554931641 0 7 244 208 176
8.96927833557128906 0 8 139 131 107
8.85653018951416016 1 5 254 203 202
8.929595947265625 1 6 251 206 195
8.95507049560546875 1 7 233 208 190
8.96787643432617188 1 8 113 108 96
8.78606986999511719 2 5 213 201 200
8.91602230072021484 2 6 254 230 226
8.94990253448486328 2 7 219 208 202
8.96531867980957031 2 8 88 85 81
8.33473968505859375 3 5 57 52 51
8.88554000854492188 3 6 253 251 251
8.94044017791748047 3 7 202 201 200
8.96103286743164062 3 8 62 61 60
8.78677463531494141 4 6 245 222 219
8.92152595520019531 4 7 180 172 168
8.95373821258544922 4 8 35 35 34
8.87213420867919922 5 7 152 145 141
8.94009685516357422 5 8 5 5 5
8.50561332702636719 6 7 116 114 112
8.90822029113769531 6 8 27 26 24
8.76314926147460938 7 8 67 64 59
3 2 1 0
3 1 3 0
3 5 2 0
3 4 5 0
3 3 6 4
3 0 3 4
3 8 5 4
3 7 8 4
3 6 9 7
3 4 6 7
3 12 11 10
3 11 8 7
3 11 7 10
3 10 7 13
3 9 14 13
3 7 9 13
3 16 12 10
3 15 16 10
3 10 13 15
3 13 17 15
3 14 18 17
3 13 14 17
3 20 16 15
3 19 20 15
3 15 17 19
3 17 21 19
3 18 22 21
3 17 18 21
3 20 19 23
3 25 23 19
3 25 19 24
3 24 19 21
3 22 26 24
3 21 22 24
3 28 25 24
3 27 28 24
3 26 29 27
3 24 26 27
3 31 28 27
3 30 31 27
3 29 32 30
3 27 29 30
3 31 30 33
3 30 32 33
3 1 2 34
3 1 34 3
3 35 34 2
3 35 2 36
3 36 2 5
3 34 35 37
3 34 37 3
3 3 37 6
3 36 5 38
3 38 5 8
3 37 39 6
3 39 9 6
3 11 12 40
3 40 8 11
3 40 41 8
3 41 38 8
3 39 42 9
3 42 14 9
3 43 40 12
3 16 43 12
3 41 43 44
3 40 43 41
3 42 45 14
3 45 18 14
3 46 43 16
3 20 46 16
3 44 46 47
3 43 46 44
3 45 48 18
3 48 22 18
3 46 20 23
3 23 47 46
3 23 25 47
3 25 49 47
3 48 50 22
3 50 26 22
3 49 25 51
3 51 25 28
3 50 52 26
3 52 29 26
3 53 54 51
3 53 51 31
3 31 51 28
3 54 53 32
3 54 32 52
3 52 32 29
3 53 31 33
3 53 33 32
3 35 36 55
3 35 55 37
3 56 55 36
3 38 56 36
3 55 56 39
3 37 55 39
3 57 56 38
3 57 38 58
3 58 38 41
3 56 57 59
3 56 59 39
3 39 59 42
3 58 41 60
3 60 41 44
3 59 61 42
3 61 45 42
3 60 44 62
3 62 44 47
3 61 63 45
3 63 48 45
3 64 65 62
3 64 62 49
3 49 62 47
3 65 64 50
3 65 50 63
3 63 50 48
3 66 64 49
3 51 66 49
3 64 66 52
3 50 64 52
3 66 51 54
3 66 54 52
3 57 58 67
3 57 67 59
3 68 67 58
3 60 68 58
3 67 68 61
3 59 67 61
3 69 68 60
3 62 69 60
3 68 69 63
3 61 68 63
3 69 62 65
3 69 65 63
3 72 71 70
3 71 73 70
3 75 72 70
3 74 75 70
3 73 76 74
3 70 73 74
3 78 75 74
3 77 78 74
3 76 79 77
3 74 76 77
3 78 77 80
3 77 79 80
3 83 82 81
3 82 84 81
3 86 83 81
3 85 86 81
3 84 87 85
3 81 84 85
3 85 71 72
3 85 72 86
3 86 72 88
3 71 85 87
3 71 87 73
3 73 87 89
3 88 72 90
3 90 72 75
3 89 91 73
3 91 76 73
3 90 75 92
3 92 75 78
3 91 93 76
3 93 79 76
3 80 94 95
3 80 95 78
3 78 95 92
3 94 80 79
3 94 79 96
3 96 79 93
3 98 95 94
3 97 98 94
3 96 99 97
3 94 96 97
3 98 97 100
3 97 99 100
3 103 102 101
3 102 104 101
3 106 103 101
3 105 106 101
3 104 107 105
3 101 104 105
3 105 82 83
3 105 83 106
3 106 83 108
3 82 105 107
3 82 107 84
3 84 107 109
3 112 111 110
3 111 86 110
3 111 108 86
3 108 83 86
3 109 113 84
3 113 87 84
3 115 112 110
3 114 115 110
3 110 88 114
3 86 88 110
3 113 116 87
3 116 89 87
3 118 115 114
3 117 118 114
3 114 90 117
3 88 90 114
3 116 119 89
3 119 91 89
3 121 118 117
3 120 121 117
3 117 92 120
3 90 92 117
3 119 122 91
3 122 93 91
3 124 121 120
3 123 124 120
3 120 95 123
3 92 95 120
3 122 125 93
3 125 96 93
3 124 123 126
3 123 127 126
3 123 95 127
3 95 98 127
3 125 128 96
3 128 99 96
3 100 129 130
3 100 130 98
3 98 130 127
3 129 100 99
3 129 99 131
3 131 99 128
3 130 129 132
3 129 131 132
3 135 134 133
3 134 136 133
3 133 102 103
3 133 103 135
3 135 103 137
3 102 133 136
3 102 136 104
3 104 136 138
3 141 140 139
3 140 106 139
3 140 137 106
3 137 103 106
3 138 142 104
3 142 107 104
3 144 141 139
3 143 144 139
3 139 108 143
3 106 108 139
3 142 145 107
3 145 109 107
3 143 111 112
3 143 112 144
3 144 112 146
3 143 108 111
3 145 147 109
3 147 113 109
3 146 112 148
3 148 112 115
3 147 149 113
3 149 116 113
3 152 151 150
3 151 118 150
3 151 148 118
3 148 115 118
3 149 153 116
3 153 119 116
3 152 150 154
3 150 155 154
3 150 118 155
3 118 121 155
3 153 156 119
3 156 122 119
3 155 121 157
3 157 121 124
3 156 158 122
3 158 125 122
3 126 159 160
3 126 160 124
3 124 160 157
3 126 127 159
3 158 161 125
3 161 128 125
3 163 160 159
3 162 163 159
3 159 130 162
3 127 130 159
3 161 164 128
3 164 131 128
3 163 162 165
3 167 132 166
3 165 132 167
3 165 130 132
3 165 162 130
3 166 132 131
3 166 131 168
3 168 131 164
3 170 167 166
3 169 170 166
3 168 171 169
3 166 168 169
3 170 169 172
3 169 171 172
3 175 174 173
3 174 176 173
3 179 178 177
3 173 134 135
3 175 173 135
3 175 135 177
3 175 177 178
3 134 173 176
3 134 176 136
3 136 176 180
3 182 179 177
3 181 182 177
3 177 137 181
3 135 137 177
3 180 183 136
3 183 138 136
3 186 185 184
3 181 140 141
3 182 181 141
3 182 141 184
3 182 184 185
3 181 137 140
3 183 187 138
3 187 142 138
3 189 186 184
3 188 189 184
3 184 144 188
3 141 144 184
3 187 190 142
3 190 145 142
3 192 189 188
3 191 192 188
3 188 146 191
3 144 146 188
3 190 193 145
3 193 147 145
3 195 192 191
3 194 195 191
3 191 148 194
3 146 148 191
3 193 196 147
3 196 149 147
3 199 198 197
3 194 151 152
3 195 194 152
3 195 152 197
3 195 197 198
3 194 148 151
3 196 200 149
3 200 153 149
3 199 197 201
3 203 154 202
3 201 154 203
3 201 152 154
3 201 197 152
3 154 155 202
3 200 204 153
3 204 156 153
3 206 203 202
3 205 206 202
3 202 157 205
3 155 157 202
3 204 207 156
3 207 158 156
3 209 206 205
3 208 209 205
3 205 160 208
3 157 160 205
3 207 210 158
3 210 161 158
3 209 208 211
3 208 212 211
3 208 160 212
3 160 163 212
3 210 213 161
3 213 164 161
3 165 214 215
3 165 215 163
3 163 215 212
3 165 167 214
3 213 216 164
3 216 168 164
3 215 214 217
3 214 218 217
3 214 167 218
3 167 170 218
3 216 219 168
3 219 171 168
3 172 220 221
3 172 221 170
3 170 221 218
3 220 172 171
3 220 171 222
3 222 171 219
3 221 220 223
3 220 222 223
3 226 225 224
3 225 227 224
3 230 229 228
3 224 174 175
3 226 224 175
3 226 175 228
3 226 228 229
3 174 224 227
3 174 227 176
3 176 227 231
3 234 233 232
3 228 178 179
3 230 228 179
3 230 179 232
3 230 232 233
3 228 175 178
3 231 235 176
3 235 180 176
3 237 234 232
3 236 237 232
3 232 182 236
3 179 182 232
3 235 238 180
3 238 183 180
3 241 240 239
3 236 185 186
3 237 236 186
3 237 186 239
3 237 239 240
3 236 182 185
3 238 242 183
3 242 187 183
3 244 241 239
3 243 244 239
3 239 189 243
3 186 189 239
3 242 245 187
3 245 190 187
3 247 244 243
3 246 247 243
3 243 192 246
3 189 192 243
3 245 248 190
3 248 193 190
3 251 250 249
3 250 247 246
3 250 246 249
3 249 246 252
3 246 195 252
3 192 195 246
3 248 253 193
3 253 196 193
3 255 251 249
3 254 255 249
3 199 252 198
3 199 254 252
3 254 249 252
3 252 195 198
3 253 256 196
3 256 200 196
3 258 255 254
3 257 258 254
3 201 254 199
3 201 259 254
3 259 257 254
3 201 203 259
3 256 260 200
3 260 204 200
3 258 257 261
3 263 261 257
3 263 257 262
3 262 257 259
3 259 206 262
3 203 206 259
3 260 264 204
3 264 207 204
3 266 263 262
3 265 266 262
3 262 209 265
3 206 209 262
3 264 267 207
3 267 210 207
3 269 266 265
3 268 269 265
3 211 265 209
3 211 270 265
3 270 268 265
3 211 212 270
3 267 271 210
3 271 213 210
3 269 268 272
3 274 272 268
3 274 268 273
3 273 268 270
3 270 215 273
3 212 215 270
3 271 275 213
3 275 216 213
3 274 273 276
3 278 217 277
3 276 217 278
3 276 215 217
3 276 273 215
3 217 218 277
3 275 279 216
3 279 219 216
3 281 278 277
3 280 281 277
3 277 221 280
3 218 221 277
3 279 282 219
3 282 222 219
3 281 280 283
3 285 223 284
3 283 223 285
3 283 221 223
3 283 280 221
3 284 223 222
3 284 222 286
3 286 222 282
3 285 284 287
3 284 286 287
3 225 226 288
3 225 288 227
3 229 230 289
3 226 229 289
3 226 289 288
3 288 289 290
3 288 290 231
3 227 288 231
3 233 234 291
3 230 233 291
3 230 291 289
3 289 291 292
3 289 292 290
3 290 292 293
3 290 293 235
3 231 290 235
3 294 291 234
3 237 294 234
3 291 294 292
3 292 294 295
3 292 295 293
3 293 295 296
3 293 296 238
3 235 293 238
3 240 241 297
3 237 240 297
3 237 297 294
3 294 297 298
3 294 298 295
3 295 298 299
3 295 299 296
3 296 299 300
3 296 300 242
3 238 296 242
3 301 297 241
3 244 301 241
3 297 301 298
3 298 301 302
3 298 302 299
3 299 302 303
3 299 303 300
3 300 303 304
3 300 304 245
3 242 300 245
3 305 301 244
3 247 305 244
3 301 305 302
3 302 305 306
3 302 306 303
3 303 306 307
3 303 307 304
3 304 307 308
3 304 308 248
3 245 304 248
3 250 251 309
3 247 250 309
3 247 309 305
3 305 309 310
3 305 310 306
3 306 310 311
3 306 311 307
3 307 311 312
3 307 312 308
3 308 312 313
3 308 313 253
3 248 308 253
3 314 309 251
3 255 314 251
3 309 314 310
3 310 314 315
3 310 315 311
3 311 315 316
3 311 316 312
3 312 316 317
3 312 317 313
3 313 317 318
3 313 318 256
3 253 313 256
3 319 314 255
3 258 319 255
3 314 319 315
3 315 319 320
3 315 320 316
3 316 320 321
3 316 321 317
3 317 321 322
3 317 322 318
3 318 322 323
3 318 323 260
3 256 318 260
3 319 258 261
3 261 263 324
3 261 324 319
3 319 324 320
3 320 324 321
3 321 324 325
3 321 325 322
3 322 325 326
3 322 326 323
3 323 326 327
3 323 327 264
3 260 323 264
3 328 324 263
3 266 328 263
3 324 328 325
3 325 328 329
3 325 329 326
3 326 329 330
3 326 330 327
3 327 330 331
3 327 331 267
3 264 327 267
3 332 328 266
3 269 332 266
3 328 332 329
3 329 332 333
3 329 333 330
3 330 333 334
3 330 334 331
3 331 334 335
3 331 335 271
3 267 331 271
3 332 269 272
3 272 274 336
3 272 336 332
3 332 336 333
3 333 336 334
3 334 336 337
3 334 337 335
3 335 337 338
3 335 338 275
3 271 335 275
3 336 274 276
3 276 278 339
3 276 339 336
3 336 339 337
3 337 339 338
3 338 339 340
3 338 340 279
3 275 338 279
3 341 339 278
3 281 341 278
3 339 341 340
3 340 341 342
3 340 342 282
3 279 340 282
3 341 281 283
3 283 285 343
3 283 343 341
3 341 343 342
3 342 343 286
3 282 342 286
3 343 285 287
3 343 287 286
