ply
format ascii 1.0
element vertex 390
property float x
property float y
property float z
property uchar red
property uchar green
property uchar blue
element face 764
property list uchar int vertex_indices
end_header
-8.01685619354248047 4 0 14 14 14
-8 3.93150234222412109 0 7 6 6
-8 4 -0.117697328329086304 10 9 9
-8.01838970184326172 4 1 9 10 9
-8 3.08738589286804199 1 25 24 22
-8 4 1.80693459510803223 25 23 23
-8.01571750640869141 5 0 16 16 15
-8 5 -0.343967854976654053 24 24 24
-8.01193809509277344 5 1 13 14 14
-8 5 1.74916493892669678 24 23 23
-8 5.09225940704345703 0 20 19 19
-8 5.01572751998901367 1 24 23 23
-7.7808990478515625 3 1 25 24 22
-7 2.9113471508026123 1 6 5 5
-7 3 0.986178755760192871 12 12 10
-7 3 1.01409995555877686 14 13 12
-7.00719690322875977 3 3 21 21 17
-7 2.99360895156860352 3 23 22 18
-7 3 2.98325300216674805 18 18 15
-7 3 3.00588536262512207 24 21 21
-7.25804662704467773 4 -1 10 9 9
-7 3.9479982852935791 -1 12 11 10
-7 4 -1.03556525707244873 16 17 15
-7 3.95758867263793945 0 12 12 10
-7.98404026031494141 4 1 25 23 23
-7 3.00550436973571777 1 14 13 12
-7 4 0.0171907022595405579 9 8 8
-7.90377140045166016 4 2 20 19 18
-7 3.91393661499023438 2 18 18 15
-7 4 1.96483719348907471 14 16 13
-7.0216827392578125 4 3 23 25 21
-7 4 3.03507351875305176 22 21 20
-7.01838445663452148 5 -2 27 27 27
-7 4.98419761657714844 -2 16 17 15
-7 5 -2.18963217735290527 21 21 20
-7 4.88308477401733398 -1 17 17 16
-7 5 -1.23317122459411621 19 19 19
-7.9864344596862793 5 0 20 19 19
-7 4.02279901504516602 0 9 8 8
-7.60213708877563477 5 1 24 23 23
-7.91001987457275391 5 2 19 20 19
-7 5 1.30888473987579346 19 19 19
-7.02894306182861328 5 3 16 19 18
-7 5 3.05607080459594727 20 20 20
-7 5.62704038619995117 -2 19 19 19
-7.04760646820068359 6 2 22 23 22
-7 6 1.63728916645050049 19 19 18
-7 5.05927467346191406 3 20 20 20
-7 6 2.05462074279785156 19 19 18
-7 6.07117414474487305 2 19 19 18
-6.99473381042480469 3 1 14 13 12
-6.06673622131347656 3 2 18 18 15
-6 2.97080421447753906 2 8 7 6
-6 3 1.97421109676361084 12 11 9
-6.99161338806152344 3 3 24 21 21
-6 3 2.03429079055786133 11 11 9
-6.97650623321533203 4 -1 17 17 16
-6.98067808151245117 4 0 9 8 8
-6.05493974685668945 4 1 14 16 13
-6 3.94732308387756348 1 12 11 9
-6 4 0.938542425632476807 14 12 12
-6.49500274658203125 4 3 22 21 20
-6 4 2.62657952308654785 14 14 13
-6.0166468620300293 4 4 10 12 11
-6 3.95301580429077148 4 25 24 22
-6 4 3.6779019832611084 18 18 17
-6 4 4.01854276657104492 19 20 18
-6.98653507232666016 5 -2 19 19 19
-6.05909204483032227 5 0 7 8 7
-6 4.94963598251342773 0 14 12 12
-6 5 -0.171524509787559509 17 16 16
-6 4.73617792129516602 1 9 9 8
-6 5 0.69325411319732666 21 20 20
-6 5 1.26141870021820068 9 10 9
-6 4.3572535514831543 3 18 18 17
-6 4.03210163116455078 4 19 20 18
-6 5 3.11157321929931641 24 25 23
-6.0834650993347168 6 -1 19 19 19
-6 5.92865276336669922 -1 17 16 16
-6 6 -1.02935004234313965 9 9 9
-6.02348184585571289 6 0 16 16 16
-6.46187257766723633 6 1 19 19 18
-6 5.38714408874511719 1 9 10 9
-6.97668552398681641 6 2 19 19 18
-6 5.06036949157714844 2 20 20 19
-6 6 1.03474760055541992 21 21 21
-6.10013580322265625 6 3 22 22 22
-6 6 2.95604491233825684 11 12 12
-6 6 3.0566718578338623 15 15 14
-6 6.44484615325927734 -1 8 8 8
-6 6.41330337524414062 0 8 8 8
-6 6.67264127731323242 1 21 21 21
-6 6.17609643936157227 3 15 15 14
-5.97034931182861328 3 2 11 11 9
-5.01826238632202148 3 3 22 17 17
-5 2.98414015769958496 3 13 12 10
-5 3 2.98424434661865234 17 15 14
-5 3 3.01330280303955078 11 11 10
-5.94068145751953125 4 1 9 9 8
-5.94024419784545898 4 2 14 14 13
-5.69299697875976562 4 3 18 18 17
-5 4 2.92123699188232422 13 14 13
-5.96055078506469727 4 4 19 20 18
-5 4 3.16325950622558594 13 13 13
-5.95035505294799805 5 0 21 20 20
-5.94422721862792969 5 2 20 20 19
-5 5 2.97263145446777344 27 27 24
-5.05602025985717773 5 4 18 18 18
-5 4.93154430389404297 4 26 25 23
-5.01747751235961914 5 5 25 27 26
-5 4.22618293762207031 5 12 12 12
-5 5 5.01778221130371094 15 16 15
-5.98310947418212891 6 -1 8 8 8
-5.97401905059814453 6 0 8 8 8
-5.9635467529296875 6 1 21 21 21
-5.92277669906616211 6 3 15 15 14
-5 5.05277013778686523 3 11 12 11
-5 5.01946115493774414 4 14 14 14
-5 5.04814529418945312 5 15 16 15
-5.0034480094909668 7 4 17 17 18
-5 6.99635648727416992 4 18 18 18
-5 7 3.80906033515930176 15 17 18
-5 7 4.06149435043334961 12 13 14
-5 7.06248044967651367 4 12 13 14
-4.98410463333129883 3 3 11 11 10
-4.91414213180541992 4 3 13 13 13
-4.0770106315612793 4 4 26 25 23
-4 3.72057151794433594 4 24 22 22
-4 4 3.96138715744018555 13 14 14
-4.66778707504272461 4 5 12 12 12
-4 3.89964175224304199 5 18 18 17
-4 4 5.098236083984375 15 16 15
-4.96849346160888672 5 3 11 12 11
-4.96787786483764648 5 4 14 14 14
-4 4.03631353378295898 4 16 16 16
-4.97270727157592773 5 5 15 16 15
-4 4.01621818542480469 5 15 16 15
-4.09983921051025391 6 3 12 12 12
-4 5.93917274475097656 3 13 13 14
-4 6 2.9346776008605957 33 34 33
-4 6 3.25705695152282715 18 19 20
-4.04343748092651367 6 5 17 19 19
-4 5.97542858123779297 5 17 18 18
-4 6 4.90277671813964844 11 11 12
-4 6 5.01584911346435547 19 18 20
-4.4138493537902832 7 3 15 17 18
-4 7 2.98671650886535645 35 36 36
-4.94390010833740234 7 4 12 13 14
-4 7 3.15096616744995117 30 34 32
-4 6.02146005630493164 5 19 18 20
-4 7.0110015869140625 3 30 34 32
-3.00825166702270508 3 -4 5 4 4
-3 2.99319171905517578 -4 1 1 1
-3 3 -4.00899314880371094 2 1 1
-3 3 -3.99289917945861816 2 1 1
-3.06443953514099121 3 -1 14 12 11
-3 2.94298624992370605 -1 14 16 15
-3 3 -1.05789589881896973 13 13 11
-3 3 -0.93904799222946167 14 13 12
-3 3.00875043869018555 -4 2 1 1
-3 3.07059454917907715 -1 14 13 12
-3 3.93406915664672852 4 21 22 20
-3 4 3.94861149787902832 28 31 28
-3 3.98446941375732422 5 22 22 22
-3 4 5.00313138961791992 14 15 15
-3.03827142715454102 5 4 9 9 10
-3 5 3.96972799301147461 31 32 31
-3.02599382400512695 5 5 17 18 18
-3 5 5.03968477249145508 11 12 13
-3.93313384056091309 6 3 18 19 20
-3.09098434448242188 6 4 11 11 12
-3 6 3.97969174385070801 32 33 33
-3.98328900337219238 6 5 19 18 20
-3 5.01768684387207031 5 11 12 13
-3 6 4.01554965972900391 33 37 35
-3.98955631256103516 7 3 30 34 32
-3 6.49907255172729492 4 33 37 35
-2.99284172058105469 3 -4 2 1 1
-2.03377032279968262 3 -3 5 5 4
-2 2.08776068687438965 -3 9 9 8
-2 3 -3.03403663635253906 14 15 15
-2.01381731033325195 3 -2 13 13 11
-2 2.96917486190795898 -2 12 13 11
-2.94059848785400391 3 -1 14 13 12
-2 3 -1.98580610752105713 6 6 6
-2.0462489128112793 3 5 22 22 22
-2 2.98972630500793457 5 23 25 23
-2 3 4.99079036712646484 27 30 28
-2 3 5.05708694458007812 21 22 22
-2.01256299018859863 4 -4 7 7 7
-2 3.989715576171875 -4 14 15 15
-2 4 -4.01313257217407227 6 6 6
-2 3.0366818904876709 -3 2 2 2
-2 4 -3.98889517784118652 8 8 8
-2 3.01526117324829102 -2 6 6 6
-2.09004807472229004 4 -1 19 21 18
-2 3.92397689819335938 -1 10 11 11
-2 4 -1.08135557174682617 4 4 4
-2.09637594223022461 4 0 21 23 20
-2 3.88124823570251465 0 11 11 12
-2.02497267723083496 4 1 25 26 23
-2 3.96092581748962402 1 10 10 9
-2 4 1.00763785839080811 27 29 27
-2.94510412216186523 4 4 17 19 18
-2 4 4.9691619873046875 26 26 26
-2 4 5.59950494766235352 16 17 18
-2 4.01312732696533203 -4 8 8 8
-2 4.12463617324829102 -1 9 9 10
-2.20554351806640625 5 0 25 26 25
-2 5 -0.11762923002243042 12 12 12
-2 4.02158641815185547 1 27 29 27
-2 5 0.181074559688568115 22 22 22
-2.96584606170654297 5 4 14 15 16
-2 5 4.94076204299926758 27 28 28
-2 5 5.06081819534301758 13 14 15
-2 5.10408973693847656 0 22 22 22
-2.98306870460510254 6 4 33 37 35
-2 5.11694478988647461 5 13 14 15
-2.2849888801574707 6 6 31 30 35
-2 5.98430824279785156 6 11 10 11
-2 6 5.96842670440673828 16 13 15
-2 6 6.16243696212768555 11 10 13
-2 6.13188314437866211 6 11 10 13
-1.02126228809356689 2 2 19 22 19
-1 1.97956991195678711 2 15 17 17
-1 2 1.97845602035522461 17 19 19
-1 2 2.02471399307250977 10 10 10
-1.96215987205505371 3 -3 2 2 2
-1.98508369922637939 3 -2 6 6 6
-1.20997536182403564 3 1 10 10 9
-1 2.95468568801879883 1 17 19 19
-1 3 0.952081263065338135 18 20 20
-1 2.03245210647583008 2 10 10 10
-1 3 1.06742823123931885 8 8 8
-1.98867404460906982 3 5 21 22 22
-1.98970222473144531 4 -4 8 8 8
-1.92346274852752686 4 -1 9 9 10
-1.61889898777008057 4 0 7 7 7
-1.33296191692352295 4 1 27 29 27
-1 3.92904973030090332 1 8 8 8
-1 3.97508335113525391 5 28 28 28
-1 4 4.97908878326416016 31 31 31
-1 4 5.09512853622436523 27 30 29
-1.02087807655334473 5 -3 19 19 19
-1 4.98225021362304688 -3 14 14 14
-1 5 -3.01748323440551758 18 19 19
-1.07842552661895752 5 -2 19 20 20
-1 4.92149448394775391 -2 16 17 17
-1.09961986541748047 5 -1 12 12 12
-1 4.93949222564697266 -1 17 18 18
-1 4.91903972625732422 0 4 4 4
-1.21612441539764404 5 1 32 32 32
-1 4.03840923309326172 1 3 3 4
-1 5 1.09532046318054199 4 4 4
-1.12530982494354248 5 5 13 14 15
-1 4.78406000137329102 5 27 30 29
-1 5.04211091995239258 -3 7 7 9
-1.04504096508026123 6 -2 24 24 25
-1 6 -2.10082817077636719 6 7 7
-1 5.7342381477355957 -1 4 4 4
-1 6 -1.32925689220428467 4 3 4
-1 5.36468887329101562 0 3 3 3
-1.06799769401550293 6 1 36 36 36
-1 6 0.263818919658660889 6 5 7
-1 6 1.0681765079498291 11 10 11
-1.86900722980499268 6 6 11 10 13
-1 6.72112560272216797 -2 4 3 4
-1.04109084606170654 7 0 7 6 6
-1 6.365142822265625 0 6 5 7
-1 7 -0.79128342866897583 14 17 18
-1 6.75851726531982422 1 11 10 11
-1 7 0.661831438541412354 17 19 21
-1 7.0965123176574707 0 17 19 21
-0.000316172227030619979 2 -3 10 12 11
0 1.99969828128814697 -3 11 12 11
0 2 -3.00029802322387695 6 6 6
0 2 -2.99884510040283203 9 9 9
-0.970342516899108887 2 2 10 10 10
0 2.00143027305603027 -3 9 9 9
-0.949465334415435791 3 1 8 8 8
-0.00247490382753312588 4 -5 11 11 11
0 3.99751830101013184 -5 0 0 0
0 4 -5.00315475463867188 7 8 8
0 4 -4.99734783172607422 11 12 12
-0.887577474117279053 4 1 3 3 4
0 3.96890711784362793 1 22 22 23
0 4 0.970109522342681885 25 25 25
0 4 1.23897659778594971 3 3 4
-0.979104042053222656 4 5 27 30 29
0 4.00247812271118164 -5 11 12 12
-0.974843621253967285 5 -3 7 7 9
-0.919205963611602783 5 -2 5 5 5
-0.931868791580200195 5 -1 4 4 4
-0.972472488880157471 5 0 3 3 3
0 5 0.817866802215576172 15 15 16
0 5 1.59188544750213623 4 4 4
-0.113292306661605835 6 -3 6 7 7
0 5.93023347854614258 -3 18 18 19
0 6 -3.59555649757385254 5 4 5
-0.899335801601409912 6 -2 4 3 4
0 6 -2.88688945770263672 7 6 7
-0.81882244348526001 6 1 11 10 11
0 5.26367044448852539 1 4 4 4
0 6.10483121871948242 -3 7 6 7
-0.957974016666412354 7 0 17 19 21
0.000307175330817699432 2 -3 9 9 9
0.979087531566619873 3 3 26 27 28
1 2.95797467231750488 3 11 11 11
1 3 2.97603297233581543 6 6 6
1 3 3.02004003524780273 17 18 17
0.370615452527999878 4 -5 11 12 12
0.030648350715637207 4 1 3 3 4
0.701340079307556152 4 2 7 7 7
1 3.95159530639648438 2 6 6 6
1 4 1.95888650417327881 24 24 24
1 3.01907467842102051 3 17 18 17
1 4 2.03872203826904297 5 5 5
0.118124924600124359 5 1 4 4 4
0.460155576467514038 5 2 16 16 17
1 5 1.90223920345306396 16 16 16
1 5 2.0865020751953125 9 8 9
0.0487026572227478027 6 -3 7 6 7
0.783967435359954834 6 1 9 8 9
1 5.90655422210693359 1 16 16 16
1 6 0.918602287769317627 28 26 27
1 5.46680021286010742 2 9 8 9
1 6 1.45440053939819336 21 22 24
0.970948636531829834 7 0 32 28 29
1 6.97065162658691406 0 28 26 27
1 7 -0.0278413072228431702 31 26 26
1 6.08534479141235352 1 21 22 24
1 7 0.030856110155582428 33 27 30
1 7.05517816543579102 0 33 27 30
2 2.98047947883605957 3 14 14 14
2 3 2.97920823097229004 18 18 18
2 3 3.02109479904174805 5 5 5
1.20433127880096436 4 2 5 5 5
1.99102544784545898 4 3 32 32 33
2 4 2.9454185962677002 4 4 4
2 4 3.00939273834228516 9 9 9
2 4.63970804214477539 2 4 4 4
2 5 1.06184589862823486 25 24 26
2 4.02714633941650391 3 9 9 9
2 5 2.21397113800048828 6 5 6
1.94136393070220947 6 0 28 26 27
2 5.94102668762207031 0 29 27 28
2 6 -0.0572884231805801392 29 25 25
1.08447873592376709 6 1 21 22 24
2 6 0.0609126389026641846 29 25 28
2 5.08396148681640625 2 6 5 6
1.02819454669952393 7 0 33 27 30
2 6.05639791488647461 0 29 25 28
2.96172118186950684 3 0 5 5 5
3 2.91759896278381348 0 1 1 1
3 3 -0.0383072346448898315 21 21 21
3 3 0.0369298607110977173 24 24 24
2.34723639488220215 3 3 5 5 5
3 3.32321310043334961 0 24 24 24
2.06614375114440918 4 3 9 9 9
2.08275842666625977 5 2 6 5 6
2.08228325843811035 6 0 29 25 28
3.04110479354858398 3 0 24 24 24
3.67697906494140625 3 3 6 6 6
4 2.97747039794921875 3 22 22 22
4 3 2.98211908340454102 19 19 19
4 3 3.03615140914916992 8 8 8
3.97095298767089844 4 -2 2 2 2
4 3.82760071754455566 -2 17 15 16
4 4 -2.02794742584228516 13 12 13
4 4 -1.94309461116790771 21 18 20
3.75760340690612793 4 3 4 4 4
4 4 2.93976807594299316 7 6 6
4 4 3.03777360916137695 6 6 6
4 4.02846384048461914 -2 21 18 20
4 4.06139755249023438 3 6 6 6
3.99434947967529297 7 1 33 30 30
4 6.98794174194335938 1 8 8 8
4 7 0.849523365497589111 9 8 8
4 7 1.01949644088745117 19 17 19
4 7.02482700347900391 1 19 17 19
4.07468271255493164 3 3 8 8 8
4.03343057632446289 4 -2 21 18 20
4.93048238754272461 4 -1 17 16 17
5 3.94312167167663574 -1 17 16 16
5 4 -1.04106664657592773 16 15 15
5 4 -0.955066502094268799 19 17 17
4.16970539093017578 4 3 6 6 6
5 4.03440952301025391 -1 19 17 17
4.05467605590820312 7 1 19 17 19
5.08966302871704102 4 -1 19 17 17
3 2 1 0
3 1 4 3
3 0 1 3
3 4 5 3
3 7 2 0
3 6 7 0
3 0 3 6
3 3 8 6
3 5 9 8
3 3 5 8
3 7 6 10
3 6 8 11
3 10 6 11
3 8 9 11
3 14 13 12
3 13 15 12
3 18 17 16
3 17 19 16
3 22 21 20
3 2 20 21
3 2 21 1
3 1 21 23
3 26 24 25
3 23 14 4
3 23 4 1
3 4 14 12
3 12 5 4
3 12 27 5
3 12 15 27
3 28 27 15
3 25 24 29
3 28 18 16
3 28 16 27
3 27 16 30
3 19 31 30
3 16 19 30
3 34 33 32
3 35 36 32
3 35 32 20
3 33 22 32
3 22 20 32
3 20 2 7
3 20 7 38
3 20 38 35
3 38 7 37
3 38 24 26
3 38 37 24
3 37 39 24
3 27 9 5
3 27 40 9
3 24 39 29
3 39 41 29
3 27 30 40
3 30 42 40
3 31 43 42
3 30 31 42
3 34 32 44
3 32 36 44
3 37 7 10
3 39 37 10
3 11 39 10
3 40 45 11
3 40 11 9
3 45 46 11
3 39 11 41
3 46 41 11
3 47 48 45
3 47 45 42
3 42 45 40
3 42 43 47
3 46 45 49
3 45 48 49
3 13 14 50
3 51 15 13
3 51 13 52
3 50 53 13
3 53 52 13
3 18 51 52
3 18 52 17
3 55 54 52
3 54 17 52
3 17 54 19
3 21 22 56
3 23 21 56
3 57 23 56
3 23 50 14
3 23 59 50
3 23 57 59
3 60 59 57
3 26 25 58
3 53 50 59
3 15 51 28
3 58 25 29
3 54 62 61
3 54 55 62
3 51 18 28
3 31 19 64
3 31 64 63
3 19 54 64
3 65 64 61
3 54 61 64
3 64 66 63
3 33 34 67
3 36 35 56
3 36 56 67
3 22 33 56
3 33 67 56
3 57 56 70
3 57 70 69
3 56 35 70
3 68 70 38
3 35 38 70
3 38 72 68
3 38 71 72
3 38 26 71
3 58 71 26
3 57 69 60
3 58 73 71
3 58 29 73
3 29 41 73
3 62 74 61
3 61 74 65
3 31 63 76
3 31 76 43
3 76 63 75
3 63 66 75
3 67 34 44
3 67 44 36
3 78 77 79
3 78 70 68
3 78 68 77
3 77 68 80
3 72 82 81
3 72 81 68
3 68 81 80
3 84 85 83
3 82 73 81
3 73 46 81
3 73 41 46
3 87 84 83
3 86 48 47
3 86 47 43
3 86 43 88
3 88 43 76
3 79 77 89
3 77 80 90
3 89 77 90
3 80 81 91
3 90 80 91
3 83 85 91
3 83 91 49
3 81 46 91
3 46 49 91
3 48 86 92
3 48 92 49
3 87 83 92
3 83 49 92
3 86 88 92
3 52 53 93
3 94 55 52
3 94 52 95
3 93 96 52
3 96 95 52
3 95 97 94
3 59 60 98
3 53 59 98
3 53 98 93
3 93 98 99
3 94 62 55
3 94 100 62
3 93 99 96
3 99 101 96
3 100 94 64
3 100 64 65
3 94 97 64
3 102 64 103
3 97 103 64
3 64 102 66
3 69 70 104
3 72 71 98
3 72 98 104
3 60 69 98
3 69 104 98
3 71 73 105
3 71 105 98
3 98 105 99
3 101 105 106
3 101 99 105
3 62 100 74
3 100 65 74
3 102 103 108
3 76 75 107
3 108 110 66
3 108 66 102
3 110 109 66
3 75 66 107
3 109 107 66
3 110 111 109
3 78 79 112
3 70 78 112
3 70 112 104
3 104 112 113
3 82 72 104
3 82 104 114
3 114 104 113
3 85 84 105
3 85 105 114
3 73 82 105
3 82 114 105
3 84 87 115
3 105 84 115
3 105 115 116
3 105 116 106
3 115 117 116
3 115 76 117
3 115 88 76
3 107 117 76
3 107 109 118
3 117 107 118
3 109 111 118
3 112 79 89
3 113 112 89
3 90 113 89
3 114 113 90
3 91 114 90
3 114 91 85
3 115 87 92
3 115 92 88
3 120 119 121
3 120 122 119
3 121 119 123
3 119 122 123
3 95 96 124
3 95 124 97
3 125 124 96
3 101 125 96
3 103 97 127
3 103 127 126
3 97 124 127
3 128 127 125
3 124 125 127
3 127 130 129
3 126 127 129
3 130 131 129
3 132 125 101
3 106 132 101
3 103 126 108
3 128 125 134
3 125 133 134
3 125 132 133
3 134 133 136
3 136 133 135
3 108 126 129
3 108 129 110
3 110 129 131
3 110 131 111
3 136 135 131
3 135 111 131
3 116 137 139
3 116 139 106
3 138 132 139
3 132 106 139
3 116 117 140
3 116 140 137
3 117 133 140
3 138 140 132
3 133 132 140
3 135 133 143
3 135 143 142
3 133 117 143
3 141 143 118
3 117 118 143
3 141 118 111
3 141 111 144
3 135 142 111
3 142 144 111
3 146 139 137
3 145 146 137
3 145 137 120
3 145 120 121
3 137 140 120
3 147 120 148
3 140 148 120
3 143 141 149
3 147 122 120
3 141 144 149
3 146 145 150
3 147 148 150
3 147 150 123
3 145 121 150
3 121 123 150
3 147 123 122
3 153 152 151
3 152 154 151
3 157 156 155
3 156 158 155
3 153 151 159
3 151 154 159
3 157 155 160
3 155 158 160
3 128 162 161
3 127 128 161
3 161 163 127
3 127 163 130
3 130 163 164
3 131 130 164
3 134 165 166
3 134 166 128
3 128 166 162
3 136 165 134
3 167 165 136
3 167 136 131
3 167 131 168
3 168 131 164
3 138 139 169
3 171 166 138
3 171 138 169
3 166 165 138
3 140 138 170
3 165 170 138
3 173 174 172
3 167 142 170
3 167 170 165
3 170 142 143
3 142 167 168
3 142 168 144
3 173 172 168
3 172 144 168
3 175 169 139
3 146 175 139
3 169 175 176
3 169 176 171
3 175 148 176
3 170 176 140
3 148 140 176
3 172 174 176
3 172 176 149
3 170 143 176
3 143 149 176
3 172 149 144
3 175 146 150
3 175 150 148
3 152 153 177
3 178 154 152
3 178 152 179
3 177 180 152
3 180 179 152
3 179 182 181
3 178 179 181
3 157 181 182
3 157 182 156
3 184 183 182
3 183 156 182
3 156 183 158
3 187 186 185
3 186 188 185
3 159 189 191
3 159 191 153
3 190 177 191
3 177 153 191
3 159 193 189
3 159 192 193
3 159 154 192
3 178 192 154
3 177 190 180
3 178 181 194
3 192 178 194
3 194 195 197
3 194 160 195
3 194 181 160
3 157 160 181
3 184 196 183
3 196 199 158
3 196 158 183
3 199 198 158
3 160 158 195
3 198 195 158
3 199 201 200
3 198 199 200
3 201 202 200
3 161 162 203
3 203 204 187
3 203 187 163
3 203 163 161
3 163 187 185
3 163 185 188
3 163 188 164
3 164 188 205
3 191 189 206
3 189 193 206
3 197 195 207
3 209 207 195
3 209 195 208
3 208 195 198
3 210 211 208
3 210 208 200
3 200 208 198
3 200 202 210
3 212 203 162
3 166 212 162
3 204 212 213
3 203 212 204
3 205 214 164
3 214 168 164
3 209 208 215
3 208 211 215
3 216 212 166
3 171 216 166
3 213 173 217
3 213 216 173
3 213 212 216
3 216 174 173
3 217 173 218
3 217 218 220
3 173 168 218
3 219 218 214
3 168 214 218
3 219 221 218
3 216 171 176
3 216 176 174
3 220 218 222
3 218 221 222
3 225 224 223
3 224 226 223
3 179 180 227
3 182 179 227
3 228 182 227
3 182 228 184
3 231 230 229
3 232 233 229
3 232 229 223
3 230 225 229
3 225 223 229
3 223 226 232
3 186 187 234
3 186 234 188
3 190 191 235
3 193 192 227
3 193 227 235
3 180 190 227
3 190 235 227
3 228 227 192
3 194 228 192
3 196 184 228
3 196 228 236
3 194 197 228
3 197 236 228
3 199 196 236
3 237 199 236
3 201 199 231
3 201 231 229
3 199 237 231
3 239 231 238
3 237 238 231
3 201 229 233
3 201 233 202
3 239 238 233
3 238 202 233
3 240 234 187
3 240 187 241
3 241 187 204
3 234 240 242
3 234 242 188
3 188 242 205
3 235 191 206
3 235 206 193
3 244 243 245
3 244 247 246
3 243 244 246
3 248 246 197
3 248 197 207
3 246 247 197
3 236 197 249
3 247 249 197
3 236 250 237
3 236 249 250
3 248 207 209
3 252 237 250
3 252 238 237
3 210 251 211
3 251 210 202
3 251 202 253
3 238 252 202
3 252 253 202
3 254 255 241
3 254 241 213
3 213 241 204
3 255 254 214
3 255 214 242
3 242 214 205
3 245 243 256
3 258 256 243
3 258 243 257
3 257 243 246
3 259 260 257
3 259 257 248
3 248 257 246
3 248 209 215
3 248 215 259
3 259 215 261
3 211 261 215
3 211 262 261
3 211 251 262
3 262 263 261
3 253 264 262
3 251 253 262
3 254 213 217
3 219 214 254
3 219 254 265
3 217 220 254
3 220 265 254
3 219 265 221
3 258 257 266
3 257 260 266
3 269 268 267
3 270 271 267
3 270 267 262
3 268 263 267
3 263 262 267
3 262 264 270
3 265 220 222
3 265 222 221
3 269 267 272
3 267 271 272
3 275 274 273
3 274 276 273
3 224 225 277
3 224 277 226
3 275 273 278
3 273 276 278
3 230 231 279
3 233 232 277
3 233 277 279
3 225 230 277
3 230 279 277
3 277 232 226
3 282 281 280
3 281 283 280
3 239 284 286
3 239 286 231
3 285 279 286
3 279 231 286
3 284 239 233
3 284 233 287
3 279 285 233
3 285 287 233
3 240 241 288
3 240 288 242
3 282 280 289
3 280 283 289
3 244 245 290
3 247 244 290
3 291 247 290
3 249 247 291
3 292 249 291
3 250 249 292
3 293 250 292
3 293 294 286
3 293 286 252
3 293 252 250
3 252 286 284
3 252 284 287
3 252 287 253
3 253 287 295
3 288 241 255
3 288 255 242
3 256 296 298
3 256 298 245
3 297 290 298
3 290 245 298
3 256 258 296
3 290 297 299
3 290 299 291
3 299 297 300
3 260 259 292
3 260 292 299
3 299 292 291
3 293 292 259
3 261 293 259
3 261 263 301
3 293 261 301
3 293 301 302
3 293 302 294
3 302 301 264
3 302 264 295
3 295 264 253
3 298 296 303
3 299 300 303
3 299 303 266
3 296 258 303
3 258 266 303
3 299 266 260
3 268 269 304
3 271 270 301
3 271 301 304
3 263 268 301
3 268 304 301
3 301 270 264
3 304 269 272
3 304 272 271
3 274 275 305
3 274 305 276
3 305 275 278
3 305 278 276
3 308 307 306
3 307 309 306
3 281 282 310
3 281 310 283
3 285 286 311
3 312 287 285
3 312 285 313
3 311 314 285
3 314 313 285
3 315 316 312
3 315 312 306
3 313 308 312
3 308 306 312
3 306 309 315
3 310 282 289
3 310 289 283
3 317 311 286
3 294 317 286
3 312 295 287
3 312 318 295
3 311 317 314
3 317 319 314
3 316 320 318
3 312 316 318
3 297 298 321
3 297 321 300
3 302 322 324
3 302 324 294
3 323 317 324
3 317 294 324
3 302 326 322
3 302 325 326
3 302 295 325
3 318 325 295
3 317 323 319
3 318 320 325
3 321 298 303
3 321 303 300
3 329 328 327
3 330 331 327
3 330 327 322
3 328 324 327
3 324 322 327
3 322 326 330
3 329 327 332
3 327 331 332
3 308 334 333
3 307 308 333
3 307 333 335
3 309 307 335
3 313 314 336
3 337 316 315
3 336 338 313
3 338 308 313
3 338 334 308
3 337 315 309
3 337 309 339
3 339 309 335
3 340 336 314
3 340 314 341
3 341 314 319
3 336 340 338
3 316 337 343
3 316 343 320
3 343 337 342
3 337 339 342
3 346 345 344
3 324 344 345
3 324 345 323
3 348 347 345
3 347 323 345
3 325 349 347
3 325 347 326
3 349 341 347
3 323 347 319
3 341 319 347
3 349 325 320
3 343 349 320
3 350 351 346
3 350 346 329
3 344 328 346
3 328 329 346
3 348 330 347
3 348 331 330
3 348 351 331
3 350 331 351
3 344 324 328
3 347 330 326
3 350 329 332
3 350 332 331
3 354 353 352
3 353 355 352
3 333 334 356
3 333 356 335
3 354 352 357
3 352 355 357
3 358 356 334
3 338 358 334
3 356 358 339
3 335 356 339
3 340 341 359
3 343 342 358
3 343 358 359
3 338 340 358
3 340 359 358
3 358 342 339
3 345 346 360
3 345 360 348
3 359 341 349
3 359 349 343
3 360 346 351
3 360 351 348
3 353 354 361
3 353 361 355
3 364 363 362
3 363 365 362
3 368 367 366
3 367 369 366
3 361 354 357
3 361 357 355
3 371 364 362
3 370 371 362
3 365 372 370
3 362 365 370
3 368 366 373
3 366 369 373
3 371 370 374
3 370 372 374
3 377 376 375
3 376 378 375
3 377 375 379
3 375 378 379
3 363 364 380
3 363 380 365
3 367 368 381
3 382 369 367
3 382 367 383
3 381 384 367
3 384 383 367
3 383 385 382
3 386 380 364
3 371 386 364
3 380 386 372
3 365 380 372
3 381 368 373
3 369 382 387
3 369 387 373
3 384 381 387
3 381 373 387
3 382 385 387
3 386 371 374
3 386 374 372
3 376 377 388
3 376 388 378
3 388 377 379
3 388 379 378
3 383 384 389
3 383 389 385
3 389 384 387
3 389 387 385
