ply
format ascii 1.0
element vertex 438
property float x
property float y
property float z
property uchar red
property uchar green
property uchar blue
element face 816
property list uchar int vertex_indices
end_header
-5.04268121719360352 3 0 12 9 1
-5 2.08089518547058105 0 45 10 1
-5 3 -0.0349625162780284882 32 34 1
-5 3 0.0371859557926654816 47 37 2
-5.0733952522277832 4 -1 15 13 1
-5 3.94101858139038086 -1 32 34 1
-5 4 -1.06007707118988037 25 36 0
-5 3.06936502456665039 0 47 37 2
-5 4 -0.885779201984405518 39 36 1
-5.04579925537109375 5 -3 15 18 0
-5 4.96294212341308594 -3 23 37 0
-5 5 -3.58444714546203613 15 31 0
-5.07986259460449219 5 -2 16 17 1
-5 4.93435096740722656 -2 25 36 0
-5 4.15099859237670898 -1 39 36 1
-5 5 -1.83646416664123535 33 41 1
-5 5.03682184219360352 -3 36 34 0
-5 5.06269216537475586 -2 33 41 1
-4.01211214065551758 3 -4 20 31 0
-4 2.98747825622558594 -4 14 25 0
-4 3 -4.00973939895629883 21 43 1
-4.01383543014526367 3 -3 24 34 0
-4 2.98489069938659668 -3 17 25 0
-4 3 -2.98769307136535645 32 35 0
-4.96706867218017578 3 0 47 37 2
-4.02883100509643555 4 -4 18 36 0
-4 4 -4.02790117263793945 16 38 1
-4.03820610046386719 4 -3 23 37 0
-4 4 -2.9568183422088623 28 34 0
-4.94170808792114258 4 -1 39 36 1
-4 4.02955198287963867 -4 24 31 0
-4.96263027191162109 5 -3 36 34 0
-4 4.03852701187133789 -3 28 34 0
-4.9385685920715332 5 -2 33 41 1
-4.04262161254882812 5 1 9 10 0
-4 4.89567995071411133 1 17 20 0
-4 5 0.966789364814758301 20 35 1
-4 5 1.0383446216583252 47 48 0
-4.00639867782592773 6 -5 11 22 0
-4 5.99533414840698242 -5 7 45 0
-4 6 -5.00519466400146484 5 33 0
-4 6 -4.99533224105834961 14 30 0
-4.08100605010986328 6 0 10 13 1
-4 5.9336390495300293 0 20 35 1
-4 6 -0.0759786590933799744 13 25 0
-4 5.03886032104492188 1 47 48 0
-4 6 0.077200278639793396 46 35 2
-4 6.0045313835144043 -5 14 30 0
-4 6.13555765151977539 0 46 35 2
-3.02081894874572754 2 0 32 32 0
-3 1.98074662685394287 0 34 37 0
-3 2 -0.023913869634270668 27 29 0
-3 2 0.020363885909318924 43 34 0
-3.98866105079650879 3 -4 27 33 0
-3.98768758773803711 3 -3 32 35 0
-3 2.02502822875976562 0 43 34 0
-3.97067403793334961 4 -4 24 31 0
-3.96087765693664551 4 -3 28 34 0
-3.03164052963256836 4 -1 27 38 0
-3 3.9621429443359375 -1 18 22 0
-3 4 -1.07777047157287598 4 5 0
-3 4 -0.969193637371063232 36 37 0
-3.02344465255737305 4 3 4 5 0
-3 3.08975696563720703 3 56 46 0
-3 4 2.9805295467376709 10 24 0
-3 4 3.02284097671508789 33 57 0
-3.06534695625305176 5 -3 16 36 0
-3 4.93367195129394531 -3 18 39 0
-3 5 -3.68076825141906738 12 24 0
-3 5 -2.92656636238098145 20 33 0
-3 4.03087902069091797 -1 36 37 0
-3.96360516548156738 5 1 47 48 0
-3 4.01805973052978516 3 33 57 0
-3.99537324905395508 6 -5 14 30 0
-3 5.06024169921875 -3 20 33 0
-3.93124842643737793 6 0 46 35 2
-2.97594451904296875 2 0 43 34 0
-2.02219200134277344 3 -3 24 46 0
-2 2.96086835861206055 -3 8 8 0
-2 3 -3.68982243537902832 28 28 2
-2.0232086181640625 3 -2 21 32 0
-2 2.66565132141113281 -2 35 17 0
-2 3 -1.98044121265411377 37 24 0
-2.00093674659729004 3 4 1 1 0
-2 2.9869236946105957 4 60 55 3
-2 3 3.99922418594360352 8 19 0
-2 3 4.00090408325195312 36 61 3
-2 3.10068559646606445 -3 34 23 1
-2 3.01951265335083008 -2 37 24 0
-2.96119928359985352 4 -1 36 37 0
-2.98048901557922363 4 3 33 57 0
-2 3.00129508972167969 4 36 61 3
-2.9294590950012207 5 -3 20 33 0
-1.0791633129119873 2 -2 35 17 0
-1 1.96131622791290283 -2 37 26 2
-1 2 -2.1309669017791748 33 23 3
-1 2 -1.69454145431518555 37 28 2
-1.01058042049407959 2 0 20 22 0
-1 1.93365132808685303 0 37 16 0
-1 2 -0.546471476554870605 40 27 1
-1 2 0.00887008104473352432 44 27 1
-1.00754332542419434 3 -5 0 0 0
-1 2.94933724403381348 -5 28 27 4
-1 3 -5.00257444381713867 23 44 7
-1 3 -4.91352128982543945 26 30 4
-1 2.37010502815246582 -3 33 23 3
-1 3 -3.5867006778717041 29 28 3
-1.92131197452545166 3 -2 37 24 0
-1 2.01440739631652832 -2 37 28 2
-1 3 -2.8583064079284668 36 31 2
-1 2.01699352264404297 0 44 27 1
-1.99924957752227783 3 4 36 61 3
-1 3.00787544250488281 -5 26 30 4
-1.06927084922790527 4 -4 13 29 1
-1 3.32607507705688477 -4 29 28 3
-1 4 -4.14770841598510742 3 3 0
-1.21602678298950195 4 -3 14 14 0
-1 4 -2.0365445613861084 37 34 2
-1.07217252254486084 4 -1 14 22 0
-1 3.2987360954284668 -1 36 24 0
-1 4 -1.96578073501586914 33 31 1
-1 4 -0.873916089534759521 41 33 0
-1.04280471801757812 5 -4 11 32 1
-1 5 -4.06801414489746094 3 9 0
-1.03472757339477539 5 -3 12 27 0
-1 5 -2.93569517135620117 31 34 1
-1 4.70334720611572266 -1 41 33 0
-1.04962372779846191 5 4 2 5 0
-1 4.95670604705810547 4 4 16 0
-1 5 3.95657539367675781 6 20 0
-1 5 4.04772233963012695 35 64 2
-1 5.04233026504516602 -4 33 35 2
-1 5.03349828720092773 -3 31 34 1
-1 5.04244136810302734 4 35 64 2
-0.894811689853668213 2 -4 32 31 4
0 1.93196916580200195 -4 32 27 4
0 2 -4.03423166275024414 22 22 3
0 2 -3.57774710655212402 32 28 4
-0.960891306400299072 2 -2 37 28 2
-0.841725051403045654 2 0 44 27 1
-0.0169098693877458572 2 1 21 33 1
0 1.86887681484222412 1 40 20 2
0 2 0.734536349773406982 39 24 1
0 2 1.01864790916442871 45 37 2
-0.981758296489715576 3 -5 26 30 4
0 2.03035759925842285 -4 32 28 4
-0.753609418869018555 3 -3 36 31 2
0 2.78920984268188477 1 45 37 2
-0.0680667087435722351 4 -5 3 3 0
0 3.85399961471557617 -5 19 19 2
0 4 -5.05003976821899414 1 2 0
0 3.88631582260131836 -4 20 19 2
-0.526992261409759521 4 -3 37 34 2
0 4 -3.77549576759338379 31 29 3
-0.88313746452331543 4 -2 33 31 1
0 3.76545262336730957 -2 29 20 1
0 4 -2.20463252067565918 26 21 1
0 3.00330996513366699 -1 35 18 1
0 4 -0.826090812683105469 39 26 0
-0.0296057425439357758 5 -6 7 45 5
0 4.93513584136962891 -6 1 2 0
0 5 -6.03147554397583008 6 38 9
0 4.13514328002929688 -5 22 28 3
0 5 -5.82934951782226562 10 28 4
-0.653452038764953613 5 -4 33 35 2
0 4.19441509246826172 -4 31 29 3
0 4.9340062141418457 -3 26 21 1
0 5 -3.05562496185302734 21 27 2
0 4.14544391632080078 -2 33 23 1
0 5 -2.95534586906433105 33 31 1
0 4.12724590301513672 -1 39 26 0
-0.0485609546303749084 5 0 14 24 0
0 4.81433391571044922 0 23 21 0
0 5 -0.136368885636329651 15 15 0
0 5 0.0459206029772758484 40 39 0
-0.956316590309143066 5 4 35 64 2
0 5.03222370147705078 -6 10 28 4
0 5.13881826400756836 -3 33 31 1
-0.009586370550096035 6 -1 12 23 0
0 5.97073030471801758 -1 15 15 0
0 6 -1.53387904167175293 31 33 0
0 5.49292469024658203 0 40 39 0
0 6 -0.843435347080230713 24 37 0
-0.0232690349221229553 6 1 18 19 0
0 5.97700023651123047 1 12 26 0
0 6 0.677753865718841553 23 39 0
0 6 1.54098129272460938 43 49 0
-0.0397932305932044983 7 -2 9 26 0
0 6.15861082077026367 -2 31 33 0
0 7 -2.04040908813476562 6 29 0
0 6.00920248031616211 -1 24 37 0
0 7 -1.95875680446624756 19 41 0
0 6.02074575424194336 1 43 49 0
0 7.03880834579467773 -2 19 41 0
0.315429776906967163 2 -4 32 28 4
0.398210823535919189 2 -3 33 25 3
1 1.82643818855285645 -3 32 21 2
1 2 -3.48790287971496582 29 25 2
0.743999779224395752 2 -2 29 20 2
1 1.67725980281829834 -2 33 20 1
0.73797452449798584 2 -1 31 17 1
1 1.65239048004150391 -1 35 16 1
1 2 -0.66420215368270874 37 18 1
0.0437488071620464325 2 1 45 37 2
0.923656821250915527 3 -5 19 19 2
1 2.93180751800537109 -5 17 18 2
1 3 -5.90522336959838867 22 28 5
1 3 -4.49722957611083984 26 28 4
0.680791974067687988 3 -3 23 20 2
1 3 -3.83017110824584961 27 27 2
1 2.76888179779052734 -2 35 22 1
1 3 -2.13562655448913574 32 26 2
0.0024560210295021534 3 -1 35 18 1
1 3 -1.86733925342559814 29 23 1
0.740236103534698486 3 0 26 18 0
1 2.47675085067749023 0 33 15 0
1 3 0.138597369194030762 41 28 0
1 4 -5.13921642303466797 17 25 5
1 3.31703448295593262 -4 27 27 2
0.471825569868087769 4 -3 26 21 1
1 3.13567256927490234 -2 29 23 1
0.853137552738189697 4 -1 39 26 0
1 3.88681840896606445 -1 37 25 0
1 4 -1.11581027507781982 34 30 1
0.751139163970947266 4 0 23 21 0
1 4 -0.901401877403259277 31 21 0
1 4 0.143548399209976196 41 31 0
0.589031338691711426 5 -6 10 28 4
0.811272025108337402 5 -5 16 21 2
1 5 -5.61838293075561523 21 28 5
1 4.53375768661499023 -4 29 28 2
1 5 -4.37669563293457031 24 31 4
0.158277228474617004 5 -3 33 31 1
1 4.74869012832641602 -3 33 29 1
0.576798200607299805 5 -2 27 25 0
1 5 -2.74694395065307617 26 29 1
0.851254761219024658 5 -1 15 15 0
1 4.1255950927734375 -1 31 21 0
0.922314345836639404 5 1 12 26 0
1 4.83205080032348633 1 9 8 0
1 5 1.32888054847717285 29 47 0
1 5.28151893615722656 -5 24 31 4
1 5.59309148788452148 -2 37 32 0
1 6 -1.53268396854400635 26 33 0
1 5.26447200775146484 0 44 40 0
1 6 -0.837843537330627441 42 35 0
0.0253017749637365341 6 1 43 49 0
1 5.08498477935791016 1 29 47 0
0.284826040267944336 7 -2 19 41 0
1 6.15257740020751953 -1 42 35 0
1.62070810794830322 2 -3 31 23 2
2 1.7098153829574585 -2 33 18 0
2 2 -2.73938655853271484 29 23 1
2 1.99432504177093506 -1 31 15 0
1.71196210384368896 2 0 33 15 0
2 1.54467618465423584 0 40 21 0
2 2 0.963668525218963623 39 21 0
2 2.60236072540283203 -5 27 27 3
2 3 -5.30073118209838867 20 24 5
1.24011898040771484 3 -4 27 27 2
2 2.49668192863464355 -4 26 23 2
2 2.11342906951904297 -3 29 23 1
1.12033712863922119 3 -2 29 23 1
2 3 0.265974253416061401 38 25 0
1.6410219669342041 4 -6 17 25 5
2 3.6744532585144043 -6 20 24 5
2 4 -6.03571987152099609 5 10 3
1.13109457492828369 4 -5 26 28 4
2 3.31762099266052246 -5 25 28 4
2 4 -5.65685367584228516 21 28 6
1.91787755489349365 4 -4 29 28 2
2 3.94259190559387207 -4 29 29 2
2 4 -3.94654750823974609 25 27 2
1.09836316108703613 4 -1 31 21 0
1.43683576583862305 4 0 41 31 0
2 3.41169095039367676 0 38 25 0
2 4 -0.562512993812561035 36 25 0
2 4.19340944290161133 -6 21 28 6
2 4.58578395843505859 -5 18 24 3
2 5 -5.24503564834594727 13 23 5
1.30795383453369141 5 -4 25 28 2
2 4.04359149932861328 -4 25 27 2
1.2404404878616333 5 -3 26 29 1
1.26865303516387939 5 -1 38 36 0
2 4.32598495483398438 -1 36 25 0
2 5 -1.61916863918304443 36 32 0
2 4.48085355758666992 0 28 20 0
2 5 -0.401694029569625854 24 21 0
1.81594300270080566 5 1 29 47 0
2 5 0.836695253849029541 44 40 0
1.78979599475860596 5 2 22 34 0
2 4.01088047027587891 2 37 44 1
2 5 1.2934565544128418 39 41 0
2 5 2.09284591674804688 26 49 1
1.8148578405380249 6 -5 15 26 3
2 6 -5.26141357421875 5 28 5
1.90888667106628418 6 -4 6 9 0
2 5.41398382186889648 -3 33 35 2
2 6 -3.75127553939819336 22 36 3
2 5.27573299407958984 -2 36 32 0
1.27602052688598633 6 -1 42 35 0
2 5.46727561950683594 0 44 40 0
1.88025057315826416 6 2 15 19 0
2 6 1.94096255302429199 7 26 0
2 6 2.06081008911132812 33 54 1
2 6.02606487274169922 -5 23 34 5
2 6.42022705078125 -4 22 36 3
2 6.05223941802978516 2 33 54 1
3 1.90890049934387207 -2 33 20 0
3 2 -2.64811062812805176 31 22 1
3 1.80592632293701172 -1 37 18 0
3 1.97580385208129883 0 39 21 0
3 2 0.00808222964406013489 40 20 0
2.25968360900878906 3 -5 25 28 4
3 2.89322090148925781 -4 28 23 2
3 3 -4.05580663681030273 20 24 3
3 2.09522032737731934 -3 31 22 1
3 3 0.0311980638653039932 36 26 0
2.08640480041503906 4 -6 21 28 6
3 3.16881871223449707 -4 26 27 2
3 4 -3.65442156791687012 22 26 2
2.71144747734069824 4 0 28 20 0
3 4 0.186976686120033264 40 30 0
2.33453941345214844 5 -5 24 31 5
3 4.41795730590820312 -4 22 26 2
3 5 -4.27657318115234375 19 28 5
2.61651206016540527 5 -1 24 21 0
2.9125971794128418 5 0 44 40 0
3 4.79684972763061523 0 40 30 0
3 5 -0.093688376247882843 42 39 0
2.04051804542541504 5 2 26 49 1
2.18978214263916016 6 -5 23 34 5
2.20622825622558594 6 -4 22 36 3
3 5.13200664520263672 -4 25 31 3
3 5.27610921859741211 -3 29 35 2
2.99275398254394531 6 -2 14 20 0
3 6 -2.0092618465423584 13 22 1
3 5.22743988037109375 -1 42 39 0
3 6 -1.99444997310638428 30 39 1
2.28555035591125488 6 2 33 54 1
2.88738012313842773 7 -2 14 24 0
3 7 -2.11961817741394043 13 26 1
3 7 -1.94163799285888672 34 44 1
2.99030160903930664 7 2 2 18 0
3 6.93369436264038086 2 18 44 1
3 7 1.98980700969696045 4 21 0
3 7 2.009490966796875 12 59 2
3 7.02163887023925781 -2 34 44 1
3 7.00913667678833008 2 12 59 2
3.41133832931518555 2 -2 33 23 0
3.41460990905761719 2 -1 36 21 0
3.01905012130737305 2 0 40 20 0
4 2.65926861763000488 -4 32 33 2
4 3 -4.62619733810424805 27 31 4
4 2.46136116981506348 -3 34 31 1
4 2.19530105590820312 -2 36 29 0
3.41322088241577148 3 -1 38 22 0
4 3 -1.70976781845092773 39 30 0
3.03419184684753418 3 0 36 26 0
3.94358253479003906 4 -5 15 21 3
4 3.63219046592712402 -5 27 31 4
4 4 -5.02812433242797852 10 20 4
3.39774847030639648 4 -4 22 26 2
3.26181626319885254 4 -1 38 27 0
4 4 -1.75665116310119629 40 35 0
3.16109228134155273 4 0 40 30 0
3.94525933265686035 4 2 4 5 0
4 3.82550525665283203 2 34 37 0
4 4 1.74848735332489014 30 36 0
4 4 2.34493827819824219 37 54 1
3.70624709129333496 5 -5 19 28 5
4 5 -5.11881113052368164 8 21 5
3.16060638427734375 5 -4 25 31 3
4 4.17221164703369141 -4 28 33 3
4 5 -4.82770204544067383 21 33 6
4 5 -3.02762460708618164 16 26 3
3.07733631134033203 5 -2 32 32 0
4 4.58171892166137695 -2 40 35 0
4 5 -2.9356081485748291 22 34 2
3.28521633148193359 5 -1 42 39 0
4 4.03869104385375977 2 37 54 1
3.90209078788757324 5 3 16 33 2
4 4.6929779052734375 3 29 52 2
4 5 2.96724510192871094 2 23 0
4 5 3.03144717216491699 17 60 3
4 5.43420886993408203 -5 21 33 6
4 5.09074497222900391 -3 22 34 2
3.04494380950927734 6 -2 30 39 1
3.89185261726379395 6 0 11 13 0
4 5.75543832778930664 0 36 35 0
4 6 -0.223815649747848511 27 36 0
3.37860727310180664 6 1 22 44 1
4 5.91860342025756836 1 2 4 0
4 6 1.10864698886871338 21 50 1
4 5.03150320053100586 3 17 60 3
3.04086184501647949 7 -2 34 44 1
4 6.45369148254394531 0 43 54 0
4 6.052001953125 1 21 50 1
3.00961947441101074 7 2 12 59 2
4.05901050567626953 3 -4 29 32 2
4.06941366195678711 3 -3 33 33 1
4.12374305725097656 3 -2 39 30 0
4.52832365036010742 4 -5 22 30 4
4.09700775146484375 4 -4 28 33 3
4.01825237274169922 4 -3 31 32 1
4.20188808441162109 4 -2 40 35 0
4.75513887405395508 4 1 30 36 0
5 3.71029973030090332 1 42 46 0
5 4 0.870236456394195557 30 30 0
4.04798078536987305 4 2 37 54 1
5 4 1.046378493309021 50 55 0
4.25109338760375977 5 -5 21 33 6
4.01251649856567383 5 -3 22 34 2
5 4.5147857666015625 1 50 55 0
4.03171491622924805 5 3 17 60 3
4.08028125762939453 6 0 43 54 0
4.33154773712158203 6 1 21 50 1
5.27334403991699219 4 1 50 55 0
5.99585866928100586 6 0 3 9 0
6 5.99423551559448242 0 13 24 0
6 6 -0.036712009459733963 23 49 0
6 6 0.0136160487309098244 28 54 0
6 6.02692556381225586 0 28 54 0
6.95280647277832031 4 -1 21 29 0
7 3.95892906188964844 -1 15 29 0
7 4 -1.040413498878479 7 27 0
6.93837451934814453 4 0 22 31 0
7 3.85663270950317383 0 28 47 0
7 4 0.032330881804227829 22 61 0
6.93197107315063477 5 -1 16 30 0
7 5 -1.12666130065917969 0 41 0
7 4.74227237701416016 0 22 61 0
7 5 -0.236398801207542419 5 59 0
7 5.07157373428344727 -1 5 59 0
6.00452995300292969 6 0 28 54 0
7.03603219985961914 4 -1 27 53 0
7.13827371597290039 4 0 22 61 0
7.08823060989379883 5 -1 5 59 0
3 2 1 0
3 1 3 0
3 6 5 4
3 7 8 4
3 7 4 0
3 5 2 4
3 2 0 4
3 0 3 7
3 11 10 9
3 10 13 12
3 9 10 12
3 14 15 12
3 14 12 4
3 13 6 12
3 6 4 12
3 4 8 14
3 11 9 16
3 9 12 17
3 16 9 17
3 12 15 17
3 20 19 18
3 19 22 21
3 18 19 21
3 22 23 21
3 1 2 24
3 1 24 3
3 26 20 18
3 25 26 18
3 18 21 25
3 21 27 25
3 23 28 27
3 21 23 27
3 5 6 29
3 8 7 24
3 8 24 29
3 2 5 24
3 5 29 24
3 24 7 3
3 26 25 30
3 32 30 11
3 32 11 31
3 30 25 11
3 10 11 27
3 25 27 11
3 31 33 28
3 31 28 32
3 33 13 28
3 27 28 10
3 13 10 28
3 15 14 29
3 15 29 33
3 6 13 29
3 13 33 29
3 29 14 8
3 36 35 34
3 35 37 34
3 40 39 38
3 39 41 38
3 31 11 16
3 33 31 16
3 17 33 16
3 33 17 15
3 44 43 42
3 45 46 42
3 45 42 34
3 43 36 42
3 36 34 42
3 34 37 45
3 40 38 47
3 38 41 47
3 44 42 48
3 42 46 48
3 51 50 49
3 50 52 49
3 19 20 53
3 22 19 53
3 54 22 53
3 22 54 23
3 51 49 55
3 49 52 55
3 56 53 20
3 26 56 20
3 53 56 54
3 54 56 57
3 54 57 28
3 23 54 28
3 60 59 58
3 59 61 58
3 64 63 62
3 63 65 62
3 56 26 30
3 57 56 68
3 57 68 67
3 56 30 68
3 66 68 32
3 30 32 68
3 66 32 28
3 66 28 69
3 57 67 28
3 67 69 28
3 60 58 70
3 58 61 70
3 35 36 71
3 35 71 37
3 64 62 72
3 62 65 72
3 39 40 73
3 39 73 41
3 68 66 74
3 66 69 74
3 43 44 75
3 46 45 71
3 46 71 75
3 36 43 71
3 43 75 71
3 71 45 37
3 73 40 47
3 73 47 41
3 75 44 48
3 75 48 46
3 50 51 76
3 50 76 52
3 79 78 77
3 78 81 80
3 77 78 80
3 81 82 80
3 76 51 55
3 76 55 52
3 85 84 83
3 84 86 83
3 79 77 87
3 77 80 88
3 87 77 88
3 80 82 88
3 60 89 59
3 59 89 61
3 63 64 90
3 85 83 91
3 90 65 63
3 83 86 91
3 67 68 92
3 67 92 69
3 89 60 70
3 89 70 61
3 90 64 72
3 90 72 65
3 92 68 74
3 92 74 69
3 95 94 93
3 94 96 93
3 99 98 97
3 98 100 97
3 103 102 101
3 102 104 101
3 79 106 105
3 78 79 105
3 109 107 108
3 105 95 81
3 105 81 78
3 81 95 93
3 81 93 96
3 81 96 82
3 108 107 96
3 107 82 96
3 99 97 110
3 97 100 110
3 84 85 111
3 84 111 86
3 103 101 112
3 115 112 101
3 115 101 113
3 104 114 101
3 114 113 101
3 114 116 113
3 114 79 116
3 114 106 79
3 79 87 116
3 116 109 117
3 116 88 109
3 116 87 88
3 88 107 109
3 107 88 82
3 119 118 120
3 119 121 118
3 111 85 91
3 111 91 86
3 123 115 113
3 122 123 113
3 113 116 122
3 116 124 122
3 117 125 124
3 116 117 124
3 120 118 126
3 118 121 126
3 129 128 127
3 128 130 127
3 123 122 131
3 122 124 132
3 131 122 132
3 124 125 132
3 129 127 133
3 127 130 133
3 136 135 134
3 135 137 134
3 94 95 138
3 94 138 96
3 98 99 139
3 140 100 98
3 140 98 141
3 139 142 98
3 142 141 98
3 141 143 140
3 102 103 144
3 136 134 145
3 144 104 102
3 134 137 145
3 106 146 105
3 109 108 138
3 109 138 146
3 95 105 138
3 105 146 138
3 138 108 96
3 139 99 110
3 100 140 147
3 100 147 110
3 142 139 147
3 139 110 147
3 140 143 147
3 112 148 150
3 112 150 103
3 149 144 150
3 144 103 150
3 148 112 115
3 144 149 104
3 149 114 104
3 149 151 114
3 106 114 151
3 106 151 152
3 106 152 146
3 152 151 153
3 117 109 155
3 117 155 154
3 109 146 155
3 156 155 152
3 146 152 155
3 120 154 155
3 120 155 119
3 119 155 157
3 119 157 158
3 121 119 158
3 161 160 159
3 162 163 159
3 162 159 148
3 160 150 159
3 150 148 159
3 148 115 123
3 148 123 165
3 148 165 162
3 165 123 164
3 165 164 167
3 153 166 152
3 152 166 156
3 117 154 169
3 117 169 125
3 169 154 168
3 154 120 126
3 154 126 168
3 168 126 170
3 170 126 171
3 170 171 173
3 126 121 171
3 172 171 158
3 121 158 171
3 172 174 171
3 128 129 175
3 128 175 130
3 161 159 176
3 159 163 176
3 164 123 131
3 167 164 131
3 167 131 177
3 177 131 132
3 177 132 125
3 169 177 125
3 180 179 178
3 181 182 178
3 181 178 171
3 179 173 178
3 173 171 178
3 185 181 171
3 185 171 183
3 174 184 171
3 184 183 171
3 184 186 183
3 175 129 133
3 175 133 130
3 189 188 187
3 190 191 187
3 190 187 178
3 188 180 187
3 180 178 187
3 178 182 190
3 185 183 192
3 183 186 192
3 189 187 193
3 187 191 193
3 135 136 194
3 195 137 135
3 195 135 196
3 194 197 135
3 197 196 135
3 196 199 198
3 195 196 198
3 199 201 200
3 198 199 200
3 201 202 200
3 141 142 203
3 141 203 143
3 206 205 204
3 205 207 204
3 136 145 194
3 195 208 145
3 195 145 137
3 208 209 145
3 194 145 197
3 209 197 145
3 210 211 208
3 210 208 198
3 198 208 195
3 213 210 198
3 213 198 212
3 212 198 200
3 202 215 214
3 202 214 200
3 200 214 212
3 215 216 214
3 142 147 203
3 203 147 143
3 204 149 150
3 204 150 206
3 206 150 217
3 207 149 204
3 207 218 149
3 218 151 149
3 209 208 219
3 209 219 151
3 209 151 218
3 153 151 219
3 211 220 155
3 211 155 219
3 211 219 208
3 219 155 156
3 223 221 222
3 220 213 157
3 220 157 155
3 157 213 212
3 222 221 225
3 157 212 158
3 212 224 158
3 212 214 224
3 216 226 224
3 214 216 224
3 160 161 227
3 228 163 162
3 227 229 160
3 229 150 160
3 229 217 150
3 228 230 231
3 228 162 230
3 162 165 230
3 153 219 166
3 165 167 233
3 165 233 230
3 233 167 232
3 233 232 235
3 166 219 156
3 234 169 168
3 170 234 168
3 170 236 234
3 237 221 223
3 225 221 237
3 158 224 172
3 236 170 173
3 172 238 174
3 224 238 172
3 224 239 238
3 224 226 239
3 239 240 238
3 227 161 176
3 163 228 241
3 163 241 176
3 229 227 241
3 227 176 241
3 228 231 241
3 232 167 177
3 169 234 242
3 169 242 177
3 235 232 242
3 232 177 242
3 242 180 243
3 242 236 180
3 242 234 236
3 179 180 236
3 182 244 245
3 182 181 244
3 173 179 236
3 174 238 184
3 181 185 247
3 181 247 244
3 247 185 246
3 184 238 240
3 184 240 186
3 247 246 240
3 246 186 240
3 188 189 248
3 190 249 248
3 190 248 191
3 249 243 248
3 188 248 180
3 243 180 248
3 249 190 182
3 245 249 182
3 246 185 192
3 246 192 186
3 248 189 193
3 248 193 191
3 196 197 250
3 250 252 251
3 250 251 196
3 196 251 199
3 251 253 199
3 199 253 201
3 254 202 201
3 254 201 255
3 255 201 253
3 255 256 254
3 206 258 257
3 205 206 257
3 259 207 205
3 259 205 260
3 260 205 257
3 259 260 261
3 259 261 197
3 259 197 209
3 250 197 261
3 250 261 252
3 211 210 262
3 210 213 262
3 254 215 202
3 215 254 256
3 215 256 216
3 216 256 263
3 266 265 264
3 268 269 267
3 265 258 264
3 258 217 264
3 258 206 217
3 270 268 267
3 270 271 268
3 259 218 207
3 259 209 218
3 271 270 272
3 262 220 211
3 220 262 213
3 223 222 273
3 273 222 225
3 276 274 275
3 275 274 226
3 275 226 263
3 263 226 216
3 266 264 277
3 267 269 278
3 264 217 277
3 217 279 277
3 217 229 279
3 281 267 278
3 281 270 267
3 230 280 231
3 280 233 282
3 280 230 233
3 270 281 272
3 233 235 282
3 284 285 283
3 273 237 223
3 237 273 225
3 284 283 287
3 274 276 286
3 289 288 239
3 286 289 239
3 286 239 226
3 286 226 274
3 290 240 239
3 290 239 291
3 288 292 239
3 292 291 239
3 291 293 290
3 241 294 295
3 241 295 229
3 229 295 279
3 231 294 241
3 231 280 294
3 280 296 294
3 297 298 296
3 297 296 282
3 282 296 280
3 282 235 242
3 282 242 297
3 297 242 299
3 285 300 283
3 285 242 300
3 285 299 242
3 243 300 242
3 287 244 301
3 287 300 244
3 287 283 300
3 300 245 244
3 288 289 301
3 288 301 247
3 247 301 244
3 290 302 247
3 290 247 240
3 302 303 247
3 288 247 292
3 303 292 247
3 293 304 302
3 290 293 302
3 295 294 305
3 294 296 306
3 305 294 306
3 296 298 306
3 300 243 249
3 300 249 245
3 303 302 307
3 302 304 307
3 252 309 308
3 251 252 308
3 308 310 251
3 251 310 253
3 310 311 253
3 253 311 255
3 255 311 312
3 256 255 312
3 257 258 313
3 313 315 314
3 313 314 257
3 257 314 260
3 314 316 260
3 260 316 261
3 316 252 261
3 309 252 316
3 312 317 256
3 317 263 256
3 265 266 318
3 269 268 313
3 269 313 318
3 258 265 313
3 265 318 313
3 315 313 268
3 315 268 319
3 319 268 271
3 271 320 319
3 272 320 271
3 275 321 276
3 321 275 263
3 321 263 322
3 322 263 317
3 318 266 277
3 278 269 318
3 278 318 323
3 277 279 318
3 279 323 318
3 323 325 324
3 323 324 278
3 278 324 281
3 324 272 281
3 320 272 324
3 284 326 285
3 284 287 326
3 286 276 321
3 329 327 328
3 286 321 322
3 286 322 289
3 328 327 322
3 327 289 322
3 291 292 330
3 291 330 293
3 331 323 279
3 295 331 279
3 325 332 333
3 325 323 332
3 323 331 332
3 298 333 332
3 298 297 333
3 297 334 333
3 336 299 335
3 336 334 299
3 334 297 299
3 335 337 338
3 299 337 335
3 299 326 337
3 299 285 326
3 327 329 337
3 327 337 301
3 326 287 337
3 287 301 337
3 327 301 289
3 339 330 292
3 303 339 292
3 330 339 304
3 293 330 304
3 331 295 305
3 332 331 305
3 306 332 305
3 332 306 298
3 341 336 335
3 340 341 335
3 338 342 340
3 335 338 340
3 307 343 345
3 307 345 303
3 344 339 345
3 339 303 345
3 343 307 304
3 343 304 346
3 339 344 304
3 344 346 304
3 341 340 347
3 340 342 347
3 345 343 348
3 343 346 348
3 308 309 349
3 310 308 349
3 350 310 349
3 311 310 350
3 351 311 350
3 311 351 312
3 315 353 352
3 314 315 352
3 352 354 314
3 314 354 316
3 309 355 349
3 309 316 355
3 316 354 355
3 357 349 355
3 357 356 349
3 356 350 349
3 350 356 351
3 351 356 358
3 351 358 317
3 312 351 317
3 361 360 359
3 360 362 359
3 360 315 362
3 360 353 315
3 315 319 362
3 319 320 362
3 364 356 357
3 363 356 364
3 356 363 358
3 358 363 365
3 358 365 322
3 317 358 322
3 368 367 366
3 367 369 366
3 371 361 359
3 370 371 359
3 373 374 372
3 362 324 370
3 362 370 359
3 370 324 325
3 362 320 324
3 373 372 375
3 378 376 377
3 377 363 364
3 377 376 363
3 376 379 363
3 329 328 365
3 329 365 379
3 379 365 363
3 365 328 322
3 368 366 380
3 383 380 366
3 383 366 381
3 369 382 366
3 382 381 366
3 382 384 381
3 371 370 385
3 372 374 385
3 372 385 333
3 370 325 385
3 325 333 385
3 375 372 333
3 375 333 386
3 386 333 334
3 378 387 376
3 378 334 387
3 378 386 334
3 336 387 334
3 338 337 379
3 338 379 387
3 387 379 376
3 379 337 329
3 389 388 390
3 389 392 391
3 388 389 391
3 392 393 391
3 383 381 394
3 381 384 394
3 395 387 336
3 341 395 336
3 387 395 342
3 338 387 342
3 390 388 396
3 388 391 397
3 396 388 397
3 391 393 397
3 345 398 344
3 344 398 346
3 395 341 347
3 395 347 342
3 398 345 348
3 398 348 346
3 352 353 399
3 354 352 399
3 400 354 399
3 355 354 400
3 401 355 400
3 355 401 357
3 360 361 402
3 353 360 402
3 353 402 399
3 399 402 403
3 399 403 400
3 400 403 404
3 400 404 401
3 401 404 405
3 401 405 364
3 357 401 364
3 408 407 406
3 368 406 407
3 368 407 367
3 410 409 407
3 409 367 407
3 367 409 369
3 411 402 361
3 371 411 361
3 374 373 403
3 374 403 411
3 411 403 402
3 373 375 412
3 373 412 403
3 403 412 404
3 378 377 405
3 378 405 412
3 412 405 404
3 405 377 364
3 408 406 413
3 409 410 413
3 409 413 380
3 406 368 413
3 368 380 413
3 382 369 409
3 382 409 414
3 380 383 409
3 383 414 409
3 382 414 384
3 411 371 385
3 411 385 374
3 412 375 386
3 412 386 378
3 389 390 415
3 392 389 415
3 416 392 415
3 392 416 393
3 414 383 394
3 414 394 384
3 415 390 396
3 416 415 396
3 397 416 396
3 416 397 393
3 407 408 417
3 407 417 410
3 417 408 413
3 417 413 410
3 420 419 418
3 419 421 418
3 420 418 422
3 418 421 422
3 425 424 423
3 424 427 426
3 423 424 426
3 427 428 426
3 430 425 423
3 429 430 423
3 431 432 429
3 431 429 426
3 426 429 423
3 426 428 431
3 430 429 433
3 429 432 433
3 420 434 419
3 419 434 421
3 434 420 422
3 434 422 421
3 424 425 435
3 427 424 435
3 436 427 435
3 427 436 428
3 437 435 425
3 430 437 425
3 432 431 436
3 432 436 437
3 437 436 435
3 436 431 428
3 437 430 433
3 437 433 432
