ply
format ascii 1.0
element vertex 6
property float x
property float y
property float z
property uchar red
property uchar green
property uchar blue
element face 8
property list uchar int vertex_indices
end_header
7.62446737289428711 8 8 240 116 10
8 7.32856941223144531 8 254 127 34
8 8 7.65099096298217773 254 127 17
8 8 8.52132320404052734 254 115 35
8 8.52132320404052734 8 254 115 35
8.52132320404052734 8 8 254 115 35
3 2 1 0
3 1 3 0
3 2 0 4
3 0 3 4
3 1 2 5
3 1 5 3
3 5 2 4
3 5 4 3
