ply
format ascii 1.0
element vertex 462
property float x
property float y
property float z
property uchar red
property uchar green
property uchar blue
element face 888
property list uchar int vertex_indices
end_header
-5.0578160285949707 5 -5 1 3 1
-5 4.94851541519165039 -5 1 6 5
-5 5 -5.04565191268920898 7 8 8
-5.06275177001953125 5 -4 2 2 0
-5 4.94705915451049805 -4 3 7 6
-5.03982925415039062 5 -3 2 1 0
-5 4.96678304672241211 -3 1 6 3
-5.05074882507324219 5 -2 1 1 0
-5 4.9570927619934082 -2 1 5 2
-5.08016443252563477 5 -1 0 0 0
-5 4.81071043014526367 -1 0 1 0
-5 5 -0.935616254806518555 0 3 0
-5 5.0489044189453125 -5 0 1 0
-5 5.0502924919128418 -4 1 3 0
-5 5.02993440628051758 -3 2 3 0
-5 5.0389552116394043 -2 3 0 0
-5 5.06255865097045898 -1 0 3 0
-4.00756406784057617 2 -1 2 5 0
-4 1.99233925342559814 -1 0 0 0
-4 2 -1.0072166919708252 1 4 3
-4 2 -0.992397964000701904 3 4 0
-4 2.00867342948913574 -1 3 4 0
-4.03445339202880859 4 -3 1 6 3
-4 3.96696209907531738 -3 3 7 6
-4 4 -3.03121685981750488 1 6 7
-4 4 -2.9614560604095459 0 2 0
-4.95265865325927734 5 -5 0 1 0
-4.95082855224609375 5 -4 1 3 0
-4.9689173698425293 5 -3 2 3 0
-4 4.0322418212890625 -3 0 2 0
-4.96039962768554688 5 -2 3 0 0
-4.93174028396606445 5 -1 0 3 0
-4.03486919403076172 5 1 3 2 0
-4 4.86485481262207031 1 3 3 0
-4 5 0.972774505615234375 1 5 3
-4 5 1.03089225292205811 3 0 0
-4.01521968841552734 6 -6 4 6 5
-4 5.98682832717895508 -6 5 8 8
-4 6 -6.01371288299560547 2 7 1
-4 6 -5.98716449737548828 0 0 0
-4.07922029495239258 6 0 0 1 0
-4 5.93237066268920898 0 1 5 3
-4 6 -0.0869433209300041199 0 1 0
-4 5.04709959030151367 1 3 0 0
-4 6 0.113554418087005615 2 5 0
-4 6.02152729034423828 -6 0 0 0
-4.00990104675292969 7 -4 0 2 0
-4 6.99106884002685547 -4 3 5 6
-4 7 -4.11655807495117188 1 2 2
-4 7 -3.80770707130432129 0 3 0
-4.02343177795410156 7 -2 0 0 0
-4 6.98071622848510742 -2 1 5 3
-4 7 -2.35623788833618164 0 3 0
-4.03199338912963867 7 -1 0 0 0
-4 6.96379995346069336 -1 0 1 0
-4 6.1421351432800293 0 2 5 0
-4 7 -0.938655555248260498 0 3 0
-4 7.00765466690063477 -4 0 3 0
-4 7.02124166488647461 -2 3 2 0
-4 7.02937889099121094 -1 0 3 0
-3.99302983283996582 2 -1 3 4 0
-3.08226513862609863 3 -1 0 4 2
-3 2.93291115760803223 -1 0 0 0
-3 3 -1.08146870136260986 0 0 0
-3 3 -0.918679416179656982 1 3 0
-3.0319674015045166 3 3 1 1 0
-3 2.48266720771789551 3 7 1 0
-3 3 2.97260022163391113 2 2 0
-3 3 3.03087258338928223 7 9 1
-3.06978678703308105 4 -4 1 6 7
-3 3.92259407043457031 -4 0 1 0
-3 4 -4.07810306549072266 2 6 5
-3.96740412712097168 4 -3 0 2 0
-3 4 -3.92725801467895508 0 2 0
-3 3.08631086349487305 -1 1 3 0
-3.02399539947509766 4 3 1 0 0
-3 4 2.97991466522216797 0 0 0
-3 4 3.02305340766906738 9 4 0
-3 4.08500003814697266 -4 0 2 0
-3.00069808959960938 5 -3 1 5 4
-3 4.99929380416870117 -3 1 4 2
-3 5 -3.00083589553833008 0 4 4
-3 5 -2.99915981292724609 0 0 0
-3.97084617614746094 5 1 3 0 0
-3 4.02447700500488281 3 9 4 0
-3.98645997047424316 6 -6 0 0 0
-3 5.00067329406738281 -3 0 0 0
-3.9298248291015625 6 0 2 5 0
-3.07174587249755859 6 2 2 3 0
-3 5.94028139114379883 2 0 2 0
-3 6 1.9395139217376709 0 4 4
-3 6 2.07061123847961426 3 5 1
-3.9915153980255127 7 -4 0 3 0
-3.97945499420166016 7 -2 3 2 0
-3.97205686569213867 7 -1 0 3 0
-3 6.05688810348510742 2 3 5 1
-2.01547574996948242 3 -4 0 1 0
-2 2.73539161682128906 -4 7 4 1
-2 3 -4.01423788070678711 0 0 0
-2.03242754936218262 3 -3 0 1 0
-2 2.6650245189666748 -3 7 2 0
-2.07660508155822754 3 -2 0 0 0
-2 2.28728389739990234 -2 6 3 0
-2.92953968048095703 3 -1 1 3 0
-2 3 -1.93379354476928711 6 3 1
-2.97665143013000488 3 3 7 9 1
-2.02461504936218262 4 -6 0 5 2
-2 3.97063493728637695 -6 1 1 0
-2 4 -6.02415990829467773 0 0 0
-2.05763888359069824 4 -5 2 6 5
-2 3.94727706909179688 -5 0 0 0
-2.91655063629150391 4 -4 0 2 0
-2 3.01677203178405762 -4 6 4 1
-2 4 -4.93832206726074219 7 6 2
-2.0888671875 4 -3 1 4 2
-2 4 -3.10168790817260742 0 0 0
-2 3.06957340240478516 -2 6 3 1
-2 4 -2.90907812118530273 4 4 1
-2.98148012161254883 4 3 9 4 0
-2.00028562545776367 4 4 3 1 0
-2 3.99954986572265625 4 3 4 0
-2 4 3.9997715950012207 1 2 0
-2 4 4.00027227401733398 8 6 0
-2 4.02476835250854492 -6 5 5 0
-2 4.73102664947509766 -5 7 6 2
-2.99911165237426758 5 -3 0 0 0
-2 4.10933685302734375 -3 4 4 1
-2 4.00022554397583008 4 8 6 0
-2.94047880172729492 6 2 3 5 1
-1.86819124221801758 3 -4 6 4 1
-1.85568106174468994 3 -3 5 1 1
-1.78264522552490234 3 -2 6 3 1
-1.94967019557952881 4 -6 5 5 0
-1.8027036190032959 4 -5 7 6 2
-1.00575554370880127 4 -4 0 0 0
-1 3.95100235939025879 -4 6 3 1
-1 4 -4.02118778228759766 4 2 1
-1.3780975341796875 4 -3 4 4 1
-1 4 -3.92241168022155762 7 2 0
-1.0361102819442749 4 -2 0 0 0
-1 3.87785673141479492 -2 4 1 0
-1 4 -2.38122820854187012 6 1 0
-1.05540561676025391 4 -1 1 3 0
-1 3.63662815093994141 -1 7 4 0
-1 4 -0.970107555389404297 8 3 3
-1.99977600574493408 4 4 8 6 0
-1 4.01291227340698242 -4 7 2 0
-1.05752956867218018 5 -3 0 3 3
-1 4.55009222030639648 -3 6 1 0
-1 5 -3.11284112930297852 2 1 0
-1 4.06116533279418945 -2 6 5 3
-1 5 -2.92039752006530762 4 2 1
-1 4.03094100952148438 -1 8 3 3
-1 5.27353000640869141 -3 4 2 1
-1.02227258682250977 7 3 1 3 2
-1 6.97699451446533203 3 0 0 0
-1 7 2.97733068466186523 0 1 2
-1 7 3.04269146919250488 6 8 0
-1 7.40596246719360352 3 6 8 0
-0.222835302352905273 2 0 6 5 0
0 1.92805516719818115 0 1 2 0
0 2 -0.130993366241455078 2 3 0
0 2 0.498980432748794556 5 4 0
-0.165755420923233032 3 -2 4 1 0
0 2.20327925682067871 -2 5 1 0
0 3 -2.70308494567871094 6 0 0
-0.698772311210632324 3 -1 7 4 0
0 2.66319441795349121 -1 2 3 0
0 2.06740999221801758 0 5 4 0
0 3 -0.8041648268699646 6 1 0
-0.0479936972260475159 3 3 0 0 0
0 2.9479680061340332 3 0 2 2
0 3 2.94614458084106445 0 1 1
0 3 3.05104160308837891 0 3 0
0 3.77458095550537109 -4 5 2 0
0 4 -4.53402853012084961 7 0 0
0 4 -3.438995361328125 8 3 0
0 4 -2.74063873291015625 6 0 0
0 4 -0.652150928974151611 7 3 0
-0.0426326915621757507 4 3 0 1 0
0 4 2.90365743637084961 0 0 0
0 4 3.04271912574768066 0 7 1
-0.0363080836832523346 4 5 3 3 0
0 3.69968628883361816 5 0 4 0
0 4 4.96733808517456055 0 1 0
0 4 5.03563261032104492 0 4 1
0 4.1190338134765625 -4 8 3 0
-0.171169742941856384 5 -3 4 2 1
0 4.29666519165039062 -2 7 2 1
0 4.56537485122680664 -1 7 3 0
0 4.69191980361938477 3 0 7 1
0 4.04739046096801758 5 0 4 1
-0.0166707281023263931 6 -2 0 1 0
0 5.94163751602172852 -2 4 4 0
0 6 -2.09060144424438477 4 3 0
0 6 -1.98462045192718506 2 5 1
-0.0501558184623718262 6 1 0 0 0
0 5.94921064376831055 1 0 0 0
0 6 0.950017809867858887 0 1 1
0 6 1.04687750339508057 0 8 2
-0.0490267463028430939 7 -3 0 4 3
0 6.75839614868164062 -3 4 3 0
0 7 -3.05776786804199219 0 0 0
0 6.37183475494384766 -2 2 5 1
0 7 -2.34568643569946289 2 5 1
0 6.05413055419921875 1 0 8 2
-0.00385614228434860706 7 2 0 1 2
0 6.99597883224487305 2 0 0 0
0 7 1.99532401561737061 0 1 0
-0.977417588233947754 7 3 6 8 0
0 7 2.00384116172790527 7 8 1
0 7.04470539093017578 -3 2 5 1
0 7.00373744964599609 2 7 8 1
0.935723304748535156 2 -3 5 0 0
1 1.93287241458892822 -3 7 2 0
1 2 -3.08669066429138184 7 2 0
0.441281139850616455 2 -2 5 1 0
1 1.88446533679962158 -2 5 1 0
0.798093795776367188 2 -1 2 3 0
1 1.62201201915740967 -1 6 3 0
0.193788409233093262 2 0 5 4 0
1 2 -0.712549388408660889 4 5 0
0.733163058757781982 2 1 4 4 0
1 1.96735680103302002 1 1 3 0
1 2 0.919252336025238037 3 3 0
1 2 1.04663360118865967 4 4 0
0.488747566938400269 3 -3 6 0 0
1 3 -3.35367274284362793 6 0 0
0.809984743595123291 3 0 1 2 0
1 2.56176257133483887 0 3 3 0
1 2.1684260368347168 1 4 4 0
1 3 0.64269721508026123 3 5 0
0.934669375419616699 3 2 0 1 1
1 2.73176813125610352 2 0 4 3
1 3 1.39717650413513184 0 4 0
0.0692104846239089966 3 3 0 3 0
1 3 2.08366823196411133 0 5 2
1 3.75489616394042969 -4 6 0 0
1 4 -4.06251621246337891 6 2 0
0.371383100748062134 4 -3 6 0 0
0.453252196311950684 4 -1 7 3 0
1 3.4247133731842041 -1 5 5 0
1 4 -1.53511679172515869 7 5 0
0.551068127155303955 4 0 3 4 0
1 4 -0.558723032474517822 3 4 0
1 4 0.531485259532928467 3 6 0
0.91103827953338623 4 2 0 0 0
1 4 1.67020249366760254 3 4 0
0.0517885573208332062 4 3 0 7 1
1 4 2.04764103889465332 3 6 0
0.944453597068786621 4 4 0 1 0
1 3.94668221473693848 4 0 0 0
1 4 3.93285202980041504 0 1 0
0.165827065706253052 4 5 0 4 1
1 4 4.25720453262329102 0 3 1
0.976256012916564941 5 -6 0 2 0
1 4.92954301834106445 -6 6 1 1
1 5 -6.71495676040649414 6 8 1
1 5 -5.65971040725708008 8 1 0
0.828364372253417969 5 -4 4 3 0
1 5 -4.62777900695800781 7 4 1
0.291762083768844604 5 -3 6 3 0
0.713750004768371582 5 -2 4 4 0
0.69270622730255127 5 -1 5 6 0
1 4.7796015739440918 -1 3 4 0
1 4.24419021606445312 0 3 6 0
1 5 -0.932715475559234619 7 7 3
0.904042959213256836 5 1 0 0 0
1 4.45855998992919922 1 3 4 0
1 5 0.748345911502838135 2 3 0
1 4.04871702194213867 2 3 6 0
1 5 1.10943365097045898 2 8 0
1 4.05436325073242188 4 0 3 1
1 5.02733087539672852 -6 8 1 0
1 5.20886421203613281 -4 8 1 0
0.696521282196044922 6 -3 4 3 0
1 6 -3.19821882247924805 3 5 0
0.940155267715454102 6 -1 0 0 0
0.952556014060974121 6 0 0 1 1
1 5.8617095947265625 0 2 3 0
0.0907186567783355713 6 1 0 8 2
1 5.16521501541137695 1 2 8 0
1 6 0.0862997174263000488 6 8 0
0.968682408332824707 7 -4 0 0 0
1 6.91297578811645508 -4 3 5 0
1 7 -4.28752851486206055 4 6 0
0.337011575698852539 7 -2 5 6 2
1 6.33420705795288086 -1 8 6 2
1 7 -1.70953989028930664 3 5 1
1 6.05875110626220703 0 6 8 0
0.00381881697103381157 7 2 7 8 1
1 7.02486228942871094 -4 4 6 0
1 7.01925563812255859 -3 2 5 3
1 7.04820013046264648 -2 3 5 1
1.64914774894714355 2 -3 7 1 0
2 1.74495351314544678 -2 7 1 0
2 2 -2.76785063743591309 7 1 0
1.9292987585067749 2 -1 4 5 0
2 2 -1.15607011318206787 6 2 0
1.80084216594696045 2 0 3 3 0
2 1.53657126426696777 0 1 5 0
2 2 -0.890142619609832764 3 4 0
1.05158627033233643 2 1 4 4 0
2 2 0.133440941572189331 1 4 0
1.58121037483215332 3 -4 6 0 0
2 2.33086109161376953 -4 8 3 0
2 3 -4.21354436874389648 7 1 0
2 2.0936582088470459 -3 7 1 0
2 2.15732908248901367 -1 3 4 0
2 3 0.210195943713188171 1 4 0
1.41994667053222656 3 2 0 5 2
1.99257063865661621 4 -6 6 1 1
2 3.91124343872070312 -6 8 5 0
2 4 -6.01001548767089844 6 0 0
1.86413276195526123 4 -5 6 2 0
2 3.7761070728302002 -5 7 1 0
1.26204776763916016 4 -4 7 0 0
2 3.44073033332824707 -4 8 0 0
2 4 -4.54429101943969727 8 1 0
2 4 -3.30984377861022949 7 2 0
1.50652682781219482 4 -1 3 4 0
2 4 0.228891566395759583 2 5 0
1.91237783432006836 4 2 3 6 0
1.25924861431121826 4 4 0 3 1
1.18480861186981201 5 -6 8 1 0
2 4.02189731597900391 -6 8 2 1
1.51035487651824951 5 -5 7 4 1
2 5 -5.29660320281982422 7 5 1
2 4.38458776473999023 -4 7 2 0
1.77399301528930664 5 -1 7 7 3
2 4.92188453674316406 -1 3 5 0
2 5 -1.06521451473236084 7 7 1
2 4.15707254409790039 0 2 5 0
1.47559010982513428 5 1 2 8 0
1.67891621589660645 5 5 1 4 0
2 4.95225286483764648 5 0 0 0
2 5 4.96214866638183594 0 0 0
2 5 5.22527265548706055 0 4 4
2 5.07686376571655273 -5 8 1 0
2 5.18076562881469727 -4 8 3 0
1.22632884979248047 6 -3 6 7 0
2 5.25400876998901367 -3 8 6 0
1.1763002872467041 6 -2 4 7 2
2 5.28015232086181641 -2 7 7 1
2 5.06652975082397461 -1 2 6 0
2 6 -1.27586138248443604 1 5 0
1.36617588996887207 6 0 6 8 0
2 6 -0.484506130218505859 3 8 4
1.99821114540100098 6 2 0 0 1
2 5.99769783020019531 2 0 0 0
2 6 1.99687469005584717 0 1 0
2 6 2.0015861988067627 1 6 2
2 5.20165586471557617 5 0 4 4
1.17508316040039062 7 -4 4 6 0
1.13714838027954102 7 -3 2 5 3
2 6.85947418212890625 -2 1 5 0
2 7 -2.22946071624755859 2 6 1
2 6.26771259307861328 -1 3 8 4
2 7 -1.86437404155731201 5 7 3
2 6.00205469131469727 2 1 6 2
1.96622467041015625 7 4 0 6 7
2 6.99656391143798828 4 0 1 1
2 7 3.99666261672973633 0 0 1
2 7 4.10337352752685547 2 3 8
2 7.04041481018066406 -2 5 7 3
2 7.01142692565917969 4 2 3 8
2.55719566345214844 2 -2 6 2 0
3 1.85790550708770752 0 0 6 0
3 2 -0.618513047695159912 2 5 0
3 2 0.0551433414220809937 1 5 0
2.52840995788574219 3 -4 8 0 0
3 2.67810750007629395 -3 7 1 0
3 3 -3.33286857604980469 7 2 0
3 2.29729652404785156 -2 6 5 0
3 2.11927652359008789 -1 2 5 0
3 3 0.150668025016784668 0 5 2
2.07804059982299805 4 -6 8 2 1
2.3697052001953125 4 -5 8 1 0
3 4 -3.56102204322814941 7 5 0
2.70115518569946289 4 0 2 5 0
3 3.56915402412414551 0 0 5 2
3 4 -0.208945170044898987 3 6 0
2.29075264930725098 5 -5 8 1 0
3 4.47979974746704102 -4 7 5 0
3 5 -4.17674446105957031 7 5 0
3 4.99303770065307617 -1 3 6 0
3 5 -1.0348438024520874 5 8 3
2.99817013740539551 5 0 0 3 0
3 4.97743988037109375 0 0 6 1
3 5 -0.465109497308731079 3 7 3
3 5 0.00326692895032465458 2 7 0
2.1333613395690918 5 5 0 4 4
3 5.12109899520874023 -4 8 8 0
3 5.22336578369140625 -3 8 8 1
3 5.25536727905273438 -2 5 8 3
3 5.00722455978393555 -1 3 7 3
3 6 -1.62981736660003662 4 7 1
3 5.0043787956237793 0 2 7 0
3 6 -0.589943647384643555 3 8 2
2.02327418327331543 6 2 1 6 2
2.95337748527526855 6 5 1 0 4
3 5.9710698127746582 5 2 0 4
3 6 4.99232244491577148 0 0 1
3 6 5.04836893081665039 5 0 7
2.33310365676879883 7 -2 5 7 3
3 6.23424196243286133 -1 3 8 2
2.0210115909576416 7 4 2 3 8
3 6.01264619827270508 5 5 0 7
3.79865050315856934 2 0 1 5 0
3.86434149742126465 3 -3 7 4 0
3.98855161666870117 3 -2 4 6 0
4 2.48243498802185059 -1 3 6 0
4 3 -1.99159646034240723 6 6 0
3.27163553237915039 3 0 0 5 2
4 3 -0.63933718204498291 3 6 0
3.53609538078308105 4 -3 7 6 0
4 3.00866603851318359 -2 6 6 0
4 4 -2.6471250057220459 7 6 0
4 4 -0.919148087501525879 1 7 1
3.69074320793151855 4 1 0 5 4
4 3.01616168022155762 1 0 6 2
4 4 0.737446129322052002 1 6 3
4 4 1.83325433731079102 0 6 6
3.12568163871765137 5 -4 8 8 0
4 4.75538301467895508 -3 7 6 0
4 5 -3.04533028602600098 6 7 1
4 4.11899471282958984 -1 1 7 1
4 5 -1.72311103343963623 2 8 0
3.00339841842651367 5 0 2 7 0
4 4.10361385345458984 1 0 6 6
3.99079608917236328 6 -3 3 7 3
4 6 -3.00498485565185547 0 6 1
3.62933826446533203 6 -2 4 7 1
3.83633327484130859 6 -1 3 8 2
4 6 -1.36114847660064697 2 8 1
3.02663660049438477 6 5 5 0 7
4 6.00242185592651367 -3 3 8 0
4 6.04087448120117188 -2 2 8 1
4.14565134048461914 3 -1 3 6 0
4.15633678436279297 4 -2 5 7 0
4.06041765213012695 4 -1 1 7 1
4.30223560333251953 4 1 0 6 6
4.04211854934692383 5 -3 4 8 0
4.16094064712524414 5 -2 2 8 0
4.02664470672607422 6 -3 3 8 0
4.13347244262695312 6 -2 2 8 1
4.99126434326171875 6 5 5 0 2
5 5.99694681167602539 5 3 1 1
5 6 4.99766826629638672 1 0 1
5 6 5.0285944938659668 9 0 5
5 6.00751781463623047 5 9 0 5
5.9739832878112793 6 0 2 0 3
6 5.96082353591918945 0 3 0 4
6 6 -0.134944736957550049 0 0 6
5.71863889694213867 6 1 5 2 7
6 5.72517061233520508 1 3 0 5
6 6 1.02147746086120605 1 0 4
5.00670766830444336 6 5 9 0 5
6 6.03413152694702148 0 3 1 2
6 6.02107524871826172 1 1 0 4
6.01068639755249023 6 0 3 1 2
6.03496122360229492 6 1 1 0 4
3 2 1 0
3 1 4 3
3 0 1 3
3 4 6 5
3 3 4 5
3 6 8 7
3 5 6 7
3 8 10 9
3 7 8 9
3 10 11 9
3 2 0 12
3 0 3 13
3 12 0 13
3 3 5 14
3 13 3 14
3 5 7 15
3 14 5 15
3 7 9 16
3 15 7 16
3 9 11 16
3 19 18 17
3 18 20 17
3 19 17 21
3 17 20 21
3 24 23 22
3 23 25 22
3 1 2 26
3 4 1 26
3 27 4 26
3 6 4 24
3 6 24 22
3 4 27 24
3 29 24 28
3 27 28 24
3 28 30 25
3 28 25 29
3 30 8 25
3 22 25 6
3 8 6 25
3 10 8 30
3 31 10 30
3 10 31 11
3 34 33 32
3 33 35 32
3 38 37 36
3 37 39 36
3 2 12 26
3 27 26 12
3 13 27 12
3 28 27 13
3 14 28 13
3 30 28 14
3 15 30 14
3 31 30 15
3 16 31 15
3 31 16 11
3 41 40 42
3 43 44 40
3 43 40 32
3 41 34 40
3 34 32 40
3 32 35 43
3 38 36 45
3 36 39 45
3 48 47 46
3 47 49 46
3 52 51 50
3 51 54 53
3 50 51 53
3 55 56 53
3 55 53 40
3 54 42 53
3 42 40 53
3 40 44 55
3 48 46 57
3 46 49 57
3 52 50 58
3 50 53 59
3 58 50 59
3 53 56 59
3 18 19 60
3 18 60 20
3 21 61 63
3 21 63 19
3 62 60 63
3 60 19 63
3 61 21 20
3 61 20 64
3 60 62 20
3 62 64 20
3 67 66 65
3 66 68 65
3 71 70 69
3 24 69 70
3 24 70 23
3 73 72 70
3 72 23 70
3 23 72 25
3 63 61 74
3 61 64 74
3 76 67 65
3 75 76 65
3 68 77 75
3 65 68 75
3 71 69 78
3 78 79 81
3 78 29 79
3 78 69 29
3 24 29 69
3 73 80 72
3 79 29 25
3 79 25 82
3 72 80 25
3 80 82 25
3 33 34 83
3 33 83 35
3 76 75 84
3 75 77 84
3 37 38 85
3 37 85 39
3 81 79 86
3 79 82 86
3 41 42 87
3 44 43 83
3 44 83 87
3 34 41 83
3 41 87 83
3 83 43 35
3 89 88 90
3 89 91 88
3 85 38 45
3 85 45 39
3 47 48 92
3 47 92 49
3 51 52 93
3 54 51 93
3 94 54 93
3 56 55 87
3 56 87 94
3 42 54 87
3 54 94 87
3 87 55 44
3 90 88 95
3 88 91 95
3 92 48 57
3 92 57 49
3 93 52 58
3 94 93 58
3 59 94 58
3 94 59 56
3 98 97 96
3 97 100 99
3 96 97 99
3 100 102 101
3 99 100 101
3 63 101 102
3 63 102 62
3 104 103 102
3 103 62 102
3 62 103 64
3 66 67 105
3 66 105 68
3 108 107 106
3 107 110 109
3 106 107 109
3 98 109 110
3 98 71 109
3 98 96 71
3 70 71 96
3 112 113 111
3 112 111 115
3 70 96 73
3 96 114 73
3 96 99 114
3 116 117 114
3 116 114 101
3 101 114 99
3 103 104 116
3 103 116 74
3 101 63 116
3 63 74 116
3 103 74 64
3 118 105 67
3 76 118 67
3 77 68 120
3 77 120 119
3 68 105 120
3 121 120 118
3 105 118 120
3 120 122 119
3 108 106 123
3 106 109 124
3 123 106 124
3 111 113 124
3 111 124 78
3 109 71 124
3 71 78 124
3 111 126 115
3 111 125 126
3 111 78 125
3 81 125 78
3 73 114 80
3 80 114 117
3 80 117 82
3 126 125 117
3 125 82 117
3 118 76 84
3 77 119 127
3 77 127 84
3 121 118 127
3 118 84 127
3 119 122 127
3 125 81 86
3 125 86 82
3 89 90 128
3 89 128 91
3 128 90 95
3 128 95 91
3 97 98 129
3 100 97 129
3 130 100 129
3 102 100 130
3 131 102 130
3 102 131 104
3 107 108 132
3 110 107 132
3 133 110 132
3 110 129 98
3 110 135 129
3 110 133 135
3 136 135 133
3 113 112 134
3 112 115 134
3 129 135 137
3 129 137 130
3 137 135 138
3 116 139 117
3 140 131 141
3 131 137 141
3 131 130 137
3 140 143 104
3 140 104 131
3 143 142 104
3 116 104 139
3 142 139 104
3 143 144 142
3 120 121 145
3 120 145 122
3 132 108 123
3 133 132 123
3 124 133 123
3 113 134 146
3 113 146 124
3 136 133 146
3 133 124 146
3 146 147 149
3 146 126 147
3 146 134 126
3 115 126 134
3 138 148 137
3 126 151 147
3 126 150 151
3 126 117 150
3 139 150 117
3 137 148 141
3 139 142 152
3 150 139 152
3 142 144 152
3 145 121 127
3 145 127 122
3 149 147 153
3 147 151 153
3 156 155 154
3 155 157 154
3 156 154 158
3 154 157 158
3 161 160 159
3 160 162 159
3 165 164 163
3 164 167 166
3 163 164 166
3 168 169 166
3 168 166 159
3 167 161 166
3 161 159 166
3 159 162 168
3 172 171 170
3 171 173 170
3 136 175 174
3 135 136 174
3 135 174 176
3 138 135 176
3 163 140 141
3 163 141 165
3 165 141 177
3 166 140 163
3 143 140 166
3 143 166 169
3 143 169 144
3 144 169 178
3 180 172 170
3 179 180 170
3 173 181 179
3 170 173 179
3 184 183 182
3 183 185 182
3 175 136 146
3 186 175 146
3 138 176 187
3 138 187 148
3 176 186 187
3 149 187 146
3 186 146 187
3 150 188 187
3 150 187 151
3 188 177 187
3 148 187 141
3 177 141 187
3 188 150 189
3 150 152 189
3 189 152 144
3 178 189 144
3 180 179 190
3 179 181 190
3 184 182 191
3 182 185 191
3 187 149 153
3 187 153 151
3 193 192 194
3 193 195 192
3 198 197 196
3 197 199 196
3 202 201 200
3 203 204 200
3 203 200 192
3 201 194 200
3 194 192 200
3 192 195 203
3 198 196 205
3 208 205 196
3 208 196 206
3 199 207 196
3 207 206 196
3 156 206 207
3 156 207 155
3 210 209 207
3 209 155 207
3 155 209 157
3 202 200 211
3 200 204 211
3 208 206 212
3 209 210 212
3 209 212 158
3 206 156 212
3 156 158 212
3 209 158 157
3 215 214 213
3 214 217 216
3 213 214 216
3 217 219 218
3 216 217 218
3 161 218 219
3 161 219 160
3 221 220 219
3 220 160 219
3 222 162 160
3 222 160 223
3 220 224 160
3 224 223 160
3 223 225 222
3 227 215 213
3 226 227 213
3 165 216 164
3 165 226 216
3 226 213 216
3 218 164 216
3 167 164 218
3 218 161 167
3 220 221 229
3 169 168 228
3 168 231 228
3 168 230 231
3 168 162 230
3 222 230 162
3 220 229 224
3 234 230 222
3 234 222 232
3 225 233 222
3 233 232 222
3 172 232 233
3 172 233 171
3 236 235 233
3 235 171 233
3 171 235 173
3 175 238 237
3 174 175 237
3 227 226 239
3 227 239 174
3 227 174 237
3 176 174 239
3 226 177 239
3 165 177 226
3 242 240 241
3 243 169 228
3 243 178 169
3 240 244 241
3 231 245 243
3 228 231 243
3 247 234 232
3 246 247 232
3 232 172 246
3 246 172 180
3 235 236 249
3 235 249 248
3 181 173 251
3 181 251 250
3 173 235 251
3 252 251 248
3 235 248 251
3 184 250 251
3 184 251 183
3 254 253 251
3 253 183 251
3 183 253 185
3 257 256 255
3 256 258 255
3 186 259 260
3 186 260 175
3 175 260 238
3 176 259 186
3 176 239 259
3 239 261 259
3 188 239 177
3 188 262 239
3 262 261 239
3 189 262 188
3 189 263 262
3 264 240 242
3 189 266 263
3 189 265 266
3 189 178 265
3 243 265 178
3 240 264 244
3 269 265 243
3 269 243 267
3 245 268 243
3 268 267 243
3 270 271 267
3 270 267 246
3 268 247 267
3 247 246 267
3 248 249 270
3 248 270 190
3 246 180 270
3 180 190 270
3 181 250 272
3 181 272 190
3 252 248 272
3 248 190 272
3 253 254 272
3 253 272 191
3 250 184 272
3 184 191 272
3 253 191 185
3 257 255 273
3 255 258 273
3 260 259 274
3 276 274 259
3 276 259 275
3 275 259 261
3 194 262 193
3 194 275 262
3 275 261 262
3 193 277 195
3 193 262 277
3 262 263 277
3 266 279 278
3 266 278 263
3 263 278 277
3 269 278 279
3 269 198 278
3 269 267 198
3 197 198 267
3 281 282 280
3 197 267 271
3 197 271 199
3 281 280 271
3 280 199 271
3 285 284 283
3 275 201 202
3 276 275 202
3 276 202 283
3 276 283 284
3 201 275 194
3 204 203 286
3 286 287 288
3 203 287 286
3 203 277 287
3 203 195 277
3 277 278 289
3 287 277 289
3 280 282 289
3 280 289 205
3 278 198 289
3 198 205 289
3 207 199 280
3 207 280 290
3 205 208 280
3 208 290 280
3 207 290 210
3 285 283 291
3 283 202 211
3 283 211 291
3 291 211 292
3 204 286 293
3 204 293 211
3 211 293 292
3 286 288 293
3 290 208 212
3 290 212 210
3 214 215 294
3 294 296 295
3 294 295 214
3 214 295 217
3 298 297 219
3 298 219 295
3 295 219 217
3 299 221 219
3 299 219 300
3 297 301 219
3 301 300 219
3 224 299 300
3 224 300 223
3 303 302 300
3 302 223 300
3 223 302 225
3 306 305 304
3 304 305 307
3 304 307 215
3 304 215 227
3 294 215 307
3 294 307 296
3 298 308 297
3 297 308 301
3 221 299 229
3 299 224 229
3 302 303 230
3 303 231 230
3 303 309 231
3 233 225 302
3 233 302 310
3 230 234 302
3 234 310 302
3 233 310 236
3 313 312 311
3 312 315 314
3 311 312 314
3 306 314 315
3 306 238 314
3 306 304 238
3 237 238 304
3 317 318 316
3 304 227 237
3 317 316 319
3 241 320 242
3 241 244 320
3 309 321 231
3 321 245 231
3 322 310 234
3 247 322 234
3 310 322 249
3 236 310 249
3 251 252 323
3 251 323 254
3 324 325 313
3 324 313 257
3 311 256 313
3 256 257 313
3 325 324 327
3 256 311 258
3 311 326 258
3 311 314 326
3 314 260 326
3 314 238 260
3 316 318 328
3 316 328 319
3 330 331 329
3 320 264 242
3 320 244 264
3 330 329 265
3 330 265 332
3 265 329 266
3 245 321 333
3 245 333 268
3 321 332 333
3 269 333 265
3 332 265 333
3 271 270 322
3 271 322 333
3 247 268 322
3 268 333 322
3 322 270 249
3 323 252 272
3 323 272 254
3 335 334 336
3 335 337 334
3 324 257 273
3 258 326 338
3 258 338 273
3 327 324 338
3 324 273 338
3 326 260 274
3 326 274 338
3 338 274 339
3 340 274 276
3 340 341 274
3 341 339 274
3 341 342 343
3 340 342 341
3 343 342 345
3 331 344 329
3 347 346 279
3 344 347 279
3 344 279 266
3 344 266 329
3 282 281 333
3 282 333 346
3 269 279 333
3 279 346 333
3 333 281 271
3 349 348 350
3 349 351 348
3 336 334 352
3 334 337 352
3 284 285 353
3 276 284 353
3 276 353 340
3 340 353 354
3 355 354 356
3 355 342 354
3 342 340 354
3 357 288 287
3 357 358 288
3 355 345 342
3 346 347 357
3 346 357 289
3 289 357 287
3 346 289 282
3 350 348 359
3 348 351 359
3 362 361 360
3 361 363 360
3 353 285 291
3 354 353 291
3 292 354 291
3 356 354 292
3 356 292 364
3 364 292 293
3 364 293 288
3 358 364 288
3 362 360 365
3 360 363 365
3 295 296 366
3 295 366 298
3 301 368 367
3 300 301 367
3 300 367 369
3 303 300 369
3 305 306 370
3 370 372 371
3 370 371 305
3 305 371 307
3 296 373 366
3 296 307 373
3 307 371 373
3 366 308 298
3 366 373 308
3 373 374 308
3 374 301 308
3 368 301 374
3 369 375 303
3 375 309 303
3 312 313 376
3 315 312 376
3 377 315 376
3 318 317 370
3 318 370 377
3 306 315 370
3 315 377 370
3 317 372 370
3 317 319 372
3 319 378 372
3 381 379 380
3 380 379 321
3 380 321 375
3 375 321 309
3 376 313 325
3 325 327 382
3 325 382 376
3 376 382 377
3 318 377 382
3 318 382 383
3 318 383 328
3 384 383 382
3 383 319 328
3 378 319 383
3 331 385 386
3 330 385 331
3 381 388 379
3 389 385 387
3 385 332 387
3 385 330 332
3 387 332 321
3 387 321 390
3 379 388 321
3 388 390 321
3 335 336 391
3 335 391 337
3 382 327 338
3 384 382 338
3 384 338 392
3 392 338 339
3 392 339 393
3 339 341 393
3 393 341 394
3 341 343 394
3 386 395 331
3 331 395 344
3 396 394 343
3 396 343 345
3 398 347 387
3 398 387 397
3 347 344 387
3 389 387 395
3 344 395 387
3 387 390 397
3 349 350 399
3 349 399 351
3 352 400 402
3 352 402 336
3 401 391 402
3 391 336 402
3 400 352 337
3 400 337 403
3 391 401 337
3 401 403 337
3 355 356 404
3 357 405 404
3 357 404 358
3 405 396 404
3 355 404 345
3 396 345 404
3 405 357 347
3 398 405 347
3 399 350 359
3 399 359 351
3 361 362 406
3 402 400 407
3 406 363 361
3 400 403 407
3 404 356 364
3 404 364 358
3 406 362 365
3 406 365 363
3 367 368 408
3 367 408 369
3 371 372 409
3 373 371 409
3 410 373 409
3 410 412 411
3 410 411 373
3 373 411 374
3 368 374 411
3 368 411 413
3 368 413 408
3 413 411 414
3 408 413 375
3 369 408 375
3 415 409 372
3 378 415 372
3 416 415 417
3 416 410 415
3 410 409 415
3 410 416 412
3 413 381 380
3 413 414 381
3 414 418 381
3 413 380 375
3 420 419 421
3 420 422 419
3 383 384 423
3 423 425 424
3 383 423 424
3 383 424 415
3 383 415 378
3 415 424 417
3 386 426 427
3 385 426 386
3 381 418 428
3 381 428 388
3 418 426 428
3 389 428 385
3 426 385 428
3 421 419 429
3 428 390 388
3 419 422 429
3 423 384 392
3 423 392 393
3 423 393 431
3 423 431 425
3 430 431 393
3 394 430 393
3 432 430 394
3 432 394 396
3 434 433 386
3 434 386 427
3 386 433 395
3 398 397 428
3 398 428 433
3 389 395 428
3 395 433 428
3 428 397 390
3 401 402 435
3 401 435 403
3 431 430 436
3 430 432 437
3 436 430 437
3 433 434 437
3 433 437 405
3 432 396 437
3 396 405 437
3 433 405 398
3 435 402 407
3 435 407 403
3 411 412 438
3 411 438 414
3 416 417 439
3 412 416 439
3 412 439 438
3 438 439 440
3 438 440 418
3 414 438 418
3 420 421 441
3 420 441 422
3 424 425 442
3 417 424 442
3 417 442 439
3 439 442 443
3 427 426 440
3 427 440 443
3 443 440 439
3 440 426 418
3 441 421 429
3 441 429 422
3 444 442 425
3 431 444 425
3 442 444 443
3 443 444 445
3 443 445 434
3 427 443 434
3 448 447 446
3 447 449 446
3 444 431 436
3 445 444 436
3 437 445 436
3 445 437 434
3 448 446 450
3 446 449 450
3 453 452 451
3 452 455 454
3 451 452 454
3 455 456 454
3 447 448 457
3 447 457 449
3 453 451 458
3 451 454 459
3 458 451 459
3 454 456 459
3 457 448 450
3 457 450 449
3 452 453 460
3 455 452 460
3 461 455 460
3 455 461 456
3 460 453 458
3 461 460 458
3 459 461 458
3 461 459 456
