ply
format ascii 1.0
element vertex 214
property float x
property float y
property float z
property uchar red
property uchar green
property uchar blue
element face 424
property list uchar int vertex_indices
end_header
-9.43528175354003906 -5 6 35 36 35
-9 -5.75966119766235352 6 10 216 49
-9 -5 5.55618190765380859 40 200 4
-9 -5 6.06544017791748047 21 199 21
-9.65668296813964844 -4 5 64 118 50
-9 -4.66445207595825195 5 40 200 4
-9 -4 4.73159217834472656 101 165 29
-9 -4.33928012847900391 6 21 199 21
-9 -4 5.82854986190795898 68 196 0
-9.73750209808349609 -3 5 26 33 22
-9 -3 4.15862274169921875 123 177 17
-9 -3 5.39349460601806641 89 183 2
-9.67435646057128906 -2 4 64 89 25
-9 -2.79631924629211426 4 123 177 17
-9 -2 3.65243792533874512 152 159 44
-9.47860336303710938 -2 5 62 63 62
-9 -2 5.07534217834472656 93 151 12
-9.63144397735595703 -1 4 6 7 3
-9 -1 3.11246681213378906 172 172 26
-9 -1.82463014125823975 5 93 151 12
-9 -1 4.28414726257324219 135 163 0
-9.16387653350830078 0 3 22 24 6
-9 -0.474448472261428833 3 172 172 26
-9 0 2.93280482292175293 173 149 53
-9 -0.570483982563018799 4 135 163 0
-9 0 3.07929897308349609 166 160 9
-9 0.0543172918260097504 3 166 160 9
-8.14948272705078125 -6 7 92 162 118
-8 -6.51907110214233398 7 9 214 107
-8 -6 6.84654426574707031 5 150 14
-8 -6 7.3227534294128418 11 205 60
-8.82026100158691406 -5 6 21 199 21
-8.24463272094726562 -5 7 82 105 86
-8 -5 6.49665689468383789 23 150 3
-8 -5 7.42463350296020508 19 194 31
-8.86855697631835938 -4 5 68 196 0
-8.70768260955810547 -4 6 59 168 38
-8 -4.21408605575561523 6 23 150 3
-8 -4 5.92952966690063477 36 60 13
-8.19933128356933594 -4 7 22 23 22
-8 -4 7.306304931640625 48 175 35
-8.67844009399414062 -3 5 89 183 2
-8.49730873107910156 -3 6 66 112 47
-8 -3 5.58047676086425781 62 91 13
-8.08861923217773438 -3 7 48 69 45
-8 -3 7.12599658966064453 70 138 50
-8.86754417419433594 -2 4 138 179 5
-8.16294288635253906 -2 5 93 151 12
-8.32331562042236328 -2 6 24 29 20
-8 -2 5.03213024139404297 89 120 9
-8 -2.49080777168273926 7 70 138 50
-8 -2 6.69865083694458008 83 154 6
-8.77959537506103516 -1 4 135 163 0
-8.43830490112304688 -1 5 66 91 21
-8 -1.94962084293365479 5 89 120 9
-8 -1 4.6427617073059082 73 74 20
-8.14317035675048828 -1 6 68 69 68
-8 -1 6.25452184677124023 78 122 17
-8.98286819458007812 0 3 166 160 9
-8.22513198852539062 0 5 0 0 0
-8 0 4.15751791000366211 110 109 17
-8 -0.359241992235183716 6 78 122 17
-8 0 5.66135454177856445 106 129 0
-8.11677837371826172 1 4 36 41 6
-8 0.341136336326599121 4 110 109 17
-8 1 3.78038740158081055 95 84 34
-8.01895809173583984 1 5 98 105 80
-8 1 5.04114866256713867 76 92 4
-8 1.68710219860076904 4 122 121 7
-8 1.06226050853729248 5 76 92 4
-7.85927009582519531 -6 7 11 205 60
-7.46519136428833008 -6 8 107 174 137
-7 -6.99529218673706055 8 25 208 128
-7 -6 7.76986551284790039 0 118 17
-7 -6 8.71759605407714844 24 198 84
-7.56554460525512695 -5 7 19 194 31
-7.50251483917236328 -5 8 104 128 110
-7 -5 7.48746633529663086 6 115 0
-7 -5 8.82991123199462891 33 188 57
-7.94754362106323242 -4 6 47 158 0
-7 -4.03267002105712891 7 6 115 0
-7 -4 6.99102640151977539 8 15 2
-7.38607692718505859 -4 8 53 57 53
-7 -4 8.85633087158203125 50 173 50
-7.70586585998535156 -3 6 69 163 0
-7 -3 6.70239543914794922 10 16 2
-7.22561979293823242 -3 8 22 33 21
-7 -3 8.82958412170410156 75 141 65
-7.38215970993041992 -2 6 83 154 6
-7.74361371994018555 -2 7 54 74 45
-7 -2 6.33084964752197266 39 57 3
-7.0352935791015625 -2 8 58 126 48
-7 -2 8.48601627349853516 65 83 59
-7.7942357063293457 -1 5 107 136 2
-7 -1.38924658298492432 6 39 57 3
-7 -1 5.85968828201293945 28 30 8
-7.38514375686645508 -1 7 14 16 14
-7 -1.86785542964935303 8 65 83 59
-7 -1 7.50866985321044922 72 123 19
-7.57982683181762695 0 5 106 129 0
-7.71690273284912109 0 6 43 58 18
-7 0 5.51555728912353516 25 26 4
-7.11515665054321289 0 7 103 116 92
-7 0 7.14253950119018555 52 75 25
-7.9019932746887207 1 4 122 121 7
-7 0.991384506225585938 5 25 26 4
-7 1 4.99640464782714844 23 21 10
-7.27739286422729492 1 6 30 35 20
-7 0.358825206756591797 7 52 75 25
-7 1 6.4723658561706543 72 95 3
-7.20315933227539062 2 5 13 16 3
-7 2 4.75412321090698242 37 34 11
-7 1.91972970962524414 6 72 95 3
-7 2 5.83104467391967773 79 86 1
-7 2.72143697738647461 5 79 86 1
-6.70369911193847656 -6 8 24 198 84
-6.35287952423095703 -5 8 33 188 57
-6.99097681045532227 -4 7 27 127 0
-6 -4.39357948303222656 8 1 118 6
-6 -4 7.90882539749145508 14 37 3
-6 -4 8.63327693939208984 16 127 2
-6.7074122428894043 -3 7 49 139 1
-6 -3 7.65100812911987305 4 8 0
-6 -3 8.8495330810546875 39 138 8
-6.34653377532958984 -2 7 67 141 8
-6 -2 7.3119807243347168 18 32 0
-6 -2 8.88732433319091797 60 139 20
-6.88319826126098633 -1 6 66 91 1
-6 -1.38472580909729004 7 18 32 0
-6 -1 6.87783575057983398 75 84 18
-6.54801559448242188 -1 8 1 1 1
-6 -1 8.88276100158691406 69 120 35
-6.60906839370727539 0 6 81 107 0
-6 0 6.57601213455200195 23 26 3
-6.19020795822143555 0 8 81 103 70
-6 0 8.79567623138427734 52 72 36
-6.99749088287353516 1 5 67 70 6
-6.21258926391601562 1 6 72 95 3
-6.54794979095458984 1 7 4 5 3
-6 1 6.16625165939331055 25 28 1
-6 0.513003826141357422 8 52 72 36
-6 1 7.61755609512329102 61 90 6
-6.83776044845581055 2 5 79 86 1
-6.85803794860839844 2 6 35 46 6
-6 1.33854234218597412 6 25 28 1
-6 2 5.80777549743652344 35 34 9
-6.11526346206665039 2 7 105 110 100
-6 2 7.12394571304321289 35 50 10
-6.14515972137451172 3 6 32 41 14
-6 3 5.69062995910644531 22 22 3
-6 2.25334024429321289 7 35 50 10
-6 3 6.2113041877746582 46 59 0
-6 3.3014218807220459 6 46 59 0
-5.87824106216430664 -4 8 16 127 2
-5.53017377853393555 -3 8 39 138 8
-5.02119016647338867 -2 8 60 139 20
-5.86272430419921875 -1 7 44 71 0
-5 -1.96542835235595703 8 25 56 0
-5 -1 7.74667215347290039 64 83 8
-5 -1 8.82641696929931641 45 88 2
-5.51501750946044922 0 7 62 94 1
-5 0 7.45268917083740234 20 26 1
-5 0 8.87988758087158203 59 102 9
-5 0.961354374885559082 7 20 26 1
-5 1 6.98724699020385742 128 128 34
-5.64357280731201172 1 8 8 9 7
-5 1 8.86970615386962891 57 89 20
-5.81393194198608398 2 6 52 61 0
-5 2 6.73911237716674805 58 61 10
-5.11230707168579102 2 8 105 114 100
-5 2 8.66344547271728516 28 39 16
-5.68229532241821289 3 6 46 59 0
-5.31129264831542969 3 7 23 30 13
-5 3 6.5600438117980957 1 1 0
-5 2.20443296432495117 8 28 39 16
-5 3 7.27683544158935547 38 56 2
-5 3.51069045066833496 7 38 56 2
-4.60921049118041992 -1 8 45 88 2
-4.0805201530456543 0 8 59 102 9
-4.98324823379516602 1 7 21 27 0
-4 0.137175694108009338 8 15 24 0
-4 1 7.77988195419311523 89 102 11
-4 1 8.80139255523681641 40 64 1
-4.63825559616088867 2 7 43 59 0
-4 2 7.53442478179931641 29 35 1
-4 2 8.84661579132080078 48 77 7
-4.24108409881591797 3 7 38 56 2
-4.26966762542724609 3 8 41 49 35
-4 3 7.24774980545043945 14 19 0
-4 3 8.73907947540283203 34 53 12
-4.13590764999389648 4 7 5 8 1
-4 3.67824697494506836 7 14 19 0
-4 4 6.95817470550537109 41 46 7
-4 3.35547876358032227 8 34 53 12
-4 4 7.07933473587036133 27 42 0
-4 4.11009645462036133 7 27 42 0
-3.5839073657989502 1 8 40 64 1
-3 1.96087682247161865 8 15 22 0
-3 2 7.98872041702270508 129 139 22
-3 2 8.18735694885253906 22 32 0
-3 3 7.80007076263427734 58 68 6
-3 3 8.74189853668212891 38 63 2
-3.92048859596252441 4 7 27 42 0
-3.17043304443359375 4 8 10 15 6
-3 4 7.82922506332397461 2 2 0
-3 4 8.51341438293457031 30 53 7
-3 4.13849830627441406 8 30 53 7
-2.97434115409851074 2 8 22 32 0
-2.46806812286376953 3 8 38 63 2
-2 3.95040059089660645 8 16 25 0
-2 4 7.99062490463256836 53 65 6
-2 4 8.11660861968994141 34 60 1
-2 4.05478715896606445 8 34 60 1
-1.9663996696472168 4 8 34 60 1
3 2 1 0
3 1 3 0
3 6 5 4
3 7 8 4
3 7 4 0
3 5 2 4
3 2 0 4
3 0 3 7
3 10 6 4
3 9 10 4
3 8 11 9
3 4 8 9
3 14 13 12
3 13 10 9
3 13 9 12
3 12 9 15
3 11 16 15
3 9 11 15
3 18 14 12
3 17 18 12
3 19 20 17
3 19 17 15
3 15 17 12
3 15 16 19
3 23 22 21
3 24 25 21
3 24 21 17
3 22 18 21
3 18 17 21
3 17 20 24
3 23 21 26
3 21 25 26
3 29 28 27
3 28 30 27
3 1 2 31
3 33 29 1
3 33 1 31
3 29 27 1
3 3 1 32
3 27 32 1
3 30 34 32
3 27 30 32
3 5 6 35
3 5 31 2
3 5 37 31
3 5 35 37
3 38 37 35
3 8 7 36
3 37 33 31
3 36 7 32
3 36 32 39
3 32 7 3
3 34 40 39
3 32 34 39
3 41 35 6
3 10 41 6
3 36 11 8
3 36 42 11
3 35 41 38
3 41 43 38
3 36 39 42
3 39 44 42
3 40 45 44
3 39 40 44
3 13 14 46
3 10 13 46
3 10 46 41
3 41 46 47
3 42 16 11
3 42 48 16
3 41 47 43
3 47 49 43
3 50 51 48
3 50 48 44
3 44 48 42
3 44 45 50
3 52 46 14
3 18 52 14
3 19 53 20
3 54 47 55
3 47 52 55
3 47 46 52
3 54 49 47
3 53 19 48
3 53 48 56
3 48 19 16
3 51 57 56
3 48 51 56
3 22 23 58
3 25 24 52
3 25 52 58
3 18 22 52
3 22 58 52
3 53 59 24
3 53 24 20
3 59 60 24
3 52 24 55
3 60 55 24
3 61 62 59
3 61 59 56
3 56 59 53
3 56 57 61
3 58 23 26
3 58 26 25
3 64 63 65
3 64 60 59
3 64 59 63
3 63 59 66
3 62 67 66
3 59 62 66
3 65 63 68
3 63 66 69
3 68 63 69
3 66 67 69
3 28 29 70
3 71 30 28
3 71 28 72
3 70 73 28
3 73 72 28
3 72 74 71
3 75 70 29
3 33 75 29
3 71 34 30
3 71 76 34
3 70 75 73
3 75 77 73
3 74 78 76
3 71 74 76
3 37 38 79
3 79 81 80
3 37 79 80
3 37 80 75
3 37 75 33
3 34 82 40
3 34 76 82
3 77 75 80
3 78 83 82
3 76 78 82
3 84 79 38
3 43 84 38
3 81 84 85
3 79 84 81
3 86 40 82
3 45 40 86
3 83 87 86
3 82 83 86
3 88 84 43
3 49 88 43
3 88 85 84
3 88 90 85
3 89 51 50
3 45 89 50
3 45 86 89
3 86 91 89
3 87 92 91
3 86 87 91
3 54 55 93
3 93 95 94
3 54 93 94
3 54 94 88
3 54 88 49
3 51 96 57
3 51 89 96
3 90 88 94
3 97 98 96
3 97 96 91
3 91 96 89
3 91 92 97
3 99 93 55
3 60 99 55
3 99 95 93
3 99 101 95
3 100 62 61
3 57 100 61
3 57 96 100
3 96 102 100
3 98 103 102
3 96 98 102
3 64 65 104
3 104 106 105
3 64 104 105
3 64 105 99
3 64 99 60
3 62 107 67
3 62 100 107
3 101 99 105
3 108 109 107
3 108 107 102
3 102 107 100
3 102 103 108
3 104 65 68
3 104 68 69
3 104 69 111
3 104 111 106
3 110 111 69
3 110 112 113
3 69 112 110
3 69 107 112
3 69 67 107
3 107 109 112
3 111 110 114
3 110 113 114
3 72 73 115
3 72 115 74
3 116 115 73
3 77 116 73
3 115 116 78
3 74 115 78
3 80 81 117
3 117 119 118
3 80 117 118
3 80 118 116
3 80 116 77
3 116 118 120
3 116 120 78
3 78 120 83
3 121 117 81
3 85 121 81
3 119 121 122
3 117 121 119
3 120 123 83
3 123 87 83
3 124 121 85
3 90 124 85
3 122 124 125
3 121 124 122
3 123 126 87
3 126 92 87
3 94 95 127
3 127 129 128
3 94 127 128
3 94 128 124
3 94 124 90
3 124 128 125
3 98 97 130
3 130 97 92
3 130 92 131
3 131 92 126
3 132 127 95
3 101 132 95
3 129 132 133
3 127 132 129
3 134 98 130
3 103 98 134
3 131 135 134
3 130 131 134
3 105 106 136
3 101 105 136
3 101 136 132
3 132 136 137
3 137 133 132
3 137 139 133
3 138 109 108
3 138 140 141
3 108 140 138
3 108 134 140
3 108 103 134
3 134 135 140
3 142 136 106
3 111 142 106
3 112 143 113
3 144 137 145
3 137 142 145
3 137 136 142
3 144 139 137
3 143 112 138
3 143 138 146
3 138 112 109
3 141 147 146
3 138 141 146
3 142 111 114
3 143 148 114
3 143 114 113
3 148 149 114
3 142 114 145
3 149 145 114
3 150 151 148
3 150 148 146
3 146 148 143
3 146 147 150
3 149 148 152
3 148 151 152
3 118 119 153
3 118 153 120
3 154 153 119
3 122 154 119
3 153 154 123
3 120 153 123
3 155 154 122
3 125 155 122
3 154 155 126
3 123 154 126
3 128 129 156
3 156 158 157
3 128 156 157
3 128 157 155
3 128 155 125
3 155 157 159
3 155 159 126
3 126 159 131
3 160 156 129
3 133 160 129
3 158 160 161
3 156 160 158
3 159 162 131
3 162 135 131
3 163 160 133
3 163 133 164
3 164 133 139
3 160 163 161
3 141 140 165
3 165 140 135
3 165 135 166
3 166 135 162
3 144 145 167
3 167 139 144
3 167 168 139
3 168 164 139
3 169 141 165
3 147 141 169
3 166 170 169
3 165 166 169
3 171 167 145
3 149 171 145
3 171 168 167
3 171 173 168
3 172 151 150
3 172 174 175
3 150 174 172
3 150 169 174
3 150 147 169
3 169 170 174
3 171 149 152
3 151 172 176
3 151 176 152
3 173 171 176
3 171 152 176
3 172 175 176
3 157 158 177
3 157 177 159
3 178 177 158
3 161 178 158
3 177 178 162
3 159 177 162
3 163 164 179
3 179 181 180
3 163 179 180
3 163 180 178
3 163 178 161
3 178 180 182
3 178 182 162
3 162 182 166
3 183 179 164
3 168 183 164
3 181 183 184
3 179 183 181
3 182 185 166
3 185 170 166
3 186 183 168
3 173 186 168
3 186 184 183
3 186 188 184
3 187 175 174
3 187 174 170
3 187 170 189
3 189 170 185
3 176 190 192
3 176 192 173
3 191 186 192
3 186 173 192
3 176 194 190
3 176 193 194
3 176 175 193
3 187 193 175
3 186 191 188
3 187 189 193
3 192 190 195
3 190 194 195
3 180 181 196
3 180 196 182
3 197 196 181
3 197 181 198
3 198 181 184
3 196 197 199
3 196 199 182
3 182 199 185
3 198 184 200
3 200 184 188
3 199 201 185
3 201 189 185
3 191 192 202
3 203 194 193
3 202 204 191
3 204 188 191
3 204 200 188
3 203 193 189
3 203 189 205
3 205 189 201
3 202 192 195
3 194 203 206
3 194 206 195
3 204 202 206
3 202 195 206
3 203 205 206
3 197 198 207
3 197 207 199
3 208 207 198
3 200 208 198
3 207 208 201
3 199 207 201
3 209 208 200
3 209 200 210
3 210 200 204
3 208 209 211
3 208 211 201
3 201 211 205
3 210 204 206
3 212 210 206
3 212 206 205
3 211 212 205
3 209 210 213
3 209 213 211
3 213 210 212
3 213 212 211
