ply
format ascii 1.0
element vertex 716
property float x
property float y
property float z
property uchar red
property uchar green
property uchar blue
element face 1520
property list uchar int vertex_indices
end_header
-9.83248329162597656 8 -9 106 91 21
-9 7.35725736618041992 -9 170 242 54
-9 8 -9.83248329162597656 7 30 9
-9.86447048187255859 8 -8 43 24 95
-9 7.4475550651550293 -8 219 255 152
-9 8 -7.73299503326416016 252 239 30
-9.84406566619873047 8 -4 35 139 14
-9 7.35967302322387695 -4 91 39 114
-9 8 -4.9193110466003418 144 17 156
-9.83175849914550781 8 -3 142 0 145
-9 7.54920339584350586 -3 95 45 104
-9.80806732177734375 8 -2 105 0 115
-9 7.91344833374023438 -2 89 145 2
-9.70770835876464844 8 -1 25 7 40
-9 7.91285467147827148 -1 246 97 0
-9 8 -0.937572777271270752 82 25 87
-9.68045139312744141 8 1 64 11 73
-9 7.74749517440795898 1 200 233 0
-9 8 0.944680750370025635 177 159 0
-9.21418857574462891 8 2 63 9 72
-9 7.96016597747802734 2 200 236 0
-9 8 2.00750160217285156 0 167 75
-9.39721393585205078 8 4 4 0 11
-9 7.97017240524291992 4 255 61 0
-9 8 3.9820549488067627 0 88 39
-9 8 4.02859306335449219 75 12 82
-9.68100547790527344 8 6 103 0 109
-9 7.81798076629638672 6 83 21 96
-9 8 5.91294240951538086 216 119 0
-9.66665554046630859 8 7 46 162 0
-9 7.76405954360961914 7 76 18 94
-9 8 7.21300220489501953 17 3 40
-9 8.83248329162597656 -9 15 27 18
-9 8.86447048187255859 -8 252 239 30
-9 8.84406566619873047 -4 32 19 57
-9 8.83175849914550781 -3 80 23 99
-9 8.80806732177734375 -2 4 0 8
-9 8.70770835876464844 -1 82 25 87
-9 8.68045139312744141 1 0 142 123
-9 8.21418857574462891 2 0 167 75
-9 8.39721393585205078 4 75 12 82
-9 8.68100547790527344 6 64 0 83
-9 8.66665554046630859 7 17 3 40
-8 7.32061147689819336 -9 183 253 166
-8 8 -9.87194252014160156 17 23 14
-8.35107612609863281 8 -8 252 239 30
-8 8 -8.33634471893310547 199 244 59
-8.21113777160644531 8 -7 114 40 170
-8 7.62708425521850586 -7 144 54 177
-8 8 -7.57593297958374023 22 43 74
-8 8 -6.45086669921875 165 130 70
-8.83806037902832031 8 -5 144 17 156
-8 7.74248790740966797 -5 88 55 103
-8 8 -5.38985586166381836 104 32 147
-8 7.83606815338134766 -4 163 168 27
-8 7.59497213363647461 -3 228 83 9
-8.16101360321044922 8 -2 4 0 8
-8 8 -2.13042712211608887 7 56 82
-8 7.89915990829467773 -1 255 102 0
-8 8 -1.59096443653106689 230 129 0
-8 8 -0.964970052242279053 3 2 11
-8.93175315856933594 8 1 0 142 123
-8.99244403839111328 8 2 0 167 75
-8.38085460662841797 8 4 75 12 82
-8.10714530944824219 8 5 216 119 0
-8 7.91205072402954102 5 104 15 115
-8 8 4.13109970092773438 2 1 19
-8.73920249938964844 8 6 64 0 83
-8 8 5.30747270584106445 0 193 2
-8.47651195526123047 8 7 17 3 40
-8 8.87194252014160156 -9 199 244 59
-8 8.82414913177490234 -7 165 130 70
-8 8.71087360382080078 -5 64 29 89
-8 8.67773723602294922 -4 92 50 101
-8 8.84343051910400391 -3 7 56 82
-8 8.53860950469970703 -1 3 2 11
-8 8.7287445068359375 5 0 193 2
-7.79260349273681641 8 -9 199 244 59
-7.49883699417114258 8 -8 22 43 74
-7 7.58877992630004883 -8 144 92 173
-7 8 -8.11660575866699219 45 86 42
-7.21372699737548828 8 -7 165 130 70
-7 8 -7.27054643630981445 188 116 106
-7 7.59413957595825195 -5 98 147 38
-7 8 -5.15634775161743164 70 99 41
-7.62606334686279297 8 -4 92 50 101
-7 8 -4.55774068832397461 97 64 110
-7 7.92511367797851562 -3 255 144 30
-7 8 -3.1244511604309082 228 66 33
-7 8 -2.87469053268432617 6 7 17
-7 7.46666574478149414 -1 255 38 13
-7 8 -1.53404915332794189 255 84 11
-7.12370014190673828 8 0 79 15 92
-7 7.55864906311035156 0 242 182 6
-7.12714338302612305 8 1 103 8 114
-7 7.77764749526977539 1 5 83 75
-7.09845829010009766 8 2 59 2 97
-7 7.81991958618164062 2 2 35 49
-7.0869598388671875 8 3 17 4 53
-7 7.64686489105224609 3 255 179 0
-7.86085224151611328 8 4 2 1 19
-7 7.67136383056640625 4 255 28 0
-7.59921836853027344 8 5 0 193 2
-7 8 4.38435745239257812 255 90 0
-7.54545831680297852 8 7 76 19 90
-7 7.91387128829956055 7 67 18 94
-7 8 6.94141292572021484 82 17 116
-7 8 7.74939107894897461 36 184 0
-7 8.77451133728027344 -8 188 116 106
-7 8.73628711700439453 -5 97 64 110
-7 8.33354854583740234 -3 6 7 17
-7 8.80016326904296875 -1 255 85 0
-7 8.81947422027587891 0 255 68 0
-7 8.80896854400634766 1 255 50 0
-7 8.79633712768554688 2 255 50 0
-7 8.78138542175292969 3 255 70 0
-7 8.71491527557373047 4 255 90 0
-7 8.68598461151123047 7 36 184 0
-6.2104334831237793 8 -9 45 86 42
-6 7.35800695419311523 -9 99 95 84
-6 8 -9.87398052215576172 214 246 210
-6 7.80054616928100586 -8 113 113 122
-6 8 -7.84422063827514648 136 84 176
-6.26167917251586914 8 -6 70 99 41
-6 7.36280393600463867 -6 129 142 50
-6 8 -6.66998147964477539 11 22 24
-6 7.904693603515625 -5 146 100 61
-6.15587329864501953 8 -4 228 66 33
-6 7.82242536544799805 -4 255 210 59
-6 7.38181257247924805 -3 255 92 52
-6.59858322143554688 8 -2 255 84 11
-6 7.43795108795166016 -2 255 245 132
-6 7.83340597152709961 -1 249 178 68
-6 7.79264497756958008 0 31 106 105
-6.46065902709960938 8 1 255 50 0
-6 8 0.276393204927444458 255 183 101
-6.54016351699829102 8 2 255 50 0
-6 7.84452342987060547 3 18 67 88
-6 8 2.76998567581176758 255 87 70
-6 7.89150762557983398 4 215 196 31
-6.42316532135009766 8 5 255 84 0
-6 7.64821434020996094 5 255 243 80
-6.05806255340576172 8 6 82 17 116
-6 7.74196290969848633 6 255 43 0
-6.49479770660400391 8 7 36 184 0
-6 8 6.50281429290771484 255 164 0
-6 8.87398052215576172 -9 15 29 32
-6 8.326751708984375 -8 136 84 176
-6 8.84226226806640625 -6 14 43 39
-6 8.74127483367919922 -5 15 17 32
-6 8.39400672912597656 -4 255 197 52
-6 8.83249092102050781 -3 255 166 39
-6 8.83895492553710938 -2 255 87 31
-6 8.82340335845947266 -1 255 120 25
-6 8.58010578155517578 0 255 183 101
-6 8.57842826843261719 3 255 188 80
-6 8.76719856262207031 4 255 88 0
-6 8.74662208557128906 5 255 68 0
-6 8.68392372131347656 6 255 164 0
-5 7.5515131950378418 -9 140 125 181
-5 8 -9.84085369110107422 37 52 49
-5 7.48551464080810547 -8 125 124 128
-5.64838504791259766 8 -7 11 22 24
-5 7.72112798690795898 -7 194 183 96
-5.47237920761108398 8 -6 14 43 39
-5 8 -6.49638891220092773 115 102 136
-5.49473285675048828 8 -5 15 17 32
-5 7.3455967903137207 -4 233 81 78
-5 8 -4.65880632400512695 239 216 81
-5 7.69052886962890625 -3 242 255 118
-5.4895782470703125 8 -2 255 87 31
-5 8 -2.52267742156982422 236 108 60
-5.51329374313354492 8 -1 255 120 25
-5 7.74282026290893555 0 255 102 85
-5 8 -0.358212739229202271 22 17 41
-5.53275156021118164 8 1 255 107 77
-5 7.67793512344360352 1 253 163 99
-5.45275449752807617 8 2 255 87 70
-5 7.70069646835327148 2 253 161 91
-5 7.83543109893798828 3 255 116 61
-5.06481695175170898 8 4 255 88 0
-5 8 3.90434432029724121 15 62 86
-5.7133636474609375 8 5 255 68 0
-5 7.85737800598144531 6 246 255 59
-5 8 5.75938129425048828 255 141 49
-5.47442007064819336 8 7 255 184 0
-5 7.76673078536987305 7 255 19 3
-5 8 7.2288970947265625 255 210 0
-5 8.84085369110107422 -9 142 125 164
-5 8.87326240539550781 -8 135 132 143
-5 8.82906436920166016 -7 115 102 136
-5 8.84416007995605469 -4 255 208 70
-5 8.82024478912353516 -3 236 108 60
-5 8.73294830322265625 0 19 46 66
-5 8.804840087890625 1 17 78 95
-5 8.79166793823242188 2 15 79 98
-5 8.68348598480224609 3 15 62 86
-5 8.69913101196289062 6 255 23 0
-5 8.65885448455810547 7 255 210 0
-4.79709243774414062 8 -9 142 125 164
-4 7.63006210327148438 -8 31 42 28
-4 8 -8.07828807830810547 218 255 186
-4.654815673828125 8 -7 115 102 136
-4 8 -7.83920192718505859 119 116 129
-4.36113405227661133 8 -6 69 53 87
-4 7.56451892852783203 -6 215 254 123
-4 8 -6.22702884674072266 176 220 118
-4.6385345458984375 8 -5 239 216 81
-4 7.38052082061767578 -5 213 122 98
-4 7.79829645156860352 -4 227 255 175
-4 7.87372303009033203 -3 56 42 91
-4.50325727462768555 8 -2 255 165 103
-4 7.62659931182861328 -2 251 147 143
-4.43662309646606445 8 -1 22 17 41
-4 7.697723388671875 -1 208 207 145
-4 7.83630275726318359 0 72 43 80
-4 7.71211576461791992 1 118 48 126
-4 7.73136186599731445 2 114 42 122
-4.37297582626342773 8 3 15 62 86
-4 8 2.71796894073486328 121 175 93
-4.92307853698730469 8 4 20 60 82
-4 7.78010749816894531 4 191 204 115
-4 8 3.3190922737121582 255 115 89
-4.28103351593017578 8 5 255 141 49
-4 7.7896728515625 5 255 105 105
-4.66398096084594727 8 6 255 23 0
-4 8 5.38434743881225586 16 100 98
-4.93695974349975586 8 7 255 210 0
-4.11903572082519531 8 8 255 195 17
-4 7.88087654113769531 8 255 127 19
-4 8 7.97028446197509766 81 29 142
-4 8 8.46783161163330078 232 255 2
-4 8.63806629180908203 -8 119 116 129
-4 8.72990036010742188 -6 35 50 40
-4 8.83209419250488281 -5 255 251 102
-4 8.71004962921142578 -4 163 156 67
-4 8.58485889434814453 -3 229 255 148
-4 8.83504390716552734 -2 29 78 77
-4 8.79214191436767578 -1 0 0 0
-4 8.42026901245117188 0 249 159 107
-4 8.77447795867919922 1 129 176 99
-4 8.76580619812011719 2 121 175 93
-4 8.73268985748291016 4 5 9 29
-4 8.74137210845947266 5 16 100 98
-4 8.46783161163330078 8 232 255 2
-3.18841409683227539 8 -9 218 255 186
-3 7.5922245979309082 -9 106 106 145
-3 8 -9.82813549041748047 190 189 186
-3.94717955589294434 8 -8 119 116 129
-3 8 -8.86773777008056641 108 113 131
-3.31760358810424805 8 -7 176 220 118
-3 7.6426234245300293 -7 175 225 140
-3 8 -7.11929845809936523 112 117 89
-3 7.3446955680847168 -6 226 237 138
-3 7.34855079650878906 -5 228 255 214
-3 7.46947240829467773 -4 11 15 19
-3 7.46637821197509766 -3 160 158 136
-3 7.56929445266723633 -2 135 103 142
-3 7.64649677276611328 -1 120 69 132
-3.9405665397644043 8 0 249 159 107
-3 8 -0.790248394012451172 123 151 107
-3 7.71256160736083984 1 16 20 24
-3 8 0.790141701698303223 119 83 134
-3 7.73617887496948242 2 9 11 15
-3 8 2.29769110679626465 86 40 97
-3 7.96463966369628906 4 99 41 112
-3 8 3.95871686935424805 125 70 132
-3.1897425651550293 8 5 16 100 98
-3 8 4.28239870071411133 163 187 108
-3.09413671493530273 8 6 230 255 87
-3 7.92595005035400391 6 128 150 91
-3 8 5.58451080322265625 249 120 103
-3.03288698196411133 8 7 81 29 142
-3 7.93128824234008789 7 24 17 68
-3 7.85393857955932617 8 176 255 133
-3 8 8.54072856903076172 255 133 28
-3 8.82813549041748047 -9 108 113 131
-3 8.81068611145019531 -7 8 8 8
-3 8.79791259765625 -6 207 249 132
-3 8.84342002868652344 -5 219 155 111
-3 8.84011173248291016 -4 233 255 194
-3 8.83553409576416016 -3 19 37 40
-3 8.84146213531494141 -2 139 151 91
-3 8.75278759002685547 -1 123 151 107
-3 8.75290679931640625 1 89 45 99
-3 8.72225189208984375 2 86 40 97
-3 8.20896625518798828 4 163 187 108
-3 8.32302761077880859 6 6 16 27
-3 8.49395751953125 7 199 255 119
-3 8.54072856903076172 8 255 133 28
-2 7.56810665130615234 -9 113 130 163
-2 8 -9.49922561645507812 184 182 198
-2 8 -8.92609024047851562 94 102 129
-2 7.60008907318115234 -7 178 212 150
-2 8 -7.23173904418945312 173 220 173
-2 7.61876726150512695 -6 244 255 237
-2 7.60102987289428711 -5 54 64 76
-2 7.34751749038696289 -4 132 131 129
-2 7.95605230331420898 -3 63 66 74
-2 7.91984748840332031 -2 131 94 146
-2 7.56401920318603516 -1 70 69 74
-2.19334888458251953 8 0 119 83 134
-2 7.61330318450927734 0 76 74 81
-2.36680459976196289 8 1 89 45 99
-2 8 0.609053313732147217 113 67 125
-2.39359331130981445 8 2 86 40 97
-2.18854475021362305 8 3 125 70 132
-2 7.79204034805297852 3 61 57 69
-2 8 2.54213595390319824 94 54 115
-2 7.84029531478881836 4 46 44 55
-2.62815952301025391 8 5 249 120 103
-2 7.89747524261474609 5 96 51 119
-2 7.84099102020263672 6 119 76 135
-2 7.85459375381469727 7 255 239 176
-2 7.84312343597412109 8 7 22 20
-2 8 8.6462554931640625 164 255 145
-2 8.49922561645507812 -9 94 102 129
-2 8.79026317596435547 -7 179 235 158
-2 8.81809711456298828 -6 211 223 140
-2 8.86045646667480469 -5 239 255 235
-2 8.83518791198730469 -4 26 41 36
-2 8.58023357391357422 -3 233 203 188
-2 8.34813117980957031 -2 181 178 152
-2 8.72682476043701172 -1 115 73 130
-2 8.73332595825195312 0 113 67 125
-2 8.58770370483398438 3 100 50 113
-2 8.49340152740478516 4 94 44 110
-2 8.53139781951904297 5 105 141 93
-2 8.70796871185302734 6 178 168 113
-2 8.67624473571777344 7 26 90 54
-2 8.6462554931640625 8 164 255 145
-1 7.52049541473388672 -9 26 26 25
-1 8 -9.52541828155517578 41 62 51
-1.18656265735626221 8 -8 173 220 173
-1 7.53674077987670898 -8 29 32 21
-1 7.68943548202514648 -7 175 191 154
-1 7.24093008041381836 -6 214 240 206
-1 7.59612131118774414 -5 102 104 124
-1 7.66921091079711914 -4 75 81 73
-1 7.37874937057495117 -3 128 110 143
-1 7.40995502471923828 -2 82 81 86
-1.39276981353759766 8 -1 115 73 130
-1 8 -1.28188693523406982 111 88 128
-1 7.66245222091674805 0 55 54 55
-1 8 -0.723347902297973633 111 88 134
-1.69859945774078369 8 1 97 59 118
-1 7.71000194549560547 1 52 52 53
-1.69085323810577393 8 2 94 54 115
-1 7.73299217224121094 2 49 48 51
-1 7.72771453857421875 3 44 43 46
-1.79336535930633545 8 4 94 44 110
-1 8 3.49744701385498047 47 44 53
-1 7.73967266082763672 5 53 52 59
-1 8 4.66154861450195312 83 56 112
-1 7.74788856506347656 6 84 53 108
-1.07380378246307373 8 7 26 90 54
-1 8 6.924713134765625 102 127 95
-1 7.98746061325073242 8 22 34 51
-1 8 7.55073118209838867 9 15 22
-1 8 8.11954593658447266 201 255 167
-1 8.52541828155517578 -9 103 100 158
-1 8.74125957489013672 -8 60 75 86
-1 8.67269706726074219 -7 176 223 169
-1 8.86060523986816406 -6 205 213 155
-1 8.85966777801513672 -5 240 242 237
-1 8.60641956329345703 -4 67 70 90
-1 8.84462261199951172 -3 84 85 84
-1 8.81427097320556641 -2 111 88 128
-1 8.81817245483398438 0 56 55 60
-1 8.80358695983886719 1 63 61 67
-1 8.79043292999267578 2 58 56 63
-1 8.78729915618896484 3 47 44 53
-1 8.65672492980957031 5 82 48 103
-1 8.67152023315429688 6 102 127 95
-1 8.11954593658447266 8 201 255 167
0 7.61467647552490234 -9 132 136 129
0 8 -9.81694698333740234 80 99 165
-0.197031065821647644 8 -8 60 75 86
0 8 -8.13608074188232422 114 97 179
0 7.78793764114379883 -7 186 200 181
0 8 -7.45016670227050781 61 69 89
0 7.51030969619750977 -6 204 221 167
0 7.56638288497924805 -5 129 129 142
0 7.58943605422973633 -4 101 108 96
0 7.60186767578125 -3 144 137 159
0 7.37954807281494141 -2 103 93 112
-0.569364249706268311 8 -1 111 88 134
0 7.77187776565551758 -1 69 65 75
0 7.66997241973876953 0 75 71 79
0 7.69653558731079102 1 88 83 90
0 7.72293901443481445 2 86 82 87
0 7.74026632308959961 3 70 69 71
-0.414390802383422852 8 4 83 56 112
0 7.78240633010864258 4 58 58 58
0 7.64665699005126953 5 85 84 86
-0.356247067451477051 8 6 102 127 95
0 8 5.72806406021118164 85 60 107
-0.837727129459381104 8 7 9 15 22
0 7.97733020782470703 7 190 255 168
0 8 6.56833887100219727 129 153 116
-0.922291100025177002 8 8 201 255 167
0 8 7.34777069091796875 198 179 157
0 8.81694698333740234 -9 114 97 179
0 8.36530208587646484 -7 173 193 166
0 8.65459537506103516 -6 100 92 89
0 8.86035823822021484 -5 65 69 58
0 8.81067943572998047 -4 169 160 150
0 8.84897327423095703 -3 32 35 34
0 8.84182262420654297 -2 120 104 134
0 8.69469070434570312 -1 17 17 17
0 8.81824398040771484 0 90 88 91
0 8.79419898986816406 1 91 90 91
0 8.77836990356445312 2 86 85 87
0 8.77956676483154297 3 78 76 79
0 8.72573566436767578 4 38 37 41
0 8.75179386138916016 5 85 60 107
0 8.46214771270751953 7 198 179 157
1 7.31075096130371094 -9 100 101 84
1 8 -9.87808704376220703 74 71 182
0.0932649970054626465 8 -8 61 69 89
1 7.52201175689697266 -8 191 198 194
1 7.74336481094360352 -7 187 187 187
1 7.83364391326904297 -6 229 255 217
1 7.97267866134643555 -5 143 128 97
0.743960082530975342 8 -4 169 160 150
1 8 -4.93377923965454102 74 77 78
0.13663095235824585 8 -3 32 35 34
1 7.41506052017211914 -2 115 93 127
1 8 -2.11700558662414551 213 190 190
1 7.61614894866943359 -1 89 74 98
1 7.61890029907226562 0 107 88 112
1 7.68831539154052734 1 109 92 113
1 7.72020149230957031 2 106 92 109
1 7.70188522338867188 3 99 88 102
1 7.76134204864501953 4 77 72 81
1 7.82229375839233398 5 96 91 99
1 8 5.05188560485839844 106 84 127
0.401189953088760376 8 7 198 179 157
1 8.87808704376220703 -9 27 30 26
1 8.87235927581787109 -8 2 4 2
1 8.39539337158203125 -7 173 179 170
1 8.64870262145996094 -6 241 247 189
1 8.09462165832519531 -5 74 77 78
1 8.82477378845214844 -2 140 130 149
1 8.81923389434814453 -1 78 71 85
1 8.81799221038818359 0 104 93 108
1 8.77426052093505859 1 97 89 100
1 8.75444698333740234 2 94 88 96
1 8.77779006958007812 3 94 91 95
1 8.73756980895996094 4 63 62 64
1 8.55201816558837891 5 106 84 127
2 7.46474504470825195 -9 63 41 38
2 8 -9.63131046295166016 73 55 188
2 7.51312160491943359 -8 169 195 175
2 7.56884479522705078 -7 170 180 162
1.06798744201660156 8 -6 241 247 189
2 8 -6.94338750839233398 167 183 148
2 7.62995290756225586 -5 94 106 63
2 8 -5.05359077453613281 33 48 49
1.22726166248321533 8 -4 241 204 191
2 7.88751220703125 -4 252 255 236
2 8 -3.59163331985473633 103 122 82
2 7.37756729125976562 -2 124 87 137
2 8 -2.41920113563537598 232 226 224
2 7.54368400573730469 -1 117 82 126
2 7.57138538360595703 0 126 89 131
2 7.62430381774902344 1 124 91 127
2 7.6557927131652832 2 120 91 123
2 7.66205167770385742 3 115 91 119
2 7.71905136108398438 4 101 83 106
2 7.64711999893188477 5 104 90 110
2 8 5.07915401458740234 111 94 124
2 8.63131046295166016 -9 48 39 38
2 8.87292194366455078 -8 2 4 2
2 8.60303306579589844 -7 167 183 148
2 8.58905792236328125 -5 59 62 62
2 8.83363533020019531 -4 103 122 82
2 8.83973884582519531 -2 151 148 152
2 8.82536983489990234 -1 86 71 96
2 8.82095432281494141 0 111 90 117
2 8.80180263519287109 1 113 93 117
2 8.78756904602050781 2 110 93 113
2 8.78337860107421875 3 101 89 105
2 8.74099445343017578 4 68 63 72
2 8.74866008758544922 5 111 94 124
3 7.81731748580932617 -9 93 86 61
3 8 -9.53757095336914062 31 34 166
2.25500392913818359 8 -8 2 4 2
3 8 -8.94524478912353516 123 57 192
3 7.72204303741455078 -7 155 166 133
3 8 -7.05887889862060547 97 57 128
2.79802894592285156 8 -6 33 48 49
3 7.51512861251831055 -6 220 240 108
2.08095335960388184 8 -5 59 62 62
3 8 -5.71751928329467773 171 168 149
3 7.92069673538208008 -4 172 160 107
3 8 -4.05508661270141602 237 194 190
3 8 -3.71157693862915039 114 105 144
3 7.70897579193115234 -2 105 66 123
3 8 -2.39797115325927734 177 181 129
2.48281979560852051 8 -1 86 71 96
3 8 -1.76592278480529785 169 148 178
3 7.57114124298095703 0 142 85 145
3 8 -0.426655411720275879 109 103 124
3 7.56478118896484375 1 140 87 142
3 7.59782075881958008 2 136 88 138
3 7.67576456069946289 3 130 88 132
2.0975501537322998 8 4 68 63 72
3 8 3.09811687469482422 82 66 88
2.72343063354492188 8 5 111 94 124
2.98024392127990723 8 7 252 245 245
3 7.99188470840454102 7 127 136 124
3 8 6.98550605773925781 210 209 204
3 8 7.00298595428466797 198 195 183
3 8.53757095336914062 -9 123 57 192
3 8.55664443969726562 -7 164 186 141
3 8.86498737335205078 -6 171 168 149
3 8.48684120178222656 -4 114 105 144
3 8.60741996765136719 -2 169 148 178
3 8.79024505615234375 0 89 66 98
3 8.80944919586181641 1 115 84 119
3 8.79720973968505859 2 111 84 115
3 8.74222469329833984 3 82 66 88
3 8.07884120941162109 7 198 195 183
4 7.78879833221435547 -9 107 149 83
4 8 -9.79458713531494141 113 107 230
3.76431536674499512 8 -8 97 57 128
4 7.85941839218139648 -8 29 52 20
4 7.82355785369873047 -7 69 93 32
4 7.59836530685424805 -6 226 205 77
4 8 -5.08462047576904297 173 172 138
4 7.43516778945922852 -4 19 47 33
4 8 -4.88395118713378906 248 208 112
3.36631989479064941 8 -3 177 181 129
4 7.72380399703979492 -3 171 121 196
3.04268789291381836 8 -2 169 148 178
4 8 -2.89550518989562988 48 92 58
4 7.46000337600708008 0 156 78 157
4 8 -0.642407834529876709 160 141 171
4 7.53659391403198242 1 155 81 154
4 7.56302547454833984 2 151 82 150
4 7.68454980850219727 3 144 83 145
4 8 3.47549986839294434 148 132 153
3.7252349853515625 8 6 210 209 204
4 7.85537052154541016 6 166 151 173
4 8 5.94172430038452148 76 77 76
3.03797626495361328 8 7 198 195 183
4 8 6.50419330596923828 71 95 85
4 8.79458713531494141 -9 140 27 213
4 8.86088466644287109 -8 25 51 94
4 8.69227218627929688 -7 157 197 141
4 8.84582138061523438 -6 173 172 138
4 8.79436302185058594 -4 47 58 71
4 8.80193710327148438 -3 48 92 58
4 8.8174591064453125 0 155 128 162
4 8.79052066802978516 1 85 60 95
4 8.78485107421875 2 86 62 95
4 8.68865776062011719 3 148 132 153
4 8.68797206878662109 6 71 95 85
5 7.54190444946289062 -9 128 0 213
5 8 -9.87272548675537109 33 89 152
4.90107059478759766 8 -8 25 51 94
5 8 -8.09015083312988281 160 8 231
4.26426076889038086 8 -7 157 197 141
4.64739751815795898 8 -6 173 172 138
4.09173154830932617 8 -5 248 208 112
5 7.55481624603271484 -5 219 196 110
5 8 -5.62694406509399414 33 84 24
4.43675994873046875 8 -4 47 58 71
5 8 -4.49801015853881836 219 157 88
5 7.63553571701049805 -3 70 118 54
5 8 -3.4934544563293457 90 74 142
4.877044677734375 8 -2 255 223 215
5 7.8246159553527832 -2 63 59 110
5 8 -1.62861514091491699 18 39 40
4.24308109283447266 8 0 155 128 162
4.21326828002929688 8 1 85 60 95
4.208740234375 8 2 86 62 95
4.12601184844970703 8 3 148 132 153
4.9352269172668457 8 5 76 77 76
5 7.91358613967895508 5 78 79 104
5 8 4.89076089859008789 255 221 217
4.27192211151123047 8 6 71 95 85
5 8 5.2947840690612793 46 69 68
4.50122594833374023 8 7 84 84 86
5 7.86948680877685547 7 253 155 147
5 8 6.73234796524047852 156 134 168
5 8 7.85515069961547852 54 60 55
5 8.87272548675537109 -9 160 8 231
5 8.83392524719238281 -5 219 157 88
5 8.82914257049560547 -3 47 53 79
5 8.82948207855224609 -2 18 39 40
5 8.7116241455078125 5 46 69 68
5 8.68330001831054688 7 54 60 55
6 7.20258998870849609 -9 171 0 245
6 8 -9.87378787994384766 3 20 0
5.11361551284790039 8 -8 126 99 52
6 7.46431398391723633 -8 77 23 22
6 8 -7.38637733459472656 155 0 216
5.59873342514038086 8 -6 33 84 24
6 7.69205713272094727 -6 150 42 38
6 8 -6.37499332427978516 101 26 156
6 7.74555730819702148 -5 201 35 31
6 8 -4.32340002059936523 153 118 94
6 7.69433832168579102 -3 19 83 23
6 8 -3.42891144752502441 228 95 65
6 7.6636500358581543 -2 29 76 49
6 8 -1.57575392723083496 60 55 106
5.85181808471679688 8 0 89 76 118
6 7.93340587615966797 0 8 14 13
6 8 -0.344949305057525635 219 196 83
6 8 0.288506627082824707 36 69 65
5.93794775009155273 8 3 93 85 115
6 7.97030925750732422 3 10 15 15
6 8 2.85805988311767578 155 193 112
6 8 3.25275158882141113 54 90 81
6 7.81046628952026367 5 79 135 76
6 8 4.54300260543823242 157 195 97
6 8 5.64252281188964844 37 39 51
5.27662467956542969 8 7 54 60 55
5.16753101348876953 8 8 255 224 175
6 7.89545059204101562 8 249 160 123
6 8 7.75650691986083984 255 166 142
6 8 8.64488315582275391 218 218 216
6 8.87378787994384766 -9 123 0 217
6 8.84128284454345703 -8 155 0 216
6 8.66694259643554688 -6 161 185 93
6 8.81310462951660156 -5 153 118 94
6 8.60964679718017578 -3 51 62 79
6 8.77243423461914062 -2 60 55 106
6 8.70809650421142578 0 36 69 65
6 8.50370597839355469 3 54 90 81
6 8.71634006500244141 5 37 39 51
6 8.64488315582275391 8 218 218 216
6.19875574111938477 8 -9 123 0 217
7 7.55871009826660156 -8 31 23 8
7 8 -8.19210338592529297 90 75 21
6.39967441558837891 8 -7 101 26 156
7 7.79892921447753906 -7 147 0 185
7 7.27875995635986328 -6 134 180 77
7 7.82592153549194336 -5 26 51 73
6.26763486862182617 8 -4 228 95 65
7 7.67413091659545898 -4 210 36 18
6.27948141098022461 8 -3 51 62 79
7 8 -3.41437363624572754 165 123 93
6.11153697967529297 8 -2 60 55 106
6.49384403228759766 8 -1 219 196 83
7 7.72886800765991211 -1 196 185 36
7 8 -1.14866089820861816 85 156 79
7 7.58281326293945312 0 18 55 50
6.70075607299804688 8 1 155 192 107
7 7.85597372055053711 1 136 183 61
6.73731613159179688 8 2 155 193 112
7 7.87568426132202148 2 136 184 65
7 7.74511861801147461 3 31 77 64
6.48555231094360352 8 4 157 195 97
7 7.77212667465209961 4 102 166 53
6.06506204605102539 8 5 37 39 51
7 8 4.08054971694946289 8 11 13
6.72975635528564453 8 7 255 166 142
7 7.88072729110717773 7 249 109 89
7 8 6.7594456672668457 255 128 110
6.19992303848266602 8 8 218 218 216
7 8 7.22329998016357422 198 186 175
7 8.86904716491699219 -8 204 0 242
7 8.83369731903076172 -7 22 30 7
7 8.86109733581542969 -6 0 2 1
7 8.83786678314208984 -5 119 98 26
7 8.85053157806396484 -4 165 123 93
7 8.82521629333496094 -1 15 25 33
7 8.81828117370605469 0 31 35 64
7 8.71867656707763672 1 50 129 49
7 8.68611717224121094 2 57 134 55
7 8.72507762908935547 3 46 44 77
7 8.76071834564208984 4 8 11 13
7 8.67630863189697266 7 198 186 175
7.82151126861572266 8 -9 90 75 21
8 7.85005950927734375 -9 133 229 0
8 8 -9.85843467712402344 84 162 0
8 7.30584383010864258 -8 211 0 255
8 7.51204395294189453 -7 2 3 0
7.34896230697631836 8 -6 0 2 1
8 8 -6.77012777328491211 211 0 237
8 7.91513538360595703 -5 0 16 18
8 8 -5.09265661239624023 195 193 38
7.13871288299560547 8 -4 165 123 93
8 8 -4.96765422821044922 0 19 61
7.44298124313354492 8 -1 15 25 33
8 7.80344390869140625 0 36 34 105
8 8 -0.185675337910652161 228 113 33
7.17456769943237305 8 1 50 129 49
8 8 0.100770957767963409 221 86 50
7.12658166885375977 8 2 57 134 55
8 7.83892679214477539 3 36 37 88
8 8 2.92739295959472656 245 185 135
7.29269886016845703 8 4 8 11 13
8 8 3.13323044776916504 225 117 68
7.73061084747314453 8 6 255 128 110
8 7.87560606002807617 6 221 131 53
8 8 5.92750692367553711 0 0 0
7.15597200393676758 8 7 198 186 175
8 8 6.17703151702880859 219 121 113
8 8.85843467712402344 -9 0 33 7
8 8.79636383056640625 -8 56 0 175
8 8.775390625 -7 211 0 237
8 8.54150772094726562 -5 0 19 61
8 8.57512950897216797 0 221 86 50
8 8.54146480560302734 3 225 117 68
8 8.70863723754882812 6 219 121 113
8.85843467712402344 8 -9 0 33 7
8.79636383056640625 8 -8 56 0 175
8.775390625 8 -7 211 0 237
8.54150772094726562 8 -5 0 19 61
8.57512950897216797 8 0 221 86 50
8.54146480560302734 8 3 225 117 68
8.70863723754882812 8 6 219 121 113
3 2 1 0
3 1 4 3
3 0 1 3
3 4 5 3
3 8 7 6
3 7 10 9
3 6 7 9
3 10 12 11
3 9 10 11
3 12 14 13
3 11 12 13
3 14 15 13
3 18 17 16
3 17 20 19
3 16 17 19
3 20 21 19
3 24 23 22
3 23 25 22
3 28 27 26
3 27 30 29
3 26 27 29
3 30 31 29
3 2 0 32
3 0 3 33
3 32 0 33
3 3 5 33
3 8 6 34
3 6 9 35
3 34 6 35
3 9 11 36
3 35 9 36
3 11 13 37
3 36 11 37
3 13 15 37
3 18 16 38
3 16 19 39
3 38 16 39
3 19 21 39
3 24 22 40
3 22 25 40
3 28 26 41
3 26 29 42
3 41 26 42
3 29 31 42
3 2 44 43
3 1 2 43
3 46 45 4
3 46 4 43
3 43 4 1
3 47 5 4
3 47 4 48
3 45 49 4
3 49 48 4
3 48 50 47
3 53 52 51
3 8 51 52
3 8 52 7
3 7 52 54
3 54 55 7
3 7 55 10
3 57 56 12
3 57 12 55
3 55 12 10
3 56 59 58
3 56 58 12
3 12 58 14
3 14 58 60
3 15 14 60
3 17 18 61
3 20 17 61
3 62 20 61
3 20 62 21
3 23 24 63
3 64 25 23
3 64 23 65
3 63 66 23
3 66 65 23
3 28 64 65
3 28 65 27
3 68 67 65
3 67 27 65
3 30 27 67
3 69 30 67
3 30 69 31
3 44 2 32
3 70 44 32
3 45 46 70
3 45 70 33
3 33 70 32
3 5 47 71
3 5 71 33
3 49 45 71
3 45 33 71
3 47 50 71
3 53 51 72
3 51 8 34
3 51 34 72
3 72 34 73
3 73 34 74
3 34 35 74
3 56 57 74
3 56 74 36
3 36 74 35
3 59 56 36
3 59 36 75
3 75 36 37
3 75 37 15
3 60 75 15
3 61 18 38
3 62 61 38
3 39 62 38
3 62 39 21
3 63 24 40
3 25 64 76
3 25 76 40
3 66 63 76
3 63 40 76
3 67 68 76
3 67 76 41
3 64 28 76
3 28 41 76
3 69 67 41
3 42 69 41
3 69 42 31
3 43 44 77
3 78 46 43
3 78 43 79
3 77 80 43
3 80 79 43
3 49 78 79
3 49 79 48
3 82 81 79
3 81 48 79
3 48 81 50
3 53 84 83
3 52 53 83
3 86 85 54
3 86 54 83
3 83 54 52
3 85 88 87
3 85 87 54
3 54 87 55
3 55 87 89
3 57 55 89
3 59 91 90
3 58 59 90
3 92 60 58
3 92 58 93
3 93 58 90
3 93 95 94
3 92 93 94
3 95 97 96
3 94 95 96
3 97 99 98
3 96 97 98
3 99 101 100
3 98 99 100
3 66 100 101
3 66 101 65
3 103 102 101
3 102 65 101
3 65 102 68
3 106 105 104
3 105 107 104
3 77 44 70
3 46 78 108
3 46 108 70
3 80 77 108
3 77 70 108
3 81 82 108
3 81 108 71
3 78 49 108
3 49 71 108
3 81 71 50
3 84 53 72
3 109 84 72
3 85 86 109
3 85 109 73
3 73 109 72
3 88 85 73
3 88 73 110
3 110 73 74
3 110 74 57
3 89 110 57
3 91 59 75
3 111 91 75
3 60 92 112
3 60 112 75
3 75 112 111
3 92 94 113
3 112 92 113
3 94 96 114
3 113 94 114
3 96 98 115
3 114 96 115
3 98 100 116
3 115 98 116
3 102 103 116
3 102 116 76
3 100 66 116
3 66 76 116
3 102 76 68
3 106 104 117
3 104 107 117
3 120 119 118
3 80 118 119
3 80 119 79
3 79 119 121
3 79 121 122
3 82 79 122
3 125 124 123
3 84 123 124
3 84 124 83
3 83 124 126
3 127 86 83
3 127 83 128
3 128 83 126
3 88 127 128
3 88 128 87
3 87 128 129
3 130 89 87
3 130 87 131
3 131 87 129
3 91 130 131
3 91 131 90
3 90 131 132
3 132 133 90
3 90 133 93
3 135 134 95
3 135 95 133
3 133 95 93
3 97 95 134
3 136 97 134
3 136 138 137
3 136 137 97
3 97 137 99
3 137 139 99
3 99 139 101
3 140 103 101
3 140 101 141
3 141 101 139
3 141 143 142
3 140 141 142
3 106 142 143
3 106 143 105
3 145 144 143
3 144 105 143
3 105 144 107
3 120 118 146
3 118 80 108
3 118 108 146
3 146 108 147
3 147 108 82
3 122 147 82
3 125 123 148
3 123 84 109
3 123 109 148
3 148 109 149
3 86 127 150
3 86 150 109
3 109 150 149
3 127 88 110
3 127 110 150
3 150 110 151
3 89 130 152
3 89 152 110
3 110 152 151
3 130 91 111
3 130 111 152
3 152 111 153
3 153 111 154
3 111 112 154
3 134 135 154
3 134 154 113
3 113 154 112
3 136 134 113
3 114 136 113
3 138 136 114
3 138 114 155
3 155 114 115
3 155 115 156
3 115 116 156
3 103 140 157
3 103 157 116
3 116 157 156
3 140 142 158
3 157 140 158
3 144 145 158
3 144 158 117
3 142 106 158
3 106 117 158
3 144 117 107
3 120 160 159
3 119 120 159
3 159 161 119
3 119 161 121
3 162 122 121
3 162 121 163
3 163 121 161
3 125 162 163
3 125 163 124
3 165 164 163
3 164 124 163
3 126 124 164
3 166 126 164
3 166 168 167
3 166 167 126
3 126 167 128
3 167 169 128
3 128 169 129
3 171 170 131
3 171 131 169
3 169 131 129
3 132 131 170
3 172 132 170
3 172 174 173
3 172 173 132
3 132 173 133
3 175 135 133
3 175 133 176
3 176 133 173
3 176 178 177
3 175 176 177
3 138 177 178
3 138 178 137
3 137 178 179
3 181 180 139
3 181 139 179
3 179 139 137
3 141 139 180
3 182 141 180
3 182 184 183
3 182 183 141
3 141 183 143
3 185 145 143
3 185 143 186
3 186 143 183
3 186 187 185
3 160 120 146
3 188 160 146
3 188 146 189
3 146 147 189
3 122 162 190
3 122 190 147
3 147 190 189
3 164 165 190
3 164 190 148
3 162 125 190
3 125 148 190
3 166 164 148
3 149 166 148
3 168 166 149
3 168 149 191
3 191 149 150
3 191 150 192
3 150 151 192
3 170 171 192
3 170 192 152
3 152 192 151
3 172 170 152
3 153 172 152
3 174 172 153
3 174 153 193
3 193 153 154
3 135 175 194
3 135 194 154
3 154 194 193
3 175 177 195
3 194 175 195
3 177 138 155
3 177 155 195
3 195 155 196
3 180 181 196
3 180 196 156
3 156 196 155
3 182 180 156
3 157 182 156
3 184 182 157
3 184 157 197
3 197 157 158
3 145 185 198
3 145 198 158
3 158 198 197
3 185 187 198
3 159 160 199
3 199 201 200
3 199 200 159
3 159 200 161
3 203 202 163
3 203 163 200
3 200 163 161
3 204 165 163
3 204 163 205
3 202 206 163
3 206 205 163
3 205 208 207
3 204 205 207
3 168 207 208
3 168 208 167
3 167 208 209
3 209 210 167
3 167 210 169
3 211 171 169
3 211 169 212
3 212 169 210
3 212 214 213
3 211 212 213
3 174 213 214
3 174 214 173
3 173 214 215
3 215 216 173
3 173 216 176
3 216 217 176
3 176 217 178
3 219 218 179
3 219 179 217
3 217 179 178
3 220 181 179
3 220 179 221
3 218 222 179
3 222 221 179
3 221 224 223
3 220 221 223
3 184 223 224
3 184 224 183
3 226 225 224
3 225 183 224
3 186 183 225
3 227 186 225
3 228 187 186
3 228 186 229
3 227 230 186
3 230 229 186
3 229 231 228
3 199 160 188
3 201 199 188
3 201 188 232
3 232 188 189
3 202 203 232
3 202 232 190
3 190 232 189
3 165 204 233
3 165 233 190
3 206 202 233
3 202 190 233
3 204 207 234
3 233 204 234
3 207 168 191
3 207 191 234
3 234 191 235
3 235 191 236
3 191 192 236
3 171 211 237
3 171 237 192
3 192 237 236
3 211 213 238
3 237 211 238
3 213 174 193
3 213 193 238
3 238 193 239
3 239 193 240
3 193 194 240
3 240 194 241
3 194 195 241
3 218 219 241
3 218 241 196
3 196 241 195
3 181 220 242
3 181 242 196
3 222 218 242
3 218 196 242
3 220 223 243
3 242 220 243
3 225 226 243
3 225 243 197
3 223 184 243
3 184 197 243
3 227 225 197
3 198 227 197
3 187 228 244
3 187 244 198
3 230 227 244
3 227 198 244
3 228 231 244
3 247 246 245
3 201 245 246
3 201 246 200
3 249 248 246
3 248 200 246
3 250 203 200
3 250 200 251
3 248 252 200
3 252 251 200
3 206 250 251
3 206 251 205
3 205 251 253
3 253 254 205
3 205 254 208
3 254 255 208
3 208 255 209
3 255 256 209
3 209 256 210
3 256 257 210
3 210 257 212
3 257 258 212
3 212 258 214
3 260 259 215
3 260 215 258
3 258 215 214
3 259 262 261
3 259 261 215
3 215 261 216
3 261 263 216
3 216 263 217
3 217 263 264
3 219 217 264
3 222 266 265
3 221 222 265
3 268 267 224
3 268 224 265
3 265 224 221
3 269 226 224
3 269 224 270
3 267 271 224
3 271 270 224
3 270 273 272
3 269 270 272
3 230 272 273
3 230 273 229
3 229 273 274
3 229 274 275
3 231 229 275
3 247 245 276
3 248 249 276
3 248 276 232
3 245 201 276
3 201 232 276
3 203 250 277
3 203 277 232
3 252 248 277
3 248 232 277
3 250 206 233
3 250 233 277
3 277 233 278
3 278 233 279
3 233 234 279
3 279 234 280
3 234 235 280
3 280 235 281
3 235 236 281
3 281 236 282
3 236 237 282
3 282 237 283
3 237 238 283
3 259 260 283
3 259 283 239
3 239 283 238
3 262 259 239
3 262 239 284
3 284 239 240
3 284 240 285
3 240 241 285
3 285 241 219
3 264 285 219
3 266 222 242
3 286 266 242
3 267 268 286
3 267 286 243
3 243 286 242
3 226 269 287
3 226 287 243
3 271 267 287
3 267 243 287
3 269 272 288
3 287 269 288
3 272 230 244
3 272 244 288
3 288 244 289
3 289 244 231
3 275 289 231
3 247 291 290
3 246 247 290
3 246 290 292
3 249 246 292
3 252 294 293
3 251 252 293
3 293 295 251
3 251 295 253
3 295 296 253
3 253 296 254
3 296 297 254
3 254 297 255
3 297 298 255
3 255 298 256
3 298 299 256
3 256 299 257
3 299 300 257
3 257 300 258
3 301 260 258
3 301 258 302
3 302 258 300
3 262 301 302
3 262 302 261
3 304 303 302
3 303 261 302
3 263 261 303
3 305 263 303
3 306 264 263
3 306 263 307
3 305 308 263
3 308 307 263
3 266 306 307
3 266 307 265
3 265 307 309
3 310 268 265
3 310 265 311
3 311 265 309
3 271 310 311
3 271 311 270
3 270 311 312
3 312 313 270
3 270 313 273
3 313 314 273
3 273 314 274
3 274 314 315
3 275 274 315
3 291 247 276
3 316 291 276
3 316 276 249
3 292 316 249
3 294 252 277
3 317 294 277
3 317 277 318
3 277 278 318
3 318 278 319
3 278 279 319
3 319 279 320
3 279 280 320
3 320 280 321
3 280 281 321
3 321 281 322
3 281 282 322
3 322 282 323
3 282 283 323
3 260 301 324
3 260 324 283
3 283 324 323
3 303 304 324
3 303 324 284
3 301 262 324
3 262 284 324
3 305 303 284
3 285 305 284
3 264 306 325
3 264 325 285
3 308 305 325
3 305 285 325
3 306 266 286
3 306 286 325
3 325 286 326
3 268 310 327
3 268 327 286
3 286 327 326
3 310 271 287
3 310 287 327
3 327 287 328
3 328 287 329
3 287 288 329
3 329 288 330
3 288 289 330
3 330 289 275
3 315 330 275
3 291 332 331
3 290 291 331
3 333 292 290
3 333 290 334
3 334 290 331
3 294 333 334
3 294 334 293
3 293 334 335
3 335 336 293
3 293 336 295
3 336 337 295
3 295 337 296
3 337 338 296
3 296 338 297
3 338 339 297
3 297 339 298
3 339 340 298
3 298 340 299
3 342 341 300
3 342 300 340
3 340 300 299
3 341 344 343
3 341 343 300
3 300 343 302
3 345 304 302
3 345 302 346
3 346 302 343
3 346 348 347
3 345 346 347
3 308 347 348
3 308 348 307
3 307 348 349
3 351 350 309
3 351 309 349
3 349 309 307
3 350 353 352
3 350 352 309
3 309 352 311
3 352 354 311
3 311 354 312
3 356 355 313
3 356 313 354
3 354 313 312
3 355 358 357
3 355 357 313
3 313 357 314
3 314 357 359
3 315 314 359
3 332 291 316
3 360 332 316
3 292 333 361
3 292 361 316
3 316 361 360
3 333 294 317
3 333 317 361
3 361 317 362
3 362 317 363
3 317 318 363
3 363 318 364
3 318 319 364
3 364 319 365
3 319 320 365
3 365 320 366
3 320 321 366
3 366 321 367
3 321 322 367
3 341 342 367
3 341 367 323
3 323 367 322
3 344 341 323
3 344 323 368
3 368 323 324
3 304 345 369
3 304 369 324
3 324 369 368
3 345 347 370
3 369 345 370
3 347 308 325
3 347 325 370
3 370 325 371
3 350 351 371
3 350 371 326
3 326 371 325
3 353 350 326
3 353 326 372
3 372 326 327
3 372 327 373
3 327 328 373
3 355 356 373
3 355 373 329
3 329 373 328
3 358 355 329
3 358 329 374
3 374 329 330
3 374 330 315
3 359 374 315
3 332 376 375
3 331 332 375
3 378 377 334
3 378 334 375
3 375 334 331
3 377 380 379
3 377 379 334
3 334 379 335
3 379 381 335
3 335 381 336
3 381 382 336
3 336 382 337
3 382 383 337
3 337 383 338
3 383 384 338
3 338 384 339
3 384 385 339
3 339 385 340
3 386 342 340
3 386 340 387
3 387 340 385
3 344 386 387
3 344 387 343
3 343 387 388
3 388 389 343
3 343 389 346
3 389 390 346
3 346 390 348
3 390 391 348
3 348 391 349
3 392 351 349
3 392 349 393
3 393 349 391
3 353 392 393
3 353 393 352
3 352 393 394
3 396 395 354
3 396 354 394
3 394 354 352
3 397 356 354
3 397 354 398
3 395 399 354
3 399 398 354
3 358 397 398
3 358 398 357
3 401 400 398
3 400 357 398
3 357 400 359
3 376 332 360
3 402 376 360
3 377 378 402
3 377 402 361
3 361 402 360
3 380 377 361
3 380 361 403
3 403 361 362
3 403 362 404
3 362 363 404
3 404 363 405
3 363 364 405
3 405 364 406
3 364 365 406
3 406 365 407
3 365 366 407
3 407 366 408
3 366 367 408
3 342 386 409
3 342 409 367
3 367 409 408
3 386 344 368
3 386 368 409
3 409 368 410
3 410 368 411
3 368 369 411
3 411 369 412
3 369 370 412
3 412 370 413
3 370 371 413
3 351 392 414
3 351 414 371
3 371 414 413
3 392 353 372
3 392 372 414
3 414 372 415
3 395 396 415
3 395 415 373
3 373 415 372
3 356 397 416
3 356 416 373
3 399 395 416
3 395 373 416
3 400 401 416
3 400 416 374
3 397 358 416
3 358 374 416
3 400 374 359
3 376 418 417
3 375 376 417
3 419 378 375
3 419 375 420
3 420 375 417
3 380 419 420
3 380 420 379
3 379 420 421
3 421 422 379
3 379 422 381
3 422 423 381
3 381 423 382
3 425 424 383
3 425 383 423
3 423 383 382
3 384 383 424
3 426 384 424
3 426 428 427
3 426 427 384
3 384 427 385
3 427 429 385
3 385 429 387
3 429 430 387
3 387 430 388
3 430 431 388
3 388 431 389
3 431 432 389
3 389 432 390
3 432 433 390
3 390 433 391
3 433 434 391
3 391 434 393
3 434 435 393
3 393 435 394
3 394 435 436
3 396 394 436
3 398 399 437
3 398 437 401
3 418 376 402
3 438 418 402
3 378 419 439
3 378 439 402
3 402 439 438
3 419 380 403
3 419 403 439
3 439 403 440
3 440 403 441
3 403 404 441
3 441 404 442
3 404 405 442
3 424 425 442
3 424 442 406
3 406 442 405
3 426 424 406
3 407 426 406
3 428 426 407
3 428 407 443
3 443 407 408
3 443 408 444
3 408 409 444
3 444 409 445
3 409 410 445
3 445 410 446
3 410 411 446
3 446 411 447
3 411 412 447
3 447 412 448
3 412 413 448
3 448 413 449
3 413 414 449
3 449 414 450
3 414 415 450
3 450 415 396
3 436 450 396
3 437 399 416
3 437 416 401
3 418 452 451
3 417 418 451
3 451 453 417
3 417 453 420
3 453 454 420
3 420 454 421
3 456 455 422
3 456 422 454
3 454 422 421
3 455 458 457
3 455 457 422
3 422 457 423
3 459 425 423
3 459 423 460
3 460 423 457
3 460 461 459
3 428 463 462
3 427 428 462
3 462 464 427
3 427 464 429
3 464 465 429
3 429 465 430
3 465 466 430
3 430 466 431
3 466 467 431
3 431 467 432
3 467 468 432
3 432 468 433
3 468 469 433
3 433 469 434
3 469 470 434
3 434 470 435
3 435 470 471
3 436 435 471
3 452 418 438
3 472 452 438
3 472 438 473
3 438 439 473
3 473 439 474
3 439 440 474
3 455 456 474
3 455 474 441
3 441 474 440
3 458 455 441
3 458 441 475
3 475 441 442
3 425 459 476
3 425 476 442
3 442 476 475
3 459 461 476
3 463 428 443
3 477 463 443
3 477 443 478
3 443 444 478
3 478 444 479
3 444 445 479
3 479 445 480
3 445 446 480
3 480 446 481
3 446 447 481
3 481 447 482
3 447 448 482
3 482 448 483
3 448 449 483
3 483 449 484
3 449 450 484
3 484 450 436
3 471 484 436
3 452 486 485
3 451 452 485
3 488 487 453
3 488 453 485
3 485 453 451
3 487 490 489
3 487 489 453
3 453 489 454
3 491 456 454
3 491 454 492
3 492 454 489
3 458 491 492
3 458 492 457
3 494 493 492
3 493 457 492
3 493 496 495
3 493 495 457
3 457 495 460
3 460 495 497
3 461 460 497
3 463 499 498
3 462 463 498
3 501 500 464
3 501 464 498
3 498 464 462
3 500 503 502
3 500 502 464
3 464 502 465
3 502 504 465
3 465 504 466
3 504 505 466
3 466 505 467
3 505 506 467
3 467 506 468
3 508 507 469
3 508 469 506
3 506 469 468
3 470 469 507
3 509 470 507
3 470 509 471
3 512 511 510
3 511 513 510
3 486 452 472
3 514 486 472
3 487 488 514
3 487 514 473
3 473 514 472
3 490 487 473
3 490 473 515
3 515 473 474
3 456 491 516
3 456 516 474
3 474 516 515
3 493 494 516
3 493 516 475
3 491 458 516
3 458 475 516
3 496 493 475
3 496 475 517
3 517 475 476
3 517 476 461
3 497 517 461
3 499 463 477
3 518 499 477
3 500 501 518
3 500 518 478
3 478 518 477
3 503 500 478
3 503 478 519
3 519 478 479
3 519 479 520
3 479 480 520
3 520 480 521
3 480 481 521
3 521 481 522
3 481 482 522
3 507 508 522
3 507 522 483
3 483 522 482
3 509 507 483
3 484 509 483
3 509 484 471
3 512 510 523
3 510 513 523
3 486 525 524
3 485 486 524
3 526 488 485
3 526 485 527
3 527 485 524
3 490 526 527
3 490 527 489
3 489 527 528
3 528 529 489
3 489 529 492
3 492 529 530
3 494 492 530
3 496 532 531
3 495 496 531
3 533 497 495
3 533 495 534
3 534 495 531
3 499 533 534
3 499 534 498
3 536 535 534
3 535 498 534
3 498 535 501
3 503 538 537
3 502 503 537
3 537 539 502
3 502 539 504
3 539 540 504
3 504 540 505
3 540 541 505
3 505 541 506
3 506 541 542
3 508 506 542
3 545 544 543
3 512 543 544
3 512 544 511
3 547 546 544
3 546 511 544
3 511 546 513
3 525 486 514
3 548 525 514
3 488 526 549
3 488 549 514
3 514 549 548
3 526 490 515
3 526 515 549
3 549 515 550
3 550 515 551
3 515 516 551
3 551 516 494
3 530 551 494
3 532 496 517
3 552 532 517
3 497 533 553
3 497 553 517
3 517 553 552
3 535 536 553
3 535 553 518
3 533 499 553
3 499 518 553
3 535 518 501
3 538 503 519
3 554 538 519
3 554 519 555
3 519 520 555
3 555 520 556
3 520 521 556
3 556 521 557
3 521 522 557
3 557 522 508
3 542 557 508
3 545 543 558
3 546 547 558
3 546 558 523
3 543 512 558
3 512 523 558
3 546 523 513
3 525 560 559
3 524 525 559
3 562 561 527
3 562 527 559
3 559 527 524
3 528 527 561
3 563 528 561
3 529 528 563
3 564 529 563
3 565 530 529
3 565 529 566
3 564 567 529
3 567 566 529
3 532 565 566
3 532 566 531
3 569 568 566
3 568 531 566
3 568 571 570
3 568 570 531
3 531 570 534
3 572 536 534
3 572 534 573
3 573 534 570
3 573 574 572
3 537 538 575
3 539 537 575
3 576 539 575
3 540 539 576
3 577 540 576
3 541 540 577
3 578 541 577
3 541 578 542
3 581 580 579
3 545 579 580
3 545 580 544
3 583 582 580
3 582 544 580
3 584 547 544
3 584 544 585
3 582 586 544
3 586 585 544
3 585 587 584
3 560 525 548
3 588 560 548
3 561 562 588
3 561 588 549
3 549 588 548
3 563 561 549
3 550 563 549
3 564 563 550
3 551 564 550
3 530 565 589
3 530 589 551
3 567 564 589
3 564 551 589
3 568 569 589
3 568 589 552
3 565 532 589
3 532 552 589
3 571 568 552
3 571 552 590
3 590 552 553
3 536 572 591
3 536 591 553
3 553 591 590
3 572 574 591
3 575 538 554
3 576 575 554
3 555 576 554
3 577 576 555
3 556 577 555
3 578 577 556
3 557 578 556
3 578 557 542
3 581 579 592
3 582 583 592
3 582 592 558
3 579 545 592
3 545 558 592
3 547 584 593
3 547 593 558
3 586 582 593
3 582 558 593
3 584 587 593
3 560 595 594
3 559 560 594
3 596 562 559
3 596 559 597
3 597 559 594
3 597 598 596
3 601 600 599
3 567 599 600
3 567 600 566
3 566 600 602
3 566 602 603
3 569 566 603
3 571 605 604
3 570 571 604
3 604 606 570
3 570 606 573
3 573 606 607
3 574 573 607
3 610 609 608
3 609 611 608
3 614 613 612
3 613 615 612
3 581 617 616
3 580 581 616
3 580 616 618
3 583 580 618
3 585 586 619
3 620 587 585
3 620 585 621
3 619 622 585
3 622 621 585
3 621 623 620
3 595 560 588
3 624 595 588
3 562 596 625
3 562 625 588
3 588 625 624
3 596 598 625
3 601 599 626
3 599 567 589
3 599 589 626
3 626 589 627
3 627 589 569
3 603 627 569
3 605 571 590
3 628 605 590
3 628 590 629
3 590 591 629
3 629 591 574
3 607 629 574
3 610 608 630
3 608 611 630
3 614 612 631
3 612 615 631
3 617 581 592
3 632 617 592
3 632 592 583
3 618 632 583
3 619 586 593
3 587 620 633
3 587 633 593
3 622 619 633
3 619 593 633
3 620 623 633
3 594 595 634
3 634 636 635
3 634 635 594
3 594 635 597
3 637 598 597
3 637 597 638
3 638 597 635
3 601 637 638
3 601 638 600
3 600 638 639
3 639 640 600
3 600 640 602
3 641 603 602
3 641 602 642
3 642 602 640
3 605 641 642
3 605 642 604
3 644 643 642
3 643 604 642
3 606 604 643
3 645 606 643
3 646 607 606
3 646 606 647
3 645 648 606
3 648 647 606
3 610 646 647
3 610 647 609
3 609 647 649
3 650 611 609
3 650 609 651
3 651 609 649
3 651 653 652
3 650 651 652
3 614 652 653
3 614 653 613
3 613 653 654
3 655 615 613
3 655 613 656
3 656 613 654
3 617 655 656
3 617 656 616
3 658 657 656
3 657 616 656
3 616 657 618
3 661 660 659
3 622 659 660
3 622 660 621
3 663 662 660
3 662 621 660
3 621 662 623
3 634 595 624
3 636 634 624
3 636 624 664
3 664 624 625
3 598 637 665
3 598 665 625
3 625 665 664
3 637 601 626
3 637 626 665
3 665 626 666
3 666 626 667
3 626 627 667
3 603 641 668
3 603 668 627
3 627 668 667
3 643 644 668
3 643 668 628
3 641 605 668
3 605 628 668
3 645 643 628
3 629 645 628
3 607 646 669
3 607 669 629
3 648 645 669
3 645 629 669
3 646 610 630
3 646 630 669
3 669 630 670
3 611 650 671
3 611 671 630
3 630 671 670
3 650 652 672
3 671 650 672
3 652 614 631
3 652 631 672
3 672 631 673
3 615 655 674
3 615 674 631
3 631 674 673
3 657 658 674
3 657 674 632
3 655 617 674
3 617 632 674
3 657 632 618
3 661 659 675
3 662 663 675
3 662 675 633
3 659 622 675
3 622 633 675
3 662 633 623
3 678 677 676
3 636 676 677
3 636 677 635
3 635 677 679
3 679 680 635
3 635 680 638
3 682 681 639
3 682 639 680
3 680 639 638
3 681 684 683
3 681 683 639
3 639 683 640
3 686 685 642
3 686 642 683
3 683 642 640
3 642 685 644
3 647 648 687
3 687 689 688
3 687 688 647
3 647 688 649
3 691 690 651
3 691 651 688
3 688 651 649
3 653 651 690
3 692 653 690
3 692 694 693
3 692 693 653
3 653 693 654
3 696 695 656
3 696 656 693
3 693 656 654
3 656 695 658
3 699 698 697
3 661 697 698
3 661 698 660
3 701 700 698
3 700 660 698
3 660 700 663
3 678 676 702
3 676 636 664
3 676 664 702
3 702 664 703
3 703 664 704
3 664 665 704
3 681 682 704
3 681 704 666
3 666 704 665
3 684 681 666
3 684 666 705
3 705 666 667
3 685 686 705
3 685 705 668
3 668 705 667
3 685 668 644
3 687 648 669
3 689 687 669
3 689 669 706
3 706 669 670
3 690 691 706
3 690 706 671
3 671 706 670
3 692 690 671
3 672 692 671
3 694 692 672
3 694 672 707
3 707 672 673
3 695 696 707
3 695 707 674
3 674 707 673
3 695 674 658
3 699 697 708
3 700 701 708
3 700 708 675
3 697 661 708
3 661 675 708
3 700 675 663
3 677 678 709
3 679 677 709
3 710 679 709
3 680 679 710
3 711 680 710
3 680 711 682
3 683 684 712
3 683 712 686
3 688 689 713
3 688 713 691
3 693 694 714
3 693 714 696
3 698 699 715
3 698 715 701
3 709 678 702
3 710 709 702
3 703 710 702
3 711 710 703
3 704 711 703
3 711 704 682
3 712 684 705
3 712 705 686
3 713 689 706
3 713 706 691
3 714 694 707
3 714 707 696
3 715 699 708
3 715 708 701
