ply
format ascii 1.0
element vertex 258
property float x
property float y
property float z
property uchar red
property uchar green
property uchar blue
element face 512
property list uchar int vertex_indices
end_header
1.92353546619415283 5 8 158 181 80
2 4.82521820068359375 8 153 178 66
2 5 7.97155427932739258 60 65 30
2 5 8.11855411529541016 168 199 75
1.60099637508392334 6 8 180 207 86
2 6 7.85159826278686523 96 102 44
2 6 8.41059207916259766 187 221 78
1.39228224754333496 7 8 200 231 89
2 7 7.77400350570678711 135 145 59
2 7 8.51358985900878906 203 241 79
1.2990492582321167 8 8 211 249 89
2 8 7.7393488883972168 173 188 71
2 8 8.54857921600341797 208 253 76
2 8.54857921600341797 8 208 253 76
2.78373003005981445 3 8 141 162 58
3 2.61919856071472168 8 156 184 53
3 3 7.90518617630004883 51 56 21
3 3 8.30868339538574219 162 192 58
2.31156802177429199 4 8 153 178 66
3 4 7.69828987121582031 69 76 30
3 4 8.58387851715087891 170 206 65
3 5 7.53264522552490234 96 105 41
3 5 8.68270301818847656 182 222 70
3 6 7.4094843864440918 128 140 51
3 6 8.72959518432617188 197 239 70
3 7 7.32977533340454102 163 178 60
3 7 8.75292682647705078 205 251 69
3 8 7.29416561126708984 193 214 67
3 8 8.76203250885009766 202 254 64
3 8.76203250885009766 8 202 254 64
3.89065647125244141 1 8 152 181 49
4 0.835483253002166748 8 174 220 47
4 1 7.94476652145385742 86 96 28
4 1 8.20681381225585938 176 218 49
3.3100733757019043 2 8 156 184 53
4 2 7.65164041519165039 90 100 31
4 2 8.61766338348388672 179 219 53
4 3 7.3974609375 100 111 36
4 3 8.73340892791748047 183 226 57
4 4 7.18401527404785156 115 130 44
4 4 8.78618335723876953 186 235 62
4 5 7.01294088363647461 139 156 50
4 5 8.81484603881835938 194 245 63
3.78716921806335449 6 7 128 140 51
4 5.10237932205200195 7 139 156 50
4 6 6.88458108901977539 60 61 22
4 6 8.83134841918945312 201 253 61
3.63387346267700195 7 7 163 178 60
4 7 6.8014674186706543 105 107 36
4 7 8.84043216705322266 200 254 56
3.56540107727050781 8 7 193 214 67
4 8 6.76434803009033203 152 156 49
4 8 8.84415531158447266 202 250 51
4 8.50637722015380859 7 211 240 62
4 8.84415531158447266 8 202 250 51
4.49738740921020508 0 8 174 220 47
5 -0.75826495885848999 8 182 251 40
5 0 7.71253871917724609 141 165 37
5 0 8.57229137420654297 188 248 43
5 1 7.37110280990600586 140 162 39
5 1 8.74138545989990234 191 247 46
5 2 7.06739377975463867 143 164 42
5 2 8.80665779113769531 193 248 49
4.67733621597290039 3 7 100 111 36
5 2.25857925415039062 7 143 164 42
5 3 6.80183506011962891 43 45 15
5 3 8.84039497375488281 194 250 52
4.31351470947265625 4 7 115 130 44
5 4 6.57848453521728516 63 67 21
5 4 8.860260009765625 192 253 55
4.02204370498657227 5 7 139 156 50
5 5 6.39961767196655273 92 96 30
5 5 8.87264919281005859 195 254 52
5 6 6.26659870147705078 128 131 38
5 6 8.88038539886474609 199 252 48
5 7 6.18049716949462891 166 170 47
5 7 8.88485240936279297 201 248 44
5 8 6.1420292854309082 200 209 53
5 8 8.88672828674316406 202 242 39
5 8.78280448913574219 7 219 254 52
5 8.88672828674316406 8 202 242 39
5.81201887130737305 -2 8 167 253 39
6 -2.257537841796875 8 165 254 32
6 -2 7.87982702255249023 170 238 40
6 -2 8.36105251312255859 171 253 31
5.14569997787475586 -1 8 182 251 40
6 -1 7.4541020393371582 181 230 38
6 -1 8.71437931060791016 174 250 32
6 0 7.0620570182800293 183 224 40
6 0 8.8074951171875 182 252 35
5.56818866729736328 1 7 140 162 39
6 0.177548155188560486 7 183 224 40
6 1 6.70365524291992188 108 117 28
6 1 8.84984874725341797 187 253 37
5.10315608978271484 2 7 143 164 42
6 2 6.38466310501098633 112 121 30
6 2 8.87357521057128906 188 252 40
6 3 6.10783100128173828 121 132 35
6 3 8.88833808898925781 194 253 42
5.82839107513427734 4 6 63 67 21
6 3.46689486503601074 6 121 132 35
6 4 5.87288284301757812 31 30 9
6 4 8.89803123474121094 199 254 44
5.57217741012573242 5 6 92 96 30
6 5 5.68312883377075195 61 58 17
6 5 8.90450668334960938 202 251 41
5.38168239593505859 6 6 128 131 38
6 6 5.54207324981689453 99 93 26
6 6 8.90873336791992188 203 245 37
5.25839757919311523 7 6 166 170 47
6 7 5.45079565048217773 141 134 36
6 7 8.91124057769775391 202 236 33
5.20332145690917969 8 6 200 209 53
6 8 5.41002130508422852 186 178 44
6 8 8.91230869293212891 200 227 29
6 8.70040225982666016 6 232 247 49
6 8.86424350738525391 7 229 253 41
6 8.91230869293212891 8 200 227 29
6.49733495712280273 -3 8 165 254 32
7 -3.69602417945861816 8 173 254 25
7 -3 7.64480113983154297 177 240 33
7 -3 8.62214565277099609 179 253 24
7 -2 7.16811847686767578 190 250 32
7 -2 8.78924560546875 182 247 24
6.63146543502807617 -1 7 181 230 38
7 -1.61603832244873047 7 190 250 32
7 -1 6.72036838531494141 180 213 38
7 -1 8.84832668304443359 183 242 24
6.08626937866210938 0 7 183 224 40
7 0 6.30686187744140625 179 205 37
7 0 8.87815761566162109 187 242 26
6.91514682769775391 1 6 108 117 28
7 0.821358382701873779 6 179 205 37
7 1 5.93050909042358398 98 100 23
7 1 8.89585590362548828 192 243 28
6.50018692016601562 2 6 112 121 30
7 2 5.5907292366027832 101 103 24
7 2 8.90732574462890625 197 245 30
6.14019393920898438 3 6 121 132 35
7 3 5.29602861404418945 112 115 27
7 3 8.91513824462890625 203 247 32
7 4 5.04850912094116211 134 132 31
7 4 8.92058372497558594 209 248 33
6.82652044296264648 5 5 61 58 17
7 4.24646091461181641 5 134 132 31
7 5 4.84576272964477539 57 50 14
7 5 8.92437171936035156 207 239 30
6.65582180023193359 6 5 99 93 26
7 6 4.69400787353515625 95 82 22
7 6 8.92691230773925781 204 228 26
6.54537248611450195 7 5 141 134 36
7 7 4.59582042694091797 138 119 30
7 7 8.92844676971435547 199 216 23
6.49603652954101562 8 5 186 178 44
7 8 4.55196332931518555 183 160 38
7 8 8.92910671234130859 191 202 19
7 8.62273883819580078 5 235 223 43
7 8.84465599060058594 6 254 252 39
7 8.9026641845703125 7 238 245 30
7 8.92910671234130859 8 191 202 19
7.92198276519775391 -5 8 163 251 25
8 -5.10094594955444336 8 171 254 20
8 -5 7.93957090377807617 173 230 26
8 -5 8.22189521789550781 182 254 19
7.20358562469482422 -4 8 173 254 25
8 -4 7.38335514068603516 190 242 27
8 -4 8.73774147033691406 189 251 18
7.82161235809326172 -3 7 177 240 33
8 -3.27065348625183105 7 190 242 27
8 -3 6.85165786743164062 178 208 31
8 -3 8.83507823944091797 192 244 18
7.2141575813293457 -2 7 190 250 32
8 -2 6.34665298461914062 200 228 32
8 -2 8.87586212158203125 190 233 17
7.85835456848144531 -1 6 180 213 38
8 -1.25943779945373535 6 200 228 32
8 -1 5.87288141250610352 177 186 33
8 -1 8.89803123474121094 189 225 17
7.36558103561401367 0 6 179 205 37
8 0 5.43070173263549805 180 187 33
8 0 8.91177082061767578 193 226 18
8 1 5.02982616424560547 182 187 33
8 1 8.92096042633056641 198 228 20
7.65480804443359375 2 5 101 103 24
8 1.08504867553710938 5 182 187 33
8 2 4.66367959976196289 108 103 21
8 2 8.92739486694335938 204 230 21
7.32812023162841797 3 5 112 115 27
8 3 4.34539699554443359 126 118 24
8 3 8.93201732635498047 210 233 23
7.05376529693603516 4 5 134 132 31
8 4 4.07810831069946289 145 130 27
8 4 8.93536186218261719 213 231 23
7.86702442169189453 5 4 57 50 14
8 4.3670506477355957 4 145 130 27
8 5 3.85835504531860352 85 66 16
8 5 8.93774986267089844 206 217 20
7.71144962310791016 6 4 95 82 22
8 6 3.69263219833374023 121 92 22
8 6 8.93938255310058594 196 201 17
7.61079216003417969 7 4 138 119 30
8 7 3.58540582656860352 159 121 28
8 7 8.94037914276123047 183 182 14
7.56583166122436523 8 4 183 160 38
8 8 3.53751063346862793 176 128 30
8 8 8.9408111572265625 164 159 12
8 8.60943317413330078 4 222 177 35
8 8.83518600463867188 5 249 215 35
8 8.89647388458251953 6 252 229 29
8 8.92473125457763672 7 225 212 21
8 8.9408111572265625 8 164 159 12
8.22189521789550781 -5 8 182 254 19
8.73774147033691406 -4 8 189 251 18
8.39355850219726562 -3 7 204 251 26
8.83507823944091797 -3 8 192 244 18
8.73524665832519531 -2 7 213 254 25
8.87586212158203125 -2 8 190 233 17
8.3404541015625 -1 6 215 239 32
8.82309150695800781 -1 7 219 254 25
8.89803123474121094 -1 8 189 225 17
8.69309520721435547 0 6 218 240 33
8.86285305023193359 0 7 222 254 27
8.91177082061767578 0 8 193 226 18
8.79022407531738281 1 6 221 239 35
8.88516330718994141 1 7 226 254 29
8.92096042633056641 1 8 198 228 20
8.55473995208740234 2 5 182 184 33
8.83484172821044922 2 6 222 237 36
8.89914703369140625 2 7 231 254 31
8.92739486694335938 2 8 204 230 21
8.7047882080078125 3 5 189 188 34
8.85980701446533203 3 6 224 234 37
8.90846633911132812 3 7 235 254 33
8.93201732635498047 3 8 210 233 23
8.76842117309570312 4 5 209 203 37
8.87517547607421875 4 6 240 244 37
8.91486740112304688 4 7 240 254 32
8.93536186218261719 4 8 213 231 23
8.326507568359375 5 4 169 148 31
8.80182838439941406 5 5 224 212 38
8.88502407073974609 5 6 251 249 36
8.91927433013916016 5 7 243 250 30
8.93774986267089844 5 8 206 217 20
8.51082420349121094 6 4 195 168 35
8.82070732116699219 6 5 235 217 38
8.8912811279296875 6 6 254 246 35
8.92220973968505859 6 7 244 244 27
8.93938255310058594 6 8 196 201 17
8.58364582061767578 7 4 210 174 35
8.83099365234375 7 5 244 217 37
8.89493274688720703 7 6 254 239 32
8.92397403717041016 7 7 235 229 24
8.94037914276123047 7 8 183 182 14
8.60943317413330078 8 4 222 177 35
8.83518600463867188 8 5 249 215 35
8.89647388458251953 8 6 252 229 29
8.92473125457763672 8 7 225 212 21
8.9408111572265625 8 8 164 159 12
3 2 1 0
3 1 3 0
3 5 2 0
3 4 5 0
3 3 6 4
3 0 3 4
3 8 5 4
3 7 8 4
3 6 9 7
3 4 6 7
3 11 8 7
3 10 11 7
3 9 12 10
3 7 9 10
3 11 10 13
3 10 12 13
3 16 15 14
3 15 17 14
3 19 16 14
3 18 19 14
3 17 20 18
3 14 17 18
3 18 1 2
3 18 2 19
3 19 2 21
3 1 18 20
3 1 20 3
3 3 20 22
3 21 2 23
3 23 2 5
3 22 24 3
3 24 6 3
3 23 5 25
3 25 5 8
3 24 26 6
3 26 9 6
3 25 8 27
3 27 8 11
3 26 28 9
3 28 12 9
3 27 11 13
3 29 27 13
3 29 13 12
3 28 29 12
3 32 31 30
3 31 33 30
3 35 32 30
3 34 35 30
3 33 36 34
3 30 33 34
3 34 15 16
3 34 16 35
3 35 16 37
3 15 34 36
3 15 36 17
3 17 36 38
3 37 16 39
3 39 16 19
3 38 40 17
3 40 20 17
3 39 19 41
3 41 19 21
3 40 42 20
3 42 22 20
3 45 44 43
3 44 23 43
3 44 41 23
3 41 21 23
3 42 46 22
3 46 24 22
3 48 45 43
3 47 48 43
3 43 25 47
3 23 25 43
3 46 49 24
3 49 26 24
3 51 48 47
3 50 51 47
3 47 27 50
3 25 27 47
3 49 52 26
3 52 28 26
3 51 50 53
3 50 27 29
3 50 29 53
3 53 29 54
3 54 29 28
3 52 54 28
3 57 56 55
3 56 58 55
3 55 31 32
3 55 32 57
3 57 32 59
3 31 55 58
3 31 58 33
3 33 58 60
3 59 32 61
3 61 32 35
3 60 62 33
3 62 36 33
3 65 64 63
3 64 37 63
3 64 61 37
3 61 35 37
3 62 66 36
3 66 38 36
3 68 65 63
3 67 68 63
3 63 39 67
3 37 39 63
3 66 69 38
3 69 40 38
3 71 68 67
3 70 71 67
3 67 41 70
3 39 41 67
3 69 72 40
3 72 42 40
3 70 44 45
3 70 45 71
3 71 45 73
3 70 41 44
3 72 74 42
3 74 46 42
3 73 45 75
3 75 45 48
3 74 76 46
3 76 49 46
3 75 48 77
3 77 48 51
3 76 78 49
3 78 52 49
3 77 51 53
3 79 77 53
3 79 53 80
3 53 54 80
3 80 54 52
3 78 80 52
3 83 82 81
3 82 84 81
3 86 83 81
3 85 86 81
3 84 87 85
3 81 84 85
3 85 56 57
3 85 57 86
3 86 57 88
3 56 85 87
3 56 87 58
3 58 87 89
3 92 91 90
3 91 59 90
3 91 88 59
3 88 57 59
3 89 93 58
3 93 60 58
3 95 92 90
3 94 95 90
3 90 61 94
3 59 61 90
3 93 96 60
3 96 62 60
3 94 64 65
3 94 65 95
3 95 65 97
3 94 61 64
3 96 98 62
3 98 66 62
3 101 100 99
3 100 68 99
3 100 97 68
3 97 65 68
3 98 102 66
3 102 69 66
3 104 101 99
3 103 104 99
3 99 71 103
3 68 71 99
3 102 105 69
3 105 72 69
3 107 104 103
3 106 107 103
3 103 73 106
3 71 73 103
3 105 108 72
3 108 74 72
3 110 107 106
3 109 110 106
3 106 75 109
3 73 75 106
3 108 111 74
3 111 76 74
3 113 110 109
3 112 113 109
3 109 77 112
3 75 77 109
3 111 114 76
3 114 78 76
3 113 112 115
3 112 77 79
3 112 79 115
3 115 79 116
3 116 79 117
3 79 80 117
3 117 80 78
3 114 117 78
3 120 119 118
3 119 121 118
3 118 82 83
3 118 83 120
3 120 83 122
3 82 118 121
3 82 121 84
3 84 121 123
3 126 125 124
3 125 86 124
3 125 122 86
3 122 83 86
3 123 127 84
3 127 87 84
3 129 126 124
3 128 129 124
3 124 88 128
3 86 88 124
3 127 130 87
3 130 89 87
3 133 132 131
3 128 91 92
3 129 128 92
3 129 92 131
3 129 131 132
3 128 88 91
3 130 134 89
3 134 93 89
3 136 133 131
3 135 136 131
3 131 95 135
3 92 95 131
3 134 137 93
3 137 96 93
3 139 136 135
3 138 139 135
3 135 97 138
3 95 97 135
3 137 140 96
3 140 98 96
3 138 100 101
3 138 101 139
3 139 101 141
3 138 97 100
3 140 142 98
3 142 102 98
3 145 144 143
3 144 104 143
3 144 141 104
3 141 101 104
3 142 146 102
3 146 105 102
3 148 145 143
3 147 148 143
3 143 107 147
3 104 107 143
3 146 149 105
3 149 108 105
3 151 148 147
3 150 151 147
3 147 110 150
3 107 110 147
3 149 152 108
3 152 111 108
3 154 151 150
3 153 154 150
3 150 113 153
3 110 113 150
3 152 155 111
3 155 114 111
3 154 153 156
3 153 113 115
3 153 115 156
3 156 115 157
3 157 115 158
3 115 116 158
3 158 116 159
3 116 117 159
3 159 117 114
3 155 159 114
3 162 161 160
3 161 163 160
3 165 162 160
3 164 165 160
3 163 166 164
3 160 163 164
3 169 168 167
3 164 119 120
3 165 164 120
3 165 120 167
3 165 167 168
3 119 164 166
3 119 166 121
3 121 166 170
3 172 169 167
3 171 172 167
3 167 122 171
3 120 122 167
3 170 173 121
3 173 123 121
3 176 175 174
3 171 125 126
3 172 171 126
3 172 126 174
3 172 174 175
3 171 122 125
3 173 177 123
3 177 127 123
3 179 176 174
3 178 179 174
3 174 129 178
3 126 129 174
3 177 180 127
3 180 130 127
3 178 132 133
3 178 133 179
3 179 133 181
3 178 129 132
3 180 182 130
3 182 134 130
3 185 184 183
3 184 136 183
3 184 181 136
3 181 133 136
3 182 186 134
3 186 137 134
3 188 185 183
3 187 188 183
3 183 139 187
3 136 139 183
3 186 189 137
3 189 140 137
3 191 188 187
3 190 191 187
3 187 141 190
3 139 141 187
3 189 192 140
3 192 142 140
3 195 194 193
3 190 144 145
3 191 190 145
3 191 145 193
3 191 193 194
3 190 141 144
3 192 196 142
3 196 146 142
3 198 195 193
3 197 198 193
3 193 148 197
3 145 148 193
3 196 199 146
3 199 149 146
3 201 198 197
3 200 201 197
3 197 151 200
3 148 151 197
3 199 202 149
3 202 152 149
3 204 201 200
3 203 204 200
3 200 154 203
3 151 154 200
3 202 205 152
3 205 155 152
3 204 203 206
3 203 154 156
3 203 156 206
3 206 156 207
3 207 156 208
3 156 157 208
3 208 157 209
3 157 158 209
3 209 158 210
3 158 159 210
3 210 159 155
3 205 210 155
3 161 162 211
3 161 211 163
3 212 211 162
3 165 212 162
3 211 212 166
3 163 211 166
3 168 169 213
3 165 168 213
3 165 213 212
3 212 213 214
3 212 214 170
3 166 212 170
3 215 213 169
3 172 215 169
3 213 215 214
3 214 215 216
3 214 216 173
3 170 214 173
3 175 176 217
3 172 175 217
3 172 217 215
3 215 217 218
3 215 218 216
3 216 218 219
3 216 219 177
3 173 216 177
3 220 217 176
3 179 220 176
3 217 220 218
3 218 220 221
3 218 221 219
3 219 221 222
3 219 222 180
3 177 219 180
3 223 220 179
3 181 223 179
3 220 223 221
3 221 223 224
3 221 224 222
3 222 224 225
3 222 225 182
3 180 222 182
3 184 185 226
3 181 184 226
3 181 226 223
3 223 226 227
3 223 227 224
3 224 227 228
3 224 228 225
3 225 228 229
3 225 229 186
3 182 225 186
3 230 226 185
3 188 230 185
3 226 230 227
3 227 230 231
3 227 231 228
3 228 231 232
3 228 232 229
3 229 232 233
3 229 233 189
3 186 229 189
3 234 230 188
3 191 234 188
3 230 234 231
3 231 234 235
3 231 235 232
3 232 235 236
3 232 236 233
3 233 236 237
3 233 237 192
3 189 233 192
3 194 195 238
3 191 194 238
3 191 238 234
3 234 238 239
3 234 239 235
3 235 239 240
3 235 240 236
3 236 240 241
3 236 241 237
3 237 241 242
3 237 242 196
3 192 237 196
3 243 238 195
3 198 243 195
3 238 243 239
3 239 243 244
3 239 244 240
3 240 244 245
3 240 245 241
3 241 245 246
3 241 246 242
3 242 246 247
3 242 247 199
3 196 242 199
3 248 243 198
3 201 248 198
3 243 248 244
3 244 248 249
3 244 249 245
3 245 249 250
3 245 250 246
3 246 250 251
3 246 251 247
3 247 251 252
3 247 252 202
3 199 247 202
3 253 248 201
3 204 253 201
3 248 253 249
3 249 253 254
3 249 254 250
3 250 254 255
3 250 255 251
3 251 255 256
3 251 256 252
3 252 256 257
3 252 257 205
3 202 252 205
3 253 204 206
3 254 253 206
3 207 254 206
3 255 254 207
3 208 255 207
3 256 255 208
3 209 256 208
3 257 256 209
3 210 257 209
3 257 210 205
