ply
format ascii 1.0
element vertex 264
property float x
property float y
property float z
property uchar red
property uchar green
property uchar blue
element face 524
property list uchar int vertex_indices
end_header
-4.43903303146362305 -1 -2 9 7 3
-4 -1.33800268173217773 -2 5 0 0
-4 -1 -2.46994638442993164 6 2 1
-4.31028985977172852 -1 -1 9 4 2
-4 -1.39463388919830322 -1 2 0 0
-4 -1 -0.158499464392662048 5 8 5
-4 -0.571735680103302002 -2 2 3 1
-4 -0.452660590410232544 -1 5 8 5
-3.1116492748260498 -3 -2 11 2 1
-3 -3.08633160591125488 -2 7 3 0
-3 -3 -2.17856717109680176 8 5 1
-3 -3 -1.11033225059509277 3 8 2
-3.23037123680114746 -2 -4 3 1 0
-3 -2.81738829612731934 -4 5 8 2
-3 -2 -4.25879144668579102 10 6 1
-3.91247200965881348 -2 -3 2 2 0
-3 -2.31112098693847656 -3 8 5 1
-3 -2.74004483222961426 -2 3 8 2
-3 -2 -2.57810544967651367 11 11 3
-3.03528165817260742 -2 -1 2 0 0
-3 -2.64601469039916992 -1 4 7 1
-3 -2 -1.0736459493637085 7 1 1
-3 -2 -0.8618050217628479 0 0 0
-3.50489020347595215 -1 -5 0 0 0
-3 -1.39078056812286377 -5 10 6 1
-3 -1 -5.54035377502441406 9 6 4
-3 -1.50897669792175293 -4 9 9 2
-3 -1 -4.3607025146484375 7 9 6
-3.46205043792724609 -1 -3 6 2 1
-3 -1 -3.52458453178405762 9 3 2
-3.01101016998291016 -1 -2 2 3 1
-3 -1 -2.01136088371276855 10 9 4
-3 -1 -1.97491979598999023 9 4 2
-3 -1 -0.816257119178771973 4 3 1
-3 -0.45455285906791687 -5 7 9 6
-3 -0.427572518587112427 -3 10 9 4
-3 -0.845955967903137207 -1 4 3 1
-2.22981405258178711 -3 -3 8 5 1
-2 -3.43426775932312012 -3 1 5 1
-2 -3 -3.60628271102905273 3 4 1
-2.84031391143798828 -3 -2 3 8 2
-2 -3 -2.7931210994720459 1 2 0
-2 -2.48705244064331055 -4 3 4 1
-2 -2 -4.81516551971435547 8 8 2
-2.34896707534790039 -2 -2 7 1 1
-2 -2.22479367256164551 -2 11 1 1
-2 -2.29444789886474609 -1 4 0 0
-2.33018064498901367 -2 0 10 9 2
-2 -2.11702585220336914 0 7 6 1
-2 -2 0.220752239227294922 0 0 0
-2.60338497161865234 -1 -5 7 9 6
-2.4864199161529541 -1 -4 9 3 2
-2 -1 -4.25994777679443359 10 9 1
-2.98697662353515625 -1 -2 9 4 2
-2 -1.43697547912597656 0 0 0 0
-2 -1 -0.154777780175209045 9 9 4
-2 -0.272333264350891113 -4 7 6 3
-2.5766148567199707 0 -3 3 1 1
-2 0 -3.76000332832336426 6 4 3
-2 -0.211289778351783752 -2 11 8 4
-2 0 -2.18655729293823242 7 6 4
-2.30744171142578125 0 -1 10 8 3
-2 0 -1.82356095314025879 7 4 3
-2 0 -0.618244171142578125 2 2 1
-2.36945343017578125 0 1 10 10 7
-2 -0.483627229928970337 1 10 9 4
-2 0 0.820103645324707031 4 2 2
-2 0 1.11969995498657227 4 4 4
-2 0.713069796562194824 -3 7 6 4
-2 0.257523536682128906 -1 2 2 1
-2 0.196845501661300659 1 4 4 4
-1.75992512702941895 -3 -3 1 2 0
-1.2948760986328125 -3 -2 11 1 1
-1 -3.41750788688659668 -2 0 1 0
-1 -3 -2.33620643615722656 10 2 1
-1.11126983165740967 -3 -1 4 0 0
-1 -3.08676409721374512 -1 9 3 1
-1 -3 -0.520165026187896729 2 4 1
-1 -2.48277020454406738 -4 5 3 1
-1 -2 -4.43031835556030273 11 5 1
-1 -2.40340542793273926 -3 10 2 1
-1 -2.79184341430664062 0 1 3 0
-1 -2 0.351879149675369263 2 4 1
-1.35520374774932861 -1 -5 10 9 1
-1 -1.41302275657653809 -5 11 5 1
-1 -1 -5.54146623611450195 2 1 1
-1.92344653606414795 -1 0 8 6 3
-1.80622291564941406 -1 1 10 9 4
-1 -1.38070583343505859 1 6 1 0
-1.26922154426574707 -1 2 1 1 0
-1 -1.09915709495544434 2 12 5 2
-1 -1 2.06333374977111816 0 0 0
-1.77995455265045166 0 -5 9 6 5
-1 0 -5.3366241455078125 9 9 3
-1.88435351848602295 0 -4 6 4 3
-1.78530848026275635 0 -2 7 4 3
-1 -0.34537997841835022 0 1 1 1
-1 0 -0.569569170475006104 4 4 3
-1 0 0.901148319244384766 9 5 4
-1.04086148738861084 0 2 4 3 2
-1 0 2.06821918487548828 4 4 4
-1.20623445510864258 1 -5 9 7 7
-1 1 -5.0973668098449707 7 8 4
-1 0.938913643360137939 -4 3 3 3
-1 1 -4.22787857055664062 4 5 3
-1 0.304883211851119995 -3 9 9 6
-1.01027286052703857 1 -2 5 4 3
-1 1 -2.00927233695983887 1 1 0
-1 0.270113766193389893 -1 4 4 3
-1 1 -1.99155533313751221 8 8 8
-1 0.0849051773548126221 1 10 10 8
-1 0.0544894523918628693 2 4 4 4
-1 1.26068770885467529 -5 4 5 3
-1 1.00652813911437988 -2 8 8 8
-0.490897178649902344 -3 -3 10 2 1
0 -3.3051912784576416 -3 1 0 0
0 -3 -3.63339734077453613 6 5 1
0 -3.44005608558654785 -2 6 8 1
-0.667686760425567627 -3 -1 2 4 1
0 -3 -1.3212205171585083 0 0 0
-0.715905487537384033 -3 0 1 3 0
0 -3.19280791282653809 0 13 7 1
0 -3 -0.576202630996704102 11 11 2
0 -3 0.880830943584442139 0 0 0
-0.500348091125488281 -2 -5 11 5 1
0 -2.89934539794921875 -5 0 0 0
0 -2 -5.94846677780151367 2 2 1
-0.531269192695617676 -2 -4 2 2 1
0 -2 -4.46090412139892578 1 2 1
0 -2 -3.53950738906860352 4 1 0
-0.123903281986713409 -2 -2 7 11 4
0 -2.15882492065429688 -2 0 0 0
0 -2 -2.13326382637023926 1 3 1
-0.356235116720199585 -2 -1 0 0 0
-0.268785923719406128 -2 0 2 4 1
0 -2.35687375068664551 0 0 0 0
-0.109371833503246307 -2 1 6 1 0
0 -2.7162163257598877 1 0 2 1
0 -2 0.619067788124084473 12 11 2
0 -2 1.17776739597320557 2 5 2
-0.542659163475036621 -1 -6 2 1 1
0 -1.92854523658752441 -6 2 2 1
0 -1 -6.28545188903808594 2 1 0
-0.112863115966320038 -1 -4 1 2 1
0 -1 -4.24240589141845703 5 5 2
0 -1 -3.8294832706451416 8 3 2
-0.104921326041221619 -1 -2 0 0 0
0 -1 -2.17355871200561523 7 8 4
0 -1.57611227035522461 -1 8 1 1
0 -1 -1.83712911605834961 1 0 0
-0.209503054618835449 -1 0 1 1 1
0 -1 -0.257095813751220703 3 4 2
0 -1 0.97050321102142334 1 1 0
-0.909837722778320312 -1 2 0 0 0
0 -1 1.00554633140563965 10 12 6
0 -0.540459513664245605 -6 2 3 2
-0.378953933715820312 0 -5 3 3 3
0 -0.484572410583496094 -5 5 5 2
-0.189783006906509399 0 -4 3 3 3
0 0 -3.6889491081237793 1 1 0
-0.303570270538330078 0 -2 8 8 5
0 0 -2.22593164443969727 2 2 2
0 0 -1.83025896549224854 11 6 5
-0.274616867303848267 0 0 9 5 4
0 -0.429765164852142334 0 1 1 0
-0.877847075462341309 0 1 10 10 8
0 -0.981001198291778564 1 10 12 6
0 0 0.324433237314224243 10 10 8
-0.969879686832427979 0 2 4 4 4
-0.485172688961029053 1 -5 4 5 3
0 0.474756002426147461 -3 2 2 2
-0.976673543453216553 1 -2 8 8 8
0 0.469915419816970825 -1 10 11 10
0 0.232309892773628235 0 10 10 8
0.424365341663360596 -3 -3 0 0 0
0.673421561717987061 -3 -2 0 0 0
0.360393702983856201 -3 0 0 0 0
0.569648802280426025 -2 -5 1 2 1
0.552337527275085449 -2 -3 1 3 1
0.120654188096523285 -2 1 2 5 2
0.448677778244018555 -1 -6 2 3 2
0.342355191707611084 -1 -5 5 5 2
1 -1.09466099739074707 -3 4 1 0
1 -1 -3.09895634651184082 11 5 2
0.43494078516960144 -1 -2 1 0 0
1 -1.34922456741333008 -2 2 1 0
1 -1.58512914180755615 -1 12 7 2
1 -1 -0.435821741819381714 3 4 2
0.00685289688408374786 -1 1 10 12 6
1 0 -3.22885727882385254 7 4 4
0.247366741299629211 0 -2 11 6 5
0.626999735832214355 0 -1 10 11 10
1 -0.437883287668228149 -1 3 4 2
1 0 -1.48884952068328857 0 0 0
0.347689509391784668 0 0 10 10 8
0.874746739864349365 0 1 4 4 3
1 -0.0485400892794132233 1 8 2 2
1 0 0.862870097160339355 1 1 0
1 0 1.07929420471191406 5 5 5
0.743773996829986572 1 -3 10 8 8
1 1 -3.42210936546325684 4 4 4
1 0.773678779602050781 -2 0 0 0
1 1 -2.40532946586608887 2 3 2
0.928992688655853271 1 -1 7 5 5
1 0.873411655426025391 -1 0 0 0
1 1 -1.321502685546875 1 1 1
1 1 -0.897237241268157959 3 4 2
1 0.0478768423199653625 1 5 5 5
1 1.1018906831741333 -3 2 3 2
1 1.052864670753479 -1 3 4 2
1.89108955860137939 -3 -2 6 7 1
2 -3.03352808952331543 -2 7 11 3
2 -3 -2.14798116683959961 3 5 1
2 -3 -1.96669554710388184 5 12 4
1.90545260906219482 -2 -2 2 1 0
2 -2 -2.05909419059753418 3 2 0
2 -2 -1.90075230598449707 4 7 2
1.56459689140319824 -2 0 1 0 0
2 -2.66190123558044434 0 4 11 4
2 -2 -0.623517751693725586 2 2 0
2 -2 0.676401793956756592 4 7 6
1.69069421291351318 -1 -6 0 0 0
2 -1.17683148384094238 -6 0 0 0
2 -1 -6.13571882247924805 2 1 0
1.60273587703704834 -1 -5 5 2 1
2 -1.37588107585906982 -5 0 0 0
1.45631527900695801 -1 -4 11 5 2
2 -1.37421011924743652 -4 12 5 1
2 -1.52251410484313965 -3 3 2 0
1.29605722427368164 -1 -2 4 4 2
2 -1.9243539571762085 -2 4 7 2
2 -1 -2.41221904754638672 4 6 4
1.52974927425384521 -1 -1 3 4 2
2 -1.46314358711242676 0 4 7 6
2 -0.73188173770904541 -6 7 8 7
1.46882247924804688 0 -5 10 8 7
2 0 -5.25902938842773438 9 8 6
2 -0.293784379959106445 -4 0 0 0
2 0 -4.50819063186645508 0 0 0
1.2546389102935791 0 -3 3 3 2
2 -0.374175220727920532 -3 4 6 4
1.95485424995422363 0 -2 0 0 0
1.04954969882965088 0 1 5 5 5
2 0.276373952627182007 -5 0 0 0
1.15456104278564453 1 -3 2 3 2
1.05459654331207275 1 -1 3 4 2
2.07941484451293945 -3 -2 5 12 4
2.03857946395874023 -2 -2 4 7 2
2.42019414901733398 -2 0 4 7 6
2.28272056579589844 -1 -6 7 8 7
2.49510550498962402 -1 -5 4 5 4
2.35759639739990234 -1 -4 0 0 0
3 -1.18056094646453857 -3 9 2 1
3 -1 -3.18929338455200195 8 3 2
3 -1 -2.06352806091308594 4 5 4
2.99793624877929688 -1 1 12 7 4
3 -1.00397312641143799 1 0 1 0
3 -1 0.88863980770111084 7 9 7
3 -1 1.00119280815124512 3 4 3
2.13826274871826172 0 -5 0 0 0
3 -0.787954449653625488 -3 4 5 4
3 -0.998611688613891602 1 3 4 3
3.19164109230041504 -1 -3 4 5 4
3.00113964080810547 -1 1 3 4 3
3 2 1 0
3 1 4 3
3 0 1 3
3 4 5 3
3 2 0 6
3 0 3 7
3 6 0 7
3 3 5 7
3 10 9 8
3 9 11 8
3 14 13 12
3 13 16 15
3 12 13 15
3 17 18 15
3 17 15 8
3 16 10 15
3 10 8 15
3 21 17 8
3 21 8 19
3 11 20 8
3 20 19 8
3 20 22 19
3 25 24 23
3 26 27 23
3 26 23 12
3 24 14 23
3 14 12 23
3 29 26 12
3 29 12 28
3 28 12 15
3 28 15 1
3 28 1 2
3 15 18 1
3 30 1 31
3 18 31 1
3 30 32 21
3 30 21 4
3 30 4 1
3 4 21 19
3 4 19 22
3 4 22 5
3 5 22 33
3 25 23 34
3 23 27 34
3 29 28 35
3 30 31 35
3 30 35 6
3 28 2 35
3 2 6 35
3 32 30 6
3 32 6 36
3 36 6 7
3 36 7 5
3 33 36 5
3 39 38 37
3 10 37 38
3 10 38 9
3 41 40 38
3 40 9 38
3 9 40 11
3 14 43 42
3 13 14 42
3 37 42 39
3 37 16 42
3 16 13 42
3 37 10 16
3 40 41 45
3 18 17 44
3 44 17 21
3 40 45 11
3 45 20 11
3 45 46 20
3 47 22 20
3 47 20 48
3 48 20 46
3 48 49 47
3 24 25 50
3 51 27 26
3 50 52 24
3 52 14 24
3 52 43 14
3 26 29 51
3 53 18 44
3 31 18 53
3 44 32 53
3 21 32 44
3 54 22 47
3 54 55 22
3 55 33 22
3 47 49 54
3 50 25 34
3 27 51 56
3 27 56 34
3 52 50 56
3 50 34 56
3 58 35 57
3 56 35 58
3 56 29 35
3 56 51 29
3 57 59 60
3 35 59 57
3 35 53 59
3 35 31 53
3 62 36 61
3 59 36 62
3 59 32 36
3 59 53 32
3 61 36 33
3 61 33 63
3 63 33 55
3 66 65 64
3 65 67 64
3 58 57 68
3 57 60 68
3 62 61 69
3 61 63 69
3 66 64 70
3 64 67 70
3 38 39 71
3 72 41 38
3 72 38 73
3 71 74 38
3 74 73 38
3 73 76 75
3 72 73 75
3 76 77 75
3 43 79 78
3 42 43 78
3 39 80 71
3 39 42 80
3 42 78 80
3 71 80 74
3 41 72 45
3 75 45 72
3 46 45 75
3 77 46 75
3 77 81 46
3 81 48 46
3 48 81 82
3 49 48 82
3 85 84 83
3 84 52 83
3 84 79 52
3 79 43 52
3 54 86 55
3 88 49 82
3 88 86 49
3 88 87 86
3 54 49 86
3 88 90 89
3 87 88 89
3 90 91 89
3 93 85 83
3 92 93 83
3 56 83 52
3 56 94 83
3 94 92 83
3 56 58 94
3 59 95 60
3 59 62 95
3 96 55 86
3 96 97 55
3 97 63 55
3 96 66 98
3 96 87 66
3 96 86 87
3 65 66 87
3 65 99 67
3 65 87 99
3 87 89 99
3 91 100 99
3 89 91 99
3 102 93 92
3 101 102 92
3 103 104 101
3 103 101 94
3 94 101 92
3 94 58 68
3 94 68 103
3 103 68 105
3 60 105 68
3 60 106 105
3 60 95 106
3 106 107 105
3 62 106 95
3 62 108 106
3 62 69 108
3 109 106 108
3 108 69 63
3 97 108 63
3 98 66 70
3 110 98 70
3 67 99 111
3 67 111 70
3 70 111 110
3 99 100 111
3 102 101 112
3 101 104 112
3 107 106 113
3 106 109 113
3 116 115 114
3 74 114 115
3 74 115 73
3 73 115 117
3 119 118 76
3 119 76 117
3 117 76 73
3 120 77 76
3 120 76 121
3 118 122 76
3 122 121 76
3 121 123 120
3 126 125 124
3 79 124 125
3 79 125 78
3 128 127 125
3 127 78 125
3 127 129 116
3 127 116 80
3 127 80 78
3 80 116 114
3 114 74 80
3 131 132 130
3 131 118 119
3 131 130 118
3 130 133 118
3 77 120 81
3 122 118 135
3 118 134 135
3 118 133 134
3 120 82 81
3 120 136 82
3 120 123 136
3 137 136 123
3 135 134 138
3 137 139 136
3 142 141 140
3 124 84 85
3 126 124 85
3 126 85 140
3 126 140 141
3 127 144 143
3 127 128 144
3 124 79 84
3 129 143 145
3 127 143 129
3 147 130 132
3 146 130 147
3 148 146 149
3 148 133 146
3 133 130 146
3 151 133 148
3 151 150 133
3 150 134 133
3 138 150 152
3 138 134 150
3 82 136 88
3 136 90 88
3 136 154 90
3 136 139 154
3 153 90 154
3 90 153 91
3 142 140 155
3 140 85 93
3 140 93 157
3 140 157 155
3 157 93 156
3 157 143 144
3 157 156 143
3 156 158 143
3 145 158 159
3 143 158 145
3 161 146 147
3 160 146 161
3 149 160 162
3 146 160 149
3 150 151 164
3 96 163 97
3 150 164 152
3 163 96 98
3 166 167 165
3 166 153 154
3 166 165 153
3 165 168 153
3 153 168 100
3 91 153 100
3 169 156 93
3 102 169 93
3 104 103 158
3 104 158 169
3 169 158 156
3 159 158 103
3 159 103 170
3 170 103 105
3 161 171 160
3 161 105 171
3 161 170 105
3 107 171 105
3 162 108 172
3 162 171 108
3 162 160 171
3 171 109 108
3 97 163 173
3 97 173 108
3 108 173 172
3 165 167 173
3 165 173 110
3 163 98 173
3 98 110 173
3 168 165 110
3 111 168 110
3 168 111 100
3 169 102 112
3 169 112 104
3 171 107 113
3 171 113 109
3 115 116 174
3 117 115 174
3 175 117 174
3 117 175 119
3 121 122 176
3 121 176 123
3 125 126 177
3 125 177 128
3 178 174 116
3 129 178 116
3 132 131 175
3 132 175 178
3 178 175 174
3 175 131 119
3 176 122 135
3 137 123 176
3 137 176 179
3 135 138 176
3 138 179 176
3 137 179 139
3 141 142 180
3 126 141 180
3 126 180 177
3 177 180 181
3 177 181 144
3 128 177 144
3 182 178 129
3 182 129 183
3 183 129 145
3 178 147 132
3 178 185 147
3 178 182 185
3 185 184 147
3 149 184 185
3 149 185 148
3 148 185 186
3 148 186 187
3 151 148 187
3 188 179 138
3 152 188 138
3 179 188 154
3 139 179 154
3 180 142 155
3 181 180 155
3 157 181 155
3 181 157 144
3 183 145 189
3 189 145 159
3 190 147 184
3 161 147 190
3 162 184 149
3 162 190 184
3 193 191 192
3 192 191 194
3 192 194 151
3 192 151 187
3 151 194 164
3 164 188 152
3 164 196 188
3 164 194 196
3 197 196 194
3 167 166 195
3 195 166 154
3 195 154 198
3 188 196 154
3 196 198 154
3 170 199 200
3 170 200 159
3 159 200 189
3 199 201 202
3 170 201 199
3 170 190 201
3 170 161 190
3 201 203 205
3 201 172 203
3 201 190 172
3 162 172 190
3 193 204 191
3 172 173 206
3 172 206 203
3 173 194 206
3 204 206 191
3 194 191 206
3 167 195 207
3 167 207 173
3 197 194 207
3 194 173 207
3 195 198 207
3 200 199 208
3 199 202 208
3 205 203 209
3 203 206 209
3 212 211 210
3 211 213 210
3 215 212 210
3 214 215 210
3 213 216 214
3 210 213 214
3 219 218 217
3 218 220 217
3 223 222 221
3 222 225 224
3 221 222 224
3 225 227 226
3 224 225 226
3 183 226 227
3 183 227 182
3 182 227 228
3 231 229 230
3 228 215 185
3 228 185 182
3 185 215 214
3 229 232 216
3 229 216 230
3 232 186 216
3 214 216 185
3 186 185 216
3 219 217 233
3 232 187 186
3 217 220 233
3 223 221 234
3 236 234 221
3 236 221 235
3 235 221 224
3 237 238 235
3 237 235 226
3 226 235 224
3 226 183 189
3 226 189 240
3 226 240 237
3 240 189 239
3 240 229 231
3 240 239 229
3 239 241 229
3 193 192 232
3 193 232 241
3 241 232 229
3 232 192 187
3 196 197 242
3 196 242 198
3 236 235 243
3 235 238 243
3 244 239 189
3 200 244 189
3 202 201 241
3 202 241 244
3 244 241 239
3 204 193 241
3 204 241 245
3 201 205 241
3 205 245 241
3 204 245 206
3 242 197 207
3 242 207 198
3 244 200 208
3 244 208 202
3 245 205 209
3 245 209 206
3 211 212 246
3 211 246 213
3 247 246 212
3 215 247 212
3 246 247 216
3 213 246 216
3 218 219 248
3 218 248 220
3 222 223 249
3 225 222 249
3 250 225 249
3 227 225 250
3 251 227 250
3 251 253 252
3 251 252 227
3 227 252 228
3 228 252 247
3 228 247 215
3 252 254 247
3 230 247 231
3 254 231 247
3 247 230 216
3 248 219 233
3 248 233 220
3 256 255 257
3 256 258 255
3 249 223 234
3 234 236 259
3 234 259 249
3 249 259 250
3 238 237 251
3 238 251 259
3 259 251 250
3 253 251 237
3 253 237 260
3 260 237 240
3 260 240 231
3 254 260 231
3 257 255 261
3 255 258 261
3 259 236 243
3 259 243 238
3 252 253 262
3 252 262 254
3 256 257 263
3 256 263 258
3 262 253 260
3 262 260 254
3 263 257 261
3 263 261 258
