ply
format ascii 1.0
element vertex 212
property float x
property float y
property float z
property uchar red
property uchar green
property uchar blue
element face 416
property list uchar int vertex_indices
end_header
-2.12398362159729004 -3 -1 128 127 118
-2 -3.17698049545288086 -1 89 89 88
-2 -3 -1.13444650173187256 117 121 112
-2 -3 -0.510542631149291992 84 84 83
-2 -2.61249160766601562 -1 84 84 83
-2.52235031127929688 -2 0 3 2 2
-2 -2.79499220848083496 0 24 23 23
-2 -2 -0.71903151273727417 84 85 78
-2.01189279556274414 -2 1 92 89 88
-2 -2.00689482688903809 1 155 149 131
-2 -2 1.0075913667678833 154 150 131
-2.50508213043212891 -1 0 111 110 107
-2 -1 -0.794460594654083252 81 70 66
-2.74079084396362305 -1 1 135 135 135
-2 -1 1.8699193000793457 12 11 10
-2.2718808650970459 -1 3 32 31 30
-2 -1.25681233406066895 3 125 120 112
-2 -1 2.47210097312927246 66 65 59
-2 -1 3.2189478874206543 104 101 90
-2.06406116485595703 0 -2 122 116 90
-2 -0.772921979427337646 -2 119 118 112
-2 0 -2.10139203071594238 139 138 129
-2 0 -1.70125854015350342 126 125 121
-2.59624576568603516 0 0 104 99 84
-2 0 -0.814254820346832275 127 105 77
-2.66555070877075195 0 1 93 87 80
-2 0 1.80917298793792725 110 107 104
-2 -0.625282645225524902 3 104 101 90
-2 0.0777666717767715454 -2 126 125 121
-2 0.857011556625366211 0 137 142 115
-2.69863319396972656 1 1 116 125 95
-2 1 0.258477240800857544 86 85 77
-2 1 1.4763106107711792 82 78 70
-2.17652463912963867 2 0 31 29 27
-2 1.38556861877441406 0 86 85 77
-2 2 -0.21657976508140564 76 76 52
-2 1.47109746932983398 1 82 78 70
-2 2 0.331001371145248413 126 135 103
-2 2.1607518196105957 0 126 135 103
-1.44082891941070557 -3 -1 84 84 83
-1.84043943881988525 -3 0 24 23 23
-1 -3.70328474044799805 0 89 105 77
-1 -3 -0.874514222145080566 13 13 11
-1.50413978099822998 -3 1 155 149 131
-1 -3.9098207950592041 1 47 47 36
-1.54632604122161865 -3 2 56 55 49
-1 -3.47664403915405273 2 35 35 32
-1 -3 2.45881962776184082 11 11 11
-1.76137030124664307 -2 -1 84 85 78
-1 -2.86480712890625 -1 13 13 11
-1 -2 -1.65960335731506348 62 61 61
-1.7539060115814209 -2 2 147 139 121
-1 -2 2.65106797218322754 24 17 16
-1.83818459510803223 -1 -2 119 118 112
-1 -1.21120274066925049 -2 62 61 61
-1 -1 -2.18747997283935547 35 29 27
-1.63351893424987793 -1 -1 81 70 66
-1.79629743099212646 -1 2 66 65 59
-1.66107678413391113 -1 3 104 101 90
-1 -1 2.64187312126159668 168 169 164
-1.7814948558807373 0 -2 126 125 121
-1 -0.701510608196258545 -2 49 41 40
-1.84938812255859375 0 -1 127 105 77
-1 0 -1.78729701042175293 0 0 0
-1.68279969692230225 0 2 71 70 66
-1 0 2.52742385864257812 179 180 156
-1.13809359073638916 1 -1 9 9 9
-1 1 -1.08935117721557617 84 84 83
-1.89288103580474854 1 0 86 85 77
-1 0.953159868717193604 2 179 180 156
-1 1 1.96359705924987793 70 70 61
-1.37592995166778564 2 -1 76 76 52
-1 2 -1.45405423641204834 68 63 48
-1 1.81818687915802002 1 70 70 61
-1 2 0.848406434059143066 75 73 68
-1 2.80324983596801758 -1 28 25 23
-1 2.64037179946899414 0 75 73 68
-0.526670634746551514 -4 0 89 105 77
0 -4.31390857696533203 0 177 157 155
0 -4 -0.423257440328598022 56 54 45
0 -4 0.55369257926940918 38 35 33
-0.853697299957275391 -3 -1 13 13 11
0 -3.56689953804016113 -1 56 54 45
0 -3 -1.69055831432342529 81 100 69
0 -3.65465784072875977 1 34 43 26
-0.164863273501396179 -3 2 11 11 11
0 -3 1.8368988037109375 68 68 54
0 -2 -1.81191456317901611 129 130 128
0 -2.86274433135986328 2 63 57 47
0 -2 2.67979288101196289 52 53 36
0 -1.54423141479492188 -2 129 130 128
0 -1 -2.25956940650939941 83 86 74
-0.66073906421661377 -1 3 155 154 152
0 -1.6274421215057373 3 34 36 33
0 -1 3.39149022102355957 141 128 97
-0.338690698146820068 0 -2 0 0 0
0 0 -2.12791943550109863 119 122 114
0 -0.315536588430404663 3 141 128 97
0 0 2.71201252937316895 158 158 154
0 0.477353215217590332 -2 72 73 64
0 1 -1.84673917293548584 141 135 120
-0.975220739841461182 1 2 51 51 50
0 1 2.61617565155029297 83 61 59
-0.441659748554229736 2 -1 28 25 23
0 1.70145940780639648 -1 8 7 6
-0.116771340370178223 2 0 75 73 68
0 1.90262174606323242 0 160 158 154
-0.822050571441650391 2 1 23 22 20
0 2 0.138058215379714966 32 32 22
0 1.86334621906280518 2 83 61 59
0 2 1.81350100040435791 50 50 48
-0.36786380410194397 3 0 51 48 41
0 2.2880246639251709 0 32 32 22
0 3 -0.21336643397808075 118 102 95
-0.242539986968040466 3 1 61 58 49
0 3 1.20553994178771973 36 36 34
0 3.30450320243835449 0 10 10 8
0 3.2740013599395752 1 36 36 34
1 -4.09200286865234375 0 17 21 17
1 -4 -0.134564504027366638 35 54 32
1 -4 0.176549091935157776 69 57 44
1 -3.30722951889038086 -1 35 54 32
1 -3 -1.50426983833312988 104 113 103
1 -3.58393168449401855 1 82 83 61
0.265060245990753174 -3 2 63 57 47
1 -3.84669995307922363 2 122 116 109
1 -3 2.29845404624938965 37 44 33
1 -2 -1.27629184722900391 81 81 70
1 -2 2.39590167999267578 115 108 99
0.329321175813674927 -1 -2 146 146 144
1 -1 -1.71946823596954346 9 9 7
1 -1.30568611621856689 3 177 162 157
1 -1 3.01955175399780273 180 180 179
1 -0.116252705454826355 -2 9 9 7
1 0 -2.11507153511047363 32 32 32
0.409056335687637329 0 3 196 192 169
1 0 3.41028618812561035 35 36 34
0.614390850067138672 1 -2 141 135 120
1 1 -2.12557172775268555 45 44 43
0.943795502185821533 1 -1 8 7 6
1 0.794876575469970703 -1 81 90 63
1 1 -1.34392452239990234 184 180 171
1 1 -0.867257118225097656 54 55 53
1 0.41150936484336853 3 35 36 34
1 1 2.17560386657714844 84 83 82
1 1.37016785144805908 -2 184 180 171
0.592579245567321777 2 -1 63 63 62
1 1.16910028457641602 -1 54 55 53
1 2 -1.60220623016357422 143 136 134
0.676513314247131348 2 0 32 32 22
0.379962056875228882 2 2 58 57 54
1 2 2.32178568840026855 201 200 200
1 2.20929932594299316 -1 43 43 42
0.208692938089370728 3 0 10 10 8
1 2.04853987693786621 0 189 188 180
0.23529660701751709 3 1 36 36 34
1 2.27724003791809082 1 76 74 72
1 2.48816490173339844 2 201 200 200
1.12859892845153809 -4 0 69 57 44
1.39612042903900146 -3 -1 26 23 18
1.62452709674835205 -3 0 71 65 50
1.61496400833129883 -3 1 91 71 64
1.32188379764556885 -3 2 37 44 33
2 -2.21373939514160156 -1 110 96 84
2 -2 -1.2274395227432251 172 145 136
2 -2.38338899612426758 0 2 3 2
2 -2.39450311660766602 1 45 53 37
2 -2.36046123504638672 2 29 34 26
2 -2 2.43554520606994629 186 163 156
2 -1 -1.36764001846313477 40 40 40
1.02268123626708984 -1 3 180 180 179
2 -1 2.35207819938659668 196 187 177
1.10078072547912598 0 -2 45 45 44
1.45986080169677734 0 -1 81 90 63
2 -0.31783178448677063 -1 161 126 126
2 0 -0.0723263919353485107 60 63 59
1.70766901969909668 0 2 73 71 67
2 -0.343367666006088257 2 196 187 177
2 0 1.76201069355010986 189 173 158
1.94331896305084229 0 3 35 36 34
1.27910220623016357 1 -2 184 180 171
1.13919162750244141 1 -1 54 55 53
2 0.423959046602249146 -1 60 63 59
2 1 -1.55656838417053223 46 46 46
1.34260880947113037 1 2 84 83 82
2 1 1.67905116081237793 153 136 135
1.72068667411804199 2 -1 43 43 42
2 1.764565110206604 -1 27 28 27
2 2 -0.577854931354522705 62 58 42
1.31373322010040283 2 1 76 74 72
2 1.4608997106552124 1 153 136 135
2 2 0.175924703478813171 187 182 181
1.28311026096343994 2 2 201 200 200
2 2.2158358097076416 0 187 182 181
2.26304411888122559 -2 -1 125 95 88
2.19641566276550293 -2 0 87 78 66
2.35826635360717773 -2 1 184 168 159
2.30704975128173828 -2 2 186 163 156
2.32345986366271973 -1 -1 161 126 126
3 -1.05933678150177002 0 20 27 19
3 -1 -0.0394515693187713623 8 10 8
2.53723287582397461 -1 1 177 166 166
3 -1 0.067129865288734436 185 161 161
2.40121006965637207 -1 2 196 187 177
2.05739283561706543 0 0 149 132 131
3 -0.874131977558135986 0 185 161 161
2.96145725250244141 0 1 189 173 158
2.2182307243347168 1 -1 27 28 27
2.34917473793029785 1 0 17 20 13
2.33822512626647949 1 1 153 136 135
2.19808578491210938 2 0 187 182 181
3.03108763694763184 -1 0 185 161 161
3 2 1 0
3 1 3 0
3 2 0 4
3 7 4 0
3 7 0 5
3 3 6 0
3 6 5 0
3 6 9 8
3 5 6 8
3 9 10 8
3 12 7 5
3 11 12 5
3 5 8 11
3 8 13 11
3 10 14 13
3 8 10 13
3 17 16 15
3 16 18 15
3 21 20 19
3 20 22 19
3 24 12 11
3 23 24 11
3 11 13 23
3 13 25 23
3 14 26 25
3 13 14 25
3 17 15 27
3 15 18 27
3 21 19 28
3 19 22 28
3 24 23 29
3 31 29 23
3 31 23 30
3 30 23 25
3 26 32 30
3 25 26 30
3 35 34 33
3 36 37 33
3 36 33 30
3 34 31 33
3 31 30 33
3 30 32 36
3 35 33 38
3 33 37 38
3 1 2 39
3 40 3 1
3 40 1 41
3 39 42 1
3 42 41 1
3 41 44 43
3 40 41 43
3 44 46 45
3 43 44 45
3 46 47 45
3 4 48 50
3 4 50 2
3 49 39 50
3 39 2 50
3 42 39 49
3 3 40 6
3 48 4 7
3 43 6 40
3 9 6 43
3 9 51 10
3 9 43 51
3 43 45 51
3 47 52 51
3 45 47 51
3 55 54 53
3 54 50 48
3 54 48 53
3 53 48 56
3 48 12 56
3 7 12 48
3 57 10 51
3 14 10 57
3 57 51 16
3 57 16 17
3 51 52 16
3 58 16 59
3 52 59 16
3 16 58 18
3 60 61 55
3 60 55 21
3 53 20 55
3 20 21 55
3 61 60 63
3 20 53 22
3 53 62 22
3 53 56 62
3 56 24 62
3 12 24 56
3 64 14 57
3 26 14 64
3 59 65 27
3 59 27 58
3 65 64 27
3 17 27 57
3 64 57 27
3 58 27 18
3 60 21 28
3 62 66 28
3 62 28 22
3 66 67 28
3 60 28 63
3 67 63 28
3 29 62 24
3 29 68 62
3 68 66 62
3 29 31 68
3 69 26 64
3 69 70 26
3 70 32 26
3 64 65 69
3 72 67 66
3 71 72 66
3 35 68 34
3 35 71 68
3 71 66 68
3 37 73 74
3 37 36 73
3 31 34 68
3 73 36 32
3 70 73 32
3 72 71 75
3 71 35 38
3 71 38 75
3 75 38 76
3 76 38 37
3 74 76 37
3 79 78 77
3 78 80 77
3 83 82 81
3 77 41 42
3 79 77 42
3 79 42 81
3 79 81 82
3 80 41 77
3 80 84 41
3 84 44 41
3 86 85 46
3 86 46 84
3 84 46 44
3 46 85 47
3 81 49 50
3 81 50 83
3 83 50 87
3 81 42 49
3 86 88 85
3 85 88 89
3 85 89 47
3 47 89 52
3 55 91 90
3 54 55 90
3 90 50 54
3 87 50 90
3 92 89 93
3 92 59 89
3 59 52 89
3 93 94 92
3 61 95 96
3 61 96 55
3 55 96 91
3 61 63 95
3 97 59 92
3 97 98 59
3 98 65 59
3 92 94 97
3 96 95 99
3 95 100 99
3 95 63 100
3 63 67 100
3 69 101 70
3 101 69 65
3 101 65 102
3 102 65 98
3 103 104 100
3 103 100 72
3 72 100 67
3 104 105 106
3 103 105 104
3 108 106 105
3 107 74 73
3 107 109 110
3 73 109 107
3 73 101 109
3 73 70 101
3 101 102 109
3 103 72 75
3 105 103 113
3 105 113 112
3 103 75 113
3 111 113 76
3 75 76 113
3 112 108 105
3 111 76 107
3 111 107 114
3 107 76 74
3 110 115 114
3 107 110 114
3 113 111 116
3 111 114 117
3 116 111 117
3 114 115 117
3 79 119 118
3 78 79 118
3 78 118 120
3 80 78 120
3 83 122 121
3 82 83 121
3 121 79 82
3 119 79 121
3 120 84 80
3 123 84 120
3 124 86 84
3 124 84 125
3 125 84 123
3 125 126 124
3 122 83 127
3 127 83 87
3 124 88 86
3 88 124 126
3 88 126 89
3 89 126 128
3 90 91 129
3 129 87 90
3 129 130 87
3 130 127 87
3 128 93 89
3 131 93 128
3 93 131 132
3 94 93 132
3 133 129 91
3 133 91 134
3 134 91 96
3 129 133 130
3 97 135 98
3 135 97 94
3 135 94 136
3 136 94 132
3 99 137 138
3 99 138 96
3 96 138 134
3 137 99 100
3 141 139 140
3 140 139 142
3 143 98 135
3 143 144 98
3 144 102 98
3 135 136 143
3 138 137 145
3 145 146 148
3 145 104 146
3 145 137 104
3 100 104 137
3 141 147 139
3 146 106 149
3 146 104 106
3 139 147 142
3 106 108 149
3 109 150 110
3 150 109 102
3 150 102 151
3 151 102 144
3 148 146 152
3 154 152 113
3 154 113 153
3 152 146 113
3 112 113 149
3 146 149 113
3 154 155 156
3 154 153 155
3 112 149 108
3 155 157 156
3 155 110 157
3 155 115 110
3 150 157 110
3 150 151 157
3 153 113 116
3 155 153 116
3 117 155 116
3 155 117 115
3 118 119 158
3 118 158 120
3 121 122 159
3 119 121 159
3 119 159 158
3 158 159 160
3 123 120 158
3 123 158 161
3 161 158 160
3 125 123 161
3 162 125 161
3 125 162 126
3 163 159 122
3 163 122 164
3 164 122 127
3 159 165 160
3 163 165 159
3 160 166 161
3 165 166 160
3 161 167 162
3 166 167 161
3 162 167 168
3 162 168 126
3 126 168 128
3 164 127 169
3 169 127 130
3 131 171 170
3 131 128 171
3 128 168 171
3 131 170 132
3 133 134 172
3 174 169 130
3 174 130 172
3 174 172 173
3 133 172 130
3 174 173 175
3 178 176 177
3 177 170 171
3 177 176 170
3 176 179 170
3 170 179 136
3 132 170 136
3 180 172 134
3 138 180 134
3 140 181 141
3 182 173 183
3 173 180 183
3 173 172 180
3 182 175 173
3 181 140 142
3 185 176 178
3 184 176 185
3 144 143 179
3 144 179 184
3 184 179 176
3 179 143 136
3 180 138 145
3 180 187 183
3 180 186 187
3 180 145 186
3 148 186 145
3 141 181 147
3 181 142 147
3 187 186 188
3 191 189 190
3 190 184 185
3 190 189 184
3 189 192 184
3 184 192 151
3 144 184 151
3 186 148 152
3 188 186 152
3 188 152 193
3 193 152 154
3 189 191 193
3 189 193 156
3 156 193 154
3 192 189 156
3 157 192 156
3 192 157 151
3 163 164 194
3 165 163 194
3 195 165 194
3 166 165 195
3 196 166 195
3 167 166 196
3 197 167 196
3 167 197 168
3 198 194 164
3 169 198 164
3 199 198 200
3 199 195 198
3 195 194 198
3 202 195 199
3 202 201 195
3 201 196 195
3 196 201 197
3 197 201 203
3 197 203 171
3 168 197 171
3 198 169 174
3 174 175 204
3 198 174 204
3 198 204 205
3 198 205 200
3 205 201 202
3 205 204 201
3 204 206 201
3 178 177 203
3 178 203 206
3 206 203 201
3 203 177 171
3 182 183 207
3 175 182 207
3 175 207 204
3 204 207 208
3 204 208 206
3 206 208 209
3 206 209 185
3 178 206 185
3 207 183 187
3 187 188 210
3 187 210 207
3 207 210 208
3 191 190 209
3 191 209 210
3 210 209 208
3 209 190 185
3 210 188 193
3 210 193 191
3 199 200 211
3 199 211 202
3 211 200 205
3 211 205 202
