ply
format ascii 1.0
element vertex 590
property float x
property float y
property float z
property uchar red
property uchar green
property uchar blue
element face 920
property list uchar int vertex_indices
end_header
-9.68109130859375 -9 7 238 248 207
-9 -9.68109130859375 7 231 233 211
-9 -9 6.97749042510986328 14 10 8
-9 -9 7.12700080871582031 250 246 222
-9 -8.58003425598144531 7 250 246 222
-9.83454608917236328 -4 6 4 5 4
-9 -4.6019749641418457 6 173 191 165
-9 -4 5.89988040924072266 91 61 50
-9 -4 6.1335911750793457 154 163 134
-9 -3.37726569175720215 6 154 163 134
-9.82131385803222656 -2 5 188 90 88
-9 -2.05686283111572266 5 193 117 103
-9 -2 4.91778707504272461 98 100 66
-9 -2 5.09250497817993164 144 142 105
-9 -1.76964271068572998 5 144 142 105
-9.64969539642333984 1 -7 13 11 5
-9 0.967647671699523926 -7 60 163 88
-9 1 -7.09288167953491211 8 12 5
-9 1 -6.96228837966918945 60 45 36
-9 1.03011322021484375 -7 60 45 36
-9.89837837219238281 3 8 70 52 42
-9 2.73637962341308594 8 226 165 123
-9 3 7.47628021240234375 82 61 52
-9 3 8.89837837219238281 69 58 41
-9.80835628509521484 4 -8 6 3 2
-9 3.87826919555664062 -8 128 76 68
-9 4 -8.11950397491455078 79 228 85
-9 4 -7.91705322265625 238 134 119
-9.88595676422119141 4 7 39 18 13
-9 3.50857448577880859 7 82 61 52
-9 4 6.86743879318237305 28 15 12
-9 3.11373209953308105 8 69 58 41
-9 4 7.10133981704711914 188 138 119
-9 4.06473064422607422 -8 238 134 119
-9.80337333679199219 5 -4 252 246 89
-9 4.85964632034301758 -4 144 166 97
-9 5 -4.08540058135986328 125 47 46
-9 5 -3.93305611610412598 23 26 15
-9.36693859100341797 5 3 160 142 56
-9 4.78470087051391602 3 91 108 68
-9 5 2.98272347450256348 174 149 76
-9 5 3.00898599624633789 113 136 89
-9 4.11670589447021484 7 188 138 119
-9 5.44547319412231445 -4 23 26 15
-9.61851787567138672 6 -1 37 50 17
-9 5.95497655868530273 -1 96 54 46
-9 6 -1.02756989002227783 126 175 90
-9 6 -0.970653176307678223 36 42 27
-9 5.05447673797607422 3 113 136 89
-9 6.02070426940917969 -1 36 42 27
-9.84670257568359375 7 4 197 245 147
-9 6.88806581497192383 4 33 20 13
-9 7 3.90422773361206055 252 201 108
-9 7 4.49938583374023438 170 188 137
-9.78506183624267578 8 4 215 201 147
-9 8 3.75355195999145508 88 94 76
-9 8 4.06955337524414062 142 157 128
-9.84779071807861328 8 8 2 2 2
-9 7.90006685256958008 8 181 122 88
-9 8 7.86700916290283203 76 42 39
-9 8 8.84779071807861328 29 22 22
-9 8.78506183624267578 4 142 157 128
-9 8.84779071807861328 8 29 22 22
-8.95920562744140625 -9 7 250 246 222
-8.046234130859375 -8 8 249 227 149
-8 -8.49340438842773438 8 175 167 163
-8 -8 7.84079504013061523 104 109 99
-8 -8 8.77471923828125 252 254 234
-8.05783462524414062 -7 6 162 125 114
-8 -7.06222295761108398 6 167 177 164
-8 -7 5.84499311447143555 213 226 210
-8 -7 6.05725908279418945 21 22 20
-8 -7.91837787628173828 8 252 254 234
-8 -6.94827699661254883 6 21 22 20
-8.86351203918457031 -4 6 154 163 134
-8.365234375 -4 8 134 122 98
-8 -4.3895416259765625 8 196 193 131
-8 -4 7.81739568710327148 102 112 63
-8 -4 8.88087368011474609 231 198 193
-8 -3.90220141410827637 8 231 198 193
-8.83824825286865234 -2 5 144 142 105
-8.92539882659912109 1 -7 60 45 36
-8.06075668334960938 3 6 171 224 96
-8 2.84066510200500488 6 254 202 129
-8 3 5.95469188690185547 21 23 10
-8 3 6.04819583892822266 215 144 139
-8.86836624145507812 3 8 69 58 41
-8.93219757080078125 4 -8 238 134 119
-8.00238227844238281 4 -2 215 127 84
-8 3.99804258346557617 -2 58 36 28
-8 4 -2.00197529792785645 252 151 117
-8 4 -1.9920506477355957 237 254 161
-8.10585880279541016 4 6 28 15 12
-8 4 5.90072965621948242 133 140 68
-8.86501312255859375 4 7 188 138 119
-8 4 6.10785675048828125 16 13 11
-8.94657230377197266 5 -4 23 26 15
-8 4.00355100631713867 -2 237 254 161
-8 4.9473724365234375 3 180 145 84
-8 5 2.90995645523071289 218 117 92
-8 5 3.42186713218688965 222 226 159
-8.32875633239746094 5 5 155 126 100
-8 4.86976766586303711 5 133 140 68
-8 5 4.4585108757019043 210 178 128
-8 4.23250055313110352 6 16 13 11
-8 5 5.2915654182434082 162 145 118
-8.86908531188964844 6 -1 36 42 27
-8 5.09316730499267578 3 222 226 159
-8.13675785064697266 6 4 33 20 13
-8 5.49933052062988281 4 210 178 128
-8 6 3.87629127502441406 22 17 12
-8 5.15438270568847656 5 162 145 118
-8 6 4.13420343399047852 73 73 56
-8.02848339080810547 7 1 183 176 82
-8 6.9852442741394043 1 253 150 138
-8 7 0.984498262405395508 185 140 111
-8 7 1.06287527084350586 49 56 43
-8.88358402252197266 7 4 170 188 137
-8 6.1420741081237793 4 73 73 56
-8.02467441558837891 8 -9 254 171 123
-8 7.97526884078979492 -9 164 202 102
-8 8 -9.4373931884765625 169 187 112
-8 8 -8.88639354705810547 254 201 156
-8 7.01616764068603516 1 49 56 43
-8.94003677368164062 8 4 142 157 128
-8.92791461944580078 8 8 29 22 22
-8 8.4373931884765625 -9 254 201 156
-7.85578346252441406 -8 8 252 254 234
-7.94951486587524414 -7 6 21 22 20
-7.88517093658447266 -4 8 231 198 193
-7.15474653244018555 -1 8 148 212 110
-7 -1.27760279178619385 8 50 51 34
-7 -1 7.86760473251342773 95 92 59
-7 -1 8.89740657806396484 212 202 159
-7 -0.703000485897064209 8 212 202 159
-7.05047416687011719 2 7 246 187 152
-7 1.96295642852783203 7 141 166 94
-7 2 6.97376298904418945 185 254 122
-7 2 7.109954833984375 186 157 127
-7.92875814437866211 3 6 215 144 139
-7 2.04739785194396973 7 186 157 127
-7.99866342544555664 4 -2 237 254 161
-7.78399181365966797 4 6 16 13 11
-7.91921329498291016 5 3 222 226 159
-7.80925941467285156 5 5 162 145 118
-7.05889177322387695 5 7 35 31 15
-7 4.92525577545166016 7 6 7 3
-7 5 6.94023036956787109 213 244 137
-7 5 7.12562799453735352 210 165 165
-7.87337350845336914 6 4 73 73 56
-7 5.0483555793762207 7 210 165 165
-7.94120311737060547 7 1 49 56 43
-7 7.79717111587524414 -9 115 137 66
-7 8 -9.86763381958007812 31 88 52
-7 8 -8.78032970428466797 68 63 45
-7.09026384353637695 8 4 253 187 180
-7 7.86145257949829102 4 80 60 55
-7 8 3.90536880493164062 134 83 70
-7 8 4.06300735473632812 114 114 104
-7.05882596969604492 8 8 244 201 136
-7 7.61222124099731445 8 231 236 186
-7 8 7.81298685073852539 244 216 210
-7 8 8.81756401062011719 227 208 196
-7 8.86763381958007812 -9 68 63 45
-7 8.85032844543457031 4 114 114 104
-7 8.81756401062011719 8 227 208 196
-6.06102418899536133 -7 8 23 23 23
-6 -7.02285480499267578 8 254 244 182
-6 -7 7.97712612152099609 247 209 187
-6 -7 8.67177104949951172 40 39 39
-6 -6.94432306289672852 8 40 39 39
-6.84680795669555664 -1 8 212 202 159
-6.96130609512329102 2 7 186 157 127
-6.03482389450073242 3 -9 75 182 87
-6 2.90215873718261719 -9 203 220 152
-6 3 -9.76267337799072266 34 79 65
-6 3 -8.94529819488525391 87 100 63
-6 3.19148421287536621 -9 87 100 63
-6.93730258941650391 5 7 210 165 165
-6.26716089248657227 5 8 10 15 9
-6 4.81205844879150391 8 120 220 134
-6 5 7.85490226745605469 253 227 178
-6 5 8.90430068969726562 4 4 3
-6.09444284439086914 6 5 179 178 107
-6 5.92142391204833984 5 150 124 76
-6 6 4.92103195190429688 231 218 167
-6 6 5.14458322525024414 190 179 159
-6 5.12128734588623047 8 4 4 3
-6.56249809265136719 7 3 45 45 37
-6 6.9547119140625 3 102 75 60
-6 7 2.9554283618927002 103 81 70
-6 7 3.21470785140991211 220 225 192
-6.03186368942260742 7 5 239 224 201
-6 7 4.92255210876464844 96 92 81
-6 7 5.0354766845703125 34 33 30
-6.87989139556884766 8 -9 68 63 45
-6.13264036178588867 8 -8 120 117 73
-6 7.89903831481933594 -8 106 72 72
-6 8 -8.06903362274169922 61 133 53
-6 8 -7.897491455078125 247 190 172
-6 7.11971044540405273 3 220 225 192
-6.64056015014648438 8 4 114 114 104
-6 7.02047443389892578 5 34 33 30
-6.85640382766723633 8 8 227 208 196
-6 8.78073883056640625 -8 247 190 172
-5.97637605667114258 -7 8 40 39 39
-5.00296878814697266 -6 7 254 219 196
-5 -6.00255298614501953 7 182 158 133
-5 -6 6.99210691452026367 228 229 221
-5 -6 7.00278329849243164 219 215 210
-5 -5.9951171875 7 219 215 210
-5.85382938385009766 3 -9 87 100 63
-5.88286972045898438 5 8 4 4 3
-5 5.93116331100463867 5 214 188 158
-5 6 4.9397120475769043 223 152 151
-5 6 5.11761474609375 254 243 213
-5.94157695770263672 7 3 220 225 192
-5.97288322448730469 7 5 34 33 30
-5 6.06922769546508789 5 254 243 213
-5.09652233123779297 7 8 4 5 3
-5 6.91994571685791016 8 226 238 163
-5 7 7.83395767211914062 30 27 22
-5 7 8.86140727996826172 247 239 237
-5.94772720336914062 8 -8 247 190 172
-5.00851297378540039 8 4 158 160 151
-5 7.99838399887084961 4 40 36 29
-5 8 3.99862003326416016 143 91 85
-5 8 4.01980066299438477 28 28 27
-5.40460968017578125 8 7 241 239 238
-5 7.84818077087402344 7 30 27 22
-5 8 6.68326997756958008 8 7 7
-5 7.24836254119873047 8 247 239 237
-5 8 7.22902488708496094 152 151 149
-5 8.07997989654541016 4 28 28 27
-5 8.84820175170898438 7 152 151 149
-4.99330329895019531 -6 7 219 215 210
-4.95778465270996094 6 5 254 243 213
-4.05869150161743164 6 7 190 158 140
-4 5.90068912506103516 7 73 69 62
-4 6 6.98480892181396484 171 154 132
-4 6 7.01485395431518555 126 121 112
-4 6.00770807266235352 7 126 121 112
-4.81438970565795898 7 8 247 239 237
-4.01644229888916016 8 -8 238 246 119
-4 7.98749351501464844 -8 215 249 108
-4 8 -8.06980037689208984 254 207 187
-4 8 -7.98213291168212891 231 203 173
-4.99897670745849609 8 4 28 28 27
-4.45227527618408203 8 5 253 254 250
-4 7.95865726470947266 5 102 91 73
-4 8 4.95981407165527344 232 231 175
-4 8 5.69639348983764648 168 170 165
-4.73097515106201172 8 7 152 151 149
-4 8.51905059814453125 -8 231 203 173
-4 8.78038883209228516 5 168 170 165
-3.02840900421142578 -5 8 254 201 191
-3 -5.05785369873046875 8 215 221 212
-3 -5 7.97843074798583984 64 53 46
-3 -5 8.5962677001953125 230 227 217
-3 -4.95897293090820312 8 230 227 217
-3.04023551940917969 -1 8 217 254 134
-3 -1.08828210830688477 8 48 32 30
-3 -1 7.94922828674316406 86 67 54
-3 -1 8.77655124664306641 103 91 90
-3 -0.925706744194030762 8 103 91 90
-3.95945835113525391 6 7 126 121 112
-3.97803187370300293 8 -8 231 203 173
-3.95060491561889648 8 5 168 170 165
-3.76423454284667969 8 6 231 232 229
-3 7.94029664993286133 6 177 183 138
-3 8 5.93159103393554688 80 90 73
-3 8 6.7177281379699707 125 126 125
-3 8.83393669128417969 6 125 126 125
-2.97919535636901855 -5 8 230 227 217
-2.94757604598999023 -1 8 103 91 90
-2.8745734691619873 8 6 125 126 125
-1.04044866561889648 1 7 52 40 39
-1 0.956357240676879883 7 222 239 210
-1 1 6.98820638656616211 244 243 140
-1 1 7.02439641952514648 177 185 153
-1 1.03550636768341064 7 177 185 153
-1.14165794849395752 7 8 144 152 118
-1 6.81287336349487305 8 231 253 176
-1 7 7.82761287689208984 73 90 75
-1 7 8.90065097808837891 159 160 159
-1 7.38363885879516602 8 159 160 159
0 0.955989062786102295 7 218 250 210
0 1 6.96174383163452148 136 158 148
0 1 7.04104709625244141 185 228 191
0 1.05227267742156982 7 185 228 191
-0.899763941764831543 7 8 159 160 159
-0.0531967319548130035 8 6 160 169 169
0 7.89689111709594727 6 133 155 157
0 8 5.9789729118347168 118 179 160
-0.00220075389370322227 8 7 7 8 8
0 7.99607658386230469 7 89 101 103
0 8 7.00545930862426758 68 68 69
0 8.65786933898925781 6 96 97 99
0 8.11905956268310547 7 68 68 69
0.0663663968443870544 1 7 185 228 191
0.0226387903094291687 8 6 96 97 99
0.00409848056733608246 8 7 68 68 69
1.98824203014373779 -7 8 96 96 99
2 -7.00872421264648438 8 185 184 190
2 -7 7.99611473083496094 174 173 187
2 -7 8.09569931030273438 248 246 254
2 -6.9944305419921875 8 248 246 254
3 -7.06823539733886719 8 147 142 155
3 -7 7.64897871017456055 230 223 237
3 -7 8.46342563629150391 245 242 252
3 -6.97735786437988281 8 245 242 252
2.97099447250366211 5 -9 101 190 87
3 4.44676637649536133 -9 160 212 239
3 5 -9.6993865966796875 100 166 72
3 5 -8.9542236328125 125 155 184
3 5.0441889762878418 -9 125 155 184
2.92645502090454102 6 5 72 79 102
3 5.64190196990966797 5 205 194 228
3 6 4.74863100051879883 83 77 96
3 6 5.03769731521606445 157 150 166
2.91202092170715332 6 8 192 206 229
3 5.78677511215209961 8 204 211 234
3 6 7.94559717178344727 68 83 100
3 6 8.80027103424072266 45 46 49
2.98671817779541016 7 -9 68 78 99
3 6.9956049919128418 -9 15 35 23
3 7 -9.18176746368408203 156 207 239
3 7 -8.99445533752441406 129 146 183
3 6.04486989974975586 5 157 150 166
3 6.05365514755249023 8 45 46 49
3 7.00516033172607422 -9 129 146 183
3.10110068321228027 -7 8 245 242 252
3.94403767585754395 -1 7 96 100 106
4 -1.97914445400238037 7 245 247 254
4 -1 6.50362014770507812 209 210 221
4 -1 7.05866050720214844 226 234 247
4 -0.948154091835021973 7 226 234 247
3.91249489784240723 1 6 189 222 239
4 0.955990076065063477 6 10 14 16
4 1 5.96732664108276367 30 48 52
4 1 6.04310941696166992 197 209 233
3.91019845008850098 1 8 175 201 210
4 0.86670076847076416 8 208 244 251
4 1 7.96771764755249023 34 57 52
4 1 8.67430973052978516 28 34 35
4 1.03509509563446045 6 197 209 233
4 1.10042297840118408 8 28 34 35
3.1971282958984375 5 -9 125 155 184
3.11757850646972656 6 5 157 150 166
3.18490958213806152 6 8 45 46 49
3.00615835189819336 7 -9 129 146 183
3.9876708984375 8 -9 1 2 2
4 7.98530673980712891 -9 68 126 112
4 8 -9.34837150573730469 153 215 224
3.28612685203552246 8 -8 68 70 93
4 7.94905567169189453 -8 58 126 120
4 8 -7.95900535583496094 109 111 141
4 8.34837150573730469 -9 176 191 229
4 8.74789524078369141 -8 109 111 141
4.8954014778137207 -8 8 191 184 205
5 -8.036529541015625 8 1 2 2
5 -8 7.76198577880859375 31 30 35
5 -8 8.69347476959228516 167 169 187
5 -7.95624780654907227 8 167 169 187
4.05714035034179688 -1 7 226 234 247
4.04585409164428711 1 6 197 209 233
4.05752277374267578 1 8 28 34 35
4.97762680053710938 3 -8 9 20 13
5 2.97036123275756836 -8 118 173 81
5 3 -8.030029296875 205 249 108
4.99942445755004883 3 -7 51 85 83
5 2.99931859970092773 -7 42 53 56
5 3 -6.99960899353027344 118 136 153
4.99639415740966797 3 5 171 196 252
5 2.9954221248626709 5 186 211 248
5 3 4.99712991714477539 25 28 36
5 3 5.00850200653076172 12 12 14
5 3.06814789772033691 -8 180 224 237
5 3.00043177604675293 -7 118 136 153
5 3.00341963768005371 5 12 12 14
4.97604846954345703 5 3 169 161 228
5 4.98961591720581055 3 143 202 243
5 5 2.95609879493713379 33 31 36
5 5 3.0121612548828125 48 46 53
5 5.01120376586914062 3 48 46 53
4.00760269165039062 8 -9 176 191 229
4.08207511901855469 8 -8 109 111 141
5.22173166275024414 -8 8 167 169 187
5.83906745910644531 -5 7 186 188 194
6 -5.04022312164306641 7 216 220 246
6 -5 6.97096538543701172 12 12 12
6 -5 7.22489547729492188 189 196 210
6 -4.82123088836669922 7 189 196 210
5.97437572479248047 -1 7 146 230 192
6 -1.05922186374664307 7 158 210 173
6 -1 6.82152986526489258 128 135 138
6 -1 7.03248739242553711 157 172 173
6 -0.951482415199279785 7 157 172 173
5.0284419059753418 3 -8 180 224 237
5.00042533874511719 3 -7 118 136 153
5.01893901824951172 3 5 12 12 14
5.01297998428344727 5 3 48 46 53
5.9943842887878418 6 -3 134 161 218
6 5.99204778671264648 -3 133 163 194
6 6 -3.00455093383789062 7 12 10
6 6 -2.99015498161315918 192 192 229
6 6.00781869888305664 -3 192 192 229
5.9833683967590332 8 -5 160 169 254
6 7.97523260116577148 -5 132 214 169
6 8 -5.01419973373413086 103 186 194
5.87931966781616211 8 -4 240 229 254
6 7.9791264533996582 -4 153 238 234
6 8 -3.94810605049133301 132 133 145
6 8.56403923034667969 -5 45 46 51
6 8.66346549987792969 -4 132 133 145
6.9990544319152832 -9 7 43 51 50
7 -9.05156993865966797 7 99 110 108
7 -9 6.99851465225219727 198 233 245
7 -9 7.0025019645690918 27 33 32
7 -8.99600601196289062 7 27 33 32
6.02292108535766602 -5 7 189 196 210
6.87133264541625977 -2 6 240 241 244
7 -2.1514742374420166 6 228 240 249
7 -2 5.92495298385620117 183 215 146
6.91623544692993164 -2 7 158 210 173
7 -2.07674121856689453 7 30 32 31
7 -2 7.02065563201904297 112 120 115
7 -1.77225565910339355 6 206 211 210
6.19132757186889648 -1 7 157 172 173
7 -1.74426519870758057 7 112 120 115
6.70028162002563477 0 8 212 247 241
7 -0.233572155237197876 8 220 251 228
7 0 7.43120241165161133 73 85 67
7 0 8.90387725830078125 102 115 99
6.8001561164855957 1 7 161 214 182
7 0.67684483528137207 7 73 85 67
7 1 6.9261469841003418 192 211 143
6.65771579742431641 1 8 163 190 185
7 1 8.90594673156738281 170 193 163
7 1.0469517707824707 7 38 46 38
7 1.19855928421020508 8 170 193 163
6.76504373550415039 5 6 139 225 207
7 4.84627199172973633 6 83 104 77
7 5 5.66906642913818359 195 249 200
7 5 6.15636253356933594 238 254 252
6.94820547103881836 6 -8 129 166 172
7 5.98430538177490234 -8 46 34 24
7 6 -8.01495933532714844 227 242 114
7 6 -7.98676061630249023 113 149 111
6.01698970794677734 6 -3 192 192 229
6.95031404495239258 6 3 154 200 246
7 5.83643674850463867 3 200 249 236
7 6 2.90282487869262695 180 204 226
7 6 3.07689356803894043 227 237 241
7 5.23645687103271484 6 238 254 252
6.90709066390991211 7 -8 47 101 54
7 7 -8.11668777465820312 81 62 49
7 7 -7.54698705673217773 176 226 191
6.96944904327392578 7 0 86 85 90
7 6.97459840774536133 0 135 207 207
7 7 -0.0184930842369794846 152 254 240
6.86979198455810547 7 1 246 243 254
7 6.62619733810424805 1 193 202 210
7 7 1.0966637134552002 240 246 254
7 6.13617801666259766 3 227 237 241
6.66019773483276367 8 -9 77 97 90
7 7.90348672866821289 -9 81 62 49
7 8 -9.80361080169677734 162 180 146
7 7.08048772811889648 -8 176 226 191
7 8 -8.93389606475830078 72 88 71
6.02074193954467773 8 -5 45 46 51
7 7.92370033264160156 -4 156 206 136
7 8 -4.0607914924621582 85 119 85
7 8 -3.84235835075378418 31 32 33
6.99254655838012695 8 -2 117 115 119
7 7.99604654312133789 -2 174 246 170
7 8 -2.00966048240661621 124 125 127
7 8 -1.99333906173706055 19 20 20
7 7.01023435592651367 0 232 237 243
7 7.03560543060302734 1 240 246 254
7 8.80361080169677734 -9 72 88 71
7 8.79812526702880859 -4 31 32 33
7 8.17086410522460938 -2 19 20 20
7.00390243530273438 -9 7 27 33 32
7.99986600875854492 -7 7 28 32 27
8 -7.00008869171142578 7 245 246 216
8 -7 6.99984025955200195 168 168 168
8 -7 7.00017023086547852 82 89 78
7.64946413040161133 -6 5 219 232 252
8 -6.03434562683105469 5 205 232 225
8 -6 4.97691631317138672 124 132 113
8 -6 5.04642438888549805 189 226 221
8 -6.99982976913452148 7 82 89 78
8 -5.0249176025390625 5 189 226 221
7.91006183624267578 -4 5 182 190 212
8 -4.98762035369873047 5 203 233 220
8 -4 4.94859981536865234 218 221 219
8 -4 5.11339902877807617 175 203 192
8 -3.9028923511505127 5 175 203 192
8 -2.11176609992980957 6 246 252 226
8 -2 5.82195520401000977 128 135 130
8 -2.16123580932617188 7 163 147 130
8 -2 7.72963714599609375 10 10 9
8 -1.91197419166564941 6 58 60 57
8 -1.89845073223114014 7 10 10 9
7.9085087776184082 -1 8 220 251 228
8 -1.47289299964904785 8 28 28 28
8 -1 7.96378660202026367 151 105 94
8 -1 8.75652980804443359 202 202 181
7.97936153411865234 0 1 220 253 154
8 -0.0420328453183174133 1 245 231 190
8 0 0.95735323429107666 27 27 27
8 0 1.02382779121398926 216 221 217
7.44059562683105469 0 8 102 115 99
8 -0.79348456859588623 8 202 202 181
7.86884784698486328 1 -9 187 187 145
8 0.926886320114135742 -9 218 190 182
8 1 -9.79269981384277344 53 54 38
8 1 -8.95083427429199219 152 133 128
8 0.0312786698341369629 1 216 221 217
7.41218233108520508 1 7 38 46 38
7.42487287521362305 1 8 170 193 163
8 1.04275381565093994 -9 152 133 128
7.9634547233581543 3 6 10 10 7
8 2.81858181953430176 6 135 147 125
8 3 5.87067842483520508 50 60 48
8 3 6.13760280609130859 192 211 173
8 3.07461071014404297 6 192 211 173
7.43938112258911133 5 6 238 254 252
7.16557455062866211 6 -8 113 149 111
7.88635921478271484 6 -3 170 251 249
8 5.94838285446166992 -3 220 247 166
8 6 -3.47593379020690918 125 143 132
8 6 -2.96122932434082031 205 232 215
7.72303199768066406 6 1 193 202 210
8 5.97634458541870117 1 156 242 173
8 6 0.878715634346008301 199 253 222
8 6 1.02207398414611816 168 176 174
7.06961536407470703 6 3 227 237 241
8 6.37093448638916016 -8 20 21 16
8 7 -8.19737720489501953 238 151 117
8 7 -7.8315434455871582 242 247 205
7.82032871246337891 7 -5 19 23 22
8 6.97367286682128906 -5 236 166 146
8 7 -5.14374160766601562 192 229 175
8 7 -4.90881490707397461 118 133 119
8 6.06546306610107422 -3 205 232 215
8 6.90972185134887695 0 199 253 222
8 7 -0.0252607241272926331 122 123 94
7.07872343063354492 7 1 240 246 254
8 6.05198383331298828 1 168 176 174
8 7 0.0379297658801078796 21 21 21
7.56505107879638672 7 8 44 48 47
8 6.74531888961791992 8 249 214 179
8 7 7.6639704704284668 230 235 221
8 7 8.91857337951660156 243 250 232
8 7.93892288208007812 -9 238 151 117
8 8 -9.723541259765625 252 172 161
7.89977264404296875 8 -8 106 169 102
8 8 -7.84528350830078125 234 232 203
8 7.02832221984863281 -5 118 133 119
7.08700466156005859 8 -4 31 32 33
7.00404977798461914 8 -2 19 20 20
8 7.0196375846862793 0 21 21 21
7.98157453536987305 8 1 137 168 150
8 7.95836257934570312 1 82 90 77
8 8 0.978402853012084961 107 138 125
8 8 1.05260026454925537 163 173 172
8 7.40733718872070312 8 243 250 232
8 8.723541259765625 -9 247 241 213
8 8.86558341979980469 -8 234 232 203
8 8.5688018798828125 1 163 173 172
8.00769901275634766 -7 7 82 89 78
8.62401676177978516 -6 5 189 226 221
8.77187824249267578 -4 5 175 203 192
8.85210227966308594 -2 6 58 60 57
8.90335464477539062 -2 7 10 10 9
8.75652980804443359 -1 8 202 202 181
8.55603218078613281 0 1 216 221 217
8.79269981384277344 1 -9 152 133 128
8.75459575653076172 3 6 192 211 173
8.75629711151123047 6 -3 205 232 215
8.62475109100341797 6 1 168 176 174
8.90820598602294922 7 -8 242 247 205
8.62506675720214844 7 -5 118 133 119
8.54484081268310547 7 0 21 21 21
8.91857337951660156 7 8 243 250 232
8.723541259765625 8 -9 247 241 213
8.86558341979980469 8 -8 234 232 203
8.5688018798828125 8 1 163 173 172
3 2 1 0
3 1 3 0
3 2 0 4
3 0 3 4
3 7 6 5
3 6 8 5
3 7 5 9
3 5 8 9
3 12 11 10
3 11 13 10
3 12 10 14
3 10 13 14
3 17 16 15
3 16 18 15
3 17 15 19
3 15 18 19
3 22 21 20
3 21 23 20
3 26 25 24
3 25 27 24
3 30 29 28
3 31 32 28
3 31 28 20
3 29 22 28
3 22 20 28
3 20 23 31
3 26 24 33
3 24 27 33
3 36 35 34
3 35 37 34
3 40 39 38
3 39 41 38
3 30 28 42
3 28 32 42
3 36 34 43
3 34 37 43
3 46 45 44
3 45 47 44
3 40 38 48
3 38 41 48
3 46 44 49
3 44 47 49
3 52 51 50
3 51 53 50
3 55 52 50
3 54 55 50
3 53 56 54
3 50 53 54
3 59 58 57
3 58 60 57
3 55 54 61
3 54 56 61
3 59 57 62
3 57 60 62
3 1 2 63
3 1 63 3
3 63 2 4
3 63 4 3
3 65 64 66
3 65 67 64
3 70 69 68
3 69 71 68
3 66 64 72
3 64 67 72
3 70 68 73
3 68 71 73
3 6 7 74
3 6 74 8
3 77 76 75
3 76 78 75
3 74 7 9
3 74 9 8
3 77 75 79
3 75 78 79
3 11 12 80
3 11 80 13
3 80 12 14
3 80 14 13
3 16 17 81
3 16 81 18
3 81 17 19
3 81 19 18
3 84 83 82
3 83 85 82
3 21 22 86
3 21 86 23
3 25 26 87
3 25 87 27
3 90 89 88
3 89 91 88
3 93 84 82
3 92 93 82
3 92 82 29
3 92 29 30
3 82 85 29
3 94 29 95
3 85 95 29
3 32 31 86
3 32 86 94
3 22 29 86
3 29 94 86
3 86 31 23
3 87 26 33
3 87 33 27
3 35 36 96
3 35 96 37
3 90 88 97
3 88 91 97
3 40 99 98
3 39 40 98
3 39 98 100
3 41 39 100
3 103 102 101
3 104 105 101
3 104 101 92
3 102 93 101
3 93 92 101
3 94 95 104
3 94 104 42
3 92 30 104
3 30 42 104
3 94 42 32
3 96 36 43
3 96 43 37
3 45 46 106
3 45 106 47
3 99 40 48
3 107 99 48
3 107 48 108
3 107 108 110
3 48 41 108
3 109 108 100
3 41 100 108
3 111 112 108
3 111 108 101
3 109 103 108
3 103 101 108
3 101 105 111
3 106 46 49
3 106 49 47
3 115 114 113
3 114 116 113
3 117 118 110
3 117 110 52
3 108 51 110
3 51 52 110
3 51 108 112
3 51 112 53
3 118 117 112
3 117 53 112
3 121 120 119
3 120 122 119
3 115 113 123
3 113 116 123
3 124 117 52
3 55 124 52
3 117 124 56
3 53 117 56
3 58 59 125
3 58 125 60
3 121 119 126
3 119 122 126
3 124 55 61
3 124 61 56
3 125 59 62
3 125 62 60
3 65 66 127
3 65 127 67
3 69 70 128
3 69 128 71
3 127 66 72
3 127 72 67
3 128 70 73
3 128 73 71
3 76 77 129
3 76 129 78
3 129 77 79
3 129 79 78
3 132 131 130
3 131 133 130
3 132 130 134
3 130 133 134
3 137 136 135
3 136 138 135
3 83 84 139
3 137 135 140
3 139 85 83
3 135 138 140
3 89 90 141
3 89 141 91
3 142 139 84
3 93 142 84
3 139 142 95
3 85 139 95
3 141 90 97
3 141 97 91
3 98 99 143
3 98 143 100
3 102 103 144
3 105 104 142
3 105 142 144
3 93 102 142
3 102 144 142
3 142 104 95
3 146 145 147
3 146 148 145
3 143 99 107
3 109 100 143
3 109 143 149
3 107 110 143
3 110 149 143
3 112 111 144
3 112 144 149
3 103 109 144
3 109 149 144
3 144 111 105
3 147 145 150
3 145 148 150
3 114 115 151
3 114 151 116
3 149 110 118
3 149 118 112
3 121 153 152
3 120 121 152
3 120 152 154
3 122 120 154
3 151 115 123
3 151 123 116
3 157 156 155
3 156 158 155
3 161 160 159
3 160 162 159
3 153 121 126
3 163 153 126
3 163 126 122
3 154 163 122
3 157 155 164
3 155 158 164
3 161 159 165
3 159 162 165
3 168 167 166
3 167 169 166
3 168 166 170
3 166 169 170
3 131 132 171
3 131 171 133
3 171 132 134
3 171 134 133
3 136 137 172
3 136 172 138
3 175 174 173
3 174 176 173
3 172 137 140
3 172 140 138
3 175 173 177
3 173 176 177
3 146 147 178
3 179 148 146
3 179 146 180
3 178 181 146
3 181 180 146
3 180 182 179
3 185 184 183
3 184 186 183
3 178 147 150
3 148 179 187
3 148 187 150
3 181 178 187
3 178 150 187
3 179 182 187
3 190 189 188
3 189 191 188
3 193 185 183
3 192 193 183
3 186 194 192
3 183 186 192
3 152 153 195
3 196 154 152
3 196 152 197
3 195 198 152
3 198 197 152
3 197 199 196
3 190 188 200
3 188 191 200
3 157 201 156
3 193 192 202
3 201 158 156
3 192 194 202
3 160 161 203
3 160 203 162
3 195 153 163
3 154 196 204
3 154 204 163
3 198 195 204
3 195 163 204
3 196 199 204
3 201 157 164
3 201 164 158
3 203 161 165
3 203 165 162
3 167 168 205
3 167 205 169
3 208 207 206
3 207 209 206
3 168 170 205
3 205 170 169
3 208 206 210
3 206 209 210
3 174 175 211
3 174 211 176
3 211 175 177
3 211 177 176
3 180 181 212
3 180 212 182
3 185 214 213
3 184 185 213
3 184 213 215
3 186 184 215
3 212 181 187
3 212 187 182
3 189 190 216
3 189 216 191
3 217 218 214
3 217 214 193
3 193 214 185
3 218 217 194
3 218 194 215
3 215 194 186
3 221 220 219
3 220 222 219
3 197 198 223
3 197 223 199
3 216 190 200
3 216 200 191
3 225 224 226
3 225 227 224
3 193 202 217
3 217 202 194
3 230 229 228
3 231 232 228
3 231 228 219
3 229 221 228
3 221 219 228
3 219 222 231
3 223 198 204
3 223 204 199
3 226 224 233
3 224 227 233
3 230 228 234
3 228 232 234
3 207 208 235
3 207 235 209
3 235 208 210
3 235 210 209
3 213 214 236
3 213 236 215
3 239 238 237
3 238 240 237
3 236 214 218
3 236 218 215
3 239 237 241
3 237 240 241
3 221 242 220
3 220 242 222
3 245 244 243
3 244 246 243
3 225 226 247
3 248 227 225
3 248 225 249
3 247 250 225
3 250 249 225
3 249 251 248
3 229 230 252
3 232 231 242
3 232 242 252
3 221 229 242
3 229 252 242
3 242 231 222
3 245 243 253
3 243 246 253
3 247 226 233
3 227 248 254
3 227 254 233
3 250 247 254
3 247 233 254
3 248 251 254
3 252 230 234
3 252 234 232
3 257 256 255
3 256 258 255
3 257 255 259
3 255 258 259
3 262 261 260
3 261 263 260
3 262 260 264
3 260 263 264
3 238 239 265
3 238 265 240
3 265 239 241
3 265 241 240
3 244 245 266
3 244 266 246
3 249 250 267
3 268 251 249
3 268 249 269
3 267 270 249
3 270 269 249
3 269 271 268
3 266 245 253
3 266 253 246
3 267 250 254
3 251 268 272
3 251 272 254
3 270 267 272
3 267 254 272
3 268 271 272
3 256 257 273
3 256 273 258
3 273 257 259
3 273 259 258
3 261 262 274
3 261 274 263
3 274 262 264
3 274 264 263
3 269 270 275
3 269 275 271
3 275 270 272
3 275 272 271
3 278 277 276
3 277 279 276
3 278 276 280
3 276 279 280
3 283 282 281
3 282 284 281
3 283 281 285
3 281 284 285
3 278 287 286
3 277 278 286
3 277 286 288
3 279 277 288
3 287 278 280
3 289 287 280
3 289 280 279
3 288 289 279
3 282 283 290
3 282 290 284
3 293 292 291
3 292 295 294
3 291 292 294
3 295 296 294
3 283 285 290
3 290 285 284
3 293 291 297
3 291 294 298
3 297 291 298
3 294 296 298
3 286 287 299
3 286 299 288
3 299 287 289
3 299 289 288
3 292 293 300
3 295 292 300
3 301 295 300
3 295 301 296
3 300 293 297
3 301 300 297
3 298 301 297
3 301 298 296
3 304 303 302
3 303 305 302
3 304 302 306
3 302 305 306
3 304 308 307
3 303 304 307
3 303 307 309
3 305 303 309
3 308 304 306
3 310 308 306
3 310 306 305
3 309 310 305
3 313 312 311
3 312 314 311
3 313 311 315
3 311 314 315
3 318 317 316
3 317 319 316
3 322 321 320
3 321 323 320
3 326 325 324
3 325 327 324
3 318 316 328
3 316 319 328
3 322 320 329
3 320 323 329
3 326 324 330
3 324 327 330
3 307 308 331
3 307 331 309
3 331 308 310
3 331 310 309
3 334 333 332
3 333 335 332
3 334 332 336
3 332 335 336
3 339 338 337
3 338 340 337
3 343 342 341
3 342 344 341
3 339 337 345
3 337 340 345
3 343 341 346
3 341 344 346
3 312 313 347
3 312 347 314
3 347 313 315
3 347 315 314
3 317 318 348
3 317 348 319
3 321 322 349
3 321 349 323
3 325 326 350
3 325 350 327
3 348 318 328
3 348 328 319
3 349 322 329
3 349 329 323
3 330 351 353
3 330 353 326
3 352 350 353
3 350 326 353
3 352 355 327
3 352 327 350
3 355 354 327
3 330 327 351
3 354 351 327
3 355 356 354
3 353 351 357
3 351 354 358
3 357 351 358
3 354 356 358
3 361 360 359
3 360 362 359
3 361 359 363
3 359 362 363
3 333 334 364
3 333 364 335
3 364 334 336
3 364 336 335
3 338 339 365
3 338 365 340
3 342 343 366
3 342 366 344
3 365 339 345
3 365 345 340
3 366 343 346
3 366 346 344
3 369 368 367
3 368 371 370
3 367 368 370
3 371 372 370
3 375 374 373
3 374 376 373
3 369 367 377
3 367 370 378
3 377 367 378
3 370 372 378
3 375 373 379
3 373 376 379
3 382 381 380
3 381 383 380
3 382 380 384
3 380 383 384
3 352 353 385
3 355 352 385
3 386 355 385
3 355 386 356
3 385 353 357
3 386 385 357
3 358 386 357
3 386 358 356
3 360 361 387
3 360 387 362
3 387 361 363
3 387 363 362
3 390 389 388
3 389 391 388
3 390 388 392
3 388 391 392
3 395 394 393
3 394 396 393
3 395 393 397
3 393 396 397
3 368 369 398
3 371 368 398
3 399 371 398
3 371 399 372
3 374 375 400
3 374 400 376
3 398 369 377
3 399 398 377
3 378 399 377
3 399 378 372
3 400 375 379
3 400 379 376
3 381 382 401
3 381 401 383
3 404 403 402
3 403 405 402
3 401 382 384
3 401 384 383
3 404 402 406
3 402 405 406
3 409 408 407
3 408 411 410
3 407 408 410
3 411 412 410
3 409 407 413
3 407 410 414
3 413 407 414
3 410 412 414
3 417 416 415
3 416 418 415
3 417 415 419
3 415 418 419
3 389 390 420
3 389 420 391
3 420 390 392
3 420 392 391
3 423 422 421
3 422 425 424
3 421 422 424
3 425 426 424
3 423 421 427
3 429 427 395
3 429 395 428
3 427 421 395
3 394 395 424
3 421 424 395
3 394 424 426
3 394 426 396
3 429 428 426
3 428 396 426
3 428 395 397
3 428 397 396
3 431 430 432
3 431 433 430
3 436 435 434
3 435 432 430
3 435 430 434
3 434 430 437
3 433 438 437
3 430 433 437
3 436 434 439
3 434 437 440
3 439 434 440
3 437 438 440
3 443 442 441
3 442 444 441
3 447 446 445
3 446 448 445
3 403 404 449
3 403 449 405
3 452 451 450
3 451 453 450
3 443 441 454
3 441 444 454
3 456 447 445
3 455 456 445
3 448 457 455
3 445 448 455
3 449 404 406
3 449 406 405
3 460 459 458
3 459 462 461
3 458 459 461
3 462 463 461
3 452 450 464
3 450 453 464
3 467 466 465
3 468 469 465
3 468 465 455
3 466 456 465
3 456 455 465
3 455 457 468
3 408 409 470
3 470 472 471
3 470 471 408
3 408 471 411
3 411 471 473
3 412 411 473
3 476 475 474
3 475 477 474
3 460 458 478
3 458 461 479
3 478 458 479
3 461 463 479
3 467 465 480
3 465 469 480
3 470 409 413
3 472 470 413
3 472 413 481
3 481 413 414
3 481 414 412
3 473 481 412
3 476 474 482
3 474 477 482
3 416 417 483
3 416 483 418
3 483 417 419
3 483 419 418
3 486 485 484
3 485 487 484
3 490 489 488
3 489 491 488
3 486 484 492
3 484 487 492
3 490 488 493
3 488 491 493
3 496 495 494
3 495 497 494
3 496 494 498
3 494 497 498
3 423 500 499
3 422 423 499
3 499 501 422
3 422 501 425
3 425 501 502
3 426 425 502
3 500 423 427
3 503 500 427
3 503 427 504
3 427 429 504
3 504 429 505
3 504 505 507
3 429 426 505
3 506 505 502
3 426 502 505
3 506 508 505
3 511 510 509
3 510 512 509
3 513 514 507
3 513 507 432
3 505 431 507
3 431 432 507
3 431 505 508
3 431 508 433
3 514 513 508
3 513 433 508
3 517 516 515
3 516 518 515
3 511 509 519
3 509 512 519
3 435 436 520
3 432 435 520
3 432 520 513
3 513 520 521
3 513 521 438
3 433 513 438
3 517 515 522
3 515 518 522
3 520 436 439
3 521 520 439
3 440 521 439
3 521 440 438
3 525 524 523
3 524 526 523
3 525 523 527
3 523 526 527
3 442 443 528
3 442 528 444
3 446 447 529
3 446 529 448
3 532 531 530
3 531 533 530
3 536 535 534
3 535 537 534
3 451 452 538
3 451 538 453
3 528 443 454
3 528 454 444
3 539 529 447
3 539 447 540
3 540 447 456
3 529 539 541
3 529 541 448
3 448 541 457
3 544 543 542
3 543 545 542
3 532 530 546
3 530 533 546
3 460 548 547
3 459 460 547
3 551 549 550
3 547 536 462
3 547 462 459
3 462 536 534
3 462 534 537
3 462 537 463
3 550 549 537
3 549 463 537
3 538 452 464
3 538 464 453
3 554 553 552
3 553 555 552
3 467 557 556
3 466 467 556
3 456 556 540
3 456 466 556
3 469 468 558
3 558 468 457
3 558 457 559
3 559 457 541
3 544 542 560
3 542 545 560
3 472 561 471
3 471 561 473
3 475 476 562
3 475 562 477
3 548 460 478
3 563 548 478
3 551 565 549
3 566 563 564
3 563 479 564
3 563 478 479
3 564 479 463
3 564 463 567
3 549 565 463
3 565 567 463
3 554 552 568
3 552 555 568
3 557 467 480
3 569 557 480
3 469 558 570
3 469 570 480
3 480 570 569
3 558 559 570
3 561 472 481
3 561 481 473
3 562 476 482
3 562 482 477
3 566 564 571
3 564 567 571
3 485 486 572
3 485 572 487
3 489 490 573
3 489 573 491
3 572 486 492
3 572 492 487
3 573 490 493
3 573 493 491
3 495 496 574
3 495 574 497
3 574 496 498
3 574 498 497
3 499 500 575
3 501 499 575
3 576 501 575
3 501 576 502
3 575 500 503
3 576 575 503
3 504 576 503
3 506 502 576
3 506 576 577
3 504 507 576
3 507 577 576
3 506 577 508
3 510 511 578
3 510 578 512
3 577 507 514
3 577 514 508
3 516 517 579
3 516 579 518
3 578 511 519
3 578 519 512
3 579 517 522
3 579 522 518
3 524 525 580
3 524 580 526
3 580 525 527
3 580 527 526
3 531 532 581
3 531 581 533
3 535 536 582
3 535 582 537
3 539 540 583
3 539 583 541
3 543 544 584
3 543 584 545
3 581 532 546
3 581 546 533
3 547 548 585
3 551 550 582
3 551 582 585
3 536 547 582
3 547 585 582
3 582 550 537
3 553 554 586
3 553 586 555
3 556 557 587
3 540 556 587
3 540 587 583
3 583 587 588
3 583 588 559
3 541 583 559
3 584 544 560
3 584 560 545
3 585 548 563
3 565 551 585
3 565 585 589
3 563 566 585
3 566 589 585
3 565 589 567
3 586 554 568
3 586 568 555
3 587 557 569
3 588 587 569
3 570 588 569
3 588 570 559
3 589 566 571
3 589 571 567
