ply
format ascii 1.0
element vertex 472
property float x
property float y
property float z
property uchar red
property uchar green
property uchar blue
element face 940
property list uchar int vertex_indices
end_header
-5.01370811462402344 7 -1 9 9 7
-5 6.95036458969116211 -1 9 11 8
-5 7 -1.09708321094512939 6 6 5
-5 7 -0.803340256214141846 7 7 6
-5.26445102691650391 8 -2 4 4 4
-5 7.33292198181152344 -2 6 6 5
-5 8 -2.75529241561889648 2 1 1
-5.40450000762939453 8 -1 5 4 4
-5.33145332336425781 8 0 6 6 5
-5 7.14953517913818359 0 8 9 7
-5.04772424697875977 8 1 7 7 7
-5 7.87928104400634766 1 9 10 8
-5 8 1.09579312801361084 6 6 5
-5 8.77660465240478516 -2 2 2 2
-5 8.84042453765869141 -1 3 3 3
-5 8.81252193450927734 0 5 4 4
-5 8.38812637329101562 1 6 6 5
-4.12081432342529297 1 -1 12 16 21
-4 0.0925368890166282654 -1 11 14 20
-4 1 -1.61495482921600342 10 16 18
-4.05188465118408203 1 0 13 15 22
-4 0.610053598880767822 0 12 14 21
-4 1 0.154295071959495544 12 15 21
-4.01991415023803711 2 -2 11 18 19
-4 1.79295921325683594 -2 10 16 18
-4 2 -2.04284000396728516 10 17 15
-4.21566438674926758 2 -1 12 17 20
-4.14544773101806641 2 0 13 16 21
-4 2 0.431144565343856812 11 16 20
-4.09300851821899414 3 -2 11 17 16
-4 3 -2.20053339004516602 9 15 13
-4.28795242309570312 3 -1 11 17 18
-4.21582365036010742 3 0 12 17 19
-4 3 0.635986030101776123 11 16 18
-4.1681218147277832 4 -2 10 15 13
-4 4 -2.36371111869812012 8 13 10
-4.36152553558349609 4 -1 11 16 15
-4.28653907775878906 4 0 11 17 17
-4 4 0.836658775806427002 10 16 16
-4.28121852874755859 5 -2 9 13 9
-4 5 -2.61156535148620605 8 11 7
-4.47230195999145508 5 -1 10 14 11
-4.39311122894287109 5 0 11 15 13
-4.0456233024597168 5 1 12 16 15
-4 4.55704975128173828 1 12 17 18
-4 5 1.07343065738677979 11 15 14
-4.02605676651000977 6 -3 9 9 7
-4 5.87682056427001953 -3 8 11 7
-4 6 -3.03564023971557617 7 7 6
-4.48274564743041992 6 -2 9 10 8
-4.67113208770751953 6 -1 9 11 8
-4.58603286743164062 6 0 9 12 9
-4.23021364212036133 6 1 10 13 10
-4 6 1.36680424213409424 9 12 10
-4.37178564071655273 7 -3 6 5 5
-4 7 -3.51080513000488281 4 3 3
-4.83105993270874023 7 -2 6 6 5
-4.92561817169189453 7 0 8 9 7
-4.55737543106079102 7 1 9 10 8
-4 7 1.87943494319915771 8 9 7
-4.1556549072265625 8 -4 1 1 1
-4 7.69845104217529297 -4 4 3 3
-4 8 -4.1547698974609375 0 0 0
-4.88666343688964844 8 -3 2 1 1
-4.41226339340209961 8 2 8 7 7
-4 7.15960311889648438 2 10 10 9
-4 8 2.44951820373535156 6 6 6
-4 8.61698532104492188 -4 0 0 0
-4 8.89807796478271484 -3 0 0 0
-4 8.92918109893798828 -2 1 1 1
-4 8.93665885925292969 -1 2 2 2
-4 8.93298149108886719 0 3 3 3
-4 8.91274738311767578 1 5 5 4
-4 8.80768775939941406 2 6 6 6
-3.11703968048095703 -2 -2 11 14 18
-3 -2.28065896034240723 -2 10 13 16
-3 -2 -2.18254375457763672 10 15 16
-3.38938617706298828 -2 -1 12 13 19
-3 -2.93541336059570312 -1 11 13 17
-3.29535150527954102 -2 0 13 13 20
-3 -2.70919632911682129 0 12 13 18
-3 -2 0.642045736312866211 12 13 19
-3.44828104972839355 -1 -2 11 15 19
-3 -1 -2.69981861114501953 10 16 17
-3.7239527702331543 -1 -1 12 14 20
-3.62842154502868652 -1 0 13 13 21
-3.16594529151916504 -1 1 14 14 22
-3 -1.50295174121856689 1 13 13 21
-3 -1 1.19919788837432861 13 13 21
-3.06245017051696777 0 -3 10 17 18
-3 -0.246962204575538635 -3 10 16 17
-3 0 -3.06152486801147461 9 16 14
-3.70395827293395996 0 -2 11 15 19
-3.98257303237915039 0 -1 11 14 20
-3.88536310195922852 0 0 12 14 21
-3.41754364967346191 0 1 13 14 22
-3 0 1.50108647346496582 13 14 21
-3.24714565277099609 1 -3 10 18 18
-3 1 -3.24352908134460449 9 16 13
-3.89276719093322754 1 -2 10 16 18
-3.60147595405578613 1 1 13 15 22
-3 1 1.72101950645446777 12 15 21
-3.38012194633483887 2 -3 10 17 15
-3 2 -3.37468528747558594 9 15 11
-3.73099160194396973 2 1 13 16 21
-3 2 1.87421679496765137 12 16 20
-3.48317646980285645 3 -3 9 15 13
-3 3 -3.47652840614318848 8 14 9
-3.82689762115478516 3 1 12 17 20
-3 3 1.98487377166748047 11 17 19
-3.58981823921203613 4 -3 8 13 10
-3 4 -3.58218836784362793 8 12 7
-3.92164754867553711 4 1 12 17 18
-3.07444882392883301 4 2 13 19 19
-3 3.14549946784973145 2 13 18 20
-3 4 2.06075620651245117 12 18 18
-3.75056743621826172 5 -3 8 11 7
-3 5 -3.7417292594909668 8 9 6
-3.20582175254821777 5 2 12 17 15
-3 5 2.16666293144226074 11 16 14
-3.02589154243469238 6 -4 7 7 6
-3 5.91205120086669922 -4 8 9 6
-3 6 -4.01860952377319336 6 5 5
-3.45067262649536133 6 2 11 14 11
-3 6 2.36118149757385254 10 13 10
-3.5066676139831543 7 -4 4 3 3
-3 7 -4.36343193054199219 2 2 2
-3.89392518997192383 7 2 10 10 9
-3 7 2.70800423622131348 9 9 8
-3 8 -4.87620973587036133 1 1 1
-3.30562114715576172 8 3 8 8 7
-3 7.55048704147338867 3 11 11 9
-3 8 3.18375682830810547 7 7 6
-3 8.89754009246826172 -4 0 0 0
-3 8.93975162506103516 -3 0 0 0
-3 8.9515838623046875 -2 0 0 0
-3 8.95499229431152344 -1 1 1 1
-3 8.95329761505126953 0 2 2 2
-3 8.94494819641113281 1 4 4 3
-3 8.91823482513427734 2 5 5 5
-3 8.69359874725341797 3 7 7 6
-2.14006304740905762 -4 -1 11 12 15
-2 -4.14454412460327148 -1 10 11 12
-2 -4 -1.32289505004882812 10 12 13
-2 -4 -0.0588954836130142212 10 12 15
-2.51709365844726562 -3 -2 10 13 16
-2 -3.63556194305419922 -2 10 12 13
-2 -3 -2.50480127334594727 9 14 14
-2.95662784576416016 -3 -1 11 13 17
-2.80475306510925293 -3 0 12 13 18
-2 -3.98904919624328613 0 11 12 16
-2.06880998611450195 -3 1 14 13 20
-2 -3.08454513549804688 1 13 13 17
-2 -3 1.05173826217651367 13 14 19
-2.16308784484863281 -2 -3 10 15 16
-2 -2.24478626251220703 -3 9 14 14
-2 -2 -3.10055756568908691 9 15 13
-2.73523497581481934 -2 1 13 13 21
-2 -2 1.5526663064956665 13 14 20
-2.69268393516540527 -1 -3 10 16 17
-2 -1 -3.42668962478637695 9 15 13
-2 -1 1.95597243309020996 12 14 21
-2 0 -3.67849850654602051 9 16 12
-2.34173870086669922 0 2 14 15 23
-2 -0.856539070606231689 2 14 15 22
-2 0 2.17676591873168945 14 16 22
-2 1 -3.86467671394348145 9 15 11
-2.63155055046081543 1 2 14 16 23
-2 1 2.32605361938476562 13 17 22
-2 2 -3.99888849258422852 8 14 9
-2.83347725868225098 2 2 13 17 22
-2 2 2.42914748191833496 13 18 21
-2.1609339714050293 3 -4 8 14 9
-2 2.01091527938842773 -4 8 14 9
-2 3 -4.07231330871582031 10 12 8
-2.97988581657409668 3 2 13 18 20
-2 3 2.50246691703796387 12 18 19
-2.32969546318054199 4 -4 8 12 7
-2 4 -4.14792108535766602 10 10 7
-2 4 2.5714409351348877 12 18 17
-2.58520793914794922 5 -4 8 9 6
-2 5 -4.26188373565673828 8 8 6
-2 5 2.67447543144226074 11 15 13
-2 6 -4.46445131301879883 5 4 4
-2 6 2.86628270149230957 9 12 9
-2 7 -4.81344509124755859 2 1 1
-2.41763925552368164 7 3 11 11 9
-2 6.39766693115234375 3 11 14 11
-2 7 3.15688204765319824 10 10 9
-2.72818350791931152 8 -5 1 1 1
-2 7.36769914627075195 -5 2 1 1
-2 8 -5.25075483322143555 2 2 2
-2 8 3.55739760398864746 6 6 6
-2 8.76827526092529297 -5 1 1 1
-2 8.92867660522460938 -4 1 1 1
-2 8.95147228240966797 -3 0 0 0
-2 8.95916748046875 -2 0 0 0
-2 8.96151447296142578 -1 1 0 0
-2 8.96035003662109375 0 2 2 2
-2 8.95479583740234375 1 3 3 3
-2 8.93908786773681641 2 5 4 4
-2 8.87050056457519531 3 6 6 6
-1.28355526924133301 -4 -2 10 12 13
-1 -4.11991119384765625 -2 9 10 11
-1 -4 -2.1134343147277832 9 12 12
-1 -4.56843948364257812 -1 9 11 12
-1.97847664356231689 -4 0 11 12 16
-1 -4.41347360610961914 0 10 12 13
-1 -4 0.545179069042205811 11 13 15
-1 -3 -2.90996813774108887 9 14 13
-1 -3.58882236480712891 1 12 14 17
-1 -3 1.36029744148254395 12 14 18
-1 -2.8627324104309082 -3 9 14 13
-1 -2 -3.35378170013427734 9 14 12
-1 -2 1.86681473255157471 12 15 19
-1 -1 -3.68294191360473633 9 15 11
-1.86080622673034668 -1 2 14 15 22
-1 -1.6705634593963623 2 14 16 21
-1 -1 2.18264985084533691 14 17 22
-1 0 -3.93750166893005371 9 15 11
-1 0 2.3900456428527832 13 17 22
-1.47862052917480469 1 -4 9 15 11
-1 0.335381060838699341 -4 9 15 11
-1 1 -4.08799123764038086 10 14 8
-1 1 2.54019761085510254 13 18 21
-1.99570834636688232 2 -4 8 14 9
-1 2 -4.18248271942138672 10 13 8
-1 2 2.64337754249572754 13 19 20
-1 3 -4.25519180297851562 10 12 7
-1 3 2.71582746505737305 12 19 18
-1 4 -4.32993650436401367 10 10 7
-1 4 2.78292012214660645 11 17 15
-1 5 -4.44256830215454102 7 7 5
-1 5 2.8831639289855957 10 15 11
-1 6 -4.64374113082885742 4 4 4
-1.34743916988372803 6 3 11 14 11
-1 5.62959575653076172 3 12 16 13
-1 6 3.05271148681640625 11 13 10
-1 7 -4.9930109977722168 1 1 1
-1 7 3.30485963821411133 10 10 8
-1 7.01397180557250977 -5 1 1 1
-1 8 -5.38589763641357422 2 2 2
-1 8 3.70510101318359375 6 5 5
-1 8.83484935760498047 -5 2 2 2
-1 8.93605899810791016 -4 2 2 2
-1 8.95479965209960938 -3 1 1 1
-1 8.96144676208496094 -2 0 0 0
-1 8.96350860595703125 -1 0 0 0
-1 8.96248912811279297 0 1 1 1
-1 8.95766448974609375 1 3 2 2
-1 8.94447422027587891 2 4 4 4
-1 8.89391136169433594 3 6 5 5
-0.327602237462997437 -4 -2 9 12 13
0 -4.3886876106262207 -1 9 11 11
0 -4 -1.86871707439422607 9 13 12
0 -4.23449182510375977 0 10 12 13
0 -4 0.309141606092453003 11 14 15
0 -3.92932009696960449 -2 9 13 12
0 -3 -2.73809504508972168 9 13 12
0 -3.37546491622924805 1 12 15 16
0 -3 1.22981655597686768 12 16 18
0 -2.60059380531311035 -3 9 13 12
0 -2 -3.24642848968505859 9 14 10
0 -2 1.73390686511993408 12 17 19
0 -1 -3.57400321960449219 9 14 10
0 -1.34147930145263672 2 14 18 20
0 -1 2.09309005737304688 14 19 21
0 0 -3.82684898376464844 9 15 9
0 0 2.29960298538208008 13 19 21
0 0.929951012134552002 -4 9 15 9
0 1 -4.00928449630737305 11 14 8
0 1 2.44877123832702637 13 20 21
0 2 -4.10267877578735352 11 13 8
0 2 2.55082345008850098 13 20 19
0 3 -4.17380046844482422 11 11 7
0 3 2.62183570861816406 12 19 16
0 4 -4.24620723724365234 9 9 6
0 4 2.68688464164733887 11 17 13
0 5 -4.35541677474975586 7 6 5
0 5 2.78406119346618652 10 14 10
0 6 -4.55175113677978516 4 3 3
-0.308843344449996948 6 3 11 13 10
0 6 2.96810793876647949 10 11 9
0 7 -4.89461708068847656 1 1 0
0 6.09884119033813477 3 12 13 10
0 7 3.22496724128723145 9 9 8
0 7.21079301834106445 -5 1 1 0
0 8 -5.30912590026855469 3 3 3
0 8 3.62093472480773926 5 5 5
0 8.80268478393554688 -5 2 2 2
0 8.93207359313964844 -4 2 2 2
0 8.95298385620117188 -3 1 1 1
0 8.96020317077636719 -2 0 0 0
0 8.96242427825927734 -1 0 0 0
0 8.96132659912109375 0 1 1 1
0 8.95610713958740234 1 2 2 2
0 8.94156646728515625 2 4 3 3
0 8.88180637359619141 3 5 5 5
0.496040612459182739 -4 -1 10 13 14
0.299256384372711182 -4 0 11 14 15
0.996122121810913086 -3 -2 9 14 14
1 -3.52952384948730469 -1 10 13 13
1 -3 -1.99328064918518066 10 14 12
1 -3.34590530395507812 0 11 15 14
0.402535110712051392 -3 1 12 16 18
1 -3 0.383090227842330933 11 16 16
0.526307880878448486 -2 -3 9 14 12
1 -2.9955894947052002 -2 10 14 12
1 -2 -2.64662742614746094 9 14 10
1 -2.3205113410949707 1 13 17 18
1 -2 1.16046810150146484 13 18 19
1 -1.32110953330993652 -3 9 14 10
1 -1 -3.1044764518737793 10 14 9
0.236645117402076721 -1 2 14 19 21
1 -1 1.55774807929992676 12 19 19
1 0 -3.35220646858215332 10 14 9
0.76256173849105835 0 2 13 19 21
1 0 1.8623349666595459 12 19 18
0.0270190145820379257 1 -4 9 14 8
1 1 -3.5337824821472168 11 14 8
1 0.627178430557250977 2 14 21 20
1 1 2.05510091781616211 13 21 19
0.297974616289138794 2 -4 9 13 8
1 2 -3.66254305839538574 11 13 8
1 2 2.15515542030334473 13 20 17
0.50176537036895752 3 -4 10 12 7
1 3 -3.7593073844909668 11 12 7
1 3 2.2243499755859375 12 18 14
0.70516049861907959 4 -4 9 10 6
1 4 -3.85645866394042969 10 9 7
1 4 2.28733491897583008 11 16 12
1 4.97773075103759766 -4 10 9 7
1 5 -4.00240898132324219 7 5 5
1 5 2.38144946098327637 12 14 10
1 6 -4.1912989616394043 4 4 3
1 6 2.56017684936523438 11 11 9
1 7 -4.52280330657958984 0 0 0
0.73231041431427002 7 3 9 9 8
1 7 2.88986682891845703 7 7 6
1 7.94216823577880859 -5 0 0 0
1 8 -5.02298927307128906 3 3 3
1 7.21616744995117188 3 9 8 8
1 8 3.30841612815856934 5 5 5
1 8.23526859283447266 -5 3 3 3
1 8.91075706481933594 -4 2 2 2
1 8.94434642791748047 -3 2 2 2
1 8.95449924468994141 -2 1 1 1
1 8.95749187469482422 -1 0 0 0
1 8.95601367950439453 0 1 0 0
1 8.94879817962646484 1 2 2 2
1 8.92680168151855469 2 3 3 3
1 8.79051971435546875 3 5 5 5
1.3180992603302002 -3 -1 10 15 14
1.20786929130554199 -3 0 11 16 16
1.48883056640625 -2 -2 10 15 12
1.81458806991577148 -2 -1 10 16 15
1.70238411426544189 -2 0 11 17 17
1.15755391120910645 -2 1 13 18 19
1.12499368190765381 -1 -3 9 15 10
1.88395702838897705 -1 -2 9 16 12
2 -1.53312647342681885 -1 11 16 13
2 -1 -1.64682543277740479 10 16 10
2 -1.25019955635070801 0 12 17 15
1.54758954048156738 -1 1 12 19 19
2 -1 0.179153949022293091 12 18 15
1.4212489128112793 0 -3 9 15 9
2 -0.615616679191589355 -2 10 16 10
2 0 -2.24041223526000977 11 15 9
1.84665060043334961 0 1 12 19 18
2 0 0.722024440765380859 11 18 14
1.63769388198852539 1 -3 9 15 9
2 1 -2.52396488189697266 12 15 9
2 0.710376560688018799 1 13 19 16
1.07851791381835938 1 2 13 21 19
2 1 1.06218218803405762 12 19 15
1.78966414928436279 2 -3 10 14 8
2 2 -2.7229313850402832 12 14 9
1.22111773490905762 2 2 13 20 17
2 2 1.20757544040679932 12 18 13
1.90134704113006592 3 -3 10 12 8
2 3 -2.86944460868835449 12 12 8
1.31969678401947021 3 2 12 18 14
2 3 1.30826437473297119 12 17 11
2 3.90735864639282227 -3 12 12 8
2 4 -3.00848984718322754 10 8 7
1.40935242176055908 4 2 11 16 12
2 4 1.39997351169586182 12 15 10
1.00385332107543945 5 -4 7 6 5
2 5 -3.14388918876647949 7 6 6
1.54330575466156006 5 2 12 14 10
2 5 1.53668248653411865 12 12 9
1.30318367481231689 6 -4 4 4 3
2 6 -3.39406895637512207 4 4 4
1.79788017272949219 6 2 11 11 9
2 6 1.79532861709594727 9 9 8
1.82148909568786621 7 -4 1 1 1
2 7 -3.84266185760498047 1 1 1
2 6.44322586059570312 2 11 10 9
2 7 2.18282723426818848 7 7 7
1.04597485065460205 8 -5 3 3 3
2 7.23515987396240234 -4 1 1 1
2 8 -4.37807083129882812 3 3 3
1.57388710975646973 8 3 5 5 5
2 8 2.69668197631835938 3 3 3
2 8.79511737823486328 -4 2 2 2
2 8.91648960113525391 -3 2 2 2
2 8.93833637237548828 -2 1 1 1
2 8.94400978088378906 -1 0 0 0
2 8.94122123718261719 0 0 0 0
2 8.92652511596679688 1 2 2 2
2 8.86551570892333984 2 3 3 3
2.14348077774047852 -1 -1 11 17 12
2.06737685203552246 -1 0 12 18 15
2.1257636547088623 0 -2 10 16 10
2.34816908836364746 0 -1 10 17 12
2.2712407112121582 0 0 11 18 14
2.27353596687316895 1 -2 11 15 9
2.49666023254394531 1 -1 10 16 10
2.41870236396789551 1 0 11 18 12
2.04233646392822266 1 1 12 19 15
2.37629938125610352 2 -2 11 15 9
2.59929585456848145 2 -1 11 16 10
2.52000617980957031 2 0 11 17 11
2.14140176773071289 2 1 12 18 13
2.45053267478942871 3 -2 11 13 8
2.67233133316040039 3 -1 11 14 9
2.59118437767028809 3 0 11 15 10
2.21024155616760254 3 1 12 17 11
2.00694108009338379 4 -3 10 10 7
2.52167177200317383 4 -2 11 11 8
2.74108743667602539 4 -1 11 12 8
2.65720009803771973 4 0 12 13 9
2.2733161449432373 4 1 12 15 10
2.1166996955871582 5 -3 8 7 6
2.62807130813598633 5 -2 9 8 6
2.84395599365234375 5 -1 10 9 7
2.7559666633605957 5 0 11 11 8
2.36771702766418457 5 1 12 12 9
2.31625866889953613 6 -3 5 4 4
2.8242342472076416 6 -2 6 5 5
3 5.81950139999389648 -1 10 9 8
3 6 -1.16866695880889893 6 5 5
2.9419867992401123 6 0 8 7 6
3 6 -0.618761301040649414 7 6 6
2.5466763973236084 6 1 9 9 8
2.66828560829162598 7 -3 1 1 1
3 6.51301336288452148 -2 6 5 5
3 7 -2.34247660636901855 2 2 1
3 6.17822074890136719 0 8 7 7
2.87628912925720215 7 1 6 5 5
3 7 0.691767334938049316 5 4 4
2.18155384063720703 7 2 7 7 7
2.41213536262512207 8 -4 2 2 2
3 7.62036800384521484 -3 2 2 1
3 8 -3.25962305068969727 2 2 2
3 7.24308586120605469 1 6 6 5
2.69255328178405762 8 2 3 3 3
3 8 1.56204104423522949 2 2 2
3 8.65999412536621094 -3 1 1 1
3 8.86593532562255859 -2 1 1 1
3 8.89150524139404297 -1 0 0 0
3 8.87955856323242188 0 1 1 1
3 8.78570842742919922 1 2 2 2
3.02648091316223145 6 -1 7 6 6
3.12970542907714844 7 -2 2 2 2
3.28189444541931152 7 -1 3 3 3
3.20773100852966309 7 0 5 4 4
3.15657591819763184 8 -3 1 1 1
3.53242135047912598 8 -2 1 1 1
3.68375587463378906 8 -1 0 0 0
3.60456943511962891 8 0 1 1 1
3.29814863204956055 8 1 2 2 2
3 2 1 0
3 1 3 0
3 6 5 4
3 5 2 0
3 5 0 4
3 4 0 7
3 3 9 8
3 3 8 0
3 0 8 7
3 9 11 10
3 8 9 10
3 11 12 10
3 6 4 13
3 4 7 14
3 13 4 14
3 7 8 15
3 14 7 15
3 8 10 16
3 15 8 16
3 10 12 16
3 19 18 17
3 18 21 20
3 17 18 20
3 21 22 20
3 25 24 23
3 24 19 17
3 24 17 23
3 23 17 26
3 17 20 26
3 20 27 26
3 22 28 27
3 20 22 27
3 30 25 23
3 29 30 23
3 23 26 29
3 26 31 29
3 26 27 31
3 27 32 31
3 28 33 32
3 27 28 32
3 35 30 29
3 34 35 29
3 29 31 34
3 31 36 34
3 31 32 36
3 32 37 36
3 33 38 37
3 32 33 37
3 40 35 34
3 39 40 34
3 34 36 39
3 36 41 39
3 36 37 41
3 37 42 41
3 38 44 43
3 38 43 37
3 37 43 42
3 44 45 43
3 48 47 46
3 47 40 39
3 47 39 46
3 46 39 49
3 39 41 49
3 41 50 49
3 41 42 50
3 42 51 50
3 42 43 51
3 43 52 51
3 45 53 52
3 43 45 52
3 55 48 46
3 54 55 46
3 46 49 54
3 49 56 54
3 2 50 1
3 2 56 50
3 56 49 50
3 1 57 3
3 1 50 57
3 50 51 57
3 51 52 57
3 52 58 57
3 53 59 58
3 52 53 58
3 62 61 60
3 61 55 54
3 61 54 60
3 60 54 63
3 6 56 5
3 6 63 56
3 63 54 56
3 56 2 5
3 57 9 3
3 58 9 57
3 11 9 58
3 11 64 12
3 58 64 11
3 58 65 64
3 58 59 65
3 65 66 64
3 62 60 67
3 60 63 68
3 67 60 68
3 63 6 13
3 63 13 68
3 68 13 69
3 69 13 70
3 13 14 70
3 70 14 71
3 14 15 71
3 71 15 72
3 15 16 72
3 12 64 73
3 12 73 16
3 16 73 72
3 64 66 73
3 76 75 74
3 75 78 77
3 74 75 77
3 78 80 79
3 77 78 79
3 80 81 79
3 83 76 74
3 82 83 74
3 74 77 82
3 77 84 82
3 77 79 84
3 79 85 84
3 81 87 86
3 81 86 79
3 79 86 85
3 87 88 86
3 91 90 89
3 90 83 82
3 90 82 89
3 89 82 92
3 82 84 92
3 84 93 92
3 84 85 93
3 85 94 93
3 85 86 94
3 86 95 94
3 88 96 95
3 86 88 95
3 98 91 89
3 97 98 89
3 89 92 97
3 92 99 97
3 19 93 18
3 19 99 93
3 99 92 93
3 94 18 93
3 21 18 94
3 21 100 22
3 21 94 100
3 94 95 100
3 96 101 100
3 95 96 100
3 103 98 97
3 102 103 97
3 25 99 24
3 25 102 99
3 102 97 99
3 99 19 24
3 104 22 100
3 28 22 104
3 101 105 104
3 100 101 104
3 107 103 102
3 106 107 102
3 102 30 106
3 25 30 102
3 108 28 104
3 33 28 108
3 105 109 108
3 104 105 108
3 111 107 106
3 110 111 106
3 106 35 110
3 30 35 106
3 112 33 108
3 38 33 112
3 109 114 113
3 109 113 108
3 108 113 112
3 114 115 113
3 117 111 110
3 116 117 110
3 110 40 116
3 35 40 110
3 112 44 38
3 44 118 45
3 44 112 118
3 112 113 118
3 115 119 118
3 113 115 118
3 122 121 120
3 116 47 48
3 117 116 48
3 117 48 120
3 117 120 121
3 116 40 47
3 123 45 118
3 53 45 123
3 119 124 123
3 118 119 123
3 126 122 120
3 125 126 120
3 120 55 125
3 48 55 120
3 127 53 123
3 59 53 127
3 124 128 127
3 123 124 127
3 125 61 62
3 125 62 126
3 126 62 129
3 125 55 61
3 127 65 59
3 65 130 66
3 127 130 65
3 127 131 130
3 127 128 131
3 131 132 130
3 129 62 67
3 133 129 67
3 133 67 134
3 67 68 134
3 134 68 135
3 68 69 135
3 135 69 136
3 69 70 136
3 136 70 137
3 70 71 137
3 137 71 138
3 71 72 138
3 138 72 139
3 72 73 139
3 66 130 140
3 66 140 73
3 73 140 139
3 130 132 140
3 143 142 141
3 142 144 141
3 147 146 145
3 146 143 141
3 146 141 145
3 145 141 148
3 144 150 149
3 144 149 141
3 141 149 148
3 150 152 151
3 149 150 151
3 152 153 151
3 156 155 154
3 145 75 76
3 147 145 76
3 147 76 154
3 147 154 155
3 148 75 145
3 78 75 148
3 149 78 148
3 80 78 149
3 80 157 81
3 80 149 157
3 149 151 157
3 153 158 157
3 151 153 157
3 160 156 154
3 159 160 154
3 154 83 159
3 76 83 154
3 157 87 81
3 87 157 158
3 87 158 88
3 88 158 161
3 159 90 91
3 159 91 160
3 160 91 162
3 159 83 90
3 163 161 164
3 163 96 161
3 96 88 161
3 164 165 163
3 162 91 166
3 166 91 98
3 167 96 163
3 101 96 167
3 165 168 167
3 163 165 167
3 166 98 169
3 169 98 103
3 170 101 167
3 105 101 170
3 168 171 170
3 167 168 170
3 174 173 172
3 173 107 172
3 173 169 107
3 169 103 107
3 175 105 170
3 109 105 175
3 171 176 175
3 170 171 175
3 178 174 172
3 177 178 172
3 172 111 177
3 107 111 172
3 175 114 109
3 114 175 176
3 114 176 115
3 115 176 179
3 181 178 177
3 180 181 177
3 177 117 180
3 111 117 177
3 179 182 115
3 182 119 115
3 180 121 122
3 180 122 181
3 181 122 183
3 180 117 121
3 182 184 119
3 184 124 119
3 183 122 185
3 185 122 126
3 186 184 187
3 186 128 184
3 128 124 184
3 187 188 186
3 191 190 189
3 190 129 189
3 190 185 129
3 185 126 129
3 186 131 128
3 131 186 188
3 131 188 132
3 132 188 192
3 191 189 193
3 189 129 133
3 189 133 193
3 193 133 194
3 194 133 195
3 133 134 195
3 195 134 196
3 134 135 196
3 196 135 197
3 135 136 197
3 197 136 198
3 136 137 198
3 198 137 199
3 137 138 199
3 199 138 200
3 138 139 200
3 200 139 201
3 139 140 201
3 201 140 132
3 192 201 132
3 204 203 202
3 143 202 203
3 143 203 142
3 142 203 205
3 206 144 142
3 206 142 207
3 207 142 205
3 207 208 206
3 202 146 147
3 202 147 204
3 204 147 209
3 202 143 146
3 206 150 144
3 208 150 206
3 208 210 150
3 210 152 150
3 152 210 211
3 153 152 211
3 156 213 212
3 155 156 212
3 212 147 155
3 209 147 212
3 211 214 153
3 214 158 153
3 213 156 215
3 215 156 160
3 216 214 217
3 216 161 214
3 161 158 214
3 217 218 216
3 215 160 219
3 219 160 162
3 216 164 161
3 164 216 218
3 164 218 165
3 165 218 220
3 223 222 221
3 222 166 221
3 222 219 166
3 219 162 166
3 220 224 165
3 224 168 165
3 226 223 221
3 225 226 221
3 221 169 225
3 166 169 221
3 224 227 168
3 227 171 168
3 225 173 174
3 225 174 226
3 226 174 228
3 225 169 173
3 227 229 171
3 229 176 171
3 228 174 230
3 230 174 178
3 229 231 176
3 231 179 176
3 230 178 232
3 232 178 181
3 231 233 179
3 233 182 179
3 232 181 234
3 234 181 183
3 235 233 236
3 235 184 233
3 184 182 233
3 236 237 235
3 234 183 238
3 238 183 185
3 235 187 184
3 187 235 237
3 187 237 188
3 188 237 239
3 191 241 240
3 190 191 240
3 240 185 190
3 238 185 240
3 239 242 188
3 242 192 188
3 241 191 193
3 243 241 193
3 243 193 244
3 193 194 244
3 244 194 245
3 194 195 245
3 245 195 246
3 195 196 246
3 246 196 247
3 196 197 247
3 247 197 248
3 197 198 248
3 248 198 249
3 198 199 249
3 249 199 250
3 199 200 250
3 250 200 251
3 200 201 251
3 251 201 192
3 242 251 192
3 203 204 252
3 252 254 253
3 252 253 203
3 203 253 205
3 253 255 205
3 205 255 207
3 207 255 256
3 208 207 256
3 257 252 204
3 257 204 258
3 258 204 209
3 252 257 254
3 256 210 208
3 259 210 256
3 210 259 260
3 211 210 260
3 213 262 261
3 212 213 261
3 261 209 212
3 258 209 261
3 260 263 211
3 263 214 211
3 262 213 264
3 264 213 215
3 263 217 214
3 265 217 263
3 217 265 266
3 218 217 266
3 264 215 267
3 267 215 219
3 266 268 218
3 268 220 218
3 223 270 269
3 222 223 269
3 269 219 222
3 267 219 269
3 268 271 220
3 271 224 220
3 270 223 272
3 272 223 226
3 271 273 224
3 273 227 224
3 272 226 274
3 274 226 228
3 273 275 227
3 275 229 227
3 274 228 276
3 276 228 230
3 275 277 229
3 277 231 229
3 276 230 278
3 278 230 232
3 277 279 231
3 279 233 231
3 278 232 280
3 280 232 234
3 236 282 281
3 236 233 282
3 233 279 282
3 236 281 237
3 280 234 283
3 283 234 238
3 282 284 281
3 281 284 285
3 281 285 237
3 237 285 239
3 241 287 286
3 240 241 286
3 286 238 240
3 283 238 286
3 285 288 239
3 288 242 239
3 287 241 243
3 289 287 243
3 289 243 290
3 243 244 290
3 290 244 291
3 244 245 291
3 291 245 292
3 245 246 292
3 292 246 293
3 246 247 293
3 293 247 294
3 247 248 294
3 294 248 295
3 248 249 295
3 295 249 296
3 249 250 296
3 296 250 297
3 250 251 297
3 297 251 242
3 288 297 242
3 253 254 298
3 255 253 298
3 299 255 298
3 255 299 256
3 257 258 300
3 300 302 301
3 257 300 301
3 257 301 298
3 257 298 254
3 298 303 299
3 301 303 298
3 305 304 259
3 303 305 259
3 303 259 256
3 303 256 299
3 259 304 260
3 261 262 306
3 306 308 307
3 261 306 307
3 261 307 300
3 261 300 258
3 300 307 302
3 305 309 304
3 304 309 310
3 304 310 260
3 260 310 263
3 311 306 262
3 311 262 312
3 312 262 264
3 306 311 308
3 265 314 313
3 265 263 314
3 263 310 314
3 265 313 266
3 312 264 315
3 315 264 267
3 317 313 314
3 316 313 317
3 313 316 268
3 266 313 268
3 269 270 318
3 318 267 269
3 318 319 267
3 319 315 267
3 317 320 316
3 316 320 321
3 316 321 268
3 268 321 271
3 322 318 270
3 272 322 270
3 319 322 323
3 318 322 319
3 321 324 271
3 324 273 271
3 325 322 272
3 274 325 272
3 323 325 326
3 322 325 323
3 324 327 273
3 327 275 273
3 328 325 274
3 276 328 274
3 326 328 329
3 325 328 326
3 327 330 275
3 330 277 275
3 331 328 276
3 331 276 332
3 332 276 278
3 328 331 329
3 330 333 277
3 333 279 277
3 332 278 334
3 334 278 280
3 333 335 279
3 335 282 279
3 334 280 336
3 336 280 283
3 284 338 337
3 284 282 338
3 282 335 338
3 284 337 285
3 287 340 339
3 286 287 339
3 339 283 286
3 336 283 339
3 338 341 337
3 337 341 342
3 337 342 285
3 285 342 288
3 340 287 289
3 343 340 289
3 343 289 344
3 289 290 344
3 344 290 345
3 290 291 345
3 345 291 346
3 291 292 346
3 346 292 347
3 292 293 347
3 347 293 348
3 293 294 348
3 348 294 349
3 294 295 349
3 349 295 350
3 295 296 350
3 350 296 351
3 296 297 351
3 351 297 288
3 342 351 288
3 301 302 352
3 303 301 352
3 353 303 352
3 303 353 305
3 307 308 354
3 302 307 354
3 302 354 352
3 352 354 355
3 352 355 353
3 353 355 356
3 309 305 353
3 309 353 357
3 357 353 356
3 309 357 310
3 311 312 358
3 308 311 358
3 308 358 354
3 354 358 359
3 360 359 361
3 360 355 359
3 355 354 359
3 355 362 356
3 360 362 355
3 364 356 362
3 364 363 356
3 363 357 356
3 357 363 314
3 310 357 314
3 365 358 312
3 315 365 312
3 366 365 367
3 366 359 365
3 359 358 365
3 359 366 361
3 369 363 364
3 368 363 369
3 363 368 317
3 314 363 317
3 370 365 315
3 319 370 315
3 367 370 371
3 365 370 367
3 369 372 368
3 374 373 320
3 372 374 320
3 372 320 317
3 372 317 368
3 320 373 321
3 375 370 319
3 323 375 319
3 371 375 376
3 370 375 371
3 378 373 374
3 377 373 378
3 373 377 324
3 321 373 324
3 379 375 323
3 326 379 323
3 376 379 380
3 375 379 376
3 382 377 378
3 381 377 382
3 377 381 327
3 324 377 327
3 383 379 326
3 383 326 384
3 384 326 329
3 379 383 380
3 386 381 382
3 385 381 386
3 381 385 330
3 327 381 330
3 331 332 387
3 387 329 331
3 387 388 329
3 388 384 329
3 390 385 386
3 389 385 390
3 385 389 333
3 330 385 333
3 391 387 332
3 334 391 332
3 388 391 392
3 387 391 388
3 394 389 390
3 393 389 394
3 389 393 335
3 333 389 335
3 395 391 334
3 336 395 334
3 392 395 396
3 391 395 392
3 394 397 393
3 393 397 398
3 393 398 335
3 335 398 338
3 339 340 399
3 399 401 400
3 339 399 400
3 339 400 395
3 339 395 336
3 395 400 396
3 341 403 402
3 341 338 403
3 338 398 403
3 341 402 342
3 399 340 343
3 401 399 343
3 401 343 404
3 404 343 344
3 404 344 405
3 344 345 405
3 405 345 406
3 345 346 406
3 406 346 407
3 346 347 407
3 407 347 408
3 347 348 408
3 408 348 409
3 348 349 409
3 409 349 410
3 349 350 410
3 402 403 410
3 402 410 351
3 351 410 350
3 402 351 342
3 360 361 411
3 362 360 411
3 412 362 411
3 362 412 364
3 366 367 413
3 361 366 413
3 361 413 411
3 411 413 414
3 411 414 412
3 412 414 415
3 412 415 369
3 364 412 369
3 416 413 367
3 371 416 367
3 413 416 414
3 414 416 417
3 414 417 415
3 415 417 418
3 372 369 415
3 372 415 419
3 419 415 418
3 372 419 374
3 420 416 371
3 376 420 371
3 416 420 417
3 417 420 421
3 417 421 418
3 418 421 422
3 418 422 419
3 419 422 423
3 419 423 378
3 374 419 378
3 424 420 376
3 380 424 376
3 420 424 421
3 421 424 425
3 421 425 422
3 422 425 426
3 422 426 423
3 423 426 427
3 423 427 382
3 378 423 382
3 383 384 428
3 380 383 428
3 380 428 424
3 424 428 429
3 424 429 425
3 425 429 430
3 425 430 426
3 426 430 431
3 426 431 427
3 427 431 432
3 427 432 386
3 382 427 386
3 433 428 384
3 388 433 384
3 428 433 429
3 429 433 434
3 429 434 430
3 430 434 435
3 430 435 431
3 431 435 436
3 431 436 432
3 432 436 437
3 432 437 390
3 386 432 390
3 438 433 388
3 392 438 388
3 433 438 434
3 434 438 439
3 440 439 441
3 440 435 439
3 435 434 439
3 443 435 440
3 443 442 435
3 442 436 435
3 436 442 437
3 437 442 444
3 437 444 394
3 390 437 394
3 445 438 392
3 396 445 392
3 446 445 447
3 446 439 445
3 439 438 445
3 439 446 441
3 443 448 442
3 450 442 448
3 450 449 442
3 449 444 442
3 397 394 444
3 397 444 451
3 451 444 449
3 397 451 398
3 400 401 452
3 452 454 453
3 400 452 453
3 400 453 445
3 400 445 396
3 445 453 447
3 450 455 449
3 457 449 455
3 457 456 449
3 456 451 449
3 451 456 403
3 398 451 403
3 452 401 404
3 454 452 404
3 454 404 458
3 458 404 405
3 458 405 459
3 405 406 459
3 459 406 460
3 406 407 460
3 460 407 461
3 407 408 461
3 461 408 462
3 408 409 462
3 456 457 462
3 456 462 410
3 410 462 409
3 456 410 403
3 440 441 463
3 440 463 443
3 446 447 464
3 441 446 464
3 441 464 463
3 463 464 465
3 448 443 463
3 448 463 466
3 466 463 465
3 448 466 450
3 453 454 467
3 447 453 467
3 447 467 464
3 464 467 468
3 464 468 465
3 465 468 469
3 465 469 466
3 466 469 470
3 455 450 466
3 455 466 471
3 471 466 470
3 455 471 457
3 467 454 458
3 468 467 458
3 459 468 458
3 469 468 459
3 460 469 459
3 470 469 460
3 461 470 460
3 471 470 461
3 462 471 461
3 471 462 457
