ply
format ascii 1.0
element vertex 78
property float x
property float y
property float z
property uchar red
property uchar green
property uchar blue
element face 152
property list uchar int vertex_indices
end_header
6.96026992797851562 -9 -2 0 25 27
7 -9.08641719818115234 -2 0 17 38
7 -9 -2.11352038383483887 0 17 19
6.6734461784362793 -9 -1 0 24 27
7 -9.43520641326904297 -1 0 17 38
6.44803905487060547 -9 0 0 25 28
7 -9.56394672393798828 0 0 17 39
6.28534126281738281 -9 1 0 26 30
7 -9.62490558624267578 1 0 17 41
6.18631982803344727 -9 2 0 28 34
7 -9.65409183502197266 2 0 17 45
6.15157699584960938 -9 3 0 30 38
7 -9.66324615478515625 3 0 17 49
6.18132543563842773 -9 4 0 33 44
7 -9.65543937683105469 4 0 18 55
6.27538299560546875 -9 5 0 37 51
7 -9.62807083129882812 5 0 18 61
6.43317651748657227 -9 6 0 40 58
7 -9.57035541534423828 6 0 18 69
6.65376663208007812 -9 7 0 44 67
7 -9.44948959350585938 7 0 18 77
6.93588399887084961 -9 8 0 47 77
7 -9.13234615325927734 8 0 17 87
7 -9 8.13234615325927734 0 38 68
7 -8.98238182067871094 -2 0 16 18
7 -8.85523319244384766 -1 0 15 18
7 -8.75535774230957031 0 0 16 19
7 -8.68329238891601562 1 0 17 22
7 -8.63944339752197266 2 0 19 25
7 -8.62405967712402344 3 0 22 30
7 -8.63723182678222656 4 0 25 35
7 -8.67888259887695312 5 0 28 42
7 -8.74877357482910156 6 0 32 50
7 -8.8465118408203125 7 0 35 59
7 -8.97156906127929688 8 0 38 68
7.78274679183959961 -9 -4 0 19 22
8 -9.32491970062255859 -4 0 15 34
8 -9 -4.42572689056396484 0 15 17
7.33779144287109375 -9 -3 0 17 19
8 -9.59151649475097656 -3 0 13 32
8 -9.69296073913574219 -2 0 12 31
8 -9.74442672729492188 -1 0 12 31
8 -9.77374553680419922 0 0 12 32
8 -9.79084682464599609 1 0 12 34
8 -9.79997062683105469 2 0 12 37
8 -9.80297374725341797 3 0 13 42
8 -9.80040836334228516 4 0 13 48
8 -9.79180526733398438 5 0 13 54
8 -9.77543067932128906 6 0 13 62
8 -9.74730491638183594 7 0 13 70
8 -9.69817161560058594 8 0 12 80
8 -9 8.69817161560058594 0 31 61
8 -8.90991306304931641 -4 0 12 14
8 -8.72551727294921875 -3 0 10 12
8 -8.56751823425292969 -2 0 8 11
8 -8.43675518035888672 -1 0 8 11
8 -8.33396625518798828 0 0 9 12
8 -8.25975990295410156 1 0 10 14
8 -8.21459102630615234 2 0 12 18
8 -8.19874191284179688 3 0 15 22
8 -8.21231269836425781 4 0 18 28
8 -8.25521755218505859 5 0 21 35
8 -8.32718753814697266 6 0 25 43
8 -8.42778205871582031 7 0 28 51
8 -8.55640220642089844 8 0 31 61
8.32491970062255859 -9 -4 0 12 14
8.59151649475097656 -9 -3 0 10 12
8.69296073913574219 -9 -2 0 8 11
8.74442672729492188 -9 -1 0 8 11
8.77374553680419922 -9 0 0 9 12
8.79084682464599609 -9 1 0 10 14
8.79997062683105469 -9 2 0 12 18
8.80297374725341797 -9 3 0 15 22
8.80040836334228516 -9 4 0 18 28
8.79180526733398438 -9 5 0 21 35
8.77543067932128906 -9 6 0 25 43
8.74730491638183594 -9 7 0 28 51
8.69817161560058594 -9 8 0 31 61
3 2 1 0
3 1 4 3
3 0 1 3
3 4 6 5
3 3 4 5
3 6 8 7
3 5 6 7
3 8 10 9
3 7 8 9
3 10 12 11
3 9 10 11
3 12 14 13
3 11 12 13
3 14 16 15
3 13 14 15
3 16 18 17
3 15 16 17
3 18 20 19
3 17 18 19
3 20 22 21
3 19 20 21
3 22 23 21
3 2 0 24
3 0 3 25
3 24 0 25
3 3 5 26
3 25 3 26
3 5 7 27
3 26 5 27
3 7 9 28
3 27 7 28
3 9 11 29
3 28 9 29
3 11 13 30
3 29 11 30
3 13 15 31
3 30 13 31
3 15 17 32
3 31 15 32
3 17 19 33
3 32 17 33
3 19 21 34
3 33 19 34
3 21 23 34
3 37 36 35
3 36 39 38
3 35 36 38
3 2 38 39
3 2 39 1
3 1 39 40
3 40 41 1
3 1 41 4
3 41 42 4
3 4 42 6
3 42 43 6
3 6 43 8
3 43 44 8
3 8 44 10
3 44 45 10
3 10 45 12
3 45 46 12
3 12 46 14
3 46 47 14
3 14 47 16
3 47 48 16
3 16 48 18
3 48 49 18
3 18 49 20
3 49 50 20
3 20 50 22
3 22 50 51
3 23 22 51
3 37 35 52
3 35 38 53
3 52 35 53
3 38 2 24
3 38 24 53
3 53 24 54
3 54 24 55
3 24 25 55
3 55 25 56
3 25 26 56
3 56 26 57
3 26 27 57
3 57 27 58
3 27 28 58
3 58 28 59
3 28 29 59
3 59 29 60
3 29 30 60
3 60 30 61
3 30 31 61
3 61 31 62
3 31 32 62
3 62 32 63
3 32 33 63
3 63 33 64
3 33 34 64
3 64 34 23
3 51 64 23
3 36 37 65
3 39 36 65
3 66 39 65
3 40 39 66
3 67 40 66
3 41 40 67
3 68 41 67
3 42 41 68
3 69 42 68
3 43 42 69
3 70 43 69
3 44 43 70
3 71 44 70
3 45 44 71
3 72 45 71
3 46 45 72
3 73 46 72
3 47 46 73
3 74 47 73
3 48 47 74
3 75 48 74
3 49 48 75
3 76 49 75
3 50 49 76
3 77 50 76
3 50 77 51
3 65 37 52
3 66 65 52
3 53 66 52
3 67 66 53
3 54 67 53
3 68 67 54
3 55 68 54
3 69 68 55
3 56 69 55
3 70 69 56
3 57 70 56
3 71 70 57
3 58 71 57
3 72 71 58
3 59 72 58
3 73 72 59
3 60 73 59
3 74 73 60
3 61 74 60
3 75 74 61
3 62 75 61
3 76 75 62
3 63 76 62
3 77 76 63
3 64 77 63
3 77 64 51
