ply
format ascii 1.0
element vertex 68
property float x
property float y
property float z
property uchar red
property uchar green
property uchar blue
element face 132
property list uchar int vertex_indices
end_header
-9.62444686889648438 4 -9 11 7 1
-9 3.06064343452453613 -9 5 1 0
-9 4 -9.62444686889648438 14 7 2
-9 4 -8.50081157684326172 4 2 0
-9.77660465240478516 5 -9 28 26 9
-9 5 -9.77660465240478516 31 24 9
-9.18661689758300781 5 -8 20 19 6
-9 4.87909173965454102 -8 4 2 0
-9 5 -7.92589759826660156 14 12 4
-9.84192752838134766 6 -9 43 50 26
-9 6 -9.84192752838134766 51 53 26
-9.684356689453125 6 -8 36 43 22
-9 6 -7.28121376037597656 33 36 17
-9.87811756134033203 7 -9 51 61 31
-9 7 -9.87811756134033203 60 64 31
-9.80545425415039062 7 -8 44 53 29
-9.54715728759765625 7 -7 38 46 26
-9 6.41246795654296875 -7 25 28 13
-9 7 -6.56257438659667969 36 40 22
-9.90102863311767578 8 -9 57 67 32
-9 8 -9.90102863311767578 67 71 32
-9.85989475250244141 8 -8 52 61 31
-9.76714801788330078 8 -7 46 53 29
-9.37960243225097656 8 -6 39 45 25
-9 7.71748971939086914 -6 29 33 19
-9 8 -5.75417947769165039 37 39 22
-9 8.90102863311767578 -9 60 63 31
-9 8.85989475250244141 -8 53 56 29
-9 8.76714801788330078 -7 44 46 25
-9 8.37960243225097656 -6 37 39 22
-8.42801570892333984 4 -9 4 2 0
-8 4.65929985046386719 -9 1 0 0
-8 5 -9.39134502410888672 26 17 7
-8.92257213592529297 5 -8 14 12 4
-8 5 -8.80958843231201172 17 11 4
-8 6 -9.71993827819824219 48 46 22
-8.248931884765625 6 -8 33 36 17
-8 6 -8.21846961975097656 39 37 17
-8 7 -9.81920242309570312 60 59 30
-8 6.35002660751342773 -8 30 29 13
-8.58691215515136719 7 -7 36 40 22
-8 7 -7.562652587890625 42 42 23
-8 8 -9.86695289611816406 67 65 32
-8 7.79096794128417969 -7 33 34 19
-8.79247093200683594 8 -6 37 39 22
-8 8 -6.83740043640136719 41 39 22
-8 8.86695289611816406 -9 60 57 30
-8 8.77359962463378906 -8 49 46 26
-8 8.31209087371826172 -7 41 39 22
-7.75749921798706055 5 -9 17 11 4
-7.004486083984375 6 -9 39 37 17
-7 6.00569677352905273 -9 34 29 14
-7 7 -9.66909122467041016 56 52 29
-7.49203109741210938 7 -8 42 42 23
-7 7 -8.38995933532714844 46 43 25
-7 8 -9.80330657958984375 65 57 32
-7 7.59881067276000977 -8 37 35 20
-7.82931852340698242 8 -7 41 39 22
-7 8 -7.71795845031738281 45 39 24
-7 8.80330657958984375 -9 55 48 28
-7 8.46408271789550781 -8 45 39 24
-6.12577676773071289 7 -9 46 43 25
-6 7.13657760620117188 -9 43 37 23
-6 8 -9.64777278900146484 63 51 31
-6.63146638870239258 8 -8 45 39 24
-6 8 -8.44653892517089844 51 41 26
-6 8.64777278900146484 -9 51 41 26
-5.09398555755615234 8 -9 51 41 26
3 2 1 0
3 1 3 0
3 5 2 0
3 4 5 0
3 3 7 6
3 3 6 0
3 0 6 4
3 7 8 6
3 10 5 4
3 9 10 4
3 4 6 9
3 6 11 9
3 8 12 11
3 6 8 11
3 14 10 9
3 13 14 9
3 9 11 13
3 11 15 13
3 12 17 16
3 12 16 11
3 11 16 15
3 17 18 16
3 20 14 13
3 19 20 13
3 13 15 19
3 15 21 19
3 15 16 21
3 16 22 21
3 18 24 23
3 18 23 16
3 16 23 22
3 24 25 23
3 20 19 26
3 19 21 27
3 26 19 27
3 21 22 28
3 27 21 28
3 22 23 29
3 28 22 29
3 23 25 29
3 1 2 30
3 1 30 3
3 31 30 2
3 31 2 32
3 32 2 5
3 34 33 7
3 31 34 7
3 31 7 3
3 31 3 30
3 7 33 8
3 32 5 35
3 35 5 10
3 37 33 34
3 36 33 37
3 33 36 12
3 8 33 12
3 35 10 38
3 38 10 14
3 37 39 36
3 41 40 17
3 39 41 17
3 39 17 12
3 39 12 36
3 17 40 18
3 38 14 42
3 42 14 20
3 41 43 40
3 45 44 24
3 43 45 24
3 43 24 18
3 43 18 40
3 24 44 25
3 42 20 26
3 46 42 26
3 46 26 47
3 26 27 47
3 47 27 48
3 27 28 48
3 44 45 48
3 44 48 29
3 29 48 28
3 44 29 25
3 31 32 49
3 31 49 34
3 50 49 32
3 35 50 32
3 49 50 37
3 34 49 37
3 51 50 35
3 51 35 52
3 52 35 38
3 54 53 39
3 51 54 39
3 51 39 37
3 51 37 50
3 39 53 41
3 52 38 55
3 55 38 42
3 54 56 53
3 58 57 43
3 56 58 43
3 56 43 41
3 56 41 53
3 43 57 45
3 55 42 46
3 59 55 46
3 59 46 60
3 46 47 60
3 57 58 60
3 57 60 48
3 48 60 47
3 57 48 45
3 51 52 61
3 51 61 54
3 62 61 52
3 62 52 63
3 63 52 55
3 65 64 56
3 62 65 56
3 62 56 54
3 62 54 61
3 56 64 58
3 63 55 59
3 66 63 59
3 64 65 66
3 64 66 60
3 60 66 59
3 64 60 58
3 62 63 67
3 62 67 65
3 67 63 66
3 67 66 65
