ply
format ascii 1.0
element vertex 192
property float x
property float y
property float z
property uchar red
property uchar green
property uchar blue
element face 380
property list uchar int vertex_indices
end_header
-2.14565062522888184 0 0 84 44 31
-2 -0.240864887833595276 0 73 43 38
-2 0 -0.278228759765625 77 39 26
-2.28926253318786621 0 1 92 48 34
-2 -0.478818058967590332 1 81 48 43
-2.05645108222961426 0 2 100 52 37
-2 -0.0932992324233055115 2 90 53 48
-2 0 2.09170675277709961 95 47 33
-2.00437355041503906 1 -1 85 42 20
-2 0.988476336002349854 -1 77 39 26
-2 1 -1.00479626655578613 85 42 19
-2.52635478973388672 1 0 87 43 22
-2.67317390441894531 1 1 95 47 24
-2.43544673919677734 1 2 103 50 27
-2 1 2.70915389060974121 98 47 25
-2.16041946411132812 2 -1 85 43 18
-2 2 -1.17596280574798584 86 44 17
-2.68684053421020508 2 0 89 45 20
-2.83546972274780273 2 1 96 49 23
-2.59493875503540039 2 2 104 53 26
-2 2 2.96994638442993164 99 50 25
-2.09609365463256836 3 -1 83 43 20
-2 3 -1.10539460182189941 83 43 19
-2.62057280540466309 3 0 87 46 23
-2.76842045783996582 3 1 95 50 26
-2.52910161018371582 3 2 103 54 30
-2 3 2.86222219467163086 97 51 30
-2 3.33617305755615234 -1 78 40 19
-2.33049511909484863 4 0 83 43 27
-2 4 -0.632277607917785645 71 37 22
-2.47547769546508789 4 1 91 48 31
-2.24057722091674805 4 2 99 52 36
-2 4 2.39129066467285156 93 50 35
-2 4.64868354797363281 0 77 40 26
-2 4.93441104888916016 1 85 45 30
-2 4.47183847427368164 2 93 50 35
-1.24766206741333008 -1 0 73 43 38
-1 -1.18149125576019287 0 61 35 35
-1 -1 -0.288761824369430542 66 37 31
-1.48347723484039307 -1 1 81 48 43
-1 -1.35410666465759277 1 70 41 41
-1.1014256477355957 -1 2 90 53 48
-1 -1.07435131072998047 2 78 48 48
-1 -1 2.10062718391418457 85 47 42
-1.37776100635528564 0 -1 77 39 26
-1 -0.381301820278167725 -1 66 37 31
-1 0 -1.25279653072357178 77 39 24
-1.08474242687225342 0 3 103 50 35
-1 -0.0855352580547332764 3 93 52 46
-1 0 3.05150175094604492 98 46 32
-1 1 -1.67281937599182129 80 39 17
-1.70693337917327881 1 3 106 51 27
-1 1 3.42854619026184082 102 48 25
-1 2 -1.8503262996673584 81 41 16
-1.96971726417541504 2 3 107 54 28
-1 2 3.58719563484191895 102 52 27
-1 3 -1.77699697017669678 78 41 19
-1.86117136478424072 3 3 106 56 34
-1 3 3.52170777320861816 101 54 33
-1.68289518356323242 4 -1 71 37 22
-1 4 -1.45654964447021484 72 37 22
-1.38663303852081299 4 3 101 55 40
-1 4 3.23468875885009766 96 52 39
-1 4.81723165512084961 -1 66 34 21
-1.70444035530090332 5 0 69 34 27
-1 5 -0.821694254875183105 56 27 21
-1.94480574131011963 5 1 77 39 32
-1.55573439598083496 5 2 85 43 37
-1 4.46254110336303711 3 96 52 39
-1 5 2.55134701728820801 79 41 35
-1 5.58265447616577148 0 63 31 26
-1 5.7812047004699707 1 71 36 30
-1 5.45975065231323242 2 79 41 35
0 -1.45679914951324463 0 56 31 30
0 -1 -0.727685511112213135 62 32 27
0 -1.63176596164703369 1 65 36 36
0 -1.3484044075012207 2 74 43 43
0 -1 2.47192955017089844 80 42 37
0 -0.763037323951721191 -1 62 32 27
0 0 -1.50526130199432373 72 35 21
0 -0.463090866804122925 3 89 46 41
0 0 3.27840518951416016 94 43 28
0 1 -1.93214797973632812 75 36 15
0 1 3.66018152236938477 97 45 24
-0.426522284746170044 2 -2 81 41 16
0 1.37738347053527832 -2 75 36 15
0 2 -2.07448291778564453 81 42 15
0 2 3.82153630256652832 98 49 26
-0.144865080714225769 3 -2 78 41 19
0 3 -2.02532672882080078 79 41 17
0 3 3.75487875938415527 96 52 32
0 3.11553192138671875 -2 73 38 18
0 4 -1.71199965476989746 66 35 21
0 4 3.46360039710998535 91 50 37
-0.598035991191864014 5 -1 56 27 21
0 5 -1.14944684505462646 56 27 20
0 4.91550445556640625 3 91 50 37
0 5 2.92943477630615234 74 38 34
0 5.18474483489990234 -1 50 25 20
0 5.89964818954467773 0 57 29 24
-0.314205259084701538 6 1 59 28 27
0 6 0.498696357011795044 45 21 20
0 5.77463483810424805 2 74 38 34
0 6 1.30779266357421875 53 26 25
0 6.07409429550170898 1 53 26 25
1 -1.27770507335662842 0 52 27 27
1 -1 -0.44203108549118042 57 28 23
1 -1.45106828212738037 1 60 32 32
1 -1.17017102241516113 2 69 38 38
1 -1 2.2303769588470459 76 38 32
1 -0.514572799205780029 -1 57 28 23
1 0 -1.34100842475891113 68 31 17
1 -0.217473700642585754 3 85 41 35
1 0 3.1308739185333252 90 39 25
1 1 -1.76323950290679932 71 34 13
1 1 3.50941324234008789 93 43 22
0.658742606639862061 2 -2 76 38 15
1 2 -1.94196856021881104 71 36 14
1 2 3.66893529891967773 94 47 25
0.22371596097946167 3 -2 73 38 18
1 3 -1.86811292171478271 68 36 17
1 3 3.60306930541992188 92 50 31
1 4 -1.5457155704498291 61 32 19
1 4 3.31468796730041504 86 47 36
0.923690259456634521 5 -1 50 25 20
1 4.97740507125854492 -1 55 29 19
1 5 -0.97795635461807251 44 22 18
1 4.62063360214233398 3 86 47 36
1 5 2.68326902389526367 69 36 32
1 5.69324159622192383 0 52 26 22
0.485256314277648926 6 1 53 26 25
1 5.89303207397460938 1 60 31 27
1 5.5696568489074707 2 69 36 32
1.43798983097076416 -1 0 58 29 24
1.7119593620300293 -1 1 67 33 28
1.26826417446136475 -1 2 76 38 32
1.58909571170806885 0 -1 62 29 17
2 -0.506697177886962891 0 54 26 21
2 0 -0.585431814193725586 57 25 14
2 -0.747122764587402344 1 63 30 24
2 -0.357799112796783447 2 72 33 28
1.24890947341918945 0 3 90 39 25
2 0 2.35168218612670898 77 33 20
2 0.567522943019866943 -1 57 25 14
2 1 -1.17974281311035156 66 31 12
1.9718935489654541 1 3 93 43 22
2 1 2.97572469711303711 80 37 18
2 2 -1.35212886333465576 66 33 13
2 1.09283506870269775 3 89 41 20
2 2 3.14087319374084473 90 46 24
2 3 -1.28102219104766846 63 33 16
2 3 3.07690954208374023 87 48 30
1.9439159631729126 4 -1 55 29 19
2 3.89792537689208984 -1 57 30 15
2 4 -0.943416774272918701 50 26 17
1.59940409660339355 4 3 86 47 36
2 3.27032113075256348 3 87 48 30
2 4 2.65411877632141113 73 40 30
1.96899175643920898 5 0 52 26 22
2 4.96793365478515625 0 57 30 21
2 5 0.11184866726398468 47 24 20
1.79597723484039307 5 2 69 36 32
2 4.78900718688964844 2 73 40 30
2 5 1.54526174068450928 55 28 25
2 5.171966552734375 1 55 28 25
2.33399486541748047 0 0 60 26 15
2.49208664894104004 0 1 68 30 17
2.23596024513244629 0 2 77 33 20
2.17877984046936035 1 -1 60 28 11
2.7537989616394043 1 0 63 29 13
2.91632747650146484 1 1 72 33 15
2.65334320068359375 1 2 80 37 18
2.35023784637451172 2 -1 60 30 13
2.93147492408752441 2 0 64 32 15
3 1.46782684326171875 1 68 31 14
3 2 0.418329238891601562 61 31 14
2.82967638969421387 2 2 81 41 21
3 2 1.35713016986846924 69 35 17
2.15444779396057129 2 3 90 46 24
2.27951455116271973 3 -1 57 30 15
2.85805630683898926 3 0 62 33 18
3 3 0.867338716983795166 58 31 17
2.7568361759185791 3 2 79 42 26
3 3 1.0814589262008667 66 36 21
2.08431267738342285 3 3 87 48 30
2.5375359058380127 4 0 57 30 21
2.69756197929382324 4 1 65 35 25
3 3.06631875038146973 1 66 36 21
2.43845653533935547 4 2 73 40 30
2.13836884498596191 5 1 55 28 25
3.06343960762023926 2 1 69 35 17
3.01448678970336914 3 1 66 36 21
3 2 1 0
3 1 4 3
3 0 1 3
3 4 6 5
3 3 4 5
3 6 7 5
3 10 9 8
3 9 2 0
3 9 0 8
3 8 0 11
3 0 3 11
3 3 12 11
3 3 5 12
3 5 13 12
3 7 14 13
3 5 7 13
3 16 10 8
3 15 16 8
3 8 11 15
3 11 17 15
3 11 12 17
3 12 18 17
3 12 13 18
3 13 19 18
3 14 20 19
3 13 14 19
3 22 16 15
3 21 22 15
3 15 17 21
3 17 23 21
3 17 18 23
3 18 24 23
3 18 19 24
3 19 25 24
3 20 26 25
3 19 20 25
3 22 21 27
3 29 27 21
3 29 21 28
3 28 21 23
3 23 24 28
3 24 30 28
3 24 25 30
3 25 31 30
3 26 32 31
3 25 26 31
3 29 28 33
3 28 30 34
3 33 28 34
3 30 31 35
3 34 30 35
3 31 32 35
3 38 37 36
3 37 40 39
3 36 37 39
3 40 42 41
3 39 40 41
3 42 43 41
3 46 45 44
3 36 1 2
3 38 36 2
3 38 2 44
3 38 44 45
3 39 1 36
3 4 1 39
3 41 4 39
3 6 4 41
3 6 47 7
3 41 47 6
3 41 48 47
3 41 43 48
3 48 49 47
3 44 9 10
3 44 10 46
3 46 10 50
3 44 2 9
3 51 7 47
3 14 7 51
3 49 52 51
3 47 49 51
3 50 10 53
3 53 10 16
3 54 14 51
3 20 14 54
3 52 55 54
3 51 52 54
3 53 16 56
3 56 16 22
3 57 20 54
3 26 20 57
3 55 58 57
3 54 55 57
3 27 59 60
3 27 60 22
3 22 60 56
3 27 29 59
3 61 26 57
3 32 26 61
3 58 62 61
3 57 58 61
3 60 59 63
3 65 33 64
3 63 33 65
3 63 29 33
3 63 59 29
3 34 64 33
3 66 64 34
3 35 66 34
3 67 66 35
3 67 68 69
3 35 68 67
3 35 61 68
3 35 32 61
3 61 62 68
3 65 64 70
3 64 66 71
3 70 64 71
3 66 67 72
3 71 66 72
3 67 69 72
3 38 74 73
3 37 38 73
3 73 75 37
3 37 75 40
3 75 76 40
3 40 76 42
3 42 76 77
3 43 42 77
3 46 79 78
3 45 46 78
3 78 38 45
3 74 38 78
3 77 48 43
3 80 48 77
3 48 80 81
3 49 48 81
3 79 46 82
3 82 46 50
3 81 83 49
3 83 52 49
3 86 85 84
3 85 53 84
3 85 82 53
3 82 50 53
3 83 87 52
3 87 55 52
3 89 86 84
3 88 89 84
3 84 56 88
3 53 56 84
3 87 90 55
3 90 58 55
3 89 88 91
3 88 92 91
3 88 56 92
3 56 60 92
3 90 93 58
3 93 62 58
3 63 94 95
3 63 95 60
3 60 95 92
3 63 65 94
3 69 96 97
3 68 96 69
3 96 68 62
3 93 96 62
3 95 94 98
3 94 65 70
3 94 70 98
3 98 70 99
3 101 71 100
3 101 99 71
3 99 70 71
3 100 102 103
3 100 71 102
3 71 72 102
3 102 72 69
3 97 102 69
3 101 100 104
3 100 103 104
3 74 106 105
3 73 74 105
3 105 107 73
3 73 107 75
3 107 108 75
3 75 108 76
3 76 108 109
3 77 76 109
3 79 111 110
3 78 79 110
3 110 74 78
3 106 74 110
3 109 80 77
3 112 80 109
3 80 112 113
3 81 80 113
3 111 79 114
3 114 79 82
3 113 115 81
3 115 83 81
3 85 86 116
3 116 82 85
3 116 117 82
3 117 114 82
3 115 118 83
3 118 87 83
3 119 116 86
3 89 119 86
3 117 119 120
3 116 119 117
3 118 121 87
3 121 90 87
3 119 89 91
3 91 120 119
3 91 92 120
3 92 122 120
3 121 123 90
3 123 93 90
3 124 125 122
3 124 122 95
3 95 122 92
3 125 124 126
3 97 127 128
3 96 127 97
3 127 96 93
3 123 127 93
3 124 95 98
3 126 124 98
3 126 98 129
3 129 98 99
3 130 99 101
3 130 131 99
3 131 129 99
3 103 131 130
3 103 102 131
3 102 132 131
3 132 102 97
3 128 132 97
3 130 101 104
3 130 104 103
3 105 106 133
3 107 105 133
3 134 107 133
3 108 107 134
3 135 108 134
3 108 135 109
3 110 111 136
3 136 138 137
3 110 136 137
3 110 137 133
3 110 133 106
3 133 139 134
3 137 139 133
3 134 140 135
3 139 140 134
3 142 141 112
3 140 142 112
3 140 112 109
3 140 109 135
3 112 141 113
3 143 136 111
3 143 111 144
3 144 111 114
3 136 143 138
3 146 141 142
3 145 141 146
3 141 145 115
3 113 141 115
3 144 114 147
3 147 114 117
3 146 148 145
3 145 148 149
3 145 149 115
3 115 149 118
3 147 117 150
3 150 117 120
3 149 151 118
3 151 121 118
3 152 153 150
3 152 150 122
3 122 150 120
3 153 152 154
3 157 155 156
3 156 155 123
3 156 123 151
3 151 123 121
3 152 122 125
3 125 126 158
3 152 125 158
3 152 158 159
3 152 159 154
3 159 158 160
3 163 161 162
3 155 128 127
3 157 128 155
3 157 161 128
3 157 162 161
3 155 127 123
3 158 126 129
3 160 158 129
3 160 129 164
3 164 129 131
3 161 163 164
3 161 164 132
3 132 164 131
3 161 132 128
3 137 138 165
3 139 137 165
3 166 139 165
3 140 139 166
3 167 140 166
3 140 167 142
3 143 144 168
3 138 143 168
3 138 168 165
3 165 168 169
3 165 169 166
3 166 169 170
3 166 170 167
3 167 170 171
3 167 171 146
3 142 167 146
3 172 168 144
3 147 172 144
3 168 172 169
3 169 172 173
3 174 173 175
3 174 170 173
3 170 169 173
3 177 170 174
3 177 176 170
3 176 171 170
3 148 146 171
3 148 171 178
3 178 171 176
3 148 178 149
3 179 172 147
3 150 179 147
3 172 179 173
3 173 179 180
3 175 180 181
3 173 180 175
3 183 176 177
3 182 176 183
3 176 182 178
3 178 182 184
3 178 184 151
3 149 178 151
3 179 150 153
3 153 154 185
3 153 185 179
3 179 185 180
3 181 186 187
3 181 180 186
3 180 185 186
3 187 182 183
3 187 186 182
3 186 188 182
3 157 156 184
3 157 184 188
3 188 184 182
3 184 156 151
3 185 154 159
3 159 160 189
3 159 189 185
3 185 189 186
3 163 162 188
3 163 188 189
3 189 188 186
3 188 162 157
3 189 160 164
3 189 164 163
3 174 175 190
3 174 190 177
3 191 190 175
3 181 191 175
3 190 191 183
3 177 190 183
3 191 181 187
3 191 187 183
