ply
format ascii 1.0
element vertex 418
property float x
property float y
property float z
property uchar red
property uchar green
property uchar blue
element face 820
property list uchar int vertex_indices
end_header
-9.88803958892822266 -9 -9 82 42 42
-9 -9.88803958892822266 -9 80 27 27
-9 -9 -9.88803958892822266 108 75 75
-9.79223728179931641 -9 -8 52 17 17
-9 -9.79223728179931641 -8 51 10 10
-9.00117683410644531 -9 -7 27 6 6
-9 -9.00117683410644531 -7 26 3 3
-9 -9 -6.99965476989746094 18 4 4
-9.79207515716552734 -9 7 158 90 90
-9 -9.79207515716552734 7 156 72 72
-9 -9 6.00121164321899414 156 116 116
-9.88801860809326172 -9 8 149 55 55
-9 -9.88801860809326172 8 147 43 43
-9 -9 8.88801860809326172 143 66 66
-9.87987422943115234 -8 -9 78 51 51
-9 -8 -9.87987422943115234 104 89 89
-9.75991535186767578 -8 -8 47 22 22
-9 -8.99827480316162109 -7 18 4 4
-9 -8 -7.17718648910522461 38 17 17
-9.75950145721435547 -8 7 156 119 119
-9 -8 6.17969989776611328 154 143 143
-9.87981414794921875 -8 8 146 80 80
-9 -8 8.87981414794921875 140 90 90
-9.87089824676513672 -7 -9 75 59 59
-9 -7 -9.87089824676513672 102 102 102
-9.71819496154785156 -7 -8 44 26 26
-9 -7 -7.34296751022338867 35 20 20
-9.71711349487304688 -7 7 154 148 148
-9 -7 6.34729433059692383 151 133 133
-9.87075328826904297 -7 8 143 105 105
-9 -7 8.87075328826904297 137 115 115
-9.86106681823730469 -6 -9 73 69 69
-9 -6 -9.86106681823730469 100 86 86
-9.66286087036132812 -6 -8 42 32 32
-9 -6 -7.49689054489135742 33 25 25
-9.66004657745361328 -6 7 152 128 128
-9 -6 6.50416660308837891 149 105 105
-9.86074924468994141 -6 8 141 131 131
-9 -6 8.86074924468994141 135 131 131
-9.85037899017333984 -5 -9 73 66 66
-9 -5 -9.85037899017333984 99 71 71
-9.58709907531738281 -5 -8 42 39 39
-9 -5 -7.63864612579345703 34 30 30
-9.57966423034667969 -5 7 150 100 100
-9 -5 6.65048694610595703 148 80 80
-9.84971523284912109 -5 8 140 124 124
-9 -5 8.84971523284912109 134 105 105
-9.83890628814697266 -4 -9 74 56 56
-9 -4 -9.83890628814697266 100 59 59
-9.47896862030029297 -4 -8 44 39 39
-9 -4 -7.76807165145874023 36 33 33
-9.45903968811035156 -4 7 149 76 76
-9 -4 6.78642940521240234 147 59 59
-9.83756637573242188 -4 8 139 99 99
-9 -4 8.83756637573242188 132 82 82
-9.82678508758544922 -3 -9 77 46 46
-9 -3 -9.82678508758544922 101 47 47
-9.31275749206542969 -3 -8 46 32 32
-9 -3 -7.88617324829101562 39 28 28
-9.25994300842285156 -3 7 148 56 56
-9 -3 6.91215372085571289 146 41 41
-9.82423591613769531 -3 8 138 78 78
-9 -3 8.82423591613769531 132 62 62
-9.81396675109863281 -2 -9 80 34 34
-9 -2 -9.81396675109863281 104 35 35
-9.0166778564453125 -2 -8 49 25 25
-9 -2 -7.99579381942749023 42 22 22
-9 -2.24135255813598633 7 142 47 47
-9.80967998504638672 -2 8 138 60 60
-9 -2 7.02559375762939453 142 32 32
-9 -2 8.80967998504638672 131 46 46
-9.79992961883544922 -1 -9 84 23 23
-9 -1 -9.79992961883544922 108 24 24
-9 -1.95951628684997559 -8 42 22 22
-9 -1 -8.09135913848876953 77 23 23
-9.79390525817871094 -1 8 138 45 45
-9 -1 7.12278604507446289 142 20 20
-9 -1 8.79390525817871094 132 32 32
-9.78413867950439453 0 -9 87 12 12
-9 0 -9.78413867950439453 111 13 13
-9 0 -8.18024635314941406 80 13 13
-9.77699089050292969 0 8 139 32 32
-9 0 7.21067142486572266 143 11 11
-9 0 8.77699089050292969 133 22 22
-9.7664642333984375 1 -9 90 5 5
-9 1 -9.7664642333984375 114 5 5
-9 1 -8.26275348663330078 83 6 6
-9.75910282135009766 1 8 141 22 22
-9 1 7.28934907913208008 144 5 5
-9 1 8.75910282135009766 134 13 13
-9.74697017669677734 2 -9 93 0 15
-9 2 -9.74697017669677734 116 1 1
-9 2 -8.33887100219726562 86 1 1
-9.74048233032226562 2 8 143 13 13
-9 2 7.35909843444824219 146 1 1
-9 2 8.74048233032226562 136 7 7
-9.72590160369873047 3 -9 96 0 59
-9 3 -9.72590160369873047 117 0 0
-9 3 -8.40831279754638672 89 0 0
-9.72135639190673828 3 8 145 7 7
-9 3 7.42055845260620117 148 0 0
-9 3 8.72135639190673828 138 2 2
-9.70383834838867188 4 -9 99 2 82
-9 4 -9.70383834838867188 118 2 2
-9 4 -8.47031116485595703 91 1 1
-9.7018280029296875 4 8 148 2 2
-9 4 7.47478342056274414 150 1 1
-9 4 8.7018280029296875 141 0 0
-9.68178844451904297 5 -9 101 8 81
-9 5 -9.68178844451904297 119 7 7
-9 5 -8.52373981475830078 93 5 5
-9.68197727203369141 5 8 150 0 0
-9 5 7.52277660369873047 153 4 4
-9 5 8.68197727203369141 144 0 0
-9.66106414794921875 6 -9 102 15 60
-9 6 -9.66106414794921875 119 13 13
-9 6 -8.56764030456542969 93 11 11
-9.66234683990478516 6 8 153 0 0
-9 6 7.56454992294311523 156 11 11
-9 6 8.66234683990478516 147 2 2
-9.64297103881835938 7 -9 103 24 25
-9 7 -9.64297103881835938 120 22 22
-9 7 -8.6017303466796875 94 18 18
-9.64426517486572266 7 8 155 3 3
-9 7 7.59893608093261719 158 21 21
-9 7 8.64426517486572266 150 7 7
-9.62858963012695312 8 -9 104 34 34
-9 8 -9.62858963012695312 121 34 34
-9 8 -8.62635421752929688 94 25 25
-9.62941551208496094 8 8 158 10 10
-9 8 7.624664306640625 161 35 35
-9 8 8.62941551208496094 153 15 15
-9 8.62858963012695312 -9 94 25 25
-9 8.62941551208496094 8 153 15 15
-8 -9.786956787109375 -9 74 26 26
-8 -9 -9.786956787109375 102 71 71
-8.1560516357421875 -9 -8 44 14 14
-8 -9 -8.16028499603271484 68 33 33
-8.99975204467773438 -9 -7 18 4 4
-8.15694904327392578 -9 7 153 99 99
-8 -9.78685665130615234 8 142 51 51
-8 -9 7.1611485481262207 148 98 98
-8 -9 8.78685665130615234 138 73 73
-8 -8 -9.75271701812744141 98 84 84
-8.30591201782226562 -8 -8 38 17 17
-8 -8 -8.31426811218261719 63 40 40
-8.30754756927490234 -8 7 150 126 126
-8 -8 7.31577825546264648 145 123 123
-8 -8 8.75242328643798828 135 96 96
-8 -7 -9.70800971984863281 95 94 94
-8.44591045379638672 -7 -8 35 20 20
-8 -7 -8.45824241638183594 59 47 47
-8.44899177551269531 -7 7 148 143 143
-8 -7 7.46101903915405273 142 137 137
-8 -7 8.70717048645019531 132 119 119
-8 -6 -9.64773464202880859 93 78 78
-8.57586479187011719 -6 -8 33 25 25
-8 -6 -8.59213447570800781 57 54 54
-8.58140945434570312 -6 7 146 114 114
-8 -6 7.59700632095336914 140 110 110
-8 -6 8.64544010162353516 130 118 118
-8 -5 -9.563232421875 92 64 64
-8.69532299041748047 -5 -8 34 30 30
-8 -5 -8.71561622619628906 57 51 51
-8.70493221282958984 -5 7 144 89 89
-8 -5 7.72388029098510742 139 85 85
-8 -5 8.55687904357910156 128 93 93
-8 -4 -9.43914413452148438 92 52 52
-8.80390262603759766 -4 -8 36 33 33
-8 -4 -8.82797336578369141 58 44 44
-8.81970024108886719 -4 7 143 66 66
-8 -4 7.84178972244262695 137 64 64
-8 -4 8.42031192779541016 127 72 72
-8 -3 -9.24693489074707031 94 41 41
-8.90296363830566406 -3 -8 39 28 28
-8 -3 -8.92813301086425781 61 37 37
-8.92584228515625 -3 7 142 47 47
-8 -3 7.95087862014770508 137 46 46
-8 -3 8.18469715118408203 126 54 54
-8.01610469818115234 -2 -9 73 33 33
-8 -2.17925667762756348 -9 61 37 37
-8.99637508392333984 -2 -8 42 22 22
-8.0529327392578125 -2 8 131 46 46
-8 -2.51210355758666992 8 126 54 54
-8.09860134124755859 -1 -9 77 23 23
-8.14754867553710938 -1 8 132 32 32
-8.18079948425292969 0 -9 80 13 13
-8.23314952850341797 0 8 133 22 22
-8.26262950897216797 1 -9 83 6 6
-8.30981636047363281 1 8 134 13 13
-8.34114551544189453 2 -9 86 1 1
-8.37777328491210938 2 8 136 7 7
-8.41384696960449219 3 -9 89 0 0
-8.43756771087646484 3 8 138 2 2
-8.47856903076171875 4 -9 91 1 1
-8.49016380310058594 4 8 141 0 0
-8.53354835510253906 5 -9 93 5 5
-8.5365753173828125 5 8 144 0 0
-8.57792377471923828 6 -9 93 11 11
-8.57693290710449219 6 8 147 2 2
-8.61190128326416016 7 -9 94 18 18
-8.61018466949462891 7 8 150 7 7
-8.63625526428222656 8 -9 94 25 25
-8.635101318359375 8 8 153 15 15
-7.06545400619506836 -9 -9 68 33 33
-7.06574535369873047 -9 8 138 73 73
-7.23712301254272461 -8 -9 63 40 40
-7.23798513412475586 -8 8 135 96 96
-7.39768648147583008 -7 -9 59 47 47
-7.39976882934570312 -7 8 132 119 119
-7.5470728874206543 -6 -9 57 54 54
-7.551239013671875 -6 8 130 118 118
-7.68488979339599609 -5 -9 57 51 51
-7.69254589080810547 -5 8 128 93 93
-7.81013774871826172 -4 -9 58 44 44
-7.8238520622253418 -4 8 127 72 72
-7.92104530334472656 -3 -9 61 37 37
-7.94531536102294922 -3 8 126 54 54
6.2421112060546875 -9 -9 45 22 22
7 -9.74650478363037109 -9 56 20 20
7 -9 -9.74650478363037109 86 63 63
7 -9 -8.33751010894775391 50 25 25
6.24256134033203125 -9 8 120 46 46
7 -9.74641704559326172 8 128 31 31
7 -9 7.33823871612548828 135 77 77
7 -9 8.74641704559326172 124 50 50
6.41604232788085938 -8 -9 40 26 26
7 -8 -9.69595050811767578 82 73 73
7 -8 -8.48958492279052734 45 30 30
6.41766929626464844 -8 8 117 66 66
7 -8 7.49122714996337891 132 100 100
7 -8 8.69547939300537109 121 70 70
6.57843494415283203 -7 -9 37 29 29
7 -7 -9.62481784820556641 79 75 75
7 -7 -8.63161373138427734 41 34 34
6.58204269409179688 -7 8 114 85 85
7 -7 7.63485574722290039 129 123 123
7 -7 8.62311363220214844 118 91 91
6.72912216186523438 -6 -9 35 33 33
7 -6 -9.51860904693603516 77 62 62
7 -6 -8.76343441009521484 40 38 38
6.73585319519042969 -6 8 112 105 105
7 -6 7.7692570686340332 127 109 109
7 -6 8.51296424865722656 115 111 111
6.86781597137451172 -5 -9 35 32 32
7 -5 -9.34580898284912109 76 52 52
7 -5 -8.88472557067871094 39 35 35
6.87926387786865234 -5 8 110 97 97
7 -5 7.89455318450927734 125 85 85
7 -5 8.32657241821289062 114 97 97
6.9944920539855957 -4 -9 36 27 27
7 -4 -9.02164459228515625 77 42 42
7 -4 -8.99521160125732422 41 29 29
7 -4.09381723403930664 8 114 97 97
7 -3.95265054702758789 -9 41 29 29
8 -9.87709808349609375 -9 61 24 24
8 -9 -9.87709808349609375 90 70 70
7.336090087890625 -9 -8 17 6 6
8 -9.74770545959472656 -8 30 7 7
8 -9 -7.23204374313354492 23 8 8
7.33692455291748047 -9 7 135 77 77
8 -9.747528076171875 7 142 58 58
8 -9 6.23312139511108398 143 100 100
8 -9.87708568572998047 8 132 34 34
8 -9 8.87708568572998047 128 53 53
8 -8 -9.86704158782958984 86 81 81
7.48756551742553711 -8 -8 12 6 6
8 -8 -7.40741062164306641 17 9 9
7.4893341064453125 -8 7 132 100 100
8 -8 6.40943098068237305 140 125 125
8 -8 8.86698532104492188 125 74 74
8 -7 -9.85579681396484375 83 76 76
7.62912893295288086 -7 -8 8 5 5
8 -7 -7.57132339477539062 14 9 9
7.6324462890625 -7 7 129 123 123
8 -7 6.57497072219848633 137 125 125
8 -7 8.85563850402832031 122 96 96
8 -6 -9.84325218200683594 81 63 63
7.76075983047485352 -6 -8 7 5 5
8 -6 -7.72373151779174805 12 10 10
7.76640987396240234 -6 7 127 109 109
8 -6 6.72991037368774414 135 99 99
8 -6 8.84287166595458984 120 117 117
8 -5 -9.82932662963867188 81 52 52
7.88249874114990234 -5 -8 7 7 7
8 -5 -7.86455869674682617 12 12 12
7.89137077331542969 -5 7 125 85 85
8 -5 6.87441396713256836 134 75 75
8 -5 8.8284912109375 118 99 99
8 -4 -9.81398200988769531 81 42 42
7.99487066268920898 -4 -8 8 7 7
8 -4 -7.99410438537597656 14 11 11
8 -4.06471490859985352 7 130 85 85
7.01146888732910156 -4 8 112 77 77
8 -4 7.00795269012451172 128 64 64
8 -4 8.81229114532470703 117 78 78
7.10176467895507812 -3 -9 44 24 24
8 -3 -9.79711532592773438 83 33 33
8 -3.95110750198364258 -8 14 11 11
8 -3 -8.10505008697509766 49 26 26
7.12497138977050781 -3 8 112 60 60
8 -3 7.12217473983764648 128 46 46
8 -3 8.79406356811523438 116 60 60
7.2013707160949707 -2 -9 47 18 18
8 -2 -9.77829933166503906 86 24 24
8 -2 -8.20768928527832031 52 20 20
7.22895526885986328 -2 8 111 45 45
8 -2 7.22692060470581055 127 32 32
8 -2 8.77362251281738281 116 45 45
7.29594755172729492 -1 -9 51 12 12
8 -1 -9.75682640075683594 89 15 15
8 -1 -8.30297946929931641 56 13 13
7.32340383529663086 -1 8 112 33 33
8 -1 7.32218790054321289 127 21 21
8 -1 8.75084018707275391 116 32 32
7.38513851165771484 0 -9 54 6 6
8 0 -9.73218059539794922 93 7 7
8 0 -8.39101696014404297 59 6 6
7.40831422805786133 0 8 113 23 23
8 0 7.40795564651489258 128 12 12
8 0 8.72569751739501953 117 22 22
7.46783542633056641 1 -9 58 2 2
8 1 -9.70409870147705078 96 2 2
8 1 -8.47181606292724609 63 2 2
7.48389339447021484 1 8 114 15 15
8 1 7.48434019088745117 129 6 6
8 1 8.69829177856445312 118 14 14
7.54336977005004883 2 -9 61 0 0
8 2 -9.67241096496582031 98 0 0
8 2 -8.54545021057128906 66 0 0
7.55089092254638672 2 8 116 8 8
8 2 7.5518951416015625 131 2 2
8 2 8.66872406005859375 121 8 8
7.61135768890380859 3 -9 65 0 0
8 3 -9.63712024688720703 100 1 1
8 3 -8.61197757720947266 70 0 0
7.61083269119262695 3 8 119 3 3
8 3 7.61190271377563477 133 0 0
8 3 8.63681125640869141 123 3 3
7.67143630981445312 4 -9 68 2 2
8 4 -9.59862136840820312 102 5 5
8 4 -8.67116928100585938 72 3 3
7.6654820442199707 4 8 122 0 0
8 4 7.66608810424804688 136 0 0
8 4 8.60193347930908203 126 0 0
7.72304773330688477 5 -9 70 7 7
8 5 -9.55805778503417969 103 13 13
8 5 -8.72237014770507812 75 8 8
7.71538448333740234 5 8 125 0 0
8 5 7.71532583236694336 139 3 3
8 5 8.56373786926269531 129 0 0
7.76558256149291992 6 -9 72 14 14
8 6 -9.51758861541748047 103 21 21
8 6 -8.76478862762451172 76 15 15
7.75914478302001953 6 8 128 1 1
8 6 7.75861406326293945 142 9 9
8 6 8.52352714538574219 132 2 2
7.79877853393554688 7 -9 73 21 21
8 7 -9.48017978668212891 104 31 31
8 7 -8.79800319671630859 77 23 23
7.79466152191162109 7 8 131 6 6
8 7 7.79394626617431641 144 19 19
8 7 8.48472118377685547 135 7 7
7.82284307479858398 8 -9 74 29 29
8 8 -9.44902324676513672 105 44 44
8 8 -8.82211875915527344 78 32 32
7.82071113586425781 8 8 134 14 14
8 8 7.81998109817504883 147 31 31
8 8 8.45171928405761719 138 15 15
8 8.44902324676513672 -9 78 32 32
8 8.45171928405761719 8 138 15 15
8.87709808349609375 -9 -9 55 30 30
8.74770545959472656 -9 -8 23 8 8
8.747528076171875 -9 7 139 82 82
8.87708568572998047 -9 8 128 53 53
8.86704158782958984 -8 -9 50 35 35
8.69765758514404297 -8 -8 17 9 9
8.69708061218261719 -8 7 136 106 106
8.86698532104492188 -8 8 125 74 74
8.85579681396484375 -7 -9 46 39 39
8.62731361389160156 -7 -8 14 9 9
8.62554740905761719 -7 7 133 130 130
8.85563850402832031 -7 8 122 96 96
8.84325218200683594 -6 -9 45 45 45
8.52229022979736328 -6 -8 12 10 10
8.51695346832275391 -6 7 131 109 109
8.84287166595458984 -6 8 120 117 117
8.82932662963867188 -5 -9 45 38 38
8.3507232666015625 -5 -8 12 12 12
8.33393669128417969 -5 7 130 85 85
8.8284912109375 -5 8 118 99 99
8.81398200988769531 -4 -9 46 32 32
8.02315807342529297 -4 -8 14 11 11
8.81229114532470703 -4 8 117 78 78
8.79711532592773438 -3 -9 49 26 26
8.79406356811523438 -3 8 116 60 60
8.77829933166503906 -2 -9 52 20 20
8.77362251281738281 -2 8 116 45 45
8.75682640075683594 -1 -9 56 13 13
8.75084018707275391 -1 8 116 32 32
8.73218059539794922 0 -9 59 6 6
8.72569751739501953 0 8 117 22 22
8.70409870147705078 1 -9 63 2 2
8.69829177856445312 1 8 118 14 14
8.67241096496582031 2 -9 66 0 0
8.66872406005859375 2 8 121 8 8
8.63712024688720703 3 -9 70 0 0
8.63681125640869141 3 8 123 3 3
8.59862136840820312 4 -9 72 3 3
8.60193347930908203 4 8 126 0 0
8.55805778503417969 5 -9 75 8 8
8.56373786926269531 5 8 129 0 0
8.51758861541748047 6 -9 76 15 15
8.52352714538574219 6 8 132 2 2
8.48017978668212891 7 -9 77 23 23
8.48472118377685547 7 8 135 7 7
8.44902324676513672 8 -9 78 32 32
8.45171928405761719 8 8 138 15 15
3 2 1 0
3 1 4 3
3 0 1 3
3 4 6 5
3 3 4 5
3 6 7 5
3 10 9 8
3 9 12 11
3 8 9 11
3 12 13 11
3 15 2 0
3 14 15 0
3 0 3 14
3 3 16 14
3 17 18 16
3 17 16 5
3 5 16 3
3 5 7 17
3 20 10 8
3 19 20 8
3 8 11 19
3 11 21 19
3 13 22 21
3 11 13 21
3 24 15 14
3 23 24 14
3 14 16 23
3 16 25 23
3 18 26 25
3 16 18 25
3 28 20 19
3 27 28 19
3 19 21 27
3 21 29 27
3 22 30 29
3 21 22 29
3 32 24 23
3 31 32 23
3 23 25 31
3 25 33 31
3 26 34 33
3 25 26 33
3 36 28 27
3 35 36 27
3 27 29 35
3 29 37 35
3 30 38 37
3 29 30 37
3 40 32 31
3 39 40 31
3 31 33 39
3 33 41 39
3 34 42 41
3 33 34 41
3 44 36 35
3 43 44 35
3 35 37 43
3 37 45 43
3 38 46 45
3 37 38 45
3 48 40 39
3 47 48 39
3 39 41 47
3 41 49 47
3 42 50 49
3 41 42 49
3 52 44 43
3 51 52 43
3 43 45 51
3 45 53 51
3 46 54 53
3 45 46 53
3 56 48 47
3 55 56 47
3 47 49 55
3 49 57 55
3 50 58 57
3 49 50 57
3 60 52 51
3 59 60 51
3 51 53 59
3 53 61 59
3 54 62 61
3 53 54 61
3 64 56 55
3 63 64 55
3 55 57 63
3 57 65 63
3 58 66 65
3 57 58 65
3 60 59 67
3 69 67 59
3 69 59 68
3 68 59 61
3 62 70 68
3 61 62 68
3 72 64 63
3 71 72 63
3 73 74 71
3 73 71 65
3 65 71 63
3 65 66 73
3 76 69 68
3 75 76 68
3 70 77 75
3 68 70 75
3 79 72 71
3 78 79 71
3 74 80 78
3 71 74 78
3 82 76 75
3 81 82 75
3 77 83 81
3 75 77 81
3 85 79 78
3 84 85 78
3 80 86 84
3 78 80 84
3 88 82 81
3 87 88 81
3 83 89 87
3 81 83 87
3 91 85 84
3 90 91 84
3 86 92 90
3 84 86 90
3 94 88 87
3 93 94 87
3 89 95 93
3 87 89 93
3 97 91 90
3 96 97 90
3 92 98 96
3 90 92 96
3 100 94 93
3 99 100 93
3 95 101 99
3 93 95 99
3 103 97 96
3 102 103 96
3 98 104 102
3 96 98 102
3 106 100 99
3 105 106 99
3 101 107 105
3 99 101 105
3 109 103 102
3 108 109 102
3 104 110 108
3 102 104 108
3 112 106 105
3 111 112 105
3 107 113 111
3 105 107 111
3 115 109 108
3 114 115 108
3 110 116 114
3 108 110 114
3 118 112 111
3 117 118 111
3 113 119 117
3 111 113 117
3 121 115 114
3 120 121 114
3 116 122 120
3 114 116 120
3 124 118 117
3 123 124 117
3 119 125 123
3 117 119 123
3 127 121 120
3 126 127 120
3 122 128 126
3 120 122 126
3 130 124 123
3 129 130 123
3 125 131 129
3 123 125 129
3 127 126 132
3 126 128 132
3 130 129 133
3 129 131 133
3 2 135 134
3 1 2 134
3 137 136 4
3 137 4 134
3 134 4 1
3 6 4 136
3 138 6 136
3 6 138 7
3 9 10 139
3 139 141 140
3 139 140 9
3 9 140 12
3 12 140 142
3 13 12 142
3 135 2 143
3 143 2 15
3 145 136 137
3 144 136 145
3 18 17 138
3 18 138 144
3 144 138 136
3 138 17 7
3 146 139 10
3 20 146 10
3 141 146 147
3 139 146 141
3 142 148 13
3 148 22 13
3 143 15 149
3 149 15 24
3 151 144 145
3 150 144 151
3 144 150 26
3 18 144 26
3 152 146 20
3 28 152 20
3 147 152 153
3 146 152 147
3 148 154 22
3 154 30 22
3 149 24 155
3 155 24 32
3 157 150 151
3 156 150 157
3 150 156 34
3 26 150 34
3 158 152 28
3 36 158 28
3 153 158 159
3 152 158 153
3 154 160 30
3 160 38 30
3 155 32 161
3 161 32 40
3 163 156 157
3 162 156 163
3 156 162 42
3 34 156 42
3 164 158 36
3 44 164 36
3 159 164 165
3 158 164 159
3 160 166 38
3 166 46 38
3 161 40 167
3 167 40 48
3 169 162 163
3 168 162 169
3 162 168 50
3 42 162 50
3 170 164 44
3 52 170 44
3 165 170 171
3 164 170 165
3 166 172 46
3 172 54 46
3 167 48 173
3 173 48 56
3 175 168 169
3 174 168 175
3 168 174 58
3 50 168 58
3 176 170 52
3 60 176 52
3 171 176 177
3 170 176 171
3 172 178 54
3 178 62 54
3 179 180 173
3 179 173 64
3 64 173 56
3 180 174 175
3 180 179 174
3 179 181 174
3 174 181 66
3 58 174 66
3 176 60 67
3 67 69 182
3 176 67 182
3 176 182 183
3 176 183 177
3 183 182 70
3 183 70 178
3 178 70 62
3 184 179 64
3 72 184 64
3 74 73 181
3 74 181 184
3 184 181 179
3 181 73 66
3 185 182 69
3 76 185 69
3 182 185 77
3 70 182 77
3 186 184 72
3 79 186 72
3 184 186 80
3 74 184 80
3 187 185 76
3 82 187 76
3 185 187 83
3 77 185 83
3 188 186 79
3 85 188 79
3 186 188 86
3 80 186 86
3 189 187 82
3 88 189 82
3 187 189 89
3 83 187 89
3 190 188 85
3 91 190 85
3 188 190 92
3 86 188 92
3 191 189 88
3 94 191 88
3 189 191 95
3 89 189 95
3 192 190 91
3 97 192 91
3 190 192 98
3 92 190 98
3 193 191 94
3 100 193 94
3 191 193 101
3 95 191 101
3 194 192 97
3 103 194 97
3 192 194 104
3 98 192 104
3 195 193 100
3 106 195 100
3 193 195 107
3 101 193 107
3 196 194 103
3 109 196 103
3 194 196 110
3 104 194 110
3 197 195 106
3 112 197 106
3 195 197 113
3 107 195 113
3 198 196 109
3 115 198 109
3 196 198 116
3 110 196 116
3 199 197 112
3 118 199 112
3 197 199 119
3 113 197 119
3 200 198 115
3 121 200 115
3 198 200 122
3 116 198 122
3 201 199 118
3 124 201 118
3 199 201 125
3 119 199 125
3 202 200 121
3 127 202 121
3 200 202 128
3 122 200 128
3 203 201 124
3 130 203 124
3 201 203 131
3 125 201 131
3 202 127 132
3 202 132 128
3 203 130 133
3 203 133 131
3 134 135 204
3 134 204 137
3 140 141 205
3 140 205 142
3 206 204 135
3 143 206 135
3 204 206 145
3 137 204 145
3 207 205 141
3 147 207 141
3 205 207 148
3 142 205 148
3 208 206 143
3 149 208 143
3 206 208 151
3 145 206 151
3 209 207 147
3 153 209 147
3 207 209 154
3 148 207 154
3 210 208 149
3 155 210 149
3 208 210 157
3 151 208 157
3 211 209 153
3 159 211 153
3 209 211 160
3 154 209 160
3 212 210 155
3 161 212 155
3 210 212 163
3 157 210 163
3 213 211 159
3 165 213 159
3 211 213 166
3 160 211 166
3 214 212 161
3 167 214 161
3 212 214 169
3 163 212 169
3 215 213 165
3 171 215 165
3 213 215 172
3 166 213 172
3 216 214 167
3 173 216 167
3 214 216 175
3 169 214 175
3 217 215 171
3 177 217 171
3 215 217 178
3 172 215 178
3 216 173 180
3 216 180 175
3 217 177 183
3 217 183 178
3 220 219 218
3 219 221 218
3 224 223 222
3 223 225 222
3 227 220 218
3 226 227 218
3 221 228 226
3 218 221 226
3 230 224 222
3 229 230 222
3 225 231 229
3 222 225 229
3 233 227 226
3 232 233 226
3 228 234 232
3 226 228 232
3 236 230 229
3 235 236 229
3 231 237 235
3 229 231 235
3 239 233 232
3 238 239 232
3 234 240 238
3 232 234 238
3 242 236 235
3 241 242 235
3 237 243 241
3 235 237 241
3 245 239 238
3 244 245 238
3 240 246 244
3 238 240 244
3 248 242 241
3 247 248 241
3 243 249 247
3 241 243 247
3 251 245 244
3 250 251 244
3 246 252 250
3 244 246 250
3 248 247 253
3 247 249 253
3 251 250 254
3 250 252 254
3 220 256 255
3 219 220 255
3 257 221 219
3 257 219 258
3 258 219 255
3 258 259 257
3 262 261 260
3 224 260 261
3 224 261 223
3 223 261 263
3 223 263 264
3 225 223 264
3 256 220 265
3 265 220 227
3 266 221 257
3 228 221 266
3 259 267 266
3 257 259 266
3 269 262 260
3 268 269 260
3 260 230 268
3 224 230 260
3 264 270 225
3 270 231 225
3 265 227 271
3 271 227 233
3 272 228 266
3 234 228 272
3 267 273 272
3 266 267 272
3 275 269 268
3 274 275 268
3 268 236 274
3 230 236 268
3 270 276 231
3 276 237 231
3 271 233 277
3 277 233 239
3 278 234 272
3 240 234 278
3 273 279 278
3 272 273 278
3 281 275 274
3 280 281 274
3 274 242 280
3 236 242 274
3 276 282 237
3 282 243 237
3 277 239 283
3 283 239 245
3 284 240 278
3 246 240 284
3 279 285 284
3 278 279 284
3 287 281 280
3 286 287 280
3 280 248 286
3 242 248 280
3 282 288 243
3 288 249 243
3 283 245 289
3 289 245 251
3 290 246 284
3 252 246 290
3 285 291 290
3 284 285 290
3 287 286 292
3 294 253 293
3 292 253 294
3 292 248 253
3 292 286 248
3 293 253 249
3 293 249 295
3 295 249 288
3 254 296 297
3 254 297 251
3 251 297 289
3 296 298 299
3 254 298 296
3 254 290 298
3 254 252 290
3 290 291 298
3 301 294 293
3 300 301 293
3 295 302 300
3 293 295 300
3 304 297 296
3 303 304 296
3 299 305 303
3 296 299 303
3 307 301 300
3 306 307 300
3 302 308 306
3 300 302 306
3 310 304 303
3 309 310 303
3 305 311 309
3 303 305 309
3 313 307 306
3 312 313 306
3 308 314 312
3 306 308 312
3 316 310 309
3 315 316 309
3 311 317 315
3 309 311 315
3 319 313 312
3 318 319 312
3 314 320 318
3 312 314 318
3 322 316 315
3 321 322 315
3 317 323 321
3 315 317 321
3 325 319 318
3 324 325 318
3 320 326 324
3 318 320 324
3 328 322 321
3 327 328 321
3 323 329 327
3 321 323 327
3 331 325 324
3 330 331 324
3 326 332 330
3 324 326 330
3 334 328 327
3 333 334 327
3 329 335 333
3 327 329 333
3 337 331 330
3 336 337 330
3 332 338 336
3 330 332 336
3 340 334 333
3 339 340 333
3 335 341 339
3 333 335 339
3 343 337 336
3 342 343 336
3 338 344 342
3 336 338 342
3 346 340 339
3 345 346 339
3 341 347 345
3 339 341 345
3 349 343 342
3 348 349 342
3 344 350 348
3 342 344 348
3 352 346 345
3 351 352 345
3 347 353 351
3 345 347 351
3 355 349 348
3 354 355 348
3 350 356 354
3 348 350 354
3 358 352 351
3 357 358 351
3 353 359 357
3 351 353 357
3 361 355 354
3 360 361 354
3 356 362 360
3 354 356 360
3 364 358 357
3 363 364 357
3 359 365 363
3 357 359 363
3 367 361 360
3 366 367 360
3 362 368 366
3 360 362 366
3 364 363 369
3 363 365 369
3 367 366 370
3 366 368 370
3 255 256 371
3 258 255 371
3 372 258 371
3 258 372 259
3 261 262 373
3 263 261 373
3 374 263 373
3 263 374 264
3 375 371 256
3 265 375 256
3 371 375 372
3 372 375 376
3 372 376 267
3 259 372 267
3 377 373 262
3 269 377 262
3 373 377 374
3 374 377 378
3 374 378 270
3 264 374 270
3 379 375 265
3 271 379 265
3 375 379 376
3 376 379 380
3 376 380 273
3 267 376 273
3 381 377 269
3 275 381 269
3 377 381 378
3 378 381 382
3 378 382 276
3 270 378 276
3 383 379 271
3 277 383 271
3 379 383 380
3 380 383 384
3 380 384 279
3 273 380 279
3 385 381 275
3 281 385 275
3 381 385 382
3 382 385 386
3 382 386 282
3 276 382 282
3 387 383 277
3 283 387 277
3 383 387 384
3 384 387 388
3 384 388 285
3 279 384 285
3 389 385 281
3 287 389 281
3 385 389 386
3 386 389 390
3 386 390 288
3 282 386 288
3 391 387 283
3 289 391 283
3 387 391 388
3 388 391 392
3 388 392 291
3 285 388 291
3 389 287 292
3 292 294 393
3 292 393 389
3 389 393 390
3 390 393 295
3 288 390 295
3 394 391 289
3 297 394 289
3 299 298 392
3 299 392 394
3 394 392 391
3 392 298 291
3 395 393 294
3 301 395 294
3 393 395 302
3 295 393 302
3 396 394 297
3 304 396 297
3 394 396 305
3 299 394 305
3 397 395 301
3 307 397 301
3 395 397 308
3 302 395 308
3 398 396 304
3 310 398 304
3 396 398 311
3 305 396 311
3 399 397 307
3 313 399 307
3 397 399 314
3 308 397 314
3 400 398 310
3 316 400 310
3 398 400 317
3 311 398 317
3 401 399 313
3 319 401 313
3 399 401 320
3 314 399 320
3 402 400 316
3 322 402 316
3 400 402 323
3 317 400 323
3 403 401 319
3 325 403 319
3 401 403 326
3 320 401 326
3 404 402 322
3 328 404 322
3 402 404 329
3 323 402 329
3 405 403 325
3 331 405 325
3 403 405 332
3 326 403 332
3 406 404 328
3 334 406 328
3 404 406 335
3 329 404 335
3 407 405 331
3 337 407 331
3 405 407 338
3 332 405 338
3 408 406 334
3 340 408 334
3 406 408 341
3 335 406 341
3 409 407 337
3 343 409 337
3 407 409 344
3 338 407 344
3 410 408 340
3 346 410 340
3 408 410 347
3 341 408 347
3 411 409 343
3 349 411 343
3 409 411 350
3 344 409 350
3 412 410 346
3 352 412 346
3 410 412 353
3 347 410 353
3 413 411 349
3 355 413 349
3 411 413 356
3 350 411 356
3 414 412 352
3 358 414 352
3 412 414 359
3 353 412 359
3 415 413 355
3 361 415 355
3 413 415 362
3 356 413 362
3 416 414 358
3 364 416 358
3 414 416 365
3 359 414 365
3 417 415 361
3 367 417 361
3 415 417 368
3 362 415 368
3 416 364 369
3 416 369 365
3 417 367 370
3 417 370 368
