ply
format ascii 1.0
element vertex 452
property float x
property float y
property float z
property uchar red
property uchar green
property uchar blue
element face 900
property list uchar int vertex_indices
end_header
-4.00555706024169922 6 -2 71 135 96
-4 5.97977066040039062 -2 48 95 57
-4 6 -2.0113070011138916 63 131 90
-4.24987554550170898 6 -1 77 133 94
-4 5.08574199676513672 -1 51 92 55
-4.25632858276367188 6 0 84 133 96
-4 5.06236791610717773 0 55 92 58
-4.024871826171875 6 1 92 135 104
-4 5.90952539443969727 1 62 95 64
-4 6 1.05215597152709961 87 127 94
-4.30445146560668945 7 -2 91 163 128
-4 7 -2.62211036682128906 82 159 123
-4.55635738372802734 7 -1 98 161 126
-4.56317758560180664 7 0 107 161 129
-4.32468461990356445 7 1 117 163 136
-4 7 1.68452644348144531 112 156 127
-4.14388513565063477 8 -3 103 190 171
-4 7.55809879302978516 -3 82 159 123
-4 8 -3.19367861747741699 94 188 171
-4.63955974578857422 8 -2 111 187 163
-4.90339946746826172 8 -1 120 186 160
-4.91076135635375977 8 0 130 186 163
-4.66115665435791016 8 1 141 187 169
-4.17906379699707031 8 2 155 190 177
-4 7.45107889175415039 2 124 160 137
-4 8 2.24676394462585449 151 184 169
-4 8.73321056365966797 -3 100 184 159
-4 8.92013168334960938 -2 108 182 152
-4 8.94014167785644531 -1 116 180 150
-4 8.94055557250976562 0 126 180 154
-4 8.92240524291992188 1 137 182 161
-4 8.77339076995849609 2 151 184 169
-3.03973245620727539 2 -1 0 0 0
-3 1.82843160629272461 -1 14 31 15
-3 2 -1.12029099464416504 1 4 2
-3.04790043830871582 2 0 0 0 0
-3 1.7931743860244751 0 16 32 16
-3 2 0.152937367558479309 4 7 3
-3.30573010444641113 3 -1 14 29 15
-3 3 -1.92817258834838867 11 23 11
-3.31411290168762207 3 0 16 29 16
-3.00202655792236328 3 1 19 32 19
-3 2.99238896369934082 1 2 4 2
-3 3 1.00315141677856445 15 23 14
-3.27602958679199219 4 -2 30 63 34
-3 3.07877826690673828 -2 11 23 11
-3 4 -2.41763401031494141 26 60 32
-3.6128840446472168 4 -1 31 60 33
-3.62157917022705078 4 0 35 60 34
-3.30185246467590332 4 1 39 63 39
-3 4 1.47047030925750732 35 55 34
-3.61765646934509277 5 -2 48 95 57
-3 5 -2.93624114990234375 43 93 54
-3.96641111373901367 5 -1 51 92 55
-3.97555661201477051 5 0 55 92 58
-3.64460015296936035 5 1 62 95 64
-3.00446772575378418 5 2 71 100 74
-3 4.98669290542602539 2 42 60 41
-3 5 2.00456047058105469 66 93 67
-3.32770657539367676 6 -3 63 131 90
-3 5.11112022399902344 -3 43 93 54
-3 6 -3.3272099494934082 58 131 91
-3.37377738952636719 6 2 97 131 104
-3 6 2.38180398941040039 93 125 98
-3.74239730834960938 7 -3 82 159 123
-3 7 -3.74122166633605957 75 159 124
-3.79121708869934082 7 2 124 160 137
-3 7 2.80885076522827148 120 154 131
-3.19243407249450684 8 -4 94 188 171
-3 7.56158018112182617 -4 75 159 124
-3 8 -4.14259433746337891 87 189 177
-3.26223301887512207 8 3 165 188 179
-3 7.40416383743286133 3 134 159 143
-3 8 3.1981651782989502 162 184 174
-3 8.73164558410644531 -4 92 184 161
-3 8.93968009948730469 -3 98 180 150
-3 8.95879840850830078 -2 105 177 144
-3 8.96410369873046875 -1 114 176 142
-3 8.96423625946044922 0 123 176 147
-3 8.9593505859375 1 134 177 154
-3 8.94183254241943359 2 147 180 164
-3 8.78736400604248047 3 162 184 174
-2.01319384574890137 -9 -1 38 28 70
-2 -9.11144638061523438 -1 41 24 60
-2 -9 -1.0263676643371582 38 26 72
-2.02529716491699219 -9 0 39 30 70
-2 -9.19379997253417969 0 42 26 60
-2 -9 0.0532553829252719879 41 33 75
-2 -8.91886329650878906 -1 39 30 75
-2 -8.84438514709472656 0 41 33 75
-2.14393353462219238 -1 -1 29 68 40
-2 -1.73660647869110107 -1 36 85 55
-2 -1 -1.28773581981658936 28 70 40
-2.15627765655517578 -1 0 32 68 39
-2 -1.79979121685028076 0 40 85 54
-2 -1 0.32938539981842041 35 73 40
-2.39267802238464355 0 -1 23 52 27
-2 0 -1.78567337989807129 22 54 27
-2.40521097183227539 0 0 25 52 27
-2 0 0.855217993259429932 28 57 28
-2.19276642799377441 1 -2 12 29 14
-2 0.354548394680023193 -2 22 54 27
-2 1 -2.19228339195251465 11 28 14
-2.6980288028717041 1 -1 14 31 15
-2.7108311653137207 1 0 16 32 16
-2.23082613945007324 1 1 16 29 16
-2 0.227197244763374329 1 29 54 30
-2 1 1.23701024055480957 20 34 19
-2.54685688018798828 2 -2 1 4 2
-2 2 -2.54547977447509766 1 4 1
-2.58585381507873535 2 1 2 4 2
-2 2 1.60183441638946533 6 9 5
-2.96293520927429199 3 -2 11 23 11
-2 3 -2.96047306060791016 10 24 11
-2.02858448028564453 3 2 20 29 19
-2 2.92912983894348145 2 2 4 2
-2 3 2.01926183700561523 16 24 15
-2.4161980152130127 4 -3 26 60 32
-2 3.08422493934631348 -3 10 24 11
-2 4 -3.27399945259094238 25 63 34
-2.48421669006347656 4 2 42 60 41
-2 4 2.32593536376953125 39 55 38
-2.93607783317565918 5 -3 43 93 54
-2 5 -3.61505126953125 40 95 57
-2 5 2.67707920074462891 63 88 63
-2.00673151016235352 6 -4 58 131 91
-2 5.98798418045043945 -4 40 95 57
-2 6 -4.00329732894897461 55 135 98
-2.10747861862182617 6 3 105 131 110
-2 5.80852460861206055 3 74 95 74
-2 6 3.05365109443664551 102 127 106
-2.61881685256958008 7 -4 75 159 124
-2 7 -4.30179643630981445 70 163 133
-2.72481989860534668 7 3 134 159 143
-2 7 3.36046123504638672 132 156 139
-2 8 -4.63636970520019531 86 187 170
-2 8 3.70572662353515625 160 181 171
-2 8.91983604431152344 -4 91 181 155
-2 8.95875644683837891 -3 97 177 144
-2 8.96785068511962891 -2 104 174 138
-2 8.970794677734375 -1 112 173 137
-2 8.97087383270263672 0 121 173 143
-2 8.96815872192382812 1 132 174 150
-2 8.95970630645751953 2 145 177 160
-2 8.92541313171386719 3 160 181 171
-1.02124607563018799 -9 -2 38 26 72
-1 -9.09134960174560547 -2 41 22 59
-1 -9 -2.01054930686950684 37 23 69
-1 -9.82493972778320312 -1 42 25 62
-1 -9.828338623046875 0 44 28 62
-1.09592616558074951 -9 1 43 35 72
-1 -9.31197452545166016 1 43 29 59
-1 -9 1.04900205135345459 44 36 75
-1 -8.93498039245605469 -2 38 27 75
-1.69363009929656982 -8 -1 34 38 86
-1 -8 -1.6898728609085083 31 33 86
-1.71855068206787109 -8 0 38 42 86
-1 -8.70613956451416016 1 44 36 75
-1 -8 0.753469705581665039 39 45 89
-1.46692728996276855 -7 -1 37 58 94
-1 -7 -1.46438956260681152 34 53 94
-1.49175548553466797 -7 0 41 62 94
-1 -7 0.515619099140167236 43 65 97
-1.34486651420593262 -6 -1 39 78 99
-1 -6 -1.34298670291900635 36 74 99
-1.36966371536254883 -6 0 44 82 99
-1 -6 0.387599974870681763 45 85 101
-1.32626652717590332 -5 -1 40 96 101
-1 -5 -1.32448327541351318 37 92 100
-1.3510894775390625 -5 0 45 99 101
-1 -5 0.36814454197883606 46 102 103
-1.4109574556350708 -4 -1 40 99 88
-1 -4 -1.40870475769042969 37 98 90
-1.43586516380310059 -4 0 44 99 86
-1 -4 0.457092761993408203 46 101 86
-1.59975528717041016 -3 -1 39 94 71
-1 -3 -1.59645450115203857 35 93 72
-1.62481403350830078 -3 0 43 94 70
-1 -3 0.655369460582733154 44 96 70
-1.89458155632019043 -2 -1 36 85 55
-1 -2 -1.88962733745574951 33 85 55
-1.91987192630767822 -2 0 40 85 54
-1 -2 0.965121865272521973 41 87 54
-1.28385615348815918 -1 -2 28 70 40
-1 -1.72270500659942627 -2 33 85 55
-1 -1 -2.14087724685668945 24 67 40
-1.36008250713348389 -1 1 37 70 42
-1 -1.91688346862792969 1 44 85 56
-1 -1 1.18396008014678955 38 73 43
-1.78449010848999023 0 -2 22 54 27
-1 0 -2.38898110389709473 19 51 26
-1.86189723014831543 0 1 29 54 30
-1 0 1.44007778167724609 31 57 31
-1 1 -2.69352817535400391 12 31 14
-1 1 1.75482118129730225 22 36 20
-1.1107945442199707 2 -3 1 4 1
-1 1.84280097484588623 -3 12 31 14
-1 2 -3.03635835647583008 0 2 1
-1.24349880218505859 2 2 2 4 2
-1 1.65457403659820557 2 20 31 19
-1 2 2.08167934417724609 4 6 4
-1.92278945446014404 3 -3 10 24 11
-1 3 -3.30192446708679199 11 30 15
-1 3 2.35443902015686035 15 21 14
-1 4 -3.60853695869445801 24 61 32
-1 4 2.67003607749938965 38 52 36
-1 5 -3.96135449409484863 39 93 54
-1.09263265132904053 5 3 74 95 74
-1 4.90923261642456055 3 46 61 45
-1 5 3.02305316925048828 72 93 72
-1 5.09881877899169922 -4 39 93 54
-1 6 -4.24606132507324219 54 133 95
-1 6 3.30264568328857422 101 124 104
-1 7 -4.55203771591186523 70 161 129
-1 7 3.61795663833618164 130 154 137
-1 8 -4.8983464241027832 86 185 166
-1 8 3.97638845443725586 159 180 169
-1 8.93987369537353516 -4 91 180 151
-1 8.96403694152832031 -3 97 175 141
-1 8.97077178955078125 -2 103 173 135
-1 8.97305107116699219 -1 111 171 135
-1 8.97311496734619141 0 121 171 140
-1 8.97101402282714844 1 132 173 148
-1 8.96473503112792969 2 145 176 158
-1 8.94299697875976562 3 159 180 169
0 -9.15917491912841797 -2 41 22 59
0 -9 -2.01987886428833008 36 23 69
0 -9.82752704620361328 -1 42 25 62
0 -9.83084869384765625 0 43 28 62
0 -9.3524322509765625 1 43 29 59
0 -9 1.058860182762146 43 36 74
0 -8.87749099731445312 -2 38 27 74
0 -8 -1.70892751216888428 31 34 86
0 -8.64710712432861328 1 43 36 74
0 -8 0.773979902267456055 39 45 88
0 -7 -1.48329877853393555 34 54 94
0 -7 0.53588789701461792 43 65 96
0 -6 -1.36182153224945068 36 74 98
0 -6 0.40774962306022644 45 85 101
0 -5 -1.34331142902374268 37 92 100
0 -5 0.388287931680679321 46 102 102
0 -4 -1.42759406566619873 37 98 90
0 -4 0.477343738079071045 46 100 86
0 -3 -1.61547482013702393 35 93 72
0 -3 0.675852775573730469 44 95 69
0 -2 -1.90885424613952637 33 84 55
0 -2 0.985983908176422119 41 87 54
0 -1.77102863788604736 -2 33 84 55
0 -1 -2.15032005310058594 24 67 40
0 -1.96661841869354248 1 44 84 56
0 -1 1.19401359558105469 38 72 42
0 0 -2.3986046314239502 19 51 26
0 0 1.45039772987365723 31 56 31
0 1 -2.70339345932006836 12 30 14
0 1 1.76550602912902832 22 36 20
0 1.81550455093383789 -3 12 30 14
0 2 -3.0426795482635498 0 2 1
0 1.62569904327392578 2 20 30 19
0 2 2.08854055404663086 4 6 4
0 3 -3.3084404468536377 11 30 15
0 3 2.36157488822937012 15 21 14
0 4 -3.61531352996826172 24 61 32
0 4 2.67754364013671875 38 53 36
0 5 -3.96848106384277344 40 93 54
0 4.88802814483642578 3 47 61 46
0 5 3.02844929695129395 73 93 72
0 5.08057165145874023 -4 40 93 54
0 6 -4.25110292434692383 55 133 94
0 6 3.30831456184387207 101 124 104
0 7 -4.55736017227172852 70 161 128
0 7 3.62400245666503906 131 154 137
0 8 -4.90405845642089844 86 185 166
0 8 3.98295783996582031 160 180 169
0 8.94017219543457031 -4 91 180 150
0 8.96412563323974609 -3 97 175 140
0 8.97082328796386719 -2 104 172 135
0 8.97309207916259766 -1 112 171 134
0 8.97315597534179688 0 121 171 140
0 8.97106838226318359 1 132 172 148
0 8.96482944488525391 2 145 175 158
0 8.94329833984375 3 160 180 169
0.0416946820914745331 -9 -2 38 27 74
1 -9.28394603729248047 -1 41 24 59
1 -9 -1.08352565765380859 37 26 72
1 -9.33930492401123047 0 42 27 59
0.12008301168680191 -9 1 43 36 74
1 -9 0.11408572643995285 41 33 74
0.742287993431091309 -8 -1 36 41 88
1 -8.7430267333984375 -1 39 30 74
0.768644869327545166 -8 0 39 45 88
1 -8.66699409484863281 0 41 33 74
0.506039321422576904 -7 -1 39 61 96
0.532216787338256836 -7 0 43 65 96
0.378851085901260376 -6 -1 41 81 101
0.404957681894302368 -6 0 45 85 101
0.359481304883956909 -5 -1 42 99 102
0.385614991188049316 -5 0 46 102 102
0.447758197784423828 -4 -1 42 100 88
0.474019914865493774 -4 0 46 100 86
0.644554615020751953 -3 -1 40 95 71
0.671061396598815918 -3 0 44 95 69
0.951917648315429688 -2 -1 37 87 54
0.978816986083984375 -2 0 41 87 54
0.315491616725921631 -1 -2 29 72 40
1 -1.88455295562744141 -1 36 84 53
1 -1 -1.34563875198364258 28 69 39
1 -1.94916272163391113 0 40 84 53
0.39592859148979187 -1 1 38 72 42
1 -1 0.391498267650604248 35 72 39
0.837448716163635254 0 -2 23 56 27
1 0 -1.84463274478912354 22 53 26
0.919880688190460205 0 1 31 56 31
1 0 0.919269740581512451 29 56 28
1 0.256951063871383667 -2 22 53 26
1 1 -2.22147345542907715 11 27 13
1 0.126450911164283752 1 30 53 29
1 1 1.2682492733001709 20 33 19
0.135584667325019836 2 -3 2 6 2
1 2 -2.57550334930419922 1 3 1
0.275724023580551147 2 2 4 6 4
1 2 1.63431704044342041 5 9 5
0.982909202575683594 3 -3 9 21 10
1 3 -2.99159455299377441 10 24 11
1 2.85187244415283203 2 2 3 2
1 3 2.04030752182006836 17 24 16
1 3.0178987979888916 -3 10 24 11
1 4 -3.29402995109558105 26 63 34
1 4 2.34792065620422363 40 55 38
1 5 -3.6359868049621582 41 95 56
0.119765035808086395 5 3 73 93 72
1 5 2.70034313201904297 65 88 64
1 5.93336629867553711 -4 41 95 56
1 6 -4.01830053329467773 56 134 96
1 5.74894332885742188 3 75 95 75
1 6 3.07042622566223145 104 126 106
1 7 -4.31752252578735352 71 162 130
1 7 3.37819123268127441 133 155 139
1 8 -4.65310335159301758 87 186 168
1 8 3.72478914260864258 162 181 171
1 8.92151641845703125 -4 92 181 153
1 8.959136962890625 -3 98 177 142
1 8.96805477142333984 -2 105 174 137
1 8.97095394134521484 -1 113 172 136
1 8.97103500366210938 0 123 172 142
1 8.96837234497070312 1 134 174 150
1 8.96010494232177734 2 147 177 159
1 8.92702865600585938 3 162 181 171
1.04272949695587158 -9 -1 39 30 74
1.05536258220672607 -9 0 41 33 74
1.17681443691253662 -1 -1 32 72 39
1.18977177143096924 -1 0 35 72 39
1.43178296089172363 0 -1 26 56 27
1.44501388072967529 0 0 29 56 28
1.22706305980682373 1 -2 14 33 15
1.74493527412414551 1 -1 18 36 17
1.75855875015258789 1 0 21 36 18
1.26717483997344971 1 1 20 33 19
1.59013593196868896 2 -2 4 9 4
2 1.68433022499084473 -1 15 30 14
2 2 -1.22146010398864746 1 3 1
2 1.64743244647979736 0 17 30 16
1.63158857822418213 2 1 5 9 5
2 2 0.261488825082778931 3 6 3
2 2.96106338500976562 -2 1 3 1
2 3 -2.01567268371582031 13 30 14
2 2.86239528656005859 1 2 3 1
1.0612417459487915 3 2 17 24 16
2 3 1.05711102485656738 16 24 15
1.45702874660491943 4 -3 25 55 27
2 4 -2.46991539001464844 27 60 31
1.52936601638793945 4 2 40 55 38
2 4 1.52712404727935791 38 55 35
1.99072170257568359 5 -3 41 87 48
2 5 -2.99094367027282715 44 92 53
2 4.87848520278930664 2 44 60 42
2 5 2.04173636436462402 68 92 68
1.038260817527771 6 -4 57 126 83
2 5.01576423645019531 -3 44 92 53
2 6 -3.36276721954345703 60 130 88
1.14471089839935303 6 3 104 126 106
2 6 2.42106223106384277 95 124 97
1.66696619987487793 7 -4 75 155 116
2 7 -3.77885317802429199 77 158 121
1.78043794631958008 7 3 133 155 139
2 7 2.85098552703857422 123 153 130
2 7.47906827926635742 -4 77 158 121
2 8 -4.16967916488647461 89 189 173
2 7.31411266326904297 3 136 158 143
2 8 3.22857332229614258 165 183 174
2 8.76359844207763672 -4 94 183 158
2 8.94122886657714844 -3 101 179 147
2 8.95945358276367188 -2 108 176 142
2 8.96457862854003906 -1 116 175 140
2 8.96471786499023438 0 126 175 146
2 8.96002578735351562 1 137 176 153
2 8.94339466094970703 2 150 179 163
2 8.80963230133056641 3 165 183 174
2.07442474365234375 2 -1 3 6 3
2.08314728736877441 2 0 3 6 3
2.01055264472961426 3 -2 11 24 11
2.34609317779541016 3 -1 12 21 11
2.3551182746887207 3 0 14 21 12
2.03733038902282715 3 1 16 24 15
2.31598401069641113 4 -2 27 55 27
2.66014933586120605 4 -1 30 52 28
2.66960859298706055 4 0 34 52 31
2.34381818771362305 4 1 38 55 35
2.66531705856323242 5 -2 45 87 49
3 4.94092559814453125 -1 33 60 33
3 5 -1.0599905252456665 49 94 55
3 4.91408586502075195 0 38 60 36
2.69467711448669434 5 1 60 87 59
3 5 0.0925145372748374939 58 92 57
2.04160857200622559 5 2 68 92 68
2.36978769302368164 6 -3 62 124 79
3 5.84217119216918945 -2 49 94 55
3 6 -2.0883781909942627 65 129 87
3 5.76655340194702148 1 64 94 64
2.41960597038269043 6 2 95 124 97
3 6 1.13509654998779297 89 125 93
2.79424595832824707 7 -3 81 153 111
3 7 -2.70317268371582031 84 158 119
2.84766292572021484 7 2 123 153 130
3 7 1.7733839750289917 115 154 126
2.23323321342468262 8 -4 94 183 158
3 7.43751287460327148 -3 84 158 119
3 8 -3.24705672264099121 97 187 166
3 7.32256793975830078 2 127 158 136
2.30834746360778809 8 3 165 183 174
3 8 2.30558180809020996 155 184 169
3 8.77700233459472656 -3 104 183 155
3 8.92423248291015625 -2 111 181 149
3 8.94239234924316406 -1 120 179 147
3 8.94281291961669922 0 130 179 152
3 8.92645549774169922 1 141 181 159
3 8.80762100219726562 2 155 184 169
3.01496195793151855 5 -1 53 92 54
3.02176833152770996 5 0 58 92 57
3.04409193992614746 6 -2 69 125 82
3.29339957237243652 6 -1 74 123 81
3.30054163932800293 6 0 81 123 85
3.06530475616455078 6 1 89 125 93
3.34947609901428223 7 -2 90 154 114
3.60703372955322266 7 -1 97 153 113
3.61466336250305176 7 0 105 153 117
3.37189841270446777 7 1 115 154 126
3.18640494346618652 8 -3 104 183 155
3.69263553619384766 8 -2 111 181 149
3.96305680274963379 8 -1 120 179 147
3.97139120101928711 8 0 130 179 152
3.71682143211364746 8 1 141 181 159
3.22510337829589844 8 2 155 184 169
3 2 1 0
3 1 4 3
3 0 1 3
3 4 6 5
3 3 4 5
3 6 8 7
3 5 6 7
3 8 9 7
3 11 2 0
3 10 11 0
3 0 3 10
3 3 12 10
3 3 5 12
3 5 13 12
3 5 7 13
3 7 14 13
3 9 15 14
3 7 9 14
3 18 17 16
3 17 11 10
3 17 10 16
3 16 10 19
3 10 12 19
3 12 20 19
3 12 13 20
3 13 21 20
3 13 14 21
3 14 22 21
3 15 24 23
3 15 23 14
3 14 23 22
3 24 25 23
3 18 16 26
3 16 19 27
3 26 16 27
3 19 20 28
3 27 19 28
3 20 21 29
3 28 20 29
3 21 22 30
3 29 21 30
3 22 23 31
3 30 22 31
3 23 25 31
3 34 33 32
3 33 36 35
3 32 33 35
3 36 37 35
3 39 34 32
3 38 39 32
3 32 35 38
3 35 40 38
3 37 42 41
3 37 41 35
3 35 41 40
3 42 43 41
3 46 45 44
3 45 39 38
3 45 38 44
3 44 38 47
3 38 40 47
3 40 48 47
3 40 41 48
3 41 49 48
3 43 50 49
3 41 43 49
3 52 46 44
3 51 52 44
3 44 47 51
3 47 53 51
3 47 48 53
3 48 54 53
3 48 49 54
3 49 55 54
3 50 57 56
3 50 56 49
3 49 56 55
3 57 58 56
3 61 60 59
3 51 1 2
3 52 51 2
3 52 2 59
3 52 59 60
3 53 1 51
3 4 1 53
3 54 4 53
3 6 4 54
3 55 6 54
3 8 6 55
3 8 62 9
3 8 55 62
3 55 56 62
3 58 63 62
3 56 58 62
3 65 61 59
3 64 65 59
3 59 11 64
3 2 11 59
3 66 9 62
3 15 9 66
3 63 67 66
3 62 63 66
3 70 69 68
3 64 17 18
3 65 64 18
3 65 18 68
3 65 68 69
3 64 11 17
3 66 24 15
3 24 71 25
3 66 71 24
3 66 72 71
3 66 67 72
3 72 73 71
3 70 68 74
3 68 18 26
3 68 26 74
3 74 26 75
3 75 26 76
3 26 27 76
3 76 27 77
3 27 28 77
3 77 28 78
3 28 29 78
3 78 29 79
3 29 30 79
3 79 30 80
3 30 31 80
3 25 71 81
3 25 81 31
3 31 81 80
3 71 73 81
3 84 83 82
3 83 86 85
3 82 83 85
3 86 87 85
3 84 82 88
3 82 85 89
3 88 82 89
3 85 87 89
3 92 91 90
3 91 94 93
3 90 91 93
3 94 95 93
3 97 92 90
3 96 97 90
3 90 93 96
3 93 98 96
3 95 99 98
3 93 95 98
3 102 101 100
3 101 97 96
3 101 96 100
3 100 96 103
3 96 98 103
3 98 104 103
3 99 106 105
3 99 105 98
3 98 105 104
3 106 107 105
3 109 102 100
3 108 109 100
3 34 103 33
3 34 108 103
3 108 100 103
3 104 33 103
3 36 33 104
3 36 110 37
3 36 104 110
3 104 105 110
3 107 111 110
3 105 107 110
3 113 109 108
3 112 113 108
3 108 39 112
3 34 39 108
3 110 42 37
3 42 114 43
3 110 114 42
3 110 115 114
3 110 111 115
3 115 116 114
3 119 118 117
3 112 45 46
3 113 112 46
3 113 46 117
3 113 117 118
3 112 39 45
3 120 43 114
3 50 43 120
3 116 121 120
3 114 116 120
3 123 119 117
3 122 123 117
3 117 52 122
3 46 52 117
3 120 57 50
3 57 120 121
3 57 121 58
3 58 121 124
3 127 126 125
3 122 60 61
3 123 122 61
3 123 61 125
3 123 125 126
3 122 52 60
3 128 124 129
3 128 63 124
3 63 58 124
3 129 130 128
3 132 127 125
3 131 132 125
3 125 65 131
3 61 65 125
3 133 63 128
3 67 63 133
3 130 134 133
3 128 130 133
3 131 69 70
3 131 70 132
3 132 70 135
3 131 65 69
3 133 72 67
3 72 133 134
3 72 134 73
3 73 134 136
3 135 70 74
3 137 135 74
3 137 74 138
3 74 75 138
3 138 75 139
3 75 76 139
3 139 76 140
3 76 77 140
3 140 77 141
3 77 78 141
3 141 78 142
3 78 79 142
3 142 79 143
3 79 80 143
3 143 80 144
3 80 81 144
3 144 81 73
3 136 144 73
3 147 146 145
3 84 145 146
3 84 146 83
3 83 146 148
3 148 149 83
3 83 149 86
3 150 87 86
3 150 86 151
3 151 86 149
3 151 152 150
3 147 145 153
3 155 88 154
3 153 88 155
3 153 84 88
3 153 145 84
3 89 154 88
3 156 154 89
3 156 157 158
3 89 157 156
3 89 150 157
3 89 87 150
3 150 152 157
3 160 155 154
3 159 160 154
3 154 156 159
3 156 161 159
3 158 162 161
3 156 158 161
3 164 160 159
3 163 164 159
3 159 161 163
3 161 165 163
3 162 166 165
3 161 162 165
3 168 164 163
3 167 168 163
3 163 165 167
3 165 169 167
3 166 170 169
3 165 166 169
3 172 168 167
3 171 172 167
3 167 169 171
3 169 173 171
3 170 174 173
3 169 170 173
3 176 172 171
3 175 176 171
3 171 173 175
3 173 177 175
3 174 178 177
3 173 174 177
3 180 176 175
3 179 180 175
3 175 177 179
3 177 181 179
3 178 182 181
3 177 178 181
3 185 184 183
3 179 91 92
3 180 179 92
3 180 92 183
3 180 183 184
3 181 91 179
3 94 91 181
3 94 186 95
3 181 186 94
3 181 187 186
3 181 182 187
3 187 188 186
3 190 185 183
3 189 190 183
3 183 97 189
3 92 97 183
3 191 95 186
3 99 95 191
3 188 192 191
3 186 188 191
3 189 101 102
3 189 102 190
3 190 102 193
3 189 97 101
3 191 106 99
3 106 191 192
3 106 192 107
3 107 192 194
3 197 196 195
3 196 109 195
3 196 193 109
3 193 102 109
3 198 194 199
3 198 111 194
3 111 107 194
3 199 200 198
3 202 197 195
3 201 202 195
3 195 113 201
3 109 113 195
3 198 115 111
3 115 198 200
3 115 200 116
3 116 200 203
3 201 118 119
3 201 119 202
3 202 119 204
3 201 113 118
3 203 205 116
3 205 121 116
3 204 119 206
3 206 119 123
3 207 205 208
3 207 124 205
3 124 121 205
3 208 209 207
3 127 211 210
3 126 127 210
3 210 123 126
3 206 123 210
3 207 129 124
3 129 207 209
3 129 209 130
3 130 209 212
3 211 127 213
3 213 127 132
3 212 214 130
3 214 134 130
3 213 132 215
3 215 132 135
3 214 216 134
3 216 136 134
3 215 135 137
3 217 215 137
3 217 137 218
3 137 138 218
3 218 138 219
3 138 139 219
3 219 139 220
3 139 140 220
3 220 140 221
3 140 141 221
3 221 141 222
3 141 142 222
3 222 142 223
3 142 143 223
3 223 143 224
3 143 144 224
3 224 144 136
3 216 224 136
3 147 226 225
3 146 147 225
3 225 227 146
3 146 227 148
3 227 228 148
3 148 228 149
3 228 229 149
3 149 229 151
3 151 229 230
3 152 151 230
3 226 147 153
3 231 226 153
3 153 232 231
3 155 232 153
3 158 233 234
3 157 233 158
3 233 157 152
3 230 233 152
3 232 155 235
3 235 155 160
3 234 236 158
3 236 162 158
3 235 160 237
3 237 160 164
3 236 238 162
3 238 166 162
3 237 164 239
3 239 164 168
3 238 240 166
3 240 170 166
3 239 168 241
3 241 168 172
3 240 242 170
3 242 174 170
3 241 172 243
3 243 172 176
3 242 244 174
3 244 178 174
3 243 176 245
3 245 176 180
3 244 246 178
3 246 182 178
3 185 248 247
3 184 185 247
3 247 180 184
3 245 180 247
3 246 187 182
3 249 187 246
3 187 249 250
3 188 187 250
3 248 185 251
3 251 185 190
3 250 252 188
3 252 192 188
3 251 190 253
3 253 190 193
3 252 254 192
3 254 194 192
3 197 256 255
3 196 197 255
3 255 193 196
3 253 193 255
3 254 199 194
3 257 199 254
3 199 257 258
3 200 199 258
3 256 197 259
3 259 197 202
3 258 260 200
3 260 203 200
3 259 202 261
3 261 202 204
3 260 262 203
3 262 205 203
3 261 204 263
3 263 204 206
3 262 208 205
3 264 208 262
3 208 264 265
3 209 208 265
3 211 267 266
3 210 211 266
3 266 206 210
3 263 206 266
3 265 268 209
3 268 212 209
3 267 211 269
3 269 211 213
3 268 270 212
3 270 214 212
3 269 213 271
3 271 213 215
3 270 272 214
3 272 216 214
3 271 215 217
3 273 271 217
3 273 217 274
3 217 218 274
3 274 218 275
3 218 219 275
3 275 219 276
3 219 220 276
3 276 220 277
3 220 221 277
3 277 221 278
3 221 222 278
3 278 222 279
3 222 223 279
3 279 223 280
3 223 224 280
3 280 224 216
3 272 280 216
3 225 226 281
3 281 283 282
3 281 282 225
3 225 282 227
3 282 284 227
3 227 284 228
3 286 285 229
3 286 229 284
3 284 229 228
3 229 285 230
3 281 226 231
3 231 232 287
3 281 231 287
3 281 287 288
3 281 288 283
3 288 289 290
3 287 289 288
3 285 234 233
3 286 234 285
3 286 289 234
3 286 290 289
3 285 233 230
3 291 287 232
3 235 291 232
3 287 291 289
3 289 291 292
3 289 292 236
3 234 289 236
3 293 291 235
3 237 293 235
3 291 293 292
3 292 293 294
3 292 294 238
3 236 292 238
3 295 293 237
3 239 295 237
3 293 295 294
3 294 295 296
3 294 296 240
3 238 294 240
3 297 295 239
3 241 297 239
3 295 297 296
3 296 297 298
3 296 298 242
3 240 296 242
3 299 297 241
3 243 299 241
3 297 299 298
3 298 299 300
3 298 300 244
3 242 298 244
3 301 299 243
3 245 301 243
3 299 301 300
3 300 301 302
3 300 302 246
3 244 300 246
3 247 248 303
3 303 305 304
3 247 303 304
3 247 304 301
3 247 301 245
3 301 306 302
3 304 306 301
3 308 307 249
3 306 308 249
3 306 249 246
3 306 246 302
3 249 307 250
3 309 303 248
3 251 309 248
3 305 309 310
3 303 309 305
3 312 307 308
3 311 307 312
3 307 311 252
3 250 307 252
3 313 309 251
3 313 251 314
3 314 251 253
3 309 313 310
3 312 315 311
3 311 315 316
3 311 316 252
3 252 316 254
3 255 256 317
3 317 253 255
3 317 318 253
3 318 314 253
3 257 320 319
3 257 254 320
3 254 316 320
3 257 319 258
3 321 317 256
3 259 321 256
3 318 321 322
3 317 321 318
3 320 323 319
3 319 323 324
3 319 324 258
3 258 324 260
3 325 321 259
3 325 259 326
3 326 259 261
3 321 325 322
3 324 327 260
3 327 262 260
3 326 261 328
3 328 261 263
3 264 330 329
3 264 262 330
3 262 327 330
3 264 329 265
3 267 332 331
3 266 267 331
3 331 263 266
3 328 263 331
3 330 333 329
3 329 333 334
3 329 334 265
3 265 334 268
3 332 267 335
3 335 267 269
3 334 336 268
3 336 270 268
3 335 269 337
3 337 269 271
3 336 338 270
3 338 272 270
3 337 271 273
3 339 337 273
3 339 273 340
3 273 274 340
3 340 274 341
3 274 275 341
3 341 275 342
3 275 276 342
3 342 276 343
3 276 277 343
3 343 277 344
3 277 278 344
3 344 278 345
3 278 279 345
3 345 279 346
3 279 280 346
3 346 280 272
3 338 346 272
3 282 283 347
3 284 282 347
3 348 284 347
3 284 348 286
3 347 283 288
3 348 347 288
3 290 348 288
3 348 290 286
3 304 305 349
3 306 304 349
3 350 306 349
3 306 350 308
3 351 349 305
3 310 351 305
3 349 351 350
3 350 351 352
3 350 352 312
3 308 350 312
3 313 314 353
3 310 313 353
3 310 353 351
3 351 353 354
3 351 354 352
3 352 354 355
3 315 312 352
3 315 352 356
3 356 352 355
3 315 356 316
3 357 353 314
3 318 357 314
3 358 357 359
3 358 354 357
3 354 353 357
3 354 360 355
3 358 360 354
3 362 355 360
3 362 361 355
3 361 356 355
3 356 361 320
3 316 356 320
3 363 357 318
3 363 318 364
3 364 318 322
3 357 363 359
3 362 365 361
3 367 366 323
3 365 367 323
3 365 323 320
3 365 320 361
3 323 366 324
3 325 326 368
3 368 322 325
3 368 369 322
3 369 364 322
3 371 366 367
3 370 366 371
3 366 370 327
3 324 366 327
3 372 368 326
3 328 372 326
3 369 372 373
3 368 372 369
3 371 374 370
3 370 374 375
3 370 375 327
3 327 375 330
3 331 332 376
3 376 378 377
3 331 376 377
3 331 377 372
3 331 372 328
3 372 377 373
3 333 380 379
3 333 330 380
3 330 375 380
3 333 379 334
3 381 376 332
3 335 381 332
3 378 381 382
3 376 381 378
3 384 379 380
3 383 379 384
3 379 383 336
3 334 379 336
3 385 381 335
3 385 335 386
3 386 335 337
3 381 385 382
3 384 387 383
3 383 387 388
3 383 388 336
3 336 388 338
3 386 337 339
3 389 386 339
3 389 339 390
3 339 340 390
3 390 340 391
3 340 341 391
3 391 341 392
3 341 342 392
3 392 342 393
3 342 343 393
3 393 343 394
3 343 344 394
3 394 344 395
3 344 345 395
3 395 345 396
3 345 346 396
3 396 346 338
3 388 396 338
3 358 359 397
3 360 358 397
3 398 360 397
3 360 398 362
3 363 364 399
3 359 363 399
3 359 399 397
3 397 399 400
3 397 400 398
3 398 400 401
3 365 362 398
3 365 398 402
3 402 398 401
3 365 402 367
3 403 399 364
3 369 403 364
3 399 403 400
3 400 403 404
3 400 404 401
3 401 404 405
3 401 405 402
3 402 405 406
3 402 406 371
3 367 402 371
3 407 403 369
3 373 407 369
3 408 407 409
3 408 404 407
3 404 403 407
3 404 410 405
3 408 410 404
3 412 405 410
3 412 411 405
3 411 406 405
3 374 371 406
3 374 406 413
3 413 406 411
3 374 413 375
3 377 378 414
3 414 416 415
3 377 414 415
3 377 415 407
3 377 407 373
3 407 415 409
3 412 417 411
3 419 411 417
3 419 418 411
3 418 413 411
3 413 418 380
3 375 413 380
3 420 414 378
3 382 420 378
3 416 420 421
3 414 420 416
3 423 418 419
3 422 418 423
3 418 422 384
3 380 418 384
3 385 386 424
3 424 426 425
3 385 424 425
3 385 425 420
3 385 420 382
3 420 425 421
3 423 427 422
3 429 428 387
3 427 429 387
3 427 387 384
3 427 384 422
3 387 428 388
3 424 386 389
3 426 424 389
3 426 389 430
3 430 389 390
3 430 390 431
3 390 391 431
3 431 391 432
3 391 392 432
3 432 392 433
3 392 393 433
3 433 393 434
3 393 394 434
3 434 394 435
3 394 395 435
3 428 429 435
3 428 435 396
3 396 435 395
3 428 396 388
3 408 409 436
3 410 408 436
3 437 410 436
3 410 437 412
3 415 416 438
3 409 415 438
3 409 438 436
3 436 438 439
3 436 439 437
3 437 439 440
3 417 412 437
3 417 437 441
3 441 437 440
3 417 441 419
3 442 438 416
3 421 442 416
3 438 442 439
3 439 442 443
3 439 443 440
3 440 443 444
3 440 444 441
3 441 444 445
3 441 445 423
3 419 441 423
3 425 426 446
3 421 425 446
3 421 446 442
3 442 446 447
3 442 447 443
3 443 447 448
3 443 448 444
3 444 448 449
3 444 449 445
3 445 449 450
3 427 423 445
3 427 445 451
3 451 445 450
3 427 451 429
3 446 426 430
3 447 446 430
3 431 447 430
3 448 447 431
3 432 448 431
3 449 448 432
3 433 449 432
3 450 449 433
3 434 450 433
3 451 450 434
3 435 451 434
3 451 435 429
