ply
format ascii 1.0
element vertex 132
property float x
property float y
property float z
property uchar red
property uchar green
property uchar blue
element face 248
property list uchar int vertex_indices
end_header
5.98197317123413086 -9 -9 151 161 5
6 -9.05167675018310547 -9 148 113 0
6 -9 -9.05167675018310547 83 34 1
6 -9 -8.97908973693847656 131 116 5
6 -8.96182346343994141 -9 131 116 5
7 -9.76466464996337891 -9 112 59 0
7 -9 -9.76466464996337891 43 7 1
6.77161884307861328 -9 -8 121 171 9
7 -9.43026447296142578 -8 154 149 0
7 -9 -7.66780567169189453 128 138 8
6.75369930267333984 -9 8 248 125 45
7 -9.44867897033691406 8 251 233 20
7 -9 7.64292383193969727 246 250 44
7 -9 8.44867897033691406 238 125 42
6.42155218124389648 -8 -9 117 115 13
7 -8 -9.65324592590332031 28 9 2
7 -8.46596336364746094 -8 128 138 8
7 -8 -8.25913524627685547 80 62 9
7 -8.42405223846435547 8 238 125 42
6.80600643157958984 -7 -9 103 107 20
7 -7 -9.39115142822265625 15 7 2
7 -7 -8.75156688690185547 68 58 13
7 -6.4210200309753418 -9 68 58 13
8 -9.86796474456787109 -9 71 16 0
8 -9 -9.86796474456787109 0 0 0
8 -9.80784034729003906 -8 116 79 0
7.42676734924316406 -9 -7 100 174 13
8 -9.67096614837646484 -7 142 154 0
7.9705047607421875 -9 -6 58 202 18
8 -9.097198486328125 -6 109 184 1
8 -9 -5.93567895889282227 89 170 15
7.9583282470703125 -9 6 147 254 43
8 -9.13196182250976562 6 105 251 20
8 -9 5.90953302383422852 92 250 42
7.41219520568847656 -9 7 246 250 44
8 -9.67633247375488281 7 187 247 19
8 -9.80987739562988281 8 238 195 19
8 -9 8.80987739562988281 220 106 38
8 -8 -9.84069061279296875 16 1 1
7.18736410140991211 -8 -8 106 125 17
7.82070302963256836 -8 -7 87 162 25
8 -8.92452049255371094 -6 89 170 15
8 -8 -6.66988563537597656 95 125 19
8 -8.89335918426513672 6 165 246 42
7.80639886856079102 -8 7 233 128 63
8 -8 6.64490413665771484 233 225 61
7.17051410675048828 -8 8 204 105 56
8 -8 8.74456214904785156 181 88 49
8 -7 -9.80379676818847656 28 6 4
7.5433192253112793 -7 -8 93 115 24
8 -7.48532533645629883 -7 95 125 19
8 -7 -7.27279090881347656 73 71 15
8 -7.44425535202026367 7 214 117 57
7.52675676345825195 -7 8 116 143 54
8 -7 7.24890565872192383 166 105 60
8 -7 8.62846565246582031 100 115 42
7.13318252563476562 -6 -9 61 54 16
8 -6 -9.75251102447509766 36 12 9
7.85151243209838867 -6 -8 88 108 30
8 -6 -7.76359844207763672 65 65 18
7.83518695831298828 -6 8 44 92 61
8 -6 7.73847341537475586 73 96 44
8 -6 8.3741302490234375 24 51 30
7.40467929840087891 -5 -9 58 52 19
8 -5 -9.67902851104736328 40 16 12
8 -5.43743705749511719 -8 65 65 18
8 -5 -8.16534805297851562 13 9 4
8 -5.37557315826416016 8 24 51 30
7.63039731979370117 -4 -9 60 51 24
8 -4 -9.57037544250488281 39 17 15
8 -4 -8.48186683654785156 14 10 5
7.81181764602661133 -3 -9 68 50 32
8 -3 -9.40539360046386719 33 15 14
8 -3 -8.73621749877929688 22 14 10
7.95006942749023438 -2 -9 80 46 42
8 -2 -9.15403461456298828 21 14 10
8 -2 -8.93001461029052734 33 18 17
8 -1.48050332069396973 -9 33 18 17
7.90118169784545898 4 -9 37 35 39
8 3.12104463577270508 -9 54 53 63
8 4 -9.26445198059082031 75 68 79
8 4 -8.86148834228515625 12 12 13
7.74619340896606445 5 -9 102 98 103
8 5 -9.47826766967773438 10 9 10
8 5 -8.64421749114990234 58 55 58
7.54763460159301758 6 -9 144 142 144
8 6 -9.61810493469238281 56 54 56
8 6 -8.36581802368164062 110 108 110
7.3042445182800293 7 -9 163 162 163
8 7 -9.71103382110595703 99 98 99
8 7 -8.02448940277099609 139 139 139
7.01438999176025391 8 -9 165 163 166
8 8 -9.77465343475341797 120 120 120
7.73675012588500977 8 -8 181 179 184
8 7.06103038787841797 -8 167 164 167
8 8 -7.58085870742797852 167 163 168
7.72033786773681641 8 8 207 207 206
8 7.00246953964233398 8 247 247 244
8 8 7.55619716644287109 222 223 221
8 8 8.50220012664794922 232 232 232
8 8.77465343475341797 -9 149 146 148
8 8.48727798461914062 -8 167 163 168
8 8.50220012664794922 8 232 232 232
8.86796474456787109 -9 -9 52 20 2
8.80784034729003906 -9 -8 99 80 5
8.67096614837646484 -9 -7 114 138 10
8.097198486328125 -9 -6 89 170 15
8.13196182250976562 -9 6 165 246 42
8.67633247375488281 -9 7 237 225 41
8.80987739562988281 -9 8 220 106 38
8.84069061279296875 -8 -9 36 19 4
8.74079418182373047 -8 -8 84 77 11
8.39388942718505859 -8 -7 95 125 19
8.41219234466552734 -8 7 214 117 57
8.74456214904785156 -8 8 181 88 49
8.80379676818847656 -7 -9 24 15 4
8.62029552459716797 -7 -8 73 71 15
8.62846565246582031 -7 8 100 115 42
8.75251102447509766 -6 -9 16 11 4
8.35021877288818359 -6 -8 65 65 18
8.3741302490234375 -6 8 24 51 30
8.67902851104736328 -5 -9 13 9 4
8.57037544250488281 -4 -9 14 10 5
8.40539360046386719 -3 -9 22 14 10
8.15403461456298828 -2 -9 33 18 17
8.26445198059082031 4 -9 12 12 13
8.47826766967773438 5 -9 58 55 58
8.61810493469238281 6 -9 110 108 110
8.71103382110595703 7 -9 139 139 139
8.77465343475341797 8 -9 149 146 148
8.48727798461914062 8 -8 167 163 168
8.50220012664794922 8 8 232 232 232
3 2 1 0
3 1 3 0
3 2 0 4
3 0 3 4
3 2 6 5
3 1 2 5
3 7 3 1
3 7 1 8
3 8 1 5
3 8 9 7
3 12 11 10
3 11 13 10
3 4 14 15
3 4 15 2
3 2 15 6
3 14 16 17
3 4 16 14
3 4 7 16
3 4 3 7
3 7 9 16
3 12 10 18
3 10 13 18
3 20 15 14
3 19 20 14
3 17 21 19
3 14 17 19
3 20 19 22
3 19 21 22
3 6 24 23
3 5 6 23
3 23 25 5
3 5 25 8
3 26 9 8
3 26 8 27
3 27 8 25
3 27 29 28
3 26 27 28
3 29 30 28
3 33 32 31
3 32 35 34
3 31 32 34
3 12 34 35
3 12 35 11
3 11 35 36
3 11 36 37
3 13 11 37
3 24 6 38
3 38 6 15
3 16 39 17
3 9 39 16
3 9 26 39
3 26 40 39
3 41 42 40
3 41 40 28
3 28 40 26
3 28 30 41
3 33 31 43
3 45 43 31
3 45 31 44
3 44 31 34
3 18 34 12
3 18 46 34
3 46 44 34
3 46 18 13
3 46 13 47
3 47 13 37
3 38 15 48
3 48 15 20
3 49 17 39
3 21 17 49
3 50 51 49
3 50 49 40
3 40 49 39
3 40 42 50
3 45 44 52
3 54 52 44
3 54 44 53
3 53 44 46
3 47 55 53
3 46 47 53
3 22 56 57
3 22 57 20
3 20 57 48
3 21 56 22
3 21 49 56
3 49 58 56
3 51 59 58
3 49 51 58
3 61 54 53
3 60 61 53
3 55 62 60
3 53 55 60
3 64 57 56
3 63 64 56
3 65 66 63
3 65 63 58
3 58 63 56
3 58 59 65
3 61 60 67
3 60 62 67
3 69 64 63
3 68 69 63
3 66 70 68
3 63 66 68
3 72 69 68
3 71 72 68
3 70 73 71
3 68 70 71
3 75 72 71
3 74 75 71
3 73 76 74
3 71 73 74
3 75 74 77
3 74 76 77
3 80 79 78
3 79 81 78
3 83 80 78
3 82 83 78
3 81 84 82
3 78 81 82
3 86 83 82
3 85 86 82
3 84 87 85
3 82 84 85
3 89 86 85
3 88 89 85
3 87 90 88
3 85 87 88
3 92 89 88
3 91 92 88
3 90 94 93
3 90 93 88
3 88 93 91
3 94 95 93
3 98 97 96
3 97 99 96
3 92 91 100
3 91 93 101
3 100 91 101
3 93 95 101
3 98 96 102
3 96 99 102
3 23 24 103
3 25 23 103
3 104 25 103
3 27 25 104
3 105 27 104
3 29 27 105
3 106 29 105
3 29 106 30
3 32 33 107
3 35 32 107
3 108 35 107
3 36 35 108
3 109 36 108
3 36 109 37
3 110 103 24
3 38 110 24
3 103 110 104
3 104 110 111
3 104 111 105
3 105 111 112
3 42 41 106
3 42 106 112
3 112 106 105
3 106 41 30
3 107 33 43
3 43 45 113
3 43 113 107
3 107 113 108
3 108 113 109
3 109 113 114
3 109 114 47
3 37 109 47
3 115 110 38
3 48 115 38
3 110 115 111
3 111 115 116
3 51 50 112
3 51 112 116
3 116 112 111
3 112 50 42
3 113 45 52
3 52 54 117
3 52 117 113
3 113 117 114
3 114 117 55
3 47 114 55
3 118 115 48
3 57 118 48
3 115 118 116
3 116 118 119
3 116 119 59
3 51 116 59
3 120 117 54
3 61 120 54
3 117 120 62
3 55 117 62
3 121 118 57
3 64 121 57
3 66 65 119
3 66 119 121
3 121 119 118
3 119 65 59
3 120 61 67
3 120 67 62
3 122 121 64
3 69 122 64
3 121 122 70
3 66 121 70
3 123 122 69
3 72 123 69
3 122 123 73
3 70 122 73
3 124 123 72
3 75 124 72
3 123 124 76
3 73 123 76
3 124 75 77
3 124 77 76
3 79 80 125
3 79 125 81
3 126 125 80
3 83 126 80
3 125 126 84
3 81 125 84
3 127 126 83
3 86 127 83
3 126 127 87
3 84 126 87
3 128 127 86
3 89 128 86
3 127 128 90
3 87 127 90
3 129 128 89
3 92 129 89
3 94 90 128
3 94 128 130
3 130 128 129
3 94 130 95
3 97 98 131
3 97 131 99
3 129 92 100
3 130 129 100
3 101 130 100
3 130 101 95
3 131 98 102
3 131 102 99
