ply
format ascii 1.0
element vertex 166
property float x
property float y
property float z
property uchar red
property uchar green
property uchar blue
element face 336
property list uchar int vertex_indices
end_header
2.63208293914794922 8 8 138 86 31
3 7.80839395523071289 8 104 66 16
3 8 7.89655065536499023 119 62 28
3 8 8.3166656494140625 149 106 33
3 8.3166656494140625 8 149 106 33
3.64024448394775391 -9 8 23 27 1
4 -9.52651119232177734 8 21 34 3
4 -9 7.82611370086669922 52 55 2
4 -9 8.52651119232177734 31 45 1
4 -8.68761444091796875 8 31 45 1
4 7.81378746032714844 8 115 88 18
4 8 7.93036127090454102 141 89 34
4 8 8.14160633087158203 124 102 24
4 8.14160633087158203 8 124 102 24
5 -9.687408447265625 8 2 6 0
5 -9 7.41381454467773438 24 31 1
5 -9 8.687408447265625 30 56 2
4.72101211547851562 -8 8 45 56 2
5 -8 7.84261322021484375 57 64 3
5 -8 8.48641490936279297 16 24 0
5 -7.67108345031738281 8 16 24 0
4.37238454818725586 7 8 115 88 18
5 6.45575475692749023 8 95 82 9
5 7 7.731170654296875 107 75 19
5 7 8.54854583740234375 141 128 21
4.07981443405151367 8 8 124 102 24
5 7.38982200622558594 8 141 128 21
6 -9.61788177490234375 8 6 23 2
6 -9 7.14262247085571289 27 46 2
6 -9 8.61788177490234375 4 12 0
6 -8 7.28460264205932617 19 27 0
6 -8 8.74200916290283203 27 61 1
5.50931501388549805 -7 8 42 55 4
6 -7 7.69822788238525391 47 58 3
6 -7 8.65055370330810547 21 37 1
6 -6.32835292816162109 8 21 37 1
5.68214082717895508 4 8 99 79 7
6 3.27431750297546387 8 98 96 5
6 4 7.8633112907409668 102 77 6
6 4 8.33583927154541016 119 118 5
6 4.44441509246826172 8 119 118 5
5.53177213668823242 6 8 95 82 9
6 5.41369295120239258 8 86 88 6
6 6 7.79419612884521484 89 73 11
6 6 8.47255039215087891 116 122 13
6 7 7.86815881729125977 136 119 24
6 7 8.147918701171875 85 93 10
6 7.21605968475341797 8 85 93 10
7 -9.73862361907958984 8 5 50 4
7 -9 7.23406076431274414 0 1 0
7 -9 8.73862361907958984 4 23 1
6.83658075332641602 -8 7 19 27 0
7 -8.20560550689697266 7 0 1 0
7 -8 6.92077398300170898 33 49 1
7 -8 8.68548870086669922 3 12 0
6.95356988906860352 -7 7 47 58 3
7 -7 6.96397209167480469 25 31 1
7 -7 8.75820446014404297 17 52 1
7 -6.92226600646972656 7 30 52 1
6.21212100982666016 -6 8 26 39 2
7 -6 7.42399692535400391 13 20 0
7 -6 8.77171421051025391 30 69 1
6.47307729721069336 -5 8 35 46 6
7 -5 7.70400476455688477 42 55 4
7 -5 8.63089561462402344 15 28 0
7 -4.05017566680908203 8 15 28 0
6.96562719345092773 1 8 12 12 1
7 0.91395491361618042 8 8 11 0
7 1 7.97999811172485352 20 19 1
7 1 8.10744190216064453 53 67 2
6.67653799057006836 2 8 11 11 1
7 2 7.76021242141723633 32 31 2
7 2 8.58472347259521484 90 112 4
6.19642066955566406 3 8 98 96 5
7 3 7.71167898178100586 109 105 5
7 3 8.43883228302001953 81 102 4
6.79285049438476562 4 8 119 118 5
7 3.85547232627868652 8 81 102 4
6.36058616638183594 5 8 86 88 6
7 4.10543203353881836 8 62 79 4
7 5 7.73378944396972656 80 80 7
7 5 8.52851676940917969 86 111 8
7 6 7.45029067993164062 122 125 16
7 6 8.57300662994384766 82 110 9
6.12595748901367188 7 8 85 93 10
7 6.52696514129638672 8 82 110 9
6.27193689346313477 8 8 48 55 7
7 7.41668176651000977 8 17 24 2
7 8 7.60976743698120117 54 60 9
7 8 8.62774944305419922 65 96 11
7 8.62774944305419922 8 65 96 11
7.45775270462036133 -9 7 0 1 0
8 -9.50567531585693359 7 3 29 2
8 -9 6.75581073760986328 1 4 0
8 -9.81803035736083984 8 5 60 17
8 -9 8.81803035736083984 3 47 7
7.52838611602783203 -8 7 21 44 1
8 -8.16318988800048828 7 5 30 2
8 -8 7.04909706115722656 0 2 0
8 -8 8.79439640045166016 1 38 1
8 -7.51717281341552734 7 0 2 0
8 -7 6.89705038070678711 29 53 1
8 -7 8.73591899871826172 1 13 0
7.69480800628662109 -6 7 13 20 0
8 -6 6.71265840530395508 24 37 0
8 -6 8.74327564239501953 5 28 0
7.85830307006835938 -5 7 42 55 4
8 -5 6.88316679000854492 15 21 0
8 -5 8.77762985229492188 15 59 1
8 -4.5405735969543457 7 30 61 1
7.02359580993652344 -4 8 8 14 0
8 -4 7.17447519302368164 17 29 0
8 -4 8.78886890411376953 26 79 1
7.23677968978881836 -3 8 20 30 2
8 -3 7.37115764617919922 3 5 0
8 -3 8.77679252624511719 33 85 1
7.33361721038818359 -2 8 20 28 1
8 -2 7.46333694458007812 1 2 0
8 -2 8.75713348388671875 39 88 2
7.37578344345092773 -1 8 13 17 0
8 -1 7.48263788223266602 14 19 0
8 -1 8.74118328094482422 47 95 3
7.33627080917358398 0 8 8 11 0
8 0 7.43562507629394531 42 55 2
8 0 8.71620655059814453 53 99 5
8 1 7.35841798782348633 75 95 5
8 1 8.63568687438964844 50 89 6
8 2 7.57806491851806641 81 102 6
8 2 8.43900775909423828 40 70 4
8 3 7.7740168571472168 61 76 5
8 3 8.39751434326171875 41 73 4
7.06084632873535156 4 8 62 79 4
8 4 7.54049110412597656 59 75 6
8 4 8.67096233367919922 63 112 7
8 5 7.28307199478149414 92 119 12
8 5 8.60446929931640625 51 95 6
7.57211971282958984 6 8 82 110 9
8 5.60360240936279297 8 51 95 6
7.4141087532043457 7 8 17 24 2
8 6.37062311172485352 8 6 12 0
8 7 7.6386713981628418 24 34 3
8 7 8.63022232055664062 39 83 6
8 8 7.34128856658935547 60 88 12
8 8 8.56339168548583984 28 58 8
8 8.56339168548583984 8 28 58 8
8.50567531585693359 -9 7 5 30 2
8.81803035736083984 -9 8 3 47 7
8.79439640045166016 -8 8 1 38 1
8.17606163024902344 -7 7 8 25 0
8.73591899871826172 -7 8 1 13 0
8.52221870422363281 -6 7 26 62 1
8.74327564239501953 -6 8 5 28 0
8.40160846710205078 -5 7 30 61 1
8.77762985229492188 -5 8 15 59 1
8.78886890411376953 -4 8 26 79 1
8.77679252624511719 -3 8 33 85 1
8.75713348388671875 -2 8 39 88 2
8.74118328094482422 -1 8 47 95 3
8.71620655059814453 0 8 53 99 5
8.63568687438964844 1 8 50 89 6
8.43900775909423828 2 8 40 70 4
8.39751434326171875 3 8 41 73 4
8.67096233367919922 4 8 63 112 7
8.60446929931640625 5 8 51 95 6
8.63022232055664062 7 8 39 83 6
8.56339168548583984 8 8 28 58 8
3 2 1 0
3 1 3 0
3 2 0 4
3 0 3 4
3 7 6 5
3 6 8 5
3 7 5 9
3 5 8 9
3 2 11 10
3 1 2 10
3 1 10 12
3 3 1 12
3 11 2 4
3 13 11 4
3 13 4 3
3 12 13 3
3 7 15 14
3 6 7 14
3 6 14 16
3 8 6 16
3 9 17 18
3 9 18 7
3 7 18 15
3 17 9 8
3 17 8 19
3 19 8 16
3 18 17 20
3 17 19 20
3 23 22 21
3 22 24 21
3 25 26 23
3 25 23 11
3 21 10 23
3 10 11 23
3 10 21 24
3 10 24 12
3 26 25 24
3 25 12 24
3 25 11 13
3 25 13 12
3 15 28 27
3 14 15 27
3 14 27 29
3 16 14 29
3 28 15 30
3 30 15 18
3 29 31 16
3 31 19 16
3 20 32 33
3 20 33 18
3 18 33 30
3 32 20 19
3 32 19 34
3 34 19 31
3 33 32 35
3 32 34 35
3 38 37 36
3 37 39 36
3 38 36 40
3 36 39 40
3 43 42 41
3 42 44 41
3 41 22 23
3 41 23 43
3 43 23 45
3 22 41 44
3 22 44 24
3 24 44 46
3 45 23 26
3 47 45 26
3 47 26 24
3 46 47 24
3 28 49 48
3 27 28 48
3 27 48 50
3 29 27 50
3 53 52 51
3 52 30 51
3 52 49 30
3 49 28 30
3 50 54 29
3 54 31 29
3 56 53 51
3 55 56 51
3 51 33 55
3 30 33 51
3 54 57 31
3 57 34 31
3 56 55 58
3 60 35 59
3 58 35 60
3 58 33 35
3 58 55 33
3 59 35 34
3 59 34 61
3 61 34 57
3 63 60 59
3 62 63 59
3 61 64 62
3 59 61 62
3 63 62 65
3 62 64 65
3 68 67 66
3 67 69 66
3 71 68 66
3 70 71 66
3 69 72 70
3 66 69 70
3 74 71 70
3 73 74 70
3 72 75 73
3 70 72 73
3 76 77 74
3 76 74 38
3 73 37 74
3 37 38 74
3 37 73 75
3 37 75 39
3 77 76 75
3 76 39 75
3 40 78 80
3 40 80 38
3 79 76 80
3 76 38 80
3 78 40 39
3 78 39 81
3 76 79 39
3 79 81 39
3 78 42 43
3 78 43 80
3 80 43 82
3 42 78 81
3 42 81 44
3 44 81 83
3 84 85 82
3 84 82 45
3 45 82 43
3 85 84 46
3 85 46 83
3 83 46 44
3 47 86 88
3 47 88 45
3 87 84 88
3 84 45 88
3 86 47 46
3 86 46 89
3 84 87 46
3 87 89 46
3 88 86 90
3 86 89 90
3 93 92 91
3 49 91 92
3 49 92 48
3 48 92 94
3 48 94 95
3 50 48 95
3 96 97 93
3 96 93 53
3 91 52 93
3 52 53 93
3 91 49 52
3 97 96 98
3 95 99 50
3 99 54 50
3 100 96 53
3 100 53 101
3 101 53 56
3 96 100 98
3 99 102 54
3 102 57 54
3 58 103 104
3 58 104 56
3 56 104 101
3 58 60 103
3 102 105 57
3 105 61 57
3 107 104 103
3 106 107 103
3 103 63 106
3 60 63 103
3 105 108 61
3 108 64 61
3 107 106 109
3 111 65 110
3 109 65 111
3 109 63 65
3 109 106 63
3 110 65 64
3 110 64 112
3 112 64 108
3 114 111 110
3 113 114 110
3 112 115 113
3 110 112 113
3 117 114 113
3 116 117 113
3 115 118 116
3 113 115 116
3 120 117 116
3 119 120 116
3 118 121 119
3 116 118 119
3 123 120 119
3 122 123 119
3 121 124 122
3 119 121 122
3 122 67 68
3 122 68 123
3 123 68 125
3 67 122 124
3 67 124 69
3 69 124 126
3 125 68 127
3 127 68 71
3 126 128 69
3 128 72 69
3 127 71 129
3 129 71 74
3 128 130 72
3 130 75 72
3 77 131 132
3 77 132 74
3 74 132 129
3 131 77 75
3 131 75 133
3 133 75 130
3 131 79 80
3 131 80 132
3 132 80 134
3 79 131 133
3 79 133 81
3 81 133 135
3 136 137 134
3 136 134 82
3 82 134 80
3 137 136 83
3 137 83 135
3 135 83 81
3 85 138 140
3 85 140 82
3 139 136 140
3 136 82 140
3 138 85 83
3 138 83 141
3 136 139 83
3 139 141 83
3 138 87 88
3 138 88 140
3 140 88 142
3 87 138 141
3 87 141 89
3 89 141 143
3 142 88 90
3 144 142 90
3 144 90 89
3 143 144 89
3 92 93 145
3 94 92 145
3 146 94 145
3 94 146 95
3 145 93 97
3 97 98 147
3 97 147 145
3 145 147 146
3 146 147 99
3 95 146 99
3 100 101 148
3 98 100 148
3 98 148 147
3 147 148 149
3 147 149 102
3 99 147 102
3 150 148 101
3 104 150 101
3 148 150 149
3 149 150 151
3 149 151 105
3 102 149 105
3 152 150 104
3 107 152 104
3 150 152 151
3 151 152 153
3 151 153 108
3 105 151 108
3 152 107 109
3 109 111 154
3 109 154 152
3 152 154 153
3 153 154 112
3 108 153 112
3 155 154 111
3 114 155 111
3 154 155 115
3 112 154 115
3 156 155 114
3 117 156 114
3 155 156 118
3 115 155 118
3 157 156 117
3 120 157 117
3 156 157 121
3 118 156 121
3 158 157 120
3 123 158 120
3 157 158 124
3 121 157 124
3 159 158 123
3 125 159 123
3 158 159 126
3 124 158 126
3 160 159 125
3 127 160 125
3 159 160 128
3 126 159 128
3 161 160 127
3 129 161 127
3 160 161 130
3 128 160 130
3 162 161 129
3 132 162 129
3 161 162 133
3 130 161 133
3 163 162 132
3 134 163 132
3 162 163 135
3 133 162 135
3 163 134 137
3 163 137 135
3 139 140 164
3 139 164 141
3 165 164 140
3 142 165 140
3 164 165 143
3 141 164 143
3 165 142 144
3 165 144 143
