ply
format ascii 1.0
element vertex 438
property float x
property float y
property float z
property uchar red
property uchar green
property uchar blue
element face 872
property list uchar int vertex_indices
end_header
-4.06873607635498047 8 -3 0 0 0
-4 7.95369338989257812 -3 0 0 2
-4 8 -3.16187405586242676 0 0 0
-4.19312667846679688 8 -2 1 0 0
-4 7.84913110733032227 -2 0 3 1
-4.03807592391967773 8 -1 3 0 2
-4 7.96348810195922852 -1 4 5 0
-4 8 -0.909170091152191162 0 4 4
-4 8.35488224029541016 -3 1 0 1
-4 8.60726833343505859 -2 0 0 3
-4 8.24220752716064453 -1 0 4 4
-3.03452944755554199 7 -1 4 5 0
-3 6.89814472198486328 -1 0 1 7
-3 7 -1.35753536224365234 4 5 0
-3 7 -0.813805818557739258 0 6 2
-3.43990325927734375 8 -4 0 0 0
-3 7.80395793914794922 -4 0 2 0
-3 8 -4.3816065788269043 0 0 0
-3 7.39156818389892578 -3 3 1 0
-3 7.06965970993041992 -2 4 5 0
-3.55732250213623047 8 0 1 5 0
-3 7.24660730361938477 0 0 6 7
-3 8 0.798335134983062744 4 6 0
-3 8.69107437133789062 -4 0 0 1
-3 8.85227870941162109 -3 0 3 1
-3 8.87862968444824219 -2 3 4 0
-3 8.87032127380371094 -1 5 0 0
-3 8.80110740661621094 0 4 6 0
-2.01447224617004395 -1 -1 8 4 7
-2 -1.22775626182556152 -1 8 4 6
-2 -1 -1.05452263355255127 8 3 5
-2 -1 -0.85124439001083374 8 3 5
-2.08022069931030273 0 -1 8 3 6
-2 0 -1.30234634876251221 8 3 4
-2 0 -0.175350427627563477 9 3 4
-2.14839363098144531 1 -1 8 2 5
-2 1 -1.55958449840545654 8 2 3
-2.05092000961303711 1 0 9 2 5
-2 0.250739574432373047 0 9 3 3
-2 1 0.110165596008300781 9 2 2
-2.21927165985107422 2 -1 8 2 5
-2 2 -1.82757151126861572 8 2 2
-2.12142586708068848 2 0 9 2 4
-2 2 0.262693077325820923 9 1 1
-2.02896380424499512 3 -2 7 1 6
-2 2.61085057258605957 -2 8 2 2
-2 3 -2.04581332206726074 7 1 2
-2.29369044303894043 3 -1 8 1 5
-2.19512009620666504 3 0 9 1 4
-2 3 0.421874642372131348 9 1 1
-2.11062312126159668 4 -2 5 1 7
-2 4 -2.17513918876647949 7 1 3
-2.37458920478820801 4 -1 8 1 6
-2.27406430244445801 4 0 8 0 4
-2 4 0.591020345687866211 9 0 0
-2.21415424346923828 5 -2 1 0 6
-2 5 -2.33990669250488281 6 0 5
-2.47346901893615723 5 -1 6 0 7
-2.36617136001586914 5 0 8 0 7
-2 5 0.781392276287078857 9 0 0
-2.39919519424438477 6 -2 0 5 5
-2 6 -2.63886213302612305 2 0 5
-2.63676595687866211 6 -1 0 1 7
-2.5031745433807373 6 0 3 0 7
-2.01468682289123535 6 1 5 0 7
-2 5.87441253662109375 1 8 0 0
-2 6 1.01720011234283447 8 0 2
-2.33071494102478027 7 -3 3 1 0
-2 6.46919775009155273 -3 2 0 5
-2 7 -3.30476832389831543 2 3 0
-2.91028285026550293 7 -2 4 5 0
-2.8082127571105957 7 0 0 6 7
-2.23502588272094727 7 1 0 2 6
-2 7 1.25588035583496094 7 0 5
-2 7.45759105682373047 -4 2 3 0
-2 8 -4.80390501022338867 0 2 1
-2.8352503776550293 8 1 0 6 0
-2 8 1.73898851871490479 1 0 7
-2 8.83224773406982422 -4 3 2 0
-2 8.90070247650146484 -3 4 3 0
-2 8.91830921173095703 -2 0 5 0
-2 8.91963577270507812 -1 0 6 7
-2 8.90468311309814453 0 0 1 7
-2 8.83761882781982422 1 1 0 7
-1.30074703693389893 -9 -1 8 7 7
-1 -9.59593582153320312 -1 9 7 7
-1 -9 -1.71259224414825439 8 7 7
-1.1457056999206543 -9 0 9 8 8
-1 -9.41761493682861328 0 10 8 8
-1 -9 0.198267966508865356 10 9 9
-1.3783571720123291 -8 -1 8 8 8
-1 -8 -1.89659702777862549 9 8 8
-1.22304713726043701 -8 0 9 9 9
-1 -8 0.303525716066360474 10 10 10
-1.0372689962387085 -7 -2 7 7 7
-1 -7.46257638931274414 -2 9 8 8
-1 -7 -2.03705024719238281 7 7 7
-1.4595646858215332 -7 -1 8 8 8
-1.30396473407745361 -7 0 9 8 8
-1 -7 0.413667142391204834 10 9 9
-1.12132489681243896 -6 -2 7 6 7
-1 -6 -2.12061357498168945 7 7 7
-1.54439473152160645 -6 -1 8 7 7
-1.38848388195037842 -6 0 9 7 8
-1 -6 0.528735816478729248 10 8 8
-1.20895743370056152 -5 -2 7 6 6
-1 -5 -2.2077336311340332 7 6 6
-1.63286495208740234 -5 -1 8 6 7
-1.47662103176116943 -5 0 9 6 7
-1 -5 0.648763895034790039 9 7 7
-1.30017507076263428 -4 -2 7 5 6
-1 -4 -2.29841947555541992 7 5 6
-1.72498822212219238 -4 -1 8 5 7
-1.56838607788085938 -4 0 8 5 7
-1 -4 0.773769497871398926 9 6 6
-1.39499282836914062 -3 -2 7 4 6
-1 -3 -2.3926856517791748 7 4 5
-1.82078325748443604 -3 -1 8 4 7
-1.66379189491271973 -3 0 8 4 7
-1 -3 0.903768181800842285 9 5 6
-1.4934462308883667 -2 -2 7 4 6
-1 -2 -2.49056696891784668 7 4 4
-1.92028844356536865 -2 -1 8 4 6
-1.76286971569061279 -2 0 8 4 6
-1.02799856662750244 -2 1 8 4 6
-1 -2.28679323196411133 1 9 5 7
-1 -2 1.02118182182312012 8 4 5
-1.5956038236618042 -1 -2 8 3 5
-1 -1 -2.59213089942932129 7 3 4
-1.86567938327789307 -1 0 9 3 5
-1.12906622886657715 -1 1 8 3 5
-1 -1 1.09764063358306885 8 3 4
-1.70158684253692627 0 -2 8 3 4
-1 0 -2.69749784469604492 8 3 3
-1.97231900691986084 0 0 9 3 3
-1.23380541801452637 0 1 9 3 3
-1 0 1.17687463760375977 8 2 3
-1.81162691116333008 1 -2 8 2 3
-1 1 -2.80689644813537598 8 2 2
-1.34236454963684082 1 1 9 2 2
-1 1 1.259002685546875 9 2 2
-1.92627310752868652 2 -2 8 2 2
-1 2 -2.92086291313171387 8 2 2
-1.45503783226013184 2 1 9 1 1
-1 2 1.34426569938659668 9 1 1
-1.04026639461517334 3 -3 7 1 2
-1 2.65980339050292969 -3 8 2 2
-1 3 -3.02519607543945312 7 2 2
-1.57256805896759033 3 1 9 1 1
-1 3 1.43325769901275635 9 0 1
-1.17004108428955078 4 -3 7 1 3
-1 4 -3.10612225532531738 6 1 1
-1.69725775718688965 4 1 9 0 0
-1 4 1.52771234512329102 9 0 0
-1.33467197418212891 5 -3 6 0 5
-1 5 -3.20699024200439453 6 1 2
-1.83729493618011475 5 1 8 0 0
-1 5 1.63325119018554688 9 0 0
-1.63311195373535156 6 -3 2 0 5
-1 6 -3.3790280818939209 5 0 4
-1 6 1.76856648921966553 8 0 0
-1 7 -3.81671977043151855 1 0 5
-1 7 1.99001908302307129 8 0 1
-1 7.16725540161132812 -4 1 0 5
-1 8 -4.86001205444335938 3 3 0
-1.60144281387329102 8 2 3 0 8
-1 7.02269744873046875 2 8 0 1
-1 8 2.2901461124420166 8 0 6
-1 8.85602188110351562 -4 0 4 1
-1 8.91544246673583984 -3 0 3 6
-1 8.93191814422607422 -2 2 0 7
-1 8.93541812896728516 -1 7 0 8
-1 8.92891120910644531 0 8 0 6
-1 8.90235710144042969 1 8 0 5
-1 8.73328971862792969 2 8 0 6
-0.708615005016326904 -9 -2 8 7 7
0 -9.59127044677734375 -2 10 7 8
0 -9 -2.29321503639221191 9 7 7
0 -9.77749729156494141 -1 10 8 9
0 -9.73297023773193359 0 11 8 10
0 -9 0.76661837100982666 11 9 10
-0.895168125629425049 -8 -2 9 8 8
0 -8 -2.37036633491516113 9 8 8
0 -8 0.872986793518066406 11 10 10
0 -7 -2.45109939575195312 9 8 8
0 -7 0.984365165233612061 10 10 10
0 -6 -2.53544068336486816 9 8 8
-0.17469140887260437 -6 1 9 8 8
0 -6.86548089981079102 1 10 9 9
0 -6 1.05503308773040771 10 8 8
0 -5 -2.62340712547302246 8 7 7
-0.385111987590789795 -5 1 9 7 7
0 -5 1.12133407592773438 9 7 7
0 -4 -2.71500802040100098 8 6 6
-0.604114055633544922 -4 1 9 6 7
0 -4 1.19035959243774414 9 6 7
0 -3 -2.81025791168212891 8 5 5
-0.831671833992004395 -3 1 9 5 7
0 -3 1.26209878921508789 8 5 7
0 -2 -2.90919303894042969 7 4 4
0 -2 1.33655881881713867 8 4 5
-0.0280222203582525253 -1 -3 7 3 4
0 -1.11544907093048096 -3 7 4 4
0 -1 -3.00731062889099121 7 4 4
0 -1 1.41378521919250488 8 3 4
-0.279220074415206909 0 -3 8 3 3
0 0 -3.07281923294067383 7 3 4
0 0 1.49387717247009277 8 2 3
-0.539931833744049072 1 -3 8 2 2
0 1 -3.14075016975402832 8 3 4
0 1 1.57701790332794189 8 2 2
-0.811448097229003906 2 -3 8 2 2
0 2 -3.21138668060302734 8 2 4
0 2 1.66357696056365967 8 1 1
0 3 -3.28553485870361328 8 2 3
0 3 1.75443840026855469 9 0 1
0 4 -3.36589694023132324 7 1 2
0 4 1.85204076766967773 9 0 0
0 5 -3.46251368522644043 7 1 1
0 5 1.9636986255645752 9 0 0
0 6 -3.61370706558227539 6 0 0
-0.321075975894927979 6 2 8 0 0
0 5.24689054489135742 2 8 0 0
0 6 2.07463693618774414 7 0 0
0 7 -3.95771074295043945 6 0 2
-0.971935510635375977 7 2 8 0 1
0 7 2.2390437126159668 8 0 1
0 7.05173826217651367 -4 6 0 2
0 8 -4.68307256698608398 1 2 5
0 8 2.55862617492675781 9 0 3
0 8.84262943267822266 -4 3 0 6
0 8.91670322418212891 -3 7 0 5
0 8.93529224395751953 -2 8 0 3
0 8.94011878967285156 -1 9 0 2
0 8.93615818023681641 0 9 0 2
0 8.91802978515625 1 9 0 2
0 8.83547496795654297 2 9 0 3
1 -9.39773368835449219 -2 10 7 11
1 -9 -2.13336610794067383 10 7 10
1 -9.73095798492431641 -1 11 8 11
1 -9.66264629364013672 0 11 8 11
1 -9 0.546422004699707031 11 9 10
1 -8 -2.21025753021240234 10 8 9
1 -8 0.652421474456787109 11 10 10
1 -7 -2.29071879386901855 10 9 9
1 -7 0.763462960720062256 10 10 10
1 -6 -2.37477779388427734 9 9 9
0.454805672168731689 -6 1 10 8 8
1 -6 0.879630744457244873 10 9 9
1 -5 -2.46244668960571289 9 8 8
1 -5.00792121887207031 1 9 8 8
1 -5 1.00052595138549805 9 7 7
1 -4 -2.5537254810333252 9 7 7
1 -4 1.06954085826873779 8 6 8
1 -3 -2.64861798286437988 8 5 6
1 -3 1.14125740528106689 8 5 7
1 -2 -2.74715161323547363 8 4 5
1 -2 1.2156749963760376 8 4 6
0.0728304609656333923 -1 -3 8 4 4
1 -1 -2.84939455986022949 8 4 4
1 -1 1.29286015033721924 7 3 4
0.725845515727996826 0 -3 8 3 4
1 0 -2.95546817779541016 8 3 5
1 0 1.37297165393829346 7 2 3
1 0.40509834885597229 -3 8 3 5
1 1 -3.04034042358398438 8 3 6
1 1 1.45631742477416992 7 2 2
1 2 -3.11075854301452637 8 3 7
1 2 1.54353296756744385 8 1 1
1 3 -3.18456077575683594 8 2 7
1 3 1.63612723350524902 8 1 1
1 4 -3.26401543617248535 8 1 6
1 4 1.73810052871704102 8 0 0
1 5 -3.35707855224609375 8 1 4
1 5 1.86068558692932129 8 0 0
1 6 -3.4924929141998291 7 0 1
1 5.80120468139648438 2 7 0 0
1 6 2.02347493171691895 7 0 0
1 7 -3.76802515983581543 7 0 0
1 7 2.22634720802307129 8 0 1
1 7.35723257064819336 -4 7 0 0
1 8 -4.34542608261108398 7 1 5
1 8 2.61477470397949219 9 0 4
1 8.75176715850830078 -4 7 0 3
1 8.90373325347900391 -3 8 0 0
1 8.93032550811767578 -2 9 0 0
1 8.93744564056396484 -1 10 0 0
1 8.93453311920166016 0 10 0 0
1 8.91751003265380859 1 9 0 1
1 8.84236621856689453 2 9 0 4
1.18110787868499756 -9 -2 10 8 10
1.75271224975585938 -9 -1 11 9 11
1.54212665557861328 -9 0 11 9 10
1.28555238246917725 -8 -2 10 9 10
1.85830461978912354 -8 -1 11 10 10
1.64734172821044922 -8 0 11 10 10
1.39488482475280762 -7 -2 10 10 10
1.96894371509552002 -7 -1 11 10 10
1.75761866569519043 -7 0 10 10 10
1.50916576385498047 -6 -2 10 9 9
2 -6.73128795623779297 -1 11 10 10
2 -6 -1.14583742618560791 10 10 10
1.87306702136993408 -6 0 10 9 9
2 -6 -0.600626587867736816 10 9 9
1.6284325122833252 -5 -2 9 8 8
2 -5 -1.35375189781188965 10 8 8
1.9937359094619751 -5 0 10 7 7
2 -5 -0.0296618454158306122 10 8 8
1.00094008445739746 -5 1 9 7 7
1.75269138813018799 -4 -2 9 6 6
2 -4 -1.57014036178588867 9 7 7
2 -4.95009708404541016 0 9 7 8
1.12436592578887939 -4 1 8 6 8
2 -4 0.118338242173194885 9 6 8
1.88193941116333008 -3 -2 9 5 5
2 -3 -1.79492366313934326 9 6 6
1.25278961658477783 -3 1 8 5 7
2 -3 0.24784359335899353 8 5 7
2 -2.12044286727905273 -2 9 6 6
2 -2 -2.01170897483825684 8 5 5
1.38622486591339111 -2 1 8 4 6
2 -2 0.382327377796173096 8 4 5
2 -1 -2.11232519149780273 8 4 5
1.52484548091888428 -1 1 7 3 4
2 -1 0.521978199481964111 7 3 4
2 0 -2.21665763854980469 8 3 5
1.66910171508789062 0 1 7 2 3
2 0 0.667255103588104248 7 2 3
1.08701407909393311 1 -3 8 3 5
2 1 -2.32496857643127441 8 3 6
1.81995511054992676 1 1 7 2 2
2 1 0.819089889526367188 8 2 2
1.23906028270721436 2 -3 9 2 6
2 2 -2.43779301643371582 9 2 7
1.97954773902893066 2 1 8 1 1
2 2 0.979479789733886719 8 1 1
1.3987584114074707 3 -3 9 1 7
2 3 -2.55645060539245605 9 2 8
2 2.11882376670837402 1 7 1 2
2 3 1.08338713645935059 7 1 1
1.57130920886993408 4 -3 9 1 6
2 4 -2.68473005294799805 9 1 8
2 4 1.19151794910430908 7 0 0
1.77368056774139404 5 -3 9 0 4
2 5 -2.83453035354614258 9 1 7
2 5 1.33071696758270264 7 0 0
2 5.79098272323608398 -3 9 1 7
2 6 -3.02730631828308105 8 1 4
1.07285749912261963 6 2 7 0 0
2 6 1.54680800437927246 8 0 0
2 7 -3.26788520812988281 8 0 1
1.86827051639556885 7 2 8 0 1
2 7 1.94633913040161133 9 0 1
1.69622683525085449 8 -4 7 0 3
2 8 -3.81234025955200195 9 1 1
2 7.07464361190795898 2 8 0 4
2 8 2.47069358825683594 9 0 8
2 8.85118865966796875 -3 9 0 0
2 8.91085147857666016 -2 10 0 0
2 8.92473125457763672 -1 10 0 0
2 8.92283248901367188 0 10 0 1
2 8.90185356140136719 1 10 0 3
2 8.79361248016357422 2 9 0 8
2.04640316963195801 -6 -1 10 9 9
2.11259913444519043 -5 -1 10 8 8
2.18155145645141602 -4 -1 9 7 7
2.06548810005187988 -4 0 9 6 8
2.25323605537414551 -3 -1 9 5 6
2.13714218139648438 -3 0 8 5 7
2.0088801383972168 -2 -2 8 5 5
2.32766628265380859 -2 -1 8 4 5
2.21154189109802246 -2 0 8 4 5
2.08520793914794922 -1 -2 8 4 4
2.40493607521057129 -1 -1 8 3 3
2.28880500793457031 -1 0 7 3 4
2.16440892219543457 0 -2 8 3 4
2.48526310920715332 0 -1 8 3 3
2.3692166805267334 0 0 7 2 3
2.24675655364990234 1 -2 8 2 4
2.5690920352935791 1 -1 8 2 2
2.45336627960205078 1 0 8 2 2
2.3328547477722168 2 -2 9 2 5
2.65739774703979492 2 -1 9 2 2
2.54255104064941406 2 0 8 1 1
2.42423892021179199 3 -2 9 1 5
2.75258731842041016 3 -1 9 1 3
2.63994503021240234 3 0 8 1 1
2.08414721488952637 3 1 7 1 1
2.52525758743286133 4 -2 9 1 5
2.86116981506347656 4 -1 9 0 3
2.75397229194641113 4 0 8 0 1
2.19568228721618652 4 1 7 0 0
2.64898180961608887 5 -2 9 0 5
3 4.98886013031005859 -1 8 1 1
3 5 -1.00442671775817871 9 1 4
2.90798139572143555 5 0 8 0 0
3 5 -0.982670724391937256 8 0 1
2.34727621078491211 5 1 7 0 0
2.03360652923583984 6 -3 8 0 4
2.83458852767944336 6 -2 9 0 3
3 6 -1.56774413585662842 9 0 2
3 5.37066030502319336 0 8 0 0
2.60872817039489746 6 1 8 0 0
3 6 0.30580785870552063 8 0 0
2.33164191246032715 7 -3 9 0 1
3 6.48190498352050781 -2 9 0 2
3 7 -2.2087254524230957 9 0 3
3 6.71921539306640625 1 8 0 3
3 7 1.1571887731552124 9 0 5
2.96486759185791016 8 -3 9 0 0
3 8 -2.95949745178222656 10 0 1
3 7.82387781143188477 2 5 0 8
3 8 2.12935304641723633 1 0 9
3 8.83147716522216797 -2 10 0 0
3 8.883697509765625 -1 11 0 0
3 8.8869171142578125 0 10 0 3
3 8.84978008270263672 1 10 0 9
3 8.49020099639892578 2 1 0 9
3.00108742713928223 5 -1 8 0 1
3.15561032295227051 6 -1 9 0 0
3.1165916919708252 6 0 8 0 0
3.13108730316162109 7 -2 9 0 1
3.46929812431335449 7 -1 10 0 0
3.50032758712768555 7 0 9 0 1
3.13217473030090332 7 1 9 0 5
3.66224169731140137 8 -2 10 0 0
4 7.80079174041748047 -1 10 1 2
4 8 -1.28687453269958496 11 1 1
4 7.62265348434448242 0 9 1 6
4 7.87063694000244141 1 4 1 8
3.24454045295715332 8 2 1 0 9
4 8 1.21599948406219482 1 2 10
4 8.50305557250976562 -1 11 1 4
4 8.68023872375488281 0 10 1 10
4 8.45006942749023438 1 1 2 10
4.12166118621826172 8 -1 11 1 4
4.29869270324707031 8 0 10 1 10
4.13696050643920898 8 1 1 2 10
3 2 1 0
3 1 4 3
3 0 1 3
3 4 6 5
3 3 4 5
3 6 7 5
3 2 0 8
3 0 3 9
3 8 0 9
3 3 5 10
3 9 3 10
3 5 7 10
3 13 12 11
3 12 14 11
3 17 16 15
3 2 15 16
3 2 16 1
3 1 16 18
3 18 19 1
3 1 19 4
3 11 19 13
3 11 6 19
3 6 4 19
3 6 20 7
3 11 20 6
3 11 21 20
3 11 14 21
3 21 22 20
3 17 15 23
3 15 2 8
3 15 8 23
3 23 8 24
3 24 8 25
3 8 9 25
3 25 9 26
3 9 10 26
3 7 20 27
3 7 27 10
3 10 27 26
3 20 22 27
3 30 29 28
3 29 31 28
3 33 30 28
3 32 33 28
3 31 34 32
3 28 31 32
3 36 33 32
3 35 36 32
3 34 38 37
3 34 37 32
3 32 37 35
3 38 39 37
3 41 36 35
3 40 41 35
3 35 37 40
3 37 42 40
3 39 43 42
3 37 39 42
3 46 45 44
3 45 41 40
3 45 40 44
3 44 40 47
3 40 42 47
3 42 48 47
3 43 49 48
3 42 43 48
3 51 46 44
3 50 51 44
3 44 47 50
3 47 52 50
3 47 48 52
3 48 53 52
3 49 54 53
3 48 49 53
3 56 51 50
3 55 56 50
3 50 52 55
3 52 57 55
3 52 53 57
3 53 58 57
3 54 59 58
3 53 54 58
3 61 56 55
3 60 61 55
3 55 57 60
3 57 62 60
3 57 58 62
3 58 63 62
3 59 65 64
3 59 64 58
3 58 64 63
3 65 66 64
3 69 68 67
3 68 61 60
3 68 60 67
3 67 60 70
3 13 62 12
3 13 70 62
3 70 60 62
3 12 71 14
3 12 62 71
3 62 63 71
3 63 64 71
3 64 72 71
3 66 73 72
3 64 66 72
3 17 75 74
3 16 17 74
3 67 74 69
3 67 18 74
3 18 16 74
3 70 18 67
3 19 18 70
3 70 13 19
3 71 21 14
3 21 76 22
3 21 71 76
3 71 72 76
3 73 77 76
3 72 73 76
3 75 17 23
3 78 75 23
3 78 23 79
3 23 24 79
3 79 24 80
3 24 25 80
3 80 25 81
3 25 26 81
3 81 26 82
3 26 27 82
3 22 76 83
3 22 83 27
3 27 83 82
3 76 77 83
3 86 85 84
3 85 88 87
3 84 85 87
3 88 89 87
3 91 86 84
3 90 91 84
3 84 87 90
3 87 92 90
3 89 93 92
3 87 89 92
3 96 95 94
3 95 91 90
3 95 90 94
3 94 90 97
3 90 92 97
3 92 98 97
3 93 99 98
3 92 93 98
3 101 96 94
3 100 101 94
3 94 97 100
3 97 102 100
3 97 98 102
3 98 103 102
3 99 104 103
3 98 99 103
3 106 101 100
3 105 106 100
3 100 102 105
3 102 107 105
3 102 103 107
3 103 108 107
3 104 109 108
3 103 104 108
3 111 106 105
3 110 111 105
3 105 107 110
3 107 112 110
3 107 108 112
3 108 113 112
3 109 114 113
3 108 109 113
3 116 111 110
3 115 116 110
3 110 112 115
3 112 117 115
3 112 113 117
3 113 118 117
3 114 119 118
3 113 114 118
3 121 116 115
3 120 121 115
3 115 117 120
3 117 122 120
3 117 118 122
3 118 123 122
3 119 125 124
3 119 124 118
3 118 124 123
3 125 126 124
3 128 121 120
3 127 128 120
3 30 122 29
3 30 127 122
3 127 120 122
3 29 129 31
3 29 122 129
3 122 123 129
3 123 124 129
3 124 130 129
3 126 131 130
3 124 126 130
3 133 128 127
3 132 133 127
3 127 33 132
3 30 33 127
3 134 31 129
3 34 31 134
3 129 130 134
3 130 135 134
3 131 136 135
3 130 131 135
3 138 133 132
3 137 138 132
3 132 36 137
3 33 36 132
3 134 38 34
3 38 139 39
3 38 134 139
3 134 135 139
3 136 140 139
3 135 136 139
3 142 138 137
3 141 142 137
3 137 41 141
3 36 41 137
3 143 39 139
3 43 39 143
3 140 144 143
3 139 140 143
3 147 146 145
3 141 45 46
3 142 141 46
3 142 46 145
3 142 145 146
3 141 41 45
3 148 43 143
3 49 43 148
3 144 149 148
3 143 144 148
3 151 147 145
3 150 151 145
3 145 51 150
3 46 51 145
3 152 49 148
3 54 49 152
3 149 153 152
3 148 149 152
3 155 151 150
3 154 155 150
3 150 56 154
3 51 56 150
3 156 54 152
3 59 54 156
3 153 157 156
3 152 153 156
3 159 155 154
3 158 159 154
3 154 61 158
3 56 61 154
3 156 65 59
3 65 156 157
3 65 157 66
3 66 157 160
3 158 68 69
3 158 69 159
3 159 69 161
3 158 61 68
3 160 162 66
3 162 73 66
3 75 164 163
3 74 75 163
3 163 69 74
3 161 69 163
3 165 162 166
3 165 77 162
3 77 73 162
3 166 167 165
3 164 75 78
3 168 164 78
3 168 78 169
3 78 79 169
3 169 79 170
3 79 80 170
3 170 80 171
3 80 81 171
3 171 81 172
3 81 82 172
3 172 82 173
3 82 83 173
3 77 165 174
3 77 174 83
3 83 174 173
3 165 167 174
3 177 176 175
3 86 175 176
3 86 176 85
3 85 176 178
3 178 179 85
3 85 179 88
3 88 179 180
3 89 88 180
3 182 177 175
3 181 182 175
3 175 91 181
3 86 91 175
3 180 183 89
3 183 93 89
3 181 95 96
3 181 96 182
3 182 96 184
3 181 91 95
3 183 185 93
3 185 99 93
3 184 96 186
3 186 96 101
3 187 185 188
3 187 104 185
3 104 99 185
3 188 189 187
3 186 101 190
3 190 101 106
3 191 104 187
3 109 104 191
3 189 192 191
3 187 189 191
3 190 106 193
3 193 106 111
3 194 109 191
3 114 109 194
3 192 195 194
3 191 192 194
3 193 111 196
3 196 111 116
3 197 114 194
3 119 114 197
3 195 198 197
3 194 195 197
3 196 116 199
3 199 116 121
3 197 125 119
3 125 197 198
3 125 198 126
3 126 198 200
3 203 202 201
3 202 128 201
3 202 199 128
3 199 121 128
3 200 204 126
3 204 131 126
3 206 203 201
3 205 206 201
3 201 133 205
3 128 133 201
3 204 207 131
3 207 136 131
3 209 206 205
3 208 209 205
3 205 138 208
3 133 138 205
3 207 210 136
3 210 140 136
3 212 209 208
3 211 212 208
3 208 142 211
3 138 142 208
3 210 213 140
3 213 144 140
3 211 146 147
3 211 147 212
3 212 147 214
3 211 142 146
3 213 215 144
3 215 149 144
3 214 147 216
3 216 147 151
3 215 217 149
3 217 153 149
3 216 151 218
3 218 151 155
3 217 219 153
3 219 157 153
3 218 155 220
3 220 155 159
3 221 219 222
3 221 160 219
3 160 157 219
3 222 223 221
3 220 159 224
3 224 159 161
3 225 160 221
3 162 160 225
3 223 226 225
3 221 223 225
3 164 228 227
3 163 164 227
3 227 161 163
3 224 161 227
3 225 166 162
3 166 225 226
3 166 226 167
3 167 226 229
3 228 164 168
3 230 228 168
3 230 168 231
3 168 169 231
3 231 169 232
3 169 170 232
3 232 170 233
3 170 171 233
3 233 171 234
3 171 172 234
3 234 172 235
3 172 173 235
3 235 173 236
3 173 174 236
3 236 174 167
3 229 236 167
3 177 238 237
3 176 177 237
3 237 239 176
3 176 239 178
3 239 240 178
3 178 240 179
3 179 240 241
3 180 179 241
3 238 177 242
3 242 177 182
3 241 243 180
3 243 183 180
3 242 182 244
3 244 182 184
3 243 245 183
3 245 185 183
3 244 184 246
3 246 184 186
3 188 248 247
3 188 185 248
3 185 245 248
3 188 247 189
3 246 186 249
3 249 186 190
3 248 250 247
3 247 250 251
3 247 251 189
3 189 251 192
3 249 190 252
3 252 190 193
3 251 253 192
3 253 195 192
3 252 193 254
3 254 193 196
3 253 255 195
3 255 198 195
3 254 196 256
3 256 196 199
3 255 257 198
3 257 200 198
3 202 203 258
3 258 199 202
3 258 259 199
3 259 256 199
3 257 260 200
3 260 204 200
3 261 258 203
3 206 261 203
3 259 261 262
3 258 261 259
3 260 263 204
3 263 207 204
3 264 261 206
3 264 206 265
3 265 206 209
3 261 264 262
3 263 266 207
3 266 210 207
3 265 209 267
3 267 209 212
3 266 268 210
3 268 213 210
3 267 212 269
3 269 212 214
3 268 270 213
3 270 215 213
3 269 214 271
3 271 214 216
3 270 272 215
3 272 217 215
3 271 216 273
3 273 216 218
3 272 274 217
3 274 219 217
3 273 218 275
3 275 218 220
3 274 222 219
3 276 222 274
3 222 276 277
3 223 222 277
3 275 220 278
3 278 220 224
3 277 279 223
3 279 226 223
3 228 281 280
3 227 228 280
3 280 224 227
3 278 224 280
3 279 282 226
3 282 229 226
3 281 228 230
3 283 281 230
3 283 230 284
3 230 231 284
3 284 231 285
3 231 232 285
3 285 232 286
3 232 233 286
3 286 233 287
3 233 234 287
3 287 234 288
3 234 235 288
3 288 235 289
3 235 236 289
3 289 236 229
3 282 289 229
3 237 238 290
3 239 237 290
3 291 239 290
3 240 239 291
3 292 240 291
3 240 292 241
3 293 290 238
3 242 293 238
3 290 293 291
3 291 293 294
3 291 294 292
3 292 294 295
3 292 295 243
3 241 292 243
3 296 293 242
3 244 296 242
3 293 296 294
3 294 296 297
3 294 297 295
3 295 297 298
3 295 298 245
3 243 295 245
3 299 296 244
3 246 299 244
3 300 299 301
3 300 297 299
3 297 296 299
3 303 297 300
3 303 302 297
3 302 298 297
3 298 302 248
3 245 298 248
3 304 299 246
3 249 304 246
3 301 304 305
3 299 304 301
3 307 302 303
3 306 302 307
3 250 248 302
3 250 302 308
3 308 302 306
3 250 308 251
3 309 304 249
3 252 309 249
3 305 309 310
3 304 309 305
3 307 311 306
3 313 306 311
3 313 312 306
3 312 308 306
3 308 312 253
3 251 308 253
3 314 309 252
3 254 314 252
3 310 314 315
3 309 314 310
3 317 312 313
3 316 312 317
3 312 316 255
3 253 312 255
3 318 314 254
3 318 254 319
3 319 254 256
3 314 318 315
3 321 316 317
3 320 316 321
3 316 320 257
3 255 316 257
3 319 256 322
3 322 256 259
3 324 320 321
3 323 320 324
3 320 323 260
3 257 320 260
3 322 259 325
3 325 259 262
3 327 323 324
3 326 323 327
3 323 326 263
3 260 323 263
3 264 265 328
3 328 262 264
3 328 329 262
3 329 325 262
3 331 326 327
3 330 326 331
3 326 330 266
3 263 326 266
3 332 328 265
3 267 332 265
3 329 332 333
3 328 332 329
3 335 330 331
3 334 330 335
3 330 334 268
3 266 330 268
3 336 332 267
3 269 336 267
3 333 336 337
3 332 336 333
3 335 338 334
3 334 338 339
3 334 339 268
3 268 339 270
3 340 336 269
3 271 340 269
3 337 340 341
3 336 340 337
3 339 342 270
3 342 272 270
3 343 340 271
3 273 343 271
3 341 343 344
3 340 343 341
3 342 345 272
3 345 274 272
3 346 343 273
3 346 273 347
3 347 273 275
3 343 346 344
3 276 349 348
3 276 274 349
3 274 345 349
3 276 348 277
3 347 275 350
3 350 275 278
3 352 348 349
3 351 348 352
3 348 351 279
3 277 348 279
3 280 281 353
3 353 278 280
3 353 354 278
3 354 350 278
3 352 355 351
3 351 355 356
3 351 356 279
3 279 356 282
3 353 281 283
3 354 353 283
3 354 283 357
3 357 283 284
3 357 284 358
3 284 285 358
3 358 285 359
3 285 286 359
3 359 286 360
3 286 287 360
3 360 287 361
3 287 288 361
3 361 288 362
3 288 289 362
3 362 289 282
3 356 362 282
3 300 301 363
3 300 363 303
3 364 363 301
3 305 364 301
3 363 364 307
3 303 363 307
3 365 364 305
3 310 365 305
3 311 307 364
3 311 364 366
3 366 364 365
3 311 366 313
3 367 365 310
3 315 367 310
3 365 367 366
3 366 367 368
3 366 368 317
3 313 366 317
3 318 319 369
3 315 318 369
3 315 369 367
3 367 369 370
3 367 370 368
3 368 370 371
3 368 371 321
3 317 368 321
3 372 369 319
3 322 372 319
3 369 372 370
3 370 372 373
3 370 373 371
3 371 373 374
3 371 374 324
3 321 371 324
3 375 372 322
3 325 375 322
3 372 375 373
3 373 375 376
3 373 376 374
3 374 376 377
3 374 377 327
3 324 374 327
3 378 375 325
3 329 378 325
3 375 378 376
3 376 378 379
3 376 379 377
3 377 379 380
3 377 380 331
3 327 377 331
3 381 378 329
3 333 381 329
3 378 381 379
3 379 381 382
3 379 382 380
3 380 382 383
3 380 383 335
3 331 380 335
3 384 381 333
3 337 384 333
3 381 384 382
3 382 384 385
3 382 385 383
3 383 385 386
3 338 335 383
3 338 383 387
3 387 383 386
3 338 387 339
3 388 384 337
3 341 388 337
3 384 388 385
3 385 388 389
3 385 389 386
3 386 389 390
3 386 390 387
3 387 390 391
3 387 391 342
3 339 387 342
3 392 388 341
3 344 392 341
3 393 392 394
3 393 389 392
3 389 388 392
3 396 389 393
3 396 395 389
3 395 390 389
3 390 395 391
3 391 395 397
3 391 397 345
3 342 391 345
3 346 347 398
3 344 346 398
3 344 398 392
3 392 398 399
3 394 399 400
3 392 399 394
3 396 401 395
3 403 395 401
3 403 402 395
3 402 397 395
3 397 402 349
3 345 397 349
3 404 398 347
3 350 404 347
3 405 404 406
3 405 399 404
3 399 398 404
3 399 405 400
3 403 407 402
3 402 407 408
3 402 408 349
3 349 408 352
3 409 404 350
3 354 409 350
3 406 409 410
3 404 409 406
3 408 355 352
3 411 355 408
3 355 411 412
3 356 355 412
3 409 354 357
3 410 409 357
3 410 357 413
3 413 357 358
3 413 358 414
3 358 359 414
3 414 359 415
3 359 360 415
3 415 360 416
3 360 361 416
3 416 361 417
3 361 362 417
3 417 362 356
3 412 417 356
3 393 394 418
3 393 418 396
3 419 418 394
3 400 419 394
3 401 396 418
3 401 418 420
3 420 418 419
3 401 420 403
3 405 406 421
3 400 405 421
3 400 421 419
3 419 421 422
3 419 422 420
3 420 422 423
3 407 403 420
3 407 420 424
3 424 420 423
3 407 424 408
3 425 421 406
3 410 425 406
3 426 425 427
3 426 422 425
3 422 421 425
3 422 428 423
3 426 428 422
3 423 429 424
3 428 429 423
3 431 430 411
3 429 431 411
3 429 411 408
3 429 408 424
3 411 430 412
3 425 410 413
3 427 425 413
3 427 413 432
3 432 413 414
3 432 414 433
3 414 415 433
3 433 415 434
3 415 416 434
3 430 431 434
3 430 434 417
3 417 434 416
3 430 417 412
3 426 427 435
3 428 426 435
3 436 428 435
3 429 428 436
3 437 429 436
3 429 437 431
3 435 427 432
3 436 435 432
3 433 436 432
3 437 436 433
3 434 437 433
3 437 434 431
