ply
format ascii 1.0
element vertex 420
property float x
property float y
property float z
property uchar red
property uchar green
property uchar blue
element face 836
property list uchar int vertex_indices
end_header
-6.00269794464111328 8 -2 158 161 105
-6 7.99739789962768555 -2 105 109 56
-6 8 -2.01022219657897949 152 142 94
-6.12922763824462891 8 -1 160 160 102
-6 7.88332843780517578 -1 104 107 53
-6.12391424179077148 8 0 161 160 103
-6 7.88797950744628906 0 106 108 54
-6 8 0.898495614528656006 148 130 82
-6 8.04384708404541016 -2 148 134 85
-6 8.6767578125 -1 147 130 81
-6 8.66776084899902344 0 148 130 82
-5.11140918731689453 8 -4 159 154 108
-5 7.91437482833862305 -4 109 109 61
-5 8 -4.16360044479370117 156 146 111
-5.62375402450561523 8 -3 152 142 94
-5 7.59965848922729492 -3 103 103 51
-5 7.41423320770263672 -2 99 99 45
-5 7.32626962661743164 -1 97 96 42
-5 7.330474853515625 0 98 96 43
-5.97888326644897461 8 1 151 134 87
-5 7.42962121963500977 1 101 98 47
-5.58116579055786133 8 2 156 141 98
-5 7.62716579437255859 2 106 102 54
-5.05767297744750977 8 3 163 153 113
-5 7.95567178726196289 3 112 107 65
-5 8 3.08257222175598145 152 129 97
-5 8.60361099243164062 -4 148 130 92
-5 8.88039970397949219 -3 142 120 79
-5 8.91518020629882812 -2 138 113 71
-5 8.92511844635009766 -1 136 110 68
-5 8.92471218109130859 0 137 110 68
-5 8.91323566436767578 1 140 113 73
-5 8.87298011779785156 2 145 118 83
-5 8.44147205352783203 3 152 129 97
-4.08111381530761719 7 -2 99 99 45
-4 6.95447635650634766 -2 50 54 21
-4 7 -2.18924427032470703 95 91 45
-4.28960609436035156 7 -1 97 96 42
-4 6.82711935043334961 -1 49 52 19
-4.27832603454589844 7 0 98 96 43
-4 6.83443403244018555 0 50 52 19
-4.04210233688354492 7 1 101 98 47
-4 6.97648429870605469 1 53 55 22
-4 7 1.09186863899230957 92 85 40
-4.26770877838134766 8 -5 156 146 111
-4 7.84129571914672852 -5 109 105 68
-4 8 -5.24468851089477539 159 148 125
-4 7.44064474105834961 -4 101 97 54
-4 7.16044521331787109 -3 95 91 45
-4 7.19076061248779297 2 97 89 47
-4 7.4821014404296875 3 104 95 57
-4.17563915252685547 8 4 161 145 118
-4 7.8961338996887207 4 112 103 73
-4 8 4.1571807861328125 152 127 107
-4 8.73999309539794922 -5 148 128 101
-4 8.91147899627685547 -4 140 114 83
-4 8.93788528442382812 -3 134 105 71
-4 8.947418212890625 -2 130 99 63
-4 8.950897216796875 -1 128 96 60
-4 8.95070838928222656 0 129 95 60
-4 8.94664573669433594 1 132 98 65
-4 8.93594837188720703 2 137 103 74
-4 8.90546226501464844 3 143 112 87
-4 8.651702880859375 4 152 127 107
-3.56933188438415527 7 -3 95 91 45
-3 6.72163057327270508 -3 53 52 23
-3 7 -3.69142293930053711 96 87 51
-3 6.3696141242980957 -2 48 46 19
-3 6.15240812301635742 -1 46 42 17
-3 6.16293859481811523 0 45 41 17
-3 6.3980107307434082 1 48 44 19
-3.48478865623474121 7 2 97 89 47
-3 6.76380062103271484 2 53 51 24
-3 7 2.56195807456970215 91 77 44
-3 7.47420930862426758 -5 103 96 64
-3 8 -5.99060440063476562 153 136 120
-3 7.09559345245361328 -4 96 87 51
-3 7.14104604721069336 3 97 84 53
-3 7.52993345260620117 4 106 93 68
-3 8 4.86713075637817383 145 115 102
-3 8.90631580352783203 -5 143 117 96
-3 8.94154453277587891 -4 135 104 79
-3 8.95334720611572266 -3 129 95 67
-3 8.95861911773681641 -2 125 89 60
-3 8.96071815490722656 -1 122 85 56
-3 8.96055507659912109 0 122 84 57
-3 8.95811367034912109 1 125 87 61
-3 8.95224475860595703 2 130 92 70
-3 8.93897151947021484 3 137 101 83
-3 8.89693450927734375 4 145 115 102
-2.11049890518188477 5 -1 11 10 3
-2 4.57014751434326172 -1 25 15 9
-2 5 -1.28892397880554199 9 7 3
-2.1008903980255127 5 0 10 9 3
-2 4.60533952713012695 0 26 14 9
-2 5 0.250441312789916992 6 4 2
-2.40670919418334961 6 -2 48 46 19
-2 5.46238183975219727 -2 9 7 3
-2 6 -2.53024125099182129 48 43 22
-2.77757573127746582 6 -1 46 42 17
-2.76269102096557617 6 0 45 41 17
-2.36221194267272949 6 1 48 44 19
-2 5.51715564727783203 1 8 6 3
-2 6 1.45406866073608398 43 35 18
-2.64692544937133789 7 -4 96 87 51
-2 6.77741098403930664 -4 55 52 28
-2 7 -4.42893075942993164 100 90 64
-2 6.23344516754150391 -3 48 43 22
-2 6.28279924392700195 2 48 41 23
-2.47486472129821777 7 3 97 84 53
-2 6.83712434768676758 3 55 50 30
-2 7 3.3027186393737793 93 76 53
-2.98294162750244141 8 -6 153 136 120
-2 7.70905017852783203 -6 109 101 82
-2 8 -6.39003515243530273 161 156 152
-2 7.22886371612548828 -5 100 90 64
-2 7.28795242309570312 4 101 87 67
-2.75173425674438477 8 5 156 137 127
-2 7.77942228317260742 5 112 100 87
-2 8 5.29207944869995117 151 131 127
-2 8.84094905853271484 -6 149 130 120
-2 8.93330287933349609 -5 139 111 97
-2 8.95223331451416016 -4 131 97 80
-2 8.96013259887695312 -3 125 88 68
-2 8.96398735046386719 -2 121 81 61
-2 8.96558475494384766 -1 118 77 57
-2 8.96545505523681641 0 118 76 57
-2 8.96358680725097656 1 121 79 61
-2 8.95931434631347656 2 125 85 70
-2 8.95050716400146484 3 132 95 83
-2 8.92863655090332031 4 141 109 101
-2 8.80149650573730469 5 151 131 127
-1.24593567848205566 2 -1 83 31 29
-1 1.47397994995117188 -1 111 67 45
-1 2 -1.39874625205993652 84 40 34
-1.23690116405487061 2 0 84 30 30
-1 1.49314212799072266 0 112 69 45
-1 2 0.373027980327606201 87 49 34
-1.55359995365142822 3 -1 56 25 19
-1 3 -1.89584505558013916 56 23 22
-1.54375791549682617 3 0 56 25 19
-1 3 0.852818191051483154 59 27 22
-1.17379570007324219 4 -2 23 15 8
-1 3.2837224006652832 -2 56 23 22
-1 4 -2.13901734352111816 21 14 9
-1.79303359985351562 4 -1 25 15 9
-1.78142368793487549 4 0 26 14 9
-1.13909542560577393 4 1 24 15 9
-1 3.4184873104095459 1 57 25 23
-1 4 1.10880470275878906 27 13 11
-1.56187343597412109 5 -2 9 7 3
-1 5 -2.45029711723327637 11 8 5
-1.51515257358551025 5 1 8 6 3
-1 5 1.40192735195159912 5 3 2
-1.41101944446563721 6 -3 48 43 22
-1 5.68532371520996094 -3 11 8 5
-1 6 -3.22253990173339844 52 47 29
-1.28949594497680664 6 2 48 41 23
-1 5.77561759948730469 2 10 7 5
-1 6 2.15241575241088867 45 35 23
-1 6.51831531524658203 -4 52 47 29
-1 7 -4.82421541213989258 98 86 67
-1 6.58374500274658203 3 52 44 30
-1 7 3.68581628799438477 90 71 55
-1 7.55055093765258789 -6 107 99 85
-1 8 -6.65824985504150391 158 157 156
-1 7.07423686981201172 -5 98 86 67
-1 7.13674592971801758 4 98 83 69
-1 7.62252902984619141 5 109 98 89
-1 8 5.54566812515258789 148 132 130
-1 8.89197063446044922 -6 147 130 125
-1 8.942657470703125 -5 137 109 101
-1 8.95684909820556641 -4 129 95 84
-1 8.96332836151123047 -3 123 84 72
-1 8.96661376953125 -2 119 77 65
-1 8.96799945831298828 -1 116 73 61
-1 8.96789360046386719 0 116 72 61
-1 8.96625614166259766 1 118 75 65
-1 8.96262168884277344 2 122 82 73
-1 8.95541954040527344 3 129 92 86
-1 8.93918228149414062 4 138 108 105
-1 8.87484359741210938 5 148 132 130
-0.417781829833984375 1 -1 111 67 45
0 0.762191236019134521 -1 135 100 63
0 1 -1.25473630428314209 110 74 51
-0.394364118576049805 1 0 112 69 45
0 0.775517165660858154 0 135 102 64
0 1 0.233714580535888672 113 84 50
-0.0162789598107337952 2 -2 84 40 34
0 1.98698079586029053 -2 110 74 51
0 2 -2.00487804412841797 80 42 39
0 2 0.966898441314697266 88 61 38
-0.828519284725189209 3 -2 56 23 22
0 3 -2.24738097190856934 53 27 25
-0.750371813774108887 3 1 57 25 23
0 2.07109260559082031 1 86 57 39
0 3 1.21994113922119141 58 34 26
0 4 -2.4366152286529541 22 14 11
0 4 1.40043389797210693 28 13 13
0 5 -2.74427342414855957 10 7 5
0 5 1.68922317028045654 4 2 2
0 5.34839105606079102 -3 10 7 5
0 6 -3.4174344539642334 52 44 32
0 5.44085073471069336 2 9 6 4
0 6 2.34316444396972656 44 32 25
0 6.41009140014648438 -4 52 44 32
0 7 -4.95894765853881836 97 85 72
0 6.47825765609741211 3 51 42 32
0 7 3.8153376579284668 89 70 60
0 7.49744844436645508 -6 107 99 91
0 8 -6.7591547966003418 158 152 151
0 7.01775360107421875 -5 97 85 72
0 7.0823512077331543 4 97 82 74
0 7.57093286514282227 5 108 99 94
0 8 5.63971424102783203 147 138 138
0 8.90247249603271484 -6 146 134 133
0 8.94525718688964844 -5 136 112 108
0 8.95823955535888672 -4 128 96 91
0 8.96432876586914062 -3 122 85 79
0 8.96745109558105469 -2 118 77 71
0 8.96877574920654297 -1 116 73 68
0 8.96867656707763672 0 115 72 68
0 8.96711254119873047 1 117 75 72
0 8.96364021301269531 2 121 82 80
0 8.95686912536621094 3 128 94 93
0 8.94202804565429688 4 137 112 112
0 8.88846206665039062 5 147 138 138
0.656054198741912842 1 -1 113 83 50
0.61931002140045166 1 0 113 84 50
0.0251693092286586761 2 -2 85 53 38
1 1.18099784851074219 -1 113 90 55
1 2 -1.61346983909606934 85 59 42
1 1.20034468173980713 0 113 91 56
1 2 0.581736922264099121 88 67 42
1 2.79527592658996582 -2 85 59 42
1 3 -2.05039405822753906 52 29 28
1 2.88861560821533203 1 86 63 44
1 3 1.02677822113037109 58 38 29
1 4 -2.2347409725189209 22 13 12
1 4 1.20296657085418701 27 16 14
1 5 -2.53648066520690918 11 7 6
1 5 1.48683881759643555 5 3 2
1 5.60164117813110352 -3 11 7 6
1 6 -3.26956582069396973 52 44 36
1 5.6937861442565918 2 9 6 5
1 6 2.19835805892944336 45 33 28
1 6.49807167053222656 -4 52 44 36
1 7 -4.8412318229675293 98 87 79
1 6.56599903106689453 3 52 42 36
1 7 3.69861364364624023 89 72 66
1 7.5438380241394043 -6 108 102 99
1 8 -6.67715549468994141 159 143 141
1 7.0676112174987793 -5 98 87 79
1 7.13243484497070312 4 98 85 81
1 7.61793899536132812 5 108 103 102
1 8 5.56027936935424805 148 147 147
1 8.89371871948242188 -6 147 144 144
1 8.94298458099365234 -5 137 119 119
1 8.95701789855957031 -4 129 102 101
1 8.96346282958984375 -3 123 89 88
1 8.96673774719238281 -2 119 81 81
1 8.96812057495117188 -1 117 77 77
1 8.96801567077636719 0 116 78 77
1 8.96637725830078125 1 118 82 80
1 8.96271038055419922 2 122 91 89
1 8.95551776885986328 3 129 105 102
1 8.93938636779785156 4 137 124 122
1 8.87654495239257812 5 148 147 147
1.43705296516418457 2 -1 87 66 42
1.42665731906890869 2 0 88 67 42
1.07229757308959961 3 -2 57 35 28
1.78281176090240479 3 -1 59 40 28
1.7716299295425415 3 0 60 41 29
1.03916347026824951 3 1 58 38 29
1.33349227905273438 4 -2 26 14 13
2 3.85190176963806152 -1 57 40 31
2 4 -1.05633389949798584 24 14 14
2 3.89963865280151367 0 58 41 32
1.29465067386627197 4 1 27 16 14
2 4 0.0366013497114181519 27 17 15
1.75051224231719971 5 -2 6 3 3
2 5 -1.64100861549377441 8 5 5
1.69940042495727539 5 1 5 3 2
2 5 0.587137520313262939 5 3 3
1.54301154613494873 6 -3 46 35 28
2 5.25490808486938477 -2 8 5 5
2 6 -2.66867995262145996 48 38 33
2 5.31078004837036133 1 7 4 4
1.41025185585021973 6 2 45 33 28
2 6 1.58766734600067139 43 30 28
2 6.75144290924072266 -4 54 47 41
2 7 -4.46198606491088867 100 92 89
2 6.17329502105712891 -3 48 38 33
2 6.22586202621459961 2 47 36 33
2 6.81656026840209961 3 54 46 42
2 7 3.32749104499816895 91 77 75
2 7.6936492919921875 -6 110 110 110
2 8 -6.42369890213012695 161 130 130
2 7.2183380126953125 -5 100 92 89
2 7.28173732757568359 4 100 92 91
2 7.76760673522949219 5 110 108 108
2 8 5.31810331344604492 150 140 137
2 8.84897613525390625 -6 149 141 140
2 8.93417453765869141 -5 139 133 132
2 8.95259666442871094 -4 132 115 113
2 8.96039867401123047 -3 126 103 100
2 8.96422863006591797 -2 121 95 92
2 8.9658203125 -1 119 91 88
2 8.96569156646728516 0 119 92 88
2 8.96378898620605469 1 120 96 92
2 8.95947265625 2 124 104 100
2 8.95070362091064453 3 131 118 115
2 8.92921829223632812 4 139 136 135
2 8.81122398376464844 5 150 140 137
2.02318382263183594 4 -1 27 17 15
2.0156400203704834 4 0 27 17 15
2.26177024841308594 5 -1 6 3 3
2.25176668167114258 5 0 5 3 3
2.5389866828918457 6 -2 44 32 28
2.92943620681762695 6 -1 41 28 26
2.91413211822509766 6 0 41 28 26
2.49216222763061523 6 1 43 30 28
2.70580697059631348 7 -4 92 79 74
3 6.67918157577514648 -3 52 44 40
3 7 -3.7487645149230957 95 87 85
3 6.29237794876098633 -2 47 38 35
3 6.04932355880737305 -1 45 34 32
3 6.06017303466796875 0 45 34 32
3 6.32439851760864258 1 46 36 34
3 6.72800111770629883 2 51 42 40
2.5176081657409668 7 3 91 77 75
3 7 2.60481667518615723 88 75 74
3 7.97063398361206055 -6 113 105 103
3 8 -6.03527355194091797 165 120 118
3 7.46043109893798828 -5 103 102 101
3 7.07998132705688477 -4 95 87 85
3 7.13109588623046875 3 95 87 86
3 7.52157068252563477 4 104 103 103
2.84233665466308594 8 5 150 140 137
3 8 4.91732978820800781 143 138 134
3 8.34403228759765625 -6 153 134 130
3 8.90912055969238281 -5 143 139 138
3 8.94226455688476562 -4 135 130 129
3 8.95375728607177734 -3 129 118 115
3 8.95896053314208984 -2 125 110 106
3 8.9610443115234375 -1 123 106 102
3 8.96086311340332031 0 122 107 101
3 8.95833587646484375 1 124 110 106
3 8.95243930816650391 2 128 119 115
3 8.93935585021972656 3 135 132 130
3 8.8992462158203125 4 143 138 134
3.61899137496948242 7 -3 89 76 74
4 6.92450523376464844 -2 53 46 44
4 7 -2.29076957702636719 94 88 88
4 6.78353691101074219 -1 50 42 41
4 6.79379081726074219 0 50 42 41
4 6.9542384147644043 1 52 45 43
3.522491455078125 7 2 88 75 74
4 7 1.16490828990936279 89 80 80
3.06425809860229492 8 -6 153 134 130
4 7.81187582015991211 -5 108 100 100
4 8 -5.31152725219726562 158 128 118
4 7.42745733261108398 -4 100 100 100
4 7.14529991149902344 -3 94 88 88
4 7.18189907073974609 2 94 89 88
4 7.47503805160522461 3 101 100 100
4 7.87140750885009766 4 109 100 99
4 8 4.20958852767944336 149 136 124
4 8.77557659149169922 -5 148 134 127
4 8.91397857666015625 -4 140 135 133
4 8.93868923187255859 -3 134 133 133
4 8.94790172576904297 -2 130 126 123
4 8.95130443572998047 -1 128 122 119
4 8.95099735260009766 0 127 122 119
4 8.94681167602539062 1 129 125 123
4 8.93631172180175781 2 134 134 134
4 8.90728569030761719 3 140 135 130
4 8.70370864868164062 4 149 136 124
4.12459135055541992 7 -2 90 80 80
4.33238792419433594 7 -1 88 76 76
4.31597757339477539 7 0 88 76 76
4.07544803619384766 7 1 89 80 80
4.34692239761352539 8 -5 148 134 127
5 7.87813854217529297 -4 107 97 96
5 8 -4.25618314743041992 155 130 115
5 7.58465957641601562 -3 101 97 97
5 7.40416955947875977 -2 97 97 97
5 7.3170475959777832 -1 94 93 93
5 7.32504558563232422 0 94 93 92
5 7.42570638656616211 1 97 96 96
5 7.61791229248046875 2 101 97 96
5 7.92374944686889648 3 108 98 95
4.23866176605224609 8 4 149 136 124
5 8 3.15663266181945801 148 135 120
5 8.69141960144042969 -4 147 133 122
5 8.88599014282226562 -3 141 133 126
5 8.91703319549560547 -2 137 132 128
5 8.92615604400634766 -1 134 131 129
5 8.92539882659912109 0 134 131 128
5 8.91431713104248047 1 136 132 127
5 8.87758541107177734 2 141 133 124
5 8.58456707000732422 3 148 135 120
5.17731475830078125 8 -4 147 133 122
5.70284175872802734 8 -3 141 133 126
6 7.95323276519775391 -2 105 94 91
6 8 -2.20766854286193848 149 133 113
6 7.85399913787841797 -1 103 94 91
6 7.86132717132568359 0 103 94 91
6 7.97270917892456055 1 106 95 91
5.64929962158203125 8 2 141 133 124
6 8 1.11498391628265381 145 134 115
5.11146259307861328 8 3 148 135 120
6 8.46269893646240234 -2 145 133 116
6 8.73118114471435547 -1 143 132 117
6 8.72098541259765625 0 142 132 116
6 8.33469772338867188 1 145 134 115
6.05565357208251953 8 -2 145 133 116
6.18399429321289062 8 -1 143 132 117
6.17511701583862305 8 0 142 132 116
6.0325469970703125 8 1 145 134 115
3 2 1 0
3 1 4 3
3 0 1 3
3 4 6 5
3 3 4 5
3 6 7 5
3 2 0 8
3 0 3 9
3 8 0 9
3 3 5 10
3 9 3 10
3 5 7 10
3 13 12 11
3 12 15 14
3 11 12 14
3 2 14 15
3 2 15 1
3 1 15 16
3 16 17 1
3 1 17 4
3 17 18 4
3 4 18 6
3 19 7 6
3 19 6 20
3 20 6 18
3 20 22 21
3 19 20 21
3 22 24 23
3 21 22 23
3 24 25 23
3 13 11 26
3 11 14 27
3 26 11 27
3 14 2 8
3 14 8 27
3 27 8 28
3 28 8 29
3 8 9 29
3 29 9 30
3 9 10 30
3 7 19 31
3 7 31 10
3 10 31 30
3 19 21 32
3 31 19 32
3 21 23 33
3 32 21 33
3 23 25 33
3 36 35 34
3 35 38 37
3 34 35 37
3 38 40 39
3 37 38 39
3 40 42 41
3 39 40 41
3 42 43 41
3 46 45 44
3 13 44 45
3 13 45 12
3 12 45 47
3 47 48 12
3 12 48 15
3 34 48 36
3 34 16 48
3 16 15 48
3 37 16 34
3 17 16 37
3 39 17 37
3 18 17 39
3 41 18 39
3 20 18 41
3 43 20 41
3 43 49 20
3 49 22 20
3 49 50 22
3 22 50 24
3 51 25 24
3 51 24 52
3 52 24 50
3 52 53 51
3 46 44 54
3 44 13 26
3 44 26 54
3 54 26 55
3 55 26 56
3 26 27 56
3 56 27 57
3 27 28 57
3 57 28 58
3 28 29 58
3 58 29 59
3 29 30 59
3 59 30 60
3 30 31 60
3 60 31 61
3 31 32 61
3 61 32 62
3 32 33 62
3 25 51 63
3 25 63 33
3 33 63 62
3 51 53 63
3 66 65 64
3 36 64 65
3 36 65 35
3 35 65 67
3 67 68 35
3 35 68 38
3 68 69 38
3 38 69 40
3 69 70 40
3 40 70 42
3 71 43 42
3 71 42 72
3 72 42 70
3 72 73 71
3 46 75 74
3 45 46 74
3 74 76 45
3 45 76 47
3 64 76 66
3 64 48 76
3 48 47 76
3 64 36 48
3 71 49 43
3 73 49 71
3 73 77 49
3 77 50 49
3 77 78 50
3 50 78 52
3 52 78 79
3 53 52 79
3 75 46 54
3 80 75 54
3 80 54 81
3 54 55 81
3 81 55 82
3 55 56 82
3 82 56 83
3 56 57 83
3 83 57 84
3 57 58 84
3 84 58 85
3 58 59 85
3 85 59 86
3 59 60 86
3 86 60 87
3 60 61 87
3 87 61 88
3 61 62 88
3 88 62 89
3 62 63 89
3 89 63 53
3 79 89 53
3 92 91 90
3 91 94 93
3 90 91 93
3 94 95 93
3 98 97 96
3 97 92 90
3 97 90 96
3 96 90 99
3 90 93 99
3 93 100 99
3 95 102 101
3 95 101 93
3 93 101 100
3 102 103 101
3 106 105 104
3 66 104 105
3 66 105 65
3 65 105 107
3 96 107 98
3 96 67 107
3 67 65 107
3 99 67 96
3 68 67 99
3 100 68 99
3 69 68 100
3 101 69 100
3 70 69 101
3 103 70 101
3 103 108 70
3 108 72 70
3 109 73 72
3 109 72 110
3 110 72 108
3 110 111 109
3 114 113 112
3 75 112 113
3 75 113 74
3 74 113 115
3 104 115 106
3 104 76 115
3 76 74 115
3 104 66 76
3 109 77 73
3 111 77 109
3 111 116 77
3 116 78 77
3 117 79 78
3 117 78 118
3 118 78 116
3 118 119 117
3 114 112 120
3 112 75 80
3 112 80 120
3 120 80 121
3 121 80 122
3 80 81 122
3 122 81 123
3 81 82 123
3 123 82 124
3 82 83 124
3 124 83 125
3 83 84 125
3 125 84 126
3 84 85 126
3 126 85 127
3 85 86 127
3 127 86 128
3 86 87 128
3 128 87 129
3 87 88 129
3 129 88 130
3 88 89 130
3 79 117 131
3 79 131 89
3 89 131 130
3 117 119 131
3 134 133 132
3 133 136 135
3 132 133 135
3 136 137 135
3 139 134 132
3 138 139 132
3 132 135 138
3 135 140 138
3 137 141 140
3 135 137 140
3 144 143 142
3 143 139 138
3 143 138 142
3 142 138 145
3 138 140 145
3 140 146 145
3 141 148 147
3 141 147 140
3 140 147 146
3 148 149 147
3 151 144 142
3 150 151 142
3 92 145 91
3 92 150 145
3 150 142 145
3 146 91 145
3 94 91 146
3 94 152 95
3 94 146 152
3 146 147 152
3 149 153 152
3 147 149 152
3 156 155 154
3 150 97 98
3 151 150 98
3 151 98 154
3 151 154 155
3 150 92 97
3 152 102 95
3 102 157 103
3 152 157 102
3 152 158 157
3 152 153 158
3 158 159 157
3 106 161 160
3 105 106 160
3 154 160 156
3 154 107 160
3 107 105 160
3 154 98 107
3 157 108 103
3 159 108 157
3 159 162 108
3 162 110 108
3 110 162 163
3 111 110 163
3 114 165 164
3 113 114 164
3 164 166 113
3 113 166 115
3 166 106 115
3 161 106 166
3 163 116 111
3 167 116 163
3 167 168 116
3 116 168 118
3 118 168 169
3 119 118 169
3 165 114 120
3 170 165 120
3 170 120 171
3 120 121 171
3 171 121 172
3 121 122 172
3 172 122 173
3 122 123 173
3 173 123 174
3 123 124 174
3 174 124 175
3 124 125 175
3 175 125 176
3 125 126 176
3 176 126 177
3 126 127 177
3 177 127 178
3 127 128 178
3 178 128 179
3 128 129 179
3 179 129 180
3 129 130 180
3 180 130 181
3 130 131 181
3 181 131 119
3 169 181 119
3 184 183 182
3 183 186 185
3 182 183 185
3 186 187 185
3 190 189 188
3 182 133 134
3 184 182 134
3 184 134 188
3 184 188 189
3 185 133 182
3 136 133 185
3 136 185 187
3 136 187 137
3 137 187 191
3 193 190 188
3 192 193 188
3 188 139 192
3 134 139 188
3 194 191 195
3 194 141 191
3 141 137 191
3 195 196 194
3 192 143 144
3 192 144 193
3 193 144 197
3 192 139 143
3 194 148 141
3 148 194 196
3 148 196 149
3 149 196 198
3 197 144 199
3 199 144 151
3 198 200 149
3 200 153 149
3 156 202 201
3 155 156 201
3 201 151 155
3 199 151 201
3 200 158 153
3 203 158 200
3 158 203 204
3 159 158 204
3 161 206 205
3 160 161 205
3 205 156 160
3 202 156 205
3 204 162 159
3 207 162 204
3 162 207 208
3 163 162 208
3 165 210 209
3 164 165 209
3 209 211 164
3 164 211 166
3 211 161 166
3 206 161 211
3 208 167 163
3 212 167 208
3 212 213 167
3 167 213 168
3 168 213 214
3 169 168 214
3 210 165 170
3 215 210 170
3 215 170 216
3 170 171 216
3 216 171 217
3 171 172 217
3 217 172 218
3 172 173 218
3 218 173 219
3 173 174 219
3 219 174 220
3 174 175 220
3 220 175 221
3 175 176 221
3 221 176 222
3 176 177 222
3 222 177 223
3 177 178 223
3 223 178 224
3 178 179 224
3 224 179 225
3 179 180 225
3 225 180 226
3 180 181 226
3 226 181 169
3 214 226 169
3 183 184 227
3 186 183 227
3 228 186 227
3 186 228 187
3 189 190 229
3 229 231 230
3 189 229 230
3 189 230 227
3 189 227 184
3 227 232 228
3 230 232 227
3 228 232 233
3 228 233 187
3 187 233 191
3 234 229 190
3 234 190 235
3 235 190 193
3 229 234 231
3 233 195 191
3 236 195 233
3 195 236 237
3 196 195 237
3 235 193 238
3 238 193 197
3 237 239 196
3 239 198 196
3 238 197 240
3 240 197 199
3 239 241 198
3 241 200 198
3 202 243 242
3 201 202 242
3 242 199 201
3 240 199 242
3 241 203 200
3 244 203 241
3 203 244 245
3 204 203 245
3 206 247 246
3 205 206 246
3 246 202 205
3 243 202 246
3 245 207 204
3 248 207 245
3 207 248 249
3 208 207 249
3 210 251 250
3 209 210 250
3 250 252 209
3 209 252 211
3 252 206 211
3 247 206 252
3 249 212 208
3 253 212 249
3 253 254 212
3 212 254 213
3 213 254 255
3 214 213 255
3 251 210 215
3 256 251 215
3 256 215 257
3 215 216 257
3 257 216 258
3 216 217 258
3 258 217 259
3 217 218 259
3 259 218 260
3 218 219 260
3 260 219 261
3 219 220 261
3 261 220 262
3 220 221 262
3 262 221 263
3 221 222 263
3 263 222 264
3 222 223 264
3 264 223 265
3 223 224 265
3 265 224 266
3 224 225 266
3 266 225 267
3 225 226 267
3 267 226 214
3 255 267 214
3 230 231 268
3 232 230 268
3 269 232 268
3 232 269 233
3 234 235 270
3 231 234 270
3 231 270 268
3 268 270 271
3 268 271 269
3 269 271 272
3 236 233 269
3 236 269 273
3 273 269 272
3 236 273 237
3 274 270 235
3 238 274 235
3 275 274 276
3 275 271 274
3 271 270 274
3 271 277 272
3 275 277 271
3 279 272 277
3 279 278 272
3 278 273 272
3 273 278 239
3 237 273 239
3 280 274 238
3 240 280 238
3 276 280 281
3 274 280 276
3 283 278 279
3 282 278 283
3 278 282 241
3 239 278 241
3 242 243 284
3 284 286 285
3 242 284 285
3 242 285 280
3 242 280 240
3 280 285 281
3 283 287 282
3 289 288 244
3 287 289 244
3 287 244 241
3 287 241 282
3 244 288 245
3 247 291 290
3 246 247 290
3 243 292 284
3 243 246 292
3 246 290 292
3 284 292 286
3 289 293 288
3 288 248 245
3 288 293 248
3 293 294 248
3 248 294 295
3 249 248 295
3 251 297 296
3 250 251 296
3 296 298 250
3 250 298 252
3 298 247 252
3 291 247 298
3 295 253 249
3 299 253 295
3 299 300 253
3 253 300 254
3 254 300 301
3 255 254 301
3 297 251 256
3 302 297 256
3 302 256 303
3 256 257 303
3 303 257 304
3 257 258 304
3 304 258 305
3 258 259 305
3 305 259 306
3 259 260 306
3 306 260 307
3 260 261 307
3 307 261 308
3 261 262 308
3 308 262 309
3 262 263 309
3 309 263 310
3 263 264 310
3 310 264 311
3 264 265 311
3 311 265 312
3 265 266 312
3 312 266 313
3 266 267 313
3 313 267 255
3 301 313 255
3 275 276 314
3 277 275 314
3 315 277 314
3 277 315 279
3 316 314 276
3 281 316 276
3 314 316 315
3 315 316 317
3 315 317 283
3 279 315 283
3 285 286 318
3 281 285 318
3 281 318 316
3 316 318 319
3 316 319 317
3 317 319 320
3 287 283 317
3 287 317 321
3 321 317 320
3 287 321 289
3 290 291 322
3 322 324 323
3 322 323 290
3 290 323 292
3 286 325 318
3 286 292 325
3 292 323 325
3 318 326 319
3 325 326 318
3 319 327 320
3 326 327 319
3 320 328 321
3 327 328 320
3 321 293 289
3 321 328 293
3 328 329 293
3 331 330 294
3 331 294 329
3 329 294 293
3 294 330 295
3 297 333 332
3 296 297 332
3 332 334 296
3 296 334 298
3 291 335 322
3 291 298 335
3 298 334 335
3 322 335 324
3 331 336 330
3 330 299 295
3 330 336 299
3 336 337 299
3 339 338 300
3 339 300 337
3 337 300 299
3 300 338 301
3 333 297 302
3 340 333 302
3 340 302 341
3 302 303 341
3 341 303 342
3 303 304 342
3 342 304 343
3 304 305 343
3 343 305 344
3 305 306 344
3 344 306 345
3 306 307 345
3 345 307 346
3 307 308 346
3 346 308 347
3 308 309 347
3 347 309 348
3 309 310 348
3 348 310 349
3 310 311 349
3 349 311 350
3 311 312 350
3 338 339 350
3 338 350 313
3 313 350 312
3 338 313 301
3 323 324 351
3 351 353 352
3 351 352 323
3 323 352 325
3 352 354 325
3 325 354 326
3 354 355 326
3 326 355 327
3 355 356 327
3 327 356 328
3 358 357 329
3 358 329 356
3 356 329 328
3 329 357 331
3 332 333 359
3 359 361 360
3 359 360 332
3 332 360 334
3 360 362 334
3 334 362 335
3 324 363 351
3 324 335 363
3 335 362 363
3 351 363 353
3 358 364 357
3 357 336 331
3 357 364 336
3 364 365 336
3 365 366 336
3 336 366 337
3 337 366 367
3 339 337 367
3 359 333 340
3 361 359 340
3 361 340 368
3 368 340 341
3 368 341 369
3 341 342 369
3 369 342 370
3 342 343 370
3 370 343 371
3 343 344 371
3 371 344 372
3 344 345 372
3 372 345 373
3 345 346 373
3 373 346 374
3 346 347 374
3 374 347 375
3 347 348 375
3 375 348 376
3 348 349 376
3 376 349 377
3 349 350 377
3 377 350 339
3 367 377 339
3 352 353 378
3 354 352 378
3 379 354 378
3 355 354 379
3 380 355 379
3 356 355 380
3 381 356 380
3 356 381 358
3 360 361 382
3 382 384 383
3 382 383 360
3 360 383 362
3 383 385 362
3 362 385 363
3 353 386 378
3 353 363 386
3 363 385 386
3 378 387 379
3 386 387 378
3 379 388 380
3 387 388 379
3 380 389 381
3 388 389 380
3 381 364 358
3 381 389 364
3 389 390 364
3 390 391 364
3 364 391 365
3 393 392 366
3 393 366 391
3 391 366 365
3 366 392 367
3 382 361 368
3 384 382 368
3 384 368 394
3 394 368 369
3 394 369 395
3 369 370 395
3 395 370 396
3 370 371 396
3 396 371 397
3 371 372 397
3 397 372 398
3 372 373 398
3 398 373 399
3 373 374 399
3 399 374 400
3 374 375 400
3 400 375 401
3 375 376 401
3 392 393 401
3 392 401 377
3 377 401 376
3 392 377 367
3 383 384 402
3 385 383 402
3 403 385 402
3 403 405 404
3 403 404 385
3 385 404 386
3 404 406 386
3 386 406 387
3 406 407 387
3 387 407 388
3 407 408 388
3 388 408 389
3 410 409 390
3 410 390 408
3 408 390 389
3 391 390 409
3 411 391 409
3 391 411 393
3 402 384 394
3 403 402 394
3 395 403 394
3 405 403 395
3 405 395 412
3 412 395 396
3 412 396 413
3 396 397 413
3 413 397 414
3 397 398 414
3 414 398 415
3 398 399 415
3 409 410 415
3 409 415 400
3 400 415 399
3 411 409 400
3 401 411 400
3 411 401 393
3 404 405 416
3 406 404 416
3 417 406 416
3 407 406 417
3 418 407 417
3 408 407 418
3 419 408 418
3 408 419 410
3 416 405 412
3 417 416 412
3 413 417 412
3 418 417 413
3 414 418 413
3 419 418 414
3 415 419 414
3 419 415 410
