ply
format ascii 1.0
element vertex 566
property float x
property float y
property float z
property uchar red
property uchar green
property uchar blue
element face 1092
property list uchar int vertex_indices
end_header
-9.94488048553466797 -9 -9 90 92 87
-9 -9.94488048553466797 -9 81 81 77
-9 -9 -9.94488048553466797 4 5 4
-9.89914131164550781 -9 -8 149 150 143
-9 -9.89914131164550781 -8 28 28 27
-9.73529148101806641 -9 -7 195 194 190
-9 -9.73529148101806641 -7 52 52 51
-9 -9 -6.26402425765991211 67 67 65
-9.86892795562744141 -9 6 200 203 196
-9 -9.86892795562744141 6 40 41 40
-9 -9 5.64823246002197266 227 227 223
-9.94739246368408203 -9 7 239 248 235
-9 -9.94739246368408203 7 104 108 102
-9.92947196960449219 -9 8 59 62 58
-9 -9.92947196960449219 8 193 201 188
-9 -9 8.92947196960449219 215 222 210
-9.93517208099365234 -8 -9 31 31 29
-9 -8 -9.93517208099365234 82 82 78
-9.89212322235107422 -8 -8 49 49 47
-9.91087055206298828 -8 -7 249 249 240
-9 -8 -6.44344854354858398 255 253 252
-9 -8.50721359252929688 6 116 117 114
-9.91305351257324219 -8 7 220 223 216
-9 -8 6.39385747909545898 222 222 219
-9.96817493438720703 -8 8 246 255 240
-9 -8 8.96817493438720703 251 255 245
-9.94543552398681641 -7 -9 14 14 14
-9 -7 -9.94543552398681641 14 14 13
-9.86421012878417969 -7 -8 113 112 109
-9 -7.47749900817871094 -7 255 253 252
-9 -7 -7.59472560882568359 134 134 132
-9.87561511993408203 -7 7 192 194 189
-9 -7 6.33780717849731445 81 82 79
-9.94981479644775391 -7 8 106 110 104
-9 -7 8.94981479644775391 23 23 23
-9.89665126800537109 -6 -9 96 95 92
-9 -6 -9.89665126800537109 201 199 194
-9 -6.1324162483215332 -8 134 134 132
-9 -6 -8.10068798065185547 109 109 108
-9.823028564453125 -6 7 253 255 248
-9 -6 6.6901860237121582 219 222 217
-9.88847446441650391 -6 8 224 226 218
-9 -6 8.88847446441650391 236 237 230
-9.91855812072753906 -5 -9 120 119 116
-9 -5 -9.91855812072753906 211 209 204
-9.81513881683349609 -5 -8 203 202 198
-9 -5.81947660446166992 -8 194 193 190
-9 -5 -7.48448991775512695 137 136 133
-9 -5.14604711532592773 7 60 60 59
-9.89681148529052734 -5 8 26 27 26
-9 -5 7.08384370803833008 174 176 171
-9 -5 8.89681148529052734 181 181 178
-9.84938716888427734 -4 -9 188 187 182
-9 -4 -9.84938716888427734 255 252 250
-9.89627265930175781 -4 -8 180 179 174
-9 -4 -7.40282392501831055 254 255 246
-9.92098712921142578 -4 8 83 84 82
-9 -4 7.2643284797668457 225 228 222
-9 -4 8.92098712921142578 70 71 69
-9.84389400482177734 -3 -9 255 253 250
-9 -3 -9.84389400482177734 186 184 181
-9 -3.00187110900878906 -8 254 255 246
-9 -3 -8.00298786163330078 178 177 173
-9.90637969970703125 -3 8 93 94 91
-9 -3 7.30051803588867188 169 171 167
-9 -3 8.90637969970703125 91 92 90
-9.95522880554199219 -2 -9 255 254 246
-9 -2 -9.95522880554199219 209 207 204
-9 -2 -8.09209918975830078 255 254 248
-9.05732440948486328 -2 6 244 246 241
-9 -2.01324295997619629 6 214 215 213
-9 -2 5.99709463119506836 99 100 98
-9 -2 6.00929927825927734 254 255 252
-9.88499069213867188 -2 8 68 69 67
-9 -2 7.45708656311035156 217 220 214
-9 -2 8.88499069213867188 115 116 113
-9.79397869110107422 -1 -9 255 253 251
-9 -1 -9.79397869110107422 187 187 179
-9 -1 -8.54287338256835938 190 190 185
-9 -1.99654316902160645 6 254 255 252
-9.82036781311035156 -1 8 247 251 245
-9 -1 7.61299371719360352 209 211 206
-9 -1 8.82036781311035156 168 169 166
-9.95381546020507812 0 -9 69 70 67
-9 0 -9.95381546020507812 255 253 248
-9 0 -8.17781543731689453 251 255 245
-9.77296257019042969 0 8 91 93 90
-9 0 7.70852470397949219 215 216 211
-9 0 8.77296257019042969 174 174 172
-9.94182682037353516 1 -9 253 255 246
-9 1 -9.94182682037353516 65 66 63
-9 1 -8.33736991882324219 246 255 241
-9.79757499694824219 1 8 104 106 104
-9 1 7.69523477554321289 221 222 216
-9 1 8.79757499694824219 141 142 139
-9.93134689331054688 2 -9 67 70 66
-9 2 -9.93134689331054688 206 214 201
-9 2 -8.00362682342529297 240 255 238
-9.86192512512207031 2 8 145 147 143
-9 2 7.60340309143066406 212 213 208
-9 2 8.86192512512207031 66 66 65
-9.90683078765869141 3 -9 26 27 26
-9 3 -9.90683078765869141 106 109 103
-9 3 -8.19496822357177734 224 234 221
-9.73878002166748047 3 8 59 60 58
-9 3 7.83693933486938477 247 255 243
-9 3 8.73878002166748047 51 52 50
-9 3.93471002578735352 -9 224 234 221
-9.80795478820800781 4 8 5 5 4
-9 4 7.81615209579467773 246 255 241
-9 4 8.80795478820800781 16 16 15
-9.87659835815429688 5 -8 181 195 181
-9 4.47439384460449219 -8 60 62 59
-9 5 -8.613983154296875 246 255 240
-9 5 -7.68303442001342773 245 255 240
-9.94175434112548828 5 8 204 211 200
-9 5 7.20991945266723633 79 82 78
-9 5 8.94175434112548828 252 255 245
-9 5.40375709533691406 -8 245 255 240
-9.90749835968017578 6 8 101 105 99
-9 6 7.13971519470214844 143 149 141
-9 6 8.90749835968017578 83 86 81
-9.90793800354003906 7 8 60 63 59
-9 7 7.20866155624389648 60 63 59
-9 7 8.90793800354003906 12 13 12
-9.80620384216308594 8 -9 45 46 44
-9 7.35830020904541016 -9 236 239 228
-9 8 -9.80620384216308594 12 12 11
-9 8 -8.65471935272216797 95 98 91
-9.90436363220214844 8 8 54 57 53
-9 8 7.40771245956420898 174 182 170
-9 8 8.90436363220214844 29 30 28
-9 8.80620384216308594 -9 95 98 91
-9 8.90436363220214844 8 29 30 28
-8 -9.86677169799804688 -9 122 120 119
-8 -9 -9.86677169799804688 84 83 81
-8 -9.64974784851074219 -8 122 121 119
-8 -9.49365520477294922 -7 255 253 248
-8 -9 -6.9584498405456543 255 253 253
-8.70921134948730469 -9 6 116 117 114
-8 -9.86113643646240234 7 0 0 0
-8 -9 6.72278356552124023 229 230 225
-8 -9.82947063446044922 8 85 86 82
-8 -9 8.82947063446044922 180 182 174
-8 -8 -9.90935230255126953 66 65 64
-8.68992805480957031 -8 -7 255 253 252
-8 -8.95888805389404297 -7 255 253 253
-8 -8 -7.80524587631225586 255 253 251
-8.48323535919189453 -8 7 32 32 32
-8 -8.61293125152587891 7 134 134 130
-8 -8 7.76537752151489258 255 254 250
-8 -8 8.75063896179199219 230 230 224
-8.07788753509521484 -7 -9 111 110 108
-8 -7.12731742858886719 -9 134 133 131
-8.13153457641601562 -7 -8 134 134 132
-8 -7.14913129806518555 -8 255 253 251
-8.55978488922119141 -7 7 21 21 20
-8.0082855224609375 -7 8 23 23 23
-8 -7.04990434646606445 8 230 230 224
-8 -6.913848876953125 -9 177 175 171
-8 -6 -9.939483642578125 87 86 85
-8 -6 -8.24600887298583984 255 252 250
-8.51430225372314453 -6 7 60 60 59
-8 -6.77367162704467773 8 243 243 238
-8 -6 7.90109872817993164 27 28 27
-8 -6 8.35085868835449219 182 183 178
-8 -5 -9.876953125 197 195 192
-8.57647895812988281 -5 -8 137 136 133
-8 -5 -8.45715522766113281 231 229 227
-8.24831199645996094 -5 8 181 181 178
-8 -5.84156560897827148 8 182 183 178
-8 -4 -9.77516746520996094 176 174 171
-8.46418285369873047 -4 -8 254 255 246
-8 -4 -8.68465423583984375 168 167 164
-8 -4.28312110900878906 8 222 223 219
-8 -4 7.85563564300537109 53 53 52
-8 -4 8.53136539459228516 36 37 36
-8.15884780883789062 -3 -9 178 177 173
-8 -3.2284543514251709 -9 168 167 164
-8.08481311798095703 -3 8 91 92 90
-8 -3.44174313545227051 8 36 37 36
-8.18797206878662109 -2 -9 255 254 248
-8.99585056304931641 -2 6 254 255 252
-8.54496097564697266 -2 8 115 116 113
-8.61351394653320312 -1 -9 190 190 185
-8.67972087860107422 -1 8 168 169 166
-8.2593841552734375 0 -9 251 255 245
-8.62932872772216797 0 8 174 174 172
-8.30327987670898438 1 -9 246 255 241
-8.69161224365234375 1 8 141 142 139
-8.20946693420410156 2 -9 240 255 238
-8.60017299652099609 2 8 66 66 65
-8 2.88893222808837891 -9 177 180 173
-8 3 -9.30992698669433594 244 255 239
-8 3 -8.97200107574462891 245 255 241
-8.75423908233642578 3 8 51 52 50
-8 3.07628679275512695 -9 245 255 241
-8.76646137237548828 4 8 16 16 15
-8.61392498016357422 5 -9 246 255 240
-8 4.43366384506225586 -9 127 129 124
-8 5 -9.8765716552734375 249 255 241
-8.63956260681152344 5 -8 245 255 240
-8 5 -8.63961887359619141 248 255 241
-8.53631687164306641 5 8 252 255 245
-8 5.44467926025390625 -9 248 255 241
-8 5.95191669464111328 8 249 255 241
-8 6 7.92532634735107422 204 209 200
-8 6 8.48577117919921875 126 128 122
-8 7 7.9760894775390625 249 255 242
-8 7 8.41010570526123047 141 146 137
-8.60394477844238281 8 -9 95 98 91
-8 8 7.96265411376953125 95 98 93
-8 8 8.316864013671875 80 83 77
-8 8.316864013671875 8 80 83 77
-7 -9.80107402801513672 -9 23 22 22
-7 -9 -9.80107402801513672 115 113 111
-7.6647186279296875 -9 -8 202 201 198
-7 -9 -8.47734165191650391 187 185 184
-7.9581294059753418 -9 -7 255 253 253
-7.66250991821289062 -9 7 134 134 130
-7.6180577278137207 -9 8 180 182 174
-7.17976284027099609 -8 -9 134 133 131
-7 -8.3531494140625 -9 187 185 184
-7.79479694366455078 -8 -8 255 253 251
-7.62806415557861328 -8 8 230 230 224
-7.15812873840332031 -6 -9 255 252 250
-7.89965915679931641 -6 8 182 183 178
-7.38232660293579102 -5 -9 231 229 227
-7.70017623901367188 -4 -9 168 167 164
-7.86328125 -4 8 36 37 36
-7.9641876220703125 3 -9 245 255 241
-7.6027064323425293 5 -9 248 255 241
-7.96757602691650391 6 8 126 128 122
-7.96959829330444336 7 8 141 146 137
-7.95889949798583984 8 8 80 83 77
-6.40771722793579102 -9 -9 187 185 184
-2.15942478179931641 3 -1 0 0 0
-2 2.82590889930725098 -1 58 59 57
-2 3 -1.85639810562133789 107 108 107
-2.36180830001831055 3 0 121 121 120
-2 2.89314484596252441 0 74 75 73
-2 3 0.0938904732465744019 118 118 117
-2 3.77220606803894043 -1 132 132 131
-2 3.23115658760070801 0 118 118 117
-2.01746892929077148 4 1 12 13 12
-2 3.9801177978515625 1 58 59 57
-2 4 0.944412708282470703 32 32 31
-2 4 1.06169545650482178 127 127 126
-2 4.00785255432128906 1 127 127 126
-1.87799072265625 3 -2 107 108 107
-1 2.80574178695678711 -2 75 76 74
-1 3 -2.60639715194702148 116 116 116
-1.78871512413024902 3 -1 132 132 131
-1 3 -1.75571882724761963 155 155 154
-1.85857713222503662 3 0 118 118 117
-1 3.26455831527709961 -2 155 155 154
-1.77298903465270996 4 -1 83 83 83
-1 3.78797149658203125 -1 66 66 64
-1 4 -1.23044478893280029 22 22 22
-1.41911256313323975 4 0 32 32 31
-1 3.71669960021972656 0 69 69 67
-1.17165732383728027 4 1 127 127 126
-1 4 0.98337554931640625 96 96 96
-1 4.24486398696899414 -1 79 79 78
-1.14586126804351807 5 0 254 255 250
-1 5 -0.420756757259368896 23 23 22
-1.01477587223052979 5 1 254 255 250
-1 4.09858274459838867 1 78 78 78
-1 5 1.28740930557250977 108 108 107
-1 5.43423795700073242 0 136 136 135
-1 5.05177116394042969 1 108 108 107
-0.793305814266204834 3 -2 155 155 154
-0.130976364016532898 4 -2 22 22 22
0 3.9015805721282959 -2 72 73 71
0 4 -2.26742672920227051 80 80 80
0 3.71042370796203613 -1 82 82 80
-0.6719856858253479 4 0 96 96 96
0 4 -0.6530722975730896 117 117 117
0 4.1120905876159668 -2 90 90 90
-0.13689887523651123 5 -1 23 23 22
0 5 -1.10928094387054443 34 34 33
-0.338056623935699463 5 0 136 136 135
0 5 -0.700494825839996338 65 65 65
0 4.81975698471069336 1 72 72 70
0 5 0.533190429210662842 16 16 16
0 5 1.52223265171051025 112 111 111
0 5.12409687042236328 -1 65 65 65
0 5.18460702896118164 1 112 111 111
1 3.93099713325500488 -2 89 89 87
1 4 -2.07517194747924805 12 12 12
0.307757019996643066 4 -1 117 117 117
1 4 -1.89518070220947266 122 122 122
1 4.19479703903198242 -2 122 122 122
0.168603077530860901 5 -1 65 65 65
0.750316858291625977 5 0 16 16 16
1 4.9246983528137207 0 90 90 88
1 5 -0.136318773031234741 7 7 7
0.443976312875747681 5 1 112 111 111
1 5 0.232832610607147217 73 73 73
1 5.07036399841308594 0 73 73 73
1.19102263450622559 4 -2 122 122 122
1.14327943325042725 5 0 73 73 73
5.96607160568237305 -9 7 255 252 251
6 -9.23283195495605469 7 254 255 254
6 -9 6.97761011123657227 255 254 253
5.47001409530639648 -9 8 255 254 252
6 -9.83523654937744141 8 254 255 253
6 -9 8.83523654937744141 254 255 254
6 -8.95203971862792969 7 255 254 252
5.05416202545166016 -8 8 255 253 251
6 -8 7.39732170104980469 255 254 253
6 -8 8.90136528015136719 255 254 253
5.90814638137817383 -7 -9 11 11 11
6 -7.11603307723999023 -9 191 191 190
6 -7 -9.61313152313232422 254 255 250
6 -7 -8.91928005218505859 255 254 251
5.70468664169311523 -7 8 242 242 242
6 -7 7.73199987411499023 255 253 252
6 -7 8.75492286682128906 255 254 254
6 -6.88666915893554688 -9 255 254 251
6 -6.12884521484375 8 255 254 254
5.936614990234375 -5 -9 255 252 252
6 -5.06227779388427734 -9 11 11 11
6 -5 -9.45160388946533203 41 41 41
6 -5 -8.93292617797851562 255 253 250
5.96854877471923828 -4 -9 255 251 250
6 -4 -9.30484771728515625 98 98 97
6 -4 -8.98509407043457031 255 253 252
6 -3.94632387161254883 -9 255 253 252
6.47989797592163086 -9 -9 93 93 92
7 -9.85654354095458984 -9 3 3 3
7 -9 -9.85654354095458984 10 10 10
7 -9 -8.53582191467285156 18 18 18
6.26421928405761719 -9 7 255 254 252
6.71155071258544922 -9 8 254 255 254
6.63896560668945312 -8 -9 191 191 190
7 -8 -9.87215614318847656 51 51 51
7 -8 -8.52438926696777344 109 109 109
6.49320507049560547 -8 7 255 254 253
7 -8.87987613677978516 7 210 210 208
7 -8 6.31037092208862305 255 254 254
7 -8.63178634643554688 8 254 255 254
7 -8 8.77905464172363281 47 47 47
7 -7 -9.51537513732910156 254 255 250
7 -7 -8.80200672149658203 46 46 46
6.99588155746459961 -7 7 255 253 252
7 -7 6.99632167816162109 255 253 251
7 -7 8.93849468231201172 254 255 254
6.95680952072143555 -6 -9 11 11 11
7 -6 -9.358856201171875 254 255 249
7 -6 -8.94630527496337891 113 112 112
7 -6.9964146614074707 7 255 254 254
6.09415817260742188 -6 8 255 254 252
7 -6 7.68811559677124023 66 65 64
7 -6 8.81422901153564453 144 144 142
6.14975547790527344 -5 -9 255 253 250
7 -5.89308643341064453 -9 113 112 112
7 -5.21299982070922852 8 144 144 142
6.1525120735168457 -4 -9 255 253 252
6.92049074172973633 -3 8 155 155 152
7 -3.33880329132080078 8 68 68 66
7 -3 7.92592382431030273 194 193 188
7 -3 8.45511245727539062 181 181 178
7 -2.8197486400604248 8 181 181 178
6.95861530303955078 1 8 247 248 243
7 0.681243479251861572 8 253 255 248
7 1 7.96201705932617188 253 255 250
7 1 8.33062839508056641 250 255 247
6.84391927719116211 2 8 236 236 233
7 2 7.86125087738037109 234 234 233
7 2 8.69658088684082031 253 255 249
6.93277549743652344 3 8 254 255 253
7 3 7.9604954719543457 214 214 214
7 3 8.36800193786621094 254 255 252
6.82157039642333984 4 -9 79 78 78
7 3.53599023818969727 -9 255 249 246
7 4 -9.80189037322998047 194 190 189
7 4 -8.75082492828369141 255 249 249
7 3.3979346752166748 8 254 255 252
7 4.60336780548095703 -9 255 249 249
6.60903406143188477 8 -9 55 55 55
7 7.37563228607177734 -9 167 167 167
7 8 -9.90780162811279297 11 11 11
7 8 -8.56607723236083984 255 254 253
7 8.90780162811279297 -9 255 254 253
8 -9.95053768157958984 -9 75 75 75
8 -9 -9.95053768157958984 255 254 254
7.43875408172607422 -9 -8 67 67 66
8 -9.89813137054443359 -8 93 93 92
8 -9 -7.26693582534790039 100 100 100
7.89020729064941406 -9 5 255 254 254
8 -9.59739208221435547 5 254 255 252
8 -9 4.83470916748046875 255 254 254
8 -9 5.36797189712524414 255 254 254
7.05669593811035156 -9 7 210 210 208
8 -9.93360614776611328 7 193 194 191
8 -9 6.15343475341796875 111 111 110
7.16691780090332031 -9 8 254 255 254
8 -9.91116237640380859 8 255 249 241
8 -9 8.91116237640380859 244 245 242
8 -8 -9.93672466278076172 12 12 12
7.5196528434753418 -8 -8 46 46 46
8 -8 -7.61756515502929688 181 181 179
8 -8.77181053161621094 5 255 254 254
7.29374551773071289 -8 6 255 254 254
8 -8.72439479827880859 6 111 111 110
8 -8 5.4283146858215332 255 254 254
8 -8 8.958160400390625 254 255 252
8 -7 -9.96489524841308594 37 37 37
7.26980495452880859 -7 -8 197 197 195
8 -7 -7.54413223266601562 255 254 250
7.6836700439453125 -7 6 255 253 251
8 -7 5.76236295700073242 97 96 95
8 -7 8.86259555816650391 173 173 173
8 -6 -9.96080589294433594 253 255 249
8 -6.04897832870483398 -8 255 254 250
8 -6 -8.02390670776367188 254 255 250
8 -6.69221830368041992 6 255 254 254
7.47455835342407227 -6 7 66 65 64
8 -6 6.47806167602539062 21 21 21
8 -6 8.92288780212402344 105 106 104
7.55185890197753906 -5 -9 10 10 9
8 -5 -9.79152488708496094 252 255 248
8 -5 -8.43162345886230469 108 108 107
7.96638965606689453 -5 7 110 110 108
8 -5 6.95961141586303711 133 133 130
7.12229299545288086 -5 8 0 0 0
8 -5 8.89488887786865234 7 8 7
7.25157403945922852 -4 -9 90 89 88
8 -4 -9.87878227233886719 255 254 252
7.69082355499267578 -4 -8 255 254 254
8 -4.2849125862121582 -8 12 12 12
8 -4 -7.87493419647216797 186 186 182
8 -4.71363067626953125 7 99 99 97
7.15702581405639648 -4 8 68 68 66
8 -4 7.0873875617980957 90 90 88
8 -4 8.89744186401367188 54 55 54
7.28805017471313477 -3 -9 98 98 98
8 -3 -9.86555385589599609 201 202 197
7.92376899719238281 -3 -8 255 251 251
8 -3 -7.95852422714233398 255 253 253
8 -3 7.0568842887878418 160 160 156
8 -3 8.89771175384521484 73 73 72
7.71715784072875977 -2 -9 52 51 51
8 -2 -9.73938274383544922 137 137 136
7.70202922821044922 -2 -8 203 200 199
8 -2 -7.75341987609863281 255 254 254
7.33533048629760742 -2 8 86 86 84
8 -2 7.2475733757019043 150 150 146
8 -2 8.88275527954101562 68 69 67
8 -1.50566864013671875 -9 18 18 18
8 -1.10027921199798584 -8 255 254 254
7.03703212738037109 -1 8 246 246 240
8 -1 7.02414131164550781 253 255 248
8 -1 8.93835735321044922 254 255 249
7.9122462272644043 0 -9 87 86 86
8 -0.186242744326591492 -9 133 131 131
8 0 -9.39910984039306641 255 254 253
8 0 -8.50193119049072266 24 24 24
7.0709834098815918 0 8 253 255 248
8 0 7.07773923873901367 252 255 247
8 0 8.93250560760498047 253 255 248
7.84793519973754883 1 -9 127 125 124
8 1 -9.75185394287109375 116 115 115
8 1 -8.60865402221679688 38 37 37
8 1 7.10814237594604492 251 255 248
8 1 8.9377593994140625 252 255 249
8 1.391357421875 -9 38 37 37
7.94456195831298828 2 7 234 234 233
8 1.68595850467681885 7 251 255 248
8 2 6.93735837936401367 254 255 253
8 2 8.91423797607421875 250 255 247
7.24565887451171875 3 -9 255 249 246
8 2.24710297584533691 -9 116 113 113
8 3 -9.93488407135009766 206 202 201
8 3 -8.35549545288085938 255 248 247
7.85814046859741211 3 7 214 214 214
8 3 6.83763599395751953 240 240 240
8 3 8.89519596099853516 253 255 251
8 4 -9.89083099365234375 255 250 250
8 4 -8.20776653289794922 255 248 245
8 3.32163596153259277 7 254 255 252
7.07410526275634766 4 8 254 255 254
8 4 7.30959892272949219 104 104 102
8 4 8.916717529296875 254 255 253
7.38789129257202148 5 -9 255 249 249
8 5 -9.80765056610107422 161 156 156
8 5 -8.47452545166015625 220 215 215
7.53094148635864258 5 8 102 102 100
8 5 7.53179359436035156 198 197 194
8 5 8.84900474548339844 232 232 229
7.2154393196105957 6 -9 255 254 254
8 6 -9.91121292114257812 255 248 248
8 6 -8.41804695129394531 255 249 249
8 5.66997051239013672 8 232 232 229
7.42020988464355469 7 -9 167 167 167
8 7 -9.89098739624023438 26 25 25
7.99888420104980469 7 -8 204 203 203
8 6.99741172790527344 -8 188 187 186
8 7 -7.99880170822143555 255 254 254
7.88354063034057617 7 7 211 211 207
8 6.77200412750244141 7 103 103 101
8 7 6.77225685119628906 254 255 254
7.77945375442504883 7 8 172 171 167
8 6.47893381118774414 8 211 211 207
8 7 8.75083637237548828 75 75 72
8 8 -9.73231315612792969 255 247 246
8 7.00307035446166992 -8 255 254 254
8 8 -8.69423484802246094 29 28 28
8 7.29586935043334961 7 255 254 250
7.69038724899291992 8 8 121 120 117
8 8 7.68514347076416016 103 102 99
8 8 8.78183937072753906 81 81 79
8 8.73231315612792969 -9 29 28 28
8 8.78183937072753906 8 81 81 79
8.95053768157958984 -9 -9 43 43 43
8.89813137054443359 -9 -8 100 100 100
8.59739208221435547 -9 5 255 254 254
8.93360614776611328 -9 7 254 255 253
8.91116237640380859 -9 8 244 245 242
8.93672466278076172 -8 -9 0 0 0
8.87425804138183594 -8 -8 181 181 179
8.87010669708251953 -8 6 254 255 254
8.57093429565429688 -8 7 21 21 21
8.958160400390625 -8 8 254 255 252
8.96489524841308594 -7 -9 254 255 250
8.92100048065185547 -7 -8 255 254 250
8.81344985961914062 -7 6 255 254 254
8.93049240112304688 -7 7 254 255 253
8.86259555816650391 -7 8 173 173 173
8.96080589294433594 -6 -9 254 255 250
8.914581298828125 -6 7 254 255 251
8.92288780212402344 -6 8 105 106 104
8.79152488708496094 -5 -9 108 108 107
8.25163364410400391 -5 7 99 99 97
8.89488887786865234 -5 8 7 8 7
8.87878227233886719 -4 -9 0 0 0
8.53461742401123047 -4 -8 186 186 182
8.89744186401367188 -4 8 54 55 54
8.86555385589599609 -3 -9 27 27 27
8.45606708526611328 -3 -8 255 253 253
8.89771175384521484 -3 8 73 73 72
8.73938274383544922 -2 -9 18 18 18
8.85560703277587891 -2 -8 255 254 254
8.88275527954101562 -2 8 68 69 67
8.93835735321044922 -1 8 254 255 249
8.39910984039306641 0 -9 24 24 24
8.93250560760498047 0 8 253 255 248
8.75185394287109375 1 -9 38 37 37
8.9377593994140625 1 8 252 255 249
8.45545101165771484 2 7 252 255 249
8.91423797607421875 2 8 250 255 247
8.93488407135009766 3 -9 255 248 247
8.70063018798828125 3 7 254 255 252
8.89519596099853516 3 8 253 255 251
8.89083099365234375 4 -9 255 248 245
8.916717529296875 4 8 254 255 253
8.80765056610107422 5 -9 220 215 215
8.84900474548339844 5 8 232 232 229
8.91121292114257812 6 -9 255 249 249
8.89098739624023438 7 -9 255 253 252
8.01877117156982422 7 -8 255 254 254
8.76618289947509766 7 7 255 254 250
8.75083637237548828 7 8 75 75 72
8.73231315612792969 8 -9 29 28 28
8.78183937072753906 8 8 81 81 79
3 2 1 0
3 1 4 3
3 0 1 3
3 4 6 5
3 3 4 5
3 6 7 5
3 10 9 8
3 9 12 11
3 8 9 11
3 12 14 13
3 11 12 13
3 14 15 13
3 17 2 0
3 16 17 0
3 0 3 16
3 3 18 16
3 3 5 18
3 5 19 18
3 7 20 19
3 5 7 19
3 10 8 21
3 23 21 8
3 23 8 22
3 22 8 11
3 11 13 22
3 13 24 22
3 15 25 24
3 13 15 24
3 27 17 16
3 26 27 16
3 16 18 26
3 18 28 26
3 29 30 28
3 29 28 19
3 19 28 18
3 19 20 29
3 32 23 22
3 31 32 22
3 22 24 31
3 24 33 31
3 25 34 33
3 24 25 33
3 36 27 26
3 35 36 26
3 37 38 35
3 37 35 28
3 28 35 26
3 28 30 37
3 40 32 31
3 39 40 31
3 31 33 39
3 33 41 39
3 34 42 41
3 33 34 41
3 44 36 35
3 43 44 35
3 38 46 45
3 38 45 35
3 35 45 43
3 46 47 45
3 40 39 48
3 50 48 39
3 50 39 49
3 49 39 41
3 42 51 49
3 41 42 49
3 53 44 43
3 52 53 43
3 43 45 52
3 45 54 52
3 47 55 54
3 45 47 54
3 57 50 49
3 56 57 49
3 51 58 56
3 49 51 56
3 60 53 52
3 59 60 52
3 61 62 59
3 61 59 54
3 54 59 52
3 54 55 61
3 64 57 56
3 63 64 56
3 58 65 63
3 56 58 63
3 67 60 59
3 66 67 59
3 62 68 66
3 59 62 66
3 71 70 69
3 70 72 69
3 74 64 63
3 73 74 63
3 65 75 73
3 63 65 73
3 77 67 66
3 76 77 66
3 68 78 76
3 66 68 76
3 71 69 79
3 69 72 79
3 81 74 73
3 80 81 73
3 75 82 80
3 73 75 80
3 84 77 76
3 83 84 76
3 78 85 83
3 76 78 83
3 87 81 80
3 86 87 80
3 82 88 86
3 80 82 86
3 90 84 83
3 89 90 83
3 85 91 89
3 83 85 89
3 93 87 86
3 92 93 86
3 88 94 92
3 86 88 92
3 96 90 89
3 95 96 89
3 91 97 95
3 89 91 95
3 99 93 92
3 98 99 92
3 94 100 98
3 92 94 98
3 102 96 95
3 101 102 95
3 97 103 101
3 95 97 101
3 105 99 98
3 104 105 98
3 100 106 104
3 98 100 104
3 102 101 107
3 101 103 107
3 109 105 104
3 108 109 104
3 106 110 108
3 104 106 108
3 113 112 111
3 112 114 111
3 116 109 108
3 115 116 108
3 110 117 115
3 108 110 115
3 113 111 118
3 111 114 118
3 120 116 115
3 119 120 115
3 117 121 119
3 115 117 119
3 123 120 119
3 122 123 119
3 121 124 122
3 119 121 122
3 127 126 125
3 126 128 125
3 130 123 122
3 129 130 122
3 124 131 129
3 122 124 129
3 127 125 132
3 125 128 132
3 130 129 133
3 129 131 133
3 2 135 134
3 1 2 134
3 134 136 1
3 1 136 4
3 136 137 4
3 4 137 6
3 6 137 138
3 7 6 138
3 9 10 139
3 139 141 140
3 139 140 9
3 9 140 12
3 140 142 12
3 12 142 14
3 14 142 143
3 15 14 143
3 135 2 144
3 144 2 17
3 147 145 146
3 146 145 20
3 146 20 138
3 138 20 7
3 139 10 21
3 21 23 148
3 139 21 148
3 139 148 149
3 139 149 141
3 149 148 150
3 143 151 15
3 151 25 15
3 152 153 144
3 152 144 27
3 27 144 17
3 153 154 155
3 152 154 153
3 145 30 29
3 147 30 145
3 147 154 30
3 147 155 154
3 145 29 20
3 156 148 23
3 32 156 23
3 150 157 158
3 150 148 157
3 148 156 157
3 158 157 34
3 158 34 151
3 151 34 25
3 159 152 27
3 159 27 160
3 160 27 36
3 159 161 38
3 159 38 154
3 159 154 152
3 37 154 38
3 154 37 30
3 162 156 32
3 40 162 32
3 163 162 164
3 163 157 162
3 157 156 162
3 157 163 165
3 157 165 34
3 34 165 42
3 160 36 166
3 166 36 44
3 46 168 167
3 46 38 168
3 38 161 168
3 46 167 47
3 162 40 48
3 48 50 169
3 162 48 169
3 162 169 170
3 162 170 164
3 170 169 51
3 170 51 165
3 165 51 42
3 166 44 171
3 171 44 53
3 173 167 168
3 172 167 173
3 167 172 55
3 47 167 55
3 174 169 50
3 174 50 175
3 175 50 57
3 169 174 176
3 169 176 51
3 51 176 58
3 177 178 171
3 177 171 60
3 60 171 53
3 172 62 61
3 173 62 172
3 173 177 62
3 173 178 177
3 172 61 55
3 179 180 175
3 179 175 64
3 64 175 57
3 180 179 65
3 180 65 176
3 176 65 58
3 181 177 60
3 67 181 60
3 177 181 68
3 62 177 68
3 70 71 182
3 70 182 72
3 183 179 64
3 74 183 64
3 179 183 75
3 65 179 75
3 184 181 67
3 77 184 67
3 181 184 78
3 68 181 78
3 182 71 79
3 182 79 72
3 185 183 74
3 81 185 74
3 183 185 82
3 75 183 82
3 186 184 77
3 84 186 77
3 184 186 85
3 78 184 85
3 187 185 81
3 87 187 81
3 185 187 88
3 82 185 88
3 188 186 84
3 90 188 84
3 186 188 91
3 85 186 91
3 189 187 87
3 93 189 87
3 187 189 94
3 88 187 94
3 190 188 90
3 96 190 90
3 188 190 97
3 91 188 97
3 191 189 93
3 99 191 93
3 189 191 100
3 94 189 100
3 192 190 96
3 192 96 193
3 193 96 102
3 190 192 194
3 190 194 97
3 97 194 103
3 195 191 99
3 105 195 99
3 191 195 106
3 100 191 106
3 193 102 107
3 196 193 107
3 196 107 103
3 194 196 103
3 197 195 105
3 109 197 105
3 195 197 110
3 106 195 110
3 200 199 198
3 113 198 199
3 113 199 112
3 202 201 199
3 201 112 199
3 112 201 114
3 203 197 109
3 116 203 109
3 197 203 117
3 110 197 117
3 200 198 204
3 201 202 204
3 201 204 118
3 198 113 204
3 113 118 204
3 201 118 114
3 205 203 116
3 205 116 206
3 206 116 120
3 203 205 207
3 203 207 117
3 117 207 121
3 206 120 208
3 208 120 123
3 207 209 121
3 209 124 121
3 126 127 210
3 126 210 128
3 208 123 211
3 211 123 130
3 209 212 124
3 212 131 124
3 210 127 132
3 210 132 128
3 211 130 133
3 213 211 133
3 213 133 131
3 212 213 131
3 135 215 214
3 134 135 214
3 217 216 136
3 217 136 214
3 214 136 134
3 137 136 216
3 218 137 216
3 137 218 138
3 140 141 219
3 142 140 219
3 220 142 219
3 142 220 143
3 221 222 215
3 221 215 144
3 144 215 135
3 222 216 217
3 222 221 216
3 221 223 216
3 147 146 218
3 147 218 223
3 223 218 216
3 218 146 138
3 219 141 149
3 149 150 224
3 149 224 219
3 219 224 220
3 220 224 151
3 143 220 151
3 221 144 153
3 223 221 153
3 155 223 153
3 223 155 147
3 224 150 158
3 224 158 151
3 159 160 225
3 159 225 161
3 163 164 226
3 163 226 165
3 227 225 160
3 166 227 160
3 225 227 168
3 161 225 168
3 226 164 170
3 226 170 165
3 228 227 166
3 171 228 166
3 227 228 173
3 168 227 173
3 174 175 229
3 174 229 176
3 228 171 178
3 228 178 173
3 229 175 180
3 229 180 176
3 192 193 230
3 192 230 194
3 230 193 196
3 230 196 194
3 199 200 231
3 199 231 202
3 231 200 204
3 231 204 202
3 205 206 232
3 205 232 207
3 233 232 206
3 208 233 206
3 232 233 209
3 207 232 209
3 234 233 208
3 211 234 208
3 233 234 212
3 209 233 212
3 234 211 213
3 234 213 212
3 214 215 235
3 214 235 217
3 235 215 222
3 235 222 217
3 238 237 236
3 237 240 239
3 236 237 239
3 240 241 239
3 238 236 242
3 236 239 243
3 242 236 243
3 246 243 239
3 246 239 244
3 241 245 239
3 245 244 239
3 245 247 244
3 246 244 248
3 244 247 248
3 251 250 249
3 238 249 250
3 238 250 237
3 253 252 250
3 252 237 250
3 240 237 252
3 254 240 252
3 240 254 241
3 251 249 255
3 255 256 258
3 255 242 256
3 255 249 242
3 238 242 249
3 253 257 252
3 242 259 256
3 242 243 259
3 257 260 252
3 260 254 252
3 260 241 254
3 260 245 241
3 260 262 245
3 261 245 262
3 259 243 246
3 245 261 247
3 258 256 263
3 265 263 256
3 265 256 264
3 264 256 259
3 262 267 261
3 259 246 266
3 259 266 264
3 266 246 248
3 266 248 247
3 266 247 268
3 261 267 247
3 267 268 247
3 265 264 269
3 264 266 270
3 269 264 270
3 266 268 270
3 250 251 271
3 250 271 253
3 255 272 274
3 255 274 251
3 273 271 274
3 271 251 274
3 272 255 258
3 271 273 253
3 273 257 253
3 273 275 257
3 277 276 260
3 277 260 275
3 275 260 257
3 260 276 262
3 274 272 278
3 280 263 279
3 278 263 280
3 278 258 263
3 278 272 258
3 282 276 277
3 282 281 276
3 265 279 263
3 262 276 281
3 262 281 283
3 262 283 267
3 284 283 281
3 267 283 285
3 268 267 285
3 280 279 286
3 281 282 286
3 281 286 269
3 279 265 286
3 265 269 286
3 284 281 269
3 284 269 287
3 287 269 270
3 287 270 268
3 285 287 268
3 274 289 288
3 273 274 288
3 291 290 275
3 291 275 288
3 288 275 273
3 275 290 277
3 289 274 278
3 292 289 278
3 291 293 290
3 291 278 293
3 291 292 278
3 280 293 278
3 282 277 295
3 282 295 294
3 277 290 295
3 296 295 293
3 290 293 295
3 284 294 295
3 284 295 283
3 298 297 295
3 297 283 295
3 283 297 285
3 293 280 286
3 282 294 299
3 282 299 286
3 296 293 299
3 293 286 299
3 297 298 299
3 297 299 287
3 294 284 299
3 284 287 299
3 297 287 285
3 288 289 300
3 288 300 291
3 300 289 292
3 300 292 291
3 295 296 301
3 295 301 298
3 301 296 299
3 301 299 298
3 304 303 302
3 303 306 305
3 302 303 305
3 306 307 305
3 304 302 308
3 310 308 302
3 310 302 309
3 309 302 305
3 307 311 309
3 305 307 309
3 314 313 312
3 313 315 312
3 317 310 309
3 316 317 309
3 311 318 316
3 309 311 316
3 314 312 319
3 312 315 319
3 317 316 320
3 316 318 320
3 323 322 321
3 322 324 321
3 326 323 321
3 325 326 321
3 324 327 325
3 321 324 325
3 326 325 328
3 325 327 328
3 331 330 329
3 330 332 329
3 303 304 333
3 306 303 333
3 334 306 333
3 306 334 307
3 336 331 329
3 335 336 329
3 332 337 335
3 329 332 335
3 308 338 340
3 308 340 304
3 339 333 340
3 333 304 340
3 333 341 334
3 333 339 341
3 338 308 310
3 334 341 342
3 334 342 307
3 307 342 311
3 335 313 314
3 335 314 336
3 336 314 343
3 313 335 337
3 313 337 315
3 315 337 344
3 346 340 338
3 345 346 338
3 338 317 345
3 310 317 338
3 342 347 311
3 347 318 311
3 319 348 349
3 319 349 314
3 314 349 343
3 348 319 315
3 348 315 350
3 350 315 344
3 346 345 351
3 353 320 352
3 351 320 353
3 351 317 320
3 351 345 317
3 352 320 318
3 352 318 354
3 354 318 347
3 355 356 349
3 355 349 323
3 348 322 349
3 322 323 349
3 322 348 350
3 322 350 324
3 356 355 350
3 355 324 350
3 353 352 357
3 352 354 357
3 358 355 323
3 326 358 323
3 355 358 327
3 324 355 327
3 358 326 328
3 358 328 327
3 361 360 359
3 360 362 359
3 361 359 363
3 359 362 363
3 366 365 364
3 365 367 364
3 369 366 364
3 368 369 364
3 367 370 368
3 364 367 368
3 372 369 368
3 371 372 368
3 370 373 371
3 368 370 371
3 376 375 374
3 375 377 374
3 372 371 378
3 371 373 378
3 376 374 379
3 374 377 379
3 382 381 380
3 381 383 380
3 382 380 384
3 380 383 384
3 331 386 385
3 330 331 385
3 387 332 330
3 387 330 388
3 388 330 385
3 388 389 387
3 392 391 390
3 391 393 390
3 396 395 394
3 395 398 397
3 394 395 397
3 398 399 397
3 386 331 400
3 400 331 336
3 401 332 387
3 337 332 401
3 389 402 401
3 387 389 401
3 392 390 403
3 406 403 390
3 406 390 404
3 393 405 390
3 405 404 390
3 394 339 340
3 396 394 340
3 396 340 404
3 396 404 405
3 397 339 394
3 341 339 397
3 341 397 399
3 341 399 342
3 342 399 407
3 400 336 408
3 408 336 343
3 409 337 401
3 344 337 409
3 402 410 409
3 401 402 409
3 412 406 404
3 411 412 404
3 404 346 411
3 340 346 404
3 407 413 342
3 413 347 342
3 408 343 414
3 414 343 349
3 415 344 409
3 415 416 344
3 416 350 344
3 409 410 415
3 412 411 417
3 419 351 418
3 417 351 419
3 417 346 351
3 417 411 346
3 351 353 418
3 413 420 347
3 420 354 347
3 356 421 422
3 356 422 349
3 349 422 414
3 421 356 350
3 421 350 423
3 423 350 416
3 425 419 418
3 424 425 418
3 357 418 353
3 357 426 418
3 426 424 418
3 426 357 354
3 426 354 427
3 427 354 420
3 429 422 421
3 428 429 421
3 423 431 430
3 423 430 421
3 421 430 428
3 431 432 430
3 425 424 433
3 435 433 424
3 435 424 434
3 434 424 426
3 427 436 434
3 426 427 434
3 438 429 428
3 437 438 428
3 428 430 437
3 430 439 437
3 432 440 439
3 430 432 439
3 434 360 361
3 434 361 435
3 435 361 441
3 360 434 436
3 360 436 362
3 362 436 442
3 444 438 437
3 443 444 437
3 437 439 443
3 439 445 443
3 440 446 445
3 439 440 445
3 363 447 448
3 363 448 361
3 361 448 441
3 447 363 362
3 447 362 449
3 449 362 442
3 444 443 450
3 443 445 451
3 450 443 451
3 445 446 451
3 453 448 447
3 452 453 447
3 449 454 452
3 447 449 452
3 457 456 455
3 456 458 455
3 460 453 452
3 459 460 452
3 454 461 459
3 452 454 459
3 463 457 455
3 462 463 455
3 458 464 462
3 455 458 462
3 459 365 366
3 459 366 460
3 460 366 465
3 365 459 461
3 365 461 367
3 367 461 466
3 463 462 467
3 462 464 467
3 470 469 468
3 469 369 468
3 469 465 369
3 465 366 369
3 466 471 367
3 471 370 367
3 474 473 472
3 473 475 472
3 477 470 468
3 476 477 468
3 468 372 476
3 369 372 468
3 471 478 370
3 478 373 370
3 472 375 376
3 472 376 474
3 474 376 479
3 375 472 475
3 375 475 377
3 377 475 480
3 477 476 481
3 483 378 482
3 481 378 483
3 481 372 378
3 481 476 372
3 482 378 373
3 482 373 484
3 484 373 478
3 379 485 486
3 379 486 376
3 376 486 479
3 485 379 377
3 485 377 487
3 487 377 480
3 489 483 482
3 488 489 482
3 484 490 488
3 482 484 488
3 492 486 485
3 491 492 485
3 487 493 491
3 485 487 491
3 489 488 494
3 488 490 494
3 496 492 491
3 495 496 491
3 493 498 497
3 493 497 491
3 491 497 495
3 498 499 497
3 502 501 500
3 501 504 503
3 500 501 503
3 504 505 503
3 495 381 382
3 495 382 496
3 496 382 506
3 507 495 497
3 507 383 495
3 507 508 383
3 383 381 495
3 497 499 507
3 502 500 509
3 511 509 500
3 511 500 510
3 510 500 503
3 505 512 510
3 503 505 510
3 506 382 384
3 513 506 384
3 513 384 383
3 508 513 383
3 511 510 514
3 510 512 514
3 385 386 515
3 388 385 515
3 516 388 515
3 388 516 389
3 391 392 517
3 391 517 393
3 395 396 518
3 398 395 518
3 519 398 518
3 398 519 399
3 520 515 386
3 400 520 386
3 515 520 516
3 516 520 521
3 516 521 402
3 389 516 402
3 517 392 403
3 405 393 517
3 405 517 522
3 403 406 517
3 406 522 517
3 396 405 522
3 396 522 518
3 518 522 523
3 518 523 519
3 519 523 524
3 519 524 407
3 399 519 407
3 525 520 400
3 408 525 400
3 520 525 521
3 521 525 526
3 521 526 410
3 402 521 410
3 527 522 406
3 412 527 406
3 522 527 523
3 523 527 528
3 523 528 524
3 524 528 529
3 524 529 413
3 407 524 413
3 530 525 408
3 414 530 408
3 416 415 526
3 416 526 530
3 530 526 525
3 526 415 410
3 527 412 417
3 417 419 531
3 417 531 527
3 527 531 528
3 528 531 529
3 529 531 532
3 529 532 420
3 413 529 420
3 533 530 414
3 422 533 414
3 530 533 423
3 416 530 423
3 534 531 419
3 425 534 419
3 531 534 532
3 532 534 535
3 532 535 427
3 420 532 427
3 536 533 422
3 429 536 422
3 431 423 533
3 431 533 537
3 537 533 536
3 431 537 432
3 534 425 433
3 433 435 538
3 433 538 534
3 534 538 535
3 535 538 436
3 427 535 436
3 539 536 429
3 438 539 429
3 536 539 537
3 537 539 540
3 537 540 440
3 432 537 440
3 541 538 435
3 441 541 435
3 538 541 442
3 436 538 442
3 542 539 438
3 444 542 438
3 539 542 540
3 540 542 543
3 540 543 446
3 440 540 446
3 544 541 441
3 448 544 441
3 541 544 449
3 442 541 449
3 542 444 450
3 543 542 450
3 451 543 450
3 543 451 446
3 545 544 448
3 453 545 448
3 544 545 454
3 449 544 454
3 456 457 546
3 456 546 458
3 547 545 453
3 460 547 453
3 545 547 461
3 454 545 461
3 548 546 457
3 463 548 457
3 546 548 464
3 458 546 464
3 549 547 460
3 465 549 460
3 547 549 466
3 461 547 466
3 548 463 467
3 548 467 464
3 469 470 550
3 465 469 550
3 465 550 549
3 549 550 551
3 549 551 471
3 466 549 471
3 473 474 552
3 473 552 475
3 553 550 470
3 477 553 470
3 550 553 551
3 551 553 554
3 551 554 478
3 471 551 478
3 555 552 474
3 479 555 474
3 552 555 480
3 475 552 480
3 553 477 481
3 481 483 556
3 481 556 553
3 553 556 554
3 554 556 484
3 478 554 484
3 557 555 479
3 486 557 479
3 555 557 487
3 480 555 487
3 558 556 483
3 489 558 483
3 556 558 490
3 484 556 490
3 559 557 486
3 492 559 486
3 557 559 493
3 487 557 493
3 558 489 494
3 558 494 490
3 560 559 492
3 496 560 492
3 498 493 559
3 498 559 561
3 561 559 560
3 498 561 499
3 501 502 562
3 504 501 562
3 563 504 562
3 504 563 505
3 564 560 496
3 506 564 496
3 508 507 561
3 508 561 564
3 564 561 560
3 561 507 499
3 562 502 509
3 509 511 565
3 509 565 562
3 562 565 563
3 563 565 512
3 505 563 512
3 564 506 513
3 564 513 508
3 565 511 514
3 565 514 512
