ply
format ascii 1.0
element vertex 112
property float x
property float y
property float z
property uchar red
property uchar green
property uchar blue
element face 208
property list uchar int vertex_indices
end_header
-9.46909904479980469 7 -9 85 75 74
-9 6.78408098220825195 -9 92 86 80
-9 7 -9.46909904479980469 64 57 51
-9 7 -8.46048736572265625 92 80 79
-9.416717529296875 7 8 54 48 52
-9 6.82531261444091797 8 58 54 57
-9 7 7.57159996032714844 83 69 74
-9 7 8.416717529296875 60 56 58
-9.83490943908691406 8 -9 92 85 80
-9 8 -9.83490943908691406 74 73 58
-9.77862930297851562 8 -8 115 109 107
-9 7.17655849456787109 -8 126 123 117
-9.67902469635009766 8 -7 145 144 141
-9 7.51448965072631836 -7 156 156 153
-9.46405601501464844 8 -6 169 174 150
-9 7.80458641052246094 -6 158 176 152
-9 8 -5.20025253295898438 177 183 161
-9.38715267181396484 8 5 121 71 71
-9 7.85738706588745117 5 123 76 77
-9 8 4.4141697883605957 141 74 79
-9.65426921844482422 8 6 103 71 71
-9 7.56553936004638672 6 104 76 79
-9.76836776733398438 8 7 84 66 69
-9 7.2232203483581543 7 83 69 74
-9.83016490936279297 8 8 63 56 59
-9 8 8.83016490936279297 63 59 61
-9 8.83490943908691406 -9 95 85 80
-9 8.77862930297851562 -8 126 117 115
-9 8.67902469635009766 -7 158 158 157
-9 8.46405601501464844 -6 177 183 161
-9 8.38715267181396484 5 125 77 77
-9 8.65426921844482422 6 107 77 78
-9 8.76836776733398438 7 86 71 74
-9 8.83016490936279297 8 63 59 61
-8.6909637451171875 7 -9 92 80 79
-8.7497100830078125 7 8 60 56 58
-8 7.45516633987426758 -9 102 87 84
-8 8 -9.70280361175537109 71 69 55
-8 7.82861757278442383 -8 135 131 123
-8.24803447723388672 8 -7 158 158 157
-8 8 -7.47857189178466797 136 124 121
-8.69738006591796875 8 -6 177 183 161
-8.77884578704833984 8 5 125 77 77
-8.32608127593994141 8 6 107 77 78
-8 7.87260627746582031 7 92 80 84
-8 8 6.61848258972167969 114 86 87
-8 7.4932255744934082 8 68 66 67
-8 8 8.68738079071044922 69 67 67
-8 8.70280361175537109 -9 102 88 83
-8 8.43191051483154297 -8 136 124 121
-8 8.36095523834228516 7 92 80 82
-8 8.68738079071044922 8 69 67 67
-7.09218549728393555 8 -9 102 88 83
-7.71457862854003906 8 -8 136 124 121
-7.78748941421508789 8 7 92 80 82
-7.15439128875732422 8 8 69 67 67
6.0853118896484375 8 -9 93 65 59
7 7.45119333267211914 -9 79 71 50
7 8 -9.70421409606933594 78 61 45
6.70530462265014648 8 -8 96 93 67
7 7.82309341430664062 -8 70 81 56
7 8 -7.45856904983520508 98 95 68
6.77305936813354492 8 7 81 75 77
7 7.86397266387939453 7 68 63 66
7 8 6.59026193618774414 102 97 98
6.14263677597045898 8 8 62 51 58
7 7.48624706268310547 8 50 41 49
7 8 8.69028663635253906 64 53 60
7 8.70421409606933594 -9 95 65 59
7 8.43955612182617188 -8 98 95 68
7 8.37618160247802734 7 84 77 80
7 8.69028663635253906 8 64 53 60
7.68509578704833984 7 -9 79 71 50
8 6.78004121780395508 -9 61 65 42
8 7 -9.47360038757324219 67 40 40
8 7 -8.44793033599853516 80 71 51
7.73913812637329102 7 8 50 41 49
8 6.81795263290405273 8 35 31 37
8 7 7.55136537551879883 70 65 68
8 7 8.42676544189453125 51 42 50
8 8 -9.83529853820800781 74 57 43
8 7.17100906372070312 -8 72 82 57
7.23634767532348633 8 -7 85 99 77
8 7.50704622268676758 -7 66 84 68
7.68279552459716797 8 -6 93 106 96
8 7.795166015625 -6 83 94 91
8 8 -5.1549224853515625 91 104 94
7.75967025756835938 8 5 119 100 100
8 7.84503555297851562 5 105 87 89
8 8 4.35897970199584961 135 98 98
7.30947542190551758 8 6 102 97 98
8 7.55487298965454102 6 88 83 85
8 7.21430301666259766 7 70 65 68
8 8 8.83100509643554688 64 53 60
8 8.83529853820800781 -9 94 64 59
8 8.77967262268066406 -8 100 96 69
8 8.68216514587402344 -7 86 100 77
8 8.47560024261474609 -6 91 104 94
8 8.40694713592529297 5 119 99 100
8 8.65967178344726562 6 102 97 98
8 8.77035331726074219 7 84 78 80
8 8.83100509643554688 8 64 53 60
8.47360038757324219 7 -9 80 71 51
8.42676544189453125 7 8 51 42 50
8.83529853820800781 8 -9 94 64 59
8.77967262268066406 8 -8 100 96 69
8.68216514587402344 8 -7 86 100 77
8.47560024261474609 8 -6 91 104 94
8.40694713592529297 8 5 119 99 100
8.65967178344726562 8 6 102 97 98
8.77035331726074219 8 7 84 78 80
8.83100509643554688 8 8 64 53 60
3 2 1 0
3 1 3 0
3 6 5 4
3 5 7 4
3 9 2 0
3 8 9 0
3 3 11 10
3 3 10 0
3 0 10 8
3 11 13 12
3 10 11 12
3 13 15 14
3 12 13 14
3 15 16 14
3 19 18 17
3 18 21 20
3 17 18 20
3 21 23 22
3 20 21 22
3 23 6 4
3 23 4 22
3 22 4 24
3 7 25 24
3 4 7 24
3 9 8 26
3 8 10 27
3 26 8 27
3 10 12 28
3 27 10 28
3 12 14 29
3 28 12 29
3 14 16 29
3 19 17 30
3 17 20 31
3 30 17 31
3 20 22 32
3 31 20 32
3 22 24 33
3 32 22 33
3 24 25 33
3 1 2 34
3 1 34 3
3 5 6 35
3 5 35 7
3 36 34 2
3 36 2 37
3 37 2 9
3 34 11 3
3 34 36 11
3 36 38 11
3 40 39 13
3 40 13 38
3 38 13 11
3 15 13 39
3 41 15 39
3 15 41 16
3 18 19 42
3 21 18 42
3 43 21 42
3 43 45 44
3 43 44 21
3 21 44 23
3 6 46 35
3 6 23 46
3 23 44 46
3 35 46 47
3 35 47 7
3 7 47 25
3 37 9 26
3 48 37 26
3 48 26 49
3 26 27 49
3 39 40 49
3 39 49 28
3 28 49 27
3 41 39 28
3 29 41 28
3 41 29 16
3 42 19 30
3 43 42 30
3 31 43 30
3 45 43 31
3 45 31 50
3 50 31 32
3 50 32 51
3 32 33 51
3 51 33 25
3 47 51 25
3 36 37 52
3 38 36 52
3 53 38 52
3 38 53 40
3 44 45 54
3 46 44 54
3 55 46 54
3 46 55 47
3 52 37 48
3 53 52 48
3 49 53 48
3 53 49 40
3 54 45 50
3 55 54 50
3 51 55 50
3 55 51 47
3 58 57 56
3 57 60 59
3 56 57 59
3 60 61 59
3 64 63 62
3 63 66 65
3 62 63 65
3 66 67 65
3 58 56 68
3 56 59 69
3 68 56 69
3 59 61 69
3 64 62 70
3 62 65 71
3 70 62 71
3 65 67 71
3 74 73 72
3 73 75 72
3 78 77 76
3 77 79 76
3 72 57 58
3 72 58 74
3 74 58 80
3 75 57 72
3 75 81 57
3 81 60 57
3 82 61 60
3 82 60 83
3 83 60 81
3 83 85 84
3 82 83 84
3 85 86 84
3 89 88 87
3 88 91 90
3 87 88 90
3 64 90 91
3 64 91 63
3 63 91 92
3 76 92 78
3 76 66 92
3 66 63 92
3 66 76 79
3 66 79 67
3 67 79 93
3 80 58 68
3 94 80 68
3 94 68 95
3 68 69 95
3 61 82 96
3 61 96 69
3 69 96 95
3 82 84 97
3 96 82 97
3 84 86 97
3 89 87 98
3 87 90 99
3 98 87 99
3 90 64 70
3 90 70 99
3 99 70 100
3 100 70 101
3 70 71 101
3 101 71 67
3 93 101 67
3 73 74 102
3 73 102 75
3 77 78 103
3 77 103 79
3 104 102 74
3 80 104 74
3 81 75 102
3 81 102 105
3 105 102 104
3 83 81 105
3 106 83 105
3 85 83 106
3 107 85 106
3 85 107 86
3 88 89 108
3 91 88 108
3 109 91 108
3 92 91 109
3 110 92 109
3 78 92 110
3 78 110 103
3 103 110 111
3 103 111 93
3 79 103 93
3 104 80 94
3 105 104 94
3 95 105 94
3 106 105 95
3 96 106 95
3 107 106 96
3 97 107 96
3 107 97 86
3 108 89 98
3 109 108 98
3 99 109 98
3 110 109 99
3 100 110 99
3 111 110 100
3 101 111 100
3 111 101 93
