ply
format ascii 1.0
element vertex 692
property float x
property float y
property float z
property uchar red
property uchar green
property uchar blue
element face 1380
property list uchar int vertex_indices
end_header
-7.16976594924926758 8 -2 22 36 26
-7 7.87438869476318359 -2 18 18 15
-7 8 -2.67712569236755371 29 32 29
-7.27730941772460938 8 -1 23 35 25
-7 7.80229473114013672 -1 16 16 14
-7.24085140228271484 8 0 23 35 24
-7 7.83273458480834961 0 16 15 13
-7.06199407577514648 8 1 21 36 23
-7 7.9575800895690918 1 17 15 13
-7 8 1.19487011432647705 29 30 29
-7 8.71120071411132812 -2 30 31 30
-7 8.79626369476318359 -1 29 30 29
-7 8.76998710632324219 0 29 29 29
-7 8.46310234069824219 1 29 30 29
-6.42164182662963867 8 -4 26 34 27
-6 7.71999073028564453 -4 17 17 15
-6 8 -4.66530370712280273 28 32 29
-6.90039873123168945 8 -3 29 32 29
-6 7.42949008941650391 -3 12 12 11
-6 7.25234222412109375 -2 8 7 7
-6 7.18653726577758789 -1 6 5 5
-6 7.23182487487792969 0 6 4 4
-6 7.37983083724975586 1 7 6 6
-6.68010854721069336 8 2 28 31 26
-6 7.61491155624389648 2 9 9 9
-6.13196516036987305 8 3 25 33 23
-6 7.92540693283081055 3 13 12 11
-6 8 3.18706560134887695 27 27 27
-6 8.84110736846923828 -4 28 29 27
-6 8.91390609741210938 -3 24 26 20
-6 8.93187808990478516 -2 23 24 16
-6 8.93666172027587891 -1 22 22 14
-6 8.93386173248291016 0 22 21 14
-6 8.92145252227783203 1 23 22 16
-6 8.88340568542480469 2 24 25 20
-6 8.60371017456054688 3 27 27 27
-5.26594877243041992 7 -3 12 12 11
-5 6.79845905303955078 -3 10 9 8
-5 7 -3.51401710510253906 8 7 7
-5.5782628059387207 7 -2 8 7 7
-5 6.5262446403503418 -2 13 12 8
-5.69202041625976562 7 -1 6 5 5
-5 6.40747213363647461 -1 14 14 9
-5.61431264877319336 7 0 6 4 4
-5 6.47303485870361328 0 15 15 9
-5.34779691696166992 7 1 7 6 6
-5 6.71463251113891602 1 14 14 10
-5 7 1.75581252574920654 1 1 0
-5.74415445327758789 8 -5 28 32 29
-5 7.57913064956665039 -5 15 15 15
-5 8 -5.77058601379394531 29 32 29
-5 7.15549278259277344 -4 8 7 7
-5 7.07085418701171875 2 0 0 0
-5 7.44170618057250977 3 4 4 4
-5.30248689651489258 8 4 27 30 24
-5 7.85759973526000977 4 10 9 9
-5 8 4.28963327407836914 25 25 23
-5 8.88565921783447266 -5 24 28 23
-5 8.93697643280029297 -4 20 24 15
-5 8.95131683349609375 -3 19 20 9
-5 8.95688915252685547 -2 17 14 6
-5 8.95852851867675781 -1 15 10 5
-5 8.95731067657470703 0 14 9 5
-5 8.95272254943847656 1 15 10 6
-5 8.9419708251953125 2 17 14 9
-5 8.91335296630859375 3 21 19 14
-5 8.741668701171875 4 25 25 23
-4.01172065734863281 6 -3 10 9 8
-4 5.98435783386230469 -3 21 23 15
-4 6 -3.01882123947143555 11 9 8
-4.39750385284423828 6 -2 13 12 8
-4 5.41556072235107422 -2 19 25 13
-4.55314970016479492 6 -1 14 14 9
-4 5.14183521270751953 -1 17 26 12
-4.48418855667114258 6 0 15 15 9
-4 5.24251651763916016 0 16 27 12
-4.19352960586547852 6 1 14 14 10
-4 5.70896768569946289 1 17 26 14
-4 6 1.3749929666519165 16 19 8
-4.69724273681640625 7 -4 8 7 7
-4 6.52939558029174805 -4 11 9 8
-4 7 -4.79150056838989258 8 7 6
-4.86750173568725586 7 2 0 0 0
-4 6.32134866714477539 2 16 17 10
-4.09073352813720703 7 3 4 4 4
-4 6.93853569030761719 3 15 15 11
-4 7 3.08924484252929688 2 1 1
-4.73088645935058594 8 -6 29 32 29
-4 7.65689611434936523 -6 15 15 15
-4 8 -6.49906587600708008 27 32 29
-4 7.09672117233276367 -5 8 7 6
-4 7.45535516738891602 4 2 2 2
-4.08897876739501953 8 5 26 29 23
-4 7.96602535247802734 5 9 8 8
-4 8 5.05772304534912109 24 24 24
-4 8.86231517791748047 -6 24 28 24
-4 8.93942642211914062 -5 19 23 14
-4 8.95647144317626953 -4 17 18 7
-4 8.96325588226318359 -3 13 10 3
-4 8.96626377105712891 -2 9 5 1
-4 8.96719932556152344 -1 7 2 1
-4 8.96649169921875 0 7 2 1
-4 8.96388912200927734 1 8 2 1
-4 8.95824527740478516 2 10 4 3
-4 8.9459228515625 3 14 10 6
-4 8.91037940979003906 4 19 18 13
-4 8.40749263763427734 5 24 24 24
-3.13639521598815918 3 -1 24 35 28
-3 2.30776214599609375 -1 22 38 33
-3 3 -1.61703598499298096 18 35 24
-3.07854676246643066 3 0 25 35 29
-3 2.6015772819519043 0 23 39 34
-3 3 0.232401147484779358 17 36 27
-3.20649337768554688 4 -2 20 30 19
-3 3.30102801322937012 -2 18 35 24
-3 4 -2.40921616554260254 19 31 16
-3.42601943016052246 4 -1 18 31 18
-3.36334919929504395 4 0 18 32 20
-3.02159667015075684 4 1 21 32 22
-3 3.92572402954101562 1 20 36 29
-3 4 1.03437554836273193 15 33 19
-3.1758732795715332 5 -3 21 23 15
-3 4.64676904678344727 -3 19 31 16
-3 5 -3.21988677978515625 23 24 14
-3.67931556701660156 5 -2 19 25 13
-3.89546704292297363 5 -1 17 26 12
-3.82288384437561035 5 0 16 27 12
-3.46639919281005859 5 1 17 26 14
-3 5 1.73216509819030762 12 29 10
-3.21413707733154297 6 -4 11 9 8
-3 5.77033138275146484 -4 23 24 14
-3 6 -4.19235610961914062 11 8 8
-3.58797311782836914 6 2 16 17 10
-3 5.24669551849365234 2 16 28 13
-3 6 2.61958122253417969 16 21 7
-3.76424074172973633 7 -5 8 7 6
-3 6.60114717483520508 -5 11 8 8
-3 7 -5.51887178421020508 10 10 8
-3 6.29065608978271484 3 17 19 10
-3 7 3.86121535301208496 7 5 3
-3.08029270172119141 8 -7 27 32 29
-3 7.97015094757080078 -7 17 18 15
-3 8 -7.03541326522827148 23 33 29
-3 7.28664016723632812 -6 10 10 8
-3 7.07829856872558594 4 2 2 1
-3 7.66740036010742188 5 4 3 3
-3 8 5.55217742919921875 20 20 16
-3 8.35434627532958984 -7 29 29 29
-3 8.92549800872802734 -6 19 24 16
-3 8.95466518402099609 -5 15 18 7
-3 8.96439933776855469 -4 12 11 3
-3 8.96881675720214844 -3 7 4 1
-3 8.97089767456054688 -2 4 1 0
-3 8.97157573699951172 -1 2 0 0
-3 8.97110176086425781 0 1 0 0
-3 8.96931362152099609 1 2 0 0
-3 8.96552658081054688 2 4 0 0
-3 8.95782947540283203 3 8 3 2
-3 8.93963813781738281 4 14 10 7
-3 8.86449050903320312 5 20 20 16
-2.0896761417388916 -3 -1 28 45 39
-2 -3.61947202682495117 -1 27 46 37
-2 -3 -1.28979301452636719 31 45 39
-2 -3 -0.044050220400094986 34 45 42
-2.23143625259399414 -2 -1 34 44 42
-2 -2 -1.75147342681884766 38 44 42
-2.13984775543212891 -2 0 34 44 43
-2 -2.97125887870788574 0 34 46 44
-2 -2 0.285290330648422241 41 45 45
-2.06594252586364746 -1 -2 38 42 41
-2 -1.46368312835693359 -2 38 44 42
-2 -1 -2.09196090698242188 39 42 41
-2.37578129768371582 -1 -1 41 43 42
-2.2877347469329834 -1 0 41 43 43
-2 -1 0.594997227191925049 39 44 44
-2.21539855003356934 0 -2 38 41 40
-2 0 -2.30070710182189941 37 41 39
-2.5290830135345459 0 -1 37 41 41
-2.44450020790100098 0 0 37 42 42
-2 0 0.930560052394866943 31 42 42
-2.38434314727783203 1 -2 31 39 37
-2 1 -2.53638720512390137 30 39 35
-2.70198965072631836 1 -1 29 40 38
-2.61969327926635742 1 0 30 40 39
-2.14319872856140137 1 1 33 41 40
-2 0.186826184391975403 1 34 43 43
-2 1 1.16327691078186035 27 41 40
-2.5928952693939209 2 -2 24 38 31
-2 2 -2.82709550857543945 23 38 28
-2.91392135620117188 2 -1 22 38 33
-2.83179640769958496 2 0 23 39 34
-2.35247182846069336 2 1 26 39 35
-2 2 1.40260422229766846 21 40 35
-2.15684056282043457 3 -3 22 34 23
-2 2.44431686401367188 -3 23 38 28
-2 3 -3.13864016532897949 25 34 23
-2.87691688537597656 3 -2 18 35 24
-2.62824416160583496 3 1 20 36 29
-2 3 1.71615564823150635 15 37 28
-2.57385659217834473 4 -3 19 31 16
-2 4 -3.50705695152282715 23 30 17
-2.14363360404968262 4 2 19 33 21
-2 3.63922691345214844 2 20 37 29
-2 4 2.11092257499694824 15 34 19
-2.11867475509643555 5 -4 23 24 14
-2 4.83382129669189453 -4 23 30 17
-2 5 -4.07582521438598633 22 21 15
-2.75927615165710449 5 2 16 28 13
-2 5 2.57956027984619141 13 30 10
-2 6 -4.82710790634155273 14 9 8
-2.49420905113220215 6 3 17 19 10
-2 5.55536460876464844 3 19 28 15
-2 6 3.2815241813659668 18 21 8
-2 6.14297628402709961 -5 14 9 8
-2 7 -5.99570846557617188 6 6 4
-2.74630093574523926 7 4 2 2 1
-2 6.68308544158935547 4 18 18 12
-2 7 4.33116579055786133 6 4 3
-2 7.71736812591552734 -7 15 15 14
-2 8 -7.33823060989379883 25 31 29
-2 7.00270605087280273 -6 6 6 4
-2 7.43431901931762695 5 0 0 0
-2 8 5.90303707122802734 16 15 11
-2 8.83586502075195312 -7 23 27 23
-2 8.94281101226806641 -6 15 21 11
-2 8.96114444732666016 -5 13 14 4
-2 8.96826362609863281 -4 8 6 1
-2 8.97168922424316406 -3 3 1 0
-2 8.97334861755371094 -2 0 0 0
-2 8.97390556335449219 -1 1 0 0
-2 8.97354888916015625 0 2 0 0
-2 8.97215557098388672 1 1 0 0
-2 8.96921730041503906 2 0 0 0
-2 8.96340465545654297 3 4 1 0
-2 8.95070362091064453 4 9 6 3
-2 8.91097545623779297 5 16 15 11
-1.00115358829498291 -7 -1 25 49 9
-1 -7.00283288955688477 -1 43 49 6
-1 -7 -1.00188350677490234 30 49 9
-1 -7 -0.98867189884185791 27 49 10
-1.34207570552825928 -6 -1 15 48 14
-1 -6 -1.59165060520172119 20 48 15
-1.21086633205413818 -6 0 14 49 15
-1 -6.67418575286865234 0 25 50 10
-1 -6 0.252514749765396118 16 49 17
-1.08519244194030762 -5 -2 18 47 22
-1 -5.26629209518432617 -2 20 48 15
-1 -5 -2.06677079200744629 18 47 17
-1.63775300979614258 -5 -1 20 47 28
-1.48635423183441162 -5 0 20 48 30
-1 -5 0.574015378952026367 23 48 32
-1.36516118049621582 -4 -2 24 46 33
-1 -4 -2.2919619083404541 23 46 28
-1.90455794334411621 -4 -1 27 46 37
-1.74283254146575928 -4 0 27 47 39
-1 -4 0.875359594821929932 30 47 41
-1.6219482421875 -3 -2 31 45 39
-1 -3 -2.50416874885559082 30 45 36
-1.99281907081604004 -3 0 34 46 44
-1.1472017765045166 -3 1 31 46 44
-1 -3.58580279350280762 1 28 48 41
-1 -3 1.09598028659820557 35 47 45
-1.86807537078857422 -2 -2 38 44 42
-1 -2 -2.70915126800537109 37 44 40
-1.40258324146270752 -2 1 38 45 45
-1 -2 1.26466584205627441 43 46 45
-1 -1 -2.91365289688110352 42 43 42
-1.66581690311431885 -1 1 43 44 44
-1 -1 1.44122099876403809 39 44 44
-1.15115749835968018 0 -3 37 41 39
-1 -0.593975067138671875 -3 42 43 42
-1 0 -3.07832527160644531 40 41 40
-1.94335663318634033 0 1 34 43 43
-1 0 1.62917721271514893 31 43 43
-1.43644273281097412 1 -3 30 39 35
-1 1 -3.22635149955749512 33 39 35
-1 1 1.83714640140533447 23 42 40
-1.78947567939758301 2 -3 23 38 28
-1 2 -3.40925955772399902 27 37 27
-1.11993718147277832 2 2 26 40 36
-1 1.66594672203063965 2 30 42 40
-1 2 2.05480360984802246 23 40 35
-1 3 -3.65887236595153809 23 35 20
-1.58070755004882812 3 2 20 37 29
-1 3 2.26436829566955566 17 38 27
-1.06133806705474854 4 -4 23 30 17
-1 3.91649413108825684 -4 23 35 20
-1 4 -4.0230402946472168 28 29 21
-1 4 2.56441378593444824 12 35 17
-1 5 -4.44913673400878906 24 21 14
-1.07463598251342773 5 3 19 28 15
-1 4.93139934539794922 3 19 34 20
-1 5 3.02531075477600098 18 29 13
-1.53513574600219727 6 -5 14 9 8
-1 5.75939702987670898 -5 24 21 14
-1 6 -5.1534271240234375 10 8 7
-1 6 3.61357450485229492 19 23 7
-1.98425507545471191 7 -6 6 6 4
-1 6.79728317260742188 -6 10 8 7
-1 7 -6.21588134765625 12 12 12
-1 6.39333295822143555 4 20 20 11
-1 7 4.58331203460693359 8 5 3
-1 7.57408237457275391 -7 12 12 12
-1 8 -7.50931644439697266 26 30 28
-1 7.28626060485839844 5 2 1 1
-1.50141191482543945 8 6 23 23 23
-1 7.94391489028930664 6 5 5 5
-1 8 6.07991409301757812 20 21 19
-1 8.88283538818359375 -7 20 25 20
-1 8.94917869567871094 -6 13 19 9
-1 8.96395778656005859 -5 11 12 3
-1 8.97005653381347656 -4 6 4 0
-1 8.97306060791015625 -3 1 0 0
-1 8.97453022003173828 -2 2 0 0
-1 8.97503089904785156 -1 3 0 0
-1 8.97472858428955078 0 4 0 0
-1 8.97351837158203125 1 3 0 0
-1 8.97096061706542969 2 1 0 0
-1 8.96594429016113281 3 1 0 0
-1 8.95529937744140625 4 7 4 2
-1 8.92511081695556641 5 13 12 8
-1 8.52493381500244141 6 20 21 19
0 -7.75331449508666992 -1 47 50 7
0 -7 -1.50068020820617676 34 49 10
-0.668645381927490234 -7 0 25 50 10
0 -7.55000877380371094 0 46 50 6
0 -7 0.252582937479019165 28 50 11
-0.235407188534736633 -6 -2 20 48 15
0 -6.19131040573120117 -2 34 49 10
0 -6 -2.05501484870910645 27 48 12
0 -6 0.622376859188079834 18 49 17
0 -5 -2.30750513076782227 22 47 18
0 -5 0.941891849040985107 24 49 31
0 -4 -2.5398101806640625 24 46 27
-0.661406934261322021 -4 1 28 48 41
0 -4.80767250061035156 1 22 49 30
0 -4 1.13192582130432129 29 48 40
0 -3 -2.75750517845153809 31 45 36
0 -3 1.29705929756164551 37 47 45
0 -2 -2.96631979942321777 38 44 41
0 -2 1.46819186210632324 44 46 46
-0.665521919727325439 -1 -3 42 43 42
0 -1.83562600612640381 -3 38 44 41
0 -1 -3.10574173927307129 36 42 38
0 -1 1.64726877212524414 38 45 44
0 0 -3.23794722557067871 40 41 40
0 0 1.83757519721984863 30 44 42
0 1 -3.38666963577270508 33 40 34
-0.224429890513420105 1 2 30 42 40
0 0.776898682117462158 2 37 44 43
0 1 2.0311431884765625 29 42 39
0 2 -3.56999087333679199 26 38 26
0 2 2.19306445121765137 22 41 34
0 3 -3.81975889205932617 23 35 20
0 3 2.4022209644317627 16 38 26
0 3.49569344520568848 -4 23 35 20
0 4 -4.13540029525756836 29 30 21
0 4 2.70117807388305664 12 35 15
0 5 -4.55903816223144531 24 21 14
0 4.65492486953735352 3 18 35 18
0 5 3.12368083000183105 19 30 12
0 5.62382364273071289 -5 24 21 14
0 6 -5.23247957229614258 11 9 8
0 6 3.70656871795654297 21 23 7
0 6.74214649200439453 -6 11 9 8
0 7 -6.2667393684387207 11 11 11
0 6.30660009384155273 4 20 20 11
0 7 4.64535713195800781 9 6 4
0 7.54478359222412109 -7 11 11 11
0 8 -7.54167079925537109 26 29 28
0 7.24953937530517578 5 3 2 2
0 7.92374944686889648 6 4 4 4
0 8 6.10760211944580078 19 19 18
0 8.88873195648193359 -7 19 24 19
0 8.95026302337646484 -6 11 18 8
0 8.96450710296630859 -5 9 11 2
0 8.97044181823730469 -4 4 4 0
0 8.97337150573730469 -3 0 0 0
0 8.97480583190917969 -2 3 0 0
0 8.97529697418212891 -1 4 0 0
0 8.97500705718994141 0 5 0 0
0 8.97383594512939453 1 4 0 0
0 8.97135543823242188 2 2 0 0
0 8.96648788452148438 3 0 0 0
0 8.95618629455566406 4 6 3 1
0 8.92734622955322266 5 12 11 7
0 8.59796333312988281 6 19 19 18
0.804119408130645752 -7 -1 31 50 11
0.539912760257720947 -7 0 28 50 11
0.188917115330696106 -6 -2 24 49 15
1 -6.7828068733215332 -1 36 50 10
1 -6 -1.46431934833526611 28 49 14
1 -6.44684791564941406 0 34 50 10
1 -6 0.169569686055183411 22 50 16
1 -5.04251718521118164 -2 28 49 14
1 -5 -2.01074957847595215 25 47 17
1 -5 0.493939220905303955 23 49 27
1 -4 -2.23576498031616211 24 47 23
0.541995584964752197 -4 1 29 48 40
1 -4 0.794712424278259277 30 48 38
1 -3 -2.44765686988830566 30 46 33
1 -3.3135368824005127 1 28 48 37
1 -3 1.05104005336761475 35 47 43
1 -2 -2.65218043327331543 37 45 39
1 -2 1.21762168407440186 43 46 45
0.54339897632598877 -1 -3 41 43 42
1 -1 -2.85596442222595215 43 43 43
1 -1 1.39171051979064941 40 45 44
1 -0.320779353380203247 -3 43 43 43
1 0 -3.04217338562011719 40 41 41
1 0 1.57688248157501221 32 44 41
1 1 -3.18869400024414062 35 40 35
0.176874160766601562 1 2 29 42 39
1 1 1.78155696392059326 25 43 37
1 2 -3.36907672882080078 29 38 28
1 1.90403866767883301 2 31 43 39
1 2 2.01557064056396484 24 41 32
1 3 -3.6144111156463623 27 35 21
1 3 2.22147679328918457 18 39 24
0.909593403339385986 4 -4 24 32 14
1 4 -3.98096060752868652 27 32 16
1 4 2.51576876640319824 13 36 13
1 4.03472661972045898 -4 27 32 16
1 5 -4.40350484848022461 24 20 15
0.875669300556182861 5 3 19 30 12
1 5 2.97623801231384277 17 31 8
1 5.83356952667236328 -5 24 20 15
1 6 -5.10444974899291992 10 9 8
1 5.03388261795043945 3 22 30 13
1 6 3.55875897407531738 23 23 8
1 6.85718488693237305 -6 10 9 8
1 7 -6.14887428283691406 11 11 11
1 6.454010009765625 4 20 19 12
1 7 4.51758337020874023 9 5 4
1 7.63349151611328125 -7 11 11 11
1 8 -7.43364334106445312 24 29 28
1 7.33604145050048828 5 3 2 2
1 7.99774742126464844 6 4 4 4
1 8 6.00317192077636719 19 19 19
1 8.86602306365966797 -7 19 24 21
1 8.94673919677734375 -6 10 18 9
1 8.96298789978027344 -5 8 11 3
1 8.96952247619628906 -4 5 5 0
1 8.9727020263671875 -3 0 0 0
1 8.97424697875976562 -2 2 0 0
1 8.97477245330810547 -1 4 0 0
1 8.97445774078369141 0 5 0 0
1 8.97319221496582031 1 4 0 0
1 8.97050857543945312 2 2 0 0
1 8.96520042419433594 3 1 0 0
1 8.95373439788818359 4 6 4 2
1 8.91962814331054688 5 12 12 7
1 8.04230022430419922 6 19 19 19
1.25132739543914795 -6 -1 25 49 16
1.13185310363769531 -6 0 22 50 16
1.01280534267425537 -5 -2 23 48 21
1.52996981143951416 -5 -1 23 49 24
1.3909761905670166 -5 0 23 49 27
1.27584385871887207 -4 -2 28 47 31
1.78117144107818604 -4 -1 30 48 36
1.63129329681396484 -4 0 30 48 38
1.51698899269104004 -3 -2 35 46 39
2 -3.07240748405456543 -1 26 48 29
2 -3 -1.03391265869140625 31 46 34
1.86392247676849365 -3 0 38 47 44
2 -3 -0.888117134571075439 34 47 38
1.07324707508087158 -3 1 35 47 43
1.74718272686004639 -2 -2 43 45 44
2 -2 -1.49139869213104248 38 45 41
2 -2.41281437873840332 0 34 47 39
1.30932104587554932 -2 1 43 46 45
2 -2 0.119591742753982544 41 46 44
1.97665154933929443 -1 -2 38 44 41
2 -1 -1.95313799381256104 43 44 44
1.55129873752593994 -1 1 40 45 44
2 -1 0.420110642910003662 42 45 44
1.07600522041320801 0 -3 35 42 37
2 -0.902133047580718994 -2 43 44 44
2 0 -2.18573141098022461 40 42 40
1.80478107929229736 0 1 32 44 41
2 0 0.744393527507781982 33 44 40
1.33895969390869141 1 -3 27 41 31
2 1 -2.41674375534057617 32 41 33
2 0.704980075359344482 1 37 44 41
2 1 1.05795252323150635 29 43 36
1.66061043739318848 2 -3 21 39 23
2 2 -2.69985342025756836 26 39 25
1.03137469291687012 2 2 24 41 32
2 2 1.28934347629547119 23 41 29
2 2.78751897811889648 -3 26 39 25
2 3 -3.0517885684967041 32 35 25
1.44494688510894775 3 2 18 39 24
2 3 1.59141087532043457 17 39 20
2 4 -3.4060065746307373 31 32 19
2 3.94448733329772949 2 22 39 23
2 4 2.0166468620300293 20 35 16
1.96666169166564941 5 -4 27 25 10
2 5 -3.98058509826660156 27 22 13
2 5 2.46697759628295898 23 31 11
1.31047666072845459 6 -5 16 8 8
2 5.02187681198120117 -4 27 22 13
2 6 -4.70170736312866211 15 10 9
2 5.71978616714477539 3 26 30 16
2 6 3.17332291603088379 22 20 10
1.51883292198181152 7 -6 3 3 2
2 6.25419712066650391 -5 15 10 9
2 7 -5.83103513717651367 4 4 3
2 6.80356645584106445 4 19 17 13
2 7 4.19925546646118164 7 4 4
2 7.83881139755249023 -7 12 13 12
2 8 -7.18951749801635742 22 29 29
2 7.11048269271850586 -6 4 4 3
2 7.53496694564819336 5 1 1 1
1.01332759857177734 8 6 19 19 19
2 8 5.71823024749755859 13 14 10
2 8.74282169342041016 -7 22 25 23
2 8.93586349487304688 -6 11 19 11
2 8.95864295959472656 -5 7 12 4
2 8.96692943572998047 -4 5 6 1
2 8.97080516815185547 -3 2 1 0
2 8.97265625 -2 1 0 0
2 8.97327518463134766 -1 3 1 0
2 8.97288799285888672 0 3 1 0
2 8.97135734558105469 1 2 0 0
2 8.96809673309326172 2 0 0 0
2 8.961517333984375 3 2 1 0
2 8.94648361206054688 4 8 7 3
2 8.89287662506103516 5 13 14 10
2.01011848449707031 -3 -1 34 47 38
2.14541769027709961 -2 -1 41 46 43
2.05655384063720703 -2 0 41 46 44
2.28215742111206055 -1 -1 41 45 43
2.19605255126953125 -1 0 42 45 44
2.12765359878540039 0 -2 35 43 38
2.42621326446533203 0 -1 33 43 38
2.34295773506164551 0 0 33 44 40
2.28588557243347168 1 -2 27 42 31
2.58714675903320312 1 -1 25 42 33
2.50577926635742188 1 0 26 42 34
2.04873991012573242 1 1 29 43 36
2.47889256477355957 2 -2 21 40 24
2.78214859962463379 2 -1 19 40 25
2.70082426071166992 2 0 19 41 27
2.24225664138793945 2 1 23 41 29
2.05577659606933594 3 -3 24 37 19
2.73820114135742188 3 -2 17 38 15
3 2.84150528907775879 -1 26 40 26
3 3 -1.13781082630157471 27 37 21
2.95817041397094727 3 0 14 39 18
3 3 -0.499734312295913696 23 38 20
2.49415254592895508 3 1 17 39 20
2.43456864356994629 4 -3 26 33 14
3 3.69511771202087402 -2 27 37 21
3 4 -2.17214536666870117 32 33 19
3 3.1163337230682373 0 22 38 20
2.85716867446899414 4 1 15 36 12
3 4 0.694288969039916992 23 35 15
2.02032995223999023 4 2 20 35 16
3 4.93853569030761719 -3 32 33 19
3 5 -3.03669238090515137 25 19 16
3 4.26303625106811523 1 25 35 17
2.57123804092407227 5 2 23 31 11
3 5 1.49261748790740967 27 31 12
3 5.98922109603881836 -4 25 19 16
3 6 -4.00860500335693359 13 11 10
3 5.48374462127685547 2 28 30 15
2.27776145935058594 6 3 22 20 10
3 6 2.40942764282226562 23 18 9
3 6.77408361434936523 -5 13 11 10
3 7 -5.27521085739135742 7 7 6
3 6.4664459228515625 3 21 16 12
2.39034485816955566 7 4 7 4 4
3 7 3.6202545166015625 9 5 4
2.50026297569274902 8 -7 22 25 23
3 7.45571136474609375 -6 7 7 6
3 8 -6.76464509963989258 25 26 26
3 7.22333383560180664 4 4 4 3
3 7.82223415374755859 5 1 1 1
3 8 5.28266525268554688 15 16 14
3 8.90360641479492188 -6 15 21 17
3 8.94865131378173828 -5 8 15 7
3 8.96143245697021484 -4 6 9 2
3 8.96691131591796875 -3 4 5 0
3 8.96942615509033203 -2 1 1 0
3 8.97024345397949219 -1 0 0 0
3 8.96970272064208984 0 0 0 0
3 8.96760845184326172 1 0 0 0
3 8.96307468414306641 2 2 1 0
3 8.95345783233642578 3 5 5 2
3 8.92836284637451172 4 9 11 6
3 8.77069950103759766 5 15 16 14
3.02914333343505859 3 -1 23 38 20
3.08337807655334473 4 -2 28 34 16
3.29206466674804688 4 -1 25 35 14
3.22985243797302246 4 0 23 35 15
3.02798104286193848 5 -3 28 23 13
3.50659751892089844 5 -2 29 28 10
3.71123337745666504 5 -1 28 30 9
3.64068937301635742 5 0 27 31 10
3.3002171516418457 5 1 27 31 12
3.00896286964416504 6 -4 17 10 9
3.7621757984161377 6 -3 20 9 7
4 5.6993865966796875 -2 28 22 16
4 6 -2.49935221672058105 18 12 10
4 5.4274134635925293 -1 29 25 15
4 5.53615903854370117 0 29 26 15
3.98926448822021484 6 1 24 19 7
4 6 0.969801962375640869 22 13 9
3.36527252197265625 6 2 23 18 9
3.36198544502258301 7 -5 0 0 0
4 6.75361013412475586 -4 14 12 11
4 7 -4.37888813018798828 4 4 3
4 6.20118093490600586 -3 18 12 10
4 6.00995588302612305 1 21 14 10
4 6.54762077331542969 2 20 14 12
3.72791481018066406 7 3 9 5 4
4 7 2.69947671890258789 8 6 4
4 7.89581966400146484 -6 10 11 10
4 8 -6.14557647705078125 21 27 28
4 7.31096410751342773 -5 4 4 3
4 7.13873434066772461 3 5 4 3
4 7.65445327758789062 4 0 0 0
3.48314189910888672 8 5 15 16 14
4 8 4.63753557205200195 12 15 11
4 8.65264225006103516 -6 22 23 23
4 8.92087936401367188 -5 12 19 14
4 8.94904804229736328 -4 7 14 6
4 8.95882987976074219 -3 5 9 3
4 8.96295070648193359 -2 4 6 1
4 8.9642333984375 -1 3 4 0
4 8.9633636474609375 0 3 3 0
4 8.95998859405517578 1 4 4 1
4 8.95231723785400391 2 5 6 2
4 8.93387985229492188 3 8 10 5
4 8.86346912384033203 4 12 15 11
4.18406391143798828 6 -2 20 9 9
4.33388280868530273 6 -1 21 11 9
4.26887035369873047 6 0 22 13 9
4.30716943740844727 7 -4 1 1 0
4.89142990112304688 7 -3 5 5 2
5 6.79753637313842773 -2 16 14 12
5 7 -2.69888520240783691 0 0 0
5 6.67561006546020508 -1 17 14 12
5 6.74375581741333008 0 18 14 13
5 6.99180316925048828 1 18 14 14
4.50356960296630859 7 2 8 6 4
5 7 1.02001655101776123 5 4 3
4.18754339218139648 8 -6 22 23 23
5 7.86998414993286133 -5 9 10 9
5 8 -5.22421836853027344 21 26 26
5 7.41944980621337891 -4 4 4 3
5 7.06913280487060547 -3 0 0 0
5 7.30551004409790039 2 3 3 2
5 7.68826723098754883 3 0 0 0
4.7263789176940918 8 4 12 15 11
5 8 3.70695281028747559 12 15 12
5 8.70171451568603516 -5 21 22 22
5 8.90911674499511719 -4 13 18 15
5 8.93810749053955078 -3 8 14 9
5 8.94779491424560547 -2 6 11 5
5 8.95060062408447266 -1 5 10 4
5 8.94884872436523438 0 6 9 4
5 8.94153785705566406 1 6 10 5
5 8.92228126525878906 2 8 12 7
5 8.85178947448730469 3 12 15 12
5.20823049545288086 7 -2 3 3 2
5.32226228713989258 7 -1 5 5 3
5.25522661209106445 7 0 6 5 3
5.00852394104003906 7 1 5 4 3
5.19571828842163086 8 -5 21 22 22
5.88424825668334961 8 -4 13 18 15
6 7.75499582290649414 -3 6 6 6
6 8 -3.77243804931640625 22 23 23
6 7.55835103988647461 -2 3 3 3
6 7.48123025894165039 -1 1 1 1
6 7.52320003509521484 0 0 0 0
6 7.67498350143432617 1 1 1 1
6 7.9200592041015625 2 3 3 3
5.54071998596191406 8 3 12 15 12
6 8 2.23853707313537598 17 18 17
6 8.81633758544921875 -3 18 20 19
6 8.88710689544677734 -2 14 17 15
6 8.90160655975341797 -1 12 16 13
6 8.89488410949707031 0 12 15 13
6 8.85657215118408203 1 13 16 14
6 8.60461902618408203 2 17 18 17
6.32557487487792969 8 -3 18 20 19
6.5968475341796875 8 -2 14 17 15
6.71311807632446289 8 -1 12 16 13
6.66962623596191406 8 0 12 15 13
6.46884489059448242 8 1 13 16 14
6.11864852905273438 8 2 17 18 17
3 2 1 0
3 1 4 3
3 0 1 3
3 4 6 5
3 3 4 5
3 6 8 7
3 5 6 7
3 8 9 7
3 2 0 10
3 0 3 11
3 10 0 11
3 3 5 12
3 11 3 12
3 5 7 13
3 12 5 13
3 7 9 13
3 16 15 14
3 15 18 17
3 14 15 17
3 2 17 18
3 2 18 1
3 1 18 19
3 19 20 1
3 1 20 4
3 20 21 4
3 4 21 6
3 21 22 6
3 6 22 8
3 23 9 8
3 23 8 24
3 24 8 22
3 24 26 25
3 23 24 25
3 26 27 25
3 16 14 28
3 14 17 29
3 28 14 29
3 17 2 10
3 17 10 29
3 29 10 30
3 30 10 31
3 10 11 31
3 31 11 32
3 11 12 32
3 32 12 33
3 12 13 33
3 9 23 34
3 9 34 13
3 13 34 33
3 23 25 35
3 34 23 35
3 25 27 35
3 38 37 36
3 37 40 39
3 36 37 39
3 40 42 41
3 39 40 41
3 42 44 43
3 41 42 43
3 44 46 45
3 43 44 45
3 46 47 45
3 50 49 48
3 16 48 49
3 16 49 15
3 15 49 51
3 36 51 38
3 36 18 51
3 18 15 51
3 39 18 36
3 19 18 39
3 41 19 39
3 20 19 41
3 43 20 41
3 21 20 43
3 45 21 43
3 22 21 45
3 47 22 45
3 47 52 22
3 52 24 22
3 52 53 24
3 24 53 26
3 54 27 26
3 54 26 55
3 55 26 53
3 55 56 54
3 50 48 57
3 48 16 28
3 48 28 57
3 57 28 58
3 58 28 59
3 28 29 59
3 59 29 60
3 29 30 60
3 60 30 61
3 30 31 61
3 61 31 62
3 31 32 62
3 62 32 63
3 32 33 63
3 63 33 64
3 33 34 64
3 64 34 65
3 34 35 65
3 27 54 66
3 27 66 35
3 35 66 65
3 54 56 66
3 69 68 67
3 68 71 70
3 67 68 70
3 71 73 72
3 70 71 72
3 73 75 74
3 72 73 74
3 75 77 76
3 74 75 76
3 77 78 76
3 81 80 79
3 67 37 38
3 69 67 38
3 69 38 79
3 69 79 80
3 70 37 67
3 40 37 70
3 72 40 70
3 42 40 72
3 74 42 72
3 44 42 74
3 76 44 74
3 46 44 76
3 46 82 47
3 76 82 46
3 76 83 82
3 76 78 83
3 83 85 84
3 82 83 84
3 85 86 84
3 89 88 87
3 50 87 88
3 50 88 49
3 49 88 90
3 79 90 81
3 79 51 90
3 51 49 90
3 79 38 51
3 82 52 47
3 84 52 82
3 53 52 84
3 86 53 84
3 86 91 53
3 91 55 53
3 92 56 55
3 92 55 93
3 93 55 91
3 93 94 92
3 89 87 95
3 87 50 57
3 87 57 95
3 95 57 96
3 96 57 97
3 57 58 97
3 97 58 98
3 58 59 98
3 98 59 99
3 59 60 99
3 99 60 100
3 60 61 100
3 100 61 101
3 61 62 101
3 101 62 102
3 62 63 102
3 102 63 103
3 63 64 103
3 103 64 104
3 64 65 104
3 104 65 105
3 65 66 105
3 56 92 106
3 56 106 66
3 66 106 105
3 92 94 106
3 109 108 107
3 108 111 110
3 107 108 110
3 111 112 110
3 115 114 113
3 114 109 107
3 114 107 113
3 113 107 116
3 107 110 116
3 110 117 116
3 112 119 118
3 112 118 110
3 110 118 117
3 119 120 118
3 123 122 121
3 122 115 113
3 122 113 121
3 121 113 124
3 113 116 124
3 116 125 124
3 116 117 125
3 117 126 125
3 117 118 126
3 118 127 126
3 120 128 127
3 118 120 127
3 131 130 129
3 121 68 69
3 123 121 69
3 123 69 129
3 123 129 130
3 124 68 121
3 71 68 124
3 125 71 124
3 73 71 125
3 126 73 125
3 75 73 126
3 127 75 126
3 77 75 127
3 77 132 78
3 127 132 77
3 127 133 132
3 127 128 133
3 133 134 132
3 137 136 135
3 129 80 81
3 131 129 81
3 131 81 135
3 131 135 136
3 129 69 80
3 132 83 78
3 134 83 132
3 134 138 83
3 138 85 83
3 85 138 139
3 86 85 139
3 142 141 140
3 89 140 141
3 89 141 88
3 88 141 143
3 135 143 137
3 135 90 143
3 90 88 143
3 135 81 90
3 139 91 86
3 144 91 139
3 144 145 91
3 91 145 93
3 93 145 146
3 94 93 146
3 142 140 147
3 140 89 95
3 140 95 147
3 147 95 148
3 148 95 149
3 95 96 149
3 149 96 150
3 96 97 150
3 150 97 151
3 97 98 151
3 151 98 152
3 98 99 152
3 152 99 153
3 99 100 153
3 153 100 154
3 100 101 154
3 154 101 155
3 101 102 155
3 155 102 156
3 102 103 156
3 156 103 157
3 103 104 157
3 157 104 158
3 104 105 158
3 158 105 159
3 105 106 159
3 159 106 94
3 146 159 94
3 162 161 160
3 161 163 160
3 165 162 160
3 164 165 160
3 163 167 166
3 163 166 160
3 160 166 164
3 167 168 166
3 171 170 169
3 170 165 164
3 170 164 169
3 169 164 172
3 164 166 172
3 166 173 172
3 168 174 173
3 166 168 173
3 176 171 169
3 175 176 169
3 169 172 175
3 172 177 175
3 172 173 177
3 173 178 177
3 174 179 178
3 173 174 178
3 181 176 175
3 180 181 175
3 175 177 180
3 177 182 180
3 177 178 182
3 178 183 182
3 179 185 184
3 179 184 178
3 178 184 183
3 185 186 184
3 188 181 180
3 187 188 180
3 180 182 187
3 182 189 187
3 182 183 189
3 183 190 189
3 183 184 190
3 184 191 190
3 186 192 191
3 184 186 191
3 195 194 193
3 194 188 187
3 194 187 193
3 193 187 196
3 109 189 108
3 109 196 189
3 196 187 189
3 190 108 189
3 111 108 190
3 111 197 112
3 111 190 197
3 190 191 197
3 192 198 197
3 191 192 197
3 200 195 193
3 199 200 193
3 115 196 114
3 115 199 196
3 199 193 196
3 196 109 114
3 197 119 112
3 119 201 120
3 197 201 119
3 197 202 201
3 197 198 202
3 202 203 201
3 206 205 204
3 199 122 123
3 200 199 123
3 200 123 204
3 200 204 205
3 199 115 122
3 207 120 201
3 128 120 207
3 203 208 207
3 201 203 207
3 204 130 131
3 204 131 206
3 206 131 209
3 204 123 130
3 207 133 128
3 133 210 134
3 207 210 133
3 207 211 210
3 207 208 211
3 211 212 210
3 137 214 213
3 136 137 213
3 213 131 136
3 209 131 213
3 210 138 134
3 138 215 139
3 210 215 138
3 210 216 215
3 210 212 216
3 216 217 215
3 142 219 218
3 141 142 218
3 218 220 141
3 141 220 143
3 220 137 143
3 214 137 220
3 215 144 139
3 217 144 215
3 217 221 144
3 221 145 144
3 145 221 222
3 146 145 222
3 219 142 147
3 223 219 147
3 223 147 224
3 147 148 224
3 224 148 225
3 148 149 225
3 225 149 226
3 149 150 226
3 226 150 227
3 150 151 227
3 227 151 228
3 151 152 228
3 228 152 229
3 152 153 229
3 229 153 230
3 153 154 230
3 230 154 231
3 154 155 231
3 231 155 232
3 155 156 232
3 232 156 233
3 156 157 233
3 233 157 234
3 157 158 234
3 234 158 235
3 158 159 235
3 235 159 146
3 222 235 146
3 238 237 236
3 237 239 236
3 241 238 236
3 240 241 236
3 239 243 242
3 239 242 236
3 236 242 240
3 243 244 242
3 247 246 245
3 246 241 240
3 246 240 245
3 245 240 248
3 240 242 248
3 242 249 248
3 244 250 249
3 242 244 249
3 252 247 245
3 251 252 245
3 245 248 251
3 248 253 251
3 248 249 253
3 249 254 253
3 250 255 254
3 249 250 254
3 257 252 251
3 256 257 251
3 162 253 161
3 162 256 253
3 256 251 253
3 161 258 163
3 161 253 258
3 253 254 258
3 255 260 259
3 255 259 254
3 254 259 258
3 260 261 259
3 263 257 256
3 262 263 256
3 256 165 262
3 162 165 256
3 258 167 163
3 167 264 168
3 167 258 264
3 258 259 264
3 261 265 264
3 259 261 264
3 262 170 171
3 262 171 263
3 263 171 266
3 262 165 170
3 267 168 264
3 174 168 267
3 265 268 267
3 264 265 267
3 271 270 269
3 270 176 269
3 270 266 176
3 266 171 176
3 272 174 267
3 179 174 272
3 268 273 272
3 267 268 272
3 275 271 269
3 274 275 269
3 269 181 274
3 176 181 269
3 272 185 179
3 185 272 273
3 185 273 186
3 186 273 276
3 278 275 274
3 277 278 274
3 274 188 277
3 181 188 274
3 279 276 280
3 279 192 276
3 192 186 276
3 280 281 279
3 277 194 195
3 277 195 278
3 278 195 282
3 277 188 194
3 283 192 279
3 198 192 283
3 281 284 283
3 279 281 283
3 287 286 285
3 286 200 285
3 286 282 200
3 282 195 200
3 283 202 198
3 202 283 284
3 202 284 203
3 203 284 288
3 285 205 206
3 285 206 287
3 287 206 289
3 285 200 205
3 290 288 291
3 290 208 288
3 208 203 288
3 291 292 290
3 295 294 293
3 294 209 293
3 294 289 209
3 289 206 209
3 290 211 208
3 211 290 292
3 211 292 212
3 212 292 296
3 299 298 297
3 293 213 214
3 295 293 214
3 295 214 297
3 295 297 298
3 293 209 213
3 296 216 212
3 300 216 296
3 216 300 301
3 217 216 301
3 219 303 302
3 218 219 302
3 297 302 299
3 297 220 302
3 220 218 302
3 297 214 220
3 301 221 217
3 304 221 301
3 305 222 221
3 305 221 306
3 306 221 304
3 306 307 305
3 303 219 223
3 308 303 223
3 308 223 309
3 223 224 309
3 309 224 310
3 224 225 310
3 310 225 311
3 225 226 311
3 311 226 312
3 226 227 312
3 312 227 313
3 227 228 313
3 313 228 314
3 228 229 314
3 314 229 315
3 229 230 315
3 315 230 316
3 230 231 316
3 316 231 317
3 231 232 317
3 317 232 318
3 232 233 318
3 318 233 319
3 233 234 319
3 319 234 320
3 234 235 320
3 222 305 321
3 222 321 235
3 235 321 320
3 305 307 321
3 238 323 322
3 237 238 322
3 324 239 237
3 324 237 325
3 325 237 322
3 325 326 324
3 329 328 327
3 328 241 327
3 328 323 241
3 323 238 241
3 324 243 239
3 243 324 326
3 243 326 244
3 244 326 330
3 327 246 247
3 327 247 329
3 329 247 331
3 327 241 246
3 330 332 244
3 332 250 244
3 331 247 333
3 333 247 252
3 334 332 335
3 334 255 332
3 255 250 332
3 335 336 334
3 333 252 337
3 337 252 257
3 334 260 255
3 260 334 336
3 260 336 261
3 261 336 338
3 337 257 339
3 339 257 263
3 338 340 261
3 340 265 261
3 343 342 341
3 342 266 341
3 342 339 266
3 339 263 266
3 340 344 265
3 344 268 265
3 341 270 271
3 341 271 343
3 343 271 345
3 341 266 270
3 344 346 268
3 346 273 268
3 345 271 347
3 347 271 275
3 348 346 349
3 348 276 346
3 276 273 346
3 349 350 348
3 347 275 351
3 351 275 278
3 348 280 276
3 280 348 350
3 280 350 281
3 281 350 352
3 351 278 353
3 353 278 282
3 352 354 281
3 354 284 281
3 287 356 355
3 286 287 355
3 355 282 286
3 353 282 355
3 354 357 284
3 357 288 284
3 356 287 358
3 358 287 289
3 357 291 288
3 359 291 357
3 291 359 360
3 292 291 360
3 295 362 361
3 294 295 361
3 361 289 294
3 358 289 361
3 360 363 292
3 363 296 292
3 299 365 364
3 298 299 364
3 364 295 298
3 362 295 364
3 363 300 296
3 366 300 363
3 300 366 367
3 301 300 367
3 303 369 368
3 302 303 368
3 368 299 302
3 365 299 368
3 367 304 301
3 370 304 367
3 370 371 304
3 304 371 306
3 306 371 372
3 307 306 372
3 369 303 308
3 373 369 308
3 373 308 374
3 308 309 374
3 374 309 375
3 309 310 375
3 375 310 376
3 310 311 376
3 376 311 377
3 311 312 377
3 377 312 378
3 312 313 378
3 378 313 379
3 313 314 379
3 379 314 380
3 314 315 380
3 380 315 381
3 315 316 381
3 381 316 382
3 316 317 382
3 382 317 383
3 317 318 383
3 383 318 384
3 318 319 384
3 384 319 385
3 319 320 385
3 385 320 386
3 320 321 386
3 386 321 307
3 372 386 307
3 322 323 387
3 325 322 387
3 388 325 387
3 325 388 326
3 328 329 389
3 389 391 390
3 328 389 390
3 328 390 387
3 328 387 323
3 387 392 388
3 390 392 387
3 388 392 393
3 388 393 326
3 326 393 330
3 394 389 329
3 394 329 395
3 395 329 331
3 389 394 391
3 393 396 330
3 396 332 330
3 395 331 397
3 397 331 333
3 335 399 398
3 335 332 399
3 332 396 399
3 335 398 336
3 397 333 400
3 400 333 337
3 399 401 398
3 398 401 402
3 398 402 336
3 336 402 338
3 400 337 403
3 403 337 339
3 402 404 338
3 404 340 338
3 342 343 405
3 405 339 342
3 405 406 339
3 406 403 339
3 404 407 340
3 407 344 340
3 408 405 343
3 408 343 409
3 409 343 345
3 405 408 406
3 407 410 344
3 410 346 344
3 409 345 411
3 411 345 347
3 349 413 412
3 349 346 413
3 346 410 413
3 349 412 350
3 411 347 414
3 414 347 351
3 413 415 412
3 412 415 416
3 412 416 350
3 350 416 352
3 414 351 417
3 417 351 353
3 416 418 352
3 418 354 352
3 355 356 419
3 419 353 355
3 419 420 353
3 420 417 353
3 418 421 354
3 421 357 354
3 422 419 356
3 422 356 423
3 423 356 358
3 419 422 420
3 359 425 424
3 359 357 425
3 357 421 425
3 359 424 360
3 362 427 426
3 361 362 426
3 426 358 361
3 423 358 426
3 425 428 424
3 424 428 429
3 424 429 360
3 360 429 363
3 365 431 430
3 364 365 430
3 430 362 364
3 427 362 430
3 429 366 363
3 432 366 429
3 366 432 433
3 367 366 433
3 369 435 434
3 368 369 434
3 434 365 368
3 431 365 434
3 433 370 367
3 436 370 433
3 436 437 370
3 370 437 371
3 371 437 438
3 372 371 438
3 435 369 373
3 439 435 373
3 439 373 440
3 373 374 440
3 440 374 441
3 374 375 441
3 441 375 442
3 375 376 442
3 442 376 443
3 376 377 443
3 443 377 444
3 377 378 444
3 444 378 445
3 378 379 445
3 445 379 446
3 379 380 446
3 446 380 447
3 380 381 447
3 447 381 448
3 381 382 448
3 448 382 449
3 382 383 449
3 449 383 450
3 383 384 450
3 450 384 451
3 384 385 451
3 451 385 452
3 385 386 452
3 452 386 372
3 438 452 372
3 390 391 453
3 392 390 453
3 454 392 453
3 392 454 393
3 394 395 455
3 391 394 455
3 391 455 453
3 453 455 456
3 453 456 454
3 454 456 457
3 454 457 396
3 393 454 396
3 458 455 395
3 397 458 395
3 455 458 456
3 456 458 459
3 456 459 457
3 457 459 460
3 457 460 399
3 396 457 399
3 461 458 397
3 400 461 397
3 462 461 463
3 462 459 461
3 459 458 461
3 465 459 462
3 465 464 459
3 464 460 459
3 401 399 460
3 401 460 466
3 466 460 464
3 401 466 402
3 467 461 400
3 403 467 400
3 463 467 468
3 461 467 463
3 465 469 464
3 471 464 469
3 471 470 464
3 470 466 464
3 466 470 404
3 402 466 404
3 472 467 403
3 406 472 403
3 468 472 473
3 467 472 468
3 475 470 471
3 474 470 475
3 470 474 407
3 404 470 407
3 408 409 476
3 476 478 477
3 408 476 477
3 408 477 472
3 408 472 406
3 472 477 473
3 480 474 475
3 479 474 480
3 474 479 410
3 407 474 410
3 481 476 409
3 411 481 409
3 478 481 482
3 476 481 478
3 480 483 479
3 479 483 484
3 479 484 410
3 410 484 413
3 485 481 411
3 414 485 411
3 482 485 486
3 481 485 482
3 415 488 487
3 415 413 488
3 413 484 488
3 415 487 416
3 489 485 414
3 489 414 490
3 490 414 417
3 485 489 486
3 492 487 488
3 491 487 492
3 487 491 418
3 416 487 418
3 490 417 493
3 493 417 420
3 492 494 491
3 491 494 495
3 491 495 418
3 418 495 421
3 422 423 496
3 496 420 422
3 496 497 420
3 497 493 420
3 495 498 421
3 498 425 421
3 426 427 499
3 499 501 500
3 426 499 500
3 426 500 496
3 426 496 423
3 496 500 497
3 498 428 425
3 502 428 498
3 428 502 503
3 429 428 503
3 430 431 504
3 504 506 505
3 430 504 505
3 430 505 499
3 430 499 427
3 499 505 501
3 503 432 429
3 507 432 503
3 432 507 508
3 433 432 508
3 435 510 509
3 434 435 509
3 431 511 504
3 431 434 511
3 434 509 511
3 504 511 506
3 508 436 433
3 512 436 508
3 514 513 437
3 514 437 512
3 512 437 436
3 437 513 438
3 510 435 439
3 515 510 439
3 515 439 516
3 439 440 516
3 516 440 517
3 440 441 517
3 517 441 518
3 441 442 518
3 518 442 519
3 442 443 519
3 519 443 520
3 443 444 520
3 520 444 521
3 444 445 521
3 521 445 522
3 445 446 522
3 522 446 523
3 446 447 523
3 523 447 524
3 447 448 524
3 524 448 525
3 448 449 525
3 525 449 526
3 449 450 526
3 526 450 527
3 450 451 527
3 513 514 527
3 513 527 452
3 452 527 451
3 513 452 438
3 462 463 528
3 462 528 465
3 529 528 463
3 468 529 463
3 469 465 528
3 469 528 530
3 530 528 529
3 469 530 471
3 531 529 468
3 473 531 468
3 529 531 530
3 530 531 532
3 530 532 475
3 471 530 475
3 477 478 533
3 473 477 533
3 473 533 531
3 531 533 534
3 531 534 532
3 532 534 535
3 532 535 480
3 475 532 480
3 536 533 478
3 482 536 478
3 533 536 534
3 534 536 537
3 534 537 535
3 535 537 538
3 483 480 535
3 483 535 539
3 539 535 538
3 483 539 484
3 540 536 482
3 486 540 482
3 536 540 537
3 537 540 541
3 537 541 538
3 538 541 542
3 538 542 539
3 539 542 543
3 539 543 488
3 484 539 488
3 489 490 544
3 486 489 544
3 486 544 540
3 540 544 545
3 546 545 547
3 546 541 545
3 541 540 545
3 549 541 546
3 549 548 541
3 548 542 541
3 542 548 543
3 543 548 550
3 543 550 492
3 488 543 492
3 551 544 490
3 493 551 490
3 552 551 553
3 552 545 551
3 545 544 551
3 545 552 547
3 549 554 548
3 556 548 554
3 556 555 548
3 555 550 548
3 494 492 550
3 494 550 557
3 557 550 555
3 494 557 495
3 558 551 493
3 558 493 559
3 559 493 497
3 551 558 553
3 556 560 555
3 562 555 560
3 562 561 555
3 561 557 555
3 557 561 498
3 495 557 498
3 501 564 563
3 500 501 563
3 563 497 500
3 559 497 563
3 562 565 561
3 567 566 502
3 565 567 502
3 565 502 498
3 565 498 561
3 502 566 503
3 506 569 568
3 505 506 568
3 568 501 505
3 564 501 568
3 567 570 566
3 572 571 507
3 570 572 507
3 570 507 503
3 570 503 566
3 507 571 508
3 509 510 573
3 573 575 574
3 573 574 509
3 509 574 511
3 574 506 511
3 569 506 574
3 572 576 571
3 571 512 508
3 571 576 512
3 576 577 512
3 512 577 578
3 514 512 578
3 573 510 515
3 575 573 515
3 575 515 579
3 579 515 516
3 579 516 580
3 516 517 580
3 580 517 581
3 517 518 581
3 581 518 582
3 518 519 582
3 582 519 583
3 519 520 583
3 583 520 584
3 520 521 584
3 584 521 585
3 521 522 585
3 585 522 586
3 522 523 586
3 586 523 587
3 523 524 587
3 587 524 588
3 524 525 588
3 588 525 589
3 525 526 589
3 589 526 590
3 526 527 590
3 590 527 514
3 578 590 514
3 546 547 591
3 546 591 549
3 552 553 592
3 547 552 592
3 547 592 591
3 591 592 593
3 554 549 591
3 554 591 594
3 594 591 593
3 554 594 556
3 558 559 595
3 553 558 595
3 553 595 592
3 592 595 596
3 592 596 593
3 593 596 597
3 593 597 594
3 594 597 598
3 560 556 594
3 560 594 599
3 599 594 598
3 560 599 562
3 563 564 600
3 559 563 600
3 559 600 595
3 595 600 601
3 602 601 603
3 602 596 601
3 596 595 601
3 596 604 597
3 602 604 596
3 597 605 598
3 604 605 597
3 607 598 605
3 607 606 598
3 606 599 598
3 565 562 599
3 565 599 608
3 608 599 606
3 565 608 567
3 568 569 609
3 609 611 610
3 568 609 610
3 568 610 600
3 568 600 564
3 600 612 601
3 610 612 600
3 601 612 603
3 607 613 606
3 606 614 608
3 613 614 606
3 616 615 570
3 614 616 570
3 614 570 567
3 614 567 608
3 570 615 572
3 575 618 617
3 574 575 617
3 569 619 609
3 569 574 619
3 574 617 619
3 609 619 611
3 616 620 615
3 615 576 572
3 615 620 576
3 620 621 576
3 623 622 577
3 623 577 621
3 621 577 576
3 577 622 578
3 618 575 579
3 624 618 579
3 624 579 625
3 579 580 625
3 625 580 626
3 580 581 626
3 626 581 627
3 581 582 627
3 627 582 628
3 582 583 628
3 628 583 629
3 583 584 629
3 629 584 630
3 584 585 630
3 630 585 631
3 585 586 631
3 631 586 632
3 586 587 632
3 632 587 633
3 587 588 633
3 633 588 634
3 588 589 634
3 622 623 634
3 622 634 590
3 590 634 589
3 622 590 578
3 602 603 635
3 604 602 635
3 636 604 635
3 605 604 636
3 637 605 636
3 605 637 607
3 610 611 638
3 612 610 638
3 639 612 638
3 639 641 640
3 612 639 640
3 612 640 635
3 612 635 603
3 635 642 636
3 640 642 635
3 636 643 637
3 642 643 636
3 637 613 607
3 637 643 613
3 643 644 613
3 646 645 614
3 646 614 644
3 644 614 613
3 614 645 616
3 617 618 647
3 647 649 648
3 647 648 617
3 617 648 619
3 611 650 638
3 611 619 650
3 619 648 650
3 638 651 639
3 650 651 638
3 639 651 641
3 646 652 645
3 645 620 616
3 645 652 620
3 652 653 620
3 655 654 621
3 655 621 653
3 653 621 620
3 621 654 623
3 647 618 624
3 649 647 624
3 649 624 656
3 656 624 625
3 656 625 657
3 625 626 657
3 657 626 658
3 626 627 658
3 658 627 659
3 627 628 659
3 659 628 660
3 628 629 660
3 660 629 661
3 629 630 661
3 661 630 662
3 630 631 662
3 662 631 663
3 631 632 663
3 663 632 664
3 632 633 664
3 654 655 664
3 654 664 634
3 634 664 633
3 654 634 623
3 640 641 665
3 642 640 665
3 666 642 665
3 643 642 666
3 667 643 666
3 644 643 667
3 668 644 667
3 644 668 646
3 648 649 669
3 650 648 669
3 670 650 669
3 670 672 671
3 670 671 650
3 650 671 651
3 641 673 665
3 641 651 673
3 651 671 673
3 665 674 666
3 673 674 665
3 666 675 667
3 674 675 666
3 667 676 668
3 675 676 667
3 668 652 646
3 668 676 652
3 676 677 652
3 679 678 653
3 679 653 677
3 677 653 652
3 653 678 655
3 669 649 656
3 670 669 656
3 657 670 656
3 672 670 657
3 672 657 680
3 680 657 658
3 680 658 681
3 658 659 681
3 681 659 682
3 659 660 682
3 682 660 683
3 660 661 683
3 683 661 684
3 661 662 684
3 684 662 685
3 662 663 685
3 678 679 685
3 678 685 664
3 664 685 663
3 678 664 655
3 671 672 686
3 673 671 686
3 687 673 686
3 674 673 687
3 688 674 687
3 675 674 688
3 689 675 688
3 676 675 689
3 690 676 689
3 677 676 690
3 691 677 690
3 677 691 679
3 686 672 680
3 687 686 680
3 681 687 680
3 688 687 681
3 682 688 681
3 689 688 682
3 683 689 682
3 690 689 683
3 684 690 683
3 691 690 684
3 685 691 684
3 691 685 679
