ply
format ascii 1.0
element vertex 88
property float x
property float y
property float z
property uchar red
property uchar green
property uchar blue
element face 172
property list uchar int vertex_indices
end_header
6.92555856704711914 2 0 178 177 172
7 1.599761962890625 0 179 178 172
7 2 -0.561956048011779785 172 169 156
7 2 0.734529018402099609 181 178 166
6.95881938934326172 3 0 179 178 167
7 3 -0.243599146604537964 172 166 149
7 3 0.662589192390441895 182 178 160
7 3.15991497039794922 0 182 178 160
7.6658477783203125 0 -1 171 171 169
8 -0.499835163354873657 -1 173 172 169
8 0 -1.86596417427062988 158 155 145
7.54864215850830078 0 0 178 178 178
8 -0.696683704853057861 0 181 180 178
7.69112157821655273 0 1 179 179 177
8 -0.485621660947799683 1 182 182 181
8 0 1.84877967834472656 183 182 174
7.62986850738525391 1 -2 156 154 145
8 0.126565471291542053 -2 158 155 145
8 1 -2.59725499153137207 134 127 115
7.241851806640625 1 -1 171 170 162
7.12036657333374023 1 0 179 178 172
7.25593662261962891 1 1 181 180 175
7.60967159271240234 1 2 177 177 171
8 0.120820038020610809 2 179 179 171
8 1 2.74177026748657227 183 181 167
7.47304916381835938 2 -2 156 152 139
8 2 -2.83396673202514648 133 123 108
7.06537628173828125 2 -1 172 169 156
7.02825355529785156 2 1 184 182 170
7.35895967483520508 2 2 181 181 168
7.86269617080688477 2 3 174 174 161
8 1.4906463623046875 3 175 175 160
8 2 3.21280336380004883 181 179 157
7.58583211898803711 3 -2 155 148 132
8 3 -2.63615727424621582 130 118 101
7.14392328262329102 3 -1 172 166 149
7.02204418182373047 3 1 186 183 165
7.31623363494873047 3 2 185 183 165
7.79285287857055664 3 3 180 179 159
8 3 3.33080410957336426 186 182 154
7.96400022506713867 4 -2 153 143 124
8 4 -2.05345010757446289 127 111 94
7.47945213317871094 4 -1 171 163 142
7.23661994934082031 4 0 183 175 154
7.24857807159423828 4 1 188 182 160
7.49483013153076172 4 2 189 184 161
7.93520355224609375 4 3 184 181 156
8 4 3.10660862922668457 190 182 151
8 4.05664205551147461 -2 154 139 117
8 4.88812780380249023 -1 173 159 134
7.7629246711730957 5 0 183 171 148
8 5 -0.788904190063476562 172 152 127
7.71203184127807617 5 1 190 179 154
7.90178442001342773 5 2 191 182 156
8 4.17816066741943359 3 190 182 151
8 5 2.24047517776489258 195 180 148
8 5.30898761749267578 0 185 167 139
8 5.41164922714233398 1 193 176 146
8 5.15375852584838867 2 195 180 148
8.37767219543457031 0 -1 173 171 162
8.45858383178710938 0 0 181 180 171
8.37596797943115234 0 1 183 182 174
8.39328956604003906 1 -2 158 152 138
8.57574844360351562 1 -1 174 169 155
8.61928844451904297 1 0 182 179 165
8.58853912353515625 1 1 185 183 169
8.43854427337646484 1 2 183 181 167
8.47757720947265625 2 -2 157 149 132
8.62339305877685547 2 -1 174 167 148
8.66406726837158203 2 0 184 178 159
8.648681640625 2 1 188 184 164
8.559173583984375 2 2 186 184 163
8.22014141082763672 2 3 181 179 157
8.41714286804199219 3 -2 156 145 124
8.60118484497070312 3 -1 174 164 142
8.65479469299316406 3 0 185 176 153
8.6483612060546875 3 1 190 183 158
8.57316684722900391 3 2 190 185 159
8.29730510711669922 3 3 186 182 154
8.0587005615234375 4 -2 154 139 117
8.47826480865478516 4 -1 173 159 134
8.58040523529052734 4 0 185 173 146
8.58554744720458984 4 1 192 181 152
8.49731349945068359 4 2 193 184 154
8.116668701171875 4 3 190 182 151
8.30144500732421875 5 0 185 167 139
8.35199356079101562 5 1 193 176 146
8.16170787811279297 5 2 195 180 148
3 2 1 0
3 1 3 0
3 5 2 0
3 4 5 0
3 3 6 4
3 0 3 4
3 5 4 7
3 4 6 7
3 10 9 8
3 9 12 11
3 8 9 11
3 12 14 13
3 11 12 13
3 14 15 13
3 18 17 16
3 17 10 8
3 17 8 16
3 16 8 19
3 8 11 19
3 11 20 19
3 11 13 20
3 13 21 20
3 15 23 22
3 15 22 13
3 13 22 21
3 23 24 22
3 26 18 16
3 25 26 16
3 16 19 25
3 19 27 25
3 2 20 1
3 2 27 20
3 27 19 20
3 1 28 3
3 1 20 28
3 20 21 28
3 21 22 28
3 22 29 28
3 24 31 30
3 24 30 22
3 22 30 29
3 31 32 30
3 34 26 25
3 33 34 25
3 25 27 33
3 27 35 33
3 27 5 35
3 2 5 27
3 36 3 28
3 6 3 36
3 28 29 36
3 29 37 36
3 29 30 37
3 30 38 37
3 32 39 38
3 30 32 38
3 41 34 33
3 40 41 33
3 33 35 40
3 35 42 40
3 7 35 5
3 7 43 35
3 43 42 35
3 6 43 7
3 6 36 43
3 36 44 43
3 36 37 44
3 37 45 44
3 37 38 45
3 38 46 45
3 39 47 46
3 38 39 46
3 41 40 48
3 40 42 49
3 48 40 49
3 51 49 42
3 51 42 50
3 50 42 43
3 43 44 50
3 44 52 50
3 44 45 52
3 45 53 52
3 54 55 53
3 54 53 46
3 46 53 45
3 46 47 54
3 51 50 56
3 50 52 57
3 56 50 57
3 52 53 58
3 57 52 58
3 53 55 58
3 9 10 59
3 12 9 59
3 60 12 59
3 14 12 60
3 61 14 60
3 14 61 15
3 17 18 62
3 10 17 62
3 10 62 59
3 59 62 63
3 59 63 60
3 60 63 64
3 60 64 61
3 61 64 65
3 23 15 61
3 23 61 66
3 66 61 65
3 23 66 24
3 67 62 18
3 26 67 18
3 62 67 63
3 63 67 68
3 63 68 64
3 64 68 69
3 64 69 65
3 65 69 70
3 65 70 66
3 66 70 71
3 31 24 66
3 31 66 72
3 72 66 71
3 31 72 32
3 73 67 26
3 34 73 26
3 67 73 68
3 68 73 74
3 68 74 69
3 69 74 75
3 69 75 70
3 70 75 76
3 70 76 71
3 71 76 77
3 71 77 72
3 72 77 78
3 72 78 39
3 32 72 39
3 79 73 34
3 41 79 34
3 73 79 74
3 74 79 80
3 74 80 75
3 75 80 81
3 75 81 76
3 76 81 82
3 76 82 77
3 77 82 83
3 77 83 78
3 78 83 84
3 78 84 47
3 39 78 47
3 79 41 48
3 80 79 48
3 49 80 48
3 49 51 85
3 49 85 80
3 80 85 81
3 81 85 82
3 82 85 86
3 82 86 83
3 83 86 87
3 55 54 84
3 55 84 87
3 87 84 83
3 84 54 47
3 85 51 56
3 86 85 56
3 57 86 56
3 87 86 57
3 58 87 57
3 87 58 55
