ply
format ascii 1.0
element vertex 548
property float x
property float y
property float z
property uchar red
property uchar green
property uchar blue
element face 1080
property list uchar int vertex_indices
end_header
-9.88359260559082031 -9 -9 110 117 142
-9 -9.88359260559082031 -9 83 87 113
-9 -9 -9.88359260559082031 115 119 150
-9.44821357727050781 -9 -8 80 84 104
-9 -9.44821357727050781 -8 54 56 74
-9 -9 -7.87448501586914062 50 51 63
-9.82104587554931641 -9 7 67 32 73
-9 -9.82104587554931641 7 41 17 43
-9 -9 6.31335973739624023 4 3 5
-9.9195098876953125 -9 8 102 43 107
-9 -9.9195098876953125 8 77 29 78
-9 -9 8.9195098876953125 73 29 70
-9.87079715728759766 -8 -9 111 113 138
-9 -8 -9.87079715728759766 118 117 146
-9 -8.13798999786376953 -8 50 51 63
-9 -8 -8.01892852783203125 80 80 98
-9.78705120086669922 -8 7 58 30 64
-9 -8 6.45385360717773438 16 11 20
-9.91402339935302734 -8 8 103 43 103
-9 -8 8.91402339935302734 63 27 61
-9.85764980316162109 -7 -9 111 112 130
-9 -7 -9.85764980316162109 118 117 138
-9 -7 -8.13248252868652344 76 77 86
-9.74666976928710938 -7 7 47 27 52
-9 -7 6.56893301010131836 26 20 32
-9.90879631042480469 -7 8 95 43 94
-9 -7 8.90879631042480469 51 24 51
-9.84498310089111328 -6 -9 109 110 120
-9 -6 -9.84498310089111328 116 116 128
-9 -6 -8.22176361083984375 70 71 74
-9.70123386383056641 -6 7 35 23 40
-9 -6 6.65947055816650391 33 27 40
-9.90411090850830078 -6 8 83 42 85
-9 -6 8.90411090850830078 38 20 39
-9.83392333984375 -5 -9 106 107 110
-9 -5 -9.83392333984375 114 114 118
-9 -5 -8.28750038146972656 64 64 64
-9.65499496459960938 -5 7 26 19 30
-9 -5 6.72614717483520508 38 32 45
-9.90027332305908203 -5 8 72 41 75
-9 -5 8.90027332305908203 28 17 29
-9.82574176788330078 -4 -9 99 99 101
-9 -4 -9.82574176788330078 107 108 109
-9 -4 -8.33023834228515625 53 55 57
-9.61597347259521484 -4 7 20 15 23
-9 -4 6.76947498321533203 42 35 47
-9.89757442474365234 -4 8 62 39 66
-9 -4 8.89757442474365234 21 13 22
-9.82156085968017578 -3 -9 87 89 93
-9 -3 -9.82156085968017578 95 97 102
-9 -3 -8.35035514831542969 46 48 51
-9.59427928924560547 -3 7 15 12 16
-9 -3 6.78981494903564453 44 38 48
-9.89623546600341797 -3 8 54 37 58
-9 -3 8.89623546600341797 15 11 16
-9.82200908660888672 -2 -9 77 82 87
-9 -2 -9.82200908660888672 85 89 96
-9 -2 -8.34807205200195312 40 43 47
-9.59692955017089844 -2 7 10 9 12
-9 -2 6.78738307952880859 47 40 49
-9.89637184143066406 -2 8 48 35 52
-9 -2 8.89637184143066406 11 8 12
-9.826995849609375 -1 -9 69 76 82
-9 -1 -9.826995849609375 77 82 91
-9 -1 -8.32346153259277344 35 38 43
-9.62289237976074219 -1 7 7 6 7
-9 -1 6.76225376129150391 49 43 51
-9.89796352386474609 -1 8 44 33 47
-9 -1 8.89796352386474609 7 6 8
-9.83575153350830078 0 -9 63 72 78
-9 0 -9.83575153350830078 71 77 87
-9 0 -8.27643585205078125 30 34 39
-9.66391563415527344 0 7 3 3 4
-9 0 6.71435022354125977 52 47 54
-9.90086460113525391 0 8 40 32 43
-9 0 8.90086460113525391 4 3 4
-9.84709548950195312 1 -9 58 69 75
-9 1 -9.84709548950195312 65 74 84
-9 1 -8.2067413330078125 27 31 36
-9.71009635925292969 1 7 0 0 0
-9 1 6.64342880249023438 56 53 58
-9.90483283996582031 1 8 36 30 39
-9 1 8.90483283996582031 1 0 1
-9.85978603363037109 2 -9 54 67 72
-9 2 -9.85978603363037109 61 71 81
-9 2 -8.11392974853515625 23 29 33
-9.75432491302490234 2 7 2 2 2
-9 2 6.54905509948730469 62 60 63
-9.90957546234130859 2 8 34 29 37
-9 2 8.90957546234130859 1 1 1
-9.872772216796875 3 -9 51 66 70
-9 3 -9.872772216796875 59 70 80
-9.01793861389160156 3 -8 18 26 26
-9 2.9773564338684082 -8 4 5 5
-9 3 -7.99719762802124023 6 8 9
-9.79315090179443359 3 7 4 4 4
-9 3 6.43057107925415039 68 68 68
-9.91479682922363281 3 8 33 29 35
-9 3 8.91479682922363281 4 3 4
-9.88531017303466797 4 -9 50 66 70
-9 4 -9.88531017303466797 57 70 80
-9.49280452728271484 4 -8 17 25 25
-9 4 -7.84908246994018555 8 11 12
-9.82569122314453125 4 7 4 4 5
-9 4 6.28706121444702148 71 70 73
-9.92023181915283203 4 8 33 29 35
-9 4 8.92023181915283203 4 4 5
-9.89695358276367188 5 -9 49 68 71
-9 5 -9.89695358276367188 57 71 80
-9.67388343811035156 5 -8 17 26 26
-9 5 -7.67431211471557617 8 12 13
-9.85234737396240234 5 7 4 3 4
-9 5 6.1173095703125 72 71 76
-9.92566585540771484 5 8 33 30 35
-9 5 8.92566585540771484 4 3 4
-9.9074859619140625 6 -9 49 70 71
-9 6 -9.9074859619140625 56 72 81
-9.76725864410400391 6 -8 19 29 28
-9 6 -7.47146797180175781 7 11 11
-9.34000968933105469 6 6 35 35 36
-9 5.59826231002807617 6 72 71 76
-9 6 5.91453981399536133 88 88 103
-9.87398624420166016 6 7 1 1 1
-9.93093967437744141 6 8 34 31 36
-9 6 8.93093967437744141 1 1 1
-9.91685295104980469 7 -9 46 70 67
-9 7 -9.91685295104980469 54 75 80
-9.82318210601806641 7 -8 20 31 30
-9 7 -7.23875141143798828 4 6 7
-9.65905666351318359 7 6 31 31 32
-9 7 5.67321872711181641 86 87 102
-9.89152812957763672 7 7 1 1 1
-9.935943603515625 7 8 33 31 35
-9 7 8.935943603515625 1 0 1
-9.92509078979492188 8 -9 41 65 54
-9 8 -9.92509078979492188 48 75 71
-9.85985183715820312 8 -8 20 32 29
-9.13480854034423828 8 -7 0 1 1
-9 7.90357685089111328 -7 27 46 45
-9 8 -6.97165012359619141 24 40 40
-9.77671051025390625 8 6 26 26 27
-9 8 5.39911508560180664 82 82 97
-9.90579032897949219 8 7 1 1 1
-9.94061279296875 8 8 29 28 30
-9 8 8.94061279296875 2 1 2
-9 8.92509078979492188 -9 23 36 37
-9 8.85985183715820312 -8 1 2 2
-9 8.13480854034423828 -7 24 40 40
-9 8.77671051025390625 6 63 61 67
-9 8.90579032897949219 7 33 33 33
-9 8.94061279296875 8 2 1 2
-8 -9.45715427398681641 -9 60 60 82
-8 -9 -9.45715427398681641 92 91 120
-8.89062213897705078 -9 -8 50 51 63
-8 -9 -8.88705730438232422 56 56 71
-8.34856700897216797 -9 7 30 14 32
-8 -9.83690357208251953 8 48 17 44
-8 -9 7.32360267639160156 7 3 7
-8 -9 8.83690357208251953 37 15 34
-8.01469135284423828 -8 -9 80 80 98
-8 -8.10660552978515625 -9 56 56 71
-8.48180103302001953 -8 7 17 9 18
-8 -8 7.44726181030273438 20 11 22
-8 -8 8.80940532684326172 23 10 22
-8.12881946563720703 -7 -9 76 77 86
-8.59094810485839844 -7 7 5 3 5
-8 -7 7.54854631423950195 29 19 34
-8 -7 8.77799415588378906 9 5 10
-8.218536376953125 -6 -9 70 71 74
-8.67682743072509766 -6 7 4 2 4
-8 -6 7.62822055816650391 36 25 41
-8 -6 8.74418258666992188 0 0 0
-8.28457450866699219 -5 -9 64 64 64
-8.74007892608642578 -5 7 10 8 12
-8 -5 7.68687820434570312 41 29 45
-8 -5 8.71133613586425781 7 4 7
-8.32747840881347656 -4 -9 53 55 57
-8.78118038177490234 -4 7 15 11 17
-8 -4 7.72496366500854492 44 32 46
-8 -4 8.68478107452392578 12 7 12
-8.34762287139892578 -3 -9 46 48 51
-8.80046653747558594 -3 7 19 15 20
-8 -3 7.74278736114501953 46 34 47
-8 -3 8.67048835754394531 15 10 15
-8.34521675109863281 -2 -9 40 43 47
-8.79813861846923828 -2 7 21 17 23
-8 -2 7.74053668975830078 48 36 48
-8 -2 8.67230510711669922 18 12 18
-8.32031059265136719 -1 -9 35 38 43
-8.77426052093505859 -1 7 24 20 26
-8 -1 7.71828031539916992 49 39 49
-8 -1 8.68963718414306641 20 15 20
-8.27278804779052734 0 -9 30 34 39
-8.72875785827636719 0 7 28 24 29
-8 0 7.6759638786315918 52 43 52
-8 0 8.71785354614257812 23 18 23
-8.20235729217529297 1 -9 27 31 36
-8.66140460968017578 1 7 31 28 33
-8 1 7.61339855194091797 55 48 56
-8 1 8.75096988677978516 27 22 27
-8.10853195190429688 2 -9 23 29 33
-8.57180690765380859 2 7 35 33 37
-8 2 7.530242919921875 60 54 61
-8 2 8.7841339111328125 30 26 31
-8 2.92128109931945801 -9 2 2 3
-8 3 -9.05996322631835938 31 38 44
-8.99755477905273438 3 -8 6 8 9
-8 3 -8.99151229858398438 0 0 0
-8.45938491821289062 3 7 39 38 40
-8 3 7.42597389221191406 65 62 66
-8 3 8.81449794769287109 34 30 35
-8 4 -9.50506591796875 30 38 44
-8.86829566955566406 4 -8 8 11 12
-8 4 -8.86258506774902344 1 2 3
-8.32334423065185547 4 7 42 42 43
-8 4 7.29984855651855469 71 69 71
-8 4 8.84090423583984375 37 34 37
-8 5 -9.67926406860351562 30 39 45
-8.71579170227050781 5 -8 8 12 13
-8 5 -8.71076393127441406 2 3 3
-8.16264629364013672 5 7 43 43 44
-8 5 7.15086126327514648 75 75 75
-8 5 8.86322402954101562 37 35 38
-8 6 -9.77009010314941406 32 40 48
-8.53889560699462891 6 -8 7 11 11
-8 6 -8.53493690490722656 1 1 1
-8.93061065673828125 6 6 71 70 76
-8 5.87322092056274414 7 75 75 75
-8 6 6.97698068618774414 101 97 107
-8 6 8.8818206787109375 36 34 36
-8 7 -9.82482433319091797 33 43 50
-8.33617401123046875 7 -8 4 6 7
-8 7 -8.33365154266357422 1 2 2
-8.735015869140625 7 6 68 67 73
-8 7 6.77216958999633789 98 95 107
-8 7 8.89722824096679688 32 30 32
-8 8 -9.86086082458496094 33 45 51
-8.10585403442382812 8 -8 1 2 2
-8 8 -8.10506153106689453 4 6 7
-8.9791107177734375 8 -7 24 40 40
-8.51346397399902344 8 6 63 61 67
-8 8 6.53986024856567383 94 91 103
-8 8 8.90998363494873047 27 26 27
-8 8.86086082458496094 -9 4 6 7
-8 8.75780487060546875 7 66 65 67
-8 8.90998363494873047 8 27 26 27
-7.8696894645690918 -9 -9 56 56 71
-7.15288829803466797 -9 8 37 15 34
-7.30798864364624023 -8 8 23 10 22
-7.43496227264404297 -7 8 9 5 10
-7.53479814529418945 -6 8 0 0 0
-7.60826635360717773 -5 8 7 4 7
-7.6559443473815918 -4 8 12 7 12
-7.67823362350463867 -3 8 15 10 15
-7.67536640167236328 -2 8 18 12 18
-7.64740800857543945 -1 8 20 15 20
-7.59424829483032227 0 8 23 18 23
-7.51558780670166016 1 8 27 22 27
-7.4109187126159668 2 8 30 26 31
-7.99018096923828125 3 -9 0 0 0
-7.27950143814086914 3 8 34 30 35
-7.84081697463989258 4 -9 1 2 3
-7.12033653259277344 4 8 37 34 37
-7.66445541381835938 5 -9 2 3 3
-7 4.64319705963134766 8 61 56 62
-7 5 7.95023632049560547 97 97 97
-7 5 8.28627490997314453 64 61 65
-7.459686279296875 6 -9 1 1 1
-7.97469568252563477 6 7 75 74 76
-7 6 7.79041099548339844 100 98 101
-7 6 8.62444877624511719 65 62 65
-7.22476482391357422 7 -9 1 2 2
-7.74953651428222656 7 7 72 71 73
-7 7 7.60780858993530273 100 97 102
-7 7 8.75338459014892578 62 59 62
-7 7.84423065185546875 -9 16 23 27
-7 8 -9.20120525360107422 16 21 26
-7 8 -8.96638965606689453 13 17 21
-7.49422788619995117 8 7 66 65 67
-7 8 7.40086507797241211 95 92 97
-7 8 8.82045841217041016 56 53 56
-7 8.20120525360107422 -9 13 17 21
-7 8.82045841217041016 8 56 53 56
-6.92656469345092773 5 8 64 61 65
-6.6900482177734375 6 8 65 62 65
-6.41877508163452148 7 8 62 59 62
-6.95410871505737305 8 -9 13 17 21
-6.11032485961914062 8 8 56 53 56
5.92495393753051758 6 8 98 98 99
6 5.6857752799987793 8 71 69 73
6 6 7.94727754592895508 104 103 106
6 6 8.29476165771484375 70 69 72
5.65470027923583984 7 8 97 96 97
6 7 7.75779056549072266 102 100 105
6 7 8.65326595306396484 66 65 68
5.34780359268188477 8 8 91 91 91
6 8 7.54330825805664062 97 95 99
6 8 8.77658176422119141 60 58 61
6 8.77658176422119141 8 60 58 61
6.37803125381469727 -9 8 15 10 24
7 -9.7967987060546875 8 17 8 24
7 -9 7.48259782791137695 16 13 29
7 -9 8.7967987060546875 9 5 13
6.5280613899230957 -8 8 23 18 39
7 -8 7.60730409622192383 24 21 43
7 -8 8.75087261199951172 0 0 0
6.65109825134277344 -7 8 30 26 50
7 -7 7.70961380004882812 31 30 54
7 -7 8.69248580932617188 7 5 11
6.74798297882080078 -6 8 37 33 57
7 -6 7.79020547866821289 38 36 60
7 -6 8.6212310791015625 14 11 21
6.81934547424316406 -5 8 43 37 60
7 -5 7.84958553314208984 44 40 63
7 -5 8.54189777374267578 19 16 27
6.86563205718994141 -4 8 47 39 61
7 -4 7.88810920715332031 49 42 63
7 -4 8.46903228759765625 23 19 31
6.88712406158447266 -3 8 51 41 60
7 -3 7.90599727630615234 52 44 63
7 -3 8.42643070220947266 26 21 32
6.88394737243652344 -2 8 53 42 60
7 -2 7.90334892272949219 54 45 62
7 -2 8.43318462371826172 28 23 33
6.8560791015625 -1 8 55 44 60
7 -1 7.8801426887512207 56 47 61
7 -1 8.48601722717285156 30 25 34
6.80334091186523438 0 8 56 47 60
7 0 7.83623838424682617 58 49 62
7 0 8.56262588500976562 31 26 35
6.72539091110229492 1 8 59 50 62
7 1 7.77136898040771484 60 53 63
7 1 8.6408538818359375 33 29 36
6.62170314788818359 2 8 62 55 65
7 2 7.68512582778930664 63 57 66
7 2 8.70899200439453125 35 32 38
6.49154424667358398 3 8 65 60 68
7 3 7.57694244384765625 67 63 69
7 3 8.76403045654296875 37 34 40
6.33393955230712891 4 8 68 65 71
7 4 7.44606685638427734 71 69 73
7 4 8.80707740783691406 38 36 41
6.87098932266235352 5 -9 24 41 33
7 4.26747274398803711 -9 6 9 8
7 5 -9.45847320556640625 25 38 33
7 5 -8.88415241241455078 5 8 7
6.14763307571411133 5 8 71 69 73
7 5 7.29153156280517578 73 73 75
7 5 8.84042072296142578 38 36 40
6.66767454147338867 6 -9 23 40 31
7 6 -9.68180561065673828 27 41 37
7 6 -8.70177650451660156 3 5 4
7 6 7.11211442947387695 74 73 74
7 6 8.86629581451416016 35 33 37
6.434844970703125 7 -9 21 36 29
7 7 -9.78119468688964844 29 45 40
7 7 -8.49322319030761719 0 0 0
6.89802169799804688 7 7 102 100 105
7 6.5500025749206543 7 74 73 74
7 7 6.90324831008911133 98 96 103
7 7 8.88652801513671875 31 29 32
6.17050647735595703 8 -9 17 29 25
7 8 -9.83657932281494141 29 46 39
7 8 -8.25681781768798828 3 4 4
6.64405298233032227 8 7 97 95 99
7 8 6.66256332397460938 93 91 97
7 8 8.90250682830810547 25 24 26
7 8.83657932281494141 -9 3 4 4
7 8.69561958312988281 7 63 63 64
7 8.90250682830810547 8 25 24 26
7.08395671844482422 -9 -9 35 45 41
8 -9.86531925201416016 -9 65 91 79
8 -9 -9.86531925201416016 96 127 114
8 -9 -8.04975414276123047 64 86 81
7.50076150894165039 -9 7 16 13 29
8 -9.78477573394775391 7 17 9 26
8 -9 6.45211601257324219 12 10 22
8 -9.91287517547607422 8 40 20 59
8 -9 8.91287517547607422 41 20 54
7.21878910064697266 -8 -9 27 32 29
8 -8 -9.84740066528320312 97 123 118
8 -8 -8.18960952758789062 61 76 72
7.63016033172607422 -8 7 24 21 43
8 -8 6.59413433074951172 19 18 36
8 -8 8.90624523162841797 34 18 44
7.32925319671630859 -7 -9 18 19 18
8 -7 -9.82818984985351562 97 116 112
8 -7 -8.30418491363525391 56 65 62
7.73631381988525391 -7 7 31 30 54
8 -7 6.71063137054443359 26 28 47
8 -7 8.89983367919921875 25 15 33
7.41616582870483398 -6 -9 10 10 10
8 -6 -9.80886745452880859 96 107 104
8 -6 -8.39433097839355469 50 54 52
7.81992578506469727 -6 7 38 36 60
8 -6 6.80238628387451172 33 33 54
8 -6 8.89400768280029297 17 11 23
7.48014068603515625 -5 -9 4 4 4
8 -5 -9.79132556915283203 94 98 97
8 -5 -8.46068286895751953 46 46 46
7.88152265548706055 -5 7 44 40 63
8 -5 6.86998081207275391 38 37 57
8 -5 8.88918781280517578 11 8 14
7.52161312103271484 -4 -9 0 0 0
8 -4 -9.77797412872314453 90 91 91
8 -4 -8.50369453430175781 39 40 39
7.92147636413574219 -4 7 49 42 63
8 -4 6.91382455825805664 43 39 57
8 -4 8.88578224182128906 6 5 8
7.54085540771484375 -3 -9 0 0 0
8 -3 -9.77114009857177734 80 86 84
8 -3 -8.52364635467529297 33 36 35
7.94001960754394531 -3 7 52 44 63
8 -3 6.9341731071472168 46 41 57
8 -3 8.88412094116210938 4 3 5
7.53799104690551758 -2 -9 1 1 1
8 -2 -9.77219200134277344 73 82 78
8 -2 -8.52066802978515625 29 34 32
7.93725967407226562 -2 7 54 45 62
8 -2 6.93114185333251953 48 42 56
8 -2 8.88437366485595703 2 1 2
7.51299715042114258 -1 -9 1 2 2
8 -1 -9.78091144561767578 67 79 75
8 -1 -8.4947357177734375 27 32 30
7.9131779670715332 -1 7 56 47 61
8 -1 6.90470981597900391 50 43 56
8 -1 8.88651371002197266 0 0 0
7.46570253372192383 0 -9 2 3 3
8 0 -9.79560184478759766 63 77 72
8 0 -8.44567584991455078 24 31 29
7.86763238906860352 0 7 58 49 62
8 0 6.85471963882446289 52 46 56
8 0 8.89032459259033203 0 0 0
7.39577960968017578 1 -9 3 4 4
8 1 -9.81383323669433594 60 76 71
8 1 -8.37315464019775391 23 30 28
7.80034542083740234 1 7 60 53 63
8 1 6.7808690071105957 54 49 58
8 1 8.89545059204101562 1 1 1
7.30272865295410156 2 -9 4 6 6
8 2 -9.83328914642333984 58 75 70
8 2 -8.27666473388671875 21 29 27
7.71089315414428711 2 7 63 57 66
8 2 6.68269586563110352 57 54 60
8 2 8.90147113800048828 2 2 2
7.18585777282714844 3 -9 5 8 7
8 3 -9.85225868225097656 57 76 71
8 3 -8.15550422668457031 20 28 26
7.59868001937866211 3 7 67 63 69
8 3 6.55955791473388672 61 59 63
8 3 8.90797615051269531 2 2 2
7.04425287246704102 4 -9 6 9 8
8 4 -9.86973285675048828 57 77 73
8 4 -8.00874805450439453 20 29 27
7.46291637420654297 4 7 71 69 73
8 4 6.41060304641723633 65 64 66
8 4 8.91461467742919922 1 1 1
8 5 -9.88526344299316406 57 79 75
7.85548210144042969 5 -8 29 47 42
8 4.05121755599975586 -8 7 10 9
8 5 -7.82695341110229492 6 9 8
7.30258035659790039 5 7 73 73 75
8 5 6.23473310470581055 67 67 68
8 5 8.92111968994140625 0 0 0
8 6 -9.89876556396484375 57 81 76
7.67920303344726562 6 -8 28 46 40
8 6 -7.61590337753295898 4 6 6
7.11638116836547852 6 7 74 73 74
8 6 6.03056144714355469 67 67 67
8 6 8.92730808258056641 3 3 4
8 7 -9.91035556793212891 56 80 72
7.47750568389892578 7 -8 26 42 37
8 7 -7.37447118759155273 0 1 1
7.83028984069824219 7 6 98 96 103
8 6.13292932510375977 6 67 67 67
8 7 5.78331279754638672 85 84 90
8 7 8.93306732177734375 7 6 7
8 8 -9.92023658752441406 50 76 58
7.24871826171875 8 -8 22 36 33
8 8 -7.10068273544311523 2 3 3
7.60931301116943359 8 6 93 91 97
8 8 5.50119113922119141 80 79 85
8 8 8.93834495544433594 8 7 9
8 8.92023658752441406 -9 27 41 38
8 8.84235763549804688 -8 2 3 3
8 8.74208641052246094 6 56 56 56
8 8.89999008178710938 7 23 22 24
8 8.93834495544433594 8 8 7 9
8.86531925201416016 -9 -9 64 86 81
8.78477573394775391 -9 7 10 6 15
8.91287517547607422 -9 8 41 20 54
8.84740066528320312 -8 -9 61 76 72
8.73230648040771484 -8 7 1 0 2
8.90624523162841797 -8 8 34 18 44
8.82818984985351562 -7 -9 56 65 62
8.66337680816650391 -7 7 6 5 10
8.89983367919921875 -7 8 25 15 33
8.80886745452880859 -6 -9 50 54 52
8.57568836212158203 -6 7 12 11 19
8.89400768280029297 -6 8 17 11 23
8.79132556915283203 -5 -9 46 46 46
8.4731292724609375 -5 7 17 15 25
8.88918781280517578 -5 8 11 8 14
8.77797412872314453 -4 -9 39 40 39
8.37401390075683594 -4 7 21 18 29
8.88578224182128906 -4 8 6 5 8
8.77114009857177734 -3 -9 33 36 35
8.31375980377197266 -3 7 24 20 30
8.88412094116210938 -3 8 4 3 5
8.77219200134277344 -2 -9 29 34 32
8.32348060607910156 -2 7 26 22 31
8.88437366485595703 -2 8 2 1 2
8.78091144561767578 -1 -9 27 32 30
8.39765739440917969 -1 7 27 24 32
8.88651371002197266 -1 8 0 0 0
8.79560184478759766 0 -9 24 31 29
8.50053596496582031 0 7 29 25 32
8.89032459259033203 0 8 0 0 0
8.81383323669433594 1 -9 23 30 28
8.60028934478759766 1 7 31 28 34
8.89545059204101562 1 8 1 1 1
8.83328914642333984 2 -9 21 29 27
8.68313026428222656 2 7 33 30 36
8.90147113800048828 2 8 2 2 2
8.85225868225097656 3 -9 20 28 26
8.74747085571289062 3 7 35 33 37
8.90797615051269531 3 8 2 2 2
8.86973285675048828 4 -9 20 29 27
8.79627323150634766 4 7 36 34 38
8.91461467742919922 4 8 1 1 1
8.88526344299316406 5 -9 22 32 30
8.52188491821289062 5 -8 6 9 8
8.83319473266601562 5 7 36 34 37
8.92111968994140625 5 8 0 0 0
8.89876556396484375 6 -9 24 35 34
8.70427608489990234 6 -8 4 6 6
8.86133575439453125 6 7 33 32 34
8.92730808258056641 6 8 3 3 4
8.91035556793212891 7 -9 27 39 37
8.79176139831542969 7 -8 0 1 1
8.56088542938232422 7 6 62 62 63
8.88303661346435547 7 7 28 27 29
8.93306732177734375 7 8 7 6 7
8.92023658752441406 8 -9 27 41 38
8.84235763549804688 8 -8 2 3 3
8.74208641052246094 8 6 56 56 56
8.89999008178710938 8 7 23 22 24
8.93834495544433594 8 8 8 7 9
3 2 1 0
3 1 4 3
3 0 1 3
3 4 5 3
3 8 7 6
3 7 10 9
3 6 7 9
3 10 11 9
3 13 2 0
3 12 13 0
3 14 15 12
3 14 12 3
3 3 12 0
3 3 5 14
3 17 8 6
3 16 17 6
3 6 9 16
3 9 18 16
3 11 19 18
3 9 11 18
3 21 13 12
3 20 21 12
3 15 22 20
3 12 15 20
3 24 17 16
3 23 24 16
3 16 18 23
3 18 25 23
3 19 26 25
3 18 19 25
3 28 21 20
3 27 28 20
3 22 29 27
3 20 22 27
3 31 24 23
3 30 31 23
3 23 25 30
3 25 32 30
3 26 33 32
3 25 26 32
3 35 28 27
3 34 35 27
3 29 36 34
3 27 29 34
3 38 31 30
3 37 38 30
3 30 32 37
3 32 39 37
3 33 40 39
3 32 33 39
3 42 35 34
3 41 42 34
3 36 43 41
3 34 36 41
3 45 38 37
3 44 45 37
3 37 39 44
3 39 46 44
3 40 47 46
3 39 40 46
3 49 42 41
3 48 49 41
3 43 50 48
3 41 43 48
3 52 45 44
3 51 52 44
3 44 46 51
3 46 53 51
3 47 54 53
3 46 47 53
3 56 49 48
3 55 56 48
3 50 57 55
3 48 50 55
3 59 52 51
3 58 59 51
3 51 53 58
3 53 60 58
3 54 61 60
3 53 54 60
3 63 56 55
3 62 63 55
3 57 64 62
3 55 57 62
3 66 59 58
3 65 66 58
3 58 60 65
3 60 67 65
3 61 68 67
3 60 61 67
3 70 63 62
3 69 70 62
3 64 71 69
3 62 64 69
3 73 66 65
3 72 73 65
3 65 67 72
3 67 74 72
3 68 75 74
3 67 68 74
3 77 70 69
3 76 77 69
3 71 78 76
3 69 71 76
3 80 73 72
3 79 80 72
3 72 74 79
3 74 81 79
3 75 82 81
3 74 75 81
3 84 77 76
3 83 84 76
3 78 85 83
3 76 78 83
3 87 80 79
3 86 87 79
3 79 81 86
3 81 88 86
3 82 89 88
3 81 82 88
3 91 84 83
3 90 91 83
3 85 93 92
3 85 92 83
3 83 92 90
3 93 94 92
3 96 87 86
3 95 96 86
3 86 88 95
3 88 97 95
3 89 98 97
3 88 89 97
3 100 91 90
3 99 100 90
3 90 92 99
3 92 101 99
3 94 102 101
3 92 94 101
3 104 96 95
3 103 104 95
3 95 97 103
3 97 105 103
3 98 106 105
3 97 98 105
3 108 100 99
3 107 108 99
3 99 101 107
3 101 109 107
3 102 110 109
3 101 102 109
3 112 104 103
3 111 112 103
3 103 105 111
3 105 113 111
3 106 114 113
3 105 106 113
3 116 108 107
3 115 116 107
3 107 109 115
3 109 117 115
3 110 118 117
3 109 110 117
3 121 120 119
3 120 112 111
3 120 111 119
3 119 111 122
3 111 113 122
3 113 123 122
3 114 124 123
3 113 114 123
3 126 116 115
3 125 126 115
3 115 117 125
3 117 127 125
3 118 128 127
3 117 118 127
3 130 121 119
3 129 130 119
3 119 122 129
3 122 131 129
3 122 123 131
3 123 132 131
3 124 133 132
3 123 124 132
3 135 126 125
3 134 135 125
3 125 127 134
3 127 136 134
3 128 138 137
3 128 137 127
3 127 137 136
3 138 139 137
3 141 130 129
3 140 141 129
3 129 131 140
3 131 142 140
3 131 132 142
3 132 143 142
3 133 144 143
3 132 133 143
3 135 134 145
3 134 136 146
3 145 134 146
3 136 137 147
3 146 136 147
3 137 139 147
3 141 140 148
3 140 142 149
3 148 140 149
3 142 143 150
3 149 142 150
3 143 144 150
3 2 152 151
3 1 2 151
3 154 153 4
3 154 4 151
3 151 4 1
3 4 153 5
3 7 8 155
3 155 157 156
3 155 156 7
3 7 156 10
3 10 156 158
3 11 10 158
3 159 160 152
3 159 152 13
3 13 152 2
3 153 15 14
3 154 15 153
3 154 159 15
3 154 160 159
3 153 14 5
3 161 155 8
3 17 161 8
3 157 161 162
3 155 161 157
3 158 163 11
3 163 19 11
3 164 159 13
3 21 164 13
3 159 164 22
3 15 159 22
3 165 161 17
3 24 165 17
3 162 165 166
3 161 165 162
3 163 167 19
3 167 26 19
3 168 164 21
3 28 168 21
3 164 168 29
3 22 164 29
3 169 165 24
3 31 169 24
3 166 169 170
3 165 169 166
3 167 171 26
3 171 33 26
3 172 168 28
3 35 172 28
3 168 172 36
3 29 168 36
3 173 169 31
3 38 173 31
3 170 173 174
3 169 173 170
3 171 175 33
3 175 40 33
3 176 172 35
3 42 176 35
3 172 176 43
3 36 172 43
3 177 173 38
3 45 177 38
3 174 177 178
3 173 177 174
3 175 179 40
3 179 47 40
3 180 176 42
3 49 180 42
3 176 180 50
3 43 176 50
3 181 177 45
3 52 181 45
3 178 181 182
3 177 181 178
3 179 183 47
3 183 54 47
3 184 180 49
3 56 184 49
3 180 184 57
3 50 180 57
3 185 181 52
3 59 185 52
3 182 185 186
3 181 185 182
3 183 187 54
3 187 61 54
3 188 184 56
3 63 188 56
3 184 188 64
3 57 184 64
3 189 185 59
3 66 189 59
3 186 189 190
3 185 189 186
3 187 191 61
3 191 68 61
3 192 188 63
3 70 192 63
3 188 192 71
3 64 188 71
3 193 189 66
3 73 193 66
3 190 193 194
3 189 193 190
3 191 195 68
3 195 75 68
3 196 192 70
3 77 196 70
3 192 196 78
3 71 192 78
3 197 193 73
3 80 197 73
3 194 197 198
3 193 197 194
3 195 199 75
3 199 82 75
3 200 196 77
3 84 200 77
3 196 200 85
3 78 196 85
3 201 197 80
3 87 201 80
3 198 201 202
3 197 201 198
3 199 203 82
3 203 89 82
3 204 200 84
3 204 84 205
3 205 84 91
3 207 206 93
3 204 207 93
3 204 93 85
3 204 85 200
3 93 206 94
3 208 201 87
3 96 208 87
3 202 208 209
3 201 208 202
3 203 210 89
3 210 98 89
3 205 91 211
3 211 91 100
3 213 206 207
3 212 206 213
3 206 212 102
3 94 206 102
3 214 208 96
3 104 214 96
3 209 214 215
3 208 214 209
3 210 216 98
3 216 106 98
3 211 100 217
3 217 100 108
3 219 212 213
3 218 212 219
3 212 218 110
3 102 212 110
3 220 214 104
3 112 220 104
3 215 220 221
3 214 220 215
3 216 222 106
3 222 114 106
3 217 108 223
3 223 108 116
3 225 218 219
3 224 218 225
3 218 224 118
3 110 218 118
3 120 121 226
3 226 228 227
3 120 226 227
3 120 227 220
3 120 220 112
3 220 227 221
3 222 229 114
3 229 124 114
3 223 116 230
3 230 116 126
3 232 224 225
3 231 224 232
3 224 231 128
3 118 224 128
3 233 226 121
3 130 233 121
3 228 233 234
3 226 233 228
3 229 235 124
3 235 133 124
3 230 126 236
3 236 126 135
3 238 231 232
3 237 231 238
3 138 128 231
3 138 231 239
3 239 231 237
3 138 239 139
3 240 233 130
3 141 240 130
3 234 240 241
3 233 240 234
3 235 242 133
3 242 144 133
3 236 135 145
3 243 236 145
3 237 238 243
3 237 243 146
3 146 243 145
3 239 237 146
3 147 239 146
3 239 147 139
3 240 141 148
3 241 240 148
3 241 148 244
3 244 148 149
3 244 149 245
3 149 150 245
3 245 150 144
3 242 245 144
3 151 152 246
3 151 246 154
3 156 157 247
3 156 247 158
3 246 152 160
3 246 160 154
3 248 247 157
3 162 248 157
3 247 248 163
3 158 247 163
3 249 248 162
3 166 249 162
3 248 249 167
3 163 248 167
3 250 249 166
3 170 250 166
3 249 250 171
3 167 249 171
3 251 250 170
3 174 251 170
3 250 251 175
3 171 250 175
3 252 251 174
3 178 252 174
3 251 252 179
3 175 251 179
3 253 252 178
3 182 253 178
3 252 253 183
3 179 252 183
3 254 253 182
3 186 254 182
3 253 254 187
3 183 253 187
3 255 254 186
3 190 255 186
3 254 255 191
3 187 254 191
3 256 255 190
3 194 256 190
3 255 256 195
3 191 255 195
3 257 256 194
3 198 257 194
3 256 257 199
3 195 256 199
3 258 257 198
3 202 258 198
3 257 258 203
3 199 257 203
3 204 205 259
3 204 259 207
3 260 258 202
3 209 260 202
3 258 260 210
3 203 258 210
3 261 259 205
3 211 261 205
3 259 261 213
3 207 259 213
3 262 260 209
3 215 262 209
3 260 262 216
3 210 260 216
3 263 261 211
3 217 263 211
3 261 263 219
3 213 261 219
3 264 262 215
3 264 215 265
3 265 215 221
3 262 264 266
3 262 266 216
3 216 266 222
3 267 263 217
3 223 267 217
3 263 267 225
3 219 263 225
3 227 228 268
3 268 221 227
3 268 269 221
3 269 265 221
3 266 270 222
3 270 229 222
3 271 267 223
3 230 271 223
3 267 271 232
3 225 267 232
3 272 268 228
3 234 272 228
3 269 272 273
3 268 272 269
3 270 274 229
3 274 235 229
3 275 271 230
3 275 230 276
3 276 230 236
3 271 275 277
3 271 277 232
3 232 277 238
3 278 272 234
3 241 278 234
3 273 278 279
3 272 278 273
3 274 280 235
3 280 242 235
3 276 236 243
3 281 276 243
3 281 243 238
3 277 281 238
3 278 241 244
3 279 278 244
3 279 244 282
3 282 244 245
3 282 245 242
3 280 282 242
3 264 265 283
3 264 283 266
3 284 283 265
3 269 284 265
3 283 284 270
3 266 283 270
3 285 284 269
3 273 285 269
3 284 285 274
3 270 284 274
3 275 276 286
3 275 286 277
3 287 285 273
3 279 287 273
3 285 287 280
3 274 285 280
3 286 276 281
3 286 281 277
3 287 279 282
3 287 282 280
3 290 289 288
3 289 291 288
3 293 290 288
3 292 293 288
3 291 294 292
3 288 291 292
3 296 293 292
3 295 296 292
3 294 297 295
3 292 294 295
3 296 295 298
3 295 297 298
3 301 300 299
3 300 302 299
3 304 301 299
3 303 304 299
3 302 305 303
3 299 302 303
3 307 304 303
3 306 307 303
3 305 308 306
3 303 305 306
3 310 307 306
3 309 310 306
3 308 311 309
3 306 308 309
3 313 310 309
3 312 313 309
3 311 314 312
3 309 311 312
3 316 313 312
3 315 316 312
3 314 317 315
3 312 314 315
3 319 316 315
3 318 319 315
3 317 320 318
3 315 317 318
3 322 319 318
3 321 322 318
3 320 323 321
3 318 320 321
3 325 322 321
3 324 325 321
3 323 326 324
3 321 323 324
3 328 325 324
3 327 328 324
3 326 329 327
3 324 326 327
3 331 328 327
3 330 331 327
3 329 332 330
3 327 329 330
3 334 331 330
3 333 334 330
3 332 335 333
3 330 332 333
3 337 334 333
3 336 337 333
3 335 338 336
3 333 335 336
3 340 337 336
3 339 340 336
3 338 341 339
3 336 338 339
3 344 343 342
3 343 345 342
3 347 340 339
3 346 347 339
3 341 348 346
3 339 341 346
3 350 344 342
3 349 350 342
3 345 351 349
3 342 345 349
3 346 289 290
3 346 290 347
3 347 290 352
3 289 346 348
3 289 348 291
3 291 348 353
3 355 350 349
3 354 355 349
3 351 356 354
3 349 351 354
3 359 358 357
3 358 293 357
3 358 352 293
3 352 290 293
3 353 360 291
3 360 294 291
3 362 355 354
3 361 362 354
3 356 363 361
3 354 356 361
3 365 359 357
3 364 365 357
3 357 296 364
3 293 296 357
3 360 366 294
3 366 297 294
3 362 361 367
3 361 363 367
3 365 364 368
3 364 296 298
3 364 298 368
3 368 298 369
3 369 298 297
3 366 369 297
3 372 371 370
3 371 373 370
3 376 375 374
3 301 374 375
3 301 375 300
3 300 375 377
3 300 377 378
3 302 300 378
3 380 372 370
3 379 380 370
3 373 381 379
3 370 373 379
3 383 376 374
3 382 383 374
3 374 304 382
3 301 304 374
3 378 384 302
3 384 305 302
3 386 380 379
3 385 386 379
3 381 387 385
3 379 381 385
3 389 383 382
3 388 389 382
3 382 307 388
3 304 307 382
3 384 390 305
3 390 308 305
3 392 386 385
3 391 392 385
3 387 393 391
3 385 387 391
3 395 389 388
3 394 395 388
3 388 310 394
3 307 310 388
3 390 396 308
3 396 311 308
3 398 392 391
3 397 398 391
3 393 399 397
3 391 393 397
3 401 395 394
3 400 401 394
3 394 313 400
3 310 313 394
3 396 402 311
3 402 314 311
3 404 398 397
3 403 404 397
3 399 405 403
3 397 399 403
3 407 401 400
3 406 407 400
3 400 316 406
3 313 316 400
3 402 408 314
3 408 317 314
3 410 404 403
3 409 410 403
3 405 411 409
3 403 405 409
3 413 407 406
3 412 413 406
3 406 319 412
3 316 319 406
3 408 414 317
3 414 320 317
3 416 410 409
3 415 416 409
3 411 417 415
3 409 411 415
3 419 413 412
3 418 419 412
3 412 322 418
3 319 322 412
3 414 420 320
3 420 323 320
3 422 416 415
3 421 422 415
3 417 423 421
3 415 417 421
3 425 419 418
3 424 425 418
3 418 325 424
3 322 325 418
3 420 426 323
3 426 326 323
3 428 422 421
3 427 428 421
3 423 429 427
3 421 423 427
3 431 425 424
3 430 431 424
3 424 328 430
3 325 328 424
3 426 432 326
3 432 329 326
3 434 428 427
3 433 434 427
3 429 435 433
3 427 429 433
3 437 431 430
3 436 437 430
3 430 331 436
3 328 331 430
3 432 438 329
3 438 332 329
3 440 434 433
3 439 440 433
3 435 441 439
3 433 435 439
3 443 437 436
3 442 443 436
3 436 334 442
3 331 334 436
3 438 444 332
3 444 335 332
3 446 440 439
3 445 446 439
3 441 447 445
3 439 441 445
3 449 443 442
3 448 449 442
3 442 337 448
3 334 337 442
3 444 450 335
3 450 338 335
3 452 446 445
3 451 452 445
3 447 453 451
3 445 447 451
3 455 449 448
3 454 455 448
3 448 340 454
3 337 340 448
3 450 456 338
3 456 341 338
3 451 343 344
3 451 344 452
3 452 344 457
3 343 458 345
3 451 458 343
3 451 459 458
3 451 453 459
3 459 460 458
3 462 455 454
3 461 462 454
3 454 347 461
3 340 347 454
3 456 463 341
3 463 348 341
3 457 344 464
3 464 344 350
3 465 345 458
3 351 345 465
3 460 466 465
3 458 460 465
3 468 462 461
3 467 468 461
3 461 352 467
3 347 352 461
3 463 469 348
3 469 353 348
3 464 350 470
3 470 350 355
3 471 351 465
3 356 351 471
3 466 472 471
3 465 466 471
3 475 474 473
3 467 358 359
3 468 467 359
3 468 359 473
3 468 473 474
3 467 352 358
3 469 476 353
3 476 360 353
3 470 355 477
3 477 355 362
3 478 356 471
3 363 356 478
3 472 479 478
3 471 472 478
3 481 475 473
3 480 481 473
3 473 365 480
3 359 365 473
3 476 482 360
3 482 366 360
3 477 362 367
3 483 477 367
3 363 478 484
3 363 484 367
3 367 484 483
3 478 479 484
3 481 480 485
3 480 365 368
3 480 368 485
3 485 368 486
3 486 368 487
3 368 369 487
3 487 369 366
3 482 487 366
3 371 372 488
3 371 488 373
3 375 376 489
3 377 375 489
3 490 377 489
3 377 490 378
3 491 488 372
3 380 491 372
3 488 491 381
3 373 488 381
3 492 489 376
3 383 492 376
3 489 492 490
3 490 492 493
3 490 493 384
3 378 490 384
3 494 491 380
3 386 494 380
3 491 494 387
3 381 491 387
3 495 492 383
3 389 495 383
3 492 495 493
3 493 495 496
3 493 496 390
3 384 493 390
3 497 494 386
3 392 497 386
3 494 497 393
3 387 494 393
3 498 495 389
3 395 498 389
3 495 498 496
3 496 498 499
3 496 499 396
3 390 496 396
3 500 497 392
3 398 500 392
3 497 500 399
3 393 497 399
3 501 498 395
3 401 501 395
3 498 501 499
3 499 501 502
3 499 502 402
3 396 499 402
3 503 500 398
3 404 503 398
3 500 503 405
3 399 500 405
3 504 501 401
3 407 504 401
3 501 504 502
3 502 504 505
3 502 505 408
3 402 502 408
3 506 503 404
3 410 506 404
3 503 506 411
3 405 503 411
3 507 504 407
3 413 507 407
3 504 507 505
3 505 507 508
3 505 508 414
3 408 505 414
3 509 506 410
3 416 509 410
3 506 509 417
3 411 506 417
3 510 507 413
3 419 510 413
3 507 510 508
3 508 510 511
3 508 511 420
3 414 508 420
3 512 509 416
3 422 512 416
3 509 512 423
3 417 509 423
3 513 510 419
3 425 513 419
3 510 513 511
3 511 513 514
3 511 514 426
3 420 511 426
3 515 512 422
3 428 515 422
3 512 515 429
3 423 512 429
3 516 513 425
3 431 516 425
3 513 516 514
3 514 516 517
3 514 517 432
3 426 514 432
3 518 515 428
3 434 518 428
3 515 518 435
3 429 515 435
3 519 516 431
3 437 519 431
3 516 519 517
3 517 519 520
3 517 520 438
3 432 517 438
3 521 518 434
3 440 521 434
3 518 521 441
3 435 518 441
3 522 519 437
3 443 522 437
3 519 522 520
3 520 522 523
3 520 523 444
3 438 520 444
3 524 521 440
3 446 524 440
3 521 524 447
3 441 521 447
3 525 522 443
3 449 525 443
3 522 525 523
3 523 525 526
3 523 526 450
3 444 523 450
3 527 524 446
3 452 527 446
3 524 527 453
3 447 524 453
3 528 525 449
3 455 528 449
3 525 528 526
3 526 528 529
3 526 529 456
3 450 526 456
3 530 527 452
3 457 530 452
3 459 453 527
3 459 527 531
3 531 527 530
3 459 531 460
3 532 528 455
3 462 532 455
3 528 532 529
3 529 532 533
3 529 533 463
3 456 529 463
3 534 530 457
3 464 534 457
3 530 534 531
3 531 534 535
3 531 535 466
3 460 531 466
3 536 532 462
3 468 536 462
3 532 536 533
3 533 536 537
3 533 537 469
3 463 533 469
3 538 534 464
3 470 538 464
3 534 538 535
3 535 538 539
3 535 539 472
3 466 535 472
3 474 475 540
3 468 474 540
3 468 540 536
3 536 540 541
3 536 541 537
3 537 541 542
3 537 542 476
3 469 537 476
3 543 538 470
3 477 543 470
3 538 543 539
3 539 543 544
3 539 544 479
3 472 539 479
3 545 540 475
3 481 545 475
3 540 545 541
3 541 545 546
3 541 546 542
3 542 546 547
3 542 547 482
3 476 542 482
3 543 477 483
3 544 543 483
3 484 544 483
3 544 484 479
3 545 481 485
3 546 545 485
3 486 546 485
3 547 546 486
3 487 547 486
3 547 487 482
