ply
format ascii 1.0
element vertex 418
property float x
property float y
property float z
property uchar red
property uchar green
property uchar blue
element face 828
property list uchar int vertex_indices
end_header
-9.59985828399658203 -9 6 111 101 106
-9 -9.59985828399658203 6 113 104 113
-9 -9 5.66557502746582031 100 98 99
-9.85651493072509766 -9 7 118 102 111
-9 -9.85651493072509766 7 120 106 121
-9.91204738616943359 -9 8 128 106 118
-9 -9.91204738616943359 8 129 109 130
-9 -9 8.91204738616943359 117 103 111
-9 -8.64407539367675781 6 103 101 102
-9.66918277740478516 -8 7 106 97 99
-9 -8 6.57284832000732422 94 91 91
-9.870269775390625 -8 8 115 99 103
-9 -8 8.870269775390625 105 97 99
-9 -7.45232200622558594 7 98 97 97
-9.76552104949951172 -7 8 103 93 93
-9 -7 7.33849859237670898 88 85 85
-9 -7 8.76552104949951172 94 92 92
-9.09999465942382812 -6 8 91 86 86
-9 -6 7.97842216491699219 77 72 72
-9 -6 8.09999465942382812 84 82 82
-9 -5.96031713485717773 8 84 82 82
-9.04306793212890625 6 8 44 40 46
-9 5.98455619812011719 8 43 43 44
-9 6 7.99126625061035156 61 60 61
-9 6 8.04306793212890625 53 51 55
-9.77057456970214844 7 8 53 45 56
-9 7 7.31849098205566406 67 64 69
-9 7 8.77057456970214844 63 57 65
-9.69981575012207031 8 7 70 57 72
-9 7.40237617492675781 7 67 64 69
-9 8 6.50553083419799805 64 61 66
-9.87491035461425781 8 8 61 47 63
-9 8 8.87491035461425781 70 58 72
-9 8.69981575012207031 7 68 60 69
-9 8.87491035461425781 8 70 58 72
-8.1229705810546875 -9 6 103 101 102
-8 -9.81378555297851562 7 112 105 112
-8 -9 6.04589080810546875 97 93 95
-8 -9.89887046813964844 8 120 107 121
-8 -9 8.89887046813964844 108 102 105
-8 -8 6.93272781372070312 86 78 79
-8 -8 8.83681678771972656 97 97 97
-8 -7.91377019882202148 7 92 87 88
-8 -7 7.68365144729614258 81 73 73
-8 -7 8.61502647399902344 87 84 84
-8.93621730804443359 -6 8 84 82 82
-8 -6.50514888763427734 8 87 84 84
-8.97418117523193359 6 8 53 51 55
-8 6.50055551528930664 8 62 62 62
-8 7 7.66396284103393555 66 66 66
-8 7 8.62885761260986328 68 65 69
-8 7.83893537521362305 7 66 66 66
-8 8 6.8667144775390625 63 62 63
-8 8 8.84429836273193359 68 61 69
-8 8.39126300811767578 7 65 62 66
-8 8.84429836273193359 8 68 61 69
-7 -9.74968242645263672 7 106 104 106
-7 -9 6.35898494720458984 91 82 86
-7 -9.883880615234375 8 113 106 113
-7 -9 8.883880615234375 102 101 102
-7.77636337280273438 -8 7 92 87 88
-7 -8.27412509918212891 7 96 91 93
-7 -8 7.23083066940307617 86 77 78
-7 -8 8.79030323028564453 92 87 88
-7 -7 7.96782016754150391 73 62 63
-7 -7 8.14205455780029297 82 74 74
-7 -6.94968175888061523 8 82 74 74
-7 6.92324018478393555 8 66 65 68
-7 7 7.94832372665405273 63 61 65
-7 7 8.20978832244873047 66 66 66
-7.55662631988525391 8 7 65 62 66
-7 8 7.16544246673583984 63 62 63
-7 8 8.80277919769287109 65 62 66
-7 8.80277919769287109 8 65 62 66
-6 -9.65036487579345703 7 101 97 101
-6 -9 6.608062744140625 86 73 78
-6 -9.86767005920410156 8 107 106 108
-6 -9 8.86767005920410156 97 93 95
-6 -8.55622482299804688 7 92 83 87
-6 -8 7.46832895278930664 80 68 70
-6 -8 8.72578716278076172 88 79 81
-6.85974407196044922 -7 8 82 74 74
-6 -7.2771759033203125 8 88 79 81
-6.77461385726928711 7 8 66 66 66
-6 7.23596382141113281 8 62 60 63
-6 8 7.40386629104614258 60 58 60
-6 8 8.7471160888671875 62 61 62
-6 8.7471160888671875 8 62 61 62
-5 -9.4946746826171875 7 98 91 98
-5 -9 6.79614543914794922 80 66 72
-5 -9.85155677795410156 8 104 102 104
-5 -9 8.85155677795410156 94 86 91
-5 -8.76920318603515625 7 88 76 81
-5 -8 7.64760208129882812 75 61 63
-5 -8 8.63968563079833984 84 72 74
-5 -7.52099037170410156 8 84 72 74
-5 7.46662807464599609 8 59 56 61
-5 8 7.58379268646240234 57 54 59
-5 8 8.676116943359375 59 57 59
-5 8.676116943359375 8 59 57 59
-4 -9.26544284820556641 7 96 86 96
-4 -9 6.92534923553466797 76 61 67
-4 -9.8376922607421875 8 101 96 102
-4 -9 8.8376922607421875 92 82 87
-4 -8.91548824310302734 7 85 71 77
-4 -8 7.770721435546875 71 56 58
-4 -8 8.53800392150878906 81 67 70
-4 -7.6883854866027832 8 81 67 70
-4 7.62496614456176758 8 57 53 60
-4 8 7.70732641220092773 55 50 57
-4 8 8.59677314758300781 56 53 56
-4 8.59677314758300781 8 56 53 56
-3 -9.01416015625 7 95 83 95
-3 -9 6.99704599380493164 74 57 65
-3 -9.82869720458984375 8 100 93 101
-3 -9 8.82869720458984375 91 78 85
-3 -8.99665546417236328 7 83 67 74
-3 -8 7.83903217315673828 68 52 55
-3 -8 8.45092582702636719 79 64 67
-3 -7.78124380111694336 8 79 64 67
-3 7.71276235580444336 8 55 50 57
-3 8 7.7758326530456543 53 48 55
-3 8 8.53242778778076172 53 49 54
-3 8.53242778778076172 8 53 49 54
-2.80214786529541016 -9 7 83 67 74
-2 -9.82668685913085938 8 100 92 101
-2 -9 7.01206159591674805 82 66 74
-2 -9 8.82668685913085938 91 77 84
-2 -8 7.85325193405151367 67 51 54
-2 -8 8.428375244140625 78 62 65
-2 -7.80057334899902344 8 78 62 65
-2 7.73096942901611328 8 53 47 55
-2 8 7.79004144668579102 51 45 52
-2 8 8.51633071899414062 50 46 51
-2 8.51633071899414062 8 50 46 51
-1.71256482601165771 -9 7 82 66 74
-1 -9.12615489959716797 7 95 81 96
-1 -9 6.97025918960571289 74 56 65
-1 -9.83218193054199219 8 100 92 102
-1 -9 8.83218193054199219 92 77 85
-1 -8.96633243560791016 7 83 66 74
-1 -8 7.81352710723876953 68 51 55
-1 -8 8.48712158203125 79 63 66
-1 -7.74658107757568359 8 79 63 66
-1 7.67978096008300781 8 50 44 52
-1 8 7.75010156631469727 48 42 49
-1 8 8.55893898010253906 47 43 48
-1 8.55893898010253906 8 47 43 48
0 -9.38269138336181641 7 97 84 98
0 -9 6.8715052604675293 76 58 67
0 -9.84380245208740234 8 102 94 104
0 -9 8.84380245208740234 94 79 88
0 -8.85453319549560547 7 85 68 77
0 -8 7.71944570541381836 70 53 57
0 -8 8.58680057525634766 81 65 69
0 -7.61869192123413086 8 81 65 69
0 7.55864524841308594 8 47 41 48
0 8 7.65559244155883789 45 39 46
0 8 8.63445663452148438 44 40 44
0 8.63445663452148438 8 44 40 44
1 -9.57684135437011719 7 100 87 101
1 -9 6.71468114852905273 80 62 72
1 -9.85904312133789062 8 105 98 107
1 -9 8.85904312133789062 97 83 92
1 -8.67697715759277344 7 89 72 81
1 -8 7.57000350952148438 74 57 61
1 -8 8.6830596923828125 85 69 73
1 -7.41550302505493164 8 85 69 73
1 7.36622333526611328 8 43 38 44
1 8 7.50549173355102539 41 36 41
1 8 8.71159839630126953 40 37 40
1 8.71159839630126953 8 40 37 40
2 -9.70288562774658203 7 103 93 105
2 -9 6.49807882308959961 86 68 78
2 -9.87542152404785156 8 109 104 111
2 -9 8.87542152404785156 102 89 97
2 -8.43170642852783203 7 94 78 88
2 -8 7.36352729797363281 80 63 67
2 -8 8.75882911682128906 90 75 79
2 -7.13467884063720703 8 90 75 79
2 7.10029077529907227 8 39 34 39
2 8 7.29809904098510742 37 32 37
2 8 8.77548408508300781 36 33 36
2 8.77548408508300781 8 36 33 36
3 -9.78336238861083984 7 108 101 111
3 -9 6.21917724609375 93 75 86
3 -9.89116954803466797 8 114 112 116
3 -9 8.89116954803466797 107 97 104
3 -8.11583328247070312 7 100 86 95
3 -8 7.09755277633666992 87 70 75
3 -8 8.814208984375 97 82 87
2.37638258934020996 -7 8 77 60 61
3 -7 7.8409881591796875 73 56 58
3 -7 8.44793796539306641 84 68 69
3 -6.75134849548339844 8 84 68 69
2.29640603065490723 7 8 39 34 39
3 6.73346567153930664 8 38 33 39
3 7 7.82060527801513672 35 31 36
3 7 8.47751998901367188 34 31 34
3 8 7.03091001510620117 32 28 31
3 8 8.82406806945800781 32 30 32
3 8.82406806945800781 8 32 30 32
3.64087843894958496 -9 6 93 75 86
4 -9.36255836486816406 6 110 101 112
4 -9 5.87466526031494141 94 77 88
4 -9.83604812622070312 7 115 111 116
4 -9.90534114837646484 8 122 121 122
4 -9 8.90534114837646484 113 106 111
4 -8.86662769317626953 6 101 85 95
3.30125093460083008 -8 7 87 70 75
4 -8 6.77082300186157227 87 70 75
4 -8 8.85397911071777344 103 92 96
4 -7.7062382698059082 7 96 80 85
4 -7 7.52850723266601562 82 66 67
4 -7 8.70208740234375 92 78 79
4 -6.26241922378540039 8 92 78 79
4 6.26835870742797852 8 33 29 33
4 7 7.50772285461425781 30 26 30
4 7 8.71069622039794922 29 27 29
3.09544467926025391 8 7 32 28 31
4 7.64150047302246094 7 30 26 30
4 8 6.70338106155395508 27 24 27
4 8 8.85999584197998047 28 27 28
4 8.58607959747314453 7 26 25 26
4 8.85999584197998047 8 28 27 28
5 -9.70466899871826172 6 117 113 119
5 -9 5.46125268936157227 104 89 99
5 -9.87175941467285156 7 123 123 123
5 -9.91760158538818359 8 126 123 130
5 -9 8.91760158538818359 120 118 119
5 -8.42665863037109375 6 110 97 106
5 -8 6.37953615188598633 97 82 86
5 -8 8.88271522521972656 111 103 106
5 -7.20446538925170898 7 105 92 96
5 -7 7.15305471420288086 92 77 79
5 -7 8.80500602722167969 101 89 91
4.45265769958496094 -6 8 79 64 64
5 -6 7.80078840255737305 79 63 64
5 -6 8.50344085693359375 89 76 76
5 -5.63360214233398438 8 89 76 76
4.48622941970825195 6 8 33 29 33
5 5.66957616806030273 8 32 29 32
5 6 7.81302213668823242 28 25 28
5 6 8.48772716522216797 27 25 27
5 7 7.13176918029785156 24 22 24
5 7 8.80861377716064453 25 24 24
5 7.16644430160522461 7 24 22 24
5 8 6.310455322265625 21 19 21
5 8 8.88651847839355469 24 23 24
5 8.76254177093505859 7 21 21 21
5 8.88651847839355469 8 24 23 24
5.94721031188964844 -9 5 104 89 99
6 -9.10221290588378906 5 122 119 124
6 -9 4.97336387634277344 110 96 106
6 -9.81535243988037109 6 126 126 127
6 -9.89680576324462891 7 128 125 131
6 -9.92797279357910156 8 131 126 139
6 -9 8.92797279357910156 128 123 128
6 -8.97345924377441406 5 114 103 111
5.82609701156616211 -8 6 97 82 86
6 -8 5.91784191131591797 102 87 92
6 -8 8.90380287170410156 119 117 118
6 -7.90101909637451172 6 108 96 100
5.35178899765014648 -7 7 92 77 79
6 -7 6.71224164962768555 95 81 82
6 -7 8.85925960540771484 110 103 104
6 -6.575531005859375 7 103 91 93
6 -6 7.37668848037719727 91 77 77
6 -6 8.75515556335449219 99 89 90
5.81585025787353516 -5 8 76 62 63
6 -5 7.92286539077758789 77 64 64
6 -5 8.28353118896484375 88 76 76
6 -4.82792139053344727 8 88 76 76
5.89620256423950195 5 8 32 29 32
6 4.90523719787597656 8 19 17 19
6 5 7.95652627944946289 27 24 27
6 5 8.18264102935791016 26 24 26
6 6 7.38932943344116211 22 20 22
6 6 8.75145244598388672 22 22 22
5.30289220809936523 7 7 24 22 24
6 6.56636953353881836 7 22 20 22
6 7 6.69058942794799805 18 17 18
6 7 8.86107826232910156 21 20 21
5.67574262619018555 8 6 21 19 21
6 7.82601833343505859 6 18 17 18
6 8 5.84684562683105469 14 14 14
6 8 8.90628910064697266 21 19 20
6 8.40960407257080078 6 15 15 15
6 8.83911323547363281 7 17 17 17
6 8.90628910064697266 8 21 19 20
7 -9.71235466003417969 5 130 128 132
7 -9 4.40202665328979492 121 113 119
7 -9.86899852752685547 6 131 127 135
7 -9.91491603851318359 7 132 126 141
7 -9.93664264678955078 8 135 128 149
7 -9 8.93664264678955078 138 124 138
7 -8.40416049957275391 5 124 119 123
7 -8 5.38109350204467773 114 104 107
7 -8 8.91955852508544922 128 121 125
7 -7.25416231155395508 6 118 112 114
7 -7 6.20097064971923828 108 97 98
7 -7 8.89204597473144531 118 118 118
6.76839017868041992 -6 7 91 77 77
7 -6 6.88364553451538086 95 83 83
7 -6 8.84247684478759766 109 105 105
7 -5.79817819595336914 7 103 93 93
7 -5 7.44693422317504883 91 80 80
7 -5 8.73330307006835938 99 92 92
6.78446006774902344 -4 8 75 63 64
7 -4 7.89786577224731445 78 67 68
7 -4 8.34346389770507812 88 79 80
7 -3.71017909049987793 8 88 79 80
6.8769373893737793 4 8 19 17 19
7 3.83439135551452637 8 5 5 5
7 4 7.94168329238891602 15 14 15
7 4 8.23050212860107422 4 4 4
7 5 7.48166656494140625 20 19 20
7 5 8.72085952758789062 15 15 15
6.79432916641235352 6 7 22 20 22
7 5.82783174514770508 7 20 19 20
7 6 6.89669370651245117 15 14 15
7 6 8.84097957611083984 18 17 18
7 7 6.17868900299072266 12 12 12
7 7 8.89307117462158203 18 16 17
7 7.21367502212524414 6 12 12 12
7 8 5.30791234970092773 8 8 8
7 8 8.92123508453369141 17 14 16
7 8.75228500366210938 6 10 10 10
7 8.88101673126220703 7 14 13 14
7 8.92123508453369141 8 17 14 16
7.61866569519042969 -9 4 121 113 119
8 -9.50648307800292969 4 134 129 139
8 -9 3.73936772346496582 129 127 129
8 -9.8338165283203125 5 133 128 141
8 -9.90011882781982422 6 134 127 146
8 -9.92836189270019531 7 136 128 153
8 -9.94385051727294922 8 140 129 160
8 -9 8.94385051727294922 148 126 150
8 -8.75789070129394531 4 131 130 131
7.62403535842895508 -8 5 114 104 107
8 -8 4.76044178009033203 122 116 118
8 -8 8.93154430389404297 139 123 132
8 -7.72973537445068359 5 124 122 123
7.34876108169555664 -7 6 108 97 98
8 -7 5.61151933670043945 114 107 108
8 -7 8.91360664367675781 128 119 121
8 -6.46132230758666992 6 119 115 116
8 -6 6.31898164749145508 109 101 101
8 -6 8.88608455657958984 119 115 115
7.81960439682006836 -5 7 91 80 80
8 -5 6.89881420135498047 97 87 87
8 -5 8.84077930450439453 109 109 109
8 -4.78707551956176758 7 104 98 98
8 -4 7.3656001091003418 92 85 85
8 -4 8.75827312469482422 99 97 97
7.47861433029174805 -3 8 76 67 69
8 -3 7.72423696517944336 80 73 74
8 -3 8.58272075653076172 89 85 85
7.96280431747436523 -2 8 63 56 58
8 -2 7.98031854629516602 68 61 63
8 -2 8.09203052520751953 77 73 74
8 -1.87567985057830811 8 77 73 74
7.56184673309326172 3 8 5 5 5
8 2.06012797355651855 8 31 30 31
8 3 7.76824855804443359 10 10 10
8 3 8.54064369201660156 20 20 20
8 4 7.410980224609375 0 0 0
8 4 8.74497699737548828 8 8 8
7.8834681510925293 5 7 20 19 20
8 4.86557817459106445 7 0 0 0
8 5 6.93464183807373047 13 13 13
8 5 8.83658885955810547 2 2 2
8 6 6.33261489868164062 9 9 9
8 6 8.88532257080078125 14 12 13
7.31014108657836914 7 6 12 12 12
8 6.45800065994262695 6 9 9 9
8 7 5.58857393264770508 4 4 4
8 7 8.9142303466796875 14 11 13
7.50424814224243164 8 5 8 8 8
8 7.66407537460327148 5 4 4 4
8 8 4.68419551849365234 1 1 1
8 8 8.93270587921142578 11 8 10
8 8.57051277160644531 5 4 3 3
8 8.84746456146240234 6 7 6 7
8 8.90698432922363281 7 10 8 10
8 8.93270587921142578 8 11 8 10
8.50648307800292969 -9 4 131 130 131
8.8338165283203125 -9 5 133 128 132
8.90011882781982422 -9 6 136 126 136
8.92836189270019531 -9 7 141 125 142
8.94385051727294922 -9 8 148 126 150
8.50299453735351562 -8 5 124 122 123
8.84024620056152344 -8 6 127 125 126
8.90454387664794922 -8 7 132 123 128
8.93154430389404297 -8 8 139 123 132
8.63449668884277344 -7 6 119 115 116
8.86093425750732422 -7 7 123 121 121
8.91360664367675781 -7 8 128 119 121
8.76042079925537109 -6 7 114 111 111
8.88608455657958984 -6 8 119 115 115
8.32843112945556641 -5 7 104 98 98
8.84077930450439453 -5 8 109 109 109
8.75827312469482422 -4 8 99 97 97
8.58272075653076172 -3 8 89 85 85
8.09203052520751953 -2 8 77 73 74
8.54064369201660156 3 8 20 20 20
8.74497699737548828 4 8 8 8 8
8.24042892456054688 5 7 9 9 9
8.83658885955810547 5 8 2 2 2
8.75682830810546875 6 7 11 11 11
8.88532257080078125 6 8 14 12 13
8.64734268188476562 7 6 7 6 7
8.86269378662109375 7 7 11 9 10
8.9142303466796875 7 8 14 11 13
8.57051277160644531 8 5 4 3 3
8.84746456146240234 8 6 7 6 7
8.90698432922363281 8 7 10 8 10
8.93270587921142578 8 8 11 8 10
3 2 1 0
3 1 4 3
3 0 1 3
3 4 6 5
3 3 4 5
3 6 7 5
3 2 0 8
3 10 8 0
3 10 0 9
3 9 0 3
3 3 5 9
3 5 11 9
3 7 12 11
3 5 7 11
3 10 9 13
3 15 13 9
3 15 9 14
3 14 9 11
3 12 16 14
3 11 12 14
3 18 15 14
3 17 18 14
3 16 19 17
3 14 16 17
3 18 17 20
3 17 19 20
3 23 22 21
3 22 24 21
3 26 23 21
3 25 26 21
3 24 27 25
3 21 24 25
3 30 29 28
3 29 26 25
3 29 25 28
3 28 25 31
3 27 32 31
3 25 27 31
3 30 28 33
3 28 31 34
3 33 28 34
3 31 32 34
3 1 2 35
3 35 37 36
3 35 36 1
3 1 36 4
3 36 38 4
3 4 38 6
3 6 38 39
3 7 6 39
3 35 2 8
3 8 37 35
3 8 10 37
3 10 40 37
3 39 41 7
3 41 12 7
3 40 10 13
3 42 40 13
3 13 43 42
3 15 43 13
3 41 44 12
3 44 16 12
3 45 46 43
3 45 43 18
3 18 43 15
3 46 45 19
3 46 19 44
3 44 19 16
3 45 18 20
3 45 20 19
3 22 23 47
3 22 47 24
3 48 47 23
3 48 23 49
3 49 23 26
3 47 48 50
3 47 50 24
3 24 50 27
3 30 52 51
3 29 30 51
3 51 26 29
3 49 26 51
3 50 53 27
3 53 32 27
3 52 30 33
3 54 52 33
3 54 33 55
3 33 34 55
3 55 34 32
3 53 55 32
3 37 57 56
3 36 37 56
3 56 58 36
3 36 58 38
3 38 58 59
3 39 38 59
3 60 61 57
3 60 57 40
3 40 57 37
3 61 60 62
3 59 63 39
3 63 41 39
3 60 40 42
3 42 62 60
3 42 43 62
3 43 64 62
3 63 65 41
3 65 44 41
3 64 43 46
3 66 64 46
3 66 46 44
3 65 66 44
3 49 68 67
3 48 49 67
3 48 67 69
3 50 48 69
3 51 52 70
3 70 49 51
3 70 71 49
3 71 68 49
3 69 72 50
3 72 53 50
3 70 52 54
3 71 70 54
3 71 54 73
3 73 54 55
3 73 55 53
3 72 73 53
3 57 75 74
3 56 57 74
3 74 76 56
3 56 76 58
3 58 76 77
3 59 58 77
3 75 57 61
3 78 75 61
3 61 79 78
3 62 79 61
3 77 80 59
3 80 63 59
3 81 82 79
3 81 79 64
3 64 79 62
3 82 81 65
3 82 65 80
3 80 65 63
3 81 64 66
3 81 66 65
3 67 68 83
3 67 83 69
3 84 83 68
3 84 68 85
3 85 68 71
3 83 84 86
3 83 86 69
3 69 86 72
3 85 71 73
3 87 85 73
3 87 73 72
3 86 87 72
3 75 89 88
3 74 75 88
3 88 90 74
3 74 90 76
3 76 90 91
3 77 76 91
3 89 75 78
3 92 89 78
3 78 93 92
3 79 93 78
3 91 94 77
3 94 80 77
3 93 79 82
3 95 93 82
3 95 82 80
3 94 95 80
3 85 97 96
3 84 85 96
3 84 96 98
3 86 84 98
3 97 85 87
3 99 97 87
3 99 87 86
3 98 99 86
3 89 101 100
3 88 89 100
3 100 102 88
3 88 102 90
3 90 102 103
3 91 90 103
3 101 89 92
3 104 101 92
3 92 105 104
3 93 105 92
3 103 106 91
3 106 94 91
3 105 93 95
3 107 105 95
3 107 95 94
3 106 107 94
3 97 109 108
3 96 97 108
3 96 108 110
3 98 96 110
3 109 97 99
3 111 109 99
3 111 99 98
3 110 111 98
3 101 113 112
3 100 101 112
3 112 114 100
3 100 114 102
3 102 114 115
3 103 102 115
3 113 101 104
3 116 113 104
3 104 117 116
3 105 117 104
3 115 118 103
3 118 106 103
3 117 105 107
3 119 117 107
3 119 107 106
3 118 119 106
3 109 121 120
3 108 109 120
3 108 120 122
3 110 108 122
3 121 109 111
3 123 121 111
3 123 111 110
3 122 123 110
3 112 113 124
3 124 126 125
3 124 125 112
3 112 125 114
3 114 125 127
3 115 114 127
3 124 113 116
3 116 126 124
3 116 117 126
3 117 128 126
3 127 129 115
3 129 118 115
3 128 117 119
3 130 128 119
3 130 119 118
3 129 130 118
3 121 132 131
3 120 121 131
3 120 131 133
3 122 120 133
3 132 121 123
3 134 132 123
3 134 123 122
3 133 134 122
3 137 136 135
3 126 135 136
3 126 136 125
3 125 136 138
3 125 138 139
3 127 125 139
3 137 135 140
3 135 141 140
3 135 126 141
3 126 128 141
3 139 142 127
3 142 129 127
3 141 128 130
3 143 141 130
3 143 130 129
3 142 143 129
3 132 145 144
3 131 132 144
3 131 144 146
3 133 131 146
3 145 132 134
3 147 145 134
3 147 134 133
3 146 147 133
3 137 149 148
3 136 137 148
3 148 150 136
3 136 150 138
3 138 150 151
3 139 138 151
3 149 137 140
3 152 149 140
3 140 153 152
3 141 153 140
3 151 154 139
3 154 142 139
3 153 141 143
3 155 153 143
3 155 143 142
3 154 155 142
3 145 157 156
3 144 145 156
3 144 156 158
3 146 144 158
3 157 145 147
3 159 157 147
3 159 147 146
3 158 159 146
3 149 161 160
3 148 149 160
3 160 162 148
3 148 162 150
3 150 162 163
3 151 150 163
3 161 149 152
3 164 161 152
3 152 165 164
3 153 165 152
3 163 166 151
3 166 154 151
3 165 153 155
3 167 165 155
3 167 155 154
3 166 167 154
3 157 169 168
3 156 157 168
3 156 168 170
3 158 156 170
3 169 157 159
3 171 169 159
3 171 159 158
3 170 171 158
3 161 173 172
3 160 161 172
3 172 174 160
3 160 174 162
3 162 174 175
3 163 162 175
3 173 161 164
3 176 173 164
3 164 177 176
3 165 177 164
3 175 178 163
3 178 166 163
3 177 165 167
3 179 177 167
3 179 167 166
3 178 179 166
3 169 181 180
3 168 169 180
3 168 180 182
3 170 168 182
3 181 169 171
3 183 181 171
3 183 171 170
3 182 183 170
3 173 185 184
3 172 173 184
3 184 186 172
3 172 186 174
3 174 186 187
3 175 174 187
3 185 173 176
3 188 185 176
3 176 189 188
3 177 189 176
3 187 190 175
3 190 178 175
3 179 191 192
3 179 192 177
3 177 192 189
3 191 179 178
3 191 178 193
3 193 178 190
3 192 191 194
3 191 193 194
3 197 196 195
3 196 198 195
3 195 180 181
3 195 181 197
3 197 181 199
3 180 195 198
3 180 198 182
3 182 198 200
3 199 181 183
3 201 199 183
3 201 183 182
3 200 201 182
3 204 203 202
3 185 202 203
3 185 203 184
3 184 203 205
3 205 206 184
3 184 206 186
3 186 206 207
3 187 186 207
3 204 202 208
3 210 188 209
3 208 188 210
3 208 185 188
3 208 202 185
3 188 189 209
3 207 211 187
3 211 190 187
3 210 209 212
3 209 213 212
3 209 189 213
3 189 192 213
3 211 214 190
3 214 193 190
3 213 192 194
3 215 213 194
3 215 194 193
3 214 215 193
3 197 217 216
3 196 197 216
3 196 216 218
3 198 196 218
3 221 220 219
3 220 199 219
3 220 217 199
3 217 197 199
3 218 222 198
3 222 200 198
3 221 219 223
3 219 199 201
3 219 201 223
3 223 201 224
3 224 201 200
3 222 224 200
3 204 226 225
3 203 204 225
3 225 227 203
3 203 227 205
3 227 228 205
3 205 228 206
3 206 228 229
3 207 206 229
3 226 204 208
3 230 226 208
3 208 231 230
3 210 231 208
3 229 232 207
3 232 211 207
3 231 210 212
3 233 231 212
3 212 234 233
3 213 234 212
3 232 235 211
3 235 214 211
3 215 236 237
3 215 237 213
3 213 237 234
3 236 215 214
3 236 214 238
3 238 214 235
3 237 236 239
3 236 238 239
3 242 241 240
3 241 243 240
3 240 216 217
3 240 217 242
3 242 217 244
3 216 240 243
3 216 243 218
3 218 243 245
3 221 247 246
3 220 221 246
3 246 217 220
3 244 217 246
3 245 248 218
3 248 222 218
3 247 221 223
3 249 247 223
3 249 223 250
3 223 224 250
3 250 224 222
3 248 250 222
3 253 252 251
3 226 251 252
3 226 252 225
3 225 252 254
3 254 255 225
3 225 255 227
3 255 256 227
3 227 256 228
3 228 256 257
3 229 228 257
3 253 251 258
3 260 230 259
3 258 230 260
3 258 226 230
3 258 251 226
3 230 231 259
3 257 261 229
3 261 232 229
3 260 259 262
3 264 233 263
3 262 233 264
3 262 231 233
3 262 259 231
3 233 234 263
3 261 265 232
3 265 235 232
3 264 263 266
3 263 267 266
3 263 234 267
3 234 237 267
3 265 268 235
3 268 238 235
3 239 269 270
3 239 270 237
3 237 270 267
3 269 239 238
3 269 238 271
3 271 238 268
3 270 269 272
3 269 271 272
3 275 274 273
3 274 276 273
3 273 241 242
3 273 242 275
3 275 242 277
3 241 273 276
3 241 276 243
3 243 276 278
3 281 280 279
3 280 244 279
3 280 277 244
3 277 242 244
3 278 282 243
3 282 245 243
3 285 284 283
3 279 246 247
3 281 279 247
3 281 247 283
3 281 283 284
3 279 244 246
3 282 286 245
3 286 248 245
3 285 283 287
3 283 247 249
3 283 249 287
3 287 249 288
3 288 249 289
3 249 250 289
3 289 250 248
3 286 289 248
3 253 291 290
3 252 253 290
3 290 292 252
3 252 292 254
3 292 293 254
3 254 293 255
3 293 294 255
3 255 294 256
3 256 294 295
3 257 256 295
3 291 253 258
3 296 291 258
3 258 297 296
3 260 297 258
3 295 298 257
3 298 261 257
3 297 260 262
3 299 297 262
3 262 300 299
3 264 300 262
3 298 301 261
3 301 265 261
3 266 302 303
3 266 303 264
3 264 303 300
3 266 267 302
3 301 304 265
3 304 268 265
3 303 302 305
3 302 306 305
3 302 267 306
3 267 270 306
3 304 307 268
3 307 271 268
3 272 308 309
3 272 309 270
3 270 309 306
3 308 272 271
3 308 271 310
3 310 271 307
3 309 308 311
3 308 310 311
3 314 313 312
3 313 315 312
3 312 274 275
3 312 275 314
3 314 275 316
3 274 312 315
3 274 315 276
3 276 315 317
3 320 319 318
3 319 277 318
3 319 316 277
3 316 275 277
3 317 321 276
3 321 278 276
3 318 280 281
3 318 281 320
3 320 281 322
3 318 277 280
3 321 323 278
3 323 282 278
3 285 325 324
3 284 285 324
3 324 281 284
3 322 281 324
3 323 326 282
3 326 286 282
3 325 285 287
3 327 325 287
3 327 287 328
3 287 288 328
3 328 288 329
3 288 289 329
3 329 289 286
3 326 329 286
3 332 331 330
3 291 330 331
3 291 331 290
3 290 331 333
3 333 334 290
3 290 334 292
3 334 335 292
3 292 335 293
3 335 336 293
3 293 336 294
3 294 336 337
3 295 294 337
3 332 330 338
3 340 296 339
3 338 296 340
3 338 291 296
3 338 330 291
3 296 297 339
3 337 341 295
3 341 298 295
3 340 339 342
3 344 299 343
3 342 299 344
3 342 297 299
3 342 339 297
3 299 300 343
3 341 345 298
3 345 301 298
3 344 343 346
3 343 347 346
3 343 300 347
3 300 303 347
3 345 348 301
3 348 304 301
3 305 349 350
3 305 350 303
3 303 350 347
3 305 306 349
3 348 351 304
3 351 307 304
3 350 349 352
3 349 353 352
3 349 306 353
3 306 309 353
3 351 354 307
3 354 310 307
3 311 355 356
3 311 356 309
3 309 356 353
3 355 311 310
3 355 310 357
3 357 310 354
3 359 356 355
3 358 359 355
3 357 360 358
3 355 357 358
3 359 358 361
3 358 360 361
3 364 363 362
3 363 365 362
3 362 313 314
3 362 314 364
3 364 314 366
3 313 362 365
3 313 365 315
3 315 365 367
3 370 369 368
3 369 316 368
3 369 366 316
3 366 314 316
3 367 371 315
3 371 317 315
3 368 319 320
3 368 320 370
3 370 320 372
3 368 316 319
3 371 373 317
3 373 321 317
3 376 375 374
3 375 322 374
3 375 372 322
3 372 320 322
3 373 377 321
3 377 323 321
3 380 379 378
3 374 324 325
3 376 374 325
3 376 325 378
3 376 378 379
3 374 322 324
3 377 381 323
3 381 326 323
3 380 378 382
3 378 325 327
3 378 327 382
3 382 327 383
3 383 327 384
3 327 328 384
3 384 328 385
3 328 329 385
3 385 329 326
3 381 385 326
3 331 332 386
3 333 331 386
3 387 333 386
3 334 333 387
3 388 334 387
3 335 334 388
3 389 335 388
3 336 335 389
3 390 336 389
3 336 390 337
3 386 332 338
3 338 340 391
3 338 391 386
3 386 391 387
3 387 391 388
3 388 391 392
3 388 392 389
3 389 392 393
3 389 393 390
3 390 393 394
3 390 394 341
3 337 390 341
3 391 340 342
3 342 344 395
3 342 395 391
3 391 395 392
3 392 395 393
3 393 395 396
3 393 396 394
3 394 396 397
3 394 397 345
3 341 394 345
3 395 344 346
3 346 347 398
3 346 398 395
3 395 398 396
3 396 398 397
3 397 398 399
3 397 399 348
3 345 397 348
3 400 398 347
3 350 400 347
3 398 400 399
3 399 400 401
3 399 401 351
3 348 399 351
3 400 350 352
3 352 353 402
3 352 402 400
3 400 402 401
3 401 402 354
3 351 401 354
3 403 402 353
3 356 403 353
3 402 403 357
3 354 402 357
3 404 403 356
3 359 404 356
3 403 404 360
3 357 403 360
3 404 359 361
3 404 361 360
3 363 364 405
3 363 405 365
3 406 405 364
3 366 406 364
3 405 406 367
3 365 405 367
3 369 370 407
3 366 369 407
3 366 407 406
3 406 407 408
3 406 408 371
3 367 406 371
3 409 407 370
3 372 409 370
3 407 409 408
3 408 409 410
3 408 410 373
3 371 408 373
3 375 376 411
3 372 375 411
3 372 411 409
3 409 411 412
3 409 412 410
3 410 412 413
3 410 413 377
3 373 410 377
3 379 380 414
3 376 379 414
3 376 414 411
3 411 414 415
3 411 415 412
3 412 415 416
3 412 416 413
3 413 416 417
3 413 417 381
3 377 413 381
3 414 380 382
3 415 414 382
3 383 415 382
3 416 415 383
3 384 416 383
3 417 416 384
3 385 417 384
3 417 385 381
