ply
format ascii 1.0
element vertex 656
property float x
property float y
property float z
property uchar red
property uchar green
property uchar blue
element face 1308
property list uchar int vertex_indices
end_header
-8.07562923431396484 8 -3 210 223 254
-8 7.59810495376586914 -3 141 150 144
-8 8 -3.23266077041625977 223 251 253
-8.28482151031494141 8 -2 209 232 251
-8 7.23050308227539062 -2 106 113 110
-8.40615749359130859 8 -1 202 230 243
-8 7.19634485244750977 -1 78 84 82
-8.42133903503417969 8 0 193 226 236
-8 7.23430252075195312 0 59 65 62
-8.32788944244384766 8 1 184 222 232
-8 7.32758092880249023 1 50 56 52
-8.14358425140380859 8 2 177 220 232
-8 7.57899332046508789 2 50 58 52
-8 8 2.52335047721862793 161 194 181
-8 8.70579338073730469 -3 218 243 241
-8 8.88555717468261719 -2 205 226 224
-8 8.90853977203369141 -1 189 210 207
-8 8.90905189514160156 0 175 198 193
-8 8.89108467102050781 1 165 192 185
-8 8.80138206481933594 2 161 194 181
-7.16154193878173828 7 -4 178 190 180
-7 6.93158769607543945 -4 0 0 0
-7 7 -4.52583789825439453 181 188 181
-7.23366308212280273 7 -3 141 150 144
-7 6.95699501037597656 -3 51 53 53
-7 7 -2.30924415588378906 89 93 92
-7.10252666473388672 8 -5 213 236 251
-7 7.31685400009155273 -5 181 188 181
-7 8 -5.15262603759765625 218 250 249
-7.62183570861816406 8 -4 223 251 253
-7 7.02465105056762695 -2 50 53 53
-7 7.09511756896972656 -1 21 22 23
-7 7.13794088363647461 0 3 3 3
-7 7.15573692321777344 1 4 4 4
-7 7.16066932678222656 2 1 1 1
-7.77946996688842773 8 3 159 203 183
-7 7.19315433502197266 3 11 12 11
-7.25882053375244141 8 4 159 217 193
-7 7.43780422210693359 4 33 38 31
-7 8 4.43612909317016602 142 180 145
-7 8.74483585357666016 -5 231 253 245
-7 8.92862319946289062 -4 223 238 233
-7 8.94626522064208984 -3 203 215 212
-7 8.95069599151611328 -2 179 190 188
-7 8.95129013061523438 -1 157 169 168
-7 8.95025730133056641 0 141 154 152
-7 8.94790267944335938 1 132 147 143
-7 8.94277477264404297 2 130 150 141
-7 8.9285125732421875 3 134 161 142
-7 8.85542201995849609 4 142 180 145
-6.13805627822875977 7 -6 218 230 215
-6 6.89763212203979492 -6 79 80 78
-6 7 -6.15383434295654297 233 240 225
-6.7626495361328125 7 -5 181 188 181
-6 6.81327533721923828 -5 7 7 7
-6 6.89878368377685547 -4 53 54 54
-6.24537801742553711 7 -3 89 93 92
-6 7 -3.11506199836730957 89 91 90
-6.29528665542602539 8 -6 218 250 249
-6 8 -6.30123615264892578 212 244 232
-6 7.01518821716308594 -3 40 41 41
-6 7.12940597534179688 -2 1 1 1
-6 7.20371627807617188 -1 26 26 28
-6 7.24172735214233398 0 42 43 46
-6 7.24605607986450195 1 48 50 53
-6 7.21928834915161133 2 43 48 49
-6 7.16858386993408203 3 29 34 33
-6 7.12215614318847656 4 6 8 6
-6.55608892440795898 8 5 149 205 150
-6 7.22081947326660156 5 27 29 23
-6 8 5.62445259094238281 150 174 134
-6 8.87164306640625 -6 235 254 241
-6 8.9468841552734375 -5 230 241 234
-6 8.95668220520019531 -4 207 214 211
-6 8.95824909210205078 -3 176 182 181
-6 8.957244873046875 -2 145 151 151
-6 8.95552539825439453 -1 120 125 127
-6 8.95407772064208984 0 103 109 111
-6 8.95328235626220703 1 95 104 104
-6 8.95273113250732422 2 96 108 105
-6 8.95087146759033203 3 104 122 111
-6 8.94332790374755859 4 120 145 118
-6 8.90550708770751953 5 150 174 134
-5.1894993782043457 7 -7 233 240 225
-5 6.84895467758178711 -7 115 115 114
-5 7 -7.13515758514404297 249 252 231
-5 6.70412492752075195 -6 35 36 35
-5 6.8176884651184082 -5 35 36 36
-5 6.97100925445556641 -4 93 94 95
-5 7 -3.80220985412597656 49 50 50
-5.230133056640625 8 -7 212 244 232
-5 8 -7.16020488739013672 190 225 208
-5 7.12358808517456055 -3 0 0 0
-5 7.23175954818725586 -2 37 37 39
-5 7.30004596710205078 -1 64 63 67
-5 7.33418178558349609 0 79 77 83
-5 7.3360896110534668 1 81 81 89
-5 7.30505752563476562 2 75 77 84
-5 7.2400822639465332 3 59 67 69
-5 7.14531707763671875 4 35 42 38
-5 7.05067205429077148 5 3 4 3
-5.61388111114501953 8 6 176 207 146
-5 7.15162467956542969 6 45 43 35
-5 8 6.45458650588989258 182 186 137
-5 8.82483005523681641 -7 231 253 231
-5 8.95046806335449219 -6 238 249 238
-5 8.96069717407226562 -5 218 223 219
-5 8.96165847778320312 -4 184 188 187
-5 8.95958900451660156 -3 146 150 150
-5 8.95636749267578125 -2 112 115 117
-5 8.95326519012451172 -1 86 88 91
-5 8.95133399963378906 0 70 72 75
-5 8.95114421844482422 1 63 66 69
-5 8.95245170593261719 2 66 73 74
-5 8.95410442352294922 3 77 89 85
-5 8.95400810241699219 4 95 114 96
-5 8.94735050201416016 5 134 148 117
-5 8.90160083770751953 6 182 186 137
-4 6.59272050857543945 -7 84 84 83
-4 7 -7.81879329681396484 244 241 230
-4 6.68902301788330078 -6 3 3 3
-4 6.86628150939941406 -5 66 67 67
-4.61440658569335938 7 -4 49 50 50
-4 7 -4.25856256484985352 77 78 78
-4.39355325698852539 7 6 45 43 35
-4 6.95774555206298828 6 115 120 93
-4 7 5.54859447479248047 22 26 21
-4 7 6.30584716796875 24 23 19
-4 8 -7.75635433197021484 216 240 211
-4 7.04897785186767578 -4 18 19 19
-4 7.19374942779541016 -3 28 28 29
-4 7.29007244110107422 -2 65 64 67
-4 7.35039997100830078 -1 90 87 93
-4 7.38166570663452148 0 104 100 108
-4 7.38533973693847656 1 106 102 113
-4 7.35839128494262695 2 95 95 107
-4 7.29571342468261719 3 79 86 92
-4 7.1933283805847168 4 54 65 61
-4 7.05592823028564453 5 22 26 21
-4.23981142044067383 8 7 216 222 147
-4 7.41019725799560547 7 85 63 62
-4 8 7.11791324615478516 211 181 145
-4 8.94340705871582031 -7 246 254 239
-4 8.96204376220703125 -6 234 239 232
-4 8.96432590484619141 -5 202 206 203
-4 8.96232700347900391 -4 162 165 165
-4 8.95832538604736328 -3 121 124 125
-4 8.95361900329589844 -2 87 88 90
-4 8.94949722290039062 -1 61 61 65
-4 8.94714164733886719 0 45 46 49
-4 8.94726276397705078 1 40 41 44
-4 8.94972133636474609 2 44 48 50
-4 8.95338058471679688 3 57 67 65
-4 8.95638370513916016 4 78 93 80
-4 8.95614147186279297 5 119 129 104
-4 8.94528007507324219 6 170 162 128
-4 8.77618598937988281 7 211 181 145
-3.75582242012023926 7 -8 244 241 230
-3 6.60066080093383789 -8 146 143 142
-3 7 -8.26449775695800781 254 239 227
-3 6.52174091339111328 -7 61 62 61
-3 6.69937753677368164 -6 18 18 18
-3 6.90143156051635742 -5 84 86 87
-3 7 -4.46878576278686523 57 58 58
-3 6.91753244400024414 6 120 128 99
-3 7 5.43772220611572266 30 36 29
-3.44072532653808594 7 7 85 63 62
-3 6.90974903106689453 7 70 52 52
-3 7 7.17583656311035156 77 60 56
-3.56299638748168945 8 -8 216 240 211
-3 8 -8.19797992706298828 167 202 164
-3 7.08772993087768555 -4 0 0 0
-3 7.21701478958129883 -3 46 46 47
-3 7.29971551895141602 -2 81 79 83
-3 7.35088348388671875 -1 105 101 108
-3 7.37959909439086914 0 117 112 121
-3 7.38738012313842773 1 117 113 125
-3 7.36861085891723633 2 105 104 119
-3 7.31428384780883789 3 88 95 103
-3 7.21581506729125977 4 62 75 72
-3 7.06830072402954102 5 30 36 29
-3 8 7.50585508346557617 206 153 144
-3 8.87370777130126953 -8 240 247 222
-3 8.95894432067871094 -7 250 253 241
-3 8.96601200103759766 -6 227 231 225
-3 8.96555328369140625 -5 189 193 191
-3 8.96208953857421875 -4 146 150 150
-3 8.95702648162841797 -3 105 107 109
-3 8.95159149169921875 -2 71 71 74
-3 8.94707775115966797 -1 46 46 49
-3 8.94458580017089844 0 31 31 34
-3 8.94480133056640625 1 27 28 30
-3 8.94773674011230469 2 33 35 37
-3 8.95241260528564453 3 47 55 54
-3 8.95702075958251953 4 69 83 71
-3 8.95940971374511719 5 112 120 97
-3 8.95596885681152344 6 163 147 124
-3 8.9240264892578125 7 206 153 144
-2 6.39603233337402344 -8 136 132 132
-2 7 -8.57932186126708984 254 230 229
-2 6.48223066329956055 -7 51 51 50
-2 6.69296026229858398 -6 27 28 28
-2 6.90299129486083984 -5 92 94 95
-2 7 -4.4649205207824707 48 50 49
-2 6.88178157806396484 6 121 126 96
-2 7 5.29923677444458008 29 34 27
-2 6.79571866989135742 7 67 52 49
-2 7 7.58778619766235352 80 68 58
-2 8 -8.45844936370849609 197 209 173
-2 7.08301734924316406 -4 7 7 7
-2 7.19818019866943359 -3 51 51 54
-2 7.26736688613891602 -2 85 84 89
-2 7.30893468856811523 -1 107 104 112
-2 7.33509492874145508 0 118 114 124
-2 7.34785556793212891 1 117 114 127
-2 7.33873271942138672 2 105 106 120
-2 7.29446172714233398 3 87 97 103
-2 7.20258855819702148 4 61 75 70
-2 7.05313682556152344 5 29 34 27
-2 8 7.84645652770996094 208 162 147
-2 8.93416404724121094 -8 249 245 226
-2 8.96446704864501953 -7 251 250 239
-2 8.96794700622558594 -6 223 227 220
-2 8.96634960174560547 -5 182 187 183
-2 8.96230411529541016 -4 139 143 143
-2 8.95699596405029297 -3 98 101 103
-2 8.9516448974609375 -2 65 66 69
-2 8.94741058349609375 -1 41 41 44
-2 8.94512653350830078 0 28 28 31
-2 8.94532012939453125 1 25 26 28
-2 8.94813728332519531 2 31 34 36
-2 8.95290088653564453 3 47 55 53
-2 8.95799541473388672 4 69 84 70
-2 8.96142864227294922 5 117 122 97
-2 8.96064090728759766 6 165 139 126
-2 8.94540309906005859 7 208 162 147
-1 6.27602195739746094 -8 135 131 130
-1 7 -8.82631587982177734 254 240 228
-1 6.43054103851318359 -7 52 52 50
-1 6.65557146072387695 -6 25 26 26
-1 6.86495685577392578 -5 89 93 93
-1 7 -4.23425912857055664 50 52 51
-1 6.82472467422485352 6 113 109 86
-1 7 5.00284290313720703 19 21 16
-1 6.70460987091064453 7 52 45 38
-1.04080283641815186 7 8 137 147 99
-1 6.99006080627441406 8 17 22 15
-1 7 8.12182331085205078 128 159 107
-1 8 -8.62692928314208984 210 204 174
-1 7.04046058654785156 -4 3 4 4
-1 7.14667177200317383 -3 46 47 49
-1 7.20593500137329102 -2 77 77 83
-1 7.23991918563842773 -1 98 97 105
-1 7.26380252838134766 0 107 106 117
-1 7.28021144866943359 1 105 107 118
-1 7.27834701538085938 2 96 102 110
-1 7.24132776260375977 3 77 91 92
-1 7.15331840515136719 4 51 62 55
-1 7.00052690505981445 5 19 21 16
-1.32024824619293213 8 8 242 180 151
-1 8 8.59674835205078125 246 226 153
-1 8.94750118255615234 -8 249 235 225
-1 8.96706390380859375 -7 251 246 238
-1 8.96929359436035156 -6 226 227 219
-1 8.96741962432861328 -5 183 189 182
-1 8.96346950531005859 -4 140 146 144
-1 8.95855331420898438 -3 101 106 107
-1 8.95381355285644531 -2 70 72 75
-1 8.95020675659179688 -1 47 49 52
-1 8.94831657409667969 0 35 36 39
-1 8.94850635528564453 1 33 35 37
-1 8.95095539093017578 2 40 46 46
-1 8.95522117614746094 3 56 66 61
-1 8.95997428894042969 4 83 95 78
-1 8.96343517303466797 5 133 129 106
-1 8.96345424652099609 6 176 133 133
-1 8.95305728912353516 7 216 194 152
-1 8.59674835205078125 8 246 226 153
0 6.16717147827148438 -8 145 142 138
0 7 -8.92570304870605469 254 250 225
0 6.35064411163330078 -7 64 63 61
0 6.58276891708374023 -6 12 13 12
0 6.78856039047241211 -5 75 79 77
-0.467599958181381226 7 -4 3 4 4
0 6.95929574966430664 -4 123 129 130
0 7 -3.65910005569458008 10 11 11
-0.994360387325286865 7 5 19 21 16
0 6.91233253479003906 5 123 137 106
0 7 4.43649530410766602 32 38 31
0 6.73737335205078125 6 89 74 66
0 6.60661172866821289 7 25 25 18
0 6.86290407180786133 8 34 50 37
0 7 8.64728450775146484 119 180 122
0 8 -8.67199993133544922 204 183 166
0 7.07056808471679688 -3 31 32 33
0 7.1276850700378418 -2 61 63 66
0 7.15916967391967773 -1 80 82 87
0 7.18165016174316406 0 88 92 98
0 7.19813823699951172 1 87 94 99
0 7.19708824157714844 2 77 88 90
0 7.15992641448974609 3 58 70 65
0 7.06827831268310547 4 32 38 31
0 8 8.72287082672119141 231 252 154
0 8.9507598876953125 -8 247 220 220
0 8.96833705902099609 -7 253 239 236
0 8.97047138214111328 -6 233 230 221
0 8.96889591217041016 -5 194 198 189
0 8.96551036834716797 -4 150 159 151
0 8.96134853363037109 -3 114 122 119
0 8.95741081237792969 -2 84 91 91
0 8.95448112487792969 -1 64 69 70
0 8.95300674438476562 0 52 58 59
0 8.95325088500976562 1 51 58 58
0 8.95532894134521484 2 58 68 64
0 8.95887660980224609 3 74 88 74
0 8.96281909942626953 4 112 118 95
0 8.96565628051757812 5 154 133 121
0 8.96545791625976562 6 194 168 144
0 8.95594978332519531 7 222 229 158
0 8.72287082672119141 8 231 252 154
1 6.04713201522827148 -8 163 164 153
1 7 -8.84363746643066406 245 253 218
1 6.2347722053527832 -7 87 82 82
1 6.47287845611572266 -6 12 12 11
1 6.67702198028564453 -5 50 53 50
1 6.84033775329589844 -4 98 106 102
0.699344098567962646 7 -3 31 32 33
1 6.96273708343505859 -3 133 144 143
1 7 -2.52655339241027832 4 4 4
0.550358057022094727 7 4 32 38 31
1 6.94103717803955078 4 123 143 113
1 7 3.46376729011535645 29 35 29
1 6.78779268264770508 5 104 99 80
1 6.61744403839111328 6 52 43 38
1 6.49307727813720703 7 11 13 9
1 6.85368776321411133 8 59 89 83
1 7 8.62410831451416016 132 206 173
1 8 -8.58382797241210938 190 155 149
1 7.03469944000244141 -2 34 37 37
1 7.07027292251586914 -1 52 58 58
1 7.09260272979736328 0 60 68 68
1 7.10481166839599609 1 59 68 66
1 7.09630393981933594 2 48 57 52
1 7.04886388778686523 3 29 35 29
1 8 8.10147476196289062 193 254 151
1 8.94736766815185547 -8 240 222 208
1 8.96856307983398438 -7 254 240 232
1 8.97146511077880859 -6 242 229 226
1 8.97059059143066406 -5 214 212 200
1 8.96805095672607422 -4 173 179 167
1 8.96481227874755859 -3 134 146 135
1 8.96171379089355469 -2 107 118 112
1 8.95941829681396484 -1 88 98 94
1 8.95831966400146484 0 78 89 84
1 8.95862197875976562 1 77 89 81
1 8.96034049987792969 2 86 100 84
1 8.96310043334960938 3 113 120 99
1 8.96601676940917969 4 148 136 119
1 8.96785449981689453 5 182 151 140
1 8.96673965454101562 6 212 216 158
1 8.95539665222167969 7 196 244 164
1 8.10147476196289062 8 193 254 151
1.42508840560913086 6 -8 163 164 153
2 5.95075750350952148 -8 73 77 71
2 6 -8.10845851898193359 210 240 222
2 6 -7.62357902526855469 176 190 173
2 7 -8.61984634399414062 222 247 204
2 6.07711219787597656 -7 121 119 111
2 6.32251977920532227 -6 49 46 45
2 6.53072071075439453 -5 15 15 14
2 6.69302797317504883 -4 64 69 62
2 6.81269216537475586 -3 98 109 100
1.28436410427093506 7 -2 34 37 37
2 6.894805908203125 -2 123 137 128
1.62765872478485107 7 -1 52 58 58
2 6.94738483428955078 -1 137 154 144
1.83988368511199951 7 0 60 68 68
2 6.97744083404541016 0 141 161 149
1.88974666595458984 7 1 59 68 66
2 6.98378324508666992 1 137 160 142
1.7262420654296875 7 2 48 57 52
2 6.95707082748413086 2 126 150 125
1.32392466068267822 7 3 29 35 29
2 6.8885951042175293 3 117 131 105
2 6.77708244323730469 4 100 97 78
2 6.62927722930908203 5 58 44 43
2 6.46460390090942383 6 2 2 1
2 6.37035751342773438 7 44 64 52
1.56476962566375732 7 8 132 206 173
2 7 7.8999629020690918 129 190 163
2 8 -8.38221549987792969 165 126 123
1.01606428623199463 8 8 193 254 151
2 8 7.72980594635009766 164 253 171
2 8.93030643463134766 -8 226 218 188
2 8.96721935272216797 -7 252 249 223
2 8.97199153900146484 -6 251 240 229
2 8.97215175628662109 -5 232 215 213
2 8.97061061859130859 -4 205 200 187
2 8.96836185455322266 -3 173 177 160
2 8.96611213684082031 -2 144 153 137
2 8.96442222595214844 -1 124 136 120
2 8.96364879608154297 0 116 128 111
2 8.96394634246826172 1 120 129 110
2 8.96524906158447266 2 139 140 116
2 8.96717166900634766 3 159 144 129
2 8.96897792816162109 4 185 154 145
2 8.96959114074707031 5 211 213 160
2 8.9668426513671875 6 189 238 169
2 8.94919681549072266 7 164 253 171
3 5.93693637847900391 -8 108 121 115
3 6 -8.06935977935791016 210 251 246
2.42597174644470215 6 -7 121 119 111
3 5.90580034255981445 -7 37 39 35
3 6 -6.57197141647338867 149 161 145
3 7 -8.31654644012451172 189 232 181
3 6.12367153167724609 -6 96 94 86
3 6.34374237060546875 -5 34 31 30
3 6.51308107376098633 -4 18 18 16
3 6.63674831390380859 -3 58 60 53
3 6.72171926498413086 -2 83 89 78
3 6.77491378784179688 -1 98 107 92
3 6.80124282836914062 0 105 115 97
3 6.80027437210083008 1 105 113 93
3 6.76654767990112305 2 99 100 81
3 6.69436025619506836 3 78 70 61
3 6.58211708068847656 4 43 34 33
3 6.4350128173828125 5 2 2 1
3 6.28015232086181641 6 41 59 46
3 6.28143215179443359 7 82 108 122
3 7 7.53445720672607422 148 206 225
3 8 -8.09224987030029297 127 93 88
3 8 7.37242412567138672 154 252 200
3 8.78752899169921875 -8 200 201 158
3 8.9621429443359375 -7 229 242 205
3 8.97143363952636719 -6 248 254 224
3 8.97312641143798828 -5 248 242 222
3 8.97269821166992188 -4 231 213 206
3 8.97144603729248047 -3 210 192 187
3 8.97002887725830078 -2 191 181 168
3 8.96891593933105469 -1 178 171 154
3 8.96840858459472656 0 172 163 146
3 8.96861743927001953 1 174 158 145
3 8.96943378448486328 2 184 151 150
3 8.97049140930175781 3 200 180 159
3 8.97114467620849609 4 210 220 168
3 8.97025489807128906 5 184 240 175
3 8.96440601348876953 6 172 253 200
3 8.92226314544677734 7 154 252 200
3.27769756317138672 6 -8 192 218 207
4 5.77734851837158203 -7 85 97 91
4 6 -7.61810207366943359 204 232 242
3.52583932876586914 6 -6 96 94 86
4 5.89176845550537109 -6 23 24 21
4 6 -5.48255634307861328 133 149 131
3.87108373641967773 7 -8 216 254 222
4 7 -7.92586660385131836 196 245 223
4 6.10159873962402344 -5 93 94 82
4 6.28748130798339844 -4 44 40 38
4 6.42225456237792969 -3 3 3 2
4 6.51411867141723633 -2 26 24 22
4 6.57007408142089844 -1 44 41 37
4 6.59426689147949219 0 52 47 42
4 6.58702850341796875 1 48 42 39
4 6.54547643661499023 2 34 27 26
4 6.46600770950317383 3 8 8 6
4 6.34751081466674805 4 24 27 20
4 6.19901800155639648 5 53 73 60
4 6.08040285110473633 6 87 112 127
4 6.50061655044555664 7 135 117 182
4 7 7.14201259613037109 154 168 250
3.21904277801513672 8 -8 200 201 158
4 8 -7.55037832260131836 155 159 115
3.87684202194213867 8 7 154 252 200
4 7.69491672515869141 7 154 168 250
4 8 6.92567729949951172 160 251 239
4 8.94178009033203125 -7 185 216 171
4 8.96810817718505859 -6 213 246 206
4 8.97281932830810547 -5 232 254 219
4 8.97379970550537109 -4 241 250 217
4 8.97356033325195312 -3 239 236 207
4 8.97292709350585938 -2 228 216 195
4 8.97233390808105469 -1 219 202 185
4 8.97202968597412109 0 215 199 179
4 8.97208404541015625 1 217 207 177
4 8.97237396240234375 2 218 224 178
4 8.97254371643066406 3 201 235 181
4 8.97188854217529297 4 182 247 193
4 8.96861553192138672 5 177 254 226
4 8.95403194427490234 6 160 251 239
5 5.84302711486816406 -7 135 141 159
5 6 -7.13802289962768555 200 211 254
5 5.70134067535400391 -6 81 95 93
4.37026834487915039 6 -5 93 94 82
5 5.8276371955871582 -5 29 35 29
4.97687482833862305 6 -4 44 40 38
5 5.99293088912963867 -4 15 16 13
5 6 -3.95380306243896484 101 115 97
4.78132724761962891 6 5 53 73 60
5 5.94451045989990234 5 15 20 22
5 6 4.49795627593994141 77 107 101
4.96148490905761719 6 6 87 112 127
5 5.99695301055908203 6 63 53 80
5 6 6.00550937652587891 160 127 192
5 7 -7.24880599975585938 158 217 198
5 6.14696979522705078 -3 75 78 65
5 6.25174951553344727 -2 50 49 41
5 6.31385421752929688 -1 32 31 26
5 6.33798313140869141 0 26 25 21
5 6.32545328140258789 1 30 31 24
5 6.27493143081665039 2 41 46 35
5 6.18456363677978516 3 54 72 54
5 6.0576634407043457 4 77 107 101
4.26661109924316406 7 7 154 168 250
5 7 6.47706937789916992 177 160 252
4.89962673187255859 8 -7 185 216 171
5 7.78512859344482422 -7 197 244 249
5 8 -6.91968870162963867 133 170 123
5 8 6.20878887176513672 129 209 222
5 8.95384883880615234 -6 169 217 180
5 8.96928215026855469 -5 197 243 212
5 8.97304630279541016 -4 210 253 219
5 8.97413253784179688 -3 212 254 212
5 8.97431087493896484 -2 215 251 208
5 8.97419261932373047 -1 214 248 203
5 8.97403144836425781 0 207 246 198
5 8.97387504577636719 1 195 247 195
5 8.97356319427490234 2 192 251 209
5 8.97262096405029297 3 187 254 232
5 8.96976280212402344 4 177 252 254
5 8.95983505249023438 5 159 225 245
5 8.86702251434326172 6 129 209 222
5.19930744171142578 6 -7 198 211 238
6 5.72199249267578125 -6 145 138 168
6 6 -6.30540895462036133 214 196 254
6 5.61329221725463867 -5 96 105 117
6 5.70221138000488281 -4 57 70 68
5.45115137100219727 6 -3 75 78 65
6 5.81603479385375977 -3 25 31 27
5.74960708618164062 6 -2 50 49 41
6 5.91233587265014648 -2 3 3 3
5.93227100372314453 6 -1 32 31 26
6 5.97604513168334961 -1 10 12 10
6 6 -0.0319128446280956268 93 118 102
5.95929861068725586 6 1 30 31 24
6 5.98548507690429688 1 9 13 10
6 6 0.0515633337199687958 88 113 98
5.81481695175170898 6 2 41 46 35
6 5.93477344512939453 2 2 3 3
5.58002805709838867 6 3 54 72 54
6 5.86207771301269531 3 22 29 30
5.2280116081237793 6 4 77 107 101
6 5.80141115188598633 4 47 48 68
6 5.86186790466308594 5 108 77 114
5.00879192352294922 6 6 160 127 192
6 6 5.27720403671264648 208 142 214
5.3271327018737793 7 -7 197 244 249
6 7 -6.37783956527709961 156 201 217
6 6.0008549690246582 0 88 113 98
5.60591411590576172 7 6 177 160 252
6 7 5.6353144645690918 213 162 254
5.99940061569213867 8 -6 169 217 180
6 7.99849796295166016 -6 189 212 246
6 8 -5.99935626983642578 113 161 127
5.24782848358154297 8 6 129 209 222
6 8 5.25700950622558594 118 163 203
6 8.9505767822265625 -5 151 204 189
6 8.96702384948730469 -4 177 230 223
6 8.97155666351318359 -3 191 244 238
6 8.97317600250244141 -2 196 250 243
6 8.97369766235351562 -1 196 253 245
6 8.97365379333496094 0 194 253 249
6 8.97310256958007812 1 188 247 253
6 8.97168159484863281 2 180 230 250
6 8.96811676025390625 3 166 207 243
6 8.9571380615234375 4 146 182 229
6 8.87253284454345703 5 118 163 203
6.2795109748840332 6 -6 203 195 242
7 5.78437900543212891 -5 193 152 193
7 6 -5.19700050354003906 242 187 254
7 5.53686094284057617 -4 142 124 157
7 5.54632854461669922 -3 102 99 126
7 5.59912872314453125 -2 79 83 101
7 5.64382410049438477 -1 66 73 87
6.00265979766845703 6 0 88 113 98
7 5.66547441482543945 0 62 67 82
7 5.66323041915893555 1 65 66 88
7 5.64886713027954102 2 86 75 105
7 5.66074228286743164 3 126 90 130
7 5.83120107650756836 4 162 109 133
6.25322198867797852 6 5 208 142 214
7 6 4.25258016586303711 240 157 199
6.33760643005371094 7 -6 189 212 246
7 7 -5.1939091682434082 139 158 204
6.53207683563232422 7 5 213 162 254
7 7 4.42348337173461914 240 153 247
6.71663331985473633 8 -5 151 204 189
7 7.33828830718994141 -5 174 169 234
7 8 -4.58028984069824219 86 131 114
6.94653463363647461 8 4 146 182 229
7 7.84679698944091797 4 240 153 247
7 8 3.91735005378723145 117 133 192
6.2127528190612793 8 5 118 163 203
7 8.91315650939941406 -4 117 167 171
7 8.95462608337402344 -3 140 178 197
7 8.96372699737548828 -2 152 184 213
7 8.96662998199462891 -1 158 184 221
7 8.96684551239013672 0 156 179 223
7 8.96465015411376953 1 149 167 219
7 8.95785999298095703 2 137 150 210
7 8.93333339691162109 3 117 133 192
7.1161036491394043 6 -5 239 192 251
7.60665416717529297 6 -4 216 185 237
8 5.76953601837158203 -3 208 155 172
8 6 -3.32380056381225586 254 181 223
8 5.55524635314941406 -2 192 142 166
8 5.51335763931274414 -1 182 133 160
8 5.52776336669921875 0 179 129 153
8 5.58956527709960938 1 184 129 145
8 5.77157688140869141 2 197 134 134
7.64671659469604492 6 3 223 154 219
8 6 2.44052529335021973 252 167 179
7.13936853408813477 6 4 240 157 199
7.11895990371704102 7 -5 174 169 234
7.61336994171142578 7 -4 198 186 249
8 7 -3.21576070785522461 161 134 203
7.73922061920166016 7 3 235 168 254
8 7 2.44776511192321777 231 144 218
7.23775911331176758 7 4 240 153 247
7.28180217742919922 8 -4 117 167 171
7.67499208450317383 8 -3 140 178 197
8 7.20366859436035156 -3 199 152 224
8 8 -2.01350188255310059 67 103 110
7.77717781066894531 8 2 137 150 210
8 7.41116762161254883 2 231 144 218
8 8 1.2384263277053833 83 95 141
7.39945173263549805 8 3 117 133 192
8 8.12176609039306641 -2 82 109 132
8 8.83697986602783203 -1 90 109 144
8 8.85117435455322266 0 90 103 147
8 8.67108058929443359 1 83 95 141
8.69528770446777344 6 -3 254 183 222
8.84874629974365234 6 -2 250 181 221
8.87235736846923828 6 -1 247 177 217
8.87113094329833984 6 0 246 174 210
8.84661102294921875 6 1 248 170 197
8.72152423858642578 6 2 252 167 179
8.72151851654052734 7 -3 199 152 224
8.90215492248535156 7 -2 221 161 235
8.92416477203369141 7 -1 233 164 240
8.92552757263183594 7 0 241 162 241
8.90984439849853516 7 1 239 155 231
8.81984043121337891 7 2 231 144 218
8.12176609039306641 8 -2 82 109 132
8.83697986602783203 8 -1 90 109 144
8.85117435455322266 8 0 90 103 147
8.67108058929443359 8 1 83 95 141
3 2 1 0
3 1 4 3
3 0 1 3
3 4 6 5
3 3 4 5
3 6 8 7
3 5 6 7
3 8 10 9
3 7 8 9
3 10 12 11
3 9 10 11
3 12 13 11
3 2 0 14
3 0 3 15
3 14 0 15
3 3 5 16
3 15 3 16
3 5 7 17
3 16 5 17
3 7 9 18
3 17 7 18
3 9 11 19
3 18 9 19
3 11 13 19
3 22 21 20
3 21 24 23
3 20 21 23
3 24 25 23
3 28 27 26
3 27 22 20
3 27 20 26
3 26 20 29
3 2 23 1
3 2 29 23
3 29 20 23
3 25 1 23
3 25 30 1
3 30 4 1
3 30 31 4
3 4 31 6
3 31 32 6
3 6 32 8
3 32 33 8
3 8 33 10
3 33 34 10
3 10 34 12
3 35 13 12
3 35 12 36
3 36 12 34
3 36 38 37
3 35 36 37
3 38 39 37
3 28 26 40
3 26 29 41
3 40 26 41
3 29 2 14
3 29 14 41
3 41 14 42
3 42 14 43
3 14 15 43
3 43 15 44
3 15 16 44
3 44 16 45
3 16 17 45
3 45 17 46
3 17 18 46
3 46 18 47
3 18 19 47
3 13 35 48
3 13 48 19
3 19 48 47
3 35 37 49
3 48 35 49
3 37 39 49
3 52 51 50
3 51 54 53
3 50 51 53
3 22 53 54
3 22 54 21
3 21 54 55
3 57 56 24
3 57 24 55
3 55 24 21
3 24 56 25
3 59 52 50
3 58 59 50
3 28 53 27
3 28 58 53
3 58 50 53
3 53 22 27
3 57 60 56
3 56 30 25
3 56 60 30
3 60 61 30
3 61 62 30
3 30 62 31
3 62 63 31
3 31 63 32
3 63 64 32
3 32 64 33
3 64 65 33
3 33 65 34
3 65 66 34
3 34 66 36
3 66 67 36
3 36 67 38
3 68 39 38
3 68 38 69
3 69 38 67
3 69 70 68
3 59 58 71
3 58 28 40
3 58 40 71
3 71 40 72
3 72 40 73
3 40 41 73
3 73 41 74
3 41 42 74
3 74 42 75
3 42 43 75
3 75 43 76
3 43 44 76
3 76 44 77
3 44 45 77
3 77 45 78
3 45 46 78
3 78 46 79
3 46 47 79
3 79 47 80
3 47 48 80
3 80 48 81
3 48 49 81
3 39 68 82
3 39 82 49
3 49 82 81
3 68 70 82
3 85 84 83
3 52 83 84
3 52 84 51
3 51 84 86
3 86 87 51
3 51 87 54
3 87 88 54
3 54 88 55
3 55 88 89
3 57 55 89
3 91 85 83
3 90 91 83
3 83 59 90
3 52 59 83
3 89 60 57
3 92 60 89
3 92 93 60
3 60 93 61
3 93 94 61
3 61 94 62
3 94 95 62
3 62 95 63
3 95 96 63
3 63 96 64
3 96 97 64
3 64 97 65
3 97 98 65
3 65 98 66
3 98 99 66
3 66 99 67
3 99 100 67
3 67 100 69
3 101 70 69
3 101 69 102
3 102 69 100
3 102 103 101
3 91 90 104
3 90 59 71
3 90 71 104
3 104 71 105
3 105 71 106
3 71 72 106
3 106 72 107
3 72 73 107
3 107 73 108
3 73 74 108
3 108 74 109
3 74 75 109
3 109 75 110
3 75 76 110
3 110 76 111
3 76 77 111
3 111 77 112
3 77 78 112
3 112 78 113
3 78 79 113
3 113 79 114
3 79 80 114
3 114 80 115
3 80 81 115
3 115 81 116
3 81 82 116
3 70 101 117
3 70 117 82
3 82 117 116
3 101 103 117
3 85 119 118
3 84 85 118
3 118 120 84
3 84 120 86
3 120 121 86
3 86 121 87
3 123 122 88
3 123 88 121
3 121 88 87
3 88 122 89
3 126 125 124
3 125 127 124
3 119 85 128
3 128 85 91
3 123 129 122
3 122 92 89
3 122 129 92
3 129 130 92
3 130 131 92
3 92 131 93
3 131 132 93
3 93 132 94
3 132 133 94
3 94 133 95
3 133 134 95
3 95 134 96
3 134 135 96
3 96 135 97
3 135 136 97
3 97 136 98
3 136 137 98
3 98 137 99
3 137 138 99
3 99 138 100
3 124 138 126
3 124 102 138
3 102 100 138
3 102 139 103
3 124 139 102
3 124 140 139
3 124 127 140
3 140 141 139
3 128 91 104
3 142 128 104
3 142 104 143
3 104 105 143
3 143 105 144
3 105 106 144
3 144 106 145
3 106 107 145
3 145 107 146
3 107 108 146
3 146 108 147
3 108 109 147
3 147 109 148
3 109 110 148
3 148 110 149
3 110 111 149
3 149 111 150
3 111 112 150
3 150 112 151
3 112 113 151
3 151 113 152
3 113 114 152
3 152 114 153
3 114 115 153
3 153 115 154
3 115 116 154
3 154 116 155
3 116 117 155
3 103 139 156
3 103 156 117
3 117 156 155
3 139 141 156
3 159 158 157
3 119 157 158
3 119 158 118
3 118 158 160
3 160 161 118
3 118 161 120
3 161 162 120
3 120 162 121
3 121 162 163
3 123 121 163
3 126 165 164
3 125 126 164
3 166 127 125
3 166 125 167
3 167 125 164
3 167 168 166
3 170 159 157
3 169 170 157
3 157 128 169
3 119 128 157
3 163 129 123
3 171 129 163
3 171 172 129
3 129 172 130
3 172 173 130
3 130 173 131
3 173 174 131
3 131 174 132
3 174 175 132
3 132 175 133
3 175 176 133
3 133 176 134
3 176 177 134
3 134 177 135
3 177 178 135
3 135 178 136
3 178 179 136
3 136 179 137
3 179 180 137
3 137 180 138
3 180 126 138
3 165 126 180
3 166 140 127
3 140 166 168
3 140 168 141
3 141 168 181
3 170 169 182
3 169 128 142
3 169 142 182
3 182 142 183
3 183 142 184
3 142 143 184
3 184 143 185
3 143 144 185
3 185 144 186
3 144 145 186
3 186 145 187
3 145 146 187
3 187 146 188
3 146 147 188
3 188 147 189
3 147 148 189
3 189 148 190
3 148 149 190
3 190 149 191
3 149 150 191
3 191 150 192
3 150 151 192
3 192 151 193
3 151 152 193
3 193 152 194
3 152 153 194
3 194 153 195
3 153 154 195
3 195 154 196
3 154 155 196
3 196 155 197
3 155 156 197
3 197 156 141
3 181 197 141
3 159 199 198
3 158 159 198
3 198 200 158
3 158 200 160
3 200 201 160
3 160 201 161
3 201 202 161
3 161 202 162
3 162 202 203
3 163 162 203
3 165 205 204
3 164 165 204
3 204 206 164
3 164 206 167
3 167 206 207
3 168 167 207
3 199 159 208
3 208 159 170
3 203 171 163
3 209 171 203
3 209 210 171
3 171 210 172
3 210 211 172
3 172 211 173
3 211 212 173
3 173 212 174
3 212 213 174
3 174 213 175
3 213 214 175
3 175 214 176
3 214 215 176
3 176 215 177
3 215 216 177
3 177 216 178
3 216 217 178
3 178 217 179
3 217 218 179
3 179 218 180
3 218 165 180
3 205 165 218
3 207 219 168
3 219 181 168
3 208 170 182
3 220 208 182
3 220 182 221
3 182 183 221
3 221 183 222
3 183 184 222
3 222 184 223
3 184 185 223
3 223 185 224
3 185 186 224
3 224 186 225
3 186 187 225
3 225 187 226
3 187 188 226
3 226 188 227
3 188 189 227
3 227 189 228
3 189 190 228
3 228 190 229
3 190 191 229
3 229 191 230
3 191 192 230
3 230 192 231
3 192 193 231
3 231 193 232
3 193 194 232
3 232 194 233
3 194 195 233
3 233 195 234
3 195 196 234
3 234 196 235
3 196 197 235
3 235 197 181
3 219 235 181
3 199 237 236
3 198 199 236
3 236 238 198
3 198 238 200
3 238 239 200
3 200 239 201
3 239 240 201
3 201 240 202
3 202 240 241
3 203 202 241
3 205 243 242
3 204 205 242
3 242 244 204
3 204 244 206
3 245 207 206
3 245 206 246
3 246 206 244
3 246 247 245
3 237 199 248
3 248 199 208
3 241 209 203
3 249 209 241
3 249 250 209
3 209 250 210
3 250 251 210
3 210 251 211
3 251 252 211
3 211 252 212
3 252 253 212
3 212 253 213
3 253 254 213
3 213 254 214
3 254 255 214
3 214 255 215
3 255 256 215
3 215 256 216
3 256 257 216
3 216 257 217
3 257 258 217
3 217 258 218
3 258 205 218
3 243 205 258
3 259 207 245
3 219 207 259
3 247 260 259
3 245 247 259
3 248 208 220
3 261 248 220
3 261 220 262
3 220 221 262
3 262 221 263
3 221 222 263
3 263 222 264
3 222 223 264
3 264 223 265
3 223 224 265
3 265 224 266
3 224 225 266
3 266 225 267
3 225 226 267
3 267 226 268
3 226 227 268
3 268 227 269
3 227 228 269
3 269 228 270
3 228 229 270
3 270 229 271
3 229 230 271
3 271 230 272
3 230 231 272
3 272 231 273
3 231 232 273
3 273 232 274
3 232 233 274
3 274 233 275
3 233 234 275
3 275 234 276
3 234 235 276
3 219 259 277
3 219 277 235
3 235 277 276
3 259 260 277
3 237 279 278
3 236 237 278
3 278 280 236
3 236 280 238
3 280 281 238
3 238 281 239
3 281 282 239
3 239 282 240
3 283 241 240
3 283 240 284
3 284 240 282
3 284 285 283
3 288 287 286
3 243 286 287
3 243 287 242
3 242 287 289
3 289 290 242
3 242 290 244
3 290 291 244
3 244 291 246
3 246 291 292
3 247 246 292
3 279 237 293
3 293 237 248
3 283 249 241
3 285 249 283
3 285 294 249
3 294 250 249
3 294 295 250
3 250 295 251
3 295 296 251
3 251 296 252
3 296 297 252
3 252 297 253
3 297 298 253
3 253 298 254
3 298 299 254
3 254 299 255
3 299 300 255
3 255 300 256
3 300 301 256
3 256 301 257
3 286 301 288
3 286 258 301
3 258 257 301
3 286 243 258
3 292 302 247
3 302 260 247
3 293 248 261
3 303 293 261
3 303 261 304
3 261 262 304
3 304 262 305
3 262 263 305
3 305 263 306
3 263 264 306
3 306 264 307
3 264 265 307
3 307 265 308
3 265 266 308
3 308 266 309
3 266 267 309
3 309 267 310
3 267 268 310
3 310 268 311
3 268 269 311
3 311 269 312
3 269 270 312
3 312 270 313
3 270 271 313
3 313 271 314
3 271 272 314
3 314 272 315
3 272 273 315
3 315 273 316
3 273 274 316
3 316 274 317
3 274 275 317
3 317 275 318
3 275 276 318
3 318 276 319
3 276 277 319
3 319 277 260
3 302 319 260
3 279 321 320
3 278 279 320
3 320 322 278
3 278 322 280
3 322 323 280
3 280 323 281
3 323 324 281
3 281 324 282
3 324 325 282
3 282 325 284
3 326 285 284
3 326 284 327
3 327 284 325
3 327 328 326
3 331 330 329
3 288 329 330
3 288 330 287
3 287 330 332
3 332 333 287
3 287 333 289
3 333 334 289
3 289 334 290
3 334 335 290
3 290 335 291
3 291 335 336
3 292 291 336
3 321 279 337
3 337 279 293
3 326 294 285
3 328 294 326
3 328 338 294
3 338 295 294
3 338 339 295
3 295 339 296
3 339 340 296
3 296 340 297
3 340 341 297
3 297 341 298
3 341 342 298
3 298 342 299
3 342 343 299
3 299 343 300
3 329 343 331
3 329 301 343
3 301 300 343
3 329 288 301
3 336 344 292
3 344 302 292
3 337 293 303
3 345 337 303
3 345 303 346
3 303 304 346
3 346 304 347
3 304 305 347
3 347 305 348
3 305 306 348
3 348 306 349
3 306 307 349
3 349 307 350
3 307 308 350
3 350 308 351
3 308 309 351
3 351 309 352
3 309 310 352
3 352 310 353
3 310 311 353
3 353 311 354
3 311 312 354
3 354 312 355
3 312 313 355
3 355 313 356
3 313 314 356
3 356 314 357
3 314 315 357
3 357 315 358
3 315 316 358
3 358 316 359
3 316 317 359
3 359 317 360
3 317 318 360
3 360 318 361
3 318 319 361
3 361 319 302
3 344 361 302
3 364 363 362
3 363 365 362
3 362 320 321
3 362 321 364
3 364 321 366
3 365 320 362
3 365 367 320
3 367 322 320
3 367 368 322
3 322 368 323
3 368 369 323
3 323 369 324
3 369 370 324
3 324 370 325
3 370 371 325
3 325 371 327
3 372 328 327
3 372 327 373
3 373 327 371
3 373 375 374
3 372 373 374
3 375 377 376
3 374 375 376
3 377 379 378
3 376 377 378
3 379 381 380
3 378 379 380
3 381 383 382
3 380 381 382
3 331 382 383
3 331 383 330
3 330 383 384
3 384 385 330
3 330 385 332
3 385 386 332
3 332 386 333
3 386 387 333
3 333 387 334
3 389 388 335
3 389 335 387
3 387 335 334
3 335 388 336
3 366 321 390
3 390 321 337
3 372 338 328
3 374 338 372
3 339 338 374
3 376 339 374
3 340 339 376
3 378 340 376
3 341 340 378
3 380 341 378
3 342 341 380
3 382 342 380
3 343 342 382
3 382 331 343
3 392 388 389
3 391 388 392
3 388 391 344
3 336 388 344
3 390 337 345
3 393 390 345
3 393 345 394
3 345 346 394
3 394 346 395
3 346 347 395
3 395 347 396
3 347 348 396
3 396 348 397
3 348 349 397
3 397 349 398
3 349 350 398
3 398 350 399
3 350 351 399
3 399 351 400
3 351 352 400
3 400 352 401
3 352 353 401
3 401 353 402
3 353 354 402
3 402 354 403
3 354 355 403
3 403 355 404
3 355 356 404
3 404 356 405
3 356 357 405
3 405 357 406
3 357 358 406
3 406 358 407
3 358 359 407
3 407 359 408
3 359 360 408
3 391 392 408
3 391 408 361
3 361 408 360
3 391 361 344
3 364 410 409
3 363 364 409
3 411 365 363
3 411 363 412
3 412 363 409
3 412 413 411
3 410 364 414
3 414 364 366
3 411 367 365
3 413 367 411
3 413 415 367
3 415 368 367
3 415 416 368
3 368 416 369
3 416 417 369
3 369 417 370
3 417 418 370
3 370 418 371
3 418 419 371
3 371 419 373
3 419 420 373
3 373 420 375
3 420 421 375
3 375 421 377
3 421 422 377
3 377 422 379
3 422 423 379
3 379 423 381
3 423 424 381
3 381 424 383
3 424 425 383
3 383 425 384
3 425 426 384
3 384 426 385
3 426 427 385
3 385 427 386
3 427 428 386
3 386 428 387
3 387 428 429
3 389 387 429
3 414 366 430
3 430 366 390
3 429 431 389
3 431 392 389
3 430 390 393
3 432 430 393
3 432 393 433
3 393 394 433
3 433 394 434
3 394 395 434
3 434 395 435
3 395 396 435
3 435 396 436
3 396 397 436
3 436 397 437
3 397 398 437
3 437 398 438
3 398 399 438
3 438 399 439
3 399 400 439
3 439 400 440
3 400 401 440
3 440 401 441
3 401 402 441
3 441 402 442
3 402 403 442
3 442 403 443
3 403 404 443
3 443 404 444
3 404 405 444
3 444 405 445
3 405 406 445
3 445 406 446
3 406 407 446
3 446 407 447
3 407 408 447
3 447 408 392
3 431 447 392
3 409 410 448
3 448 450 449
3 448 449 409
3 409 449 412
3 451 413 412
3 451 412 452
3 452 412 449
3 452 453 451
3 454 448 410
3 414 454 410
3 450 454 455
3 448 454 450
3 451 415 413
3 453 415 451
3 453 456 415
3 456 416 415
3 456 457 416
3 416 457 417
3 457 458 417
3 417 458 418
3 458 459 418
3 418 459 419
3 459 460 419
3 419 460 420
3 460 461 420
3 420 461 421
3 461 462 421
3 421 462 422
3 462 463 422
3 422 463 423
3 463 464 423
3 423 464 424
3 464 465 424
3 424 465 425
3 465 466 425
3 425 466 426
3 466 467 426
3 426 467 427
3 467 468 427
3 427 468 428
3 428 468 469
3 429 428 469
3 470 454 414
3 430 470 414
3 455 470 471
3 454 470 455
3 474 472 473
3 473 472 431
3 473 431 469
3 469 431 429
3 470 430 432
3 471 470 432
3 471 432 475
3 475 432 433
3 475 433 476
3 433 434 476
3 476 434 477
3 434 435 477
3 477 435 478
3 435 436 478
3 478 436 479
3 436 437 479
3 479 437 480
3 437 438 480
3 480 438 481
3 438 439 481
3 481 439 482
3 439 440 482
3 482 440 483
3 440 441 483
3 483 441 484
3 441 442 484
3 484 442 485
3 442 443 485
3 485 443 486
3 443 444 486
3 486 444 487
3 444 445 487
3 487 445 488
3 445 446 488
3 472 474 488
3 472 488 447
3 447 488 446
3 472 447 431
3 450 490 489
3 449 450 489
3 489 491 449
3 449 491 452
3 492 453 452
3 492 452 493
3 493 452 491
3 493 495 494
3 492 493 494
3 495 496 494
3 499 498 497
3 498 501 500
3 497 498 500
3 501 502 500
3 490 450 503
3 503 450 455
3 492 456 453
3 494 456 492
3 457 456 494
3 496 457 494
3 496 504 457
3 504 458 457
3 504 505 458
3 458 505 459
3 505 506 459
3 459 506 460
3 506 507 460
3 460 507 461
3 507 508 461
3 461 508 462
3 508 509 462
3 462 509 463
3 509 510 463
3 463 510 464
3 510 511 464
3 464 511 465
3 497 511 499
3 497 466 511
3 466 465 511
3 500 466 497
3 467 466 500
3 500 468 467
3 500 513 468
3 500 502 513
3 512 468 513
3 468 512 469
3 514 515 503
3 514 503 471
3 471 503 455
3 515 514 516
3 512 474 473
3 512 513 474
3 513 517 474
3 512 473 469
3 514 471 475
3 516 514 475
3 516 475 518
3 518 475 476
3 518 476 519
3 476 477 519
3 519 477 520
3 477 478 520
3 520 478 521
3 478 479 521
3 521 479 522
3 479 480 522
3 522 480 523
3 480 481 523
3 523 481 524
3 481 482 524
3 524 482 525
3 482 483 525
3 525 483 526
3 483 484 526
3 526 484 527
3 484 485 527
3 527 485 528
3 485 486 528
3 528 486 529
3 486 487 529
3 529 487 530
3 487 488 530
3 530 488 474
3 517 530 474
3 489 490 531
3 531 533 532
3 531 532 489
3 489 532 491
3 532 534 491
3 491 534 493
3 534 535 493
3 493 535 495
3 536 496 495
3 536 495 537
3 537 495 535
3 537 539 538
3 536 537 538
3 539 541 540
3 538 539 540
3 541 542 540
3 545 544 543
3 544 547 546
3 543 544 546
3 547 549 548
3 546 547 548
3 549 551 550
3 548 549 550
3 499 550 551
3 499 551 498
3 498 551 552
3 554 553 501
3 554 501 552
3 552 501 498
3 501 553 502
3 555 531 490
3 503 555 490
3 533 555 556
3 531 555 533
3 536 504 496
3 538 504 536
3 505 504 538
3 540 505 538
3 506 505 540
3 542 506 540
3 542 557 506
3 557 507 506
3 543 557 545
3 543 508 557
3 508 507 557
3 546 508 543
3 509 508 546
3 548 509 546
3 510 509 548
3 550 510 548
3 511 510 550
3 550 499 511
3 559 553 554
3 558 553 559
3 553 558 513
3 502 553 513
3 555 503 515
3 515 516 560
3 555 515 560
3 555 560 561
3 555 561 556
3 561 560 562
3 564 558 559
3 563 558 564
3 558 563 517
3 513 558 517
3 560 516 518
3 562 560 518
3 562 518 565
3 565 518 519
3 565 519 566
3 519 520 566
3 566 520 567
3 520 521 567
3 567 521 568
3 521 522 568
3 568 522 569
3 522 523 569
3 569 523 570
3 523 524 570
3 570 524 571
3 524 525 571
3 571 525 572
3 525 526 572
3 572 526 573
3 526 527 573
3 573 527 574
3 527 528 574
3 574 528 575
3 528 529 575
3 563 564 575
3 563 575 530
3 530 575 529
3 563 530 517
3 532 533 576
3 576 578 577
3 576 577 532
3 532 577 534
3 577 579 534
3 534 579 535
3 579 580 535
3 535 580 537
3 580 581 537
3 537 581 539
3 581 582 539
3 539 582 541
3 583 542 541
3 583 541 584
3 584 541 582
3 545 583 584
3 545 584 544
3 544 584 585
3 585 586 544
3 544 586 547
3 586 587 547
3 547 587 549
3 587 588 549
3 549 588 551
3 590 589 552
3 590 552 588
3 588 552 551
3 552 589 554
3 591 576 533
3 556 591 533
3 578 591 592
3 576 591 578
3 583 557 542
3 583 545 557
3 594 589 590
3 593 589 594
3 589 593 559
3 554 589 559
3 591 556 561
3 561 562 595
3 591 561 595
3 591 595 596
3 591 596 592
3 596 595 597
3 600 598 599
3 599 593 594
3 599 598 593
3 598 601 593
3 593 601 564
3 559 593 564
3 595 562 565
3 597 595 565
3 597 565 602
3 602 565 566
3 602 566 603
3 566 567 603
3 603 567 604
3 567 568 604
3 604 568 605
3 568 569 605
3 605 569 606
3 569 570 606
3 606 570 607
3 570 571 607
3 607 571 608
3 571 572 608
3 608 572 609
3 572 573 609
3 598 600 609
3 598 609 574
3 574 609 573
3 601 598 574
3 575 601 574
3 601 575 564
3 577 578 610
3 579 577 610
3 611 579 610
3 611 613 612
3 611 612 579
3 579 612 580
3 612 614 580
3 580 614 581
3 614 615 581
3 581 615 582
3 615 616 582
3 582 616 584
3 616 617 584
3 584 617 585
3 617 618 585
3 585 618 586
3 620 619 587
3 620 587 618
3 618 587 586
3 588 587 619
3 621 588 619
3 588 621 590
3 622 610 578
3 592 622 578
3 610 622 611
3 611 622 623
3 613 623 624
3 611 623 613
3 626 619 620
3 625 619 626
3 619 625 621
3 621 625 627
3 621 627 594
3 590 621 594
3 622 592 596
3 596 597 628
3 596 628 622
3 622 628 623
3 624 629 630
3 624 623 629
3 623 628 629
3 630 629 631
3 634 632 633
3 633 625 626
3 633 632 625
3 632 635 625
3 600 599 627
3 600 627 635
3 635 627 625
3 627 599 594
3 628 597 602
3 629 628 602
3 603 629 602
3 631 629 603
3 631 603 636
3 636 603 604
3 636 604 637
3 604 605 637
3 637 605 638
3 605 606 638
3 638 606 639
3 606 607 639
3 632 634 639
3 632 639 608
3 608 639 607
3 635 632 608
3 609 635 608
3 635 609 600
3 612 613 640
3 614 612 640
3 641 614 640
3 615 614 641
3 642 615 641
3 616 615 642
3 643 616 642
3 617 616 643
3 644 617 643
3 618 617 644
3 645 618 644
3 618 645 620
3 646 640 613
3 624 646 613
3 640 646 641
3 641 646 647
3 641 647 642
3 642 647 648
3 642 648 643
3 643 648 649
3 643 649 644
3 644 649 650
3 644 650 645
3 645 650 651
3 645 651 626
3 620 645 626
3 646 624 630
3 630 631 652
3 630 652 646
3 646 652 647
3 647 652 648
3 648 652 653
3 648 653 649
3 649 653 654
3 649 654 650
3 650 654 655
3 634 633 651
3 634 651 655
3 655 651 650
3 651 633 626
3 652 631 636
3 653 652 636
3 637 653 636
3 654 653 637
3 638 654 637
3 655 654 638
3 639 655 638
3 655 639 634
