ply
format ascii 1.0
element vertex 88
property float x
property float y
property float z
property uchar red
property uchar green
property uchar blue
element face 160
property list uchar int vertex_indices
end_header
-9.43324470520019531 6 -9 203 216 232
-9 5.69307088851928711 -9 208 227 228
-9 6 -9.43324470520019531 202 213 232
-9 6 -8.87029838562011719 211 224 229
-9.46315097808837891 6 8 204 212 216
-9 5.65314960479736328 8 206 211 209
-9 6 7.85173368453979492 203 209 205
-9 6 8.46315097808837891 210 212 211
-9.76930999755859375 7 -9 206 210 232
-9 7 -9.76930999755859375 205 207 233
-9 7 -8.41421699523925781 214 220 230
-9.77424430847167969 7 8 207 211 217
-9 7 7.38974952697753906 203 210 208
-9 7 8.77424430847167969 213 213 213
-9.85643959045410156 8 -9 211 207 232
-9 8 -9.85643959045410156 212 206 233
-9.32890987396240234 8 -8 215 217 230
-9 7.82792282104492188 -8 221 225 227
-9 8 -7.90606307983398438 223 224 227
-9.39459323883056641 8 7 216 216 216
-9 7.77067279815673828 7 203 210 208
-9 8 6.87259721755981445 194 210 207
-9.85828971862792969 8 8 210 211 219
-9 8 8.85828971862792969 214 214 215
-9 8.85643959045410156 -9 215 216 230
-9 8.32890987396240234 -8 223 224 227
-9 8.39459323883056641 7 203 211 212
-9 8.85828971862792969 8 214 214 215
-8.86960792541503906 6 -9 211 224 229
-8.84978294372558594 6 8 210 212 211
-8.41109275817871094 7 -9 214 220 230
-8.38170146942138672 7 8 213 213 213
-8 7.81763267517089844 -9 220 225 228
-8 8 -9.34176826477050781 214 213 231
-8.91732597351074219 8 -8 223 224 227
-8 8 -8.91284370422363281 222 223 228
-8.886505126953125 8 7 203 211 212
-8 7.74563264846801758 8 202 209 206
-8 8 7.87575531005859375 192 208 200
-8 8 8.41937255859375 202 211 211
-8 8.34176826477050781 -9 222 223 228
-8 8.41937255859375 8 202 211 211
-7.89893436431884766 8 -9 222 223 228
-7.8560791015625 8 8 202 211 211
6.83129310607910156 8 -9 221 232 233
7 7.70181512832641602 -9 212 230 235
7 8 -9.45808506011962891 204 205 237
7 8 -8.85436058044433594 213 223 235
6.87472009658813477 8 8 215 217 219
7 7.77393150329589844 8 214 219 221
7 8 7.89196348190307617 217 218 220
7 8 8.39120769500732422 217 219 222
7 8.45808506011962891 -9 213 223 235
7 8.39120769500732422 8 217 219 222
7.82812738418579102 6 -9 209 234 233
8 5.60312700271606445 -9 198 225 235
8 6 -9.4963531494140625 191 197 238
8 6 -8.83036041259765625 201 220 236
7.84839344024658203 6 8 211 219 220
8 5.64311313629150391 8 202 219 222
8 6 7.84919595718383789 211 219 221
8 6 8.47016811370849609 205 217 223
7.35928726196289062 7 -9 212 230 235
8 7 -9.78011894226074219 197 193 239
8 7 -8.36762714385986328 203 213 236
7.38913869857788086 7 8 214 219 221
8 7 7.3923797607421875 214 219 222
8 7 8.77544975280761719 208 215 224
8 8 -9.86053466796875 209 195 238
7.86484622955322266 8 -8 222 231 232
8 7.72689580917358398 -8 212 227 234
8 8 -7.84828281402587891 213 221 234
7.89634275436401367 8 7 217 218 220
8 7.78423833847045898 7 214 219 222
8 8 6.88222026824951172 221 221 221
8 8 8.85874652862548828 210 212 225
8 8.86053466796875 -9 205 205 236
8 8.43659877777099609 -8 213 221 234
8 8.38024330139160156 7 216 219 223
8 8.85874652862548828 8 210 212 225
8.4963531494140625 6 -9 201 220 236
8.47016811370849609 6 8 205 217 223
8.78011894226074219 7 -9 203 213 236
8.77544975280761719 7 8 208 215 224
8.86053466796875 8 -9 205 205 236
8.43659877777099609 8 -8 213 221 234
8.38024330139160156 8 7 216 219 223
8.85874652862548828 8 8 210 212 225
3 2 1 0
3 1 3 0
3 6 5 4
3 5 7 4
3 9 2 0
3 8 9 0
3 3 10 8
3 0 3 8
3 12 6 4
3 11 12 4
3 7 13 11
3 4 7 11
3 15 9 8
3 14 15 8
3 10 17 16
3 10 16 8
3 8 16 14
3 17 18 16
3 21 20 19
3 20 12 11
3 20 11 19
3 19 11 22
3 13 23 22
3 11 13 22
3 15 14 24
3 14 16 25
3 24 14 25
3 16 18 25
3 21 19 26
3 19 22 27
3 26 19 27
3 22 23 27
3 1 2 28
3 1 28 3
3 5 6 29
3 5 29 7
3 30 28 2
3 9 30 2
3 28 30 10
3 3 28 10
3 31 29 6
3 12 31 6
3 29 31 13
3 7 29 13
3 32 30 9
3 32 9 33
3 33 9 15
3 35 34 17
3 32 35 17
3 32 17 10
3 32 10 30
3 17 34 18
3 20 21 36
3 36 38 37
3 20 36 37
3 20 37 31
3 20 31 12
3 31 37 39
3 31 39 13
3 13 39 23
3 33 15 24
3 40 33 24
3 34 35 40
3 34 40 25
3 25 40 24
3 34 25 18
3 36 21 26
3 38 36 26
3 38 26 41
3 41 26 27
3 41 27 23
3 39 41 23
3 32 33 42
3 32 42 35
3 37 38 43
3 37 43 39
3 42 33 40
3 42 40 35
3 43 38 41
3 43 41 39
3 46 45 44
3 45 47 44
3 50 49 48
3 49 51 48
3 46 44 52
3 44 47 52
3 50 48 53
3 48 51 53
3 56 55 54
3 55 57 54
3 60 59 58
3 59 61 58
3 63 56 54
3 62 63 54
3 57 64 62
3 54 57 62
3 66 60 58
3 65 66 58
3 61 67 65
3 58 61 65
3 62 45 46
3 62 46 63
3 63 46 68
3 45 69 47
3 62 69 45
3 62 70 69
3 62 64 70
3 70 71 69
3 74 73 72
3 65 49 50
3 66 65 50
3 66 50 72
3 66 72 73
3 49 65 67
3 49 67 51
3 51 67 75
3 68 46 52
3 76 68 52
3 47 69 77
3 47 77 52
3 52 77 76
3 69 71 77
3 74 72 78
3 72 50 53
3 72 53 78
3 78 53 79
3 79 53 51
3 75 79 51
3 55 56 80
3 55 80 57
3 59 60 81
3 59 81 61
3 82 80 56
3 63 82 56
3 80 82 64
3 57 80 64
3 83 81 60
3 66 83 60
3 81 83 67
3 61 81 67
3 84 82 63
3 68 84 63
3 70 64 82
3 70 82 85
3 85 82 84
3 70 85 71
3 73 74 86
3 66 73 86
3 66 86 83
3 83 86 87
3 83 87 75
3 67 83 75
3 84 68 76
3 85 84 76
3 77 85 76
3 85 77 71
3 86 74 78
3 87 86 78
3 79 87 78
3 87 79 75
