ply
format ascii 1.0
element vertex 460
property float x
property float y
property float z
property uchar red
property uchar green
property uchar blue
element face 916
property list uchar int vertex_indices
end_header
-3.10076093673706055 -6 -1 24 14 17
-3 -6.4566798210144043 -1 23 12 12
-3 -6 -1.3401721715927124 26 16 16
-3.0561375617980957 -6 0 23 14 18
-3 -6.25358390808105469 0 22 12 12
-3 -6 0.144944995641708374 24 15 19
-3.27635073661804199 -5 -1 25 18 23
-3 -5 -1.9315803050994873 27 20 22
-3.23245882987976074 -5 0 24 17 23
-3 -5 0.603478074073791504 25 19 24
-3.11021327972412109 -4 -2 27 22 26
-3 -4.84583711624145508 -2 27 20 22
-3 -4 -2.17077040672302246 29 24 26
-3.40967369079589844 -4 -1 26 21 26
-3.36706829071044922 -4 0 24 20 25
-3 -4 0.959233999252319336 25 22 26
-3.20027565956115723 -3 -2 28 25 28
-3 -3 -2.30961036682128906 30 27 29
-3.50314807891845703 -3 -1 26 25 27
-3.46259188652038574 -3 0 25 23 26
-3.08115267753601074 -3 1 23 22 24
-3 -3.84154701232910156 1 23 21 24
-3 -3 1.11125481128692627 24 24 25
-3.25376725196838379 -2 -2 28 28 28
-3 -2 -2.39092159271240234 30 29 30
-3.56036496162414551 -2 -1 27 27 27
-3.5228278636932373 -2 0 26 26 26
-3.14373922348022461 -2 1 25 25 25
-3 -2 1.19820106029510498 24 24 26
-3.27557754516601562 -1 -2 27 26 28
-3 -1 -2.42240524291992188 30 27 30
-3.58635354042053223 -1 -1 25 25 27
-3.55299901962280273 -1 0 24 24 26
-3.17797446250915527 -1 1 23 23 25
-3 -1 1.24724137783050537 22 22 26
-3.27201724052429199 0 -2 25 24 28
-3 0 -2.41418647766113281 28 25 30
-3.58765959739685059 0 -1 23 23 27
-3.55981278419494629 0 0 22 23 26
-3.19067716598510742 0 1 21 22 25
-3 0 1.26740026473999023 20 22 26
-3.25073409080505371 1 -2 23 22 28
-3 1 -2.37857389450073242 26 22 30
-3.57220125198364258 1 -1 21 22 27
-3.55129790306091309 1 0 20 22 26
-3.18985533714294434 1 1 19 22 25
-3 1 1.26939332485198975 18 22 25
-3.22041773796081543 2 -2 20 20 28
-3 2 -2.32940196990966797 23 20 29
-3.54890704154968262 2 -1 19 21 26
-3.53641676902770996 2 0 18 22 25
-3.18433165550231934 2 1 18 22 24
-3 2 1.26531386375427246 17 22 25
-3.1902928352355957 3 -2 18 20 27
-3 3 -2.28098535537719727 20 19 28
-3.5271451473236084 3 -1 17 21 26
-3.52447247505187988 3 0 17 22 25
-3.18315529823303223 3 1 16 22 23
-3 3 1.26810455322265625 15 23 24
-3.16942906379699707 4 -2 17 20 26
-3 4 -2.24681568145751953 18 17 27
-3.51599407196044922 4 -1 16 22 25
-3.52436351776123047 4 0 15 23 23
-3.1948540210723877 4 1 15 22 22
-3 4 1.290802001953125 14 23 22
-3.16592836380004883 5 -2 16 20 24
-3 5 -2.23819994926452637 16 17 26
-3.5234227180480957 5 -1 15 22 23
-3.54376459121704102 5 0 14 22 22
-3.22660946846008301 5 1 14 21 19
-3 5 1.34553742408752441 14 22 20
-3.18608188629150391 6 -2 15 20 23
-3 6 -2.26309299468994141 16 18 25
-3.55548691749572754 6 -1 14 21 22
-3.58834218978881836 6 0 14 21 19
-3.28347373008728027 6 1 13 19 17
-3 6 1.44229912757873535 13 20 17
-3.23361682891845703 7 -2 14 20 21
-3 7 -2.3253319263458252 15 18 23
-3.61563920974731445 7 -1 14 20 19
-3.66110467910766602 7 0 13 19 16
-3.3677361011505127 7 1 13 18 14
-3 7 1.58748602867126465 12 18 14
-3.30913257598876953 8 -2 14 19 19
-3 8 -2.42435717582702637 14 18 21
-3.70422911643981934 8 -1 13 18 16
-3.76194143295288086 8 0 12 17 14
-3.47850561141967773 8 1 12 16 12
-3 8 1.78231000900268555 12 16 12
-3 8.82384490966796875 -2 13 20 20
-3 8.91224861145019531 -1 13 19 16
-3 8.91827964782714844 0 12 17 14
-3 8.87864875793457031 1 12 16 12
-2.38921618461608887 -8 -1 22 9 9
-2 -8.79553318023681641 -1 20 6 6
-2 -8 -1.85414481163024902 23 10 10
-2.31811261177062988 -8 0 21 8 8
-2 -8.64977264404296875 0 19 6 6
-2 -8 0.531051278114318848 21 9 9
-2.3470914363861084 -7 -2 24 13 13
-2 -7.83956813812255859 -2 23 10 10
-2 -7 -2.34968423843383789 26 13 13
-2.80952072143554688 -7 -1 23 12 12
-2.73769330978393555 -7 0 22 12 12
-2.13696193695068359 -7 1 21 11 13
-2 -7.32976341247558594 1 20 9 9
-2 -7 1.12050378322601318 22 12 13
-2.69130730628967285 -6 -2 26 16 16
-2 -6 -2.69583845138549805 28 17 17
-2.48146772384643555 -6 1 22 14 19
-2 -6 1.42416155338287354 23 15 19
-2.96784138679504395 -5 -2 27 20 22
-2 -5 -2.97286891937255859 29 22 22
-2.76024889945983887 -5 1 24 18 23
-2 -5 1.67116653919219971 24 19 24
-2.17332959175109863 -4 -3 29 24 26
-2 -4.86937713623046875 -3 29 22 22
-2 -4 -3.11265397071838379 31 25 25
-2.97546792030334473 -4 1 23 21 24
-2 -4 1.86388444900512695 24 22 25
-2.30993437767028809 -3 -3 30 27 29
-2 -3 -3.20106840133666992 31 29 29
-2.0063626766204834 -3 2 23 22 24
-2 -3.04156112670898438 2 23 20 24
-2 -3 2.00381994247436523 24 24 24
-2.38903355598449707 -2 -3 30 29 30
-2 -2 -3.25184535980224609 32 31 31
-2.10901975631713867 -2 2 24 24 24
-2 -2 2.06572198867797852 24 23 25
-2.41787409782409668 -1 -3 30 27 30
-2 -1 -3.26981973648071289 32 29 31
-2.17012763023376465 -1 2 22 22 24
-2 -1 2.10315084457397461 21 22 25
-2.40599250793457031 0 -3 28 25 30
-2 0 -3.26131772994995117 32 26 31
-2.20047307014465332 0 2 20 22 24
-2 0 2.12247085571289062 20 21 25
-2.3650825023651123 1 -3 26 22 30
-2 1 -3.23406696319580078 31 24 31
-2.21258974075317383 1 2 18 21 24
-2 1 2.13111042976379395 18 21 25
-2.30852866172790527 2 -3 23 20 29
-2 2 -3.19686317443847656 29 22 31
-2.2200930118560791 2 2 17 22 24
-2 2 2.13730072975158691 16 21 24
-2.25061798095703125 3 -3 20 19 28
-2 3 -3.15899777412414551 26 20 30
-2.23670434951782227 3 2 16 22 23
-2 3 2.14964151382446289 15 22 23
-2.20547628402709961 4 -3 18 17 27
-2 4 -3.12949013710021973 24 18 29
-2.27506399154663086 4 2 14 22 21
-2 4 2.17650222778320312 14 22 22
-2.18581771850585938 5 -3 16 17 26
-2 5 -3.11621880531311035 22 17 28
-2.34549379348754883 5 2 14 20 18
-2 5 2.22528076171875 13 21 19
-2.20166015625 6 -3 16 18 25
-2 6 -3.12508606910705566 19 17 26
-2.45489239692687988 6 2 13 19 15
-2 6 2.30156826972961426 13 20 16
-2.25917625427246094 7 -3 15 18 23
-2 7 -3.15935778617858887 17 16 25
-2.60591506958007812 7 2 12 17 13
-2 7 2.40828609466552734 12 18 13
-2.35983848571777344 8 -3 14 18 21
-2 8 -3.21928000450134277 16 16 23
-2.79646611213684082 8 2 12 15 11
-2 8 2.54485678672790527 12 16 11
-2 8.78099250793457031 -3 14 18 21
-2 8.93344211578369141 -2 13 20 20
-2 8.95087337493896484 -1 13 19 16
-2 8.9527435302734375 0 12 18 14
-2 8.94291114807128906 1 12 17 12
-2 8.88744163513183594 2 12 16 11
-1.78408539295196533 -9 -1 20 6 6
-1 -9.75453758239746094 -1 19 3 3
-1 -9 -1.79779064655303955 22 7 7
-1.6300349235534668 -9 0 19 6 6
-1 -9.71262550354003906 0 18 3 3
-1 -9 0.487312823534011841 20 6 6
-1.85645437240600586 -8 -2 23 10 10
-1 -8.81155967712402344 -2 22 7 7
-1 -8 -2.40025472640991211 25 10 10
-1.39821624755859375 -8 1 20 9 9
-1 -8.37698745727539062 1 19 6 6
-1 -8 1.16251587867736816 21 9 9
-1 -7 -2.8233025074005127 27 14 14
-1 -7 1.53068184852600098 22 13 13
-1.36304879188537598 -6 -3 28 17 17
-1 -6.49729824066162109 -3 27 14 14
-1 -6 -3.10984158515930176 29 17 17
-1 -6 1.84145760536193848 24 16 19
-1.94318938255310059 -5 -3 29 22 22
-1 -5 -3.28468942642211914 30 22 22
-1.22179210186004639 -5 2 23 17 23
-1 -5.37377691268920898 2 22 15 18
-1 -5 2.06160926818847656 24 18 23
-1 -4 -3.41587495803833008 31 26 26
-1.67956161499023438 -4 2 23 20 24
-1 -4 2.18904328346252441 24 22 24
-1 -3 -3.5055079460144043 32 30 30
-1 -3 2.28295087814331055 25 25 25
-1 -2 -3.5568854808807373 32 31 31
-1 -2 2.34739303588867188 24 23 26
-1 -1 -3.57479763031005859 32 28 31
-1 -1 2.38762354850769043 22 21 26
-1 0 -3.56563687324523926 32 25 31
-1 0 2.41013145446777344 19 20 26
-1 1 -3.53727340698242188 32 23 32
-1 1 2.42251205444335938 18 20 25
-1 2 -3.49867773056030273 30 21 31
-1 2 2.43316912651062012 16 20 25
-1 3 -3.45930743217468262 27 19 31
-1 3 2.4508516788482666 15 21 24
-1 4 -3.42831683158874512 25 18 30
-1 4 2.484039306640625 14 22 23
-1 5 -3.41368794441223145 22 17 28
-1 5 2.54020142555236816 13 22 20
-1 6 -3.4214165210723877 20 16 27
-1 6 2.62497687339782715 12 20 17
-1 7 -3.45488786697387695 18 16 25
-1 7 2.74132156372070312 12 18 14
-1 8 -3.51452183723449707 16 16 23
-1 8 2.88866090774536133 12 16 12
-1 8.89136123657226562 -3 14 18 22
-1 8.94822216033935547 -2 13 21 21
-1 8.95904064178466797 -1 12 20 17
-1 8.9603118896484375 0 12 19 14
-1 8.95403099060058594 1 12 17 12
-1 8.92589187622070312 2 12 16 12
0 -9.71788597106933594 -1 20 3 3
0 -9 -1.65933525562286377 23 7 7
0 -9.66088581085205078 0 18 3 3
0 -9 0.382300853729248047 21 7 7
0 -8.68293380737304688 -2 23 7 7
0 -8 -2.3373100757598877 26 10 10
0 -8.25011730194091797 1 19 6 6
0 -8 1.10797202587127686 21 9 9
0 -7 -2.75984597206115723 27 14 14
0 -7 1.47577428817749023 23 13 13
0 -6.31758594512939453 -3 27 14 14
0 -6 -3.07029294967651367 30 18 18
0 -6 1.78611767292022705 24 17 18
0 -5 -3.24528121948242188 31 22 22
0 -5.15664482116699219 2 23 15 17
0 -5 2.02589106559753418 24 19 22
0 -4 -3.37669014930725098 32 27 27
0 -4 2.1535799503326416 25 22 25
0 -3 -3.46670818328857422 32 31 31
0 -3 2.24785757064819336 26 26 26
0 -2 -3.51869916915893555 33 31 31
0 -2 2.31283807754516602 25 23 26
0 -1 -3.537506103515625 33 28 30
0 -1 2.35381865501403809 23 21 26
0 0 -3.52955842018127441 33 25 31
0 0 2.3773193359375 20 19 26
0 1 -3.50274443626403809 33 23 31
0 1 2.39095497131347656 18 18 26
0 2 -3.46603226661682129 32 20 32
0 2 2.40313601493835449 16 19 25
0 3 -3.42885494232177734 29 19 31
0 3 2.42260313034057617 15 20 25
0 4 -3.40031695365905762 27 17 30
0 4 2.4578094482421875 14 21 24
0 5 -3.38832569122314453 24 17 29
0 5 2.51617574691772461 13 22 22
0 6 -3.39878058433532715 22 16 27
0 6 2.60326552391052246 13 21 19
0 7 -3.43495631217956543 19 16 26
0 7 2.72193288803100586 12 19 15
0 8 -3.49715733528137207 17 16 24
0 8 2.8714749813079834 12 17 13
0 8.88809013366699219 -3 14 17 23
0 8.94754886627197266 -2 13 20 21
0 8.958648681640625 -1 13 20 18
0 8.95995521545410156 0 12 19 15
0 8.95354366302490234 1 12 18 13
0 8.92457008361816406 2 12 17 13
0.507615029811859131 -9 -1 22 7 7
0.387354344129562378 -9 0 21 7 7
0.566504359245300293 -8 -2 25 11 11
1 -8.408905029296875 -1 22 7 7
1 -8 -1.440704345703125 25 11 11
1 -8.26491165161132812 0 21 6 6
0.207839235663414001 -8 1 21 9 9
1 -8 0.217217102646827698 23 10 10
1 -7.38731479644775391 -2 25 11 11
1 -7 -2.16210436820983887 28 14 14
0.916829943656921387 -7 1 23 13 13
1 -7 0.917698919773101807 25 14 14
0.183308467268943787 -6 -3 29 19 19
1 -6 -2.50771903991699219 29 19 19
1 -6.85919189453125 1 23 13 13
1 -6 1.26101171970367432 25 17 17
0.641826212406158447 -5 -3 30 23 23
1 -5 -2.78443527221679688 30 23 23
0.0737704560160636902 -5 2 24 19 22
1 -5 1.50768160820007324 26 21 23
0.989348351955413818 -4 -3 31 28 28
1 -4 -2.9936068058013916 31 28 28
0.437951773405075073 -4 2 25 22 25
1 -4 1.70046985149383545 27 25 26
1 -3.95569634437561035 -3 31 28 28
1 -3 -3.08582520484924316 33 31 31
0.706865608692169189 -3 2 26 26 26
1 -3 1.84330272674560547 27 26 27
1 -2 -3.13856649398803711 33 31 31
0.891583561897277832 -2 2 25 23 26
1 -2 1.94183158874511719 27 24 28
1 -1 -3.15924644470214844 33 28 30
1 -1.05982387065887451 2 26 24 27
1 -1 2.00237679481506348 24 22 27
1 0 -3.15431761741638184 33 25 29
1 0 2.02463269233703613 22 20 27
1 1 -3.13158679008483887 33 23 30
1 1 2.03694772720336914 19 18 26
1 2 -3.09987092018127441 33 21 30
1 2 2.04759502410888672 16 17 26
1 3 -3.06841349601745605 32 19 31
1 3 2.06517219543457031 15 18 25
1 4 -3.04610753059387207 30 18 31
1 4 2.09798860549926758 14 19 24
1 5 -3.04062414169311523 27 17 29
1 5 2.15330958366394043 13 20 23
1 6 -3.05758357048034668 24 16 28
1 6 2.23651027679443359 13 21 21
1 7 -3.09991765022277832 22 16 26
1 7 2.35020995140075684 13 19 17
1 8 -3.16751432418823242 19 16 24
1 8 2.49344897270202637 12 17 14
1 8.73190593719482422 -3 15 16 23
1 8.92978668212890625 -2 14 19 22
1 8.94902706146240234 -1 13 21 21
1 8.95108604431152344 0 12 20 17
1 8.94045543670654297 1 12 19 15
1 8.87720680236816406 2 12 17 14
1.17748475074768066 -8 -1 24 11 11
1.11507594585418701 -8 0 23 10 10
1.14230000972747803 -7 -2 27 15 15
1.54742908477783203 -7 -1 26 15 15
1.48462581634521484 -7 0 25 14 14
1.44618058204650879 -6 -2 28 19 19
1.8580317497253418 -6 -1 27 19 19
1.79518783092498779 -6 0 26 18 18
1.26225090026855469 -6 1 25 17 17
1.6906198263168335 -5 -2 29 24 24
2 -5.4330601692199707 -1 27 19 19
2 -5 -1.25795435905456543 30 23 23
2 -5.18667078018188477 0 26 18 18
1.50927448272705078 -5 1 26 21 23
2 -5 0.0861640051007270813 27 22 22
1.87723171710968018 -4 -2 30 28 28
2 -4 -1.70769262313842773 31 28 28
1.70106780529022217 -4 1 27 25 26
2 -4 0.441288173198699951 28 26 27
1.11752915382385254 -3 -3 32 31 31
2 -3.06692051887512207 -2 31 28 28
2 -3 -2.00953936576843262 32 32 32
1.84136295318603516 -3 1 27 26 27
2 -3 0.701836645603179932 29 28 28
1.19048309326171875 -2 -3 32 28 30
2 -2 -2.09645366668701172 33 29 30
1.93567180633544922 -2 1 27 24 28
2 -2 0.87811964750289917 29 25 29
1.21999180316925049 -1 -3 32 25 30
2 -1 -2.13570451736450195 33 26 29
1.99158596992492676 -1 1 25 21 28
2 -1 0.983883261680603027 29 22 30
1.00350415706634521 -1 2 24 22 27
1.21452391147613525 0 -3 32 23 31
2 0 -2.13771986961364746 33 24 29
2 -0.6915474534034729 1 27 22 28
1.03617012500762939 0 2 22 20 27
2 0 1.01825058460235596 26 20 28
1.18436694145202637 1 -3 31 20 32
2 1 -2.11495304107666016 32 21 30
1.05397593975067139 1 2 19 18 26
2 1 1.02816867828369141 23 18 28
1.1412811279296875 2 -3 28 18 31
2 2 -2.08119368553161621 32 19 31
1.06910049915313721 2 2 16 17 26
2 2 1.03383207321166992 20 16 28
1.09789454936981201 3 -3 25 17 31
2 3 -2.05050086975097656 30 17 31
1.09393966197967529 3 2 15 18 25
2 3 1.04821741580963135 16 15 27
1.06685483455657959 4 -3 22 15 30
2 4 -2.03588962554931641 27 16 30
1.14010584354400635 4 2 14 19 24
2 4 1.08429443836212158 14 16 26
1.05978107452392578 5 -3 19 15 28
2 5 -2.04799032211303711 24 15 29
1.21731138229370117 5 2 13 20 23
2 5 1.1539846658706665 13 18 24
1.08610093593597412 6 -3 17 14 27
2 6 -2.09393453598022461 21 15 27
1.33226728439331055 6 2 13 21 21
2 6 1.26687347888946533 13 19 23
1.15189814567565918 7 -3 15 14 25
2 7 -2.17666721343994141 19 15 26
1.48772799968719482 7 2 13 19 17
2 7 1.42872250080108643 13 20 21
1.25890648365020752 8 -3 15 16 23
2 8 -2.29475283622741699 17 15 24
1.68173730373382568 8 2 12 17 14
2 8 1.63984644412994385 13 19 18
2 8.76558780670166016 -2 14 17 22
2 8.90043735504150391 -1 13 19 21
2 8.90840244293212891 0 13 20 20
2 8.85559463500976562 1 13 19 18
2.07050824165344238 -5 -1 29 23 23
2.03059530258178711 -5 0 27 22 22
2.1942741870880127 -4 -1 29 28 28
2.15570950508117676 -4 0 28 26 27
2.0056922435760498 -3 -2 31 30 30
2.28225922584533691 -3 -1 30 29 29
2.2457420825958252 -3 0 29 28 28
2.05783367156982422 -2 -2 32 27 29
2.33808684349060059 -2 -1 31 26 29
2.30450940132141113 -2 0 29 25 29
2.08191871643066406 -1 -2 32 24 30
2.36660504341125488 -1 -1 31 23 30
2.33704137802124023 -1 0 29 22 30
2.08387923240661621 0 -2 32 22 31
2.37395405769348145 0 -1 29 20 31
2.34963583946228027 0 0 27 20 30
2.01206064224243164 0 1 26 20 28
2.07080602645874023 1 -2 30 19 31
2.36745309829711914 1 -1 27 18 30
2.34972357749938965 1 0 24 18 29
2.01844215393066406 1 1 23 18 28
2.05070066452026367 2 -2 27 17 31
2.35529232025146484 2 -1 23 16 30
2.34554028511047363 2 0 21 16 29
2.02190136909484863 2 1 20 16 28
2.0320432186126709 3 -2 24 16 30
2.34604597091674805 3 -1 20 15 29
2.34561467170715332 3 0 17 15 28
2.03080010414123535 3 1 16 15 27
2.02318572998046875 4 -2 20 15 29
2.34802818298339844 4 -1 16 14 28
2.35810756683349609 4 0 14 14 27
2.05302715301513672 4 1 14 16 26
2.03161334991455078 5 -2 17 14 28
2.36854815483093262 5 -1 13 14 27
2.3900611400604248 5 0 13 16 26
2.09523177146911621 5 1 13 18 24
2.06314539909362793 6 -2 14 14 26
2.41314172744750977 6 -1 13 16 25
2.44664311408996582 6 0 13 18 24
2.16206121444702148 6 1 13 19 23
2.12117981910705566 7 -2 14 15 24
2.48487091064453125 7 -1 13 18 23
2.53047728538513184 7 0 13 20 22
2.25550103187561035 7 1 13 20 21
2.20607519149780273 8 -2 14 17 22
2.58376026153564453 8 -1 13 19 21
2.6411125659942627 8 0 13 20 20
2.37438106536865234 8 1 13 19 18
3 2 1 0
3 1 4 3
3 0 1 3
3 4 5 3
3 7 2 0
3 6 7 0
3 0 3 6
3 3 8 6
3 5 9 8
3 3 5 8
3 12 11 10
3 11 7 6
3 11 6 10
3 10 6 13
3 6 8 13
3 8 14 13
3 9 15 14
3 8 9 14
3 17 12 10
3 16 17 10
3 10 13 16
3 13 18 16
3 13 14 18
3 14 19 18
3 15 21 20
3 15 20 14
3 14 20 19
3 21 22 20
3 24 17 16
3 23 24 16
3 16 18 23
3 18 25 23
3 18 19 25
3 19 26 25
3 19 20 26
3 20 27 26
3 22 28 27
3 20 22 27
3 30 24 23
3 29 30 23
3 23 25 29
3 25 31 29
3 25 26 31
3 26 32 31
3 26 27 32
3 27 33 32
3 28 34 33
3 27 28 33
3 36 30 29
3 35 36 29
3 29 31 35
3 31 37 35
3 31 32 37
3 32 38 37
3 32 33 38
3 33 39 38
3 34 40 39
3 33 34 39
3 42 36 35
3 41 42 35
3 35 37 41
3 37 43 41
3 37 38 43
3 38 44 43
3 38 39 44
3 39 45 44
3 40 46 45
3 39 40 45
3 48 42 41
3 47 48 41
3 41 43 47
3 43 49 47
3 43 44 49
3 44 50 49
3 44 45 50
3 45 51 50
3 46 52 51
3 45 46 51
3 54 48 47
3 53 54 47
3 47 49 53
3 49 55 53
3 49 50 55
3 50 56 55
3 50 51 56
3 51 57 56
3 52 58 57
3 51 52 57
3 60 54 53
3 59 60 53
3 53 55 59
3 55 61 59
3 55 56 61
3 56 62 61
3 56 57 62
3 57 63 62
3 58 64 63
3 57 58 63
3 66 60 59
3 65 66 59
3 59 61 65
3 61 67 65
3 61 62 67
3 62 68 67
3 62 63 68
3 63 69 68
3 64 70 69
3 63 64 69
3 72 66 65
3 71 72 65
3 65 67 71
3 67 73 71
3 67 68 73
3 68 74 73
3 68 69 74
3 69 75 74
3 70 76 75
3 69 70 75
3 78 72 71
3 77 78 71
3 71 73 77
3 73 79 77
3 73 74 79
3 74 80 79
3 74 75 80
3 75 81 80
3 76 82 81
3 75 76 81
3 84 78 77
3 83 84 77
3 77 79 83
3 79 85 83
3 79 80 85
3 80 86 85
3 80 81 86
3 81 87 86
3 82 88 87
3 81 82 87
3 84 83 89
3 83 85 90
3 89 83 90
3 85 86 91
3 90 85 91
3 86 87 92
3 91 86 92
3 87 88 92
3 95 94 93
3 94 97 96
3 93 94 96
3 97 98 96
3 101 100 99
3 100 95 93
3 100 93 99
3 99 93 102
3 93 96 102
3 96 103 102
3 98 105 104
3 98 104 96
3 96 104 103
3 105 106 104
3 108 101 99
3 107 108 99
3 2 102 1
3 2 107 102
3 107 99 102
3 103 1 102
3 4 1 103
3 4 109 5
3 4 103 109
3 103 104 109
3 106 110 109
3 104 106 109
3 112 108 107
3 111 112 107
3 107 7 111
3 2 7 107
3 113 5 109
3 9 5 113
3 110 114 113
3 109 110 113
3 117 116 115
3 111 11 12
3 112 111 12
3 112 12 115
3 112 115 116
3 111 7 11
3 118 9 113
3 15 9 118
3 114 119 118
3 113 114 118
3 121 117 115
3 120 121 115
3 115 17 120
3 12 17 115
3 118 21 15
3 21 122 22
3 118 122 21
3 118 123 122
3 118 119 123
3 123 124 122
3 126 121 120
3 125 126 120
3 120 24 125
3 17 24 120
3 127 22 122
3 28 22 127
3 124 128 127
3 122 124 127
3 130 126 125
3 129 130 125
3 125 30 129
3 24 30 125
3 131 28 127
3 34 28 131
3 128 132 131
3 127 128 131
3 134 130 129
3 133 134 129
3 129 36 133
3 30 36 129
3 135 34 131
3 40 34 135
3 132 136 135
3 131 132 135
3 138 134 133
3 137 138 133
3 133 42 137
3 36 42 133
3 139 40 135
3 46 40 139
3 136 140 139
3 135 136 139
3 142 138 137
3 141 142 137
3 137 48 141
3 42 48 137
3 143 46 139
3 52 46 143
3 140 144 143
3 139 140 143
3 146 142 141
3 145 146 141
3 141 54 145
3 48 54 141
3 147 52 143
3 58 52 147
3 144 148 147
3 143 144 147
3 150 146 145
3 149 150 145
3 145 60 149
3 54 60 145
3 151 58 147
3 64 58 151
3 148 152 151
3 147 148 151
3 154 150 149
3 153 154 149
3 149 66 153
3 60 66 149
3 155 64 151
3 70 64 155
3 152 156 155
3 151 152 155
3 158 154 153
3 157 158 153
3 153 72 157
3 66 72 153
3 159 70 155
3 76 70 159
3 156 160 159
3 155 156 159
3 162 158 157
3 161 162 157
3 157 78 161
3 72 78 157
3 163 76 159
3 82 76 163
3 160 164 163
3 159 160 163
3 166 162 161
3 165 166 161
3 161 84 165
3 78 84 161
3 167 82 163
3 88 82 167
3 164 168 167
3 163 164 167
3 166 165 169
3 165 84 89
3 165 89 169
3 169 89 170
3 170 89 171
3 89 90 171
3 171 90 172
3 90 91 172
3 172 91 173
3 91 92 173
3 88 167 174
3 88 174 92
3 92 174 173
3 167 168 174
3 177 176 175
3 176 179 178
3 175 176 178
3 179 180 178
3 183 182 181
3 175 94 95
3 177 175 95
3 177 95 181
3 177 181 182
3 178 94 175
3 97 94 178
3 97 184 98
3 178 184 97
3 178 185 184
3 178 180 185
3 185 186 184
3 181 100 101
3 181 101 183
3 183 101 187
3 181 95 100
3 184 105 98
3 105 184 186
3 105 186 106
3 106 186 188
3 191 190 189
3 190 108 189
3 190 187 108
3 187 101 108
3 188 192 106
3 192 110 106
3 194 191 189
3 193 194 189
3 189 112 193
3 108 112 189
3 195 192 196
3 195 114 192
3 114 110 192
3 196 197 195
3 193 116 117
3 193 117 194
3 194 117 198
3 193 112 116
3 199 114 195
3 119 114 199
3 197 200 199
3 195 197 199
3 198 117 201
3 201 117 121
3 199 123 119
3 123 199 200
3 123 200 124
3 124 200 202
3 201 121 203
3 203 121 126
3 202 204 124
3 204 128 124
3 203 126 205
3 205 126 130
3 204 206 128
3 206 132 128
3 205 130 207
3 207 130 134
3 206 208 132
3 208 136 132
3 207 134 209
3 209 134 138
3 208 210 136
3 210 140 136
3 209 138 211
3 211 138 142
3 210 212 140
3 212 144 140
3 211 142 213
3 213 142 146
3 212 214 144
3 214 148 144
3 213 146 215
3 215 146 150
3 214 216 148
3 216 152 148
3 215 150 217
3 217 150 154
3 216 218 152
3 218 156 152
3 217 154 219
3 219 154 158
3 218 220 156
3 220 160 156
3 219 158 221
3 221 158 162
3 220 222 160
3 222 164 160
3 221 162 223
3 223 162 166
3 222 224 164
3 224 168 164
3 223 166 169
3 225 223 169
3 225 169 226
3 169 170 226
3 226 170 227
3 170 171 227
3 227 171 228
3 171 172 228
3 228 172 229
3 172 173 229
3 229 173 230
3 173 174 230
3 230 174 168
3 224 230 168
3 177 232 231
3 176 177 231
3 231 233 176
3 176 233 179
3 179 233 234
3 180 179 234
3 183 236 235
3 182 183 235
3 235 177 182
3 232 177 235
3 234 185 180
3 237 185 234
3 185 237 238
3 186 185 238
3 236 183 239
3 239 183 187
3 238 240 186
3 240 188 186
3 191 242 241
3 190 191 241
3 241 187 190
3 239 187 241
3 240 243 188
3 243 192 188
3 242 191 244
3 244 191 194
3 243 196 192
3 245 196 243
3 196 245 246
3 197 196 246
3 244 194 247
3 247 194 198
3 246 248 197
3 248 200 197
3 247 198 249
3 249 198 201
3 248 250 200
3 250 202 200
3 249 201 251
3 251 201 203
3 250 252 202
3 252 204 202
3 251 203 253
3 253 203 205
3 252 254 204
3 254 206 204
3 253 205 255
3 255 205 207
3 254 256 206
3 256 208 206
3 255 207 257
3 257 207 209
3 256 258 208
3 258 210 208
3 257 209 259
3 259 209 211
3 258 260 210
3 260 212 210
3 259 211 261
3 261 211 213
3 260 262 212
3 262 214 212
3 261 213 263
3 263 213 215
3 262 264 214
3 264 216 214
3 263 215 265
3 265 215 217
3 264 266 216
3 266 218 216
3 265 217 267
3 267 217 219
3 266 268 218
3 268 220 218
3 267 219 269
3 269 219 221
3 268 270 220
3 270 222 220
3 269 221 271
3 271 221 223
3 270 272 222
3 272 224 222
3 271 223 225
3 273 271 225
3 273 225 274
3 225 226 274
3 274 226 275
3 226 227 275
3 275 227 276
3 227 228 276
3 276 228 277
3 228 229 277
3 277 229 278
3 229 230 278
3 278 230 224
3 272 278 224
3 231 232 279
3 233 231 279
3 280 233 279
3 233 280 234
3 235 236 281
3 281 283 282
3 235 281 282
3 235 282 279
3 235 279 232
3 279 284 280
3 282 284 279
3 286 285 237
3 284 286 237
3 284 237 234
3 284 234 280
3 237 285 238
3 287 281 236
3 287 236 288
3 288 236 239
3 281 287 283
3 290 285 286
3 289 285 290
3 285 289 240
3 238 285 240
3 241 242 291
3 291 239 241
3 291 292 239
3 292 288 239
3 290 293 289
3 289 293 294
3 289 294 240
3 240 294 243
3 295 291 242
3 244 295 242
3 292 295 296
3 291 295 292
3 245 298 297
3 245 243 298
3 243 294 298
3 245 297 246
3 299 295 244
3 247 299 244
3 296 299 300
3 295 299 296
3 302 297 298
3 301 297 302
3 297 301 248
3 246 297 248
3 303 299 247
3 303 247 304
3 304 247 249
3 299 303 300
3 306 301 302
3 305 301 306
3 301 305 250
3 248 301 250
3 304 249 307
3 307 249 251
3 309 305 306
3 308 305 309
3 305 308 252
3 250 305 252
3 307 251 310
3 310 251 253
3 309 311 308
3 308 311 312
3 308 312 252
3 252 312 254
3 310 253 313
3 313 253 255
3 312 314 254
3 314 256 254
3 313 255 315
3 315 255 257
3 314 316 256
3 316 258 256
3 315 257 317
3 317 257 259
3 316 318 258
3 318 260 258
3 317 259 319
3 319 259 261
3 318 320 260
3 320 262 260
3 319 261 321
3 321 261 263
3 320 322 262
3 322 264 262
3 321 263 323
3 323 263 265
3 322 324 264
3 324 266 264
3 323 265 325
3 325 265 267
3 324 326 266
3 326 268 266
3 325 267 327
3 327 267 269
3 326 328 268
3 328 270 268
3 327 269 329
3 329 269 271
3 328 330 270
3 330 272 270
3 329 271 273
3 331 329 273
3 331 273 332
3 273 274 332
3 332 274 333
3 274 275 333
3 333 275 334
3 275 276 334
3 334 276 335
3 276 277 335
3 335 277 336
3 277 278 336
3 336 278 272
3 330 336 272
3 282 283 337
3 284 282 337
3 338 284 337
3 284 338 286
3 287 288 339
3 283 287 339
3 283 339 337
3 337 339 340
3 337 340 338
3 338 340 341
3 338 341 290
3 286 338 290
3 342 339 288
3 292 342 288
3 339 342 340
3 340 342 343
3 340 343 341
3 341 343 344
3 293 290 341
3 293 341 345
3 345 341 344
3 293 345 294
3 346 342 292
3 296 346 292
3 347 346 348
3 347 343 346
3 343 342 346
3 343 349 344
3 347 349 343
3 351 344 349
3 351 350 344
3 350 345 344
3 345 350 298
3 294 345 298
3 352 346 296
3 300 352 296
3 348 352 353
3 346 352 348
3 355 350 351
3 354 350 355
3 350 354 302
3 298 350 302
3 303 304 356
3 356 358 357
3 303 356 357
3 303 357 352
3 303 352 300
3 352 357 353
3 360 354 355
3 359 354 360
3 354 359 306
3 302 354 306
3 361 356 304
3 307 361 304
3 358 361 362
3 356 361 358
3 364 359 360
3 363 359 364
3 359 363 309
3 306 359 309
3 365 361 307
3 310 365 307
3 362 365 366
3 361 365 362
3 368 363 364
3 367 363 368
3 311 309 363
3 311 363 369
3 369 363 367
3 311 369 312
3 370 365 310
3 313 370 310
3 366 370 371
3 365 370 366
3 368 372 367
3 374 367 372
3 374 373 367
3 373 369 367
3 369 373 314
3 312 369 314
3 375 370 313
3 315 375 313
3 371 375 376
3 370 375 371
3 378 373 374
3 377 373 378
3 373 377 316
3 314 373 316
3 379 375 315
3 317 379 315
3 376 379 380
3 375 379 376
3 382 377 378
3 381 377 382
3 377 381 318
3 316 377 318
3 383 379 317
3 319 383 317
3 380 383 384
3 379 383 380
3 386 381 382
3 385 381 386
3 381 385 320
3 318 381 320
3 387 383 319
3 321 387 319
3 384 387 388
3 383 387 384
3 390 385 386
3 389 385 390
3 385 389 322
3 320 385 322
3 391 387 321
3 323 391 321
3 388 391 392
3 387 391 388
3 394 389 390
3 393 389 394
3 389 393 324
3 322 389 324
3 395 391 323
3 325 395 323
3 392 395 396
3 391 395 392
3 398 393 394
3 397 393 398
3 393 397 326
3 324 393 326
3 399 395 325
3 327 399 325
3 396 399 400
3 395 399 396
3 402 397 398
3 401 397 402
3 397 401 328
3 326 397 328
3 403 399 327
3 329 403 327
3 400 403 404
3 399 403 400
3 406 401 402
3 405 401 406
3 401 405 330
3 328 401 330
3 403 329 331
3 404 403 331
3 404 331 407
3 407 331 332
3 407 332 408
3 332 333 408
3 408 333 409
3 333 334 409
3 409 334 410
3 334 335 410
3 405 406 410
3 405 410 336
3 336 410 335
3 405 336 330
3 347 348 411
3 349 347 411
3 412 349 411
3 349 412 351
3 413 411 348
3 353 413 348
3 411 413 412
3 412 413 414
3 412 414 355
3 351 412 355
3 357 358 415
3 353 357 415
3 353 415 413
3 413 415 416
3 413 416 414
3 414 416 417
3 414 417 360
3 355 414 360
3 418 415 358
3 362 418 358
3 415 418 416
3 416 418 419
3 416 419 417
3 417 419 420
3 417 420 364
3 360 417 364
3 421 418 362
3 366 421 362
3 418 421 419
3 419 421 422
3 419 422 420
3 420 422 423
3 420 423 368
3 364 420 368
3 424 421 366
3 371 424 366
3 421 424 422
3 422 424 425
3 422 425 423
3 423 425 426
3 372 368 423
3 372 423 427
3 427 423 426
3 372 427 374
3 428 424 371
3 376 428 371
3 424 428 425
3 425 428 429
3 425 429 426
3 426 429 430
3 426 430 427
3 427 430 431
3 427 431 378
3 374 427 378
3 432 428 376
3 380 432 376
3 428 432 429
3 429 432 433
3 429 433 430
3 430 433 434
3 430 434 431
3 431 434 435
3 431 435 382
3 378 431 382
3 436 432 380
3 384 436 380
3 432 436 433
3 433 436 437
3 433 437 434
3 434 437 438
3 434 438 435
3 435 438 439
3 435 439 386
3 382 435 386
3 440 436 384
3 388 440 384
3 436 440 437
3 437 440 441
3 437 441 438
3 438 441 442
3 438 442 439
3 439 442 443
3 439 443 390
3 386 439 390
3 444 440 388
3 392 444 388
3 440 444 441
3 441 444 445
3 441 445 442
3 442 445 446
3 442 446 443
3 443 446 447
3 443 447 394
3 390 443 394
3 448 444 392
3 396 448 392
3 444 448 445
3 445 448 449
3 445 449 446
3 446 449 450
3 446 450 447
3 447 450 451
3 447 451 398
3 394 447 398
3 452 448 396
3 400 452 396
3 448 452 449
3 449 452 453
3 449 453 450
3 450 453 454
3 450 454 451
3 451 454 455
3 451 455 402
3 398 451 402
3 456 452 400
3 404 456 400
3 452 456 453
3 453 456 457
3 453 457 454
3 454 457 458
3 454 458 455
3 455 458 459
3 455 459 406
3 402 455 406
3 456 404 407
3 457 456 407
3 408 457 407
3 458 457 408
3 409 458 408
3 459 458 409
3 410 459 409
3 459 410 406
