ply
format ascii 1.0
element vertex 146
property float x
property float y
property float z
property uchar red
property uchar green
property uchar blue
element face 284
property list uchar int vertex_indices
end_header
4.9703059196472168 8 8 251 20 2
5 7.94364643096923828 8 250 83 10
5 8 7.97948884963989258 250 25 9
5 8 8.07487297058105469 254 45 11
5 8.07487297058105469 8 254 45 11
5.85524320602416992 6 8 244 116 10
6 5.60897970199584961 8 197 138 18
6 6 7.88446140289306641 242 122 19
6 6 8.31209754943847656 211 122 18
5.43983793258666992 7 8 250 83 10
6 7 7.55296421051025391 249 91 19
6 7 8.63315677642822266 225 99 19
6 8 7.18070173263549805 253 55 20
6 8 8.75628376007080078 237 69 21
6 8.75628376007080078 8 237 69 21
6.85035037994384766 -9 8 104 106 94
7 -9.34723758697509766 8 29 31 22
7 -9 7.8643946647644043 89 91 79
7 -9 8.34723758697509766 23 23 20
7 -8.24084377288818359 8 23 23 20
6.96716213226318359 2 8 155 154 22
7 1.81323027610778809 8 55 64 13
7 2 7.97024345397949219 139 141 24
7 2 8.10503101348876953 73 79 14
6.75360250473022461 3 8 168 154 20
7 3 7.77673006057739258 155 145 23
7 3 8.46579551696777344 95 95 15
6.49998998641967773 4 8 183 149 19
7 4 7.54694128036499023 170 143 22
7 4 8.63618755340576172 113 103 15
6.20485019683837891 5 8 197 138 18
7 5 7.27955150604248047 186 136 21
7 5 8.73281383514404297 132 106 16
6.97160625457763672 6 7 242 122 19
7 5.9129338264465332 7 186 136 21
7 6 6.97113990783691406 232 128 23
7 6 8.79374885559082031 152 103 17
6.60741043090820312 7 7 249 91 19
7 7 6.60096168518066406 241 101 24
7 7 8.83497238159179688 172 94 19
6.19848108291625977 8 7 253 55 20
7 8 6.18530750274658203 249 68 25
7 8 8.86429691314697266 192 77 22
7 8.73431396484375 7 230 76 25
7 8.86429691314697266 8 192 77 22
7.85247182846069336 -9 7 89 91 79
8 -9.36980724334716797 7 3 3 2
8 -9 6.83208465576171875 52 53 48
8 -9.81162071228027344 8 60 65 49
8 -9 8.81162071228027344 69 72 63
8 -8.16192531585693359 7 3 4 3
7.04425382614135742 -8 8 18 18 18
8 -8 7.03016901016235352 9 9 9
8 -8 8.78470230102539062 77 77 77
7.19298171997070312 -7 8 14 15 13
8 -7 7.18109226226806641 11 12 10
8 -7 8.75619888305664062 75 80 70
7.30619955062866211 -6 8 12 14 10
8 -6 7.29598045349121094 12 13 10
8 -6 8.72844028472900391 72 81 61
7.38454961776733398 -5 8 13 15 9
8 -5 7.37548589706420898 10 12 8
8 -5 8.70495223999023438 66 80 52
7.42846584320068359 -4 8 15 18 9
8 -4 7.42004966735839844 7 9 5
8 -4 8.68981552124023438 60 77 42
7.4381871223449707 -3 8 18 23 10
8 -3 7.42991447448730469 3 4 2
8 -3 8.68624210357666016 54 72 33
7.41376590728759766 -2 8 24 30 11
8 -2 7.40513324737548828 2 2 0
8 -2 8.69505977630615234 47 65 25
7.35507011413574219 -1 8 31 39 12
8 -1 7.34557199478149414 9 11 3
8 -1 8.71427536010742188 41 56 18
7.26177883148193359 0 8 42 51 13
8 0 7.25090408325195312 18 23 6
8 0 8.74009418487548828 34 45 12
7.13336992263793945 1 8 55 64 13
8 1 7.12060070037841797 30 36 7
8 1 8.76854038238525391 25 32 7
7.95685768127441406 2 7 139 141 24
8 1.72522401809692383 7 30 36 7
8 2 6.950897216796875 100 107 18
8 2 8.79657459259033203 14 16 3
7.76601839065551758 3 7 155 145 23
8 3 6.73367786407470703 123 121 18
8 3 8.82238960266113281 0 0 0
7.53940248489379883 4 7 170 143 22
8 4 6.47570991516113281 140 124 18
8 4 8.84519481658935547 20 20 2
7.27570009231567383 5 7 186 136 21
8 5 6.17548942565917969 157 123 18
8 5 8.86485195159912109 42 37 5
7.85837697982788086 6 6 232 128 23
8 5.51362848281860352 6 157 123 18
8 6 5.81660318374633789 207 128 21
8 6 8.88156318664550781 65 51 7
7.53122329711914062 7 6 241 101 24
8 7 5.39285707473754883 221 107 22
8 7 8.8956756591796875 90 58 10
7.82723569869995117 8 -9 55 74 3
8 7.51825666427612305 -9 89 181 9
8 8 -9.40698623657226562 106 230 11
8 8 -8.74694919586181641 102 160 8
7.93832540512084961 8 5 254 58 24
8 7.82804965972900391 5 221 107 22
8 8 4.90745687484741211 246 76 23
7.16381740570068359 8 6 249 68 25
8 8 8.90756797790527344 116 58 13
8 8.40698623657226562 -9 102 160 8
8 8.19769382476806641 5 233 79 23
8 8.76240730285644531 6 210 80 22
8 8.86521625518798828 7 172 75 19
8 8.90756797790527344 8 116 58 13
8.36980724334716797 -9 7 3 4 3
8.81162071228027344 -9 8 69 72 63
8.78470230102539062 -8 8 77 77 77
8.75619888305664062 -7 8 75 80 70
8.72844028472900391 -6 8 72 81 61
8.70495223999023438 -5 8 66 80 52
8.68981552124023438 -4 8 60 77 42
8.68624210357666016 -3 8 54 72 33
8.69505977630615234 -2 8 47 65 25
8.71427536010742188 -1 8 41 56 18
8.74009418487548828 0 8 34 45 12
8.76854038238525391 1 8 25 32 7
8.14714241027832031 2 7 46 52 9
8.79657459259033203 2 8 14 16 3
8.48093795776367188 3 7 67 69 10
8.82238960266113281 3 8 0 0 0
8.64319038391113281 4 7 88 82 12
8.84519481658935547 4 8 20 20 2
8.7365570068359375 5 7 108 90 13
8.86485195159912109 5 8 42 37 5
8.36040878295898438 6 6 175 116 19
8.79595088958740234 6 7 129 92 14
8.88156318664550781 6 8 65 51 7
8.64712238311767578 7 6 193 101 20
8.83635902404785156 7 7 151 87 16
8.8956756591796875 7 8 90 58 10
8.40698623657226562 8 -9 102 160 8
8.19769382476806641 8 5 233 79 23
8.76240730285644531 8 6 210 80 22
8.86521625518798828 8 7 172 75 19
8.90756797790527344 8 8 116 58 13
3 2 1 0
3 1 3 0
3 2 0 4
3 0 3 4
3 7 6 5
3 6 8 5
3 10 7 5
3 9 10 5
3 8 11 9
3 5 8 9
3 9 1 2
3 9 2 10
3 10 2 12
3 1 9 11
3 1 11 3
3 3 11 13
3 12 2 4
3 14 12 4
3 14 4 3
3 13 14 3
3 17 16 15
3 16 18 15
3 17 15 19
3 15 18 19
3 22 21 20
3 21 23 20
3 25 22 20
3 24 25 20
3 23 26 24
3 20 23 24
3 28 25 24
3 27 28 24
3 26 29 27
3 24 26 27
3 31 28 27
3 30 31 27
3 29 32 30
3 27 29 30
3 35 34 33
3 30 6 7
3 31 30 7
3 31 7 33
3 31 33 34
3 6 30 32
3 6 32 8
3 8 32 36
3 38 35 33
3 37 38 33
3 33 10 37
3 7 10 33
3 36 39 8
3 39 11 8
3 41 38 37
3 40 41 37
3 37 12 40
3 10 12 37
3 39 42 11
3 42 13 11
3 41 40 43
3 40 12 14
3 40 14 43
3 43 14 44
3 44 14 13
3 42 44 13
3 47 46 45
3 17 45 46
3 17 46 16
3 16 46 48
3 16 48 49
3 18 16 49
3 47 45 50
3 52 19 51
3 50 19 52
3 50 17 19
3 50 45 17
3 51 19 18
3 51 18 53
3 53 18 49
3 55 52 51
3 54 55 51
3 53 56 54
3 51 53 54
3 58 55 54
3 57 58 54
3 56 59 57
3 54 56 57
3 61 58 57
3 60 61 57
3 59 62 60
3 57 59 60
3 64 61 60
3 63 64 60
3 62 65 63
3 60 62 63
3 67 64 63
3 66 67 63
3 65 68 66
3 63 65 66
3 70 67 66
3 69 70 66
3 68 71 69
3 66 68 69
3 73 70 69
3 72 73 69
3 71 74 72
3 69 71 72
3 76 73 72
3 75 76 72
3 74 77 75
3 72 74 75
3 79 76 75
3 78 79 75
3 77 80 78
3 75 77 78
3 83 82 81
3 78 21 22
3 79 78 22
3 79 22 81
3 79 81 82
3 21 78 80
3 21 80 23
3 23 80 84
3 86 83 81
3 85 86 81
3 81 25 85
3 22 25 81
3 84 87 23
3 87 26 23
3 89 86 85
3 88 89 85
3 85 28 88
3 25 28 85
3 87 90 26
3 90 29 26
3 92 89 88
3 91 92 88
3 88 31 91
3 28 31 88
3 90 93 29
3 93 32 29
3 96 95 94
3 91 34 35
3 92 91 35
3 92 35 94
3 92 94 95
3 91 31 34
3 93 97 32
3 97 36 32
3 99 96 94
3 98 99 94
3 94 38 98
3 35 38 94
3 97 100 36
3 100 39 36
3 103 102 101
3 102 104 101
3 107 106 105
3 106 99 98
3 106 98 105
3 105 98 108
3 98 41 108
3 38 41 98
3 100 109 39
3 109 42 39
3 103 101 110
3 101 104 110
3 107 105 111
3 105 108 112
3 111 105 112
3 108 41 43
3 108 43 112
3 112 43 113
3 113 43 114
3 43 44 114
3 114 44 42
3 109 114 42
3 46 47 115
3 48 46 115
3 116 48 115
3 48 116 49
3 115 47 50
3 50 52 117
3 50 117 115
3 115 117 116
3 116 117 53
3 49 116 53
3 118 117 52
3 55 118 52
3 117 118 56
3 53 117 56
3 119 118 55
3 58 119 55
3 118 119 59
3 56 118 59
3 120 119 58
3 61 120 58
3 119 120 62
3 59 119 62
3 121 120 61
3 64 121 61
3 120 121 65
3 62 120 65
3 122 121 64
3 67 122 64
3 121 122 68
3 65 121 68
3 123 122 67
3 70 123 67
3 122 123 71
3 68 122 71
3 124 123 70
3 73 124 70
3 123 124 74
3 71 123 74
3 125 124 73
3 76 125 73
3 124 125 77
3 74 124 77
3 126 125 76
3 79 126 76
3 125 126 80
3 77 125 80
3 82 83 127
3 79 82 127
3 79 127 126
3 126 127 128
3 126 128 84
3 80 126 84
3 129 127 83
3 86 129 83
3 127 129 128
3 128 129 130
3 128 130 87
3 84 128 87
3 131 129 86
3 89 131 86
3 129 131 130
3 130 131 132
3 130 132 90
3 87 130 90
3 133 131 89
3 92 133 89
3 131 133 132
3 132 133 134
3 132 134 93
3 90 132 93
3 95 96 135
3 92 95 135
3 92 135 133
3 133 135 136
3 133 136 134
3 134 136 137
3 134 137 97
3 93 134 97
3 138 135 96
3 99 138 96
3 135 138 136
3 136 138 139
3 136 139 137
3 137 139 140
3 137 140 100
3 97 137 100
3 102 103 141
3 102 141 104
3 106 107 142
3 99 106 142
3 99 142 138
3 138 142 143
3 138 143 139
3 139 143 144
3 139 144 140
3 140 144 145
3 140 145 109
3 100 140 109
3 141 103 110
3 141 110 104
3 142 107 111
3 143 142 111
3 112 143 111
3 144 143 112
3 113 144 112
3 145 144 113
3 114 145 113
3 145 114 109
