ply
format ascii 1.0
element vertex 448
property float x
property float y
property float z
property uchar red
property uchar green
property uchar blue
element face 880
property list uchar int vertex_indices
end_header
-9.71939373016357422 -9 -9 0 0 0
-9 -9.71939373016357422 -9 0 1 1
-9 -9 -9.71939373016357422 1 1 3
-9 -9 -8.66419124603271484 1 1 2
-9.78956794738769531 -9 8 27 23 15
-9 -9.78956794738769531 8 17 25 12
-9 -9 7.51041412353515625 22 16 12
-9 -9 8.78956794738769531 24 17 13
-9.6964874267578125 -8 -9 0 0 0
-9 -8 -9.6964874267578125 4 2 4
-9 -8 -8.70050144195556641 3 1 3
-9.77717781066894531 -8 8 26 21 16
-9 -8 7.54657220840454102 15 22 12
-9 -8 8.77717781066894531 23 22 14
-9.67554187774658203 -7 -9 0 0 0
-9 -7 -9.67554187774658203 5 3 4
-9 -7 -8.72902870178222656 3 2 2
-9.76629447937011719 -7 8 20 26 17
-9 -7 7.57497453689575195 13 21 19
-9 -7 8.76629447937011719 15 22 15
-9.65825271606445312 -6 -9 1 0 0
-9 -6 -9.65825271606445312 6 4 4
-9 -6 -8.74983692169189453 4 3 3
-9.75761508941650391 -6 8 18 25 23
-9 -6 7.5956883430480957 14 15 20
-9 -6 8.75761508941650391 15 21 22
-9.6463165283203125 -5 -9 2 1 1
-9 -5 -9.6463165283203125 6 5 5
-9 -5 -8.76297092437744141 5 3 3
-9.75177669525146484 -5 8 19 21 24
-9 -5 7.60876178741455078 17 15 19
-9 -5 8.75177669525146484 16 17 21
-9.64106655120849609 -4 -9 2 2 2
-9 -4 -9.64106655120849609 7 5 6
-9 -4 -8.76846027374267578 5 4 4
-9.74924755096435547 -4 8 21 20 24
-9 -4 7.61422491073608398 19 15 18
-9 -4 8.74924755096435547 19 17 20
-9.64313602447509766 -3 -9 3 2 2
-9 -3 -9.64313602447509766 7 6 7
-9 -3 -8.76631641387939453 6 5 5
-9.75024223327636719 -3 8 23 21 23
-9 -3 7.61209011077880859 18 16 17
-9 -3 8.75024223327636719 20 18 20
-9.65227127075195312 -2 -9 3 3 3
-9 -2 -9.65227127075195312 8 7 8
-9 -2 -8.75653553009033203 6 6 6
-9.75467586517333984 -2 8 23 22 22
-9 -2 7.60235261917114258 18 16 17
-9 -2 8.75467586517333984 19 18 19
-9.66740989685058594 -1 -9 4 3 4
-9 -1 -9.66740989685058594 8 8 8
-9 -1 -8.73909568786621094 7 6 7
-9.76218128204345703 -1 8 22 22 22
-9 -1 7.58499002456665039 17 17 17
-9 -1 8.76218128204345703 19 19 19
-9.68443393707275391 0 -9 4 4 4
-9 0 -9.68443393707275391 9 9 9
-9 0 -8.7163543701171875 7 7 7
-9.77218437194824219 0 8 22 21 21
-9 0 7.55996227264404297 17 16 16
-9 0 8.77218437194824219 19 18 18
-9.67155265808105469 1 -9 4 4 4
-9 1 -9.67155265808105469 9 9 9
-9 1 -8.73059272766113281 7 7 8
-9.78400039672851562 1 8 22 19 20
-9 1 7.52721071243286133 17 15 15
-9 1 8.78400039672851562 18 16 16
-9.66485977172851562 2 -9 5 5 5
-9 2 -9.66485977172851562 9 9 9
-9 2 -8.73881435394287109 8 8 8
-9.79693984985351562 2 8 21 18 18
-9 2 7.48665714263916016 16 14 14
-9 2 8.79693984985351562 18 15 15
-9.66517925262451172 3 -9 5 5 5
-9 3 -9.66517925262451172 10 10 10
-9 3 -8.73842906951904297 8 8 8
-9.81038475036621094 3 8 21 17 17
-9 3 7.43820285797119141 16 13 13
-9 3 8.81038475036621094 18 14 14
-9.67247104644775391 4 -9 5 5 5
-9 4 -9.67247104644775391 10 10 10
-9 4 -8.72943687438964844 8 8 8
-9.82382774353027344 4 8 21 16 16
-9 4 7.38172674179077148 16 12 12
-9 4 8.82382774353027344 18 13 13
-9.68584251403808594 5 -9 5 5 5
-9 5 -9.68584251403808594 10 10 10
-9 5 -8.71181488037109375 8 8 8
-9.83689212799072266 5 8 21 15 15
-9 5 7.31708383560180664 16 12 12
-9 5 8.83689212799072266 18 12 13
-9.70380783081054688 6 -9 5 5 5
-9 6 -9.70380783081054688 10 10 10
-9 6 -8.68552017211914062 8 8 8
-9.84932136535644531 6 8 21 14 15
-9 6 7.24410343170166016 16 11 11
-9 6 8.84932136535644531 18 12 12
-9.72465610504150391 7 -9 5 5 5
-9 7 -9.72465610504150391 10 10 10
-9 7 -8.65048694610595703 8 8 8
-9.85898494720458984 7 8 21 13 14
-9 7 7.19900655746459961 16 11 11
-9 7 8.85898494720458984 18 11 12
-9.74679279327392578 8 -9 5 5 5
-9 8 -9.74679279327392578 10 10 10
-9 8 -8.60662460327148438 8 8 8
-9.86472606658935547 8 8 21 13 14
-9 8 7.15554141998291016 16 11 11
-9 8 8.86472606658935547 18 11 12
-9 8.74679279327392578 -9 8 8 8
-9 8.86472606658935547 8 18 11 12
-8.64443397521972656 -9 -9 1 1 2
-8.47098922729492188 -9 8 24 17 13
-8.68288612365722656 -8 -9 3 1 3
-8.51006889343261719 -8 8 23 22 14
-8.71309471130371094 -7 -9 3 2 2
-8.54076480865478516 -7 8 15 22 15
-8.73512840270996094 -6 -9 4 3 3
-8.56315135955810547 -6 8 15 21 22
-8.74903583526611328 -5 -9 5 3 3
-8.57728004455566406 -5 8 16 17 21
-8.75484848022460938 -4 -9 5 4 4
-8.58318328857421875 -4 8 19 17 20
-8.7525787353515625 -3 -9 6 5 5
-8.58087635040283203 -3 8 20 18 20
-8.74222087860107422 -2 -9 6 6 6
-8.57035255432128906 -2 8 19 18 19
-8.72375392913818359 -1 -9 7 6 7
-8.55158805847167969 -1 8 19 19 19
-8.70304584503173828 0 -9 7 7 7
-8.52453899383544922 0 8 19 18 18
-8.72052478790283203 1 -9 7 7 8
-8.48914051055908203 1 8 18 16 16
-8.72905349731445312 2 -9 8 8 8
-8.44530868530273438 2 8 18 15 15
-8.72865486145019531 3 -9 8 8 8
-8.39293384552001953 3 8 18 14 14
-8.71932601928710938 4 -9 8 8 8
-8.33188533782958984 4 8 18 13 13
-8.70104408264160156 5 -9 8 8 8
-8.26200389862060547 5 8 18 12 13
-8.67376422882080078 6 -9 8 8 8
-8.18310356140136719 6 8 18 12 12
-8.63741779327392578 7 -9 8 8 8
-8.11780452728271484 7 8 18 11 12
-8.59191131591796875 8 -9 8 8 8
-8.06990528106689453 8 8 18 11 12
6.64865970611572266 -9 -9 34 50 34
7 -9.71693801879882812 -9 52 34 34
7 -9 -9.71693801879882812 54 55 40
7 -9 -8.66837692260742188 48 53 38
6.47521877288818359 -9 8 17 23 20
7 -9.78820419311523438 8 18 19 25
7 -9 7.51461458206176758 21 28 24
7 -9 8.78820419311523438 20 26 26
6.68711280822753906 -8 -9 38 48 51
7 -8 -9.69360542297363281 44 55 48
7 -8 -8.70466709136962891 42 54 49
6.51429986953735352 -8 8 22 24 19
7 -8 7.55075216293334961 27 29 23
7 -8 8.77564334869384766 23 27 23
6.71732139587402344 -7 -9 44 42 52
7 -7 -9.6722412109375 48 53 56
7 -7 -8.73317813873291016 46 49 55
6.54499626159667969 -7 8 25 23 21
7 -7 7.57913732528686523 29 27 26
7 -7 8.7646026611328125 28 28 25
6.73935365676879883 -6 -9 52 46 52
7 -6 -9.65458583831787109 54 52 57
7 -6 -8.75397205352783203 53 50 55
6.56738090515136719 -6 8 25 25 24
7 -6 7.5998377799987793 30 30 28
7 -6 8.75579261779785156 29 28 28
6.75325870513916016 -5 -9 53 49 51
7 -5 -9.64238643646240234 58 57 58
7 -5 -8.76709556579589844 56 54 56
6.58150720596313477 -5 8 26 26 26
7 -5 7.61290073394775391 31 31 31
7 -5 8.74986457824707031 29 29 28
6.75906705856323242 -4 -9 54 53 53
7 -4 -9.63702106475830078 58 56 57
7 -4 -8.77257728576660156 57 55 56
6.58740663528442383 -4 8 25 27 26
7 -4 7.61835670471191406 29 31 31
7 -4 8.74729728698730469 28 30 27
6.75679206848144531 -3 -9 54 51 51
7 -3 -9.63914299011230469 59 53 54
7 -3 -8.77042961120605469 57 52 53
6.58509397506713867 -3 8 24 26 27
7 -3 7.61621761322021484 28 31 32
7 -3 8.74831008911132812 26 30 28
6.74642801284790039 -2 -9 55 48 48
7 -2 -9.64848899841308594 59 50 50
7 -2 -8.76064777374267578 58 49 49
6.57456398010253906 -2 8 23 24 28
7 -2 7.60647964477539062 26 27 32
7 -2 8.75281620025634766 24 29 31
6.72795248031616211 -1 -9 55 46 46
7 -1 -9.66396236419677734 60 47 47
7 -1 -8.74321079254150391 58 46 46
6.55579137802124023 -1 8 23 22 28
7 -1 7.58911943435668945 28 25 33
7 -1 8.76043987274169922 23 25 31
6.71404075622558594 0 -9 55 44 47
7 0 -9.67613124847412109 60 45 46
7 0 -8.72527599334716797 58 44 45
6.5287322998046875 0 8 25 20 28
7 0 7.56409740447998047 30 24 33
7 0 8.77059268951416016 23 22 32
6.73153448104858398 1 -9 56 44 51
7 1 -9.66252708435058594 60 45 48
7 1 -8.74159908294677734 59 44 48
6.49332380294799805 1 8 28 19 29
7 1 7.53135442733764648 33 22 34
7 1 8.78257656097412109 25 20 32
6.74007368087768555 2 -9 56 44 56
7 2 -9.65544414520263672 61 45 53
7 2 -8.74981784820556641 59 45 53
6.44947957992553711 2 8 29 18 29
7 2 7.49081325531005859 34 21 32
7 2 8.79569053649902344 27 19 32
6.73967981338500977 3 -9 51 44 56
7 3 -9.6557769775390625 61 46 58
7 3 -8.74943923950195312 59 45 58
6.39709234237670898 3 8 29 17 27
7 3 7.44237518310546875 34 20 31
7 3 8.80930233001708984 28 18 32
6.73035192489624023 4 -9 47 44 56
7 4 -9.66348361968994141 59 46 61
7 4 -8.74046134948730469 56 45 59
6.33603000640869141 4 8 29 16 27
7 4 7.38591909408569336 34 18 30
7 4 8.82290077209472656 28 17 32
6.712066650390625 5 -9 45 46 56
7 5 -9.67759513854980469 55 46 61
7 5 -8.72286319732666016 51 45 59
6.26613473892211914 5 8 29 15 27
7 5 7.32130002975463867 34 17 30
7 5 8.83610439300537109 28 16 33
6.68477916717529297 6 -9 45 50 56
7 6 -9.69650459289550781 51 46 61
7 6 -8.69660091400146484 48 45 59
6.18721961975097656 6 8 29 14 28
7 6 7.25003862380981445 34 16 32
7 6 8.84865474700927734 26 15 33
6.64842081069946289 7 -9 45 52 56
7 7 -9.71837711334228516 49 46 61
7 7 -8.66160964965820312 46 45 59
6.12857580184936523 7 8 29 14 28
7 7 7.20999288558959961 34 16 30
7 7 8.85744667053222656 25 14 33
6.60289907455444336 8 -9 45 52 56
7 8 -9.74151515960693359 48 46 61
7 8 -8.61780071258544922 45 45 59
6.08066701889038086 8 8 29 14 27
7 8 7.16658639907836914 34 16 29
7 8 8.86331748962402344 26 14 32
7 8.74151515960693359 -9 45 45 59
7 8.86331748962402344 8 26 14 32
8 -9.90806388854980469 -9 55 50 38
8 -9 -9.90806388854980469 58 48 44
7.62540578842163086 -9 -8 43 52 36
8 -9.75354766845703125 -8 54 45 36
8 -9 -7.53568649291992188 55 52 40
7.49044227600097656 -9 7 21 28 24
8 -9.80389881134033203 7 22 23 30
8 -9 6.38260412216186523 25 33 28
8 -9.91617107391357422 8 23 21 28
8 -9 8.91617107391357422 24 27 29
8 -8 -9.90600395202636719 53 59 48
7.65934991836547852 -8 -8 40 52 50
8 -8 -7.57778501510620117 44 56 45
7.52487516403198242 -8 7 27 29 23
8 -8 6.42435407638549805 31 33 28
8 -8 8.91449546813964844 26 30 29
8 -7 -9.90430641174316406 53 59 58
7.68601560592651367 -7 -8 44 45 53
8 -7 -7.61085367202758789 49 55 56
7.55192041397094727 -7 7 29 27 26
8 -7 6.45714378356933594 34 32 31
8 -7 8.91312217712402344 30 31 29
8 -6 -9.90302371978759766 57 58 60
7.70546388626098633 -6 -8 52 48 54
8 -6 -7.63496971130371094 53 53 57
7.57164287567138672 -6 7 30 30 28
8 -6 6.48105382919311523 35 35 34
8 -6 8.91208648681640625 32 32 32
8 -5 -9.90219211578369141 60 60 61
7.71773815155029297 -5 -8 55 52 54
8 -5 -7.65018892288208008 58 57 58
7.58408880233764648 -5 7 31 31 31
8 -5 6.49614095687866211 35 36 35
8 -5 8.91141796112060547 32 31 30
8 -4 -9.9018402099609375 61 56 61
7.72286510467529297 -4 -8 55 54 55
8 -4 -7.65654563903808594 58 55 57
7.58928680419921875 -4 7 29 31 31
8 -4 6.50244235992431641 33 36 35
8 -4 8.91113471984863281 33 33 29
8 -3 -9.90197849273681641 62 53 58
7.7208561897277832 -3 -8 56 52 52
8 -3 -7.65405464172363281 59 52 54
7.5872492790222168 -3 7 28 31 32
8 -3 6.49997186660766602 31 35 37
8 -3 8.91124629974365234 28 33 27
8 -2 -9.90260219573974609 62 50 53
7.71170711517333984 -2 -8 56 49 49
8 -2 -7.64271068572998047 59 49 50
7.57797098159790039 -2 7 26 27 32
8 -2 6.4887242317199707 30 30 37
8 -2 8.91174793243408203 26 34 30
8 -1 -9.90369224548339844 63 47 49
7.69539785385131836 -1 -8 57 46 46
8 -1 -7.62248754501342773 60 47 47
7.56143045425415039 -1 7 28 25 33
8 -1 6.46867275238037109 32 28 38
8 -1 8.91262626647949219 24 34 34
8 0 -9.90500926971435547 63 45 45
7.67189216613769531 0 -8 57 43 44
8 0 -7.5933384895324707 60 44 44
7.53758955001831055 0 7 30 24 33
8 0 6.43976879119873047 35 26 38
8 0 8.91385650634765625 23 29 35
8 1 -9.90400314331054688 63 45 46
7.68168306350708008 1 -8 57 43 48
8 1 -7.59652137756347656 60 43 45
7.50639200210571289 1 7 33 22 34
8 1 6.40194272994995117 38 25 38
8 1 8.9154052734375 21 24 35
8 2 -9.90350341796875 64 45 49
7.68923425674438477 2 -8 58 43 52
8 2 -7.60609817504882812 61 43 48
7.46776247024536133 2 7 34 21 32
8 2 6.35510158538818359 39 23 37
8 2 8.91723155975341797 20 20 35
8 3 -9.90352630615234375 64 45 53
7.68888616561889648 3 -8 58 44 58
8 3 -7.60565710067749023 61 44 53
7.42160701751708984 3 7 34 20 31
8 3 6.29912757873535156 39 22 35
8 3 8.91929340362548828 21 19 36
8 4 -9.90407180786132812 64 45 58
7.68063831329345703 4 -8 53 44 58
8 4 -7.59519624710083008 61 44 58
7.36780881881713867 4 7 34 18 30
8 4 6.23387622833251953 39 20 34
8 4 8.92154312133789062 21 18 36
8 5 -9.905120849609375 64 46 62
7.66446971893310547 5 -8 49 44 58
8 5 -7.57468891143798828 60 44 61
7.30623006820678711 5 7 34 17 30
8 5 6.15917539596557617 39 19 35
8 5 8.92393684387207031 19 16 36
8 6 -9.90663719177246094 63 46 64
7.64034080505371094 6 -8 46 44 58
8 6 -7.5440826416015625 57 44 61
7.23834228515625 6 7 34 16 32
8 6 6.09647274017333984 39 18 34
8 6 8.92643070220947266 16 15 36
8 7 -9.90857219696044922 61 46 64
7.60819005966186523 7 -8 44 45 58
8 7 -7.50329685211181641 54 44 61
7.20374011993408203 7 7 34 16 30
8 7 6.05611133575439453 39 18 32
8 7 8.92853641510009766 15 16 36
8 8 -9.91086387634277344 60 46 64
7.56793451309204102 8 -8 44 46 58
8 8 -7.45222282409667969 53 44 61
7.16162776947021484 8 7 34 16 29
8 8 6.00613784790039062 39 18 31
8 8 8.92986392974853516 15 15 36
8 8.91086387634277344 -9 56 45 62
8 8.77913856506347656 -8 53 44 61
8 8.86752796173095703 7 33 17 37
8 8.92986392974853516 8 15 15 36
8.90806388854980469 -9 -9 56 51 42
8.75354766845703125 -9 -8 55 52 40
8.80389881134033203 -9 7 24 31 31
8.91617107391357422 -9 8 24 27 29
8.90600395202636719 -8 -9 48 57 46
8.73618984222412109 -8 -8 44 56 45
8.79324245452880859 -8 7 27 32 27
8.91449546813964844 -8 8 26 30 29
8.90430641174316406 -7 -9 51 58 58
8.72062873840332031 -7 -8 49 55 56
8.78395748138427734 -7 7 33 32 30
8.91312217712402344 -7 8 30 31 29
8.90302371978759766 -6 -9 55 55 59
8.70800399780273438 -6 -8 53 53 57
8.77660369873046875 -6 7 33 33 33
8.91208648681640625 -6 8 32 32 32
8.90219211578369141 -5 -9 59 59 59
8.69940185546875 -5 -8 58 57 58
8.77168178558349609 -5 7 34 34 32
8.91141796112060547 -5 8 32 31 30
8.9018402099609375 -4 -9 60 56 59
8.69564914703369141 -4 -8 58 55 57
8.76955699920654297 -4 7 31 35 31
8.91113471984863281 -4 8 33 33 29
8.90197849273681641 -3 -9 60 53 56
8.69713115692138672 -3 -8 59 52 54
8.77039432525634766 -3 7 29 35 33
8.91124629974365234 -3 8 28 33 27
8.90260219573974609 -2 -9 61 50 52
8.70369434356689453 -2 -8 59 49 50
8.77412986755371094 -2 7 28 34 36
8.91174793243408203 -2 8 26 34 30
8.90369224548339844 -1 -9 61 47 48
8.71468448638916016 -1 -8 60 47 47
8.78047752380371094 -1 7 26 29 36
8.91262626647949219 -1 8 24 34 34
8.90500926971435547 0 -9 62 44 44
8.72910404205322266 0 -8 60 44 44
8.7889862060546875 0 7 26 25 36
8.91385650634765625 0 8 23 29 35
8.90400314331054688 1 -9 62 44 45
8.72459220886230469 1 -8 60 43 45
8.79911327362060547 1 7 29 23 37
8.9154052734375 1 8 21 24 35
8.90350341796875 2 -9 62 44 49
8.71993827819824219 2 -8 61 43 48
8.81029796600341797 2 7 31 22 37
8.91723155975341797 2 8 20 20 35
8.90352630615234375 3 -9 62 45 53
8.72015666961669922 3 -8 61 44 53
8.82202625274658203 3 7 33 20 37
8.91929340362548828 3 8 21 19 36
8.90407180786132812 4 -9 63 45 58
8.72522258758544922 4 -8 61 44 58
8.8338623046875 4 7 33 19 37
8.92154312133789062 4 8 21 18 36
8.905120849609375 5 -9 63 45 62
8.73461627960205078 5 -8 60 44 61
8.84547233581542969 5 7 32 18 37
8.92393684387207031 5 8 19 16 36
8.90663719177246094 6 -9 59 45 63
8.74744415283203125 6 -8 57 44 61
8.85661697387695312 6 7 30 17 37
8.92643070220947266 6 8 16 15 36
8.90857219696044922 7 -9 57 45 63
8.76263713836669922 7 -8 54 44 61
8.86204242706298828 7 7 32 16 37
8.92853641510009766 7 8 15 16 36
8.91086387634277344 8 -9 56 45 62
8.77913856506347656 8 -8 53 44 61
8.86752796173095703 8 7 33 17 37
8.92986392974853516 8 8 15 15 36
3 2 1 0
3 1 3 0
3 6 5 4
3 5 7 4
3 9 2 0
3 8 9 0
3 3 10 8
3 0 3 8
3 12 6 4
3 11 12 4
3 7 13 11
3 4 7 11
3 15 9 8
3 14 15 8
3 10 16 14
3 8 10 14
3 18 12 11
3 17 18 11
3 13 19 17
3 11 13 17
3 21 15 14
3 20 21 14
3 16 22 20
3 14 16 20
3 24 18 17
3 23 24 17
3 19 25 23
3 17 19 23
3 27 21 20
3 26 27 20
3 22 28 26
3 20 22 26
3 30 24 23
3 29 30 23
3 25 31 29
3 23 25 29
3 33 27 26
3 32 33 26
3 28 34 32
3 26 28 32
3 36 30 29
3 35 36 29
3 31 37 35
3 29 31 35
3 39 33 32
3 38 39 32
3 34 40 38
3 32 34 38
3 42 36 35
3 41 42 35
3 37 43 41
3 35 37 41
3 45 39 38
3 44 45 38
3 40 46 44
3 38 40 44
3 48 42 41
3 47 48 41
3 43 49 47
3 41 43 47
3 51 45 44
3 50 51 44
3 46 52 50
3 44 46 50
3 54 48 47
3 53 54 47
3 49 55 53
3 47 49 53
3 57 51 50
3 56 57 50
3 52 58 56
3 50 52 56
3 60 54 53
3 59 60 53
3 55 61 59
3 53 55 59
3 63 57 56
3 62 63 56
3 58 64 62
3 56 58 62
3 66 60 59
3 65 66 59
3 61 67 65
3 59 61 65
3 69 63 62
3 68 69 62
3 64 70 68
3 62 64 68
3 72 66 65
3 71 72 65
3 67 73 71
3 65 67 71
3 75 69 68
3 74 75 68
3 70 76 74
3 68 70 74
3 78 72 71
3 77 78 71
3 73 79 77
3 71 73 77
3 81 75 74
3 80 81 74
3 76 82 80
3 74 76 80
3 84 78 77
3 83 84 77
3 79 85 83
3 77 79 83
3 87 81 80
3 86 87 80
3 82 88 86
3 80 82 86
3 90 84 83
3 89 90 83
3 85 91 89
3 83 85 89
3 93 87 86
3 92 93 86
3 88 94 92
3 86 88 92
3 96 90 89
3 95 96 89
3 91 97 95
3 89 91 95
3 99 93 92
3 98 99 92
3 94 100 98
3 92 94 98
3 102 96 95
3 101 102 95
3 97 103 101
3 95 97 101
3 105 99 98
3 104 105 98
3 100 106 104
3 98 100 104
3 108 102 101
3 107 108 101
3 103 109 107
3 101 103 107
3 105 104 110
3 104 106 110
3 108 107 111
3 107 109 111
3 1 2 112
3 1 112 3
3 5 6 113
3 5 113 7
3 114 112 2
3 9 114 2
3 112 114 10
3 3 112 10
3 115 113 6
3 12 115 6
3 113 115 13
3 7 113 13
3 116 114 9
3 15 116 9
3 114 116 16
3 10 114 16
3 117 115 12
3 18 117 12
3 115 117 19
3 13 115 19
3 118 116 15
3 21 118 15
3 116 118 22
3 16 116 22
3 119 117 18
3 24 119 18
3 117 119 25
3 19 117 25
3 120 118 21
3 27 120 21
3 118 120 28
3 22 118 28
3 121 119 24
3 30 121 24
3 119 121 31
3 25 119 31
3 122 120 27
3 33 122 27
3 120 122 34
3 28 120 34
3 123 121 30
3 36 123 30
3 121 123 37
3 31 121 37
3 124 122 33
3 39 124 33
3 122 124 40
3 34 122 40
3 125 123 36
3 42 125 36
3 123 125 43
3 37 123 43
3 126 124 39
3 45 126 39
3 124 126 46
3 40 124 46
3 127 125 42
3 48 127 42
3 125 127 49
3 43 125 49
3 128 126 45
3 51 128 45
3 126 128 52
3 46 126 52
3 129 127 48
3 54 129 48
3 127 129 55
3 49 127 55
3 130 128 51
3 57 130 51
3 128 130 58
3 52 128 58
3 131 129 54
3 60 131 54
3 129 131 61
3 55 129 61
3 132 130 57
3 63 132 57
3 130 132 64
3 58 130 64
3 133 131 60
3 66 133 60
3 131 133 67
3 61 131 67
3 134 132 63
3 69 134 63
3 132 134 70
3 64 132 70
3 135 133 66
3 72 135 66
3 133 135 73
3 67 133 73
3 136 134 69
3 75 136 69
3 134 136 76
3 70 134 76
3 137 135 72
3 78 137 72
3 135 137 79
3 73 135 79
3 138 136 75
3 81 138 75
3 136 138 82
3 76 136 82
3 139 137 78
3 84 139 78
3 137 139 85
3 79 137 85
3 140 138 81
3 87 140 81
3 138 140 88
3 82 138 88
3 141 139 84
3 90 141 84
3 139 141 91
3 85 139 91
3 142 140 87
3 93 142 87
3 140 142 94
3 88 140 94
3 143 141 90
3 96 143 90
3 141 143 97
3 91 141 97
3 144 142 93
3 99 144 93
3 142 144 100
3 94 142 100
3 145 143 96
3 102 145 96
3 143 145 103
3 97 143 103
3 146 144 99
3 105 146 99
3 144 146 106
3 100 144 106
3 147 145 102
3 108 147 102
3 145 147 109
3 103 145 109
3 146 105 110
3 146 110 106
3 147 108 111
3 147 111 109
3 150 149 148
3 149 151 148
3 154 153 152
3 153 155 152
3 157 150 148
3 156 157 148
3 151 158 156
3 148 151 156
3 160 154 152
3 159 160 152
3 155 161 159
3 152 155 159
3 163 157 156
3 162 163 156
3 158 164 162
3 156 158 162
3 166 160 159
3 165 166 159
3 161 167 165
3 159 161 165
3 169 163 162
3 168 169 162
3 164 170 168
3 162 164 168
3 172 166 165
3 171 172 165
3 167 173 171
3 165 167 171
3 175 169 168
3 174 175 168
3 170 176 174
3 168 170 174
3 178 172 171
3 177 178 171
3 173 179 177
3 171 173 177
3 181 175 174
3 180 181 174
3 176 182 180
3 174 176 180
3 184 178 177
3 183 184 177
3 179 185 183
3 177 179 183
3 187 181 180
3 186 187 180
3 182 188 186
3 180 182 186
3 190 184 183
3 189 190 183
3 185 191 189
3 183 185 189
3 193 187 186
3 192 193 186
3 188 194 192
3 186 188 192
3 196 190 189
3 195 196 189
3 191 197 195
3 189 191 195
3 199 193 192
3 198 199 192
3 194 200 198
3 192 194 198
3 202 196 195
3 201 202 195
3 197 203 201
3 195 197 201
3 205 199 198
3 204 205 198
3 200 206 204
3 198 200 204
3 208 202 201
3 207 208 201
3 203 209 207
3 201 203 207
3 211 205 204
3 210 211 204
3 206 212 210
3 204 206 210
3 214 208 207
3 213 214 207
3 209 215 213
3 207 209 213
3 217 211 210
3 216 217 210
3 212 218 216
3 210 212 216
3 220 214 213
3 219 220 213
3 215 221 219
3 213 215 219
3 223 217 216
3 222 223 216
3 218 224 222
3 216 218 222
3 226 220 219
3 225 226 219
3 221 227 225
3 219 221 225
3 229 223 222
3 228 229 222
3 224 230 228
3 222 224 228
3 232 226 225
3 231 232 225
3 227 233 231
3 225 227 231
3 235 229 228
3 234 235 228
3 230 236 234
3 228 230 234
3 238 232 231
3 237 238 231
3 233 239 237
3 231 233 237
3 241 235 234
3 240 241 234
3 236 242 240
3 234 236 240
3 244 238 237
3 243 244 237
3 239 245 243
3 237 239 243
3 247 241 240
3 246 247 240
3 242 248 246
3 240 242 246
3 250 244 243
3 249 250 243
3 245 251 249
3 243 245 249
3 253 247 246
3 252 253 246
3 248 254 252
3 246 248 252
3 256 250 249
3 255 256 249
3 251 257 255
3 249 251 255
3 253 252 258
3 252 254 258
3 256 255 259
3 255 257 259
3 150 261 260
3 149 150 260
3 262 151 149
3 262 149 263
3 263 149 260
3 263 264 262
3 267 266 265
3 154 265 266
3 154 266 153
3 153 266 268
3 153 268 269
3 155 153 269
3 261 150 270
3 270 150 157
3 271 151 262
3 158 151 271
3 264 272 271
3 262 264 271
3 274 267 265
3 273 274 265
3 265 160 273
3 154 160 265
3 269 275 155
3 275 161 155
3 270 157 276
3 276 157 163
3 277 158 271
3 164 158 277
3 272 278 277
3 271 272 277
3 280 274 273
3 279 280 273
3 273 166 279
3 160 166 273
3 275 281 161
3 281 167 161
3 276 163 282
3 282 163 169
3 283 164 277
3 170 164 283
3 278 284 283
3 277 278 283
3 286 280 279
3 285 286 279
3 279 172 285
3 166 172 279
3 281 287 167
3 287 173 167
3 282 169 288
3 288 169 175
3 289 170 283
3 176 170 289
3 284 290 289
3 283 284 289
3 292 286 285
3 291 292 285
3 285 178 291
3 172 178 285
3 287 293 173
3 293 179 173
3 288 175 294
3 294 175 181
3 295 176 289
3 182 176 295
3 290 296 295
3 289 290 295
3 298 292 291
3 297 298 291
3 291 184 297
3 178 184 291
3 293 299 179
3 299 185 179
3 294 181 300
3 300 181 187
3 301 182 295
3 188 182 301
3 296 302 301
3 295 296 301
3 304 298 297
3 303 304 297
3 297 190 303
3 184 190 297
3 299 305 185
3 305 191 185
3 300 187 306
3 306 187 193
3 307 188 301
3 194 188 307
3 302 308 307
3 301 302 307
3 310 304 303
3 309 310 303
3 303 196 309
3 190 196 303
3 305 311 191
3 311 197 191
3 306 193 312
3 312 193 199
3 313 194 307
3 200 194 313
3 308 314 313
3 307 308 313
3 316 310 309
3 315 316 309
3 309 202 315
3 196 202 309
3 311 317 197
3 317 203 197
3 312 199 318
3 318 199 205
3 319 200 313
3 206 200 319
3 314 320 319
3 313 314 319
3 322 316 315
3 321 322 315
3 315 208 321
3 202 208 315
3 317 323 203
3 323 209 203
3 318 205 324
3 324 205 211
3 325 206 319
3 212 206 325
3 320 326 325
3 319 320 325
3 328 322 321
3 327 328 321
3 321 214 327
3 208 214 321
3 323 329 209
3 329 215 209
3 324 211 330
3 330 211 217
3 331 212 325
3 218 212 331
3 326 332 331
3 325 326 331
3 334 328 327
3 333 334 327
3 327 220 333
3 214 220 327
3 329 335 215
3 335 221 215
3 330 217 336
3 336 217 223
3 337 218 331
3 224 218 337
3 332 338 337
3 331 332 337
3 340 334 333
3 339 340 333
3 333 226 339
3 220 226 333
3 335 341 221
3 341 227 221
3 336 223 342
3 342 223 229
3 343 224 337
3 230 224 343
3 338 344 343
3 337 338 343
3 346 340 339
3 345 346 339
3 339 232 345
3 226 232 339
3 341 347 227
3 347 233 227
3 342 229 348
3 348 229 235
3 349 230 343
3 236 230 349
3 344 350 349
3 343 344 349
3 352 346 345
3 351 352 345
3 345 238 351
3 232 238 345
3 347 353 233
3 353 239 233
3 348 235 354
3 354 235 241
3 355 236 349
3 242 236 355
3 350 356 355
3 349 350 355
3 358 352 351
3 357 358 351
3 351 244 357
3 238 244 351
3 353 359 239
3 359 245 239
3 354 241 360
3 360 241 247
3 361 242 355
3 248 242 361
3 356 362 361
3 355 356 361
3 364 358 357
3 363 364 357
3 357 250 363
3 244 250 357
3 359 365 245
3 365 251 245
3 360 247 366
3 366 247 253
3 367 248 361
3 254 248 367
3 362 368 367
3 361 362 367
3 370 364 363
3 369 370 363
3 363 256 369
3 250 256 363
3 365 371 251
3 371 257 251
3 366 253 258
3 372 366 258
3 254 367 373
3 254 373 258
3 258 373 372
3 367 368 373
3 370 369 374
3 369 256 259
3 369 259 374
3 374 259 375
3 375 259 257
3 371 375 257
3 260 261 376
3 263 260 376
3 377 263 376
3 263 377 264
3 266 267 378
3 268 266 378
3 379 268 378
3 268 379 269
3 380 376 261
3 270 380 261
3 376 380 377
3 377 380 381
3 377 381 272
3 264 377 272
3 382 378 267
3 274 382 267
3 378 382 379
3 379 382 383
3 379 383 275
3 269 379 275
3 384 380 270
3 276 384 270
3 380 384 381
3 381 384 385
3 381 385 278
3 272 381 278
3 386 382 274
3 280 386 274
3 382 386 383
3 383 386 387
3 383 387 281
3 275 383 281
3 388 384 276
3 282 388 276
3 384 388 385
3 385 388 389
3 385 389 284
3 278 385 284
3 390 386 280
3 286 390 280
3 386 390 387
3 387 390 391
3 387 391 287
3 281 387 287
3 392 388 282
3 288 392 282
3 388 392 389
3 389 392 393
3 389 393 290
3 284 389 290
3 394 390 286
3 292 394 286
3 390 394 391
3 391 394 395
3 391 395 293
3 287 391 293
3 396 392 288
3 294 396 288
3 392 396 393
3 393 396 397
3 393 397 296
3 290 393 296
3 398 394 292
3 298 398 292
3 394 398 395
3 395 398 399
3 395 399 299
3 293 395 299
3 400 396 294
3 300 400 294
3 396 400 397
3 397 400 401
3 397 401 302
3 296 397 302
3 402 398 298
3 304 402 298
3 398 402 399
3 399 402 403
3 399 403 305
3 299 399 305
3 404 400 300
3 306 404 300
3 400 404 401
3 401 404 405
3 401 405 308
3 302 401 308
3 406 402 304
3 310 406 304
3 402 406 403
3 403 406 407
3 403 407 311
3 305 403 311
3 408 404 306
3 312 408 306
3 404 408 405
3 405 408 409
3 405 409 314
3 308 405 314
3 410 406 310
3 316 410 310
3 406 410 407
3 407 410 411
3 407 411 317
3 311 407 317
3 412 408 312
3 318 412 312
3 408 412 409
3 409 412 413
3 409 413 320
3 314 409 320
3 414 410 316
3 322 414 316
3 410 414 411
3 411 414 415
3 411 415 323
3 317 411 323
3 416 412 318
3 324 416 318
3 412 416 413
3 413 416 417
3 413 417 326
3 320 413 326
3 418 414 322
3 328 418 322
3 414 418 415
3 415 418 419
3 415 419 329
3 323 415 329
3 420 416 324
3 330 420 324
3 416 420 417
3 417 420 421
3 417 421 332
3 326 417 332
3 422 418 328
3 334 422 328
3 418 422 419
3 419 422 423
3 419 423 335
3 329 419 335
3 424 420 330
3 336 424 330
3 420 424 421
3 421 424 425
3 421 425 338
3 332 421 338
3 426 422 334
3 340 426 334
3 422 426 423
3 423 426 427
3 423 427 341
3 335 423 341
3 428 424 336
3 342 428 336
3 424 428 425
3 425 428 429
3 425 429 344
3 338 425 344
3 430 426 340
3 346 430 340
3 426 430 427
3 427 430 431
3 427 431 347
3 341 427 347
3 432 428 342
3 348 432 342
3 428 432 429
3 429 432 433
3 429 433 350
3 344 429 350
3 434 430 346
3 352 434 346
3 430 434 431
3 431 434 435
3 431 435 353
3 347 431 353
3 436 432 348
3 354 436 348
3 432 436 433
3 433 436 437
3 433 437 356
3 350 433 356
3 438 434 352
3 358 438 352
3 434 438 435
3 435 438 439
3 435 439 359
3 353 435 359
3 440 436 354
3 360 440 354
3 436 440 437
3 437 440 441
3 437 441 362
3 356 437 362
3 442 438 358
3 364 442 358
3 438 442 439
3 439 442 443
3 439 443 365
3 359 439 365
3 444 440 360
3 366 444 360
3 440 444 441
3 441 444 445
3 441 445 368
3 362 441 368
3 446 442 364
3 370 446 364
3 442 446 443
3 443 446 447
3 443 447 371
3 365 443 371
3 444 366 372
3 445 444 372
3 373 445 372
3 445 373 368
3 446 370 374
3 447 446 374
3 375 447 374
3 447 375 371
