ply
format ascii 1.0
element vertex 764
property float x
property float y
property float z
property uchar red
property uchar green
property uchar blue
element face 1472
property list uchar int vertex_indices
end_header
-9.89586544036865234 -9 -9 136 97 74
-9 -9.89586544036865234 -9 11 19 11
-9 -9 -9.89586544036865234 84 56 47
-9.23367786407470703 -9 -8 108 77 61
-9 -9.23367786407470703 -8 36 48 29
-9 -9 -7.94994115829467773 122 128 79
-9.53845024108886719 -9 8 113 116 54
-9 -9.53845024108886719 8 132 146 75
-9 -9 7.87428855895996094 84 110 63
-9 -9 8.53845024108886719 87 146 78
-9.74596118927001953 -8 -9 74 117 60
-9 -8 -9.74596118927001953 26 48 25
-9 -8.96464061737060547 -8 122 128 79
-9 -8 -8.73911094665527344 79 143 132
-9 -8.29569339752197266 8 87 146 78
-9.82212066650390625 -7 -9 102 137 69
-9 -7 -9.82212066650390625 116 90 63
-9 -7 -8.75976085662841797 25 46 33
-9 -6.45714902877807617 -9 25 46 33
-9.59175872802734375 7 -9 47 42 16
-9 6.83794498443603516 -9 49 128 122
-9 7 -9.59175872802734375 21 32 11
-9 7 -8.92025947570800781 22 22 8
-9.87038803100585938 8 -9 2 6 2
-9 8 -9.87038803100585938 53 160 123
-9 8 -8.35819530487060547 3 3 1
-9 8.87038803100585938 -9 3 3 1
-8 -9.10667896270751953 -9 1 2 2
-8 -9 -9.10667896270751953 31 51 29
-8.98017120361328125 -9 -8 122 128 79
-8 -9 -8.99213981628417969 71 59 42
-8.83985137939453125 -9 8 87 146 78
-8.72621822357177734 -8 -9 79 143 132
-8 -8.98489952087402344 -9 71 59 42
-8.75343990325927734 -7 -9 25 46 33
-8.87971401214599609 7 -9 22 22 8
-8.6427154541015625 8 -9 3 3 1
-7.98840045928955078 -9 -9 71 59 42
-5.0964655876159668 0 -1 33 49 46
-5 -0.470008045434951782 -1 80 101 68
-5 0 -1.76158034801483154 77 92 61
-5 0 -0.555422782897949219 9 6 6
-5 0.433701634407043457 -1 9 6 6
-4.01962471008300781 -4 0 43 57 44
-4 -4.03339529037475586 0 90 93 72
-4 -4 -0.0400792956352233887 34 38 29
-4 -4 0.0305068790912628174 20 18 16
-4.56269168853759766 -3 -1 90 80 62
-4 -3.43170952796936035 -1 34 38 29
-4 -3 -1.66122758388519287 72 85 66
-4.27523374557495117 -3 0 45 34 31
-4.2802734375 -3 1 17 23 19
-4 -3.36901402473449707 1 100 100 83
-4 -3 1.41848552227020264 87 117 109
-4.24539470672607422 -2 -1 61 51 42
-4 -2 -1.09167838096618652 82 107 108
-4.91643285751342773 -2 0 61 56 43
-4.17408657073974609 -2 1 87 107 122
-4.50388097763061523 -2 2 90 88 65
-4 -2.36935639381408691 2 15 19 16
-4.05407428741455078 -2 3 34 39 26
-4 -2.25885581970214844 3 74 101 79
-4 -2 3.11998939514160156 95 67 67
-4.22483491897583008 -1 -2 66 91 95
-4 -1.41579055786132812 -2 82 107 108
-4 -1 -2.54020094871520996 101 90 76
-4 -1.12057352066040039 -1 91 83 68
-4 -1 -1.01907265186309814 101 102 77
-4.44483470916748047 -1 0 69 88 97
-4 -1 -0.990599572658538818 81 108 108
-4.95308303833007812 -1 1 49 40 33
-4.23350286483764648 -1 2 9 13 11
-4 -1.86629259586334229 3 95 67 67
-4 -1 2.43619084358215332 2 1 1
-4 -0.371644556522369385 -2 101 102 77
-4.55257749557495117 0 -1 9 6 6
-4 -0.211856275796890259 0 75 90 64
-4.44420433044433594 0 1 16 23 21
-4 0 0.192577213048934937 24 33 28
-4.52451467514038086 0 2 93 110 74
-4 0 2.76002144813537598 32 28 23
-4.18618249893188477 1 -3 67 47 41
-4 0.89718317985534668 -3 84 100 74
-4 1 -3.06481313705444336 78 89 112
-4 1 -2.83298277854919434 82 110 75
-4.78631973266601562 1 -1 76 112 90
-4 0.204475224018096924 -1 41 50 37
-4 1 -1.63337421417236328 60 73 53
-4.43419408798217773 1 0 23 31 33
-4 0.214878186583518982 0 24 33 28
-4 0.716403365135192871 1 76 62 52
-4 1 0.687639713287353516 98 97 67
-4 0.241054221987724304 2 32 28 23
-4.06136798858642578 1 3 50 64 42
-4 0.340043812990188599 3 6 4 4
-4 1 2.83707261085510254 59 74 81
-4 1 3.06428384780883789 57 47 40
-4 1.12598693370819092 -3 82 110 75
-4.16317462921142578 2 -2 55 37 36
-4 1.85920655727386475 -2 60 73 53
-4 2 -2.10539031028747559 43 46 32
-4.57648706436157227 2 -1 52 48 34
-4.40387582778930664 2 0 34 50 47
-4 2 0.633586347103118896 65 74 52
-4 1.28808784484863281 3 57 47 40
-4 2.11352682113647461 -2 95 85 65
-4.30542469024658203 3 -1 83 91 126
-4 3 -1.43493640422821045 34 51 45
-4 2.51024794578552246 0 65 74 52
-4 3 -0.477539151906967163 33 23 21
-4.09469270706176758 4 -1 34 49 55
-4 4 -1.20847499370574951 93 143 130
-4 4 -0.753997564315795898 55 43 36
-4.0350337028503418 4 2 79 85 133
-4 3.85764217376708984 2 69 107 81
-4 4 1.7845989465713501 93 144 121
-4 4 2.04055500030517578 145 135 88
-4 4.11863327026367188 -1 55 43 36
-4 4.13618707656860352 2 145 135 88
-3.34778070449829102 -5 0 90 93 72
-3 -5.33126497268676758 0 17 16 15
-3 -5 -0.848072588443756104 89 108 91
-3.69432497024536133 -5 1 97 122 122
-3 -5.28550004959106445 1 94 83 77
-3 -5 1.38472318649291992 5 6 5
-3.11566376686096191 -4 -3 39 32 29
-3 -4.06438112258911133 -3 73 68 63
-3 -4 -3.16534829139709473 77 98 97
-3.5638573169708252 -4 -2 84 71 62
-3 -4.3947758674621582 -2 76 66 66
-3.52820229530334473 -4 -1 34 38 29
-3 -4.906524658203125 -1 89 108 91
-3.24419665336608887 -4 1 100 100 83
-3.29520535469055176 -4 2 97 85 78
-3 -4.44422054290771484 2 38 34 30
-3 -4 2.28829526901245117 103 82 82
-3.24725079536437988 -3 -3 42 47 37
-3 -3 -3.67491674423217773 29 38 31
-3.75309658050537109 -3 -2 72 85 66
-3 -3.27487063407897949 2 103 82 82
-3 -3 1.87259423732757568 84 110 105
-3.61254739761352539 -3 3 74 101 79
-3 -3.24626827239990234 3 47 40 36
-3 -3 2.31970858573913574 7 8 6
-3 -3 3.30791234970092773 116 95 86
-3.04098701477050781 -2 -4 80 113 87
-3 -2.14096665382385254 -4 29 38 31
-3 -2 -4.04112577438354492 62 62 44
-3.3867955207824707 -2 -3 95 96 76
-3.69542217254638672 -2 -2 82 107 108
-3 -2.85302519798278809 2 7 8 6
-3.84577012062072754 -2 3 95 67 67
-3 -2.54781484603881836 3 116 95 86
-3 -2 2.69244384765625 27 28 21
-3.11924171447753906 -1 -4 81 60 58
-3 -1 -4.21588516235351562 71 99 90
-3.73264575004577637 -1 -3 101 90 76
-3.99561524391174316 -1 -1 81 108 108
-3.60653519630432129 -1 3 45 34 31
-3 -1.64555025100708008 3 29 24 22
-3.10153841972351074 -1 4 20 14 13
-3 -1.11270225048065186 4 106 140 135
-3 -1 4.14114999771118164 22 34 23
-3.24431705474853516 0 -4 75 78 53
-3 0 -4.2781524658203125 89 124 118
-3.46453714370727539 0 -3 84 100 74
-3.86518597602844238 0 -2 63 87 82
-3.86336779594421387 0 -1 41 50 37
-3.89789986610412598 0 0 24 33 28
-3.91988110542297363 0 3 6 4 4
-3.03273463249206543 0 4 7 11 9
-3 0 4.02921915054321289 26 28 19
-3.10474395751953125 1 -4 78 89 112
-3 1 -4.23116779327392578 81 116 104
-3.69388604164123535 1 -2 60 73 53
-3.83038473129272461 1 1 101 103 141
-3.62006568908691406 1 2 59 74 81
-3 0.0691618844866752625 4 26 28 19
-3 1 3.50714898109436035 111 86 76
-3 1.84958136081695557 -4 83 116 103
-3.4698483943939209 2 -3 43 46 32
-3 2 -3.95363950729370117 71 101 75
-3.80072426795959473 2 1 72 100 104
-3.25264906883239746 2 2 18 26 21
-3.51637554168701172 2 3 28 22 17
-3 2 3.57088255882263184 19 15 14
-3 2.91069149971008301 -3 76 105 88
-3 2.94777941703796387 -2 75 103 85
-3 3 -1.81360721588134766 92 132 132
-3.61371040344238281 3 0 7 10 9
-3.84777593612670898 3 1 22 24 16
-3.67087054252624512 3 2 69 107 81
-3 2.35286617279052734 3 19 15 14
-3 3 2.62006926536560059 36 47 31
-3 4 -1.41584467887878418 20 24 17
-3.38578915596008301 4 0 9 12 8
-3 3.77698421478271484 1 74 61 48
-3 4 0.48000788688659668 35 36 25
-3 4 1.53402817249298096 85 107 122
-3 4 2.61415672302246094 57 45 38
-3 4.74097585678100586 -1 99 149 106
-3.41061925888061523 5 0 90 137 139
-3 5 -0.82512056827545166 44 30 29
-3.31106710433959961 5 1 54 83 87
-3 4.38081502914428711 1 85 107 122
-3 4.7192988395690918 2 57 45 38
-3 5 1.82684063911437988 144 101 90
-3 5.56976795196533203 0 26 42 28
-3 5.33284807205200195 1 144 101 90
-2.31241893768310547 -6 -1 24 22 21
-2 -6.38445186614990234 -1 34 39 37
-2 -6 -1.48372852802276611 95 105 102
-2.20703434944152832 -6 0 17 16 15
-2 -6.16467142105102539 0 47 47 44
-2.23765087127685547 -6 1 94 83 77
-2 -6.17058181762695312 1 23 22 22
-2 -6 1.16595780849456787 67 76 80
-2.36633157730102539 -5 -2 76 66 66
-2 -5.62270641326904297 -2 95 105 102
-2 -5 -2.28235411643981934 70 62 60
-2.90155410766601562 -5 -1 89 108 91
-2.61914634704589844 -5 1 5 6 5
-2 -5.67572355270385742 1 67 76 80
-2 -5 0.607196807861328125 96 96 82
-2.46853184700012207 -5 2 38 34 30
-2 -5.26448631286621094 2 52 53 47
-2 -5 1.53554427623748779 13 13 11
-2.00933623313903809 -5 3 114 137 135
-2 -5.00846290588378906 3 91 101 88
-2 -5 3.01130414009094238 49 62 61
-2 -4.26895523071289062 -3 70 62 60
-2 -4 -3.24118638038635254 102 94 85
-2 -4.67904424667358398 1 13 13 11
-2 -4.98152351379394531 3 49 62 61
-2 -4 2.50246429443359375 77 92 98
-2.21382927894592285 -3 -3 61 62 47
-2 -3.20122957229614258 -3 108 121 127
-2 -3 -2.85017585754394531 66 64 51
-2.78725242614746094 -3 2 7 8 6
-2 -3.48394036293029785 3 63 60 52
-2.11226272583007812 -3 4 43 37 32
-2 -3.27967596054077148 4 25 30 24
-2 -3 4.0518641471862793 55 75 73
-2 -2.11007189750671387 -4 100 83 82
-2 -2 -4.25528907775878906 19 23 17
-2 -2.89848113059997559 -3 66 64 51
-2.69810009002685547 -2 3 29 24 22
-2 -2.64991068840026855 4 55 75 73
-2 -2 3.84149622917175293 101 92 77
-2 -1 -4.28898954391479492 73 68 55
-2 -1.70749092102050781 4 34 30 27
-2 -1 4.24213171005249023 139 113 99
-2 0 -4.40608930587768555 19 20 14
-2 0 4.40769386291503906 61 55 43
-2.77891969680786133 1 -4 83 116 103
-2 0.374831497669219971 -4 75 98 79
-2 1 -3.6043553352355957 82 81 64
-2 0.548992812633514404 4 61 55 43
-2 1 3.75228452682495117 109 90 74
-2 2 -3.78044795989990234 35 31 25
-2 2 3.60544657707214355 38 57 45
-2.86653733253479004 3 -3 88 129 86
-2 3 -3.64429044723510742 27 19 19
-2.95378994941711426 3 -2 92 132 132
-2.33214783668518066 3 3 0 0 0
-2.09029006958007812 3 4 31 21 20
-2 2.89965987205505371 4 4 5 4
-2 3 4.04082202911376953 21 29 18
-2.88393902778625488 4 -3 17 16 11
-2 4 -3.86083674430847168 47 67 55
-2.53975510597229004 4 -2 20 24 17
-2.72491264343261719 4 1 85 107 122
-2.62346982955932617 4 3 11 8 7
-2 3.51632070541381836 4 21 29 18
-2 4 3.81555080413818359 167 168 107
-2 4.3798370361328125 -3 51 76 69
-2.28965330123901367 5 -2 11 14 9
-2 5 -2.28345823287963867 53 78 55
-2.8719019889831543 5 -1 44 30 29
-2 4.25332498550415039 2 80 111 78
-2 5 1.35912442207336426 110 167 112
-2 4.54308128356933594 3 167 168 107
-2 5.28721094131469727 -2 31 43 28
-2 5.61364030838012695 -1 130 92 85
-2 5.63006353378295898 0 3 4 2
-2.14695286750793457 6 1 46 73 62
-2 6 0.731409430503845215 4 3 2
-2 6 1.15388631820678711 169 168 108
-2 6.13781023025512695 1 169 168 108
-1 -6.59408473968505859 -1 30 31 33
-1 -6 -1.43932664394378662 108 101 91
-1 -6.70982742309570312 0 72 74 78
-1 -6.53792238235473633 1 72 73 84
-1.11299240589141846 -6 2 52 53 47
-1 -6.19601869583129883 2 40 45 43
-1 -6 2.1223609447479248 66 70 73
-1.14053678512573242 -5 -3 70 62 60
-1 -5.40460443496704102 -3 106 105 122
-1 -5 -3.32024526596069336 17 21 21
-1 -5.61094760894775391 -2 108 101 91
-1.61532294750213623 -5 1 13 13 11
-1.9427342414855957 -5 3 49 62 61
-1 -5 2.69681310653686523 57 64 69
-1 -4 -3.64946269989013672 64 77 68
-1.39265036582946777 -4 3 63 60 52
-1 -4.67597627639770508 3 52 56 50
-1 -4 3.89710068702697754 132 131 105
-1.77351486682891846 -3 -3 66 64 51
-1 -3 -3.28901195526123047 99 122 110
-1 -3.81057167053222656 4 111 108 90
-1 -3 4.13336420059204102 140 116 109
-1 -2.27455973625183105 -4 99 122 110
-1 -2 -4.42911815643310547 82 106 108
-1.13037610054016113 -2 3 101 92 77
-1 -2.26367449760437012 3 68 71 62
-1 -2 2.67160940170288086 37 44 36
-1.73737633228302002 -2 4 34 30 27
-1 -2 3.22086882591247559 52 44 43
-1 -2 4.62491893768310547 80 87 64
-1.59616434574127197 -1 -4 91 116 105
-1 -1.61773395538330078 -4 94 80 74
-1 -1 -3.13634586334228516 98 122 123
-1 -1.77994298934936523 3 52 44 43
-1.55288684368133545 -1 4 139 113 99
-1 -1.5157933235168457 4 80 87 64
-1 -1 3.48538637161254883 52 45 44
-1.55460715293884277 0 -4 75 98 79
-1 0 -3.15600347518920898 37 47 38
-1 -0.566272556781768799 4 38 30 30
-1 0 4.89502239227294922 48 63 59
-1 1 -3.14562320709228516 37 49 39
-1.64708065986633301 1 4 26 23 18
-1 1 4.85414314270019531 139 116 94
-1.00791633129119873 2 -3 74 94 70
-1 1.93299317359924316 -3 42 55 47
-1 2 -2.9876854419708252 35 47 37
-1.47083747386932373 2 4 4 5 4
-1 2 4.2867436408996582 17 23 16
-1 2.00778937339782715 -3 35 47 37
-1 3 -3.56217527389526367 24 19 17
-1 3 4.4805903434753418 15 21 16
-1.16090273857116699 4 -4 47 67 55
-1 3.9723818302154541 -4 24 19 17
-1 4 -4.02390146255493164 34 49 42
-1.64554846286773682 4 4 3 4 3
-1 4 4.06141996383666992 4 6 4
-1 4.02292442321777344 -4 48 67 58
-1.29735660552978516 5 -3 53 78 55
-1 5 -3.3433842658996582 41 47 33
-1 4.75581073760986328 2 25 36 31
-1 5 1.7266545295715332 10 14 11
-1 4.97901582717895508 3 148 107 98
-1 4.10412311553955078 4 4 6 4
-1 5.32276630401611328 -3 38 56 55
-1.21783554553985596 6 -2 13 14 9
-1 6 -2.23543000221252441 3 2 2
-1.37372255325317383 6 -1 8 6 5
-1.57044780254364014 6 0 4 3 2
-1.75601053237915039 6 1 169 168 108
-1 5.63330459594726562 1 10 14 11
-1 6 0.538556575775146484 4 6 4
-1 6.16924619674682617 -2 2 4 3
-1 6.2565155029296875 -1 9 13 8
-1 6.40921831130981445 0 4 6 4
-0.169230878353118896 -6 -2 108 101 91
0 -6.12840938568115234 -2 99 111 103
0 -6 -2.18768119812011719 57 66 63
0 -6.65025949478149414 -1 33 36 36
0 -6.28876733779907227 0 26 26 25
0 -6.18062496185302734 1 15 15 14
-0.773996472358703613 -6 2 66 70 73
0 -6 1.32272851467132568 101 117 100
-0.779133796691894531 -5 -3 103 106 118
0 -5 -2.16121912002563477 5 5 4
0 -5.52409744262695312 2 22 22 21
-0.356455475091934204 -5 3 52 56 50
0 -5.10149908065795898 3 14 14 14
0 -5 3.23635554313659668 19 23 22
0 -4.47603750228881836 -3 5 5 4
0 -4 -3.38662838935852051 68 65 60
-0.169356003403663635 -4 -2 89 95 78
0 -4.61941242218017578 -2 37 41 34
0 -4 -2.25612521171569824 99 103 114
0 -4 -1.43095207214355469 81 79 72
0 -4 3.9083254337310791 130 136 110
-0.253337383270263672 -3 -4 99 122 110
0 -3.24115347862243652 -4 68 65 60
0 -3 -4.28794097900390625 74 76 59
0 -3.28971743583679199 -2 81 79 72
0 -3.82032275199890137 4 108 121 96
0 -3 4.31370401382446289 142 143 109
0 -2 -4.27959680557250977 82 101 83
-0.886134743690490723 -2 3 52 44 43
0 -2 4.31038713455200195 142 141 105
-0.445695728063583374 -1 -4 98 122 123
0 -1 -4.25224781036376953 87 109 99
-0.236320182681083679 -1 4 38 30 30
0 -1 4.15139293670654297 157 134 115
-0.601911365985870361 0 -4 37 47 38
0 0 -4.64895772933959961 89 73 67
0 0 4.34925603866577148 34 34 24
0 0.582408547401428223 -4 55 66 49
0 1 -3.70252728462219238 35 38 29
-0.447222888469696045 1 4 139 116 94
0 0.28435593843460083 4 34 34 24
0 1 3.6723940372467041 157 132 114
-0.964528203010559082 2 -3 35 47 37
0 2 -3.24553918838500977 42 37 33
0 1.49238801002502441 4 15 12 11
0 2 4.73282003402709961 23 31 27
0 3 -3.85147190093994141 126 117 89
-0.173114687204360962 3 3 28 39 34
0 2.84708952903747559 3 14 19 16
0 3 2.84692859649658203 18 21 16
0 3 3.34587597846984863 7 7 6
0 3 4.5062556266784668 23 35 27
-0.984140276908874512 4 -4 48 67 58
-0.411171972751617432 4 -3 51 71 65
0 3.67339468002319336 -3 109 111 78
-0.0515879355370998383 4 -2 42 57 45
0 3.94489121437072754 -2 5 5 4
0 4 -1.84091746807098389 123 158 167
0 3.22359895706176758 3 7 7 6
0 4 4.11148214340209961 40 59 41
-0.0990745574235916138 5 -3 38 56 55
0 4.07273435592651367 -2 123 158 167
0 5 -2.94257998466491699 23 29 21
-0.681724965572357178 5 2 68 94 75
-0.961322903633117676 5 3 154 133 101
0 4.26812362670898438 4 40 59 41
0 5 3.51258492469787598 72 93 63
-0.372942864894866943 6 -2 2 4 3
0 5.82449483871459961 -2 31 42 38
-0.333282619714736938 6 -1 9 13 8
0 5.86900186538696289 -1 131 134 89
0 6 -0.733698487281799316 4 3 3
-0.402300566434860229 6 1 15 17 12
0 5.48508453369140625 2 12 17 16
0 6 1.31303167343139648 4 6 4
0 5.76552438735961914 3 72 93 63
-0.191023111343383789 7 0 123 182 185
0 7 -0.344411492347717285 148 107 97
0 6.82143068313598633 1 4 6 4
0 7 0.731120526790618896 0 0 0
0 7.21721982955932617 0 0 0 0
0.0943074002861976624 -6 -2 47 54 52
0.437084853649139404 -6 -1 98 113 99
0.479691952466964722 -6 0 104 117 103
1 -6.40631580352783203 1 12 12 12
1 -6 0.689704418182373047 108 103 96
1 -6 1.21426784992218018 74 74 78
0.401940226554870605 -5 -2 37 41 34
0.422452658414840698 -5 -1 123 114 109
0.973604321479797363 -5 0 92 95 102
0.785306036472320557 -5 1 112 115 100
1 -5.50989580154418945 1 74 74 78
0.678307116031646729 -5 2 118 128 109
0.145547494292259216 -5 3 19 23 22
0.679816544055938721 -4 -3 99 103 114
1 -4.29289579391479492 -1 109 115 104
1 -4 -1.38208687305450439 5 5 4
1 -4.7682337760925293 0 63 64 61
0.895279109477996826 -4 1 55 56 49
1 -4 0.416191786527633667 54 53 48
0.877491593360900879 -4 2 110 111 93
0.592200338840484619 -4 3 130 136 110
0.237042799592018127 -3 -4 54 65 52
0.386356204748153687 -3 -3 1 1 1
1 -3.3011786937713623 -2 5 5 4
1 -3 -2.30543231964111328 127 138 115
1 -3.87253785133361816 1 118 127 109
0.978670895099639893 -3 2 47 54 54
1 -3 1.96709370613098145 12 11 10
1 -3.57471728324890137 3 31 37 33
1 -3 2.05519223213195801 134 161 133
0.27001538872718811 -3 4 142 143 109
1 -3 3.42759609222412109 144 124 118
1 -2.02506184577941895 -4 115 128 107
1 -2 -4.02695322036743164 32 41 35
1 -2.65116047859191895 -3 127 138 115
1 -2.92351412773132324 2 134 161 133
0.772096633911132812 -2 3 142 137 108
1 -2.39682507514953613 3 144 124 118
1 -2 2.51740074157714844 113 133 113
1 -2.2883150577545166 4 6 7 5
1 -2 3.54815125465393066 106 121 99
1 -2 4.33281850814819336 26 31 29
1 -1 -4.2600250244140625 69 86 90
1 -1.76306843757629395 3 106 121 99
0.258940011262893677 -1 4 157 134 115
1 -1.63734698295593262 4 26 31 29
1 -1 3.68974184989929199 32 43 38
1 0 -4.23144435882568359 30 31 24
1 -0.517548203468322754 4 12 11 11
1 0 4.41192340850830078 25 31 32
1 0.586910367012023926 -4 32 42 39
1 1 -3.80685949325561523 137 146 110
1 0.671531081199645996 4 25 31 32
1 1 3.76160192489624023 30 40 30
0.645625293254852295 2 -4 42 37 33
1 1.42869317531585693 -4 137 146 110
1 2 -4.25725936889648438 79 76 56
1 1.8971707820892334 4 50 37 36
1 2 4.01711511611938477 10 11 9
1 2.26486659049987793 -4 49 64 66
1 3 -3.33538198471069336 4 3 3
0.201251044869422913 3 3 7 7 6
0.302921891212463379 3 4 23 35 27
1 2.02955269813537598 4 10 11 9
1 3 3.47697997093200684 40 60 49
0.523808836936950684 4 -3 10 10 8
1 4 -3.80237150192260742 154 133 106
1 3.72809219360351562 -2 1 1 1
1 4 -2.18966221809387207 13 18 17
1 4 -1.88733899593353271 18 14 14
0.627622425556182861 4 3 157 137 105
1 3.65829563140869141 3 40 60 49
1 4 2.34033083915710449 144 136 102
0.738029956817626953 4 4 40 59 41
1 4.30488681793212891 -3 13 18 17
0.549300253391265869 5 -2 31 42 38
0.766316056251525879 5 -1 131 134 89
1 4.71476221084594727 -1 154 129 109
1 5 -0.69336014986038208 2 2 2
0.597956478595733643 5 2 12 17 16
1 4.2925572395324707 2 144 136 102
1 5 1.60108828544616699 4 5 5
1 4.68548250198364258 3 34 28 25
1 5 2.7311093807220459 33 27 24
1 5 3.33619475364685059 78 109 74
0.642744660377502441 6 -2 22 23 16
1 5.87397336959838867 -2 94 131 100
1 6 -2.20098876953125 13 18 18
0.436214476823806763 6 -1 4 3 3
1 5.61016273498535156 -1 2 2 2
0.812040925025939941 6 2 60 67 48
1 5.73237180709838867 2 33 27 24
1 5.43347358703613281 3 78 109 74
1 6 2.43189525604248047 6 9 9
1 6.08348464965820312 -2 10 14 13
1 6.27675867080688477 -1 51 71 48
0.449502438306808472 7 0 0 0 0
1 6.65428066253662109 0 50 73 59
1 6.39468669891357422 1 45 65 55
1 6.12277030944824219 2 6 9 9
1.19340169429779053 -6 1 74 74 78
1.40489673614501953 -4 -2 5 5 4
2 -4.31738471984863281 -2 48 45 44
2 -4 -2.33944225311279297 142 141 122
2 -4.48120498657226562 -1 102 101 95
2 -4.47632741928100586 0 146 139 127
1.46243643760681152 -4 1 118 127 109
2 -4.14696502685546875 1 138 134 123
2 -4 1.49151098728179932 142 131 119
2 -3 -2.76491189002990723 95 105 85
1.03779947757720947 -3 2 134 161 133
2 -3.83137249946594238 2 75 80 66
1.56726717948913574 -3 3 144 124 118
2 -3 2.66093850135803223 45 49 51
1.02732241153717041 -2 -4 74 87 92
2 -2.69152927398681641 -3 95 105 85
2 -2 -3.17997217178344727 51 60 50
1.97364425659179688 -2 -2 121 102 97
2 -2.07687664031982422 -2 2 3 3
2 -2 -2.10783624649047852 121 109 103
2 -2 -1.96701323986053467 137 146 121
1.35159468650817871 -2 3 106 121 99
2 -2.61397099494934082 3 158 159 131
1.30312883853912354 -2 4 26 31 29
2 -2 3.49319982528686523 68 88 75
1.33558142185211182 -1 -4 68 84 87
2 -1 -3.43228697776794434 57 71 67
2 -1.97052872180938721 -2 137 146 121
1.95681703090667725 -1 3 32 43 38
2 -1.0730588436126709 3 68 88 75
2 -1 2.71248745918273926 104 94 84
2 -0.368236899375915527 -4 57 71 67
2 0 -4.11798381805419922 120 153 129
2 -0.9427909255027771 3 49 43 42
2 -0.209577322006225586 4 163 178 137
2 0 4.07958316802978516 105 136 97
2 0.188654571771621704 -4 59 63 73
1.69010984897613525 1 -3 55 71 71
2 0.560197770595550537 -3 47 58 60
2 1 -2.75554966926574707 18 16 15
1.68692684173583984 1 3 30 40 30
2 0.683971881866455078 3 31 35 39
2 1 2.27869606018066406 136 181 139
2 0.22896142303943634 4 105 136 97
1.65726578235626221 2 -4 49 64 66
1.30867528915405273 2 -3 12 11 9
2 2 -2.66919875144958496 70 74 59
1.74470210075378418 2 3 170 150 118
2 2 2.75855231285095215 18 22 23
1.0298229455947876 2 4 10 11 9
2 2.63095235824584961 -3 70 74 59
2 3 -3.62232708930969238 58 80 59
1.80303478240966797 3 2 125 120 86
2 2.80919146537780762 2 18 22 23
2 3 1.78943192958831787 172 145 122
1.66815876960754395 3 3 40 60 49
1.87545108795166016 4 -3 13 18 17
2 3.83541321754455566 -3 71 82 63
2 3.64594936370849609 -2 27 34 36
2 4 -1.66337168216705322 130 178 142
1.41083836555480957 4 0 94 129 97
2 3.81132817268371582 0 0 0 0
2 4 -0.203158468008041382 174 164 121
2 4 0.313801556825637817 115 153 117
1.27303206920623779 4 2 144 136 102
2 4 1.44472122192382812 0 0 0
1.70293760299682617 5 -2 94 131 100
2 4.64176845550537109 -2 130 178 142
2 5 -2.22855353355407715 166 160 116
1.83580255508422852 5 -1 2 2 2
2 4.59294319152832031 0 115 153 117
1.55583608150482178 5 1 4 5 5
2 4.42276144027709961 1 0 0 0
2 5 0.186942562460899353 189 170 131
1.63813912868499756 5 2 33 27 24
2 4.66006708145141602 2 97 131 96
2 5 1.67983615398406982 110 147 105
1.32470464706420898 5 3 78 109 74
2 5 2.4257354736328125 189 190 124
1.05796349048614502 6 -2 10 14 13
2 5.15277481079101562 -2 57 81 70
1.16426277160644531 6 -1 51 71 48
2 5.0569915771484375 -1 43 49 36
1.3696211576461792 6 0 50 73 59
2 5.14141225814819336 0 189 170 131
1.80973982810974121 6 1 45 65 55
1.32729697227478027 6 2 6 9 9
2 5.43019819259643555 2 189 190 124
2.47307419776916504 -4 -2 65 67 72
2.44337368011474609 -4 -1 40 46 46
2.17377042770385742 -4 0 139 130 123
3 -4.07966232299804688 1 160 164 146
3 -4 0.868162930011749268 147 158 141
3 -4 1.08721053600311279 29 31 32
3 -3.3072667121887207 -2 103 118 100
3 -3 -2.16160082817077637 110 96 94
3 -3.03825116157531738 -1 47 45 43
3 -3.21427178382873535 0 147 158 141
2.23858356475830078 -3 1 138 144 123
3 -3.81452083587646484 1 29 31 32
3 -3 0.290241658687591553 126 121 112
2.78528547286987305 -3 2 45 49 51
2.39732909202575684 -2 -3 121 109 103
2.25974321365356445 -2 -2 137 146 121
3 -2 -2.1850743293762207 49 56 59
3 -2.43975210189819336 1 2 2 2
2.52648735046386719 -2 2 49 53 44
3 -2 1.62447953224182129 116 114 102
2.51105856895446777 -2 3 68 88 75
3 -1.31310391426086426 -3 49 56 59
3 -1 -3.19790506362915039 141 145 113
3 -1.01224958896636963 2 149 138 121
3 -1 2.00353693962097168 23 28 27
2.2845761775970459 0 -4 59 63 73
3 0 -3.22765493392944336 150 145 114
2.79242086410522461 0 1 125 126 98
3 -0.432346642017364502 1 19 23 22
3 0 0.79352337121963501 35 38 43
3 0 1.88235664367675781 145 167 137
2.49882984161376953 0 3 31 35 39
3 0 2.04588747024536133 177 152 134
2.2696232795715332 0 4 105 136 97
2.5996098518371582 1 -3 18 16 15
3 1 -3.14609599113464355 99 96 79
2.69517612457275391 1 -2 49 55 60
3 0.209995150566101074 -2 159 147 132
3 1 -2.66992425918579102 34 42 41
3 1 -1.48581492900848389 139 176 159
2.91301274299621582 1 0 24 29 29
3 0.878293991088867188 0 35 38 43
3 1 -0.22507108747959137 29 37 36
3 0.31223750114440918 1 145 167 137
3 1 0.194699689745903015 11 11 9
3 1 2.23357534408569336 129 139 106
3 1.20396435260772705 -3 34 42 41
2.6323244571685791 2 -2 36 46 40
2.6851649284362793 2 -1 147 142 112
3 1.66049647331237793 -1 29 37 36
3 1.18502593040466309 0 11 11 9
3 2 -0.713370919227600098 139 180 150
3 2 2.33805418014526367 87 106 78
2.20265102386474609 3 -3 71 82 63
2.54005932807922363 3 -2 27 34 36
3 2.65811491012573242 -1 139 180 150
3 3 -1.16785085201263428 2 2 2
3 2.33910274505615234 2 87 106 78
3 3 1.07322144508361816 142 117 105
3 4 -1.15997087955474854 130 174 134
2.39288520812988281 4 0 115 153 117
3 4 1.04266297817230225 98 120 88
2.2840721607208252 5 -2 57 81 70
2.08639883995056152 5 -1 43 49 36
3 4.22927379608154297 -1 168 166 119
2.12044191360473633 5 0 189 170 131
3 4.23560905456542969 0 6 7 8
2.92573356628417969 5 1 110 147 105
3 5 0.954400181770324707 143 199 177
2.1782839298248291 5 2 189 190 124
3 5 1.03564238548278809 83 113 99
3 5.11213064193725586 1 83 113 99
3.07008695602416992 -4 1 29 31 32
3.15619659423828125 -3 -2 67 66 75
3.03264474868774414 -3 -1 2 2 2
3.1449122428894043 -3 0 126 121 112
3.09654545783996582 -2 -2 49 56 58
3.61620497703552246 -2 -1 61 75 73
3.52906966209411621 -2 0 127 150 120
3.26974058151245117 -2 1 116 114 102
3.15514159202575684 -1 -3 59 73 63
3.60793900489807129 -1 -2 37 40 43
3.57425570487976074 -1 -1 41 49 49
3.6678612232208252 -1 0 29 34 35
3.5734102725982666 -1 1 19 23 22
3.05613255500793457 -1 2 23 28 27
3.10484743118286133 0 -3 19 22 23
3.18264532089233398 0 -2 159 147 132
3.52877426147460938 0 -1 47 51 56
3.79536938667297363 0 0 35 38 43
3.07702088356018066 0 2 177 152 134
3.15297842025756836 1 -3 34 42 41
3.43376064300537109 1 -1 29 37 36
3.3761904239654541 1 0 11 11 9
4 0.528226077556610107 0 9 10 8
4 1 -0.269506186246871948 163 165 130
4 0.529521286487579346 1 10 12 12
3.19754958152770996 1 2 129 139 106
4 1 1.18613803386688232 9 9 11
3.83536696434020996 2 0 10 13 13
4 1.65638852119445801 0 145 161 122
4 2 0.791106104850769043 180 160 132
3.34734392166137695 2 2 87 106 78
4 2 1.0727081298828125 5 6 6
3.10079503059387207 3 -1 89 86 71
3.84775400161743164 3 0 165 127 124
3.04616379737854004 3 1 142 117 105
4 2.04425835609436035 1 5 6 6
3.41067051887512207 4 -1 168 166 119
3.62306046485900879 4 0 6 7 8
3.05057382583618164 4 1 98 120 88
3.02715826034545898 5 1 83 113 99
4.21832561492919922 1 0 145 161 122
4.16721916198730469 1 1 9 9 11
4.04660844802856445 2 1 5 6 6
7.27074623107910156 -9 -9 45 37 43
8 -9.9195098876953125 -9 183 141 182
8 -9 -9.9195098876953125 2 1 2
8 -9 -8.25395870208740234 120 122 151
7.84840583801269531 -8 -9 11 9 11
8 -8 -9.63154792785644531 25 19 25
8 -8 -8.85085773468017578 37 28 34
8 -7.63208580017089844 -9 37 28 34
7.65126323699951172 8 -9 64 95 111
8 7.69106006622314453 -9 71 49 88
8 8 -9.72751903533935547 163 213 108
8 8 -8.59259033203125 73 63 113
8 8.72751903533935547 -9 73 63 113
8.9195098876953125 -9 -9 120 122 151
8.63154792785644531 -8 -9 37 28 34
8.72751903533935547 8 -9 73 63 113
3 2 1 0
3 1 4 3
3 0 1 3
3 4 5 3
3 8 7 6
3 7 9 6
3 11 2 0
3 10 11 0
3 12 13 10
3 12 10 3
3 3 10 0
3 3 5 12
3 8 6 14
3 6 9 14
3 16 11 10
3 15 16 10
3 13 17 15
3 10 13 15
3 16 15 18
3 15 17 18
3 21 20 19
3 20 22 19
3 24 21 19
3 23 24 19
3 22 25 23
3 19 22 23
3 24 23 26
3 23 25 26
3 2 28 27
3 1 2 27
3 30 29 4
3 30 4 27
3 27 4 1
3 4 29 5
3 7 8 31
3 7 31 9
3 32 33 28
3 32 28 11
3 11 28 2
3 29 13 12
3 30 13 29
3 30 32 13
3 30 33 32
3 29 12 5
3 31 8 14
3 31 14 9
3 34 32 11
3 16 34 11
3 32 34 17
3 13 32 17
3 34 16 18
3 34 18 17
3 20 21 35
3 20 35 22
3 36 35 21
3 24 36 21
3 35 36 25
3 22 35 25
3 36 24 26
3 36 26 25
3 27 28 37
3 27 37 30
3 37 28 33
3 37 33 30
3 40 39 38
3 39 41 38
3 40 38 42
3 38 41 42
3 45 44 43
3 44 46 43
3 49 48 47
3 48 45 43
3 48 43 47
3 47 43 50
3 46 52 51
3 46 51 43
3 43 51 50
3 52 53 51
3 55 49 47
3 54 55 47
3 47 50 54
3 50 56 54
3 50 51 56
3 51 57 56
3 53 59 58
3 53 58 51
3 51 58 57
3 59 61 60
3 58 59 60
3 61 62 60
3 65 64 63
3 66 67 63
3 66 63 54
3 64 55 63
3 55 54 63
3 69 66 54
3 69 54 68
3 68 54 56
3 56 57 68
3 57 70 68
3 57 58 70
3 58 71 70
3 72 73 71
3 72 71 60
3 60 71 58
3 60 62 72
3 65 63 74
3 63 67 74
3 40 75 39
3 69 68 76
3 75 41 39
3 78 76 68
3 78 68 77
3 77 68 70
3 70 71 77
3 71 79 77
3 73 80 79
3 71 73 79
3 83 82 81
3 82 84 81
3 42 85 87
3 42 87 40
3 86 75 87
3 75 40 87
3 86 89 41
3 86 41 75
3 89 88 41
3 42 41 85
3 88 85 41
3 90 91 88
3 90 88 77
3 89 78 88
3 78 77 88
3 77 79 92
3 90 77 92
3 95 92 79
3 95 79 93
3 80 94 79
3 94 93 79
3 94 96 93
3 83 81 97
3 100 97 81
3 100 81 98
3 84 99 81
3 99 98 81
3 99 87 85
3 99 85 98
3 98 85 101
3 85 88 101
3 88 102 101
3 91 103 102
3 88 91 102
3 95 93 104
3 93 96 104
3 100 98 105
3 107 105 98
3 107 98 106
3 106 98 101
3 108 109 106
3 108 106 102
3 102 106 101
3 102 103 108
3 111 107 106
3 110 111 106
3 109 112 110
3 106 109 110
3 115 114 113
3 114 116 113
3 111 110 117
3 110 112 117
3 115 113 118
3 113 116 118
3 121 120 119
3 120 123 122
3 119 120 122
3 123 124 122
3 127 126 125
3 126 129 128
3 125 126 128
3 129 131 130
3 128 129 130
3 119 44 45
3 121 119 45
3 121 45 130
3 121 130 131
3 44 132 46
3 44 119 132
3 119 122 132
3 124 134 133
3 124 133 122
3 122 133 132
3 134 135 133
3 137 127 125
3 136 137 125
3 125 128 136
3 128 138 136
3 49 130 48
3 49 138 130
3 138 128 130
3 130 45 48
3 132 52 46
3 139 132 133
3 139 53 132
3 139 140 53
3 53 52 132
3 143 139 133
3 143 133 141
3 135 142 133
3 142 141 133
3 142 144 141
3 147 146 145
3 146 137 136
3 146 136 145
3 145 136 148
3 136 138 148
3 138 149 148
3 138 55 149
3 49 55 138
3 140 59 53
3 150 59 140
3 153 151 152
3 150 143 61
3 150 61 59
3 61 143 141
3 61 141 144
3 61 144 62
3 152 151 144
3 151 62 144
3 155 147 145
3 154 155 145
3 145 148 154
3 148 156 154
3 65 149 64
3 65 156 149
3 156 148 149
3 64 149 55
3 67 66 157
3 66 69 157
3 151 153 159
3 72 158 73
3 159 161 62
3 159 62 151
3 161 160 62
3 72 62 158
3 160 158 62
3 161 162 160
3 164 155 154
3 163 164 154
3 154 156 163
3 156 165 163
3 74 156 65
3 74 166 156
3 166 165 156
3 67 166 74
3 67 157 166
3 157 167 166
3 76 157 69
3 76 168 157
3 168 167 157
3 76 78 168
3 169 73 158
3 80 73 169
3 158 160 169
3 160 170 169
3 162 171 170
3 160 162 170
3 173 164 163
3 172 173 163
3 83 165 82
3 83 172 165
3 172 163 165
3 82 174 84
3 82 165 174
3 165 166 174
3 87 167 86
3 87 174 167
3 174 166 167
3 168 86 167
3 89 86 168
3 89 168 78
3 91 90 175
3 92 175 90
3 176 175 92
3 80 169 94
3 92 95 176
3 177 169 170
3 177 96 169
3 177 178 96
3 96 94 169
3 170 171 177
3 173 172 179
3 181 97 180
3 179 97 181
3 179 83 97
3 179 172 83
3 84 174 99
3 97 100 180
3 174 87 99
3 182 91 175
3 103 91 182
3 175 176 182
3 176 183 182
3 104 176 95
3 104 184 176
3 184 183 176
3 184 104 96
3 184 96 185
3 185 96 178
3 181 180 186
3 180 100 105
3 180 105 186
3 186 105 187
3 105 188 187
3 107 188 105
3 108 189 109
3 103 189 108
3 103 182 189
3 182 190 189
3 182 183 190
3 183 191 190
3 192 193 191
3 192 191 184
3 184 191 183
3 184 185 192
3 188 107 194
3 194 107 111
3 195 109 189
3 112 109 195
3 196 197 195
3 196 195 190
3 190 195 189
3 196 115 198
3 196 191 115
3 196 190 191
3 114 115 191
3 114 191 193
3 114 193 116
3 116 193 199
3 194 111 117
3 200 194 117
3 112 200 117
3 112 201 200
3 112 195 201
3 201 202 200
3 197 204 203
3 197 203 195
3 195 203 201
3 198 115 203
3 198 203 204
3 115 118 203
3 206 203 205
3 118 205 203
3 205 118 116
3 199 205 116
3 202 201 207
3 201 203 208
3 207 201 208
3 203 206 208
3 211 210 209
3 210 213 212
3 209 210 212
3 213 215 214
3 212 213 214
3 215 216 214
3 219 218 217
3 218 211 209
3 218 209 217
3 217 209 220
3 121 212 120
3 121 220 212
3 220 209 212
3 214 120 212
3 214 123 120
3 221 222 223
3 214 124 123
3 214 224 124
3 214 216 224
3 225 224 216
3 222 221 226
3 225 228 227
3 224 225 227
3 228 229 227
3 127 231 230
3 126 127 230
3 217 230 219
3 217 129 230
3 129 126 230
3 220 129 217
3 131 129 220
3 220 121 131
3 223 232 221
3 221 232 226
3 124 224 134
3 233 224 227
3 233 135 224
3 233 234 135
3 135 134 224
3 227 229 233
3 235 236 231
3 235 231 137
3 137 231 127
3 236 235 237
3 139 238 140
3 142 234 239
3 142 135 234
3 139 143 238
3 240 144 142
3 240 142 241
3 241 142 239
3 241 242 240
3 147 244 243
3 146 147 243
3 137 245 235
3 137 146 245
3 146 243 245
3 235 245 237
3 238 150 140
3 150 238 143
3 153 152 246
3 246 247 248
3 152 247 246
3 152 240 247
3 152 144 240
3 240 242 247
3 244 147 249
3 249 147 155
3 246 159 153
3 248 159 246
3 248 250 159
3 250 161 159
3 161 250 251
3 162 161 251
3 249 155 252
3 252 155 164
3 251 253 162
3 253 171 162
3 254 255 252
3 254 252 173
3 173 252 164
3 255 254 256
3 178 257 258
3 177 257 178
3 257 177 171
3 253 257 171
3 254 173 179
3 179 256 254
3 179 181 256
3 181 259 256
3 258 260 178
3 260 185 178
3 186 261 262
3 186 262 181
3 181 262 259
3 187 261 186
3 263 261 187
3 187 188 263
3 192 264 193
3 266 185 260
3 266 264 185
3 266 265 264
3 192 185 264
3 266 267 265
3 269 262 261
3 268 269 261
3 261 263 268
3 263 270 268
3 263 194 270
3 188 194 263
3 196 271 197
3 196 198 271
3 272 193 264
3 199 193 272
3 273 274 272
3 273 272 265
3 265 272 264
3 265 267 273
3 269 268 275
3 277 275 268
3 277 268 276
3 276 268 270
3 200 270 194
3 200 278 270
3 278 276 270
3 200 202 278
3 271 204 197
3 206 279 280
3 206 205 279
3 198 204 271
3 199 272 281
3 199 281 205
3 205 281 279
3 272 274 281
3 277 276 282
3 276 278 283
3 282 276 283
3 278 202 207
3 278 207 283
3 283 207 284
3 286 208 285
3 286 284 208
3 284 207 208
3 285 208 206
3 285 206 287
3 287 206 280
3 286 285 288
3 285 287 288
3 211 290 289
3 210 211 289
3 289 291 210
3 210 291 213
3 291 292 213
3 213 292 215
3 293 216 215
3 293 215 294
3 294 215 292
3 294 295 293
3 298 297 296
3 219 296 297
3 219 297 218
3 218 297 299
3 299 211 218
3 290 211 299
3 222 300 223
3 216 293 225
3 222 226 300
3 293 228 225
3 293 302 228
3 293 295 302
3 301 228 302
3 228 301 229
3 296 230 231
3 296 231 298
3 298 231 303
3 296 219 230
3 300 232 223
3 300 226 232
3 301 302 305
3 233 304 234
3 304 233 229
3 304 229 306
3 301 305 229
3 305 306 229
3 236 307 308
3 236 308 231
3 231 308 303
3 236 237 307
3 304 239 234
3 306 239 304
3 306 309 239
3 309 241 239
3 241 309 310
3 242 241 310
3 244 312 311
3 243 244 311
3 307 311 308
3 307 245 311
3 245 243 311
3 307 237 245
3 315 313 314
3 317 314 313
3 316 248 247
3 316 247 242
3 316 242 318
3 318 242 310
3 319 320 312
3 319 312 249
3 249 312 244
3 320 319 321
3 315 322 313
3 322 317 313
3 324 325 323
3 248 316 250
3 250 316 318
3 250 318 251
3 324 323 318
3 323 251 318
3 326 319 249
3 252 326 249
3 321 326 327
3 319 326 321
3 325 328 323
3 323 328 329
3 323 329 251
3 251 329 253
3 326 252 255
3 255 327 326
3 255 256 327
3 256 330 327
3 257 331 258
3 331 257 253
3 331 253 332
3 332 253 329
3 333 334 330
3 333 330 259
3 259 330 256
3 334 333 335
3 336 258 331
3 260 258 336
3 332 337 336
3 331 332 336
3 338 333 259
3 338 259 339
3 339 259 262
3 333 338 335
3 336 266 260
3 266 336 337
3 266 337 267
3 267 337 340
3 343 342 341
3 342 269 341
3 342 339 269
3 339 262 269
3 273 344 274
3 344 273 267
3 344 267 345
3 345 267 340
3 343 341 346
3 348 275 347
3 346 275 348
3 346 269 275
3 346 341 269
3 275 277 347
3 280 349 350
3 279 349 280
3 349 279 351
3 279 281 351
3 274 344 352
3 274 352 281
3 281 352 351
3 344 345 352
3 348 347 353
3 355 282 354
3 353 282 355
3 353 277 282
3 353 347 277
3 283 354 282
3 356 354 283
3 284 356 283
3 357 356 284
3 357 284 286
3 360 358 359
3 359 358 287
3 359 287 350
3 350 287 280
3 355 354 361
3 354 356 362
3 361 354 362
3 356 357 363
3 362 356 363
3 358 360 363
3 358 363 288
3 357 286 363
3 286 288 363
3 358 288 287
3 366 365 364
3 290 364 365
3 290 365 289
3 289 365 367
3 367 368 289
3 289 368 291
3 368 369 291
3 291 369 292
3 371 370 294
3 371 294 369
3 369 294 292
3 294 370 295
3 297 298 372
3 372 373 366
3 372 366 299
3 372 299 297
3 299 366 364
3 364 290 299
3 371 374 370
3 370 302 295
3 370 376 302
3 370 374 376
3 376 375 302
3 376 377 375
3 378 372 298
3 378 298 379
3 379 298 303
3 373 372 378
3 381 382 380
3 381 380 383
3 375 305 302
3 305 375 377
3 305 377 306
3 306 377 384
3 387 386 385
3 386 308 385
3 386 379 308
3 379 303 308
3 382 388 380
3 380 388 383
3 384 309 306
3 389 309 384
3 309 389 390
3 310 309 390
3 385 311 312
3 385 312 387
3 387 312 391
3 385 308 311
3 314 392 315
3 314 317 392
3 390 393 310
3 393 318 310
3 320 394 395
3 320 395 312
3 312 395 391
3 320 321 394
3 392 322 315
3 322 392 317
3 325 324 396
3 396 324 318
3 396 318 397
3 397 318 393
3 399 395 394
3 398 399 394
3 394 327 398
3 321 327 394
3 396 328 325
3 328 396 397
3 328 397 329
3 329 397 400
3 399 398 401
3 398 402 401
3 398 327 402
3 327 330 402
3 405 403 404
3 404 403 332
3 404 332 400
3 400 332 329
3 334 406 407
3 334 407 330
3 330 407 402
3 334 335 406
3 405 408 403
3 403 408 409
3 403 409 332
3 332 409 337
3 406 338 339
3 406 339 407
3 407 339 410
3 406 335 338
3 413 411 412
3 412 411 414
3 409 415 337
3 415 340 337
3 342 343 416
3 418 410 339
3 418 339 416
3 418 416 417
3 342 416 339
3 418 419 420
3 417 419 418
3 420 419 421
3 413 422 411
3 411 422 414
3 415 423 340
3 423 345 340
3 416 343 346
3 346 348 424
3 346 424 416
3 416 424 417
3 425 424 426
3 425 419 424
3 419 417 424
3 419 425 421
3 349 427 350
3 351 427 349
3 428 427 351
3 428 429 430
3 428 351 429
3 351 352 429
3 429 352 345
3 423 429 345
3 424 348 353
3 353 355 431
3 424 353 431
3 424 431 432
3 424 432 426
3 432 433 434
3 431 433 432
3 434 433 435
3 359 436 360
3 436 437 438
3 359 437 436
3 359 427 437
3 359 350 427
3 427 428 439
3 437 427 439
3 428 430 439
3 431 355 361
3 433 431 361
3 362 433 361
3 433 362 363
3 433 363 441
3 433 441 435
3 440 441 363
3 440 442 443
3 363 442 440
3 363 436 442
3 363 360 436
3 436 438 442
3 441 440 444
3 440 443 444
3 365 366 445
3 367 365 445
3 446 367 445
3 368 367 446
3 447 368 446
3 447 449 448
3 447 448 368
3 368 448 369
3 369 448 450
3 371 369 450
3 451 445 366
3 373 451 366
3 445 451 446
3 446 451 452
3 446 452 447
3 447 452 453
3 449 454 455
3 449 447 454
3 447 453 454
3 455 454 456
3 455 456 371
3 455 371 450
3 371 456 374
3 376 374 456
3 457 376 456
3 376 457 377
3 378 379 458
3 382 381 451
3 382 451 458
3 373 378 451
3 378 458 451
3 459 452 451
3 459 451 383
3 459 383 460
3 383 451 381
3 452 461 453
3 459 461 452
3 463 453 461
3 463 462 453
3 462 454 453
3 454 462 456
3 456 462 464
3 456 464 457
3 457 464 465
3 457 465 384
3 377 457 384
3 386 387 466
3 379 386 466
3 379 466 458
3 458 466 467
3 382 458 467
3 382 467 468
3 382 468 388
3 469 468 467
3 468 383 388
3 460 383 468
3 463 470 462
3 472 462 470
3 472 471 462
3 471 464 462
3 473 471 474
3 473 465 471
3 465 464 471
3 476 475 389
3 473 476 389
3 473 389 384
3 473 384 465
3 389 475 390
3 477 466 387
3 477 387 478
3 478 387 391
3 466 479 467
3 477 479 466
3 467 479 469
3 472 480 471
3 474 471 480
3 482 483 481
3 482 481 485
3 476 484 475
3 475 484 486
3 475 486 390
3 390 486 393
3 478 391 487
3 487 391 395
3 483 488 481
3 485 481 488
3 490 491 489
3 490 489 397
3 490 397 486
3 486 397 393
3 487 395 492
3 492 395 399
3 491 493 489
3 489 493 494
3 489 494 397
3 397 494 400
3 492 399 401
3 495 492 401
3 401 496 495
3 402 496 401
3 405 497 498
3 404 497 405
3 497 404 400
3 494 497 400
3 501 500 499
3 500 407 499
3 500 496 407
3 496 402 407
3 498 408 405
3 502 408 498
3 408 502 503
3 409 408 503
3 501 499 504
3 499 505 504
3 499 407 505
3 407 410 505
3 412 506 413
3 506 412 414
3 509 507 508
3 508 507 415
3 508 415 503
3 503 415 409
3 418 510 511
3 418 511 410
3 410 511 505
3 510 512 513
3 510 418 512
3 418 420 512
3 420 514 512
3 421 514 420
3 516 517 515
3 506 422 413
3 422 506 414
3 516 515 509
3 515 507 509
3 515 518 507
3 507 518 423
3 415 507 423
3 511 510 519
3 510 513 519
3 426 520 425
3 522 514 421
3 522 421 520
3 522 520 521
3 425 520 421
3 522 521 523
3 526 524 525
3 525 524 528
3 517 527 515
3 527 529 430
3 527 430 518
3 527 518 515
3 429 518 430
3 518 429 423
3 432 530 532
3 432 532 426
3 531 520 532
3 520 426 532
3 432 533 530
3 432 434 533
3 531 534 520
3 534 521 520
3 534 523 521
3 533 434 435
3 524 526 536
3 437 535 438
3 528 524 536
3 537 538 437
3 537 437 439
3 437 538 535
3 537 439 430
3 529 537 430
3 532 530 539
3 530 533 540
3 539 530 540
3 533 435 441
3 533 441 542
3 533 542 540
3 542 441 541
3 443 542 541
3 443 442 542
3 442 543 542
3 438 535 544
3 438 544 442
3 442 544 543
3 535 538 544
3 541 441 444
3 541 444 443
3 448 449 545
3 448 545 450
3 545 449 455
3 545 455 450
3 548 547 546
3 460 546 547
3 460 547 459
3 459 547 549
3 549 550 459
3 459 550 461
3 551 463 461
3 551 461 552
3 552 461 550
3 552 553 551
3 546 468 469
3 546 469 548
3 548 469 554
3 546 460 468
3 551 470 463
3 470 555 472
3 551 555 470
3 551 556 555
3 551 553 556
3 474 555 556
3 474 556 473
3 558 557 556
3 557 473 556
3 473 557 476
3 477 478 559
3 559 561 560
3 559 560 477
3 477 560 479
3 560 469 479
3 560 554 469
3 563 564 562
3 563 562 565
3 555 480 472
3 555 474 480
3 557 558 567
3 483 482 566
3 567 476 557
3 567 484 476
3 567 569 484
3 568 484 569
3 566 482 485
3 484 568 486
3 570 559 478
3 487 570 478
3 561 570 571
3 559 570 561
3 564 572 562
3 562 572 565
3 574 575 573
3 566 488 483
3 569 490 568
3 569 491 490
3 569 574 491
3 573 491 574
3 566 485 488
3 568 490 486
3 576 570 487
3 576 487 577
3 577 487 492
3 570 576 571
3 575 578 573
3 573 493 491
3 573 578 493
3 578 579 493
3 493 579 580
3 494 493 580
3 577 492 495
3 581 577 495
3 582 495 496
3 582 583 495
3 583 581 495
3 583 582 584
3 587 585 586
3 498 586 585
3 498 497 586
3 497 588 586
3 588 497 494
3 580 588 494
3 500 501 589
3 496 500 589
3 496 589 582
3 582 589 590
3 584 590 591
3 582 590 584
3 593 585 587
3 592 585 593
3 502 498 585
3 502 585 594
3 594 585 592
3 502 594 503
3 589 501 504
3 595 590 589
3 595 589 505
3 595 505 596
3 505 589 504
3 590 595 591
3 599 597 598
3 598 592 593
3 598 597 592
3 597 600 592
3 509 508 594
3 509 594 600
3 600 594 592
3 594 508 503
3 601 602 596
3 601 596 511
3 511 596 505
3 513 602 601
3 513 512 602
3 512 603 602
3 512 604 603
3 514 604 512
3 607 605 606
3 606 605 608
3 610 597 599
3 609 597 610
3 517 516 600
3 517 600 609
3 609 600 597
3 600 516 509
3 601 511 519
3 601 519 513
3 612 611 613
3 612 614 611
3 612 514 614
3 612 604 514
3 514 522 614
3 607 615 605
3 614 522 523
3 608 605 615
3 617 618 616
3 610 620 609
3 621 617 616
3 525 619 526
3 620 517 609
3 620 527 517
3 620 623 527
3 622 527 623
3 619 525 528
3 527 622 529
3 624 625 613
3 624 613 532
3 611 531 613
3 531 532 613
3 625 624 627
3 627 624 626
3 531 611 614
3 531 614 534
3 627 628 629
3 627 626 628
3 534 614 523
3 629 616 618
3 629 628 616
3 628 630 616
3 526 619 536
3 621 616 632
3 616 631 632
3 616 630 631
3 623 537 622
3 623 538 537
3 623 632 538
3 631 538 632
3 619 528 536
3 622 537 529
3 624 532 539
3 626 624 539
3 540 626 539
3 628 626 540
3 542 628 540
3 630 628 542
3 543 630 542
3 631 630 543
3 544 631 543
3 631 544 538
3 547 548 633
3 549 547 633
3 634 549 633
3 550 549 634
3 635 550 634
3 635 637 636
3 635 636 550
3 550 636 552
3 552 636 638
3 553 552 638
3 639 633 548
3 639 548 640
3 640 548 554
3 633 641 634
3 639 641 633
3 634 642 635
3 641 642 634
3 637 635 642
3 644 645 643
3 644 643 646
3 644 646 553
3 644 553 638
3 553 646 556
3 556 646 558
3 560 561 647
3 648 564 563
3 647 649 560
3 649 554 560
3 649 640 554
3 563 565 648
3 645 650 643
3 652 643 650
3 652 651 643
3 651 646 643
3 567 558 646
3 567 646 653
3 653 646 651
3 567 653 569
3 654 647 561
3 654 561 655
3 655 561 571
3 647 654 649
3 564 648 572
3 648 565 572
3 652 656 651
3 656 657 575
3 656 575 653
3 656 653 651
3 574 653 575
3 653 574 569
3 576 577 658
3 658 571 576
3 658 659 571
3 659 655 571
3 662 660 661
3 661 660 663
3 578 665 664
3 578 575 665
3 575 657 665
3 579 578 664
3 666 579 664
3 579 666 580
3 658 577 581
3 658 581 583
3 658 583 668
3 658 668 659
3 667 668 583
3 667 583 584
3 671 669 670
3 670 669 672
3 675 673 674
3 674 673 677
3 662 676 660
3 660 676 663
3 664 587 586
3 664 665 587
3 665 678 587
3 666 664 586
3 588 666 586
3 666 588 580
3 668 667 679
3 584 591 679
3 584 679 667
3 591 680 679
3 671 679 669
3 680 669 679
3 672 681 682
3 672 669 681
3 669 680 681
3 682 681 684
3 675 683 673
3 673 683 677
3 678 685 587
3 685 593 587
3 595 596 686
3 591 595 686
3 591 686 680
3 680 686 687
3 688 687 689
3 688 681 687
3 681 680 687
3 681 688 684
3 599 690 691
3 598 690 599
3 690 598 593
3 685 690 593
3 686 596 602
3 687 686 602
3 603 687 602
3 603 689 687
3 603 604 689
3 604 692 689
3 606 693 607
3 606 608 693
3 691 694 599
3 694 610 599
3 612 613 695
3 697 692 604
3 697 604 695
3 697 695 696
3 612 695 604
3 698 697 696
3 698 699 697
3 693 615 607
3 699 698 701
3 615 693 608
3 700 618 617
3 700 617 621
3 703 702 610
3 703 610 694
3 610 702 620
3 620 702 623
3 695 613 625
3 696 695 625
3 627 696 625
3 698 696 627
3 629 698 627
3 618 700 704
3 618 704 629
3 701 698 704
3 698 629 704
3 702 703 704
3 702 704 632
3 700 621 704
3 621 632 704
3 702 632 623
3 636 637 705
3 636 705 638
3 639 640 706
3 641 639 706
3 707 641 706
3 642 641 707
3 708 642 707
3 645 644 705
3 645 705 708
3 637 642 705
3 642 708 705
3 705 644 638
3 709 706 640
3 649 709 640
3 706 709 707
3 707 709 710
3 707 710 708
3 708 710 711
3 650 645 708
3 650 708 712
3 712 708 711
3 650 712 652
3 654 655 713
3 649 654 713
3 649 713 709
3 709 713 714
3 709 714 710
3 710 714 715
3 710 715 711
3 711 715 716
3 711 716 712
3 712 716 717
3 656 652 712
3 656 712 718
3 718 712 717
3 656 718 657
3 719 713 655
3 659 719 655
3 713 719 714
3 714 719 720
3 714 720 715
3 715 720 721
3 715 721 716
3 716 721 722
3 662 661 717
3 662 717 722
3 722 717 716
3 661 663 723
3 661 723 717
3 717 723 718
3 718 723 665
3 657 718 665
3 724 719 659
3 668 724 659
3 671 670 720
3 671 720 724
3 724 720 719
3 670 672 725
3 670 725 720
3 720 725 721
3 674 726 675
3 727 722 728
3 722 725 728
3 722 721 725
3 726 674 677
3 722 727 662
3 727 676 662
3 727 729 676
3 663 676 729
3 663 729 730
3 663 730 723
3 730 729 731
3 723 730 678
3 665 723 678
3 724 668 679
3 724 679 671
3 725 672 682
3 725 733 728
3 725 732 733
3 725 682 732
3 684 732 682
3 675 726 683
3 726 677 683
3 733 732 734
3 736 730 731
3 735 730 736
3 730 735 685
3 678 730 685
3 688 689 737
3 684 688 737
3 684 737 732
3 732 737 738
3 734 739 740
3 734 732 739
3 732 738 739
3 735 691 690
3 736 691 735
3 736 739 691
3 736 740 739
3 735 690 685
3 741 737 689
3 692 741 689
3 737 741 738
3 738 741 742
3 738 742 739
3 739 742 743
3 739 743 694
3 691 739 694
3 741 692 697
3 742 741 697
3 699 742 697
3 699 701 744
3 699 744 742
3 742 744 743
3 743 744 703
3 694 743 703
3 744 701 704
3 744 704 703
3 727 728 745
3 729 727 745
3 746 729 745
3 729 746 731
3 745 728 733
3 733 734 747
3 733 747 745
3 745 747 746
3 746 747 736
3 731 746 736
3 747 734 740
3 747 740 736
3 750 749 748
3 749 751 748
3 753 750 748
3 752 753 748
3 751 754 752
3 748 751 752
3 753 752 755
3 752 754 755
3 758 757 756
3 757 759 756
3 758 756 760
3 756 759 760
3 749 750 761
3 749 761 751
3 762 761 750
3 753 762 750
3 761 762 754
3 751 761 754
3 762 753 755
3 762 755 754
3 757 758 763
3 757 763 759
3 763 758 760
3 763 760 759
