ply
format ascii 1.0
element vertex 604
property float x
property float y
property float z
property uchar red
property uchar green
property uchar blue
element face 1204
property list uchar int vertex_indices
end_header
-3.17156600952148438 -9 0 56 14 49
-3 -9.71623992919921875 0 45 13 33
-3 -9 -0.985542654991149902 61 18 51
-3.08259224891662598 -9 1 54 13 50
-3 -9.55046367645263672 1 44 12 33
-3 -9 1.23256254196166992 61 17 54
-3.08312797546386719 -8 -1 70 18 70
-3 -8.97082614898681641 -1 61 18 51
-3 -8 -1.18770980834960938 72 21 68
-3.25826835632324219 -8 0 69 18 72
-3.16739344596862793 -8 1 64 17 69
-3 -8 1.47570371627807617 74 21 77
-3.16491389274597168 -7 -1 70 21 83
-3 -7 -1.37643933296203613 79 25 86
-3.33011269569396973 -7 0 68 21 82
-3.23466134071350098 -7 1 62 19 77
-3 -7 1.64248645305633545 72 25 91
-3.22934389114379883 -6 -1 66 24 89
-3 -6 -1.560569167137146 74 28 98
-3.37057757377624512 -6 0 64 23 88
-3.25368928909301758 -6 1 58 22 83
-3 -6 1.68732082843780518 66 27 97
-3.24237537384033203 -5 -1 61 26 94
-3 -5 -1.61920535564422607 67 31 105
-3.3810887336730957 -5 0 58 26 93
-3.26407909393310547 -5 1 53 24 88
-3 -5 1.71553337574005127 59 30 102
-3.24881529808044434 -4 -1 55 28 97
-3 -4 -1.63570857048034668 60 33 108
-3.38760685920715332 -4 0 52 28 96
-3.2705228328704834 -4 1 47 26 91
-3 -4 1.73303818702697754 52 32 105
-3.25130105018615723 -3 -1 49 30 99
-3 -3 -1.64208018779754639 54 36 109
-3.39012408256530762 -3 0 47 30 98
-3.27301359176635742 -3 1 41 28 93
-3 -3 1.73981153964996338 46 34 107
-3.24983048439025879 -2 -1 45 32 99
-3 -2 -1.63831174373626709 50 38 110
-3.38863754272460938 -2 0 43 31 98
-3.27154850959777832 -2 1 37 29 93
-3 -2 1.73584496974945068 42 36 107
-3.24440503120422363 -1 -1 43 34 98
-3 -1 -1.62440764904022217 47 40 108
-3.38314938545227051 -1 0 40 33 97
-3.26612997055053711 -1 1 35 31 92
-3 -1 1.7211451530456543 39 38 106
-3.23503017425537109 0 -1 42 35 95
-3 0 -1.60038566589355469 47 41 106
-3.37366676330566406 0 0 39 34 94
-3.25676512718200684 0 1 34 32 90
-3 0 1.69573450088500977 40 41 103
-3.22171616554260254 1 -1 42 36 91
-3 1 -1.5662764310836792 47 43 102
-3.36020183563232422 1 0 39 35 90
-3.24346542358398438 1 1 34 33 85
-3 1 1.65965008735656738 41 42 99
-3.20447611808776855 2 -1 43 36 86
-3 2 -1.52212405204772949 49 43 97
-3.34277153015136719 2 0 41 35 85
-3.22624754905700684 2 1 36 33 80
-3 2 1.61294341087341309 42 42 94
-3.18332839012145996 3 -1 44 36 79
-3 3 -1.46798622608184814 51 44 90
-3.32139801979064941 3 0 42 35 78
-3.20513224601745605 3 1 37 32 73
-3 3 1.55567944049835205 45 41 87
-3.1582939624786377 4 -1 44 34 70
-3 4 -1.40393483638763428 52 43 81
-3.29610729217529297 4 0 42 34 69
-3.1801450252532959 4 1 37 30 64
-3 4 1.48793542385101318 46 40 78
-3.12939834594726562 5 -1 42 32 59
-3 5 -1.330055832862854 51 40 71
-3.26693081855773926 5 0 40 31 58
-3.15131545066833496 5 1 36 27 53
-3 5 1.40979921817779541 46 38 68
-3.09667015075683594 6 -1 37 27 47
-3 6 -1.24644970893859863 47 36 59
-3.23390340805053711 6 0 36 26 46
-3.11867690086364746 6 1 31 23 41
-3 6 1.32136845588684082 43 34 56
-3.06014132499694824 7 -1 28 21 33
-3 7 -1.15323185920715332 39 30 45
-3.19706439971923828 7 0 27 20 32
-3.08226656913757324 7 1 22 16 26
-3 7 1.222747802734375 35 28 42
-3.01984715461730957 8 -1 16 11 17
-3 8 -1.05053257942199707 27 21 29
-3.15645599365234375 8 0 15 11 16
-3.04212498664855957 8 1 9 7 10
-3 8 1.11404812335968018 24 19 26
-3 8.24276351928710938 -1 30 24 33
-3 8.71396446228027344 0 29 23 32
-3 8.40436935424804688 1 24 19 26
-2.36606717109680176 -9 -2 56 17 46
-2 -9.7934722900390625 -2 42 14 30
-2 -9 -2.36732268333435059 52 17 41
-2.9963078498840332 -9 -1 61 18 51
-2 -9.90902042388916016 -1 47 16 34
-2 -9.92510128021240234 0 49 16 36
-2 -9.91774082183837891 1 47 15 36
-2.60857868194580078 -9 2 56 15 53
-2 -9.8626861572265625 2 42 13 33
-2 -9 2.69789338111877441 60 18 55
-2.48770523071289062 -8 -2 72 21 68
-2 -8 -2.48939228057861328 68 22 62
-2.73246932029724121 -8 2 65 19 72
-2 -8 2.84018325805664062 71 22 76
-2.60656642913818359 -7 -2 79 25 86
-2 -7 -2.60868191719055176 79 26 82
-2.80816316604614258 -7 2 62 22 82
-2 -7 2.94237327575683594 68 26 90
-2.72262740135192871 -6 -2 74 28 98
-2 -6 -2.72516536712646484 76 30 94
-2.83577227592468262 -6 2 57 24 89
-2 -6 2.96848940849304199 61 29 98
-2.78240871429443359 -5 -2 67 31 105
-2 -5 -2.83880829811096191 68 33 105
-2.8505709171295166 -5 2 50 27 93
-2 -5 2.98562479019165039 53 32 103
-2.79765820503234863 -4 -2 60 33 108
-2 -4 -2.89136290550231934 59 36 111
-2.85975551605224609 -4 2 44 29 96
-2 -4 2.99626421928405762 46 34 106
-2.8011934757232666 -3 -2 54 36 109
-2 -3 -2.89531731605529785 53 38 112
-2.8633110523223877 -3 2 38 31 98
-2.00031518936157227 -3 3 29 26 85
-2 -3.0944216251373291 3 36 29 93
-2 -3 3.00025653839111328 32 33 95
-2.7991032600402832 -2 -2 50 38 110
-2 -2 -2.89298582077026367 49 40 113
-2.86123204231262207 -2 2 34 33 98
-2 -2.83731174468994141 3 32 33 95
-2 -2 2.99799489974975586 39 42 108
-2.79139041900634766 -1 -2 47 40 108
-2 -1 -2.88437128067016602 46 42 111
-2.85352277755737305 -1 2 34 37 97
-2 -1 2.98908543586730957 41 48 107
-2.77806544303894043 0 -2 47 41 106
-2 0 -2.86948442459106445 46 44 109
-2.84019827842712402 0 2 36 40 95
-2 0 2.9736783504486084 42 51 104
-2.75914764404296875 1 -2 47 43 102
-2 1 -2.84834504127502441 47 46 105
-2.82128286361694336 1 2 37 41 90
-2 1 2.95180225372314453 44 52 100
-2.73466348648071289 2 -2 49 43 97
-2 2 -2.82098102569580078 49 47 100
-2.79681134223937988 2 2 37 39 85
-2 2 2.92349696159362793 44 50 95
-2.70464777946472168 3 -2 51 44 90
-2 3 -2.7874290943145752 52 47 93
-2.76682710647583008 3 2 37 36 78
-2 3 2.88881254196166992 44 46 88
-2.66914224624633789 4 -2 52 43 81
-2 4 -2.74773478507995605 54 46 84
-2.73138308525085449 4 2 38 35 69
-2 4 2.8478093147277832 44 43 79
-2.62819623947143555 5 -2 51 40 71
-2 5 -2.70195174217224121 53 44 74
-2.69054079055786133 5 2 38 32 59
-2 5 2.80055642127990723 45 40 69
-2.58186554908752441 6 -2 47 36 59
-2 6 -2.65014219284057617 50 40 62
-2.64436912536621094 6 2 34 27 46
-2 6 2.74713134765625 42 36 57
-2.5302128791809082 7 -2 39 30 45
-2 7 -2.5923769474029541 42 34 48
-2.59294509887695312 7 2 26 21 32
-2 7 2.68761825561523438 36 30 43
-2.47330594062805176 8 -2 27 21 29
-2 8 -2.52873539924621582 30 25 32
-2.53635144233703613 8 2 14 11 16
-2 8 2.62210750579833984 25 20 27
-2 8.84406852722167969 -2 38 31 40
-2 8.91839790344238281 -1 41 34 44
-2 8.92976665496826172 0 40 33 43
-2 8.92050266265869141 1 34 28 37
-2 8.85916996002197266 2 25 20 27
-1.00478672981262207 -9 -3 52 17 41
-1 -9.03084564208984375 -3 34 12 24
-1 -9 -3.00213861465454102 40 14 32
-1 -9.90927982330322266 -2 43 16 30
-1 -9.94059944152832031 -1 48 18 34
-1 -9.94750881195068359 0 49 18 36
-1 -9.94423007965087891 1 48 17 36
-1 -9.92502403259277344 2 42 14 33
-1.58112549781799316 -9 3 51 14 50
-1 -9.79049205780029297 3 33 11 28
-1 -9 3.28489375114440918 51 16 49
-1.19717788696289062 -8 -3 68 22 62
-1 -8 -3.08802247047424316 57 19 51
-1.77849864959716797 -8 3 57 19 67
-1 -8 3.38140583038330078 59 21 67
-1.38501536846160889 -7 -3 79 26 82
-1 -7 -3.17174124717712402 69 24 71
-1.92130696773529053 -7 3 55 22 79
-1 -7 3.46100187301635742 57 25 82
-1.56826841831207275 -6 -3 76 30 94
-1 -6 -3.25328803062438965 70 28 84
-1.95811033248901367 -6 3 49 25 85
-1 -6 3.49643373489379883 49 29 91
-1.74689567089080811 -5 -3 68 33 105
-1 -5 -3.33265018463134766 64 32 95
-1.98089003562927246 -5 3 42 27 90
-1 -5 3.50817155838012695 42 31 96
-1.84448635578155518 -4 -3 59 36 111
-1 -4 -3.40981078147888184 54 35 104
-1.99503374099731445 -4 3 36 29 93
-1 -4 3.51545977592468262 35 34 99
-1.85606884956359863 -3 -3 53 38 112
-1 -3 -3.43206167221069336 46 37 108
-1 -3 3.51828837394714355 36 42 100
-1.85286390781402588 -2 -3 49 40 113
-1 -2 -3.43045449256896973 42 39 108
-1.99733459949493408 -2 3 33 41 95
-1 -2 3.51665401458740234 38 50 101
-1.8410186767578125 -1 -3 46 42 111
-1 -1 -3.42450714111328125 41 43 107
-1.98549103736877441 -1 3 35 46 94
-1 -1 3.51056027412414551 40 56 100
-1.82054769992828369 0 -3 46 44 109
-1 0 -3.41422414779663086 43 47 104
-1.96501052379608154 0 3 36 48 91
-1 0 3.50001668930053711 41 58 97
-1.79147672653198242 1 -3 47 46 105
-1 1 -3.39961528778076172 45 48 100
-1.93593132495880127 1 3 37 48 87
-1 1 3.48504018783569336 42 57 93
-1.75384211540222168 2 -3 49 47 100
-1 2 -3.38069391250610352 45 47 95
-1.89830696582794189 2 3 37 45 82
-1 2 3.46565389633178711 43 55 88
-1.70769119262695312 3 -3 52 47 93
-1 3 -3.35747742652893066 47 45 88
-1.85220563411712646 3 3 36 41 75
-1 3 3.44188666343688965 42 50 80
-1.65308153629302979 4 -3 54 46 84
-1 4 -3.32998776435852051 49 44 79
-1.79770898818969727 4 3 35 35 66
-1 4 3.41377377510070801 40 44 72
-1.59008049964904785 5 -3 53 44 74
-1 5 -3.29825115203857422 48 42 69
-1.73491227626800537 5 3 34 31 55
-1 5 3.38135552406311035 38 37 61
-1.51876473426818848 6 -3 50 40 62
-1 6 -3.2622978687286377 44 37 57
-1.66392207145690918 6 3 30 26 43
-1 6 3.34467649459838867 35 32 49
-1.43921995162963867 7 -3 42 34 48
-1 7 -3.22216224670410156 37 31 42
-1.58485615253448486 7 3 23 19 29
-1 7 3.30378627777099609 28 25 35
-1.3515397310256958 8 -3 30 25 32
-1 8 -3.17788314819335938 24 21 26
-1.49784171581268311 8 3 11 9 13
-1 8 3.25873708724975586 17 15 19
-1 8.72341632843017578 -3 36 31 39
-1 8.92485141754150391 -2 44 38 47
-1 8.94672012329101562 -1 47 41 50
-1 8.95147991180419922 0 46 40 49
-1 8.94755744934082031 1 40 35 44
-1 8.92830753326416016 2 31 26 34
-1 8.78604984283447266 3 17 15 19
0 -9.72423839569091797 -3 31 12 22
0 -9 -3.17910885810852051 37 14 29
0 -9.925445556640625 -2 40 16 28
0 -9.94758796691894531 -1 45 18 33
0 -9.95290660858154297 0 46 19 34
0 -9.9503631591796875 1 44 17 34
0 -9.93619823455810547 2 39 15 31
0 -9.86299610137939453 3 30 11 25
0 -9 3.48375582695007324 48 17 46
0 -8 -3.26610994338989258 54 20 48
0 -8 3.58191704750061035 57 22 64
0 -7 -3.35100889205932617 67 25 68
0 -7 3.67785954475402832 56 27 78
0 -6 -3.4337925910949707 68 29 81
0 -6 3.73368358612060547 48 31 91
0 -5 -3.51444196701049805 64 33 92
0 -5 3.75081610679626465 39 34 97
0 -4 -3.59293365478515625 55 37 102
0 -4 3.75828313827514648 37 41 100
0 -3 -3.66678643226623535 42 40 110
0 -3 3.76118230819702148 39 51 102
0 -2 -3.66514468193054199 42 46 110
0 -2 3.75950956344604492 41 59 102
0 -1 -3.65906357765197754 44 52 109
0 -1 3.75326871871948242 43 64 101
0 0 -3.64854979515075684 46 55 106
0 0 3.74247145652770996 45 66 99
0 1 -3.63361454010009766 47 56 102
0 1 3.72713780403137207 46 65 95
0 2 -3.61427450180053711 48 54 97
0 2 3.70729494094848633 46 62 89
0 3 -3.59055137634277344 48 51 90
0 3 3.68297743797302246 46 57 82
0 4 -3.56247186660766602 49 47 81
0 4 3.65422701835632324 44 50 74
0 5 -3.53006768226623535 49 45 71
0 5 3.62109112739562988 41 42 63
0 6 -3.49337601661682129 46 40 59
0 6 3.58362364768981934 37 35 51
0 7 -3.4524381160736084 38 33 45
0 7 3.54188299179077148 30 28 37
0 8 -3.40730047225952148 26 23 29
0 8 3.49593162536621094 19 17 21
0 8.85436058044433594 -3 38 34 41
0 8.9385986328125 -2 46 41 49
0 8.95362377166748047 -1 49 44 52
0 8.95714569091796875 0 48 43 51
0 8.95423412322998047 1 42 38 46
0 8.94084548950195312 2 32 29 36
0 8.873321533203125 3 19 17 21
1 -9.57718276977539062 -3 24 10 18
1 -9 -3.09241080284118652 30 12 25
1 -9.91838455200195312 -2 33 14 24
1 -9.94441604614257812 -1 38 17 28
1 -9.95043563842773438 0 39 17 30
1 -9.94756698608398438 1 37 16 29
1 -9.93122673034667969 2 32 13 26
1 -9.83534622192382812 3 23 9 19
1 -9 3.38640069961547852 41 16 40
1 -8 -3.17884731292724609 47 19 43
1 -8 3.48372244834899902 51 22 57
1 -7 -3.26315069198608398 60 24 62
1 -7 3.57879257202148438 52 27 72
1 -6 -3.34530997276306152 63 29 75
1 -6 3.66872024536132812 46 32 85
1 -5 -3.42530941963195801 60 33 86
1 -5 3.70037412643432617 35 36 95
1 -4 -3.5031282901763916 52 37 96
1 -4 3.70780277252197266 38 49 98
1 -3 -3.57874274253845215 41 40 104
1 -3 3.71068620681762695 41 59 100
1 -2 -3.61646127700805664 43 53 108
1 -2 3.70902037620544434 43 66 100
1 -1 -3.6104118824005127 45 59 107
1 -1 3.70280909538269043 45 71 99
1 0 -3.59995245933532715 47 62 104
1 0 3.69206380844116211 47 72 96
1 1 -3.58509373664855957 49 62 100
1 1 3.6768035888671875 48 71 92
1 2 -3.56585121154785156 49 60 95
1 2 3.65705466270446777 48 67 87
1 3 -3.54224586486816406 49 56 88
1 3 3.63285040855407715 47 60 80
1 4 -3.51430273056030273 48 50 79
1 4 3.60423111915588379 45 53 71
1 5 -3.48205232620239258 46 45 69
1 5 3.5712425708770752 41 45 60
1 6 -3.44552946090698242 43 40 56
1 6 3.53393650054931641 35 36 48
1 7 -3.40477395057678223 36 33 42
1 7 3.49236917495727539 28 27 34
1 8 -3.35983014106750488 24 22 26
1 8 3.44660139083862305 16 15 18
1 8.83885097503662109 -3 36 33 39
1 8.9362335205078125 -2 44 40 46
1 8.95237541198730469 -1 47 44 50
1 8.95610904693603516 0 45 43 48
1 8.95302295684814453 1 40 38 43
1 8.93866634368896484 2 30 28 33
1 8.86182212829589844 3 16 15 18
1.26168644428253174 -9 -3 42 18 34
2 -9.86526393890380859 -2 22 10 17
2 -9 -2.62510514259338379 32 14 27
2 -9.92557621002197266 -1 27 13 21
2 -9.93646430969238281 0 29 13 23
2 -9.93138980865478516 1 27 12 21
2 -9.89811325073242188 2 21 9 18
1.99787473678588867 -9 3 41 16 40
2 -9 2.99877572059631348 39 17 37
1.50694334506988525 -8 -3 59 24 54
2 -8 -2.74948287010192871 49 21 45
2 -8.99149990081787109 3 30 13 30
2 -8 3.09374260902404785 41 19 47
1.74661159515380859 -7 -3 72 30 73
2 -7 -2.87117671966552734 61 27 64
2 -7 3.18590021133422852 44 25 62
1.9806365966796875 -6 -3 73 34 86
2 -6 -2.99014973640441895 64 33 77
2 -6 3.27566814422607422 40 30 75
2 -5.91453886032104492 -3 64 33 77
2 -5 -3.07123732566833496 53 32 77
2 -5 3.34646725654602051 35 39 86
2 -4 -3.146820068359375 47 36 87
2 -4 3.36832618713378906 38 54 91
2 -3 -3.22012162208557129 39 42 95
2 -3 3.37111735343933105 41 63 93
2 -2 -3.28830623626708984 43 59 102
2 -2 3.36949849128723145 43 70 93
2 -1 -3.28243374824523926 45 64 101
2 -1 3.36347293853759766 45 74 92
2 0 -3.27227902412414551 46 66 98
2 0 3.35304927825927734 46 75 90
2 1 -3.25784993171691895 48 66 94
2 1 3.3382422924041748 47 72 86
2 2 -3.23915767669677734 48 62 88
2 2 3.31907272338867188 47 67 80
2 3 -3.2162168025970459 48 57 81
2 3 3.29556632041931152 45 60 73
2 4 -3.18904566764831543 46 51 72
2 4 3.26775383949279785 43 52 64
2 5 -3.15766620635986328 42 44 62
2 5 3.23567104339599609 38 43 53
2 6 -3.12210369110107422 38 37 49
2 6 3.19935798645019531 31 33 41
2 7 -3.08238744735717773 30 28 35
2 7 3.15885806083679199 22 22 27
2 8 -3.03855061531066895 17 16 19
2 8 3.11421823501586914 10 9 11
2 8.36450099945068359 -3 29 28 31
2 8.91246986389160156 -2 37 35 39
2 8.94116401672363281 -1 40 39 42
2 8.94702816009521484 0 39 38 41
2 8.94220066070556641 1 34 32 36
2 8.91718482971191406 2 24 23 25
2 8.62152290344238281 3 10 9 11
2.71809697151184082 -9 -2 41 18 34
3 -9.79699420928955078 -1 13 6 10
3 -9 -1.60895860195159912 26 13 23
3 -9.86512374877929688 0 14 7 12
3 -9.83751869201660156 1 12 6 10
3 -9.03321075439453125 2 7 3 6
3 -9 2.00366306304931641 25 12 24
2.86107850074768066 -8 -2 57 25 53
3 -8 -1.80734872817993164 43 20 42
2.13608098030090332 -8 3 41 19 47
3 -8 2.14014434814453125 38 19 42
3 -7.00716590881347656 -2 43 20 42
3 -7 -2.00082969665527344 47 23 50
2.26995015144348145 -7 3 44 25 62
3 -7 2.27332019805908203 44 26 57
3 -6 -2.1128075122833252 51 29 63
2.40044212341308594 -6 3 40 30 75
3 -6 2.40317130088806152 43 32 70
2.11368775367736816 -5 -3 61 37 88
3 -5 -2.22176814079284668 50 34 75
2.52753829956054688 -5 3 35 39 86
3 -5 2.52966856956481934 37 37 81
2.23442316055297852 -4 -3 54 41 98
3 -4 -2.32769083976745605 45 38 85
2.59580850601196289 -4 3 38 54 91
3 -4 2.6259002685546875 41 56 91
2.35162949562072754 -3 -3 45 47 106
3 -3 -2.43054866790771484 42 48 94
2.60033440589904785 -3 3 41 63 93
3 -3 2.64532804489135742 45 70 96
2.463653564453125 -2 -3 48 66 112
3 -2 -2.53030967712402344 46 66 100
2.59769845008850098 -2 3 43 70 93
3 -2 2.64298367500305176 47 77 96
2.46899914741516113 -1 -3 51 72 111
3 -1 -2.54441952705383301 48 74 101
2.5879063606262207 -1 3 45 74 92
3 -1 2.63428425788879395 49 81 95
2.45209360122680664 0 -3 53 74 108
3 0 -2.52991342544555664 50 76 98
2.57097530364990234 0 3 46 75 90
3 0 2.61924409866333008 51 81 92
2.42807912826538086 1 -3 55 74 105
3 1 -2.50930905342102051 51 74 94
2.54693341255187988 1 3 47 72 86
3 1 2.59788632392883301 51 78 88
2.39698004722595215 2 -3 56 71 99
3 2 -2.48262858390808105 52 70 89
2.51582121849060059 2 3 47 67 80
3 2 2.57024359703063965 51 73 83
2.35882854461669922 3 -3 56 66 92
3 3 -2.44990134239196777 51 64 82
2.47768855094909668 3 3 45 60 73
3 3 2.53635716438293457 50 66 75
2.31366372108459473 4 -3 54 60 84
3 4 -2.4111628532409668 49 57 73
2.43259716033935547 4 3 43 52 64
3 4 2.4962763786315918 47 57 67
2.26153135299682617 5 -3 52 53 73
3 5 -2.36645627021789551 45 49 62
2.38061785697937012 5 3 38 43 53
3 5 2.4500579833984375 43 47 56
2.2024843692779541 6 -3 48 47 61
3 6 -2.31583166122436523 39 40 50
2.32183074951171875 6 3 31 33 41
3 6 2.3977653980255127 36 37 44
2.1365816593170166 7 -3 41 39 47
3 7 -2.25934624671936035 31 30 36
2.25632476806640625 7 3 22 22 27
3 7 2.33946776390075684 26 26 29
2.0638885498046875 8 -3 29 28 31
3 8 -2.19706416130065918 18 18 19
2.18419528007507324 8 3 10 9 11
3 8 2.2752387523651123 13 12 13
3 8.67348003387451172 -2 26 26 27
3 8.88969516754150391 -1 29 29 31
3 8.90998649597167969 0 28 28 29
3 8.893585205078125 1 23 22 24
3 8.73419094085693359 2 13 12 13
3.29813933372497559 -9 -1 31 15 28
3.49528264999389648 -9 0 33 16 29
3.39457893371582031 -9 1 31 15 28
3.0025482177734375 -9 2 25 12 24
3.39497089385986328 -8 -1 48 23 47
3.59374690055847168 -8 0 49 24 49
3.49221062660217285 -8 1 46 22 47
3.09744405746459961 -8 2 38 19 42
3.00065922737121582 -7 -2 54 27 58
3.48954129219055176 -7 -1 57 30 63
3.69001936912536621 -7 0 57 31 64
3.58760595321655273 -7 1 52 29 62
3.18994951248168945 -7 2 44 26 57
3.08959412574768066 -6 -2 57 33 71
3.58183550834655762 -6 -1 60 36 76
3.78407979011535645 -6 0 58 36 77
3.68074893951416016 -6 1 52 35 75
3.28006267547607422 -6 2 43 32 70
3.1760857105255127 -5 -2 55 38 83
3.67183184623718262 -5 -1 57 41 87
3.8759009838104248 -5 0 54 42 88
3.77161693572998047 -5 1 47 40 87
3.36777496337890625 -5 2 37 37 81
3.26012229919433594 -4 -2 49 43 93
3.75950312614440918 -4 -1 49 46 97
3.96544861793518066 -4 0 46 47 98
3.86017990112304688 -4 1 45 52 96
3.45307087898254395 -4 2 41 56 91
3.34168839454650879 -3 -2 47 54 101
3.84481668472290039 -3 -1 50 61 105
4 -3.60189080238342285 0 41 46 82
4 -3 -0.249677836894989014 45 59 90
3.94640207290649414 -3 1 49 73 104
4 -3 0.493106067180633545 45 65 91
3.49512290954589844 -3 2 45 70 96
3.42076373100280762 -2 -2 50 73 108
3.92733263969421387 -2 -1 53 79 111
4 -2 -0.604350864887237549 49 78 97
3.96180891990661621 -2 1 52 81 105
4 -2 0.74586331844329834 49 80 96
3.49331808090209961 -2 2 47 77 96
3.4331212043762207 -1 -2 53 80 108
3.92691230773925781 -1 -1 56 84 110
4 -1 -0.589066505432128906 51 82 96
3.95479655265808105 -1 1 54 85 104
4 -1 0.699153721332550049 51 83 95
3.48663616180419922 -1 2 49 81 95
3.4215848445892334 0 -2 55 82 105
3.91481566429138184 0 -1 58 86 108
4 0 -0.520992040634155273 52 82 93
3.94268369674682617 0 1 56 86 101
4 0 0.618438184261322021 53 83 92
3.47508740425109863 0 2 51 81 92
3.40520000457763672 1 -2 57 81 101
3.89764523506164551 1 -1 59 84 104
4 1 -0.424339562654495239 53 80 89
3.92549252510070801 1 1 57 84 97
4 1 0.503808736801147461 53 80 88
3.45868992805480957 1 2 51 78 88
3.38398432731628418 2 -2 57 77 96
3.87542819976806641 2 -1 60 80 98
4 2 -0.299244344234466553 53 75 84
3.90325474739074707 2 1 57 79 92
4 2 0.355389773845672607 53 75 82
3.43746829032897949 2 2 51 73 83
3.35796093940734863 3 -2 57 71 89
3.84820055961608887 3 -1 60 74 91
4 3 -0.145887657999992371 52 67 76
3.87601017951965332 3 1 57 72 85
4 3 0.173330962657928467 52 67 75
3.4114539623260498 3 2 50 66 75
3.32715773582458496 4 -2 55 63 80
3.81600499153137207 4 -1 58 67 83
3.99358582496643066 4 0 58 67 82
4 3.80385684967041016 0 52 67 75
3.84380769729614258 4 1 54 64 76
3.38068509101867676 4 2 47 57 67
3.29160761833190918 5 -2 52 55 70
3.77889251708984375 5 -1 55 59 73
3.95581579208374023 5 0 55 59 71
3.80670404434204102 5 1 50 55 66
3.34520626068115234 5 2 43 47 56
3.25134825706481934 6 -2 46 47 57
3.73692083358764648 6 -1 49 50 60
3.91312837600708008 6 0 49 50 59
3.76476359367370605 6 1 44 45 54
3.30506777763366699 6 2 36 37 44
3.20642209053039551 7 -2 38 38 43
3.69015383720397949 7 -1 42 41 46
3.86559820175170898 7 0 40 40 45
3.71805787086486816 7 1 35 35 39
3.26032543182373047 7 2 26 26 29
3.1568748950958252 8 -2 26 26 27
3.63866209983825684 8 -1 29 29 31
3.81330776214599609 8 0 28 28 29
3.66666483879089355 8 1 23 22 24
3.21104001998901367 8 2 13 12 13
4.03671932220458984 -3 0 45 65 91
4.07827997207641602 -2 0 49 80 96
4.07338094711303711 -1 0 51 83 95
4.06491422653198242 0 0 53 83 92
4.0528874397277832 1 0 53 80 88
4.03731155395507812 2 0 53 75 82
4.01819992065429688 3 0 52 67 75
3 2 1 0
3 1 4 3
3 0 1 3
3 4 5 3
3 8 7 6
3 7 2 0
3 7 0 6
3 6 0 9
3 0 3 9
3 3 10 9
3 5 11 10
3 3 5 10
3 13 8 6
3 12 13 6
3 6 9 12
3 9 14 12
3 9 10 14
3 10 15 14
3 11 16 15
3 10 11 15
3 18 13 12
3 17 18 12
3 12 14 17
3 14 19 17
3 14 15 19
3 15 20 19
3 16 21 20
3 15 16 20
3 23 18 17
3 22 23 17
3 17 19 22
3 19 24 22
3 19 20 24
3 20 25 24
3 21 26 25
3 20 21 25
3 28 23 22
3 27 28 22
3 22 24 27
3 24 29 27
3 24 25 29
3 25 30 29
3 26 31 30
3 25 26 30
3 33 28 27
3 32 33 27
3 27 29 32
3 29 34 32
3 29 30 34
3 30 35 34
3 31 36 35
3 30 31 35
3 38 33 32
3 37 38 32
3 32 34 37
3 34 39 37
3 34 35 39
3 35 40 39
3 36 41 40
3 35 36 40
3 43 38 37
3 42 43 37
3 37 39 42
3 39 44 42
3 39 40 44
3 40 45 44
3 41 46 45
3 40 41 45
3 48 43 42
3 47 48 42
3 42 44 47
3 44 49 47
3 44 45 49
3 45 50 49
3 46 51 50
3 45 46 50
3 53 48 47
3 52 53 47
3 47 49 52
3 49 54 52
3 49 50 54
3 50 55 54
3 51 56 55
3 50 51 55
3 58 53 52
3 57 58 52
3 52 54 57
3 54 59 57
3 54 55 59
3 55 60 59
3 56 61 60
3 55 56 60
3 63 58 57
3 62 63 57
3 57 59 62
3 59 64 62
3 59 60 64
3 60 65 64
3 61 66 65
3 60 61 65
3 68 63 62
3 67 68 62
3 62 64 67
3 64 69 67
3 64 65 69
3 65 70 69
3 66 71 70
3 65 66 70
3 73 68 67
3 72 73 67
3 67 69 72
3 69 74 72
3 69 70 74
3 70 75 74
3 71 76 75
3 70 71 75
3 78 73 72
3 77 78 72
3 72 74 77
3 74 79 77
3 74 75 79
3 75 80 79
3 76 81 80
3 75 76 80
3 83 78 77
3 82 83 77
3 77 79 82
3 79 84 82
3 79 80 84
3 80 85 84
3 81 86 85
3 80 81 85
3 88 83 82
3 87 88 82
3 82 84 87
3 84 89 87
3 84 85 89
3 85 90 89
3 86 91 90
3 85 86 90
3 88 87 92
3 87 89 93
3 92 87 93
3 89 90 94
3 93 89 94
3 90 91 94
3 97 96 95
3 96 99 98
3 95 96 98
3 2 98 99
3 2 99 1
3 1 99 100
3 100 101 1
3 1 101 4
3 102 5 4
3 102 4 103
3 103 4 101
3 103 104 102
3 106 97 95
3 105 106 95
3 8 98 7
3 8 105 98
3 105 95 98
3 98 2 7
3 107 5 102
3 11 5 107
3 104 108 107
3 102 104 107
3 110 106 105
3 109 110 105
3 105 13 109
3 8 13 105
3 111 11 107
3 16 11 111
3 108 112 111
3 107 108 111
3 114 110 109
3 113 114 109
3 109 18 113
3 13 18 109
3 115 16 111
3 21 16 115
3 112 116 115
3 111 112 115
3 118 114 113
3 117 118 113
3 113 23 117
3 18 23 113
3 119 21 115
3 26 21 119
3 116 120 119
3 115 116 119
3 122 118 117
3 121 122 117
3 117 28 121
3 23 28 117
3 123 26 119
3 31 26 123
3 120 124 123
3 119 120 123
3 126 122 121
3 125 126 121
3 121 33 125
3 28 33 121
3 127 31 123
3 36 31 127
3 124 129 128
3 124 128 123
3 123 128 127
3 129 130 128
3 132 126 125
3 131 132 125
3 125 38 131
3 33 38 125
3 133 36 127
3 41 36 133
3 134 135 133
3 134 133 128
3 128 133 127
3 128 130 134
3 137 132 131
3 136 137 131
3 131 43 136
3 38 43 131
3 138 41 133
3 46 41 138
3 135 139 138
3 133 135 138
3 141 137 136
3 140 141 136
3 136 48 140
3 43 48 136
3 142 46 138
3 51 46 142
3 139 143 142
3 138 139 142
3 145 141 140
3 144 145 140
3 140 53 144
3 48 53 140
3 146 51 142
3 56 51 146
3 143 147 146
3 142 143 146
3 149 145 144
3 148 149 144
3 144 58 148
3 53 58 144
3 150 56 146
3 61 56 150
3 147 151 150
3 146 147 150
3 153 149 148
3 152 153 148
3 148 63 152
3 58 63 148
3 154 61 150
3 66 61 154
3 151 155 154
3 150 151 154
3 157 153 152
3 156 157 152
3 152 68 156
3 63 68 152
3 158 66 154
3 71 66 158
3 155 159 158
3 154 155 158
3 161 157 156
3 160 161 156
3 156 73 160
3 68 73 156
3 162 71 158
3 76 71 162
3 159 163 162
3 158 159 162
3 165 161 160
3 164 165 160
3 160 78 164
3 73 78 160
3 166 76 162
3 81 76 166
3 163 167 166
3 162 163 166
3 169 165 164
3 168 169 164
3 164 83 168
3 78 83 164
3 170 81 166
3 86 81 170
3 167 171 170
3 166 167 170
3 173 169 168
3 172 173 168
3 168 88 172
3 83 88 168
3 174 86 170
3 91 86 174
3 171 175 174
3 170 171 174
3 173 172 176
3 172 88 92
3 172 92 176
3 176 92 177
3 177 92 178
3 92 93 178
3 178 93 179
3 93 94 179
3 91 174 180
3 91 180 94
3 94 180 179
3 174 175 180
3 183 182 181
3 97 181 182
3 97 182 96
3 96 182 184
3 184 185 96
3 96 185 99
3 185 186 99
3 99 186 100
3 186 187 100
3 100 187 101
3 187 188 101
3 101 188 103
3 189 104 103
3 189 103 190
3 190 103 188
3 190 191 189
3 193 183 181
3 192 193 181
3 181 106 192
3 97 106 181
3 194 104 189
3 108 104 194
3 191 195 194
3 189 191 194
3 197 193 192
3 196 197 192
3 192 110 196
3 106 110 192
3 198 108 194
3 112 108 198
3 195 199 198
3 194 195 198
3 201 197 196
3 200 201 196
3 196 114 200
3 110 114 196
3 202 112 198
3 116 112 202
3 199 203 202
3 198 199 202
3 205 201 200
3 204 205 200
3 200 118 204
3 114 118 200
3 206 116 202
3 120 116 206
3 203 207 206
3 202 203 206
3 209 205 204
3 208 209 204
3 204 122 208
3 118 122 204
3 210 120 206
3 124 120 210
3 207 211 210
3 206 207 210
3 213 209 208
3 212 213 208
3 208 126 212
3 122 126 208
3 210 129 124
3 129 210 211
3 129 211 130
3 130 211 214
3 216 213 212
3 215 216 212
3 212 132 215
3 126 132 212
3 134 217 135
3 217 134 130
3 217 130 218
3 218 130 214
3 220 216 215
3 219 220 215
3 215 137 219
3 132 137 215
3 221 135 217
3 139 135 221
3 218 222 221
3 217 218 221
3 224 220 219
3 223 224 219
3 219 141 223
3 137 141 219
3 225 139 221
3 143 139 225
3 222 226 225
3 221 222 225
3 228 224 223
3 227 228 223
3 223 145 227
3 141 145 223
3 229 143 225
3 147 143 229
3 226 230 229
3 225 226 229
3 232 228 227
3 231 232 227
3 227 149 231
3 145 149 227
3 233 147 229
3 151 147 233
3 230 234 233
3 229 230 233
3 236 232 231
3 235 236 231
3 231 153 235
3 149 153 231
3 237 151 233
3 155 151 237
3 234 238 237
3 233 234 237
3 240 236 235
3 239 240 235
3 235 157 239
3 153 157 235
3 241 155 237
3 159 155 241
3 238 242 241
3 237 238 241
3 244 240 239
3 243 244 239
3 239 161 243
3 157 161 239
3 245 159 241
3 163 159 245
3 242 246 245
3 241 242 245
3 248 244 243
3 247 248 243
3 243 165 247
3 161 165 243
3 249 163 245
3 167 163 249
3 246 250 249
3 245 246 249
3 252 248 247
3 251 252 247
3 247 169 251
3 165 169 247
3 253 167 249
3 171 167 253
3 250 254 253
3 249 250 253
3 256 252 251
3 255 256 251
3 251 173 255
3 169 173 251
3 257 171 253
3 175 171 257
3 254 258 257
3 253 254 257
3 256 255 259
3 255 173 176
3 255 176 259
3 259 176 260
3 260 176 261
3 176 177 261
3 261 177 262
3 177 178 262
3 262 178 263
3 178 179 263
3 263 179 264
3 179 180 264
3 175 257 265
3 175 265 180
3 180 265 264
3 257 258 265
3 183 267 266
3 182 183 266
3 266 268 182
3 182 268 184
3 268 269 184
3 184 269 185
3 269 270 185
3 185 270 186
3 270 271 186
3 186 271 187
3 271 272 187
3 187 272 188
3 272 273 188
3 188 273 190
3 190 273 274
3 191 190 274
3 267 183 275
3 275 183 193
3 274 276 191
3 276 195 191
3 275 193 277
3 277 193 197
3 276 278 195
3 278 199 195
3 277 197 279
3 279 197 201
3 278 280 199
3 280 203 199
3 279 201 281
3 281 201 205
3 280 282 203
3 282 207 203
3 281 205 283
3 283 205 209
3 282 284 207
3 284 211 207
3 283 209 285
3 285 209 213
3 284 286 211
3 286 214 211
3 285 213 287
3 287 213 216
3 286 288 214
3 288 218 214
3 287 216 289
3 289 216 220
3 288 290 218
3 290 222 218
3 289 220 291
3 291 220 224
3 290 292 222
3 292 226 222
3 291 224 293
3 293 224 228
3 292 294 226
3 294 230 226
3 293 228 295
3 295 228 232
3 294 296 230
3 296 234 230
3 295 232 297
3 297 232 236
3 296 298 234
3 298 238 234
3 297 236 299
3 299 236 240
3 298 300 238
3 300 242 238
3 299 240 301
3 301 240 244
3 300 302 242
3 302 246 242
3 301 244 303
3 303 244 248
3 302 304 246
3 304 250 246
3 303 248 305
3 305 248 252
3 304 306 250
3 306 254 250
3 305 252 307
3 307 252 256
3 306 308 254
3 308 258 254
3 307 256 259
3 309 307 259
3 309 259 310
3 259 260 310
3 310 260 311
3 260 261 311
3 311 261 312
3 261 262 312
3 312 262 313
3 262 263 313
3 313 263 314
3 263 264 314
3 314 264 315
3 264 265 315
3 315 265 258
3 308 315 258
3 267 317 316
3 266 267 316
3 316 318 266
3 266 318 268
3 318 319 268
3 268 319 269
3 319 320 269
3 269 320 270
3 320 321 270
3 270 321 271
3 321 322 271
3 271 322 272
3 322 323 272
3 272 323 273
3 273 323 324
3 274 273 324
3 317 267 325
3 325 267 275
3 324 326 274
3 326 276 274
3 325 275 327
3 327 275 277
3 326 328 276
3 328 278 276
3 327 277 329
3 329 277 279
3 328 330 278
3 330 280 278
3 329 279 331
3 331 279 281
3 330 332 280
3 332 282 280
3 331 281 333
3 333 281 283
3 332 334 282
3 334 284 282
3 333 283 335
3 335 283 285
3 334 336 284
3 336 286 284
3 335 285 337
3 337 285 287
3 336 338 286
3 338 288 286
3 337 287 339
3 339 287 289
3 338 340 288
3 340 290 288
3 339 289 341
3 341 289 291
3 340 342 290
3 342 292 290
3 341 291 343
3 343 291 293
3 342 344 292
3 344 294 292
3 343 293 345
3 345 293 295
3 344 346 294
3 346 296 294
3 345 295 347
3 347 295 297
3 346 348 296
3 348 298 296
3 347 297 349
3 349 297 299
3 348 350 298
3 350 300 298
3 349 299 351
3 351 299 301
3 350 352 300
3 352 302 300
3 351 301 353
3 353 301 303
3 352 354 302
3 354 304 302
3 353 303 355
3 355 303 305
3 354 356 304
3 356 306 304
3 355 305 357
3 357 305 307
3 356 358 306
3 358 308 306
3 357 307 309
3 359 357 309
3 359 309 360
3 309 310 360
3 360 310 361
3 310 311 361
3 361 311 362
3 311 312 362
3 362 312 363
3 312 313 363
3 363 313 364
3 313 314 364
3 364 314 365
3 314 315 365
3 365 315 308
3 358 365 308
3 316 317 366
3 366 368 367
3 366 367 316
3 316 367 318
3 367 369 318
3 318 369 319
3 369 370 319
3 319 370 320
3 370 371 320
3 320 371 321
3 371 372 321
3 321 372 322
3 374 373 323
3 374 323 372
3 372 323 322
3 323 373 324
3 375 366 317
3 325 375 317
3 368 375 376
3 366 375 368
3 374 377 373
3 373 377 378
3 373 378 324
3 324 378 326
3 379 375 325
3 327 379 325
3 376 379 380
3 375 379 376
3 378 381 326
3 381 328 326
3 382 379 327
3 329 382 327
3 380 382 383
3 379 382 380
3 381 384 328
3 384 330 328
3 385 382 329
3 385 329 386
3 386 329 331
3 382 385 383
3 384 387 330
3 387 332 330
3 386 331 388
3 388 331 333
3 387 389 332
3 389 334 332
3 388 333 390
3 390 333 335
3 389 391 334
3 391 336 334
3 390 335 392
3 392 335 337
3 391 393 336
3 393 338 336
3 392 337 394
3 394 337 339
3 393 395 338
3 395 340 338
3 394 339 396
3 396 339 341
3 395 397 340
3 397 342 340
3 396 341 398
3 398 341 343
3 397 399 342
3 399 344 342
3 398 343 400
3 400 343 345
3 399 401 344
3 401 346 344
3 400 345 402
3 402 345 347
3 401 403 346
3 403 348 346
3 402 347 404
3 404 347 349
3 403 405 348
3 405 350 348
3 404 349 406
3 406 349 351
3 405 407 350
3 407 352 350
3 406 351 408
3 408 351 353
3 407 409 352
3 409 354 352
3 408 353 410
3 410 353 355
3 409 411 354
3 411 356 354
3 410 355 412
3 412 355 357
3 411 413 356
3 413 358 356
3 412 357 359
3 414 412 359
3 414 359 415
3 359 360 415
3 415 360 416
3 360 361 416
3 416 361 417
3 361 362 417
3 417 362 418
3 362 363 418
3 418 363 419
3 363 364 419
3 419 364 420
3 364 365 420
3 420 365 358
3 413 420 358
3 367 368 421
3 421 423 422
3 421 422 367
3 367 422 369
3 422 424 369
3 369 424 370
3 424 425 370
3 370 425 371
3 425 426 371
3 371 426 372
3 372 426 427
3 374 372 427
3 428 421 368
3 376 428 368
3 423 428 429
3 421 428 423
3 377 431 430
3 377 374 431
3 374 427 431
3 377 430 378
3 432 428 376
3 432 376 433
3 433 376 380
3 428 432 429
3 435 430 431
3 434 430 435
3 430 434 381
3 378 430 381
3 433 380 436
3 436 380 383
3 438 434 435
3 437 434 438
3 434 437 384
3 381 434 384
3 385 386 439
3 439 383 385
3 439 440 383
3 440 436 383
3 442 437 438
3 441 437 442
3 437 441 387
3 384 437 387
3 443 439 386
3 388 443 386
3 440 443 444
3 439 443 440
3 446 441 442
3 445 441 446
3 441 445 389
3 387 441 389
3 447 443 388
3 390 447 388
3 444 447 448
3 443 447 444
3 450 445 446
3 449 445 450
3 445 449 391
3 389 445 391
3 451 447 390
3 392 451 390
3 448 451 452
3 447 451 448
3 454 449 450
3 453 449 454
3 449 453 393
3 391 449 393
3 455 451 392
3 394 455 392
3 452 455 456
3 451 455 452
3 458 453 454
3 457 453 458
3 453 457 395
3 393 453 395
3 459 455 394
3 396 459 394
3 456 459 460
3 455 459 456
3 462 457 458
3 461 457 462
3 457 461 397
3 395 457 397
3 463 459 396
3 398 463 396
3 460 463 464
3 459 463 460
3 466 461 462
3 465 461 466
3 461 465 399
3 397 461 399
3 467 463 398
3 400 467 398
3 464 467 468
3 463 467 464
3 470 465 466
3 469 465 470
3 465 469 401
3 399 465 401
3 471 467 400
3 402 471 400
3 468 471 472
3 467 471 468
3 474 469 470
3 473 469 474
3 469 473 403
3 401 469 403
3 475 471 402
3 404 475 402
3 472 475 476
3 471 475 472
3 478 473 474
3 477 473 478
3 473 477 405
3 403 473 405
3 479 475 404
3 406 479 404
3 476 479 480
3 475 479 476
3 482 477 478
3 481 477 482
3 477 481 407
3 405 477 407
3 483 479 406
3 408 483 406
3 480 483 484
3 479 483 480
3 486 481 482
3 485 481 486
3 481 485 409
3 407 481 409
3 487 483 408
3 410 487 408
3 484 487 488
3 483 487 484
3 490 485 486
3 489 485 490
3 485 489 411
3 409 485 411
3 491 487 410
3 412 491 410
3 488 491 492
3 487 491 488
3 494 489 490
3 493 489 494
3 489 493 413
3 411 489 413
3 491 412 414
3 492 491 414
3 492 414 495
3 495 414 415
3 495 415 496
3 415 416 496
3 496 416 497
3 416 417 497
3 497 417 498
3 417 418 498
3 498 418 499
3 418 419 499
3 493 494 499
3 493 499 420
3 420 499 419
3 493 420 413
3 422 423 500
3 424 422 500
3 501 424 500
3 425 424 501
3 502 425 501
3 426 425 502
3 503 426 502
3 426 503 427
3 504 500 423
3 429 504 423
3 500 504 501
3 501 504 505
3 501 505 502
3 502 505 506
3 502 506 503
3 503 506 507
3 503 507 431
3 427 503 431
3 432 433 508
3 429 432 508
3 429 508 504
3 504 508 509
3 504 509 505
3 505 509 510
3 505 510 506
3 506 510 511
3 506 511 507
3 507 511 512
3 507 512 435
3 431 507 435
3 513 508 433
3 436 513 433
3 508 513 509
3 509 513 514
3 509 514 510
3 510 514 515
3 510 515 511
3 511 515 516
3 511 516 512
3 512 516 517
3 512 517 438
3 435 512 438
3 518 513 436
3 440 518 436
3 513 518 514
3 514 518 519
3 514 519 515
3 515 519 520
3 515 520 516
3 516 520 521
3 516 521 517
3 517 521 522
3 517 522 442
3 438 517 442
3 523 518 440
3 444 523 440
3 518 523 519
3 519 523 524
3 519 524 520
3 520 524 525
3 520 525 521
3 521 525 526
3 521 526 522
3 522 526 527
3 522 527 446
3 442 522 446
3 528 523 444
3 448 528 444
3 523 528 524
3 524 528 529
3 530 529 531
3 530 525 529
3 525 524 529
3 533 525 530
3 533 532 525
3 532 526 525
3 526 532 527
3 527 532 534
3 527 534 450
3 446 527 450
3 535 528 448
3 452 535 448
3 528 535 529
3 529 535 536
3 531 536 537
3 529 536 531
3 539 532 533
3 538 532 539
3 532 538 534
3 534 538 540
3 534 540 454
3 450 534 454
3 541 535 452
3 456 541 452
3 535 541 536
3 536 541 542
3 537 542 543
3 536 542 537
3 545 538 539
3 544 538 545
3 538 544 540
3 540 544 546
3 540 546 458
3 454 540 458
3 547 541 456
3 460 547 456
3 541 547 542
3 542 547 548
3 543 548 549
3 542 548 543
3 551 544 545
3 550 544 551
3 544 550 546
3 546 550 552
3 546 552 462
3 458 546 462
3 553 547 460
3 464 553 460
3 547 553 548
3 548 553 554
3 549 554 555
3 548 554 549
3 557 550 551
3 556 550 557
3 550 556 552
3 552 556 558
3 552 558 466
3 462 552 466
3 559 553 464
3 468 559 464
3 553 559 554
3 554 559 560
3 555 560 561
3 554 560 555
3 563 556 557
3 562 556 563
3 556 562 558
3 558 562 564
3 558 564 470
3 466 558 470
3 565 559 468
3 472 565 468
3 559 565 560
3 560 565 566
3 561 566 567
3 560 566 561
3 569 562 563
3 568 562 569
3 562 568 564
3 564 568 570
3 564 570 474
3 470 564 474
3 571 565 472
3 476 571 472
3 565 571 566
3 566 571 572
3 567 573 574
3 567 566 573
3 566 572 573
3 574 568 569
3 574 573 568
3 573 575 568
3 568 575 570
3 570 575 576
3 570 576 478
3 474 570 478
3 577 571 476
3 480 577 476
3 571 577 572
3 572 577 578
3 572 578 573
3 573 578 579
3 573 579 575
3 575 579 580
3 575 580 576
3 576 580 581
3 576 581 482
3 478 576 482
3 582 577 480
3 484 582 480
3 577 582 578
3 578 582 583
3 578 583 579
3 579 583 584
3 579 584 580
3 580 584 585
3 580 585 581
3 581 585 586
3 581 586 486
3 482 581 486
3 587 582 484
3 488 587 484
3 582 587 583
3 583 587 588
3 583 588 584
3 584 588 589
3 584 589 585
3 585 589 590
3 585 590 586
3 586 590 591
3 586 591 490
3 486 586 490
3 592 587 488
3 492 592 488
3 587 592 588
3 588 592 593
3 588 593 589
3 589 593 594
3 589 594 590
3 590 594 595
3 590 595 591
3 591 595 596
3 591 596 494
3 490 591 494
3 592 492 495
3 593 592 495
3 496 593 495
3 594 593 496
3 497 594 496
3 595 594 497
3 498 595 497
3 596 595 498
3 499 596 498
3 596 499 494
3 530 531 597
3 530 597 533
3 598 597 531
3 537 598 531
3 597 598 539
3 533 597 539
3 599 598 537
3 543 599 537
3 598 599 545
3 539 598 545
3 600 599 543
3 549 600 543
3 599 600 551
3 545 599 551
3 601 600 549
3 555 601 549
3 600 601 557
3 551 600 557
3 602 601 555
3 561 602 555
3 601 602 563
3 557 601 563
3 603 602 561
3 567 603 561
3 602 603 569
3 563 602 569
3 603 567 574
3 603 574 569
