ply
format ascii 1.0
element vertex 752
property float x
property float y
property float z
property uchar red
property uchar green
property uchar blue
element face 1376
property list uchar int vertex_indices
end_header
-9.89821720123291016 -9 -5 47 53 61
-9 -9.89821720123291016 -5 52 42 42
-9 -9 -5.22610855102539062 42 57 58
-9.89383411407470703 -9 -4 34 45 41
-9 -9.89383411407470703 -4 41 32 32
-9.88297748565673828 -9 -3 41 48 55
-9 -9.88297748565673828 -3 45 35 35
-9.70074748992919922 -9 -2 44 59 56
-9 -9.70074748992919922 -2 53 40 40
-9 -9 -1.93909633159637451 42 38 31
-9 -8.82956218719482422 -5 13 16 16
-9 -8.79125690460205078 -4 17 14 18
-9 -8.82846832275390625 -3 10 8 11
-9 -8.94918346405029297 -2 42 38 31
-9.60416030883789062 -8 1 15 12 11
-9 -8.03506565093994141 1 35 35 54
-9 -8 0.964411497116088867 48 40 61
-9 -8 1.03305637836456299 22 25 19
-9 -7.96742057800292969 1 22 25 19
-9.80360794067382812 -6 -9 8 9 8
-9 -6.10288524627685547 -9 45 56 53
-9 -6 -9.80360794067382812 44 53 52
-9 -6 -8.89106941223144531 31 34 31
-9 -5.87284183502197266 -9 31 34 31
-9.31402873992919922 7 0 32 33 32
-9 6.97785186767578125 0 70 76 74
-9 7 -0.00983560364693403244 99 87 87
-9 7 0.00937861856073141098 91 93 90
-9.37178993225097656 7 3 31 31 30
-9 6.97267293930053711 3 95 90 100
-9 7 2.98656797409057617 35 38 35
-9 7 3.01245522499084473 13 13 13
-9.07062530517578125 7 5 9 9 9
-9 6.98518705368041992 5 21 22 21
-9 7 4.9983830451965332 110 96 96
-9 7 5.00597524642944336 69 68 67
-9.93135261535644531 8 -9 8 8 10
-9 7.70986127853393555 -9 81 83 85
-9 8 -9.93135261535644531 92 104 104
-9.86909580230712891 8 -8 60 69 56
-9 7.85068893432617188 -8 108 108 108
-9.90936374664306641 8 -7 75 74 62
-9 7.59448051452636719 -7 93 95 95
-9.89981651306152344 8 -6 24 23 22
-9 7.82065105438232422 -6 97 93 95
-9 8 -5.26170778274536133 24 25 27
-9.82349205017089844 8 -1 106 104 105
-9 7.90807247161865234 -1 99 87 87
-9 8 -1.17190372943878174 51 51 50
-9 7.30624246597290039 0 91 93 90
-9 8 -0.181860059499740601 93 93 93
-9 7.01493167877197266 3 13 13 13
-9.83878993988037109 8 4 16 17 17
-9 7.90018510818481445 4 110 96 96
-9 8 3.88240790367126465 100 90 91
-9 7.00295400619506836 5 69 68 67
-9 8 4.16865205764770508 63 63 62
-9.82277393341064453 8 7 26 28 27
-9 7.79755973815917969 7 10 10 10
-9 8 6.7715153694152832 60 61 59
-9 8 7.21473789215087891 9 9 9
-9 8.93135261535644531 -9 33 37 40
-9 8.86909580230712891 -8 27 30 32
-9 8.90936374664306641 -7 10 10 11
-9 8.89981651306152344 -6 24 25 27
-9 8.82349205017089844 -1 93 93 93
-9 8.83878993988037109 4 63 63 62
-9 8.82277393341064453 7 9 9 9
-8.29760646820068359 -9 -9 32 32 25
-8 -9.92743396759033203 -9 18 15 16
-8 -9 -9.92743396759033203 38 44 37
-8 -9 -8.62156581878662109 55 47 47
-8.78661251068115234 -9 -5 13 16 16
-8.80983448028564453 -9 -4 17 14 18
-8.82642936706542969 -9 -3 10 8 11
-8.93766117095947266 -9 -2 42 38 31
-8.10283279418945312 -9 2 30 38 48
-8 -9.82260799407958984 2 17 25 17
-8 -9 1.90157961845397949 28 28 17
-8 -9 2.11600136756896973 36 36 24
-8.22764778137207031 -9 6 23 31 33
-8 -9.87163734436035156 6 24 35 22
-8 -9 5.80903768539428711 33 52 47
-8 -9 6.2473602294921875 56 40 40
-8 -8.59517478942871094 -9 55 47 47
-8.96952342987060547 -8 1 22 25 19
-8 -8.69516849517822266 2 36 36 24
-8.01471424102783203 -8 4 20 27 28
-8 -8.00635719299316406 4 30 33 50
-8 -8 3.99306535720825195 25 41 40
-8 -8 4.00576257705688477 16 21 14
-8.07226467132568359 -8 6 16 22 16
-8 -8 5.95448541641235352 27 30 45
-8 -8 6.07488775253295898 34 25 32
-8 -7.9940190315246582 4 16 21 14
-8 -7.36438608169555664 6 34 25 32
-8.88826370239257812 -6 -9 31 34 31
-8.0760650634765625 5 -9 74 77 73
-8 4.97688198089599609 -9 21 21 20
-8 5 -9.53519058227539062 9 9 9
-8 5 -8.26897716522216797 1 1 1
-8 5.12534666061401367 -9 1 1 1
-8.1331024169921875 7 -8 108 108 108
-8 6.40499067306518555 -8 6 6 6
-8 7 -8.70797061920166016 10 10 10
-8 7 -7.70387697219848633 88 86 85
-8.95125198364257812 7 0 91 93 90
-8.98816585540771484 7 3 13 13 13
-8.99748802185058594 7 5 69 68 67
-8.09371757507324219 7 7 10 10 10
-8 6.78464078903198242 7 2 2 2
-8 7 6.96141624450683594 96 81 81
-8.13510417938232422 7 8 23 23 23
-8 6.94302606582641602 8 85 72 74
-8 7 8.74428749084472656 80 79 75
-8.72615718841552734 8 -9 33 37 40
-8.25279617309570312 8 -8 27 30 32
-8 7.72110843658447266 -8 88 86 85
-8.61400794982910156 8 -7 10 10 11
-8 7.92368364334106445 -6 12 13 13
-8 8 -6.09327602386474609 76 76 76
-8 8 -5.92387580871582031 12 12 12
-8.90615367889404297 8 -1 93 93 93
-8.14730548858642578 8 2 96 97 102
-8 7.92071771621704102 2 66 73 75
-8 8 1.95381450653076172 105 87 87
-8.07820034027099609 8 3 100 90 91
-8 7.93718624114990234 3 100 81 81
-8.83878421783447266 8 4 63 63 62
-8 8 3.10901665687561035 35 37 35
-8.89291858673095703 8 7 9 9 9
-8 7.04658079147338867 7 45 46 43
-8.09444713592529297 8 8 46 46 46
-8 8 7.95626211166381836 14 14 13
-8 8 8.63907337188720703 28 29 29
-8 8.62147331237792969 -6 12 12 12
-8 8.68469619750976562 2 91 96 89
-8 8.76810359954833984 3 35 37 35
-8 8.63907337188720703 8 28 29 29
-7.72003746032714844 -9 -9 55 47 47
-7.90614986419677734 -9 2 36 36 24
-7.85875368118286133 -9 6 56 40 40
-7.99278593063354492 -8 4 16 21 14
-7.91737985610961914 -8 6 34 25 32
-7.97650575637817383 5 -9 1 1 1
-7.28795623779296875 6 -9 11 11 11
-7 5.93642282485961914 -9 25 26 23
-7 6 -9.76466178894042969 1 1 1
-7 6 -8.01587581634521484 8 8 8
-7 6.5539093017578125 -9 8 8 8
-7 6.03886222839355469 -8 18 18 18
-7 7 -8.33128070831298828 6 6 6
-7.15893793106079102 7 -7 78 80 78
-7 6.75088405609130859 -7 76 76 73
-7.10144519805908203 7 -6 12 13 13
-7 6.95661592483520508 -6 90 77 79
-7.0577235221862793 7 -5 8 9 9
-7 6.97342586517333984 -5 50 58 54
-7 7 -4.16471052169799805 12 13 13
-7.30377578735351562 7 7 45 46 43
-7.9312896728515625 7 8 80 79 75
-7 7.03599786758422852 -8 0 0 0
-7.07828664779663086 8 -7 76 76 76
-7 8 -7.03758144378662109 103 96 102
-7.92227077484130859 8 -6 12 12 12
-7 7.1032710075378418 -6 9 9 9
-7 8 -6.93494129180908203 12 12 12
-7 7.06402301788330078 -5 12 13 13
-7.91028594970703125 8 2 91 96 89
-7.93287944793701172 8 3 35 37 35
-7.29001665115356445 8 8 28 29 29
-7 8.57547473907470703 -7 12 12 12
-6.93343067169189453 6 -9 8 8 8
-6.64460086822509766 7 -9 6 6 6
-6 6.90565586090087891 -9 2 2 2
-6 7 -9.82596874237060547 6 5 5
-6 6.83512687683105469 -8 17 17 18
-6.94456195831298828 7 -7 4 4 5
-6 7 -7.91347837448120117 81 81 81
-6.82418727874755859 7 -6 9 9 9
-6.5553436279296875 7 -5 12 13 13
-6.0048365592956543 8 -9 68 68 67
-6 8 -9.08337783813476562 12 12 13
-6.12223482131958008 8 -8 103 96 102
-6 7.88146257400512695 -7 77 72 82
-6.21518087387084961 8 -6 10 11 11
-6 7.6631927490234375 -6 36 37 35
-6.20763063430786133 8 -5 11 11 12
-6 7.24586343765258789 -5 1 0 1
-6.16879844665527344 8 -4 11 12 13
-6 7.47601461410522461 -4 35 38 34
-6.11262130737304688 8 -3 11 12 12
-6 7.65358924865722656 -3 6 6 7
-6.0702672004699707 8 -2 9 11 10
-6 7.63754463195800781 -2 76 71 67
-6.04158544540405273 8 -1 9 11 10
-6 7.97884416580200195 -1 29 37 30
-6 8 -0.444015711545944214 13 14 15
-6.10350847244262695 8 7 94 80 94
-6 7.50638532638549805 7 84 93 82
-6 8 6.92092466354370117 110 88 88
-6 8 7.39460563659667969 57 58 53
-6 8.08337783813476562 -9 11 11 11
-6 8.82859897613525391 -8 4 4 4
-6 8.85667896270751953 -7 10 10 10
-6 8.84229946136474609 -6 15 15 15
-6 8.79600048065185547 -5 18 18 19
-6 8.72176456451416016 -4 14 15 16
-6 8.64636135101318359 -3 17 18 19
-6 8.60028934478759766 -2 17 18 19
-6 8.49453067779541016 -1 13 14 15
-6 8.79670047760009766 7 57 58 53
-5.17422628402709961 -9 8 28 26 18
-5 -9.85292434692382812 8 53 37 37
-5 -9 7.80315065383911133 5 8 5
-5 -9 8.85292434692382812 8 11 12
-5 -8.46588897705078125 8 8 11 12
-5.70868539810180664 7 -9 17 17 17
-5 6.89604520797729492 -8 31 29 31
-5 7 -8.13488006591796875 77 77 76
-5.01517105102539062 7 -7 77 72 82
-5 6.96555566787719727 -7 31 28 30
-5 7 -6.94841718673706055 29 28 28
-5.01281976699829102 7 8 16 18 18
-5 6.99643945693969727 8 74 85 87
-5 7 7.99468755722045898 71 81 70
-5 7 8.07511425018310547 88 86 80
-5 7.58632707595825195 -9 77 77 76
-5 8 -9.89066219329833984 11 11 11
-5.49265813827514648 8 -7 10 10 10
-5 7.10551929473876953 -7 29 28 28
-5 8 -7.46850395202636719 29 29 29
-5.75306987762451172 8 -6 15 15 15
-5.73347711563110352 8 -5 18 18 19
-5.87429285049438477 8 -4 14 15 16
-5.9070591926574707 8 -3 17 18 19
-5.72400474548339844 8 -2 17 18 19
-5.97947216033935547 8 -1 13 14 15
-5.66107177734375 8 7 57 58 53
-5 7.0129399299621582 8 88 86 80
-5 8.89066219329833984 -9 7 7 7
-5 8.86815643310546875 -8 29 29 29
-4.09367990493774414 -9 -6 30 48 39
-4 -9.79447174072265625 -6 11 13 16
-4 -9 -6.08386087417602539 8 10 6
-4 -9 -5.75828695297241211 29 21 21
-4.80713415145874023 -9 8 8 11 12
-4 -8.91056728363037109 -6 29 21 21
-4.91711950302124023 7 -8 62 62 62
-4.87284755706787109 7 -7 29 28 28
-4.99650001525878906 7 8 88 86 80
-4.53342056274414062 8 -9 7 7 7
-4.83956480026245117 8 -8 29 29 29
-4.46959733963012695 8 -7 63 62 61
-4 7.47771024703979492 -7 28 28 28
-4 8 -7.12977981567382812 9 9 9
-4 8 -6.55919790267944336 24 23 23
-4.06181716918945312 8 -4 14 14 16
-4 7.87154579162597656 -4 20 18 19
-4 8 -4.0467529296875 14 14 15
-4 8 -3.76262664794921875 23 22 22
-4 8.83710575103759766 -7 24 23 23
-4 8.54312419891357422 -4 23 22 22
-3.28168630599975586 -9 -8 51 37 37
-3 -9.88341236114501953 -8 4 5 3
-3 -9 -8.24337196350097656 42 33 37
-3 -9 -7.82817173004150391 10 9 11
-3.9148714542388916 -9 -6 29 21 21
-3.16212058067321777 -8 -9 1 1 1
-3 -8.17976188659667969 -9 42 33 37
-3 -8 -9.83773422241210938 32 27 29
-3.10406732559204102 -8 -8 34 25 25
-3 -8 -7.93831729888916016 1 0 1
-3 -7.86932516098022461 -9 2 2 2
-3 -7.16461324691772461 -8 1 0 1
-3.21466493606567383 7 -9 23 23 23
-3 6.73573827743530273 -9 0 0 0
-3 7 -9.7831573486328125 19 18 18
-3 7 -8.81676101684570312 20 18 18
-3 7.27479267120361328 -9 20 18 18
-3.79293942451477051 8 -7 24 23 23
-3.00850033760070801 8 -5 14 14 15
-3 7.9636688232421875 -5 16 15 15
-3 8 -5.02852344512939453 11 11 11
-3.68425750732421875 8 -4 23 22 22
-3 8 -4.92536115646362305 20 20 20
-3.0198371410369873 8 6 0 0 0
-3 7.99263525009155273 6 18 16 16
-3 8 5.88680791854858398 83 83 82
-3 8 6.03865623474121094 25 25 25
-3.04321026802062988 8 8 104 91 95
-3 7.75374269485473633 8 12 12 12
-3 8 7.81650829315185547 11 10 11
-3 8 8.66560459136962891 2 2 2
-3 8.17204666137695312 -5 20 20 20
-3 8.26262187957763672 6 25 25 25
-3 8.66560459136962891 8 2 2 2
-2.84553647041320801 -9 -8 10 9 11
-2.89321732521057129 -8 -9 2 2 2
-2.93713068962097168 -8 -8 1 0 1
-2.36930155754089355 7 -9 20 18 18
-2.16750192642211914 8 -9 14 13 13
-2 7.52442598342895508 -9 9 7 7
-2 8 -9.65727329254150391 4 4 4
-2 8 -8.64009761810302734 12 10 10
-2.99027109146118164 8 -5 20 20 20
-2.95968151092529297 8 6 25 25 25
-2.14359307289123535 8 7 11 10 11
-2 7.96190547943115234 7 85 86 85
-2 8 6.85093164443969727 75 75 71
-2.75974464416503906 8 8 2 2 2
-2 8 7.19089984893798828 35 33 36
-2 8.65727329254150391 -9 12 10 10
-2 8.59760093688964844 7 35 33 36
-1 7.94298028945922852 -9 9 7 7
-1 8 -9.51312637329101562 10 7 8
-1.60270178318023682 8 -8 12 10 10
-1 7.4243464469909668 -8 7 5 5
-1 8 -7.78190898895263672 9 6 6
-1.93412268161773682 8 7 35 33 36
-1.28493964672088623 8 8 20 18 20
-1 7.94427919387817383 8 104 107 113
-1 8 7.89356899261474609 94 90 84
-1 8 8.71495342254638672 43 36 42
-1 8.51312637329101562 -9 25 19 19
-1 8.83803653717041016 -8 9 6 6
-1 8.71495342254638672 8 43 36 42
-0.298575550317764282 7 -8 7 5 5
0 6.67469882965087891 -8 36 26 27
0 7 -8.64146804809570312 71 99 76
0 7 -7.92807483673095703 63 82 86
-0.925340354442596436 8 -9 25 19 19
0 8 -8.292999267578125 22 15 17
0 8 -7.36282777786254883 29 20 20
-0.71564406156539917 8 8 43 36 42
0 8.84407615661621094 -8 29 20 20
0.914778172969818115 -9 -6 10 10 11
1 -9.80235481262207031 -6 73 72 72
1 -9 -6.17585086822509766 40 37 37
0.927995681762695312 -9 -5 54 54 50
1 -9.74188899993896484 -5 7 6 6
1 -9 -4.92969417572021484 44 40 40
1 -8.00562953948974609 -6 41 36 36
1 -8.91150569915771484 -5 44 40 40
0.0341270305216312408 7 -8 63 82 86
0.334400981664657593 8 -8 29 20 20
1.78100168704986572 -9 -8 60 65 61
2 -9.88591194152832031 -8 0 0 0
2 -9 -8.34461498260498047 15 12 12
2 -9 -7.81590986251831055 37 28 28
2 -9.82571125030517578 -6 39 32 32
2 -9 -6.12099981307983398 32 28 28
2 -9.76639938354492188 -5 42 36 36
1.96349990367889404 -9 -4 33 33 33
2 -9.59014320373535156 -4 44 38 38
1.9275367259979248 -9 -3 41 39 39
2 -9.48408794403076172 -3 43 38 38
1.89243936538696289 -9 -2 39 38 38
2 -9.47677040100097656 -2 40 35 35
2 -9 -1.16887414455413818 42 37 37
2 -8.70369625091552734 -8 37 28 28
2 -8.62120151519775391 -6 46 38 38
2 -8.73606204986572266 -5 39 33 33
2 -8.90894985198974609 -4 29 25 25
2 -8.93737506866455078 -3 32 28 28
2 -8.91216373443603516 -2 42 37 37
3 -9.89266872406005859 -8 34 25 25
3 -9 -8.21297836303710938 23 17 17
3 -9 -7.83473968505859375 42 30 30
2.12640500068664551 -9 -6 46 38 38
2.06972026824951172 -9 -5 39 33 33
2.03124117851257324 -9 -4 29 25 25
2.02088475227355957 -9 -3 32 28 28
2.37369441986083984 -9 -2 42 37 37
2.03058147430419922 -9 1 30 27 27
3 -9.31767368316650391 1 30 25 25
3 -9 0.82988584041595459 23 19 19
3 -9 1.03724944591522217 38 32 32
2.95234942436218262 -8 -8 39 31 31
3 -8 -8.03652286529541016 32 23 23
3 -8 -7.97788381576538086 11 8 8
3 -8.98527717590332031 1 38 32 32
2.87273931503295898 -8 8 30 26 26
3 -8.07920360565185547 8 59 55 68
3 -8 7.98345947265625 56 60 52
3 -8 8.45116233825683594 15 11 11
2.95582437515258789 -7 -9 35 27 27
3 -7.05146646499633789 -9 32 23 23
3 -7 -9.56910228729248047 30 21 21
3 -7.98123598098754883 -8 11 8 8
3 -7 -8.973358154296875 29 19 19
3 -7.77059841156005859 8 15 11 11
3 -6.96810102462768555 -9 29 19 19
2.79492473602294922 6 -9 12 7 7
3 5.94595241546630859 -9 57 101 83
3 6 -9.46815013885498047 19 9 9
3 6 -8.94749736785888672 61 55 105
3 6.20115041732788086 -9 61 55 105
2.80113363265991211 7 -8 52 31 32
3 6.88560771942138672 -8 47 26 26
3 7 -8.36986541748046875 73 37 37
2.88069534301757812 7 -7 61 36 44
3 6.89340972900390625 -7 58 90 100
3 7 -6.88757896423339844 40 21 21
2.83154129981994629 8 -8 90 110 67
3 8 -8.43080711364746094 79 42 75
3 7.02547979354858398 -7 40 21 21
3 8 -7.92012786865234375 66 35 35
2.78171563148498535 8 8 55 40 63
3 7.82706356048583984 8 43 25 25
3 8 7.70725727081298828 32 18 18
3 8 8.78739452362060547 27 15 15
3 8.79078006744384766 -8 66 35 35
3 8.78739452362060547 8 27 15 15
3.74310111999511719 -9 -9 23 17 17
4 -9.91397857666015625 -9 33 22 22
4 -9 -9.91397857666015625 32 20 20
3.23664641380310059 -9 -8 42 30 30
4 -9 -8.71631145477294922 36 24 24
3.02580404281616211 -9 1 38 32 32
3.89069509506225586 -9 2 23 19 19
4 -9.5962371826171875 2 27 22 22
4 -9 1.92249810695648193 26 22 22
4 -9 2.03227901458740234 36 28 28
3.93242359161376953 -8 -9 32 23 23
4 -8 -9.63822078704833984 25 17 17
3.02404069900512695 -8 -8 11 8 8
4 -8 -8.95502376556396484 40 27 27
4 -8.75078582763671875 2 36 28 28
3.01816940307617188 -8 8 15 11 11
3.06006383895874023 -7 -9 29 19 19
4 -7.92135810852050781 -9 40 27 27
3.01842498779296875 6 -9 61 55 105
3.56550383567810059 7 -9 73 37 37
4 6.94582605361938477 -9 33 41 60
4 7 -9.72869682312011719 69 32 32
3.74708247184753418 7 -8 20 10 10
4 7 -8.20548248291015625 24 11 11
3.24886345863342285 7 -7 40 21 21
4 7.06783819198608398 -9 24 11 11
3.08407855033874512 8 -8 66 35 35
3.96137356758117676 8 -7 30 30 50
4 7.66263294219970703 -7 21 11 11
4 8 -7.04075717926025391 42 31 58
3.95322871208190918 8 -6 96 85 60
4 7.95618915557861328 -6 34 47 58
3.92389726638793945 8 -5 120 111 77
4 7.47289800643920898 -5 92 50 89
4 8 -4.519744873046875 28 14 14
3.93832254409790039 8 3 78 122 76
4 7.97529506683349609 3 34 20 20
4 8 2.53450584411621094 63 35 35
4 8 3.69604253768920898 68 107 119
3.1783602237701416 8 8 27 15 15
4 8.63628959655761719 -7 83 53 105
4 8.68801021575927734 -6 40 20 20
4 8.77310943603515625 -5 28 14 14
4 8.2906951904296875 3 68 107 119
4.23056888580322266 -9 -9 36 24 24
5 -9.70020008087158203 2 20 17 17
5 -9 1.95138335227966309 64 71 62
4.94456338882446289 -9 3 8 7 7
5 -9.72209072113037109 3 34 26 26
4.93434286117553711 -9 4 70 84 83
5 -9.61175060272216797 4 8 7 7
5 -9 4.13916969299316406 31 24 24
4.04952049255371094 -8 -9 40 27 27
4.92819070816040039 -8 -6 56 69 66
5 -8.64272689819335938 -6 14 10 10
5 -8 -6.17686176300048828 11 8 8
4.96763038635253906 -8 -5 26 26 31
5 -8.04458045959472656 -5 27 21 21
5 -8 -4.19487237930297852 29 20 20
5 -8.95516681671142578 2 7 5 5
5 -8.63251495361328125 3 32 24 24
5 -8.84691905975341797 4 31 24 24
5 -7.44048118591308594 -6 40 27 27
5 -7.57323312759399414 -5 29 20 20
5 6.72584152221679688 -9 54 90 109
5 7 -9.81121540069580078 25 10 10
5 7 -8.18575668334960938 33 14 14
5 7.10059118270874023 -9 33 14 14
4.91789484024047852 8 -8 42 31 58
5 7.21021509170532227 -8 76 37 37
5 8 -8.08747482299804688 54 27 46
5 7.39895057678222656 -7 94 47 73
4.12254667282104492 8 -6 40 20 20
5 8 -6.77976799011230469 31 14 14
5 7.82883834838867188 -5 65 116 78
5 8 -5.16833877563476562 59 30 30
5 8 -4.0486149787902832 40 19 19
4.83109045028686523 8 -3 38 20 20
5 7.94040822982788086 -3 76 117 68
5 8 -3.87699222564697266 91 55 106
4.99618434906005859 8 -2 29 16 16
5 7.99881410598754883 -2 67 115 83
5 8 -1.98910176753997803 37 19 19
5 7.88742876052856445 3 54 30 30
5 8 2.98707246780395508 42 68 64
5 8 3.09624123573303223 57 31 31
5 8.78646278381347656 -8 87 40 40
5 8.81683540344238281 -7 31 14 14
5 8.76168155670166016 -5 40 19 19
5 8.53797245025634766 -3 85 44 44
5 8.01704120635986328 -2 37 19 19
5 8.384735107421875 3 57 31 31
5.05005455017089844 -9 2 7 5 5
5.17310619354248047 -9 3 32 24 24
5.9671177864074707 -9 4 31 24 24
5.94113969802856445 -8 -8 36 35 47
6 -8.36470127105712891 -8 36 25 25
6 -8 -8.06242084503173828 34 24 31
5.72749662399291992 -8 -7 11 8 8
6 -8.12372016906738281 -7 25 19 19
5.06531810760498047 -8 -6 40 27 27
6 -8 -6.89140176773071289 41 27 27
5.05219078063964844 -8 -5 29 20 20
6 -7.94438934326171875 -8 3 2 2
5.95706462860107422 -7 -7 7 5 5
6 -7 -7.03586816787719727 11 8 8
5.8874669075012207 -7 -6 25 17 17
6 -7.006927490234375 -6 63 79 64
6 -7 -5.93676853179931641 10 7 7
6 -6.96720743179321289 -7 58 39 39
6 -6.92320680618286133 -6 10 7 7
5.96934366226196289 7 -9 33 14 14
5.85877704620361328 7 7 30 16 16
6 6.89895200729370117 7 74 50 87
6 7 6.91010046005249023 55 55 94
6 7 7.09010791778564453 30 16 16
5.91551351547241211 8 -9 54 27 46
6 7.03691387176513672 -9 21 9 9
6 8 -9.78000640869140625 51 24 24
5.08864116668701172 8 -8 87 40 40
6 8 -8.9143829345703125 96 42 42
6 7.61463546752929688 -7 58 94 114
6 8 -7.13677692413330078 43 22 22
6 8 -6.56313467025756836 40 18 18
5.13495683670043945 8 -5 40 19 19
5.05824613571166992 8 -3 85 44 44
5.0008392333984375 8 -2 37 19 19
5.62047719955444336 8 1 65 59 106
6 7.58904600143432617 1 44 24 24
6 8 0.961111247539520264 42 62 68
5.97251224517822266 8 2 42 68 64
6 7.9734349250793457 2 106 127 83
5.01331281661987305 8 3 57 31 31
6 8 2.02829432487487793 86 46 46
6 7.26121902465820312 7 30 16 16
6 8.78000640869140625 -9 96 42 42
6 8.85714149475097656 -7 40 18 18
6 8.65321826934814453 1 39 20 20
6 8.57438087463378906 2 86 46 46
6.91806268692016602 -9 -5 6 5 5
7 -9.78160381317138672 -5 23 17 17
7 -9 -5.35245656967163086 66 50 50
6.9363102912902832 -9 -4 55 66 66
7 -9.72205448150634766 -4 35 27 27
6.95710945129394531 -9 -3 44 47 51
7 -9.65337276458740234 -3 35 28 28
7 -9 -2.12369465827941895 21 16 16
6.01221990585327148 -9 4 23 17 17
7 -9.81240177154541016 4 17 14 14
7 -9 3.86917877197265625 27 23 23
6.74454021453857422 -9 5 67 69 85
7 -9.85920619964599609 5 26 22 22
6.49833440780639648 -9 6 24 18 18
7 -9.87388134002685547 6 24 19 19
7 -9 6.29398107528686523 75 57 57
7 -8.18110466003417969 -8 12 9 9
7 -8 -8.19522666931152344 49 49 68
6.12677717208862305 -8 -7 41 27 27
7 -8 -7.82143259048461914 42 27 27
7 -8.91382122039794922 -5 31 22 22
7 -8.89263248443603516 -4 0 0 0
7 -8.93391036987304688 -3 21 16 16
6.99143171310424805 -8 1 70 74 65
7 -8.02676296234130859 1 61 51 58
7 -8 0.988290548324584961 3 2 2
7 -8 1.01049935817718506 36 27 27
6.97135400772094727 -8 4 19 16 16
7 -8 3.96483993530273438 48 46 56
6.94245004653930664 -8 5 21 16 16
7 -8.86114597320556641 6 75 57 57
7 -8 5.03325700759887695 24 18 18
6.9075927734375 -7 -8 11 8 8
7 -7 -8.13021564483642578 17 12 12
7 -7.07402467727661133 -7 58 70 76
6.00625419616699219 -7 -6 10 7 7
7 -7 -6.94293546676635742 15 10 10
7 -7.9384913444519043 1 36 27 27
7 -7.97329521179199219 4 37 27 27
7 -7.95899629592895508 5 24 18 18
7 -6.91156530380249023 -8 5 3 3
7 -6.07497215270996094 -7 15 10 10
6.99146366119384766 -5 -9 46 61 68
7 -5.00989103317260742 -9 21 14 14
7 -5 -9.27168846130371094 46 64 69
7 -5 -8.98955917358398438 47 29 29
7 -4.99173688888549805 -9 47 29 29
6.01633739471435547 7 -9 21 9 9
7 6.5558009147644043 -9 55 69 110
7 7 -9.89109611511230469 56 27 39
7 7 -8.12052345275878906 48 21 21
6.98407888412475586 7 4 43 24 24
7 6.95522260665893555 4 37 21 21
7 7 3.59760332107543945 39 21 21
7 7 4.0186457633972168 44 24 24
6.90534019470214844 7 6 55 55 94
7 6.80794954299926758 6 21 11 11
7 7 5.86326265335083008 79 46 57
6.07718610763549805 7 7 30 16 16
7 7 6.08133316040039062 81 46 46
7 8 -9.85043811798095703 52 21 21
6.84686660766601562 8 -8 43 22 22
7 7.14071846008300781 -8 96 53 108
6.59299612045288086 8 -7 40 18 18
7 8 -7.37555599212646484 50 22 22
6.48682975769042969 8 -6 48 24 24
7 7.62501764297485352 -6 62 113 113
7 8 -6.66439723968505859 59 29 29
6.74996376037597656 8 -5 35 19 19
7 7.69071483612060547 -5 63 112 105
7 8 -4.49584245681762695 43 21 21
7 7.93387174606323242 1 111 78 72
7 8 0.342097580432891846 53 29 29
6.44245100021362305 8 2 86 46 46
7 8 1.66740024089813232 35 19 19
7 7.01261997222900391 4 44 24 24
6.40040397644042969 8 5 69 119 124
7 7.65547847747802734 5 79 46 57
7 8 4.73878955841064453 67 38 38
7 7.16250753402709961 6 81 46 46
7 8 5.39168310165405273 95 53 58
7 8.85043811798095703 -9 40 17 17
7 8.87256622314453125 -8 50 22 22
7 8.89074134826660156 -6 88 43 43
7 8.87228584289550781 -5 43 21 21
7 8.77336597442626953 1 35 19 19
7 8.81898212432861328 5 95 53 58
7.54126501083374023 -9 -6 66 50 50
8 -9.84785270690917969 -6 19 15 15
8 -9 -6.63622236251831055 17 12 12
7.20190238952636719 -9 -5 31 22 22
8 -9 -5.71740484237670898 36 26 26
7.06700372695922852 -9 -4 0 0 0
7.055328369140625 -9 -3 21 16 16
7.94471359252929688 -9 -1 10 8 8
8 -9.66296958923339844 -1 6 5 5
8 -9 -1.26051533222198486 66 54 55
8 -9 -0.952644050121307373 28 23 23
8 -9.87187862396240234 4 30 25 25
8 -9 3.85450387001037598 32 29 32
7.20718145370483398 -9 5 29 22 22
8 -9 4.22565078735351562 40 31 31
8 -9.83325386047363281 6 24 20 20
8 -9 5.82373285293579102 18 15 15
8 -9 6.20305204391479492 75 59 59
7.74820232391357422 -8 -9 49 49 68
8 -8.49573993682861328 -9 26 18 18
8 -8 -9.91248321533203125 51 38 53
7.1658477783203125 -8 -8 42 27 27
8 -8 -8.78380775451660156 0 0 0
8 -8.65451431274414062 -6 36 26 26
8 -8.94808578491210938 -1 28 23 23
7.08155632019042969 -8 1 36 27 27
8 -8 3.94454264640808105 49 52 56
7.0358428955078125 -8 5 24 18 18
8 -8 4.05899667739868164 32 25 25
8 -8.89132881164550781 6 75 59 59
8 -7.26403474807739258 -9 0 0 0
8 -7.1393427848815918 -8 29 22 22
8 -7 -8.62065696716308594 36 23 23
7.05993366241455078 -7 -7 15 10 10
8 -7 -7.87628984451293945 61 41 41
8 -7.69916915893554688 4 32 25 25
7.94430780410766602 -6 -8 58 79 59
8 -6 -8.07270145416259766 9 6 6
7.15192747116088867 -6 -7 18 12 12
8 -6.02803516387939453 -7 32 24 24
8 -6 -6.93469810485839844 10 6 6
7.01193618774414062 -5 -9 47 29 29
8 -5.92993783950805664 -8 27 17 17
8 -5.9616241455078125 -7 10 6 6
7.17554664611816406 7 -9 48 21 21
7.99065208435058594 7 2 32 21 30
8 6.97418737411499023 2 69 108 98
8 7 1.95581197738647461 65 77 106
8 7 2.00965428352355957 100 58 88
7.02835369110107422 7 4 44 24 24
7.80944919586181641 7 5 79 46 57
8 6.48643207550048828 5 20 12 12
8 7 4.73445940017700195 31 18 18
7.26947259902954102 7 6 81 46 46
8 7 5.35409688949584961 30 17 17
7.87193155288696289 7 8 23 12 12
8 6.91506147384643555 8 62 57 95
8 7 7.90034961700439453 71 119 99
8 7 8.51949596405029297 26 14 14
8 7.74288606643676758 -9 43 48 81
8 8 -9.93007087707519531 75 32 32
8 7.39863729476928711 -8 63 56 109
7.27352428436279297 8 -7 59 29 29
8 7.47274255752563477 -7 59 77 111
7.82439565658569336 8 -6 88 43 43
8 8 -6.13701820373535156 17 8 8
7.14462089538574219 8 -5 43 21 21
7.89170265197753906 8 -2 43 62 72
8 7.74730682373046875 -2 66 109 106
8 8 -2.17103314399719238 61 103 103
8 8 -1.74129784107208252 66 36 36
8 7.69646644592285156 1 65 77 106
8 8 0.65047222375869751 39 23 23
8 7.12606287002563477 2 100 58 88
8 8 1.57623863220214844 45 25 25
7.89485692977905273 8 3 43 28 45
8 7.89976835250854492 3 39 28 43
8 8 2.37759709358215332 46 26 26
8 8 3.11163496971130371 21 11 11
7.25472402572631836 8 5 95 53 58
8 7.13275671005249023 5 30 17 17
7.53637313842773438 8 6 30 16 16
8 7.37833070755004883 6 67 73 114
8 8 5.68548202514648438 61 78 101
8 8 6.35420656204223633 16 9 9
8 7.09642601013183594 8 26 14 14
8 8.93007087707519531 -9 21 9 9
8 8.91134071350097656 -8 29 13 13
8 8.91623020172119141 -7 17 8 8
8 8.84381008148193359 -2 66 36 36
8 8.81352615356445312 1 45 25 25
8 8.84097385406494141 3 21 11 11
8 8.85863018035888672 6 16 9 9
8.84785270690917969 -9 -6 36 26 26
8.66296958923339844 -9 -1 28 23 23
8.87187862396240234 -9 4 40 31 31
8.83325386047363281 -9 6 75 59 59
8.91248321533203125 -8 -9 0 0 0
8.71372413635253906 -8 4 32 25 25
8.85955238342285156 -7 -8 61 41 41
8.73689556121826172 -6 -8 27 17 17
8.55563735961914062 -6 -7 10 6 6
8.31637191772460938 7 2 100 58 88
8.66956996917724609 7 5 30 17 17
8.51949596405029297 7 8 26 14 14
8.93007087707519531 8 -9 21 9 9
8.91134071350097656 8 -8 29 13 13
8.91623020172119141 8 -7 17 8 8
8.84381008148193359 8 -2 66 36 36
8.81352615356445312 8 1 45 25 25
8.84097385406494141 8 3 21 11 11
8.85863018035888672 8 6 16 9 9
3 2 1 0
3 1 4 3
3 0 1 3
3 4 6 5
3 3 4 5
3 6 8 7
3 5 6 7
3 8 9 7
3 2 0 10
3 0 3 11
3 10 0 11
3 3 5 12
3 11 3 12
3 5 7 13
3 12 5 13
3 7 9 13
3 16 15 14
3 15 17 14
3 16 14 18
3 14 17 18
3 21 20 19
3 20 22 19
3 21 19 23
3 19 22 23
3 26 25 24
3 25 27 24
3 30 29 28
3 29 31 28
3 34 33 32
3 33 35 32
3 38 37 36
3 37 40 39
3 36 37 39
3 40 42 41
3 39 40 41
3 42 44 43
3 41 42 43
3 44 45 43
3 48 47 46
3 49 50 46
3 49 46 24
3 47 26 46
3 26 24 46
3 24 27 49
3 30 28 51
3 54 51 28
3 54 28 52
3 31 53 28
3 53 52 28
3 55 56 52
3 55 52 32
3 53 34 52
3 34 32 52
3 32 35 55
3 59 58 57
3 58 60 57
3 38 36 61
3 36 39 62
3 61 36 62
3 39 41 63
3 62 39 63
3 41 43 64
3 63 41 64
3 43 45 64
3 48 46 65
3 46 50 65
3 54 52 66
3 52 56 66
3 59 57 67
3 57 60 67
3 70 69 68
3 69 71 68
3 1 2 72
3 4 1 72
3 73 4 72
3 6 4 73
3 74 6 73
3 8 6 74
3 75 8 74
3 8 75 9
3 78 77 76
3 77 79 76
3 82 81 80
3 81 83 80
3 70 68 84
3 68 71 84
3 72 2 10
3 73 72 10
3 11 73 10
3 74 73 11
3 12 74 11
3 75 74 12
3 13 75 12
3 75 13 9
3 15 16 85
3 78 76 86
3 85 17 15
3 76 79 86
3 89 88 87
3 88 90 87
3 92 82 80
3 91 92 80
3 83 93 91
3 80 83 91
3 85 16 18
3 85 18 17
3 89 87 94
3 87 90 94
3 92 91 95
3 91 93 95
3 20 21 96
3 20 96 22
3 96 21 23
3 96 23 22
3 99 98 97
3 98 100 97
3 99 97 101
3 97 100 101
3 104 103 102
3 103 105 102
3 25 26 106
3 25 106 27
3 29 30 107
3 29 107 31
3 33 34 108
3 33 108 35
3 111 110 109
3 110 113 112
3 109 110 112
3 113 114 112
3 37 38 115
3 40 37 104
3 40 104 102
3 37 115 104
3 117 104 116
3 115 116 104
3 116 118 105
3 116 105 117
3 118 42 105
3 102 105 40
3 42 40 105
3 118 120 119
3 118 119 42
3 42 119 44
3 44 119 121
3 45 44 121
3 47 48 122
3 50 49 106
3 50 106 122
3 26 47 106
3 47 122 106
3 106 49 27
3 125 124 123
3 126 123 30
3 126 30 51
3 123 124 30
3 107 30 127
3 124 127 30
3 127 31 107
3 127 53 31
3 127 129 53
3 128 53 129
3 126 51 54
3 56 55 108
3 56 108 128
3 34 53 108
3 53 128 108
3 108 55 35
3 130 131 111
3 130 111 59
3 109 58 111
3 58 59 111
3 131 130 133
3 58 109 60
3 109 132 60
3 109 112 132
3 114 134 132
3 112 114 132
3 115 38 61
3 116 115 61
3 62 116 61
3 118 116 62
3 63 118 62
3 120 118 63
3 120 63 135
3 135 63 64
3 135 64 45
3 121 135 45
3 122 48 65
3 122 65 50
3 125 123 136
3 123 126 137
3 136 123 137
3 128 129 137
3 128 137 66
3 126 54 137
3 54 66 137
3 128 66 56
3 130 59 67
3 60 132 138
3 60 138 67
3 133 130 138
3 130 67 138
3 132 134 138
3 69 70 139
3 69 139 71
3 77 78 140
3 77 140 79
3 81 82 141
3 81 141 83
3 139 70 84
3 139 84 71
3 140 78 86
3 140 86 79
3 88 89 142
3 88 142 90
3 143 141 82
3 92 143 82
3 141 143 93
3 83 141 93
3 142 89 94
3 142 94 90
3 143 92 95
3 143 95 93
3 98 99 144
3 98 144 100
3 101 145 147
3 101 147 99
3 146 144 147
3 144 99 147
3 145 101 100
3 145 100 148
3 144 146 100
3 146 148 100
3 147 145 149
3 150 103 145
3 150 145 148
3 103 104 145
3 149 145 151
3 104 151 145
3 152 105 103
3 152 103 153
3 153 103 150
3 153 155 154
3 152 153 154
3 155 157 156
3 154 155 156
3 157 158 156
3 110 111 159
3 113 110 159
3 160 113 159
3 113 160 114
3 151 104 117
3 161 151 117
3 105 161 117
3 105 162 161
3 105 152 162
3 162 163 161
3 165 166 164
3 154 119 162
3 154 162 152
3 162 119 120
3 154 156 121
3 154 121 119
3 156 167 121
3 164 121 165
3 167 165 121
3 156 158 167
3 124 125 168
3 127 124 168
3 169 127 168
3 127 169 129
3 159 111 131
3 131 133 170
3 131 170 159
3 159 170 160
3 160 170 134
3 114 160 134
3 163 162 171
3 164 166 171
3 164 171 135
3 162 120 171
3 120 135 171
3 164 135 121
3 168 125 136
3 169 168 136
3 137 169 136
3 169 137 129
3 170 133 138
3 170 138 134
3 146 147 172
3 146 172 148
3 149 173 175
3 149 175 147
3 174 172 175
3 172 147 175
3 173 149 151
3 172 174 148
3 174 150 148
3 174 176 150
3 178 177 153
3 178 153 176
3 176 153 150
3 155 153 177
3 179 155 177
3 157 155 179
3 180 157 179
3 157 180 158
3 182 175 173
3 181 182 173
3 161 173 151
3 161 183 173
3 183 181 173
3 178 184 177
3 183 161 163
3 186 177 184
3 186 179 177
3 165 185 166
3 165 187 185
3 165 167 187
3 186 188 179
3 188 180 179
3 188 190 158
3 188 158 180
3 190 189 158
3 167 158 187
3 189 187 158
3 190 192 191
3 189 190 191
3 192 194 193
3 191 192 193
3 194 196 195
3 193 194 195
3 196 197 195
3 200 199 198
3 199 201 198
3 182 181 202
3 181 183 203
3 202 181 203
3 183 163 171
3 183 171 203
3 203 171 204
3 166 185 205
3 166 205 171
3 171 205 204
3 185 187 206
3 205 185 206
3 187 189 207
3 206 187 207
3 189 191 208
3 207 189 208
3 191 193 209
3 208 191 209
3 193 195 210
3 209 193 210
3 195 197 210
3 200 198 211
3 198 201 211
3 214 213 212
3 213 215 212
3 214 212 216
3 212 215 216
3 174 175 217
3 217 219 218
3 217 218 174
3 174 218 176
3 220 178 176
3 220 176 221
3 221 176 218
3 221 222 220
3 225 224 223
3 224 226 223
3 227 217 175
3 227 175 228
3 228 175 182
3 217 227 219
3 230 231 229
3 220 184 178
3 229 232 222
3 229 222 230
3 232 186 222
3 220 222 184
3 186 184 222
3 188 186 232
3 233 188 232
3 190 188 233
3 234 190 233
3 192 190 234
3 235 192 234
3 194 192 235
3 236 194 235
3 196 194 236
3 237 196 236
3 196 237 197
3 199 200 238
3 225 223 239
3 238 201 199
3 223 226 239
3 228 182 202
3 240 228 202
3 240 202 241
3 202 203 241
3 229 231 241
3 229 241 204
3 204 241 203
3 232 229 204
3 205 232 204
3 233 232 205
3 206 233 205
3 234 233 206
3 207 234 206
3 235 234 207
3 208 235 207
3 236 235 208
3 209 236 208
3 237 236 209
3 210 237 209
3 237 210 197
3 238 200 211
3 238 211 201
3 244 243 242
3 243 245 242
3 213 214 246
3 213 246 215
3 244 242 247
3 242 245 247
3 246 214 216
3 246 216 215
3 218 219 248
3 221 218 248
3 249 221 248
3 221 249 222
3 224 225 250
3 224 250 226
3 227 228 251
3 219 227 251
3 219 251 248
3 248 251 252
3 230 253 231
3 254 249 255
3 249 252 255
3 249 248 252
3 253 230 222
3 253 222 256
3 249 254 222
3 254 256 222
3 259 258 257
3 258 260 257
3 250 225 239
3 250 239 226
3 251 228 240
3 252 251 240
3 241 252 240
3 231 253 261
3 231 261 241
3 255 252 261
3 252 241 261
3 253 256 261
3 259 257 262
3 257 260 262
3 265 264 263
3 264 266 263
3 243 244 267
3 243 267 245
3 270 269 268
3 269 265 263
3 269 263 268
3 268 263 271
3 266 272 271
3 263 266 271
3 267 244 247
3 267 247 245
3 270 268 273
3 268 271 274
3 273 268 274
3 271 272 274
3 277 276 275
3 276 278 275
3 277 275 279
3 275 278 279
3 254 255 280
3 254 280 256
3 283 282 281
3 259 281 282
3 259 282 258
3 285 284 282
3 284 258 282
3 258 284 260
3 288 287 286
3 287 289 286
3 292 291 290
3 291 293 290
3 280 255 261
3 280 261 256
3 283 281 294
3 284 285 294
3 284 294 262
3 281 259 294
3 259 262 294
3 284 262 260
3 288 286 295
3 286 289 295
3 292 290 296
3 290 293 296
3 264 265 297
3 264 297 266
3 269 270 298
3 265 269 298
3 265 298 297
3 297 298 299
3 297 299 272
3 266 297 272
3 298 270 273
3 299 298 273
3 274 299 273
3 299 274 272
3 276 277 300
3 276 300 278
3 279 301 303
3 279 303 277
3 302 300 303
3 300 277 303
3 301 279 278
3 301 278 304
3 300 302 278
3 302 304 278
3 282 283 305
3 282 305 285
3 287 288 306
3 307 289 287
3 307 287 308
3 306 309 287
3 309 308 287
3 292 307 308
3 292 308 291
3 311 310 308
3 310 291 308
3 291 310 293
3 303 301 312
3 301 304 312
3 305 283 294
3 305 294 285
3 306 288 295
3 289 307 313
3 289 313 295
3 309 306 313
3 306 295 313
3 310 311 313
3 310 313 296
3 307 292 313
3 292 296 313
3 310 296 293
3 303 315 314
3 302 303 314
3 316 304 302
3 316 302 317
3 317 302 314
3 317 318 316
3 308 309 319
3 320 311 308
3 320 308 321
3 319 322 308
3 322 321 308
3 321 323 320
3 315 303 312
3 324 315 312
3 304 316 325
3 304 325 312
3 312 325 324
3 316 318 325
3 319 309 313
3 311 320 326
3 311 326 313
3 322 319 326
3 319 313 326
3 320 323 326
3 329 328 327
3 328 330 327
3 314 315 331
3 331 332 329
3 331 329 317
3 331 317 314
3 317 329 327
3 317 327 330
3 317 330 318
3 318 330 333
3 321 322 334
3 321 334 323
3 331 315 324
3 332 331 324
3 332 324 335
3 335 324 325
3 335 325 318
3 333 335 318
3 334 322 326
3 334 326 323
3 338 337 336
3 337 340 339
3 336 337 339
3 340 341 339
3 338 336 342
3 336 339 343
3 342 336 343
3 339 341 343
3 328 329 344
3 328 344 330
3 345 344 329
3 332 345 329
3 344 345 333
3 330 344 333
3 345 332 335
3 345 335 333
3 348 347 346
3 347 349 346
3 338 351 350
3 337 338 350
3 350 352 337
3 337 352 340
3 353 341 340
3 353 340 354
3 354 340 352
3 354 356 355
3 353 354 355
3 356 358 357
3 355 356 357
3 358 359 357
3 348 346 360
3 346 349 360
3 351 338 342
3 361 351 342
3 361 342 362
3 342 343 362
3 341 353 363
3 341 363 343
3 343 363 362
3 353 355 364
3 363 353 364
3 355 357 365
3 364 355 365
3 357 359 365
3 348 367 366
3 347 348 366
3 347 366 368
3 349 347 368
3 350 351 369
3 352 350 369
3 370 352 369
3 354 352 370
3 371 354 370
3 356 354 371
3 372 356 371
3 358 356 372
3 373 358 372
3 358 373 359
3 376 375 374
3 375 377 374
3 360 378 379
3 360 379 348
3 348 379 367
3 378 360 349
3 378 349 380
3 380 349 368
3 369 351 361
3 370 369 361
3 362 370 361
3 371 370 362
3 363 371 362
3 372 371 363
3 364 372 363
3 373 372 364
3 365 373 364
3 373 365 359
3 376 374 381
3 374 377 381
3 384 383 382
3 383 385 382
3 388 387 386
3 389 390 386
3 389 386 378
3 387 379 386
3 379 378 386
3 378 380 389
3 384 382 391
3 382 385 391
3 388 386 392
3 386 390 392
3 395 394 393
3 394 396 393
3 395 393 397
3 400 397 393
3 400 393 398
3 396 399 393
3 399 398 393
3 399 402 401
3 398 399 401
3 402 403 401
3 405 400 398
3 404 405 398
3 406 407 404
3 406 404 401
3 401 404 398
3 401 403 406
3 410 409 408
3 409 411 408
3 405 404 412
3 404 407 412
3 410 408 413
3 408 411 413
3 416 415 414
3 367 414 415
3 367 415 366
3 418 417 415
3 417 366 415
3 366 417 368
3 375 376 419
3 420 377 375
3 420 375 421
3 419 422 375
3 422 421 375
3 421 423 420
3 425 416 414
3 424 425 414
3 414 367 424
3 424 367 379
3 417 418 427
3 417 427 426
3 417 426 380
3 368 417 380
3 419 376 381
3 377 420 428
3 377 428 381
3 422 419 428
3 419 381 428
3 420 423 428
3 383 384 429
3 383 429 385
3 430 431 425
3 430 425 388
3 424 387 425
3 387 388 425
3 427 389 426
3 427 390 389
3 427 431 390
3 430 390 431
3 424 379 387
3 426 389 380
3 429 384 391
3 429 391 385
3 430 388 392
3 430 392 390
3 394 395 432
3 394 432 396
3 397 433 435
3 397 435 395
3 434 432 435
3 432 395 435
3 434 396 432
3 434 399 396
3 434 437 399
3 436 399 437
3 433 397 400
3 402 399 436
3 438 402 436
3 402 438 403
3 435 433 439
3 400 405 439
3 400 439 433
3 405 440 439
3 437 439 436
3 440 436 439
3 406 441 407
3 442 438 443
3 438 440 443
3 438 436 440
3 442 445 403
3 442 403 438
3 445 444 403
3 406 403 441
3 444 441 403
3 445 447 446
3 444 445 446
3 447 448 446
3 451 450 449
3 450 452 449
3 409 410 453
3 409 453 411
3 440 405 412
3 407 441 454
3 407 454 412
3 443 440 454
3 440 412 454
3 441 444 455
3 454 441 455
3 444 446 456
3 455 444 456
3 446 448 456
3 451 449 457
3 449 452 457
3 453 410 413
3 453 413 411
3 415 416 458
3 415 458 418
3 422 460 459
3 421 422 459
3 461 423 421
3 461 421 462
3 462 421 459
3 462 464 463
3 461 462 463
3 464 465 463
3 466 458 416
3 425 466 416
3 458 466 427
3 418 458 427
3 469 468 467
3 468 471 470
3 467 468 470
3 471 472 470
3 460 422 428
3 473 460 428
3 423 461 474
3 423 474 428
3 428 474 473
3 461 463 475
3 474 461 475
3 463 465 475
3 466 425 431
3 466 431 427
3 469 467 476
3 467 470 477
3 476 467 477
3 470 472 477
3 435 479 478
3 434 435 478
3 434 478 480
3 437 434 480
3 479 435 439
3 481 479 439
3 481 439 482
3 481 482 484
3 439 437 482
3 483 482 480
3 437 480 482
3 443 482 483
3 443 483 442
3 442 483 485
3 487 486 445
3 487 445 485
3 485 445 442
3 486 489 488
3 486 488 445
3 445 488 447
3 447 488 490
3 448 447 490
3 493 492 491
3 492 495 494
3 491 492 494
3 495 496 494
3 451 498 497
3 450 451 497
3 450 497 499
3 452 450 499
3 484 482 500
3 482 443 454
3 482 454 500
3 500 454 501
3 486 487 501
3 486 501 455
3 455 501 454
3 489 486 455
3 489 455 502
3 502 455 456
3 502 456 448
3 490 502 448
3 493 491 503
3 491 494 504
3 503 491 504
3 494 496 504
3 498 451 457
3 505 498 457
3 505 457 452
3 499 505 452
3 459 460 506
3 462 459 506
3 507 462 506
3 464 462 507
3 508 464 507
3 464 508 465
3 511 510 509
3 510 513 512
3 509 510 512
3 469 512 513
3 469 513 468
3 515 514 513
3 514 468 513
3 471 468 514
3 516 471 514
3 471 516 472
3 506 460 473
3 507 506 473
3 474 507 473
3 508 507 474
3 475 508 474
3 508 475 465
3 511 509 517
3 519 517 509
3 519 509 518
3 518 509 512
3 515 521 514
3 512 469 520
3 512 520 518
3 520 469 476
3 476 477 522
3 476 522 520
3 477 516 522
3 521 522 514
3 516 514 522
3 516 477 472
3 519 518 523
3 518 520 524
3 523 518 524
3 520 522 524
3 478 479 525
3 478 525 480
3 528 527 526
3 527 529 526
3 481 530 532
3 481 532 479
3 531 525 532
3 525 479 532
3 531 480 525
3 531 483 480
3 531 534 483
3 533 483 534
3 530 481 484
3 533 536 535
3 533 535 483
3 483 535 485
3 485 535 537
3 487 485 537
3 488 489 538
3 488 538 490
3 492 493 539
3 495 492 539
3 540 495 539
3 495 540 496
3 543 542 541
3 542 545 544
3 541 542 544
3 498 544 545
3 498 545 497
3 547 546 545
3 546 497 545
3 497 546 499
3 528 526 548
3 526 529 548
3 532 530 549
3 533 534 549
3 533 549 500
3 530 484 549
3 484 500 549
3 536 533 500
3 536 500 550
3 550 500 501
3 550 501 487
3 537 550 487
3 538 489 502
3 538 502 490
3 539 493 503
3 540 539 503
3 504 540 503
3 540 504 496
3 543 541 551
3 541 544 552
3 551 541 552
3 546 547 552
3 546 552 505
3 544 498 552
3 498 505 552
3 546 505 499
3 555 554 553
3 554 557 556
3 553 554 556
3 557 559 558
3 556 557 558
3 559 560 558
3 563 562 561
3 562 565 564
3 561 562 564
3 565 567 566
3 564 565 566
3 567 568 566
3 511 570 569
3 510 511 569
3 572 571 513
3 572 513 569
3 569 513 510
3 513 571 515
3 555 553 573
3 553 556 574
3 573 553 574
3 556 558 575
3 574 556 575
3 558 560 575
3 578 577 576
3 577 579 576
3 581 563 561
3 580 581 561
3 561 564 580
3 564 582 580
3 583 584 582
3 583 582 566
3 566 582 564
3 566 568 583
3 517 585 586
3 517 586 511
3 511 586 570
3 572 587 571
3 585 517 519
3 589 588 521
3 587 589 521
3 587 521 515
3 587 515 571
3 521 588 522
3 578 576 590
3 576 579 590
3 581 580 591
3 580 582 592
3 591 580 592
3 582 584 592
3 586 585 593
3 585 519 523
3 585 523 593
3 593 523 594
3 588 589 594
3 588 594 524
3 524 594 523
3 588 524 522
3 597 596 595
3 596 598 595
3 597 595 599
3 595 598 599
3 602 601 600
3 601 603 600
3 606 605 604
3 605 607 604
3 610 609 608
3 528 608 609
3 528 609 527
3 612 611 609
3 611 527 609
3 527 611 529
3 600 531 532
3 600 532 602
3 602 532 613
3 531 614 534
3 600 614 531
3 600 615 614
3 600 603 615
3 536 614 615
3 536 615 535
3 617 616 615
3 616 535 615
3 618 537 535
3 618 535 619
3 616 620 535
3 620 619 535
3 619 622 621
3 618 619 621
3 622 623 621
3 543 625 624
3 542 543 624
3 627 626 545
3 627 545 624
3 624 545 542
3 545 626 547
3 606 604 628
3 631 628 604
3 631 604 629
3 607 630 604
3 630 629 604
3 632 633 629
3 632 629 608
3 630 610 629
3 610 608 629
3 611 612 632
3 611 632 548
3 608 528 632
3 528 548 632
3 611 548 529
3 613 532 549
3 634 613 549
3 534 614 635
3 534 635 549
3 549 635 634
3 616 617 635
3 616 635 550
3 614 536 635
3 536 550 635
3 537 618 636
3 537 636 550
3 620 616 636
3 616 550 636
3 618 621 637
3 636 618 637
3 621 623 637
3 625 543 551
3 638 625 551
3 626 627 638
3 626 638 552
3 552 638 551
3 626 552 547
3 631 629 639
3 629 633 639
3 642 641 640
3 555 640 641
3 555 641 554
3 644 643 641
3 643 554 641
3 557 554 643
3 645 557 643
3 559 557 645
3 646 559 645
3 559 646 560
3 649 648 647
3 648 650 647
3 563 652 651
3 562 563 651
3 654 653 565
3 654 565 651
3 651 565 562
3 653 656 655
3 653 655 565
3 565 655 567
3 567 655 657
3 568 567 657
3 660 659 658
3 570 658 659
3 570 659 569
3 662 661 659
3 661 569 659
3 569 661 572
3 642 640 663
3 643 644 663
3 643 663 573
3 640 555 663
3 555 573 663
3 645 643 573
3 574 645 573
3 646 645 574
3 575 646 574
3 646 575 560
3 649 647 664
3 647 650 664
3 577 578 665
3 577 665 579
3 652 563 666
3 666 563 581
3 668 653 654
3 667 653 668
3 656 583 669
3 656 667 583
3 656 653 667
3 667 584 583
3 669 583 568
3 657 669 568
3 660 658 670
3 661 662 671
3 658 570 670
3 570 672 670
3 570 586 672
3 674 673 587
3 671 674 587
3 671 587 572
3 671 572 661
3 587 673 589
3 665 578 590
3 665 590 579
3 666 581 591
3 675 666 591
3 667 668 675
3 667 675 592
3 592 675 591
3 667 592 584
3 593 676 677
3 593 677 586
3 586 677 672
3 594 676 593
3 594 678 676
3 679 673 674
3 678 594 589
3 678 589 680
3 673 679 589
3 679 680 589
3 596 597 681
3 677 676 682
3 681 598 596
3 676 678 683
3 682 676 683
3 678 680 683
3 681 597 599
3 681 599 598
3 601 602 684
3 601 684 603
3 687 686 685
3 686 688 685
3 605 606 689
3 690 607 605
3 690 605 691
3 689 692 605
3 692 691 605
3 610 690 691
3 610 691 609
3 694 693 691
3 693 609 691
3 609 693 612
3 697 696 695
3 696 698 695
3 699 684 602
3 699 602 700
3 700 602 613
3 684 615 603
3 684 699 615
3 699 701 615
3 702 617 615
3 702 615 703
3 703 615 701
3 620 702 703
3 620 703 619
3 705 704 703
3 704 619 703
3 622 619 704
3 706 622 704
3 622 706 623
3 709 708 707
3 708 710 707
3 625 712 711
3 624 625 711
3 714 627 685
3 714 685 713
3 627 624 685
3 687 685 711
3 624 711 685
3 717 713 685
3 717 685 715
3 688 716 685
3 716 715 685
3 716 718 715
3 606 628 689
3 689 720 692
3 689 719 720
3 689 628 719
3 631 719 628
3 607 690 630
3 721 633 632
3 720 719 723
3 690 610 630
3 693 694 722
3 721 632 612
3 721 612 724
3 693 722 612
3 722 724 612
3 697 695 725
3 695 698 725
3 700 613 634
3 726 700 634
3 726 634 727
3 634 635 727
3 617 702 728
3 617 728 635
3 635 728 727
3 704 705 728
3 704 728 636
3 702 620 728
3 620 636 728
3 706 704 636
3 637 706 636
3 706 637 623
3 709 707 729
3 707 710 729
3 712 625 638
3 730 712 638
3 730 638 627
3 714 730 627
3 717 715 731
3 715 718 731
3 719 631 639
3 633 721 732
3 633 732 639
3 723 719 732
3 719 639 732
3 721 724 732
3 641 642 733
3 641 733 644
3 648 649 734
3 648 734 650
3 651 652 735
3 651 735 654
3 655 656 736
3 655 736 657
3 659 660 737
3 659 737 662
3 733 642 663
3 733 663 644
3 734 649 664
3 734 664 650
3 738 735 652
3 666 738 652
3 735 738 668
3 654 735 668
3 736 656 669
3 736 669 657
3 737 660 670
3 671 662 737
3 671 737 739
3 670 672 737
3 672 739 737
3 671 739 674
3 738 666 675
3 738 675 668
3 740 739 672
3 677 740 672
3 679 674 739
3 679 739 741
3 741 739 740
3 679 741 680
3 740 677 682
3 741 740 682
3 683 741 682
3 741 683 680
3 686 687 742
3 686 742 688
3 691 692 743
3 691 743 694
3 696 697 744
3 696 744 698
3 699 700 745
3 701 699 745
3 746 701 745
3 703 701 746
3 747 703 746
3 703 747 705
3 708 709 748
3 708 748 710
3 711 712 749
3 714 713 742
3 714 742 749
3 687 711 742
3 711 749 742
3 716 688 742
3 716 742 750
3 713 717 742
3 717 750 742
3 716 750 718
3 743 692 720
3 722 694 743
3 722 743 751
3 720 723 743
3 723 751 743
3 722 751 724
3 744 697 725
3 744 725 698
3 745 700 726
3 746 745 726
3 727 746 726
3 747 746 727
3 728 747 727
3 747 728 705
3 748 709 729
3 748 729 710
3 749 712 730
3 749 730 714
3 750 717 731
3 750 731 718
3 751 723 732
3 751 732 724
