ply
format ascii 1.0
element vertex 630
property float x
property float y
property float z
property uchar red
property uchar green
property uchar blue
element face 1144
property list uchar int vertex_indices
end_header
-9.8861846923828125 -9 -3 14 14 14
-9 -9.8861846923828125 -3 32 34 35
-9 -9 -3.34390974044799805 23 23 22
-9.87739753723144531 -9 -2 13 13 13
-9 -9.87739753723144531 -2 29 31 35
-9 -9 -1.84406542778015137 17 16 16
-9.90543937683105469 -8 -8 20 26 26
-9 -8.75140380859375 -8 10 11 9
-9 -8 -8.37162017822265625 19 19 18
-9.88436317443847656 -8 -7 27 31 31
-9 -8.17655754089355469 -7 31 31 31
-9.76170444488525391 -8 -6 7 7 7
-9 -8.08650112152099609 -6 12 16 16
-9.70634269714355469 -8 -5 7 9 10
-9 -8.05877590179443359 -5 11 12 10
-9.79543876647949219 -8 -4 4 5 6
-9 -8.20746994018554688 -4 23 23 22
-9.77781963348388672 -8 -3 5 6 6
-9.29218292236328125 -8 -2 8 10 11
-9 -8 -1.98696732521057129 22 22 20
-9.85225009918212891 -7 -8 5 6 6
-9 -7 -8.15228748321533203 10 9 8
-9.80843257904052734 -7 -7 8 9 8
-9.7401885986328125 -7 -6 6 7 8
-9 -7.28507709503173828 -5 5 5 4
-9 -7 -5.25186777114868164 4 5 4
-9 -7.75889968872070312 -4 15 18 16
-9 -7.89880037307739258 -3 6 6 5
-9 -7.98981761932373047 -2 22 22 20
-9 -6.84734582901000977 -8 1 1 1
-9 -6.90273237228393555 -7 12 15 14
-9 -6.92273044586181641 -6 4 5 4
-9.89721488952636719 7 -9 3 4 3
-9 6.50311374664306641 -9 47 47 47
-9 7 -9.89721488952636719 9 9 9
-9.88430213928222656 7 -8 5 6 6
-9 6.60445261001586914 -8 45 45 45
-9 7 -7.60021018981933594 47 43 41
-9.91314888000488281 8 -9 34 28 26
-9 8 -9.91314888000488281 10 11 10
-9 7.17968082427978516 -8 47 43 41
-9 8 -8.76845741271972656 8 8 8
-9.83592987060546875 8 -2 33 24 23
-9 7.80815744400024414 -2 32 40 32
-9 8 -2.16687631607055664 31 36 29
-9.74437999725341797 8 -1 36 39 40
-9 7.93190956115722656 -1 40 42 42
-9.48967075347900391 8 0 28 31 23
-9 7.97636079788208008 0 44 46 47
-9.79404926300048828 8 1 48 54 49
-9 7.92558860778808594 1 50 49 51
-9 8 1.1015322208404541 28 27 19
-9.88153266906738281 8 8 39 35 27
-9 7.63078784942626953 8 5 5 5
-9 8 7.16292715072631836 13 16 12
-9 8 8.88153266906738281 5 9 7
-9 8.91314888000488281 -9 8 8 8
-9 8.83592987060546875 -2 15 18 15
-9 8.74437999725341797 -1 45 43 32
-9 8.48967075347900391 0 26 24 21
-9 8.79404926300048828 1 28 27 19
-9 8.88153266906738281 8 5 9 7
-8.81375789642333984 -9 -3 15 18 16
-8.84694480895996094 -9 -2 17 16 16
-8.69112586975097656 -8 -8 23 26 32
-8.75510978698730469 -8 -7 22 21 21
-8.91425418853759766 -8 -6 12 15 13
-8.94888210296630859 -8 -5 5 5 4
-8.9125518798828125 -8 -4 15 18 16
-8.92999076843261719 -8 -3 6 6 5
-8.99121570587158203 -8 -2 22 22 20
-8.83955287933349609 -7 -8 1 1 1
-8.91493797302246094 -7 -7 12 15 14
-8.94279384613037109 -7 -6 4 5 4
-8.02906513214111328 5 -9 44 43 41
-8 4.99433708190917969 -9 7 7 6
-8 5 -9.21218967437744141 2 3 3
-8 5 -8.93895244598388672 0 0 0
-8 5.06792974472045898 -9 0 0 0
-8.49628925323486328 7 -9 12 13 12
-8.54021835327148438 7 -8 47 43 41
-8.01161479949951172 7 5 25 29 26
-8 6.9903712272644043 5 49 49 51
-8 7 4.08728933334350586 55 48 43
-8 7 5.01262569427490234 16 16 16
-8.69287014007568359 8 -9 8 8 8
-8.80573558807373047 8 -2 15 18 15
-8.93227672576904297 8 -1 45 43 32
-8.94367408752441406 8 0 26 24 21
-8.91378211975097656 8 1 28 27 19
-8.06659793853759766 8 3 50 51 50
-8 7.9605708122253418 3 48 50 51
-8 8 2.88173174858093262 50 54 41
-8 8 3.16448378562927246 16 17 16
-8.05005550384521484 8 5 42 52 55
-8 8 4.77943706512451172 9 11 8
-8 8 5.1679072380065918 4 6 5
-8 7.87166166305541992 8 46 49 52
-8 8 7.85797977447509766 54 56 60
-8 8 8.86507892608642578 17 20 17
-8 8.59749031066894531 3 16 17 16
-8 8.68089103698730469 5 4 6 5
-8 8.86507892608642578 8 17 20 17
-7.14533329010009766 -9 6 19 19 16
-7 -9.83222675323486328 6 22 22 18
-7 -9 5.88773155212402344 24 30 30
-7.19650506973266602 -9 7 22 23 20
-7 -9.86482334136962891 7 15 14 12
-7 -9 7.18887519836425781 29 28 27
-7 -8.90176582336425781 6 26 23 22
-7 -8.81291389465332031 7 29 28 27
-7.94672632217407227 5 -9 0 0 0
-7.19195222854614258 7 -9 48 49 45
-7 6.77184057235717773 -9 5 8 6
-7 7 -9.67138195037841797 0 1 1
-7.30283164978027344 7 -8 44 45 41
-7 6.69760227203369141 -8 11 13 10
-7.30721378326416016 7 -7 7 8 8
-7 6.75554180145263672 -7 12 14 11
-7.23302173614501953 7 -6 6 8 8
-7 6.88851785659790039 -6 36 36 31
-7.0768275260925293 7 -5 4 5 5
-7 6.97212600708007812 -5 20 17 17
-7 7 -4.48143196105957031 6 9 7
-7.9903416633605957 7 5 16 16 16
-7 7.23072004318237305 -9 0 0 0
-7 7.38228654861450195 -8 2 3 3
-7 7.44799280166625977 -7 4 6 6
-7 7.40465164184570312 -6 5 8 7
-7 7.16333723068237305 -5 6 9 7
-7.94997596740722656 8 3 16 17 16
-7 7.98101186752319336 5 44 45 46
-7 8 4.97510242462158203 57 59 59
-7 8 5.05109024047851562 57 54 48
-7.75854349136352539 8 8 17 20 17
-7 8.48570156097412109 5 57 54 48
-6.87024974822998047 -9 6 26 23 22
-6.86189746856689453 -9 7 29 28 27
-6.87567234039306641 7 -9 0 0 0
-6.81841468811035156 7 -8 2 3 3
-6.53398990631103516 7 -7 4 6 6
-6.77813577651977539 7 -6 5 8 7
-6.93837451934814453 7 -5 6 9 7
-6.47944927215576172 8 -9 38 38 38
-6 7.69636964797973633 -9 15 16 12
-6 8 -9.86252689361572266 2 2 3
-6.54911947250366211 8 -8 3 4 4
-6 7.6960749626159668 -8 21 20 16
-6.59963083267211914 8 -7 2 2 2
-6 7.38306903839111328 -7 36 34 33
-6.58381414413452148 8 -6 0 0 0
-6 7.62954473495483398 -6 45 42 38
-6.46450328826904297 8 -5 0 0 0
-6 7.77411508560180664 -5 6 7 7
-6.2789311408996582 8 -4 0 0 0
-6 7.82464885711669922 -4 0 0 0
-6.16026735305786133 8 -3 0 0 0
-6 7.97172784805297852 -3 21 23 18
-6.10453701019287109 8 -2 1 2 1
-6 7.93641376495361328 -2 15 14 11
-6.04920721054077148 8 -1 4 4 3
-6 7.9695281982421875 -1 15 14 12
-6 8 -0.411932051181793213 12 14 12
-6.97353315353393555 8 5 57 54 48
-6.05221843719482422 8 7 53 56 59
-6 7.9566950798034668 7 55 56 59
-6 8 6.94589424133300781 53 54 53
-6.15610742568969727 8 8 56 58 57
-6 7.09909391403198242 8 19 20 19
-6 8 8.78840827941894531 62 59 56
-6 8.86252689361572266 -9 4 5 6
-6 8.88474559783935547 -8 6 8 9
-6 8.87368869781494141 -7 8 12 11
-6 8.83268070220947266 -6 10 13 12
-6 8.74696540832519531 -5 11 15 12
-6 8.62429618835449219 -4 12 15 12
-6 8.55857658386230469 -3 12 15 12
-6 8.58995342254638672 -2 12 15 12
-6 8.54690742492675781 -1 12 14 12
-6 8.68383693695068359 7 20 29 19
-6 8.78840827941894531 8 62 59 56
-5.3841242790222168 6 -9 18 24 17
-5 5.92519521713256836 -9 7 8 7
-5 6 -9.62013816833496094 11 16 15
-5 6 -8.79950141906738281 32 33 31
-5 6.03668308258056641 -9 32 33 31
-5.16448163986206055 7 -8 21 20 16
-5 6.65288257598876953 -8 5 5 6
-5 7 -8.07470130920410156 10 8 7
-5 7 -7.65818405151367188 23 25 24
-5 7.91881513595581055 -9 10 8 7
-5 8 -9.79114532470703125 11 13 16
-5.84314966201782227 8 -8 6 8 9
-5 7.07738447189331055 -8 23 25 24
-5 8 -8.91592025756835938 14 22 19
-5.86104869842529297 8 -7 8 12 11
-5.89480113983154297 8 -6 10 13 12
-5.93352127075195312 8 -5 11 15 12
-5.96387195587158203 8 -4 12 15 12
-5.07545757293701172 8 -3 12 15 12
-5.81154775619506836 8 -2 12 15 12
-5.97326469421386719 8 -1 12 14 12
-5.00078535079956055 8 2 22 17 16
-5 7.99817657470703125 2 45 35 30
-5 8 1.99005663394927979 24 26 24
-5 8 2.0047612190246582 19 20 19
-5.03175020217895508 8 6 53 54 53
-5 7.94513368606567383 6 29 29 29
-5 8 5.96448230743408203 54 60 59
-5 7.94739484786987305 7 28 21 21
-5.06638193130493164 8 8 62 59 56
-5 8 7.84361648559570312 39 41 27
-5 8.79114532470703125 -9 14 22 19
-5 8.01998233795166016 2 19 20 19
-5 8.55355739593505859 6 31 33 31
-5 8.58833789825439453 7 39 41 27
-4 5.91789436340332031 -9 4 4 4
-4 6 -9.43813896179199219 25 26 25
-4 6 -8.95210838317871094 2 2 2
-4.03442144393920898 7 -9 10 8 7
-4 7 -9.6044769287109375 6 7 8
-4.56364345550537109 7 -8 23 25 24
-4 7 -8.74524021148681641 34 37 33
-4.90715503692626953 8 -9 14 22 19
-4 7.03965520858764648 -9 34 37 33
-4.13218164443969727 8 -8 0 0 0
-4 7.4156494140625 -8 5 5 6
-4 8 -8.14516735076904297 1 1 1
-4 8 -7.84113883972167969 28 33 31
-4.00897312164306641 8 -4 30 35 28
-4 7.97926139831542969 -4 1 1 1
-4 8 -4.02827072143554688 4 5 5
-4 8 -3.98169660568237305 5 5 6
-4.99956464767456055 8 2 19 20 19
-4.96976470947265625 8 6 31 33 31
-4.95082998275756836 8 7 39 41 27
-4 8.86273574829101562 -8 28 33 31
-4 8.28642559051513672 -4 5 5 6
-3.94294071197509766 6 -9 2 2 2
-3.67228794097900391 7 -9 34 37 33
-3.60422945022583008 8 -8 28 33 31
-3.11342120170593262 8 -7 0 0 0
-3 7.76938724517822266 -7 11 11 11
-3 8 -7.30732440948486328 22 24 23
-3 8 -6.74067068099975586 27 30 30
-3.92992997169494629 8 -4 5 5 6
-3.00818657875061035 8 -3 5 6 6
-3 7.99065113067626953 -3 1 1 1
-3 8 -3.03228092193603516 4 4 6
-3 8 -2.97139549255371094 2 2 3
-3 8.80979251861572266 -7 27 30 30
-3 8.15088748931884766 -3 2 2 3
-2.00244474411010742 -9 3 0 0 0
-2 -9.10583877563476562 3 3 3 4
-2 -9 2.99584412574768066 6 6 5
-2 -9 3.00839662551879883 5 6 6
-2 -8.99761199951171875 3 5 6 6
-2.77372312545776367 8 -7 27 30 30
-2.97233867645263672 8 -3 2 2 3
-2.04294514656066895 8 6 20 20 20
-2 7.99402475357055664 6 2 3 3
-2 8 5.98611927032470703 4 5 6
-2 8 6.07991409301757812 62 46 38
-2 8.15479469299316406 6 62 46 38
-1.04200959205627441 -9 -6 20 20 20
-1 -9.62224102020263672 -6 23 20 25
-1 -9 -6.10839605331420898 6 8 8
-1 -9 -5.40724897384643555 5 7 7
-1.99750828742980957 -9 3 5 6 6
-1.02808809280395508 -9 4 11 13 14
-1 -9.28773880004882812 4 14 14 12
-1 -9 3.991546630859375 13 13 12
-1 -9 4.01114416122436523 10 10 12
-1 -8.96597957611083984 -6 5 7 7
-1 -8.92223358154296875 4 10 10 12
-1.99355018138885498 8 6 62 46 38
-1.37697148323059082 8 7 19 20 20
-1 7.95882034301757812 7 3 5 5
-1 8 6.95673370361328125 6 8 8
-1 8 7.32141351699829102 64 52 38
-1 8.56060314178466797 7 64 52 38
-0.03563738614320755 -9 -9 29 28 28
0 -9.39887714385986328 -9 10 8 13
0 -9 -9.39887714385986328 22 17 23
0 -9 -8.92947673797607422 17 16 21
-0.912094950675964355 -9 -6 5 7 7
-0.991694748401641846 -9 4 10 10 12
-0.028394283726811409 -9 5 36 37 28
0 -9.51161956787109375 5 13 15 15
0 -9 4.9787445068359375 18 18 17
0 -9 5.02555942535400391 8 10 11
0 -8.28273391723632812 -9 17 16 21
-0.1048593670129776 -8 -8 29 27 27
0 -8.21677398681640625 -8 17 17 21
0 -8 -8.90247726440429688 15 12 18
0 -8 -7.90868854522705078 22 30 24
0 -8.90907669067382812 5 8 10 11
0 -7.92091751098632812 -8 22 30 24
-0.0448854193091392517 8 -5 3 3 3
0 7.91153383255004883 -5 19 28 23
0 8 -5.6422724723815918 0 0 0
0 8 -4.90631389617919922 48 54 35
-0.955407261848449707 8 7 64 52 38
-0.478424757719039917 8 8 19 19 20
0 7.92140626907348633 8 4 7 7
0 8 7.91710424423217773 7 10 10
0 8 8.71188163757324219 66 60 38
0 8.46594047546386719 -5 48 54 35
0 8.71188163757324219 8 66 60 38
0.0674438402056694031 -9 -9 17 16 21
0.830580234527587891 -9 -6 5 5 5
1 -9.77709388732910156 -6 30 27 27
1 -9 -6.24814081192016602 29 31 25
0.949605286121368408 -9 -5 16 18 19
1 -9.49786663055419922 -5 22 28 23
0.921258270740509033 -9 -4 27 26 26
1 -9.63732337951660156 -4 25 27 23
1 -9 -3.95959138870239258 19 16 25
0.0215653795748949051 -9 5 8 10 11
0.952742993831634521 -9 6 36 38 29
1 -9.66454124450683594 6 1 1 1
1 -9 5.95998859405517578 21 20 19
0.926550090312957764 -9 7 38 39 36
1 -9.72098922729492188 7 8 9 10
1 -9 7.05482721328735352 41 41 41
0.0554037429392337799 -8 -8 22 30 24
1 -8.411041259765625 -6 4 4 5
1 -8.61117649078369141 -5 22 17 26
1 -8.88763618469238281 -4 19 16 25
1 -8.90618038177490234 6 9 11 12
1 -8.94982337951660156 7 41 41 41
0.207496687769889832 8 -6 0 0 0
1 7.74164438247680664 -6 0 0 1
1 8 -6.14862966537475586 26 41 25
0.832652866840362549 8 -5 48 54 35
1 8 -5.08632230758666992 26 43 35
0.0576746203005313873 8 8 66 60 38
1 8.64985275268554688 -6 26 43 35
1.12501776218414307 -9 -6 4 4 5
1.03436827659606934 -9 -5 22 17 26
1.05868911743164062 -9 -4 19 16 25
1.55612838268280029 -9 -1 17 16 21
2 -9.29838657379150391 -1 18 15 21
2 -9 -1.84621238708496094 23 20 26
2 -9 -0.984415054321289062 24 20 26
1.04156398773193359 -9 6 9 11 12
1.15211749076843262 -9 7 41 41 41
1.9403531551361084 -9 8 24 23 21
2 -9.73860645294189453 8 42 42 40
2 -9 7.83599472045898438 13 13 13
2 -9 8.73860645294189453 7 7 8
1.97205758094787598 -8 -8 32 32 26
2 -8.14142036437988281 -8 16 14 19
2 -8 -8.67458629608154297 6 5 7
2 -8 -7.97450780868530273 20 14 23
2 -8.96673011779785156 -1 24 20 26
2 -8.94235897064208984 8 7 7 8
2 -7.35761451721191406 -8 20 14 23
1.96916472911834717 6 -9 9 9 11
2 5.99250221252441406 -9 8 12 13
2 6 -9.16376876831054688 2 2 2
2 6 -8.87917518615722656 7 6 8
2 6.03189945220947266 -9 7 6 8
1.76497137546539307 7 -8 18 30 29
2 6.41883420944213867 -8 7 6 8
2 7 -8.24963855743408203 10 11 15
2 7 -7.73361396789550781 8 7 10
1.89438331127166748 8 -8 29 45 27
2 8 -8.1417083740234375 27 46 34
2 8 -7.8996577262878418 22 37 39
1.07218062877655029 8 -6 26 43 35
1.94705212116241455 8 6 9 13 15
2 7.8608245849609375 6 8 8 13
2 8 5.53470945358276367 21 28 32
2 8 6.05904340744018555 15 15 22
2 8.51887989044189453 -8 22 37 39
2 8.47790431976318359 6 15 15 22
2.0122838020324707 -9 -1 24 20 26
2.12664103507995605 -9 8 7 7 8
2.02632784843444824 -8 -8 20 14 23
2.14121031761169434 6 -9 7 6 8
3 6.94666099548339844 -8 3 4 4
3 7 -8.06079864501953125 11 15 13
2.83941769599914551 7 -7 3 2 3
3 6.86776304244995117 -7 19 21 25
3 7 -6.36225271224975586 9 7 10
3 8 -8.47718429565429688 37 52 48
3 7.09585332870483398 -7 9 7 10
3 8 -7.68401718139648438 31 42 47
2.90231227874755859 8 -6 36 40 29
3 7.18639850616455078 -6 9 8 11
3 8 -6.20813798904418945 14 14 20
3 8 -5.48067474365234375 5 4 5
2.99546575546264648 8 -3 39 34 29
3 7.99550914764404297 -3 3 3 3
3 8 -3.04019951820373535 17 24 29
3 8 -2.85738205909729004 21 34 37
2.34932994842529297 8 6 15 15 22
2.95907831192016602 8 7 11 12 14
3 7.97488117218017578 7 11 21 20
3 8 6.73256587982177734 9 7 12
3 8 7.02531242370605469 18 24 33
3 8.81947040557861328 -8 31 42 47
3 8.72088813781738281 -6 5 4 5
3 8.18140029907226562 -3 21 34 37
3 8.38363838195800781 7 18 24 33
3.76633238792419434 -9 8 12 12 12
4 -9.85594558715820312 8 0 0 0
4 -9 7.88135671615600586 27 27 27
4 -9 8.85594558715820312 13 14 18
4 -8.85705375671386719 8 13 14 18
3.92963480949401855 7 -9 11 15 13
4 6.93635797500610352 -9 6 8 8
4 7 -9.76085948944091797 17 15 21
4 6.64953327178955078 -8 33 42 43
3.02564716339111328 7 -7 9 7 10
4 7 -7.92574119567871094 12 10 14
4 7.62496519088745117 -9 11 9 12
3.1618497371673584 8 -8 31 42 47
4 7.11898231506347656 -8 12 10 14
3.537841796875 8 -6 5 4 5
3.00775480270385742 8 -3 21 34 37
3.03658032417297363 8 7 18 24 33
3.84503006935119629 8 8 9 11 15
4 7.84877920150756836 8 7 11 15
4 8 7.78856420516967773 8 9 16
4 8 8.81465530395507812 17 15 23
4 8.81465530395507812 8 17 15 23
4.18276166915893555 -9 8 13 14 18
5 6.85554742813110352 -9 30 38 31
5 7 -9.85990333557128906 16 12 18
4.06789159774780273 7 -8 12 10 14
5 7 -8.87655830383300781 15 12 16
4.98186254501342773 7 -7 55 35 35
5 6.94518709182739258 -7 44 56 43
5 7 -7.01649618148803711 30 35 23
5 7 -6.92315912246704102 26 30 39
4.18368959426879883 8 -9 9 8 10
5 8 -9.89456748962402344 36 66 48
4.88332700729370117 8 -8 8 9 12
5 7.93350076675415039 -8 30 35 23
4.34923458099365234 8 -7 10 9 11
5 8 -6.72985649108886719 13 10 13
4.33555269241333008 8 -4 9 7 10
5 7.88794708251953125 -4 43 56 37
5 8 -4.08283424377441406 12 12 18
5 8 -3.46370053291320801 15 11 16
4.98984050750732422 8 -2 6 9 7
5 7.97232437133789062 -2 43 56 35
5 8 -2.2314903736114502 13 10 16
4.14858198165893555 8 -1 16 19 30
5 7.97128915786743164 -1 54 36 32
5 8 -0.855872809886932373 20 14 23
4.83886432647705078 8 7 8 9 16
5 7.54766988754272461 7 23 28 38
5 8 6.88048410415649414 12 19 24
5 7.66152429580688477 8 10 10 21
5 8 8.83983039855957031 18 16 35
5 8.89456748962402344 -9 19 14 21
5 8.75638675689697266 -8 11 9 12
5 8.72675037384033203 -7 13 10 13
5 8.65446853637695312 -4 15 11 16
5 8.33034420013427734 -2 14 10 17
5 8.53816795349121094 -1 20 14 23
5 8.75896930694580078 7 16 10 19
5 8.83983039855957031 8 18 16 35
5.93421697616577148 -9 3 14 14 14
6 -9.66963100433349609 3 10 8 10
6 -9 2.94516777992248535 30 30 28
5.84657430648803711 -9 4 8 8 8
6 -9.81081008911132812 4 11 11 11
6 -9 4.15124940872192383 9 8 9
6 -8.95411300659179688 3 10 9 10
5.99913311004638672 -8 4 12 12 13
6 -8 3.999359130859375 20 21 20
6 -8 4.00093984603881836 11 11 11
6 -7.99935579299926758 4 11 11 11
5.18650579452514648 7 -9 15 12 16
5.13900232315063477 7 -7 26 30 39
5.85929489135742188 7 8 10 10 21
6 6.8632655143737793 8 12 7 15
6 7 7.75680971145629883 22 40 46
6 7 8.62658977508544922 20 13 27
6 7.80015802383422852 -9 24 36 34
6 8 -9.86990165710449219 24 19 32
6 7.74276351928710938 -8 54 57 30
5.14980125427246094 8 -7 13 10 13
6 8 -7.61121988296508789 16 11 16
5.99180126190185547 8 -5 12 12 18
6 7.98655319213867188 -5 41 59 39
6 8 -5.02958440780639648 20 16 24
5.04097938537597656 8 -4 15 11 16
6 8 -4.99610424041748047 12 8 14
6 7.86588525772094727 -2 44 59 35
6 8 -2.38080692291259766 8 5 10
5.19420051574707031 8 -1 20 14 23
6 8 -1.64283335208892822 11 7 11
5.91101503372192383 8 0 10 8 15
6 7.9805912971496582 0 59 41 34
6 8 -0.12264598160982132 25 49 48
5.96580410003662109 8 1 63 60 58
6 7.83658313751220703 1 19 16 29
6 8 1.03395521640777588 17 10 22
5.18462085723876953 8 7 16 10 19
6 8 7.68608379364013672 21 39 41
6 8 8.86418724060058594 22 15 27
6 8.86990165710449219 -9 15 11 16
6 8.90567302703857422 -8 16 11 16
6 8.14775371551513672 -5 12 8 14
6 8.72873783111572266 -2 11 7 11
6 8.40330886840820312 0 23 17 30
6 8.621978759765625 1 17 10 22
6 8.86418724060058594 8 22 15 27
6.78090333938598633 -9 -8 29 29 27
7 -9.91035747528076172 -8 17 19 32
7 -9 -8.23499965667724609 9 11 10
7 -9 -7.7869267463684082 3 2 3
7 -9.34299278259277344 3 10 8 10
7 -9 2.98826122283935547 7 8 8
6.09513664245605469 -9 4 9 8 9
7 -9 3.01264548301696777 19 19 21
7 -8.64665889739990234 -8 3 2 3
7 -8.97876071929931641 3 19 19 21
6.01125192642211914 -8 4 11 11 11
6.84064626693725586 7 -8 54 57 30
7 6.58477783203125 -8 45 60 55
7 7 -8.11580467224121094 8 10 13
7 7 -7.56218910217285156 31 29 43
6.07625389099121094 7 8 20 13 27
7 7.77460908889770508 -9 8 10 13
7 8 -9.92110824584960938 27 18 30
6.62066078186035156 8 -7 13 12 20
7 7.4224553108215332 -7 41 59 52
6.45197820663452148 8 -6 20 16 24
7 7.58064651489257812 -6 40 61 46
6.02092790603637695 8 -5 12 8 14
7 8 -5.54050350189208984 14 7 13
6.51043176651000977 8 -3 8 5 10
7 7.78557252883911133 -3 39 60 36
7 8 -3.84262633323669434 24 18 29
6.96199131011962891 8 -2 11 7 11
7 8 -2.02470850944519043 24 16 26
6.58469295501708984 8 -1 25 49 48
7 7.83357143402099609 -1 38 62 35
7 8 -1.97002065181732178 30 52 57
6.23455667495727539 8 0 23 17 30
7 8 -0.39107811450958252 14 9 14
6.25393390655517578 8 1 17 10 22
6.71554946899414062 8 7 21 39 41
7 7.70026969909667969 7 13 8 19
7 8 6.72865819931030273 20 38 43
6.25082588195800781 8 8 22 15 27
7 8 7.22533750534057617 20 10 19
7 8.92110824584960938 -9 19 12 18
7 8.91115856170654297 -8 20 13 20
7 8.90220832824707031 -7 22 15 22
7 8.87334060668945312 -6 14 7 13
7 8.80730915069580078 -3 24 16 26
7 8.7744903564453125 -1 14 9 14
7 8.84682273864746094 7 20 10 19
7.22525405883789062 -9 -8 3 2 3
7.96816539764404297 -9 -1 5 4 5
8 -9.26917743682861328 -1 1 1 2
8 -9 -1.02179825305938721 17 16 17
8 -9 -0.990062355995178223 11 11 15
7.01336383819580078 -9 3 19 19 21
7.85238933563232422 -9 4 9 9 9
8 -9.87591266632080078 4 2 2 2
8 -9 3.84520697593688965 12 13 13
8 -9 4.27411603927612305 8 6 7
7.90306901931762695 -8 -4 27 29 27
8 -8.06186771392822266 -4 27 28 25
8 -8 -4.08510828018188477 14 10 16
8 -8 -3.89525175094604492 4 2 4
8 -8.97221279144287109 -1 11 11 15
7.81148338317871094 -8 1 5 5 6
8 -8.39053821563720703 1 14 14 16
8 -8 0.943838834762573242 38 39 35
8 -8 1.04053628444671631 12 9 11
8 -8.82379245758056641 4 8 6 7
8 -7.92506742477416992 -4 4 2 4
8 -7.61360979080200195 1 12 9 11
8 6.43831014633178711 -8 45 62 61
8 7 -8.1662750244140625 8 9 13
8 7 -7.43859386444091797 37 40 57
7.77028942108154297 7 7 13 8 19
8 6.60808801651000977 7 19 14 34
8 7 6.85065174102783203 44 53 52
8 7 7.16748619079589844 23 11 26
7.31514978408813477 8 -9 19 12 18
8 8 -8.32527256011962891 15 13 21
8 7.50242280960083008 -7 41 62 57
7.15125179290771484 8 -6 14 7 13
8 8 -6.87243080139160156 36 49 66
7.09472274780273438 8 -3 24 16 26
7.02343654632568359 8 -2 30 52 57
8 7.77271318435668945 -2 35 62 38
8 8 -2.09946966171264648 28 45 26
7.40513515472412109 8 -1 14 9 14
8 8 -1.53274881839752197 29 18 32
7.89120388031005859 8 4 72 67 64
8 7.61590242385864258 4 20 14 31
8 8 3.91136336326599121 27 35 35
7.75744485855102539 8 5 52 68 47
8 7.88340520858764648 5 17 22 24
8 8 5.27884626388549805 53 68 75
7.26209115982055664 8 7 20 10 19
8 7.19837331771850586 7 23 11 26
7.80322360992431641 8 8 14 19 32
8 7.80438327789306641 8 14 21 33
8 8 7.76974344253540039 17 14 30
8 8 8.82319736480712891 30 15 34
8 8.92442226409912109 -8 23 15 23
8 8.84979820251464844 -7 36 49 66
8 8.81559371948242188 -2 29 18 32
8 8.80975627899169922 4 28 14 31
8 8.86065959930419922 5 53 68 75
8 8.82319736480712891 8 30 15 34
8.26917743682861328 -9 -1 11 11 15
8.87591266632080078 -9 4 8 6 7
8.69532680511474609 -8 -4 4 2 4
8.66349887847900391 -8 1 12 9 11
8.87969875335693359 7 -8 37 40 57
8.79388999938964844 7 7 23 11 26
8.92442226409912109 8 -8 23 15 23
8.84979820251464844 8 -7 36 49 66
8.81559371948242188 8 -2 29 18 32
8.80975627899169922 8 4 28 14 31
8.86065959930419922 8 5 53 68 75
8.82319736480712891 8 8 30 15 34
3 2 1 0
3 1 4 3
3 0 1 3
3 4 5 3
3 8 7 6
3 7 10 9
3 6 7 9
3 10 12 11
3 9 10 11
3 12 14 13
3 11 12 13
3 14 16 15
3 13 14 15
3 16 2 0
3 16 0 15
3 15 0 17
3 0 3 17
3 3 18 17
3 5 19 18
3 3 5 18
3 21 8 6
3 20 21 6
3 6 9 20
3 9 22 20
3 9 11 22
3 11 23 22
3 24 25 23
3 24 23 13
3 13 23 11
3 13 15 26
3 24 13 26
3 15 17 27
3 26 15 27
3 17 18 28
3 27 17 28
3 18 19 28
3 21 20 29
3 20 22 30
3 29 20 30
3 22 23 31
3 30 22 31
3 23 25 31
3 34 33 32
3 33 36 35
3 32 33 35
3 36 37 35
3 39 34 32
3 38 39 32
3 40 41 38
3 40 38 35
3 35 38 32
3 35 37 40
3 44 43 42
3 43 46 45
3 42 43 45
3 46 48 47
3 45 46 47
3 48 50 49
3 47 48 49
3 50 51 49
3 54 53 52
3 53 55 52
3 39 38 56
3 38 41 56
3 44 42 57
3 42 45 58
3 57 42 58
3 45 47 59
3 58 45 59
3 47 49 60
3 59 47 60
3 49 51 60
3 54 52 61
3 52 55 61
3 1 2 62
3 4 1 62
3 63 4 62
3 4 63 5
3 7 8 64
3 10 7 64
3 65 10 64
3 12 10 65
3 66 12 65
3 14 12 66
3 67 14 66
3 16 14 67
3 68 16 67
3 2 16 68
3 2 68 62
3 62 68 69
3 62 69 63
3 63 69 70
3 63 70 19
3 5 63 19
3 71 64 8
3 21 71 8
3 64 71 65
3 65 71 72
3 65 72 66
3 66 72 73
3 25 24 67
3 25 67 73
3 73 67 66
3 68 67 24
3 26 68 24
3 69 68 26
3 27 69 26
3 70 69 27
3 28 70 27
3 70 28 19
3 71 21 29
3 72 71 29
3 30 72 29
3 73 72 30
3 31 73 30
3 73 31 25
3 76 75 74
3 75 77 74
3 76 74 78
3 74 77 78
3 33 34 79
3 36 33 79
3 80 36 79
3 36 80 37
3 83 82 81
3 82 84 81
3 85 79 34
3 39 85 34
3 41 40 80
3 41 80 85
3 85 80 79
3 80 40 37
3 43 44 86
3 46 43 86
3 87 46 86
3 48 46 87
3 88 48 87
3 50 48 88
3 89 50 88
3 50 89 51
3 92 91 90
3 91 93 90
3 95 83 81
3 94 95 81
3 84 96 94
3 81 84 94
3 54 98 97
3 53 54 97
3 53 97 99
3 55 53 99
3 85 39 56
3 85 56 41
3 86 44 57
3 87 86 57
3 58 87 57
3 88 87 58
3 59 88 58
3 89 88 59
3 60 89 59
3 89 60 51
3 92 90 100
3 90 93 100
3 95 94 101
3 94 96 101
3 98 54 61
3 102 98 61
3 102 61 55
3 99 102 55
3 105 104 103
3 104 107 106
3 103 104 106
3 107 108 106
3 105 103 109
3 103 106 110
3 109 103 110
3 106 108 110
3 75 76 111
3 75 111 77
3 111 76 78
3 111 78 77
3 114 113 112
3 113 116 115
3 112 113 115
3 116 118 117
3 115 116 117
3 118 120 119
3 117 118 119
3 120 122 121
3 119 120 121
3 122 123 121
3 82 83 124
3 82 124 84
3 114 112 125
3 112 115 126
3 125 112 126
3 115 117 127
3 126 115 127
3 117 119 128
3 127 117 128
3 119 121 129
3 128 119 129
3 121 123 129
3 91 92 130
3 91 130 93
3 131 124 83
3 131 83 132
3 132 83 95
3 124 131 133
3 124 133 84
3 84 133 96
3 97 98 134
3 97 134 99
3 130 92 100
3 130 100 93
3 132 95 101
3 135 132 101
3 135 101 96
3 133 135 96
3 134 98 102
3 134 102 99
3 104 105 136
3 107 104 136
3 137 107 136
3 107 137 108
3 136 105 109
3 137 136 109
3 110 137 109
3 137 110 108
3 113 114 138
3 116 113 138
3 139 116 138
3 118 116 139
3 140 118 139
3 120 118 140
3 141 120 140
3 122 120 141
3 142 122 141
3 122 142 123
3 125 143 145
3 125 145 114
3 144 138 145
3 138 114 145
3 125 146 143
3 125 126 146
3 144 147 138
3 147 139 138
3 126 148 146
3 126 127 148
3 147 149 139
3 149 140 139
3 127 150 148
3 127 128 150
3 149 151 140
3 151 141 140
3 128 152 150
3 128 129 152
3 151 153 141
3 153 142 141
3 153 155 123
3 153 123 142
3 155 154 123
3 129 123 152
3 154 152 123
3 155 157 156
3 154 155 156
3 157 159 158
3 156 157 158
3 159 161 160
3 158 159 160
3 161 162 160
3 131 132 163
3 131 163 133
3 166 165 164
3 165 168 167
3 164 165 167
3 168 169 167
3 145 143 170
3 143 146 171
3 170 143 171
3 146 148 172
3 171 146 172
3 148 150 173
3 172 148 173
3 150 152 174
3 173 150 174
3 152 154 175
3 174 152 175
3 154 156 176
3 175 154 176
3 156 158 177
3 176 156 177
3 158 160 178
3 177 158 178
3 160 162 178
3 163 132 135
3 163 135 133
3 166 164 179
3 164 167 180
3 179 164 180
3 167 169 180
3 183 182 181
3 182 184 181
3 183 181 185
3 188 185 181
3 188 181 186
3 184 187 181
3 187 186 181
3 187 189 186
3 145 191 190
3 144 145 190
3 194 192 193
3 190 188 147
3 190 147 144
3 147 188 186
3 192 195 189
3 192 189 193
3 195 149 189
3 186 189 147
3 149 147 189
3 151 149 195
3 196 151 195
3 153 151 196
3 197 153 196
3 155 153 197
3 198 155 197
3 157 155 198
3 199 157 198
3 159 157 199
3 200 159 199
3 161 159 200
3 201 161 200
3 161 201 162
3 204 203 202
3 203 205 202
3 208 207 206
3 166 206 207
3 166 207 165
3 165 207 209
3 211 210 168
3 211 168 209
3 209 168 165
3 168 210 169
3 191 145 170
3 212 191 170
3 192 194 212
3 192 212 171
3 171 212 170
3 195 192 171
3 172 195 171
3 196 195 172
3 173 196 172
3 197 196 173
3 174 197 173
3 198 197 174
3 175 198 174
3 199 198 175
3 176 199 175
3 200 199 176
3 177 200 176
3 201 200 177
3 178 201 177
3 201 178 162
3 204 202 213
3 202 205 213
3 208 206 214
3 206 166 179
3 206 179 214
3 214 179 215
3 210 211 215
3 210 215 180
3 180 215 179
3 210 180 169
3 183 217 216
3 182 183 216
3 182 216 218
3 184 182 218
3 185 219 220
3 185 220 183
3 183 220 217
3 219 185 188
3 222 221 184
3 222 184 218
3 184 221 187
3 187 221 189
3 223 224 220
3 223 220 191
3 219 190 220
3 190 191 220
3 225 194 193
3 224 223 227
3 219 188 190
3 221 222 226
3 225 193 189
3 225 189 228
3 221 226 189
3 226 228 189
3 231 230 229
3 230 232 229
3 203 204 233
3 203 233 205
3 207 208 234
3 209 207 234
3 235 209 234
3 209 235 211
3 223 191 212
3 194 225 236
3 194 236 212
3 227 223 236
3 223 212 236
3 225 228 236
3 231 229 237
3 229 232 237
3 233 204 213
3 233 213 205
3 234 208 214
3 235 234 214
3 215 235 214
3 235 215 211
3 216 217 238
3 216 238 218
3 239 238 217
3 220 239 217
3 238 239 222
3 218 238 222
3 239 220 224
3 226 222 239
3 226 239 240
3 224 227 239
3 227 240 239
3 241 228 226
3 241 226 242
3 240 243 226
3 243 242 226
3 242 244 241
3 230 231 245
3 246 232 230
3 246 230 247
3 245 248 230
3 248 247 230
3 247 249 246
3 240 227 236
3 228 241 250
3 228 250 236
3 243 240 250
3 240 236 250
3 241 244 250
3 245 231 237
3 232 246 251
3 232 251 237
3 248 245 251
3 245 237 251
3 246 249 251
3 254 253 252
3 253 255 252
3 254 252 256
3 252 255 256
3 242 243 257
3 242 257 244
3 247 248 258
3 247 258 249
3 261 260 259
3 260 262 259
3 257 243 250
3 257 250 244
3 258 248 251
3 258 251 249
3 261 259 263
3 259 262 263
3 266 265 264
3 265 267 264
3 253 254 268
3 269 255 253
3 269 253 270
3 268 271 253
3 271 270 253
3 270 272 269
3 266 264 273
3 264 267 273
3 268 254 256
3 255 269 274
3 255 274 256
3 271 268 274
3 268 256 274
3 269 272 274
3 260 261 275
3 276 262 260
3 276 260 277
3 275 278 260
3 278 277 260
3 277 279 276
3 275 261 263
3 262 276 280
3 262 280 263
3 278 275 280
3 275 263 280
3 276 279 280
3 283 282 281
3 282 284 281
3 265 266 285
3 265 285 267
3 270 271 286
3 287 272 270
3 287 270 288
3 286 289 270
3 289 288 270
3 288 290 287
3 283 281 291
3 294 291 281
3 294 281 292
3 284 293 281
3 293 292 281
3 293 295 292
3 285 266 273
3 285 273 267
3 286 271 274
3 272 287 296
3 272 296 274
3 289 286 296
3 286 274 296
3 287 290 296
3 294 292 297
3 292 295 297
3 300 299 298
3 299 301 298
3 277 278 302
3 303 279 277
3 303 277 304
3 302 305 277
3 305 304 277
3 304 306 303
3 300 298 307
3 298 301 307
3 302 278 280
3 279 303 308
3 279 308 280
3 305 302 308
3 302 280 308
3 303 306 308
3 282 283 309
3 282 309 284
3 312 311 310
3 311 314 313
3 310 311 313
3 314 316 315
3 313 314 315
3 316 317 315
3 288 289 318
3 319 290 288
3 319 288 320
3 318 321 288
3 321 320 288
3 320 323 322
3 319 320 322
3 323 324 322
3 309 283 291
3 293 284 309
3 293 309 325
3 291 294 309
3 294 325 309
3 293 325 295
3 312 310 326
3 310 313 327
3 326 310 327
3 313 315 328
3 327 313 328
3 315 317 328
3 318 289 296
3 290 319 329
3 290 329 296
3 321 318 329
3 318 296 329
3 319 322 330
3 329 319 330
3 322 324 330
3 325 294 297
3 325 297 295
3 333 332 331
3 300 331 332
3 300 332 299
3 335 334 332
3 334 299 332
3 299 334 301
3 304 305 336
3 304 336 306
3 333 331 337
3 334 335 337
3 334 337 307
3 331 300 337
3 300 307 337
3 334 307 301
3 336 305 308
3 336 308 306
3 311 312 338
3 314 311 338
3 339 314 338
3 316 314 339
3 340 316 339
3 316 340 317
3 343 342 341
3 342 344 341
3 320 321 345
3 323 320 345
3 346 323 345
3 347 324 323
3 347 323 348
3 346 349 323
3 349 348 323
3 348 350 347
3 353 352 351
3 352 354 351
3 338 312 326
3 339 338 326
3 327 339 326
3 340 339 327
3 328 340 327
3 340 328 317
3 343 341 355
3 341 344 355
3 345 321 329
3 346 345 329
3 330 346 329
3 324 347 356
3 324 356 330
3 349 346 356
3 346 330 356
3 347 350 356
3 353 351 357
3 351 354 357
3 360 359 358
3 359 361 358
3 360 358 362
3 365 362 358
3 365 358 363
3 361 364 358
3 364 363 358
3 364 366 363
3 368 365 363
3 367 368 363
3 366 369 367
3 363 366 367
3 332 333 370
3 332 370 335
3 373 372 371
3 372 374 371
3 368 367 375
3 367 369 375
3 370 333 337
3 370 337 335
3 373 371 376
3 371 374 376
3 342 343 377
3 342 377 344
3 348 349 378
3 348 378 350
3 352 353 379
3 352 379 354
3 377 343 355
3 377 355 344
3 378 349 356
3 378 356 350
3 379 353 357
3 379 357 354
3 359 360 380
3 359 380 361
3 380 360 362
3 365 382 380
3 365 380 362
3 382 381 380
3 361 380 364
3 381 364 380
3 383 366 364
3 383 364 384
3 384 364 381
3 384 385 383
3 382 365 386
3 386 365 368
3 387 366 383
3 387 388 366
3 388 369 366
3 391 387 383
3 391 383 389
3 385 390 383
3 390 389 383
3 390 392 389
3 395 394 393
3 394 396 393
3 372 373 397
3 398 374 372
3 398 372 399
3 397 400 372
3 400 399 372
3 399 401 398
3 386 368 375
3 402 386 375
3 402 375 369
3 388 402 369
3 391 389 403
3 389 392 403
3 395 393 404
3 393 396 404
3 397 373 376
3 374 398 405
3 374 405 376
3 400 397 405
3 397 376 405
3 398 401 405
3 408 407 406
3 407 409 406
3 408 406 410
3 406 409 410
3 413 412 411
3 382 411 412
3 382 412 381
3 381 412 414
3 416 415 384
3 416 384 414
3 414 384 381
3 384 415 385
3 413 411 417
3 411 382 386
3 411 386 419
3 411 419 417
3 419 386 418
3 415 388 387
3 416 388 415
3 416 418 388
3 416 419 418
3 390 385 415
3 390 415 420
3 387 391 415
3 391 420 415
3 390 420 392
3 394 395 421
3 394 421 396
3 399 400 422
3 423 401 399
3 423 399 424
3 422 425 399
3 425 424 399
3 424 426 423
3 418 386 402
3 418 402 388
3 420 391 403
3 420 403 392
3 421 395 404
3 421 404 396
3 422 400 405
3 401 423 427
3 401 427 405
3 425 422 427
3 422 405 427
3 423 426 427
3 407 408 428
3 407 428 409
3 428 408 410
3 428 410 409
3 413 430 429
3 412 413 429
3 432 431 414
3 432 414 429
3 429 414 412
3 433 416 414
3 433 414 434
3 431 435 414
3 435 434 414
3 434 436 433
3 417 437 438
3 417 438 413
3 413 438 430
3 419 437 417
3 419 439 437
3 440 431 432
3 440 435 431
3 439 419 433
3 439 433 441
3 433 419 416
3 436 442 441
3 433 436 441
3 445 444 443
3 444 446 443
3 449 448 447
3 448 451 450
3 447 448 450
3 451 452 450
3 455 454 453
3 425 453 454
3 425 454 424
3 424 454 456
3 424 456 457
3 426 424 457
3 438 437 458
3 437 439 459
3 458 437 459
3 439 441 460
3 459 439 460
3 441 442 460
3 445 443 461
3 443 446 461
3 449 447 462
3 447 450 463
3 462 447 463
3 450 452 463
3 455 453 464
3 453 425 427
3 453 427 464
3 464 427 465
3 465 427 426
3 457 465 426
3 468 467 466
3 467 470 469
3 466 467 469
3 470 471 469
3 468 466 472
3 474 472 466
3 474 466 473
3 473 466 469
3 471 475 473
3 469 471 473
3 474 473 476
3 473 475 476
3 429 430 477
3 429 477 432
3 434 435 478
3 434 478 436
3 481 480 479
3 480 482 479
3 483 477 430
3 483 430 484
3 484 430 438
3 477 440 432
3 477 483 440
3 483 485 440
3 435 440 485
3 435 485 486
3 435 486 478
3 486 485 487
3 478 486 442
3 436 478 442
3 490 489 488
3 445 488 489
3 445 489 444
3 492 491 489
3 491 444 489
3 444 491 446
3 449 494 493
3 448 449 493
3 496 495 451
3 496 451 493
3 493 451 448
3 497 452 451
3 497 451 498
3 495 499 451
3 499 498 451
3 498 501 500
3 497 498 500
3 501 502 500
3 454 455 503
3 503 504 481
3 503 481 456
3 503 456 454
3 456 481 479
3 456 479 482
3 456 482 457
3 457 482 505
3 484 438 458
3 506 484 458
3 506 458 507
3 458 459 507
3 486 487 507
3 486 507 460
3 460 507 459
3 486 460 442
3 490 488 508
3 491 492 508
3 491 508 461
3 488 445 508
3 445 461 508
3 491 461 446
3 494 449 462
3 509 494 462
3 495 496 509
3 495 509 463
3 463 509 462
3 452 497 510
3 452 510 463
3 499 495 510
3 495 463 510
3 497 500 511
3 510 497 511
3 500 502 511
3 503 455 464
3 504 503 464
3 504 464 512
3 512 464 465
3 512 465 457
3 505 512 457
3 515 514 513
3 514 516 513
3 468 518 517
3 467 468 517
3 520 519 470
3 520 470 517
3 517 470 467
3 470 519 471
3 515 513 521
3 513 516 521
3 518 468 472
3 522 518 472
3 520 523 519
3 520 472 523
3 520 522 472
3 474 523 472
3 519 523 475
3 471 519 475
3 523 474 476
3 523 476 475
3 526 525 524
3 525 527 524
3 480 481 528
3 480 528 482
3 484 530 529
3 483 484 529
3 524 529 526
3 524 485 529
3 485 483 529
3 485 531 487
3 524 531 485
3 524 532 531
3 524 527 532
3 532 534 533
3 531 532 533
3 490 533 534
3 490 534 489
3 536 535 534
3 535 489 534
3 489 535 492
3 539 538 537
3 494 537 538
3 494 538 493
3 541 540 538
3 540 493 538
3 542 496 493
3 542 493 543
3 540 544 493
3 544 543 493
3 499 542 543
3 499 543 498
3 546 545 543
3 545 498 543
3 501 498 545
3 547 501 545
3 501 547 502
3 550 549 548
3 551 528 549
3 551 549 552
3 528 481 549
3 548 549 504
3 481 504 549
3 528 551 505
3 482 528 505
3 530 484 506
3 553 530 506
3 553 506 554
3 506 507 554
3 487 531 555
3 487 555 507
3 507 555 554
3 531 533 556
3 555 531 556
3 535 536 556
3 535 556 508
3 533 490 556
3 490 508 556
3 535 508 492
3 539 537 557
3 540 541 557
3 540 557 509
3 537 494 557
3 494 509 557
3 496 542 558
3 496 558 509
3 544 540 558
3 540 509 558
3 545 546 558
3 545 558 510
3 542 499 558
3 499 510 558
3 547 545 510
3 511 547 510
3 547 511 502
3 550 548 559
3 551 552 559
3 551 559 512
3 548 504 559
3 504 512 559
3 551 512 505
3 514 515 560
3 514 560 516
3 563 562 561
3 562 564 561
3 517 518 565
3 566 520 517
3 566 517 567
3 565 568 517
3 568 567 517
3 567 569 566
3 560 515 521
3 560 521 516
3 572 571 570
3 571 573 570
3 563 561 574
3 561 564 574
3 577 576 575
3 576 578 575
3 565 518 522
3 520 566 579
3 520 579 522
3 568 565 579
3 565 522 579
3 566 569 579
3 572 570 580
3 570 573 580
3 577 575 581
3 575 578 581
3 526 583 582
3 525 526 582
3 525 582 584
3 527 525 584
3 587 586 585
3 586 588 585
3 529 530 589
3 589 526 529
3 589 590 526
3 590 583 526
3 584 532 527
3 591 532 584
3 593 592 534
3 593 534 591
3 591 534 532
3 534 592 536
3 538 539 594
3 595 541 538
3 595 538 596
3 594 597 538
3 597 596 538
3 544 595 596
3 544 596 543
3 599 598 596
3 598 543 596
3 543 598 546
3 602 601 600
3 601 604 603
3 600 601 603
3 604 605 603
3 606 607 587
3 606 587 550
3 585 549 587
3 549 550 587
3 585 552 549
3 585 608 552
3 585 588 608
3 609 608 588
3 607 606 610
3 609 611 608
3 589 530 553
3 590 589 553
3 590 553 612
3 612 553 554
3 612 554 613
3 554 555 613
3 592 593 613
3 592 613 556
3 556 613 555
3 592 556 536
3 594 539 557
3 541 595 614
3 541 614 557
3 597 594 614
3 594 557 614
3 598 599 614
3 598 614 558
3 595 544 614
3 544 558 614
3 598 558 546
3 602 600 615
3 600 603 616
3 615 600 616
3 603 605 616
3 606 550 559
3 552 608 617
3 552 617 559
3 610 606 617
3 606 559 617
3 608 611 617
3 562 563 618
3 562 618 564
3 567 568 619
3 567 619 569
3 571 572 620
3 571 620 573
3 618 563 574
3 618 574 564
3 576 577 621
3 576 621 578
3 619 568 579
3 619 579 569
3 620 572 580
3 620 580 573
3 621 577 581
3 621 581 578
3 582 583 622
3 582 622 584
3 586 587 623
3 586 623 588
3 624 622 583
3 590 624 583
3 591 584 622
3 591 622 625
3 625 622 624
3 591 625 593
3 596 597 626
3 596 626 599
3 601 602 627
3 604 601 627
3 628 604 627
3 604 628 605
3 623 587 607
3 609 588 623
3 609 623 629
3 607 610 623
3 610 629 623
3 609 629 611
3 624 590 612
3 625 624 612
3 613 625 612
3 625 613 593
3 626 597 614
3 626 614 599
3 627 602 615
3 628 627 615
3 616 628 615
3 628 616 605
3 629 610 617
3 629 617 611
