ply
format ascii 1.0
element vertex 368
property float x
property float y
property float z
property uchar red
property uchar green
property uchar blue
element face 720
property list uchar int vertex_indices
end_header
-9.29950141906738281 -1 -9 150 55 140
-9 -1.45287013053894043 -9 133 38 144
-9 -1 -9.29950141906738281 90 24 70
-9 -1 -8.94964027404785156 137 48 98
-9.296112060546875 -1 8 136 39 61
-9 -1.44353008270263672 8 129 26 62
-9 -1 7.95044755935668945 63 2 9
-9 -1 8.296112060546875 121 32 40
-9.59512138366699219 0 -9 143 68 104
-9 0 -9.59512138366699219 81 29 47
-9 0 -8.82457637786865234 129 59 76
-9.59469509124755859 0 8 129 47 52
-9 0 7.82486963272094727 54 4 4
-9 0 8.59469509124755859 113 39 39
-9.72264957427978516 1 -9 137 81 95
-9 1 -9.72264957427978516 73 34 40
-9 1 -8.68436527252197266 123 70 74
-9.72276973724365234 1 8 122 56 56
-9 1 7.68412923812866211 46 5 5
-9 1 8.72276973724365234 106 46 47
-9.79292583465576172 2 -9 131 94 99
-9 2 -9.79292583465576172 66 39 40
-9 2 -8.528289794921875 116 81 82
-9.79316329956054688 2 8 116 65 65
-9 2 7.52750635147094727 39 7 8
-9 2 8.79316329956054688 100 53 56
-9.83699512481689453 3 -9 126 108 109
-9 3 -9.83699512481689453 59 43 43
-9 3 -8.35548496246337891 111 93 93
-9.83724403381347656 3 8 111 75 75
-9 3 7.35413217544555664 32 8 10
-9 3 8.83724403381347656 94 61 64
-9.86694908142089844 4 -9 122 122 122
-9 4 -9.86694908142089844 54 47 47
-9 4 -8.1649169921875 106 104 104
-9.86717987060546875 4 8 107 85 85
-9 4 7.16296672821044922 27 9 11
-9 4 8.86717987060546875 90 69 71
-9.88846206665039062 5 -9 118 101 102
-9 5 -9.88846206665039062 49 48 48
-9.25397586822509766 5 -8 157 128 130
-9 4.79078769683837891 -8 148 145 145
-9 5 -7.95393514633178711 144 120 120
-9.26469516754150391 5 7 43 21 21
-9 4.77930784225463867 7 27 9 11
-9 5 6.95131063461303711 39 4 4
-9.88866710662841797 5 8 103 96 96
-9 5 8.88866710662841797 86 77 78
-9.90454578399658203 6 -9 115 82 85
-9 6 -9.90454578399658203 46 38 38
-9.67126655578613281 6 -8 154 104 109
-9 6 -7.71757268905639648 142 98 98
-9.67375564575195312 6 7 39 25 25
-9 6 6.7146449089050293 42 8 8
-9.90472507476806641 6 8 100 94 94
-9 6 8.90472507476806641 83 80 80
-9.91694355010986328 7 -9 113 65 75
-9 7 -9.91694355010986328 43 30 31
-9.79208278656005859 7 -8 153 83 95
-9 7 -7.4601597785949707 140 78 80
-9.79322719573974609 7 7 37 29 29
-9 7 6.45723724365234375 44 13 14
-9.91709995269775391 7 8 99 79 79
-9 7 8.91709995269775391 81 67 67
-9.92673301696777344 8 -9 112 51 75
-9 8 -9.92673301696777344 41 23 28
-9.84927463531494141 8 -8 152 64 95
-9 8 -7.17994022369384766 139 60 72
-9.84987545013427734 8 7 36 33 34
-9 8 6.17745113372802734 45 19 23
-9.92686939239501953 8 8 98 65 69
-9 8 8.92686939239501953 80 55 55
-9 8.92673301696777344 -9 95 44 54
-9 8.84927463531494141 -8 139 60 72
-9 8.84987545013427734 7 16 14 14
-9 8.92686939239501953 8 80 55 55
-8.93254661560058594 -1 -9 137 48 98
-8.93363094329833984 -1 8 121 32 40
-8.76496219635009766 0 -9 129 59 76
-8.76536464691162109 0 8 113 39 39
-8.57696342468261719 1 -9 123 70 74
-8.57666492462158203 1 8 106 46 47
-8.36755561828613281 2 -9 116 81 82
-8.36653232574462891 2 8 100 53 56
-8.13554096221923828 3 -9 111 93 93
-8.13376331329345703 3 8 94 61 64
-8 3.53464078903198242 -9 97 79 79
-8 4 -9.41203212738037109 38 32 32
-8 4 -8.91717624664306641 92 88 88
-8 3.52611231803894043 8 79 48 56
-8 4 7.91540956497192383 10 3 4
-8 4 8.41708183288574219 74 55 60
-8 5 -9.6956024169921875 33 33 33
-8.94634914398193359 5 -8 144 120 120
-8 5 -8.72435092926025391 88 78 78
-8.94325160980224609 5 7 23 10 11
-8 5 7.7220149040222168 5 2 3
-8 5 8.69730854034423828 70 61 63
-8 6 -9.79759025573730469 29 25 25
-8.67098426818847656 6 -8 142 98 98
-8 6 -8.51381111145019531 84 63 63
-8.66711807250976562 6 7 19 11 12
-8 6 7.51087570190429688 2 1 1
-8 6 8.79849147796630859 67 66 67
-8 7 -9.84981632232666016 27 19 19
-8.37095546722412109 7 -8 140 78 80
-8 7 -8.28419303894042969 82 50 50
-8.36627388000488281 7 7 17 13 13
-8 7 7.28062057495117188 0 0 0
-8 7 8.8503875732421875 65 55 56
-8 8 -9.88138580322265625 25 14 16
-8.04419040679931641 8 -8 139 60 72
-8 8 -8.03387069702148438 80 39 41
-8.03928375244140625 8 7 16 14 14
-8 8 7.03009986877441406 0 0 0
-8 8 8.88178348541259766 64 46 46
-8 8.88138580322265625 -9 80 39 41
-8 8.88178348541259766 8 64 46 46
-7.8124699592590332 4 -9 92 88 88
-7.80850839614868164 4 8 74 55 60
-7.37524127960205078 5 -9 88 78 78
-7.37007761001586914 5 8 70 61 63
-7 5.7884211540222168 -9 75 69 70
-7 6 -9.26917934417724609 16 14 14
-7 6 -8.95664691925048828 72 55 56
-7 5.77576112747192383 8 57 47 51
-7 6 7.95393562316894531 12 6 7
-7 6 8.28120326995849609 53 52 53
-7 7 -9.68535900115966797 13 10 10
-7 7 -8.73761749267578125 69 44 44
-7 7 7.73431777954101562 14 9 10
-7 7 8.68795299530029297 51 45 46
-7 8 -9.80191707611083984 11 7 7
-7 8 -8.499725341796875 68 34 34
-7 8 7.49600505828857422 15 12 12
-7 8 8.80307579040527344 50 37 38
-7 8.80191707611083984 -9 68 34 34
-7 8.80307579040527344 8 50 37 38
-6.78312969207763672 6 -9 72 55 56
-6.76971244812011719 6 8 53 52 53
-6 6.71837615966796875 -9 62 49 51
-6 7 -9.34271621704101562 2 2 2
-6 7 -8.93850994110107422 59 38 40
-6 6.70485687255859375 8 42 40 41
-6 7 7.93540668487548828 25 16 18
-6 7 8.35380649566650391 40 37 38
-6 8 -9.70897388458251953 1 0 0
-6 8 -8.70553970336914062 58 30 30
-6 8 7.70191144943237305 26 21 21
-6 8 8.71145153045654297 39 30 31
-6 8.70897388458251953 -9 58 30 30
-6 8.71145153045654297 8 39 30 31
-5 6.86642265319824219 -9 53 43 46
-5 7 -9.1988525390625 6 4 4
-5 7 -8.97082710266113281 51 34 37
-5 6.8532414436340332 8 33 30 32
-5 7 7.96787405014038086 35 21 26
-5 7 8.21460628509521484 31 29 30
-5 8 -9.68455600738525391 7 4 4
-5 8 -8.73860740661621094 49 26 27
-5 8 7.73508644104003906 36 27 28
-5 8 8.68736362457275391 29 23 25
-5 8.68455600738525391 -9 49 26 27
-5 8.68736362457275391 8 29 23 25
-4 6.59370088577270508 -9 45 38 41
-4 7 -9.42855548858642578 14 11 12
-4 7 -8.91130161285400391 42 29 33
-4 6.5816192626953125 8 24 21 23
-4 7 7.90845870971679688 44 25 34
-4 7 8.43623733520507812 21 21 21
-4 8 -9.72667121887207031 16 10 11
-4 8 -8.67767620086669922 40 22 24
-4 8 7.67426633834838867 45 32 35
-4 8 8.72869396209716797 20 17 18
-4 8.72667121887207031 -9 40 22 24
-4 8.72869396209716797 8 20 17 18
-3 6.22233486175537109 -9 35 31 33
-3 7 -9.58718204498291016 23 19 20
-3 7 -8.83032894134521484 33 23 27
-3 6.21127557754516602 8 14 11 13
-3 7 7.82753515243530273 53 29 43
-3 7 8.59108448028564453 11 11 11
-3 8 -9.76814460754394531 25 17 18
-3 8 -8.59473800659179688 31 18 20
-3 8 7.59138107299804688 54 37 42
-3 8 8.769561767578125 10 9 9
-3 8.76814460754394531 -9 31 18 20
-3 8.769561767578125 8 10 9 9
-2 6.02076911926269531 -9 24 22 23
-2 7 -9.64056777954101562 34 29 30
-2 7 -8.78641796112060547 21 16 18
-2 6.00994968414306641 8 2 1 2
-2 7 7.7835841178894043 64 33 53
-2 7 8.64355182647705078 0 0 0
-2 8 -9.78555107116699219 36 25 26
-2 8 -8.54973602294921875 20 12 14
-2 8 7.54633903503417969 65 43 51
-2 8 8.78676986694335938 1 0 1
-2 8.78555107116699219 -9 20 12 14
-2 8.78676986694335938 8 1 0 1
-1 6.16522121429443359 -9 11 10 11
-1 7 -9.603912353515625 46 40 42
-1 7 -8.81788349151611328 8 6 7
-1 6.15340566635131836 8 10 8 11
-1 7 7.81489992141723633 76 37 64
-1 7 8.60774135589599609 13 12 13
-1 8 -9.77337646484375 48 34 36
-1 8 -8.58198451995849609 7 4 5
-1 8 7.57843542098999023 77 49 60
-1 8 8.77480506896972656 14 13 14
-1 8.77337646484375 -9 7 4 5
-1 8.77480506896972656 8 14 13 14
0 6.70565271377563477 -9 3 3 3
0 7 -9.35266780853271484 60 52 55
0 7 -8.93572902679443359 6 4 5
0 6.69149541854858398 8 25 20 26
0 7 7.93248844146728516 89 42 76
0 7 8.36391735076904297 28 26 28
0 8 -9.71089076995849609 61 44 48
0 8 -8.70268058776855469 7 4 5
0 8 7.69893789291381836 90 55 70
0 8 8.71343231201171875 29 28 29
0 8.71089076995849609 -9 7 4 5
0 8.71343231201171875 8 29 28 29
0.340858638286590576 7 -9 6 4 5
0.358843117952346802 7 8 28 26 28
1 7.53867053985595703 -9 22 18 20
1 8 -9.47430896759033203 76 56 60
1 8 -8.89308452606201172 24 15 18
1 7.5217738151550293 8 45 40 44
1 8 7.8890070915222168 105 63 80
1 8 8.48371505737304688 46 45 45
1 8.47430896759033203 -9 24 15 18
1 8.48371505737304688 8 46 45 45
1.48809731006622314 8 -9 24 15 18
1.50822818279266357 8 8 46 45 45
5.87410068511962891 8 -9 92 62 66
6 7.81578826904296875 -9 102 86 89
6 8 -9.26626014709472656 140 109 110
6 8 -8.95729637145996094 104 71 73
5.85942506790161133 8 8 112 110 111
6 7.79433822631835938 8 122 99 106
6 8 7.9524078369140625 164 90 96
6 8 8.28820133209228516 123 119 119
6 8.26626014709472656 -9 104 71 73
6 8.28820133209228516 8 123 119 119
6.9682612419128418 5 -9 97 82 88
7 4.89273929595947266 -9 94 70 82
7 5 -9.14888477325439453 139 105 113
7 5 -8.97946262359619141 102 88 93
6.96060609817504883 5 8 118 62 96
7 4.86686611175537109 8 123 48 85
7 5 7.97455310821533203 166 30 79
7 5 8.17830276489257812 126 65 92
6.65114831924438477 6 -9 100 100 100
7 6 -9.65282344818115234 144 128 129
7 6 -8.77441596984863281 109 107 107
6.64333009719848633 6 8 121 80 100
7 6 7.76976442337036133 168 47 78
7 6 8.65768909454345703 129 83 98
6.30556774139404297 7 -9 102 86 89
7 7 -9.78504467010498047 146 138 139
7 7 -8.55126762390136719 111 95 96
6.29754495620727539 7 8 122 99 106
7 7 7.54688167572021484 169 67 80
7 7 8.78686904907226562 130 104 108
7 8 -9.84571552276611328 147 116 116
7 8 -8.30851650238037109 112 79 79
7 8 7.30440998077392578 170 91 93
7 8 8.84662914276123047 131 124 125
7 8.84571552276611328 -9 112 79 79
7 8.84662914276123047 8 131 124 125
7.97417640686035156 -1 -9 38 11 16
8 -1.23085522651672363 -9 26 6 7
8 -1 -9.17936897277832031 83 21 26
8 -1 -8.97432518005371094 40 12 17
7.97143268585205078 -1 8 88 5 7
8 -1.25433146953582764 8 77 3 3
8 -1 7.97158050537109375 134 0 6
8 -1 8.19470787048339844 90 6 7
7.84870195388793945 0 -9 51 18 31
8 0 -9.55828952789306641 95 30 45
8 0 -8.84957695007324219 54 20 32
7.84546422958374023 0 8 99 8 18
8 0 7.84627103805541992 143 0 18
8 0 8.56348133087158203 102 9 17
7.70804738998413086 1 -9 64 28 47
8 1 -9.70613956451416016 106 41 63
8 1 -8.70973777770996094 66 30 48
7.70429754257202148 1 8 108 14 36
8 1 7.70600318908691406 152 1 31
8 1 8.70874691009521484 112 14 29
7.5514988899230957 2 -9 75 40 62
8 2 -9.78403091430664062 116 55 80
8 2 -8.55409812927246094 77 42 62
7.54720783233642578 2 8 114 23 56
8 2 7.55006980895996094 159 3 38
8 2 8.78559970855712891 120 22 44
7.37819576263427734 3 -9 85 54 73
8 3 -9.83164882659912109 125 71 92
8 3 -8.38180351257324219 87 57 74
7.37333440780639648 3 8 119 34 73
8 3 7.37764549255371094 165 7 45
8 3 8.83269405364990234 125 34 61
7.18710565567016602 4 -9 94 70 82
8 4 -9.86349010467529297 132 89 103
8 4 -8.19182682037353516 96 73 84
7.18168163299560547 4 8 123 48 85
8 4 7.18777942657470703 168 16 54
8 4 8.86420154571533203 129 48 73
8 5 -9.88610267639160156 139 109 115
7.98460483551025391 5 -8 49 45 47
8 4.92006301879882812 -8 43 35 39
8 5 -7.98239469528198242 52 49 50
7.98113632202148438 5 7 166 30 79
8 4.90204048156738281 7 168 16 54
8 5 6.97846889495849609 191 1 21
8 5 8.88658428192138672 132 65 83
8 6 -9.90287017822265625 145 131 132
7.77847099304199219 6 -8 57 53 54
8 6 -7.74660778045654297 60 56 57
7.77495431900024414 6 7 168 47 78
8 6 6.7430720329284668 192 7 17
8 6 8.90321063995361328 134 84 94
8 7 -9.91571617126464844 149 144 144
7.55414295196533203 7 -8 59 47 48
8 7 -7.48987817764282227 67 54 54
7.55056142807006836 7 7 169 67 80
8 7 6.48675918579101562 193 19 20
8 7 8.91596412658691406 136 105 108
8 8 -9.92580986022949219 150 121 121
7.31012201309204102 8 -8 61 39 39
8 8 -7.21047687530517578 68 45 45
7.30645418167114258 8 7 170 91 93
8 8 6.20779180526733398 193 36 39
8 8 8.92599582672119141 137 127 127
8 8.92580986022949219 -9 118 85 85
8 8.84473228454589844 -8 68 45 45
8 8.84537410736083984 7 173 90 90
8 8.92599582672119141 8 137 127 127
8.17936897277832031 -1 -9 40 12 17
8.19470787048339844 -1 8 90 6 7
8.55828952789306641 0 -9 54 20 32
8.56348133087158203 0 8 102 9 17
8.70613956451416016 1 -9 66 30 48
8.70874691009521484 1 8 112 14 29
8.78403091430664062 2 -9 77 42 62
8.78559970855712891 2 8 120 22 44
8.83164882659912109 3 -9 87 57 74
8.83269405364990234 3 8 125 34 61
8.86349010467529297 4 -9 96 73 84
8.86420154571533203 4 8 129 48 73
8.88610267639160156 5 -9 104 91 95
8.11539268493652344 5 -8 52 49 50
8.13776493072509766 5 7 170 29 59
8.88658428192138672 5 8 132 65 83
8.90287017822265625 6 -9 111 111 111
8.64750957489013672 6 -8 60 56 57
8.65101242065429688 6 7 172 45 62
8.90321063995361328 6 8 134 84 94
8.91571617126464844 7 -9 117 102 102
8.78307628631591797 7 -8 67 54 54
8.78436660766601562 7 7 173 66 71
8.91596412658691406 7 8 136 105 108
8.92580986022949219 8 -9 118 85 85
8.84473228454589844 8 -8 68 45 45
8.84537410736083984 8 7 173 90 90
8.92599582672119141 8 8 137 127 127
3 2 1 0
3 1 3 0
3 6 5 4
3 5 7 4
3 9 2 0
3 8 9 0
3 3 10 8
3 0 3 8
3 12 6 4
3 11 12 4
3 7 13 11
3 4 7 11
3 15 9 8
3 14 15 8
3 10 16 14
3 8 10 14
3 18 12 11
3 17 18 11
3 13 19 17
3 11 13 17
3 21 15 14
3 20 21 14
3 16 22 20
3 14 16 20
3 24 18 17
3 23 24 17
3 19 25 23
3 17 19 23
3 27 21 20
3 26 27 20
3 22 28 26
3 20 22 26
3 30 24 23
3 29 30 23
3 25 31 29
3 23 25 29
3 33 27 26
3 32 33 26
3 28 34 32
3 26 28 32
3 36 30 29
3 35 36 29
3 31 37 35
3 29 31 35
3 39 33 32
3 38 39 32
3 34 41 40
3 34 40 32
3 32 40 38
3 41 42 40
3 45 44 43
3 44 36 35
3 44 35 43
3 43 35 46
3 37 47 46
3 35 37 46
3 49 39 38
3 48 49 38
3 38 40 48
3 40 50 48
3 42 51 50
3 40 42 50
3 53 45 43
3 52 53 43
3 43 46 52
3 46 54 52
3 47 55 54
3 46 47 54
3 57 49 48
3 56 57 48
3 48 50 56
3 50 58 56
3 51 59 58
3 50 51 58
3 61 53 52
3 60 61 52
3 52 54 60
3 54 62 60
3 55 63 62
3 54 55 62
3 65 57 56
3 64 65 56
3 56 58 64
3 58 66 64
3 59 67 66
3 58 59 66
3 69 61 60
3 68 69 60
3 60 62 68
3 62 70 68
3 63 71 70
3 62 63 70
3 65 64 72
3 64 66 73
3 72 64 73
3 66 67 73
3 69 68 74
3 68 70 75
3 74 68 75
3 70 71 75
3 1 2 76
3 1 76 3
3 5 6 77
3 5 77 7
3 78 76 2
3 9 78 2
3 76 78 10
3 3 76 10
3 79 77 6
3 12 79 6
3 77 79 13
3 7 77 13
3 80 78 9
3 15 80 9
3 78 80 16
3 10 78 16
3 81 79 12
3 18 81 12
3 79 81 19
3 13 79 19
3 82 80 15
3 21 82 15
3 80 82 22
3 16 80 22
3 83 81 18
3 24 83 18
3 81 83 25
3 19 81 25
3 84 82 21
3 27 84 21
3 82 84 28
3 22 82 28
3 85 83 24
3 30 85 24
3 83 85 31
3 25 83 31
3 86 84 27
3 86 27 87
3 87 27 33
3 84 86 88
3 84 88 28
3 28 88 34
3 89 85 30
3 89 30 90
3 90 30 36
3 85 89 91
3 85 91 31
3 31 91 37
3 87 33 92
3 92 33 39
3 41 94 93
3 41 34 94
3 34 88 94
3 41 93 42
3 44 45 95
3 95 36 44
3 95 96 36
3 96 90 36
3 91 97 37
3 97 47 37
3 92 39 98
3 98 39 49
3 100 93 94
3 99 93 100
3 93 99 51
3 42 93 51
3 101 95 45
3 53 101 45
3 96 101 102
3 95 101 96
3 97 103 47
3 103 55 47
3 98 49 104
3 104 49 57
3 106 99 100
3 105 99 106
3 99 105 59
3 51 99 59
3 107 101 53
3 61 107 53
3 102 107 108
3 101 107 102
3 103 109 55
3 109 63 55
3 104 57 110
3 110 57 65
3 112 105 106
3 111 105 112
3 105 111 67
3 59 105 67
3 113 107 61
3 69 113 61
3 108 113 114
3 107 113 108
3 109 115 63
3 115 71 63
3 110 65 72
3 116 110 72
3 111 112 116
3 111 116 73
3 73 116 72
3 111 73 67
3 113 69 74
3 114 113 74
3 114 74 117
3 117 74 75
3 117 75 71
3 115 117 71
3 86 87 118
3 86 118 88
3 89 90 119
3 89 119 91
3 120 118 87
3 92 120 87
3 118 120 94
3 88 118 94
3 121 119 90
3 96 121 90
3 119 121 97
3 91 119 97
3 122 120 92
3 122 92 123
3 123 92 98
3 120 122 124
3 120 124 94
3 94 124 100
3 125 121 96
3 125 96 126
3 126 96 102
3 121 125 127
3 121 127 97
3 97 127 103
3 123 98 128
3 128 98 104
3 124 129 100
3 129 106 100
3 126 102 130
3 130 102 108
3 127 131 103
3 131 109 103
3 128 104 132
3 132 104 110
3 129 133 106
3 133 112 106
3 130 108 134
3 134 108 114
3 131 135 109
3 135 115 109
3 132 110 116
3 136 132 116
3 136 116 112
3 133 136 112
3 134 114 117
3 137 134 117
3 137 117 115
3 135 137 115
3 122 123 138
3 122 138 124
3 125 126 139
3 125 139 127
3 140 138 123
3 140 123 141
3 141 123 128
3 138 140 142
3 138 142 124
3 124 142 129
3 143 139 126
3 143 126 144
3 144 126 130
3 139 143 145
3 139 145 127
3 127 145 131
3 141 128 146
3 146 128 132
3 142 147 129
3 147 133 129
3 144 130 148
3 148 130 134
3 145 149 131
3 149 135 131
3 146 132 136
3 150 146 136
3 150 136 133
3 147 150 133
3 148 134 137
3 151 148 137
3 151 137 135
3 149 151 135
3 141 153 152
3 140 141 152
3 140 152 154
3 142 140 154
3 144 156 155
3 143 144 155
3 143 155 157
3 145 143 157
3 153 141 158
3 158 141 146
3 154 159 142
3 159 147 142
3 156 144 160
3 160 144 148
3 157 161 145
3 161 149 145
3 158 146 150
3 162 158 150
3 162 150 147
3 159 162 147
3 160 148 151
3 163 160 151
3 163 151 149
3 161 163 149
3 153 165 164
3 152 153 164
3 152 164 166
3 154 152 166
3 156 168 167
3 155 156 167
3 155 167 169
3 157 155 169
3 165 153 170
3 170 153 158
3 166 171 154
3 171 159 154
3 168 156 172
3 172 156 160
3 169 173 157
3 173 161 157
3 170 158 162
3 174 170 162
3 174 162 159
3 171 174 159
3 172 160 163
3 175 172 163
3 175 163 161
3 173 175 161
3 165 177 176
3 164 165 176
3 164 176 178
3 166 164 178
3 168 180 179
3 167 168 179
3 167 179 181
3 169 167 181
3 177 165 182
3 182 165 170
3 178 183 166
3 183 171 166
3 180 168 184
3 184 168 172
3 181 185 169
3 185 173 169
3 182 170 174
3 186 182 174
3 186 174 171
3 183 186 171
3 184 172 175
3 187 184 175
3 187 175 173
3 185 187 173
3 177 189 188
3 176 177 188
3 176 188 190
3 178 176 190
3 180 192 191
3 179 180 191
3 179 191 193
3 181 179 193
3 189 177 194
3 194 177 182
3 190 195 178
3 195 183 178
3 192 180 196
3 196 180 184
3 193 197 181
3 197 185 181
3 194 182 186
3 198 194 186
3 198 186 183
3 195 198 183
3 196 184 187
3 199 196 187
3 199 187 185
3 197 199 185
3 189 201 200
3 188 189 200
3 188 200 202
3 190 188 202
3 192 204 203
3 191 192 203
3 191 203 205
3 193 191 205
3 201 189 206
3 206 189 194
3 202 207 190
3 207 195 190
3 204 192 208
3 208 192 196
3 205 209 193
3 209 197 193
3 206 194 198
3 210 206 198
3 210 198 195
3 207 210 195
3 208 196 199
3 211 208 199
3 211 199 197
3 209 211 197
3 201 213 212
3 200 201 212
3 200 212 214
3 202 200 214
3 204 216 215
3 203 204 215
3 203 215 217
3 205 203 217
3 213 201 218
3 218 201 206
3 214 219 202
3 219 207 202
3 216 204 220
3 220 204 208
3 217 221 205
3 221 209 205
3 218 206 210
3 222 218 210
3 222 210 207
3 219 222 207
3 220 208 211
3 223 220 211
3 223 211 209
3 221 223 209
3 212 213 224
3 212 224 214
3 215 216 225
3 215 225 217
3 226 224 213
3 226 213 227
3 227 213 218
3 224 226 228
3 224 228 214
3 214 228 219
3 229 225 216
3 229 216 230
3 230 216 220
3 225 229 231
3 225 231 217
3 217 231 221
3 227 218 222
3 232 227 222
3 232 222 219
3 228 232 219
3 230 220 223
3 233 230 223
3 233 223 221
3 231 233 221
3 226 227 234
3 226 234 228
3 229 230 235
3 229 235 231
3 234 227 232
3 234 232 228
3 235 230 233
3 235 233 231
3 238 237 236
3 237 239 236
3 242 241 240
3 241 243 240
3 238 236 244
3 236 239 244
3 242 240 245
3 240 243 245
3 248 247 246
3 247 249 246
3 252 251 250
3 251 253 250
3 255 248 246
3 254 255 246
3 249 256 254
3 246 249 254
3 258 252 250
3 257 258 250
3 253 259 257
3 250 253 257
3 261 255 254
3 260 261 254
3 256 262 260
3 254 256 260
3 264 258 257
3 263 264 257
3 259 265 263
3 257 259 263
3 260 237 238
3 260 238 261
3 261 238 266
3 237 260 262
3 237 262 239
3 239 262 267
3 263 241 242
3 263 242 264
3 264 242 268
3 241 263 265
3 241 265 243
3 243 265 269
3 266 238 244
3 270 266 244
3 270 244 239
3 267 270 239
3 268 242 245
3 271 268 245
3 271 245 243
3 269 271 243
3 274 273 272
3 273 275 272
3 278 277 276
3 277 279 276
3 281 274 272
3 280 281 272
3 275 282 280
3 272 275 280
3 284 278 276
3 283 284 276
3 279 285 283
3 276 279 283
3 287 281 280
3 286 287 280
3 282 288 286
3 280 282 286
3 290 284 283
3 289 290 283
3 285 291 289
3 283 285 289
3 293 287 286
3 292 293 286
3 288 294 292
3 286 288 292
3 296 290 289
3 295 296 289
3 291 297 295
3 289 291 295
3 299 293 292
3 298 299 292
3 294 300 298
3 292 294 298
3 302 296 295
3 301 302 295
3 297 303 301
3 295 297 301
3 305 299 298
3 304 305 298
3 300 306 304
3 298 300 304
3 308 302 301
3 307 308 301
3 303 309 307
3 301 303 307
3 304 247 248
3 304 248 305
3 305 248 310
3 247 311 249
3 304 311 247
3 304 312 311
3 304 306 312
3 312 313 311
3 316 315 314
3 307 251 252
3 308 307 252
3 308 252 314
3 308 314 315
3 251 307 309
3 251 309 253
3 253 309 317
3 310 248 318
3 318 248 255
3 319 249 311
3 256 249 319
3 313 320 319
3 311 313 319
3 322 316 314
3 321 322 314
3 314 258 321
3 252 258 314
3 317 323 253
3 323 259 253
3 318 255 324
3 324 255 261
3 325 256 319
3 262 256 325
3 320 326 325
3 319 320 325
3 328 322 321
3 327 328 321
3 321 264 327
3 258 264 321
3 323 329 259
3 329 265 259
3 324 261 330
3 330 261 266
3 331 262 325
3 267 262 331
3 326 332 331
3 325 326 331
3 334 328 327
3 333 334 327
3 327 268 333
3 264 268 327
3 329 335 265
3 335 269 265
3 330 266 270
3 336 330 270
3 267 331 337
3 267 337 270
3 270 337 336
3 331 332 337
3 334 333 338
3 333 268 271
3 333 271 338
3 338 271 339
3 339 271 269
3 335 339 269
3 273 274 340
3 273 340 275
3 277 278 341
3 277 341 279
3 342 340 274
3 281 342 274
3 340 342 282
3 275 340 282
3 343 341 278
3 284 343 278
3 341 343 285
3 279 341 285
3 344 342 281
3 287 344 281
3 342 344 288
3 282 342 288
3 345 343 284
3 290 345 284
3 343 345 291
3 285 343 291
3 346 344 287
3 293 346 287
3 344 346 294
3 288 344 294
3 347 345 290
3 296 347 290
3 345 347 297
3 291 345 297
3 348 346 293
3 299 348 293
3 346 348 300
3 294 346 300
3 349 347 296
3 302 349 296
3 347 349 303
3 297 347 303
3 350 348 299
3 305 350 299
3 348 350 306
3 300 348 306
3 351 349 302
3 308 351 302
3 349 351 309
3 303 349 309
3 352 350 305
3 310 352 305
3 312 306 350
3 312 350 353
3 353 350 352
3 312 353 313
3 315 316 354
3 308 315 354
3 308 354 351
3 351 354 355
3 351 355 317
3 309 351 317
3 356 352 310
3 318 356 310
3 352 356 353
3 353 356 357
3 353 357 320
3 313 353 320
3 358 354 316
3 322 358 316
3 354 358 355
3 355 358 359
3 355 359 323
3 317 355 323
3 360 356 318
3 324 360 318
3 356 360 357
3 357 360 361
3 357 361 326
3 320 357 326
3 362 358 322
3 328 362 322
3 358 362 359
3 359 362 363
3 359 363 329
3 323 359 329
3 364 360 324
3 330 364 324
3 360 364 361
3 361 364 365
3 361 365 332
3 326 361 332
3 366 362 328
3 334 366 328
3 362 366 363
3 363 366 367
3 363 367 335
3 329 363 335
3 364 330 336
3 365 364 336
3 337 365 336
3 365 337 332
3 366 334 338
3 367 366 338
3 339 367 338
3 367 339 335
