ply
format ascii 1.0
element vertex 120
property float x
property float y
property float z
property uchar red
property uchar green
property uchar blue
element face 248
property list uchar int vertex_indices
end_header
-4.03173923492431641 8 -5 40 35 33
-4 7.80578088760375977 -5 118 68 39
-4 8 -5.5793299674987793 39 59 18
-4.15314912796020508 8 -4 69 73 72
-4 7.67227792739868164 -4 115 46 42
-4 8 -3.76822090148925781 43 57 19
-4.13225412368774414 8 -1 86 107 170
-4 7.77091169357299805 -1 15 20 8
-4 8 -1.04569196701049805 159 187 118
-4 8 -0.956657826900482178 75 81 85
-4.51189994812011719 8 1 100 139 186
-4 7.86194562911987305 1 28 36 25
-4 8 0.924237966537475586 95 189 196
-4 8 1.63400065898895264 41 100 67
-4 8.35976028442382812 -5 52 68 22
-4 8.44881248474121094 -4 43 57 19
-4 8.52288722991943359 -1 75 81 85
-4 8.66475582122802734 1 41 100 67
-3 7.96538829803466797 -5 235 154 144
-3 8 -5.46955537796020508 7 17 11
-3 7.62831974029541016 -4 65 42 27
-3.47125768661499023 8 -3 12 27 10
-3 7.82274675369262695 -3 52 150 66
-3.06989359855651855 8 -2 159 187 118
-3 7.63885164260864258 -2 20 32 35
-3.90505003929138184 8 -1 75 81 85
-3 8 -1.85862314701080322 46 38 12
-3.08314895629882812 8 0 95 189 196
-3 7.55333995819091797 0 22 19 6
-3 8 -0.173556223511695862 53 154 61
-3.91032981872558594 8 1 41 100 67
-3 8 0.0982691273093223572 45 51 61
-3.68082880973815918 8 2 83 165 193
-3 7.83964920043945312 2 0 1 0
-3 8 1.89182353019714355 121 68 61
-3.14130401611328125 8 3 90 62 48
-3 7.82053947448730469 3 35 118 41
-3 8 3.1104743480682373 65 210 204
-3 8.35916614532470703 -5 18 43 16
-3 8.64350318908691406 -4 82 28 20
-3 8.70635032653808594 -3 82 51 20
-3 8.63235950469970703 -2 46 38 12
-3 8.68689060211181641 0 45 51 61
-3 8.70945167541503906 2 36 119 47
-3 8.21865367889404297 3 65 210 204
-2.63703274726867676 8 -5 18 43 16
-2 7.97912359237670898 -4 255 140 125
-2 8 -4.34853458404541016 103 34 27
-2.64397835731506348 8 -3 82 51 20
-2 8 -3.89209890365600586 51 112 61
-2.91667342185974121 8 -2 46 38 12
-2.87487149238586426 8 0 45 51 61
-2.12181258201599121 8 1 121 68 61
-2 7.79744768142700195 1 103 129 29
-2 8 0.845992028713226318 83 228 62
-2.90090608596801758 8 2 36 119 47
-2 8 1.11172854900360107 20 21 32
-2 7.94707727432250977 3 73 255 113
-2 8 2.94213008880615234 77 255 95
-2 8 3.80087590217590332 39 191 62
-2 8.3448028564453125 -4 51 112 61
-2 8.73630523681640625 1 20 21 32
-2 8.57691192626953125 3 39 191 62
-1.97887861728668213 8 -4 51 112 61
-1.15114748477935791 8 -2 42 198 114
-1 7.83893489837646484 -2 255 214 62
-1 8 -2.15911245346069336 220 255 57
-1.44341719150543213 8 -1 59 64 12
-1 7.86939668655395508 -1 199 255 52
-1 8 -0.785796880722045898 37 78 90
-1.86721122264862061 8 1 20 21 32
-1.05987346172332764 8 2 77 255 95
-1 7.94659948348999023 2 255 117 71
-1 8 1.92804908752441406 255 136 78
-1 7.69046163558959961 3 1 1 2
-1.17902135848999023 8 4 52 255 242
-1 7.95511579513549805 4 100 182 18
-1 8 4.02075815200805664 29 255 98
-1 8.77113056182861328 -2 50 122 113
-1 8.78209018707275391 -1 37 78 90
-1 8.58571338653564453 2 2 1 3
-1 8.56498241424560547 3 80 193 21
-1 8.06883907318115234 4 29 255 98
-0.871590673923492432 8 -2 50 122 113
-0.837379872798919678 8 -1 37 78 90
-0.206166237592697144 8 0 247 119 72
0 7.88288593292236328 0 255 217 24
0 8 -0.156134083867073059 171 255 27
-0.149397820234298706 8 1 255 136 78
0 7.58196401596069336 1 51 181 31
0 7.35317611694335938 2 30 32 88
-0.938923358917236328 8 3 80 193 21
0 8 2.1006462574005127 27 19 50
0 7.97261381149291992 4 255 212 32
0 8 3.9640805721282959 59 222 47
-0.10519331693649292 8 5 47 50 82
0 7.89556884765625 5 60 255 10
0 8 5.05057859420776367 141 255 82
0 8.77372646331787109 0 29 84 117
0 8.76206684112548828 1 27 28 80
0 8.69081878662109375 2 27 19 50
0 8.42656326293945312 4 85 255 11
0 8.290771484375 5 141 255 82
0.210010632872581482 8 0 29 84 117
0.121699981391429901 8 1 27 28 80
1 7.98859357833862305 2 255 43 13
1 8 1.98763656616210938 255 196 29
0.978769540786743164 8 3 59 222 47
1 7.90367841720581055 3 51 28 116
1 7.81434917449951172 4 53 21 86
1 7.94301462173461914 5 197 255 1
1 8 5.01950407028198242 53 255 78
1 8.22441959381103516 2 48 29 120
1 8.30219936370849609 3 53 22 80
1 8.56846523284912109 4 243 255 2
1 8.16151618957519531 5 53 255 78
1.01513683795928955 8 2 48 29 120
1.13866496086120605 8 3 53 22 80
1.79672002792358398 8 4 243 255 2
1.4387131929397583 8 5 53 255 78
3 2 1 0
3 1 4 3
3 0 1 3
3 4 5 3
3 8 7 6
3 7 9 6
3 12 11 10
3 11 13 10
3 2 0 14
3 0 3 15
3 14 0 15
3 3 5 15
3 8 6 16
3 6 9 16
3 12 10 17
3 10 13 17
3 2 19 18
3 1 2 18
3 18 20 1
3 1 20 4
3 21 5 4
3 21 4 22
3 22 4 20
3 22 24 23
3 21 22 23
3 8 23 24
3 8 24 7
3 26 25 24
3 25 7 24
3 27 9 7
3 27 7 28
3 25 29 7
3 29 28 7
3 12 27 28
3 12 28 11
3 31 30 28
3 30 11 28
3 32 13 11
3 32 11 33
3 30 34 11
3 34 33 11
3 33 36 35
3 32 33 35
3 36 37 35
3 19 2 14
3 38 19 14
3 38 14 39
3 14 15 39
3 5 21 40
3 5 40 15
3 15 40 39
3 21 23 41
3 40 21 41
3 25 26 41
3 25 41 16
3 23 8 41
3 8 16 41
3 9 27 42
3 9 42 16
3 29 25 42
3 25 16 42
3 30 31 42
3 30 42 17
3 27 12 42
3 12 17 42
3 13 32 43
3 13 43 17
3 34 30 43
3 30 17 43
3 32 35 44
3 43 32 44
3 35 37 44
3 18 19 45
3 45 47 46
3 45 46 18
3 18 46 20
3 49 48 22
3 49 22 46
3 46 22 20
3 24 22 48
3 50 24 48
3 24 50 26
3 28 29 51
3 52 31 28
3 52 28 53
3 51 54 28
3 54 53 28
3 34 52 53
3 34 53 33
3 56 55 53
3 55 33 53
3 55 58 57
3 55 57 33
3 33 57 36
3 36 57 59
3 37 36 59
3 45 19 38
3 47 45 38
3 47 38 60
3 60 38 39
3 48 49 60
3 48 60 40
3 40 60 39
3 50 48 40
3 41 50 40
3 50 41 26
3 51 29 42
3 31 52 61
3 31 61 42
3 54 51 61
3 51 42 61
3 55 56 61
3 55 61 43
3 52 34 61
3 34 43 61
3 58 55 43
3 58 43 62
3 62 43 44
3 62 44 37
3 59 62 37
3 46 47 63
3 46 63 49
3 66 65 64
3 65 68 67
3 64 65 67
3 68 69 67
3 53 54 70
3 71 56 53
3 71 53 72
3 70 73 53
3 73 72 53
3 58 71 72
3 58 72 57
3 57 72 74
3 75 59 57
3 75 57 76
3 76 57 74
3 76 77 75
3 63 47 60
3 63 60 49
3 66 64 78
3 64 67 79
3 78 64 79
3 67 69 79
3 70 54 61
3 56 71 80
3 56 80 61
3 73 70 80
3 70 61 80
3 71 58 62
3 71 62 80
3 80 62 81
3 59 75 82
3 59 82 62
3 62 82 81
3 75 77 82
3 65 66 83
3 68 65 83
3 84 68 83
3 85 69 68
3 85 68 86
3 84 87 68
3 87 86 68
3 86 89 88
3 85 86 88
3 73 88 89
3 73 89 72
3 72 89 90
3 92 91 74
3 92 74 90
3 90 74 72
3 91 94 93
3 91 93 74
3 74 93 76
3 95 77 76
3 95 76 96
3 96 76 93
3 96 97 95
3 83 66 78
3 84 83 78
3 79 84 78
3 69 85 98
3 69 98 79
3 87 84 98
3 84 79 98
3 85 88 99
3 98 85 99
3 88 73 80
3 88 80 99
3 99 80 100
3 91 92 100
3 91 100 81
3 81 100 80
3 94 91 81
3 94 81 101
3 101 81 82
3 77 95 102
3 77 102 82
3 82 102 101
3 95 97 102
3 86 87 103
3 89 86 103
3 104 89 103
3 104 106 105
3 104 105 89
3 89 105 90
3 107 92 90
3 107 90 108
3 108 90 105
3 94 107 108
3 94 108 93
3 93 108 109
3 109 110 93
3 93 110 96
3 96 110 111
3 97 96 111
3 103 87 98
3 104 103 98
3 99 104 98
3 106 104 99
3 106 99 112
3 112 99 100
3 92 107 113
3 92 113 100
3 100 113 112
3 107 94 101
3 107 101 113
3 113 101 114
3 114 101 115
3 101 102 115
3 115 102 97
3 111 115 97
3 105 106 116
3 108 105 116
3 117 108 116
3 109 108 117
3 118 109 117
3 110 109 118
3 119 110 118
3 110 119 111
3 116 106 112
3 117 116 112
3 113 117 112
3 118 117 113
3 114 118 113
3 119 118 114
3 115 119 114
3 119 115 111
