ply
format ascii 1.0
element vertex 650
property float x
property float y
property float z
property uchar red
property uchar green
property uchar blue
element face 1296
property list uchar int vertex_indices
end_header
-6.07455778121948242 4 -1 1 1 1
-6 3.44249439239501953 -1 0 0 0
-6 4 -1.39289093017578125 1 1 1
-6.06732273101806641 4 0 1 1 1
-6 3.49678397178649902 0 0 0 0
-6 4 0.329084515571594238 1 1 1
-6.01544284820556641 5 -2 2 2 2
-6 4.88136482238769531 -2 1 1 1
-6 5 -2.03941464424133301 1 1 1
-6.20423460006713867 5 -1 2 2 2
-6.19696569442749023 5 0 2 2 2
-6 5 0.968814849853515625 2 2 2
-6.14096593856811523 6 -2 2 2 2
-6 6 -2.36137771606445312 2 2 2
-6.33082056045532227 6 -1 2 2 2
-6.32349109649658203 6 0 3 3 3
-6.11922454833984375 6 1 3 3 3
-6 5.05018138885498047 1 2 2 2
-6 6 1.29409432411193848 3 3 3
-6.26313018798828125 7 -2 3 3 3
-6 7 -2.677581787109375 3 3 3
-6.45471334457397461 7 -1 3 3 3
-6.4472966194152832 7 0 3 3 3
-6.24125909805297852 7 1 4 4 4
-6 7 1.59769916534423828 4 3 4
-6.38229560852050781 8 -2 4 4 4
-6 8 -2.98890829086303711 4 4 4
-6.576263427734375 8 -1 4 4 4
-6.56873273849487305 8 0 4 4 4
-6.36022329330444336 8 1 5 4 4
-6 8 1.89633047580718994 4 4 4
-6 8.90370273590087891 -2 4 4 4
-6 8.93251132965087891 -1 4 4 4
-6 8.93174171447753906 0 4 4 4
-6 8.89862060546875 1 4 4 4
-5.16952991485595703 -1 -1 1 1 1
-5 -1.87573301792144775 -1 1 1 1
-5 -1 -1.70851290225982666 1 1 1
-5.16035175323486328 -1 0 1 1 1
-5 -1.82808399200439453 0 1 1 1
-5 -1 0.621657729148864746 1 1 1
-5.11938238143920898 0 -2 1 1 1
-5 -0.632057070732116699 -2 1 1 1
-5 0 -2.24173164367675781 1 1 1
-5.35955953598022461 0 -1 0 0 0
-5.35027551651000977 0 0 0 0 0
-5.09191656112670898 0 1 0 0 0
-5 -0.486225724220275879 1 1 1 1
-5 0 1.17914056777954102 0 0 0
-5.30385780334472656 1 -2 0 0 0
-5 1 -2.61745691299438477 0 0 0
-5.54724311828613281 1 -1 0 0 0
-5.53780317306518555 1 0 0 0 0
-5.27613162994384766 1 1 0 0 0
-5 1 1.5399925708770752 0 0 0
-5.48556423187255859 2 -2 0 0 0
-5 2 -2.99029827117919922 0 0 0
-5.73343896865844727 2 -1 0 0 0
-5.72379064559936523 2 0 0 0 0
-5.45743989944458008 2 1 0 0 0
-5 2 1.89766323566436768 0 0 0
-5.16895389556884766 3 -3 0 0 0
-5 2.02667808532714844 -3 0 0 0
-5 3 -3.22462844848632812 0 0 0
-5.66526937484741211 3 -2 0 0 0
-5.91896581649780273 3 -1 0 0 0
-5.90905427932739258 3 0 0 0 0
-5.63660478591918945 3 1 1 1 1
-5.12310218811035156 3 2 1 1 1
-5 2.29186654090881348 2 0 0 0
-5 3 2.15951657295227051 1 1 1
-5.33889341354370117 4 -3 1 1 1
-5 4 -3.45127558708190918 0 0 0
-5.84369325637817383 4 -2 1 1 1
-5.81434154510498047 4 1 1 1 1
-5.29260349273681641 4 2 2 2 2
-5 4 2.3796989917755127 1 1 1
-5.50585699081420898 5 -3 1 1 1
-5 5 -3.67468762397766113 1 1 1
-5.99132394790649414 5 1 2 2 2
-5.45893526077270508 5 2 2 2 2
-5 5 2.59640836715698242 2 2 2
-5.67040586471557617 6 -3 2 2 2
-5 6 -3.89561748504638672 2 2 2
-5.62265682220458984 6 2 3 3 3
-5 6 2.81037235260009766 3 3 3
-5.07989788055419922 7 -4 3 3 3
-5 6.48141098022460938 -4 2 2 2
-5 7 -4.07876729965209961 3 3 3
-5.83304691314697266 7 -3 3 3 3
-5.7842707633972168 7 2 4 4 4
-5.01593303680419922 7 3 4 4 4
-5 6.89679622650146484 3 3 3 3
-5 7 3.01541376113891602 4 4 4
-5.22909641265869141 8 -4 4 4 4
-5 8 -4.22583723068237305 4 4 4
-5.99423742294311523 8 -3 4 4 4
-5.94423055648803711 8 2 5 4 5
-5.1647486686706543 8 3 5 4 5
-5 8 3.15934872627258301 5 4 5
-5 8.81928634643554688 -4 4 3 4
-5 8.94780731201171875 -3 4 3 4
-5 8.96325206756591797 -2 4 4 4
-5 8.96755313873291016 -1 4 4 4
-5 8.96741199493408203 0 4 4 4
-5 8.9626617431640625 1 4 4 4
-5 8.94552707672119141 2 4 4 5
-5 8.76613998413085938 3 5 4 5
-4.11698389053344727 -5 -1 2 2 3
-4 -5.40338516235351562 -1 3 3 3
-4 -5 -1.36018061637878418 3 3 3
-4.10458803176879883 -5 0 2 2 2
-4 -5.36057472229003906 0 2 3 3
-4 -5 0.298758983612060547 2 2 2
-4.07604408264160156 -4 -2 2 2 2
-4 -4.26834726333618164 -2 3 3 3
-4 -4 -2.11360979080200195 2 3 3
-4.40101480484008789 -4 -1 2 2 2
-4.38843870162963867 -4 0 2 2 2
-4.03893041610717773 -4 1 2 2 2
-4 -4.13730192184448242 1 2 2 2
-4 -4 1.05599915981292725 2 2 2
-4.35270500183105469 -3 -2 2 2 2
-4 -3 -2.5279541015625 2 2 2
-4.68329811096191406 -3 -1 2 2 2
-4.67045450210571289 -3 0 2 2 2
-4.31511402130126953 -3 1 1 1 1
-4 -3 1.45406973361968994 2 2 2
-4.62706184387207031 -2 -2 2 2 2
-4 -2 -2.94049978256225586 2 2 2
-4.96553802490234375 -2 -1 1 1 1
-4.95233440399169922 -2 0 1 1 1
-4.58875226974487305 -2 1 1 1 1
-4 -2 1.84991538524627686 1 1 1
-4.22378444671630859 -1 -3 1 1 1
-4 -1.85293722152709961 -3 2 2 2
-4 -1 -3.21954917907714844 1 1 1
-4.90065526962280273 -1 -2 1 1 1
-4.86137104034423828 -1 1 1 1 1
-4.16158914566040039 -1 2 0 0 0
-4 -1.61527335643768311 2 1 1 1
-4 -1 2.15457844734191895 0 0 0
-4.48212766647338867 0 -3 1 1 1
-4 0 -3.47295355796813965 1 1 1
-4.41901683807373047 0 2 0 0 0
-4 0 2.4007413387298584 0 0 0
-4.73824977874755859 1 -3 0 0 0
-4 1 -3.72412490844726562 0 0 0
-4.67386674880981445 1 2 0 0 0
-4 1 2.64431643486022949 0 0 0
-4.99334907531738281 2 -3 0 0 0
-4 2 -3.97423624992370605 0 0 0
-4.92731952667236328 2 2 0 0 0
-4 2 2.8864283561706543 0 0 0
-4.21055030822753906 3 -4 0 0 0
-4 2.10522127151489258 -4 0 0 0
-4 3 -4.1531834602355957 0 0 0
-4.12357568740844727 3 3 1 1 1
-4 2.47559213638305664 3 0 0 0
-4 3 3.0882725715637207 1 1 1
-4.44136571884155273 4 -4 0 0 0
-4 4 -4.32054948806762695 0 0 0
-4.35331583023071289 4 3 2 2 2
-4 4 3.25191760063171387 2 2 2
-4.66884469985961914 5 -4 1 1 1
-4 5 -4.48489618301391602 1 1 1
-4.57933616638183594 5 3 2 2 2
-4 5 3.41230225563049316 2 2 2
-4.8937530517578125 6 -4 2 2 2
-4 6 -4.6467738151550293 2 2 2
-4.80239582061767578 6 3 3 3 3
-4 6 3.56996488571166992 3 3 3
-4 7 -4.80668210983276367 3 2 3
-4 7 3.72539067268371582 4 4 4
-4 8 -4.96506881713867188 4 3 4
-4 8 3.8790135383605957 4 4 5
-4 8.94715499877929688 -4 3 3 4
-4 8.96748542785644531 -3 3 3 4
-4 8.97321033477783203 -2 3 3 4
-4 8.97508144378662109 -1 4 4 4
-4 8.97501754760742188 0 4 4 4
-4 8.97296333312988281 1 4 4 4
-4 8.96675682067871094 2 4 4 5
-4 8.94380569458007812 3 4 4 5
-3.26608967781066895 -7 -1 3 3 3
-3 -7.57006120681762695 -1 3 3 3
-3 -7 -1.5328831672668457 3 3 3
-3.24695014953613281 -7 0 2 3 3
-3 -7.5290074348449707 0 2 3 3
-3 -7 0.458862066268920898 2 3 3
-3.22357273101806641 -6 -2 3 3 3
-3 -6.48985958099365234 -2 3 3 3
-3 -6 -2.21723055839538574 3 3 3
-3.72710108757019043 -6 -1 3 3 3
-3.70754885673522949 -6 0 2 3 3
-3.16628503799438477 -6 1 2 2 2
-3 -6.36423397064208984 1 2 3 3
-3 -6 1.15559530258178711 2 3 2
-3.67311978340148926 -5 -2 3 3 3
-3 -5 -2.6539456844329834 3 3 3
-3.61469221115112305 -5 1 2 2 2
-3 -5 1.57501506805419922 2 2 2
-3.08878326416015625 -4 -3 2 3 3
-3 -4.20373344421386719 -3 3 3 3
-3 -4 -3.05666065216064453 2 3 3
-3 -4 1.9938887357711792 2 2 2
-3.51478838920593262 -3 -3 2 2 2
-3 -3 -3.32783246040344238 2 2 2
-3.41824698448181152 -3 2 1 1 1
-3 -3.98510408401489258 2 2 2 2
-3 -3 2.25981783866882324 1 1 1
-3.93884754180908203 -2 -3 2 2 2
-3 -2 -3.59656620025634766 2 2 2
-3.84011125564575195 -2 2 1 1 1
-3 -2 2.52066898345947266 1 1 1
-3 -1 -3.86436343193054199 1 2 1
-3 -1 2.78012442588806152 0 0 0
-3.19227981567382812 0 -4 1 1 1
-3 -0.488333970308303833 -4 1 2 1
-3 0 -4.09100675582885742 1 1 1
-3.05892562866210938 0 3 0 0 0
-3 -0.149542063474655151 3 0 0 0
-3 0 3.02740097045898438 0 0 0
-3.57808232307434082 1 -4 0 0 0
-3 1 -4.27259254455566406 0 1 1
-3.44264769554138184 1 3 0 0 0
-3 1 3.20505833625793457 0 0 0
-3.96068096160888672 2 -4 0 0 0
-3 2 -4.4512786865234375 0 0 0
-3.82243108749389648 2 3 0 0 0
-3 2 3.37952065467834473 0 0 0
-3 3 -4.62781810760498047 0 0 0
-3 3 3.55151891708374023 1 1 1
-3 4 -4.80291509628295898 0 0 0
-3 4 3.72173285484313965 2 2 2
-3 5 -4.97723197937011719 1 1 1
-3 5 3.89079713821411133 2 2 2
-3.28681850433349609 6 -5 2 2 2
-3 5.13345766067504883 -5 1 1 1
-3 6 -5.10759925842285156 2 2 2
-3.11491179466247559 6 4 3 3 3
-3 5.6531987190246582 4 2 3 3
-3 6 4.04256153106689453 3 3 3
-3.61103391647338867 7 -5 3 2 3
-3 7 -5.22817802429199219 2 2 3
-3.43678903579711914 7 4 4 4 4
-3 7 4.16103982925415039 4 4 4
-3.92996382713317871 8 -5 4 3 4
-3 8 -5.34566879272460938 3 3 4
-3.75274467468261719 8 4 4 4 5
-3 8 4.27624750137329102 4 4 5
-3 8.89598751068115234 -5 3 3 3
-3 8.96267032623291016 -4 3 3 4
-3 8.97308921813964844 -3 3 3 4
-3 8.97652244567871094 -2 3 4 4
-3 8.97767734527587891 -1 3 4 4
-3 8.97763729095458984 0 4 4 4
-3 8.97637081146240234 1 4 4 4
-3 8.97266674041748047 2 4 4 5
-3 8.96119785308837891 3 4 5 5
-3 8.87558746337890625 4 4 4 5
-2.57357215881347656 -8 -1 3 3 3
-2 -8.56570720672607422 -1 2 3 4
-2 -8 -1.54067957401275635 3 4 4
-2.53285408020019531 -8 0 2 3 3
-2 -8.52554798126220703 0 2 3 3
-2 -8 0.466089218854904175 2 3 3
-2.50513219833374023 -7 -2 3 3 3
-2 -7.50938510894775391 -2 3 4 4
-2 -7 -2.23105430603027344 3 3 3
-2.38327217102050781 -7 1 2 3 3
-2 -7.38649845123291016 1 2 3 3
-2 -7 1.16887998580932617 2 3 2
-2 -6 -2.67831158638000488 3 3 3
-2 -6 1.59839963912963867 2 3 2
-2.2622983455657959 -5 -3 3 3 3
-2 -5.27691841125488281 -3 3 3 3
-2 -5 -3.07883572578430176 2 3 3
-2.06037712097167969 -5 2 2 2 2
-2 -5.06374120712280273 2 2 2 2
-2 -5 2.01771163940429688 2 2 2
-2 -4 -3.35695433616638184 2 3 2
-2.98652267456054688 -4 2 2 2 2
-2 -4 2.28810811042785645 2 2 2
-2 -3 -3.63304328918457031 2 2 2
-2 -3 2.55603885650634766 1 1 1
-2 -2 -3.90875387191772461 2 2 2
-2 -2 2.82308340072631836 1 1 1
-2.5706017017364502 -1 -4 1 2 1
-2 -1.66477549076080322 -4 2 2 2
-2 -1 -4.12702846527099609 1 2 1
-2.28635311126708984 -1 3 0 0 0
-2 -1.33358502388000488 3 1 1 1
-2 -1 3.06267166137695312 0 0 0
-2 0 -4.31388998031616211 1 1 1
-2 0 3.24541187286376953 0 0 0
-2 1 -4.49818277359008789 0 1 0
-2 1 3.42525482177734375 0 0 0
-2 2 -4.68074321746826172 0 0 0
-2 2 3.60300898551940918 0 0 0
-2 3 -4.86236667633056641 0 0 0
-2 3 3.77943778038024902 1 1 1
-2.17733597755432129 4 -5 0 0 0
-2 3.76281952857971191 -5 0 0 0
-2 4 -5.03143072128295898 0 0 0
-2 4 3.95526695251464844 2 2 2
-2.90549826622009277 5 -5 1 1 1
-2 5 -5.15945720672607422 1 1 1
-2.53757762908935547 5 4 2 3 3
-2 4.25893115997314453 4 2 2 2
-2 5 4.09354543685913086 2 3 2
-2 6 -5.28425168991088867 1 2 2
-2 6 4.21605396270751953 3 3 3
-2 7 -5.40620946884155273 2 2 3
-2 7 4.33551692962646484 3 4 4
-2 8 -5.52567768096923828 3 3 4
-2 8 4.45228052139282227 4 5 5
-2 8.92767238616943359 -5 3 3 3
-2 8.96691322326660156 -4 3 3 4
-2 8.97489166259765625 -3 3 4 4
-2 8.97761821746826172 -2 3 4 4
-2 8.97853183746337891 -1 3 4 4
-2 8.97850131988525391 0 3 4 4
-2 8.97749805450439453 1 4 4 4
-2 8.97455787658691406 2 4 5 4
-2 8.96583175659179688 3 4 5 5
-2 8.91870212554931641 4 4 5 5
-1 -8.46624755859375 -1 2 4 3
-1 -8 -1.44562506675720215 3 4 3
-1 -8.426177978515625 0 2 3 3
-1 -8 0.377972453832626343 2 3 3
-1 -7.40784597396850586 -2 3 4 3
-1 -7 -2.18504214286804199 3 3 3
-1 -7.28522300720214844 1 2 3 2
-1 -7 1.12466037273406982 2 3 2
-1 -6 -2.63135457038879395 3 3 3
-1 -6 1.55333209037780762 2 3 2
-1 -5.17114973068237305 -3 3 3 3
-1 -5 -3.04874753952026367 2 3 2
-1.39549434185028076 -5 2 2 2 2
-1 -5 1.98172760009765625 2 2 2
-1 -4 -3.32646870613098145 2 3 2
-1 -4.95650577545166016 2 2 2 2
-1 -4 2.25849270820617676 2 2 1
-1 -3 -3.60195350646972656 2 2 2
-1 -3 2.52589321136474609 1 1 1
-1 -2 -3.87684011459350586 2 2 2
-1 -2 2.79220008850097656 1 1 1
-1 -1.547279953956604 -4 2 2 2
-1 -1 -4.10465192794799805 1 2 1
-1 -1.21681511402130127 3 1 1 1
-1 -1 3.04076290130615234 0 0 0
-1 0 -4.2912907600402832 1 1 1
-1 0 3.22333145141601562 0 0 0
-1 1 -4.47524118423461914 0 1 0
-1 1 3.40288901329040527 0 0 0
-1 2 -4.65733575820922852 0 0 0
-1 2 3.58024072647094727 0 0 0
-1 3 -4.8383641242980957 0 0 0
-1 3 3.75614595413208008 1 1 1
-1 3.89659404754638672 -5 0 0 0
-1 4 -5.01371574401855469 0 0 0
-1 4 3.93132352828979492 2 2 1
-1 5 -5.14168739318847656 1 1 1
-1 4.39787149429321289 4 2 2 2
-1 5 4.076080322265625 2 3 2
-1 6 -5.26636314392089844 1 2 2
-1 6 4.19850873947143555 3 3 3
-1 7 -5.3881378173828125 2 3 3
-1 7 4.31783151626586914 3 4 4
-1 8 -5.50736045837402344 3 3 4
-1 8 4.43439579010009766 4 5 5
-1 8.92541694641113281 -5 3 3 3
-1 8.96654033660888672 -4 3 4 3
-1 8.97472858428955078 -3 3 4 3
-1 8.97751903533935547 -2 3 4 3
-1 8.97845458984375 -1 3 4 3
-1 8.97842311859130859 0 4 4 4
-1 8.97739601135253906 1 4 4 4
-1 8.97438716888427734 2 4 5 4
-1 8.96542644500732422 3 4 5 4
-1 8.91580295562744141 4 4 5 5
-0.60743790864944458 -8 -1 2 3 3
-0.641169071197509766 -8 0 2 3 3
-0.664135336875915527 -7 -2 3 3 3
0 -7.2657017707824707 -1 3 3 3
0 -7 -1.24838435649871826 3 3 3
0 -7.22491216659545898 0 2 3 2
-0.765103638172149658 -7 1 2 3 2
0 -7 0.195107921957969666 3 3 2
0 -6.17910909652709961 -2 3 3 3
0 -6 -2.07948637008666992 3 3 3
0 -6.05425262451171875 1 2 3 2
0 -6 1.02319431304931641 2 2 2
-0.865358710289001465 -5 -3 3 3 2
0 -5 -2.51359677314758301 3 3 3
0 -5 1.4402843713760376 2 2 2
-0.0947272628545761108 -4 -3 2 3 2
0 -4 -2.94665122032165527 3 3 2
-0.265483617782592773 -4 2 2 2 1
0 -4 1.85581386089324951 2 2 2
0 -3.87450265884399414 -3 3 3 2
0 -3 -3.23668026924133301 2 2 2
0 -3.64823269844055176 2 2 2 1
0 -3 2.17123293876647949 1 1 1
0 -2 -3.50379705429077148 2 2 2
0 -2 2.43067479133605957 1 1 1
-0.609898507595062256 -1 -4 1 2 1
0 -1 -3.76936984062194824 1 1 1
-0.845422148704528809 -1 3 0 0 0
0 -1 2.68814706802368164 0 0 0
0 -0.128560483455657959 -4 1 1 1
0 0 -4.02400970458984375 1 1 1
-0.14843885600566864 0 3 0 0 0
0 0 2.94502353668212891 0 0 0
0 1 -4.20506191253662109 0 1 0
0 0.217665344476699829 3 0 0 0
0 1 3.13903045654296875 0 0 0
0 2 -4.38288545608520508 0 0 0
0 2 3.31278729438781738 0 0 0
0 3 -4.55822467803955078 0 0 0
0 3 3.48376059532165527 1 1 1
-0.935782134532928467 4 -5 0 0 0
0 4 -4.73177289962768555 0 0 0
0 4 3.65262174606323242 2 2 1
-0.332558363676071167 5 -5 1 1 1
0 5 -4.90417861938476562 1 1 1
-0.637255847454071045 5 4 2 3 2
0 5 3.81999373435974121 2 2 2
0 5.56312036514282227 -5 1 1 1
0 6 -5.05440282821655273 2 2 2
-0.0476913079619407654 6 4 3 3 3
0 6 3.98645663261413574 3 3 3
0 7 -5.17474603652954102 2 3 3
0 6.08330345153808594 4 3 3 3
0 7 4.10856819152832031 3 4 3
0 8 -5.29182863235473633 3 3 4
0 8 4.22348308563232422 3 5 4
0 8.87970924377441406 -5 3 4 3
0 8.96110153198242188 -4 3 4 3
0 8.97245407104492188 -3 3 4 3
0 8.97613811492919922 -2 3 4 3
0 8.97737598419189453 -1 4 4 4
0 8.97733402252197266 0 4 4 4
0 8.97597503662109375 1 4 4 4
0 8.9720001220703125 2 4 5 4
0 8.95947265625 3 4 5 4
0 8.85124778747558594 4 3 5 4
0.113042496144771576 -7 -1 3 3 3
0.0956990346312522888 -7 0 3 3 2
0.0745120197534561157 -6 -2 3 3 3
0.53008270263671875 -6 -1 3 3 2
0.512423932552337646 -6 0 3 3 2
0.0225774571299552917 -6 1 2 2 2
0.481322318315505981 -5 -2 3 3 2
0.946680426597595215 -5 -1 3 3 2
0.928566157817840576 -5 0 2 2 2
0.428523898124694824 -5 1 2 2 2
0.886907577514648438 -4 -2 2 2 2
1 -4.86975765228271484 -1 3 3 2
1 -4 -1.75829482078552246 2 2 2
1 -4.82548809051513672 0 2 2 2
0.832852840423583984 -4 1 2 2 2
1 -4 0.667797863483428955 2 2 2
0.338192731142044067 -3 -3 2 2 2
1 -3.71697878837585449 -2 2 2 2
1 -3 -2.29594945907592773 2 2 2
1 -3.5815436840057373 1 2 2 2
0.250839769840240479 -3 2 1 1 1
1 -3 1.23123693466186523 1 1 1
0.721159934997558594 -2 -3 2 2 2
1 -2 -2.70344209671020508 2 2 2
0.632099628448486328 -2 2 1 1 1
1 -2 1.62251603603363037 1 1 1
1 -1.26594913005828857 -3 2 2 2
1 -1 -3.06862735748291016 1 1 1
1 -1.03087878227233887 2 1 1 1
1 -1 2.00777769088745117 0 0 0
0.0461458377540111542 0 -4 1 1 1
1 0 -3.31999897956848145 1 1 1
1 0 2.25220680236816406 0 0 0
0.395429432392120361 1 -4 0 0 0
1 1 -3.56828761100769043 0 0 0
0.272923678159713745 1 3 0 0 0
1 1 2.49324226379394531 0 0 0
0.740844666957855225 2 -4 0 0 0
1 2 -3.81462717056274414 0 0 0
0.616144955158233643 2 3 0 0 0
1 2 2.73197531700134277 0 0 0
1 2.75923633575439453 -4 0 0 0
1 3 -4.04136896133422852 0 0 0
0.956319451332092285 3 3 1 1 1
1 3 2.96944355964660645 1 1 1
1 4 -4.20782375335693359 0 0 0
1 3.13147377967834473 3 1 1 1
1 4 3.14173173904418945 2 2 2
1 5 -4.37079572677612305 1 1 1
1 5 3.30098581314086914 2 2 2
0.131823718547821045 6 -5 2 2 2
1 6 -4.53083372116088867 2 2 2
1 6 3.45707607269287109 3 3 3
0.425217300653457642 7 -5 2 3 2
1 7 -4.68842983245849609 2 3 2
0.267621636390686035 7 4 3 4 3
1 7 3.61048436164855957 4 4 3
0.713149487972259521 8 -5 3 4 3
1 8 -4.8440241813659668 3 4 3
0.553239345550537109 8 4 3 5 4
1 8 3.76163911819458008 4 5 4
1 8.94089031219482422 -4 3 4 3
1 8.96559810638427734 -3 3 4 3
1 8.97214031219482422 -2 4 4 3
1 8.97424888610839844 -1 4 4 4
1 8.97417736053466797 0 4 4 4
1 8.97186088562011719 1 4 4 4
1 8.96475410461425781 2 4 5 4
1 8.93657302856445312 3 4 5 4
1.23087489604949951 -4 -1 2 2 2
1.21916985511779785 -4 0 2 2 2
1.18589890003204346 -3 -2 2 2 2
1.49297046661376953 -3 -1 2 2 2
1.48107218742370605 -3 0 2 2 2
1.15087831020355225 -3 1 1 1 1
1.44085395336151123 -2 -2 2 2 2
1.75377142429351807 -2 -1 1 1 1
1.74159955978393555 -2 0 1 1 1
1.40532267093658447 -2 1 1 1 1
1.06570732593536377 -1 -3 1 1 1
1.6939314603805542 -1 -2 1 1 1
2 -1.05536341667175293 -1 1 1 1
2 -1 -1.04480540752410889 1 1 1
2 -1.00844097137451172 0 1 1 1
1.65766716003417969 -1 1 1 1 1
2 -1 0.00633945036679506302 1 1 1
1.0076371431350708 -1 2 0 0 0
1.30631148815155029 0 -3 1 1 1
1.94648432731628418 0 -2 1 1 1
2 0 -1.83372056484222412 1 1 1
1.90925121307373047 0 1 0 0 0
2 0 0.737702727317810059 0 0 0
1.24762570858001709 0 2 0 0 0
1.54384815692901611 1 -3 0 0 0
2 0.215488061308860779 -2 1 1 1
2 1 -2.29199123382568359 0 0 0
2 0.365676790475845337 1 0 0 0
1.48423373699188232 1 2 0 0 0
2 1 1.22743391990661621 0 0 0
1.77939975261688232 2 -3 0 0 0
2 2 -2.65834498405456543 0 0 0
1.71853184700012207 2 2 0 0 0
2 2 1.57923710346221924 0 0 0
1.05335557460784912 3 -4 0 0 0
2 2.94154691696166992 -3 0 0 0
2 3 -3.01353883743286133 0 0 0
1.95153665542602539 3 2 1 1 1
2 3 1.92770230770111084 1 1 1
1.26841449737548828 4 -4 0 0 0
2 4 -3.23780703544616699 1 1 0
2 3.21214771270751953 2 1 1 1
1.18646776676177979 4 3 2 2 2
2 4 2.17232823371887207 2 1 1
1.47958064079284668 5 -4 1 1 1
2 5 -3.45792603492736816 1 1 1
1.39658617973327637 5 3 2 2 2
2 5 2.3861546516418457 2 2 2
1.6875617504119873 6 -4 2 2 2
2 6 -3.67463326454162598 2 2 2
1.60317826271057129 6 3 3 3 3
2 6 2.59635543823242188 3 3 3
1.89299750328063965 7 -4 2 3 2
2 7 -3.8885948657989502 3 3 2
1.80687832832336426 7 3 4 4 3
2 7 2.80357623100280762 4 4 3
2 7.53083181381225586 -4 3 3 2
2 8 -4.06897258758544922 3 4 3
2 7.95974445343017578 3 4 4 3
2 8 3.00581932067871094 4 5 4
2 8.58339977264404297 -4 3 4 3
2 8.9388275146484375 -3 3 4 3
2 8.95948314666748047 -2 4 4 3
2 8.96484470367431641 -1 4 4 4
2 8.96467018127441406 0 4 4 4
2 8.95873451232910156 1 4 4 4
2 8.93557262420654297 2 4 5 4
2 8.10785484313964844 3 4 5 4
2.01027655601501465 -1 -1 1 1 1
2.00156736373901367 -1 0 1 1 1
2.19011902809143066 0 -1 1 0 0
2.18135452270507812 0 0 0 0 0
2.13750028610229492 1 -2 0 0 0
2.36680316925048828 1 -1 0 0 0
2.35793948173522949 1 0 0 0 0
2.11127853393554688 1 1 0 0 0
2.30884480476379395 2 -2 0 0 0
2.54111909866333008 2 -1 0 0 0
2.53211069107055664 2 0 0 0 0
2.28238248825073242 2 1 0 0 0
2.00973033905029297 3 -3 0 0 0
2.47741341590881348 3 -2 0 0 0
2.71380853652954102 3 -1 0 0 0
2.70460844039916992 3 0 0 0 0
2.45058608055114746 3 1 1 1 1
2.17060613632202148 4 -3 1 1 1
2.64386749267578125 4 -2 1 1 1
2.88557171821594238 4 -1 1 1 1
2.87613153457641602 4 0 1 1 1
2.61654901504516602 4 1 1 1 1
2.12685871124267578 4 2 2 1 1
2.32792496681213379 5 -3 1 1 1
2.80882120132446289 5 -2 1 1 1
3 4.67238521575927734 -1 1 1 1
3 5 -1.2240746021270752 2 1 1
3 4.72811365127563477 0 1 1 1
2.78088068962097168 5 1 2 2 2
3 5 0.172568202018737793 2 2 2
2.28378987312316895 5 2 2 2 2
2.48221826553344727 6 -3 2 2 2
2.97284531593322754 6 -2 2 2 2
3 6 -1.89040744304656982 2 2 2
2.94414710998535156 6 1 3 3 3
3 6 0.790237665176391602 3 3 2
2.43752360343933105 6 2 3 3 3
2.63396120071411133 7 -3 3 3 3
3 6.16919422149658203 -2 2 2 2
3 7 -2.258819580078125 3 3 3
3 6.34838628768920898 1 3 3 3
2.58853483200073242 7 2 4 4 3
3 7 1.19556069374084473 4 4 3
2.06674957275390625 8 -4 3 4 3
2.78357768058776855 8 -3 3 4 3
3 8 -2.56329011917114258 3 4 3
2.73724555969238281 8 2 4 5 4
3 8 1.48799502849578857 4 5 4
2.00573968887329102 8 3 4 5 4
3 8.84537982940673828 -2 4 4 3
3 8.90936374664306641 -1 4 4 4
3 8.90792369842529297 0 4 4 4
3 8.83144378662109375 1 4 5 4
3.04101753234863281 5 -1 2 2 2
3.03405332565307617 5 0 2 2 2
3.1619575023651123 6 -1 2 2 2
3.15497231483459473 6 0 3 3 2
3.0973658561706543 7 -2 3 3 3
3.27968978881835938 7 -1 3 3 3
3.2726597785949707 7 0 3 3 3
3.07645678520202637 7 1 4 4 3
3.21095061302185059 8 -2 4 4 3
3.39456009864807129 8 -1 4 4 4
3.38746213912963867 8 0 4 4 4
3.18995571136474609 8 1 4 5 4
3 2 1 0
3 1 4 3
3 0 1 3
3 4 5 3
3 8 7 6
3 7 2 0
3 7 0 6
3 6 0 9
3 0 3 9
3 3 10 9
3 5 11 10
3 3 5 10
3 13 8 6
3 12 13 6
3 6 9 12
3 9 14 12
3 9 10 14
3 10 15 14
3 11 17 16
3 11 16 10
3 10 16 15
3 17 18 16
3 20 13 12
3 19 20 12
3 12 14 19
3 14 21 19
3 14 15 21
3 15 22 21
3 15 16 22
3 16 23 22
3 18 24 23
3 16 18 23
3 26 20 19
3 25 26 19
3 19 21 25
3 21 27 25
3 21 22 27
3 22 28 27
3 22 23 28
3 23 29 28
3 24 30 29
3 23 24 29
3 26 25 31
3 25 27 32
3 31 25 32
3 27 28 33
3 32 27 33
3 28 29 34
3 33 28 34
3 29 30 34
3 37 36 35
3 36 39 38
3 35 36 38
3 39 40 38
3 43 42 41
3 42 37 35
3 42 35 41
3 41 35 44
3 35 38 44
3 38 45 44
3 40 47 46
3 40 46 38
3 38 46 45
3 47 48 46
3 50 43 41
3 49 50 41
3 41 44 49
3 44 51 49
3 44 45 51
3 45 52 51
3 45 46 52
3 46 53 52
3 48 54 53
3 46 48 53
3 56 50 49
3 55 56 49
3 49 51 55
3 51 57 55
3 51 52 57
3 52 58 57
3 52 53 58
3 53 59 58
3 54 60 59
3 53 54 59
3 63 62 61
3 62 56 55
3 62 55 61
3 61 55 64
3 55 57 64
3 57 65 64
3 57 58 65
3 58 66 65
3 58 59 66
3 59 67 66
3 60 69 68
3 60 68 59
3 59 68 67
3 69 70 68
3 72 63 61
3 71 72 61
3 61 64 71
3 64 73 71
3 2 65 1
3 2 73 65
3 73 64 65
3 66 1 65
3 4 1 66
3 4 74 5
3 4 66 74
3 66 67 74
3 67 68 74
3 68 75 74
3 70 76 75
3 68 70 75
3 78 72 71
3 77 78 71
3 8 73 7
3 8 77 73
3 77 71 73
3 73 2 7
3 79 5 74
3 11 5 79
3 74 75 79
3 75 80 79
3 76 81 80
3 75 76 80
3 83 78 77
3 82 83 77
3 77 13 82
3 8 13 77
3 79 17 11
3 17 84 18
3 17 79 84
3 79 80 84
3 81 85 84
3 80 81 84
3 88 87 86
3 87 83 82
3 87 82 86
3 86 82 89
3 82 20 89
3 13 20 82
3 90 18 84
3 24 18 90
3 85 92 91
3 85 91 84
3 84 91 90
3 92 93 91
3 95 88 86
3 94 95 86
3 86 89 94
3 89 96 94
3 89 26 96
3 20 26 89
3 97 24 90
3 30 24 97
3 90 91 97
3 91 98 97
3 93 99 98
3 91 93 98
3 95 94 100
3 94 96 101
3 100 94 101
3 96 26 31
3 96 31 101
3 101 31 102
3 102 31 103
3 31 32 103
3 103 32 104
3 32 33 104
3 104 33 105
3 33 34 105
3 30 97 106
3 30 106 34
3 34 106 105
3 97 98 107
3 106 97 107
3 98 99 107
3 110 109 108
3 109 112 111
3 108 109 111
3 112 113 111
3 116 115 114
3 115 110 108
3 115 108 114
3 114 108 117
3 108 111 117
3 111 118 117
3 113 120 119
3 113 119 111
3 111 119 118
3 120 121 119
3 123 116 114
3 122 123 114
3 114 117 122
3 117 124 122
3 117 118 124
3 118 125 124
3 118 119 125
3 119 126 125
3 121 127 126
3 119 121 126
3 129 123 122
3 128 129 122
3 122 124 128
3 124 130 128
3 124 125 130
3 125 131 130
3 125 126 131
3 126 132 131
3 127 133 132
3 126 127 132
3 136 135 134
3 135 129 128
3 135 128 134
3 134 128 137
3 37 130 36
3 37 137 130
3 137 128 130
3 131 36 130
3 39 36 131
3 39 138 40
3 39 131 138
3 131 132 138
3 133 140 139
3 133 139 132
3 132 139 138
3 140 141 139
3 143 136 134
3 142 143 134
3 43 137 42
3 43 142 137
3 142 134 137
3 137 37 42
3 138 47 40
3 47 144 48
3 47 138 144
3 138 139 144
3 141 145 144
3 139 141 144
3 147 143 142
3 146 147 142
3 142 50 146
3 43 50 142
3 148 48 144
3 54 48 148
3 145 149 148
3 144 145 148
3 151 147 146
3 150 151 146
3 146 56 150
3 50 56 146
3 152 54 148
3 60 54 152
3 149 153 152
3 148 149 152
3 156 155 154
3 150 62 63
3 151 150 63
3 151 63 154
3 151 154 155
3 150 56 62
3 152 69 60
3 69 157 70
3 152 157 69
3 152 158 157
3 152 153 158
3 158 159 157
3 161 156 154
3 160 161 154
3 154 72 160
3 63 72 154
3 162 70 157
3 76 70 162
3 159 163 162
3 157 159 162
3 165 161 160
3 164 165 160
3 160 78 164
3 72 78 160
3 166 76 162
3 81 76 166
3 163 167 166
3 162 163 166
3 169 165 164
3 168 169 164
3 164 83 168
3 78 83 164
3 170 81 166
3 85 81 170
3 167 171 170
3 166 167 170
3 168 87 88
3 168 88 169
3 169 88 172
3 168 83 87
3 170 92 85
3 92 170 171
3 92 171 93
3 93 171 173
3 172 88 174
3 174 88 95
3 173 175 93
3 175 99 93
3 174 95 100
3 176 174 100
3 176 100 177
3 100 101 177
3 177 101 178
3 101 102 178
3 178 102 179
3 102 103 179
3 179 103 180
3 103 104 180
3 180 104 181
3 104 105 181
3 181 105 182
3 105 106 182
3 182 106 183
3 106 107 183
3 183 107 99
3 175 183 99
3 186 185 184
3 185 188 187
3 184 185 187
3 188 189 187
3 192 191 190
3 191 186 184
3 191 184 190
3 190 184 193
3 184 187 193
3 187 194 193
3 189 196 195
3 189 195 187
3 187 195 194
3 196 197 195
3 199 192 190
3 198 199 190
3 110 193 109
3 110 198 193
3 198 190 193
3 194 109 193
3 112 109 194
3 112 200 113
3 112 194 200
3 194 195 200
3 197 201 200
3 195 197 200
3 204 203 202
3 198 115 116
3 199 198 116
3 199 116 202
3 199 202 203
3 198 110 115
3 200 120 113
3 120 200 201
3 120 201 121
3 121 201 205
3 207 204 202
3 206 207 202
3 202 123 206
3 116 123 202
3 208 205 209
3 208 127 205
3 127 121 205
3 209 210 208
3 212 207 206
3 211 212 206
3 206 129 211
3 123 129 206
3 213 127 208
3 133 127 213
3 210 214 213
3 208 210 213
3 211 135 136
3 211 136 212
3 212 136 215
3 211 129 135
3 213 140 133
3 140 213 214
3 140 214 141
3 141 214 216
3 219 218 217
3 218 143 217
3 218 215 143
3 215 136 143
3 220 216 221
3 220 145 216
3 145 141 216
3 221 222 220
3 224 219 217
3 223 224 217
3 217 147 223
3 143 147 217
3 225 145 220
3 149 145 225
3 222 226 225
3 220 222 225
3 228 224 223
3 227 228 223
3 223 151 227
3 147 151 223
3 229 149 225
3 153 149 229
3 226 230 229
3 225 226 229
3 227 155 156
3 227 156 228
3 228 156 231
3 227 151 155
3 229 158 153
3 158 229 230
3 158 230 159
3 159 230 232
3 231 156 233
3 233 156 161
3 232 234 159
3 234 163 159
3 233 161 235
3 235 161 165
3 234 236 163
3 236 167 163
3 239 238 237
3 238 169 237
3 238 235 169
3 235 165 169
3 240 236 241
3 240 171 236
3 171 167 236
3 241 242 240
3 244 239 237
3 243 244 237
3 237 172 243
3 169 172 237
3 245 171 240
3 173 171 245
3 242 246 245
3 240 242 245
3 248 244 243
3 247 248 243
3 243 174 247
3 172 174 243
3 249 173 245
3 175 173 249
3 246 250 249
3 245 246 249
3 248 247 251
3 247 174 176
3 247 176 251
3 251 176 252
3 252 176 253
3 176 177 253
3 253 177 254
3 177 178 254
3 254 178 255
3 178 179 255
3 255 179 256
3 179 180 256
3 256 180 257
3 180 181 257
3 257 181 258
3 181 182 258
3 258 182 259
3 182 183 259
3 175 249 260
3 175 260 183
3 183 260 259
3 249 250 260
3 263 262 261
3 262 265 264
3 261 262 264
3 265 266 264
3 269 268 267
3 261 185 186
3 263 261 186
3 263 186 267
3 263 267 268
3 264 185 261
3 188 185 264
3 188 270 189
3 264 270 188
3 264 271 270
3 264 266 271
3 271 272 270
3 267 191 192
3 267 192 269
3 269 192 273
3 267 186 191
3 270 196 189
3 196 270 272
3 196 272 197
3 197 272 274
3 277 276 275
3 276 199 275
3 276 273 199
3 273 192 199
3 278 274 279
3 278 201 274
3 201 197 274
3 279 280 278
3 275 203 204
3 275 204 277
3 277 204 281
3 275 199 203
3 282 201 278
3 205 201 282
3 280 283 282
3 278 280 282
3 281 204 284
3 284 204 207
3 282 209 205
3 209 282 283
3 209 283 210
3 210 283 285
3 284 207 286
3 286 207 212
3 285 287 210
3 287 214 210
3 290 289 288
3 289 215 288
3 289 286 215
3 286 212 215
3 291 287 292
3 291 216 287
3 216 214 287
3 292 293 291
3 288 218 219
3 288 219 290
3 290 219 294
3 288 215 218
3 291 221 216
3 221 291 293
3 221 293 222
3 222 293 295
3 294 219 296
3 296 219 224
3 295 297 222
3 297 226 222
3 296 224 298
3 298 224 228
3 297 299 226
3 299 230 226
3 298 228 300
3 300 228 231
3 299 301 230
3 301 232 230
3 304 303 302
3 303 233 302
3 303 300 233
3 300 231 233
3 301 305 232
3 305 234 232
3 307 304 302
3 306 307 302
3 302 235 306
3 233 235 302
3 308 305 309
3 308 236 305
3 236 234 305
3 309 310 308
3 306 238 239
3 306 239 307
3 307 239 311
3 306 235 238
3 308 241 236
3 241 308 310
3 241 310 242
3 242 310 312
3 311 239 313
3 313 239 244
3 312 314 242
3 314 246 242
3 313 244 315
3 315 244 248
3 314 316 246
3 316 250 246
3 315 248 251
3 317 315 251
3 317 251 318
3 251 252 318
3 318 252 319
3 252 253 319
3 319 253 320
3 253 254 320
3 320 254 321
3 254 255 321
3 321 255 322
3 255 256 322
3 322 256 323
3 256 257 323
3 323 257 324
3 257 258 324
3 324 258 325
3 258 259 325
3 325 259 326
3 259 260 326
3 326 260 250
3 316 326 250
3 263 328 327
3 262 263 327
3 327 329 262
3 262 329 265
3 265 329 330
3 266 265 330
3 269 332 331
3 268 269 331
3 331 263 268
3 328 263 331
3 330 271 266
3 333 271 330
3 271 333 334
3 272 271 334
3 332 269 335
3 335 269 273
3 334 336 272
3 336 274 272
3 277 338 337
3 276 277 337
3 337 273 276
3 335 273 337
3 279 340 339
3 279 274 340
3 274 336 340
3 279 339 280
3 338 277 341
3 341 277 281
3 340 342 339
3 339 342 343
3 339 343 280
3 280 343 283
3 341 281 344
3 344 281 284
3 343 345 283
3 345 285 283
3 344 284 346
3 346 284 286
3 345 347 285
3 347 287 285
3 290 349 348
3 289 290 348
3 348 286 289
3 346 286 348
3 347 292 287
3 350 292 347
3 292 350 351
3 293 292 351
3 349 290 352
3 352 290 294
3 351 353 293
3 353 295 293
3 352 294 354
3 354 294 296
3 353 355 295
3 355 297 295
3 354 296 356
3 356 296 298
3 355 357 297
3 357 299 297
3 356 298 358
3 358 298 300
3 357 359 299
3 359 301 299
3 304 361 360
3 303 304 360
3 360 300 303
3 358 300 360
3 359 362 301
3 362 305 301
3 361 304 363
3 363 304 307
3 362 309 305
3 364 309 362
3 309 364 365
3 310 309 365
3 363 307 366
3 366 307 311
3 365 367 310
3 367 312 310
3 366 311 368
3 368 311 313
3 367 369 312
3 369 314 312
3 368 313 370
3 370 313 315
3 369 371 314
3 371 316 314
3 370 315 317
3 372 370 317
3 372 317 373
3 317 318 373
3 373 318 374
3 318 319 374
3 374 319 375
3 319 320 375
3 375 320 376
3 320 321 376
3 376 321 377
3 321 322 377
3 377 322 378
3 322 323 378
3 378 323 379
3 323 324 379
3 379 324 380
3 324 325 380
3 380 325 381
3 325 326 381
3 381 326 316
3 371 381 316
3 327 328 382
3 329 327 382
3 383 329 382
3 329 383 330
3 331 332 384
3 384 386 385
3 331 384 385
3 331 385 382
3 331 382 328
3 382 387 383
3 385 387 382
3 389 388 333
3 387 389 333
3 387 333 330
3 387 330 383
3 333 388 334
3 390 384 332
3 390 332 391
3 391 332 335
3 384 390 386
3 389 392 388
3 388 392 393
3 388 393 334
3 334 393 336
3 337 338 394
3 394 335 337
3 394 395 335
3 395 391 335
3 393 396 336
3 396 340 336
3 397 394 338
3 341 397 338
3 395 397 398
3 394 397 395
3 342 400 399
3 342 340 400
3 340 396 400
3 342 399 343
3 401 397 341
3 401 341 402
3 402 341 344
3 397 401 398
3 400 403 399
3 399 403 404
3 399 404 343
3 343 404 345
3 402 344 405
3 405 344 346
3 404 406 345
3 406 347 345
3 348 349 407
3 407 346 348
3 407 408 346
3 408 405 346
3 350 410 409
3 350 347 410
3 347 406 410
3 350 409 351
3 411 407 349
3 411 349 412
3 412 349 352
3 407 411 408
3 414 409 410
3 413 409 414
3 409 413 353
3 351 409 353
3 412 352 415
3 415 352 354
3 414 416 413
3 413 416 417
3 413 417 353
3 353 417 355
3 415 354 418
3 418 354 356
3 417 419 355
3 419 357 355
3 418 356 420
3 420 356 358
3 419 421 357
3 421 359 357
3 360 361 422
3 422 358 360
3 422 423 358
3 423 420 358
3 421 424 359
3 424 362 359
3 425 422 361
3 363 425 361
3 423 425 426
3 422 425 423
3 364 428 427
3 364 362 428
3 362 424 428
3 364 427 365
3 429 425 363
3 429 363 430
3 430 363 366
3 425 429 426
3 432 427 428
3 431 427 432
3 427 431 367
3 365 427 367
3 430 366 433
3 433 366 368
3 432 434 431
3 431 434 435
3 431 435 367
3 367 435 369
3 433 368 436
3 436 368 370
3 435 437 369
3 437 371 369
3 436 370 372
3 438 436 372
3 438 372 439
3 372 373 439
3 439 373 440
3 373 374 440
3 440 374 441
3 374 375 441
3 441 375 442
3 375 376 442
3 442 376 443
3 376 377 443
3 443 377 444
3 377 378 444
3 444 378 445
3 378 379 445
3 445 379 446
3 379 380 446
3 446 380 447
3 380 381 447
3 447 381 371
3 437 447 371
3 385 386 448
3 387 385 448
3 449 387 448
3 387 449 389
3 390 391 450
3 386 390 450
3 386 450 448
3 448 450 451
3 448 451 449
3 449 451 452
3 392 389 449
3 392 449 453
3 453 449 452
3 392 453 393
3 454 450 391
3 395 454 391
3 450 454 451
3 451 454 455
3 451 455 452
3 452 455 456
3 452 456 453
3 453 456 457
3 453 457 396
3 393 453 396
3 458 454 395
3 398 458 395
3 459 458 460
3 459 455 458
3 455 454 458
3 455 461 456
3 459 461 455
3 463 456 461
3 463 462 456
3 462 457 456
3 457 462 400
3 396 457 400
3 401 402 464
3 464 466 465
3 401 464 465
3 401 465 458
3 401 458 398
3 458 465 460
3 463 467 462
3 469 468 403
3 467 469 403
3 467 403 400
3 467 400 462
3 403 468 404
3 470 464 402
3 405 470 402
3 466 470 471
3 464 470 466
3 473 468 469
3 472 468 473
3 468 472 406
3 404 468 406
3 474 470 405
3 474 405 475
3 475 405 408
3 470 474 471
3 473 476 472
3 472 476 477
3 472 477 406
3 406 477 410
3 411 412 478
3 478 408 411
3 478 479 408
3 479 475 408
3 477 480 410
3 480 414 410
3 481 478 412
3 415 481 412
3 479 481 482
3 478 481 479
3 416 484 483
3 416 414 484
3 414 480 484
3 416 483 417
3 485 481 415
3 418 485 415
3 482 485 486
3 481 485 482
3 488 483 484
3 487 483 488
3 483 487 419
3 417 483 419
3 489 485 418
3 489 418 490
3 490 418 420
3 485 489 486
3 492 487 488
3 491 487 492
3 487 491 421
3 419 487 421
3 490 420 493
3 493 420 423
3 492 494 491
3 491 494 495
3 491 495 421
3 421 495 424
3 493 423 496
3 496 423 426
3 495 497 424
3 497 428 424
3 429 430 498
3 498 426 429
3 498 499 426
3 499 496 426
3 497 500 428
3 500 432 428
3 501 498 430
3 433 501 430
3 499 501 502
3 498 501 499
3 434 504 503
3 434 432 504
3 432 500 504
3 434 503 435
3 505 501 433
3 436 505 433
3 502 505 506
3 501 505 502
3 508 503 504
3 507 503 508
3 503 507 437
3 435 503 437
3 505 436 438
3 506 505 438
3 506 438 509
3 509 438 439
3 509 439 510
3 439 440 510
3 510 440 511
3 440 441 511
3 511 441 512
3 441 442 512
3 512 442 513
3 442 443 513
3 513 443 514
3 443 444 514
3 514 444 515
3 444 445 515
3 515 445 516
3 445 446 516
3 507 508 516
3 507 516 447
3 447 516 446
3 507 447 437
3 459 460 517
3 461 459 517
3 518 461 517
3 461 518 463
3 465 466 519
3 460 465 519
3 460 519 517
3 517 519 520
3 517 520 518
3 518 520 521
3 467 463 518
3 467 518 522
3 522 518 521
3 467 522 469
3 523 519 466
3 471 523 466
3 519 523 520
3 520 523 524
3 520 524 521
3 521 524 525
3 521 525 522
3 522 525 526
3 522 526 473
3 469 522 473
3 474 475 527
3 471 474 527
3 471 527 523
3 523 527 528
3 529 528 530
3 529 524 528
3 524 523 528
3 524 531 525
3 529 531 524
3 533 525 531
3 533 532 525
3 532 526 525
3 476 473 526
3 476 526 534
3 534 526 532
3 476 534 477
3 535 527 475
3 479 535 475
3 527 535 528
3 528 535 536
3 530 536 537
3 528 536 530
3 539 532 533
3 538 532 539
3 532 538 534
3 534 538 540
3 534 540 480
3 477 534 480
3 541 535 479
3 482 541 479
3 542 541 543
3 542 536 541
3 536 535 541
3 536 542 537
3 539 544 538
3 546 538 544
3 546 545 538
3 545 540 538
3 540 545 484
3 480 540 484
3 547 541 482
3 486 547 482
3 543 547 548
3 541 547 543
3 550 545 546
3 549 545 550
3 545 549 488
3 484 545 488
3 489 490 551
3 551 553 552
3 489 551 552
3 489 552 547
3 489 547 486
3 547 552 548
3 555 549 550
3 554 549 555
3 549 554 492
3 488 549 492
3 556 551 490
3 493 556 490
3 553 556 557
3 551 556 553
3 555 558 554
3 560 559 494
3 558 560 494
3 558 494 492
3 558 492 554
3 494 559 495
3 561 556 493
3 496 561 493
3 557 561 562
3 556 561 557
3 564 559 560
3 563 559 564
3 559 563 497
3 495 559 497
3 565 561 496
3 499 565 496
3 562 565 566
3 561 565 562
3 568 563 564
3 567 563 568
3 563 567 500
3 497 563 500
3 569 565 499
3 502 569 499
3 566 569 570
3 565 569 566
3 572 567 568
3 571 567 572
3 567 571 504
3 500 567 504
3 573 569 502
3 573 502 574
3 574 502 506
3 569 573 570
3 572 575 571
3 571 575 576
3 571 576 504
3 504 576 508
3 574 506 509
3 577 574 509
3 577 509 578
3 509 510 578
3 578 510 579
3 510 511 579
3 579 511 580
3 511 512 580
3 580 512 581
3 512 513 581
3 581 513 582
3 513 514 582
3 582 514 583
3 514 515 583
3 583 515 584
3 515 516 584
3 584 516 508
3 576 584 508
3 529 530 585
3 531 529 585
3 586 531 585
3 531 586 533
3 587 585 530
3 537 587 530
3 585 587 586
3 586 587 588
3 586 588 539
3 533 586 539
3 542 543 589
3 537 542 589
3 537 589 587
3 587 589 590
3 587 590 588
3 588 590 591
3 544 539 588
3 544 588 592
3 592 588 591
3 544 592 546
3 593 589 543
3 548 593 543
3 589 593 590
3 590 593 594
3 590 594 591
3 591 594 595
3 591 595 592
3 592 595 596
3 592 596 550
3 546 592 550
3 552 553 597
3 548 552 597
3 548 597 593
3 593 597 598
3 593 598 594
3 594 598 599
3 594 599 595
3 595 599 600
3 595 600 596
3 596 600 601
3 596 601 555
3 550 596 555
3 602 597 553
3 557 602 553
3 597 602 598
3 598 602 603
3 598 603 599
3 599 603 604
3 599 604 600
3 600 604 605
3 600 605 601
3 601 605 606
3 558 555 601
3 558 601 607
3 607 601 606
3 558 607 560
3 608 602 557
3 562 608 557
3 602 608 603
3 603 608 609
3 610 609 611
3 610 604 609
3 604 603 609
3 604 612 605
3 610 612 604
3 614 605 612
3 614 613 605
3 613 606 605
3 606 613 607
3 607 613 615
3 607 615 564
3 560 607 564
3 616 608 562
3 566 616 562
3 608 616 609
3 609 616 617
3 611 617 618
3 609 617 611
3 620 613 614
3 619 613 620
3 613 619 615
3 615 619 621
3 615 621 568
3 564 615 568
3 622 616 566
3 570 622 566
3 623 622 624
3 623 617 622
3 617 616 622
3 617 623 618
3 620 625 619
3 627 619 625
3 627 626 619
3 626 621 619
3 621 626 572
3 568 621 572
3 573 574 628
3 570 573 628
3 570 628 622
3 622 628 629
3 624 629 630
3 622 629 624
3 632 626 627
3 631 626 632
3 575 572 626
3 575 626 633
3 633 626 631
3 575 633 576
3 628 574 577
3 629 628 577
3 578 629 577
3 630 629 578
3 630 578 634
3 634 578 579
3 634 579 635
3 579 580 635
3 635 580 636
3 580 581 636
3 636 581 637
3 581 582 637
3 631 632 637
3 631 637 583
3 583 637 582
3 633 631 583
3 584 633 583
3 633 584 576
3 610 611 638
3 612 610 638
3 639 612 638
3 612 639 614
3 640 638 611
3 618 640 611
3 638 640 639
3 639 640 641
3 639 641 620
3 614 639 620
3 623 624 642
3 618 623 642
3 618 642 640
3 640 642 643
3 640 643 641
3 641 643 644
3 625 620 641
3 625 641 645
3 645 641 644
3 625 645 627
3 646 642 624
3 630 646 624
3 642 646 643
3 643 646 647
3 643 647 644
3 644 647 648
3 644 648 645
3 645 648 649
3 645 649 632
3 627 645 632
3 646 630 634
3 647 646 634
3 635 647 634
3 648 647 635
3 636 648 635
3 649 648 636
3 637 649 636
3 649 637 632
