ply
format ascii 1.0
element vertex 34
property float x
property float y
property float z
property uchar red
property uchar green
property uchar blue
element face 64
property list uchar int vertex_indices
end_header
6.90248632431030273 7 8 221 134 25
7 6.73238086700439453 8 146 126 14
7 7 7.91161632537841797 212 134 25
7 7 8.23661422729492188 166 118 17
6.49877119064331055 8 8 233 101 26
7 8 7.54572486877441406 226 103 26
7 8 8.6103973388671875 187 99 18
7 8.6103973388671875 8 187 99 18
7.80412578582763672 4 8 90 106 8
8 3.12716817855834961 8 4 6 0
8 4 7.80125093460083008 65 80 6
8 4 8.40950870513916016 9 13 0
7.54379367828369141 5 8 124 125 11
8 5 7.53709506988525391 95 101 9
8 5 8.61476993560791016 30 34 2
7.24588108062744141 6 8 146 126 14
8 6 7.2348027229309082 122 111 12
8 6 8.72234153747558594 58 58 5
7.89900779724121094 7 7 212 134 25
8 6.68971061706542969 7 122 111 12
8 7 6.88508796691894531 188 130 22
8 7 8.78748512268066406 83 69 7
7.53818130493164062 8 7 226 103 26
8 8 6.47449159622192383 206 106 24
8 8 8.83057117462158203 109 71 9
8 8.6175994873046875 7 167 96 17
8 8.83057117462158203 8 109 71 9
8.40950870513916016 4 8 9 13 0
8.61476993560791016 5 8 30 34 2
8.72234153747558594 6 8 58 58 5
8.26423931121826172 7 7 144 108 15
8.78748512268066406 7 8 83 69 7
8.6175994873046875 8 7 167 96 17
8.83057117462158203 8 8 109 71 9
3 2 1 0
3 1 3 0
3 5 2 0
3 4 5 0
3 3 6 4
3 0 3 4
3 5 4 7
3 4 6 7
3 10 9 8
3 9 11 8
3 13 10 8
3 12 13 8
3 11 14 12
3 8 11 12
3 16 13 12
3 15 16 12
3 14 17 15
3 12 14 15
3 20 19 18
3 15 1 2
3 16 15 2
3 16 2 18
3 16 18 19
3 1 15 17
3 1 17 3
3 3 17 21
3 23 20 18
3 22 23 18
3 18 5 22
3 2 5 18
3 21 24 3
3 24 6 3
3 23 22 25
3 22 5 7
3 22 7 25
3 25 7 26
3 26 7 6
3 24 26 6
3 9 10 27
3 9 27 11
3 28 27 10
3 13 28 10
3 27 28 14
3 11 27 14
3 29 28 13
3 16 29 13
3 28 29 17
3 14 28 17
3 19 20 30
3 16 19 30
3 16 30 29
3 29 30 31
3 29 31 21
3 17 29 21
3 32 30 20
3 23 32 20
3 30 32 31
3 31 32 33
3 31 33 24
3 21 31 24
3 32 23 25
3 33 32 25
3 26 33 25
3 33 26 24
