ply
format ascii 1.0
element vertex 168
property float x
property float y
property float z
property uchar red
property uchar green
property uchar blue
element face 328
property list uchar int vertex_indices
end_header
-9.80795955657958984 -9 8 51 250 229
-9 -9.80795955657958984 8 65 149 254
-9 -9 7.21025419235229492 43 252 187
-9 -9 8.80795955657958984 50 254 174
-9.76688003540039062 -8 8 69 248 41
-9 -8 7.39061832427978516 54 253 123
-9 -8 8.76688003540039062 97 254 46
-9.71410942077636719 -7 8 219 246 41
-9 -7 7.54239511489868164 85 254 156
-9 -7 8.71410942077636719 173 254 58
-9.64748764038085938 -6 8 245 223 55
-9 -6 7.66652297973632812 130 254 197
-9 -6 8.64748764038085938 178 254 87
-9.56719684600830078 -5 8 244 225 78
-9 -5 7.7637333869934082 168 254 208
-9 -5 8.56719684600830078 186 253 124
-9.47977542877197266 -4 8 243 223 105
-9 -4 7.83457756042480469 188 254 201
-9 -4 8.47977542877197266 211 253 155
-9.40272331237792969 -3 8 243 206 124
-9 -3 7.87944412231445312 205 254 195
-9 -3 8.40272331237792969 238 253 173
-9.36225605010986328 -2 8 244 174 133
-9 -2 7.89857578277587891 228 254 196
-9 -2 8.36225605010986328 253 241 179
-9.37660503387451172 -1 8 246 139 131
-9 -1 7.89207839965820312 249 254 193
-9 -1 8.37660503387451172 254 207 174
-9.43892097473144531 0 8 248 197 119
-9 0 7.85992574691772461 254 234 184
-9 0 8.43892097473144531 254 169 161
-9.5241241455078125 1 8 212 250 100
-9 1 7.80196046829223633 253 191 168
-9 1 8.5241241455078125 254 220 138
-9.60929298400878906 2 8 89 252 79
-9 2 7.71788978576660156 251 179 144
-9 2 8.60929298400878906 195 254 111
-9.68290901184082031 3 8 62 254 170
-9 3 7.60727119445800781 240 248 115
-9 3 8.68290901184082031 85 253 108
-9.74229049682617188 4 8 53 250 254
-9 4 7.46949338912963867 116 243 90
-9 4 8.74229049682617188 68 251 205
-9.78880500793457031 5 8 53 194 254
-9 5 7.3037419319152832 73 237 157
-9 5 8.78880500793457031 61 212 247
-9.8249359130859375 6 8 60 170 252
-9 6 7.10896778106689453 65 222 228
-9 6 8.8249359130859375 61 158 240
-9.37664699554443359 7 7 61 159 238
-9 6.48816013336181641 7 65 222 228
-9 7 6.87954568862915039 70 202 190
-9.85307025909423828 7 8 75 165 247
-9 7 8.85307025909423828 70 131 231
-9.65580081939697266 8 7 75 139 228
-9 8 6.61359548568725586 68 142 185
-9.87514591217041016 8 8 96 167 240
-9 8 8.87514591217041016 85 123 219
-9 8.65580081939697266 7 70 113 202
-9 8.87514591217041016 8 85 123 219
-8.33270740509033203 -9 8 50 254 174
-8.48500919342041016 -8 8 97 254 46
-8.61321163177490234 -7 8 173 254 58
-8.71809101104736328 -6 8 178 254 87
-8.8002471923828125 -5 8 186 253 124
-8.86013221740722656 -4 8 211 253 155
-8.89806365966796875 -3 8 238 253 173
-8.91423988342285156 -2 8 253 241 179
-8.90874767303466797 -1 8 254 207 174
-8.88156700134277344 0 8 254 169 161
-8.83256816864013672 1 8 254 220 138
-8.76151084899902344 2 8 195 254 111
-8.66802787780761719 3 8 85 253 108
-8.55160808563232422 4 8 68 251 205
-8.4115753173828125 5 8 61 212 247
-8.24705219268798828 6 8 61 158 240
-8.90873527526855469 7 7 64 153 217
-8.0569305419921875 7 8 70 131 231
-8.70730686187744141 8 7 70 113 202
-8 7.26589155197143555 8 69 118 210
-8 8 7.82632827758789062 69 108 173
-8 8 8.49178886413574219 77 96 194
-8 8.49178886413574219 8 77 96 194
-7.83882856369018555 8 8 77 96 194
6.83882856369018555 8 8 58 64 135
7 7.26589155197143555 8 61 95 180
7 8 7.82632827758789062 50 64 135
7 8 8.49178886413574219 71 92 160
7 8.49178886413574219 8 71 92 160
7.33270740509033203 -9 8 54 237 148
8 -9.80795955657958984 8 62 166 245
8 -9 7.21025419235229492 44 239 176
8 -9 8.80795955657958984 59 248 207
7.48500919342041016 -8 8 151 241 46
8 -8 7.39061832427978516 99 243 39
8 -8 8.76688003540039062 108 250 48
7.61321210861206055 -7 8 244 209 50
8 -7 7.54239511489868164 210 245 45
8 -7 8.71410942077636719 252 189 43
7.71809101104736328 -6 8 245 184 68
8 -6 7.66652297973632812 233 247 64
8 -6 8.64748764038085938 252 80 48
7.8002471923828125 -5 8 246 196 96
8 -5 7.7637333869934082 233 248 92
8 -5 8.56719684600830078 253 71 63
7.86013221740722656 -4 8 247 197 123
8 -4 7.83457756042480469 245 248 118
8 -4 8.47977542877197266 253 107 83
7.89806318283081055 -3 8 246 181 140
8 -3 7.87944412231445312 248 224 133
8 -3 8.40272331237792969 253 149 97
7.91423988342285156 -2 8 246 148 144
8 -2 7.89857578277587891 247 186 137
8 -2 8.36225605010986328 253 200 103
7.90874767303466797 -1 8 244 181 136
8 -1 7.89207839965820312 246 130 130
8 -1 8.37660503387451172 237 252 98
7.88156652450561523 0 8 242 239 119
8 0 7.85992574691772461 243 184 114
8 0 8.43892097473144531 145 251 85
7.83256864547729492 1 8 150 238 96
8 1 7.80196046829223633 212 240 92
8 1 8.5241241455078125 69 249 108
7.76151084899902344 2 8 74 234 118
8 2 7.71788978576660156 92 236 71
8 2 8.60929298400878906 56 246 197
7.66802740097045898 3 8 58 228 200
8 3 7.60727119445800781 55 230 142
8 3 8.68290901184082031 47 215 242
7.55160808563232422 4 8 50 179 220
8 4 7.46949338912963867 45 222 219
8 4 8.74229049682617188 46 165 236
7.4115748405456543 5 8 48 130 209
8 5 7.3037419319152832 43 163 212
8 5 8.78880500793457031 50 144 228
7.24705171585083008 6 8 52 106 196
8 6 7.10896778106689453 45 126 200
8 6 8.8249359130859375 59 139 217
7.90873527526855469 7 7 46 82 156
8 6.48816013336181641 7 45 126 200
8 7 6.87954568862915039 41 103 165
7.0569310188293457 7 8 61 95 180
8 7 8.85307025909423828 72 136 204
7.70730686187744141 8 7 50 64 135
8 8 6.61359548568725586 45 77 144
8 8 8.87514591217041016 86 129 187
8 8.65580081939697266 7 62 97 165
8 8.87514591217041016 8 86 129 187
8.80795955657958984 -9 8 59 248 207
8.76688003540039062 -8 8 108 250 48
8.71410942077636719 -7 8 252 189 43
8.64748764038085938 -6 8 252 80 48
8.56719684600830078 -5 8 253 71 63
8.47977542877197266 -4 8 253 107 83
8.40272331237792969 -3 8 253 149 97
8.36225605010986328 -2 8 253 200 103
8.37660503387451172 -1 8 237 252 98
8.43892097473144531 0 8 145 251 85
8.5241241455078125 1 8 69 249 108
8.60929298400878906 2 8 56 246 197
8.68290901184082031 3 8 47 215 242
8.74229049682617188 4 8 46 165 236
8.78880500793457031 5 8 50 144 228
8.8249359130859375 6 8 59 139 217
8.37664699554443359 7 7 52 107 184
8.85307025909423828 7 8 72 136 204
8.65580081939697266 8 7 62 97 165
8.87514591217041016 8 8 86 129 187
3 2 1 0
3 1 3 0
3 5 2 0
3 4 5 0
3 3 6 4
3 0 3 4
3 8 5 4
3 7 8 4
3 6 9 7
3 4 6 7
3 11 8 7
3 10 11 7
3 9 12 10
3 7 9 10
3 14 11 10
3 13 14 10
3 12 15 13
3 10 12 13
3 17 14 13
3 16 17 13
3 15 18 16
3 13 15 16
3 20 17 16
3 19 20 16
3 18 21 19
3 16 18 19
3 23 20 19
3 22 23 19
3 21 24 22
3 19 21 22
3 26 23 22
3 25 26 22
3 24 27 25
3 22 24 25
3 29 26 25
3 28 29 25
3 27 30 28
3 25 27 28
3 32 29 28
3 31 32 28
3 30 33 31
3 28 30 31
3 35 32 31
3 34 35 31
3 33 36 34
3 31 33 34
3 38 35 34
3 37 38 34
3 36 39 37
3 34 36 37
3 41 38 37
3 40 41 37
3 39 42 40
3 37 39 40
3 44 41 40
3 43 44 40
3 42 45 43
3 40 42 43
3 47 44 43
3 46 47 43
3 45 48 46
3 43 45 46
3 51 50 49
3 50 47 46
3 50 46 49
3 49 46 52
3 48 53 52
3 46 48 52
3 55 51 49
3 54 55 49
3 49 52 54
3 52 56 54
3 53 57 56
3 52 53 56
3 55 54 58
3 54 56 59
3 58 54 59
3 56 57 59
3 1 2 60
3 1 60 3
3 61 60 2
3 5 61 2
3 60 61 6
3 3 60 6
3 62 61 5
3 8 62 5
3 61 62 9
3 6 61 9
3 63 62 8
3 11 63 8
3 62 63 12
3 9 62 12
3 64 63 11
3 14 64 11
3 63 64 15
3 12 63 15
3 65 64 14
3 17 65 14
3 64 65 18
3 15 64 18
3 66 65 17
3 20 66 17
3 65 66 21
3 18 65 21
3 67 66 20
3 23 67 20
3 66 67 24
3 21 66 24
3 68 67 23
3 26 68 23
3 67 68 27
3 24 67 27
3 69 68 26
3 29 69 26
3 68 69 30
3 27 68 30
3 70 69 29
3 32 70 29
3 69 70 33
3 30 69 33
3 71 70 32
3 35 71 32
3 70 71 36
3 33 70 36
3 72 71 35
3 38 72 35
3 71 72 39
3 36 71 39
3 73 72 38
3 41 73 38
3 72 73 42
3 39 72 42
3 74 73 41
3 44 74 41
3 73 74 45
3 42 73 45
3 75 74 44
3 47 75 44
3 74 75 48
3 45 74 48
3 50 51 76
3 47 50 76
3 47 76 75
3 75 76 77
3 75 77 53
3 48 75 53
3 78 76 51
3 55 78 51
3 79 78 80
3 79 77 78
3 77 76 78
3 77 79 81
3 77 81 53
3 53 81 57
3 78 55 58
3 80 78 58
3 80 58 82
3 82 58 59
3 82 59 57
3 81 82 57
3 79 80 83
3 79 83 81
3 83 80 82
3 83 82 81
3 86 85 84
3 85 87 84
3 86 84 88
3 84 87 88
3 91 90 89
3 90 92 89
3 94 91 89
3 93 94 89
3 92 95 93
3 89 92 93
3 97 94 93
3 96 97 93
3 95 98 96
3 93 95 96
3 100 97 96
3 99 100 96
3 98 101 99
3 96 98 99
3 103 100 99
3 102 103 99
3 101 104 102
3 99 101 102
3 106 103 102
3 105 106 102
3 104 107 105
3 102 104 105
3 109 106 105
3 108 109 105
3 107 110 108
3 105 107 108
3 112 109 108
3 111 112 108
3 110 113 111
3 108 110 111
3 115 112 111
3 114 115 111
3 113 116 114
3 111 113 114
3 118 115 114
3 117 118 114
3 116 119 117
3 114 116 117
3 121 118 117
3 120 121 117
3 119 122 120
3 117 119 120
3 124 121 120
3 123 124 120
3 122 125 123
3 120 122 123
3 127 124 123
3 126 127 123
3 125 128 126
3 123 125 126
3 130 127 126
3 129 130 126
3 128 131 129
3 126 128 129
3 133 130 129
3 132 133 129
3 131 134 132
3 129 131 132
3 136 133 132
3 135 136 132
3 134 137 135
3 132 134 135
3 140 139 138
3 139 136 135
3 139 135 138
3 138 135 141
3 137 142 141
3 135 137 141
3 144 140 138
3 143 144 138
3 86 141 85
3 86 143 141
3 143 138 141
3 85 141 142
3 85 142 87
3 87 142 145
3 144 143 146
3 143 86 88
3 143 88 146
3 146 88 147
3 147 88 87
3 145 147 87
3 90 91 148
3 90 148 92
3 149 148 91
3 94 149 91
3 148 149 95
3 92 148 95
3 150 149 94
3 97 150 94
3 149 150 98
3 95 149 98
3 151 150 97
3 100 151 97
3 150 151 101
3 98 150 101
3 152 151 100
3 103 152 100
3 151 152 104
3 101 151 104
3 153 152 103
3 106 153 103
3 152 153 107
3 104 152 107
3 154 153 106
3 109 154 106
3 153 154 110
3 107 153 110
3 155 154 109
3 112 155 109
3 154 155 113
3 110 154 113
3 156 155 112
3 115 156 112
3 155 156 116
3 113 155 116
3 157 156 115
3 118 157 115
3 156 157 119
3 116 156 119
3 158 157 118
3 121 158 118
3 157 158 122
3 119 157 122
3 159 158 121
3 124 159 121
3 158 159 125
3 122 158 125
3 160 159 124
3 127 160 124
3 159 160 128
3 125 159 128
3 161 160 127
3 130 161 127
3 160 161 131
3 128 160 131
3 162 161 130
3 133 162 130
3 161 162 134
3 131 161 134
3 163 162 133
3 136 163 133
3 162 163 137
3 134 162 137
3 139 140 164
3 136 139 164
3 136 164 163
3 163 164 165
3 163 165 142
3 137 163 142
3 166 164 140
3 144 166 140
3 164 166 165
3 165 166 167
3 165 167 145
3 142 165 145
3 166 144 146
3 167 166 146
3 147 167 146
3 167 147 145
