ply
format ascii 1.0
element vertex 388
property float x
property float y
property float z
property uchar red
property uchar green
property uchar blue
element face 684
property list uchar int vertex_indices
end_header
-9.27710437774658203 -6 -9 52 0 57
-9 -6.03854990005493164 -9 19 6 82
-9 -6 -9.27710437774658203 118 56 6
-9 -6 -8.97940635681152344 95 9 38
-9 -5.89856338500976562 -9 95 9 38
-9.25774955749511719 3 -8 35 0 53
-9 2.99201846122741699 -8 2 9 0
-9 3 -8.02016258239746094 24 0 46
-9 3 -7.89656925201416016 15 0 55
-9 3.02276706695556641 -8 15 0 55
-8.04380607604980469 -6 -9 95 9 38
-8.98945808410644531 3 -8 15 0 55
-8.06968116760253906 6 -9 19 0 40
-8 5.9310302734375 -9 15 0 57
-8 6 -9.56213092803955078 30 0 24
-8 6 -8.96055030822753906 8 0 28
-8.20933055877685547 7 -9 103 0 40
-8 7 -9.74406337738037109 19 0 32
-8 7 -8.05090522766113281 32 0 31
-8 7.3718414306640625 -9 32 0 31
-8.00848960876464844 8 -8 90 0 48
-8 7.59954500198364258 -8 4 0 27
-8 8 -8.02076625823974609 6 0 11
-8 8 -7.96822881698608398 2 0 26
-8 8.09432697296142578 -8 2 0 26
-7.00050449371337891 3 -9 115 0 88
-7 2.99755692481994629 -9 94 0 107
-7 3 -9.01939201354980469 0 58 48
-7 3 -8.99287891387939453 125 0 71
-7 3.00150847434997559 -9 125 0 71
-7.97010278701782227 6 -9 8 0 28
-7.83803892135620117 7 -9 32 0 31
-7.97661733627319336 8 -8 2 0 26
-6.99328994750976562 3 -9 125 0 71
-5.00212478637695312 -8 2 39 40 27
-5 -8.00228309631347656 2 33 40 37
-5 -8 1.99821674823760986 17 19 18
-5 -8 2.00170111656188965 37 36 40
-5 -7.99254894256591797 2 37 36 40
-4.05240535736083984 -9 6 8 6 6
-4 -9.528106689453125 6 76 72 78
-4 -9 5.95790815353393555 46 37 37
-4 -9 6.06680011749267578 107 115 101
-4.98633575439453125 -8 2 37 36 40
-4 -8.95993232727050781 6 107 115 101
-4.04873943328857422 -7 4 44 42 34
-4 -7.20600652694702148 4 85 85 81
-4 -7 3.98719930648803711 63 79 81
-4 -7 4.1364436149597168 70 73 73
-4 -6.98726701736450195 4 70 73 73
-4.13527345657348633 -6 5 76 69 50
-4 -6.26940441131591797 5 62 61 52
-4 -6 4.9707794189453125 89 121 130
-4 -6 5.33698129653930664 77 85 69
-4 -5.96408224105834961 5 77 85 69
-3.0395503044128418 -9 3 48 47 46
-3 -9.65854263305664062 3 60 65 67
-3 -9 2.85161185264587402 71 76 65
-3 -9 3.05999636650085449 72 86 81
-3.95833015441894531 -9 6 107 115 101
-3.07639980316162109 -9 7 37 54 41
-3 -9.56393909454345703 7 61 72 68
-3 -9 6.95215654373168945 38 33 31
-3 -9 7.04659843444824219 104 117 103
-3 -8.94091129302978516 3 72 86 81
-3.52715516090393066 -8 4 85 85 81
-3 -8.06804656982421875 4 5 5 5
-3 -8 3.93297457695007324 110 113 119
-3 -8 4.07009601593017578 102 95 99
-3 -8.95057964324951172 7 104 117 103
-3 -7 3.75088334083557129 55 52 55
-3 -7 4.06046295166015625 56 58 59
-3 -6.71685791015625 4 56 58 59
-3 -6.02223110198974609 5 102 105 120
-3 -6 4.87754249572753906 56 55 56
-3 -6 5.01945781707763672 73 65 71
-3 -5.89599418640136719 5 73 65 71
-2.96258234977722168 -9 3 72 86 81
-2.96358466148376465 -9 7 104 117 103
-2 -8.12752723693847656 4 69 65 73
-2 -8 3.71180391311645508 57 47 56
-2 -8 4.08806800842285156 30 28 32
-2.74980950355529785 -7 4 56 58 59
-2 -7.68384313583374023 4 30 28 32
-2.89413309097290039 -6 5 73 65 71
-2.03235197067260742 -2 4 72 65 139
-2 -2.03196477890014648 4 75 105 123
-2 -2 3.8705441951751709 49 43 53
-2 -2 4.03265047073364258 73 59 68
-2 -1.96217072010040283 4 73 59 68
-1.09962069988250732 -9 1 48 39 52
-1 -9.43644237518310547 1 49 33 51
-1 -9 0.973161756992340088 103 128 128
-1 -9 1.08933913707733154 70 45 59
-1.11817705631256104 -9 5 0 0 0
-1 -9.58589267730712891 5 93 108 94
-1 -9 4.9499812126159668 112 122 122
-1 -9 5.03969240188598633 86 93 78
-1 -8.97990036010742188 1 70 45 59
-1.72197091579437256 -8 4 30 28 32
-1.02435994148254395 -8 5 104 107 108
-1 -8 4.90945148468017578 64 50 59
-1.12719154357910156 -8 6 42 45 46
-1 -8.05829429626464844 6 36 36 36
-1 -8 6.05698823928833008 84 90 83
-1.02318239212036133 -7 0 115 117 117
-1 -7.02431249618530273 0 100 115 111
-1 -7 -0.025913383811712265 13 13 16
-1 -7 0.0226882975548505783 74 57 70
-1.32913327217102051 -7 4 63 56 61
-1 -7.29010438919067383 4 64 50 59
-1 -7 3.9345097541809082 132 132 133
-1 -7.91938066482543945 5 57 51 58
-1 -7 4.26466035842895508 92 76 83
-1.04823875427246094 -7 6 100 111 116
-1 -7 5.79062461853027344 69 60 65
-1 -7 6.87999343872070312 45 46 47
-1 -6.96724700927734375 0 74 57 70
-1 -6.93483495712280273 4 92 76 83
-1 -6.7919468879699707 6 45 46 47
-1.39697909355163574 -5 2 14 14 15
-1 -5.20893383026123047 2 81 70 80
-1 -5 1.93475639820098877 22 22 22
-1 -5 2.54968595504760742 52 45 50
-1.14036953449249268 -5 6 53 47 52
-1 -5.13097810745239258 6 60 59 60
-1 -5 5.97118520736694336 107 121 142
-1 -5 6.11169290542602539 45 42 45
-1 -4.94128227233886719 2 52 45 50
-1.32640528678894043 -4 3 19 16 20
-1 -4.58580589294433594 3 91 82 87
-1 -4 2.93259477615356445 89 83 82
-1 -4 3.2162480354309082 44 42 43
-1 -4.95932722091674805 6 45 42 45
-1 -3.92481350898742676 3 44 42 43
-1.95318686962127686 -2 4 73 59 68
-1.12610542774200439 0 3 64 36 60
-1 -0.0275732949376106262 3 52 38 54
-1 0 2.95683431625366211 93 118 94
-1 0 3.04189848899841309 7 8 11
-1 0.31356436014175415 3 7 8 11
-0.976040065288543701 -9 1 70 45 59
-0.211581423878669739 -9 2 73 51 68
0 -9.67933082580566406 2 62 36 54
0 -9 1.93707430362701416 82 107 84
0 -9 2.18755316734313965 101 61 74
-0.926361083984375 -9 5 86 93 78
-0.0526473000645637512 -9 6 36 36 36
0 -9.65544319152832031 6 63 63 57
0 -9 5.90344047546386719 41 43 50
0 -9 6.05010747909545898 110 100 94
0 -8.94514083862304688 2 101 61 74
-0.921721994876861572 -8 5 57 51 58
-0.925868690013885498 -8 6 84 90 83
0 -8.93294143676757812 6 110 100 94
-0.0510721504688262939 -8 7 15 14 12
0 -8.0497283935546875 7 45 44 43
0 -8 6.93343877792358398 130 134 135
0 -8 7.0569915771484375 127 127 124
-0.966320157051086426 -7 0 74 57 70
-0.918395578861236572 -7 4 92 76 83
-0.109368734061717987 -7 5 69 60 65
0 -7.10628890991210938 5 66 50 58
0 -7 4.97057580947875977 136 137 137
-0.8014029860496521 -7 6 45 46 47
0 -7 5.10306739807128906 47 39 45
0 -7.96094512939453125 7 127 127 124
0 -6.97113704681396484 5 47 39 45
-0.111735358834266663 -6 6 60 59 60
0 -6.10607051849365234 6 61 53 58
0 -6 5.97022438049316406 125 135 141
0 -6 6.08729124069213867 51 49 51
-0.954122066497802734 -5 2 52 45 50
-0.0392496585845947266 -5 4 102 123 125
0 -5.04007863998413086 4 115 122 120
0 -5 3.94769430160522461 0 0 0
0 -5 4.04093790054321289 85 74 79
-0.965232610702514648 -5 6 45 42 45
0 -5.97081518173217773 6 51 49 51
-0.94711756706237793 -4 3 44 42 43
0 -4.95024204254150391 4 85 74 79
-0.101853705942630768 -1 2 36 43 41
0 -1.52952265739440918 2 43 43 43
0 -1 1.85501348972320557 87 92 85
0 -1 2.02639985084533691 77 77 80
-0.0347589254379272461 -1 6 56 94 136
0 -1.049904465675354 6 56 105 78
0 -1 5.97251319885253906 114 128 79
0 -1 6.03782272338867188 33 23 33
-0.00372035428881645203 0 1 87 83 68
0 -0.00593208102509379387 1 87 92 85
0 0 0.998515903949737549 23 22 29
-0.00170023285318166018 0 2 93 118 94
-0.94935530424118042 0 3 7 8 11
0 0 2.00200986862182617 75 82 86
0 -0.969121992588043213 6 33 23 33
-0.0267460830509662628 1 1 117 87 83
0 1 0.989873528480529785 16 18 23
-0.0102180736139416695 1 2 71 103 80
0 1 2.02497434616088867 84 89 101
-0.0245148669928312302 2 1 73 85 57
0 2 0.991991281509399414 0 1 0
0 1.08558332920074463 2 84 89 101
0 2 1.0453956127166748 69 73 85
0 2.02790665626525879 1 69 73 85
0.0657161474227905273 -9 2 101 61 74
0.789206564426422119 -9 3 82 53 69
1 -9.71023750305175781 3 70 37 52
1 -9 2.92474222183227539 93 125 105
1 -9 3.24393057823181152 80 46 59
0.0784608349204063416 -9 6 110 100 94
1 -8.93366909027099609 3 80 46 59
0.133559107780456543 -8 7 127 127 124
0.024931933730840683 -7 5 47 39 45
0.0347192995250225067 -6 6 51 49 51
0.994035899639129639 -6 8 89 92 72
1 -6.00256776809692383 8 24 21 21
1 -6 7.99325323104858398 70 67 69
1 -6 8.06647205352783203 28 32 27
0.84999614953994751 -5 1 52 50 60
1 -5.03650188446044922 1 39 38 31
1 -5 0.777763843536376953 32 35 41
1 -5 1.02694165706634521 66 79 80
0.0479047372937202454 -5 4 85 74 79
0.896005392074584961 -5 7 68 63 66
1 -5.10641193389892578 7 70 67 69
1 -5 6.96478796005249023 101 128 121
1 -5.99341297149658203 8 28 32 27
1 -5 7.10413932800292969 72 72 86
1 -4.5962681770324707 1 66 79 80
0.906740784645080566 -4 2 35 33 34
1 -4.03460550308227539 2 113 103 99
1 -4 1.5328751802444458 38 30 39
1 -4 2.03493881225585938 89 97 102
1 -4.96503400802612305 7 72 72 86
0.984211623668670654 -3 0 40 37 43
1 -3.03141236305236816 0 74 77 95
1 -3 -0.00338119431398808956 30 30 30
1 -3 0.0230438690632581711 48 48 50
0.989023923873901367 -3 2 121 121 120
1 -3 1.88362288475036621 111 118 108
0.765073060989379883 -3 3 82 82 82
1 -3.03839445114135742 3 119 119 116
1 -3 3.05010819435119629 76 76 77
0.998122930526733398 -3 8 52 36 53
1 -3.00169229507446289 8 21 18 23
1 -3 7.99932718276977539 75 132 132
1 -3 8.02202510833740234 76 127 79
1 -2.99667477607727051 0 48 48 50
0.89485698938369751 -2 1 54 52 56
1 -2.18091654777526855 1 111 118 108
1 -2 0.969705641269683838 10 10 11
1 -2.81191682815551758 2 33 29 34
1 -2 1.27979695796966553 111 118 116
1 -2.49326896667480469 3 76 76 77
1 -2.99932193756103516 8 76 127 79
1 -1.97292053699493408 1 111 118 116
0.0827642828226089478 -1 2 77 77 80
0.803959965705871582 -1 4 96 112 116
1 -1.1332848072052002 4 45 42 47
1 -1 3.75757932662963867 70 69 71
1 -1 4.03343343734741211 63 61 73
0.0309123322367668152 -1 6 33 23 33
0.00154617242515087128 0 1 73 73 77
0.00805785786360502243 0 2 75 82 86
0.957709193229675293 0 3 104 126 100
1 -0.198917597532272339 3 70 69 71
1 0 2.8488154411315918 126 131 116
0.895031750202178955 0 4 5 4 5
1 0 4.03895425796508789 75 72 92
0.00980805978178977966 1 1 72 74 83
0.217566743493080139 1 2 84 89 101
0.959385991096496582 1 3 74 96 97
1 1 2.6851344108581543 109 131 112
0.935349881649017334 1 4 14 9 14
1 1 4.03405141830444336 82 86 111
0.00714709097519516945 2 1 69 73 85
1 1.14223301410675049 3 85 86 101
0.898066818714141846 2 4 45 34 57
1 2 3.79198646545410156 60 55 69
1 2 4.02704238891601562 65 59 89
0.935865581035614014 3 4 62 109 95
1 3 3.02447128295898438 75 74 103
1 3 4.0177311897277832 48 35 60
0.993808150291442871 4 3 17 24 37
1 3.06275010108947754 3 75 74 103
1 4 2.81331896781921387 73 79 104
1 3.01567792892456055 4 48 35 60
1 4 3.00593233108520508 43 30 43
0.987262547016143799 5 3 56 104 108
1 5 2.97310209274291992 51 51 80
1 5 3.0037848949432373 46 34 65
1 5.00466394424438477 3 46 34 65
1.25860822200775146 -9 3 80 46 59
1.95706415176391602 -8 2 91 111 88
2 -8.04845333099365234 2 91 113 79
2 -8 1.9643712043762207 24 18 28
2 -8 2.04427886009216309 92 51 64
2 -7.94180727005004883 2 92 51 64
1.98595762252807617 -6 0 14 11 15
2 -6.00753974914550781 0 12 10 17
2 -6 -0.0112632457166910172 105 119 84
2 -6 0.00165181898046284914 15 9 15
1.00498509407043457 -6 8 28 32 27
2 -5.84519243240356445 0 15 9 15
1.27255940437316895 -5 1 66 79 80
1.03583765029907227 -5 7 72 72 86
2 -4.00486850738525391 2 79 94 103
2 -4 1.87609517574310303 80 78 105
2 -4 2.00473380088806152 37 29 38
1.00248503684997559 -3 0 48 48 50
1.40726351737976074 -3 2 33 29 34
2 -3.85221266746520996 2 37 29 38
1.36894464492797852 -3 3 76 76 77
1.00071310997009277 -3 8 76 127 79
1.0273745059967041 -2 1 111 118 116
1.88742029666900635 -2 4 45 42 47
2 -2.03393220901489258 4 142 138 136
2 -2 3.60555291175842285 68 65 70
2 -2 4.17201089859008789 62 61 63
1.93144130706787109 -1 3 70 69 71
2 -1.15370798110961914 3 68 65 70
2 -1 2.9713890552520752 11 14 13
1.28319370746612549 -1 4 63 61 73
2 -1.75419449806213379 4 62 61 63
2 -1 3.08330512046813965 112 112 113
1.98923373222351074 -1 5 106 153 156
2 -1.07341873645782471 5 30 29 30
2 -1 4.88943576812744141 38 38 38
2 -1 5.01629781723022461 25 22 25
1.07825279235839844 0 3 66 63 67
2 -0.975452601909637451 3 112 112 113
1.48659944534301758 0 4 75 72 92
2 -0.984920084476470947 5 25 22 25
1.04467332363128662 1 3 85 86 101
1.79891467094421387 1 4 82 86 111
1.23895728588104248 2 4 65 59 89
1.1705399751663208 3 4 48 35 60
1.04926049709320068 4 3 43 30 43
1.039276123046875 5 3 46 34 65
2.93689823150634766 -9 7 108 105 99
3 -9.34630012512207031 7 10 9 12
3 -9 6.9650425910949707 53 34 45
3 -9 7.408721923828125 127 109 102
2.04692220687866211 -8 2 92 51 64
2.9202888011932373 -8 5 85 103 113
3 -8.08088493347167969 5 78 45 57
3 -8 4.98133325576782227 104 120 96
3 -8 5.07432746887207031 65 51 71
3 -8.96651649475097656 7 127 109 102
2.96741843223571777 -7 4 81 79 73
3 -7.03197574615478516 4 104 120 96
3 -7 3.9649503231048584 7 6 8
3 -7.9810032844543457 5 65 51 71
3 -7 4.03253364562988281 46 30 38
2.88631916046142578 -7 6 77 75 84
3 -7.07212162017822266 6 40 29 38
3 -7 5.98159980773925781 114 122 112
3 -7 6.07003593444824219 74 71 82
2.02461409568786621 -6 0 15 9 15
3 -6.96098947525024414 4 46 30 38
3 -6.98139095306396484 6 74 71 82
2.18577051162719727 -4 2 37 29 38
2.35959434509277344 -2 4 62 61 63
2.92768192291259766 -2 5 30 29 30
3 -2.01380276679992676 5 132 153 150
3 -2 4.82596540451049805 106 107 109
3 -2 5.0757136344909668 23 22 23
2.02194619178771973 -1 3 112 112 113
2.07594156265258789 -1 5 25 22 25
3 -1.92519402503967285 5 23 22 23
3.98293662071228027 -9 4 60 72 97
4 -9.13676071166992188 4 82 37 50
4 -9 3.99501180648803711 116 112 76
4 -9 4.02096223831176758 73 42 77
3.14234447479248047 -9 7 127 109 102
4 -8.9947052001953125 4 73 42 77
3.25263762474060059 -8 5 65 51 71
3.02912211418151855 -7 4 46 30 38
3.21218442916870117 -7 6 74 71 82
3.07413053512573242 -2 5 23 22 23
4.24428510665893555 -9 4 73 42 77
7.92094802856445312 1 -9 116 113 90
8 0.94510948657989502 -9 18 25 22
8 1 -9.73443889617919922 6 7 10
8 1 -8.94596767425537109 41 47 28
8 1.08180379867553711 -9 41 47 28
8.73443889617919922 1 -9 41 47 28
3 2 1 0
3 1 3 0
3 2 0 4
3 0 3 4
3 7 6 5
3 6 8 5
3 7 5 9
3 5 8 9
3 1 2 10
3 1 10 3
3 10 2 4
3 10 4 3
3 6 7 11
3 6 11 8
3 11 7 9
3 11 9 8
3 14 13 12
3 13 15 12
3 17 14 12
3 16 17 12
3 15 18 16
3 12 15 16
3 17 16 19
3 22 19 16
3 22 16 20
3 18 21 16
3 21 20 16
3 21 23 20
3 22 20 24
3 20 23 24
3 27 26 25
3 26 28 25
3 27 25 29
3 25 28 29
3 13 14 30
3 13 30 15
3 31 30 14
3 17 31 14
3 30 31 18
3 15 30 18
3 31 17 19
3 21 18 31
3 21 31 32
3 19 22 31
3 22 32 31
3 21 32 23
3 32 22 24
3 32 24 23
3 26 27 33
3 26 33 28
3 33 27 29
3 33 29 28
3 36 35 34
3 35 37 34
3 36 34 38
3 34 37 38
3 41 40 39
3 40 42 39
3 35 36 43
3 35 43 37
3 41 39 44
3 39 42 44
3 43 36 38
3 43 38 37
3 47 46 45
3 46 48 45
3 47 45 49
3 52 49 45
3 52 45 50
3 48 51 45
3 51 50 45
3 51 53 50
3 52 50 54
3 50 53 54
3 57 56 55
3 56 58 55
3 40 41 59
3 60 42 40
3 60 40 61
3 59 62 40
3 62 61 40
3 61 63 60
3 57 55 64
3 67 64 55
3 67 55 65
3 58 66 55
3 66 65 55
3 66 68 65
3 59 41 44
3 42 60 69
3 42 69 44
3 62 59 69
3 59 44 69
3 60 63 69
3 65 46 47
3 65 47 67
3 67 47 70
3 46 65 68
3 46 68 48
3 48 68 71
3 70 47 49
3 72 70 49
3 71 73 48
3 48 73 51
3 74 72 49
3 74 49 52
3 51 73 75
3 53 51 75
3 74 52 54
3 76 74 54
3 76 54 53
3 75 76 53
3 56 57 77
3 56 77 58
3 61 62 78
3 61 78 63
3 77 57 64
3 67 80 77
3 67 77 64
3 80 79 77
3 58 77 66
3 79 66 77
3 66 79 81
3 68 66 81
3 78 62 69
3 78 69 63
3 82 83 80
3 82 80 70
3 70 80 67
3 83 82 71
3 83 71 81
3 81 71 68
3 82 70 72
3 73 71 82
3 73 82 84
3 72 74 82
3 74 84 82
3 73 84 75
3 84 74 76
3 84 76 75
3 87 86 85
3 86 88 85
3 87 85 89
3 85 88 89
3 92 91 90
3 91 93 90
3 96 95 94
3 95 97 94
3 92 90 98
3 90 93 98
3 79 80 99
3 101 96 79
3 101 79 99
3 96 94 79
3 81 79 100
3 94 100 79
3 97 103 102
3 97 102 94
3 94 102 100
3 103 104 102
3 107 106 105
3 106 108 105
3 83 109 111
3 83 111 80
3 110 99 111
3 99 80 111
3 83 113 109
3 83 112 113
3 83 81 112
3 100 112 81
3 99 110 101
3 115 112 100
3 115 100 114
3 114 100 102
3 104 116 114
3 102 104 114
3 107 105 117
3 105 108 117
3 111 109 118
3 109 113 118
3 115 114 119
3 114 116 119
3 122 121 120
3 121 123 120
3 126 125 124
3 125 127 124
3 122 120 128
3 131 128 120
3 131 120 129
3 123 130 120
3 130 129 120
3 130 132 129
3 126 124 133
3 124 127 133
3 131 129 134
3 129 132 134
3 86 87 135
3 86 135 88
3 135 87 89
3 135 89 88
3 138 137 136
3 137 139 136
3 138 136 140
3 136 139 140
3 91 92 141
3 142 93 91
3 142 91 143
3 141 144 91
3 144 143 91
3 143 145 142
3 95 96 146
3 147 97 95
3 147 95 148
3 146 149 95
3 149 148 95
3 148 150 147
3 141 92 98
3 93 142 151
3 93 151 98
3 144 141 151
3 141 98 151
3 142 145 151
3 152 146 96
3 101 152 96
3 97 147 103
3 149 146 154
3 146 153 154
3 146 152 153
3 147 104 103
3 147 155 104
3 147 150 155
3 156 155 150
3 154 153 157
3 156 158 155
3 106 107 159
3 106 159 108
3 110 111 160
3 110 152 101
3 110 162 152
3 110 160 162
3 163 162 160
3 113 112 161
3 112 115 161
3 152 162 164
3 152 164 153
3 164 162 165
3 153 164 166
3 153 166 157
3 164 116 166
3 155 166 104
3 116 104 166
3 155 158 166
3 159 107 117
3 159 117 108
3 160 111 118
3 113 161 167
3 113 167 118
3 163 160 167
3 160 118 167
3 167 168 170
3 167 119 168
3 167 161 119
3 115 119 161
3 165 169 164
3 168 119 116
3 168 116 171
3 164 169 116
3 169 171 116
3 121 122 172
3 121 172 123
3 175 174 173
3 174 176 173
3 177 178 170
3 177 170 126
3 168 125 170
3 125 126 170
3 125 168 171
3 125 171 127
3 178 177 171
3 177 127 171
3 172 122 128
3 130 123 172
3 130 172 179
3 128 131 172
3 131 179 172
3 175 173 180
3 179 132 130
3 173 176 180
3 177 126 133
3 177 133 127
3 179 131 134
3 179 134 132
3 183 182 181
3 182 184 181
3 187 186 185
3 186 188 185
3 191 190 189
3 190 183 181
3 190 181 189
3 189 181 192
3 192 181 137
3 192 137 138
3 181 184 137
3 193 137 194
3 184 194 137
3 137 193 139
3 187 185 195
3 185 188 195
3 197 191 189
3 196 197 189
3 189 192 196
3 192 198 196
3 194 199 140
3 194 140 193
3 199 198 140
3 138 140 192
3 198 192 140
3 193 140 139
3 201 197 196
3 200 201 196
3 202 203 200
3 202 200 198
3 198 200 196
3 198 199 202
3 201 200 204
3 200 203 204
3 143 144 205
3 206 145 143
3 206 143 207
3 205 208 143
3 208 207 143
3 207 209 206
3 148 149 210
3 148 210 150
3 205 144 151
3 145 206 211
3 145 211 151
3 208 205 211
3 205 151 211
3 206 209 211
3 210 149 154
3 156 150 210
3 156 210 212
3 154 157 210
3 157 212 210
3 156 212 158
3 162 163 213
3 162 213 165
3 212 157 166
3 212 166 158
3 213 163 167
3 169 165 213
3 169 213 214
3 167 170 213
3 170 214 213
3 169 214 171
3 217 216 215
3 216 218 215
3 221 220 219
3 220 222 219
3 174 175 223
3 174 223 176
3 214 170 178
3 214 178 171
3 225 224 226
3 227 228 224
3 227 224 215
3 225 217 224
3 217 215 224
3 215 218 227
3 221 219 229
3 232 229 219
3 232 219 230
3 222 231 219
3 231 230 219
3 231 233 230
3 223 175 180
3 223 180 176
3 226 224 234
3 224 228 234
3 237 236 235
3 236 238 235
3 240 232 230
3 239 240 230
3 233 242 241
3 233 241 230
3 230 241 239
3 242 243 241
3 246 245 244
3 245 247 244
3 237 235 248
3 251 248 235
3 251 235 249
3 238 250 235
3 250 249 235
3 252 253 249
3 252 249 239
3 250 240 249
3 240 239 249
3 239 241 254
3 252 239 254
3 241 243 254
3 246 244 255
3 244 247 255
3 251 249 256
3 249 253 256
3 183 257 182
3 182 257 184
3 260 259 258
3 259 261 258
3 186 187 262
3 186 262 188
3 190 191 263
3 183 190 263
3 183 263 257
3 257 263 264
3 194 184 266
3 194 266 265
3 184 257 266
3 267 266 264
3 257 264 266
3 266 260 258
3 266 258 265
3 265 258 268
3 261 269 268
3 258 261 268
3 262 187 195
3 262 195 188
3 270 263 191
3 197 270 191
3 263 270 264
3 264 270 271
3 265 199 194
3 265 272 199
3 264 271 267
3 271 273 267
3 265 268 272
3 268 274 272
3 269 275 274
3 268 269 274
3 276 270 197
3 201 276 197
3 203 202 271
3 203 271 276
3 276 271 270
3 199 272 277
3 199 277 202
3 273 271 277
3 271 202 277
3 279 277 272
3 279 272 278
3 278 272 274
3 275 280 278
3 274 275 278
3 276 201 204
3 276 204 203
3 282 279 278
3 281 282 278
3 280 283 281
3 278 280 281
3 286 285 284
3 287 288 284
3 287 284 281
3 285 282 284
3 282 281 284
3 281 283 287
3 290 286 284
3 289 290 284
3 288 291 289
3 284 288 289
3 290 289 292
3 289 291 292
3 207 208 293
3 207 293 209
3 296 295 294
3 295 297 294
3 208 211 293
3 293 211 209
3 296 294 298
3 294 297 298
3 301 300 299
3 300 302 299
3 216 217 303
3 216 303 218
3 301 299 304
3 299 302 304
3 221 305 220
3 220 305 222
3 225 226 306
3 228 227 303
3 228 303 306
3 217 225 303
3 225 306 303
3 303 227 218
3 305 221 229
3 232 308 305
3 232 305 229
3 308 307 305
3 222 305 231
3 307 231 305
3 231 307 309
3 233 231 309
3 306 226 234
3 306 234 228
3 236 237 310
3 236 310 238
3 311 312 308
3 311 308 240
3 240 308 232
3 312 311 313
3 312 313 233
3 312 233 309
3 233 313 242
3 242 313 243
3 245 246 314
3 245 314 247
3 310 237 248
3 250 238 310
3 250 310 315
3 248 251 310
3 251 315 310
3 253 252 311
3 253 311 315
3 240 250 311
3 250 315 311
3 313 311 252
3 254 313 252
3 313 254 243
3 317 316 318
3 317 319 316
3 314 246 255
3 314 255 247
3 315 251 256
3 315 256 253
3 322 321 320
3 318 320 321
3 318 260 320
3 318 316 260
3 259 260 316
3 324 325 323
3 316 261 259
3 316 326 261
3 316 319 326
3 327 326 319
3 324 323 328
3 327 329 326
3 330 331 322
3 330 322 267
3 320 266 322
3 266 267 322
3 266 320 260
3 331 330 325
3 330 323 325
3 330 332 323
3 323 332 333
3 323 333 328
3 332 269 333
3 326 333 261
3 269 261 333
3 326 329 333
3 334 330 267
3 273 334 267
3 330 334 332
3 332 334 335
3 332 335 275
3 269 332 275
3 334 273 277
3 277 279 336
3 277 336 334
3 334 336 335
3 335 336 280
3 275 335 280
3 337 336 279
3 282 337 279
3 336 337 283
3 280 336 283
3 285 286 338
3 288 287 337
3 288 337 338
3 282 285 337
3 285 338 337
3 337 287 283
3 339 338 286
3 290 339 286
3 338 339 291
3 288 338 291
3 339 290 292
3 339 292 291
3 342 341 340
3 341 343 340
3 295 296 344
3 295 344 297
3 347 346 345
3 346 348 345
3 342 340 349
3 340 343 349
3 344 296 298
3 344 298 297
3 352 351 350
3 353 354 350
3 353 350 345
3 351 347 350
3 347 345 350
3 357 353 345
3 357 345 355
3 348 356 345
3 356 355 345
3 356 358 355
3 300 301 359
3 300 359 302
3 352 350 360
3 350 354 360
3 357 355 361
3 355 358 361
3 359 301 304
3 359 304 302
3 307 308 362
3 307 362 309
3 362 308 312
3 362 312 309
3 317 318 363
3 364 319 317
3 364 317 365
3 363 366 317
3 366 365 317
3 365 367 364
3 321 322 368
3 325 324 363
3 325 363 368
3 318 321 363
3 321 368 363
3 363 370 366
3 363 369 370
3 363 324 369
3 328 369 324
3 319 364 327
3 327 364 367
3 327 367 329
3 370 369 367
3 369 329 367
3 368 322 331
3 368 331 325
3 369 328 333
3 369 333 329
3 373 372 371
3 372 374 371
3 341 342 375
3 341 375 343
3 373 371 376
3 371 374 376
3 347 377 346
3 346 377 348
3 375 342 349
3 375 349 343
3 351 352 378
3 354 353 377
3 354 377 378
3 347 351 377
3 351 378 377
3 356 348 377
3 356 377 379
3 353 357 377
3 357 379 377
3 356 379 358
3 378 352 360
3 378 360 354
3 379 357 361
3 379 361 358
3 365 366 380
3 365 380 367
3 380 366 370
3 380 370 367
3 372 373 381
3 372 381 374
3 381 373 376
3 381 376 374
3 384 383 382
3 383 385 382
3 384 382 386
3 382 385 386
3 383 384 387
3 383 387 385
3 387 384 386
3 387 386 385
