ply
format ascii 1.0
element vertex 634
property float x
property float y
property float z
property uchar red
property uchar green
property uchar blue
element face 1260
property list uchar int vertex_indices
end_header
-9.92062282562255859 -9 6 72 255 126
-9 -9.92062282562255859 6 102 255 80
-9 -9 5.27477216720581055 105 255 154
-9.96255302429199219 -9 7 57 255 67
-9 -9.96255302429199219 7 136 255 64
-9.97379302978515625 -9 8 85 255 45
-9 -9.97379302978515625 8 180 255 51
-9 -9 8.97379302978515625 138 255 53
-9 -8.10634708404541016 6 85 255 98
-9.93604278564453125 -8 7 59 255 97
-9 -8 6.08617830276489258 89 255 125
-9.96608352661132812 -8 8 56 255 46
-9 -8 8.96608352661132812 109 255 55
-9.780853271484375 -7 7 61 255 115
-9 -7 6.79489803314208984 91 255 141
-9.95061302185058594 -7 8 47 255 57
-9 -7 8.95061302185058594 92 255 56
-9 -6.65833568572998047 7 72 255 83
-9.91048812866210938 -6 8 48 255 64
-9 -6 7.40297651290893555 73 255 90
-9 -6 8.91048812866210938 86 255 57
-9.64340782165527344 -5 8 48 255 60
-9 -5 7.89971780776977539 74 255 87
-9 -5 8.64340782165527344 90 255 57
-9 -4.75116205215454102 8 90 255 57
-9.34901142120361328 4 8 255 216 30
-9 3.92989993095397949 8 255 150 39
-9 4 7.97023296356201172 255 215 48
-9 4 8.34901142120361328 238 255 36
-9.90691375732421875 5 8 154 255 28
-9 5 7.42638635635375977 165 255 43
-9 5 8.90691375732421875 104 255 33
-9.81818103790283203 6 7 69 255 33
-9 5.61676406860351562 7 165 255 43
-9 6 6.73842048645019531 87 255 48
-9.95229625701904297 6 8 25 255 44
-9 6 8.95229625701904297 30 255 97
-9.59609699249267578 7 6 36 255 92
-9 6.89591360092163086 6 87 255 48
-9 7 5.91376733779907227 48 255 95
-9.94463062286376953 7 7 29 255 141
-9.96812820434570312 7 8 22 255 189
-9 7 8.96812820434570312 26 255 236
-9.452606201171875 8 5 35 255 189
-9 7.94978427886962891 5 48 255 95
-9 8 4.95068359375 44 255 184
-9.9417877197265625 8 6 31 255 238
-9.96712207794189453 8 7 25 223 255
-9.97551822662353516 8 8 20 177 255
-9 8 8.97551822662353516 23 138 255
-9 8.452606201171875 5 42 255 233
-9 8.9417877197265625 6 37 229 255
-9 8.96712207794189453 7 30 184 255
-9 8.97551822662353516 8 23 138 255
-8 -9.90482807159423828 6 149 255 92
-8 -9 5.41510105133056641 120 255 135
-8 -9.95993709564208984 7 184 255 73
-8 -9.97285270690917969 8 229 255 59
-8 -9 8.97285270690917969 188 255 61
-8 -8.27966117858886719 6 120 255 97
-8 -8 6.22644901275634766 102 255 102
-8 -8 8.96406364440917969 159 255 63
-8 -7 6.92453813552856445 105 255 118
-8 -7 8.94543838500976562 142 255 65
-8 -6.87444782257080078 7 110 255 83
-8 -6 7.53454303741455078 106 255 84
-8 -6 8.88953590393066406 136 255 66
-8.20301628112792969 -5 8 90 255 57
-8 -5.05399417877197266 8 136 255 66
-8.76567745208740234 4 8 238 255 36
-8 4.1871185302734375 8 188 255 42
-8 5 7.55869436264038086 121 255 50
-8 5 8.88386154174804688 59 255 39
-8 5.80902528762817383 7 121 255 50
-8 6 6.86950445175170898 55 255 61
-8 6 8.94752120971679688 35 255 146
-8.3502960205078125 7 6 42 255 143
-8 7 6.05011081695556641 49 255 187
-8 7 8.96641826629638672 31 232 255
-8.63732242584228516 8 5 42 255 233
-8 7.05312061309814453 6 49 255 187
-8 8 5.09292030334472656 48 237 255
-8 8 8.97478294372558594 28 104 255
-8 8.93414020538330078 6 43 193 255
-8 8.96526050567626953 7 35 149 255
-8 8.97478294372558594 8 28 104 255
-7 -9.88562870025634766 6 190 255 104
-7 -9 5.52965831756591797 146 255 134
-7 -9.95740509033203125 7 227 255 83
-7 -9.97198581695556641 8 255 235 66
-7 -9 8.97198581695556641 233 255 69
-7 -8.42099761962890625 6 162 255 109
-7 -8 6.34068107604980469 144 255 114
-7 -8 8.96214008331298828 205 255 72
-7.29345464706420898 -7 7 110 255 83
-7 -7.04817390441894531 7 168 255 91
-7 -7 7.03393268585205078 154 255 94
-7 -7 8.94012355804443359 188 255 74
-7 -6 7.64212894439697266 150 255 95
-7 -6 8.86237716674804688 182 255 75
-7 -5.27373123168945312 8 182 255 75
-7 4.38723134994506836 8 144 255 49
-7 5 7.66692495346069336 83 255 57
-7 5 8.85321903228759766 44 255 69
-7 5.96661281585693359 7 83 255 57
-7 6 6.97716617584228516 62 255 108
-7 6 8.94265651702880859 40 255 190
-7 7 6.16783618927001953 55 255 227
-7 7 8.96480369567871094 36 195 255
-7 7.17792749404907227 6 55 255 227
-7 8 5.21233797073364258 54 203 255
-7 8 8.97410869598388672 32 75 255
-7 8.92590618133544922 6 49 161 255
-7 8.96349620819091797 7 41 118 255
-7 8.97410869598388672 8 32 75 255
-6 -9.86346149444580078 6 225 255 115
-6 -9 5.61958456039428711 180 255 147
-6 -9.95510578155517578 7 255 245 92
-6 -9.97123336791992188 8 255 195 74
-6 -9 8.97123336791992188 255 235 77
-6 -8.53185272216796875 6 198 255 121
-6 -8 6.43018102645874023 180 255 126
-6 -8 8.96041965484619141 246 255 80
-6 -7.17793035507202148 7 207 255 101
-6 -7 7.12523698806762695 193 255 104
-6 -7 8.93501186370849609 229 255 82
-6 -6 7.72669696807861328 189 255 106
-6 -6 8.82844829559326172 223 255 83
-6 -5.44599294662475586 8 223 255 83
-6 4.54422187805175781 8 104 255 54
-6 5 7.75202608108520508 64 255 78
-6 5 8.8136749267578125 50 255 114
-6.73263216018676758 6 7 52 255 148
-6 6 7.06785726547241211 58 255 189
-6 6 8.93801403045654297 45 255 230
-6 6.08369588851928711 7 58 255 189
-6 7 6.25995731353759766 62 248 255
-6 7 8.96337223052978516 40 162 255
-6 7.27560186386108398 6 62 248 255
-6 8 5.30583715438842773 61 174 255
-6 8 8.97352504730224609 36 48 255
-6 8.91759681701660156 6 54 133 255
-6 8.96192455291748047 7 46 91 255
-6 8.97352504730224609 8 36 48 255
-5 -9.84030437469482422 6 255 254 125
-5 -9 5.68565797805786133 202 248 154
-5 -9.95320606231689453 7 255 212 101
-5 -9.97063446044921875 8 255 159 81
-5 -9 8.97063446044921875 255 199 85
-5 -8.61325454711914062 6 228 255 131
-5 -8 6.49584674835205078 211 255 136
-5 -8 8.95901679992675781 255 227 87
-5 -7.27301740646362305 7 240 255 110
-5 -7 7.1920623779296875 227 255 113
-5 -7 8.93056583404541016 255 243 90
-5 -6 7.78889799118041992 222 255 115
-5 -6 8.78966522216796875 255 249 91
-5 -5.57243967056274414 8 255 249 91
-5 4.65953874588012695 8 69 255 60
-5 5 7.81464242935180664 70 255 120
-5 5 8.76664924621582031 55 255 155
-5 6 7.13586044311523438 63 255 224
-5 6 8.93400382995605469 50 244 255
-5 6.1676325798034668 7 63 255 224
-5 7 6.32749700546264648 68 217 255
-5 7 8.96221256256103516 44 133 255
-5 7.34721994400024414 6 68 217 255
-5 8 5.37441635131835938 66 148 255
-5 8 8.97306346893310547 54 39 255
-5 8.91003322601318359 6 60 109 255
-5 8.96064662933349609 7 50 68 255
-5 8.97306346893310547 8 54 39 255
-4 -9.82035732269287109 6 255 228 133
-4 -9 5.72839117050170898 204 225 148
-4 -9.95186805725097656 7 255 182 108
-4 -9.97022533416748047 8 255 126 87
-4 -9 8.97022533416748047 255 166 91
-4 -8.66587734222412109 6 248 248 136
-4 -8 6.53827238082885742 221 237 135
-4 -8 8.958038330078125 255 194 94
-4 -7.33439922332763672 7 255 239 118
-4 -7 7.23516416549682617 255 253 121
-4 -7 8.92730426788330078 255 210 96
-4 -6 7.82915544509887695 248 251 121
-4 -6 8.75313568115234375 255 217 98
-4 -5.65416479110717773 8 255 217 98
-4 4.73413467407226562 8 65 255 92
-4 5 7.85519504547119141 76 255 156
-4 5 8.72044658660888672 59 255 191
-4 6 7.17973995208740234 68 253 255
-4 6 8.93107700347900391 54 213 255
-4 6.22182750701904297 7 68 253 255
-4 7 6.37113332748413086 73 191 255
-4 7 8.96140766143798828 48 107 255
-4 7.3934931755065918 6 73 191 255
-4 8 5.41873693466186523 71 126 255
-4 8 8.97274875640869141 81 43 255
-4 8.90426921844482422 6 64 88 255
-4 8.95975780487060547 7 61 54 255
-4 8.97274875640869141 8 81 43 255
-3 -9.80930233001708984 6 245 199 135
-3 -9 5.74808979034423828 203 208 144
-3 -9.95121860504150391 7 255 156 114
-3 -9.97003078460693359 8 255 96 92
-3 -9 8.97003078460693359 255 136 96
-3 -8.69012546539306641 6 231 212 133
-3 -8 6.55781412124633789 220 216 132
-3 -8 8.95756721496582031 255 164 99
-3 -7.36265659332275391 7 249 209 121
-3 -7 7.25499916076660156 240 214 120
-3 -7 8.92568111419677734 255 180 102
-3 -6 7.84772109985351562 234 213 119
-3 -6 8.73149299621582031 255 187 103
-3 -5.69182538986206055 8 255 187 103
-3 4.76858043670654297 8 69 255 129
-3 5 7.87393426895141602 80 255 189
-3 5 8.69209861755371094 63 255 224
-3 6 7.1999812126159668 72 226 255
-3 6 8.92962360382080078 57 185 255
-3 6.24683618545532227 7 72 226 255
-3 7 6.39127492904663086 77 167 255
-3 7 8.96101951599121094 51 84 255
-3 7.41484928131103516 6 77 167 255
-3 8 5.43919610977172852 75 106 255
-3 8 8.97259807586669922 105 45 255
-3 8.90132713317871094 6 68 69 255
-3 8.95932865142822266 7 86 57 255
-3 8.97259807586669922 8 105 45 255
-2 -9.81118965148925781 6 235 172 133
-2 -9 5.74489450454711914 198 191 141
-2 -9.951324462890625 7 255 132 118
-2 -9.97006130218505859 8 255 123 95
-2 -9 8.97006130218505859 255 108 99
-2 -8.68618392944335938 6 221 185 131
-2 -8 6.55463409423828125 209 190 129
-2 -8 8.95764255523681641 255 136 103
-2 -7.35805177688598633 7 238 178 120
-2 -7 7.25177192687988281 229 184 119
-2 -7 8.92594718933105469 255 152 105
-2 -6 7.84470796585083008 223 183 118
-2 -6 8.73525810241699219 255 159 107
-2 -5.68571758270263672 8 255 159 107
-2 4.76313400268554688 8 72 255 161
-2 5 7.87097597122192383 83 255 217
-2 5 8.69695472717285156 65 255 253
-2 6 7.19680261611938477 75 201 255
-2 6 8.92985439300537109 59 159 255
-2 6.24291038513183594 7 75 201 255
-2 7 6.38810539245605469 80 146 255
-2 7 8.96107959747314453 53 62 255
-2 7.41147994995117188 6 80 146 255
-2 8 5.43597173690795898 78 88 255
-2 8 8.97262096405029297 126 47 255
-2 8.90180301666259766 6 89 71 255
-2 8.95939540863037109 7 108 60 255
-2 8.97262096405029297 8 126 47 255
-1 -9.82527542114257812 6 230 151 133
-1 -9 5.7187957763671875 193 177 140
-1 -9.95217418670654297 7 255 133 120
-1 -9.97031688690185547 8 255 155 97
-1 -9 8.97031688690185547 255 123 102
-1 -8.65403652191162109 6 216 166 131
-1 -8 6.528717041015625 205 172 129
-1 -8 8.95825958251953125 255 109 105
-1 -7.32055807113647461 7 233 154 120
-1 -7 7.22545909881591797 225 161 119
-1 -7 8.92805957794189453 255 126 108
-1 -6 7.82010602951049805 218 161 117
-1 -6 8.76241970062255859 253 132 109
-1 -5.63581323623657227 8 253 132 109
-1 4.7177734375 8 73 255 191
-1 5 7.8463134765625 85 255 243
-1 5 8.73209381103515625 67 229 255
-1 6 7.1701807975769043 77 178 255
-1 6 8.93173599243164062 61 136 255
-1 6.21002197265625 7 77 178 255
-1 7 6.3616023063659668 82 127 255
-1 7 8.96158409118652344 67 55 255
-1 7.3833622932434082 6 82 127 255
-1 8 5.4090418815612793 88 79 255
-1 8 8.97281646728515625 145 49 255
-1 8.90559482574462891 6 109 72 255
-1 8.95995330810546875 7 127 61 255
-1 8.97281646728515625 8 145 49 255
0 -9.84664821624755859 6 231 135 135
0 -9 5.6696314811706543 194 168 141
0 -9.95368099212646484 7 255 158 121
0 -9.9707794189453125 8 255 184 98
0 -9 8.9707794189453125 255 152 102
0 -8.59346389770507812 6 217 152 133
0 -8 6.47986936569213867 206 160 130
0 -8 8.95936298370361328 255 130 106
0 -7.24985456466674805 7 235 134 122
0 -7 7.17580461502075195 226 142 120
0 -7 8.93169784545898438 255 117 108
0 -6 7.77378225326538086 220 144 119
0 -6 8.80064201354980469 255 113 110
0 -5.54175615310668945 8 255 113 110
0 4.63219213485717773 8 74 255 217
0 5 7.79981708526611328 86 243 255
0 5 8.77985763549804688 67 204 255
0 6 7.11984586715698242 77 156 255
0 6 8.93499469757080078 61 114 255
0 6.14786243438720703 7 77 156 255
0 7 6.31153440475463867 82 108 255
0 7 8.96248912811279297 87 55 255
0 7.33025598526000977 6 82 108 255
0 8 5.35817861557006836 106 80 255
0 8 8.97317123413085938 162 49 255
0 8.91195392608642578 6 126 73 255
0 8.96095371246337891 7 144 62 255
0 8.97317123413085938 8 162 49 255
1 -9.8698272705078125 6 238 155 138
1 -9 5.59706592559814453 202 164 145
1 -9.95570564270019531 7 255 181 120
1 -9.97142219543457031 8 255 211 97
1 -9 8.97142219543457031 255 178 101
1 -8.50401782989501953 6 225 140 136
1 -8 6.40769529342651367 213 151 134
1 -8 8.96086215972900391 255 156 105
1 -7.14529180526733398 7 242 132 124
1 -7 7.10229396820068359 233 126 123
1 -7 8.93637371063232422 255 142 107
1 -6 7.7054595947265625 227 129 122
1 -6 8.83848285675048828 255 138 109
1 -5.40281581878662109 8 255 138 109
1 4.50575876235961914 8 73 255 242
1 5 7.73121500015258789 85 221 255
1 5 8.82525157928466797 67 181 255
1 6 7.04525232315063477 77 136 255
1 6 8.93921375274658203 60 92 255
1 6.05580806732177734 7 77 136 255
1 7 6.23743581771850586 81 89 255
1 7 8.96372795104980469 104 54 255
1 7.25167703628540039 6 81 89 255
1 8 5.28292608261108398 121 79 255
1 8 8.97366714477539062 177 48 255
1 8.91981220245361328 6 141 72 255
1 8.96231842041015625 7 159 61 255
1 8.97366714477539062 8 177 48 255
2 -9.89125823974609375 6 252 180 142
2 -9 5.50054836273193359 215 162 152
2 -9.95808124542236328 7 255 202 117
2 -9.97220897674560547 8 255 237 94
2 -9 8.97220897674560547 255 203 99
2 -8.38496494293212891 6 238 152 141
2 -8 6.31155014038085938 227 143 139
2 -8 8.962646484375 255 180 102
2 -7.00581645965576172 7 255 158 127
2 -7 7.00409841537475586 247 143 127
2 -7 8.94157505035400391 255 166 105
2 -6 7.61467838287353516 240 137 126
2 -6 8.87053680419921875 255 161 106
2 -5.217803955078125 8 255 161 106
2 4.33744144439697266 8 71 244 255
2 5 7.64005279541015625 82 200 255
2 5 8.86230278015136719 65 159 255
1.45704519748687744 6 7 77 136 255
2 5.92753410339355469 7 82 200 255
2 6 6.95044565200805664 89 156 255
2 6 8.94394493103027344 59 72 255
2 7 6.13855314254760742 88 79 255
2 7 8.96521472930908203 120 53 255
2 7.14684295654296875 6 88 79 255
2 8 5.18254613876342773 134 77 255
2 8 8.97427654266357422 190 47 255
2 8.92816162109375 6 154 70 255
2 8.96394920349121094 7 172 59 255
2 8.97427654266357422 8 190 47 255
3 -9.90948772430419922 6 255 197 138
3 -9 5.3792414665222168 234 160 160
3 -9.96064567565917969 7 255 224 112
3 -9.97309780120849609 8 247 255 91
3 -9 8.97309780120849609 255 227 95
3 -8.23519802093505859 6 255 176 145
3 -8 6.19046688079833984 246 157 145
3 -8 8.96460247039794922 255 203 98
2.03356504440307617 -7 7 247 143 127
3 -7 6.89109945297241211 237 146 144
3 -7 8.94686985015869141 255 188 100
3 -6.81873941421508789 7 255 164 126
3 -6 7.50073575973510742 255 161 128
3 -6 8.89583969116210938 255 183 102
2.93615317344665527 -5 8 255 165 106
3 -5 7.99296331405639648 255 165 129
3 -5 8.11323738098144531 255 187 102
3 -4.98256731033325195 8 255 187 102
3 4.12568187713623047 8 68 221 255
3 5 7.52563667297363281 79 179 255
3 5 8.89068222045898438 62 137 255
3 5.76099014282226562 7 79 179 255
3 6 6.83669900894165039 85 136 255
3 6 8.94880294799804688 61 56 255
3 7 6.0137639045715332 100 76 255
3 7 8.96685886383056641 134 50 255
3 7.01458501815795898 6 100 76 255
3 8 5.05593776702880859 146 74 255
3 8 8.97496891021728516 202 45 255
3 8.93626594543457031 6 166 67 255
3 8.96574497222900391 7 184 57 255
3 8.97496891021728516 8 202 45 255
4 -9.92435455322265625 6 255 212 131
4 -9 5.23192262649536133 255 179 165
4 -9.9632568359375 7 255 245 106
4 -9.97404861450195312 8 221 255 85
4 -9 8.97404861450195312 255 251 89
4 -8.05310821533203125 6 255 189 137
4 -8 6.04304218292236328 255 174 143
4 -8 8.96662807464599609 255 226 92
4 -7 6.75520801544189453 255 166 147
4 -7 8.95195388793945312 255 210 95
4 -6.59202098846435547 7 255 180 119
4 -6 7.36259698867797852 255 177 121
4 -6 8.9152679443359375 255 205 96
4 -5 7.86143732070922852 255 180 122
4 -5 8.71285438537597656 255 208 96
4 -4.65602397918701172 8 255 208 96
3.49260687828063965 4 8 68 221 255
4 3.8415069580078125 8 69 255 229
4 4 7.93275833129882812 81 239 255
4 4 8.54676723480224609 64 200 255
4 5 7.38694190979003906 74 159 255
4 5 8.91197299957275391 58 115 255
4 5.55953025817871094 7 74 159 255
4 6 6.699371337890625 80 116 255
4 6 8.95350456237792969 75 53 255
3.09202790260314941 7 6 100 76 255
4 6.84807586669921875 6 80 116 255
4 7 5.87412786483764648 91 80 255
4 7 8.96857643127441406 147 47 255
3.366790771484375 8 5 146 74 255
4 7.90837621688842773 5 91 80 255
4 8 4.91006565093994141 133 73 255
4 8 8.97571182250976562 214 42 255
4 8.60042476654052734 5 156 70 255
4 8.94369411468505859 6 177 63 255
4 8.96761322021484375 7 195 53 255
4 8.97571182250976562 8 214 42 255
5 -9.93624973297119141 6 255 229 122
5 -9 5.05683803558349609 255 185 155
5 -9.96580410003662109 7 243 255 99
5 -9.97502040863037109 8 195 255 79
5 -9 8.97502040863037109 233 255 83
4.24919557571411133 -8 6 255 174 143
5 -8 5.87889194488525391 255 173 161
5 -8 8.96863651275634766 255 249 86
5 -7.83051586151123047 6 255 185 133
5 -7 6.59500932693481445 255 175 137
5 -7 8.95664119720458984 255 232 88
5 -6.32396936416625977 7 255 197 111
5 -6 7.19876670837402344 255 192 113
5 -6 8.93009281158447266 255 226 89
5 -5 7.70665693283081055 255 196 113
5 -5 8.83797359466552734 255 230 89
5 -4.27000665664672852 8 255 230 89
5 3.47529840469360352 8 64 255 250
5 4 7.77788066864013672 75 219 255
5 4 8.7968902587890625 58 178 255
5 5 7.2224888801574707 69 138 255
5 5 8.92793655395507812 53 94 255
5 5.32126808166503906 7 69 138 255
5 6 6.53734636306762695 74 96 255
5 6 8.95787334442138672 87 48 255
5 6.6511530876159668 6 74 96 255
5 7 5.71116113662719727 100 74 255
5 7 8.97029495239257812 158 43 255
5 7.73892116546630859 5 100 74 255
5 8 4.74372148513793945 143 68 255
5 8 8.97647571563720703 224 38 255
5 8.80819892883300781 5 166 65 255
5 8.95026016235351562 6 186 58 255
5 8.96947383880615234 7 205 49 255
5 8.97647571563720703 8 224 38 255
5.28209447860717773 -9 5 255 185 155
6 -9.69252967834472656 5 255 214 137
6 -9 4.86408042907714844 255 180 168
6 -9.94570732116699219 6 255 246 112
6 -9.96821212768554688 7 220 255 90
6 -9.97598075866699219 8 169 255 72
6 -9 8.97598075866699219 208 255 75
6 -8.83741378784179688 5 255 192 143
6 -8 5.69310569763183594 255 177 149
6 -8 8.97056388854980469 237 255 78
6 -7.57001876831054688 6 255 197 123
6 -7 6.40895175933837891 255 185 126
6 -7 8.96084499359130859 254 255 80
6 -6.01155567169189453 7 255 214 101
6 -6 7.00710439682006836 255 209 103
6 -6 8.9414520263671875 255 249 81
6 -5 7.52727127075195312 255 213 104
6 -5 8.89094924926757812 255 253 81
5.60571718215942383 -4 8 255 244 88
6 -4 7.93097400665283203 255 225 103
6 -4 8.55460357666015625 242 255 80
6 -3.77811980247497559 8 242 255 80
6 3.04924798011779785 8 57 239 255
6 4 7.59857177734375 68 199 255
6 4 8.87429428100585938 53 157 255
6 5 7.03016138076782227 62 117 255
6 5 8.94000530242919922 48 73 255
6 5.04347896575927734 7 62 117 255
6 6 6.34899616241455078 68 75 255
6 6 8.96181869506835938 98 44 255
6 6.42257404327392578 6 68 75 255
6 7 5.52227687835693359 107 68 255
6 7 8.97195911407470703 169 39 255
6 7.54258298873901367 5 107 68 255
6 8 4.55096864700317383 151 62 255
6 8 8.97723197937011719 234 35 255
6 8.87860393524169922 5 175 59 255
6 8.95593070983886719 6 196 53 255
6 8.9712677001953125 7 215 44 255
6 8.97723197937011719 8 234 35 255
7 -9.85061168670654297 5 255 227 124
7 -9 4.64905023574829102 255 181 154
7 -9.95323085784912109 6 244 255 101
7 -9.97043228149414062 7 196 255 81
7 -9.976898193359375 8 142 255 65
7 -9 8.976898193359375 183 255 67
7 -8.57989978790283203 5 255 200 130
7 -8 5.48043489456176758 255 183 135
7 -8 8.97236537933349609 212 255 70
7 -7.2710576057434082 6 255 210 111
7 -7 6.19478607177734375 255 197 114
7 -7 8.96454334259033203 230 255 71
6.03287887573242188 -6 7 255 209 103
7 -6 6.80524015426635742 255 193 116
7 -6 8.95023250579833984 237 255 72
7 -5.61555051803588867 7 255 227 92
7 -5 7.32130527496337891 255 231 93
7 -5 8.91965293884277344 233 255 72
7 -4 7.73350858688354492 255 244 92
7 -4 8.82492160797119141 218 255 72
7 -3.14026379585266113 8 218 255 72
6.10266304016113281 3 8 57 239 255
7 2.42016911506652832 8 55 255 212
7 3 7.82266378402709961 66 255 249
7 3 8.75897502899169922 51 219 255
7 4 7.39296054840087891 61 180 255
7 4 8.91127395629882812 47 136 255
6.13869380950927734 5 7 62 117 255
7 4.68722057342529297 7 61 180 255
7 5 6.82552909851074219 68 139 255
7 5 8.94923973083496094 43 52 255
7 6 6.13197135925292969 67 61 255
7 6 8.96531105041503906 108 38 255
7 6.15964698791503906 6 67 61 255
7 7 5.30540895462036133 115 61 255
7 7 8.97352504730224609 179 34 255
7 7.31723403930664062 5 115 61 255
7 8 4.32971572875976562 159 56 255
7 8 8.97795295715332031 243 31 255
7 8.91336536407470703 5 183 53 255
7 8.96076011657714844 6 204 47 255
7 8.97294998168945312 7 224 39 255
7 8.97795295715332031 8 243 31 255
8 -9.90389156341552734 5 255 241 110
8 -9 4.40505647659301758 255 184 138
8 -9.95923805236816406 6 223 255 89
8 -9.97243595123291016 7 171 255 71
8 -9.97774887084960938 8 114 255 57
8 -9 8.97774887084960938 157 255 59
8 -8.28723621368408203 5 255 211 116
8 -8 5.23823881149291992 255 191 120
8 -8 8.97401046752929688 187 255 61
7.79849576950073242 -7 6 255 197 114
8 -7 5.95351076126098633 255 180 124
8 -7 8.96775150299072266 206 255 63
8 -6.92473554611206055 6 255 211 101
8 -6 6.57769155502319336 255 205 103
8 -6 8.95708656311035156 213 255 63
8 -5.16405057907104492 7 255 246 81
8 -5 7.08589410781860352 255 250 82
8 -5 8.93735122680664062 209 255 63
8 -4 7.50994300842285156 244 255 81
8 -4 8.89420604705810547 193 255 63
7.1972355842590332 -3 8 192 255 70
8 -3 7.82466697692871094 219 255 80
8 -3 8.75779247283935547 166 255 61
8 -2.19057965278625488 8 166 255 61
7.57919979095458984 2 8 55 255 212
8 1.51920866966247559 8 51 255 158
8 2 7.90750408172607422 63 255 191
8 2 8.62375068664550781 48 255 231
8 3 7.59975624084472656 58 241 255
8 3 8.87405681610107422 44 199 255
8 4 7.15833091735839844 53 160 255
8 4 8.93258190155029297 41 116 255
8 4.27612829208374023 7 53 160 255
8 5 6.5972437858581543 59 118 255
8 5 8.95639133453369141 42 37 255
7.53784418106079102 6 6 67 61 255
8 5.84761285781860352 6 59 118 255
8 6 5.89349746704101562 61 72 255
8 6 8.96835613250732422 117 33 255
8 7 5.05756664276123047 122 53 255
8 7 8.97496414184570312 188 30 255
8 7.05978631973266602 5 122 53 255
8 8 4.07694292068481445 167 49 255
8 8 8.97861766815185547 252 26 255
8 8.93373966217041016 5 191 47 255
8 8.96483421325683594 6 212 41 255
8 8.97449111938476562 7 232 34 255
8 8.97861766815185547 8 252 26 255
8.90389156341552734 -9 5 255 211 116
8.95923805236816406 -9 6 255 250 94
8.97243595123291016 -9 7 211 255 75
8.97774887084960938 -9 8 157 255 59
8.92377281188964844 -8 6 255 225 98
8.96314048767089844 -8 7 239 255 78
8.97401046752929688 -8 8 187 255 61
8.4437103271484375 -7 6 255 211 101
8.94292640686035156 -7 7 255 253 80
8.96775150299072266 -7 8 206 255 63
8.87751197814941406 -6 7 255 246 81
8.95708656311035156 -6 8 213 255 63
8.93735122680664062 -5 8 209 255 63
8.89420604705810547 -4 8 193 255 63
8.75779247283935547 -3 8 166 255 61
8.62375068664550781 2 8 48 255 231
8.87405681610107422 3 8 44 199 255
8.93258190155029297 4 8 41 116 255
8.87214756011962891 5 7 48 75 255
8.95639133453369141 5 8 42 37 255
8.64521694183349609 6 6 73 53 255
8.94549942016601562 6 7 95 43 255
8.96835613250732422 6 8 117 33 255
8.93618297576904297 7 6 145 47 255
8.96572971343994141 7 7 167 39 255
8.97496414184570312 7 8 188 30 255
8.93373966217041016 8 5 191 47 255
8.96483421325683594 8 6 212 41 255
8.97449111938476562 8 7 232 34 255
8.97861766815185547 8 8 252 26 255
3 2 1 0
3 1 4 3
3 0 1 3
3 4 6 5
3 3 4 5
3 6 7 5
3 2 0 8
3 10 8 0
3 10 0 9
3 9 0 3
3 3 5 9
3 5 11 9
3 7 12 11
3 5 7 11
3 14 10 9
3 13 14 9
3 9 11 13
3 11 15 13
3 12 16 15
3 11 12 15
3 14 13 17
3 19 17 13
3 19 13 18
3 18 13 15
3 16 20 18
3 15 16 18
3 22 19 18
3 21 22 18
3 20 23 21
3 18 20 21
3 22 21 24
3 21 23 24
3 27 26 25
3 26 28 25
3 30 27 25
3 29 30 25
3 28 31 29
3 25 28 29
3 34 33 32
3 33 30 29
3 33 29 32
3 32 29 35
3 31 36 35
3 29 31 35
3 39 38 37
3 38 34 32
3 38 32 37
3 37 32 40
3 32 35 40
3 35 41 40
3 36 42 41
3 35 36 41
3 45 44 43
3 44 39 37
3 44 37 43
3 43 37 46
3 37 40 46
3 40 47 46
3 40 41 47
3 41 48 47
3 42 49 48
3 41 42 48
3 45 43 50
3 43 46 51
3 50 43 51
3 46 47 52
3 51 46 52
3 47 48 53
3 52 47 53
3 48 49 53
3 2 55 54
3 1 2 54
3 54 56 1
3 1 56 4
3 56 57 4
3 4 57 6
3 6 57 58
3 7 6 58
3 55 2 8
3 59 55 8
3 8 60 59
3 10 60 8
3 58 61 7
3 61 12 7
3 60 10 62
3 62 10 14
3 61 63 12
3 63 16 12
3 62 14 17
3 64 62 17
3 17 65 64
3 19 65 17
3 63 66 16
3 66 20 16
3 67 68 65
3 67 65 22
3 22 65 19
3 68 67 23
3 68 23 66
3 66 23 20
3 67 22 24
3 67 24 23
3 26 27 69
3 26 69 28
3 70 69 27
3 70 27 71
3 71 27 30
3 69 70 72
3 69 72 28
3 28 72 31
3 34 74 73
3 33 34 73
3 73 30 33
3 71 30 73
3 72 75 31
3 75 36 31
3 38 39 76
3 76 34 38
3 76 77 34
3 77 74 34
3 75 78 36
3 78 42 36
3 44 45 79
3 79 81 80
3 44 79 80
3 44 80 76
3 44 76 39
3 76 80 77
3 78 82 42
3 82 49 42
3 79 45 50
3 81 79 50
3 81 50 83
3 83 50 51
3 83 51 84
3 51 52 84
3 84 52 85
3 52 53 85
3 85 53 49
3 82 85 49
3 55 87 86
3 54 55 86
3 86 88 54
3 54 88 56
3 88 89 56
3 56 89 57
3 57 89 90
3 58 57 90
3 87 55 59
3 91 87 59
3 59 92 91
3 60 92 59
3 90 93 58
3 93 61 58
3 94 95 92
3 94 92 62
3 62 92 60
3 95 94 96
3 93 97 61
3 97 63 61
3 94 62 64
3 64 96 94
3 64 65 96
3 65 98 96
3 97 99 63
3 99 66 63
3 98 65 68
3 100 98 68
3 100 68 66
3 99 100 66
3 71 102 101
3 70 71 101
3 70 101 103
3 72 70 103
3 74 105 104
3 73 74 104
3 104 71 73
3 102 71 104
3 103 106 72
3 106 75 72
3 105 74 107
3 107 74 77
3 106 108 75
3 108 78 75
3 81 110 109
3 80 81 109
3 109 77 80
3 107 77 109
3 108 111 78
3 111 82 78
3 110 81 83
3 112 110 83
3 112 83 113
3 83 84 113
3 113 84 114
3 84 85 114
3 114 85 82
3 111 114 82
3 87 116 115
3 86 87 115
3 115 117 86
3 86 117 88
3 117 118 88
3 88 118 89
3 89 118 119
3 90 89 119
3 116 87 91
3 120 116 91
3 91 121 120
3 92 121 91
3 119 122 90
3 122 93 90
3 121 92 95
3 123 121 95
3 95 124 123
3 96 124 95
3 122 125 93
3 125 97 93
3 124 96 126
3 126 96 98
3 125 127 97
3 127 99 97
3 126 98 100
3 128 126 100
3 128 100 99
3 127 128 99
3 102 130 129
3 101 102 129
3 101 129 131
3 103 101 131
3 104 105 132
3 132 102 104
3 132 133 102
3 133 130 102
3 131 134 103
3 134 106 103
3 135 132 105
3 135 105 136
3 136 105 107
3 132 135 133
3 134 137 106
3 137 108 106
3 110 139 138
3 109 110 138
3 138 107 109
3 136 107 138
3 137 140 108
3 140 111 108
3 139 110 112
3 141 139 112
3 141 112 142
3 112 113 142
3 142 113 143
3 113 114 143
3 143 114 111
3 140 143 111
3 116 145 144
3 115 116 144
3 144 146 115
3 115 146 117
3 146 147 117
3 117 147 118
3 118 147 148
3 119 118 148
3 145 116 120
3 149 145 120
3 120 150 149
3 121 150 120
3 148 151 119
3 151 122 119
3 150 121 123
3 152 150 123
3 123 153 152
3 124 153 123
3 151 154 122
3 154 125 122
3 153 124 155
3 155 124 126
3 154 156 125
3 156 127 125
3 155 126 128
3 157 155 128
3 157 128 127
3 156 157 127
3 130 159 158
3 129 130 158
3 129 158 160
3 131 129 160
3 159 130 161
3 161 130 133
3 160 162 131
3 162 134 131
3 136 164 163
3 135 136 163
3 163 133 135
3 161 133 163
3 162 165 134
3 165 137 134
3 139 167 166
3 138 139 166
3 166 136 138
3 164 136 166
3 165 168 137
3 168 140 137
3 167 139 141
3 169 167 141
3 169 141 170
3 141 142 170
3 170 142 171
3 142 143 171
3 171 143 140
3 168 171 140
3 145 173 172
3 144 145 172
3 172 174 144
3 144 174 146
3 174 175 146
3 146 175 147
3 147 175 176
3 148 147 176
3 173 145 149
3 177 173 149
3 149 178 177
3 150 178 149
3 176 179 148
3 179 151 148
3 178 150 152
3 180 178 152
3 152 181 180
3 153 181 152
3 179 182 151
3 182 154 151
3 181 153 183
3 183 153 155
3 182 184 154
3 184 156 154
3 183 155 157
3 185 183 157
3 185 157 156
3 184 185 156
3 159 187 186
3 158 159 186
3 158 186 188
3 160 158 188
3 187 159 189
3 189 159 161
3 188 190 160
3 190 162 160
3 164 192 191
3 163 164 191
3 191 161 163
3 189 161 191
3 190 193 162
3 193 165 162
3 167 195 194
3 166 167 194
3 194 164 166
3 192 164 194
3 193 196 165
3 196 168 165
3 195 167 169
3 197 195 169
3 197 169 198
3 169 170 198
3 198 170 199
3 170 171 199
3 199 171 168
3 196 199 168
3 173 201 200
3 172 173 200
3 200 202 172
3 172 202 174
3 202 203 174
3 174 203 175
3 175 203 204
3 176 175 204
3 201 173 177
3 205 201 177
3 177 206 205
3 178 206 177
3 204 207 176
3 207 179 176
3 206 178 180
3 208 206 180
3 180 209 208
3 181 209 180
3 207 210 179
3 210 182 179
3 209 181 211
3 211 181 183
3 210 212 182
3 212 184 182
3 211 183 185
3 213 211 185
3 213 185 184
3 212 213 184
3 187 215 214
3 186 187 214
3 186 214 216
3 188 186 216
3 215 187 217
3 217 187 189
3 216 218 188
3 218 190 188
3 192 220 219
3 191 192 219
3 219 189 191
3 217 189 219
3 218 221 190
3 221 193 190
3 195 223 222
3 194 195 222
3 222 192 194
3 220 192 222
3 221 224 193
3 224 196 193
3 223 195 197
3 225 223 197
3 225 197 226
3 197 198 226
3 226 198 227
3 198 199 227
3 227 199 196
3 224 227 196
3 201 229 228
3 200 201 228
3 228 230 200
3 200 230 202
3 230 231 202
3 202 231 203
3 203 231 232
3 204 203 232
3 229 201 205
3 233 229 205
3 205 234 233
3 206 234 205
3 232 235 204
3 235 207 204
3 234 206 208
3 236 234 208
3 208 237 236
3 209 237 208
3 235 238 207
3 238 210 207
3 237 209 239
3 239 209 211
3 238 240 210
3 240 212 210
3 239 211 213
3 241 239 213
3 241 213 212
3 240 241 212
3 215 243 242
3 214 215 242
3 214 242 244
3 216 214 244
3 243 215 245
3 245 215 217
3 244 246 216
3 246 218 216
3 220 248 247
3 219 220 247
3 247 217 219
3 245 217 247
3 246 249 218
3 249 221 218
3 223 251 250
3 222 223 250
3 250 220 222
3 248 220 250
3 249 252 221
3 252 224 221
3 251 223 225
3 253 251 225
3 253 225 254
3 225 226 254
3 254 226 255
3 226 227 255
3 255 227 224
3 252 255 224
3 229 257 256
3 228 229 256
3 256 258 228
3 228 258 230
3 258 259 230
3 230 259 231
3 231 259 260
3 232 231 260
3 257 229 233
3 261 257 233
3 233 262 261
3 234 262 233
3 260 263 232
3 263 235 232
3 262 234 236
3 264 262 236
3 236 265 264
3 237 265 236
3 263 266 235
3 266 238 235
3 265 237 267
3 267 237 239
3 266 268 238
3 268 240 238
3 267 239 241
3 269 267 241
3 269 241 240
3 268 269 240
3 243 271 270
3 242 243 270
3 242 270 272
3 244 242 272
3 271 243 273
3 273 243 245
3 272 274 244
3 274 246 244
3 248 276 275
3 247 248 275
3 275 245 247
3 273 245 275
3 274 277 246
3 277 249 246
3 251 279 278
3 250 251 278
3 278 248 250
3 276 248 278
3 277 280 249
3 280 252 249
3 279 251 253
3 281 279 253
3 281 253 282
3 253 254 282
3 282 254 283
3 254 255 283
3 283 255 252
3 280 283 252
3 257 285 284
3 256 257 284
3 284 286 256
3 256 286 258
3 286 287 258
3 258 287 259
3 259 287 288
3 260 259 288
3 285 257 261
3 289 285 261
3 261 290 289
3 262 290 261
3 288 291 260
3 291 263 260
3 290 262 264
3 292 290 264
3 264 293 292
3 265 293 264
3 291 294 263
3 294 266 263
3 293 265 295
3 295 265 267
3 294 296 266
3 296 268 266
3 295 267 269
3 297 295 269
3 297 269 268
3 296 297 268
3 271 299 298
3 270 271 298
3 270 298 300
3 272 270 300
3 299 271 301
3 301 271 273
3 300 302 272
3 302 274 272
3 276 304 303
3 275 276 303
3 303 273 275
3 301 273 303
3 302 305 274
3 305 277 274
3 279 307 306
3 278 279 306
3 306 276 278
3 304 276 306
3 305 308 277
3 308 280 277
3 307 279 281
3 309 307 281
3 309 281 310
3 281 282 310
3 310 282 311
3 282 283 311
3 311 283 280
3 308 311 280
3 285 313 312
3 284 285 312
3 312 314 284
3 284 314 286
3 314 315 286
3 286 315 287
3 287 315 316
3 288 287 316
3 313 285 289
3 317 313 289
3 289 318 317
3 290 318 289
3 316 319 288
3 319 291 288
3 318 290 292
3 320 318 292
3 292 321 320
3 293 321 292
3 319 322 291
3 322 294 291
3 321 293 323
3 323 293 295
3 322 324 294
3 324 296 294
3 323 295 297
3 325 323 297
3 325 297 296
3 324 325 296
3 299 327 326
3 298 299 326
3 298 326 328
3 300 298 328
3 327 299 329
3 329 299 301
3 328 330 300
3 330 302 300
3 304 332 331
3 303 304 331
3 331 301 303
3 329 301 331
3 330 333 302
3 333 305 302
3 307 335 334
3 306 307 334
3 334 304 306
3 332 304 334
3 333 336 305
3 336 308 305
3 335 307 309
3 337 335 309
3 337 309 338
3 309 310 338
3 338 310 339
3 310 311 339
3 339 311 308
3 336 339 308
3 313 341 340
3 312 313 340
3 340 342 312
3 312 342 314
3 342 343 314
3 314 343 315
3 315 343 344
3 316 315 344
3 341 313 317
3 345 341 317
3 317 346 345
3 318 346 317
3 344 347 316
3 347 319 316
3 346 318 320
3 348 346 320
3 320 349 348
3 321 349 320
3 347 350 319
3 350 322 319
3 349 321 351
3 351 321 323
3 350 352 322
3 352 324 322
3 351 323 325
3 353 351 325
3 353 325 324
3 352 353 324
3 327 355 354
3 326 327 354
3 326 354 356
3 328 326 356
3 359 358 357
3 358 329 357
3 358 355 329
3 355 327 329
3 356 360 328
3 360 330 328
3 357 331 332
3 357 332 359
3 359 332 361
3 357 329 331
3 360 362 330
3 362 333 330
3 335 364 363
3 334 335 363
3 363 332 334
3 361 332 363
3 362 365 333
3 365 336 333
3 364 335 337
3 366 364 337
3 366 337 367
3 337 338 367
3 367 338 368
3 338 339 368
3 368 339 336
3 365 368 336
3 341 370 369
3 340 341 369
3 369 371 340
3 340 371 342
3 371 372 342
3 342 372 343
3 343 372 373
3 344 343 373
3 370 341 345
3 374 370 345
3 345 375 374
3 346 375 345
3 373 376 344
3 376 347 344
3 348 377 378
3 348 378 346
3 346 378 375
3 348 349 377
3 376 379 347
3 379 350 347
3 378 377 380
3 377 381 380
3 377 349 381
3 349 351 381
3 379 382 350
3 382 352 350
3 353 383 384
3 353 384 351
3 351 384 381
3 383 353 352
3 383 352 385
3 385 352 382
3 384 383 386
3 383 385 386
3 355 388 387
3 354 355 387
3 354 387 389
3 356 354 389
3 359 391 390
3 358 359 390
3 390 355 358
3 388 355 390
3 389 392 356
3 392 360 356
3 391 359 393
3 393 359 361
3 392 394 360
3 394 362 360
3 364 396 395
3 363 364 395
3 395 361 363
3 393 361 395
3 394 397 362
3 397 365 362
3 396 364 366
3 398 396 366
3 398 366 399
3 366 367 399
3 399 367 400
3 367 368 400
3 400 368 365
3 397 400 365
3 370 402 401
3 369 370 401
3 401 403 369
3 369 403 371
3 403 404 371
3 371 404 372
3 372 404 405
3 373 372 405
3 402 370 374
3 406 402 374
3 374 407 406
3 375 407 374
3 405 408 373
3 408 376 373
3 407 375 409
3 409 375 378
3 408 410 376
3 410 379 376
3 409 378 380
3 411 409 380
3 380 412 411
3 381 412 380
3 410 413 379
3 413 382 379
3 412 381 414
3 414 381 384
3 413 415 382
3 415 385 382
3 414 384 386
3 416 414 386
3 416 386 385
3 415 416 385
3 419 418 417
3 418 420 417
3 417 387 388
3 417 388 419
3 419 388 421
3 387 417 420
3 387 420 389
3 389 420 422
3 391 424 423
3 390 391 423
3 423 388 390
3 421 388 423
3 422 425 389
3 425 392 389
3 428 427 426
3 427 393 426
3 427 424 393
3 424 391 393
3 425 429 392
3 429 394 392
3 432 431 430
3 426 395 396
3 428 426 396
3 428 396 430
3 428 430 431
3 426 393 395
3 429 433 394
3 433 397 394
3 432 430 434
3 430 396 398
3 430 398 434
3 434 398 435
3 435 398 436
3 398 399 436
3 436 399 437
3 399 400 437
3 437 400 397
3 433 437 397
3 402 439 438
3 401 402 438
3 438 440 401
3 401 440 403
3 440 441 403
3 403 441 404
3 404 441 442
3 405 404 442
3 406 443 444
3 406 444 402
3 402 444 439
3 406 407 443
3 442 445 405
3 445 408 405
3 444 443 446
3 443 447 446
3 443 407 447
3 407 409 447
3 445 448 408
3 448 410 408
3 447 409 411
3 449 447 411
3 411 450 449
3 412 450 411
3 448 451 410
3 451 413 410
3 450 412 452
3 452 412 414
3 451 453 413
3 453 415 413
3 452 414 416
3 454 452 416
3 454 416 415
3 453 454 415
3 419 456 455
3 418 419 455
3 418 455 457
3 420 418 457
3 456 419 458
3 458 419 421
3 457 459 420
3 459 422 420
3 424 461 460
3 423 424 460
3 460 421 423
3 458 421 460
3 459 462 422
3 462 425 422
3 428 464 463
3 427 428 463
3 463 424 427
3 461 424 463
3 462 465 425
3 465 429 425
3 432 467 466
3 431 432 466
3 466 428 431
3 464 428 466
3 465 468 429
3 468 433 429
3 467 432 434
3 469 467 434
3 469 434 470
3 434 435 470
3 470 435 471
3 435 436 471
3 471 436 472
3 436 437 472
3 472 437 433
3 468 472 433
3 475 474 473
3 439 473 474
3 439 474 438
3 438 474 476
3 476 477 438
3 438 477 440
3 477 478 440
3 440 478 441
3 441 478 479
3 442 441 479
3 475 473 480
3 473 481 480
3 473 439 481
3 439 444 481
3 479 482 442
3 482 445 442
3 481 444 446
3 483 481 446
3 446 484 483
3 447 484 446
3 482 485 445
3 485 448 445
3 484 447 449
3 486 484 449
3 449 487 486
3 450 487 449
3 485 488 448
3 488 451 448
3 487 450 489
3 489 450 452
3 488 490 451
3 490 453 451
3 454 491 492
3 454 492 452
3 452 492 489
3 491 454 453
3 491 453 493
3 493 453 490
3 492 491 494
3 491 493 494
3 456 496 495
3 455 456 495
3 455 495 497
3 457 455 497
3 496 456 498
3 498 456 458
3 497 499 457
3 499 459 457
3 461 501 500
3 460 461 500
3 500 458 460
3 498 458 500
3 499 502 459
3 502 462 459
3 464 504 503
3 463 464 503
3 503 461 463
3 501 461 503
3 502 505 462
3 505 465 462
3 467 507 506
3 466 467 506
3 506 464 466
3 504 464 506
3 505 508 465
3 508 468 465
3 507 467 469
3 509 507 469
3 509 469 510
3 469 470 510
3 510 470 511
3 470 471 511
3 511 471 512
3 471 472 512
3 512 472 468
3 508 512 468
3 475 514 513
3 474 475 513
3 513 515 474
3 474 515 476
3 515 516 476
3 476 516 477
3 516 517 477
3 477 517 478
3 478 517 518
3 479 478 518
3 514 475 480
3 519 514 480
3 480 520 519
3 481 520 480
3 518 521 479
3 521 482 479
3 520 481 483
3 522 520 483
3 483 523 522
3 484 523 483
3 521 524 482
3 524 485 482
3 486 525 526
3 486 526 484
3 484 526 523
3 486 487 525
3 524 527 485
3 527 488 485
3 526 525 528
3 525 529 528
3 525 487 529
3 487 489 529
3 527 530 488
3 530 490 488
3 529 489 531
3 531 489 492
3 530 532 490
3 532 493 490
3 531 492 494
3 533 531 494
3 533 494 493
3 532 533 493
3 536 535 534
3 535 537 534
3 534 495 496
3 534 496 536
3 536 496 538
3 495 534 537
3 495 537 497
3 497 537 539
3 542 541 540
3 541 498 540
3 541 538 498
3 538 496 498
3 539 543 497
3 543 499 497
3 540 500 501
3 540 501 542
3 542 501 544
3 540 498 500
3 543 545 499
3 545 502 499
3 504 547 546
3 503 504 546
3 546 501 503
3 544 501 546
3 545 548 502
3 548 505 502
3 507 550 549
3 506 507 549
3 549 504 506
3 547 504 549
3 548 551 505
3 551 508 505
3 550 507 509
3 552 550 509
3 552 509 553
3 509 510 553
3 553 510 554
3 510 511 554
3 554 511 555
3 511 512 555
3 555 512 508
3 551 555 508
3 514 557 556
3 513 514 556
3 556 558 513
3 513 558 515
3 558 559 515
3 515 559 516
3 559 560 516
3 516 560 517
3 517 560 561
3 518 517 561
3 557 514 519
3 562 557 519
3 519 563 562
3 520 563 519
3 561 564 518
3 564 521 518
3 522 565 566
3 522 566 520
3 520 566 563
3 522 523 565
3 564 567 521
3 567 524 521
3 566 565 568
3 565 569 568
3 565 523 569
3 523 526 569
3 567 570 524
3 570 527 524
3 569 526 528
3 571 569 528
3 528 572 571
3 529 572 528
3 570 573 527
3 573 530 527
3 572 529 574
3 574 529 531
3 573 575 530
3 575 532 530
3 533 576 577
3 533 577 531
3 531 577 574
3 576 533 532
3 576 532 578
3 578 532 575
3 577 576 579
3 576 578 579
3 582 581 580
3 581 583 580
3 580 535 536
3 580 536 582
3 582 536 584
3 535 580 583
3 535 583 537
3 537 583 585
3 584 536 586
3 586 536 538
3 585 587 537
3 587 539 537
3 542 589 588
3 541 542 588
3 588 538 541
3 586 538 588
3 587 590 539
3 590 543 539
3 593 592 591
3 592 544 591
3 592 589 544
3 589 542 544
3 590 594 543
3 594 545 543
3 591 546 547
3 591 547 593
3 593 547 595
3 591 544 546
3 594 596 545
3 596 548 545
3 550 598 597
3 549 550 597
3 597 547 549
3 595 547 597
3 596 599 548
3 599 551 548
3 598 550 552
3 600 598 552
3 600 552 601
3 552 553 601
3 601 553 602
3 553 554 602
3 602 554 603
3 554 555 603
3 603 555 551
3 599 603 551
3 556 557 604
3 558 556 604
3 605 558 604
3 559 558 605
3 606 559 605
3 560 559 606
3 607 560 606
3 560 607 561
3 604 557 562
3 562 563 608
3 562 608 604
3 604 608 605
3 605 608 606
3 606 608 609
3 606 609 607
3 607 609 610
3 607 610 564
3 561 607 564
3 611 608 563
3 566 611 563
3 608 611 609
3 609 611 612
3 609 612 610
3 610 612 613
3 610 613 567
3 564 610 567
3 611 566 568
3 568 569 614
3 568 614 611
3 611 614 612
3 612 614 613
3 613 614 615
3 613 615 570
3 567 613 570
3 614 569 571
3 571 572 616
3 571 616 614
3 614 616 615
3 615 616 573
3 570 615 573
3 617 616 572
3 574 617 572
3 616 617 575
3 573 616 575
3 618 617 574
3 577 618 574
3 617 618 578
3 575 617 578
3 618 577 579
3 618 579 578
3 581 582 619
3 581 619 583
3 620 619 582
3 584 620 582
3 619 620 585
3 583 619 585
3 621 620 584
3 586 621 584
3 620 621 587
3 585 620 587
3 588 589 622
3 586 588 622
3 586 622 621
3 621 622 623
3 621 623 590
3 587 621 590
3 592 593 624
3 589 592 624
3 589 624 622
3 622 624 625
3 622 625 623
3 623 625 626
3 623 626 594
3 590 623 594
3 627 624 593
3 595 627 593
3 624 627 625
3 625 627 628
3 625 628 626
3 626 628 629
3 626 629 596
3 594 626 596
3 597 598 630
3 595 597 630
3 595 630 627
3 627 630 631
3 627 631 628
3 628 631 632
3 628 632 629
3 629 632 633
3 629 633 599
3 596 629 599
3 630 598 600
3 631 630 600
3 601 631 600
3 632 631 601
3 602 632 601
3 633 632 602
3 603 633 602
3 633 603 599
