ply
format ascii 1.0
element vertex 394
property float x
property float y
property float z
property uchar red
property uchar green
property uchar blue
element face 752
property list uchar int vertex_indices
end_header
-5.00345754623413086 2 0 12 4 2
-5 1.96457111835479736 0 46 22 7
-5 2 -0.00291243218816816807 34 16 0
-5 2 0.00303823826834559441 49 21 6
-5.02155637741088867 3 0 12 4 2
-5 3 -0.017516057938337326 37 19 0
-5 3 0.0192972421646118164 47 22 16
-5.014739990234375 4 -1 16 7 2
-5 3.98820710182189941 -1 37 19 0
-5 4 -1.01213228702545166 34 20 0
-5 3.15530562400817871 0 47 22 16
-5 4 -0.890416979789733887 45 29 0
-5.0531916618347168 5 -3 10 6 3
-5 4.95857572555541992 -3 34 20 0
-5 5 -3.23119449615478516 32 21 3
-5.08224105834960938 5 -2 13 7 3
-5 4.93222856521606445 -2 34 20 0
-5.0557551383972168 5 -1 17 9 2
-5 5 -0.953882277011871338 49 34 11
-5 5.04347753524780273 -3 45 29 2
-5 5.06216621398925781 -2 48 29 16
-5 5.04387331008911133 -1 49 34 11
-4.99724721908569336 2 0 49 21 6
-4.9833989143371582 3 0 47 22 16
-4.98839139938354492 4 -1 45 29 0
-4.95571804046630859 5 -3 45 29 2
-4.93656778335571289 5 -2 48 29 16
-4.95107507705688477 5 -1 49 34 11
-4.03292369842529297 5 1 9 5 1
-4 4.92129707336425781 1 30 19 0
-4 5 0.97381359338760376 37 30 0
-4 5 1.03118228912353516 53 36 6
-4 5.05258750915527344 1 53 36 6
-4.01666927337646484 7 -2 17 14 4
-4 6.98587656021118164 -2 38 35 0
-4 7 -2.64771866798400879 45 47 0
-4.00075387954711914 7 -1 19 18 2
-4 6.99934673309326172 -1 38 35 0
-4 7 -0.962425053119659424 50 48 8
-4 7.01313209533691406 -2 49 45 6
-4 7.0006861686706543 -1 50 48 8
-3.03806376457214355 5 -3 30 22 0
-3 4.95803594589233398 -3 27 20 0
-3 5 -3.4535832405090332 35 29 0
-3 5 -2.95842885971069336 40 33 0
-3.9720766544342041 5 1 53 36 6
-3 5.03421783447265625 -3 40 33 0
-3.00660991668701172 6 2 5 4 1
-3 5.99163007736206055 2 8 7 0
-3 6 1.99444711208343506 28 28 0
-3 6 2.0066227912902832 59 55 8
-3.98584389686584473 7 -2 49 45 6
-3.99935746192932129 7 -1 50 48 8
-3 6.00579023361206055 2 59 55 8
-2.01435279846191406 3 -2 31 21 0
-2 2.74071598052978516 -2 33 6 3
-2 3 -2.07426142692565918 24 9 2
-2 3 -1.9875335693359375 35 18 0
-2 3.01201033592224121 -2 35 18 0
-2.9556879997253418 5 -3 40 33 0
-2.99456238746643066 6 2 59 55 8
-2.03450751304626465 6 3 1 1 0
-2 5.9686436653137207 3 8 8 0
-2 6 2.97152471542358398 20 23 0
-2 6 3.03435063362121582 65 68 6
-2 6.03111028671264648 3 65 68 6
-1.41523396968841553 2 -2 33 6 3
-1 1.6339106559753418 -2 37 8 0
-1 2 -2.30576610565185547 30 9 0
-1.01131546497344971 2 -1 20 6 0
-1 1.91134262084960938 -1 40 10 0
-1.04451870918273926 2 0 24 15 0
-1 1.77453768253326416 0 42 11 6
-1 2 0.0400075577199459076 50 12 0
-1.94310557842254639 3 -2 35 18 0
-1 2.10903310775756836 -2 38 10 0
-1 2.19425487518310547 -1 41 11 0
-1 2.09012508392333984 0 50 12 0
-1.03203725814819336 4 -4 23 18 0
-1 3.33448338508605957 -4 34 12 0
-1 4 -4.09208869934082031 17 12 2
-1.2788691520690918 4 -3 23 17 0
-1 3.13964414596557617 -3 32 9 1
-1 4 -2.02459287643432617 39 14 0
-1.11124217510223389 4 -1 11 9 0
-1 3.14863348007202148 -1 35 12 0
-1 4 -1.98039424419403076 32 12 4
-1 4 -0.70575869083404541 46 18 0
-1.11462259292602539 5 -4 6 5 0
-1 5 -4.06468057632446289 19 18 0
-1 4.84672689437866211 -3 39 14 0
-1 5 -3.18007159233093262 39 18 1
-1.11113858222961426 5 -1 35 30 0
-1 5 -1.23817348480224609 10 5 0
-1 5 -0.892333984375 49 45 0
-1.02701234817504883 5 4 6 5 1
-1 4.96639394760131836 4 21 22 0
-1 5 3.97892141342163086 18 20 0
-1 5 4.02613687515258789 62 73 2
-1 5.05459213256835938 -4 39 18 1
-1 5.10653352737426758 -1 49 45 0
-1.97192633152008057 6 3 65 68 6
-1 5.0221405029296875 4 62 73 2
-1.00545883178710938 7 0 31 32 2
-1 6.9940190315246582 0 32 24 0
-1 7 -0.00548034626990556717 26 36 0
-1 7 0.00526169873774051666 43 43 11
-1.0119636058807373 7 3 2 2 0
-1 6.98922491073608398 3 13 17 0
-1 7 2.98963069915771484 18 23 4
-1 7 3.01096987724304199 48 68 2
-1 7.00511360168457031 0 43 43 11
-1 7.01035118103027344 3 48 68 2
-0.843429625034332275 2 -2 38 10 0
-0.954854667186737061 2 -1 41 11 0
-0.713267207145690918 2 0 50 12 0
-0.0179237667471170425 2 1 26 18 0
0 1.8616412878036499 1 47 18 0
0 2 0.850304305553436279 39 10 0
0 2 1.01823699474334717 54 29 19
-0.124364763498306274 3 -5 29 12 0
0 2.83185696601867676 -5 31 13 0
0 3 -5.11275768280029297 29 15 1
-0.741208672523498535 3 -4 34 12 0
0 2.65952467918395996 -4 30 10 1
0 3 -3.6975858211517334 37 13 1
0 2.20659542083740234 1 54 29 19
-0.0408114269375801086 4 -5 17 12 2
0 4 -5.26016950607299805 33 25 13
-0.175491750240325928 4 -4 35 14 5
0 3.8711850643157959 -4 37 13 1
0 4 -4.33660459518432617 35 18 0
-0.585401356220245361 4 -3 39 14 0
-0.906327903270721436 4 -2 32 12 4
0 3.81645059585571289 -2 29 8 1
0 4 -2.14731860160827637 27 10 2
-0.503146052360534668 4 -1 46 18 0
0 4 -1.83958113193511963 34 13 0
-0.540735960006713867 5 -6 36 37 0
0 4.63963413238525391 -6 33 25 13
0 5 -6.01558160781860352 35 42 1
0 4.01833915710449219 -5 35 18 0
0 5 -5.97093963623046875 36 40 0
0 4.08369588851928711 -4 34 16 0
0 5 -4.09401988983154297 5 4 1
-0.856540083885192871 5 -3 33 14 3
0 4.56642961502075195 -3 27 10 2
0 4.27897167205810547 -2 34 13 0
0 5 -2.368438720703125 42 23 0
-0.662932813167572021 5 -1 49 45 0
-0.979348659515380859 5 4 62 73 2
0 5.01608943939208984 -6 36 40 0
0 5.09466361999511719 -4 39 24 6
0 5.82294034957885742 -3 42 23 0
-0.0674035102128982544 6 -2 35 36 0
0 5.37005186080932617 -2 34 20 6
0 6 -2.82192850112915039 36 27 0
-0.0915082246065139771 6 -1 33 36 0
0 5.69953775405883789 -1 22 14 0
0 6 -0.894117832183837891 48 40 0
-0.0492752157151699066 6 2 22 24 2
0 5.9460902214050293 2 23 19 11
0 6 1.94325172901153564 15 20 0
0 6 2.04776954650878906 57 61 10
-0.0223360490053892136 6 4 3 4 0
0 5.97916603088378906 4 12 16 0
0 6 3.97900938987731934 13 19 1
0 6 4.02408599853515625 44 71 5
-0.0473453477025032043 7 -2 33 31 0
0 7 -2.04678773880004883 27 34 2
-0.034128483384847641 7 -1 26 36 0
-0.991908669471740723 7 0 43 43 11
0 7 -0.950294137001037598 30 43 1
0 6.04711151123046875 2 57 61 10
-0.988920211791992188 7 3 48 68 2
0 6.02035808563232422 4 44 71 5
0 7.13690185546875 -2 43 41 1
0 7.03911972045898438 -1 30 43 1
0.83813101053237915 2 -2 27 6 0
1 1.73804175853729248 -2 36 11 0
1 2 -2.9228062629699707 37 12 0
0.693280637264251709 2 -1 36 8 0
1 1.64790451526641846 -1 41 12 0
1 2 -0.56558758020401001 44 14 0
0.0368266403675079346 2 1 54 29 19
0.995180189609527588 2 2 19 14 0
1 1.9957650899887085 2 25 20 0
1 2 1.99012970924377441 16 6 1
1 2 2.00458884239196777 61 53 2
0.320523858070373535 3 -5 37 17 0
0.331140667200088501 3 -4 37 13 1
0.689183533191680908 3 -3 28 8 1
1 2.05378007888793945 -3 37 12 0
1 3 -3.33995199203491211 31 13 1
1 2.67851424217224121 -2 38 12 0
1 3 -2.2435302734375 37 15 0
0.185779944062232971 3 -1 35 11 3
1 3 -1.85320079326629639 34 13 0
0.593349337577819824 3 0 37 15 0
1 2.41183328628540039 0 44 15 4
1 3 0.115716248750686646 45 21 0
0.945661604404449463 3 2 19 16 0
1 3 1.89616918563842773 14 7 0
1 3 2.06322145462036133 62 59 3
0.184232950210571289 4 -5 35 18 0
0.134332031011581421 4 -4 34 16 0
1 3.67946672439575195 -4 31 13 1
1 4 -4.4247746467590332 30 17 1
0.550014376640319824 4 -3 27 10 2
1 3.17769622802734375 -2 34 13 0
0.66257011890411377 4 -1 33 12 2
0.910373032093048096 4 0 29 15 0
1 4 0.0417804494500160217 39 23 0
1 3.05691695213317871 2 62 59 3
0.962896287441253662 4 3 19 14 8
1 3.95212888717651367 3 2 1 0
1 4 2.95697307586669922 15 16 0
1 4 3.03481578826904297 55 65 0
0.442795097827911377 5 -6 36 40 0
0.266520112752914429 5 -4 39 24 6
1 4.17619800567626953 -4 36 17 3
0.495011776685714722 5 -3 42 23 0
1 4.51165199279785156 -3 39 17 1
0.379588812589645386 5 -2 34 20 6
1 5 -2.48311138153076172 31 19 1
1 4.70531797409057617 -1 42 19 2
1 5 -1.20861923694610596 39 22 3
0.666214883327484131 5 0 34 20 0
1 5 -0.661880195140838623 31 21 5
0.915760517120361328 5 1 34 36 1
1 4.8053135871887207 1 18 12 0
1 5 1.25805699825286865 54 45 0
1 4.12052631378173828 3 55 65 0
1 6 -2.15652084350585938 6 5 0
1 5.17184257507324219 -1 31 21 5
1 5.06314468383789062 0 40 28 1
1 6 -0.857680737972259521 42 39 10
1 5.10325050354003906 1 54 45 0
0.119535095989704132 6 2 57 61 10
0.247215837240219116 6 4 44 71 5
0.0710785090923309326 7 -2 43 41 1
1 6.10770940780639648 -2 41 33 0
1 7 -1.06528520584106445 6 6 0
1 7 -0.956815659999847412 42 42 14
0.946904957294464111 7 1 0 1 0
1 6.95503997802734375 1 12 15 1
1 7 0.962242662906646729 24 30 0
1 7 1.03696918487548828 38 52 9
1 7.03827619552612305 -1 42 42 14
1 7.0463414192199707 1 38 52 9
2 1.7810136079788208 -2 43 16 0
2 2 -2.39251065254211426 36 14 0
2 1.97484385967254639 -1 42 15 0
1.66079890727996826 2 0 44 15 4
2 1.5844719409942627 0 49 22 1
1.95745170116424561 2 1 16 6 1
2 1.69210076332092285 1 54 27 8
1.02344930171966553 2 2 61 53 2
2 2 1.09669303894042969 54 29 9
1.75240695476531982 3 -4 31 13 1
2 2.72876715660095215 -4 34 15 0
2 3 -4.69205331802368164 35 20 0
2 2.3476569652557373 -3 36 14 0
1.1632000207901001 3 -2 34 13 0
2 2.16798186302185059 1 54 29 9
2 3 0.262339740991592407 47 24 1
1.07524406909942627 3 2 62 59 3
2 4 -4.09112453460693359 26 16 2
1.11409807205200195 4 0 39 23 0
2 3.2166595458984375 0 47 24 1
2 4 -0.740071475505828857 43 24 1
1.07264828681945801 4 3 55 65 0
1.70454394817352295 5 -5 36 23 4
2 4.94281387329101562 -5 26 16 2
2 5 -5.03530025482177734 21 17 3
1.78702962398529053 5 -4 23 14 2
1.49245727062225342 5 -3 31 19 1
2 4.53179407119750977 -1 43 24 1
2 5 -1.33984744548797607 43 32 0
1.21157217025756836 5 0 40 28 1
2 4.7489323616027832 1 33 23 5
2 5 0.647982299327850342 27 20 1
2 5 1.43486559391021729 52 49 0
2 5.05329370498657227 -5 38 29 5
1.40844094753265381 6 -4 36 31 4
2 6 -4.18449974060058594 29 26 4
2 5.56245326995849609 -3 40 26 1
2 6 -3.6066582202911377 40 40 0
1.8677365779876709 6 -2 41 33 0
2 5.87162494659423828 -2 43 32 0
1.62317609786987305 6 -1 42 39 10
1.86539840698242188 6 0 2 2 0
2 5.61756992340087891 0 27 20 1
2 6 -0.607863247394561768 27 29 0
2 5.06415700912475586 1 52 49 0
2 6 0.0724818632006645203 40 44 7
2 6.05349540710449219 -4 40 40 0
1.17942404747009277 7 -1 42 42 14
1.95415425300598145 7 0 24 30 0
2 7 -0.188824698328971863 16 20 0
1.03425288200378418 7 1 38 52 9
2 7 0.0416230671107769012 39 47 12
2 7.0403294563293457 0 39 47 12
3 1.98187863826751709 -2 43 21 0
3 2 -2.09589052200317383 41 19 1
3 1.75588691234588623 -1 45 18 0
2.96211791038513184 2 0 49 20 0
3 2 -0.045811384916305542 46 21 0
2.09411501884460449 2 1 54 29 9
2.54962468147277832 3 -4 37 18 0
3 2.3686518669128418 -3 41 19 1
3 3 -3.51250386238098145 36 22 0
3 2.02596616744995117 0 47 23 0
3 3 0.166622310876846313 46 30 1
2.37270164489746094 4 -4 36 21 1
3 4 -3.30820870399475098 34 26 0
2.62046647071838379 4 0 32 19 0
3 4 0.345494866371154785 49 39 0
2.04227733612060547 5 -5 38 29 5
2.25646543502807617 5 -4 37 29 0
3 5 -3.32414627075195312 26 24 0
3 4.66629457473754883 -1 46 31 2
3 5 -1.80990242958068848 34 32 0
3 4.260009765625 0 49 39 0
2.60734438896179199 5 1 52 49 0
2.95234847068786621 6 -5 29 26 4
3 5.96224498748779297 -5 23 21 0
3 6 -5.01087045669555664 9 12 0
2.18935537338256836 6 -4 40 40 0
3 6 -4.95087766647338867 34 39 11
3 5.26696395874023438 -3 40 33 0
2.17669105529785156 6 -2 35 32 2
3 6 -2.23982477188110352 17 19 0
3 6 -1.02780389785766602 39 40 4
2.29969215393066406 6 0 40 44 7
3 6.22279119491577148 -5 34 39 11
3 6.10835742950439453 -2 39 40 4
2.06368327140808105 7 0 39 47 12
3.08182382583618164 2 -2 44 23 0
3.20063924789428711 2 -1 46 21 0
3.74631428718566895 3 -4 36 22 0
4 2.86470961570739746 -4 39 26 0
4 3 -4.22195148468017578 37 31 0
4 2.45875334739685059 -3 42 28 0
4 2.34918594360351562 -2 44 28 0
3.24457144737243652 3 -1 46 25 1
4 3 -1.88449883460998535 44 29 1
3.11875057220458984 3 0 46 30 1
3.9569709300994873 3 2 28 23 0
4 2.80567789077758789 2 57 48 3
4 3 1.90127015113830566 39 32 0
4 3 2.04428911209106445 57 60 5
3.57549166679382324 4 -4 34 26 0
4 4 -4.28381252288818359 32 31 0
3.28525781631469727 4 -1 46 31 2
4 4 -1.78254795074462891 38 31 2
3.25674200057983398 4 0 49 39 0
4 3.02898478507995605 2 57 60 5
3.79619002342224121 5 -4 26 24 0
4 5 -4.17144536972045898 21 22 2
3.43592238426208496 5 -3 40 33 0
4 4.18530845642089844 -3 38 31 2
4 5 -3.70798039436340332 36 38 1
3.07916593551635742 5 -2 34 32 0
4 4.33739280700683594 -2 38 31 2
3.36942100524902344 6 -5 34 39 11
4 5.56157493591308594 -4 36 38 1
3.24929976463317871 6 -2 39 40 4
4.44824504852294922 3 -4 39 31 0
4.08905220031738281 3 -3 43 31 0
4.09740591049194336 3 -2 44 29 1
4.02129936218261719 3 2 57 60 5
5 3.65119671821594238 -4 38 36 0
5 4 -4.02245187759399414 22 25 0
4.0734858512878418 4 -3 38 31 2
5 4 -3.98075437545776367 32 37 0
4.19696760177612305 4 -2 38 31 2
4.70433187484741211 4 1 32 37 2
5 3.4959871768951416 1 38 41 0
5 4 0.860025346279144287 10 11 0
5 4 1.11020898818969727 41 49 2
5 5 -4.10022354125976562 16 26 0
5 5 -3.92164278030395508 25 39 0
5 4.12537145614624023 1 41 49 2
5 5.04007387161254883 -4 25 39 0
5.02358579635620117 4 -4 32 37 0
5.2624354362487793 4 1 41 49 2
5.50204277038574219 5 -4 25 39 0
6.99703311920166016 5 -2 4 7 0
7 4.99745273590087891 -2 1 5 0
7 5 -2.00270223617553711 2 9 0
7 5 -1.99677228927612305 19 41 3
7 5.00156354904174805 -2 19 41 3
7.00155305862426758 5 -2 19 41 3
3 2 1 0
3 1 3 0
3 5 2 0
3 4 5 0
3 3 6 4
3 0 3 4
3 9 8 7
3 10 11 7
3 10 7 4
3 8 5 7
3 5 4 7
3 4 6 10
3 14 13 12
3 13 16 15
3 12 13 15
3 16 9 7
3 16 7 15
3 15 7 17
3 11 18 17
3 7 11 17
3 14 12 19
3 12 15 20
3 19 12 20
3 15 17 21
3 20 15 21
3 17 18 21
3 1 2 22
3 1 22 3
3 23 22 2
3 5 23 2
3 22 23 6
3 3 22 6
3 8 9 24
3 11 10 23
3 11 23 24
3 5 8 23
3 8 24 23
3 23 10 6
3 13 14 25
3 16 13 25
3 26 16 25
3 9 16 26
3 9 26 24
3 24 26 27
3 24 27 18
3 11 24 18
3 30 29 28
3 29 31 28
3 25 14 19
3 26 25 19
3 20 26 19
3 27 26 20
3 21 27 20
3 27 21 18
3 30 28 32
3 28 31 32
3 35 34 33
3 34 37 36
3 33 34 36
3 37 38 36
3 35 33 39
3 33 36 40
3 39 33 40
3 36 38 40
3 43 42 41
3 42 44 41
3 29 30 45
3 29 45 31
3 43 41 46
3 41 44 46
3 45 30 32
3 45 32 31
3 48 47 49
3 48 50 47
3 34 35 51
3 37 34 51
3 52 37 51
3 37 52 38
3 49 47 53
3 47 50 53
3 51 35 39
3 52 51 39
3 40 52 39
3 52 40 38
3 56 55 54
3 55 57 54
3 56 54 58
3 54 57 58
3 42 43 59
3 42 59 44
3 59 43 46
3 59 46 44
3 48 49 60
3 61 50 48
3 61 48 62
3 60 63 48
3 63 62 48
3 62 64 61
3 60 49 53
3 50 61 65
3 50 65 53
3 63 60 65
3 60 53 65
3 61 64 65
3 68 67 66
3 67 70 69
3 66 67 69
3 70 72 71
3 69 70 71
3 72 73 71
3 74 75 68
3 74 68 56
3 66 55 68
3 55 56 68
3 66 69 57
3 66 57 55
3 69 76 57
3 74 57 75
3 76 75 57
3 69 71 77
3 76 69 77
3 71 73 77
3 80 79 78
3 79 82 81
3 78 79 81
3 82 83 81
3 56 58 74
3 74 58 57
3 85 84 86
3 85 87 84
3 89 80 78
3 88 89 78
3 90 91 88
3 90 88 81
3 81 88 78
3 81 83 90
3 93 86 84
3 92 93 84
3 87 94 92
3 84 87 92
3 97 96 95
3 96 98 95
3 89 88 99
3 88 91 99
3 93 92 100
3 92 94 100
3 62 63 101
3 97 95 102
3 101 64 62
3 95 98 102
3 105 104 103
3 104 106 103
3 65 107 109
3 65 109 63
3 108 101 109
3 101 63 109
3 107 65 64
3 107 64 110
3 101 108 64
3 108 110 64
3 105 103 111
3 103 106 111
3 109 107 112
3 107 110 112
3 67 68 113
3 70 67 113
3 114 70 113
3 72 70 114
3 115 72 114
3 116 73 72
3 116 72 117
3 115 118 72
3 118 117 72
3 117 119 116
3 122 121 120
3 121 124 123
3 120 121 123
3 124 125 123
3 113 68 75
3 114 113 75
3 76 114 75
3 115 114 76
3 77 115 76
3 73 116 126
3 73 126 77
3 118 115 126
3 115 77 126
3 116 119 126
3 128 122 120
3 127 128 120
3 130 131 129
3 123 79 127
3 123 127 120
3 127 79 80
3 129 132 125
3 129 125 130
3 132 82 125
3 123 125 79
3 82 79 125
3 133 83 82
3 133 82 134
3 132 135 82
3 135 134 82
3 86 133 134
3 86 134 85
3 137 136 134
3 136 85 134
3 85 136 87
3 140 139 138
3 141 142 138
3 141 138 127
3 139 128 138
3 128 127 138
3 129 131 143
3 127 80 141
3 80 144 141
3 80 89 144
3 146 129 143
3 146 132 129
3 90 145 91
3 90 148 145
3 90 147 148
3 90 83 147
3 133 147 83
3 132 146 135
3 86 93 147
3 86 147 133
3 93 149 147
3 137 147 136
3 149 136 147
3 136 149 94
3 87 136 94
3 96 97 150
3 96 150 98
3 140 138 151
3 138 142 151
3 144 89 99
3 152 144 99
3 91 145 153
3 91 153 99
3 99 153 152
3 156 153 145
3 156 145 154
3 148 155 145
3 155 154 145
3 157 154 93
3 157 93 100
3 154 155 93
3 149 93 158
3 155 158 93
3 157 100 94
3 157 94 159
3 149 158 94
3 158 159 94
3 162 161 160
3 161 163 160
3 102 164 166
3 102 166 97
3 165 150 166
3 150 97 166
3 164 102 98
3 164 98 167
3 150 165 98
3 165 167 98
3 169 156 154
3 168 169 154
3 154 157 168
3 157 170 168
3 170 157 104
3 170 104 105
3 157 159 104
3 171 104 172
3 159 172 104
3 104 171 106
3 162 160 173
3 160 163 173
3 109 174 108
3 166 164 175
3 174 110 108
3 164 167 175
3 169 168 176
3 168 170 177
3 176 168 177
3 171 172 177
3 171 177 111
3 170 105 177
3 105 111 177
3 171 111 106
3 174 109 112
3 174 112 110
3 180 179 178
3 179 182 181
3 178 179 181
3 182 183 181
3 117 118 184
3 185 119 117
3 185 117 186
3 184 187 117
3 187 186 117
3 186 188 185
3 121 122 189
3 124 121 189
3 190 124 189
3 191 125 124
3 191 124 192
3 190 193 124
3 193 192 124
3 194 195 191
3 194 191 178
3 192 180 191
3 180 178 191
3 197 194 178
3 197 178 196
3 196 178 181
3 183 199 198
3 183 198 181
3 181 198 196
3 199 200 198
3 118 126 184
3 185 201 126
3 185 126 119
3 201 202 126
3 184 126 187
3 202 187 126
3 188 203 201
3 185 188 201
3 204 189 122
3 128 204 122
3 130 205 131
3 206 190 207
3 190 204 207
3 190 189 204
3 206 193 190
3 205 130 191
3 205 191 208
3 191 130 125
3 195 209 134
3 195 134 208
3 195 208 191
3 208 134 135
3 197 196 210
3 197 210 134
3 197 134 209
3 137 134 210
3 196 198 210
3 198 211 210
3 200 212 211
3 198 200 211
3 202 201 213
3 216 213 201
3 216 201 214
3 203 215 201
3 215 214 201
3 215 217 214
3 139 140 218
3 142 141 204
3 142 204 218
3 128 139 204
3 139 218 204
3 204 220 207
3 204 219 220
3 204 141 219
3 144 219 141
3 131 205 143
3 220 219 222
3 222 219 221
3 143 205 208
3 143 208 146
3 222 221 224
3 146 208 135
3 223 148 147
3 223 225 226
3 147 225 223
3 147 210 225
3 147 137 210
3 228 225 210
3 228 210 227
3 227 210 211
3 212 230 229
3 212 229 211
3 211 229 227
3 230 231 229
3 216 214 232
3 214 217 232
3 218 140 151
3 218 151 142
3 219 144 152
3 221 219 152
3 153 221 152
3 223 155 148
3 224 221 156
3 224 156 233
3 156 221 153
3 226 155 223
3 226 234 155
3 234 158 155
3 236 159 227
3 236 227 235
3 159 158 227
3 228 227 234
3 158 234 227
3 227 229 237
3 235 227 237
3 229 231 237
3 162 238 161
3 161 238 163
3 165 166 239
3 165 239 167
3 240 241 233
3 240 233 169
3 169 233 156
3 241 240 242
3 236 243 159
3 243 172 159
3 246 245 244
3 245 247 244
3 162 173 238
3 238 173 163
3 239 166 175
3 239 175 167
3 240 169 176
3 242 240 176
3 242 176 248
3 248 176 177
3 248 177 172
3 243 248 172
3 246 244 249
3 244 247 249
3 180 251 250
3 179 180 250
3 250 252 179
3 179 252 182
3 253 183 182
3 253 182 254
3 254 182 252
3 254 256 255
3 253 254 255
3 187 255 256
3 187 256 186
3 258 257 256
3 257 186 256
3 186 257 188
3 261 260 259
3 193 259 260
3 193 260 192
3 192 260 262
3 180 262 251
3 180 192 262
3 195 194 263
3 194 197 263
3 253 199 183
3 264 253 255
3 264 200 253
3 264 265 200
3 200 199 253
3 187 202 264
3 187 264 255
3 202 266 264
3 258 264 257
3 266 257 264
3 257 266 203
3 188 257 203
3 259 206 207
3 259 207 261
3 261 207 267
3 259 193 206
3 263 209 195
3 263 197 209
3 270 268 269
3 269 268 212
3 269 212 265
3 265 212 200
3 266 202 213
3 215 203 266
3 215 266 271
3 213 216 266
3 216 271 266
3 215 271 217
3 274 273 272
3 273 275 272
3 273 207 275
3 273 267 207
3 207 220 275
3 222 275 220
3 276 275 222
3 222 224 276
3 226 277 278
3 225 277 226
3 270 279 268
3 270 225 279
3 270 277 225
3 228 279 225
3 212 268 279
3 212 279 280
3 212 280 230
3 281 280 279
3 230 280 282
3 231 230 282
3 271 216 232
3 271 232 217
3 274 272 283
3 285 283 272
3 285 272 284
3 284 272 275
3 286 287 284
3 286 284 276
3 276 284 275
3 276 224 233
3 276 233 289
3 276 289 286
3 289 233 288
3 289 288 290
3 289 290 226
3 289 226 278
3 226 290 234
3 234 279 228
3 234 292 279
3 234 290 292
3 293 292 290
3 236 235 291
3 281 279 292
3 294 295 235
3 294 235 237
3 235 295 291
3 294 237 231
3 282 294 231
3 285 284 296
3 284 287 296
3 288 233 241
3 241 242 297
3 241 297 288
3 288 297 290
3 291 243 236
3 291 298 243
3 290 297 293
3 297 299 293
3 298 291 245
3 298 245 246
3 291 295 245
3 300 245 301
3 295 301 245
3 245 300 247
3 297 242 248
3 243 298 302
3 243 302 248
3 299 297 302
3 297 248 302
3 300 301 302
3 300 302 249
3 298 246 302
3 246 249 302
3 300 249 247
3 251 304 303
3 250 251 303
3 303 305 250
3 250 305 252
3 307 306 254
3 307 254 305
3 305 254 252
3 256 254 306
3 308 256 306
3 256 308 258
3 260 261 309
3 309 311 310
3 309 310 260
3 260 310 262
3 310 251 262
3 304 251 310
3 307 312 306
3 312 313 265
3 312 265 308
3 312 308 306
3 264 308 265
3 308 264 258
3 314 309 261
3 267 314 261
3 311 314 315
3 309 314 311
3 269 316 270
3 316 269 265
3 316 265 317
3 317 265 313
3 273 274 318
3 267 273 318
3 267 318 314
3 314 318 319
3 315 319 320
3 314 319 315
3 278 321 322
3 277 321 278
3 270 316 323
3 270 323 277
3 277 323 321
3 316 317 323
3 281 324 280
3 280 324 282
3 283 325 327
3 283 327 274
3 326 318 327
3 318 274 327
3 283 285 325
3 318 326 328
3 318 328 319
3 328 326 329
3 320 286 330
3 320 328 286
3 320 319 328
3 328 287 286
3 332 289 331
3 332 330 289
3 330 286 289
3 331 289 278
3 331 278 333
3 333 278 322
3 292 293 334
3 295 294 324
3 295 324 334
3 281 292 324
3 292 334 324
3 324 294 282
3 327 325 335
3 328 329 335
3 328 335 296
3 325 285 335
3 285 296 335
3 328 296 287
3 332 331 336
3 331 333 336
3 337 334 293
3 299 337 293
3 334 337 301
3 295 334 301
3 337 299 302
3 337 302 301
3 303 304 338
3 305 303 338
3 339 305 338
3 305 339 307
3 342 341 340
3 311 340 341
3 311 341 310
3 310 341 343
3 304 344 338
3 304 310 344
3 310 343 344
3 346 338 344
3 346 345 338
3 345 339 338
3 312 307 339
3 312 339 347
3 347 339 345
3 312 347 313
3 350 349 348
3 349 351 348
3 353 342 340
3 352 353 340
3 340 315 352
3 311 315 340
3 355 345 346
3 354 345 355
3 345 354 347
3 347 354 356
3 347 356 317
3 313 347 317
3 350 348 357
3 348 351 357
3 359 353 352
3 358 359 352
3 320 352 315
3 320 358 352
3 362 360 361
3 361 363 364
3 360 363 361
3 354 322 321
3 355 322 354
3 355 363 322
3 355 364 363
3 356 354 321
3 323 356 321
3 356 323 317
3 326 327 365
3 359 358 366
3 365 329 326
3 360 362 366
3 360 366 330
3 358 320 366
3 320 330 366
3 330 332 367
3 330 367 360
3 360 367 363
3 363 367 333
3 322 363 333
3 365 327 335
3 365 335 329
3 367 332 336
3 367 336 333
3 341 342 368
3 343 341 368
3 369 343 368
3 344 343 369
3 370 344 369
3 344 370 346
3 349 350 371
3 349 371 351
3 372 368 342
3 372 342 373
3 373 342 353
3 375 368 372
3 375 374 368
3 374 369 368
3 369 374 370
3 370 374 376
3 370 376 355
3 346 370 355
3 379 378 377
3 378 380 377
3 350 357 371
3 371 357 351
3 373 353 381
3 381 353 359
3 374 362 361
3 374 375 362
3 375 382 362
3 376 374 361
3 364 376 361
3 376 364 355
3 379 377 383
3 377 380 383
3 381 359 366
3 384 381 366
3 384 366 362
3 382 384 362
3 372 373 385
3 372 385 375
3 378 379 386
3 378 386 380
3 387 385 373
3 381 387 373
3 385 387 382
3 375 385 382
3 386 379 383
3 386 383 380
3 387 381 384
3 387 384 382
3 390 389 388
3 389 391 388
3 390 388 392
3 388 391 392
3 389 390 393
3 389 393 391
3 393 390 392
3 393 392 391
