ply
format ascii 1.0
element vertex 380
property float x
property float y
property float z
property uchar red
property uchar green
property uchar blue
element face 752
property list uchar int vertex_indices
end_header
5.9893193244934082 4 -9 125 76 56
6 3.69504928588867188 -9 125 56 53
6 4 -9.06697273254394531 124 80 48
6 4 -8.98914909362792969 124 67 50
5.95604085922241211 5 -9 124 91 53
6 5 -9.22756099700927734 123 97 45
6 5 -8.95534229278564453 123 82 48
5.92445087432861328 6 -9 124 110 50
6 6 -9.33553314208984375 122 118 43
6 6 -8.92325019836425781 122 103 45
5.8945612907409668 7 -9 111 123 47
6 7 -9.41279220581054688 98 122 40
6 7 -8.89288520812988281 114 121 42
5.86638355255126953 8 -9 79 122 43
6 8 -9.47054195404052734 65 120 37
6 8 -8.86425971984863281 82 120 39
6 8.47054195404052734 -9 82 120 39
6.55227088928222656 -9 -9 53 130 66
7 -9.76490116119384766 -9 45 129 95
7 -9 -9.76490116119384766 45 129 70
7 -9 -8.487060546875 47 129 58
6.7034149169921875 -9 8 86 155 35
7 -9.68619441986083984 8 30 154 34
7 -9 7.65285730361938477 101 152 34
7 -9 8.68619441986083984 89 154 31
6.50025701522827148 -8 -9 75 130 55
7 -8 -9.78323650360107422 57 129 46
7 -8 -8.4274444580078125 74 129 49
6.65214347839355469 -8 8 142 155 37
7 -8 7.59282445907592773 152 146 36
7 -8 8.71848011016845703 148 154 33
6.44962692260742188 -7 -9 106 130 57
7 -7 -9.7983856201171875 92 129 48
7 -7 -8.36940860748291016 108 129 51
6.60224771499633789 -7 8 155 117 38
7 -7 7.53439569473266602 151 97 37
7 -7 8.74387168884277344 154 109 34
6.40039968490600586 -6 -9 129 126 58
7 -6 -9.81109428405761719 121 128 49
7 -6 -8.31297779083251953 128 121 52
6.55374479293823242 -6 8 155 73 39
7 -6 7.47759246826171875 151 54 39
7 -6 8.76433372497558594 154 64 35
6.35259532928466797 -5 -9 129 103 59
7 -5 -9.82188892364501953 128 110 50
7 -5 -8.25817203521728516 128 96 53
6.5066533088684082 -5 8 155 44 40
7 -5 7.42243719100952148 151 61 39
7 -5 8.78114700317382812 154 46 36
6.30623340606689453 -4 -9 129 84 59
7 -4 -9.83115768432617188 128 90 50
7 -4 -8.20501613616943359 128 76 53
6.46099138259887695 -4 8 154 75 41
7 -4 7.36895132064819336 151 91 40
7 -4 8.79518604278564453 154 78 36
6.26133298873901367 -3 -9 128 69 60
7 -3 -9.83918666839599609 128 73 51
7 -3 -8.15353298187255859 128 60 53
6.41677713394165039 -3 8 154 100 41
7 -3 7.31715679168701172 151 115 40
7 -3 8.80706119537353516 153 103 37
6.21791410446166992 -2 -9 128 60 59
7 -2 -9.84619617462158203 127 61 50
7 -2 -8.1037445068359375 127 58 53
6.37402963638305664 -2 8 154 117 41
7 -2 7.26707649230957031 150 132 40
7 -2 8.81721878051757812 153 121 37
6.1759953498840332 -1 -9 128 67 59
7 -1 -9.85235500335693359 127 52 50
7 -1 -8.05567359924316406 127 65 53
6.33276653289794922 -1 8 153 128 40
7 -1 7.21873092651367188 150 142 40
7 -1 8.82598590850830078 152 133 36
6.13559627532958984 0 -9 127 69 58
7 0 -9.85779571533203125 126 50 49
7 0 -8.00934219360351562 126 68 52
6.29300498962402344 0 8 153 133 40
7 0 7.17214202880859375 149 147 39
7 0 8.83361339569091797 152 137 36
6.09673547744750977 1 -9 126 67 56
7 1 -9.86262607574462891 126 48 48
6.97174453735351562 1 -8 126 82 59
7 0.210247606039047241 -8 126 83 54
7 1 -7.96289205551147461 126 81 53
6.25476408004760742 1 8 152 131 39
7 1 7.12733078002929688 149 145 38
7 1 8.84029197692871094 151 135 35
6.05943155288696289 2 -9 126 61 55
7 2 -9.86693096160888672 125 51 46
6.93745565414428711 2 -8 126 76 57
7 2 -7.91785526275634766 125 75 51
6.21806001663208008 2 8 152 122 38
7 2 7.08431816101074219 148 137 37
7 2 8.84617328643798828 151 127 34
6.02370262145996094 3 -9 125 56 53
7 3 -9.87077903747558594 124 60 45
6.90464210510253906 3 -8 125 65 55
7 3 -7.87475109100341797 124 64 49
6.18291044235229492 3 8 151 108 36
7 3 7.04312419891357422 148 123 36
7 3 8.85137653350830078 150 112 32
7 4 -9.87422943115234375 123 72 43
6.87331628799438477 4 -8 124 55 53
7 4 -7.83359670639038086 123 48 47
6.14933204650878906 4 8 150 86 34
7 4 7.0037689208984375 147 102 34
7 4 8.85599613189697266 150 90 31
7 5 -9.87732887268066406 122 90 40
6.8434901237487793 5 -8 123 70 50
7 5 -7.79440832138061523 123 62 45
6.97347688674926758 5 7 147 70 36
7 4.10079860687255859 7 147 102 34
7 5 6.96430301666259766 143 84 35
6.1173405647277832 5 8 150 57 33
7 5 8.86011123657226562 149 60 29
7 6 -9.88011741638183594 122 113 38
6.81517553329467773 6 -8 123 90 47
7 6 -7.7572021484375 122 83 42
6.94548606872558594 6 7 146 36 34
7 6 6.92662715911865234 143 50 33
6.08695173263549805 6 8 149 41 31
7 6 8.8637847900390625 148 31 27
7 7 -9.88262653350830078 101 121 35
6.78838348388671875 7 -8 122 115 44
7 7 -7.72199296951293945 121 109 39
6.91900348663330078 7 7 145 69 31
7 7 6.89097785949707031 142 52 30
6.05818033218383789 7 8 148 81 28
7 7 8.86706924438476562 147 72 25
7 8 -9.88488674163818359 66 120 33
6.76312446594238281 8 -8 96 121 41
7 8 -7.68879604339599609 99 120 36
6.89403963088989258 8 7 144 114 29
7 8 6.85736894607543945 141 95 28
6.03104114532470703 8 8 147 128 26
7 8 8.87000942230224609 146 120 23
7 8.88488674163818359 -9 83 119 35
7 8.63720989227294922 -8 99 120 36
7 8.44304943084716797 7 144 106 26
7 8.87000942230224609 8 146 120 23
8 -9.91289901733398438 -9 40 128 90
8 -9 -9.91289901733398438 39 128 64
7.39011907577514648 -9 -8 52 129 49
8 -9.82846450805664062 -8 42 128 78
8 -9 -7.10631370544433594 49 128 44
7.5125269889831543 -9 7 101 152 34
8 -9.79639148712158203 7 40 151 29
8 -9 6.26815652847290039 112 148 33
8 -9.90508270263671875 8 26 154 26
8 -9 8.90508270263671875 91 154 28
8 -8 -9.91524982452392578 55 128 41
7.34239578247070312 -8 -8 89 129 51
8 -8 -7.03626060485839844 89 128 45
7.4654383659362793 -8 7 152 146 36
8 -8 6.19735431671142578 148 129 35
8 -8 8.90791606903076172 151 154 29
8 -7 -9.91739559173583984 91 128 42
7.29593038558959961 -7 -8 122 129 53
7.97971868515014648 -7 -7 129 124 55
8 -7.46721410751342773 -7 102 129 47
8 -7 -6.96528196334838867 128 120 49
7.41959953308105469 -7 7 151 97 37
8 -7 6.12841463088989258 148 81 36
8 -7 8.91048812866210938 154 103 30
8 -6 -9.91936016082763672 123 128 43
7.25074195861816406 -6 -8 129 108 54
7.93764972686767578 -6 -7 129 96 56
8 -6 -6.89324855804443359 128 90 50
7.37502861022949219 -6 7 151 54 39
8 -6 6.06136512756347656 148 39 37
8 -6 8.91283035278320312 153 56 31
8 -5 -9.92116165161132812 128 106 44
7.20684957504272461 -5 -8 128 84 55
7.89682960510253906 -5 -7 129 73 57
8 -5 -6.82333183288574219 128 66 51
7.99766445159912109 -5 6 149 72 43
8 -5.05754184722900391 6 148 39 37
8 -5 5.99588632583618164 145 81 41
7.33174371719360352 -5 7 151 61 39
8 -5 8.91496849060058594 153 47 32
8 -4 -9.92281627655029297 127 83 45
7.16427183151245117 -4 -8 128 64 56
7.85727262496948242 -4 -7 128 61 58
8 -4 -6.75555706024169922 128 57 51
7.95848894119262695 -4 6 148 101 43
8 -4 5.92688179016113281 145 109 42
7.28976202011108398 -4 7 151 91 40
8 -4 8.91692543029785156 153 80 32
8 -3 -9.92433929443359375 127 66 45
7.12302827835083008 -3 -8 128 63 56
7.81899166107177734 -3 -7 128 76 58
8 -3 -6.68994998931884766 127 74 52
7.92058324813842773 -3 6 148 123 44
8 -3 5.86009311676025391 145 131 42
7.24910259246826172 -3 7 151 115 40
8 -3 8.91871929168701172 153 105 32
8 -2 -9.92574310302734375 126 53 45
7.08313703536987305 -2 -8 127 74 56
7.78200054168701172 -2 -7 128 87 58
8 -2 -6.62653446197509766 127 86 51
7.88395977020263672 -2 6 148 139 44
8 -2 5.79554510116577148 142 144 42
7.20978212356567383 -2 7 150 132 40
8 -2 8.92036628723144531 152 124 32
8 -1 -9.92703723907470703 126 45 44
7.04461765289306641 -1 -8 127 80 55
7.74631214141845703 -1 -7 127 93 57
8 -1 -6.56533670425415039 126 93 51
7.84863185882568359 -1 6 145 147 43
8 -1 5.7332615852355957 132 144 41
7.17181921005249023 -1 7 150 142 40
8 -1 8.92187976837158203 152 135 32
8 0 -9.92823219299316406 125 48 44
7.00748729705810547 0 -8 126 83 54
7.71193981170654297 0 -7 127 96 56
8 0 -6.50638055801391602 126 95 50
7.81461143493652344 0 6 140 147 43
8 0 5.67326688766479492 127 144 41
7.13523054122924805 0 7 149 147 39
8 0 8.92327308654785156 151 140 32
8 1 -9.92933559417724609 125 46 42
7.67889738082885742 1 -7 126 94 55
8 1 -6.4496912956237793 125 94 49
7.78191137313842773 1 6 141 146 42
8 1 5.6155858039855957 127 143 40
7.10003376007080078 1 7 149 145 38
8 1 8.92455577850341797 151 138 31
8 2 -9.93035507202148438 124 43 41
7.64719724655151367 2 -7 125 88 53
8 2 -6.39529228210449219 125 87 47
7.75054359436035156 2 6 146 144 40
8 2 5.56024169921875 133 142 38
7.06624603271484375 2 7 148 137 37
8 2 8.92573833465576172 150 130 30
8 3 -9.93129730224609375 123 52 39
7.6168522834777832 3 -7 125 78 51
8 3 -6.34320783615112305 124 77 45
7.7205204963684082 3 6 145 130 39
8 3 5.50725746154785156 142 138 37
7.03388309478759766 3 7 148 123 36
8 3 8.92682838439941406 150 114 29
8 4 -9.93216705322265625 123 66 38
7.5878753662109375 4 -7 124 63 49
8 4 -6.29346036911010742 123 61 43
7.69185400009155273 4 6 144 110 37
8 4 5.45665550231933594 141 119 35
7.00296163558959961 4 7 147 102 34
8 4 8.92783164978027344 149 92 27
8 5 -9.93296909332275391 122 85 36
7.56027841567993164 5 -7 123 51 46
8 5 -6.24607324600219727 122 43 41
7.66455602645874023 5 6 143 84 35
8 5 5.40845918655395508 140 93 33
8 5 8.9287567138671875 148 62 26
8 6 -9.93370914459228516 121 108 33
7.5340733528137207 6 -7 122 71 44
8 6 -6.20106744766235352 121 64 39
7.63863706588745117 6 6 143 50 33
8 6 5.36268901824951172 139 60 31
8 6 8.92960739135742188 147 24 24
8 7 -9.93439006805419922 102 120 31
7.50927162170410156 7 -7 121 97 41
8 7 -6.15846443176269531 120 92 36
7.61410808563232422 7 6 142 52 30
8 7 5.3193659782409668 139 39 29
8 7 8.930389404296875 147 66 22
8 8 -9.93501567840576172 66 119 29
7.48588418960571289 8 -7 112 120 38
8 8 -6.11828470230102539 114 119 33
7.59098052978515625 8 6 141 95 28
8 8 5.27851009368896484 138 81 27
8 8 8.9311065673828125 146 115 20
8 8.93501567840576172 -9 84 119 30
8 8.90151309967041016 -8 100 119 32
8 8.80443572998046875 -7 114 119 33
8 8.76795387268066406 6 140 90 25
8 8.89246749877929688 7 143 101 23
8 8.9311065673828125 8 146 115 20
8.91289901733398438 -9 -9 42 128 50
8.82846450805664062 -9 -8 49 128 44
8.79639148712158203 -9 7 103 151 30
8.90508270263671875 -9 8 91 154 28
8.91524982452392578 -8 -9 73 128 43
8.8382110595703125 -8 -8 89 128 45
8.81016159057617188 -8 7 151 141 32
8.90791606903076172 -8 8 151 154 29
8.91739559173583984 -7 -9 108 128 45
8.84660720825195312 -7 -8 123 128 47
8.14598464965820312 -7 -7 128 120 49
8.82177352905273438 -7 7 151 90 33
8.91048812866210938 -7 8 154 103 30
8.91936016082763672 -6 -9 128 116 46
8.85390377044677734 -6 -8 128 102 48
8.34350299835205078 -6 -7 128 90 50
8.83168220520019531 -6 7 151 46 34
8.91283035278320312 -6 8 153 56 31
8.92116165161132812 -5 -9 127 90 47
8.86029338836669922 -5 -8 128 77 49
8.46297931671142578 -5 -7 128 66 51
8.01934146881103516 -5 6 148 73 38
8.84022426605224609 -5 7 150 61 35
8.91496849060058594 -5 8 153 47 32
8.92281627655029297 -4 -9 127 69 47
8.86592578887939453 -4 -8 127 56 49
8.54291343688964844 -4 -7 128 57 51
8.25877094268798828 -4 6 148 102 39
8.84765052795410156 -4 7 150 93 35
8.91692543029785156 -4 8 153 80 32
8.92433929443359375 -3 -9 127 52 47
8.87091827392578125 -3 -8 127 60 50
8.60005092620849609 -3 -7 127 74 52
8.39949893951416016 -3 6 147 125 39
8.85415458679199219 -3 7 150 117 36
8.91871929168701172 -3 8 153 105 32
8.92574310302734375 -2 -9 126 56 47
8.87536430358886719 -2 -8 127 72 49
8.64284706115722656 -2 -7 127 86 51
8.49196624755859375 -2 6 147 142 39
8.85988616943359375 -2 7 150 134 36
8.92036628723144531 -2 8 152 124 32
8.92703723907470703 -1 -9 126 63 47
8.87934207916259766 -1 -8 126 79 49
8.67603302001953125 -1 -7 126 93 51
8.5572357177734375 -1 6 141 147 38
8.86496448516845703 -1 7 149 145 35
8.92187976837158203 -1 8 152 135 32
8.92823219299316406 0 -9 125 66 46
8.88291168212890625 0 -8 125 82 48
8.70245933532714844 0 -7 126 95 50
8.60566520690917969 0 6 136 146 38
8.86948490142822266 0 7 147 149 35
8.92327308654785156 0 8 151 140 32
8.92933559417724609 1 -9 125 64 45
8.88612556457519531 1 -8 125 80 47
8.72394847869873047 1 -7 125 94 49
8.64293861389160156 1 6 136 145 37
8.87352371215820312 1 7 148 148 34
8.92455577850341797 1 8 151 138 31
8.93035507202148438 2 -9 124 57 43
8.88902664184570312 2 -8 124 74 45
8.74171829223632812 2 -7 125 87 47
8.67243576049804688 2 6 143 145 36
8.87714481353759766 2 7 148 140 33
8.92573833465576172 2 8 150 130 30
8.93129730224609375 3 -9 123 46 42
8.89165019989013672 3 -8 123 62 44
8.75661373138427734 3 -7 124 77 45
8.69629192352294922 3 6 144 133 34
8.88039875030517578 3 7 147 125 31
8.92682838439941406 3 8 150 114 29
8.93216705322265625 4 -9 123 51 40
8.89402580261230469 4 -8 123 46 42
8.76924037933349609 4 -7 123 61 43
8.71592044830322266 4 6 144 113 33
8.88333034515380859 4 7 146 104 30
8.92783164978027344 4 8 149 92 27
8.93296909332275391 5 -9 122 69 38
8.89618015289306641 5 -8 122 55 40
8.78003978729248047 5 -7 122 43 41
8.73229694366455078 5 6 143 85 31
8.88597488403320312 5 7 145 75 28
8.9287567138671875 5 8 148 62 26
8.93370914459228516 6 -9 121 92 35
8.89813423156738281 6 -8 121 77 37
8.78934574127197266 6 -7 121 64 39
8.74611186981201172 6 6 142 51 29
8.88836288452148438 6 7 145 39 26
8.92960739135742188 6 8 147 24 24
8.93439006805419922 7 -9 120 120 33
8.89990615844726562 7 -8 120 105 35
8.79741191864013672 7 -7 120 92 36
8.75787258148193359 7 6 141 45 27
8.89052009582519531 7 7 144 54 25
8.930389404296875 7 8 147 66 22
8.93501567840576172 8 -9 84 119 30
8.90151309967041016 8 -8 100 119 32
8.80443572998046875 8 -7 114 119 33
8.76795387268066406 8 6 140 90 25
8.89246749877929688 8 7 143 101 23
8.9311065673828125 8 8 146 115 20
3 2 1 0
3 1 3 0
3 5 2 0
3 4 5 0
3 3 6 4
3 0 3 4
3 8 5 4
3 7 8 4
3 6 9 7
3 4 6 7
3 11 8 7
3 10 11 7
3 9 12 10
3 7 9 10
3 14 11 10
3 13 14 10
3 12 15 13
3 10 12 13
3 14 13 16
3 13 15 16
3 19 18 17
3 18 20 17
3 23 22 21
3 22 24 21
3 26 19 17
3 25 26 17
3 20 27 25
3 17 20 25
3 29 23 21
3 28 29 21
3 24 30 28
3 21 24 28
3 32 26 25
3 31 32 25
3 27 33 31
3 25 27 31
3 35 29 28
3 34 35 28
3 30 36 34
3 28 30 34
3 38 32 31
3 37 38 31
3 33 39 37
3 31 33 37
3 41 35 34
3 40 41 34
3 36 42 40
3 34 36 40
3 44 38 37
3 43 44 37
3 39 45 43
3 37 39 43
3 47 41 40
3 46 47 40
3 42 48 46
3 40 42 46
3 50 44 43
3 49 50 43
3 45 51 49
3 43 45 49
3 53 47 46
3 52 53 46
3 48 54 52
3 46 48 52
3 56 50 49
3 55 56 49
3 51 57 55
3 49 51 55
3 59 53 52
3 58 59 52
3 54 60 58
3 52 54 58
3 62 56 55
3 61 62 55
3 57 63 61
3 55 57 61
3 65 59 58
3 64 65 58
3 60 66 64
3 58 60 64
3 68 62 61
3 67 68 61
3 63 69 67
3 61 63 67
3 71 65 64
3 70 71 64
3 66 72 70
3 64 66 70
3 74 68 67
3 73 74 67
3 69 75 73
3 67 69 73
3 77 71 70
3 76 77 70
3 72 78 76
3 70 72 76
3 80 74 73
3 79 80 73
3 75 82 81
3 75 81 73
3 73 81 79
3 82 83 81
3 85 77 76
3 84 85 76
3 78 86 84
3 76 78 84
3 88 80 79
3 87 88 79
3 79 81 87
3 81 89 87
3 83 90 89
3 81 83 89
3 92 85 84
3 91 92 84
3 86 93 91
3 84 86 91
3 95 88 87
3 94 95 87
3 87 89 94
3 89 96 94
3 90 97 96
3 89 90 96
3 99 92 91
3 98 99 91
3 93 100 98
3 91 93 98
3 94 1 2
3 94 2 95
3 95 2 101
3 1 102 3
3 1 94 102
3 94 96 102
3 97 103 102
3 96 97 102
3 105 99 98
3 104 105 98
3 100 106 104
3 98 100 104
3 101 2 107
3 107 2 5
3 108 3 102
3 6 3 108
3 103 109 108
3 102 103 108
3 112 111 110
3 111 105 104
3 111 104 110
3 110 104 113
3 106 114 113
3 104 106 113
3 107 5 115
3 115 5 8
3 116 6 108
3 9 6 116
3 109 117 116
3 108 109 116
3 119 112 110
3 118 119 110
3 110 113 118
3 113 120 118
3 114 121 120
3 113 114 120
3 115 8 122
3 122 8 11
3 123 9 116
3 12 9 123
3 117 124 123
3 116 117 123
3 126 119 118
3 125 126 118
3 118 120 125
3 120 127 125
3 121 128 127
3 120 121 127
3 122 11 129
3 129 11 14
3 130 12 123
3 15 12 130
3 124 131 130
3 123 124 130
3 133 126 125
3 132 133 125
3 125 127 132
3 127 134 132
3 128 135 134
3 127 128 134
3 129 14 16
3 136 129 16
3 15 130 137
3 15 137 16
3 16 137 136
3 130 131 137
3 133 132 138
3 132 134 139
3 138 132 139
3 134 135 139
3 19 141 140
3 18 19 140
3 142 20 18
3 142 18 143
3 143 18 140
3 143 144 142
3 147 146 145
3 23 145 146
3 23 146 22
3 22 146 148
3 22 148 149
3 24 22 149
3 141 19 150
3 150 19 26
3 151 20 142
3 27 20 151
3 144 152 151
3 142 144 151
3 154 147 145
3 153 154 145
3 145 29 153
3 23 29 145
3 149 155 24
3 155 30 24
3 150 26 156
3 156 26 32
3 157 27 151
3 33 27 157
3 152 159 158
3 152 158 151
3 151 158 157
3 159 160 158
3 162 154 153
3 161 162 153
3 153 35 161
3 29 35 153
3 155 163 30
3 163 36 30
3 156 32 164
3 164 32 38
3 165 33 157
3 39 33 165
3 157 158 165
3 158 166 165
3 160 167 166
3 158 160 166
3 169 162 161
3 168 169 161
3 161 41 168
3 35 41 161
3 163 170 36
3 170 42 36
3 164 38 171
3 171 38 44
3 172 39 165
3 45 39 172
3 165 166 172
3 166 173 172
3 167 174 173
3 166 167 173
3 177 176 175
3 176 169 168
3 176 168 175
3 175 168 178
3 168 47 178
3 41 47 168
3 170 179 42
3 179 48 42
3 171 44 180
3 180 44 50
3 181 45 172
3 51 45 181
3 172 173 181
3 173 182 181
3 174 183 182
3 173 174 182
3 185 177 175
3 184 185 175
3 175 178 184
3 178 186 184
3 178 53 186
3 47 53 178
3 179 187 48
3 187 54 48
3 180 50 188
3 188 50 56
3 189 51 181
3 57 51 189
3 181 182 189
3 182 190 189
3 183 191 190
3 182 183 190
3 193 185 184
3 192 193 184
3 184 186 192
3 186 194 192
3 186 59 194
3 53 59 186
3 187 195 54
3 195 60 54
3 188 56 196
3 196 56 62
3 197 57 189
3 63 57 197
3 189 190 197
3 190 198 197
3 191 199 198
3 190 191 198
3 201 193 192
3 200 201 192
3 192 194 200
3 194 202 200
3 194 65 202
3 59 65 194
3 195 203 60
3 203 66 60
3 196 62 204
3 204 62 68
3 205 63 197
3 69 63 205
3 197 198 205
3 198 206 205
3 199 207 206
3 198 199 206
3 209 201 200
3 208 209 200
3 200 202 208
3 202 210 208
3 202 71 210
3 65 71 202
3 203 211 66
3 211 72 66
3 204 68 212
3 212 68 74
3 213 69 205
3 75 69 213
3 205 206 213
3 206 214 213
3 207 215 214
3 206 207 214
3 217 209 208
3 216 217 208
3 208 210 216
3 210 218 216
3 210 77 218
3 71 77 210
3 211 219 72
3 219 78 72
3 212 74 220
3 220 74 80
3 213 82 75
3 82 221 83
3 82 213 221
3 213 214 221
3 215 222 221
3 214 215 221
3 224 217 216
3 223 224 216
3 216 218 223
3 218 225 223
3 218 85 225
3 77 85 218
3 219 226 78
3 226 86 78
3 220 80 227
3 227 80 88
3 228 83 221
3 90 83 228
3 222 229 228
3 221 222 228
3 231 224 223
3 230 231 223
3 223 225 230
3 225 232 230
3 225 92 232
3 85 92 225
3 226 233 86
3 233 93 86
3 227 88 234
3 234 88 95
3 235 90 228
3 97 90 235
3 229 236 235
3 228 229 235
3 238 231 230
3 237 238 230
3 230 232 237
3 232 239 237
3 232 99 239
3 92 99 232
3 233 240 93
3 240 100 93
3 234 95 241
3 241 95 101
3 242 97 235
3 103 97 242
3 236 243 242
3 235 236 242
3 245 238 237
3 244 245 237
3 237 239 244
3 239 246 244
3 239 105 246
3 99 105 239
3 240 247 100
3 247 106 100
3 241 101 248
3 248 101 107
3 249 103 242
3 109 103 249
3 243 250 249
3 242 243 249
3 252 245 244
3 251 252 244
3 112 246 111
3 112 251 246
3 251 244 246
3 246 105 111
3 247 253 106
3 253 114 106
3 248 107 254
3 254 107 115
3 255 109 249
3 117 109 255
3 250 256 255
3 249 250 255
3 258 252 251
3 257 258 251
3 251 119 257
3 112 119 251
3 253 259 114
3 259 121 114
3 254 115 260
3 260 115 122
3 261 117 255
3 124 117 261
3 256 262 261
3 255 256 261
3 264 258 257
3 263 264 257
3 257 126 263
3 119 126 257
3 259 265 121
3 265 128 121
3 260 122 266
3 266 122 129
3 267 124 261
3 131 124 267
3 262 268 267
3 261 262 267
3 270 264 263
3 269 270 263
3 263 133 269
3 126 133 263
3 265 271 128
3 271 135 128
3 266 129 136
3 272 266 136
3 272 136 273
3 136 137 273
3 131 267 274
3 131 274 137
3 137 274 273
3 267 268 274
3 270 269 275
3 269 133 138
3 269 138 275
3 275 138 276
3 276 138 277
3 138 139 277
3 277 139 135
3 271 277 135
3 140 141 278
3 143 140 278
3 279 143 278
3 143 279 144
3 146 147 280
3 148 146 280
3 281 148 280
3 148 281 149
3 282 278 141
3 150 282 141
3 278 282 279
3 279 282 283
3 279 283 152
3 144 279 152
3 284 280 147
3 154 284 147
3 280 284 281
3 281 284 285
3 281 285 155
3 149 281 155
3 286 282 150
3 156 286 150
3 282 286 283
3 283 286 287
3 159 152 283
3 159 283 288
3 288 283 287
3 159 288 160
3 289 284 154
3 162 289 154
3 284 289 285
3 285 289 290
3 285 290 163
3 155 285 163
3 291 286 156
3 164 291 156
3 286 291 287
3 287 291 292
3 287 292 288
3 288 292 293
3 288 293 167
3 160 288 167
3 294 289 162
3 169 294 162
3 289 294 290
3 290 294 295
3 290 295 170
3 163 290 170
3 296 291 164
3 171 296 164
3 291 296 292
3 292 296 297
3 292 297 293
3 293 297 298
3 293 298 174
3 167 293 174
3 176 177 299
3 169 176 299
3 169 299 294
3 294 299 300
3 294 300 295
3 295 300 301
3 295 301 179
3 170 295 179
3 302 296 171
3 180 302 171
3 296 302 297
3 297 302 303
3 297 303 298
3 298 303 304
3 298 304 183
3 174 298 183
3 305 299 177
3 185 305 177
3 299 305 300
3 300 305 306
3 300 306 301
3 301 306 307
3 301 307 187
3 179 301 187
3 308 302 180
3 188 308 180
3 302 308 303
3 303 308 309
3 303 309 304
3 304 309 310
3 304 310 191
3 183 304 191
3 311 305 185
3 193 311 185
3 305 311 306
3 306 311 312
3 306 312 307
3 307 312 313
3 307 313 195
3 187 307 195
3 314 308 188
3 196 314 188
3 308 314 309
3 309 314 315
3 309 315 310
3 310 315 316
3 310 316 199
3 191 310 199
3 317 311 193
3 201 317 193
3 311 317 312
3 312 317 318
3 312 318 313
3 313 318 319
3 313 319 203
3 195 313 203
3 320 314 196
3 204 320 196
3 314 320 315
3 315 320 321
3 315 321 316
3 316 321 322
3 316 322 207
3 199 316 207
3 323 317 201
3 209 323 201
3 317 323 318
3 318 323 324
3 318 324 319
3 319 324 325
3 319 325 211
3 203 319 211
3 326 320 204
3 212 326 204
3 320 326 321
3 321 326 327
3 321 327 322
3 322 327 328
3 322 328 215
3 207 322 215
3 329 323 209
3 217 329 209
3 323 329 324
3 324 329 330
3 324 330 325
3 325 330 331
3 325 331 219
3 211 325 219
3 332 326 212
3 220 332 212
3 326 332 327
3 327 332 333
3 327 333 328
3 328 333 334
3 328 334 222
3 215 328 222
3 335 329 217
3 224 335 217
3 329 335 330
3 330 335 336
3 330 336 331
3 331 336 337
3 331 337 226
3 219 331 226
3 338 332 220
3 227 338 220
3 332 338 333
3 333 338 339
3 333 339 334
3 334 339 340
3 334 340 229
3 222 334 229
3 341 335 224
3 231 341 224
3 335 341 336
3 336 341 342
3 336 342 337
3 337 342 343
3 337 343 233
3 226 337 233
3 344 338 227
3 234 344 227
3 338 344 339
3 339 344 345
3 339 345 340
3 340 345 346
3 340 346 236
3 229 340 236
3 347 341 231
3 238 347 231
3 341 347 342
3 342 347 348
3 342 348 343
3 343 348 349
3 343 349 240
3 233 343 240
3 350 344 234
3 241 350 234
3 344 350 345
3 345 350 351
3 345 351 346
3 346 351 352
3 346 352 243
3 236 346 243
3 353 347 238
3 245 353 238
3 347 353 348
3 348 353 354
3 348 354 349
3 349 354 355
3 349 355 247
3 240 349 247
3 356 350 241
3 248 356 241
3 350 356 351
3 351 356 357
3 351 357 352
3 352 357 358
3 352 358 250
3 243 352 250
3 359 353 245
3 252 359 245
3 353 359 354
3 354 359 360
3 354 360 355
3 355 360 361
3 355 361 253
3 247 355 253
3 362 356 248
3 254 362 248
3 356 362 357
3 357 362 363
3 357 363 358
3 358 363 364
3 358 364 256
3 250 358 256
3 365 359 252
3 258 365 252
3 359 365 360
3 360 365 366
3 360 366 361
3 361 366 367
3 361 367 259
3 253 361 259
3 368 362 254
3 260 368 254
3 362 368 363
3 363 368 369
3 363 369 364
3 364 369 370
3 364 370 262
3 256 364 262
3 371 365 258
3 264 371 258
3 365 371 366
3 366 371 372
3 366 372 367
3 367 372 373
3 367 373 265
3 259 367 265
3 374 368 260
3 266 374 260
3 368 374 369
3 369 374 375
3 369 375 370
3 370 375 376
3 370 376 268
3 262 370 268
3 377 371 264
3 270 377 264
3 371 377 372
3 372 377 378
3 372 378 373
3 373 378 379
3 373 379 271
3 265 373 271
3 374 266 272
3 375 374 272
3 273 375 272
3 376 375 273
3 274 376 273
3 376 274 268
3 377 270 275
3 378 377 275
3 276 378 275
3 379 378 276
3 277 379 276
3 379 277 271
