ply
format ascii 1.0
element vertex 82
property float x
property float y
property float z
property uchar red
property uchar green
property uchar blue
element face 148
property list uchar int vertex_indices
end_header
-9.56437110900878906 8 6 19 111 5
-9 7.87036561965942383 6 152 39 0
-9 8 5.54534339904785156 184 19 0
-9.75420188903808594 8 7 8 115 99
-9 7.71214485168457031 7 11 84 68
-9 8 7.20355224609375 3 122 85
-9 8.56437110900878906 6 11 74 63
-9 8.75420188903808594 7 3 122 85
-8.92156887054443359 8 6 11 74 63
-8 7.87795400619506836 7 255 221 0
-8 8 6.91388940811157227 55 101 0
-8.26096630096435547 8 8 255 185 6
-8 7.57502937316894531 8 155 23 0
-8 8 8.80914115905761719 9 64 41
-8 8.58921051025390625 7 225 36 0
-8 8.80914115905761719 8 9 64 41
-7.77397918701171875 8 7 225 36 0
-7 7.85384178161621094 8 255 170 0
-7 8 7.68574285507202148 255 194 0
-7 8 8.69239330291748047 61 36 0
-7 8.69239330291748047 8 61 36 0
-6.20104408264160156 8 7 255 194 0
-6 7.90970277786254883 7 255 207 86
-6 8 6.74545574188232422 255 19 0
-6.39137172698974609 8 8 61 36 0
-6 8 7.46059703826904297 255 187 0
-6 8.55276298522949219 7 255 187 0
-5 7.9230198860168457 7 255 175 103
-5 8 6.94244575500488281 199 255 106
-5 8 7.77024221420288086 255 231 151
-5 8.44172477722167969 7 255 231 151
-4.95623970031738281 8 7 255 231 151
-1.47938084602355957 8 8 27 39 10
-1 7.95632219314575195 8 127 114 61
-1 8 7.94102668762207031 208 154 99
-1 8 8.54833793640136719 142 110 77
-1 8.54833793640136719 8 142 110 77
0 7.86333942413330078 8 82 97 83
0 8 7.68141460418701172 90 111 90
0 8 8.65867805480957031 42 40 23
0 8.65867805480957031 8 42 40 23
1 7.936859130859375 8 221 121 113
1 8 7.90302085876464844 166 109 77
1 8 8.64216136932373047 38 75 43
1 8.64216136932373047 8 38 75 43
1.447762131690979 8 8 38 75 43
2.48545145988464355 8 8 115 162 162
3 7.81902170181274414 8 84 160 95
3 8 7.38704204559326172 78 157 86
3 8 8.70112991333007812 71 96 87
3 8.70112991333007812 8 71 96 87
4 7.90210342407226562 8 255 209 199
4 8 7.85860013961791992 214 161 156
4 8 8.74508857727050781 13 14 13
4 8.74508857727050781 8 13 14 13
5 7.8979487419128418 8 198 166 161
5 8 7.85952901840209961 254 211 202
5 8 8.74887180328369141 51 50 44
5 8.74887180328369141 8 51 50 44
6 7.81278324127197266 8 180 168 151
6 8 7.62116098403930664 217 202 193
6 8 8.72563076019287109 52 69 65
6 8.72563076019287109 8 52 69 65
7 7.6979069709777832 8 167 206 79
7 8 7.16100549697875977 146 190 80
7 8 8.8117523193359375 45 57 49
7 8.8117523193359375 8 45 57 49
7.97716379165649414 8 5 169 187 178
8 7.98691463470458984 5 153 183 159
8 8 4.96155166625976562 32 31 27
8 8 5.11136770248413086 22 24 17
7.19524669647216797 8 7 146 190 80
8 7.66797304153442383 7 10 27 17
8 8 6.24498653411865234 102 171 67
8 7.48361968994140625 8 25 41 30
8 8 8.84285545349121094 227 182 173
8 8.12180614471435547 5 22 24 17
8 8.77328205108642578 7 37 53 42
8 8.84285545349121094 8 227 182 173
8.12180614471435547 8 5 22 24 17
8.77328205108642578 8 7 37 53 42
8.84285545349121094 8 8 227 182 173
3 2 1 0
3 1 4 3
3 0 1 3
3 4 5 3
3 2 0 6
3 0 3 7
3 6 0 7
3 3 5 7
3 1 2 8
3 8 10 9
3 8 9 1
3 1 9 4
3 11 5 4
3 11 4 12
3 12 4 9
3 12 13 11
3 8 2 6
3 10 8 6
3 10 6 14
3 14 6 7
3 5 11 15
3 5 15 7
3 7 15 14
3 11 13 15
3 9 10 16
3 16 18 17
3 16 17 9
3 9 17 12
3 12 17 19
3 13 12 19
3 16 10 14
3 18 16 14
3 18 14 20
3 20 14 15
3 20 15 13
3 19 20 13
3 23 22 21
3 18 21 22
3 18 22 17
3 25 24 22
3 24 17 22
3 17 24 19
3 23 21 26
3 24 25 26
3 24 26 20
3 21 18 26
3 18 20 26
3 24 20 19
3 23 28 27
3 22 23 27
3 22 27 29
3 25 22 29
3 28 23 26
3 30 28 26
3 30 26 25
3 29 30 25
3 27 28 31
3 27 31 29
3 31 28 30
3 31 30 29
3 34 33 32
3 33 35 32
3 34 32 36
3 32 35 36
3 34 38 37
3 33 34 37
3 33 37 39
3 35 33 39
3 38 34 36
3 40 38 36
3 40 36 35
3 39 40 35
3 38 42 41
3 37 38 41
3 37 41 43
3 39 37 43
3 42 38 40
3 44 42 40
3 44 40 39
3 43 44 39
3 41 42 45
3 41 45 43
3 45 42 44
3 45 44 43
3 48 47 46
3 47 49 46
3 48 46 50
3 46 49 50
3 48 52 51
3 47 48 51
3 47 51 53
3 49 47 53
3 52 48 50
3 54 52 50
3 54 50 49
3 53 54 49
3 52 56 55
3 51 52 55
3 51 55 57
3 53 51 57
3 56 52 54
3 58 56 54
3 58 54 53
3 57 58 53
3 56 60 59
3 55 56 59
3 55 59 61
3 57 55 61
3 60 56 58
3 62 60 58
3 62 58 57
3 61 62 57
3 60 64 63
3 59 60 63
3 59 63 65
3 61 59 65
3 64 60 62
3 66 64 62
3 66 62 61
3 65 66 61
3 69 68 67
3 68 70 67
3 73 72 71
3 64 71 72
3 64 72 63
3 63 72 74
3 63 74 75
3 65 63 75
3 69 67 76
3 67 70 76
3 73 71 77
3 71 64 66
3 71 66 77
3 77 66 78
3 78 66 65
3 75 78 65
3 68 69 79
3 68 79 70
3 72 73 80
3 74 72 80
3 81 74 80
3 74 81 75
3 79 69 76
3 79 76 70
3 80 73 77
3 81 80 77
3 78 81 77
3 81 78 75
