ply
format ascii 1.0
element vertex 186
property float x
property float y
property float z
property uchar red
property uchar green
property uchar blue
element face 364
property list uchar int vertex_indices
end_header
-7.16441535949707031 -4 8 89 62 0
-7 -4.34031772613525391 8 97 49 0
-7 -4 7.90585565567016602 103 43 1
-7 -4 8.24909400939941406 108 60 0
-7.27638912200927734 -3 8 96 71 0
-7 -3 7.95896196365356445 81 38 1
-7 -3 8.16635227203369141 100 61 0
-7 -2.34710240364074707 8 100 61 0
-6.33286952972412109 -5 8 97 49 0
-6 -5.28506183624267578 8 86 27 0
-6 -5 7.92106294631958008 93 23 1
-6 -5 8.24290752410888672 103 39 0
-6.60933256149291992 -4 8 108 60 0
-6 -4.61724328994750977 8 103 39 0
-6.89602088928222656 -3 8 100 61 0
-5.25793027877807617 -6 8 86 27 0
-5 -6.10820341110229492 8 58 9 0
-5 -6 7.92014169692993164 88 7 0
-5 -6 8.21856117248535156 92 20 0
-5.69250726699829102 -5 8 103 39 0
-5 -5.72094058990478516 8 92 20 0
-4.171173095703125 -6 8 92 20 0
-3.38790512084960938 -7 8 69 5 0
-3 -7.06746244430541992 8 23 1 0
-3 -7 7.90671586990356445 72 9 0
-3 -7 8.22384262084960938 71 1 0
-3 -6.76995086669921875 8 71 1 0
-2 -7.17414951324462891 8 31 2 0
-2 -7 7.86443042755126953 63 9 0
-2 -7 8.34257698059082031 68 0 0
-2 -6.77550172805786133 8 68 0 0
-1 -7.28677749633789062 8 34 3 0
-1 -7 7.84131574630737305 56 9 0
-1 -7 8.40044879913330078 64 0 0
-1 -6.76420783996582031 8 64 0 0
0 -7.40602397918701172 8 32 2 0
0 -7 7.77534818649291992 54 8 1
0 -7 8.48511505126953125 62 1 0
0 -6.6661677360534668 8 62 1 0
1 -7.45359563827514648 8 27 0 0
1 -7 7.64692401885986328 57 6 1
1 -7 8.57309532165527344 63 3 0
1 -6.41522121429443359 8 63 3 0
2 -7.39455509185791016 8 18 1 0
2 -7 7.45430755615234375 66 3 1
2 -7 8.62356662750244141 66 8 0
1.69112873077392578 -6 8 55 9 1
2 -6 7.92940425872802734 43 8 5
2 -6 8.29873466491699219 68 14 1
2 -5.88280916213989258 8 68 14 1
3 -7.24939107894897461 8 1 0 0
3 -7 7.23244667053222656 77 5 1
3 -7 8.59552955627441406 67 14 0
3 -6 7.62285900115966797 68 15 6
3 -6 8.65027523040771484 85 25 1
3 -5.27155923843383789 8 85 25 1
2.85890626907348633 3 8 20 11 4
3 2.87416577339172363 8 14 9 3
3 3 7.97011041641235352 44 27 16
3 3 8.16546821594238281 7 4 1
3 3.91446805000305176 8 7 4 1
4 -7.02889204025268555 8 31 9 1
4 -7 7.58269929885864258 83 14 2
4 -7 8.18306159973144531 61 20 1
4 -6 7.19604921340942383 95 26 4
4 -6 8.73146915435791016 99 38 1
3.28312087059020996 -5 8 69 27 4
4 -5 7.69971036911010742 71 31 12
4 -5 8.63704395294189453 98 46 2
4 -4.19006252288818359 8 98 46 2
3.63783812522888184 2 8 14 9 3
4 1.43035054206848145 8 7 5 1
4 2 7.888214111328125 35 23 11
4 2 8.43886280059814453 7 5 1
4 3 7.75713539123535156 17 11 5
4 3 8.52900314331054688 0 0 0
4 3.65008926391601562 8 0 0 0
4.07762002944946289 -7 8 61 20 1
4.48143863677978516 -6 7 95 26 4
5 -6.28787755966186523 7 76 24 3
5 -6 6.77669763565063477 112 34 10
5 -6.45416402816772461 8 41 19 1
5 -6 8.68901824951171875 99 52 1
5 -5.45936727523803711 7 113 43 3
5 -5 7.15575551986694336 108 52 7
5 -5 8.76718044281005859 118 69 1
4.14187097549438477 -4 8 77 43 6
5 -4 7.56954860687255859 82 49 14
5 -4 8.71357059478759766 111 72 3
4.63141965866088867 -3 8 51 32 5
5 -3 7.80956554412841797 50 33 10
5 -3 8.57217025756835938 93 66 5
4.83364486694335938 -2 8 28 19 3
5 -2 7.91596269607543945 21 14 3
5 -2 8.39215183258056641 73 55 6
4.82673883438110352 -1 8 13 9 1
5 -1 7.91654062271118164 3 2 0
5 -1 8.39501571655273438 56 44 5
4.63350152969360352 0 8 7 5 1
5 0 7.83617162704467773 4 3 1
5 0 8.54903697967529297 44 35 4
4.23604631423950195 1 8 7 5 1
5 1 7.70046615600585938 4 3 1
5 1 8.65662288665771484 34 27 2
5 2 7.54862356185913086 1 1 0
5 2 8.67403984069824219 20 16 1
5 3 7.59458589553833008 4 3 0
5 3 8.45478057861328125 3 2 0
5 3.23900461196899414 8 3 2 0
6 -6.00016498565673828 7 50 26 5
6 -6 6.9993438720703125 127 53 6
5.82457160949707031 -6 8 99 52 1
6 -6 7.00191640853881836 111 59 3
5.31022024154663086 -5 7 108 52 7
6 -5 6.60130739212036133 128 65 11
6 -5.86040019989013672 8 79 54 2
6 -5 8.74393367767333984 117 87 1
5.87386798858642578 -4 7 82 49 14
6 -4 6.90614652633666992 104 66 25
6 -4 8.79308128356933594 127 101 1
6 -3.66133260726928711 7 123 81 6
6 -3 7.20039844512939453 101 74 10
6 -3 8.78755378723144531 120 101 2
6 -2 7.35650873184204102 78 60 12
6 -2 8.77356624603271484 105 92 2
6 -1 7.38559770584106445 58 47 10
6 -1 8.76718425750732422 87 78 2
6 0 7.31912136077880859 45 37 7
6 0 8.76477336883544922 68 62 2
6 1 7.18008899688720703 37 30 4
6 1 8.74217987060546875 45 41 1
6 2 7.02614259719848633 28 22 2
6 2 8.60824012756347656 14 13 0
5.36685562133789062 3 8 3 2 0
6 2.51888179779052734 8 14 13 0
6.0002446174621582 -6 7 111 59 3
7 -5.11383485794067383 7 83 61 6
7 -5 6.59941530227661133 144 92 5
6.89942121505737305 -5 8 117 87 1
7 -5 7.59410333633422852 126 96 3
7 -4 6.31274175643920898 142 99 7
7 -4.8829197883605957 8 90 83 2
7 -4 8.71014308929443359 115 112 2
6.33175277709960938 -3 7 101 74 10
7 -3 6.51672983169555664 123 94 12
7 -3 8.78019523620605469 119 120 1
6.54955911636352539 -2 7 78 60 12
7 -2 6.6603388786315918 99 81 15
7 -2 8.79108333587646484 105 110 1
6.60235309600830078 -1 7 58 47 10
7 -1 6.71216487884521484 78 65 14
7 -1 8.78006553649902344 84 90 1
6.53728532791137695 0 7 45 37 7
7 0 6.69943046569824219 62 53 10
7 0 8.73740482330322266 57 62 1
6.37889766693115234 1 7 37 30 4
7 1 6.695037841796875 51 43 6
7 1 8.55567836761474609 23 26 1
7 1.92657077312469482 7 56 53 2
6.49280261993408203 2 8 14 13 0
7 1.43903696537017822 8 23 26 1
7.10330677032470703 -5 7 126 96 3
7.77626466751098633 -4 7 139 113 2
7.50862646102905273 -4 8 115 112 2
8 -3.67075586318969727 7 116 117 4
8 -3 6.00816440582275391 146 135 3
7.96166849136352539 -3 8 119 120 1
8 -3 7.88516950607299805 119 126 2
8 -2 6.02369451522827148 133 127 4
8 -2.82129883766174316 8 64 81 2
8 -2 8.39402484893798828 57 75 2
8 -1 6.13948774337768555 114 112 3
8 -1 8.25094032287597656 39 53 1
8 0 6.39922714233398438 92 92 3
7.73133087158203125 0 8 57 62 1
8 -0.754867374897003174 8 39 53 1
8 0 7.40888738632202148 62 71 2
7.5520930290222168 1 7 56 53 2
8 0.459063142538070679 7 62 71 2
7.25835180282592773 1 8 23 26 1
8.52166748046875 -3 7 119 126 2
8.61299991607666016 -2 7 108 118 2
8.39402484893798828 -2 8 57 75 2
8.58923816680908203 -1 7 88 99 2
8.25094032287597656 -1 8 39 53 1
8.41643428802490234 0 7 62 71 2
3 2 1 0
3 1 3 0
3 5 2 0
3 4 5 0
3 3 6 4
3 0 3 4
3 5 4 7
3 4 6 7
3 10 9 8
3 9 11 8
3 12 13 10
3 12 10 2
3 8 1 10
3 1 2 10
3 1 8 11
3 1 11 3
3 13 12 11
3 12 3 11
3 14 12 2
3 5 14 2
3 12 14 6
3 3 12 6
3 14 5 7
3 14 7 6
3 17 16 15
3 16 18 15
3 19 20 17
3 19 17 10
3 15 9 17
3 9 10 17
3 9 15 18
3 9 18 11
3 20 19 18
3 19 11 18
3 19 10 13
3 19 13 11
3 16 17 21
3 16 21 18
3 21 17 20
3 21 20 18
3 24 23 22
3 23 25 22
3 24 22 26
3 22 25 26
3 24 28 27
3 23 24 27
3 23 27 29
3 25 23 29
3 28 24 26
3 30 28 26
3 30 26 25
3 29 30 25
3 28 32 31
3 27 28 31
3 27 31 33
3 29 27 33
3 32 28 30
3 34 32 30
3 34 30 29
3 33 34 29
3 32 36 35
3 31 32 35
3 31 35 37
3 33 31 37
3 36 32 34
3 38 36 34
3 38 34 33
3 37 38 33
3 36 40 39
3 35 36 39
3 35 39 41
3 37 35 41
3 40 36 38
3 42 40 38
3 42 38 37
3 41 42 37
3 40 44 43
3 39 40 43
3 39 43 45
3 41 39 45
3 42 46 47
3 42 47 40
3 40 47 44
3 46 42 41
3 46 41 48
3 48 41 45
3 47 46 49
3 46 48 49
3 44 51 50
3 43 44 50
3 43 50 52
3 45 43 52
3 51 44 53
3 53 44 47
3 52 54 45
3 54 48 45
3 53 47 49
3 55 53 49
3 55 49 48
3 54 55 48
3 58 57 56
3 57 59 56
3 58 56 60
3 56 59 60
3 51 62 61
3 50 51 61
3 50 61 63
3 52 50 63
3 62 51 64
3 64 51 53
3 63 65 52
3 65 54 52
3 55 66 67
3 55 67 53
3 53 67 64
3 66 55 54
3 66 54 68
3 68 54 65
3 67 66 69
3 66 68 69
3 72 71 70
3 71 73 70
3 70 57 58
3 70 58 72
3 72 58 74
3 57 70 73
3 57 73 59
3 59 73 75
3 74 58 60
3 76 74 60
3 76 60 59
3 75 76 59
3 61 62 77
3 61 77 63
3 80 79 78
3 78 79 81
3 78 81 62
3 78 62 64
3 77 62 81
3 77 81 82
3 77 82 63
3 63 82 65
3 80 78 83
3 78 84 83
3 78 64 84
3 64 67 84
3 82 85 65
3 85 68 65
3 69 86 87
3 69 87 67
3 67 87 84
3 86 69 68
3 86 68 88
3 88 68 85
3 90 87 86
3 89 90 86
3 88 91 89
3 86 88 89
3 93 90 89
3 92 93 89
3 91 94 92
3 89 91 92
3 96 93 92
3 95 96 92
3 94 97 95
3 92 94 95
3 99 96 95
3 98 99 95
3 97 100 98
3 95 97 98
3 102 99 98
3 101 102 98
3 100 103 101
3 98 100 101
3 101 71 72
3 101 72 102
3 102 72 104
3 71 101 103
3 71 103 73
3 73 103 105
3 104 72 106
3 106 72 74
3 105 107 73
3 107 75 73
3 106 74 76
3 108 106 76
3 108 76 75
3 107 108 75
3 80 110 109
3 79 80 109
3 112 111 81
3 112 81 109
3 109 81 79
3 81 111 82
3 83 113 114
3 83 114 80
3 80 114 110
3 112 115 111
3 113 83 84
3 111 115 116
3 111 116 82
3 82 116 85
3 118 114 113
3 117 118 113
3 113 87 117
3 84 87 113
3 116 119 85
3 119 88 85
3 118 117 120
3 117 121 120
3 117 87 121
3 87 90 121
3 119 122 88
3 122 91 88
3 121 90 123
3 123 90 93
3 122 124 91
3 124 94 91
3 123 93 125
3 125 93 96
3 124 126 94
3 126 97 94
3 125 96 127
3 127 96 99
3 126 128 97
3 128 100 97
3 127 99 129
3 129 99 102
3 128 130 100
3 130 103 100
3 129 102 131
3 131 102 104
3 130 132 103
3 132 105 103
3 133 134 131
3 133 131 106
3 106 131 104
3 134 133 107
3 134 107 132
3 132 107 105
3 133 106 108
3 133 108 107
3 109 110 135
3 109 135 112
3 136 135 110
3 136 110 137
3 137 110 114
3 139 138 115
3 136 139 115
3 136 115 112
3 136 112 135
3 115 138 116
3 137 114 140
3 140 114 118
3 139 141 138
3 138 141 142
3 138 142 116
3 116 142 119
3 120 143 144
3 120 144 118
3 118 144 140
3 120 121 143
3 142 145 119
3 145 122 119
3 147 144 143
3 146 147 143
3 143 123 146
3 121 123 143
3 145 148 122
3 148 124 122
3 150 147 146
3 149 150 146
3 146 125 149
3 123 125 146
3 148 151 124
3 151 126 124
3 153 150 149
3 152 153 149
3 149 127 152
3 125 127 149
3 151 154 126
3 154 128 126
3 156 153 152
3 155 156 152
3 152 129 155
3 127 129 152
3 154 157 128
3 157 130 128
3 156 155 158
3 155 129 131
3 155 131 160
3 155 160 158
3 160 131 159
3 160 159 132
3 160 132 157
3 157 132 130
3 159 131 134
3 159 134 132
3 136 137 161
3 136 161 139
3 162 161 137
3 140 162 137
3 141 139 161
3 141 161 163
3 163 161 162
3 141 163 142
3 164 162 140
3 164 140 165
3 165 140 144
3 167 162 164
3 167 166 162
3 166 163 162
3 163 166 145
3 142 163 145
3 165 144 168
3 168 144 147
3 167 169 166
3 166 169 170
3 166 170 145
3 145 170 148
3 168 147 171
3 171 147 150
3 170 172 148
3 172 151 148
3 171 150 173
3 173 150 153
3 176 174 175
3 175 174 154
3 175 154 172
3 172 154 151
3 177 178 173
3 177 173 156
3 156 173 153
3 178 174 176
3 178 177 174
3 177 179 174
3 174 179 157
3 154 174 157
3 177 156 158
3 179 177 158
3 160 179 158
3 179 160 157
3 164 165 180
3 164 180 167
3 181 180 165
3 168 181 165
3 169 167 180
3 169 180 182
3 182 180 181
3 169 182 170
3 183 181 168
3 171 183 168
3 181 183 182
3 182 183 184
3 182 184 172
3 170 182 172
3 185 183 171
3 173 185 171
3 176 175 184
3 176 184 185
3 185 184 183
3 184 175 172
3 185 173 178
3 185 178 176
