ply
format ascii 1.0
element vertex 282
property float x
property float y
property float z
property uchar red
property uchar green
property uchar blue
element face 552
property list uchar int vertex_indices
end_header
-9.69154167175292969 6 8 27 55 0
-9 5.3570704460144043 8 35 40 0
-9 6 7.54650783538818359 1 3 0
-9 6 8.69154167175292969 20 41 0
-9.45611095428466797 7 7 4 127 0
-9 6.76313018798828125 7 1 3 0
-9 7 6.81444358825683594 0 47 4
-9.84733867645263672 7 8 20 157 0
-9 7 8.84733867645263672 13 125 0
-9.80779075622558594 8 7 0 217 61
-9 8 6.02556276321411133 0 138 62
-9.896697998046875 8 8 0 231 14
-9 8 8.896697998046875 0 197 53
-9 8.80779075622558594 7 0 167 61
-9 8.896697998046875 8 0 197 53
-8.22756385803222656 6 8 20 41 0
-8.71654224395751953 7 7 0 84 0
-8 6.19159984588623047 8 20 42 0
-8 7 7.43204784393310547 0 83 0
-8 7 8.73591995239257812 15 125 0
-8 7.6054682731628418 7 0 83 0
-8 8 6.69215059280395508 0 138 61
-8 8 8.85828304290771484 0 198 50
-8 8.58007049560546875 7 0 168 59
-8 8.85828304290771484 8 0 198 50
-7 6.88810014724731445 8 22 52 0
-7 7 7.92134523391723633 0 93 3
-7 7 8.28493022918701172 12 137 0
-7.43284797668457031 8 7 0 168 59
-7 8 7.21792411804199219 0 175 64
-7 8 8.79094409942626953 0 205 51
-7 8.79094409942626953 8 0 205 51
-6.79703521728515625 7 8 12 137 0
-6 7.4501495361328125 8 10 147 0
-6 8 7.61511802673339844 0 187 72
-6 8 8.65651416778564453 0 215 57
-6 8.65651416778564453 8 0 215 57
-5 7.8646855354309082 8 13 166 0
-5 8 7.90525531768798828 0 199 76
-5 8 8.32408618927001953 0 223 61
-5 8.32408618927001953 8 0 223 61
-4.5018153190612793 8 8 0 223 61
-0.591110706329345703 8 8 0 253 16
0 7.83157491683959961 8 116 254 0
0 8 7.88207483291625977 0 246 14
0 8 8.37339210510253906 11 242 0
0 8.37339210510253906 8 11 242 0
1 7.40288925170898438 8 153 250 0
1 8 7.58205080032348633 17 223 0
1 8 8.67437744140625 39 218 0
1 8.67437744140625 8 39 218 0
1.69677996635437012 7 8 153 250 0
2 6.82875728607177734 8 252 170 0
2 7 7.8796381950378418 163 237 0
2 7 8.37815189361572266 182 229 0
2 8 7.17425203323364258 45 190 0
2 8 8.79932308197021484 59 175 0
2 8.79932308197021484 8 59 175 0
3 6.11664819717407227 8 230 110 0
3 7 7.37942075729370117 189 206 0
3 7 8.75213146209716797 184 183 0
2.33966469764709473 8 7 45 190 0
3 7.53169155120849609 7 189 206 0
3 8 6.63459539413452148 50 153 0
3 8 8.86285877227783203 57 111 0
3 8.62035846710205078 7 59 140 0
3 8.86285877227783203 8 57 111 0
3.13640475273132324 6 8 230 110 0
4 5.26948976516723633 8 227 17 0
4 6 7.48476266860961914 208 90 0
4 6 8.71726417541503906 182 57 0
3.61951208114624023 7 7 189 206 0
4 6.67687225341796875 7 208 90 0
4 7 6.74688196182250977 175 168 0
4 7 8.85360527038574219 115 90 0
3.93587255477905273 8 6 50 153 0
4 7.94532537460327148 6 175 168 0
4 8 5.95184993743896484 53 115 0
4 8 8.8994598388671875 21 29 0
4 8.16279792785644531 6 51 95 0
4 8.81782150268554688 7 42 67 0
4 8.8994598388671875 8 21 29 0
4.27233123779296875 5 8 227 17 0
5 4.28304719924926758 8 208 71 0
5 5 7.49237585067749023 202 24 0
5 5 8.71433734893798828 173 47 0
4.6815032958984375 6 7 208 90 0
5 5.68498420715332031 7 202 24 0
5 6 6.75228309631347656 173 65 0
5 6 8.85312557220458984 108 15 0
4.94828701019287109 7 6 175 168 0
5 6.9486546516418457 6 173 65 0
5 7 5.95460653305053711 127 109 0
5 7 8.89936161041259766 27 15 0
5 8 5.07197141647338867 26 38 0
5 8 8.92239952087402344 57 62 0
5 8.78158473968505859 6 8 11 0
5 8.88457393646240234 7 18 22 0
5 8.92239952087402344 8 57 62 0
5.25225257873535156 4 8 208 71 0
6 3.15913271903991699 8 231 194 0
6 4 7.40240907669067383 216 77 0
6 4 8.7453155517578125 189 91 0
5.60817861557006836 5 7 202 24 0
6 4.55773162841796875 7 216 77 0
6 5 6.65089988708496094 141 6 0
6 5 8.86159610748291016 90 26 0
5.83914470672607422 6 6 173 65 0
6 5.81774711608886719 6 141 6 0
6 6 5.8382568359375 119 29 0
6 6 8.90331554412841797 14 0 0
5.94962644577026367 7 5 127 109 0
6 6.94270753860473633 5 119 29 0
6 7 4.94193410873413086 59 44 0
6 7 8.92470645904541016 69 26 0
5.94874906539916992 8 -9 228 188 0
6 7.94148349761962891 -9 222 37 0
6 8 -9.17224216461181641 252 110 0
6 8 -8.93075847625732422 252 154 0
5.94165325164794922 8 4 36 58 0
6 7.93338155746459961 4 59 44 0
6 8 3.92129182815551758 15 19 0
5.07159662246704102 8 5 26 38 0
6 8 8.93767070770263672 150 130 0
6 8.17224216461181641 -9 252 154 0
6 8.19146537780761719 4 28 34 0
6 8.78254413604736328 5 50 56 0
6 8.87867355346679688 6 81 84 0
6 8.91726398468017578 7 116 110 0
6 8.93767070770263672 8 150 130 0
6.92207193374633789 2 8 195 250 0
7 1.90193092823028564 8 38 221 0
7 2 7.92973661422729492 164 232 0
7 2 8.26261711120605469 122 209 0
6.12703943252563477 3 8 231 194 0
7 3 7.21308040618896484 204 185 0
7 3 8.79191017150878906 169 174 0
6.44355583190917969 4 7 216 77 0
7 3.29420113563537598 7 204 185 0
7 4 6.44081449508666992 183 78 0
7 4 8.87611484527587891 117 77 0
6.64789152145385742 5 6 141 6 0
7 4.55172300338745117 6 183 78 0
7 5 5.6006622314453125 99 1 0
7 5 8.91036128997802734 29 10 0
6.74411296844482422 6 5 119 29 0
7 5.67299032211303711 5 99 1 0
7 6 4.66729736328125 37 9 0
7 6 8.92887592315673828 86 22 0
6.74040889739990234 7 -9 222 37 0
7 6.6669764518737793 -9 232 82 0
7 7 -9.53997230529785156 251 48 0
7 7 -8.60438632965087891 253 10 0
6.73404026031494141 7 4 59 44 0
7 6.65880441665649414 4 37 9 0
7 7 3.59529590606689453 27 16 0
7 7 8.94043159484863281 161 25 0
7 8 -9.81890010833740234 218 49 0
6.62291145324707031 8 -8 237 180 0
7 7.51433324813842773 -8 237 22 0
7 8 -7.30792570114135742 254 135 0
6.61748552322387695 8 3 15 19 0
7 7.50734329223632812 3 27 16 0
7 8 2.29924488067626953 104 109 0
7 8 8.94830226898193359 220 141 0
7 8.81890010833740234 -9 246 95 0
7 8.62870311737060547 -8 254 135 0
7 8.63195705413818359 3 115 117 0
7 8.81978130340576172 4 131 126 0
7 8.88507556915283203 5 150 134 0
7 8.91738510131835938 6 173 140 0
7 8.93622207641601562 7 197 143 0
7 8.94830226898193359 8 220 141 0
7.65501070022583008 1 8 38 221 0
8 0.518044769763946533 8 0 170 71
8 1 7.65347719192504883 17 186 0
8 1 8.63304901123046875 0 141 6
7.92587661743164062 2 7 164 232 0
8 1.89608347415924072 7 17 186 0
8 2 6.91701936721801758 116 193 0
8 2 8.83660602569580078 47 125 0
7.21219778060913086 3 7 204 185 0
8 3 6.11784076690673828 154 155 0
8 3 8.89282321929931641 62 81 0
7.39642572402954102 4 6 183 78 0
8 3.14692807197570801 6 154 155 0
8 4 5.23720884323120117 124 67 0
8 4 8.91907501220703125 14 12 0
7.48175334930419922 5 5 99 1 0
8 4.26477956771850586 5 124 67 0
8 5 4.24909305572509766 73 7 0
8 5 8.93422508239746094 76 40 0
7.47569847106933594 6 -9 232 82 0
8 5.25332355499267578 -9 225 187 0
8 6 -9.72152900695800781 250 162 0
8 6 -8.10946846008300781 253 122 0
7.46987247467041016 6 4 37 9 0
8 5.24502277374267578 4 73 7 0
8 6 3.10094165802001953 68 19 0
8 6 8.94405078887939453 178 87 0
8 7 -9.85470104217529297 211 84 0
7.36551666259765625 7 -8 237 22 0
8 6.09282398223876953 -8 235 75 0
7.85898637771606445 7 -7 208 45 0
8 6.79847955703735352 -7 205 35 0
8 7 -6.63844776153564453 250 0 0
7.85505199432373047 7 2 17 11 0
8 6.79285621643066406 2 54 17 0
8 7 1.62920260429382324 120 50 0
7.36055088043212891 7 3 27 16 0
8 6.08571958541870117 3 68 19 0
8 7 8.95091342926025391 229 14 0
8 8 -9.89995098114013672 143 0 0
7.15572357177734375 8 -7 248 162 0
7.55714893341064453 8 -6 231 175 0
8 7.36448335647583008 -6 235 25 0
7.8512883186340332 8 -5 208 176 0
8 7.78665351867675781 -5 214 43 0
8 8 -4.2315211296081543 250 155 0
7.84910154342651367 8 0 104 111 0
8 7.78351593017578125 0 124 52 0
8 8 -0.776262581348419189 203 171 0
7.55402946472167969 8 1 100 107 0
8 7.36000394821166992 1 120 50 0
7.15160226821899414 8 2 104 109 0
8 8 8.95595836639404297 253 103 0
8 8.89995098114013672 -9 197 31 0
8 8.86424446105957031 -8 232 69 0
8 8.80332756042480469 -7 250 105 0
8 8.687530517578125 -6 254 134 0
8 8.42963504791259766 -5 250 155 0
8 8.43318080902099609 0 196 168 0
8 8.68899250030517578 1 194 165 0
8 8.80405235290527344 2 195 162 0
8 8.86465167999267578 3 201 159 0
8 8.90020084381103516 4 211 155 0
8 8.92271327972412109 5 223 148 0
8 8.93779754638671875 6 235 138 0
8 8.94834232330322266 7 246 122 0
8 8.95595836639404297 8 253 103 0
8.63304901123046875 1 8 0 141 6
8.27393150329589844 2 7 82 166 0
8.83660602569580078 2 8 47 125 0
8.79277801513671875 3 7 110 124 0
8.89282321929931641 3 8 62 81 0
8.74793148040771484 4 6 96 61 0
8.87640666961669922 4 7 60 44 0
8.91907501220703125 4 8 14 12 0
8.71926975250244141 5 5 46 8 0
8.86233329772949219 5 6 9 2 0
8.91050624847412109 5 7 32 12 0
8.93422508239746094 5 8 76 40 0
8.72152900695800781 6 -9 253 122 0
8.72366619110107422 6 4 88 19 0
8.85437583923339844 6 5 108 13 0
8.90365695953369141 6 6 119 5 0
8.92896175384521484 6 7 144 46 0
8.94405078887939453 6 8 178 87 0
8.85470104217529297 7 -9 243 62 0
8.75685310363769531 7 -8 254 31 0
8.41678333282470703 7 -7 250 0 0
8.42342472076416016 7 2 122 47 0
8.7582244873046875 7 3 130 46 0
8.85525608062744141 7 4 144 43 0
8.89991950988769531 7 5 162 38 0
8.92490196228027344 7 6 184 28 0
8.94048786163330078 7 7 207 9 0
8.95091342926025391 7 8 229 14 0
8.89995098114013672 8 -9 197 31 0
8.86424446105957031 8 -8 232 69 0
8.80332756042480469 8 -7 250 105 0
8.687530517578125 8 -6 254 134 0
8.42963504791259766 8 -5 250 155 0
8.43318080902099609 8 0 196 168 0
8.68899250030517578 8 1 194 165 0
8.80405235290527344 8 2 195 162 0
8.86465167999267578 8 3 201 159 0
8.90020084381103516 8 4 211 155 0
8.92271327972412109 8 5 223 148 0
8.93779754638671875 8 6 235 138 0
8.94834232330322266 8 7 246 122 0
8.95595836639404297 8 8 253 103 0
3 2 1 0
3 1 3 0
3 6 5 4
3 5 2 0
3 5 0 4
3 4 0 7
3 3 8 7
3 0 3 7
3 10 6 4
3 9 10 4
3 4 7 9
3 7 11 9
3 8 12 11
3 7 8 11
3 10 9 13
3 9 11 14
3 13 9 14
3 11 12 14
3 1 2 15
3 1 15 3
3 5 6 16
3 16 18 17
3 5 16 17
3 5 17 15
3 5 15 2
3 15 17 19
3 15 19 3
3 3 19 8
3 20 16 6
3 20 6 21
3 21 6 10
3 16 20 18
3 19 22 8
3 22 12 8
3 21 10 13
3 23 21 13
3 23 13 24
3 13 14 24
3 24 14 12
3 22 24 12
3 18 26 25
3 17 18 25
3 17 25 27
3 19 17 27
3 20 21 28
3 28 18 20
3 28 29 18
3 29 26 18
3 27 30 19
3 30 22 19
3 28 21 23
3 29 28 23
3 29 23 31
3 31 23 24
3 31 24 22
3 30 31 22
3 25 26 32
3 25 32 27
3 33 32 26
3 33 26 34
3 34 26 29
3 32 33 35
3 32 35 27
3 27 35 30
3 34 29 31
3 36 34 31
3 36 31 30
3 35 36 30
3 34 38 37
3 33 34 37
3 33 37 39
3 35 33 39
3 38 34 36
3 40 38 36
3 40 36 35
3 39 40 35
3 37 38 41
3 37 41 39
3 41 38 40
3 41 40 39
3 44 43 42
3 43 45 42
3 44 42 46
3 42 45 46
3 44 48 47
3 43 44 47
3 43 47 49
3 45 43 49
3 48 44 46
3 50 48 46
3 50 46 45
3 49 50 45
3 53 52 51
3 52 54 51
3 51 47 48
3 51 48 53
3 53 48 55
3 47 51 54
3 47 54 49
3 49 54 56
3 55 48 50
3 57 55 50
3 57 50 49
3 56 57 49
3 53 59 58
3 52 53 58
3 52 58 60
3 54 52 60
3 63 62 61
3 62 55 61
3 62 59 55
3 59 53 55
3 60 64 54
3 64 56 54
3 63 61 65
3 61 55 57
3 61 57 65
3 65 57 66
3 66 57 56
3 64 66 56
3 69 68 67
3 68 70 67
3 73 72 71
3 67 58 59
3 69 67 59
3 69 59 71
3 69 71 72
3 58 67 70
3 58 70 60
3 60 70 74
3 77 76 75
3 71 62 63
3 73 71 63
3 73 63 75
3 73 75 76
3 71 59 62
3 74 78 60
3 78 64 60
3 77 75 79
3 75 63 65
3 75 65 79
3 79 65 80
3 80 65 81
3 65 66 81
3 81 66 64
3 78 81 64
3 84 83 82
3 83 85 82
3 88 87 86
3 82 68 69
3 84 82 69
3 84 69 86
3 84 86 87
3 68 82 85
3 68 85 70
3 70 85 89
3 92 91 90
3 86 72 73
3 88 86 73
3 88 73 90
3 88 90 91
3 86 69 72
3 89 93 70
3 93 74 70
3 90 76 77
3 90 77 92
3 92 77 94
3 90 73 76
3 93 95 74
3 95 78 74
3 94 77 79
3 96 94 79
3 96 79 97
3 79 80 97
3 97 80 98
3 80 81 98
3 98 81 78
3 95 98 78
3 101 100 99
3 100 102 99
3 105 104 103
3 99 83 84
3 101 99 84
3 101 84 103
3 101 103 104
3 83 99 102
3 83 102 85
3 85 102 106
3 109 108 107
3 103 87 88
3 105 103 88
3 105 88 107
3 105 107 108
3 103 84 87
3 106 110 85
3 110 89 85
3 113 112 111
3 107 91 92
3 109 107 92
3 109 92 111
3 109 111 112
3 107 88 91
3 110 114 89
3 114 93 89
3 117 116 115
3 116 118 115
3 121 120 119
3 120 113 111
3 120 111 119
3 119 111 122
3 111 94 122
3 92 94 111
3 114 123 93
3 123 95 93
3 117 115 124
3 115 118 124
3 121 119 125
3 119 122 126
3 125 119 126
3 122 94 96
3 122 96 126
3 126 96 127
3 127 96 128
3 96 97 128
3 128 97 129
3 97 98 129
3 129 98 95
3 123 129 95
3 132 131 130
3 131 133 130
3 135 132 130
3 134 135 130
3 133 136 134
3 130 133 134
3 139 138 137
3 134 100 101
3 135 134 101
3 135 101 137
3 135 137 138
3 100 134 136
3 100 136 102
3 102 136 140
3 143 142 141
3 137 104 105
3 139 137 105
3 139 105 141
3 139 141 142
3 137 101 104
3 140 144 102
3 144 106 102
3 147 146 145
3 141 108 109
3 143 141 109
3 143 109 145
3 143 145 146
3 141 105 108
3 144 148 106
3 148 110 106
3 151 150 149
3 150 152 149
3 155 154 153
3 145 112 113
3 147 145 113
3 147 113 153
3 147 153 154
3 145 109 112
3 148 156 110
3 156 114 110
3 149 116 117
3 149 117 151
3 151 117 157
3 116 158 118
3 149 158 116
3 149 159 158
3 149 152 159
3 159 160 158
3 163 162 161
3 153 120 121
3 155 153 121
3 155 121 161
3 155 161 162
3 153 113 120
3 156 164 114
3 164 123 114
3 157 117 124
3 165 157 124
3 118 158 166
3 118 166 124
3 124 166 165
3 158 160 166
3 163 161 167
3 161 121 125
3 161 125 167
3 167 125 168
3 168 125 169
3 125 126 169
3 169 126 170
3 126 127 170
3 170 127 171
3 127 128 171
3 171 128 172
3 128 129 172
3 172 129 123
3 164 172 123
3 175 174 173
3 174 176 173
3 179 178 177
3 173 131 132
3 175 173 132
3 175 132 177
3 175 177 178
3 131 173 176
3 131 176 133
3 133 176 180
3 182 179 177
3 181 182 177
3 177 135 181
3 132 135 177
3 180 183 133
3 183 136 133
3 186 185 184
3 181 138 139
3 182 181 139
3 182 139 184
3 182 184 185
3 181 135 138
3 183 187 136
3 187 140 136
3 190 189 188
3 184 142 143
3 186 184 143
3 186 143 188
3 186 188 189
3 184 139 142
3 187 191 140
3 191 144 140
3 194 193 192
3 193 195 192
3 198 197 196
3 188 146 147
3 190 188 147
3 190 147 196
3 190 196 197
3 188 143 146
3 191 199 144
3 199 148 144
3 192 150 151
3 192 151 194
3 194 151 200
3 150 201 152
3 192 201 150
3 192 202 201
3 192 195 202
3 202 204 203
3 201 202 203
3 204 205 203
3 208 207 206
3 207 210 209
3 206 207 209
3 196 154 155
3 198 196 155
3 198 155 209
3 198 209 210
3 196 147 154
3 199 211 148
3 211 156 148
3 200 151 212
3 212 151 157
3 201 159 152
3 159 213 160
3 159 201 213
3 201 203 213
3 205 215 214
3 205 214 203
3 203 214 213
3 215 217 216
3 214 215 216
3 217 218 216
3 221 220 219
3 220 223 222
3 219 220 222
3 223 208 206
3 223 206 222
3 222 206 224
3 163 209 162
3 163 224 209
3 224 206 209
3 209 155 162
3 211 225 156
3 225 164 156
3 212 157 165
3 226 212 165
3 226 165 227
3 165 166 227
3 160 213 228
3 160 228 166
3 166 228 227
3 213 214 229
3 228 213 229
3 214 216 230
3 229 214 230
3 216 218 230
3 221 219 231
3 219 222 232
3 231 219 232
3 222 224 233
3 232 222 233
3 224 163 167
3 224 167 233
3 233 167 234
3 234 167 235
3 167 168 235
3 235 168 236
3 168 169 236
3 236 169 237
3 169 170 237
3 237 170 238
3 170 171 238
3 238 171 239
3 171 172 239
3 239 172 164
3 225 239 164
3 174 175 240
3 174 240 176
3 178 179 241
3 175 178 241
3 175 241 240
3 240 241 242
3 240 242 180
3 176 240 180
3 243 241 179
3 182 243 179
3 241 243 242
3 242 243 244
3 242 244 183
3 180 242 183
3 185 186 245
3 182 185 245
3 182 245 243
3 243 245 246
3 243 246 244
3 244 246 247
3 244 247 187
3 183 244 187
3 189 190 248
3 186 189 248
3 186 248 245
3 245 248 249
3 245 249 246
3 246 249 250
3 246 250 247
3 247 250 251
3 247 251 191
3 187 247 191
3 193 194 252
3 193 252 195
3 197 198 253
3 190 197 253
3 190 253 248
3 248 253 254
3 248 254 249
3 249 254 255
3 249 255 250
3 250 255 256
3 250 256 251
3 251 256 257
3 251 257 199
3 191 251 199
3 258 252 194
3 200 258 194
3 202 195 252
3 202 252 259
3 259 252 258
3 204 202 259
3 260 204 259
3 204 260 205
3 207 208 261
3 210 207 261
3 262 210 261
3 198 210 262
3 198 262 253
3 253 262 263
3 253 263 254
3 254 263 264
3 254 264 255
3 255 264 265
3 255 265 256
3 256 265 266
3 256 266 257
3 257 266 267
3 257 267 211
3 199 257 211
3 268 258 200
3 212 268 200
3 258 268 259
3 259 268 269
3 259 269 260
3 260 269 270
3 215 205 260
3 215 260 271
3 271 260 270
3 217 215 271
3 272 217 271
3 217 272 218
3 220 221 273
3 223 220 273
3 274 223 273
3 208 223 274
3 208 274 261
3 261 274 275
3 261 275 262
3 262 275 276
3 262 276 263
3 263 276 277
3 263 277 264
3 264 277 278
3 264 278 265
3 265 278 279
3 265 279 266
3 266 279 280
3 266 280 267
3 267 280 281
3 267 281 225
3 211 267 225
3 268 212 226
3 269 268 226
3 227 269 226
3 270 269 227
3 228 270 227
3 271 270 228
3 229 271 228
3 272 271 229
3 230 272 229
3 272 230 218
3 273 221 231
3 274 273 231
3 232 274 231
3 275 274 232
3 233 275 232
3 276 275 233
3 234 276 233
3 277 276 234
3 235 277 234
3 278 277 235
3 236 278 235
3 279 278 236
3 237 279 236
3 280 279 237
3 238 280 237
3 281 280 238
3 239 281 238
3 281 239 225
