ply
format ascii 1.0
element vertex 398
property float x
property float y
property float z
property uchar red
property uchar green
property uchar blue
element face 788
property list uchar int vertex_indices
end_header
4.94206333160400391 6 8 5 8 4
5 5.86390018463134766 8 12 17 7
5 6 7.9364933967590332 8 11 6
5 6 8.22320652008056641 10 15 7
4.74877262115478516 7 -9 2 3 2
5 6.56513547897338867 -9 8 13 5
5 7 -9.55013847351074219 8 14 6
5 7 -8.71725177764892578 7 10 5
4.50592184066772461 7 8 5 7 4
5 7 7.45271539688110352 7 9 6
5 7 8.70496749877929688 9 13 7
4.13669061660766602 8 -9 1 1 1
5 8 -9.80182456970214844 7 12 6
5 8 -8.03505516052246094 6 8 5
4.94750070571899414 8 7 1 2 1
5 7.88307285308837891 7 7 9 6
5 8 6.93256759643554688 4 5 4
4.05162286758422852 8 8 4 6 4
5 8 8.81702423095703125 9 13 8
5 8.80182456970214844 -9 6 8 5
5 8.207427978515625 7 7 9 6
5 8.81702423095703125 8 9 13 8
5.72252464294433594 4 8 15 19 7
6 3.22285628318786621 8 26 30 6
6 4 7.66646814346313477 20 23 8
6 4 8.60107898712158203 22 26 7
5.79950141906738281 5 -9 11 16 6
6 4.56369447708129883 -9 18 26 5
6 5 -9.52187061309814453 16 27 5
6 5 -8.74557685852050781 16 23 6
5.34424686431884766 5 8 12 17 7
6 5 7.20457315444946289 17 20 8
6 5 8.77650547027587891 19 24 7
5.3022160530090332 6 -9 8 13 5
6 6 -9.78584003448486328 14 24 6
6 6 -8.11750411987304688 13 20 7
5.77419519424438477 6 7 8 11 6
6 5.41962671279907227 7 17 20 8
6 6 6.68401288986206055 12 14 8
6 6 8.84490299224853516 16 22 8
6 7 -9.86271858215332031 12 21 7
5.57825326919555664 7 -8 5 6 4
6 6.17759227752685547 -8 12 16 7
6 7 -7.38739681243896484 10 14 7
5.37067461013793945 7 7 7 9 6
6 7 6.10812282562255859 10 13 8
6 7 8.88104724884033203 14 20 9
6 8 -9.89899349212646484 11 19 8
5.02845668792724609 8 -8 3 5 3
5.73618412017822266 8 -7 1 1 1
6 7.49960660934448242 -7 8 10 6
6 8 -6.55316305160522461 7 9 6
5.6632542610168457 8 6 4 5 4
6 7.18125534057617188 6 10 13 8
6 8 5.4343719482421875 8 9 7
6 8 8.90324783325195312 13 20 10
6 8.89899349212646484 -9 10 15 8
6 8.83383941650390625 -8 8 12 7
6 8.58899211883544922 -7 7 9 6
6 8.64759540557861328 6 10 12 8
6 8.84491920471191406 7 12 16 10
6 8.90324783325195312 8 13 20 10
6.95655202865600586 0 8 37 43 3
7 -0.184199258685112 8 51 56 0
7 0 7.94369268417358398 46 47 2
7 0 8.20842266082763672 48 51 0
6.69206714630126953 1 8 34 38 4
7 1 7.59915351867675781 42 42 4
7 1 8.64673709869384766 45 46 0
6.98583555221557617 2 -9 24 35 4
7 1.95384204387664795 -9 31 47 0
7 2 -9.079559326171875 29 46 0
7 2 -8.98012733459472656 29 42 0
6.39792442321777344 2 8 30 34 5
7 2 7.21171188354492188 37 38 5
7 2 8.77796077728271484 40 41 2
6.63879489898681641 3 -9 21 30 5
7 3 -9.68205070495605469 26 42 0
7 3 -8.49235153198242188 27 38 2
6.84398555755615234 3 7 23 26 7
7 2.49998712539672852 7 37 38 5
7 3 6.76603937149047852 30 30 7
6.07602214813232422 3 8 26 30 6
7 3 8.84004020690917969 36 37 3
6.24490833282470703 4 -9 18 26 5
7 4 -9.81300640106201172 23 38 0
6.95861291885375977 4 -8 17 23 7
7 3.89211773872375488 -8 26 34 5
7 4 -7.93258428573608398 23 30 6
6.51114559173583984 4 7 20 23 8
7 4 6.25999116897583008 26 27 8
7 4 8.87571907043457031 31 34 5
7 5 -9.86932945251464844 21 34 2
6.54308557510375977 5 -8 14 19 7
7 5 -7.25745439529418945 20 27 7
6.81876420974731445 5 6 14 16 8
7 4.48017740249633789 6 26 27 8
7 5 5.67802524566650391 20 21 9
6.15564966201782227 5 7 17 20 8
7 5 8.89861011505126953 27 31 6
7 6 -9.90020561218261719 18 31 4
6.08592891693115234 6 -8 12 16 7
6.71797895431518555 6 -7 10 13 6
7 5.35653162002563477 -7 19 23 8
7 6 -6.46076679229736328 16 20 8
6.45428800582885742 6 6 12 14 8
7 6 5.01694107055664062 17 19 9
7 6 8.91438007354736328 23 29 8
7 7 -9.91944789886474609 15 29 6
6.24826574325561523 7 -7 8 10 6
6.78466796875 7 -6 6 8 5
7 6.52653408050537109 -6 15 18 8
7 7 -5.50421047210693359 12 15 8
6.63413238525390625 7 5 8 10 6
7 6.02466869354248047 5 17 19 9
7 7 4.19895458221435547 13 15 9
6.07102155685424805 7 6 10 13 8
7 7 8.92580604553222656 20 28 9
7 8 -9.93243503570556641 14 27 8
6.30592250823974609 8 -6 5 6 4
6.75489664077758789 8 -5 3 4 3
7 7.47190093994140625 -5 11 13 8
7 8 -4.29774856567382812 10 11 8
6.70103311538696289 8 4 5 6 5
7 7.23177814483642578 4 13 15 9
7 8 3.16591334342956543 10 12 9
6.24249696731567383 8 5 8 9 7
7 8 8.93439960479736328 18 27 11
7 8.93243503570556641 -9 14 23 9
7 8.91121101379394531 -8 13 19 9
7 8.8746490478515625 -7 12 16 9
7 8.80099296569824219 -6 11 14 9
7 8.59556007385253906 -5 10 11 8
7 8.64317703247070312 4 12 14 10
7 8.81509876251220703 5 13 16 11
7 8.88094997406005859 6 15 20 11
7 8.91457271575927734 7 17 23 12
7 8.93439960479736328 8 18 27 11
7.41519355773925781 -9 -9 3 56 29
8 -9.79192161560058594 -9 0 65 41
8 -9 -9.79192161560058594 0 66 32
8 -9 -8.17523670196533203 0 64 29
7.5770573616027832 -9 8 0 69 16
8 -9.73270320892333984 8 0 79 29
8 -9 7.38185930252075195 0 73 10
8 -9 8.73270320892333984 0 77 12
7.66098213195800781 -8 -9 0 55 17
8 -8 -9.69215011596679688 0 65 21
8 -8 -8.51697158813476562 0 63 17
7.69543838500976562 -8 8 0 67 2
8 -8 7.5588688850402832 3 71 0
8 -8 8.66544723510742188 2 75 0
7.8417820930480957 -7 -9 0 54 8
8 -7 -9.51527118682861328 0 65 10
8 -7 -8.77226543426513672 0 62 7
7.75984430313110352 -7 8 9 66 0
8 -7 7.65479707717895508 16 69 0
8 -7 8.61145401000976562 16 73 0
7.96147632598876953 -6 -9 0 53 0
8 -6 -9.20686435699462891 0 64 0
8 -6 -8.94399070739746094 2 61 0
7.77375221252441406 -6 8 20 64 0
8 -6 7.67678976058959961 27 68 0
8 -6 8.59705638885498047 28 72 0
8 -5.37535619735717773 -9 2 61 0
7.74029302597045898 -5 8 29 63 0
8 -5 7.63071966171264648 37 67 0
8 -5 8.62878322601318359 38 71 0
7.66235065460205078 -4 8 37 62 0
8 -4 7.52139759063720703 46 66 0
8 -4 8.68610668182373047 48 70 0
7.98134469985961914 -3 -9 20 53 0
8 -3.38969898223876953 -9 18 61 0
8 -3 -9.11163425445556641 23 64 0
8 -3 -8.97211742401123047 25 61 0
7.54261350631713867 -3 8 45 62 0
8 -3 7.3527073860168457 54 66 0
8 -3 8.74552440643310547 56 69 0
7.88168430328369141 -2 -9 25 54 0
8 -2 -9.44098854064941406 29 64 0
8 -2 -8.82176399230957031 31 61 0
7.3835911750793457 -2 8 51 62 0
8 -2 7.12769889831542969 60 66 0
8 -2 8.79570579528808594 63 69 0
7.73143482208251953 -1 -9 30 54 0
8 -1 -9.63836383819580078 35 65 0
8 -1 -8.59259796142578125 37 62 0
7.89942312240600586 -1 7 48 53 1
8 -1.53791713714599609 7 60 66 0
8 -1 6.83820676803588867 58 57 0
7.18761348724365234 -1 8 51 56 0
8 -1 8.83469676971435547 63 64 0
7.53165912628173828 0 -9 32 52 0
8 0 -9.75138473510742188 38 64 0
8 0 -8.28535366058349609 39 60 0
7.68056201934814453 0 7 46 47 2
8 0 6.48453378677368164 52 49 0
8 0 8.86414623260498047 59 57 0
7.28306150436401367 1 -9 31 47 0
8 1 -9.81897258758544922 38 59 0
7.93874740600585938 1 -8 32 43 2
8 0.747340559959411621 -8 40 56 0
8 1 -7.89107465744018555 39 51 0
7.43061208724975586 1 7 42 42 4
8 1 6.07675886154174805 47 43 2
8 1 8.88632488250732422 54 50 0
8 2 -9.86172199249267578 36 54 0
7.65586709976196289 2 -8 29 39 4
8 2 -7.38592672348022461 36 47 0
7.77630329132080078 2 6 34 34 7
8 1.17035937309265137 6 47 43 2
8 2 5.57785558700561523 40 36 6
7.15145158767700195 2 7 37 38 5
8 2 8.90316581726074219 49 46 0
8 3 -9.89017963409423828 33 50 0
7.32925033569335938 3 -8 26 34 5
7.89377403259277344 3 -7 26 31 7
8 2.66654443740844727 -7 36 43 2
8 3 -6.77467823028564453 33 39 4
7.48151826858520508 3 6 30 30 7
8 3 5.01264047622680664 35 33 7
8 3 8.91612148284912109 45 44 0
8 4 -9.90995693206787109 29 46 0
7.54145240783691406 4 -7 22 27 7
8 4 -6.02833652496337891 29 35 5
7.69561767578125 4 5 23 24 9
8 3.02093696594238281 5 35 33 7
8 4 4.30408668518066406 30 29 9
7.1621708869934082 4 6 26 27 8
8 4 8.92623138427734375 41 42 1
8 5 -9.92420196533203125 25 42 0
7.15002822875976562 5 -7 19 23 8
7.63865947723388672 5 -6 18 21 8
8 4.03540897369384766 -6 28 32 7
8 5 -5.06782627105712891 25 29 8
7.80119800567626953 5 4 17 18 9
8 4.39833354949951172 4 30 29 9
8 5 3.43122267723083496 24 25 10
7.36278486251831055 5 5 20 21 9
8 5 8.93423366546630859 36 39 3
8 6 -9.93476963043212891 21 39 1
7.22968339920043945 6 -6 15 18 8
7.63319110870361328 6 -5 13 15 8
8 5.06685495376586914 -5 24 26 9
7.94132566452026367 6 -4 12 13 8
8 5.84915256500244141 -4 23 24 9
8 6 -3.73751664161682129 19 22 10
7.80216312408447266 6 3 13 14 8
8 5.43196630477905273 3 24 25 10
8 6 2.2436821460723877 19 21 10
7.45385026931762695 6 4 15 16 9
7.00895977020263672 6 5 17 19 9
8 6 8.94065475463867188 31 37 5
8 7 -9.94280433654785156 18 37 4
7.21009302139282227 7 -5 11 13 8
7.53454351425170898 7 -4 10 11 7
7.76793146133422852 7 -3 9 10 7
8 6.41829299926757812 -3 18 20 10
7.91606044769287109 7 -2 8 9 6
8 6.78618574142456055 -2 18 19 10
7.98242282867431641 7 -1 8 9 6
8 6.95444822311401367 -1 18 19 10
7.96868705749511719 7 0 8 9 6
8 6.91736078262329102 0 18 19 10
7.87491178512573242 7 1 9 10 7
8 6.66357135772705078 1 18 20 10
7.69950771331787109 7 2 10 11 7
8 6.17598438262939453 2 19 21 10
7.43894815444946289 7 3 11 12 8
7.08721685409545898 7 4 13 15 9
8 7 8.94587135314941406 26 36 8
8 8 -9.94904136657714844 16 35 6
7.10039663314819336 8 -4 8 10 7
7.34961414337158203 8 -3 8 9 7
7.51027059555053711 8 -2 7 8 6
7.58644580841064453 8 -1 7 8 6
7.58011388778686523 8 0 7 8 6
7.49138641357421875 8 1 8 9 7
7.31849908828735352 8 2 9 10 8
7.05753326416015625 8 3 10 12 9
8 8 8.95016002655029297 22 35 10
8 8.94904136657714844 -9 17 31 9
8 8.93922615051269531 -8 17 27 10
8 8.9259033203125 -7 17 24 11
8 8.90761280059814453 -6 16 22 11
8 8.88242626190185547 -5 16 20 11
8 8.848358154296875 -4 15 18 11
8 8.80526638031005859 -3 14 17 11
8 8.75957965850830078 -2 14 16 11
8 8.72883033752441406 -1 14 16 11
8 8.73190116882324219 0 14 16 11
8 8.76662731170654297 1 15 17 11
8 8.81275653839111328 2 15 18 12
8 8.85451316833496094 3 17 20 12
8 8.88698577880859375 4 18 22 13
8 8.91086196899414062 5 19 24 13
8 8.92818927764892578 6 21 28 13
8 8.94082832336425781 7 22 31 12
8 8.95016002655029297 8 22 35 10
8.79192161560058594 -9 -9 0 64 29
8.73270320892333984 -9 8 0 77 12
8.69215011596679688 -8 -9 0 63 17
8.66544723510742188 -8 8 2 75 0
8.51527118682861328 -7 -9 0 62 7
8.61145401000976562 -7 8 16 73 0
8.20686435699462891 -6 -9 2 61 0
8.59705638885498047 -6 8 28 72 0
8.62878322601318359 -5 8 38 71 0
8.68610668182373047 -4 8 48 70 0
8.11163425445556641 -3 -9 25 61 0
8.74552440643310547 -3 8 56 69 0
8.44098854064941406 -2 -9 31 61 0
8.79570579528808594 -2 8 63 69 0
8.63836383819580078 -1 -9 37 62 0
8.39895248413085938 -1 7 60 61 0
8.83469676971435547 -1 8 63 64 0
8.75138473510742188 0 -9 39 60 0
8.67440128326416016 0 7 55 53 0
8.86414623260498047 0 8 59 57 0
8.81897258758544922 1 -9 38 55 0
8.28976535797119141 1 -8 39 51 0
8.78347301483154297 1 7 50 46 0
8.88632488250732422 1 8 54 50 0
8.86172199249267578 2 -9 36 50 0
8.69105052947998047 2 -8 36 47 0
8.59432697296142578 2 6 42 39 3
8.84056568145751953 2 7 46 42 0
8.90316581726074219 2 8 49 46 0
8.89017963409423828 3 -9 33 46 0
8.80910301208496094 3 -8 33 42 1
8.41288948059082031 3 -7 33 39 4
8.76839637756347656 3 6 38 36 5
8.87502765655517578 3 7 42 39 2
8.91612148284912109 3 8 45 44 0
8.90995693206787109 4 -9 29 42 0
8.86434650421142578 4 -8 30 38 3
8.746673583984375 4 -7 29 35 5
8.66512298583984375 4 5 32 31 8
8.8394012451171875 4 6 35 34 6
8.897735595703125 4 7 38 38 4
8.92623138427734375 4 8 41 42 1
8.92420196533203125 5 -9 26 38 2
8.89579486846923828 5 -8 26 35 5
8.84091663360595703 5 -7 25 31 7
8.70074272155761719 5 -6 25 29 8
8.56726741790771484 5 4 26 27 10
8.80201816558837891 5 5 28 29 9
8.87751674652099609 5 6 31 32 8
8.91362380981445312 5 7 33 35 6
8.93423366546630859 5 8 36 39 3
8.93476963043212891 6 -9 23 35 4
8.9157867431640625 6 -8 23 32 7
8.88479423522949219 6 -7 22 28 8
8.82835006713867188 6 -6 21 26 9
8.70397758483886719 6 -5 20 23 10
8.28077411651611328 6 -4 19 22 10
8.56652259826660156 6 3 21 22 10
8.77804946899414062 6 4 22 24 10
8.85966300964355469 6 5 24 27 10
8.90105342864990234 6 6 26 30 9
8.92523670196533203 6 7 29 33 8
8.94065475463867188 6 8 31 37 5
8.94280433654785156 7 -9 20 33 6
8.92943286895751953 7 -8 20 29 8
8.90986156463623047 7 -7 19 26 9
8.87996196746826172 7 -6 18 23 10
8.83185768127441406 7 -5 17 21 10
8.74989032745361328 7 -4 17 19 10
8.60402393341064453 7 -3 16 18 10
8.35855579376220703 7 -2 15 17 10
8.105377197265625 7 -1 15 17 10
8.17340183258056641 7 0 15 17 10
8.45421600341796875 7 1 16 18 11
8.66348743438720703 7 2 17 19 11
8.78277301788330078 7 3 18 21 11
8.85055732727050781 7 4 20 23 11
8.89116096496582031 7 5 21 25 11
8.91689205169677734 7 6 23 28 11
8.93401432037353516 7 7 25 32 10
8.94587135314941406 7 8 26 36 8
8.94904136657714844 8 -9 17 31 9
8.93922615051269531 8 -8 17 27 10
8.9259033203125 8 -7 17 24 11
8.90761280059814453 8 -6 16 22 11
8.88242626190185547 8 -5 16 20 11
8.848358154296875 8 -4 15 18 11
8.80526638031005859 8 -3 14 17 11
8.75957965850830078 8 -2 14 16 11
8.72883033752441406 8 -1 14 16 11
8.73190116882324219 8 0 14 16 11
8.76662731170654297 8 1 15 17 11
8.81275653839111328 8 2 15 18 12
8.85451316833496094 8 3 17 20 12
8.88698577880859375 8 4 18 22 13
8.91086196899414062 8 5 19 24 13
8.92818927764892578 8 6 21 28 13
8.94082832336425781 8 7 22 31 12
8.95016002655029297 8 8 22 35 10
3 2 1 0
3 1 3 0
3 6 5 4
3 5 7 4
3 9 2 0
3 8 9 0
3 3 10 8
3 0 3 8
3 12 6 4
3 11 12 4
3 7 13 11
3 4 7 11
3 16 15 14
3 15 9 8
3 15 8 14
3 14 8 17
3 10 18 17
3 8 10 17
3 12 11 19
3 11 13 19
3 16 14 20
3 14 17 21
3 20 14 21
3 17 18 21
3 24 23 22
3 23 25 22
3 28 27 26
3 27 29 26
3 31 24 22
3 30 31 22
3 25 32 30
3 22 25 30
3 34 28 26
3 33 34 26
3 29 35 33
3 26 29 33
3 38 37 36
3 30 1 2
3 31 30 2
3 31 2 36
3 31 36 37
3 1 30 32
3 1 32 3
3 3 32 39
3 33 5 6
3 33 6 34
3 34 6 40
3 5 41 7
3 33 41 5
3 33 42 41
3 33 35 42
3 42 43 41
3 45 38 36
3 44 45 36
3 36 9 44
3 2 9 36
3 39 46 3
3 46 10 3
3 40 6 47
3 47 6 12
3 48 7 41
3 13 7 48
3 43 50 49
3 43 49 41
3 41 49 48
3 50 51 49
3 54 53 52
3 44 15 16
3 45 44 16
3 45 16 52
3 45 52 53
3 44 9 15
3 46 55 10
3 55 18 10
3 47 12 19
3 56 47 19
3 13 48 57
3 13 57 19
3 19 57 56
3 48 49 58
3 57 48 58
3 49 51 58
3 54 52 59
3 52 16 20
3 52 20 59
3 59 20 60
3 60 20 61
3 20 21 61
3 61 21 18
3 55 61 18
3 64 63 62
3 63 65 62
3 67 64 62
3 66 67 62
3 65 68 66
3 62 65 66
3 71 70 69
3 70 72 69
3 74 67 66
3 73 74 66
3 68 75 73
3 66 68 73
3 77 71 69
3 76 77 69
3 72 78 76
3 69 72 76
3 81 80 79
3 80 74 73
3 80 73 79
3 79 73 82
3 75 83 82
3 73 75 82
3 85 77 76
3 84 85 76
3 78 87 86
3 78 86 76
3 76 86 84
3 87 88 86
3 90 81 79
3 89 90 79
3 24 82 23
3 24 89 82
3 89 79 82
3 23 82 83
3 23 83 25
3 25 83 91
3 84 27 28
3 84 28 85
3 85 28 92
3 27 93 29
3 27 84 93
3 84 86 93
3 88 94 93
3 86 88 93
3 97 96 95
3 96 90 89
3 96 89 95
3 95 89 98
3 89 31 98
3 24 31 89
3 91 99 25
3 99 32 25
3 92 28 100
3 100 28 34
3 101 29 93
3 35 29 101
3 94 103 102
3 94 102 93
3 93 102 101
3 103 104 102
3 106 97 95
3 105 106 95
3 38 98 37
3 38 105 98
3 105 95 98
3 98 31 37
3 99 107 32
3 107 39 32
3 100 34 108
3 108 34 40
3 101 42 35
3 42 109 43
3 42 101 109
3 101 102 109
3 104 111 110
3 104 110 102
3 102 110 109
3 111 112 110
3 115 114 113
3 114 106 105
3 114 105 113
3 113 105 116
3 105 45 116
3 38 45 105
3 107 117 39
3 117 46 39
3 108 40 118
3 118 40 47
3 109 50 43
3 50 119 51
3 50 109 119
3 109 110 119
3 112 121 120
3 112 120 110
3 110 120 119
3 121 122 120
3 125 124 123
3 124 115 113
3 124 113 123
3 123 113 126
3 54 116 53
3 54 126 116
3 126 113 116
3 116 45 53
3 117 127 46
3 127 55 46
3 118 47 56
3 128 118 56
3 128 56 129
3 56 57 129
3 129 57 130
3 57 58 130
3 51 119 131
3 51 131 58
3 58 131 130
3 119 120 132
3 131 119 132
3 120 122 132
3 125 123 133
3 123 126 134
3 133 123 134
3 126 54 59
3 126 59 134
3 134 59 135
3 135 59 136
3 59 60 136
3 136 60 137
3 60 61 137
3 137 61 55
3 127 137 55
3 140 139 138
3 139 141 138
3 144 143 142
3 143 145 142
3 147 140 138
3 146 147 138
3 141 148 146
3 138 141 146
3 150 144 142
3 149 150 142
3 145 151 149
3 142 145 149
3 153 147 146
3 152 153 146
3 148 154 152
3 146 148 152
3 156 150 149
3 155 156 149
3 151 157 155
3 149 151 155
3 159 153 152
3 158 159 152
3 154 160 158
3 152 154 158
3 162 156 155
3 161 162 155
3 157 163 161
3 155 157 161
3 159 158 164
3 158 160 164
3 166 162 161
3 165 166 161
3 163 167 165
3 161 163 165
3 169 166 165
3 168 169 165
3 167 170 168
3 165 167 168
3 173 172 171
3 172 174 171
3 176 169 168
3 175 176 168
3 170 177 175
3 168 170 175
3 179 173 171
3 178 179 171
3 174 180 178
3 171 174 178
3 182 176 175
3 181 182 175
3 177 183 181
3 175 177 181
3 185 179 178
3 184 185 178
3 180 186 184
3 178 180 184
3 189 188 187
3 188 182 181
3 188 181 187
3 187 181 190
3 183 191 190
3 181 183 190
3 193 185 184
3 192 193 184
3 186 194 192
3 184 186 192
3 196 189 187
3 195 196 187
3 64 190 63
3 64 195 190
3 195 187 190
3 63 190 191
3 63 191 65
3 65 191 197
3 199 193 192
3 198 199 192
3 194 201 200
3 194 200 192
3 192 200 198
3 201 202 200
3 204 196 195
3 203 204 195
3 195 67 203
3 64 67 195
3 197 205 65
3 205 68 65
3 198 70 71
3 198 71 199
3 199 71 206
3 70 207 72
3 70 198 207
3 198 200 207
3 202 208 207
3 200 202 207
3 211 210 209
3 210 204 203
3 210 203 209
3 209 203 212
3 203 74 212
3 67 74 203
3 205 213 68
3 213 75 68
3 206 71 214
3 214 71 77
3 215 72 207
3 78 72 215
3 208 217 216
3 208 216 207
3 207 216 215
3 217 218 216
3 220 211 209
3 219 220 209
3 81 212 80
3 81 219 212
3 219 209 212
3 212 74 80
3 213 221 75
3 221 83 75
3 214 77 222
3 222 77 85
3 215 87 78
3 87 223 88
3 87 215 223
3 215 216 223
3 218 224 223
3 216 218 223
3 227 226 225
3 226 220 219
3 226 219 225
3 225 219 228
3 219 90 228
3 81 90 219
3 221 229 83
3 229 91 83
3 222 85 230
3 230 85 92
3 231 88 223
3 94 88 231
3 224 233 232
3 224 232 223
3 223 232 231
3 233 234 232
3 237 236 235
3 236 227 225
3 236 225 235
3 235 225 238
3 97 228 96
3 97 238 228
3 238 225 228
3 228 90 96
3 229 239 91
3 239 99 91
3 230 92 240
3 240 92 100
3 231 103 94
3 103 241 104
3 103 231 241
3 231 232 241
3 234 243 242
3 234 242 232
3 232 242 241
3 243 245 244
3 242 243 244
3 245 246 244
3 249 248 247
3 248 237 235
3 248 235 247
3 247 235 250
3 235 238 250
3 238 251 250
3 238 106 251
3 97 106 238
3 239 252 99
3 252 107 99
3 240 100 253
3 253 100 108
3 241 111 104
3 111 254 112
3 111 241 254
3 241 242 254
3 242 244 254
3 244 255 254
3 246 257 256
3 246 256 244
3 244 256 255
3 257 259 258
3 256 257 258
3 259 261 260
3 258 259 260
3 261 263 262
3 260 261 262
3 263 265 264
3 262 263 264
3 265 267 266
3 264 265 266
3 267 249 247
3 267 247 266
3 266 247 268
3 247 250 268
3 250 269 268
3 115 251 114
3 115 269 251
3 269 250 251
3 251 106 114
3 252 270 107
3 270 117 107
3 253 108 271
3 271 108 118
3 254 121 112
3 121 272 122
3 121 254 272
3 254 255 272
3 255 256 272
3 256 273 272
3 256 258 273
3 258 274 273
3 258 260 274
3 260 275 274
3 260 262 275
3 262 276 275
3 262 264 276
3 264 277 276
3 264 266 277
3 266 278 277
3 266 268 278
3 268 279 278
3 125 269 124
3 125 279 269
3 279 268 269
3 269 115 124
3 270 280 117
3 280 127 117
3 271 118 128
3 281 271 128
3 281 128 282
3 128 129 282
3 282 129 283
3 129 130 283
3 283 130 284
3 130 131 284
3 284 131 285
3 131 132 285
3 122 272 286
3 122 286 132
3 132 286 285
3 272 273 287
3 286 272 287
3 273 274 288
3 287 273 288
3 274 275 289
3 288 274 289
3 275 276 290
3 289 275 290
3 276 277 291
3 290 276 291
3 277 278 292
3 291 277 292
3 278 279 293
3 292 278 293
3 279 125 133
3 279 133 293
3 293 133 294
3 294 133 295
3 133 134 295
3 295 134 296
3 134 135 296
3 296 135 297
3 135 136 297
3 297 136 298
3 136 137 298
3 298 137 127
3 280 298 127
3 139 140 299
3 139 299 141
3 143 144 300
3 143 300 145
3 301 299 140
3 147 301 140
3 299 301 148
3 141 299 148
3 302 300 144
3 150 302 144
3 300 302 151
3 145 300 151
3 303 301 147
3 153 303 147
3 301 303 154
3 148 301 154
3 304 302 150
3 156 304 150
3 302 304 157
3 151 302 157
3 305 303 153
3 159 305 153
3 303 305 160
3 154 303 160
3 306 304 156
3 162 306 156
3 304 306 163
3 157 304 163
3 305 159 164
3 305 164 160
3 307 306 162
3 166 307 162
3 306 307 167
3 163 306 167
3 308 307 166
3 169 308 166
3 307 308 170
3 167 307 170
3 172 173 309
3 172 309 174
3 310 308 169
3 176 310 169
3 308 310 177
3 170 308 177
3 311 309 173
3 179 311 173
3 309 311 180
3 174 309 180
3 312 310 176
3 182 312 176
3 310 312 183
3 177 310 183
3 313 311 179
3 185 313 179
3 311 313 186
3 180 311 186
3 188 189 314
3 182 188 314
3 182 314 312
3 312 314 315
3 312 315 191
3 183 312 191
3 316 313 185
3 193 316 185
3 313 316 194
3 186 313 194
3 317 314 189
3 196 317 189
3 314 317 315
3 315 317 318
3 315 318 197
3 191 315 197
3 319 316 193
3 199 319 193
3 201 194 316
3 201 316 320
3 320 316 319
3 201 320 202
3 321 317 196
3 204 321 196
3 317 321 318
3 318 321 322
3 318 322 205
3 197 318 205
3 323 319 199
3 206 323 199
3 319 323 320
3 320 323 324
3 320 324 208
3 202 320 208
3 210 211 325
3 204 210 325
3 204 325 321
3 321 325 326
3 321 326 322
3 322 326 327
3 322 327 213
3 205 322 213
3 328 323 206
3 214 328 206
3 323 328 324
3 324 328 329
3 217 208 324
3 217 324 330
3 330 324 329
3 217 330 218
3 331 325 211
3 220 331 211
3 325 331 326
3 326 331 332
3 326 332 327
3 327 332 333
3 327 333 221
3 213 327 221
3 334 328 214
3 222 334 214
3 328 334 329
3 329 334 335
3 329 335 330
3 330 335 336
3 330 336 224
3 218 330 224
3 226 227 337
3 220 226 337
3 220 337 331
3 331 337 338
3 331 338 332
3 332 338 339
3 332 339 333
3 333 339 340
3 333 340 229
3 221 333 229
3 341 334 222
3 230 341 222
3 334 341 335
3 335 341 342
3 335 342 336
3 336 342 343
3 233 224 336
3 233 336 344
3 344 336 343
3 233 344 234
3 236 237 345
3 227 236 345
3 227 345 337
3 337 345 346
3 337 346 338
3 338 346 347
3 338 347 339
3 339 347 348
3 339 348 340
3 340 348 349
3 340 349 239
3 229 340 239
3 350 341 230
3 240 350 230
3 341 350 342
3 342 350 351
3 342 351 343
3 343 351 352
3 343 352 344
3 344 352 353
3 243 234 344
3 243 344 354
3 354 344 353
3 245 243 354
3 355 245 354
3 245 355 246
3 248 249 356
3 237 248 356
3 237 356 345
3 345 356 357
3 345 357 346
3 346 357 358
3 346 358 347
3 347 358 359
3 347 359 348
3 348 359 360
3 348 360 349
3 349 360 361
3 349 361 252
3 239 349 252
3 362 350 240
3 253 362 240
3 350 362 351
3 351 362 363
3 351 363 352
3 352 363 364
3 352 364 353
3 353 364 365
3 353 365 354
3 354 365 366
3 354 366 355
3 355 366 367
3 257 246 355
3 257 355 368
3 368 355 367
3 259 257 368
3 369 259 368
3 261 259 369
3 370 261 369
3 263 261 370
3 371 263 370
3 265 263 371
3 372 265 371
3 267 265 372
3 373 267 372
3 249 267 373
3 249 373 356
3 356 373 374
3 356 374 357
3 357 374 375
3 357 375 358
3 358 375 376
3 358 376 359
3 359 376 377
3 359 377 360
3 360 377 378
3 360 378 361
3 361 378 379
3 361 379 270
3 252 361 270
3 380 362 253
3 271 380 253
3 362 380 363
3 363 380 381
3 363 381 364
3 364 381 382
3 364 382 365
3 365 382 383
3 365 383 366
3 366 383 384
3 366 384 367
3 367 384 385
3 367 385 368
3 368 385 386
3 368 386 369
3 369 386 387
3 369 387 370
3 370 387 388
3 370 388 371
3 371 388 389
3 371 389 372
3 372 389 390
3 372 390 373
3 373 390 391
3 373 391 374
3 374 391 392
3 374 392 375
3 375 392 393
3 375 393 376
3 376 393 394
3 376 394 377
3 377 394 395
3 377 395 378
3 378 395 396
3 378 396 379
3 379 396 397
3 379 397 280
3 270 379 280
3 380 271 281
3 381 380 281
3 282 381 281
3 382 381 282
3 283 382 282
3 383 382 283
3 284 383 283
3 384 383 284
3 285 384 284
3 385 384 285
3 286 385 285
3 386 385 286
3 287 386 286
3 387 386 287
3 288 387 287
3 388 387 288
3 289 388 288
3 389 388 289
3 290 389 289
3 390 389 290
3 291 390 290
3 391 390 291
3 292 391 291
3 392 391 292
3 293 392 292
3 393 392 293
3 294 393 293
3 394 393 294
3 295 394 294
3 395 394 295
3 296 395 295
3 396 395 296
3 297 396 296
3 397 396 297
3 298 397 297
3 397 298 280
