ply
format ascii 1.0
element vertex 344
property float x
property float y
property float z
property uchar red
property uchar green
property uchar blue
element face 672
property list uchar int vertex_indices
end_header
-7.30465030670166016 -9 -9 0 41 22
-7 -9.427520751953125 -9 0 33 46
-7 -9 -9.427520751953125 30 45 0
-7 -9 -8.77057266235351562 0 45 6
-7.30444431304931641 -9 8 55 0 0
-7 -9.4271240234375 8 54 0 0
-7 -9 7.77093124389648438 54 0 0
-7 -9 8.4271240234375 59 0 0
-7.08209133148193359 -8 -9 17 39 0
-7 -8 -9.27164936065673828 47 36 0
-7 -8 -8.88597202301025391 40 44 0
-7.08204126358032227 -8 8 59 0 0
-7 -8 7.88609552383422852 58 0 0
-7 -8 8.27143192291259766 63 0 0
-7 -7.61183071136474609 -9 40 44 0
-7 -7.61196660995483398 8 63 0 0
-6.79282426834106445 -9 -9 0 45 6
-6.79328155517578125 -9 8 59 0 0
-6.72655677795410156 -8 -9 40 44 0
-6.72726297378540039 -8 8 63 0 0
-6.28542041778564453 -7 -9 44 9 0
-6 -7.19155502319335938 -9 47 36 0
-6 -7 -9.19015789031982422 53 12 0
-6 -7 -8.9283447265625 48 2 0
-6.28411102294921875 -7 8 64 0 0
-6 -7.19010114669799805 8 64 0 0
-6 -7 7.92883872985839844 61 0 0
-6 -7 8.18908786773681641 66 0 0
-6.28368520736694336 -6 -9 43 24 3
-6 -6 -9.4559326171875 56 3 0
-6 -6 -8.74221897125244141 49 35 0
-6.28355598449707031 -6 8 65 0 0
-6 -6 7.74249696731567383 62 0 0
-6 -6 8.45566368103027344 67 0 0
-6.16731023788452148 -5 -9 41 44 8
-6 -5 -9.45667648315429688 59 1 0
-6 -5 -8.74142932891845703 43 50 3
-6.16731452941894531 -5 8 65 0 0
-6 -5 7.74151468276977539 62 0 0
-6 -5 8.45659542083740234 68 0 0
-6.03807401657104492 -4 -9 29 45 11
-6 -4 -9.21079730987548828 61 3 0
-6 -4 -8.91844844818115234 32 52 5
-6.03812122344970703 -4 8 66 0 0
-6 -4 7.9183659553527832 62 11 11
-6 -4 8.21096420288085938 69 0 0
-6 -3.76161909103393555 -9 32 52 5
-6 -3.76128268241882324 8 69 0 0
-6.05736064910888672 3 -9 56 13 0
-6 2.39191699028015137 -9 61 2 0
-6 3 -9.23068428039550781 38 52 0
-6 3 -8.90841197967529297 60 26 0
-6.05737543106079102 3 8 66 0 41
-6 2.39207267761230469 8 69 0 25
-6 3 7.90836334228515625 37 7 59
-6 3 8.23077297210693359 34 0 69
-6.06857919692993164 4 -9 56 18 0
-6 4 -9.1779327392578125 16 51 0
-6 4 -8.93396759033203125 59 54 0
-6.06870174407958984 4 8 0 8 63
-6 4 7.93382024765014648 0 25 59
-6 4 8.17823886871337891 0 45 68
-6 4.31452751159667969 -9 59 54 0
-6 4.31514883041381836 8 0 45 68
-5.95639562606811523 -7 -9 48 2 0
-5.9567108154296875 -7 8 66 0 0
-5.72807073593139648 -6 -9 49 35 0
-5.7284998893737793 -6 8 67 0 0
-5.01306867599487305 -5 -9 43 50 3
-5.01506805419921875 -5 8 68 0 0
-5 -4.99296045303344727 -9 52 54 1
-5 -4 -9.61088371276855469 63 13 0
-5 -4 -8.51226520538330078 51 58 0
-5 -4.99187278747558594 8 68 6 6
-5 -4 7.51263713836669922 62 29 29
-5 -4 8.61071491241455078 69 13 13
-5.74765872955322266 -3 -9 27 55 5
-5 -3 -9.71659183502197266 63 14 0
-5 -3 -8.20397377014160156 58 61 0
-5.74777507781982422 -3 8 70 3 3
-5 -3 7.20419788360595703 63 36 36
-5 -3 8.71654415130615234 71 17 17
-5.53825521469116211 -2 -9 29 58 4
-5 -2 -9.74337482452392578 62 12 0
-5 -2 -8.08328914642333984 65 56 0
-5.53835201263427734 -2 8 71 6 6
-5 -2 7.08335638046264648 65 40 40
-5 -2 8.74336433410644531 73 18 18
-5.37161588668823242 -1 -9 35 61 1
-5 -1 -9.73038196563720703 60 14 8
-5 -1 -8.14504623413085938 68 44 0
-5.37170505523681641 -1 8 73 5 5
-5 -1 7.1449589729309082 67 40 40
-5 -1 8.73039627075195312 75 14 14
-5.50080728530883789 0 -9 58 61 0
-5 0 -9.73553466796875 58 28 10
-5 0 -8.12132930755615234 66 18 0
-5.50072526931762695 0 8 71 2 2
-5 0 7.12127590179443359 64 38 38
-5 0 8.73554229736328125 74 9 9
-5.65474176406860352 1 -9 61 34 0
-5 1 -9.70000934600830078 55 42 11
-5 1 -8.26749420166015625 65 7 0
-5.65467119216918945 1 8 69 0 0
-5 1 7.26729297637939453 63 33 35
-5 1 8.70004749298095703 72 0 3
-5.87003326416015625 2 -9 61 2 0
-5 2 -9.56403160095214844 51 52 12
-5 2 -8.59966659545898438 63 30 0
-5.86996650695800781 2 8 69 0 25
-5 2 7.59937143325805664 61 24 61
-5 2 8.56416988372802734 69 0 72
-5.55456924438476562 3 -9 60 26 0
-5 2.77605867385864258 -9 63 30 0
-5.55377006530761719 3 8 34 0 69
-5 2.77663087844848633 8 69 0 72
-5.92578411102294922 4 -9 59 54 0
-5.92561244964599609 4 8 0 45 68
-4.671051025390625 -4 -9 51 58 0
-4.67134857177734375 -4 8 69 13 13
-4 -3.00600743293762207 -9 60 53 0
-4 -3 -9.01898860931396484 58 14 7
-4 -3 -8.99410820007324219 64 43 0
-4 -3.00554561614990234 8 68 33 33
-4 -3 7.99456071853637695 63 52 52
-4 -3 8.01755714416503906 71 33 33
-4 -2 -9.71862125396728516 58 23 17
-4 -2 -8.195556640625 67 27 0
-4 -2 7.19601345062255859 65 53 53
-4 -2 8.71854114532470703 74 29 29
-4 -1 -9.81601333618164062 57 32 28
-4.74547147750854492 -1 -8 22 60 20
-4 -1.6843491792678833 -8 42 62 15
-4 -1 -7.53010082244873047 51 66 14
-4.74544048309326172 -1 7 67 40 40
-4 -1.68363773822784424 7 65 53 53
-4 -1 6.53049230575561523 61 56 56
-4 -1 8.81599140167236328 78 20 20
-4 0 -9.72335910797119141 54 39 30
-4 -0.29331207275390625 -8 51 66 14
-4 0 -8.17604541778564453 67 5 0
-4 -0.292905658483505249 7 69 50 50
-4 0 7.17560052871704102 66 46 46
-4 0 8.72342300415039062 76 14 14
-4 1 -9.00134468078613281 50 43 30
-4 1 -8.99959087371826172 63 21 0
-4 1 7.99927043914794922 64 39 51
-4 1 8.00239276885986328 74 4 38
-4.71889591217041016 2 -9 63 30 0
-4 1.00040686130523682 -9 63 21 0
-4.71870565414428711 2 8 69 0 72
-4 1.0007246732711792 8 74 4 38
-3.9977877140045166 -3 -9 64 43 0
-3.99795746803283691 -3 8 71 33 33
-3.59930515289306641 -2 -9 67 27 0
-3.59948611259460449 -2 8 74 29 29
-3 -1.08333098888397217 -9 63 36 12
-3 -1 -9.25774478912353516 51 47 47
-3.68471288681030273 -1 -8 51 66 14
-3 -1 -8.89382362365722656 65 30 17
-3.68504071235656738 -1 7 69 50 50
-3 -1.08308660984039307 8 74 37 37
-3 -1 7.89416217803955078 70 56 56
-3 -1 8.25720024108886719 79 23 23
-3.57740616798400879 0 -9 67 5 0
-3 -0.911415517330169678 -9 65 30 17
-3.57725405693054199 0 8 76 14 14
-3 -0.911620795726776123 8 79 23 23
-3.99984288215637207 1 -9 63 21 0
-3.99972033500671387 1 8 74 4 38
-2.96594929695129395 -1 -9 65 30 17
-2.96604537963867188 -1 8 79 23 23
1.95209276676177979 -1 -9 57 61 53
2 -1.11836802959442139 -9 35 48 28
2 -1 -9.32751846313476562 60 63 63
2 -1 -8.85093593597412109 29 51 31
1.95199072360992432 -1 8 23 63 75
2 -1.11862778663635254 8 47 64 52
2 -1 7.85056352615356445 64 62 59
2 -1 8.32799530029296875 71 64 54
2 -0.874144852161407471 -9 29 51 31
2 -0.873953342437744141 8 71 64 54
2.98231673240661621 -3 -9 56 56 56
3 -3.04850506782531738 -9 33 45 40
3 -3 -9.13249588012695312 41 41 50
3 -3 -8.95345211029052734 18 26 39
2.98216915130615234 -3 8 27 31 65
3 -3.04891324043273926 8 43 57 46
3 -3 7.95305156707763672 62 50 50
3 -3 8.13345432281494141 68 61 45
2.58093881607055664 -2 -9 35 48 28
3 -2 -9.72350502014160156 47 52 54
3 -2 -8.17537975311279297 27 41 46
2.5807645320892334 -2 8 47 64 52
3 -2 7.17491912841796875 52 70 56
3 -2 8.72358417510986328 47 74 62
3 -1 -9.81585025787353516 51 57 54
2.67474985122680664 -1 -8 61 63 53
3 -1.70658183097839355 -8 56 56 55
3 -1 -7.53228378295898438 50 52 36
2.67441058158874512 -1 7 64 62 59
3 -1.7073204517364502 7 52 70 56
3 -1 6.53185892105102539 62 68 67
3 -1 8.81587505340576172 53 70 75
2.55858993530273438 0 -9 43 54 47
3 0 -9.72775077819824219 55 56 55
3 -0.270344167947769165 -8 50 52 36
3 0 -8.15665435791015625 47 54 53
3 -0.270783662796020508 7 58 71 72
2.55880308151245117 0 8 46 78 67
3 0 7.15710973739624023 60 61 60
3 0 8.72766399383544922 59 65 61
2.98453140258789062 1 -9 51 55 54
3 1 -9.11570549011230469 53 55 47
3 1 -8.96011734008789062 54 55 54
2.98473787307739258 1 8 48 69 74
3 1 7.96065139770507812 56 58 54
3 1 8.11434078216552734 52 62 52
3 1.0404360294342041 -9 54 55 54
3 1.03988921642303467 8 52 62 52
3.98893332481384277 -5 -9 47 51 48
4 -5.03583860397338867 -9 38 38 41
4 -5 -9.07121849060058594 36 25 35
4 -5 -8.97665023803710938 32 22 36
3.98874020576477051 -5 8 32 46 54
4 -5.03646755218505859 8 49 59 30
4 -5 7.97624063491821289 60 44 38
4 -5 8.07236766815185547 65 55 33
3.65650320053100586 -4 -9 33 45 40
4 -4 -9.61053180694580078 31 26 38
4 -4 -8.51307487487792969 33 16 34
3.6562507152557373 -4 8 43 57 46
4 -4 7.51272821426391602 52 63 43
4 -4 8.61067962646484375 48 67 39
4 -3 -9.70921421051025391 26 34 40
4 -3 -8.23319149017333984 29 21 39
4 -3 7.23298120498657227 54 62 50
4 -3 8.70926189422607422 49 66 46
4 -2 -9.73138523101806641 37 46 36
4 -2 -8.14048290252685547 24 25 43
4 -2 7.14043426513671875 59 60 57
4 -2 8.73139476776123047 57 65 53
4 -1 -9.71042251586914062 55 55 54
3.64845132827758789 -1 -8 50 52 36
4 -1 -8.22848415374755859 26 40 45
3.64851808547973633 -1 7 58 71 72
4 -1 7.22859287261962891 57 57 53
4 -1 8.71039485931396484 61 64 58
4 0 -9.72223567962646484 53 51 47
4 0 -8.18060970306396484 34 46 41
4 0 7.18064498901367188 57 58 53
4 0 8.72222709655761719 58 61 53
4 1 -9.69108963012695312 49 53 38
4 1 -8.29859638214111328 43 46 42
4 1 7.29879999160766602 51 61 41
4 1 8.69102382659912109 50 63 41
3.70721673965454102 2 -9 50 54 51
4 2 -9.56244945526123047 35 44 35
4 2 -8.60222721099853516 46 46 44
3.7075955867767334 2 8 38 65 45
4 2 7.60262537002563477 35 62 30
4 2 8.56219005584716797 34 64 31
4 2.8157508373260498 -9 46 46 44
4 2.81449699401855469 8 34 64 31
4.95349264144897461 -7 -9 36 41 46
5 -7.21341180801391602 -9 39 34 36
5 -7 -9.19207382202148438 39 35 40
5 -7 -8.92744922637939453 36 33 34
4.95324993133544922 -7 8 29 48 36
5 -7.21458148956298828 8 59 53 16
5 -7 7.92707443237304688 57 33 27
5 -7 8.19286060333251953 61 23 22
4.73821163177490234 -6 -9 38 38 41
5 -6 -9.42248630523681641 35 42 46
5 -6 -8.77528285980224609 35 27 33
4.73786544799804688 -6 8 49 59 30
5 -6 7.7750544548034668 55 36 34
5 -6 8.42272567749023438 60 39 29
5 -5 -9.3853912353515625 34 52 33
5 -5 -8.80764484405517578 34 26 36
5 -5 7.80758523941040039 53 43 41
5 -5 8.38546276092529297 59 47 36
4.9684910774230957 -4 -9 33 16 34
5 -4.07521581649780273 -9 34 26 36
4.96828413009643555 -4 8 48 67 39
5 -4.07571029663085938 8 59 47 36
4.65701389312744141 -3 -9 29 21 39
4.65689373016357422 -3 8 49 66 46
4.4755706787109375 -2 -9 24 25 43
4.47545051574707031 -2 8 57 65 53
4.32097578048706055 -1 -9 26 40 45
4.32085323333740234 -1 8 61 64 58
4.44060277938842773 0 -9 34 46 41
4.44072532653808594 0 8 58 61 53
4.57378244400024414 1 -9 43 46 42
4.57388591766357422 1 8 50 63 41
4.71103763580322266 2 -9 46 46 44
4.71102428436279297 2 8 34 64 31
4.79204797744750977 3 -9 44 38 36
5 2.87266254425048828 -9 34 51 29
5 3 -9.07082843780517578 21 17 48
5 3 -8.97678375244140625 31 35 29
4.79355955123901367 3 8 23 64 31
5 2.87276744842529297 8 52 53 45
5 3 7.97682857513427734 51 53 35
5 3 8.07070159912109375 50 52 41
4.96154642105102539 4 -9 43 37 29
5 4 -9.09163284301757812 41 28 35
5 4 -8.96926593780517578 16 43 24
4.96178674697875977 4 8 17 64 34
5 4 7.96943140029907227 47 52 31
5 4 8.09118843078613281 47 52 37
5 4.17462444305419922 -9 16 43 24
5 4.17367458343505859 8 47 52 37
5.80723142623901367 -9 -9 42 27 34
6 -9.38567066192626953 -9 40 21 21
6 -9 -9.38567066192626953 25 8 48
6 -9 -8.80741977691650391 40 25 26
5.80689287185668945 -9 8 16 54 13
6 -9.38599872589111328 8 56 40 3
6 -9 7.80714750289916992 50 34 17
6 -9 8.38599872589111328 55 21 11
5.87457609176635742 -8 -9 39 34 36
6 -8 -9.11163520812988281 6 40 50
6 -8 -8.96170234680175781 42 28 39
5.87415122985839844 -8 8 59 53 16
6 -8 7.96162700653076172 47 24 24
6 -8 8.11183071136474609 54 25 18
5.19817543029785156 -7 -9 36 33 34
6 -7.88445329666137695 -9 42 28 39
5.19891262054443359 -7 8 61 23 22
6 -7.88429546356201172 8 54 25 18
5.21863842010498047 -6 -9 35 27 33
5.21873331069946289 -6 8 60 39 29
5.11549711227416992 -5 -9 34 26 36
5.11548900604248047 -5 8 59 47 36
5.013519287109375 3 -9 31 35 29
5.01349306106567383 3 8 50 52 41
5.0283808708190918 4 -9 16 43 24
5.02823114395141602 4 8 47 52 37
6.21663522720336914 -9 -9 40 25 26
6.21677827835083008 -9 8 55 21 11
6.02511215209960938 -8 -9 42 28 39
6.02515029907226562 -8 8 54 25 18
3 2 1 0
3 1 3 0
3 6 5 4
3 5 7 4
3 9 2 0
3 8 9 0
3 3 10 8
3 0 3 8
3 12 6 4
3 11 12 4
3 7 13 11
3 4 7 11
3 9 8 14
3 8 10 14
3 12 11 15
3 11 13 15
3 1 2 16
3 1 16 3
3 5 6 17
3 5 17 7
3 18 16 2
3 9 18 2
3 16 18 10
3 3 16 10
3 19 17 6
3 12 19 6
3 17 19 13
3 7 17 13
3 14 20 22
3 14 22 9
3 21 18 22
3 18 9 22
3 20 14 10
3 20 10 23
3 18 21 10
3 21 23 10
3 15 24 26
3 15 26 12
3 25 19 26
3 19 12 26
3 24 15 13
3 24 13 27
3 19 25 13
3 25 27 13
3 29 22 20
3 28 29 20
3 23 30 28
3 20 23 28
3 32 26 24
3 31 32 24
3 27 33 31
3 24 27 31
3 35 29 28
3 34 35 28
3 30 36 34
3 28 30 34
3 38 32 31
3 37 38 31
3 33 39 37
3 31 33 37
3 41 35 34
3 40 41 34
3 36 42 40
3 34 36 40
3 44 38 37
3 43 44 37
3 39 45 43
3 37 39 43
3 41 40 46
3 40 42 46
3 44 43 47
3 43 45 47
3 50 49 48
3 49 51 48
3 54 53 52
3 53 55 52
3 57 50 48
3 56 57 48
3 51 58 56
3 48 51 56
3 60 54 52
3 59 60 52
3 55 61 59
3 52 55 59
3 57 56 62
3 56 58 62
3 60 59 63
3 59 61 63
3 21 22 64
3 21 64 23
3 25 26 65
3 25 65 27
3 66 64 22
3 29 66 22
3 64 66 30
3 23 64 30
3 67 65 26
3 32 67 26
3 65 67 33
3 27 65 33
3 68 66 29
3 35 68 29
3 66 68 36
3 30 66 36
3 69 67 32
3 38 69 32
3 67 69 39
3 33 67 39
3 70 68 35
3 70 35 71
3 71 35 41
3 68 70 72
3 68 72 36
3 36 72 42
3 73 69 38
3 73 38 74
3 74 38 44
3 69 73 75
3 69 75 39
3 39 75 45
3 46 76 77
3 46 77 41
3 41 77 71
3 76 46 42
3 76 42 78
3 78 42 72
3 47 79 80
3 47 80 44
3 44 80 74
3 79 47 45
3 79 45 81
3 81 45 75
3 83 77 76
3 82 83 76
3 78 84 82
3 76 78 82
3 86 80 79
3 85 86 79
3 81 87 85
3 79 81 85
3 89 83 82
3 88 89 82
3 84 90 88
3 82 84 88
3 92 86 85
3 91 92 85
3 87 93 91
3 85 87 91
3 95 89 88
3 94 95 88
3 90 96 94
3 88 90 94
3 98 92 91
3 97 98 91
3 93 99 97
3 91 93 97
3 101 95 94
3 100 101 94
3 96 102 100
3 94 96 100
3 104 98 97
3 103 104 97
3 99 105 103
3 97 99 103
3 107 101 100
3 106 107 100
3 102 108 106
3 100 102 106
3 110 104 103
3 109 110 103
3 105 111 109
3 103 105 109
3 112 113 107
3 112 107 50
3 106 49 107
3 49 50 107
3 49 106 108
3 49 108 51
3 113 112 108
3 112 51 108
3 114 115 110
3 114 110 54
3 109 53 110
3 53 54 110
3 53 109 111
3 53 111 55
3 115 114 111
3 114 55 111
3 116 112 50
3 57 116 50
3 112 116 58
3 51 112 58
3 117 114 54
3 60 117 54
3 114 117 61
3 55 114 61
3 116 57 62
3 116 62 58
3 117 60 63
3 117 63 61
3 70 71 118
3 70 118 72
3 73 74 119
3 73 119 75
3 120 118 71
3 120 71 121
3 121 71 77
3 118 120 122
3 118 122 72
3 72 122 78
3 123 119 74
3 123 74 124
3 124 74 80
3 119 123 125
3 119 125 75
3 75 125 81
3 121 77 126
3 126 77 83
3 122 127 78
3 127 84 78
3 124 80 128
3 128 80 86
3 125 129 81
3 129 87 81
3 126 83 130
3 130 83 89
3 131 127 132
3 131 90 127
3 90 84 127
3 132 133 131
3 136 135 134
3 135 92 134
3 135 128 92
3 128 86 92
3 129 137 87
3 137 93 87
3 130 89 138
3 138 89 95
3 139 90 131
3 139 140 90
3 140 96 90
3 131 133 139
3 136 134 141
3 134 142 141
3 134 92 142
3 92 98 142
3 137 143 93
3 143 99 93
3 138 95 144
3 144 95 101
3 140 145 96
3 145 102 96
3 142 98 146
3 146 98 104
3 143 147 99
3 147 105 99
3 148 149 144
3 148 144 107
3 107 144 101
3 149 148 108
3 149 108 145
3 145 108 102
3 150 151 146
3 150 146 110
3 110 146 104
3 151 150 111
3 151 111 147
3 147 111 105
3 148 107 113
3 148 113 108
3 150 110 115
3 150 115 111
3 120 121 152
3 120 152 122
3 123 124 153
3 123 153 125
3 154 152 121
3 126 154 121
3 152 154 127
3 122 152 127
3 155 153 124
3 128 155 124
3 153 155 129
3 125 153 129
3 156 154 126
3 156 126 157
3 157 126 130
3 159 158 132
3 156 159 132
3 156 132 127
3 156 127 154
3 132 158 133
3 135 136 160
3 160 162 161
3 135 160 161
3 135 161 155
3 135 155 128
3 155 161 163
3 155 163 129
3 129 163 137
3 164 165 157
3 164 157 138
3 138 157 130
3 158 140 139
3 159 140 158
3 159 164 140
3 159 165 164
3 158 139 133
3 160 136 141
3 141 142 166
3 160 141 166
3 160 166 167
3 160 167 162
3 167 166 143
3 167 143 163
3 163 143 137
3 168 164 138
3 144 168 138
3 164 168 145
3 140 164 145
3 169 166 142
3 146 169 142
3 166 169 147
3 143 166 147
3 168 144 149
3 168 149 145
3 169 146 151
3 169 151 147
3 156 157 170
3 156 170 159
3 161 162 171
3 161 171 163
3 170 157 165
3 170 165 159
3 171 162 167
3 171 167 163
3 174 173 172
3 173 175 172
3 178 177 176
3 177 179 176
3 174 172 180
3 172 175 180
3 178 176 181
3 176 179 181
3 184 183 182
3 183 185 182
3 188 187 186
3 187 189 186
3 191 184 182
3 190 191 182
3 185 192 190
3 182 185 190
3 194 188 186
3 193 194 186
3 189 195 193
3 186 189 193
3 190 173 174
3 190 174 191
3 191 174 196
3 173 197 175
3 190 197 173
3 190 198 197
3 190 192 198
3 198 199 197
3 202 201 200
3 193 177 178
3 194 193 178
3 194 178 200
3 194 200 201
3 177 193 195
3 177 195 179
3 179 195 203
3 180 204 205
3 180 205 174
3 174 205 196
3 204 206 207
3 180 206 204
3 180 197 206
3 180 175 197
3 197 199 206
3 202 200 208
3 210 181 209
3 208 181 210
3 208 178 181
3 208 200 178
3 209 181 179
3 209 179 211
3 211 179 203
3 213 205 204
3 212 213 204
3 207 214 212
3 204 207 212
3 216 210 209
3 215 216 209
3 211 217 215
3 209 211 215
3 213 212 218
3 212 214 218
3 216 215 219
3 215 217 219
3 222 221 220
3 221 223 220
3 226 225 224
3 225 227 224
3 229 222 220
3 228 229 220
3 223 230 228
3 220 223 228
3 232 226 224
3 231 232 224
3 227 233 231
3 224 227 231
3 228 183 184
3 228 184 229
3 229 184 234
3 183 228 230
3 183 230 185
3 185 230 235
3 231 187 188
3 231 188 232
3 232 188 236
3 187 231 233
3 187 233 189
3 189 233 237
3 234 184 238
3 238 184 191
3 235 239 185
3 239 192 185
3 236 188 240
3 240 188 194
3 237 241 189
3 241 195 189
3 238 191 242
3 242 191 196
3 198 244 243
3 198 192 244
3 192 239 244
3 198 243 199
3 201 202 245
3 245 194 201
3 245 246 194
3 246 240 194
3 241 247 195
3 247 203 195
3 242 196 248
3 248 196 205
3 243 207 206
3 243 244 207
3 244 249 207
3 243 206 199
3 245 202 208
3 208 246 245
3 208 210 246
3 210 250 246
3 247 251 203
3 251 211 203
3 248 205 252
3 252 205 213
3 249 253 207
3 253 214 207
3 250 210 254
3 254 210 216
3 251 255 211
3 255 217 211
3 218 256 257
3 218 257 213
3 213 257 252
3 256 218 214
3 256 214 258
3 258 214 253
3 219 259 260
3 219 260 216
3 216 260 254
3 259 219 217
3 259 217 261
3 261 217 255
3 257 256 262
3 256 258 262
3 260 259 263
3 259 261 263
3 266 265 264
3 265 267 264
3 270 269 268
3 269 271 268
3 273 266 264
3 272 273 264
3 267 274 272
3 264 267 272
3 276 270 268
3 275 276 268
3 271 277 275
3 268 271 275
3 272 221 222
3 272 222 273
3 273 222 278
3 221 272 274
3 221 274 223
3 223 274 279
3 275 225 226
3 275 226 276
3 276 226 280
3 225 275 277
3 225 277 227
3 227 277 281
3 282 283 278
3 282 278 229
3 229 278 222
3 283 282 230
3 283 230 279
3 279 230 223
3 284 285 280
3 284 280 232
3 232 280 226
3 285 284 233
3 285 233 281
3 281 233 227
3 286 282 229
3 234 286 229
3 282 286 235
3 230 282 235
3 287 284 232
3 236 287 232
3 284 287 237
3 233 284 237
3 288 286 234
3 238 288 234
3 286 288 239
3 235 286 239
3 289 287 236
3 240 289 236
3 287 289 241
3 237 287 241
3 290 288 238
3 242 290 238
3 288 290 244
3 239 288 244
3 291 289 240
3 246 291 240
3 289 291 247
3 241 289 247
3 292 290 242
3 248 292 242
3 290 292 249
3 244 290 249
3 293 291 246
3 250 293 246
3 291 293 251
3 247 291 251
3 294 292 248
3 252 294 248
3 292 294 253
3 249 292 253
3 295 293 250
3 254 295 250
3 293 295 255
3 251 293 255
3 296 294 252
3 257 296 252
3 294 296 258
3 253 294 258
3 297 295 254
3 260 297 254
3 295 297 261
3 255 295 261
3 262 298 300
3 262 300 257
3 299 296 300
3 296 257 300
3 298 262 258
3 298 258 301
3 296 299 258
3 299 301 258
3 263 302 304
3 263 304 260
3 303 297 304
3 297 260 304
3 302 263 261
3 302 261 305
3 297 303 261
3 303 305 261
3 307 300 298
3 306 307 298
3 301 308 306
3 298 301 306
3 310 304 302
3 309 310 302
3 305 311 309
3 302 305 309
3 307 306 312
3 306 308 312
3 310 309 313
3 309 311 313
3 316 315 314
3 315 317 314
3 320 319 318
3 319 321 318
3 323 316 314
3 322 323 314
3 317 324 322
3 314 317 322
3 326 320 318
3 325 326 318
3 321 327 325
3 318 321 325
3 328 329 323
3 328 323 266
3 322 265 323
3 265 266 323
3 265 322 324
3 265 324 267
3 329 328 324
3 328 267 324
3 330 331 326
3 330 326 270
3 325 269 326
3 269 270 326
3 269 325 327
3 269 327 271
3 331 330 327
3 330 271 327
3 332 328 266
3 273 332 266
3 328 332 274
3 267 328 274
3 333 330 270
3 276 333 270
3 330 333 277
3 271 330 277
3 334 332 273
3 278 334 273
3 332 334 279
3 274 332 279
3 335 333 276
3 280 335 276
3 333 335 281
3 277 333 281
3 334 278 283
3 334 283 279
3 335 280 285
3 335 285 281
3 299 300 336
3 299 336 301
3 303 304 337
3 303 337 305
3 338 336 300
3 307 338 300
3 336 338 308
3 301 336 308
3 339 337 304
3 310 339 304
3 337 339 311
3 305 337 311
3 338 307 312
3 338 312 308
3 339 310 313
3 339 313 311
3 315 316 340
3 315 340 317
3 319 320 341
3 319 341 321
3 342 340 316
3 323 342 316
3 340 342 324
3 317 340 324
3 343 341 320
3 326 343 320
3 341 343 327
3 321 341 327
3 342 323 329
3 342 329 324
3 343 326 331
3 343 331 327
