ply
format ascii 1.0
element vertex 124
property float x
property float y
property float z
property uchar red
property uchar green
property uchar blue
element face 240
property list uchar int vertex_indices
end_header
-3.09955811500549316 -1 -1 184 202 182
-3 -1.56461060047149658 -1 175 208 193
-3 -1 -1.36114203929901123 169 193 171
-3 -1 -0.691096305847167969 180 207 182
-3.07943868637084961 0 -1 185 198 182
-3 0 -1.29434859752655029 174 191 172
-3 0 -0.740330636501312256 186 204 184
-3 0.456339359283447266 -1 186 204 184
-2.14644241333007812 -9 -2 250 253 255
-2 -9.11743927001953125 -2 252 254 255
-2 -9 -2.06510305404663086 240 247 255
-2.85128974914550781 -9 -1 253 254 255
-2 -9.43407344818115234 -1 249 253 255
-2.02886533737182617 -9 0 249 253 255
-2 -9.02559471130371094 0 243 251 255
-2 -9 0.0121803907677531242 246 250 255
-2 -8.57617855072021484 -2 239 246 255
-2.5031437873840332 -8 -1 236 244 255
-2 -8 -1.71569442749023438 222 231 252
-2 -8.91654491424560547 0 246 250 255
-2 -8 -0.387806981801986694 224 233 255
-2.2677757740020752 -7 -1 216 227 247
-2 -7 -1.38107872009277344 198 207 238
-2 -7 -0.674128472805023193 209 218 251
-2.14587783813476562 -6 -1 197 211 234
-2 -6 -1.2076416015625 181 192 225
-2 -6 -0.82246100902557373 191 203 238
-2.13795232772827148 -5 -1 183 204 224
-2 -5 -1.1963573694229126 170 186 215
-2 -5 -0.832108616828918457 179 197 228
-2.24442625045776367 -4 -1 176 205 216
-2 -4 -1.34786427021026611 163 189 207
-2 -4 -0.702543675899505615 172 200 220
-2.46582198143005371 -3 -1 173 211 209
-2 -3 -1.66283881664276123 161 197 201
-2 -3 -0.433154016733169556 170 209 214
-2.09920787811279297 -2 -2 165 194 181
-2 -2.29603719711303711 -2 161 197 201
-2 -2 -2.04414606094360352 155 184 174
-2.80293178558349609 -2 -1 175 208 193
-2 -2 -0.0229934975504875183 172 211 200
-2.54929518699645996 -1 -2 169 193 171
-2 -1 -2.24439334869384766 160 183 163
-2.43079209327697754 -1 0 193 219 192
-2 -1.95815694332122803 0 183 224 209
-2 -1 0.181863963603973389 190 223 195
-2.53781628608703613 0 -2 174 191 172
-2 0 -2.26087403297424316 165 181 163
-2.45099139213562012 0 0 201 217 196
-2 0 0.209754273295402527 200 221 197
-2.11661362648010254 1 -2 174 186 173
-2 1 -2.05656671524047852 165 177 165
-2.76960992813110352 1 -1 187 200 186
-2.03029394149780273 1 0 200 213 199
-2 1 0.0140901990234851837 202 218 201
-2 1.35291039943695068 -2 177 191 178
-2.43732070922851562 2 -1 189 197 188
-2 2 -1.67067670822143555 181 189 181
-2 1.09169185161590576 0 202 218 201
-2 2 -0.408270478248596191 194 203 194
-2.19622087478637695 3 -1 188 195 187
-2 3 -1.30087566375732422 183 188 183
-2 3 -0.734515726566314697 198 202 198
-2.04524970054626465 4 -1 180 192 178
-2 4 -1.06937134265899658 180 186 179
-2 4 -0.938782334327697754 196 200 195
-2 4.73552608489990234 -1 196 200 195
-2.01153659820556641 6 -1 137 180 126
-2 5.58502578735351562 -1 184 197 181
-2 6 -1.01768398284912109 144 178 135
-2 6 -0.98439323902130127 162 192 152
-2.12912201881408691 7 -1 115 174 91
-2 7 -1.19795835018157959 121 172 99
-2 7 -0.825313389301300049 139 186 114
-2.3377995491027832 8 -1 120 171 63
-2 8 -1.51811826229095459 120 169 68
-2 8 -0.54292064905166626 134 182 78
-2 8.25265693664550781 -1 134 182 78
-1.72188878059387207 -9 -2 239 246 255
-1 -9.22641754150390625 -1 252 253 255
-1 -9 -1.45869529247283936 232 240 255
-1.94517147541046143 -9 0 246 250 255
-1 -9 -0.607392311096191406 232 240 255
-1.04266870021820068 -8 -1 224 233 255
-1 -8.064849853515625 -1 232 240 255
-1.49000954627990723 -7 -1 209 218 251
-1.72205877304077148 -6 -1 191 203 238
-1.73716020584106445 -5 -1 179 197 228
-1.53440499305725098 -4 -1 172 200 220
-1.11296248435974121 -3 -1 170 209 214
-1.8111264705657959 -2 -2 163 198 188
-1 -2.82334780693054199 -1 170 208 217
-1 -2 -1.39251065254211426 162 201 193
-1 -2 -0.664320528507232666 172 214 205
-1 -1.05292367935180664 -2 162 201 193
-1 -1 -2.01058483123779297 160 187 166
-1.18010103702545166 -1 0 190 223 195
-1 -1 -0.115551166236400604 178 213 188
-1 0 -2.07023048400878906 166 186 165
-1 -0.406571567058563232 0 189 226 197
-1 0 0.0271925069391727448 200 225 197
-1.70275604724884033 1 -2 177 191 178
-1 0.344244152307510376 -2 175 199 175
-1 1 -1.57571923732757568 179 196 180
-1.92277216911315918 1 0 202 218 201
-1 0.139012634754180908 0 200 225 197
-1 1 -0.492047995328903198 191 209 191
-1 2 -1.06860661506652832 185 194 185
-1 2 -0.93946528434753418 198 207 198
-1.50006484985351562 3 -1 198 202 198
-1 2.1859443187713623 -1 198 207 198
-1.884757399559021 4 -1 196 200 195
-1.97062718868255615 6 -1 162 192 152
-1.67110490798950195 7 -1 139 186 114
-1.13861978054046631 8 -1 134 182 78
-0.844004631042480469 -9 -1 232 240 255
-0.866499125957489014 -2 -1 172 214 205
-0.988488852977752686 -1 -2 168 200 178
-0.648293614387512207 -1 -1 178 213 188
-0.919435679912567139 0 -2 175 199 175
-0.555937230587005615 0 -1 186 212 186
-0.967465877532958984 0 0 200 225 197
-0.791117191314697266 1 -1 191 209 191
-0.975106894969940186 2 -1 198 207 198
3 2 1 0
3 1 3 0
3 5 2 0
3 4 5 0
3 3 6 4
3 0 3 4
3 5 4 7
3 4 6 7
3 10 9 8
3 9 12 11
3 8 9 11
3 12 14 13
3 11 12 13
3 14 15 13
3 10 8 16
3 18 16 8
3 18 8 17
3 17 8 11
3 19 20 17
3 19 17 13
3 13 17 11
3 13 15 19
3 22 18 17
3 21 22 17
3 20 23 21
3 17 20 21
3 25 22 21
3 24 25 21
3 23 26 24
3 21 23 24
3 28 25 24
3 27 28 24
3 26 29 27
3 24 26 27
3 31 28 27
3 30 31 27
3 29 32 30
3 27 29 30
3 34 31 30
3 33 34 30
3 32 35 33
3 30 32 33
3 38 37 36
3 37 34 33
3 37 33 36
3 36 33 39
3 35 40 39
3 33 35 39
3 42 38 36
3 41 42 36
3 2 39 1
3 2 41 39
3 41 36 39
3 1 43 3
3 39 43 1
3 39 44 43
3 39 40 44
3 44 45 43
3 47 42 41
3 46 47 41
3 41 5 46
3 2 5 41
3 48 3 43
3 6 3 48
3 45 49 48
3 43 45 48
3 51 47 46
3 50 51 46
3 7 46 5
3 7 52 46
3 52 50 46
3 6 52 7
3 6 48 52
3 48 53 52
3 49 54 53
3 48 49 53
3 51 50 55
3 57 55 50
3 57 50 56
3 56 50 52
3 58 59 56
3 58 56 53
3 53 56 52
3 53 54 58
3 61 57 56
3 60 61 56
3 59 62 60
3 56 59 60
3 64 61 60
3 63 64 60
3 62 65 63
3 60 62 63
3 64 63 66
3 63 65 66
3 69 68 67
3 68 70 67
3 72 69 67
3 71 72 67
3 70 73 71
3 67 70 71
3 75 72 71
3 74 75 71
3 73 76 74
3 71 73 74
3 75 74 77
3 74 76 77
3 9 10 78
3 78 80 79
3 78 79 9
3 9 79 12
3 82 81 14
3 82 14 79
3 79 14 12
3 14 81 15
3 78 10 16
3 16 18 83
3 78 16 83
3 78 83 84
3 78 84 80
3 81 20 19
3 82 20 81
3 82 83 20
3 82 84 83
3 81 19 15
3 85 83 18
3 22 85 18
3 83 85 23
3 20 83 23
3 86 85 22
3 25 86 22
3 85 86 26
3 23 85 26
3 87 86 25
3 28 87 25
3 86 87 29
3 26 86 29
3 88 87 28
3 31 88 28
3 87 88 32
3 29 87 32
3 89 88 31
3 34 89 31
3 88 89 35
3 32 88 35
3 37 38 90
3 90 92 91
3 37 90 91
3 37 91 89
3 37 89 34
3 89 91 93
3 89 93 35
3 35 93 40
3 94 90 38
3 94 38 95
3 95 38 42
3 90 94 92
3 44 97 96
3 44 40 97
3 40 93 97
3 44 96 45
3 95 42 98
3 98 42 47
3 97 99 96
3 96 99 100
3 96 100 45
3 45 100 49
3 101 102 98
3 101 98 51
3 51 98 47
3 102 101 103
3 106 104 105
3 105 104 54
3 105 54 100
3 100 54 49
3 101 51 55
3 55 103 101
3 55 57 103
3 57 107 103
3 104 59 58
3 104 106 59
3 106 108 59
3 104 58 54
3 109 110 107
3 109 107 61
3 61 107 57
3 110 109 62
3 110 62 108
3 108 62 59
3 111 109 61
3 64 111 61
3 109 111 65
3 62 109 65
3 111 64 66
3 111 66 65
3 68 69 112
3 68 112 70
3 113 112 69
3 72 113 69
3 112 113 73
3 70 112 73
3 114 113 72
3 75 114 72
3 113 114 76
3 73 113 76
3 114 75 77
3 114 77 76
3 79 80 115
3 79 115 82
3 115 80 84
3 115 84 82
3 91 92 116
3 91 116 93
3 94 95 117
3 92 94 117
3 92 117 116
3 116 117 118
3 116 118 97
3 93 116 97
3 119 117 95
3 98 119 95
3 117 119 118
3 118 119 120
3 99 97 118
3 99 118 121
3 121 118 120
3 99 121 100
3 119 98 102
3 102 103 122
3 102 122 119
3 119 122 120
3 106 105 121
3 106 121 122
3 122 121 120
3 121 105 100
3 123 122 103
3 107 123 103
3 122 123 108
3 106 122 108
3 123 107 110
3 123 110 108
