ply
format ascii 1.0
element vertex 566
property float x
property float y
property float z
property uchar red
property uchar green
property uchar blue
element face 1128
property list uchar int vertex_indices
end_header
-6.02487325668334961 5 -2 199 233 179
-6 4.8416748046875 -2 163 225 178
-6 5 -2.09481477737426758 210 221 184
-6.12286949157714844 5 -1 171 227 175
-6 4.21640491485595703 -1 161 230 219
-6.05950546264648438 5 0 166 224 191
-6 4.6209712028503418 0 161 214 233
-6 5 0.262927532196044922 160 213 202
-6.11154651641845703 6 -2 207 249 205
-6 6 -2.42583942413330078 226 242 204
-6.21075010299682617 6 -1 200 246 211
-6.14659547805786133 6 0 198 243 219
-6 6 0.648739159107208252 181 221 202
-6.12853860855102539 7 -2 252 254 249
-6 7 -2.49084687232971191 242 252 236
-6.22798728942871094 7 -1 253 253 253
-6.16367244720458984 7 0 252 253 252
-6 7 0.724524915218353271 224 246 233
-6.07536029815673828 8 -2 236 254 248
-6 8 -2.28751897811889648 253 254 253
-6.17405033111572266 8 -1 234 254 247
-6.11023235321044922 8 0 232 254 250
-6 8 0.487505942583084106 248 253 248
-6 8.49751091003417969 -2 251 254 249
-6 8.69244956970214844 -1 248 254 246
-6 8.59022617340087891 0 248 253 248
-5.1472163200378418 2 -2 154 244 250
-5 1.67776226997375488 -2 159 252 230
-5 2 -2.45943951606750488 160 250 229
-5.26884984970092773 2 -1 157 235 250
-5 1.41094052791595459 -1 164 252 227
-5.19017791748046875 2 0 160 238 250
-5 1.58357870578765869 0 168 252 221
-5 2 0.687909424304962158 172 251 237
-5.19305658340454102 3 -3 160 239 165
-5 2.47441601753234863 -3 160 250 229
-5 3 -3.3664703369140625 189 241 169
-5.52101325988769531 3 -2 158 242 226
-5.64888715744018555 3 -1 160 225 245
-5.56613826751708984 3 0 161 213 246
-5.27970552444458008 3 1 163 212 247
-5 2.2378990650177002 1 175 251 229
-5 3 1.58096444606781006 175 239 249
-5.47877740859985352 4 -3 192 222 169
-5 4 -3.91062283515930176 213 224 180
-5.82011747360229492 4 -2 163 225 178
-5.9536895751953125 4 -1 161 230 219
-5.86722421646118164 4 0 161 214 233
-5.56878185272216797 4 1 161 199 236
-5.0827789306640625 4 2 162 194 237
-5 3.70366144180297852 2 177 245 249
-5 4 2.11945366859436035 174 209 242
-5.14689922332763672 5 -4 232 220 196
-5 4.23429059982299805 -4 213 224 180
-5 5 -4.19879245758056641 228 210 207
-5.68300724029541016 5 -3 210 221 184
-5.77566289901733398 5 1 159 210 216
-5.27647304534912109 5 2 159 203 218
-5 5 2.3993222713470459 169 194 226
-5.25446367263793945 6 -4 248 248 212
-5 6 -4.34449958801269531 246 228 223
-5.79873514175415039 6 -3 226 242 204
-5.89297962188720703 6 1 178 221 210
-5.38583898544311523 6 2 181 223 219
-5 6 2.5575556755065918 167 201 206
-5.27557039260864258 7 -4 253 254 246
-5 7 -4.37310457229614258 253 251 246
-5.82148933410644531 7 -3 242 252 236
-5.91605281829833984 7 1 228 246 235
-5.40731000900268555 7 2 239 248 241
-5 7 2.5886383056640625 208 229 224
-5.20953512191772461 8 -4 249 254 249
-5 8 -4.28362464904785156 252 254 249
-5.75034952163696289 8 -3 253 254 253
-5.84392213821411133 8 1 253 253 253
-5.34014606475830078 8 2 243 253 249
-5 8 2.49142837524414062 235 251 228
-5 8.68905735015869141 -4 252 254 239
-5 8.88058567047119141 -3 254 251 228
-5 8.91186332702636719 -2 246 253 235
-5 8.91953754425048828 -1 242 252 237
-5 8.91476726531982422 0 238 251 233
-5 8.89115524291992188 1 237 251 224
-5 8.77950000762939453 2 235 251 228
-4.04652023315429688 0 -1 154 251 227
-4 -0.0569208823144435883 -1 151 244 184
-4 0 -1.30413198471069336 160 250 203
-4 0 -0.527092456817626953 162 250 212
-4.16982936859130859 1 -3 154 252 225
-4 0.757439076900482178 -3 155 251 191
-4 1 -3.25189948081970215 158 252 193
-4.58663320541381836 1 -2 159 252 230
-4 0.161198675632476807 -2 160 250 203
-4.74923467636108398 1 -1 164 252 227
-4.64400815963745117 1 0 168 252 221
-4 0.0790260285139083862 0 163 249 221
-4.27992105484008789 1 1 170 252 214
-4 0.600078165531158447 1 162 248 229
-4 1 1.4541555643081665 178 251 213
-4.0848088264465332 2 -4 158 249 182
-4 1.85495150089263916 -4 158 252 193
-4 2 -4.0897068977355957 188 250 163
-4.76426267623901367 2 -3 160 250 229
-4.88173151016235352 2 1 175 251 229
-4.24899148941040039 2 2 177 251 221
-4 1.57388031482696533 2 178 251 210
-4 2 2.28096413612365723 188 251 211
-4.55849075317382812 3 -4 189 241 169
-4 3 -4.59088277816772461 230 242 178
-4.73118257522583008 3 2 177 245 249
-4 3 2.82546806335449219 189 250 233
-4.93765401840209961 4 -4 213 224 180
-4 4 -4.99220657348632812 226 217 192
-4.21086692810058594 4 3 174 212 242
-4 3.40942931175231934 3 189 250 228
-4 4 3.18133950233459473 186 235 246
-4.23851537704467773 5 -5 228 210 207
-4 4.02783441543579102 -5 226 217 192
-4 5 -5.19495153427124023 229 222 216
-4.46155548095703125 5 3 168 194 226
-4 5 3.39677786827087402 181 204 234
-4.37695980072021484 6 -5 246 228 223
-4 6 -5.30802392959594727 247 243 237
-4.60334491729736328 6 3 172 206 212
-4 6 3.51856398582458496 171 194 210
-4.40414142608642578 7 -5 253 251 246
-4 7 -5.33021688461303711 253 250 250
-4.63120174407958984 7 3 221 236 230
-4 7 3.54248571395874023 194 214 211
-4.31911706924438477 8 -5 252 254 249
-4 8 -5.26078939437866211 252 254 242
-4.54408502578735352 8 3 244 251 246
-4 8 3.46766996383666992 225 247 217
-4 8.72400856018066406 -5 254 248 232
-4 8.90569972991943359 -4 253 253 235
-4 8.9340057373046875 -3 247 251 243
-4 8.94366836547851562 -2 244 248 244
-4 8.94650840759277344 -1 242 244 242
-4 8.9447174072265625 0 239 241 240
-4 8.93697071075439453 1 236 241 238
-4 8.9150543212890625 2 230 243 234
-4 8.81364059448242188 3 225 247 217
-3.26897644996643066 0 -3 155 251 191
-3 -0.239468380808830261 -3 213 245 158
-3 0 -3.2902379035949707 172 251 158
-3.84440851211547852 0 -2 160 250 203
-3 -0.751522719860076904 -2 200 242 161
-3 -0.951509833335876465 -1 181 237 160
-3.9237217903137207 0 0 163 249 221
-3 -0.822075843811035156 0 157 232 156
-3.42083454132080078 0 1 162 248 229
-3 -0.374632954597473145 1 149 226 173
-3 0 1.49658346176147461 166 243 217
-3.30289840698242188 1 -4 158 252 193
-3 0.685275673866271973 -4 172 251 158
-3 1 -4.23306417465209961 169 252 159
-3.53198051452636719 1 2 178 251 210
-3 0.447226554155349731 2 161 241 231
-3 1 2.43652606010437012 181 249 218
-3 2 -4.86565876007080078 181 251 168
-3.13785266876220703 2 3 187 251 206
-3 1.82844233512878418 3 178 249 218
-3 2 3.08627176284790039 193 251 207
-3.48004698753356934 3 -5 230 242 178
-3 2.25691056251525879 -5 181 251 168
-3 3 -5.2852482795715332 243 217 189
-3.79085946083068848 3 3 189 250 228
-3 3 3.49402070045471191 199 250 219
-3.99010157585144043 4 -5 226 217 192
-3 4 -5.58739423751831055 227 206 204
-3 4 3.8201141357421875 198 248 242
-3 5 -5.80366802215576172 219 215 214
-3.07634258270263672 5 4 180 207 234
-3 4.77386045455932617 4 196 248 238
-3 5 4.03844165802001953 191 222 239
-3 6 -5.92632436752319336 237 236 234
-3.26318597793579102 6 4 175 202 213
-3 6 4.13240337371826172 182 203 219
-3 7 -5.95044898986816406 251 246 242
-3.29986333847045898 7 4 213 226 222
-3 7 4.15082836151123047 193 209 206
-3 8 -5.87503290176391602 254 246 232
-3.18512868881225586 8 4 233 248 236
-3 8 4.0931696891784668 217 243 211
-3 8.89038467407226562 -5 253 238 227
-3 8.9354095458984375 -4 251 249 236
-3 8.94895172119140625 -3 242 245 236
-3 8.95438766479492188 -2 233 237 231
-3 8.95607852935791016 -1 225 229 225
-3 8.95500755310058594 0 220 223 221
-3 8.95057010650634766 1 220 222 221
-3 8.93953800201416016 2 221 226 223
-3 8.90668678283691406 3 221 233 225
-3 8.530303955078125 4 217 243 211
-2.57659816741943359 -1 -2 200 242 161
-2 -1.28459644317626953 -2 199 157 133
-2 -1 -2.64961504936218262 240 216 168
-2.91741108894348145 -1 -1 181 237 160
-2 -1.45251226425170898 -1 177 158 118
-2.6968691349029541 -1 0 157 232 156
-2 -1.34387779235839844 0 164 154 111
-2 -1 0.909642577171325684 201 218 160
-2 -0.816420197486877441 -3 240 216 168
-2 0 -3.9900968074798584 220 250 167
-2 -0.958866655826568604 1 169 210 149
-2.33884096145629883 0 2 161 241 231
-2 -0.191534459590911865 2 137 202 144
-2 0 2.17658662796020508 161 232 208
-2 0.00956257805228233337 -4 220 250 167
-2 1 -4.73270702362060547 195 252 165
-2 1 2.9798729419708252 180 245 224
-2.73870635032653809 2 -5 181 251 168
-2 1.41640365123748779 -5 195 252 165
-2 2 -5.27857065200805664 239 251 172
-2 1.02955746650695801 3 175 245 231
-2 2 3.48682570457458496 195 250 214
-2 3 -5.67604780197143555 247 233 190
-2 3 3.91598796844482422 205 250 218
-2 4 -5.99494171142578125 233 215 209
-2.57890725135803223 4 4 196 248 238
-2 3.25128769874572754 4 203 250 213
-2 4 4.18476200103759766 205 249 230
-2.5193171501159668 5 -6 219 215 214
-2 4.02272224426269531 -6 233 215 209
-2 5 -6.15896987915039062 226 226 217
-2 5 4.35875988006591797 202 237 243
-2.81976914405822754 6 -6 237 236 234
-2 6 -6.25061321258544922 240 244 236
-2 6 4.45706796646118164 193 212 227
-2.87880420684814453 7 -6 251 246 242
-2 7 -6.26859283447265625 252 249 247
-2 7 4.47637367248535156 187 202 201
-2.69419097900390625 8 -6 254 246 232
-2 8 -6.21233797073364258 254 250 230
-2 8 4.41598987579345703 209 229 213
-2 8.72477054595947266 -6 253 231 225
-2 8.91939640045166016 -5 251 225 222
-2 8.94556331634521484 -4 246 235 225
-2 8.95495891571044922 -3 235 233 219
-2 8.95897006988525391 -2 217 221 208
-2 8.96024894714355469 -1 202 209 199
-2 8.95943737030029297 0 195 202 195
-2 8.95613765716552734 1 196 201 198
-2 8.94834136962890625 2 202 206 203
-2 8.92808055877685547 3 208 216 211
-2 8.82771205902099609 4 209 229 213
-1.30927193164825439 -1 -3 240 216 168
-1 -1.06726741790771484 -3 194 139 130
-1 -1 -3.09329843521118164 240 172 169
-1 -1.50796198844909668 -2 160 125 105
-1 -1.67974340915679932 -1 131 116 85
-1 -1.56858479976654053 0 112 106 74
-1.84532284736633301 -1 1 169 210 149
-1 -1.18372189998626709 1 107 100 73
-1 -1 1.27869784832000732 190 190 145
-1.96880805492401123 0 -4 220 250 167
-1 -0.24099479615688324 -4 240 172 169
-1 0 -4.20829200744628906 250 228 166
-1 -0.44436684250831604 2 154 179 129
-1 0 2.40963387489318848 158 220 176
-1 1 -4.96451282501220703 223 251 170
-1.91850638389587402 1 3 175 245 231
-1 0.733332633972167969 3 147 216 195
-1 1 3.16056132316589355 170 239 233
-1 1.05525064468383789 -5 223 251 170
-1 2 -5.45042753219604492 241 252 175
-1 2 3.67216157913208008 191 248 223
-1 3 -5.85735750198364258 249 242 191
-1.56598961353302002 3 4 203 250 213
-1 2.75524258613586426 4 188 248 221
-1 3 4.07963037490844727 204 250 216
-1.97269332408905029 4 -6 233 215 209
-1 3.44635796546936035 -6 249 242 191
-1 4 -6.13110208511352539 233 227 215
-1 4 4.32889699935913086 211 249 227
-1 5 -6.29677391052246094 223 222 215
-1 5 4.50664567947387695 210 246 243
-1 6 -6.39031028747558594 229 238 224
-1 6 4.6072230339050293 203 223 234
-1 7 -6.40867328643798828 249 245 237
-1 7 4.62698650360107422 191 205 205
-1 8 -6.35123157501220703 254 239 221
-1 8 4.56518363952636719 199 217 202
-1 8.80998706817626953 -6 252 221 219
-1 8.92757606506347656 -5 249 226 209
-1 8.94897079467773438 -4 239 210 210
-1 8.95709705352783203 -3 224 211 198
-1 8.96064281463623047 -2 206 206 185
-1 8.96178245544433594 -1 185 193 177
-1 8.96105861663818359 0 177 186 175
-1 8.95813369750976562 1 178 186 179
-1 8.95134830474853516 2 185 192 187
-1 8.93448352813720703 3 193 203 196
-1 8.86450481414794922 4 199 217 202
0 -1.01541757583618164 -3 169 134 116
0 -1 -3.02138113975524902 234 204 171
0 -1.45387744903564453 -2 130 93 87
0 -1.62469840049743652 -1 98 80 65
0 -1.51416671276092529 0 77 68 51
0 -1.13131523132324219 1 69 61 47
0 -1 1.19917011260986328 154 145 115
0 -0.180842369794845581 -4 234 204 171
0 0 -4.1563115119934082 248 190 171
0 -0.383157074451446533 2 153 149 115
0 0 2.35321950912475586 161 204 152
0 1 -4.90832042694091797 251 251 174
0 0.803471088409423828 3 139 198 158
0 1 3.11835575103759766 164 230 221
0 1.14275789260864258 -5 251 251 174
0 2 -5.40882205963134766 249 252 178
0 2 3.62726116180419922 186 244 233
0 3 -5.81340599060058594 250 245 193
0 2.85892319679260254 4 182 245 236
0 3 4.04591894149780273 202 249 221
0 3.58409452438354492 -6 250 245 193
0 4 -6.09853792190551758 237 232 221
0 4 4.2940211296081543 213 250 227
0 5 -6.26343536376953125 223 223 216
0 5 4.47083568572998047 216 247 239
0 6 -6.35649967193603516 226 233 222
0 6 4.57084941864013672 211 233 238
0 7 -6.37476730346679688 247 243 230
0 7 4.5904994010925293 199 212 211
0 8 -6.31762123107910156 253 228 212
0 8 4.52904844284057617 191 210 190
0 8.79487991333007812 -6 250 221 213
0 8.92578697204589844 -5 245 232 201
0 8.94820213317871094 -4 234 213 194
0 8.95660877227783203 -3 215 184 181
0 8.96025848388671875 -2 196 187 169
0 8.96142959594726562 -1 180 184 163
0 8.96068572998046875 0 170 179 164
0 8.95767688751220703 1 171 181 170
0 8.95066642761230469 2 177 186 177
0 8.93306827545166016 3 184 196 185
0 8.85725688934326172 4 191 210 190
0.0476166494190692902 -1 -3 218 169 159
1 -1.12666022777557373 -2 111 85 77
1 -1 -2.28890466690063477 206 179 152
1 -1.29200863838195801 -1 77 56 53
1 -1.18505179882049561 0 57 44 39
0.405827105045318604 -1 1 154 145 115
1 -1 0.489120990037918091 131 111 95
0.488324493169784546 0 -4 245 198 179
1 -0.627620458602905273 -3 206 179 152
1 0 -3.76099085807800293 242 190 180
1 -0.767566978931427002 1 125 108 94
1 -0.0126965194940567017 2 127 111 97
1 0 2.01170682907104492 170 187 142
1 0.230779305100440979 -4 242 190 180
1 1 -4.56923818588256836 250 224 176
0.454720139503479004 1 3 164 230 221
1 1 2.80191516876220703 167 223 183
1 1.67136180400848389 -5 250 224 176
1 2 -5.15700674057006836 252 242 180
1 1.29100310802459717 3 157 220 199
1 2 3.35594415664672852 179 240 238
1 3 -5.54818916320800781 251 242 195
0.219183668494224548 3 4 202 249 221
1 3 3.77774333953857422 198 248 234
0.490920037031173706 4 -6 243 227 215
1 4 -5.8613429069519043 246 227 216
1 3.66543769836425781 4 197 248 229
1 4 4.08268404006958008 212 250 227
1 4.62357711791992188 -6 246 227 216
1 5 -6.06133747100830078 225 226 216
1 5 4.25420475006103516 219 248 237
1 6 -6.15173530578613281 228 230 226
1 6 4.35100603103637695 218 241 242
1 7 -6.16946220397949219 244 241 226
1 7 4.37000703811645508 209 218 216
1 8 -6.11398935317993164 252 219 204
1 8 4.31056690216064453 194 209 183
1 8.58933639526367188 -6 248 216 207
1 8.91206836700439453 -5 241 228 199
1 8.94273471832275391 -4 231 228 180
1 8.9532318115234375 -3 211 185 170
1 8.95763587951660156 -2 193 168 161
1 8.9590301513671875 -1 183 177 157
1 8.9581451416015625 0 176 180 161
1 8.95453071594238281 1 174 182 167
1 8.94586563110351562 2 178 188 174
1 8.92248821258544922 3 185 196 180
1 8.78467845916748047 4 194 209 183
1.2100600004196167 -1 -2 176 128 127
1.48454010486602783 -1 -1 149 119 106
1.30695784091949463 -1 0 131 111 95
1.91017258167266846 0 -3 236 191 185
2 -0.440455108880996704 -2 167 149 126
2 0 -2.87849569320678711 230 203 179
2 -0.634758532047271729 -1 138 111 103
2 -0.509033322334289551 0 118 91 89
2 -0.0735246613621711731 1 111 87 86
1.01839101314544678 0 2 170 187 142
2 0 1.09741377830505371 181 162 144
1.95554137229919434 1 -4 248 232 183
2 0.0734064206480979919 -3 230 203 179
2 1 -3.96237301826477051 247 208 182
2 0.801700115203857422 2 170 168 128
2 1 2.15666389465332031 160 213 159
1.34065544605255127 2 -5 233 251 182
2 1.04298579692840576 -4 247 208 182
2 2 -4.59096288681030273 250 251 183
1.73495316505432129 2 3 179 240 238
2 2 2.82555508613586426 178 236 218
2 2.78299689292907715 -5 250 251 183
2 3 -5.08344364166259766 251 233 196
2 2.3146970272064209 3 172 235 233
2 3 3.27683377265930176 193 246 242
2 4 -5.37792396545410156 247 222 218
1.21192073822021484 4 4 212 250 227
2 4 3.59392905235290527 210 249 236
1.16389715671539307 5 -6 230 228 227
2 5 -5.58812618255615234 233 233 231
1.65284240245819092 5 4 219 248 237
2 5 3.82090544700622559 221 249 241
1.40593373775482178 6 -6 213 214 198
2 6 -5.70713996887207031 215 218 207
1.90242969989776611 6 4 218 241 242
2 6 3.94963169097900391 223 244 244
1.45346260070800781 7 -6 218 234 202
2 7 -5.73053216934204102 222 232 207
1.95148158073425293 7 4 209 218 216
2 7 3.97495031356811523 216 224 222
1.30480051040649414 8 -6 248 216 207
2 8 -5.65738868713378906 246 204 200
1.79809951782226562 8 4 194 209 183
2 8 3.89580202102661133 196 201 176
2 8.86264610290527344 -5 238 221 198
2 8.92781829833984375 -4 228 226 181
2 8.94478702545166016 -3 212 209 165
2 8.95130538940429688 -2 196 171 158
2 8.95330142974853516 -1 187 163 157
2 8.95203876495361328 0 185 176 161
2 8.94674396514892578 1 187 187 167
2 8.93310546875 2 190 193 172
2 8.88796424865722656 3 196 201 176
2.43245601654052734 0 -2 220 193 177
2.62321758270263672 0 -1 208 178 172
2.49978494644165039 0 0 195 163 159
2.07219243049621582 0 1 181 162 144
2.77913570404052734 1 -3 243 215 186
3 0.665545761585235596 -2 211 191 166
3 1 -2.57129216194152832 241 194 182
3 0.441768616437911987 -1 196 172 157
3 0.586554825305938721 0 181 149 144
2.91867399215698242 1 1 192 219 170
3 1 0.818316519260406494 219 212 170
2.16684222221374512 1 2 160 213 159
2.67158865928649902 2 -4 234 250 186
3 1.30638372898101807 -3 241 194 182
3 2 -3.60122179985046387 249 250 186
3 1.11279058456420898 1 199 211 160
2.8794403076171875 2 2 178 236 218
3 2 1.84094488620758057 178 234 191
2.12262701988220215 3 -5 229 251 193
3 2.55961966514587402 -4 249 250 186
3 3 -4.21898031234741211 243 252 195
3 2.20533370971679688 2 172 231 206
2.38697600364685059 3 3 193 246 242
3 3 2.42123627662658691 190 244 242
2.55610466003417969 4 -5 238 249 208
3 4 -4.6047205924987793 250 249 210
2.83111381530761719 4 3 210 249 236
3 4 2.84052729606628418 207 249 243
2.86615705490112305 5 -5 241 235 229
3 5 -4.88078880310058594 242 232 232
3 4.53763151168823242 3 207 249 238
3 5 3.09765458106994629 220 250 239
3 5.76440858840942383 -5 242 232 232
3 6 -5.02606010437011719 221 223 220
3 6 3.21517252922058105 225 246 242
3 7 -5.04752349853515625 230 233 217
3 7 3.23823070526123047 224 228 225
2.96842789649963379 8 -5 238 221 198
3 7.70576333999633789 -5 196 220 187
3 8 -4.9718775749206543 238 210 197
3 8 3.16608834266662598 208 188 170
3 8.8761749267578125 -4 227 217 190
3 8.92212390899658203 -3 216 216 172
3 8.93577957153320312 -2 203 204 158
3 8.93962478637695312 -1 196 178 157
3 8.93720912933349609 0 193 164 160
3 8.92641258239746094 1 195 171 165
3 8.89244556427001953 2 200 182 168
3 8.61670589447021484 3 208 188 170
3.21141791343688965 1 -2 235 200 182
3.35267043113708496 1 -1 227 206 178
3.26129651069641113 1 0 219 212 170
3.36570930480957031 2 -3 236 247 187
3.75163698196411133 2 -2 222 245 188
3.90247440338134766 2 -1 206 241 186
3.80484390258789062 2 0 188 238 183
3.46753931045532227 2 1 178 234 191
3.18693757057189941 3 -4 216 251 194
3.80841183662414551 3 -3 199 250 195
4 2.5476069450378418 -2 234 244 185
4 3 -2.51883172988891602 210 250 194
4 2.2148582935333252 -1 216 240 182
4 2.43016958236694336 0 195 236 178
3.91596603393554688 3 1 193 245 234
4 3 0.757151603698730469 192 245 218
3.33700418472290039 3 2 190 244 242
3.5159614086151123 4 -4 216 251 206
4 3.54917263984680176 -3 210 250 194
4 4 -3.23882460594177246 232 251 207
4 3.24071431159973145 1 189 244 229
3.67197704315185547 4 2 207 249 243
4 4 1.43968737125396729 205 249 243
3.75124454498291016 5 -4 239 246 222
4 5 -3.6091609001159668 247 240 224
3.91194796562194824 5 2 220 249 244
4 5 1.84974086284637451 219 250 244
3.1025385856628418 5 3 220 250 239
3.02878451347351074 6 -5 219 221 203
3.88460302352905273 6 -4 228 219 219
4 6 -3.81877636909484863 229 228 217
4 5.65041303634643555 2 219 250 241
3.22595000267028809 6 3 225 246 242
4 6 2.0533449649810791 227 247 240
3.05249285697937012 7 -5 196 220 187
3.91082620620727539 7 -4 199 206 174
4 7 -3.85997128486633301 189 215 181
3.25016665458679199 7 3 224 228 225
4 7 2.08300685882568359 228 229 227
3.8288428783416748 8 -4 227 217 190
4 8 -3.7311561107635498 230 208 197
3.99116611480712891 8 2 200 182 168
4 7.89353799819946289 2 228 229 227
4 8 1.98492956161499023 206 182 167
3.17440223693847656 8 3 208 188 170
4 8.7989501953125 -3 221 209 189
4 8.87681961059570312 -2 213 205 178
4 8.89207172393798828 -1 207 198 169
4 8.88273906707763672 0 205 191 165
4 8.82857131958007812 1 206 182 167
4.15305948257446289 3 -2 194 249 194
4.26529264450073242 3 -1 193 247 207
4.19270229339599609 3 0 192 245 218
4.11591672897338867 4 -3 206 251 207
4.41508626937866211 4 -2 206 250 223
4.53156805038452148 4 -1 206 250 233
4.45620155334472656 4 0 206 249 240
4.19502353668212891 4 1 205 249 243
4.29518556594848633 5 -3 227 249 219
4.60220193862915039 5 -2 218 250 229
4.72204971313476562 5 -1 218 250 239
4.64448642730712891 5 0 218 250 244
4.37624979019165039 5 1 219 250 244
4.39641046524047852 6 -3 237 235 234
4.70817136764526367 6 -2 236 242 229
4.83003902435302734 6 -1 227 245 229
4.75115823745727539 6 0 226 246 237
4.47866439819335938 6 1 226 247 240
4.03405427932739258 6 2 227 247 240
4.41628408432006836 7 -3 201 209 178
4.72900152206420898 7 -2 212 201 189
4.85127592086791992 7 -1 218 208 205
4.77213001251220703 7 0 223 223 218
4.49877834320068359 7 1 227 227 226
4.05298328399658203 7 2 228 229 227
4.35411882400512695 8 -3 221 209 189
4.66387081146240234 8 -2 213 205 178
4.78488445281982422 8 -1 207 198 169
4.70656061172485352 8 0 205 191 165
4.43586826324462891 8 1 206 182 167
3 2 1 0
3 1 4 3
3 0 1 3
3 4 6 5
3 3 4 5
3 6 7 5
3 9 2 0
3 8 9 0
3 0 3 8
3 3 10 8
3 3 5 10
3 5 11 10
3 7 12 11
3 5 7 11
3 14 9 8
3 13 14 8
3 8 10 13
3 10 15 13
3 10 11 15
3 11 16 15
3 12 17 16
3 11 12 16
3 19 14 13
3 18 19 13
3 13 15 18
3 15 20 18
3 15 16 20
3 16 21 20
3 17 22 21
3 16 17 21
3 19 18 23
3 18 20 24
3 23 18 24
3 20 21 25
3 24 20 25
3 21 22 25
3 28 27 26
3 27 30 29
3 26 27 29
3 30 32 31
3 29 30 31
3 32 33 31
3 36 35 34
3 35 28 26
3 35 26 34
3 34 26 37
3 26 29 37
3 29 38 37
3 29 31 38
3 31 39 38
3 33 41 40
3 33 40 31
3 31 40 39
3 41 42 40
3 44 36 34
3 43 44 34
3 34 37 43
3 37 45 43
3 37 38 45
3 38 46 45
3 38 39 46
3 39 47 46
3 39 40 47
3 40 48 47
3 42 50 49
3 42 49 40
3 40 49 48
3 50 51 49
3 54 53 52
3 53 44 43
3 53 43 52
3 52 43 55
3 2 45 1
3 2 55 45
3 55 43 45
3 46 1 45
3 4 1 46
3 47 4 46
3 6 4 47
3 6 56 7
3 6 47 56
3 47 48 56
3 48 49 56
3 49 57 56
3 51 58 57
3 49 51 57
3 60 54 52
3 59 60 52
3 52 55 59
3 55 61 59
3 55 9 61
3 2 9 55
3 62 7 56
3 12 7 62
3 56 57 62
3 57 63 62
3 58 64 63
3 57 58 63
3 66 60 59
3 65 66 59
3 59 61 65
3 61 67 65
3 61 14 67
3 9 14 61
3 68 12 62
3 17 12 68
3 62 63 68
3 63 69 68
3 64 70 69
3 63 64 69
3 72 66 65
3 71 72 65
3 65 67 71
3 67 73 71
3 67 19 73
3 14 19 67
3 74 17 68
3 22 17 74
3 68 69 74
3 69 75 74
3 70 76 75
3 69 70 75
3 72 71 77
3 71 73 78
3 77 71 78
3 73 19 23
3 73 23 78
3 78 23 79
3 79 23 80
3 23 24 80
3 80 24 81
3 24 25 81
3 22 74 82
3 22 82 25
3 25 82 81
3 74 75 83
3 82 74 83
3 75 76 83
3 86 85 84
3 85 87 84
3 90 89 88
3 89 92 91
3 88 89 91
3 92 86 84
3 92 84 91
3 91 84 93
3 87 95 94
3 87 94 84
3 84 94 93
3 95 97 96
3 94 95 96
3 97 98 96
3 101 100 99
3 100 90 88
3 100 88 99
3 99 88 102
3 28 91 27
3 28 102 91
3 102 88 91
3 93 27 91
3 30 27 93
3 94 30 93
3 32 30 94
3 32 103 33
3 32 94 103
3 94 96 103
3 98 105 104
3 98 104 96
3 96 104 103
3 105 106 104
3 108 101 99
3 107 108 99
3 36 102 35
3 36 107 102
3 107 99 102
3 102 28 35
3 103 41 33
3 41 109 42
3 41 103 109
3 103 104 109
3 106 110 109
3 104 106 109
3 112 108 107
3 111 112 107
3 107 44 111
3 36 44 107
3 109 50 42
3 50 113 51
3 109 113 50
3 109 114 113
3 109 110 114
3 114 115 113
3 118 117 116
3 111 53 54
3 112 111 54
3 112 54 116
3 112 116 117
3 111 44 53
3 119 51 113
3 58 51 119
3 115 120 119
3 113 115 119
3 122 118 116
3 121 122 116
3 116 60 121
3 54 60 116
3 123 58 119
3 64 58 123
3 120 124 123
3 119 120 123
3 126 122 121
3 125 126 121
3 121 66 125
3 60 66 121
3 127 64 123
3 70 64 127
3 124 128 127
3 123 124 127
3 130 126 125
3 129 130 125
3 125 72 129
3 66 72 125
3 131 70 127
3 76 70 131
3 128 132 131
3 127 128 131
3 130 129 133
3 129 72 77
3 129 77 133
3 133 77 134
3 134 77 135
3 77 78 135
3 135 78 136
3 78 79 136
3 136 79 137
3 79 80 137
3 137 80 138
3 80 81 138
3 138 81 139
3 81 82 139
3 139 82 140
3 82 83 140
3 76 131 141
3 76 141 83
3 83 141 140
3 131 132 141
3 144 143 142
3 143 146 145
3 142 143 145
3 86 145 146
3 86 146 85
3 85 146 147
3 148 87 85
3 148 85 149
3 149 85 147
3 149 151 150
3 148 149 150
3 151 152 150
3 155 154 153
3 142 89 90
3 144 142 90
3 144 90 153
3 144 153 154
3 145 89 142
3 92 89 145
3 145 86 92
3 148 95 87
3 150 95 148
3 97 95 150
3 97 156 98
3 150 156 97
3 150 157 156
3 150 152 157
3 157 158 156
3 153 100 101
3 153 101 155
3 155 101 159
3 153 90 100
3 156 105 98
3 105 160 106
3 156 160 105
3 156 161 160
3 156 158 161
3 161 162 160
3 165 164 163
3 164 108 163
3 164 159 108
3 159 101 108
3 166 106 160
3 110 106 166
3 162 167 166
3 160 162 166
3 169 165 163
3 168 169 163
3 163 112 168
3 108 112 163
3 166 114 110
3 114 166 167
3 114 167 115
3 115 167 170
3 168 117 118
3 168 118 169
3 169 118 171
3 168 112 117
3 172 170 173
3 172 120 170
3 120 115 170
3 173 174 172
3 171 118 175
3 175 118 122
3 176 120 172
3 124 120 176
3 174 177 176
3 172 174 176
3 175 122 178
3 178 122 126
3 179 124 176
3 128 124 179
3 177 180 179
3 176 177 179
3 178 126 181
3 181 126 130
3 182 128 179
3 132 128 182
3 180 183 182
3 179 180 182
3 181 130 133
3 184 181 133
3 184 133 185
3 133 134 185
3 185 134 186
3 134 135 186
3 186 135 187
3 135 136 187
3 187 136 188
3 136 137 188
3 188 137 189
3 137 138 189
3 189 138 190
3 138 139 190
3 190 139 191
3 139 140 191
3 191 140 192
3 140 141 192
3 132 182 193
3 132 193 141
3 141 193 192
3 182 183 193
3 196 195 194
3 195 198 197
3 194 195 197
3 198 200 199
3 197 198 199
3 200 201 199
3 144 203 202
3 143 144 202
3 194 202 196
3 194 146 202
3 146 143 202
3 197 146 194
3 147 146 197
3 199 147 197
3 149 147 199
3 201 149 199
3 201 204 149
3 204 151 149
3 205 152 151
3 205 151 206
3 206 151 204
3 206 207 205
3 155 209 208
3 154 155 208
3 208 144 154
3 203 144 208
3 205 157 152
3 157 205 207
3 157 207 158
3 158 207 210
3 213 212 211
3 212 159 211
3 212 209 159
3 209 155 159
3 210 161 158
3 214 161 210
3 161 214 215
3 162 161 215
3 211 164 165
3 211 165 213
3 213 165 216
3 211 159 164
3 215 217 162
3 217 167 162
3 216 165 218
3 218 165 169
3 219 217 220
3 219 170 217
3 170 167 217
3 220 221 219
3 224 223 222
3 223 171 222
3 223 218 171
3 218 169 171
3 219 173 170
3 173 219 221
3 173 221 174
3 174 221 225
3 227 224 222
3 226 227 222
3 222 175 226
3 171 175 222
3 225 228 174
3 228 177 174
3 230 227 226
3 229 230 226
3 226 178 229
3 175 178 226
3 228 231 177
3 231 180 177
3 233 230 229
3 232 233 229
3 229 181 232
3 178 181 229
3 231 234 180
3 234 183 180
3 233 232 235
3 232 181 184
3 232 184 235
3 235 184 236
3 236 184 237
3 184 185 237
3 237 185 238
3 185 186 238
3 238 186 239
3 186 187 239
3 239 187 240
3 187 188 240
3 240 188 241
3 188 189 241
3 241 189 242
3 189 190 242
3 242 190 243
3 190 191 243
3 243 191 244
3 191 192 244
3 244 192 245
3 192 193 245
3 245 193 183
3 234 245 183
3 248 247 246
3 196 246 247
3 196 247 195
3 195 247 249
3 249 250 195
3 195 250 198
3 250 251 198
3 198 251 200
3 252 201 200
3 252 200 253
3 253 200 251
3 253 254 252
3 257 256 255
3 246 202 203
3 248 246 203
3 248 203 255
3 248 255 256
3 246 196 202
3 252 204 201
3 254 204 252
3 254 258 204
3 258 206 204
3 206 258 259
3 207 206 259
3 255 208 209
3 255 209 257
3 257 209 260
3 255 203 208
3 261 259 262
3 261 210 259
3 210 207 259
3 262 263 261
3 213 265 264
3 212 213 264
3 264 209 212
3 260 209 264
3 261 214 210
3 214 261 263
3 214 263 215
3 215 263 266
3 265 213 267
3 267 213 216
3 268 266 269
3 268 217 266
3 217 215 266
3 269 270 268
3 273 272 271
3 272 218 271
3 272 267 218
3 267 216 218
3 268 220 217
3 220 268 270
3 220 270 221
3 221 270 274
3 271 223 224
3 271 224 273
3 273 224 275
3 271 218 223
3 274 276 221
3 276 225 221
3 275 224 277
3 277 224 227
3 276 278 225
3 278 228 225
3 277 227 279
3 279 227 230
3 278 280 228
3 280 231 228
3 279 230 281
3 281 230 233
3 280 282 231
3 282 234 231
3 281 233 235
3 283 281 235
3 283 235 284
3 235 236 284
3 284 236 285
3 236 237 285
3 285 237 286
3 237 238 286
3 286 238 287
3 238 239 287
3 287 239 288
3 239 240 288
3 288 240 289
3 240 241 289
3 289 241 290
3 241 242 290
3 290 242 291
3 242 243 291
3 291 243 292
3 243 244 292
3 292 244 293
3 244 245 293
3 293 245 234
3 282 293 234
3 248 295 294
3 247 248 294
3 294 296 247
3 247 296 249
3 296 297 249
3 249 297 250
3 297 298 250
3 250 298 251
3 298 299 251
3 251 299 253
3 253 299 300
3 254 253 300
3 257 302 301
3 256 257 301
3 301 248 256
3 295 248 301
3 300 258 254
3 303 258 300
3 258 303 304
3 259 258 304
3 302 257 305
3 305 257 260
3 304 262 259
3 306 262 304
3 262 306 307
3 263 262 307
3 265 309 308
3 264 265 308
3 308 260 264
3 305 260 308
3 307 310 263
3 310 266 263
3 309 265 311
3 311 265 267
3 310 269 266
3 312 269 310
3 269 312 313
3 270 269 313
3 273 315 314
3 272 273 314
3 314 267 272
3 311 267 314
3 313 316 270
3 316 274 270
3 315 273 317
3 317 273 275
3 316 318 274
3 318 276 274
3 317 275 319
3 319 275 277
3 318 320 276
3 320 278 276
3 319 277 321
3 321 277 279
3 320 322 278
3 322 280 278
3 321 279 323
3 323 279 281
3 322 324 280
3 324 282 280
3 323 281 283
3 325 323 283
3 325 283 326
3 283 284 326
3 326 284 327
3 284 285 327
3 327 285 328
3 285 286 328
3 328 286 329
3 286 287 329
3 329 287 330
3 287 288 330
3 330 288 331
3 288 289 331
3 331 289 332
3 289 290 332
3 332 290 333
3 290 291 333
3 333 291 334
3 291 292 334
3 334 292 335
3 292 293 335
3 335 293 282
3 324 335 282
3 294 295 336
3 336 338 337
3 336 337 294
3 294 337 296
3 337 339 296
3 296 339 297
3 339 340 297
3 297 340 298
3 342 341 299
3 342 299 340
3 340 299 298
3 299 341 300
3 301 302 343
3 343 345 344
3 301 343 344
3 301 344 336
3 301 336 295
3 336 344 338
3 342 346 341
3 341 303 300
3 341 346 303
3 346 347 303
3 303 347 348
3 304 303 348
3 349 343 302
3 349 302 350
3 350 302 305
3 343 349 345
3 306 352 351
3 306 304 352
3 304 348 352
3 306 351 307
3 309 354 353
3 308 309 353
3 353 305 308
3 350 305 353
3 352 355 351
3 351 355 356
3 351 356 307
3 307 356 310
3 354 309 357
3 357 309 311
3 312 359 358
3 312 310 359
3 310 356 359
3 312 358 313
3 314 315 360
3 360 311 314
3 360 361 311
3 361 357 311
3 359 362 358
3 358 362 363
3 358 363 313
3 313 363 316
3 364 360 315
3 364 315 365
3 365 315 317
3 360 364 361
3 363 366 316
3 366 318 316
3 365 317 367
3 367 317 319
3 366 368 318
3 368 320 318
3 367 319 369
3 369 319 321
3 368 370 320
3 370 322 320
3 369 321 371
3 371 321 323
3 370 372 322
3 372 324 322
3 371 323 325
3 373 371 325
3 373 325 374
3 325 326 374
3 374 326 375
3 326 327 375
3 375 327 376
3 327 328 376
3 376 328 377
3 328 329 377
3 377 329 378
3 329 330 378
3 378 330 379
3 330 331 379
3 379 331 380
3 331 332 380
3 380 332 381
3 332 333 381
3 381 333 382
3 333 334 382
3 382 334 383
3 334 335 383
3 383 335 324
3 372 383 324
3 337 338 384
3 339 337 384
3 385 339 384
3 340 339 385
3 386 340 385
3 340 386 342
3 344 345 387
3 387 389 388
3 344 387 388
3 344 388 384
3 344 384 338
3 384 390 385
3 388 390 384
3 385 391 386
3 390 391 385
3 386 346 342
3 386 391 346
3 391 392 346
3 394 393 347
3 394 347 392
3 392 347 346
3 347 393 348
3 349 350 395
3 395 397 396
3 349 395 396
3 349 396 387
3 349 387 345
3 387 396 389
3 394 398 393
3 393 398 399
3 393 399 348
3 348 399 352
3 353 354 400
3 400 402 401
3 353 400 401
3 353 401 395
3 353 395 350
3 395 401 397
3 355 404 403
3 355 352 404
3 352 399 404
3 355 403 356
3 405 400 354
3 405 354 406
3 406 354 357
3 400 405 402
3 404 407 403
3 403 407 408
3 403 408 356
3 356 408 359
3 406 357 409
3 409 357 361
3 362 411 410
3 362 359 411
3 359 408 411
3 362 410 363
3 364 365 412
3 412 361 364
3 412 413 361
3 413 409 361
3 415 410 411
3 414 410 415
3 410 414 366
3 363 410 366
3 416 412 365
3 367 416 365
3 413 416 417
3 412 416 413
3 419 414 415
3 418 414 419
3 414 418 368
3 366 414 368
3 420 416 367
3 369 420 367
3 417 420 421
3 416 420 417
3 423 418 419
3 422 418 423
3 418 422 370
3 368 418 370
3 424 420 369
3 371 424 369
3 421 424 425
3 420 424 421
3 427 422 423
3 426 422 427
3 422 426 372
3 370 422 372
3 424 371 373
3 425 424 373
3 425 373 428
3 428 373 374
3 428 374 429
3 374 375 429
3 429 375 430
3 375 376 430
3 430 376 431
3 376 377 431
3 431 377 432
3 377 378 432
3 432 378 433
3 378 379 433
3 433 379 434
3 379 380 434
3 434 380 435
3 380 381 435
3 435 381 436
3 381 382 436
3 426 427 436
3 426 436 383
3 383 436 382
3 426 383 372
3 388 389 437
3 390 388 437
3 438 390 437
3 391 390 438
3 439 391 438
3 392 391 439
3 440 392 439
3 392 440 394
3 396 397 441
3 441 443 442
3 396 441 442
3 396 442 437
3 396 437 389
3 437 444 438
3 442 444 437
3 438 445 439
3 444 445 438
3 447 439 445
3 447 446 439
3 446 440 439
3 398 394 440
3 398 440 448
3 448 440 446
3 398 448 399
3 401 402 449
3 449 451 450
3 401 449 450
3 401 450 441
3 401 441 397
3 441 450 443
3 447 452 446
3 454 446 452
3 454 453 446
3 453 448 446
3 448 453 404
3 399 448 404
3 405 406 455
3 455 457 456
3 405 455 456
3 405 456 449
3 405 449 402
3 449 456 451
3 454 458 453
3 460 459 407
3 458 460 407
3 458 407 404
3 458 404 453
3 407 459 408
3 461 455 406
3 409 461 406
3 457 461 462
3 455 461 457
3 464 459 460
3 463 459 464
3 459 463 411
3 408 459 411
3 465 461 409
3 413 465 409
3 462 465 466
3 461 465 462
3 464 467 463
3 463 467 468
3 463 468 411
3 411 468 415
3 469 465 413
3 469 413 470
3 470 413 417
3 465 469 466
3 468 471 415
3 471 419 415
3 470 417 472
3 472 417 421
3 471 473 419
3 473 423 419
3 474 475 472
3 474 472 425
3 425 472 421
3 475 474 476
3 473 477 423
3 477 427 423
3 474 425 428
3 476 474 428
3 476 428 478
3 478 428 429
3 478 429 479
3 429 430 479
3 479 430 480
3 430 431 480
3 480 431 481
3 431 432 481
3 481 432 482
3 432 433 482
3 482 433 483
3 433 434 483
3 483 434 484
3 434 435 484
3 484 435 485
3 435 436 485
3 485 436 427
3 477 485 427
3 442 443 486
3 444 442 486
3 487 444 486
3 445 444 487
3 488 445 487
3 445 488 447
3 450 451 489
3 443 450 489
3 443 489 486
3 486 489 490
3 486 490 487
3 487 490 491
3 487 491 488
3 488 491 492
3 452 447 488
3 452 488 493
3 493 488 492
3 452 493 454
3 456 457 494
3 451 456 494
3 451 494 489
3 489 494 495
3 496 495 497
3 496 490 495
3 490 489 495
3 490 498 491
3 496 498 490
3 491 499 492
3 498 499 491
3 501 492 499
3 501 500 492
3 500 493 492
3 458 454 493
3 458 493 502
3 502 493 500
3 458 502 460
3 503 494 457
3 462 503 457
3 504 503 505
3 504 495 503
3 495 494 503
3 495 504 497
3 501 506 500
3 508 500 506
3 508 507 500
3 507 502 500
3 502 507 464
3 460 502 464
3 509 503 462
3 466 509 462
3 505 509 510
3 503 509 505
3 512 507 508
3 511 507 512
3 467 464 507
3 467 507 513
3 513 507 511
3 467 513 468
3 469 470 514
3 466 469 514
3 466 514 509
3 509 514 515
3 510 515 516
3 509 515 510
3 512 517 511
3 519 511 517
3 519 518 511
3 518 513 511
3 513 518 471
3 468 513 471
3 520 514 470
3 472 520 470
3 514 520 515
3 515 520 521
3 516 521 522
3 515 521 516
3 524 518 519
3 523 518 524
3 518 523 473
3 471 518 473
3 520 472 475
3 475 476 525
3 475 525 520
3 520 525 521
3 522 525 526
3 521 525 522
3 529 527 528
3 528 523 524
3 528 527 523
3 527 530 523
3 523 530 477
3 473 523 477
3 525 476 478
3 526 525 478
3 526 478 531
3 531 478 479
3 531 479 532
3 479 480 532
3 532 480 533
3 480 481 533
3 533 481 534
3 481 482 534
3 534 482 535
3 482 483 535
3 527 529 535
3 527 535 484
3 484 535 483
3 530 527 484
3 485 530 484
3 530 485 477
3 496 497 536
3 498 496 536
3 537 498 536
3 499 498 537
3 538 499 537
3 499 538 501
3 504 505 539
3 497 504 539
3 497 539 536
3 536 539 540
3 536 540 537
3 537 540 541
3 537 541 538
3 538 541 542
3 506 501 538
3 506 538 543
3 543 538 542
3 506 543 508
3 544 539 505
3 510 544 505
3 539 544 540
3 540 544 545
3 540 545 541
3 541 545 546
3 541 546 542
3 542 546 547
3 542 547 543
3 543 547 548
3 543 548 512
3 508 543 512
3 549 544 510
3 516 549 510
3 544 549 545
3 545 549 550
3 545 550 546
3 546 550 551
3 546 551 547
3 547 551 552
3 547 552 548
3 548 552 553
3 517 512 548
3 517 548 554
3 554 548 553
3 517 554 519
3 555 549 516
3 522 555 516
3 549 555 550
3 550 555 556
3 550 556 551
3 551 556 557
3 551 557 552
3 552 557 558
3 552 558 553
3 553 558 559
3 553 559 554
3 554 559 560
3 554 560 524
3 519 554 524
3 561 555 522
3 526 561 522
3 555 561 556
3 556 561 562
3 556 562 557
3 557 562 563
3 557 563 558
3 558 563 564
3 558 564 559
3 559 564 565
3 529 528 560
3 529 560 565
3 565 560 559
3 560 528 524
3 561 526 531
3 562 561 531
3 532 562 531
3 563 562 532
3 533 563 532
3 564 563 533
3 534 564 533
3 565 564 534
3 535 565 534
3 565 535 529
