ply
format ascii 1.0
element vertex 292
property float x
property float y
property float z
property uchar red
property uchar green
property uchar blue
element face 576
property list uchar int vertex_indices
end_header
-9.32999420166015625 5 -2 39 25 40
-9 4.8498225212097168 -2 51 35 41
-9 5 -2.21601271629333496 32 20 21
-9.63610553741455078 5 -1 30 31 48
-9 4.45744895935058594 -1 58 41 60
-9.63762378692626953 5 0 32 38 50
-9 4.45378875732421875 0 57 43 62
-9.34540748596191406 5 1 35 30 47
-9 4.83903217315673828 1 58 41 54
-9 5 1.23401153087615967 53 35 44
-9.64275550842285156 6 -3 20 12 12
-9 5.49837541580200195 -3 32 20 21
-9 6 -3.65919589996337891 6 5 8
-9.79849815368652344 6 -2 34 20 33
-9.83747291564941406 6 -1 26 25 42
-9.83776187896728516 6 0 27 30 45
-9.79984664916992188 6 1 31 25 41
-9.64994716644287109 6 2 32 20 27
-9 5.48193359375 2 44 29 30
-9 6 2.68681573867797852 38 24 24
-9.34881591796875 7 -9 63 85 100
-9 6.87357616424560547 -9 92 58 64
-9 7 -9.34881591796875 111 73 89
-9 7 -8.76019954681396484 96 60 74
-9.29549694061279297 7 -5 13 14 23
-9 6.89708280563354492 -5 10 12 7
-9 7 -5.21419000625610352 25 39 22
-9.74894618988037109 7 -4 3 1 2
-9 6.23769283294677734 -4 6 5 8
-9.84733867645263672 7 -3 14 8 8
-9.88349533081054688 7 -2 28 15 27
-9.89691162109375 7 -1 22 20 36
-9.89702129364013672 7 0 22 24 39
-9.88392162322998047 7 1 26 20 35
-9.84859466552734375 7 2 26 15 22
-9.75383663177490234 7 3 13 8 8
-9 6.21658992767333984 3 25 16 19
-9.34422969818115234 7 4 2 1 1
-9 6.87102317810058594 4 6 6 9
-9 7 4.27177190780639648 2 2 3
-9.42345619201660156 7 8 47 63 56
-9 6.82620429992675781 8 43 54 40
-9 7 7.67384910583496094 45 43 31
-9 7 8.42345619201660156 59 59 43
-9.83147525787353516 8 -9 66 103 77
-9 8 -9.83147525787353516 114 76 114
-9.73554611206054688 8 -8 57 87 52
-9 7.37908792495727539 -8 79 47 72
-9.67847919464111328 8 -7 69 52 39
-9 7.52782154083251953 -7 36 34 60
-9.7396697998046875 8 -6 31 49 27
-9 7.35132122039794922 -6 25 39 22
-9.82304286956787109 8 -5 18 15 29
-9.87552738189697266 8 -4 8 4 5
-9.90404319763183594 8 -3 9 4 5
-9.91876792907714844 8 -2 22 11 22
-9.92508029937744141 8 -1 16 16 31
-9.92513370513916016 8 0 17 22 33
-9.91896152496337891 8 1 19 16 29
-9.90450859069824219 8 2 21 11 18
-9.87666702270507812 8 3 8 4 4
-9.82609462738037109 8 4 7 4 4
-9.74784755706787109 8 5 23 14 23
-9 7.32169008255004883 5 8 13 8
-9.69315719604492188 8 6 25 26 39
-9 7.49349880218505859 6 30 22 19
-9.74692249298095703 8 7 37 47 54
-9 7.33956766128540039 7 45 43 31
-9.83660793304443359 8 8 50 56 67
-9 8 8.83660793304443359 63 46 46
-9 8.83147525787353516 -9 100 61 94
-9 8.73554611206054688 -8 75 48 83
-9 8.67847919464111328 -7 36 47 65
-9 8.7396697998046875 -6 35 45 24
-9 8.82304286956787109 -5 18 23 12
-9 8.87552738189697266 -4 2 1 3
-9 8.90404319763183594 -3 14 7 9
-9 8.91876792907714844 -2 28 15 15
-9 8.92508029937744141 -1 36 19 26
-9 8.92513370513916016 0 38 21 30
-9 8.91896152496337891 1 35 19 23
-9 8.90450859069824219 2 26 14 14
-9 8.87666702270507812 3 13 7 9
-9 8.82609462738037109 4 1 1 2
-9 8.74784755706787109 5 11 19 15
-9 8.69315719604492188 6 35 33 22
-9 8.74692249298095703 7 50 34 34
-9 8.83660793304443359 8 63 46 46
-8.90863990783691406 5 -2 46 30 33
-8.67012500762939453 5 -1 54 35 50
-8.66790008544921875 5 0 56 37 55
-8.90207672119140625 5 1 53 35 44
-8.66262722015380859 6 -3 26 16 17
-8.23287200927734375 6 -2 40 24 26
-8 5.97755718231201172 -1 59 40 43
-8 6 -1.06347072124481201 44 28 29
-8 5.97430992126464844 0 61 42 47
-8.22602462768554688 6 1 47 29 36
-8 6 0.0740352794528007507 55 36 37
-8.65157318115234375 6 2 38 24 24
-8.90516281127929688 7 -9 96 60 74
-8.92376422882080078 7 -5 15 18 10
-8.43663311004638672 7 -4 1 1 2
-8 6.88365650177001953 -3 31 19 31
-8 7 -3.16751861572265625 4 6 4
-8 6.31067371368408203 -2 44 28 29
-8 6.30153703689575195 1 51 34 34
-8 6.86890649795532227 2 43 28 32
-8.42104625701904297 7 3 19 11 14
-8 7 2.19042396545410156 36 22 29
-8.90446281433105469 7 4 2 2 3
-8.86963081359863281 7 8 59 59 43
-8.07943534851074219 8 -9 100 61 94
-8.49259281158447266 8 -8 75 48 83
-8.61564826965332031 8 -7 36 47 65
-8.47385406494140625 8 -6 35 45 24
-8.11126899719238281 8 -5 18 23 12
-8 7.53478527069091797 -4 4 6 4
-8 8 -4.77548456192016602 17 19 10
-8 7.51568937301635742 3 16 14 23
-8.09097576141357422 8 4 1 1 2
-8 8 3.81479907035827637 11 10 17
-8.44983005523681641 8 5 11 19 15
-8.58771800994873047 8 6 35 33 22
-8.46030998229980469 8 7 50 34 34
-8.04197883605957031 8 8 63 46 46
-8 8.66792011260986328 -4 0 0 0
-8 8.82181358337402344 -3 14 10 18
-8 8.86968231201171875 -2 32 18 22
-8 8.88645553588867188 -1 40 22 23
-8 8.88659000396728516 0 43 24 24
-8 8.8702239990234375 1 39 22 23
-8 8.82354831695556641 2 30 17 24
-8 8.67654132843017578 3 11 10 17
-7.98282337188720703 6 -1 53 34 35
-7.98033857345581055 6 0 55 36 37
-7.90223407745361328 7 -3 21 14 25
-7.42137050628662109 7 -2 38 23 26
-7.14304447174072266 7 -1 47 28 28
-7.14044189453125 7 0 49 30 30
-7.41370296478271484 7 1 45 28 28
-7.88984012603759766 7 2 36 22 29
-7.57281303405761719 8 -4 0 0 0
-7 7.97994327545166016 -3 17 26 28
-7 8 -3.03155660629272461 3 2 2
-7 7.4580836296081543 -2 41 26 42
-7 7.15557670593261719 -1 50 31 38
-7 7.15274524688720703 0 52 33 38
-7 7.44974708557128906 1 49 31 41
-7 7.96647882461547852 2 31 26 40
-7.55527973175048828 8 3 11 10 17
-7 8 2.0532076358795166 21 20 33
-7 8.08078098297119141 -3 12 22 18
-7 8.69691562652587891 -2 29 20 35
-7 8.77862644195556641 -1 44 25 36
-7 8.77917575836181641 0 46 27 35
-7 8.70003128051757812 1 42 25 39
-7 8.12798118591308594 2 21 20 33
-6.97867441177368164 8 -3 12 22 18
-6.42439508438110352 8 -2 29 20 35
-6.1035304069519043 8 -1 44 25 36
-6.1005244255065918 8 0 46 27 35
-6.41553974151611328 8 1 42 25 39
-6.96435832977294922 8 2 21 20 33
5.98114824295043945 8 -2 21 21 19
6 7.98395633697509766 -2 28 28 28
6 8 -2.03230619430541992 45 47 47
5.65246868133544922 8 -1 12 13 12
6 7.70432567596435547 -1 20 20 19
5.64934444427490234 8 0 10 10 10
6 7.70166826248168945 0 17 17 17
5.97193813323974609 8 1 13 14 13
6 7.97611808776855469 1 21 21 20
6 8 1.04861569404602051 26 26 26
6 8.06754970550537109 -2 34 33 32
6 8.56738853454589844 -1 25 25 24
6 8.56954574584960938 0 23 23 22
6 8.09729862213134766 1 26 26 26
6.9806666374206543 7 -2 28 28 28
7 6.97890949249267578 -2 35 36 33
7 7 -2.03909015655517578 52 53 55
6.70206022262573242 7 -1 20 20 19
7 6.67503070831298828 -1 28 26 25
6.69941091537475586 7 0 17 17 17
7 6.67214059829711914 0 25 24 23
6.9728546142578125 7 1 21 21 20
7 6.97038793563842773 1 29 27 26
7 7 1.05548584461212158 34 34 32
6.48455429077148438 8 -3 45 47 47
7 7.48261213302612305 -3 52 53 55
7 8 -3.8797767162322998 76 74 75
6.47138833999633789 8 2 35 35 35
7 7.46939659118652344 2 40 43 41
7 8 2.91048121452331543 46 48 46
7 8.69772911071777344 -3 58 59 60
7 8.81491374969482422 -2 46 46 46
7 8.84754180908203125 -1 38 38 38
7 8.8477935791015625 0 36 35 35
7 8.81604480743408203 1 39 39 38
7 8.70285701751708984 2 46 48 46
7.78571414947509766 6 -2 35 36 33
8 5.70446491241455078 -2 38 45 41
8 6 -2.50269794464111328 59 55 63
7.54197931289672852 6 -1 28 26 25
8 5.36833000183105469 -1 37 37 31
7.53965997695922852 6 0 25 24 23
8 5.36512994766235352 0 34 33 29
7.77887821197509766 6 1 29 27 26
8 5.69503450393676758 1 34 38 31
8 6 1.52443158626556396 38 43 37
7.92926692962646484 7 -4 71 68 69
8 6.91089248657226562 -4 80 69 71
8 7 -4.14771938323974609 101 89 91
7.4201197624206543 7 -3 52 53 55
8 6.26958179473876953 -3 59 55 63
7.40861797332763672 7 2 40 43 41
8 6.25508737564086914 2 44 49 52
7.91378450393676758 7 3 52 50 56
8 6.89138650894165039 3 64 53 64
8 7 3.18178534507751465 66 58 69
7.39586114883422852 8 -9 126 154 139
8 7.29900074005126953 -9 134 159 115
8 8 -9.76661872863769531 109 118 170
7.83738088607788086 8 -8 124 142 137
8 7.81147336959838867 -8 121 148 115
7.99115514755249023 8 -7 117 119 127
8 7.98975324630737305 -7 110 134 133
7.88019609451293945 8 -6 111 105 110
8 7.86126565933227539 -6 111 101 118
7.54691123962402344 8 -5 94 90 90
8 7.47545719146728516 -5 101 89 91
7.06197977066040039 8 -4 76 74 75
7.04574966430664062 8 3 56 56 60
7.52688837051391602 8 4 75 67 72
8 7.4522709846496582 4 83 67 71
7.85646486282348633 8 5 89 78 78
8 7.83378219604492188 5 97 76 76
7.96356868743896484 8 6 103 85 86
8 7.95779180526733398 6 110 81 88
7.80553245544433594 8 7 115 89 92
8 7.77454662322998047 7 122 83 98
7.35896635055541992 8 8 125 89 91
8 7.25617599487304688 8 132 81 93
8 8 8.77658653259277344 134 81 81
8 8.76661872863769531 -9 115 158 161
8 8.47475528717041016 -8 116 146 150
8 8.04689693450927734 -7 112 113 137
8 8.39586257934570312 -6 122 104 119
8 8.70602130889892578 -5 105 93 93
8 8.82680606842041016 -4 88 79 83
8 8.87782192230224609 -3 66 66 72
8 8.90106487274169922 -2 54 60 55
8 8.91045761108398438 -1 52 51 47
8 8.9105377197265625 0 50 47 45
8 8.90136432647705078 1 52 53 47
8 8.87860679626464844 2 54 61 58
8 8.82908535003662109 3 65 62 73
8 8.71462917327880859 4 87 71 80
8 8.43938255310058594 5 100 79 80
8 8.16825008392333984 6 113 83 84
8 8.51887035369873047 7 125 84 86
8 8.77658653259277344 8 134 81 81
8.52579116821289062 6 -2 44 50 48
8.69946956634521484 6 -1 41 42 37
8.70049762725830078 6 0 40 39 34
8.53349971771240234 6 1 38 43 37
8.27394199371337891 7 -4 84 74 76
8.74823284149169922 7 -3 64 61 68
8.83452415466308594 7 -2 49 55 53
8.86084938049316406 7 -1 46 47 42
8.86105728149414062 7 0 45 44 40
8.83541965484619141 7 1 44 48 42
8.75176715850830078 7 2 49 56 57
8.314788818359375 7 3 66 58 69
8.76661872863769531 8 -9 115 158 161
8.47475528717041016 8 -8 116 146 150
8.04689693450927734 8 -7 112 113 137
8.39586257934570312 8 -6 122 104 119
8.70602130889892578 8 -5 105 93 93
8.82680606842041016 8 -4 88 79 83
8.87782192230224609 8 -3 66 66 72
8.90106487274169922 8 -2 54 60 55
8.91045761108398438 8 -1 52 51 47
8.9105377197265625 8 0 50 47 45
8.90136432647705078 8 1 52 53 47
8.87860679626464844 8 2 54 61 58
8.82908535003662109 8 3 65 62 73
8.71462917327880859 8 4 87 71 80
8.43938255310058594 8 5 100 79 80
8.16825008392333984 8 6 113 83 84
8.51887035369873047 8 7 125 84 86
8.77658653259277344 8 8 134 81 81
3 2 1 0
3 1 4 3
3 0 1 3
3 4 6 5
3 3 4 5
3 6 8 7
3 5 6 7
3 8 9 7
3 12 11 10
3 11 2 0
3 11 0 10
3 10 0 13
3 0 3 13
3 3 14 13
3 3 5 14
3 5 15 14
3 5 7 15
3 7 16 15
3 9 18 17
3 9 17 7
3 7 17 16
3 18 19 17
3 22 21 20
3 21 23 20
3 26 25 24
3 25 28 27
3 24 25 27
3 28 12 10
3 28 10 27
3 27 10 29
3 10 13 29
3 13 30 29
3 13 14 30
3 14 31 30
3 14 15 31
3 15 32 31
3 15 16 32
3 16 33 32
3 16 17 33
3 17 34 33
3 19 36 35
3 19 35 17
3 17 35 34
3 36 38 37
3 35 36 37
3 38 39 37
3 42 41 40
3 41 43 40
3 45 22 20
3 44 45 20
3 23 47 46
3 23 46 20
3 20 46 44
3 47 49 48
3 46 47 48
3 49 51 50
3 48 49 50
3 51 26 24
3 51 24 50
3 50 24 52
3 24 27 52
3 27 53 52
3 27 29 53
3 29 54 53
3 29 30 54
3 30 55 54
3 30 31 55
3 31 56 55
3 31 32 56
3 32 57 56
3 32 33 57
3 33 58 57
3 33 34 58
3 34 59 58
3 34 35 59
3 35 60 59
3 35 37 60
3 37 61 60
3 39 63 62
3 39 62 37
3 37 62 61
3 63 65 64
3 62 63 64
3 65 67 66
3 64 65 66
3 67 42 40
3 67 40 66
3 66 40 68
3 43 69 68
3 40 43 68
3 45 44 70
3 44 46 71
3 70 44 71
3 46 48 72
3 71 46 72
3 48 50 73
3 72 48 73
3 50 52 74
3 73 50 74
3 52 53 75
3 74 52 75
3 53 54 76
3 75 53 76
3 54 55 77
3 76 54 77
3 55 56 78
3 77 55 78
3 56 57 79
3 78 56 79
3 57 58 80
3 79 57 80
3 58 59 81
3 80 58 81
3 59 60 82
3 81 59 82
3 60 61 83
3 82 60 83
3 61 62 84
3 83 61 84
3 62 64 85
3 84 62 85
3 64 66 86
3 85 64 86
3 66 68 87
3 86 66 87
3 68 69 87
3 1 2 88
3 4 1 88
3 89 4 88
3 6 4 89
3 90 6 89
3 8 6 90
3 91 8 90
3 8 91 9
3 11 12 92
3 2 11 92
3 2 92 88
3 88 92 93
3 94 93 95
3 94 89 93
3 89 88 93
3 89 96 90
3 94 96 89
3 98 90 96
3 98 97 90
3 97 91 90
3 18 9 91
3 18 91 99
3 99 91 97
3 18 99 19
3 21 22 100
3 21 100 23
3 25 26 101
3 28 25 101
3 102 28 101
3 102 104 103
3 28 102 103
3 28 103 92
3 28 92 12
3 92 105 93
3 103 105 92
3 93 105 95
3 98 106 97
3 97 107 99
3 106 107 97
3 109 108 36
3 107 109 36
3 107 36 19
3 107 19 99
3 38 36 108
3 110 38 108
3 38 110 39
3 41 42 111
3 41 111 43
3 112 100 22
3 45 112 22
3 47 23 100
3 47 100 113
3 113 100 112
3 49 47 113
3 114 49 113
3 51 49 114
3 115 51 114
3 26 51 115
3 26 115 101
3 101 115 116
3 117 116 118
3 117 102 116
3 102 101 116
3 102 117 104
3 109 119 108
3 121 108 119
3 121 120 108
3 120 110 108
3 63 39 110
3 63 110 122
3 122 110 120
3 65 63 122
3 123 65 122
3 67 65 123
3 124 67 123
3 42 67 124
3 42 124 111
3 111 124 125
3 111 125 69
3 43 111 69
3 112 45 70
3 113 112 70
3 71 113 70
3 114 113 71
3 72 114 71
3 115 114 72
3 73 115 72
3 116 115 73
3 74 116 73
3 118 116 74
3 118 74 126
3 126 74 75
3 126 75 127
3 75 76 127
3 127 76 128
3 76 77 128
3 128 77 129
3 77 78 129
3 129 78 130
3 78 79 130
3 130 79 131
3 79 80 131
3 131 80 132
3 80 81 132
3 132 81 133
3 81 82 133
3 120 121 133
3 120 133 83
3 83 133 82
3 122 120 83
3 84 122 83
3 123 122 84
3 85 123 84
3 124 123 85
3 86 124 85
3 125 124 86
3 87 125 86
3 125 87 69
3 94 95 134
3 96 94 134
3 135 96 134
3 96 135 98
3 103 104 136
3 105 103 136
3 137 105 136
3 95 105 137
3 95 137 134
3 134 137 138
3 134 138 135
3 135 138 139
3 106 98 135
3 106 135 140
3 140 135 139
3 107 106 140
3 141 107 140
3 107 141 109
3 117 118 142
3 142 144 143
3 117 142 143
3 117 143 136
3 117 136 104
3 136 145 137
3 143 145 136
3 137 146 138
3 145 146 137
3 138 147 139
3 146 147 138
3 139 148 140
3 147 148 139
3 140 149 141
3 148 149 140
3 151 150 119
3 149 151 119
3 149 119 109
3 149 109 141
3 119 150 121
3 142 118 126
3 144 142 126
3 144 126 152
3 152 126 127
3 152 127 153
3 127 128 153
3 153 128 154
3 128 129 154
3 154 129 155
3 129 130 155
3 155 130 156
3 130 131 156
3 156 131 157
3 131 132 157
3 150 151 157
3 150 157 133
3 133 157 132
3 150 133 121
3 143 144 158
3 145 143 158
3 159 145 158
3 146 145 159
3 160 146 159
3 147 146 160
3 161 147 160
3 148 147 161
3 162 148 161
3 149 148 162
3 163 149 162
3 149 163 151
3 158 144 152
3 159 158 152
3 153 159 152
3 160 159 153
3 154 160 153
3 161 160 154
3 155 161 154
3 162 161 155
3 156 162 155
3 163 162 156
3 157 163 156
3 163 157 151
3 166 165 164
3 165 168 167
3 164 165 167
3 168 170 169
3 167 168 169
3 170 172 171
3 169 170 171
3 172 173 171
3 166 164 174
3 164 167 175
3 174 164 175
3 167 169 176
3 175 167 176
3 169 171 177
3 176 169 177
3 171 173 177
3 180 179 178
3 179 182 181
3 178 179 181
3 182 184 183
3 181 182 183
3 184 186 185
3 183 184 185
3 186 187 185
3 190 189 188
3 178 165 166
3 180 178 166
3 180 166 188
3 180 188 189
3 181 165 178
3 168 165 181
3 183 168 181
3 170 168 183
3 185 170 183
3 172 170 185
3 172 191 173
3 185 191 172
3 185 192 191
3 185 187 192
3 192 193 191
3 190 188 194
3 188 166 174
3 188 174 194
3 194 174 195
3 195 174 196
3 174 175 196
3 196 175 197
3 175 176 197
3 197 176 198
3 176 177 198
3 173 191 199
3 173 199 177
3 177 199 198
3 191 193 199
3 202 201 200
3 201 204 203
3 200 201 203
3 204 206 205
3 203 204 205
3 206 208 207
3 205 206 207
3 208 209 207
3 212 211 210
3 211 214 213
3 210 211 213
3 200 179 180
3 202 200 180
3 202 180 213
3 202 213 214
3 203 179 200
3 182 179 203
3 205 182 203
3 184 182 205
3 207 184 205
3 186 184 207
3 186 215 187
3 207 215 186
3 207 216 215
3 207 209 216
3 216 218 217
3 215 216 217
3 218 219 217
3 222 221 220
3 221 224 223
3 220 221 223
3 224 226 225
3 223 224 225
3 226 228 227
3 225 226 227
3 228 230 229
3 227 228 229
3 230 212 210
3 230 210 229
3 229 210 231
3 190 213 189
3 190 231 213
3 231 210 213
3 213 180 189
3 215 192 187
3 192 232 193
3 192 215 232
3 215 217 232
3 219 234 233
3 219 233 217
3 217 233 232
3 234 236 235
3 233 234 235
3 236 238 237
3 235 236 237
3 238 240 239
3 237 238 239
3 240 242 241
3 239 240 241
3 242 243 241
3 222 220 244
3 220 223 245
3 244 220 245
3 223 225 246
3 245 223 246
3 225 227 247
3 246 225 247
3 227 229 248
3 247 227 248
3 229 231 249
3 248 229 249
3 231 190 194
3 231 194 249
3 249 194 250
3 250 194 251
3 194 195 251
3 251 195 252
3 195 196 252
3 252 196 253
3 196 197 253
3 253 197 254
3 197 198 254
3 254 198 255
3 198 199 255
3 193 232 256
3 193 256 199
3 199 256 255
3 232 233 257
3 256 232 257
3 233 235 258
3 257 233 258
3 235 237 259
3 258 235 259
3 237 239 260
3 259 237 260
3 239 241 261
3 260 239 261
3 241 243 261
3 201 202 262
3 204 201 262
3 263 204 262
3 206 204 263
3 264 206 263
3 208 206 264
3 265 208 264
3 208 265 209
3 211 212 266
3 214 211 266
3 267 214 266
3 202 214 267
3 202 267 262
3 262 267 268
3 262 268 263
3 263 268 269
3 263 269 264
3 264 269 270
3 264 270 265
3 265 270 271
3 216 209 265
3 216 265 272
3 272 265 271
3 218 216 272
3 273 218 272
3 218 273 219
3 221 222 274
3 224 221 274
3 275 224 274
3 226 224 275
3 276 226 275
3 228 226 276
3 277 228 276
3 230 228 277
3 278 230 277
3 212 230 278
3 212 278 266
3 266 278 279
3 266 279 267
3 267 279 280
3 267 280 268
3 268 280 281
3 268 281 269
3 269 281 282
3 269 282 270
3 270 282 283
3 270 283 271
3 271 283 284
3 271 284 272
3 272 284 285
3 272 285 273
3 273 285 286
3 234 219 273
3 234 273 287
3 287 273 286
3 236 234 287
3 288 236 287
3 238 236 288
3 289 238 288
3 240 238 289
3 290 240 289
3 242 240 290
3 291 242 290
3 242 291 243
3 274 222 244
3 275 274 244
3 245 275 244
3 276 275 245
3 246 276 245
3 277 276 246
3 247 277 246
3 278 277 247
3 248 278 247
3 279 278 248
3 249 279 248
3 280 279 249
3 250 280 249
3 281 280 250
3 251 281 250
3 282 281 251
3 252 282 251
3 283 282 252
3 253 283 252
3 284 283 253
3 254 284 253
3 285 284 254
3 255 285 254
3 286 285 255
3 256 286 255
3 287 286 256
3 257 287 256
3 288 287 257
3 258 288 257
3 289 288 258
3 259 289 258
3 290 289 259
3 260 290 259
3 291 290 260
3 261 291 260
3 291 261 243
