ply
format ascii 1.0
element vertex 632
property float x
property float y
property float z
property uchar red
property uchar green
property uchar blue
element face 1232
property list uchar int vertex_indices
end_header
-6.00766372680664062 8 -9 4 7 0
-6 7.93817377090454102 -9 2 5 0
-6 8 -9.07937335968017578 2 4 0
-6 8 -8.976654052734375 0 5 0
-6.01157808303833008 8 8 4 1 1
-6 7.90694189071655273 8 2 1 1
-6 8 7.96472883224487305 3 2 2
-6 8 8.1151885986328125 2 1 1
-6 8.07937335968017578 -9 0 5 0
-6 8.1151885986328125 8 2 1 1
-5.08635711669921875 -3 -9 5 8 7
-5 -3.41801357269287109 -9 2 5 2
-5 -3 -9.49450874328613281 2 4 5
-5 -3 -8.73199558258056641 3 5 2
-5.08521556854248047 -3 8 5 3 3
-5 -3.41155385971069336 8 1 0 0
-5 -3 7.73554182052612305 0 1 0
-5 -3 8.49122142791748047 0 0 0
-5.34225177764892578 -2 -9 6 8 7
-5 -2 -9.78046894073486328 2 4 4
-5.00306797027587891 -2 -8 9 7 6
-5 -2.01232004165649414 -8 4 2 1
-5 -2 -7.98932075500488281 3 2 1
-5.00235271453857422 -2 7 5 5 4
-5 -2.00942897796630859 7 0 1 0
-5 -2 6.99181079864501953 0 1 1
-5.34150600433349609 -2 8 5 5 4
-5 -2 8.78011226654052734 0 0 0
-5.67244672775268555 -1 -9 6 8 6
-5 -1 -9.86359977722167969 1 3 2
-5.29919815063476562 -1 -8 8 7 6
-5 -1 -7.01458215713500977 3 2 1
-5.29893684387207031 -1 7 5 5 5
-5 -1 6.01544570922851562 0 1 1
-5.67217254638671875 -1 8 5 5 4
-5 -1 8.863555908203125 0 0 0
-5.79993581771850586 0 -9 6 8 6
-5 0 -9.87489700317382812 1 3 1
-5.39794158935546875 0 -8 7 5 5
-5.0717158317565918 0 -7 4 7 3
-5 -0.939938962459564209 -7 0 3 2
-5 0 -6.72930145263671875 0 3 2
-5.07198667526245117 0 6 5 5 5
-5 -0.936827361583709717 6 0 1 1
-5 0 5.72827720642089844 1 1 1
-5.39822292327880859 0 7 4 4 4
-5.80023193359375 0 8 4 4 4
-5 0 8.87493324279785156 0 0 0
-5.67358732223510742 1 -9 6 6 4
-5 1 -9.84866237640380859 1 2 0
-5.2511296272277832 1 -8 6 5 4
-5 0.449378848075866699 -7 0 3 2
-5 1 -7.27662849426269531 2 2 1
-5 0.452635765075683594 6 1 0 1
-5.25201797485351562 1 7 3 3 3
-5 1 6.27406597137451172 1 0 1
-5.67451906204223633 1 8 3 3 3
-5 1 8.84882545471191406 0 0 0
-5.57315301895141602 2 -9 5 4 3
-5 2 -9.81789970397949219 1 1 0
-5.1239466667175293 2 -8 5 5 3
-5 2 -7.66956758499145508 2 2 1
-5.12552213668823242 2 7 2 2 3
-5 2 6.66536474227905273 1 0 1
-5.57480239868164062 2 8 2 2 2
-5 2 8.81830120086669922 0 0 0
-5.50233745574951172 3 -9 5 2 2
-5 3 -9.78538799285888672 1 1 0
-5.01874923706054688 3 -8 5 5 3
-5 3 -7.95409011840820312 1 2 1
-5.02112531661987305 3 7 2 2 2
-5 3 6.9482722282409668 1 1 1
-5.5048222541809082 3 8 1 1 2
-5 3 8.78617763519287109 0 0 0
-5.46746540069580078 4 -9 4 2 1
-5 4 -9.75744247436523438 1 0 0
-5 3.25359606742858887 -8 1 2 1
-5 4 -8.11883068084716797 2 2 0
-5 3.28839850425720215 7 0 0 0
-5.47095060348510742 4 8 1 1 1
-5 4 7.11225223541259766 0 0 0
-5 4 8.75874805450439453 0 0 0
-5.47880315780639648 5 -9 4 3 1
-5 5 -9.74277114868164062 1 0 0
-5 5 -8.18790817260742188 2 2 0
-5.48352241516113281 5 8 1 1 1
-5 5 7.17989635467529297 0 0 0
-5 5 8.74456882476806641 0 0 0
-5.55300569534301758 6 -9 4 4 1
-5 6 -9.74726295471191406 1 1 0
-5 6 -8.16766357421875 1 2 0
-5.55929899215698242 6 8 2 1 1
-5 6 7.15818500518798828 1 0 0
-5 6 8.74930858612060547 0 0 0
-5.71784782409667969 7 -9 2 5 0
-5 7 -9.76897335052490234 1 1 0
-5 7 -8.05798625946044922 0 2 0
-5.72622394561767578 7 8 2 1 1
-5 7 7.04698848724365234 1 0 0
-5 7 8.77093505859375 0 0 0
-5 8 -9.79990577697753906 0 2 0
-5.12143754959106445 8 -8 1 5 6
-5 7.29126882553100586 -8 1 3 3
-5 8 -7.83928585052490234 0 2 3
-5.13216304779052734 8 7 3 2 2
-5 7.23431015014648438 7 1 0 0
-5 8 6.82508993148803711 2 1 1
-5 8 8.80155658721923828 0 0 0
-5 8.79990577697753906 -9 0 3 1
-5 8.33268642425537109 -8 0 2 3
-5 8.35160541534423828 7 1 0 0
-5 8.80155658721923828 8 0 0 0
-4.05085515975952148 -7 -9 0 2 1
-4 -7.93552589416503906 -9 0 0 0
-4 -7 -9.26294136047363281 0 0 1
-4 -7 -8.90306282043457031 0 1 0
-4.04605770111083984 -7 8 0 0 0
-4 -7.83588647842407227 8 1 2 0
-4 -7 7.91220855712890625 1 0 0
-4 -7 8.24427127838134766 1 1 0
-4.16779756546020508 -6 -9 0 4 2
-4 -6 -9.51212501525878906 0 0 2
-4 -6 -8.71215248107910156 0 2 0
-4.16324758529663086 -6 8 1 1 0
-4 -6 7.71996068954467773 1 1 0
-4 -6 8.50534534454345703 1 0 0
-4.37329483032226562 -5 -9 1 5 2
-4 -5 -9.67156791687011719 0 1 2
-4 -5 -8.43167781829833984 0 2 0
-4.36904335021972656 -5 8 1 0 0
-4 -5 7.43815326690673828 1 1 0
-4 -5 8.66910457611083984 2 1 0
-4.70961618423461914 -4 -9 2 5 2
-4 -4 -9.7689666748046875 0 1 2
-4 -4 -8.05802440643310547 1 1 0
-4.70575332641601562 -4 8 1 0 0
-4 -4 7.06315422058105469 1 2 0
-4 -4 8.76803970336914062 2 2 1
-4 -3 -9.83001613616943359 0 1 1
-4.348602294921875 -3 -8 4 2 1
-4 -3.87459921836853027 -8 1 0 0
-4 -3 -7.53327655792236328 0 0 0
-4.34544658660888672 -3 7 0 1 0
-4 -3.86393404006958008 7 1 2 0
-4 -3 6.53750181198120117 0 1 1
-4 -3 8.82966709136962891 1 2 1
-4 -2 -9.86990451812744141 0 1 0
-4.10100936889648438 -2 -7 0 3 1
-4 -2.17514705657958984 -7 0 0 0
-4 -2 -6.86340808868408203 0 0 0
-4.09874725341796875 -2 6 0 1 1
-4 -2.17076826095581055 6 0 1 1
-4 -2 5.86646699905395508 0 0 0
-4 -2 8.86978530883789062 1 2 1
-4 -1 -9.89705371856689453 0 0 0
-4.9833369255065918 -1 -7 0 3 2
-4.04331350326538086 -1 -6 2 1 2
-4 -1.05088067054748535 -6 0 0 0
-4 -1 -5.94066810607910156 0 0 0
-4.04235935211181641 -1 5 1 1 1
-4 -1.04964518547058105 5 0 0 0
-4 -1 4.94197511672973633 0 0 0
-4.98235034942626953 -1 6 0 1 1
-4 -1 8.89702987670898438 1 2 2
-4 0 -9.89724254608154297 0 0 0
-4.06958246231079102 0 -6 2 1 2
-4 0 -5.93037796020507812 0 0 0
-4.07088947296142578 0 5 1 1 1
-4 0 4.92907047271728516 0 0 0
-4 0 8.89726638793945312 1 1 2
-4 1 -9.87083339691162109 0 0 0
-4.32712984085083008 1 -7 0 2 2
-4 0.0608076155185699463 -6 0 0 0
-4 1 -6.83933401107788086 0 0 0
-4 0.0620954260230064392 5 0 0 0
-4.33336400985717773 1 6 1 0 1
-4 1 5.83627223968505859 0 0 0
-4 1 8.87094974517822266 1 1 2
-4 2 -9.83271026611328125 0 0 0
-4 1.21042537689208984 -7 0 0 0
-4 2 -7.50004911422729492 0 0 0
-4 1.21502184867858887 6 0 0 0
-4 2 6.49581718444824219 0 0 0
-4 2 8.83304691314697266 2 1 2
-4 3 -9.77598285675048828 0 0 0
-4.30416393280029297 3 -8 1 2 1
-4 2.96071910858154297 -8 0 0 0
-4 3 -8.01773452758789062 0 0 0
-4.21597623825073242 3 7 0 0 0
-4 2.97201871871948242 7 1 1 1
-4 3 7.01259326934814453 1 1 1
-4 3 8.77684593200683594 2 1 2
-4 4 -9.68962669372558594 0 0 0
-4 4 -8.38092613220214844 0 0 0
-4 4 7.37443256378173828 1 0 0
-4 4 8.69178867340087891 2 1 1
-4 5 -9.55920028686523438 0 0 0
-4 5 -8.6511077880859375 0 0 0
-4 5 7.64327335357666016 0 0 0
-4 5 8.56457424163818359 1 1 1
-4 6 -9.38155460357666016 0 0 0
-4 6 -8.83178424835205078 0 0 0
-4 6 7.82260417938232422 0 0 0
-4 6 8.39406490325927734 1 0 0
-4 7 -9.21626186370849609 0 0 0
-4 7 -8.92509841918945312 0 1 0
-4 7 7.9145512580871582 0 0 0
-4 7 8.23933219909667969 1 0 0
-4 8 -9.20033740997314453 0 0 0
-4.87324762344360352 8 -8 0 2 3
-4 8 -8.93201828002929688 0 1 1
-4.86205244064331055 8 7 1 0 0
-4 8 7.92006826400756836 0 0 0
-4 8 8.22744083404541016 0 0 0
-4 8.20033740997314453 -9 0 1 1
-4 8.22744083404541016 8 0 0 0
-3.83449578285217285 -9 -9 0 0 0
-3 -9.30911159515380859 -9 0 2 1
-3 -9 -9.30911159515380859 0 0 2
-3 -9 -8.87828159332275391 0 1 0
-3.75239419937133789 -9 8 1 2 1
-3 -9.28756237030029297 8 2 5 2
-3 -9 7.89025497436523438 3 3 2
-3 -9 8.28756237030029297 3 4 2
-3 -8.32567596435546875 -9 0 1 0
-3 -8.38722038269042969 8 3 4 2
-3.61360597610473633 -7 -9 0 1 0
-3.65006685256958008 -7 8 1 1 0
-3.36334753036499023 -6 -9 0 2 0
-3.38062310218811035 -6 8 1 0 0
-3.13270330429077148 -5 -9 0 2 0
-3.14258837699890137 -5 8 2 1 0
-3 -4.48027849197387695 -9 0 0 0
-3 -4 -9.22427845001220703 0 0 0
-3 -4 -8.92150592803955078 0 0 0
-3 -4.44630718231201172 8 3 3 1
-3 -4 7.92642736434936523 1 3 2
-3 -4 8.21325397491455078 2 3 1
-3 -3 -9.54543018341064453 0 0 0
-3.630462646484375 -3 -8 0 0 0
-3 -3 -8.67031097412109375 0 0 0
-3.63380765914916992 -3 7 1 2 1
-3 -3 7.67386817932128906 1 3 3
-3 -3 8.54278182983398438 2 3 2
-3 -2 -9.70660114288330078 0 0 0
-3.2602393627166748 -2 -8 0 0 0
-3 -2 -8.32724761962890625 0 0 0
-3.92598795890808105 -2 -7 0 0 0
-3.92764544486999512 -2 6 1 1 1
-3.26196455955505371 -2 7 1 2 1
-3 -2 7.32941722869873047 2 2 3
-3 -2 8.70595264434814453 2 3 3
-3 -1 -9.79588413238525391 0 0 0
-3 -1.25215554237365723 -8 1 0 0
-3.51230764389038086 -1 -7 0 0 0
-3 -1 -7.87283897399902344 0 0 0
-3.97849893569946289 -1 -6 0 0 0
-3.97897243499755859 -1 5 0 0 0
-3.51279640197753906 -1 6 0 0 1
-3 -1.24966371059417725 7 2 2 3
-3 -1 6.8736729621887207 2 1 2
-3 -1 8.79578208923339844 2 3 3
-3 0 -9.7640533447265625 0 1 0
-3.05178642272949219 0 -8 0 0 0
-3 -0.43145480751991272 -8 0 0 0
-3 0 -8.08472442626953125 1 0 0
-3.56905031204223633 0 -7 0 0 0
-3.9778745174407959 0 -6 0 0 0
-3.97745895385742188 0 5 0 0 0
-3.56862163543701172 0 6 0 0 0
-3.05133891105651855 0 7 1 1 1
-3 -0.430922836065292358 7 2 2 3
-3 0 7.08399248123168945 2 2 2
-3 0 8.764190673828125 2 2 3
-3 1 -9.26634502410888672 1 1 0
-3.49466228485107422 1 -8 0 0 0
-3 1 -8.90134429931640625 1 0 0
-3.94155025482177734 1 -7 0 0 0
-3.94043660163879395 1 6 0 0 0
-3.49350523948669434 1 7 1 1 1
-3 1 7.89923238754272461 2 2 2
-3 1 8.27048397064208984 3 2 3
-3.31557464599609375 2 -9 0 0 0
-3 1.13657653331756592 -9 1 0 0
-3.79947376251220703 2 -8 0 0 0
-3.79777789115905762 2 7 1 1 1
-3.3137965202331543 2 8 2 1 2
-3 1.13978016376495361 8 3 2 3
-3.57567286491394043 3 -9 0 0 0
-3.5734562873840332 3 8 2 1 2
-3.75421142578125 4 -9 0 0 0
-3.75163769721984863 4 8 2 1 1
-3.87176012992858887 5 -9 0 0 0
-3.86888360977172852 5 8 1 1 1
-3.94240117073059082 6 -9 0 0 0
-3.93925976753234863 6 8 1 0 0
-3.97597956657409668 7 -9 0 1 0
-3.97259831428527832 7 8 1 0 0
-3.97948646545410156 8 -9 0 1 1
-3.97588181495666504 8 8 0 0 0
-2.94182133674621582 -9 -9 0 1 0
-2.94754290580749512 -9 8 3 4 2
-2.97462201118469238 -4 -9 0 0 0
-2.97621250152587891 -4 8 2 3 1
-2.89975309371948242 -3 -9 0 0 0
-2.9008331298828125 -3 8 2 3 2
-2.80686450004577637 -2 -9 0 0 0
-2.80748558044433594 -2 8 2 3 3
-2.69736313819885254 -1 -9 0 0 0
-2.97065830230712891 -1 -8 0 0 0
-2.97085070610046387 -1 7 2 2 3
-2.69756340980529785 -1 8 2 3 3
-2.76263737678527832 0 -9 1 0 0
-2.76244831085205078 0 8 2 2 3
-2.97543811798095703 1 -9 1 0 0
-2.97491264343261719 1 8 3 2 3
1.94182074069976807 -9 -9 1 0 4
2 -9.30911350250244141 -9 4 0 2
2 -9 -9.30911350250244141 6 0 0
2 -9 -8.8782806396484375 5 0 5
1.94754242897033691 -9 8 6 4 4
2 -9.28756427764892578 8 5 4 2
2 -9 7.89025402069091797 3 3 2
2 -9 8.28756427764892578 4 3 2
2 -8.3256683349609375 -9 5 0 5
2 -8.38721370697021484 8 4 3 2
1.97462093830108643 -4 -9 0 9 8
2 -4.48029518127441406 -9 2 4 8
2 -4 -9.22428512573242188 1 1 9
2 -4 -8.92150306701660156 2 6 8
1.9762115478515625 -4 8 2 3 2
2 -4.44632387161254883 8 3 3 3
2 -4 7.92642450332641602 2 2 2
2 -4 8.21326065063476562 3 3 3
1.89975190162658691 -3 -9 1 10 5
2 -3 -9.54543304443359375 2 5 9
2 -3 -8.67030811309814453 2 8 7
1.90083193778991699 -3 8 2 3 2
2 -3 7.67386436462402344 3 3 3
2 -3 8.54278469085693359 3 3 3
1.80686306953430176 -2 -9 1 10 2
2 -2 -9.70660209655761719 2 8 9
2 -2 -8.32724380493164062 3 7 5
1.80748414993286133 -2 8 2 3 3
2 -2 7.32941389083862305 3 3 3
2 -2 8.70595359802246094 3 3 3
1.69736170768737793 -1 -9 3 10 1
2 -1 -9.79588413238525391 2 9 7
1.97065722942352295 -1 -8 8 7 1
2 -1.25216472148895264 -8 4 6 3
2 -1 -7.87283420562744141 5 6 3
1.97084951400756836 -1 7 2 2 3
2 -1.24967300891876221 7 3 3 3
2 -1 6.87366819381713867 2 2 2
1.69756186008453369 -1 8 3 3 4
2 -1 8.79578208923339844 3 3 3
1.76263594627380371 0 -9 6 9 1
2 0 -9.76405429840087891 2 8 3
2 -0.431432455778121948 -8 5 6 3
2 0 -8.08471965789794922 4 7 2
2 -0.430900335311889648 7 3 3 3
1.76244688034057617 0 8 2 2 3
2 0 7.08398771286010742 3 3 3
2 0 8.76419162750244141 3 4 4
1.97543692588806152 1 -9 9 8 1
2 1 -9.26635456085205078 2 8 1
2 1 -8.90133953094482422 6 7 2
1.97491157054901123 1 8 3 3 3
2 1 7.89922809600830078 3 3 3
2 1 8.2704925537109375 4 4 4
2 1.13658308982849121 -9 6 7 2
2 1.13978672027587891 8 4 4 4
2.83447790145874023 -9 -9 5 0 5
2.75237894058227539 -9 8 4 3 2
2.61360931396484375 -7 -9 3 1 7
3 -7.93549776077270508 -9 6 2 4
3 -7 -9.26293659210205078 9 1 2
3 -7 -8.90306472778320312 7 2 7
2.65007114410400391 -7 8 3 3 2
3 -7.83585882186889648 8 2 1 1
3 -7 7.91221141815185547 0 0 0
3 -7 8.24426555633544922 1 1 1
2.36334609985351562 -6 -9 1 1 8
3 -6 -9.51212310791015625 9 1 6
3 -6 -8.71215438842773438 6 2 8
2.38062191009521484 -6 8 3 3 2
3 -6 7.71996307373046875 0 0 0
3 -6 8.50534343719482422 1 1 1
2.13269996643066406 -5 -9 2 4 8
3 -5 -9.67156791687011719 9 1 10
3 -5 -8.43167972564697266 4 3 8
2.14258527755737305 -5 8 3 3 3
3 -5 7.43815517425537109 1 1 1
3 -5 8.66910457611083984 1 1 1
3 -4 -9.7689666748046875 5 2 9
3 -4 -8.05802536010742188 3 4 8
3 -4 7.0631556510925293 1 1 1
3 -4 8.76803970336914062 2 2 2
3 -3 -9.83001613616943359 2 2 9
2.6304621696472168 -3 -8 2 6 2
3 -3.87459588050842285 -8 4 6 6
3 -3 -7.53327751159667969 4 6 5
2.63380718231201172 -3 7 3 3 3
3 -3.86393070220947266 7 1 1 1
3 -3 6.53750324249267578 1 1 1
3 -3 8.82966709136962891 2 2 2
3 -2 -9.86990451812744141 2 5 9
2.26023721694946289 -2 -8 4 6 3
2.92598819732666016 -2 -7 4 3 2
3 -2.17514562606811523 -7 3 4 3
3 -2 -6.86340904235839844 4 4 3
2.92764568328857422 -2 6 2 2 2
3 -2.17076683044433594 6 1 1 1
3 -2 5.86646795272827148 1 1 1
2.2619624137878418 -2 7 3 3 3
3 -2 8.86978530883789062 2 2 2
3 -1 -9.89705371856689453 2 8 8
2.51230621337890625 -1 -7 4 3 2
2.97849893569946289 -1 -6 3 3 2
3 -1.0508800745010376 -6 3 3 2
3 -1 -5.94066858291625977 3 3 2
2.9789726734161377 -1 5 2 1 1
3 -1.0496445894241333 5 1 1 1
3 -1 4.94197607040405273 0 0 0
2.51279520988464355 -1 6 2 2 2
3 -1 8.89702987670898438 2 3 2
3 0 -9.89724254608154297 2 8 6
2.05178356170654297 0 -8 6 5 3
2.56904911994934082 0 -7 4 2 2
2.9778745174407959 0 -6 3 3 1
3 0 -5.93037796020507812 3 3 3
2.97745895385742188 0 5 2 1 1
3 0 4.92906999588012695 0 0 0
2.56862044334411621 0 6 2 2 2
2.05133628845214844 0 7 3 3 3
3 0 8.89726638793945312 3 3 3
3 1 -9.87083339691162109 2 7 3
2.49466085433959961 1 -8 5 4 2
2.94154977798461914 1 -7 4 3 2
3 0.0608077347278594971 -6 3 3 3
3 1 -6.83933353424072266 4 3 3
3 0.0620955489575862885 5 0 0 1
2.94043636322021484 1 6 2 2 2
3 1 5.83627176284790039 1 0 1
2.49350380897521973 1 7 3 3 3
3 1 8.87095069885253906 3 3 3
2.31557273864746094 2 -9 6 5 2
3 2 -9.83271026611328125 3 7 2
2.79947280883789062 2 -8 5 2 2
3 1.21042633056640625 -7 4 3 3
3 2 -7.50004816055297852 5 4 3
3 1.21502280235290527 6 1 1 1
2.79777717590332031 2 7 3 3 3
3 2 6.49581623077392578 1 1 1
2.31379461288452148 2 8 4 4 4
3 2 8.83304691314697266 3 3 3
2.57567143440246582 3 -9 6 3 2
3 3 -9.77598381042480469 6 7 1
3 2.96072196960449219 -8 5 4 3
3 3 -8.01773357391357422 6 5 2
3 2.97202157974243164 7 2 2 2
2.57345485687255859 3 8 4 4 4
3 3 7.01259183883666992 2 2 2
3 3 8.77684688568115234 3 3 3
2.75421023368835449 4 -9 7 2 1
3 4 -9.68962764739990234 7 6 1
3 4 -8.38092422485351562 6 3 2
2.75163650512695312 4 8 4 4 4
3 4 7.37443113327026367 2 2 2
3 4 8.69178962707519531 3 3 3
2.87175917625427246 5 -9 7 5 1
3 5 -9.55920219421386719 7 2 0
3 5 -8.65110588073730469 7 3 1
2.86888265609741211 5 8 4 4 4
3 5 7.64327144622802734 2 2 2
3 5 8.5645751953125 3 3 3
2.94240045547485352 6 -9 7 7 0
3 6 -9.38155746459960938 8 2 0
3 6 -8.83178234100341797 7 6 1
2.93925881385803223 6 8 3 3 3
3 6 7.82260227203369141 2 1 2
3 6 8.39406776428222656 3 3 3
2.97597885131835938 7 -9 3 8 0
3 7 -9.21626853942871094 8 6 0
3 7 -8.92509555816650391 5 7 0
2.97259736061096191 7 8 3 3 3
3 7 7.91454887390136719 2 1 1
3 7 8.23933792114257812 3 3 3
2.97948551177978516 8 -9 0 8 0
3 8 -9.20034503936767578 6 9 0
3 8 -8.93201541900634766 0 8 0
2.97588086128234863 8 8 3 3 3
3 8 7.92006492614746094 1 1 1
3 8 8.227447509765625 3 3 3
3 8.20034503936767578 -9 0 8 0
3 8.227447509765625 8 3 3 3
3.05085396766662598 -7 -9 7 2 7
3.04605627059936523 -7 8 1 1 1
3.16779589653015137 -6 -9 6 2 8
3.16324567794799805 -6 8 1 1 1
3.37329244613647461 -5 -9 4 3 8
3.36904120445251465 -5 8 1 1 1
3.70961260795593262 -4 -9 3 4 8
3.7057499885559082 -4 8 2 2 2
4 -3.41800498962402344 -9 5 2 10
4 -3 -9.49450397491455078 6 0 11
3.34859967231750488 -3 -8 4 6 5
4 -3 -8.73200130462646484 2 3 9
3.3454444408416748 -3 7 1 2 1
4 -3.4115452766418457 8 0 0 0
4 -3 7.73554706573486328 0 0 0
4 -3 8.49121665954589844 0 0 0
4 -2 -9.78046798706054688 1 1 10
4 -2.0123131275177002 -8 4 6 8
3.10100817680358887 -2 -7 4 4 3
4 -2 -7.98932695388793945 4 7 7
3.09874606132507324 -2 6 1 1 1
4 -2.00942230224609375 7 0 0 0
4 -2 6.99181652069091797 0 0 0
4 -2 8.78011131286621094 0 0 0
4 -1 -9.86359977722167969 1 4 9
3.98333048820495605 -1 -7 4 4 3
4 -1 -7.0145878791809082 4 7 5
3.04331278800964355 -1 -6 3 3 2
3.0423586368560791 -1 5 0 0 1
3.98234367370605469 -1 6 1 1 1
4 -1 6.01545143127441406 0 0 0
4 -1 8.863555908203125 1 1 0
4 0 -9.87489700317382812 1 7 9
4 -0.939915716648101807 -7 4 6 4
3.06958198547363281 0 -6 3 3 3
4 0 -6.72930765151977539 4 5 4
3.07088875770568848 0 5 0 0 1
4 -0.936804294586181641 6 0 0 0
4 0 5.72828388214111328 0 0 0
4 0 8.87493324279785156 1 1 1
4 1 -9.84866142272949219 1 8 6
3.32712697982788086 1 -7 4 3 3
4 0.449368894100189209 -7 4 5 4
4 1 -7.27663326263427734 4 6 3
3.33336114883422852 1 6 1 1 1
4 0.452625781297683716 6 0 0 0
4 1 6.27407073974609375 0 0 0
4 1 8.84882545471191406 1 2 1
4 2 -9.81789875030517578 1 8 3
4 2 -7.66957187652587891 5 6 3
4 2 6.66536903381347656 0 0 0
4 2 8.81830024719238281 1 2 1
4 3 -9.78538703918457031 3 8 1
3.30416679382324219 3 -8 5 3 3
4 3 -7.95409393310546875 6 5 3
3.21597170829772949 3 7 2 2 2
4 3 6.94827604293823242 0 0 0
4 3 8.78617668151855469 2 2 2
4 4 -9.75744247436523438 6 7 1
4 3.25357556343078613 -8 6 5 3
4 4 -8.11883354187011719 7 5 2
4 3.28837800025939941 7 1 1 1
4 4 7.11225557327270508 1 1 1
4 4 8.75874805450439453 2 2 2
4 5 -9.74277114868164062 8 5 0
4 5 -8.18791103363037109 7 2 1
4 5 7.17989873886108398 0 0 1
4 5 8.74456882476806641 1 1 1
4 6 -9.74726200103759766 8 1 0
4 6 -8.16766643524169922 7 3 1
4 6 7.1581873893737793 0 0 0
4 6 8.74930858612060547 1 1 1
4 7 -9.76897335052490234 8 3 0
4 7 -8.05798816680908203 7 7 0
4 7 7.04699039459228516 0 0 0
4 7 8.77093505859375 1 1 1
4 8 -9.79990577697753906 9 8 0
3.87324857711791992 8 -8 0 7 3
4 7.29127740859985352 -8 4 7 1
4 8 -7.83928728103637695 0 7 0
3.86205315589904785 8 7 1 1 1
4 7.23431873321533203 7 0 0 0
4 8 6.82509136199951172 0 0 0
4 8 8.80155658721923828 0 0 0
4 8.79990577697753906 -9 4 8 0
4 8.33268451690673828 -8 0 7 0
4 8.35160350799560547 7 0 0 0
4 8.80155658721923828 8 0 0 0
4.08635520935058594 -3 -9 2 3 9
4.08521366119384766 -3 8 0 0 0
4.34224939346313477 -2 -9 3 6 9
4.0030665397644043 -2 -8 4 7 7
4.00235128402709961 -2 7 0 0 0
4.34150409698486328 -2 8 0 0 0
4.67244386672973633 -1 -9 3 8 8
4.29919624328613281 -1 -8 4 7 5
4.2989344596862793 -1 7 0 0 0
4.67216968536376953 -1 8 1 1 0
4.79993295669555664 0 -9 3 7 6
4.39793920516967773 0 -8 4 6 4
4.07171392440795898 0 -7 4 5 4
4.07198524475097656 0 6 0 0 0
4.39822053909301758 0 7 0 0 0
4.80022907257080078 0 8 1 1 1
4.67358493804931641 1 -9 3 7 3
4.25112771987915039 1 -8 4 6 3
4.25201559066772461 1 7 1 1 1
4.67451620101928711 1 8 1 2 1
4.573150634765625 2 -9 4 7 2
4.12394475936889648 2 -8 5 6 3
4.12552022933959961 2 7 1 1 1
4.57480001449584961 2 8 1 2 1
4.5023350715637207 3 -9 6 6 2
4.01874780654907227 3 -8 6 5 3
4.02112340927124023 3 7 1 1 1
4.50481986999511719 3 8 2 2 2
4.46746301651000977 4 -9 7 5 2
4.4709477424621582 4 8 2 2 2
4.47880029678344727 5 -9 7 2 1
4.4835200309753418 5 8 1 1 1
4.55300283432006836 6 -9 7 3 1
4.5592961311340332 6 8 1 1 1
4.71784400939941406 7 -9 7 7 0
4.72622013092041016 7 8 1 1 1
5 7.93818855285644531 -9 8 3 0
5 8 -9.07935619354248047 9 3 0
4.12143564224243164 8 -8 0 7 0
5 8 -8.97665977478027344 8 8 0
4.13216161727905273 8 7 0 0 0
5 7.90695619583129883 8 0 0 0
5 8 7.96473407745361328 0 1 0
5 8 8.11517333984375 1 1 0
5 8.07935619354248047 -9 8 8 0
5 8.11517333984375 8 1 1 0
5.00766181945800781 8 -9 8 8 0
5.01157617568969727 8 8 1 1 0
3 2 1 0
3 1 3 0
3 6 5 4
3 5 7 4
3 2 0 8
3 0 3 8
3 6 4 9
3 4 7 9
3 12 11 10
3 11 13 10
3 16 15 14
3 15 17 14
3 19 12 10
3 18 19 10
3 13 21 20
3 13 20 10
3 10 20 18
3 21 22 20
3 25 24 23
3 24 16 14
3 24 14 23
3 23 14 26
3 17 27 26
3 14 17 26
3 29 19 18
3 28 29 18
3 18 20 28
3 20 30 28
3 22 31 30
3 20 22 30
3 33 25 23
3 32 33 23
3 23 26 32
3 26 34 32
3 27 35 34
3 26 27 34
3 37 29 28
3 36 37 28
3 28 30 36
3 30 38 36
3 31 40 39
3 31 39 30
3 30 39 38
3 40 41 39
3 44 43 42
3 43 33 32
3 43 32 42
3 42 32 45
3 32 34 45
3 34 46 45
3 35 47 46
3 34 35 46
3 49 37 36
3 48 49 36
3 36 38 48
3 38 50 48
3 51 52 50
3 51 50 39
3 39 50 38
3 39 41 51
3 44 42 53
3 55 53 42
3 55 42 54
3 54 42 45
3 45 46 54
3 46 56 54
3 47 57 56
3 46 47 56
3 59 49 48
3 58 59 48
3 48 50 58
3 50 60 58
3 52 61 60
3 50 52 60
3 63 55 54
3 62 63 54
3 54 56 62
3 56 64 62
3 57 65 64
3 56 57 64
3 67 59 58
3 66 67 58
3 58 60 66
3 60 68 66
3 61 69 68
3 60 61 68
3 71 63 62
3 70 71 62
3 62 64 70
3 64 72 70
3 65 73 72
3 64 65 72
3 75 67 66
3 74 75 66
3 76 77 74
3 76 74 68
3 68 74 66
3 68 69 76
3 71 70 78
3 80 78 70
3 80 70 79
3 79 70 72
3 73 81 79
3 72 73 79
3 83 75 74
3 82 83 74
3 77 84 82
3 74 77 82
3 86 80 79
3 85 86 79
3 81 87 85
3 79 81 85
3 89 83 82
3 88 89 82
3 84 90 88
3 82 84 88
3 92 86 85
3 91 92 85
3 87 93 91
3 85 87 91
3 95 89 88
3 94 95 88
3 90 96 94
3 88 90 94
3 98 92 91
3 97 98 91
3 93 99 97
3 91 93 97
3 94 1 2
3 94 2 95
3 95 2 100
3 1 101 3
3 94 101 1
3 94 102 101
3 94 96 102
3 102 103 101
3 106 105 104
3 97 5 6
3 98 97 6
3 98 6 104
3 98 104 105
3 5 97 99
3 5 99 7
3 7 99 107
3 100 2 8
3 108 100 8
3 3 101 109
3 3 109 8
3 8 109 108
3 101 103 109
3 106 104 110
3 104 6 9
3 104 9 110
3 110 9 111
3 111 9 7
3 107 111 7
3 114 113 112
3 113 115 112
3 118 117 116
3 117 119 116
3 121 114 112
3 120 121 112
3 115 122 120
3 112 115 120
3 124 118 116
3 123 124 116
3 119 125 123
3 116 119 123
3 127 121 120
3 126 127 120
3 122 128 126
3 120 122 126
3 130 124 123
3 129 130 123
3 125 131 129
3 123 125 129
3 133 127 126
3 132 133 126
3 128 134 132
3 126 128 132
3 136 130 129
3 135 136 129
3 131 137 135
3 129 131 135
3 132 11 12
3 132 12 133
3 133 12 138
3 11 139 13
3 132 139 11
3 132 140 139
3 132 134 140
3 140 141 139
3 144 143 142
3 135 15 16
3 136 135 16
3 136 16 142
3 136 142 143
3 15 135 137
3 15 137 17
3 17 137 145
3 138 12 146
3 146 12 19
3 139 21 13
3 21 147 22
3 139 147 21
3 139 148 147
3 139 141 148
3 148 149 147
3 152 151 150
3 142 24 25
3 144 142 25
3 144 25 150
3 144 150 151
3 142 16 24
3 145 153 17
3 153 27 17
3 146 19 154
3 154 19 29
3 155 22 147
3 31 22 155
3 149 157 156
3 149 156 147
3 147 156 155
3 157 158 156
3 161 160 159
3 160 152 150
3 160 150 159
3 159 150 162
3 150 33 162
3 25 33 150
3 153 163 27
3 163 35 27
3 154 29 164
3 164 29 37
3 155 40 31
3 40 165 41
3 40 155 165
3 155 156 165
3 158 166 165
3 156 158 165
3 168 161 159
3 167 168 159
3 44 162 43
3 44 167 162
3 167 159 162
3 162 33 43
3 163 169 35
3 169 47 35
3 164 37 170
3 170 37 49
3 51 171 52
3 171 172 173
3 51 172 171
3 51 165 172
3 51 41 165
3 165 166 172
3 168 167 174
3 176 53 175
3 174 53 176
3 174 44 53
3 174 167 44
3 53 55 175
3 169 177 47
3 177 57 47
3 170 49 178
3 178 49 59
3 179 52 171
3 179 180 52
3 180 61 52
3 171 173 179
3 176 175 181
3 175 182 181
3 175 55 182
3 55 63 182
3 177 183 57
3 183 65 57
3 178 59 184
3 184 59 67
3 187 185 186
3 186 185 69
3 186 69 180
3 180 69 61
3 188 189 182
3 188 182 71
3 71 182 63
3 189 188 190
3 183 191 65
3 191 73 65
3 184 67 192
3 192 67 75
3 185 77 76
3 185 187 77
3 187 193 77
3 185 76 69
3 188 71 78
3 78 190 188
3 78 80 190
3 80 194 190
3 191 195 73
3 195 81 73
3 192 75 196
3 196 75 83
3 193 197 77
3 197 84 77
3 194 80 198
3 198 80 86
3 195 199 81
3 199 87 81
3 196 83 200
3 200 83 89
3 197 201 84
3 201 90 84
3 198 86 202
3 202 86 92
3 199 203 87
3 203 93 87
3 200 89 204
3 204 89 95
3 201 205 90
3 205 96 90
3 202 92 206
3 206 92 98
3 203 207 93
3 207 99 93
3 204 95 208
3 208 95 100
3 102 210 209
3 102 96 210
3 96 205 210
3 102 209 103
3 105 106 211
3 211 98 105
3 211 212 98
3 212 206 98
3 207 213 99
3 213 107 99
3 208 100 108
3 214 208 108
3 209 210 214
3 209 214 109
3 109 214 108
3 209 109 103
3 211 106 110
3 212 211 110
3 212 110 215
3 215 110 111
3 215 111 107
3 213 215 107
3 218 217 216
3 217 219 216
3 222 221 220
3 221 223 220
3 218 216 224
3 216 219 224
3 222 220 225
3 220 223 225
3 113 114 226
3 113 226 115
3 117 118 227
3 117 227 119
3 228 226 114
3 121 228 114
3 226 228 122
3 115 226 122
3 229 227 118
3 124 229 118
3 227 229 125
3 119 227 125
3 230 228 121
3 127 230 121
3 228 230 128
3 122 228 128
3 231 229 124
3 130 231 124
3 229 231 131
3 125 229 131
3 232 230 127
3 232 127 233
3 233 127 133
3 230 232 234
3 230 234 128
3 128 234 134
3 235 231 130
3 235 130 236
3 236 130 136
3 231 235 237
3 231 237 131
3 131 237 137
3 233 133 238
3 238 133 138
3 140 240 239
3 140 134 240
3 134 234 240
3 140 239 141
3 143 144 241
3 241 136 143
3 241 242 136
3 242 236 136
3 237 243 137
3 243 145 137
3 238 138 244
3 244 138 146
3 246 239 240
3 245 239 246
3 148 141 239
3 148 239 247
3 247 239 245
3 148 247 149
3 151 152 248
3 144 151 248
3 144 248 241
3 241 248 249
3 242 249 250
3 241 249 242
3 243 251 145
3 251 153 145
3 244 146 252
3 252 146 154
3 246 253 245
3 255 245 253
3 255 254 245
3 254 247 245
3 157 149 247
3 157 247 256
3 256 247 254
3 157 256 158
3 160 161 257
3 152 160 257
3 152 257 248
3 248 257 258
3 259 258 260
3 259 249 258
3 249 248 258
3 249 259 250
3 251 261 153
3 261 163 153
3 252 154 262
3 262 154 164
3 265 263 264
3 264 254 255
3 264 263 254
3 263 266 254
3 254 266 256
3 256 266 267
3 256 267 166
3 158 256 166
3 268 257 161
3 168 268 161
3 257 268 258
3 258 268 269
3 260 270 271
3 260 258 270
3 258 269 270
3 271 270 272
3 261 273 163
3 273 169 163
3 262 164 274
3 274 164 170
3 276 263 265
3 275 263 276
3 263 275 266
3 266 275 277
3 173 172 267
3 173 267 277
3 277 267 266
3 267 172 166
3 268 168 174
3 174 176 278
3 174 278 268
3 268 278 269
3 269 278 270
3 270 278 279
3 272 279 280
3 270 279 272
3 273 281 169
3 281 177 169
3 282 283 274
3 282 274 178
3 178 274 170
3 283 275 276
3 283 282 275
3 282 284 275
3 180 179 277
3 180 277 284
3 284 277 275
3 277 179 173
3 278 176 181
3 181 182 285
3 181 285 278
3 278 285 279
3 280 286 287
3 280 279 286
3 279 285 286
3 287 286 183
3 287 183 281
3 281 183 177
3 288 282 178
3 184 288 178
3 187 186 284
3 187 284 288
3 288 284 282
3 284 186 180
3 285 182 189
3 189 190 289
3 189 289 285
3 285 289 286
3 286 289 191
3 183 286 191
3 290 288 184
3 192 290 184
3 288 290 193
3 187 288 193
3 291 289 190
3 194 291 190
3 289 291 195
3 191 289 195
3 292 290 192
3 196 292 192
3 290 292 197
3 193 290 197
3 293 291 194
3 198 293 194
3 291 293 199
3 195 291 199
3 294 292 196
3 200 294 196
3 292 294 201
3 197 292 201
3 295 293 198
3 202 295 198
3 293 295 203
3 199 293 203
3 296 294 200
3 204 296 200
3 294 296 205
3 201 294 205
3 297 295 202
3 206 297 202
3 295 297 207
3 203 295 207
3 298 296 204
3 208 298 204
3 296 298 210
3 205 296 210
3 299 297 206
3 212 299 206
3 297 299 213
3 207 297 213
3 298 208 214
3 298 214 210
3 299 212 215
3 299 215 213
3 217 218 300
3 217 300 219
3 221 222 301
3 221 301 223
3 300 218 224
3 300 224 219
3 301 222 225
3 301 225 223
3 232 233 302
3 232 302 234
3 235 236 303
3 235 303 237
3 304 302 233
3 238 304 233
3 302 304 240
3 234 302 240
3 305 303 236
3 242 305 236
3 303 305 243
3 237 303 243
3 306 304 238
3 244 306 238
3 304 306 246
3 240 304 246
3 307 305 242
3 250 307 242
3 305 307 251
3 243 305 251
3 308 306 244
3 252 308 244
3 253 246 306
3 253 306 309
3 309 306 308
3 253 309 255
3 259 260 310
3 250 259 310
3 250 310 307
3 307 310 311
3 307 311 261
3 251 307 261
3 312 308 252
3 262 312 252
3 265 264 309
3 265 309 312
3 312 309 308
3 309 264 255
3 310 260 271
3 271 272 313
3 271 313 310
3 310 313 311
3 311 313 273
3 261 311 273
3 314 312 262
3 274 314 262
3 312 314 276
3 265 312 276
3 315 313 272
3 280 315 272
3 313 315 281
3 273 313 281
3 314 274 283
3 314 283 276
3 315 280 287
3 315 287 281
3 318 317 316
3 317 319 316
3 322 321 320
3 321 323 320
3 318 316 324
3 316 319 324
3 322 320 325
3 320 323 325
3 328 327 326
3 327 329 326
3 332 331 330
3 331 333 330
3 335 328 326
3 334 335 326
3 329 336 334
3 326 329 334
3 338 332 330
3 337 338 330
3 333 339 337
3 330 333 337
3 341 335 334
3 340 341 334
3 336 342 340
3 334 336 340
3 344 338 337
3 343 344 337
3 339 345 343
3 337 339 343
3 347 341 340
3 346 347 340
3 342 349 348
3 342 348 340
3 340 348 346
3 349 350 348
3 353 352 351
3 352 344 343
3 352 343 351
3 351 343 354
3 345 355 354
3 343 345 354
3 357 347 346
3 356 357 346
3 358 359 356
3 358 356 348
3 348 356 346
3 348 350 358
3 353 351 360
3 362 360 351
3 362 351 361
3 361 351 354
3 355 363 361
3 354 355 361
3 365 357 356
3 364 365 356
3 359 366 364
3 356 359 364
3 368 362 361
3 367 368 361
3 363 369 367
3 361 363 367
3 365 364 370
3 364 366 370
3 368 367 371
3 367 369 371
3 317 318 372
3 317 372 319
3 321 322 373
3 321 373 323
3 372 318 324
3 372 324 319
3 373 322 325
3 373 325 323
3 376 375 374
3 375 377 374
3 380 379 378
3 379 381 378
3 383 376 374
3 382 383 374
3 377 384 382
3 374 377 382
3 386 380 378
3 385 386 378
3 381 387 385
3 378 381 385
3 389 383 382
3 388 389 382
3 384 390 388
3 382 384 388
3 392 386 385
3 391 392 385
3 387 393 391
3 385 387 391
3 388 327 328
3 388 328 389
3 389 328 394
3 327 388 390
3 327 390 329
3 329 390 395
3 391 331 332
3 391 332 392
3 392 332 396
3 331 391 393
3 331 393 333
3 333 393 397
3 394 328 398
3 398 328 335
3 399 395 400
3 399 336 395
3 336 329 395
3 400 401 399
3 404 403 402
3 403 338 402
3 403 396 338
3 396 332 338
3 397 405 333
3 405 339 333
3 398 335 406
3 406 335 341
3 407 336 399
3 342 336 407
3 401 409 408
3 401 408 399
3 399 408 407
3 409 410 408
3 413 412 411
3 412 404 402
3 412 402 411
3 411 402 414
3 402 344 414
3 338 344 402
3 405 415 339
3 415 345 339
3 406 341 416
3 416 341 347
3 407 349 342
3 349 417 350
3 349 407 417
3 407 408 417
3 410 419 418
3 410 418 408
3 408 418 417
3 419 420 418
3 423 422 421
3 422 413 411
3 422 411 421
3 421 411 424
3 353 414 352
3 353 424 414
3 424 411 414
3 414 344 352
3 415 425 345
3 425 355 345
3 416 347 426
3 426 347 357
3 358 427 359
3 350 427 358
3 350 417 427
3 417 428 427
3 417 418 428
3 418 429 428
3 420 430 429
3 418 420 429
3 432 423 421
3 431 432 421
3 421 424 431
3 424 433 431
3 360 424 353
3 360 434 424
3 434 433 424
3 360 362 434
3 425 435 355
3 435 363 355
3 426 357 436
3 436 357 365
3 437 359 427
3 366 359 437
3 427 428 437
3 428 438 437
3 439 440 438
3 439 438 429
3 429 438 428
3 429 430 439
3 432 431 441
3 443 441 431
3 443 431 442
3 442 431 433
3 433 434 442
3 434 444 442
3 434 368 444
3 362 368 434
3 435 445 363
3 445 369 363
3 370 446 447
3 370 447 365
3 365 447 436
3 366 446 370
3 366 437 446
3 437 448 446
3 449 450 448
3 449 448 438
3 438 448 437
3 438 440 449
3 443 442 451
3 453 451 442
3 453 442 452
3 452 442 444
3 371 444 368
3 371 454 444
3 454 452 444
3 454 371 369
3 454 369 455
3 455 369 445
3 457 447 446
3 456 457 446
3 458 459 456
3 458 456 448
3 448 456 446
3 448 450 458
3 453 452 460
3 462 460 452
3 462 452 461
3 461 452 454
3 455 463 461
3 454 455 461
3 465 457 456
3 464 465 456
3 459 466 464
3 456 459 464
3 468 462 461
3 467 468 461
3 463 469 467
3 461 463 467
3 471 465 464
3 470 471 464
3 466 472 470
3 464 466 470
3 474 468 467
3 473 474 467
3 469 475 473
3 467 469 473
3 477 471 470
3 476 477 470
3 472 478 476
3 470 472 476
3 480 474 473
3 479 480 473
3 475 481 479
3 473 475 479
3 483 477 476
3 482 483 476
3 478 484 482
3 476 478 482
3 486 480 479
3 485 486 479
3 481 487 485
3 479 481 485
3 489 483 482
3 488 489 482
3 484 490 488
3 482 484 488
3 492 486 485
3 491 492 485
3 487 493 491
3 485 487 491
3 489 488 494
3 488 490 494
3 492 491 495
3 491 493 495
3 375 376 496
3 375 496 377
3 379 380 497
3 379 497 381
3 498 496 376
3 383 498 376
3 496 498 384
3 377 496 384
3 499 497 380
3 386 499 380
3 497 499 387
3 381 497 387
3 500 498 383
3 389 500 383
3 498 500 390
3 384 498 390
3 501 499 386
3 392 501 386
3 499 501 393
3 387 499 393
3 502 500 389
3 394 502 389
3 500 502 395
3 390 500 395
3 503 501 392
3 396 503 392
3 501 503 397
3 393 501 397
3 504 502 394
3 504 394 505
3 505 394 398
3 507 506 400
3 504 507 400
3 504 400 395
3 504 395 502
3 400 506 401
3 403 404 508
3 508 510 509
3 403 508 509
3 403 509 503
3 403 503 396
3 503 509 511
3 503 511 397
3 397 511 405
3 505 398 512
3 512 398 406
3 507 513 506
3 515 514 409
3 513 515 409
3 513 409 401
3 513 401 506
3 409 514 410
3 412 413 516
3 516 518 517
3 412 516 517
3 412 517 508
3 412 508 404
3 508 517 510
3 511 519 405
3 519 415 405
3 512 406 520
3 520 406 416
3 522 514 515
3 521 514 522
3 419 410 514
3 419 514 523
3 523 514 521
3 419 523 420
3 422 423 524
3 413 422 524
3 413 524 516
3 516 524 525
3 518 525 526
3 516 525 518
3 519 527 415
3 527 425 415
3 520 416 528
3 528 416 426
3 522 529 521
3 531 521 529
3 531 530 521
3 530 523 521
3 523 530 430
3 420 523 430
3 532 524 423
3 432 532 423
3 533 532 534
3 533 525 532
3 525 524 532
3 525 533 526
3 527 535 425
3 535 435 425
3 528 426 536
3 536 426 436
3 539 537 538
3 530 440 439
3 531 440 530
3 531 537 440
3 531 538 537
3 530 439 430
3 532 432 441
3 441 443 540
3 532 441 540
3 532 540 541
3 532 541 534
3 541 540 542
3 535 543 435
3 543 445 435
3 536 436 544
3 544 436 447
3 537 450 449
3 537 539 450
3 539 545 450
3 537 449 440
3 540 443 451
3 451 542 540
3 451 453 542
3 453 546 542
3 543 547 445
3 547 455 445
3 544 447 548
3 548 447 457
3 458 549 459
3 549 458 450
3 549 450 550
3 550 450 545
3 460 551 552
3 460 552 453
3 453 552 546
3 460 462 551
3 547 553 455
3 553 463 455
3 548 457 554
3 554 457 465
3 555 459 549
3 555 556 459
3 556 466 459
3 549 550 555
3 552 551 557
3 551 558 557
3 551 462 558
3 462 468 558
3 553 559 463
3 559 469 463
3 554 465 560
3 560 465 471
3 556 561 466
3 561 472 466
3 558 468 562
3 562 468 474
3 559 563 469
3 563 475 469
3 560 471 564
3 564 471 477
3 561 565 472
3 565 478 472
3 562 474 566
3 566 474 480
3 563 567 475
3 567 481 475
3 564 477 568
3 568 477 483
3 565 569 478
3 569 484 478
3 566 480 570
3 570 480 486
3 567 571 481
3 571 487 481
3 568 483 572
3 572 483 489
3 573 569 574
3 573 490 569
3 490 484 569
3 574 575 573
3 578 577 576
3 577 492 576
3 577 570 492
3 570 486 492
3 571 579 487
3 579 493 487
3 572 489 494
3 580 572 494
3 490 573 581
3 490 581 494
3 494 581 580
3 573 575 581
3 578 576 582
3 576 492 495
3 576 495 582
3 582 495 583
3 583 495 493
3 579 583 493
3 504 505 584
3 504 584 507
3 509 510 585
3 509 585 511
3 586 584 505
3 512 586 505
3 513 507 584
3 513 584 587
3 587 584 586
3 513 587 515
3 517 518 588
3 510 517 588
3 510 588 585
3 585 588 589
3 585 589 519
3 511 585 519
3 590 586 512
3 520 590 512
3 586 590 587
3 587 590 591
3 587 591 522
3 515 587 522
3 592 588 518
3 526 592 518
3 588 592 589
3 589 592 593
3 589 593 527
3 519 589 527
3 594 590 520
3 528 594 520
3 590 594 591
3 591 594 595
3 529 522 591
3 529 591 596
3 596 591 595
3 529 596 531
3 533 534 597
3 526 533 597
3 526 597 592
3 592 597 598
3 592 598 593
3 593 598 599
3 593 599 535
3 527 593 535
3 600 594 528
3 536 600 528
3 594 600 595
3 595 600 601
3 539 538 596
3 539 596 601
3 601 596 595
3 596 538 531
3 597 534 541
3 541 542 602
3 541 602 597
3 597 602 598
3 598 602 599
3 599 602 603
3 599 603 543
3 535 599 543
3 604 600 536
3 544 604 536
3 600 604 601
3 601 604 605
3 601 605 545
3 539 601 545
3 606 602 542
3 546 606 542
3 602 606 603
3 603 606 607
3 603 607 547
3 543 603 547
3 608 604 544
3 548 608 544
3 604 608 605
3 605 608 609
3 605 609 550
3 545 605 550
3 610 606 546
3 552 610 546
3 606 610 607
3 607 610 611
3 607 611 553
3 547 607 553
3 612 608 548
3 554 612 548
3 556 555 609
3 556 609 612
3 612 609 608
3 609 555 550
3 610 552 557
3 557 558 613
3 557 613 610
3 610 613 611
3 611 613 559
3 553 611 559
3 614 612 554
3 560 614 554
3 612 614 561
3 556 612 561
3 615 613 558
3 562 615 558
3 613 615 563
3 559 613 563
3 616 614 560
3 564 616 560
3 614 616 565
3 561 614 565
3 617 615 562
3 566 617 562
3 615 617 567
3 563 615 567
3 618 616 564
3 568 618 564
3 616 618 569
3 565 616 569
3 619 617 566
3 570 619 566
3 617 619 571
3 567 617 571
3 620 618 568
3 620 568 621
3 621 568 572
3 623 622 574
3 620 623 574
3 620 574 569
3 620 569 618
3 574 622 575
3 577 578 624
3 624 626 625
3 577 624 625
3 577 625 619
3 577 619 570
3 619 625 627
3 619 627 571
3 571 627 579
3 621 572 580
3 628 621 580
3 622 623 628
3 622 628 581
3 581 628 580
3 622 581 575
3 624 578 582
3 626 624 582
3 626 582 629
3 629 582 583
3 629 583 579
3 627 629 579
3 620 621 630
3 620 630 623
3 625 626 631
3 625 631 627
3 630 621 628
3 630 628 623
3 631 626 629
3 631 629 627
