ply
format ascii 1.0
element vertex 494
property float x
property float y
property float z
property uchar red
property uchar green
property uchar blue
element face 984
property list uchar int vertex_indices
end_header
-7.03644704818725586 6 -1 167 149 146
-7 5.96058273315429688 -1 5 5 5
-7 6 -1.59365189075469971 131 97 96
-7.02263927459716797 6 0 166 143 141
-7 5.97554588317871094 0 6 6 6
-7 6 0.246107667684555054 111 75 74
-7 6.04345893859863281 -1 113 77 77
-7 6.02692461013793945 0 111 75 74
-6.08570766448974609 6 -4 199 196 195
-6 5.91816282272338867 -4 32 30 30
-6 6 -4.14112424850463867 213 204 202
-6 6 -3.54488706588745117 151 122 121
-6.95210647583007812 6 -1 113 77 77
-6.97036409378051758 6 0 111 75 74
-6 6.09218120574951172 -4 151 122 121
-6.11256742477416992 7 -2 223 222 222
-6 6.81567811965942383 -2 53 39 37
-6 7 -2.33818435668945312 216 207 204
-6.20497369766235352 7 -1 214 203 200
-6 6.77793693542480469 -1 32 24 23
-6.19412899017333984 7 0 213 196 194
-6 6.78995609283447266 0 30 21 21
-6.07491159439086914 7 1 220 204 203
-6 6.87962245941162109 1 47 32 31
-6 7 1.19997930526733398 180 137 135
-6 7.11353015899658203 -2 186 155 148
-6 7.2011260986328125 -1 168 125 120
-6 7.19054651260375977 0 166 120 116
-6 7.07552051544189453 1 180 137 135
-5.17502117156982422 6 -5 213 204 202
-5 5.90783357620239258 -5 41 38 38
-5 6 -5.18237209320068359 245 222 215
-5.86317777633666992 6 -4 151 122 121
-5 6 -4.8301091194152832 162 133 132
-5 6.14611673355102539 -5 162 133 132
-5.15888071060180664 7 -4 252 249 248
-5 6.77227973937988281 -4 81 59 56
-5 7 -4.19778156280517578 255 228 221
-5.55971860885620117 7 -3 216 207 204
-5 6.77444696426391602 -3 18 15 15
-5 6.88134431838989258 -2 23 22 22
-5.14179706573486328 7 -1 168 125 120
-5 7 -1.1915820837020874 118 70 68
-5.19953346252441406 7 0 166 120 116
-5 6.91063928604125977 1 31 29 29
-5 7 0.314820170402526855 92 53 51
-5.4416356086730957 7 2 207 179 178
-5 6.80939674377441406 2 4 3 3
-5.05932855606079102 7 3 239 212 206
-5 6.91745138168334961 3 63 43 42
-5 7 3.07015657424926758 198 172 168
-5 7.14218568801879883 -4 214 199 194
-5 7.35377931594848633 -3 159 112 109
-5 7.5132908821105957 -2 118 70 68
-5.0559229850769043 8 -1 255 194 184
-5 7.41253805160522461 -1 95 55 52
-5 8 -1.26248288154602051 255 193 178
-5.04021310806274414 8 0 255 186 180
-5 7.58342313766479492 0 92 53 51
-5 7.36819696426391602 1 109 63 63
-5 8 0.160504072904586792 236 177 170
-5 7.28759193420410156 2 146 98 97
-5 7.05370330810546875 3 198 172 168
-5 8.86204147338867188 -1 239 184 174
-5 8.81722545623779297 0 236 177 170
-4.18805074691772461 6 -6 245 222 215
-4 5.89280080795288086 -6 82 69 67
-4 6 -6.11838102340698242 255 237 234
-4.82904720306396484 6 -5 162 133 132
-4 6 -5.82364749908447266 200 188 186
-4 6.12554788589477539 -6 200 188 186
-4.21553421020507812 7 -5 255 228 221
-4 6.75126743316650391 -5 98 70 67
-4 7 -5.18167543411254883 255 200 192
-4 6.80259037017822266 -4 12 10 10
-4.45589113235473633 7 -3 159 112 109
-4 7 -3.48363852500915527 154 103 100
-4.82898569107055664 7 -2 118 70 68
-4.87356281280517578 7 1 109 63 63
-4.56995439529418945 7 2 146 98 97
-4 6.85582208633422852 3 14 13 13
-4 7 2.63649797439575195 68 45 43
-4.05892705917358398 7 4 252 204 185
-4 6.93294000625610352 4 68 51 50
-4 7 4.04952001571655273 208 187 181
-4 7.15842247009277344 -5 231 221 217
-4 7.45627784729003906 -4 154 103 100
-4.31294870376586914 8 -3 255 185 170
-4 7.50175142288208008 -3 88 53 50
-4 8 -3.43836236000061035 255 175 158
-4.73031902313232422 8 -2 255 193 178
-4 7.65371084213256836 -2 42 27 25
-4 7.69112396240234375 -1 16 11 11
-4 7.69479227066040039 0 12 9 8
-4.66210031509399414 8 1 248 168 167
-4 7.6726527214050293 1 29 20 19
-4.23660182952880859 8 2 255 165 156
-4 7.63319730758666992 2 68 45 43
-4 7.30561399459838867 3 129 94 92
-4 8 2.30864381790161133 223 164 162
-4 7.04492044448852539 4 208 187 181
-4 8.96816444396972656 -3 239 188 173
-4 8.979400634765625 -2 201 159 146
-4 8.98002815246582031 -1 178 128 118
-4 8.97989368438720703 0 174 126 118
-4 8.97864341735839844 1 190 149 145
-4 8.95897483825683594 2 223 164 162
-3.41040158271789551 6 -6 200 188 186
-3 6.76531219482421875 -5 36 29 28
-3 7 -5.66439390182495117 255 206 195
-3.47941970825195312 7 -4 154 103 100
-3 7 -4.44017267227172852 178 131 125
-3.65474748611450195 7 3 129 94 92
-3 6.82865190505981445 4 3 2 2
-3 7 3.6164546012878418 56 39 38
-3 7 4.40013265609741211 144 123 121
-3 7.3884587287902832 -5 178 131 125
-3.45353150367736816 8 -4 255 175 158
-3 7.48218488693237305 -4 89 54 51
-3 8 -4.34910726547241211 255 158 144
-3 7.68569231033325195 -3 18 13 12
-3 7.72486066818237305 -2 30 26 26
-3 7.75721216201782227 -1 55 54 54
-3 7.76243400573730469 0 61 60 60
-3 7.73504781723022461 1 45 43 43
-3 7.70379877090454102 2 6 5 5
-3.30162930488586426 8 3 255 164 147
-3 7.65899515151977539 3 56 39 38
-3 7.26323795318603516 4 144 123 121
-3 8 3.22908258438110352 215 169 166
-3 8.97000312805175781 -4 240 185 167
-3 8.98023128509521484 -3 180 128 116
-3 8.97957134246826172 -2 133 76 73
-3 8.97634792327880859 -1 106 60 58
-3 8.97580909729003906 0 101 60 58
-3 8.97888278961181641 1 119 78 76
-3 8.97955513000488281 2 157 126 122
-3 8.95765304565429688 3 215 169 166
-2.50037050247192383 5 -2 188 162 143
-2 4.84915304183959961 -2 192 162 136
-2 5 -2.64927577972412109 200 173 154
-2.89760875701904297 5 -1 196 169 149
-2 4.87660408020019531 -1 191 162 137
-2.68756318092346191 5 0 200 177 161
-2 4.90467309951782227 0 197 174 155
-2.14183664321899414 5 1 202 188 179
-2 4.95654678344726562 1 210 199 190
-2 5 1.13906431198120117 230 226 222
-2.2053990364074707 6 -7 255 244 242
-2 5.92351055145263672 -7 110 87 85
-2 6 -7.05697345733642578 255 193 191
-2 6 -6.89402914047241211 226 217 215
-2 5.16000604629516602 -2 213 185 165
-2 5.27977228164672852 -1 220 195 177
-2 5.21503829956054688 0 226 208 196
-2 5.04603672027587891 1 230 226 222
-2 6.06624460220336914 -7 226 217 215
-2.54526901245117188 7 -6 255 206 195
-2 6.7313227653503418 -6 97 67 65
-2 7 -6.18025350570678711 255 165 160
-2 6.86849021911621094 -5 16 16 16
-2 7 -4.81129837036132812 125 75 72
-2 6.96125555038452148 4 61 52 52
-2 7 3.94587111473083496 6 3 3
-2.11034369468688965 7 5 242 191 161
-2 6.94190120697021484 5 48 32 30
-2 7 5.04052543640136719 194 185 182
-2 7.17905569076538086 -6 232 208 200
-2 7.72580194473266602 -5 125 75 72
-2 7.64657115936279297 -4 28 20 19
-2 8 -4.8615107536315918 255 172 152
-2 7.72284364700317383 -3 44 41 41
-2 7.82296180725097656 -2 91 79 76
-2 7.99357223510742188 -1 115 101 96
-2.02524423599243164 8 0 101 60 58
-2 8 -0.570105373859405518 39 26 24
-2 7.84936189651489258 1 107 98 96
-2 8 0.0438185147941112518 34 22 20
-2 7.74017333984375 2 69 62 61
-2 7.68883180618286133 3 6 3 3
-2 7.18369483947753906 4 82 47 47
-2 8 3.63981461524963379 156 122 119
-2 7.04093694686889648 5 194 185 182
-2 8.97983169555664062 -4 188 138 125
-2 8.97968387603759766 -3 118 67 63
-2 8.96448898315429688 -2 67 40 37
-2 8.44063568115234375 -1 39 26 24
-2 8.95797634124755859 1 53 31 28
-2 8.97848033905029297 2 94 55 53
-2 8.97811508178710938 3 156 122 119
-1.58630192279815674 5 -3 200 173 154
-1 4.83592510223388672 -3 217 190 171
-1 5 -3.1715853214263916 205 178 163
-1 4.82588815689086914 -2 213 187 165
-1 4.88706064224243164 -1 213 193 174
-1 4.91096353530883789 0 219 207 194
-1 4.90940046310424805 1 232 213 194
-1 5 1.6331944465637207 255 243 235
-1 5.88273763656616211 -7 74 61 60
-1 6 -7.11833477020263672 255 184 180
-1 6 -6.85929441452026367 194 155 151
-1 5.08852291107177734 -3 231 211 200
-1 5.39958572387695312 -2 243 231 223
-1 5.96634721755981445 -1 250 247 245
-1 5.75430202484130859 0 255 253 251
-1 5.20470714569091797 1 255 243 235
-1 6.14539575576782227 -7 194 155 151
-1 6.72685432434082031 -6 57 43 42
-1 7 -6.2808074951171875 255 167 158
-1.08377730846405029 7 -5 125 75 72
-1 7 -5.05224895477294922 195 148 140
-1.77042162418365479 7 4 82 47 47
-1 6.84897184371948242 5 5 2 2
-1 7 4.50153255462646484 37 17 16
-1 7 5.15143871307373047 149 112 107
-1 7.26904010772705078 -6 195 148 140
-1.68693995475769043 8 -5 255 172 152
-1 7.09934520721435547 -5 79 49 46
-1 8 -5.15537595748901367 255 142 131
-1 7.68542242050170898 -4 20 18 17
-1 7.75164556503295898 -3 92 79 74
-1 7.98954391479492188 -2 137 119 109
-1.9757918119430542 8 -1 39 26 24
-1 8 -1.96141135692596436 16 11 10
-1.15735721588134766 8 1 53 31 28
-1 7.77901268005371094 2 115 82 75
-1 8 1.10280001163482666 3 2 1
-1 7.7101588249206543 3 52 35 33
-1.06131577491760254 8 4 231 175 165
-1 7.92038726806640625 4 37 17 16
-1 7.14913463592529297 5 149 112 107
-1 8 4.01502513885498047 188 131 130
-1 8.94486331939697266 -5 226 173 158
-1 8.9803009033203125 -4 140 85 79
-1 8.97679805755615234 -3 67 41 37
-1 8.56033706665039062 -2 16 11 10
-1 8.97379016876220703 2 47 20 18
-1 8.97934436798095703 3 110 56 50
-1 8.62171459197998047 4 188 131 130
0 4.79294586181640625 -3 248 232 224
0 5 -3.21685290336608887 234 216 208
0 4.8032526969909668 -2 245 230 220
0 4.86767387390136719 -1 245 235 227
0 4.89129447937011719 0 250 225 203
0 4.88611125946044922 1 255 221 195
0 5 1.80404889583587646 255 233 222
0 5.88375234603881836 -7 55 51 51
0 6 -7.11891889572143555 255 199 190
0 6 -6.86104345321655273 174 128 123
0 5.11129188537597656 -3 255 253 253
0 5.45472526550292969 -2 255 241 234
-0.812081217765808105 6 -1 241 238 237
0 6 -1.07749485969543457 255 248 244
0 5.93254280090332031 0 255 244 238
0 6 -0.317246615886688232 255 246 240
0 5.25904989242553711 1 255 233 222
0 6.14682769775390625 -7 174 128 123
0 6.72809886932373047 -6 33 30 29
0 7 -6.28481149673461914 255 191 176
0 7 -5.08309555053710938 171 118 110
0 6.01108884811401367 -1 255 246 240
0 6.84833526611328125 5 17 10 10
0 7 4.51463699340820312 13 6 5
0 7 5.15440750122070312 121 62 61
0 7.2727665901184082 -6 171 118 110
0 7.14724397659301758 -5 50 36 34
0 8 -5.16448068618774414 255 168 149
0 7.6868281364440918 -4 50 42 39
0 7.75392055511474609 -3 121 97 84
-0.0483783185482025146 8 -2 16 11 10
0 8 -2.00155472755432129 37 27 24
0 7.78192615509033203 2 142 89 65
0 8 1.1334913969039917 23 14 11
0 7.71128368377685547 3 77 52 47
0 7.8815007209777832 4 13 6 5
0 7.15206575393676758 5 121 62 61
0 8 4.02492475509643555 160 92 87
0 8.94763851165771484 -5 197 151 138
0 8.98029899597167969 -4 109 68 60
0 8.976531982421875 -3 37 27 24
0 8.97336387634277344 2 20 9 7
0 8.97933864593505859 3 84 35 29
0 8.73177433013916016 4 160 92 87
1 4.96944999694824219 -3 255 254 254
1 5 -3.01367616653442383 255 250 247
1 4.76085567474365234 -2 255 243 237
1 4.80814743041992188 -1 255 254 253
1 4.83556175231933594 0 255 238 227
1 4.86680078506469727 1 255 231 218
1 5 1.43476951122283936 255 215 185
1 5.91826963424682617 -7 51 51 51
1 6 -7.06405782699584961 255 217 207
1 6 -6.88952970504760742 167 127 119
1 5.00745534896850586 -3 255 249 246
1 5.25474452972412109 -2 255 251 249
0.0759865492582321167 6 -1 255 246 240
1 5.44409370422363281 -1 255 239 227
1 5.37856626510620117 0 255 224 200
1 5.14170122146606445 1 255 215 185
1 6.07526445388793945 -7 167 127 119
1 6.73111820220947266 -6 27 25 25
1 7 -6.1942143440246582 255 214 201
0.147376999258995056 7 -5 50 36 34
1 6.88337469100952148 -5 95 65 52
1 7 -4.83576011657714844 41 33 31
0.882366001605987549 7 4 13 6 5
1 6.98114442825317383 4 132 77 60
1 7 3.97409224510192871 80 44 38
1 6.92610406875610352 5 19 13 12
1 7 5.05494165420532227 114 49 49
1 7.19295358657836914 -6 160 114 105
0.821838021278381348 8 -5 197 151 138
1 7.82168292999267578 -5 41 33 31
1 7.65357685089111328 -4 59 47 43
1 8 -4.92553234100341797 181 139 126
1 7.72614049911499023 -3 131 100 82
0.00266125565394759178 8 -2 13 10 8
1 7.83845281600952148 -2 177 130 94
1 8 -1.11866867542266846 19 14 12
0.222059696912765503 8 1 23 14 11
1 7.8667750358581543 1 188 121 73
1 8 0.206587851047515869 48 31 25
1 7.74456071853637695 2 147 87 55
1 7.69311904907226562 3 80 44 38
0.114352695643901825 8 4 160 92 87
1 7.11351394653320312 4 10 5 4
1 8 3.68067669868469238 78 33 25
1 7.05555963516235352 5 114 49 49
1 8.9799041748046875 -4 98 68 59
1 8.97945880889892578 -3 29 20 17
1 8.96044540405273438 -2 19 14 12
1 8.95174407958984375 1 27 18 14
1 8.97808837890625 2 16 8 6
1 8.97828006744384766 3 78 33 25
1.02350687980651855 5 -3 255 249 246
2 4.98447942733764648 -2 255 251 248
2 5 -2.0121002197265625 255 244 239
2 4.80976343154907227 -1 255 236 223
2 4.86084508895874023 0 255 222 197
1.56080615520477295 5 1 255 215 185
2 5 0.483778655529022217 255 210 167
1.25534522533416748 6 -7 167 127 119
2 5.00378704071044922 -2 255 236 223
2 5.10233163833618164 -1 255 220 189
2 5.07516717910766602 0 255 210 167
1.64496016502380371 7 -6 160 114 105
2 6.77408933639526367 -5 84 57 47
2 7 -5.73224163055419922 165 135 125
2 7 -4.50092983245849609 54 46 43
2 6.83865261077880859 4 113 60 46
2 7 3.66408419609069824 59 30 26
1.16317975521087646 7 5 114 49 49
2 7 4.42319869995117188 28 15 13
2 7.41245889663696289 -5 54 46 43
2 7.51405000686645508 -4 43 34 31
2 8 -4.39979839324951172 179 134 117
2 7.69254255294799805 -3 116 77 55
2 7.73074102401733398 -2 163 106 64
1.07813334465026855 8 -1 45 31 25
2 7.76990938186645508 -1 188 119 69
1.12041604518890381 8 0 48 31 25
2 7.7757716178894043 0 190 117 67
2 7.74202156066894531 1 170 101 55
2 7.70965290069580078 2 127 68 41
2 7.66007232666015625 3 59 30 26
2 7.27027225494384766 4 28 15 13
2 8 3.27382326126098633 90 40 29
2 8.97240543365478516 -4 108 66 52
2 8.98022079467773438 -3 44 28 21
2 8.97914409637451172 -2 0 0 0
2 8.9747314453125 -1 25 16 12
2 8.97403430938720703 0 27 17 12
2 8.97828865051269531 1 7 4 3
2 8.97953033447265625 2 34 18 12
2 8.96312904357910156 3 90 40 29
2.00690221786499023 5 -2 255 236 223
2.19777679443359375 5 -1 255 220 189
2.14464044570922852 5 0 255 210 167
2.52803993225097656 6 -6 42 42 42
3 5.89966583251953125 -6 44 31 27
3 6 -6.12405014038085938 187 165 156
3 6 -5.84589099884033203 73 66 63
3 6.13351726531982422 -6 73 66 63
3 6.74771404266357422 -5 49 36 32
3 7 -5.22201871871948242 177 130 111
2.56186914443969727 7 -4 43 34 31
3 6.82260513305664062 -4 145 99 71
3 7 -3.5831451416015625 2 2 1
2.73009967803955078 7 3 59 30 26
3 6.88060379028320312 3 160 88 55
3 7 2.72822475433349609 81 35 26
3 6.89955043792724609 4 70 32 29
3 7 4.08744955062866211 63 29 26
3 7.19064569473266602 -5 85 58 47
2.55101847648620605 8 -4 108 66 52
3 7.50306224822998047 -4 2 2 1
3 7.54035329818725586 -3 73 42 27
3 8 -3.54641127586364746 130 75 51
3 7.66829824447631836 -2 121 66 34
3 7.70018577575683594 -1 145 80 39
3 7.70357704162597656 0 147 80 39
3 7.68452835083007812 1 125 64 34
3 7.64086198806762695 2 81 35 26
2.38162446022033691 8 3 90 40 29
3 7.30700206756591797 3 16 9 7
3 8 2.39947700500488281 69 35 23
3 7.07846164703369141 4 63 29 26
3 8.97190189361572266 -3 78 44 28
3 8.97962093353271484 -2 39 24 15
3 8.98000431060791016 -1 16 11 7
3 8.97986602783203125 0 15 10 6
3 8.97895240783691406 1 33 20 13
3 8.96570205688476562 2 69 35 23
3.2148585319519043 6 -6 73 66 63
3.88288593292236328 6 -5 49 36 32
4 5.93257999420166016 -5 109 69 50
4 6 -5.16614437103271484 115 81 67
4 6 -4.88707637786865234 11 8 6
3.27588725090026855 7 -5 85 58 47
4 6.13027334213256836 -5 11 8 6
4 6.76362276077270508 -4 81 44 27
4 7 -4.26698589324951172 124 75 53
3.54275417327880859 7 -3 73 42 27
4 6.79091310501098633 -3 150 86 43
3.90436315536499023 7 -2 121 66 34
4 6.93123435974121094 -2 195 115 63
4 7 -1.60823309421539307 51 24 15
3.95288658142089844 7 1 125 64 34
4 6.96556997299194336 1 200 116 66
4 7 0.781374096870422363 75 30 20
3.64403009414672852 7 2 81 35 26
4 6.82711935043334961 2 158 84 47
4 6.87889003753662109 3 91 39 29
3.10885071754455566 7 4 63 29 26
4 7 3.13048028945922852 43 24 21
4 7.18346643447875977 -4 54 35 25
3.39159655570983887 8 -3 78 44 28
4 7.38929510116577148 -3 6 4 2
3.89236569404602051 8 -2 39 24 15
4 7.63852405548095703 -2 51 24 15
4 7.50872373580932617 -1 74 31 19
4 8 -1.72590732574462891 88 48 28
4 7.56554841995239258 0 75 30 20
3.80198478698730469 8 1 33 20 13
4 7.30289936065673828 1 55 21 17
4 8 0.543998599052429199 69 38 24
3.30904483795166016 8 2 69 35 23
4 7.30610752105712891 2 14 7 6
4 7.09626054763793945 3 43 24 21
4 8.9388580322265625 -1 71 39 24
4 8.93197345733642578 0 69 38 24
4.16367578506469727 6 -5 11 8 6
4.88851070404052734 6 -4 81 44 27
5 5.92785406112670898 -4 112 58 30
5 6 -4.16171455383300781 83 53 40
5 6 -3.71801877021789551 8 4 3
4.21290159225463867 7 -4 54 35 25
5 6.09881210327148438 -4 8 4 3
4.67998886108398438 7 -3 6 4 2
5 6.79482650756835938 -2 100 46 23
5 7 -2.55862760543823242 69 41 28
4.35486888885498047 7 -1 74 31 19
5 6.78296041488647461 -1 124 62 28
4.39314603805541992 7 0 75 30 20
5 6.79311084747314453 0 125 62 29
5 6.84305620193481445 1 104 46 26
4.51800918579101562 7 2 14 7 6
5 7 1.37670230865478516 29 17 14
4.11008787155151367 7 3 43 24 21
5 7.1639409065246582 -2 33 21 15
4.14142942428588867 8 -1 71 39 24
5 7.23669910430908203 -1 14 8 5
4.12643671035766602 8 0 69 38 24
5 7.22530412673950195 0 12 7 5
5 7.12657785415649414 1 29 17 14
5.0911402702331543 6 -4 8 4 3
5.99472665786743164 6 -2 100 46 23
6 5.99603939056396484 -2 103 47 23
6 6 -2.01436948776245117 49 31 23
5.96415281295776367 6 -1 124 62 28
6 5.96956110000610352 -1 127 62 28
5.98072481155395508 6 0 125 62 29
6 5.98359298706054688 0 128 59 29
6 6 0.287719249725341797 6 2 2
5.16450691223144531 7 -2 33 21 15
6 6.00402736663818359 -2 14 7 5
5.24590635299682617 7 -1 14 8 5
6 6.04190492630004883 -1 5 2 1
5.23392820358276367 7 0 12 7 5
6 6.02248954772949219 0 6 2 2
5.12699508666992188 7 1 29 17 14
6.00340080261230469 6 -2 14 7 5
6.03339910507202148 6 -1 5 2 1
6.01797628402709961 6 0 6 2 2
3 2 1 0
3 1 4 3
3 0 1 3
3 4 5 3
3 2 0 6
3 0 3 7
3 6 0 7
3 3 5 7
3 10 9 8
3 9 11 8
3 1 2 12
3 4 1 12
3 13 4 12
3 4 13 5
3 10 8 14
3 8 11 14
3 17 16 15
3 18 15 2
3 18 2 6
3 15 16 2
3 12 2 19
3 16 19 2
3 6 20 18
3 6 7 20
3 19 21 12
3 21 13 12
3 21 23 5
3 21 5 13
3 23 22 5
3 7 5 20
3 22 20 5
3 23 24 22
3 17 15 25
3 15 18 26
3 25 15 26
3 18 20 27
3 26 18 27
3 20 22 28
3 27 20 28
3 22 24 28
3 31 30 29
3 10 29 30
3 10 30 9
3 33 32 30
3 32 9 30
3 9 32 11
3 31 29 34
3 34 35 37
3 34 14 35
3 34 29 14
3 10 14 29
3 33 36 32
3 36 39 11
3 36 11 32
3 39 38 11
3 14 11 35
3 38 35 11
3 17 38 39
3 17 39 16
3 16 39 40
3 42 41 19
3 42 19 40
3 40 19 16
3 21 19 41
3 43 21 41
3 43 45 44
3 43 44 21
3 21 44 23
3 46 24 23
3 46 23 47
3 47 23 44
3 47 49 48
3 46 47 48
3 49 50 48
3 37 35 51
3 35 38 52
3 51 35 52
3 38 17 25
3 38 25 52
3 52 25 53
3 42 55 41
3 56 53 54
3 53 26 54
3 53 25 26
3 26 57 54
3 26 27 57
3 55 58 41
3 58 43 41
3 45 43 58
3 59 60 27
3 59 27 28
3 27 60 57
3 24 46 61
3 24 61 28
3 28 61 59
3 46 48 62
3 61 46 62
3 48 50 62
3 56 54 63
3 54 57 64
3 63 54 64
3 57 60 64
3 67 66 65
3 31 65 66
3 31 66 30
3 69 68 66
3 68 30 66
3 30 68 33
3 67 65 70
3 70 71 73
3 70 34 71
3 70 65 34
3 31 34 65
3 69 72 68
3 71 34 37
3 68 72 33
3 72 36 33
3 72 74 36
3 76 75 39
3 76 39 74
3 74 39 36
3 40 39 75
3 77 40 75
3 40 77 42
3 44 45 78
3 47 44 78
3 79 47 78
3 79 81 80
3 79 80 47
3 47 80 49
3 82 50 49
3 82 49 83
3 83 49 80
3 83 84 82
3 73 71 85
3 71 37 51
3 71 51 85
3 85 51 86
3 76 88 75
3 89 86 87
3 86 52 87
3 86 51 52
3 52 90 87
3 52 53 90
3 88 91 75
3 91 77 75
3 90 53 56
3 77 91 42
3 91 55 42
3 91 92 55
3 92 93 55
3 55 93 58
3 60 59 94
3 45 58 78
3 58 95 78
3 58 93 95
3 59 96 94
3 59 61 96
3 95 97 78
3 97 79 78
3 81 79 97
3 98 99 61
3 98 61 62
3 61 99 96
3 50 82 100
3 50 100 62
3 62 100 98
3 82 84 100
3 89 87 101
3 87 90 102
3 101 87 102
3 90 56 63
3 90 63 102
3 102 63 103
3 103 63 104
3 63 64 104
3 60 94 105
3 60 105 64
3 64 105 104
3 94 96 106
3 105 94 106
3 96 99 106
3 66 67 107
3 66 107 69
3 107 67 70
3 73 109 107
3 73 107 70
3 109 108 107
3 69 107 72
3 108 72 107
3 111 110 74
3 111 74 108
3 108 74 72
3 74 110 76
3 80 81 112
3 112 114 113
3 112 113 80
3 80 113 83
3 83 113 115
3 84 83 115
3 109 73 85
3 116 109 85
3 111 118 110
3 119 116 117
3 116 86 117
3 116 85 86
3 117 86 89
3 110 118 76
3 118 88 76
3 118 120 88
3 120 121 88
3 88 121 91
3 121 122 91
3 91 122 92
3 122 123 92
3 92 123 93
3 123 124 93
3 93 124 95
3 124 125 95
3 95 125 97
3 99 98 126
3 81 97 112
3 97 127 112
3 97 125 127
3 114 112 127
3 128 129 98
3 128 98 100
3 98 129 126
3 128 100 84
3 115 128 84
3 119 117 130
3 117 89 101
3 117 101 130
3 130 101 131
3 131 101 132
3 101 102 132
3 132 102 133
3 102 103 133
3 133 103 134
3 103 104 134
3 134 104 135
3 104 105 135
3 135 105 136
3 105 106 136
3 99 126 137
3 99 137 106
3 106 137 136
3 126 129 137
3 140 139 138
3 139 142 141
3 138 139 141
3 142 144 143
3 141 142 143
3 144 146 145
3 143 144 145
3 146 147 145
3 150 149 148
3 149 151 148
3 140 138 152
3 138 141 153
3 152 138 153
3 141 143 154
3 153 141 154
3 143 145 155
3 154 143 155
3 145 147 155
3 150 148 156
3 159 156 148
3 159 148 157
3 151 158 148
3 158 157 148
3 109 157 158
3 109 158 108
3 108 158 160
3 108 160 161
3 111 108 161
3 114 163 162
3 113 114 162
3 164 115 113
3 164 113 165
3 165 113 162
3 165 166 164
3 159 157 167
3 157 109 116
3 157 116 167
3 167 116 168
3 161 169 111
3 111 169 118
3 170 168 116
3 170 116 119
3 169 171 118
3 118 171 120
3 171 172 120
3 120 172 121
3 172 173 121
3 121 173 122
3 175 174 123
3 175 123 173
3 173 123 122
3 174 177 176
3 174 176 123
3 123 176 124
3 176 178 124
3 124 178 125
3 178 179 125
3 125 179 127
3 181 128 180
3 181 129 128
3 163 114 179
3 114 127 179
3 115 164 182
3 115 182 128
3 128 182 180
3 164 166 182
3 170 119 130
3 183 170 130
3 183 130 184
3 130 131 184
3 184 131 185
3 131 132 185
3 185 132 186
3 132 133 186
3 174 175 186
3 174 186 134
3 134 186 133
3 177 174 134
3 177 134 187
3 187 134 135
3 187 135 188
3 135 136 188
3 188 136 189
3 136 137 189
3 189 137 129
3 181 189 129
3 192 191 190
3 140 190 191
3 140 191 139
3 139 191 193
3 193 194 139
3 139 194 142
3 194 195 142
3 142 195 144
3 195 196 144
3 144 196 146
3 146 196 197
3 147 146 197
3 150 199 198
3 149 150 198
3 149 198 200
3 151 149 200
3 192 190 201
3 190 140 152
3 190 152 201
3 201 152 202
3 202 152 203
3 152 153 203
3 203 153 204
3 153 154 204
3 204 154 205
3 154 155 205
3 205 155 147
3 197 205 147
3 199 150 156
3 206 199 156
3 200 207 151
3 151 207 158
3 208 206 156
3 208 156 159
3 210 209 160
3 210 160 207
3 207 160 158
3 160 209 161
3 162 163 211
3 211 213 212
3 211 212 162
3 162 212 165
3 165 212 214
3 166 165 214
3 208 159 167
3 215 208 167
3 210 217 209
3 218 215 216
3 215 168 216
3 215 167 168
3 216 168 170
3 209 217 161
3 217 169 161
3 217 219 169
3 219 220 169
3 169 220 171
3 220 221 171
3 171 221 172
3 223 222 173
3 223 173 221
3 221 173 172
3 173 222 175
3 176 177 224
3 224 226 225
3 224 225 176
3 176 225 178
3 225 227 178
3 178 227 179
3 181 180 228
3 163 179 211
3 179 229 211
3 179 227 229
3 213 211 229
3 230 231 180
3 230 180 182
3 180 231 228
3 230 182 166
3 214 230 166
3 218 216 232
3 216 170 183
3 216 183 232
3 232 183 233
3 233 183 234
3 183 184 234
3 234 184 235
3 184 185 235
3 222 223 235
3 222 235 186
3 186 235 185
3 222 186 175
3 224 177 187
3 226 224 187
3 226 187 236
3 236 187 188
3 236 188 237
3 188 189 237
3 181 228 238
3 181 238 189
3 189 238 237
3 228 231 238
3 192 240 239
3 191 192 239
3 239 241 191
3 191 241 193
3 241 242 193
3 193 242 194
3 242 243 194
3 194 243 195
3 243 244 195
3 195 244 196
3 196 244 245
3 197 196 245
3 199 247 246
3 198 199 246
3 198 246 248
3 200 198 248
3 240 192 201
3 249 240 201
3 249 201 250
3 201 202 250
3 252 203 251
3 252 250 203
3 250 202 203
3 251 253 254
3 251 203 253
3 203 204 253
3 253 204 255
3 204 205 255
3 255 205 197
3 245 255 197
3 247 199 206
3 256 247 206
3 248 257 200
3 200 257 207
3 258 256 206
3 258 206 208
3 207 257 259
3 210 207 259
3 252 251 260
3 251 254 260
3 213 262 261
3 212 213 261
3 212 261 263
3 214 212 263
3 258 208 215
3 264 258 215
3 259 265 210
3 210 265 217
3 266 264 215
3 266 215 218
3 265 267 217
3 217 267 219
3 267 268 219
3 219 268 220
3 270 269 221
3 270 221 268
3 268 221 220
3 221 269 223
3 226 272 271
3 225 226 271
3 271 273 225
3 225 273 227
3 273 274 227
3 227 274 229
3 276 230 275
3 276 231 230
3 262 213 274
3 213 229 274
3 275 230 214
3 263 275 214
3 266 218 232
3 277 266 232
3 277 232 278
3 232 233 278
3 278 233 279
3 233 234 279
3 269 270 279
3 269 279 235
3 235 279 234
3 269 235 223
3 272 226 236
3 280 272 236
3 280 236 281
3 236 237 281
3 281 237 282
3 237 238 282
3 282 238 231
3 276 282 231
3 240 284 283
3 239 240 283
3 283 285 239
3 239 285 241
3 285 286 241
3 241 286 242
3 286 287 242
3 242 287 243
3 287 288 243
3 243 288 244
3 244 288 289
3 245 244 289
3 247 291 290
3 246 247 290
3 246 290 292
3 248 246 292
3 284 240 249
3 293 284 249
3 293 249 294
3 249 250 294
3 295 250 252
3 295 296 250
3 296 294 250
3 254 296 295
3 254 253 296
3 253 297 296
3 297 253 298
3 253 255 298
3 298 255 245
3 289 298 245
3 291 247 256
3 299 291 256
3 292 300 248
3 248 300 257
3 301 299 256
3 301 256 258
3 302 259 257
3 302 257 303
3 303 257 300
3 303 304 302
3 295 252 260
3 295 260 254
3 307 306 305
3 262 305 306
3 262 306 261
3 261 306 308
3 261 308 309
3 263 261 309
3 301 258 264
3 310 301 264
3 259 302 265
3 264 266 312
3 264 312 310
3 312 266 311
3 314 312 311
3 304 313 302
3 313 265 302
3 313 267 265
3 313 315 267
3 267 315 268
3 316 270 268
3 316 268 317
3 317 268 315
3 317 318 316
3 321 320 319
3 272 319 320
3 272 320 271
3 271 320 322
3 322 323 271
3 271 323 273
3 326 324 325
3 323 307 274
3 323 274 273
3 274 307 305
3 305 262 274
3 325 324 275
3 325 275 327
3 275 324 276
3 327 275 263
3 309 327 263
3 311 266 277
3 314 311 277
3 314 277 328
3 328 277 278
3 328 278 329
3 278 279 329
3 270 316 330
3 270 330 279
3 279 330 329
3 316 318 330
3 321 319 331
3 319 272 280
3 319 280 331
3 331 280 332
3 332 280 333
3 280 281 333
3 324 326 333
3 324 333 282
3 282 333 281
3 324 282 276
3 283 284 334
3 334 336 335
3 334 335 283
3 283 335 285
3 335 337 285
3 285 337 286
3 337 338 286
3 286 338 287
3 340 339 288
3 340 288 338
3 338 288 287
3 288 339 289
3 290 291 341
3 290 341 292
3 334 284 293
3 336 334 293
3 336 293 342
3 342 293 294
3 342 294 343
3 294 296 343
3 343 296 344
3 296 297 344
3 339 340 344
3 339 344 298
3 298 344 297
3 339 298 289
3 341 291 299
3 300 292 341
3 300 341 345
3 299 301 341
3 301 345 341
3 345 347 346
3 345 346 300
3 300 346 303
3 303 346 348
3 304 303 348
3 307 350 349
3 306 307 349
3 352 351 308
3 352 308 349
3 349 308 306
3 308 351 309
3 345 301 310
3 347 345 310
3 347 310 353
3 353 310 312
3 348 354 304
3 304 354 313
3 355 353 312
3 355 312 314
3 354 356 313
3 313 356 315
3 356 357 315
3 315 357 317
3 358 318 317
3 358 317 359
3 359 317 357
3 359 361 360
3 358 359 360
3 321 360 361
3 321 361 320
3 320 361 362
3 362 363 320
3 320 363 322
3 363 364 322
3 322 364 323
3 366 325 365
3 366 326 325
3 350 307 364
3 307 323 364
3 351 352 365
3 351 365 327
3 327 365 325
3 351 327 309
3 355 314 328
3 367 355 328
3 367 328 368
3 328 329 368
3 368 329 369
3 329 330 369
3 318 358 370
3 318 370 330
3 330 370 369
3 358 360 371
3 370 358 371
3 360 321 331
3 360 331 371
3 371 331 372
3 372 331 373
3 331 332 373
3 373 332 374
3 332 333 374
3 374 333 326
3 366 374 326
3 335 336 375
3 337 335 375
3 376 337 375
3 338 337 376
3 377 338 376
3 338 377 340
3 380 379 378
3 379 381 378
3 375 336 342
3 376 375 342
3 343 376 342
3 377 376 343
3 344 377 343
3 377 344 340
3 380 378 382
3 383 346 378
3 383 378 381
3 346 347 378
3 382 378 384
3 347 384 378
3 385 348 346
3 385 346 386
3 386 346 383
3 386 387 385
3 390 389 388
3 350 388 389
3 350 389 349
3 349 389 391
3 349 391 392
3 352 349 392
3 384 347 353
3 393 384 353
3 348 385 354
3 353 355 395
3 353 395 393
3 395 355 394
3 397 395 394
3 387 396 385
3 396 354 385
3 396 356 354
3 396 398 356
3 356 398 357
3 398 399 357
3 357 399 359
3 399 400 359
3 359 400 361
3 400 401 361
3 361 401 362
3 401 402 362
3 362 402 363
3 405 403 404
3 402 390 364
3 402 364 363
3 364 390 388
3 388 350 364
3 404 403 365
3 404 365 406
3 365 403 366
3 406 365 352
3 392 406 352
3 394 355 367
3 397 394 367
3 397 367 407
3 407 367 368
3 407 368 408
3 368 369 408
3 408 369 409
3 369 370 409
3 409 370 410
3 370 371 410
3 410 371 411
3 371 372 411
3 411 372 412
3 372 373 412
3 403 405 412
3 403 412 374
3 374 412 373
3 403 374 366
3 379 380 413
3 414 381 379
3 414 379 415
3 413 416 379
3 416 415 379
3 415 417 414
3 413 380 382
3 413 419 416
3 413 418 419
3 413 382 418
3 384 418 382
3 381 414 383
3 421 419 418
3 417 420 414
3 420 383 414
3 420 386 383
3 422 387 386
3 422 386 423
3 423 386 420
3 423 425 424
3 422 423 424
3 425 426 424
3 429 428 427
3 428 431 430
3 427 428 430
3 390 430 431
3 390 431 389
3 389 431 432
3 434 433 391
3 434 391 432
3 432 391 389
3 391 433 392
3 418 384 393
3 421 418 393
3 421 393 435
3 435 393 395
3 387 422 396
3 395 397 437
3 395 437 435
3 437 397 436
3 437 436 439
3 439 436 438
3 396 422 424
3 396 424 398
3 441 439 438
3 426 440 424
3 440 398 424
3 440 399 398
3 440 442 399
3 399 442 400
3 445 443 444
3 442 429 401
3 442 401 400
3 401 429 427
3 444 443 447
3 447 443 446
3 401 427 430
3 401 430 402
3 430 390 402
3 447 446 404
3 447 404 448
3 404 446 405
3 433 434 448
3 433 448 406
3 406 448 404
3 433 406 392
3 436 397 407
3 438 436 407
3 408 438 407
3 441 438 408
3 441 408 449
3 449 408 409
3 449 409 450
3 409 410 450
3 443 445 450
3 443 450 411
3 411 450 410
3 446 443 411
3 412 446 411
3 446 412 405
3 415 416 451
3 452 417 415
3 452 415 453
3 451 454 415
3 454 453 415
3 453 455 452
3 451 416 419
3 451 457 454
3 451 456 457
3 451 419 456
3 421 456 419
3 417 452 420
3 456 458 455
3 456 455 457
3 458 423 455
3 452 455 420
3 423 420 455
3 458 460 459
3 458 459 423
3 423 459 425
3 461 426 425
3 461 425 462
3 462 425 459
3 462 464 463
3 461 462 463
3 429 463 464
3 429 464 428
3 428 464 465
3 467 466 431
3 467 431 465
3 465 431 428
3 432 431 466
3 468 432 466
3 432 468 434
3 456 421 435
3 458 456 435
3 437 458 435
3 460 458 437
3 460 437 469
3 469 437 439
3 426 461 440
3 439 441 471
3 439 471 469
3 471 441 470
3 471 470 473
3 473 470 472
3 440 461 463
3 440 463 442
3 463 429 442
3 473 472 444
3 473 444 474
3 444 472 445
3 466 467 474
3 466 474 447
3 447 474 444
3 468 466 447
3 448 468 447
3 468 448 434
3 470 441 449
3 472 470 449
3 450 472 449
3 472 450 445
3 453 454 475
3 453 475 455
3 478 477 476
3 477 480 479
3 476 477 479
3 480 482 481
3 479 480 481
3 482 483 481
3 475 454 457
3 475 457 455
3 484 485 478
3 484 478 460
3 476 459 478
3 459 460 478
3 485 484 487
3 487 484 486
3 459 476 479
3 459 479 462
3 487 486 489
3 489 486 488
3 462 479 481
3 462 481 464
3 488 490 483
3 488 483 489
3 490 465 483
3 481 483 464
3 465 464 483
3 465 490 467
3 484 460 469
3 486 484 469
3 471 486 469
3 488 486 471
3 473 488 471
3 490 488 473
3 474 490 473
3 490 474 467
3 477 478 491
3 480 477 491
3 492 480 491
3 482 480 492
3 493 482 492
3 482 493 483
3 491 478 485
3 492 491 485
3 487 492 485
3 493 492 487
3 489 493 487
3 493 489 483
