ply
format ascii 1.0
element vertex 596
property float x
property float y
property float z
property uchar red
property uchar green
property uchar blue
element face 1184
property list uchar int vertex_indices
end_header
-5.04592990875244141 5 0 243 178 178
-5 4.93616867065429688 0 249 176 176
-5 5 -0.145315632224082947 239 178 178
-5.16392993927001953 5 1 238 174 174
-5 4.75339841842651367 1 244 171 171
-5.05215597152709961 5 2 228 166 166
-5 4.92324018478393555 2 237 165 165
-5 5 2.13369107246398926 221 164 164
-5.27868366241455078 6 0 248 193 193
-5 6 -0.607125341892242432 249 197 197
-5.48401594161987305 6 1 244 192 192
-5.44183635711669922 6 2 241 192 192
-5.13597774505615234 6 3 242 194 194
-5 5.71565532684326172 3 217 161 161
-5 6 3.22784328460693359 242 200 200
-5.04165172576904297 7 0 253 214 254
-5 7 -0.141903996467590332 242 216 254
-5.1745600700378418 7 1 254 218 240
-5.16211462020874023 7 2 254 221 221
-5 6.83519840240478516 3 242 200 200
-5 7 2.86795902252197266 254 226 226
-5.00668048858642578 8 -1 244 234 254
-5 7.97336339950561523 -1 242 216 254
-5 8 -1.01384782791137695 237 248 254
-5.31394624710083008 8 0 252 236 254
-5.44992637634277344 8 1 247 238 254
-5.40467929840087891 8 2 239 243 254
-5.18095731735229492 8 3 238 254 250
-5 7.12418127059936523 3 254 228 228
-5 8 3.43506550788879395 247 254 242
-5 8.22587013244628906 -1 239 241 254
-5 8.92992973327636719 0 241 243 254
-5 8.94882774353027344 1 242 250 254
-5 8.94390773773193359 2 243 254 250
-5 8.88616752624511719 3 247 254 242
-4.19586467742919922 4 0 249 176 176
-4 3.70742011070251465 0 241 166 166
-4 4 -0.441693305969238281 248 178 178
-4.34324359893798828 4 1 244 171 171
-4 3.51217770576477051 1 237 163 163
-4.1670222282409668 4 2 237 165 165
-4 3.73984313011169434 2 231 158 158
-4 4 2.36831450462341309 232 164 164
-4.01953554153442383 5 -2 238 176 176
-4 4.9813532829284668 -2 251 180 180
-4 5 -2.02105426788330078 224 167 167
-4.63613748550415039 5 -1 239 178 178
-4 4.30513525009155273 -1 248 178 178
-4.46588230133056641 5 3 217 161 161
-4 4.42256689071655273 3 223 158 158
-4 5 3.48258614540100098 220 166 166
-4 5.10973072052001953 -2 226 170 170
-4.74941444396972656 6 -1 249 197 197
-4 6 -1.81280386447906494 251 201 201
-4.29027605056762695 6 4 246 204 204
-4 5.62937307357788086 4 220 166 166
-4 6 4.2244415283203125 249 211 211
-4.01615047454833984 7 -2 213 229 254
-4 6.91412639617919922 -2 251 201 201
-4 7 -2.01665997505187988 217 254 237
-4.65173053741455078 7 -1 242 216 254
-4.9634251594543457 7 3 254 228 228
-4.39513015747070312 7 4 254 229 229
-4 7 4.44913959503173828 254 233 235
-4.39699125289916992 8 -2 237 248 254
-4 8 -2.54888510704040527 248 254 240
-4.67983722686767578 8 4 254 247 240
-4 8 4.82996225357055664 244 254 248
-4 8.93187713623046875 -2 243 254 245
-4 8.96779537200927734 -1 245 254 249
-4 8.97479248046875 0 246 254 249
-4 8.97661972045898438 1 246 254 248
-4 8.97609043121337891 2 248 254 246
-4 8.97231101989746094 3 254 249 246
-4 8.95548629760742188 4 244 254 248
-3.11194372177124023 -1 1 137 122 122
-3 -1.03849971294403076 1 26 21 21
-3 -1 0.838049948215484619 110 108 121
-3 -1 1.0524066686630249 0 0 0
-3.07564902305603027 0 1 117 93 93
-3 0 0.790106534957885742 254 195 195
-3.31001949310302734 0 2 227 182 182
-3 -0.115919932723045349 2 254 248 248
-3.12598037719726562 0 3 14 11 11
-3 -0.170035764575004578 3 178 172 172
-3 0 3.06780529022216797 5 5 5
-3.24449968338012695 1 1 250 161 161
-3 1 0.538257360458374023 246 161 161
-3.16721534729003906 1 2 231 150 150
-3 0.319024890661239624 3 5 5 5
-3 1 2.28904414176940918 236 158 158
-3 1.65664935111999512 1 245 162 162
-3 1.43230736255645752 2 236 158 158
-3.3085784912109375 3 0 241 166 166
-3 2.5509192943572998 0 192 130 130
-3 3 -0.577295362949371338 236 165 165
-3.51413726806640625 3 1 237 163 163
-3 2.20495128631591797 1 177 120 120
-3.40443778038024902 3 2 231 158 158
-3 2.32564067840576172 2 154 104 104
-3 3 2.99647617340087891 218 152 152
-3.6663820743560791 4 -1 248 178 178
-3 3.23835372924804688 -1 236 165 165
-3 4 -1.79002940654754639 242 175 175
-3.60378885269165039 4 3 223 158 158
-3 3.00260615348815918 3 200 138 138
-3 4 3.72080802917480469 205 147 147
-3 4.16862916946411133 -2 242 175 175
-3 5 -2.80730485916137695 202 153 153
-3.39100956916809082 5 4 220 166 166
-3 4.38555049896240234 4 172 123 123
-3 5 4.31702041625976562 202 153 153
-3.76550006866455078 6 -2 251 201 201
-3 6 -2.48086643218994141 226 203 252
-3 6 4.81476259231567383 251 215 215
-3 7 -2.75897526741027832 223 254 251
-3.31415390968322754 7 5 231 235 254
-3 6.42371225357055664 5 250 214 230
-3 7 5.19485855102539062 242 254 235
-3.58843207359313965 8 -3 248 254 240
-3 7.3033289909362793 -3 223 254 251
-3 8 -3.56285285949707031 245 253 241
-3.80396080017089844 8 5 248 254 240
-3 8 5.50161647796630859 248 254 244
-3 8.94143199920654297 -3 254 252 245
-3 8.97206211090087891 -2 254 248 248
-3 8.97816658020019531 -1 254 251 248
-3 8.97986984252929688 0 254 254 249
-3 8.98023414611816406 1 254 254 249
-3 8.98013782501220703 2 254 251 249
-3 8.97920417785644531 3 249 254 249
-3 8.974822998046875 4 247 253 254
-3 8.9474639892578125 5 248 254 244
-2.0393989086151123 -3 1 230 143 143
-2 -3.01915478706359863 1 0 0 0
-2 -3 0.964477360248565674 200 129 129
-2 -3 1.30217969417572021 244 152 152
-2.02401876449584961 -2 1 26 21 21
-2 -2 0.94131779670715332 254 216 216
-2.72131896018981934 -2 2 154 109 109
-2 -2.88413405418395996 2 224 149 149
-2.54311180114746094 -2 3 232 152 152
-2 -2.38260841369628906 3 42 32 32
-2 -2 3.62543511390686035 245 158 158
-2.46005964279174805 -1 0 110 108 121
-2 -1.30902349948883057 0 254 216 216
-2 -1 -0.21022440493106842 56 49 55
-2 -1.34317529201507568 2 212 148 148
-2 -1 1.70816624164581299 28 27 27
-2.20494771003723145 -1 3 178 172 172
-2 -1 2.59373617172241211 234 234 234
-2 -1 3.5274655818939209 68 66 66
-2.00366854667663574 0 -1 36 26 26
-2 -0.00084460678044706583 -1 56 49 55
-2 0 -1.00163304805755615 58 39 39
-2.23078632354736328 0 0 254 195 195
-2 -0.730827450752258301 2 234 234 234
-2.88702583312988281 0 3 5 5 5
-2 -0.861880183219909668 3 68 66 66
-2 0 2.38871026039123535 97 83 83
-2.00049853324890137 0 4 252 250 251
-2 -0.00604769401252269745 4 176 163 163
-2 0 3.99912714958190918 253 249 252
-2 0 4.00170326232910156 93 91 91
-2 0.00280241039581596851 -1 12 8 8
-2.49729561805725098 1 0 246 161 161
-2 1 -0.340788811445236206 165 110 110
-2 1 2.87170743942260742 239 161 161
-2 0.0012356489896774292 4 93 91 91
-2.41001224517822266 2 0 192 130 130
-2 2 -0.466943830251693726 185 127 127
-2.79500699043273926 2 1 177 120 120
-2.6992497444152832 2 2 154 104 104
-2.21577596664428711 2 3 110 74 74
-2 1.38797986507415771 3 254 167 167
-2 2 3.21158385276794434 66 45 45
-2.6632232666015625 3 -1 236 165 165
-2 2.40296578407287598 -1 185 127 127
-2 3 -1.50745713710784912 223 157 157
-2.99779415130615234 3 3 200 138 138
-2 3 3.93493986129760742 165 116 116
-2.75582242012023926 4 -2 242 175 175
-2 3.42099905014038086 -2 223 157 157
-2 4 -2.49360895156860352 216 156 156
-2.67458271980285645 4 4 172 123 123
-2 3.09291529655456543 4 121 86 86
-2 4 4.40253925323486328 111 80 80
-2.64019560813903809 5 -3 202 153 153
-2 4.60264158248901367 -3 216 156 156
-2 5 -3.21660542488098145 165 139 183
-2.14506912231445312 5 5 153 115 115
-2 4.84079313278198242 5 41 30 30
-2 5 5.08929157257080078 6 4 4
-2 5.78415012359619141 -3 170 131 131
-2 6 -2.9169926643371582 209 233 252
-2.6875760555267334 6 5 250 214 230
-2 6 5.35204792022705078 209 232 244
-2.54105949401855469 7 -3 223 254 251
-2 6.25571298599243164 -3 209 233 252
-2 7 -3.20189046859741211 247 254 227
-2 7 5.66450023651123047 253 253 237
-2.42275643348693848 8 -4 245 253 241
-2 7.78105926513671875 -4 247 254 227
-2 8 -4.25074863433837891 228 217 218
-2.02237510681152344 8 6 236 236 251
-2 7.96384286880493164 6 251 241 232
-2 8 6.00974082946777344 237 222 237
-2 8.90141010284423828 -4 247 240 246
-2 8.96986007690429688 -3 248 247 252
-2 8.97815322875976562 -2 249 253 253
-2 8.98021602630615234 -1 250 254 250
-2 8.98031711578369141 0 253 254 250
-2 8.98005008697509766 1 253 254 251
-2 8.98019027709960938 2 252 254 254
-2 8.98036575317382812 3 252 251 254
-2 8.97867393493652344 4 250 254 250
-2 8.96830558776855469 5 248 245 252
-2 8.29083156585693359 6 237 222 237
-1.02218008041381836 -3 0 200 129 129
-1 -3.01359009742736816 0 221 192 192
-1 -3 -0.00599253736436367035 254 176 176
-1 -3.23140430450439453 1 35 32 32
-1.74496042728424072 -3 2 224 149 149
-1 -3.1488184928894043 2 39 36 36
-1 -3 2.47095608711242676 199 142 142
-1 -2.99084305763244629 0 247 155 155
-1 -2 0.74352794885635376 88 77 77
-1 -2.74816370010375977 3 4 3 3
-1.32657837867736816 -2 4 249 156 156
-1 -2.1118466854095459 4 95 74 74
-1 -2 4.10742807388305664 252 163 163
-1 -1.21859240531921387 0 88 77 77
-1 -1 -0.556724846363067627 207 213 241
-1.5369720458984375 -1 1 28 27 27
-1 -1.52987909317016602 1 141 107 107
-1 -1 0.418444931507110596 126 115 115
-1.6915593147277832 -1 2 234 234 234
-1 -1 1.55656516551971436 252 243 243
-1.6226036548614502 -1 4 176 163 163
-1 -1 4.43249225616455078 253 229 229
-1 -0.154931783676147461 -1 207 213 241
-1 0 -1.09159231185913086 24 16 16
-1 -0.491507887840270996 1 252 243 243
-1.2650991678237915 0 3 253 249 252
-1 0 4.81434869766235352 100 97 97
-1 0.212500929832458496 -1 6 4 4
-1 1 -0.584978878498077393 137 93 93
-1 0.944547116756439209 3 128 130 130
-1 1 2.96248126029968262 252 171 171
-1 0.632850587368011475 4 100 97 97
-1.0917203426361084 2 -1 185 127 127
-1 1.91743242740631104 -1 137 93 93
-1 2 -1.03317165374755859 161 111 111
-1 1.06022751331329346 3 251 167 167
-1 2 3.58407020568847656 25 17 17
-1 3 -1.96865904331207275 182 129 129
-1.87451803684234619 3 4 121 86 86
-1 2.5023038387298584 4 19 13 13
-1 3 4.2899632453918457 45 33 33
-1 3.02480006217956543 -2 182 129 129
-1 4 -2.88035917282104492 145 106 106
-1 4 4.71557044982910156 15 11 11
-1 4.16550302505493164 -3 145 106 106
-1 5 -3.34894847869873047 128 148 165
-1 4.33922624588012695 5 59 44 44
-1 5 5.40535593032836914 165 125 125
-1.65821313858032227 6 -3 209 233 252
-1 6 -3.12917041778564453 252 248 211
-1 6 5.62745428085327148 191 222 198
-1 7 -3.4115455150604248 254 241 232
-1 7 5.95211124420166016 251 249 238
-1 7.52260637283325195 -4 254 241 232
-1 8 -4.61532831192016602 147 141 141
-1 7.10962295532226562 6 239 247 231
-1 8 6.28882217407226562 137 127 134
-1 8.95376682281494141 -4 203 198 198
-1 8.97536087036132812 -3 233 228 228
-1 8.97973251342773438 -2 245 241 241
-1 8.98035717010498047 -1 250 247 247
-1 8.97964668273925781 0 253 251 252
-1 8.97908687591552734 1 253 253 253
-1 8.97951793670654297 2 254 254 254
-1 8.98033046722412109 3 253 254 254
-1 8.97962379455566406 4 252 251 252
-1 8.97340488433837891 5 242 235 235
-1 8.92275428771972656 6 137 127 134
0 -3.09850025177001953 0 237 212 212
0 -3 -0.0567536801099777222 12 8 8
0 -3.25575995445251465 1 152 139 139
0 -3.19120693206787109 2 235 215 215
0 -3 2.63305091857910156 201 150 150
0 -2.79903388023376465 0 252 159 159
0 -2 0.399377256631851196 223 185 185
0 -2.84865164756774902 3 164 128 128
0 -2.15656113624572754 4 245 176 176
0 -2 4.12974166870117188 254 169 169
0 -1.47592365741729736 0 223 185 185
0 -1 -0.760359406471252441 191 156 190
0 -1.38083016872406006 1 226 165 165
0 -1 0.49539649486541748 185 167 167
0 -1 1.38011813163757324 237 237 240
0 -1 4.65810441970825195 6 5 5
-0.585565745830535889 0 -1 6 4 4
0 0 -0.785836279392242432 6 4 4
0 -0.484910726547241211 1 237 237 240
-0.225710973143577576 0 5 221 211 211
0 -0.141634672880172729 5 251 181 181
0 0 5.03566980361938477 198 183 193
0 1 -0.421359360218048096 128 87 87
0 0.909612298011779785 3 218 228 223
0 1 2.79784727096557617 251 172 172
0 0.51693803071975708 4 253 242 252
-0.169395864009857178 1 5 173 123 123
0 1 4.73493337631225586 246 170 170
0 1 5.44673728942871094 234 168 168
0 1.92169618606567383 -1 128 87 87
0 2 -1.04277586936950684 107 74 74
0 1.23083615303039551 3 253 171 171
0 2 3.48964524269104004 19 13 13
0 1.15507912635803223 5 234 168 168
-0.434075415134429932 3 -2 182 129 129
0 2.97920060157775879 -2 107 74 74
0 3 -2.01513671875 102 72 72
0 2.53346776962280273 4 60 43 43
0 3 4.32734155654907227 59 44 44
0 4 -2.95648026466369629 37 27 27
0 4 4.7323603630065918 100 75 75
0 4.0727229118347168 -3 37 27 27
0 5 -3.29685258865356445 135 161 169
0 4.31805801391601562 5 157 120 120
0 5 5.38617467880249023 239 182 182
0 6 -3.13432502746582031 252 229 216
0 6 5.57154703140258789 171 196 182
0 7 -3.47632932662963867 235 253 243
0 7 5.89819192886352539 233 244 234
0 7.44280385971069336 -4 235 253 243
0 8 -4.73127841949462891 77 74 74
0 7.18767261505126953 6 227 242 231
0 8 6.31585168838500977 105 101 112
0 8.95963382720947266 -4 9 8 8
0 8.97656917572021484 -3 115 111 111
0 8.98005485534667969 -2 200 195 195
0 8.98024749755859375 -1 238 234 234
0 8.97939014434814453 0 249 248 248
0 8.9789581298828125 1 252 250 252
0 8.97956466674804688 2 252 250 252
0 8.98035526275634766 3 252 249 249
0 8.97963428497314453 4 244 243 243
0 8.97452354431152344 5 175 167 167
0 8.93679237365722656 6 105 101 112
0.570215880870819092 -3 0 252 159 159
1 -3.07257199287414551 1 254 229 229
1 -3 0.538016438484191895 254 161 161
0.961452007293701172 -3 2 201 150 150
1 -3 1.91146767139434814 251 172 172
1 -2 0.10066492110490799 159 122 122
1 -2.98861217498779297 2 236 176 176
1 -2.61067938804626465 3 247 181 181
0.462814301252365112 -2 4 254 169 169
1 -2 3.7670748233795166 254 169 169
1 -1.53703832626342773 0 159 122 122
1 -1 -0.123762913048267365 53 40 40
0.883786141872406006 -1 1 237 237 240
1 -1.70515000820159912 4 254 175 175
1 -1 4.43056154251098633 241 185 185
0.788104832172393799 0 0 22 15 15
1 -0.553795158863067627 0 254 218 218
0.913768887519836426 0 1 239 177 177
1 -0.403202623128890991 1 17 18 18
0.0851465612649917603 0 2 42 37 38
1 -0.517461717128753662 2 252 236 236
1 0 2.44423389434814453 10 9 9
0.350853174924850464 0 5 198 183 193
1 0 4.90468549728393555 47 50 52
0.683812558650970459 1 0 213 147 147
1 0.173309415578842163 1 161 112 112
1 1 0.388218492269515991 205 140 140
0.885114669799804688 1 2 251 172 172
1 1 1.80747377872467041 248 171 171
1 0.690589666366577148 3 86 96 92
1 0.347509771585464478 4 47 50 52
1 0.180627927184104919 5 125 144 138
1 1 4.79710674285888672 254 179 179
1 1 5.37813377380371094 251 182 182
0.123159691691398621 2 -1 104 73 73
1 1.35355031490325928 0 205 140 140
1 2 -0.504425168037414551 23 16 16
1 1.12559318542480469 2 243 167 167
1 1.98231792449951172 3 254 175 175
1 2 3.01212668418884277 85 62 62
1 1.16209733486175537 5 251 182 182
0.0615960769355297089 3 -2 111 79 79
1 2.38337826728820801 -1 23 16 16
1 3 -1.61259782314300537 17 12 12
1 2.92569828033447266 4 131 97 97
1 3 4.05825281143188477 172 131 131
1 3.28431844711303711 -2 17 12 12
1 4 -2.68575119972229004 52 39 39
1 4 4.46329832077026367 199 153 153
1 4.70660829544067383 -3 52 39 39
1 5 -3.06958675384521484 157 185 152
1 4.78026676177978516 5 222 177 227
1 5 5.10011672973632812 238 192 245
0.745981574058532715 6 -3 220 253 241
1 5.63960504531860352 -3 139 123 148
1 6 -2.93660521507263184 250 238 222
1 6 5.32802772521972656 196 193 174
1 6.1325688362121582 -3 250 238 222
1 7 -3.36787629127502441 237 223 223
1 7 5.68538188934326172 208 208 219
1 7.51061010360717773 -4 237 223 223
1 8 -4.60442018508911133 246 228 228
1 7.64043903350830078 6 216 229 222
1 8 6.11323451995849609 200 209 230
1 8.95434379577636719 -4 217 199 199
1 8.97580432891845703 -3 102 95 95
1 8.97983074188232422 -2 63 61 61
1 8.98037147521972656 -1 194 192 192
1 8.97997093200683594 0 236 235 235
1 8.97985172271728516 1 247 243 243
1 8.98023414611816406 2 249 244 244
1 8.98030757904052734 3 245 242 242
1 8.97875785827636719 4 209 207 207
1 8.97207164764404297 5 15 14 14
1 8.85581779479980469 6 200 209 230
1.16240835189819336 -3 1 251 172 172
2 -2.36992645263671875 1 254 174 174
2 -2 0.555605888366699219 250 174 174
2 -2.34384059906005859 2 253 180 180
1.8805382251739502 -2 3 254 169 169
2 -2 2.80852723121643066 254 166 166
1.09890317916870117 -1 0 254 218 218
1.40464293956756592 -1 1 17 18 18
2 -1.26637017726898193 1 254 165 165
2 -1 1.1715472936630249 213 227 203
2 -1.84946238994598389 3 254 171 171
1.76842093467712402 -1 4 241 185 185
2 -1 3.7776792049407959 232 182 233
2 -0.74725574254989624 2 5 4 5
2 0 2.64860272407531738 254 191 191
2 -0.756753981113433838 4 254 182 182
2 0 4.39217710494995117 190 233 192
1.28406572341918945 1 1 248 171 171
2 0.395952135324478149 3 180 221 209
2 0.14887470006942749 4 190 233 192
1.49141240119934082 1 5 251 182 182
1.44629120826721191 2 0 9 6 6
1.83636653423309326 2 1 12 9 9
1.65921735763549805 2 2 40 29 29
1.01393532752990723 2 3 85 62 62
1.69930124282836914 3 -1 48 34 34
2 2.56641364097595215 0 98 69 69
2 3 -0.582944869995117188 44 32 32
2 2.17276549339294434 1 125 89 89
2 2.3390052318572998 2 149 108 108
2 2.90467977523803711 3 178 130 130
1.09335088729858398 3 4 172 131 131
2 3 3.10506582260131836 199 151 151
2 3.90314054489135742 -2 81 58 58
2 4 -2.09167957305908203 99 76 86
2 3.2285003662109375 -1 44 32 32
1.86501491069793701 4 4 199 153 153
2 4 3.88818573951721191 217 167 193
1.16303610801696777 5 -3 139 123 148
2 5 -2.47644138336181641 130 156 136
2 4.1306309700012207 4 246 193 248
1.190177321434021 5 5 238 192 245
2 5 4.42778396606445312 163 182 202
2 6 -2.44385409355163574 211 232 237
1.72027456760406494 6 5 196 193 174
2 6 4.82601499557495117 223 216 206
2 6.92631959915161133 -3 211 232 237
2 7 -3.04236841201782227 116 107 107
2 6.40210056304931641 5 185 185 168
2 7 5.30949687957763672 159 154 163
2 7.71611404418945312 -4 116 107 107
2 8 -4.32806587219238281 193 172 172
1.27416062355041504 8 6 200 209 230
2 8 5.58936834335327148 168 155 155
2 8.92780971527099609 -4 220 196 196
2 8.97282314300537109 -3 251 229 229
2 8.97879695892333984 -2 122 116 116
2 8.98017501831054688 -1 96 94 94
2 8.98038005828857422 0 204 204 204
2 8.98037052154541016 1 235 231 231
2 8.98009872436523438 2 240 236 236
2 8.97886466979980469 3 228 226 226
2 8.97512626647949219 4 130 128 128
2 8.95754623413085938 5 168 155 155
2.33102226257324219 -2 1 254 165 165
2.31702017784118652 -2 2 254 166 166
2.77592992782592773 -1 2 5 4 5
2.51323175430297852 -1 3 232 182 233
3 -0.201953798532485962 3 254 180 254
3 0 2.96284914016723633 112 76 76
2.44820713996887207 0 4 190 233 192
3 0 3.17979216575622559 189 254 231
3 0.0397253111004829407 3 189 254 231
2.26664948463439941 3 0 46 34 34
2.47575855255126953 3 1 84 61 61
2.40336108207702637 3 2 138 103 103
2.06613349914550781 3 3 199 151 151
2.09607672691345215 4 -2 56 43 43
2.6604464054107666 4 -1 7 5 5
2.91181206703186035 4 0 46 35 35
3 3.89664292335510254 1 178 132 169
3 4 0.579969167709350586 12 15 12
3 3.91514682769775391 2 199 166 220
2.6775507926940918 4 3 217 167 193
3 4 2.1578671932220459 145 141 181
2.55350780487060547 5 -2 115 115 136
3 4.53192329406738281 -1 16 21 19
3 5 -1.36526739597320557 112 106 94
3 4.12674188613891602 0 12 15 12
3 4.55773162841796875 3 215 193 248
2.45782113075256348 5 4 163 182 202
3 5 3.27554488182067871 28 30 25
2.58736491203308105 6 -2 229 235 210
3 6 -1.54198873043060303 180 160 160
2.87163782119750977 6 4 223 216 206
3 6 3.83983016014099121 202 216 217
2.0740046501159668 7 -3 182 170 170
3 6.56322574615478516 -2 180 160 160
3 7 -2.30403876304626465 27 24 24
3 6.20380163192749023 4 196 213 198
2.31053328514099121 7 5 159 154 163
3 7 4.45276117324829102 197 175 180
2.85278606414794922 8 -4 220 196 196
3 7.40217161178588867 -3 27 24 24
3 8 -3.92322516441345215 65 57 57
2.8813927173614502 8 5 168 155 155
3 8 4.87796449661254883 40 39 39
3 8.96387195587158203 -3 189 171 171
3 8.97585296630859375 -2 249 236 236
3 8.97844791412353516 -1 62 60 60
3 8.97888660430908203 0 140 139 139
3 8.9782257080078125 1 213 211 211
3 8.97612857818603516 2 228 225 225
3 8.97124671936035156 3 205 205 205
3 8.95620918273925781 4 40 39 39
3.05934500694274902 0 3 189 254 231
3.04390668869018555 4 1 39 50 46
3.04107451438903809 4 2 145 141 181
3.19057035446166992 5 -1 135 119 115
3.39766263961791992 5 0 176 177 152
3.44583463668823242 5 1 187 185 162
3.42519760131835938 5 2 102 119 103
3.16144680976867676 5 3 28 30 25
3.3408665657043457 6 -1 188 169 169
3.68598651885986328 6 0 200 182 182
3.85158252716064453 6 1 196 203 213
3.84064674377441406 6 2 201 216 202
3.47635960578918457 6 3 202 216 217
3.27862763404846191 7 -2 110 102 102
3.85347366333007812 7 -1 178 168 168
4 6.71051788330078125 0 64 58 58
4 7 -0.507073938846588135 54 51 51
4 6.38232707977294922 1 45 41 41
4 6.35879278182983398 2 59 54 54
4 6.87195920944213867 3 159 145 159
3.32970833778381348 7 4 197 175 180
4 7 3.09630227088928223 232 198 198
4 7.83761978149414062 -3 236 209 209
4 8 -3.23428893089294434 55 48 48
4 7.41542530059814453 -2 92 84 84
4 7.10462284088134766 -1 54 51 51
3.66832208633422852 8 4 40 39 39
4 8 3.35735011100769043 177 177 177
4 8.89560604095458984 -3 31 28 28
4 8.96617603302001953 -2 186 175 175
4 8.97265243530273438 -1 235 228 228
4 8.97200965881347656 0 7 7 7
4 8.96600818634033203 1 162 162 162
4 8.94808197021484375 2 207 205 205
4 8.85766983032226562 3 177 177 177
4.10292959213256836 7 0 113 106 106
4.16945934295654297 7 1 67 63 63
4.19380521774291992 7 2 174 157 157
4.05706691741943359 7 3 232 198 198
4.2582244873046875 8 -3 31 28 28
5 7.92998075485229492 -2 247 224 224
5 8 -2.14157867431640625 90 81 81
5 7.71188020706176758 -1 104 96 96
5 7.70453357696533203 0 10 10 10
5 7.95639562606811523 1 27 25 25
4.49346303939819336 8 2 207 205 205
5 8 1.08003795146942139 6 6 6
4.1395106315612793 8 3 177 177 177
5 8.80255031585693359 -2 8 8 8
5 8.94481658935546875 -1 171 164 164
5 8.93985271453857422 0 239 234 234
5 8.61989307403564453 1 6 6 6
5.09305191040039062 8 -2 8 8 8
5.4828648567199707 8 -1 171 164 164
5.56347990036010742 8 0 239 234 234
5.0601353645324707 8 1 6 6 6
3 2 1 0
3 1 4 3
3 0 1 3
3 4 6 5
3 3 4 5
3 6 7 5
3 9 2 0
3 8 9 0
3 0 3 8
3 3 10 8
3 3 5 10
3 5 11 10
3 7 13 12
3 7 12 5
3 5 12 11
3 13 14 12
3 16 9 8
3 15 16 8
3 8 10 15
3 10 17 15
3 10 11 17
3 11 18 17
3 19 20 18
3 19 18 12
3 12 18 11
3 12 14 19
3 23 22 21
3 22 16 15
3 22 15 21
3 21 15 24
3 15 17 24
3 17 25 24
3 17 18 25
3 18 26 25
3 20 28 27
3 20 27 18
3 18 27 26
3 28 29 27
3 23 21 30
3 21 24 31
3 30 21 31
3 24 25 32
3 31 24 32
3 25 26 33
3 32 25 33
3 26 27 34
3 33 26 34
3 27 29 34
3 37 36 35
3 36 39 38
3 35 36 38
3 39 41 40
3 38 39 40
3 41 42 40
3 45 44 43
3 44 47 46
3 43 44 46
3 35 1 2
3 37 35 2
3 37 2 46
3 37 46 47
3 38 1 35
3 4 1 38
3 40 4 38
3 6 4 40
3 6 48 7
3 40 48 6
3 40 49 48
3 40 42 49
3 49 50 48
3 45 43 51
3 53 51 43
3 53 43 52
3 52 43 46
3 46 9 52
3 2 9 46
3 48 13 7
3 13 54 14
3 48 54 13
3 48 55 54
3 48 50 55
3 55 56 54
3 59 58 57
3 58 53 52
3 58 52 57
3 57 52 60
3 52 16 60
3 9 16 52
3 19 61 20
3 14 61 19
3 14 54 61
3 54 62 61
3 56 63 62
3 54 56 62
3 65 59 57
3 64 65 57
3 23 60 22
3 23 64 60
3 64 57 60
3 60 16 22
3 61 28 20
3 28 66 29
3 28 61 66
3 61 62 66
3 63 67 66
3 62 63 66
3 65 64 68
3 64 23 30
3 64 30 68
3 68 30 69
3 69 30 70
3 30 31 70
3 70 31 71
3 31 32 71
3 71 32 72
3 32 33 72
3 72 33 73
3 33 34 73
3 29 66 74
3 29 74 34
3 34 74 73
3 66 67 74
3 77 76 75
3 76 78 75
3 80 77 75
3 79 80 75
3 78 82 81
3 78 81 75
3 75 81 79
3 82 84 83
3 81 82 83
3 84 85 83
3 87 80 79
3 86 87 79
3 79 81 86
3 81 88 86
3 89 90 88
3 89 88 83
3 83 88 81
3 83 85 89
3 87 86 91
3 86 88 92
3 91 86 92
3 88 90 92
3 95 94 93
3 94 97 96
3 93 94 96
3 97 99 98
3 96 97 98
3 99 100 98
3 103 102 101
3 93 36 37
3 95 93 37
3 95 37 101
3 95 101 102
3 96 36 93
3 39 36 96
3 98 39 96
3 41 39 98
3 41 104 42
3 98 104 41
3 98 105 104
3 98 100 105
3 105 106 104
3 45 108 107
3 44 45 107
3 101 107 103
3 101 47 107
3 47 44 107
3 101 37 47
3 104 49 42
3 49 109 50
3 104 109 49
3 104 110 109
3 104 106 110
3 110 111 109
3 51 112 113
3 51 113 45
3 45 113 108
3 51 53 112
3 109 55 50
3 55 109 111
3 55 111 56
3 56 111 114
3 112 58 59
3 112 59 113
3 113 59 115
3 112 53 58
3 116 114 117
3 116 63 114
3 63 56 114
3 117 118 116
3 121 120 119
3 120 65 119
3 120 115 65
3 115 59 65
3 122 63 116
3 67 63 122
3 118 123 122
3 116 118 122
3 121 119 124
3 119 65 68
3 119 68 124
3 124 68 125
3 125 68 126
3 68 69 126
3 126 69 127
3 69 70 127
3 127 70 128
3 70 71 128
3 128 71 129
3 71 72 129
3 129 72 130
3 72 73 130
3 130 73 131
3 73 74 131
3 67 122 132
3 67 132 74
3 74 132 131
3 122 123 132
3 135 134 133
3 134 136 133
3 138 135 133
3 137 138 133
3 136 140 139
3 136 139 133
3 133 139 137
3 140 142 141
3 139 140 141
3 142 143 141
3 146 145 144
3 137 76 77
3 138 137 77
3 138 77 144
3 138 144 145
3 147 137 139
3 147 78 137
3 147 148 78
3 78 76 137
3 150 147 139
3 150 139 149
3 149 139 141
3 143 151 149
3 141 143 149
3 154 153 152
3 153 146 144
3 153 144 152
3 152 144 155
3 144 80 155
3 77 80 144
3 148 82 78
3 156 82 148
3 159 157 158
3 156 150 84
3 156 84 82
3 84 150 149
3 149 85 84
3 149 160 85
3 149 151 160
3 161 160 151
3 158 157 162
3 161 163 160
3 154 152 164
3 166 164 152
3 166 152 165
3 165 152 155
3 155 87 165
3 80 87 155
3 157 90 89
3 157 159 90
3 159 167 90
3 85 160 168
3 85 168 89
3 162 157 168
3 157 89 168
3 160 163 168
3 170 166 165
3 169 170 165
3 91 165 87
3 91 171 165
3 171 169 165
3 92 171 91
3 172 171 92
3 174 90 167
3 174 172 90
3 174 173 172
3 92 90 172
3 174 175 173
3 178 177 176
3 169 94 95
3 170 169 95
3 170 95 176
3 170 176 177
3 171 94 169
3 97 94 171
3 172 97 171
3 99 97 172
3 99 179 100
3 99 172 179
3 172 173 179
3 175 180 179
3 173 175 179
3 183 182 181
3 176 102 103
3 178 176 103
3 178 103 181
3 178 181 182
3 176 95 102
3 179 105 100
3 105 184 106
3 179 184 105
3 179 185 184
3 179 180 185
3 185 186 184
3 189 188 187
3 181 107 108
3 183 181 108
3 183 108 187
3 183 187 188
3 181 103 107
3 184 110 106
3 110 190 111
3 184 190 110
3 184 191 190
3 184 186 191
3 191 192 190
3 189 187 193
3 187 194 193
3 187 108 194
3 108 113 194
3 195 111 190
3 114 111 195
3 192 196 195
3 190 192 195
3 199 198 197
3 198 115 197
3 198 194 115
3 194 113 115
3 195 117 114
3 117 195 196
3 117 196 118
3 118 196 200
3 203 202 201
3 197 120 121
3 199 197 121
3 199 121 201
3 199 201 202
3 197 115 120
3 204 200 205
3 204 123 200
3 123 118 200
3 205 206 204
3 203 201 207
3 201 121 124
3 201 124 207
3 207 124 208
3 208 124 209
3 124 125 209
3 209 125 210
3 125 126 210
3 210 126 211
3 126 127 211
3 211 127 212
3 127 128 212
3 212 128 213
3 128 129 213
3 213 129 214
3 129 130 214
3 214 130 215
3 130 131 215
3 215 131 216
3 131 132 216
3 123 204 217
3 123 217 132
3 132 217 216
3 204 206 217
3 220 219 218
3 135 218 219
3 135 219 134
3 134 219 221
3 222 136 134
3 222 134 223
3 223 134 221
3 223 224 222
3 220 218 225
3 218 226 225
3 218 135 226
3 135 138 226
3 222 140 136
3 224 140 222
3 224 227 140
3 227 142 140
3 228 143 142
3 228 142 229
3 229 142 227
3 229 230 228
3 146 232 231
3 145 146 231
3 231 138 145
3 231 226 138
3 234 235 233
3 237 234 233
3 236 148 147
3 147 150 236
3 238 143 228
3 151 143 238
3 230 239 238
3 228 230 238
3 154 241 240
3 153 154 240
3 240 146 153
3 232 146 240
3 235 242 233
3 233 242 237
3 148 236 156
3 156 236 150
3 159 158 243
3 151 238 161
3 158 162 243
3 161 238 239
3 161 239 163
3 163 239 244
3 241 154 164
3 245 241 164
3 164 246 245
3 166 246 164
3 247 159 243
3 247 248 159
3 248 167 159
3 243 162 168
3 243 168 247
3 247 168 249
3 249 168 163
3 244 249 163
3 252 251 250
3 251 170 250
3 251 246 170
3 246 166 170
3 248 174 167
3 253 174 248
3 174 253 254
3 175 174 254
3 250 177 178
3 250 178 252
3 252 178 255
3 250 170 177
3 256 254 257
3 256 180 254
3 180 175 254
3 257 258 256
3 183 260 259
3 182 183 259
3 259 178 182
3 255 178 259
3 256 185 180
3 185 256 258
3 185 258 186
3 186 258 261
3 189 263 262
3 188 189 262
3 262 183 188
3 260 183 262
3 261 191 186
3 264 191 261
3 191 264 265
3 192 191 265
3 193 266 267
3 193 267 189
3 189 267 263
3 193 194 266
3 265 268 192
3 268 196 192
3 266 198 199
3 266 199 267
3 267 199 269
3 266 194 198
3 268 270 196
3 270 200 196
3 203 272 271
3 202 203 271
3 271 199 202
3 269 199 271
3 270 205 200
3 273 205 270
3 205 273 274
3 206 205 274
3 272 203 207
3 275 272 207
3 275 207 276
3 207 208 276
3 276 208 277
3 208 209 277
3 277 209 278
3 209 210 278
3 278 210 279
3 210 211 279
3 279 211 280
3 211 212 280
3 280 212 281
3 212 213 281
3 281 213 282
3 213 214 282
3 282 214 283
3 214 215 283
3 283 215 284
3 215 216 284
3 284 216 285
3 216 217 285
3 285 217 206
3 274 285 206
3 220 287 286
3 219 220 286
3 286 288 219
3 219 288 221
3 288 289 221
3 221 289 223
3 223 289 290
3 224 223 290
3 287 220 225
3 291 287 225
3 225 292 291
3 226 292 225
3 290 227 224
3 293 227 290
3 293 294 227
3 227 294 229
3 229 294 295
3 230 229 295
3 232 297 296
3 231 232 296
3 299 234 298
3 299 235 234
3 292 226 296
3 226 231 296
3 234 300 298
3 237 300 234
3 295 301 230
3 301 239 230
3 240 241 302
3 302 232 240
3 302 303 232
3 303 297 232
3 299 242 235
3 304 242 299
3 304 237 242
3 300 237 304
3 305 301 306
3 305 244 301
3 244 239 301
3 306 307 305
3 302 241 245
3 245 303 302
3 245 246 303
3 246 308 303
3 248 309 310
3 247 309 248
3 309 247 311
3 247 249 311
3 244 311 249
3 244 312 311
3 244 305 312
3 312 313 311
3 307 314 312
3 305 307 312
3 252 316 315
3 251 252 315
3 315 246 251
3 308 246 315
3 310 253 248
3 317 253 310
3 253 317 318
3 254 253 318
3 313 312 319
3 312 314 319
3 322 321 320
3 321 255 320
3 321 316 255
3 316 252 255
3 318 257 254
3 323 257 318
3 257 323 324
3 258 257 324
3 320 259 260
3 320 260 322
3 322 260 325
3 320 255 259
3 324 326 258
3 326 261 258
3 263 328 327
3 262 263 327
3 327 260 262
3 325 260 327
3 326 264 261
3 329 264 326
3 264 329 330
3 265 264 330
3 328 263 331
3 331 263 267
3 330 332 265
3 332 268 265
3 331 267 333
3 333 267 269
3 332 334 268
3 334 270 268
3 272 336 335
3 271 272 335
3 335 269 271
3 333 269 335
3 334 273 270
3 337 273 334
3 273 337 338
3 274 273 338
3 336 272 275
3 339 336 275
3 339 275 340
3 275 276 340
3 340 276 341
3 276 277 341
3 341 277 342
3 277 278 342
3 342 278 343
3 278 279 343
3 343 279 344
3 279 280 344
3 344 280 345
3 280 281 345
3 345 281 346
3 281 282 346
3 346 282 347
3 282 283 347
3 347 283 348
3 283 284 348
3 348 284 349
3 284 285 349
3 349 285 274
3 338 349 274
3 286 287 350
3 350 352 351
3 350 351 286
3 286 351 288
3 354 353 289
3 354 289 351
3 351 289 288
3 289 353 290
3 350 287 291
3 291 352 350
3 291 292 352
3 292 355 352
3 354 356 353
3 353 293 290
3 353 356 293
3 356 357 293
3 359 358 294
3 359 294 357
3 357 294 293
3 294 358 295
3 297 361 360
3 296 297 360
3 292 360 355
3 292 296 360
3 299 298 362
3 298 300 362
3 359 363 358
3 358 363 364
3 358 364 295
3 295 364 301
3 365 366 361
3 365 361 303
3 303 361 297
3 367 366 365
3 367 368 366
3 362 304 299
3 368 369 370
3 368 367 369
3 304 362 300
3 370 369 371
3 306 373 372
3 306 301 373
3 301 364 373
3 306 372 307
3 374 365 303
3 308 374 303
3 375 374 376
3 375 367 374
3 367 365 374
3 378 367 375
3 378 377 367
3 377 369 367
3 371 309 379
3 371 377 309
3 371 369 377
3 377 310 309
3 379 309 380
3 309 311 380
3 382 311 313
3 382 380 311
3 373 381 372
3 372 381 383
3 372 383 307
3 307 383 314
3 315 316 384
3 384 386 385
3 315 384 385
3 315 385 374
3 315 374 308
3 374 385 376
3 378 387 377
3 377 317 310
3 377 387 317
3 387 388 317
3 317 388 389
3 318 317 389
3 382 313 319
3 390 382 319
3 390 319 314
3 383 390 314
3 321 322 391
3 391 393 392
3 321 391 392
3 321 392 384
3 321 384 316
3 384 392 386
3 389 323 318
3 394 323 389
3 323 394 395
3 324 323 395
3 396 391 322
3 396 322 397
3 397 322 325
3 391 396 393
3 395 398 324
3 398 326 324
3 328 400 399
3 327 328 399
3 399 325 327
3 397 325 399
3 398 329 326
3 401 329 398
3 329 401 402
3 330 329 402
3 403 404 400
3 403 400 331
3 331 400 328
3 404 403 405
3 402 406 330
3 406 332 330
3 407 403 331
3 407 331 408
3 408 331 333
3 403 407 405
3 406 409 332
3 409 334 332
3 336 411 410
3 335 336 410
3 410 333 335
3 408 333 410
3 409 337 334
3 412 337 409
3 337 412 413
3 338 337 413
3 411 336 339
3 414 411 339
3 414 339 415
3 339 340 415
3 415 340 416
3 340 341 416
3 416 341 417
3 341 342 417
3 417 342 418
3 342 343 418
3 418 343 419
3 343 344 419
3 419 344 420
3 344 345 420
3 420 345 421
3 345 346 421
3 421 346 422
3 346 347 422
3 422 347 423
3 347 348 423
3 423 348 424
3 348 349 424
3 424 349 338
3 413 424 338
3 351 352 425
3 351 425 354
3 426 425 352
3 426 352 427
3 427 352 355
3 425 356 354
3 425 426 356
3 426 428 356
3 430 429 357
3 430 357 428
3 428 357 356
3 357 429 359
3 360 361 431
3 433 427 355
3 433 355 431
3 433 431 432
3 360 431 355
3 433 432 434
3 430 435 429
3 437 436 363
3 435 437 363
3 435 363 359
3 435 359 429
3 363 436 364
3 431 361 366
3 432 431 366
3 368 432 366
3 434 432 368
3 434 368 438
3 438 368 370
3 370 439 438
3 371 439 370
3 437 440 436
3 436 440 441
3 436 441 364
3 364 441 373
3 375 376 442
3 375 442 378
3 439 371 379
3 443 439 379
3 443 379 444
3 379 380 444
3 373 441 445
3 373 445 381
3 441 444 445
3 382 445 380
3 444 380 445
3 381 445 383
3 385 386 446
3 376 385 446
3 376 446 442
3 442 446 447
3 387 378 442
3 387 442 448
3 448 442 447
3 388 387 448
3 449 388 448
3 388 449 389
3 445 382 390
3 445 390 383
3 392 393 450
3 450 452 451
3 392 450 451
3 392 451 446
3 392 446 386
3 446 453 447
3 451 453 446
3 447 454 448
3 453 454 447
3 448 455 449
3 454 455 448
3 457 456 394
3 455 457 394
3 455 394 389
3 455 389 449
3 394 456 395
3 397 459 458
3 396 397 458
3 393 460 450
3 393 396 460
3 396 458 460
3 450 460 452
3 462 456 457
3 461 456 462
3 456 461 398
3 395 456 398
3 399 400 463
3 463 397 399
3 463 464 397
3 464 459 397
3 462 465 461
3 467 466 401
3 465 467 401
3 465 401 398
3 465 398 461
3 401 466 402
3 463 400 404
3 404 464 463
3 404 405 464
3 405 468 464
3 470 466 467
3 469 466 470
3 466 469 406
3 402 466 406
3 408 472 471
3 407 408 471
3 471 405 407
3 468 405 471
3 470 473 469
3 469 473 474
3 469 474 406
3 406 474 409
3 411 476 475
3 410 411 475
3 475 408 410
3 472 408 475
3 412 478 477
3 412 409 478
3 409 474 478
3 412 477 413
3 476 411 414
3 479 476 414
3 479 414 480
3 414 415 480
3 480 415 481
3 415 416 481
3 481 416 482
3 416 417 482
3 482 417 483
3 417 418 483
3 483 418 484
3 418 419 484
3 484 419 485
3 419 420 485
3 485 420 486
3 420 421 486
3 486 421 487
3 421 422 487
3 487 422 488
3 422 423 488
3 477 478 488
3 477 488 424
3 424 488 423
3 477 424 413
3 426 427 489
3 428 426 489
3 490 428 489
3 428 490 430
3 489 427 433
3 433 434 491
3 433 491 489
3 489 491 490
3 435 430 490
3 435 490 492
3 492 490 491
3 435 492 437
3 491 434 438
3 493 492 491
3 493 491 439
3 493 439 494
3 439 491 438
3 496 495 440
3 493 496 440
3 493 440 437
3 493 437 492
3 440 495 441
3 494 439 443
3 497 494 443
3 495 496 497
3 495 497 444
3 444 497 443
3 495 444 441
3 451 452 498
3 453 451 498
3 499 453 498
3 454 453 499
3 500 454 499
3 455 454 500
3 501 455 500
3 455 501 457
3 458 459 502
3 460 458 502
3 503 460 502
3 452 460 503
3 452 503 498
3 498 503 504
3 505 504 506
3 505 499 504
3 499 498 504
3 499 507 500
3 505 507 499
3 509 500 507
3 509 508 500
3 508 501 500
3 501 508 462
3 457 501 462
3 510 502 459
3 464 510 459
3 511 510 512
3 511 503 510
3 503 502 510
3 503 513 504
3 511 513 503
3 504 513 506
3 509 514 508
3 516 515 465
3 514 516 465
3 514 465 462
3 514 462 508
3 465 515 467
3 517 510 464
3 468 517 464
3 512 517 518
3 510 517 512
3 520 515 516
3 519 515 520
3 515 519 470
3 467 515 470
3 471 472 521
3 521 523 522
3 471 521 522
3 471 522 517
3 471 517 468
3 517 522 518
3 520 524 519
3 526 525 473
3 524 526 473
3 524 473 470
3 524 470 519
3 473 525 474
3 475 476 527
3 527 529 528
3 475 527 528
3 475 528 521
3 475 521 472
3 521 528 523
3 531 525 526
3 530 525 531
3 525 530 478
3 474 525 478
3 527 476 479
3 529 527 479
3 529 479 532
3 532 479 480
3 532 480 533
3 480 481 533
3 533 481 534
3 481 482 534
3 534 482 535
3 482 483 535
3 535 483 536
3 483 484 536
3 536 484 537
3 484 485 537
3 537 485 538
3 485 486 538
3 538 486 539
3 486 487 539
3 530 531 539
3 530 539 488
3 488 539 487
3 530 488 478
3 493 494 540
3 493 540 496
3 540 494 497
3 540 497 496
3 505 506 541
3 507 505 541
3 542 507 541
3 507 542 509
3 511 512 543
3 513 511 543
3 544 513 543
3 506 513 544
3 506 544 541
3 541 544 545
3 541 545 542
3 542 545 546
3 514 509 542
3 514 542 547
3 547 542 546
3 514 547 516
3 548 543 512
3 518 548 512
3 543 548 544
3 544 548 549
3 544 549 545
3 545 549 550
3 545 550 546
3 546 550 551
3 546 551 547
3 547 551 552
3 547 552 520
3 516 547 520
3 522 523 553
3 518 522 553
3 518 553 548
3 548 553 554
3 555 554 556
3 555 549 554
3 549 548 554
3 549 557 550
3 555 557 549
3 550 558 551
3 557 558 550
3 551 559 552
3 558 559 551
3 561 560 524
3 559 561 524
3 559 524 520
3 559 520 552
3 524 560 526
3 529 563 562
3 528 529 562
3 523 564 553
3 523 528 564
3 528 562 564
3 553 565 554
3 564 565 553
3 554 565 556
3 567 560 561
3 566 560 567
3 560 566 531
3 526 560 531
3 563 529 532
3 568 563 532
3 568 532 569
3 532 533 569
3 569 533 570
3 533 534 570
3 570 534 571
3 534 535 571
3 571 535 572
3 535 536 572
3 572 536 573
3 536 537 573
3 573 537 574
3 537 538 574
3 566 567 574
3 566 574 539
3 539 574 538
3 566 539 531
3 555 556 575
3 557 555 575
3 576 557 575
3 558 557 576
3 577 558 576
3 559 558 577
3 578 559 577
3 559 578 561
3 562 563 579
3 579 581 580
3 579 580 562
3 562 580 564
3 580 582 564
3 564 582 565
3 556 583 575
3 556 565 583
3 565 582 583
3 575 584 576
3 583 584 575
3 586 576 584
3 586 585 576
3 585 577 576
3 577 585 578
3 578 585 587
3 578 587 567
3 561 578 567
3 579 563 568
3 581 579 568
3 581 568 588
3 588 568 569
3 588 569 589
3 569 570 589
3 589 570 590
3 570 571 590
3 590 571 591
3 571 572 591
3 585 586 591
3 585 591 573
3 573 591 572
3 587 585 573
3 574 587 573
3 587 574 567
3 580 581 592
3 582 580 592
3 593 582 592
3 583 582 593
3 594 583 593
3 584 583 594
3 595 584 594
3 584 595 586
3 592 581 588
3 593 592 588
3 589 593 588
3 594 593 589
3 590 594 589
3 595 594 590
3 591 595 590
3 595 591 586
