ply
format ascii 1.0
element vertex 496
property float x
property float y
property float z
property uchar red
property uchar green
property uchar blue
element face 988
property list uchar int vertex_indices
end_header
-7.04027366638183594 6 -1 130 93 90
-7 5.95997381210327148 -1 10 7 6
-7 6 -1.88107728958129883 124 90 76
-7.02593421936035156 6 0 125 89 87
-7 5.97422266006469727 0 6 4 3
-7 6 0.33735010027885437 107 73 67
-7 6.04929208755493164 -1 111 78 67
-7 6.03165435791015625 0 107 73 67
-6.09350776672363281 6 -4 165 128 117
-6 5.91868209838867188 -4 41 30 24
-6 6 -4.1602020263671875 186 155 141
-6 6 -3.62549710273742676 150 117 98
-6.95204687118530273 6 -1 111 78 67
-6.96919536590576172 6 0 107 73 67
-6 6.1010441780090332 -4 150 117 98
-6.14178705215454102 7 -2 172 129 122
-6 6.79784631729125977 -2 60 40 32
-6 7 -2.45526623725891113 188 150 135
-6.22778701782226562 7 -1 164 121 115
-6 6.77726411819458008 -1 35 22 19
-6.21650171279907227 7 0 158 118 114
-6 6.7882232666015625 0 32 20 18
-6.10471630096435547 7 1 156 118 118
-6 6.85277223587036133 1 52 32 30
-6 7 1.29638540744781494 164 122 119
-6 7.14225912094116211 -2 172 132 117
-6 7.22150325775146484 -1 161 120 108
-6 7.21062421798706055 0 159 116 108
-6 7.10504913330078125 1 164 122 119
-5.17935466766357422 6 -5 186 155 141
-5 5.91647815704345703 -5 30 21 17
-5 6 -5.18482732772827148 215 193 184
-5.86897039413452148 6 -4 150 117 98
-5 6 -4.85269403457641602 160 128 109
-5 6.14634275436401367 -5 160 128 109
-5.18933868408203125 7 -4 205 169 158
-5 6.76142787933349609 -4 76 52 40
-5 7 -4.23717784881591797 230 201 192
-5.62274026870727539 7 -3 188 150 135
-5 6.78090906143188477 -3 2 1 1
-5 6.90240764617919922 -2 56 41 37
-5.25129270553588867 7 -1 161 120 108
-5 7 -1.38740420341491699 120 81 66
-5.29771995544433594 7 0 159 116 108
-5 6.93368864059448242 1 64 49 47
-5 7 0.53381049633026123 93 59 51
-5.48479890823364258 7 2 171 137 135
-5 6.81616020202636719 2 14 9 8
-5.08923196792602539 7 3 176 155 151
-5 6.88973140716552734 3 66 44 39
-5 7 3.10589981079101562 190 163 154
-5 7.16623783111572266 -4 201 166 149
-5 7.37523794174194336 -3 161 119 100
-5 7.57711553573608398 -2 120 81 66
-5.10338687896728516 8 -1 210 172 167
-5 7.45301151275634766 -1 95 61 50
-5 8 -1.51030254364013672 226 176 161
-5.08822488784790039 8 0 206 170 168
-5 7.53895950317382812 0 93 59 51
-5 7.37259864807128906 1 117 74 70
-5 8 0.3677712082862854 218 168 162
-5 7.30119085311889648 2 156 111 107
-5 7.07935905456542969 3 190 163 154
-5 8.91912078857421875 -1 219 172 162
-5 8.90624427795410156 0 218 168 162
-4.20966815948486328 6 -6 215 193 184
-4 5.8920893669128418 -6 58 42 34
-4 6 -6.1262965202331543 252 222 216
-4.84923505783081055 6 -5 160 128 109
-4 6 -5.82800674438476562 191 162 146
-4 6.13495063781738281 -6 191 162 146
-4.25026559829711914 7 -5 230 201 192
-4 6.74311685562133789 -5 79 54 41
-4 7 -5.20610857009887695 255 197 184
-4 6.81051158905029297 -4 37 27 23
-4.49372053146362305 7 -3 161 119 100
-4 7 -3.52705550193786621 150 108 86
-4.86110687255859375 7 -2 120 81 66
-4.90724658966064453 7 1 117 74 70
-4.60123014450073242 7 2 156 111 107
-4 6.86547040939331055 3 49 39 38
-4 7 2.67538046836853027 67 39 37
-4.08965110778808594 7 4 205 182 169
-4 6.90821504592895508 4 74 53 43
-4 7 4.07362604141235352 213 178 154
-4 7.1780705451965332 -5 218 187 172
-4 7.48640108108520508 -4 150 108 86
-4.35600042343139648 8 -3 237 179 164
-4 7.51445531845092773 -3 71 44 33
-4 8 -3.49902033805847168 254 178 156
-4.81430959701538086 8 -2 226 176 161
-4 7.65863037109375 -2 9 6 4
-4 7.69396543502807617 -1 22 15 13
-4 7.69752645492553711 0 24 17 14
-4.73548221588134766 8 1 222 163 162
-4 7.67628812789916992 1 4 3 2
-4.27693986892700195 8 2 226 169 163
-4 7.62916898727416992 2 67 39 37
-4 7.31497907638549805 3 150 108 98
-4 8 2.36055111885070801 231 159 148
-4 7.06632900238037109 4 213 178 154
-4 8.97037982940673828 -3 230 174 153
-4 8.97951793670654297 -2 204 161 145
-4 8.98001480102539062 -1 187 142 128
-4 8.97987937927246094 0 188 141 132
-4 8.97881412506103516 1 206 157 156
-4 8.9631195068359375 2 231 159 148
-3.09947443008422852 5 -1 255 244 235
-3 4.89923810958862305 -1 255 241 223
-3 5 -1.54826056957244873 255 233 198
-3.04887008666992188 5 0 255 251 247
-3 4.95050048828125 0 255 244 232
-3 5 0.170303970575332642 255 234 205
-3.44855356216430664 6 -6 191 162 146
-3 5.05460119247436523 -1 255 231 195
-3 5.02692890167236328 0 255 234 205
-3 6.7678065299987793 -5 22 16 13
-3 7 -5.70821285247802734 252 190 169
-3.51226162910461426 7 -4 150 108 86
-3 7 -4.46344327926635742 172 128 106
-3.68421626091003418 7 3 150 108 98
-3 6.83124351501464844 4 30 20 20
-3 7 3.63308095932006836 60 35 34
-3 7 4.4207000732421875 176 143 125
-3 7.40574121475219727 -5 172 128 106
-3.50845074653625488 8 -4 254 178 156
-3 7.49021148681640625 -4 61 38 27
-3 8 -4.38014602661132812 255 161 141
-3 7.68714809417724609 -3 37 27 23
-3 7.72635078430175781 -2 101 95 93
-3 7.7617182731628418 -1 132 123 119
-3 7.76723194122314453 0 134 127 124
-3 7.73710870742797852 1 106 97 93
-3 7.7049403190612793 2 44 30 26
-3.34809470176696777 8 3 250 177 146
-3 7.65105915069580078 3 60 35 34
-3 7.27215385437011719 4 176 143 125
-3 8 3.25693440437316895 244 170 141
-3 8.97144508361816406 -4 237 171 146
-3 8.980224609375 -3 186 140 118
-3 8.97937583923339844 -2 138 95 74
-3 8.97565650939941406 -1 109 73 56
-3 8.97505569458007812 0 109 73 59
-3 8.97861671447753906 1 139 95 84
-3 8.97954750061035156 2 192 139 138
-3 8.9611358642578125 3 244 170 141
-2.77953147888183594 5 -2 255 233 198
-2 4.79139804840087891 -2 255 230 191
-2 5 -2.91012072563171387 255 226 168
-2 4.83166694641113281 -1 255 233 205
-2 4.85934877395629883 0 255 239 219
-2.37485861778259277 5 1 255 242 228
-2 4.89793205261230469 1 255 243 228
-2 5 1.33058321475982666 255 233 197
-2.24907326698303223 6 -7 243 208 195
-2 5.91424894332885742 -7 69 50 40
-2 6 -7.0652918815612793 255 176 173
-2 6 -6.88242292404174805 218 189 178
-2 5.22177791595458984 -2 255 224 161
-2 5.38644599914550781 -1 255 224 166
-2 5.32121706008911133 0 255 227 178
-2 5.10838127136230469 1 255 233 197
-2 6.07649517059326172 -7 218 189 178
-2.60910201072692871 7 -6 252 190 169
-2 6.7243199348449707 -6 58 38 29
-2 7 -6.19133424758911133 255 158 151
-2 6.87286043167114258 -5 109 88 78
-2 7 -4.81820249557495117 108 70 50
-2 6.9666590690612793 4 118 101 98
-2 7 3.95352578163146973 30 18 15
-2.15130710601806641 7 5 248 204 145
-2 6.92626667022705078 5 61 45 39
-2 7 5.0529179573059082 234 193 148
-2 7.19005489349365234 -6 228 177 156
-2 7.79566383361816406 -5 108 70 50
-2 7.64697647094726562 -4 25 19 15
-2 8 -4.90532541275024414 255 162 136
-2 7.72298479080200195 -3 126 105 93
-2 7.82767534255981445 -2 185 153 133
-2.01302266120910645 8 -1 109 73 56
-2 8 -1.01987433433532715 60 41 30
-2.05684924125671387 8 0 109 73 59
-2 7.85475730895996094 1 188 150 129
-2 8 0.0980245694518089294 24 15 10
-2 7.74089431762695312 2 132 107 96
-2 7.68818187713623047 3 30 18 15
-2 7.17885398864746094 4 115 76 69
-2 8 3.66940736770629883 210 168 160
-2 7.05349206924438477 5 234 193 148
-2 8.97987270355224609 -4 199 152 131
-2 8.97958278656005859 -3 124 83 61
-2 8.96307182312011719 -2 60 41 30
-2 8.95590877532958984 1 59 34 22
-2 8.97831630706787109 2 128 72 60
-2 8.97822761535644531 3 210 168 160
-1.87592887878417969 5 -3 255 226 168
-1 4.79321718215942383 -3 255 224 163
-1 5 -3.2164301872253418 255 222 163
-1 4.80317354202270508 -2 255 223 175
-1 4.8676295280456543 -1 255 229 195
-1 4.89131546020507812 0 255 236 213
-1 4.8862309455871582 1 255 238 216
-1 5 1.80201816558837891 255 228 178
-1 5.87839269638061523 -7 15 11 9
-1 6 -7.12358999252319336 255 162 159
-1 6 -6.85401201248168945 188 148 131
-1 5.11111211776733398 -3 255 222 149
-1 5.45436334609985352 -2 255 221 148
-1.06806600093841553 6 -1 255 226 182
-1 6 -1.07650184631347656 255 219 159
-1 5.93058586120605469 0 255 227 174
-1 6 -0.326495200395584106 255 223 164
-1 5.25854825973510742 1 255 228 178
-1 6.15261697769165039 -7 188 148 131
-1 6.72321748733520508 -6 0 0 0
-1 7 -6.28735208511352539 255 149 141
-1.08010828495025635 7 -5 108 70 50
-1 7 -5.04747438430786133 199 153 134
-1 6.01093101501464844 -1 255 223 164
-1.79439675807952881 7 4 115 76 69
-1 6.84391021728515625 5 2 1 1
-1 7 4.48918771743774414 59 26 23
-1 7 5.15773582458496094 211 186 167
-1 7.27511310577392578 -6 199 153 134
-1.78073060512542725 8 -5 255 162 136
-1 7.08695507049560547 -5 55 35 25
-1 8 -5.16570711135864258 255 132 125
-1 7.68379402160644531 -4 87 71 63
-1 7.75089740753173828 -3 182 141 116
-1 7.98887395858764648 -2 234 200 176
-1 8 -1.95892858505249023 1 0 0
-1.16018283367156982 8 1 59 34 22
-1 7.77842044830322266 2 185 132 102
-1 8 1.10038256645202637 0 0 0
-1 7.708648681640625 3 91 70 61
-1.11579394340515137 8 4 255 185 129
-1 7.8653416633605957 4 59 26 23
-1 7.1553034782409668 5 211 186 167
-1 8 4.02666854858398438 255 190 155
-1 8.94771766662597656 -5 242 161 137
-1 8.9803009033203125 -4 160 112 88
-1 8.97673606872558594 -3 71 49 35
-1 8.57341098785400391 -2 1 0 0
-1 8.97372531890869141 2 72 37 22
-1 8.97935771942138672 3 171 91 88
-1 8.74397087097167969 4 255 190 155
0 4.79146623611450195 -3 255 219 153
0 5 -3.21826457977294922 255 217 152
0 4.80223512649536133 -2 255 219 167
0 4.86682510375976562 -1 255 226 190
0 4.89050436019897461 0 255 233 208
0 4.88527870178222656 1 255 221 177
0 5 1.80896174907684326 255 219 152
0 5.87797355651855469 -7 10 9 8
0 6 -7.12401676177978516 255 151 150
0 6 -6.85349607467651367 171 125 106
0 5.11203718185424805 -3 255 219 145
0 5.45661306381225586 -2 255 220 150
0 6 -1.08037674427032471 255 218 161
0 5.93784856796264648 0 255 226 173
0 6 -0.292320787906646729 255 224 169
0 5.2607574462890625 1 255 219 152
0 6.15315961837768555 -7 171 125 106
0 6.72287416458129883 -6 26 21 18
0 7 -6.28771495819091797 255 142 135
0 7 -5.04578590393066406 181 130 108
0 6.01147985458374023 -1 255 224 169
0 6.84349918365478516 5 22 13 12
0 7 4.48762989044189453 34 16 12
0 7 5.15815162658691406 196 155 136
0 7.27545356750488281 -6 181 130 108
0 7.0838470458984375 -5 29 20 15
0 8 -5.16619396209716797 255 128 124
0 7.68368959426879883 -4 113 85 69
0 7.75072526931762695 -3 205 158 131
0 7.98836755752563477 -2 252 224 203
0 8 -1.95704376697540283 25 19 14
0 7.77821683883666992 2 204 140 100
0 8 1.09891366958618164 25 17 11
0 7.7085108757019043 3 114 77 58
0 7.86248683929443359 4 34 16 12
0 7.15571212768554688 5 196 155 136
0 8 4.02722358703613281 241 155 132
0 8.94786453247070312 -5 227 161 142
0 8.98030281066894531 -4 138 95 73
0 8.97675228118896484 -3 45 31 21
0 8.58431529998779297 -2 25 19 14
0 8.97375106811523438 2 47 26 14
0 8.97936439514160156 3 147 65 51
0 8.74790573120117188 4 241 155 132
0.897110819816589355 5 -3 255 219 145
1 4.78777313232421875 -2 255 218 170
1 5 -2.92654109001159668 255 215 154
1 4.82884120941162109 -1 255 227 194
1 4.85650873184204102 0 255 218 175
1 4.89428281784057617 1 255 210 152
1 5 1.34258747100830078 255 211 137
1 5.91249465942382812 -7 1 1 1
1 6 -7.06660127639770508 255 149 145
1 6 -6.87997674942016602 176 127 108
1 5.22564125061035156 -2 255 220 164
0.0720378980040550232 6 -1 255 224 169
1 5.39314556121826172 -1 255 225 178
1 5.32787561416625977 0 255 217 153
1 5.11226081848144531 1 255 211 137
1 6.0780482292175293 -7 176 127 108
1 6.72252464294433594 -6 17 14 12
1 7 -6.19248008728027344 255 136 134
0.0768693983554840088 7 -5 29 20 15
1 6.87193155288696289 -5 184 125 92
1 7 -4.81675815582275391 37 26 20
0.787746787071228027 7 4 34 16 12
1 6.96544551849365234 4 183 115 87
1 7 3.95180749893188477 101 65 45
1 6.92427301406860352 5 8 5 4
1 7 5.05432510375976562 198 119 104
1 7.19119071960449219 -6 183 130 111
0.787664234638214111 8 -5 227 161 142
1 7.80303525924682617 -5 37 26 20
1 7.64640998840332031 -4 103 75 61
1 8 -4.90859651565551758 225 165 151
1 7.72266149520874023 -3 195 149 124
1 7.82678890228271484 -2 243 196 165
1 8 -1.01289796829223633 14 10 7
0.157181873917579651 8 1 25 17 11
1 7.85379743576049805 1 240 173 125
1 8 0.090338386595249176 48 36 25
1 7.74048566818237305 2 193 125 82
1 7.68754053115844727 3 101 65 45
0.11887001246213913 8 4 241 155 132
1 7.18565845489501953 4 45 22 16
1 8 3.67173504829406738 149 64 45
1 7.05491542816162109 5 198 119 104
1 8.97988700866699219 -4 140 94 71
1 8.97960186004638672 -3 53 34 22
1 8.96326828002929688 -2 14 10 7
1 8.95620822906494141 1 13 9 5
1 8.97834968566894531 2 56 31 16
1 8.97826194763183594 3 149 64 45
1.80118167400360107 5 -2 255 220 164
2 4.89049720764160156 -1 255 220 182
2 5 -1.59630084037780762 255 223 186
2 4.94175195693969727 0 255 209 157
1.39218413829803467 5 1 255 211 137
2 5 0.200537711381912231 255 207 143
1.25538051128387451 6 -7 176 127 108
2 5.05929756164550781 -1 255 214 164
2 5.03166723251342773 0 255 207 143
1.61556410789489746 7 -6 183 130 111
2 6.76676225662231445 -5 143 93 65
2 7 -5.71352767944335938 203 155 143
2 7 -4.45974588394165039 77 53 40
2 6.82987689971923828 4 137 84 60
2 7 3.62937450408935547 50 33 24
1.15596604347229004 7 5 198 119 104
2 7 4.42505645751953125 88 38 28
2 7.40826129913330078 -5 77 53 40
2 7.48618793487548828 -4 56 43 36
2 8 -4.38289928436279297 235 173 164
2 7.68660211563110352 -3 153 107 84
2 7.7257838249206543 -2 206 141 107
1.00844287872314453 8 -1 49 37 27
2 7.76079654693603516 -1 228 158 115
1.05234003067016602 8 0 48 36 25
2 7.76627779006958008 0 226 154 106
2 7.73645687103271484 1 203 131 83
2 7.70427513122558594 2 149 93 55
2 7.64719581604003906 3 50 33 24
2 7.27473258972167969 4 88 38 28
2 8 3.25962018966674805 171 74 55
2 8.97161006927490234 -4 163 104 80
2 8.98023796081542969 -3 88 53 31
2 8.97941207885742188 -2 28 19 11
2 8.9757537841796875 -1 2 2 1
2 8.97516250610351562 0 2 1 0
2 8.97866630554199219 1 31 19 10
2 8.97957992553710938 2 94 48 25
2 8.96150493621826172 3 171 74 55
2.1085059642791748 5 -1 255 214 164
2.05772018432617188 5 0 255 207 143
2.4342808723449707 6 -6 28 21 17
3 5.88909482955932617 -6 84 58 40
3 6 -6.12987327575683594 235 173 168
3 6 -5.8229827880859375 99 68 53
3 6.13880062103271484 -6 99 68 53
3 6.73890495300292969 -5 62 43 31
3 7 -5.20934438705444336 232 170 165
2.50728654861450195 7 -4 56 43 36
3 6.80883979797363281 -4 183 122 95
3 7 -3.52128171920776367 22 18 16
2.67902708053588867 7 3 50 33 24
3 6.86339378356933594 3 176 108 69
3 7 2.66939020156860352 68 44 26
3 6.90362358093261719 4 50 32 25
3 7 4.07725906372070312 146 56 47
3 7.1807703971862793 -5 134 94 78
2.51347517967224121 8 -4 163 104 80
3 7.49237632751464844 -4 22 18 16
3 7.50887775421142578 -3 73 51 39
3 8 -3.5047914981842041 196 124 108
3 7.65726423263549805 -2 134 82 56
3 7.69313526153564453 -1 160 97 61
3 7.69666337966918945 0 160 99 56
3 7.67484760284423828 1 131 82 44
3 7.62374973297119141 2 68 44 26
2.35259056091308594 8 3 171 74 55
3 7.32076883316040039 3 32 19 13
3 8 2.36579346656799316 144 66 40
3 7.06957674026489258 4 146 56 47
3 8.97063636779785156 -3 139 77 48
3 8.97956371307373047 -2 92 53 28
3 8.98004436492919922 -1 66 40 21
3 8.97991371154785156 0 67 40 20
3 8.97887992858886719 1 95 52 26
3 8.96357250213623047 2 144 66 40
3.21631479263305664 6 -6 99 68 53
3.84277033805847168 6 -5 62 43 31
4 5.91297245025634766 -5 128 82 54
4 6 -5.19316530227661133 173 127 117
4 6 -4.84614849090576172 47 38 33
3.2546851634979248 7 -5 134 94 78
4 6.15284204483032227 -5 47 38 33
4 6.75597810745239258 -4 76 51 38
4 7 -4.24259042739868164 193 138 129
3.48793625831604004 7 -3 73 51 39
4 6.77891159057617188 -3 161 106 83
3.85663962364196777 7 -2 134 82 56
4 6.89936017990112305 -2 205 129 98
4 7 -1.36478304862976074 24 16 11
3.90250635147094727 7 1 131 82 44
4 6.93035745620727539 1 200 126 79
4 7 0.507759630680084229 52 34 20
3.59543514251708984 7 2 68 44 26
4 6.81384134292602539 2 154 94 55
4 6.88390207290649414 3 65 40 27
3.09424138069152832 7 4 146 56 47
4 7 3.11148262023925781 121 52 37
4 7.16977548599243164 -4 111 69 51
3.36023783683776855 8 -3 139 77 48
4 7.37976360321044922 -3 33 24 19
3.8227696418762207 8 -2 92 53 28
4 7.59837436676025391 -2 24 16 11
4 7.42645740509033203 -1 53 34 21
4 8 -1.53503036499023438 156 79 51
4 7.51265048980712891 0 52 34 20
3.7430272102355957 8 1 95 52 26
4 7.39330720901489258 1 20 13 8
4 8 0.388646513223648071 138 70 39
3.28111171722412109 8 2 144 66 40
4 7.30577659606933594 2 41 25 17
4 7.08344411849975586 3 121 52 37
4 8.92236518859863281 -1 137 71 40
4 8.91063308715820312 0 138 70 39
4.18779754638671875 6 -5 47 38 33
4.86095571517944336 6 -4 76 51 38
5 5.91376686096191406 -4 106 71 52
5 6 -4.17038154602050781 150 104 93
5 6 -3.60088777542114258 56 44 39
4.19366121292114258 7 -4 111 69 51
5 6.10727453231811523 -4 56 44 39
4.63299560546875 7 -3 33 24 19
5 6.79108285903930664 -2 83 51 34
5 7 -2.47178387641906738 133 71 50
4.23628616333007812 7 -1 53 34 21
5 6.77319717407226562 -1 108 66 39
4.2828369140625 7 0 52 34 20
5 6.78408908843994141 0 107 66 37
5 6.8458099365234375 1 77 48 28
4.49412250518798828 7 2 41 25 17
5 7 1.31112086772918701 96 51 32
4.09395122528076172 7 3 121 52 37
5 7.14675617218017578 -2 91 53 33
4.10808038711547852 8 -1 137 71 40
5 7.2255401611328125 -1 69 43 26
4.0929865837097168 8 0 138 70 39
5 7.21472835540771484 0 71 43 26
5 7.10983180999755859 1 96 51 32
5.0993199348449707 6 -4 56 44 39
5.99800729751586914 6 -2 83 51 34
6 5.99855804443359375 -2 79 49 33
6 6 -2.0042717456817627 109 63 48
5.94458913803100586 6 -1 108 66 39
6 5.95375871658325195 -1 102 63 39
5.96158599853515625 6 0 107 66 37
6 5.96786212921142578 0 100 61 37
6 6 0.423449814319610596 47 32 24
5.14635753631591797 7 -2 91 53 33
6 6.00129461288452148 -2 67 44 32
5.23216009140014648 7 -1 69 43 26
6 6.05701875686645508 -1 45 31 23
5.22092819213867188 7 0 71 43 26
6 6.03951454162597656 0 47 32 24
5.10954761505126953 7 1 96 51 32
6.00111055374145508 6 -2 67 44 32
6.0465550422668457 6 -1 45 31 23
6.03235244750976562 6 0 47 32 24
3 2 1 0
3 1 4 3
3 0 1 3
3 4 5 3
3 2 0 6
3 0 3 7
3 6 0 7
3 3 5 7
3 10 9 8
3 9 11 8
3 1 2 12
3 4 1 12
3 13 4 12
3 4 13 5
3 10 8 14
3 8 11 14
3 17 16 15
3 18 15 2
3 18 2 6
3 15 16 2
3 12 2 19
3 16 19 2
3 6 20 18
3 6 7 20
3 19 21 12
3 21 13 12
3 21 23 5
3 21 5 13
3 23 22 5
3 7 5 20
3 22 20 5
3 23 24 22
3 17 15 25
3 15 18 26
3 25 15 26
3 18 20 27
3 26 18 27
3 20 22 28
3 27 20 28
3 22 24 28
3 31 30 29
3 10 29 30
3 10 30 9
3 33 32 30
3 32 9 30
3 9 32 11
3 31 29 34
3 34 35 37
3 34 14 35
3 34 29 14
3 10 14 29
3 33 36 32
3 36 39 11
3 36 11 32
3 39 38 11
3 14 11 35
3 38 35 11
3 17 38 39
3 17 39 16
3 16 39 40
3 42 41 19
3 42 19 40
3 40 19 16
3 21 19 41
3 43 21 41
3 43 45 44
3 43 44 21
3 21 44 23
3 46 24 23
3 46 23 47
3 47 23 44
3 47 49 48
3 46 47 48
3 49 50 48
3 37 35 51
3 35 38 52
3 51 35 52
3 38 17 25
3 38 25 52
3 52 25 53
3 42 55 41
3 56 53 54
3 53 26 54
3 53 25 26
3 26 57 54
3 26 27 57
3 55 58 41
3 58 43 41
3 45 43 58
3 59 60 27
3 59 27 28
3 27 60 57
3 24 46 61
3 24 61 28
3 28 61 59
3 46 48 62
3 61 46 62
3 48 50 62
3 56 54 63
3 54 57 64
3 63 54 64
3 57 60 64
3 67 66 65
3 31 65 66
3 31 66 30
3 69 68 66
3 68 30 66
3 30 68 33
3 67 65 70
3 70 71 73
3 70 34 71
3 70 65 34
3 31 34 65
3 69 72 68
3 71 34 37
3 68 72 33
3 72 36 33
3 72 74 36
3 76 75 39
3 76 39 74
3 74 39 36
3 40 39 75
3 77 40 75
3 40 77 42
3 44 45 78
3 47 44 78
3 79 47 78
3 79 81 80
3 79 80 47
3 47 80 49
3 82 50 49
3 82 49 83
3 83 49 80
3 83 84 82
3 73 71 85
3 71 37 51
3 71 51 85
3 85 51 86
3 76 88 75
3 89 86 87
3 86 52 87
3 86 51 52
3 52 90 87
3 52 53 90
3 88 91 75
3 91 77 75
3 90 53 56
3 77 91 42
3 91 55 42
3 91 92 55
3 92 93 55
3 55 93 58
3 60 59 94
3 45 58 78
3 58 95 78
3 58 93 95
3 59 96 94
3 59 61 96
3 95 97 78
3 97 79 78
3 81 79 97
3 98 99 61
3 98 61 62
3 61 99 96
3 50 82 100
3 50 100 62
3 62 100 98
3 82 84 100
3 89 87 101
3 87 90 102
3 101 87 102
3 90 56 63
3 90 63 102
3 102 63 103
3 103 63 104
3 63 64 104
3 60 94 105
3 60 105 64
3 64 105 104
3 94 96 106
3 105 94 106
3 96 99 106
3 109 108 107
3 108 111 110
3 107 108 110
3 111 112 110
3 66 67 113
3 66 113 69
3 109 107 114
3 107 110 115
3 114 107 115
3 110 112 115
3 113 67 70
3 73 117 113
3 73 113 70
3 117 116 113
3 69 113 72
3 116 72 113
3 119 118 74
3 119 74 116
3 116 74 72
3 74 118 76
3 80 81 120
3 120 122 121
3 120 121 80
3 80 121 83
3 83 121 123
3 84 83 123
3 117 73 85
3 124 117 85
3 119 126 118
3 127 124 125
3 124 86 125
3 124 85 86
3 125 86 89
3 118 126 76
3 126 88 76
3 126 128 88
3 128 129 88
3 88 129 91
3 129 130 91
3 91 130 92
3 130 131 92
3 92 131 93
3 131 132 93
3 93 132 95
3 132 133 95
3 95 133 97
3 99 98 134
3 81 97 120
3 97 135 120
3 97 133 135
3 122 120 135
3 136 137 98
3 136 98 100
3 98 137 134
3 136 100 84
3 123 136 84
3 127 125 138
3 125 89 101
3 125 101 138
3 138 101 139
3 139 101 140
3 101 102 140
3 140 102 141
3 102 103 141
3 141 103 142
3 103 104 142
3 142 104 143
3 104 105 143
3 143 105 144
3 105 106 144
3 99 134 145
3 99 145 106
3 106 145 144
3 134 137 145
3 148 147 146
3 109 146 147
3 109 147 108
3 108 147 149
3 149 150 108
3 108 150 111
3 151 112 111
3 151 111 152
3 152 111 150
3 152 153 151
3 156 155 154
3 155 157 154
3 148 146 158
3 146 109 114
3 146 114 158
3 158 114 159
3 159 114 160
3 114 115 160
3 112 151 161
3 112 161 115
3 115 161 160
3 151 153 161
3 156 154 162
3 165 162 154
3 165 154 163
3 157 164 154
3 164 163 154
3 117 163 164
3 117 164 116
3 116 164 166
3 116 166 167
3 119 116 167
3 122 169 168
3 121 122 168
3 170 123 121
3 170 121 171
3 171 121 168
3 171 172 170
3 165 163 173
3 163 117 124
3 163 124 173
3 173 124 174
3 167 175 119
3 119 175 126
3 176 174 124
3 176 124 127
3 175 177 126
3 126 177 128
3 177 178 128
3 128 178 129
3 180 179 130
3 180 130 178
3 178 130 129
3 131 130 179
3 181 131 179
3 181 183 182
3 181 182 131
3 131 182 132
3 182 184 132
3 132 184 133
3 184 185 133
3 133 185 135
3 187 136 186
3 187 137 136
3 169 122 185
3 122 135 185
3 123 170 188
3 123 188 136
3 136 188 186
3 170 172 188
3 176 127 138
3 189 176 138
3 189 138 190
3 138 139 190
3 190 139 191
3 139 140 191
3 179 180 191
3 179 191 141
3 141 191 140
3 181 179 141
3 142 181 141
3 183 181 142
3 183 142 192
3 192 142 143
3 192 143 193
3 143 144 193
3 193 144 194
3 144 145 194
3 194 145 137
3 187 194 137
3 197 196 195
3 148 195 196
3 148 196 147
3 147 196 198
3 198 199 147
3 147 199 149
3 199 200 149
3 149 200 150
3 200 201 150
3 150 201 152
3 152 201 202
3 153 152 202
3 156 204 203
3 155 156 203
3 155 203 205
3 157 155 205
3 197 195 206
3 195 148 158
3 195 158 206
3 206 158 207
3 209 159 208
3 209 207 159
3 207 158 159
3 208 210 211
3 208 159 210
3 159 160 210
3 210 160 212
3 160 161 212
3 212 161 153
3 202 212 153
3 204 156 162
3 213 204 162
3 205 214 157
3 157 214 164
3 215 213 162
3 215 162 165
3 217 216 166
3 217 166 214
3 214 166 164
3 166 216 167
3 209 208 218
3 208 211 218
3 168 169 219
3 219 221 220
3 219 220 168
3 168 220 171
3 171 220 222
3 172 171 222
3 215 165 173
3 223 215 173
3 217 225 216
3 226 223 224
3 223 174 224
3 223 173 174
3 224 174 176
3 216 225 167
3 225 175 167
3 225 227 175
3 227 228 175
3 175 228 177
3 228 229 177
3 177 229 178
3 178 229 230
3 180 178 230
3 182 183 231
3 231 233 232
3 231 232 182
3 182 232 184
3 232 234 184
3 184 234 185
3 187 186 235
3 169 185 219
3 185 236 219
3 185 234 236
3 221 219 236
3 237 238 186
3 237 186 188
3 186 238 235
3 237 188 172
3 222 237 172
3 226 224 239
3 224 176 189
3 224 189 239
3 239 189 240
3 240 189 241
3 189 190 241
3 241 190 242
3 190 191 242
3 242 191 180
3 230 242 180
3 231 183 192
3 233 231 192
3 233 192 243
3 243 192 193
3 243 193 244
3 193 194 244
3 187 235 245
3 187 245 194
3 194 245 244
3 235 238 245
3 197 247 246
3 196 197 246
3 246 248 196
3 196 248 198
3 248 249 198
3 198 249 199
3 249 250 199
3 199 250 200
3 250 251 200
3 200 251 201
3 201 251 252
3 202 201 252
3 204 254 253
3 203 204 253
3 203 253 255
3 205 203 255
3 247 197 206
3 256 247 206
3 256 206 257
3 206 207 257
3 207 258 257
3 209 258 207
3 211 259 260
3 210 259 211
3 259 210 261
3 210 212 261
3 261 212 202
3 252 261 202
3 254 204 213
3 262 254 213
3 255 263 205
3 205 263 214
3 264 262 213
3 264 213 215
3 214 263 265
3 217 214 265
3 258 209 218
3 266 258 218
3 266 218 211
3 260 266 211
3 221 268 267
3 220 221 267
3 220 267 269
3 222 220 269
3 264 215 223
3 270 264 223
3 265 271 217
3 217 271 225
3 272 270 223
3 272 223 226
3 271 273 225
3 225 273 227
3 273 274 227
3 227 274 228
3 274 275 228
3 228 275 229
3 229 275 276
3 230 229 276
3 233 278 277
3 232 233 277
3 277 279 232
3 232 279 234
3 279 280 234
3 234 280 236
3 282 237 281
3 282 238 237
3 268 221 280
3 221 236 280
3 281 237 222
3 269 281 222
3 272 226 239
3 283 272 239
3 283 239 284
3 239 240 284
3 284 240 285
3 240 241 285
3 285 241 286
3 241 242 286
3 286 242 230
3 276 286 230
3 278 233 243
3 287 278 243
3 287 243 288
3 243 244 288
3 288 244 289
3 244 245 289
3 289 245 238
3 282 289 238
3 246 247 290
3 290 292 291
3 290 291 246
3 246 291 248
3 291 293 248
3 248 293 249
3 293 294 249
3 249 294 250
3 294 295 250
3 250 295 251
3 251 295 296
3 252 251 296
3 254 298 297
3 253 254 297
3 253 297 299
3 255 253 299
3 290 247 256
3 292 290 256
3 292 256 300
3 300 256 257
3 301 257 258
3 301 302 257
3 302 300 257
3 260 302 301
3 260 259 302
3 259 303 302
3 303 259 304
3 259 261 304
3 304 261 252
3 296 304 252
3 298 254 262
3 305 298 262
3 299 306 255
3 255 306 263
3 307 305 262
3 307 262 264
3 308 265 263
3 308 263 309
3 309 263 306
3 309 310 308
3 301 258 266
3 301 266 260
3 313 312 311
3 268 311 312
3 268 312 267
3 267 312 314
3 267 314 315
3 269 267 315
3 307 264 270
3 316 307 270
3 265 308 271
3 270 272 318
3 270 318 316
3 318 272 317
3 320 318 317
3 310 319 308
3 319 271 308
3 319 273 271
3 319 321 273
3 273 321 274
3 321 322 274
3 274 322 275
3 275 322 323
3 276 275 323
3 326 325 324
3 278 324 325
3 278 325 277
3 277 325 327
3 327 328 277
3 277 328 279
3 331 329 330
3 328 313 280
3 328 280 279
3 280 313 311
3 311 268 280
3 330 329 281
3 330 281 332
3 281 329 282
3 332 281 269
3 315 332 269
3 317 272 283
3 320 317 283
3 320 283 333
3 333 283 284
3 333 284 334
3 284 285 334
3 334 285 335
3 285 286 335
3 335 286 276
3 323 335 276
3 326 324 336
3 324 278 287
3 324 287 336
3 336 287 337
3 337 287 338
3 287 288 338
3 329 331 338
3 329 338 289
3 289 338 288
3 329 289 282
3 291 292 339
3 339 341 340
3 339 340 291
3 291 340 293
3 340 342 293
3 293 342 294
3 344 343 295
3 344 295 342
3 342 295 294
3 295 343 296
3 297 298 345
3 297 345 299
3 339 292 300
3 341 339 300
3 341 300 346
3 346 300 302
3 346 302 347
3 302 303 347
3 343 344 347
3 343 347 304
3 304 347 303
3 343 304 296
3 345 298 305
3 306 299 345
3 306 345 348
3 305 307 345
3 307 348 345
3 348 350 349
3 348 349 306
3 306 349 309
3 309 349 351
3 310 309 351
3 313 353 352
3 312 313 352
3 355 354 314
3 355 314 352
3 352 314 312
3 314 354 315
3 348 307 316
3 350 348 316
3 350 316 356
3 356 316 318
3 351 357 310
3 310 357 319
3 358 356 318
3 358 318 320
3 357 359 319
3 319 359 321
3 359 360 321
3 321 360 322
3 361 323 322
3 361 322 362
3 362 322 360
3 362 364 363
3 361 362 363
3 326 363 364
3 326 364 325
3 325 364 365
3 365 366 325
3 325 366 327
3 366 367 327
3 327 367 328
3 369 330 368
3 369 331 330
3 353 313 367
3 313 328 367
3 354 355 368
3 354 368 332
3 332 368 330
3 354 332 315
3 358 320 333
3 370 358 333
3 370 333 371
3 333 334 371
3 371 334 372
3 334 335 372
3 323 361 373
3 323 373 335
3 335 373 372
3 361 363 374
3 373 361 374
3 363 326 336
3 363 336 374
3 374 336 375
3 375 336 376
3 336 337 376
3 376 337 377
3 337 338 377
3 377 338 331
3 369 377 331
3 340 341 378
3 342 340 378
3 379 342 378
3 342 379 344
3 382 381 380
3 381 383 380
3 378 341 346
3 379 378 346
3 347 379 346
3 379 347 344
3 382 380 384
3 385 349 380
3 385 380 383
3 349 350 380
3 384 380 386
3 350 386 380
3 387 351 349
3 387 349 388
3 388 349 385
3 388 389 387
3 392 391 390
3 353 390 391
3 353 391 352
3 352 391 393
3 352 393 394
3 355 352 394
3 386 350 356
3 395 386 356
3 351 387 357
3 356 358 397
3 356 397 395
3 397 358 396
3 399 397 396
3 389 398 387
3 398 357 387
3 398 359 357
3 398 400 359
3 359 400 360
3 400 401 360
3 360 401 362
3 401 402 362
3 362 402 364
3 402 403 364
3 364 403 365
3 403 404 365
3 365 404 366
3 407 405 406
3 404 392 367
3 404 367 366
3 367 392 390
3 390 353 367
3 406 405 368
3 406 368 408
3 368 405 369
3 408 368 355
3 394 408 355
3 396 358 370
3 399 396 370
3 399 370 409
3 409 370 371
3 409 371 410
3 371 372 410
3 410 372 411
3 372 373 411
3 411 373 412
3 373 374 412
3 412 374 413
3 374 375 413
3 413 375 414
3 375 376 414
3 405 407 414
3 405 414 377
3 377 414 376
3 405 377 369
3 381 382 415
3 416 383 381
3 416 381 417
3 415 418 381
3 418 417 381
3 417 419 416
3 415 382 384
3 415 421 418
3 415 420 421
3 415 384 420
3 386 420 384
3 383 416 385
3 423 421 420
3 419 422 416
3 422 385 416
3 422 388 385
3 424 389 388
3 424 388 425
3 425 388 422
3 425 427 426
3 424 425 426
3 427 428 426
3 431 430 429
3 430 433 432
3 429 430 432
3 392 432 433
3 392 433 391
3 391 433 434
3 436 435 393
3 436 393 434
3 434 393 391
3 393 435 394
3 420 386 395
3 423 420 395
3 423 395 437
3 437 395 397
3 389 424 398
3 397 399 439
3 397 439 437
3 439 399 438
3 439 438 441
3 441 438 440
3 398 424 426
3 398 426 400
3 443 441 440
3 428 442 426
3 442 400 426
3 442 401 400
3 442 444 401
3 401 444 402
3 447 445 446
3 444 431 403
3 444 403 402
3 403 431 429
3 446 445 449
3 449 445 448
3 403 429 432
3 403 432 404
3 432 392 404
3 449 448 406
3 449 406 450
3 406 448 407
3 435 436 450
3 435 450 408
3 408 450 406
3 435 408 394
3 438 399 409
3 440 438 409
3 410 440 409
3 443 440 410
3 443 410 451
3 451 410 411
3 451 411 452
3 411 412 452
3 445 447 452
3 445 452 413
3 413 452 412
3 448 445 413
3 414 448 413
3 448 414 407
3 417 418 453
3 454 419 417
3 454 417 455
3 453 456 417
3 456 455 417
3 455 457 454
3 453 418 421
3 453 459 456
3 453 458 459
3 453 421 458
3 423 458 421
3 419 454 422
3 458 460 457
3 458 457 459
3 460 425 457
3 454 457 422
3 425 422 457
3 460 462 461
3 460 461 425
3 425 461 427
3 463 428 427
3 463 427 464
3 464 427 461
3 464 466 465
3 463 464 465
3 431 465 466
3 431 466 430
3 430 466 467
3 469 468 433
3 469 433 467
3 467 433 430
3 434 433 468
3 470 434 468
3 434 470 436
3 458 423 437
3 460 458 437
3 439 460 437
3 462 460 439
3 462 439 471
3 471 439 441
3 428 463 442
3 441 443 473
3 441 473 471
3 473 443 472
3 473 472 475
3 475 472 474
3 442 463 465
3 442 465 444
3 465 431 444
3 475 474 446
3 475 446 476
3 446 474 447
3 468 469 476
3 468 476 449
3 449 476 446
3 470 468 449
3 450 470 449
3 470 450 436
3 472 443 451
3 474 472 451
3 452 474 451
3 474 452 447
3 455 456 477
3 455 477 457
3 480 479 478
3 479 482 481
3 478 479 481
3 482 484 483
3 481 482 483
3 484 485 483
3 477 456 459
3 477 459 457
3 486 487 480
3 486 480 462
3 478 461 480
3 461 462 480
3 487 486 489
3 489 486 488
3 461 478 481
3 461 481 464
3 489 488 491
3 491 488 490
3 464 481 483
3 464 483 466
3 490 492 485
3 490 485 491
3 492 467 485
3 483 485 466
3 467 466 485
3 467 492 469
3 486 462 471
3 488 486 471
3 473 488 471
3 490 488 473
3 475 490 473
3 492 490 475
3 476 492 475
3 492 476 469
3 479 480 493
3 482 479 493
3 494 482 493
3 484 482 494
3 495 484 494
3 484 495 485
3 493 480 487
3 494 493 487
3 489 494 487
3 495 494 489
3 491 495 489
3 495 491 485
