ply
format ascii 1.0
element vertex 574
property float x
property float y
property float z
property uchar red
property uchar green
property uchar blue
element face 1144
property list uchar int vertex_indices
end_header
-5.04611587524414062 6 1 223 165 165
-5 5.69113445281982422 1 132 167 136
-5 6 0.598187267780303955 223 170 170
-5 6 1.56059813499450684 218 166 166
-5.06998014450073242 7 1 252 185 185
-5 7 0.384387731552124023 251 189 189
-5.02350425720214844 7 2 200 188 252
-5 6.59995508193969727 2 216 165 172
-5 7 2.10736894607543945 196 252 248
-5.26080417633056641 8 0 241 207 254
-5 7.14196014404296875 0 251 189 189
-5 8 -0.923753321170806885 241 213 254
-5.38603067398071289 8 1 254 208 234
-5.34689760208129883 8 2 253 208 234
-5.13510656356811523 8 3 234 206 252
-5 7.58895540237426758 3 251 236 198
-5 8 3.33119320869445801 238 212 251
-5 8.91454792022705078 0 254 214 234
-5 8.93936634063720703 1 254 215 220
-5 8.93318748474121094 2 253 214 229
-5 8.84758663177490234 3 238 212 251
-4.16065454483032227 0 1 61 53 53
-4 -0.145242512226104736 1 181 155 155
-4 0 0.331178247928619385 200 175 175
-4 0 1.13406097888946533 1 1 1
-4.15265130996704102 1 1 254 199 199
-4 1 0.340535908937454224 235 187 187
-4.16246509552001953 1 2 238 191 191
-4 0.869633913040161133 2 253 214 214
-4 1 2.74549984931945801 208 174 174
-4.0113377571105957 2 0 233 176 176
-4 1.88479936122894287 0 235 187 187
-4 2 -0.0259889829903841019 241 186 186
-4.18907070159912109 2 1 226 172 172
-4.08819675445556641 2 2 227 172 172
-4 2 2.22462844848632812 218 170 170
-4 2.35933399200439453 0 231 180 180
-4.13897895812988281 3 1 95 90 73
-4 3 0.124422453343868256 78 76 62
-4.05988311767578125 3 2 124 128 99
-4 3 2.18627452850341797 154 150 122
-4.31890153884887695 4 0 111 116 92
-4 3.0589141845703125 0 78 76 62
-4 4 -0.876194298267364502 116 115 94
-4.45119285583496094 4 1 93 90 73
-4.34931278228759766 4 2 68 59 53
-4.01662063598632812 4 3 42 36 32
-4 3.93958735466003418 3 166 183 144
-4 4 3.0283658504486084 6 5 5
-4.41220951080322266 5 -1 181 177 145
-4 4.10107707977294922 -1 116 115 94
-4 5 -1.70216190814971924 159 174 143
-4.75644254684448242 5 0 156 174 139
-4.85433673858642578 5 1 132 167 136
-4.7031402587890625 5 2 124 160 143
-4.33135175704956055 5 3 116 151 144
-4 5 3.55722498893737793 103 130 114
-4.46799039840698242 6 -1 230 175 175
-4 6 -1.67970955371856689 231 178 178
-4.90141677856445312 6 0 223 170 170
-4.94775009155273438 6 2 216 165 172
-4.57575893402099609 6 3 215 164 215
-4 6 3.98443102836608887 176 165 209
-4.55150604248046875 7 -1 247 185 185
-4 7 -1.92018628120422363 243 186 186
-4.93676853179931641 7 0 251 189 189
-4.73103666305541992 7 3 251 236 198
-4.21078395843505859 7 4 248 236 197
-4 6.03864288330078125 4 162 194 206
-4 7 4.26636791229248047 202 245 204
-4.39922142028808594 8 -2 211 224 254
-4 7.09753274917602539 -2 243 186 186
-4 8 -2.54157423973083496 222 217 252
-4.97002553939819336 8 -1 241 213 254
-4.63394641876220703 8 4 206 249 248
-4 8 4.81361246109008789 209 246 241
-4 8.93014049530029297 -2 243 219 253
-4 8.96620273590087891 -1 253 220 243
-4 8.97339248657226562 0 253 221 229
-4 8.97531223297119141 1 253 221 226
-4 8.974639892578125 2 252 220 238
-4 8.97025394439697266 3 231 216 250
-4 8.95109653472900391 4 209 246 241
-3.32935905456542969 -2 1 177 160 160
-3 -2.53057098388671875 1 228 237 230
-3 -2 0.425240486860275269 118 107 107
-3.37261247634887695 -2 2 221 238 239
-3 -2.49792575836181641 2 215 223 224
-3 -2 2.99194860458374023 233 245 242
-3.05449867248535156 -1 1 181 155 155
-3 -1 0.926413595676422119 234 201 201
-3.63273811340332031 -1 2 244 217 217
-3.60284066200256348 -1 3 209 188 188
-3 -1.99497973918914795 3 228 231 241
-3 -1 3.97179794311523438 235 219 223
-3.88507509231567383 0 0 200 175 175
-3 -0.471730232238769531 0 234 201 201
-3 0 -0.800737559795379639 211 179 179
-3 -0.368120551109313965 2 168 153 153
-3 0 1.73209786415100098 47 44 44
-3.30623126029968262 0 3 187 167 167
-3 0 2.52215290069580078 253 222 222
-3.21097946166992188 0 4 254 225 225
-3 -0.929309189319610596 4 232 234 249
-3 0 4.32202577590942383 196 178 178
-3.51533937454223633 1 -1 140 112 112
-3 0.316868692636489868 -1 211 179 179
-3 1 -1.74469614028930664 13 10 10
-3.87660431861877441 1 0 235 187 187
-3 0.263171494007110596 2 253 222 222
-3.89886593818664551 1 3 10 8 8
-3 0.341136455535888672 4 196 178 178
-3 1 3.59931421279907227 102 91 91
-3.38937926292419434 2 -1 241 186 186
-3 2 -1.40536272525787354 247 193 193
-3.55925178527832031 2 3 235 181 181
-3 2 3.61848282814025879 227 180 180
-3.40633988380432129 3 -1 38 41 32
-3 3 -1.46165525913238525 25 30 24
-3.97069549560546875 3 0 78 76 62
-3.62762975692749023 3 3 166 183 144
-3 3 3.81729507446289062 209 206 169
-3.10569620132446289 4 -2 131 134 109
-3 3.80919480323791504 -2 25 30 24
-3 4 -2.09075045585632324 123 121 101
-3.93510341644287109 4 -1 116 115 94
-3.22638177871704102 4 4 21 21 16
-3 3.3689417839050293 4 186 227 180
-3 4 4.20172691345214844 66 60 53
-3.75578546524047852 5 -2 159 174 143
-3 5 -2.6423027515411377 134 162 140
-3.63804221153259277 5 4 89 115 107
-3 5 4.56486701965332031 66 82 68
-3.69553709030151367 6 -2 231 178 178
-3 6 -2.52341818809509277 226 175 175
-3.98727130889892578 6 4 162 194 206
-3 6 4.85906887054443359 157 195 166
-3.93191003799438477 7 -2 243 186 186
-3 7 -2.75664830207824707 239 187 222
-3.21823620796203613 7 5 195 239 205
-3 6.39948081970214844 5 153 184 148
-3 7 5.14855861663818359 196 224 233
-3.56019902229309082 8 -3 222 217 252
-3 7.30614280700683594 -3 239 187 222
-3 8 -3.45022344589233398 231 216 244
-3.80267453193664551 8 5 239 227 199
-3 8 5.53704071044921875 230 215 196
-3 8.93487644195556641 -3 242 222 249
-3 8.97143745422363281 -2 251 224 252
-3 8.97772693634033203 -1 252 226 246
-3 8.97952079772949219 0 252 226 242
-3 8.97995376586914062 1 251 225 244
-3 8.97977066040039062 2 245 223 250
-3 8.97855758666992188 3 218 220 246
-3 8.97384166717529297 4 209 240 227
-3 8.9477081298828125 5 230 215 196
-2.1291356086730957 -3 0 223 235 230
-2 -3.11037397384643555 0 230 230 228
-2 -3 -0.127830997109413147 219 210 222
-2.53956842422485352 -3 1 228 237 230
-2 -3.4329216480255127 1 205 206 205
-2.43070602416992188 -3 2 215 223 224
-2 -3.33966851234436035 2 152 152 152
-2 -3 2.7152104377746582 227 231 231
-2.66747117042541504 -2 0 118 107 107
-2 -2 -0.332919299602508545 147 129 129
-2.99516963958740234 -2 3 228 231 241
-2 -2.84627246856689453 3 201 200 204
-2 -2 3.89339184761047363 237 240 245
-2.58749771118164062 -1 -1 213 194 194
-2 -1.26585888862609863 -1 147 129 129
-2 -1 -1.37020421028137207 238 213 213
-2 -1.54712784290313721 0 37 34 34
-2 -1 -0.62475895881652832 192 181 181
-2 -1 0.413702517747879028 247 215 215
-2.97237634658813477 -1 4 232 234 249
-2 -1.89171993732452393 4 230 221 225
-2 -1 4.59510040283203125 240 245 251
-2.75983953475952148 0 -1 211 179 179
-2 0 -1.40812194347381592 209 171 171
-2 -0.688848495483398438 0 247 215 215
-2.63504362106323242 0 2 253 222 222
-2.29921770095825195 0 5 241 217 217
-2 -0.330395221710205078 5 246 231 231
-2 0 5.14925622940063477 250 231 231
-2.70706963539123535 1 -2 13 10 10
-2 0.720040559768676758 -2 209 171 171
-2 1 -2.36113524436950684 123 102 102
-2.57269859313964844 1 4 223 198 198
-2.20150136947631836 1 5 109 100 100
-2 1 5.16488504409790039 202 190 190
-2.09669399261474609 2 -2 247 193 193
-2 2 -2.04553556442260742 249 196 196
-2.50802087783813477 2 4 252 194 194
-2 1.14480233192443848 5 202 190 190
-2 2 4.25800943374633789 242 192 192
-2.29635453224182129 3 -2 25 30 24
-2 3 -2.15949201583862305 30 37 30
-2.78592467308044434 3 4 186 227 180
-2 3 4.43940401077270508 238 244 198
-2 4 -2.6641075611114502 85 80 71
-2 4 4.79738759994506836 116 96 95
-2.38402938842773438 5 -3 134 162 140
-2 4.60481071472167969 -3 85 80 71
-2 5 -3.1584618091583252 119 142 135
-2.29506850242614746 5 5 44 56 55
-2 4.51904582977294922 5 130 141 113
-2 5 5.13431453704833984 9 11 10
-2.09933662414550781 6 -3 226 175 175
-2 6 -3.04000353813171387 205 160 186
-2.76940298080444336 6 5 153 184 148
-2 6 5.33540058135986328 165 158 136
-2.55505561828613281 7 -3 239 187 222
-2 7 -3.21257781982421875 192 212 240
-2 7 5.59013175964355469 198 193 224
-2.06724810600280762 8 -4 231 216 244
-2 7.95860624313354492 -4 192 212 240
-2 8 -4.03008842468261719 203 197 218
-2.00959134101867676 8 6 179 216 178
-2 7.9889369010925293 6 178 212 205
-2 8 6.00326967239379883 165 196 169
-2 8.55827236175537109 -4 217 214 236
-2 8.96728229522705078 -3 225 223 244
-2 8.97780799865722656 -2 230 227 248
-2 8.98009490966796875 -1 233 228 250
-2 8.98038673400878906 0 233 228 250
-2 8.98029136657714844 1 229 227 249
-2 8.9803619384765625 2 223 228 245
-2 8.98025131225585938 3 216 236 239
-2 8.97840595245361328 4 204 229 205
-2 8.9685821533203125 5 215 194 187
-2 8.13141632080078125 6 165 196 169
-1 -3.54164218902587891 0 238 237 236
-1 -3 -0.676038801670074463 236 241 243
-1 -3.85181951522827148 1 218 219 216
-1 -3.74833011627197266 2 173 176 175
-1.66200101375579834 -3 3 201 200 204
-1 -3.26239848136901855 3 102 102 103
-1 -3 3.30421900749206543 218 218 218
-1 -2 -0.769895672798156738 251 229 229
-1.77588069438934326 -2 4 230 221 225
-1 -2.3367307186126709 4 190 189 191
-1 -2 4.24224424362182617 237 233 237
-1 -1.68254351615905762 -1 251 229 229
-1 -1 -1.72740459442138672 227 210 210
-1.01568615436553955 -1 0 247 215 215
-1 -1 4.92422199249267578 246 251 252
-1 0 -1.70499753952026367 254 215 215
-1 -0.878831744194030762 5 249 238 242
-1 0 5.39712715148925781 248 240 253
-1 0.431567251682281494 -2 254 215 215
-1 1 -2.5406944751739502 133 111 111
-1 1 5.61209297180175781 253 241 241
-1 2 -2.24417710304260254 251 202 202
-1 1.419830322265625 5 253 241 241
-1 2 4.43310070037841797 218 177 177
-1 3 -2.4279477596282959 82 81 68
-1 3 4.71809768676757812 254 228 210
-1 4 -2.98711705207824707 35 32 30
-1.37308573722839355 4 5 130 141 113
-1 3.70564746856689453 5 216 254 206
-1 4 5.08449935913085938 188 185 154
-1 4.02511215209960938 -3 35 32 30
-1 5 -3.34344315528869629 92 106 109
-1 5 5.36063814163208008 36 41 33
-1 6 -3.23706603050231934 166 133 167
-1 6 5.55608272552490234 138 126 116
-1 7 -3.38788747787475586 202 243 247
-1 7 5.82048559188842773 207 184 208
-1 7.66678810119628906 -4 202 243 247
-1 8 -4.26805877685546875 182 198 198
-1 7.43038034439086914 6 167 187 195
-1 8 6.16221284866333008 139 163 148
-1 8.91718673706054688 -4 205 223 214
-1 8.97340679168701172 -3 218 236 222
-1 8.97946453094482422 -2 224 242 227
-1 8.98039054870605469 -1 227 245 230
-1 8.97997474670410156 0 226 245 231
-1 8.97961330413818359 1 224 242 230
-1 8.97988224029541016 2 217 236 225
-1 8.98037338256835938 3 206 225 209
-1 8.97961044311523438 4 202 209 188
-1 8.97319793701171875 5 188 170 166
-1 8.88283634185791016 6 139 163 148
0 -3.57382440567016602 0 244 239 239
0 -3 -0.758660614490509033 249 251 248
0 -3.87743973731994629 1 230 229 224
0 -3.77231073379516602 2 193 199 193
0 -3.28448772430419922 3 140 142 143
0 -3 3.32960987091064453 227 230 230
-0.0434246659278869629 -2 -1 251 229 229
0 -2.07656335830688477 -1 249 251 248
0 -2 -1.00507020950317383 13 11 11
0 -2.35978960990905762 4 212 212 213
0 -2 4.25841045379638672 243 242 244
0 -1 -1.63420557975769043 211 199 199
0 -1 4.93921470642089844 250 253 253
0 0 -1.80059027671813965 211 184 184
0 -0.904257655143737793 5 251 244 250
0 0 5.4112706184387207 245 249 254
0 0.358662962913513184 -2 211 184 184
0 1 -2.41672015190124512 138 116 116
0 1 5.70337486267089844 106 101 101
0 2 -2.19041347503662109 247 204 239
0 1.57871007919311523 5 106 101 101
0 2 4.53562831878662109 177 146 146
0 3 -2.43361735343933105 139 122 118
0 3 4.70622730255126953 252 226 213
-0.181187137961387634 4 -3 35 32 30
0 3.99561619758605957 -3 139 122 118
0 4 -3.00193214416503906 28 28 24
0 3.69541358947753906 5 249 249 206
0 4 5.09248495101928711 227 208 189
0 5 -3.30853867530822754 54 59 63
0 5 5.36588239669799805 99 98 83
0 6 -3.23758316040039062 103 95 117
0 6 5.55573129653930664 90 101 87
0 7 -3.3794550895690918 212 249 209
0 7 5.81838369369506836 184 165 176
0 7.64023447036743164 -4 212 249 209
0 8 -4.30482673645019531 160 166 153
0 7.44293212890625 6 147 158 168
0 8 6.15554428100585938 93 109 103
0 8.92632007598876953 -4 198 193 183
0 8.97418022155761719 -3 217 204 202
0 8.97968673706054688 -2 228 213 212
0 8.98036670684814453 -1 232 217 216
0 8.97979164123535156 0 231 218 215
0 8.97937679290771484 1 225 218 210
0 8.97971439361572266 2 214 213 199
0 8.98034286499023438 3 194 195 180
0 8.97971630096435547 4 170 164 155
0 8.97340869903564453 5 141 137 125
0 8.88011455535888672 6 93 109 103
1 -3.21654939651489258 0 249 245 241
1 -3 -0.297583907842636108 254 253 253
1 -3.50698256492614746 1 240 233 231
1 -3.40627837181091309 2 215 219 211
0.80563056468963623 -3 3 227 230 230
1 -3 2.85320305824279785 243 248 241
0.108889311552047729 -2 -1 79 74 74
1 -2 -0.887400686740875244 145 138 138
1 -2.92015790939331055 3 235 240 237
0.921071529388427734 -2 4 243 242 244
1 -2 3.9659721851348877 249 252 251
0.542543709278106689 -1 -1 125 119 119
1 -1 -0.572137176990509033 70 66 66
1 -1.96541595458984375 4 248 248 249
1 -1 4.63841962814331055 253 254 253
1 -0.709018468856811523 -1 70 66 66
1 0 -1.60356581211090088 91 80 80
1 -0.429828613996505737 5 251 248 253
1 0 5.19836950302124023 248 254 253
1 0.922571539878845215 -2 91 80 80
1 1 -2.03353452682495117 142 120 120
1 1 5.48178625106811523 144 138 138
0.627214431762695312 2 -2 239 200 228
1 1.22782421112060547 -2 121 103 103
1 2 -1.83569276332855225 186 216 219
1 1.58512032032012939 5 144 138 138
1 2 4.38952541351318359 123 102 102
1 2.40410852432250977 -2 186 216 219
1 3 -2.1717374324798584 189 197 170
1 3 4.40426063537597656 231 235 201
0.00906889885663986206 4 -3 27 24 23
1 4 -2.69984745979309082 101 91 88
0.440780907869338989 4 5 227 208 189
1 4 4.83122396469116211 235 244 210
1 4.76993656158447266 -3 101 91 88
1 5 -3.06103348731994629 1 1 2
1 4.44896697998046875 5 251 217 212
1 5 5.14797449111938477 156 140 134
1 6 -3.03072595596313477 61 65 73
1 6 5.33579874038696289 45 51 51
1 7 -3.20627546310424805 248 229 215
1 7 5.59215831756591797 144 131 138
1 7.83743953704833984 -4 248 229 215
1 8 -4.1337127685546875 87 89 83
0.950972378253936768 8 6 93 109 103
1 8 5.9882659912109375 64 65 58
1 8.84884548187255859 -4 124 119 115
1 8.97076034545898438 -3 154 148 144
1 8.97886085510253906 -2 175 177 165
1 8.98035717010498047 -1 183 189 176
1 8.98020362854003906 0 185 190 178
1 8.97994804382324219 1 182 182 170
1 8.98015689849853516 2 164 156 153
1 8.980377197265625 3 135 127 126
1 8.97892284393310547 4 101 94 93
1 8.96958351135253906 5 64 65 58
1.28920114040374756 -3 0 253 250 249
1.67870199680328369 -3 1 252 251 246
1.54352056980133057 -3 2 243 248 241
2 -2.36874651908874512 0 254 252 247
2 -2 -0.305805593729019165 238 231 231
2 -2.73541569709777832 1 253 247 245
2 -2.62587213516235352 2 250 251 243
2 -2.09975671768188477 3 242 247 240
2 -2 3.10442948341369629 249 253 250
2 -1 -0.0368425510823726654 56 51 51
2 -1.08689475059509277 4 249 252 252
2 -1 4.05792760848999023 254 254 254
2 -0.0215089526027441025 -1 56 51 51
2 0 -1.02556300163269043 41 36 36
1.50142669677734375 0 1 242 223 223
2 -0.208248332142829895 1 197 193 193
2 0 0.741409182548522949 254 247 247
2 0 1.20126080513000488 194 180 180
1.44770896434783936 0 5 248 254 253
2 0 4.64733219146728516 250 252 254
1.05112457275390625 1 -2 121 103 103
2 1 -1.10154974460601807 145 124 124
2 0.246366068720817566 1 194 180 180
2 0.903384208679199219 5 250 254 251
2 1 5.02955722808837891 242 231 231
2 2 -1.0591893196105957 178 171 154
1.34130048751831055 2 4 123 102 102
2 1.60383772850036621 4 39 38 38
2 2 3.32306027412414551 57 67 60
2 1.04736971855163574 5 242 231 231
1.31854140758514404 3 -2 211 212 184
2 3 -1.47527658939361572 218 248 226
1.69343733787536621 3 4 231 235 201
2 3 3.73540425300598145 189 216 207
2 3.75898933410644531 -2 218 248 226
2 4 -2.12278962135314941 177 162 156
2 3.41492891311645508 4 176 200 172
2 4 4.25060939788818359 232 254 222
1.13106644153594971 5 -3 6 6 7
2 5 -2.4501640796661377 69 72 80
1.32884681224822998 5 5 156 140 134
2 5 4.58782339096069336 165 179 158
1.07114660739898682 6 -3 119 101 122
2 6 -2.47703862190246582 95 101 112
1.77856349945068359 6 5 45 51 51
2 6 4.8671717643737793 19 17 19
1.61268365383148193 7 -3 249 247 219
2 7 -2.8197944164276123 230 217 238
2 6.33144950866699219 5 10 10 11
2 7 5.17841005325317383 85 78 85
1.34211647510528564 8 -4 124 119 115
2 7.18529605865478516 -3 230 217 238
2 8 -3.65929603576660156 67 71 69
2 8 5.55591344833374023 37 38 34
2 8.95433235168457031 -3 41 41 39
2 8.97521686553955078 -2 4 4 4
2 8.97932910919189453 -1 47 48 45
2 8.98026466369628906 0 70 74 69
2 8.98038005828857422 1 75 78 73
2 8.98031425476074219 2 62 62 58
2 8.97957515716552734 3 32 31 30
2 8.97577285766601562 4 3 3 3
2 8.95324420928955078 5 37 38 34
2.28037905693054199 -2 0 254 254 253
2.59166169166564941 -2 1 254 250 249
2.50296187400817871 -2 2 254 253 249
2.07945728302001953 -2 3 249 253 250
2.0702061653137207 -1 0 254 246 246
3 -1.25456154346466064 1 253 254 248
3 -1 0.841734230518341064 18 17 17
3 -1.32620573043823242 2 254 249 248
2.8320472240447998 -1 3 254 253 251
3 -1 2.59963345527648926 254 251 251
2.06459712982177734 -1 4 254 254 254
2.0256965160369873 0 -1 76 71 71
2.60384058952331543 0 0 254 247 247
3 -0.886038661003112793 1 250 248 248
3 0 1.79876971244812012 11 10 10
3 -0.655425727367401123 3 254 252 251
2.70810604095458984 0 4 250 252 254
3 0 3.52349686622619629 249 244 244
2.07721972465515137 1 -1 123 106 106
2.51837491989135742 1 0 82 71 71
2.67469596862792969 1 1 33 28 28
2.67924308776855469 1 2 218 194 194
3 0.417450696229934692 2 102 101 101
2.83112215995788574 1 3 248 230 230
3 0.71322786808013916 3 249 244 244
2.94565248489379883 1 4 39 38 38
2.04131054878234863 1 5 242 231 231
2.05146455764770508 2 -1 147 145 128
2.5960690975189209 2 0 106 103 92
2.83330106735229492 2 1 65 62 56
2.69734406471252441 2 2 52 51 45
2.21679782867431641 2 3 57 67 60
2.4120173454284668 3 -1 224 253 234
2.96292281150817871 3 0 225 254 242
3 2.49563312530517578 1 7 8 7
3 3 0.168092668056488037 205 206 230
3 2.87167096138000488 2 5 5 4
2.57209634780883789 3 3 189 216 207
3 3 2.09694695472717285 166 166 187
2.14010334014892578 4 -2 179 160 158
2.96326565742492676 4 -1 189 177 168
3 3.06999707221984863 0 205 206 230
3 4 -0.93066781759262085 226 240 214
3 3.83274078369140625 3 144 154 164
2.28585362434387207 4 4 232 254 222
3 4 3.10596799850463867 221 244 248
2.52258181571960449 5 -2 71 75 82
3 4.08449172973632812 -1 226 240 214
3 5 -1.43127274513244629 128 146 136
2.66045045852661133 5 4 165 179 158
3 5 3.57869148254394531 185 199 205
2.60325407981872559 6 -2 119 126 138
3 6 -1.5853804349899292 128 127 113
3 5.92899560928344727 4 201 226 219
3 6 4.02081441879272461 56 52 52
3 6.66763877868652344 -2 128 127 113
3 7 -2.15537881851196289 194 184 184
2.2853696346282959 7 5 85 78 85
3 7 4.41456365585327148 18 17 17
2.92238354682922363 8 -3 41 41 39
3 8 -2.92868661880493164 236 242 251
2.98282384872436523 8 5 37 38 34
3 8 4.98637151718139648 127 124 118
3 8.95815849304199219 -2 221 233 218
3 8.97374248504638672 -1 186 175 175
3 8.97759151458740234 0 128 131 123
3 8.97855281829833984 1 91 94 89
3 8.97803211212158203 2 86 88 83
3 8.97509765625 3 103 102 97
3 8.96266937255859375 4 127 124 118
3.10537600517272949 -1 1 250 248 248
3.17529487609863281 -1 2 254 251 251
3.2296442985534668 0 2 102 101 101
3.23789739608764648 0 3 249 244 244
3.1237187385559082 3 1 190 187 210
3.03270936012268066 3 2 166 166 187
3.3414924144744873 4 0 221 247 232
3.48226714134216309 4 1 228 248 253
3.38827204704284668 4 2 228 241 254
3.06161141395568848 4 3 221 244 248
3.27317929267883301 5 -1 139 145 129
3.65921783447265625 5 0 150 137 135
3.80401468276977539 5 1 151 164 148
3.68959259986877441 5 2 166 183 183
3.33752799034118652 5 3 185 199 205
3.42452120780944824 6 -1 116 114 105
3.91362214088439941 6 0 80 86 87
4 5.61913108825683594 1 204 202 220
4 6 0.404058754444122314 2 2 2
4 5.92539548873901367 2 230 214 233
3.63265371322631836 6 3 26 24 24
4 6 2.06416463851928711 87 83 83
3.01835894584655762 6 4 56 52 52
3.1662755012512207 7 -2 194 185 185
3.95100212097167969 7 -1 183 177 177
4 6.17009782791137695 0 2 2 2
4 7 -0.904876828193664551 84 82 82
4 6.80894184112548828 3 118 112 112
3.38972973823547363 7 4 18 17 17
4 7 3.11987018585205078 69 66 66
3.79119062423706055 8 -2 221 233 218
4 7.07961702346801758 -1 84 82 82
4 8 -1.69540667533874512 172 175 183
3.97333288192749023 8 4 127 124 118
4 8 3.96244692802429199 218 211 206
4 8.93242263793945312 -1 232 239 225
4 8.96160316467285156 0 254 242 239
4 8.9669189453125 1 234 235 222
4 8.96457862854003906 2 219 218 208
4 8.94766426086425781 3 218 211 206
4.08946084976196289 6 1 46 44 44
4.01875782012939453 6 2 87 83 83
4.31847190856933594 7 0 55 54 54
4.45303630828857422 7 1 14 13 13
4.36615133285522461 7 2 31 30 30
4.06457185745239258 7 3 69 66 66
4.36943244934082031 8 -1 232 239 225
4.7286829948425293 8 0 254 242 239
4.89450597763061523 8 1 234 235 222
4.81888341903686523 8 2 219 218 208
4.50663137435913086 8 3 218 211 206
3 2 1 0
3 1 3 0
3 5 2 0
3 4 5 0
3 3 7 6
3 3 6 0
3 0 6 4
3 7 8 6
3 11 10 9
3 10 5 4
3 10 4 9
3 9 4 12
3 4 6 12
3 6 13 12
3 8 15 14
3 8 14 6
3 6 14 13
3 15 16 14
3 11 9 17
3 9 12 18
3 17 9 18
3 12 13 19
3 18 12 19
3 13 14 20
3 19 13 20
3 14 16 20
3 23 22 21
3 22 24 21
3 26 23 21
3 25 26 21
3 24 28 27
3 24 27 21
3 21 27 25
3 28 29 27
3 32 31 30
3 31 26 25
3 31 25 30
3 30 25 33
3 25 27 33
3 27 34 33
3 29 35 34
3 27 29 34
3 32 30 36
3 38 36 30
3 38 30 37
3 37 30 33
3 33 34 37
3 34 39 37
3 35 40 39
3 34 35 39
3 43 42 41
3 42 38 37
3 42 37 41
3 41 37 44
3 37 39 44
3 39 45 44
3 40 47 46
3 40 46 39
3 39 46 45
3 47 48 46
3 51 50 49
3 50 43 41
3 50 41 49
3 49 41 52
3 41 44 52
3 44 53 52
3 44 45 53
3 45 54 53
3 45 46 54
3 46 55 54
3 48 56 55
3 46 48 55
3 58 51 49
3 57 58 49
3 49 52 57
3 52 59 57
3 2 53 1
3 2 59 53
3 59 52 53
3 1 60 3
3 1 53 60
3 53 54 60
3 54 55 60
3 55 61 60
3 56 62 61
3 55 56 61
3 64 58 57
3 63 64 57
3 57 59 63
3 59 65 63
3 59 5 65
3 2 5 59
3 60 7 3
3 7 66 8
3 7 60 66
3 60 61 66
3 62 68 67
3 62 67 61
3 61 67 66
3 68 69 67
3 72 71 70
3 71 64 63
3 71 63 70
3 70 63 73
3 11 65 10
3 11 73 65
3 73 63 65
3 65 5 10
3 66 15 8
3 15 74 16
3 15 66 74
3 66 67 74
3 69 75 74
3 67 69 74
3 72 70 76
3 70 73 77
3 76 70 77
3 73 11 17
3 73 17 77
3 77 17 78
3 78 17 79
3 17 18 79
3 79 18 80
3 18 19 80
3 80 19 81
3 19 20 81
3 16 74 82
3 16 82 20
3 20 82 81
3 74 75 82
3 85 84 83
3 84 87 86
3 83 84 86
3 87 88 86
3 90 85 83
3 89 90 83
3 83 86 89
3 86 91 89
3 88 93 92
3 88 92 86
3 86 92 91
3 93 94 92
3 97 96 95
3 89 22 23
3 90 89 23
3 90 23 95
3 90 95 96
3 98 89 91
3 98 24 89
3 98 99 24
3 24 22 89
3 101 98 91
3 101 91 100
3 100 91 92
3 94 103 102
3 94 102 92
3 92 102 100
3 103 104 102
3 107 106 105
3 106 97 95
3 106 95 105
3 105 95 108
3 95 26 108
3 23 26 95
3 99 28 24
3 109 28 99
3 101 100 110
3 101 110 28
3 101 28 109
3 29 28 110
3 111 112 110
3 111 110 102
3 102 110 100
3 102 104 111
3 114 107 105
3 113 114 105
3 32 108 31
3 32 113 108
3 113 105 108
3 108 26 31
3 115 29 110
3 35 29 115
3 112 116 115
3 110 112 115
3 118 114 113
3 117 118 113
3 36 113 32
3 36 119 113
3 119 117 113
3 36 38 119
3 120 35 115
3 40 35 120
3 116 121 120
3 115 116 120
3 124 123 122
3 123 118 117
3 123 117 122
3 122 117 125
3 43 119 42
3 43 125 119
3 125 117 119
3 119 38 42
3 120 47 40
3 47 126 48
3 120 126 47
3 120 127 126
3 120 121 127
3 127 128 126
3 130 124 122
3 129 130 122
3 51 125 50
3 51 129 125
3 129 122 125
3 125 43 50
3 131 48 126
3 56 48 131
3 128 132 131
3 126 128 131
3 134 130 129
3 133 134 129
3 129 58 133
3 51 58 129
3 135 56 131
3 62 56 135
3 132 136 135
3 131 132 135
3 138 134 133
3 137 138 133
3 133 64 137
3 58 64 133
3 135 68 62
3 68 139 69
3 135 139 68
3 135 140 139
3 135 136 140
3 140 141 139
3 144 143 142
3 137 71 72
3 138 137 72
3 138 72 142
3 138 142 143
3 137 64 71
3 145 69 139
3 75 69 145
3 141 146 145
3 139 141 145
3 144 142 147
3 142 72 76
3 142 76 147
3 147 76 148
3 148 76 149
3 76 77 149
3 149 77 150
3 77 78 150
3 150 78 151
3 78 79 151
3 151 79 152
3 79 80 152
3 152 80 153
3 80 81 153
3 153 81 154
3 81 82 154
3 75 145 155
3 75 155 82
3 82 155 154
3 145 146 155
3 158 157 156
3 157 160 159
3 156 157 159
3 160 162 161
3 159 160 161
3 162 163 161
3 165 158 156
3 164 165 156
3 85 159 84
3 85 164 159
3 164 156 159
3 161 84 159
3 87 84 161
3 87 166 88
3 161 166 87
3 161 167 166
3 161 163 167
3 167 168 166
3 171 170 169
3 172 173 169
3 172 169 164
3 170 165 169
3 165 164 169
3 164 174 172
3 164 85 174
3 85 90 174
3 166 93 88
3 93 175 94
3 166 175 93
3 166 176 175
3 166 168 176
3 176 177 175
3 179 171 169
3 178 179 169
3 173 180 96
3 173 96 178
3 173 178 169
3 178 96 97
3 180 90 96
3 174 90 180
3 98 181 99
3 98 101 181
3 175 103 94
3 103 182 104
3 175 182 103
3 175 183 182
3 175 177 183
3 183 184 182
3 187 186 185
3 178 106 107
3 179 178 107
3 179 107 185
3 179 185 186
3 178 97 106
3 181 109 99
3 181 101 109
3 111 188 112
3 104 188 111
3 104 182 188
3 182 189 188
3 184 190 189
3 182 184 189
3 192 187 185
3 191 192 185
3 185 114 191
3 107 114 185
3 193 112 188
3 116 112 193
3 194 195 193
3 194 193 189
3 189 193 188
3 189 190 194
3 197 192 191
3 196 197 191
3 191 118 196
3 114 118 191
3 198 116 193
3 121 116 198
3 195 199 198
3 193 195 198
3 196 123 124
3 196 124 197
3 197 124 200
3 196 118 123
3 198 127 121
3 127 198 199
3 127 199 128
3 128 199 201
3 204 203 202
3 203 130 202
3 203 200 130
3 200 124 130
3 205 201 206
3 205 132 201
3 132 128 201
3 206 207 205
3 209 204 202
3 208 209 202
3 202 134 208
3 130 134 202
3 210 132 205
3 136 132 210
3 207 211 210
3 205 207 210
3 213 209 208
3 212 213 208
3 208 138 212
3 134 138 208
3 210 140 136
3 140 210 211
3 140 211 141
3 141 211 214
3 217 216 215
3 212 143 144
3 213 212 144
3 213 144 215
3 213 215 216
3 212 138 143
3 218 214 219
3 218 146 214
3 146 141 214
3 219 220 218
3 217 215 221
3 215 144 147
3 215 147 221
3 221 147 222
3 222 147 223
3 147 148 223
3 223 148 224
3 148 149 224
3 224 149 225
3 149 150 225
3 225 150 226
3 150 151 226
3 226 151 227
3 151 152 227
3 227 152 228
3 152 153 228
3 228 153 229
3 153 154 229
3 229 154 230
3 154 155 230
3 146 218 231
3 146 231 155
3 155 231 230
3 218 220 231
3 158 233 232
3 157 158 232
3 232 234 157
3 157 234 160
3 234 235 160
3 160 235 162
3 236 163 162
3 236 162 237
3 237 162 235
3 237 238 236
3 233 158 239
3 239 158 165
3 236 167 163
3 167 240 168
3 236 240 167
3 236 241 240
3 236 238 241
3 241 242 240
3 171 244 243
3 170 171 243
3 165 243 239
3 165 170 243
3 173 172 245
3 172 174 245
3 240 176 168
3 176 240 242
3 176 242 177
3 177 242 246
3 244 171 247
3 247 171 179
3 245 180 173
3 245 174 180
3 246 183 177
3 248 183 246
3 183 248 249
3 184 183 249
3 187 251 250
3 186 187 250
3 250 179 186
3 247 179 250
3 249 252 184
3 252 190 184
3 251 187 253
3 253 187 192
3 195 254 255
3 194 254 195
3 254 194 190
3 252 254 190
3 253 192 256
3 256 192 197
3 255 257 195
3 257 199 195
3 256 197 258
3 258 197 200
3 259 257 260
3 259 201 257
3 201 199 257
3 260 261 259
3 204 263 262
3 203 204 262
3 262 200 203
3 258 200 262
3 259 206 201
3 206 259 261
3 206 261 207
3 207 261 264
3 263 204 265
3 265 204 209
3 264 266 207
3 266 211 207
3 265 209 267
3 267 209 213
3 266 268 211
3 268 214 211
3 217 270 269
3 216 217 269
3 269 213 216
3 267 213 269
3 268 219 214
3 271 219 268
3 219 271 272
3 220 219 272
3 270 217 221
3 273 270 221
3 273 221 274
3 221 222 274
3 274 222 275
3 222 223 275
3 275 223 276
3 223 224 276
3 276 224 277
3 224 225 277
3 277 225 278
3 225 226 278
3 278 226 279
3 226 227 279
3 279 227 280
3 227 228 280
3 280 228 281
3 228 229 281
3 281 229 282
3 229 230 282
3 282 230 283
3 230 231 283
3 283 231 220
3 272 283 220
3 233 285 284
3 232 233 284
3 284 286 232
3 232 286 234
3 286 287 234
3 234 287 235
3 287 288 235
3 235 288 237
3 237 288 289
3 238 237 289
3 292 291 290
3 291 239 290
3 291 285 239
3 285 233 239
3 289 241 238
3 293 241 289
3 241 293 294
3 242 241 294
3 290 243 244
3 290 244 292
3 292 244 295
3 290 239 243
3 294 296 242
3 296 246 242
3 295 244 297
3 297 244 247
3 296 248 246
3 298 248 296
3 248 298 299
3 249 248 299
3 251 301 300
3 250 251 300
3 300 247 250
3 297 247 300
3 299 302 249
3 302 252 249
3 301 251 303
3 303 251 253
3 255 304 305
3 254 304 255
3 304 254 252
3 302 304 252
3 303 253 306
3 306 253 256
3 305 307 255
3 307 257 255
3 310 309 308
3 309 258 308
3 309 306 258
3 306 256 258
3 307 260 257
3 311 260 307
3 260 311 312
3 261 260 312
3 308 262 263
3 308 263 310
3 310 263 313
3 308 258 262
3 312 314 261
3 314 264 261
3 313 263 315
3 315 263 265
3 314 316 264
3 316 266 264
3 315 265 317
3 317 265 267
3 316 318 266
3 318 268 266
3 270 320 319
3 269 270 319
3 319 267 269
3 317 267 319
3 318 271 268
3 321 271 318
3 271 321 322
3 272 271 322
3 320 270 273
3 323 320 273
3 323 273 324
3 273 274 324
3 324 274 325
3 274 275 325
3 325 275 326
3 275 276 326
3 326 276 327
3 276 277 327
3 327 277 328
3 277 278 328
3 328 278 329
3 278 279 329
3 329 279 330
3 279 280 330
3 330 280 331
3 280 281 331
3 331 281 332
3 281 282 332
3 332 282 333
3 282 283 333
3 333 283 272
3 322 333 272
3 285 335 334
3 284 285 334
3 334 336 284
3 284 336 286
3 336 337 286
3 286 337 287
3 339 338 288
3 339 288 337
3 337 288 287
3 288 338 289
3 291 292 340
3 340 285 291
3 340 341 285
3 341 335 285
3 339 342 338
3 344 343 293
3 342 344 293
3 342 293 289
3 342 289 338
3 293 343 294
3 345 340 292
3 295 345 292
3 341 345 346
3 340 345 341
3 344 347 343
3 343 347 348
3 343 348 294
3 294 348 296
3 349 345 295
3 349 295 350
3 350 295 297
3 345 349 346
3 348 298 296
3 351 298 348
3 298 351 352
3 299 298 352
3 301 354 353
3 300 301 353
3 353 297 300
3 350 297 353
3 352 355 299
3 355 302 299
3 356 357 354
3 356 354 303
3 303 354 301
3 357 356 358
3 305 359 360
3 304 359 305
3 359 304 302
3 355 359 302
3 361 356 303
3 361 303 362
3 362 303 306
3 356 361 358
3 360 363 305
3 363 307 305
3 309 310 364
3 364 306 309
3 364 365 306
3 365 362 306
3 311 367 366
3 311 307 367
3 307 363 367
3 311 366 312
3 368 364 310
3 368 310 369
3 369 310 313
3 364 368 365
3 367 370 366
3 366 370 371
3 366 371 312
3 312 371 314
3 369 313 372
3 372 313 315
3 371 373 314
3 373 316 314
3 372 315 374
3 374 315 317
3 373 375 316
3 375 318 316
3 320 377 376
3 319 320 376
3 376 317 319
3 374 317 376
3 321 379 378
3 321 318 379
3 318 375 379
3 321 378 322
3 377 320 323
3 380 377 323
3 380 323 381
3 323 324 381
3 381 324 382
3 324 325 382
3 382 325 383
3 325 326 383
3 383 326 384
3 326 327 384
3 384 327 385
3 327 328 385
3 385 328 386
3 328 329 386
3 386 329 387
3 329 330 387
3 387 330 388
3 330 331 388
3 388 331 389
3 331 332 389
3 378 379 389
3 378 389 333
3 333 389 332
3 378 333 322
3 334 335 390
3 336 334 390
3 391 336 390
3 337 336 391
3 392 337 391
3 337 392 339
3 393 390 335
3 393 335 394
3 394 335 341
3 390 395 391
3 393 395 390
3 391 396 392
3 395 396 391
3 392 342 339
3 392 396 342
3 396 397 342
3 342 397 398
3 344 342 398
3 394 341 399
3 399 341 346
3 398 347 344
3 400 347 398
3 347 400 401
3 348 347 401
3 350 403 402
3 349 350 402
3 402 346 349
3 399 346 402
3 406 404 405
3 405 404 407
3 351 409 408
3 351 348 409
3 348 401 409
3 351 408 352
3 353 354 410
3 410 350 353
3 410 411 350
3 411 403 350
3 406 412 404
3 404 412 407
3 409 413 408
3 408 413 414
3 408 414 352
3 352 414 355
3 410 354 357
3 357 411 410
3 357 358 411
3 358 415 411
3 418 416 417
3 360 417 416
3 360 359 417
3 359 419 417
3 419 359 355
3 414 419 355
3 361 362 420
3 420 358 361
3 420 421 358
3 421 415 358
3 423 416 418
3 422 416 423
3 416 422 363
3 360 416 363
3 424 420 362
3 424 362 425
3 425 362 365
3 420 424 421
3 423 426 422
3 422 426 427
3 422 427 363
3 363 427 367
3 368 369 428
3 428 365 368
3 428 429 365
3 429 425 365
3 370 431 430
3 370 367 431
3 367 427 431
3 370 430 371
3 432 428 369
3 372 432 369
3 429 432 433
3 428 432 429
3 435 430 431
3 434 430 435
3 430 434 373
3 371 430 373
3 436 432 372
3 374 436 372
3 433 436 437
3 432 436 433
3 435 438 434
3 434 438 439
3 434 439 373
3 373 439 375
3 376 377 440
3 440 442 441
3 376 440 441
3 376 441 436
3 376 436 374
3 436 441 437
3 439 443 375
3 443 379 375
3 440 377 380
3 442 440 380
3 442 380 444
3 444 380 381
3 444 381 445
3 381 382 445
3 445 382 446
3 382 383 446
3 446 383 447
3 383 384 447
3 447 384 448
3 384 385 448
3 448 385 449
3 385 386 449
3 449 386 450
3 386 387 450
3 450 387 451
3 387 388 451
3 451 388 452
3 388 389 452
3 452 389 379
3 443 452 379
3 393 394 453
3 395 393 453
3 454 395 453
3 396 395 454
3 455 396 454
3 397 396 455
3 456 397 455
3 397 456 398
3 457 453 394
3 399 457 394
3 458 457 459
3 458 454 457
3 454 453 457
3 454 460 455
3 458 460 454
3 462 455 460
3 462 461 455
3 461 456 455
3 400 398 456
3 400 456 463
3 463 456 461
3 400 463 401
3 402 403 464
3 399 402 464
3 399 464 457
3 457 464 465
3 459 405 466
3 459 465 405
3 459 457 465
3 465 406 405
3 405 467 466
3 407 467 405
3 462 468 461
3 470 461 468
3 470 469 461
3 469 463 461
3 463 469 409
3 401 463 409
3 471 464 403
3 411 471 403
3 464 471 465
3 465 471 472
3 412 406 465
3 412 465 473
3 473 465 472
3 475 467 407
3 475 407 473
3 475 473 474
3 412 473 407
3 475 476 477
3 474 476 475
3 477 469 470
3 477 476 469
3 476 478 469
3 413 409 469
3 413 469 479
3 479 469 478
3 413 479 414
3 480 471 411
3 415 480 411
3 471 480 472
3 472 480 481
3 472 481 473
3 473 481 482
3 473 482 474
3 474 482 483
3 474 483 476
3 476 483 484
3 418 417 478
3 418 478 484
3 484 478 476
3 479 478 417
3 419 479 417
3 479 419 414
3 485 480 415
3 421 485 415
3 480 485 481
3 481 485 486
3 487 486 488
3 487 482 486
3 482 481 486
3 482 489 483
3 487 489 482
3 491 483 489
3 491 490 483
3 490 484 483
3 484 490 423
3 418 484 423
3 424 425 492
3 421 424 492
3 421 492 485
3 485 492 493
3 494 493 495
3 494 486 493
3 486 485 493
3 486 494 488
3 491 496 490
3 498 497 426
3 496 498 426
3 496 426 423
3 496 423 490
3 426 497 427
3 499 492 425
3 429 499 425
3 500 499 501
3 500 493 499
3 493 492 499
3 493 500 495
3 503 497 498
3 502 497 503
3 497 502 431
3 427 497 431
3 504 499 429
3 433 504 429
3 501 504 505
3 499 504 501
3 503 506 502
3 502 506 507
3 502 507 431
3 431 507 435
3 508 504 433
3 508 433 509
3 509 433 437
3 504 508 505
3 438 511 510
3 438 435 511
3 435 507 511
3 438 510 439
3 441 442 512
3 512 437 441
3 512 513 437
3 513 509 437
3 515 510 511
3 514 510 515
3 510 514 443
3 439 510 443
3 512 442 444
3 513 512 444
3 513 444 516
3 516 444 445
3 516 445 517
3 445 446 517
3 517 446 518
3 446 447 518
3 518 447 519
3 447 448 519
3 519 448 520
3 448 449 520
3 520 449 521
3 449 450 521
3 521 450 522
3 450 451 522
3 514 515 522
3 514 522 452
3 452 522 451
3 514 452 443
3 458 459 523
3 460 458 523
3 524 460 523
3 460 524 462
3 523 459 466
3 466 467 525
3 466 525 523
3 523 525 524
3 468 462 524
3 468 524 526
3 526 524 525
3 468 526 470
3 525 467 475
3 526 525 475
3 477 526 475
3 526 477 470
3 487 488 527
3 489 487 527
3 528 489 527
3 489 528 491
3 494 495 529
3 488 494 529
3 488 529 527
3 527 529 530
3 527 530 528
3 528 530 531
3 496 491 528
3 496 528 532
3 532 528 531
3 496 532 498
3 500 501 533
3 495 500 533
3 495 533 529
3 529 533 534
3 529 534 530
3 530 534 535
3 530 535 531
3 531 535 536
3 531 536 532
3 532 536 537
3 532 537 503
3 498 532 503
3 538 533 501
3 505 538 501
3 533 538 534
3 534 538 539
3 540 539 541
3 540 535 539
3 535 534 539
3 535 542 536
3 540 542 535
3 544 536 542
3 544 543 536
3 543 537 536
3 506 503 537
3 506 537 545
3 545 537 543
3 506 545 507
3 508 509 546
3 505 508 546
3 505 546 538
3 538 546 547
3 548 547 549
3 548 539 547
3 539 538 547
3 539 548 541
3 544 550 543
3 552 543 550
3 552 551 543
3 551 545 543
3 545 551 511
3 507 545 511
3 553 546 509
3 513 553 509
3 554 553 555
3 554 547 553
3 547 546 553
3 547 554 549
3 557 551 552
3 556 551 557
3 551 556 515
3 511 551 515
3 553 513 516
3 555 553 516
3 555 516 558
3 558 516 517
3 558 517 559
3 517 518 559
3 559 518 560
3 518 519 560
3 560 519 561
3 519 520 561
3 561 520 562
3 520 521 562
3 556 557 562
3 556 562 522
3 522 562 521
3 556 522 515
3 540 541 563
3 542 540 563
3 564 542 563
3 542 564 544
3 548 549 565
3 541 548 565
3 541 565 563
3 563 565 566
3 563 566 564
3 564 566 567
3 550 544 564
3 550 564 568
3 568 564 567
3 550 568 552
3 554 555 569
3 549 554 569
3 549 569 565
3 565 569 570
3 565 570 566
3 566 570 571
3 566 571 567
3 567 571 572
3 567 572 568
3 568 572 573
3 568 573 557
3 552 568 557
3 569 555 558
3 570 569 558
3 559 570 558
3 571 570 559
3 560 571 559
3 572 571 560
3 561 572 560
3 573 572 561
3 562 573 561
3 573 562 557
