ply
format ascii 1.0
element vertex 752
property float x
property float y
property float z
property uchar red
property uchar green
property uchar blue
element face 1472
property list uchar int vertex_indices
end_header
-9.51729965209960938 -9 -9 0 0 0
-9 -9.51729965209960938 -9 1 2 2
-9 -9 -9.51729965209960938 6 4 4
-9 -9 -8.71282482147216797 3 2 3
-9.51729965209960938 -9 8 6 5 5
-9 -9.51729965209960938 8 10 8 8
-9 -9 7.71282434463500977 6 5 5
-9 -9 8.51729965209960938 9 7 7
-9.45349597930908203 -8 -9 0 0 0
-9 -8 -9.45349597930908203 5 4 4
-9 -8 -8.77834796905517578 4 3 3
-9.45349597930908203 -8 8 6 6 6
-9 -8 7.77834796905517578 6 6 6
-9 -8 8.45349597930908203 8 8 8
-9.45503044128417969 -7 -9 1 2 1
-9 -7 -9.45503044128417969 4 3 3
-9 -7 -8.77695655822753906 5 4 4
-9.45503044128417969 -7 8 7 6 6
-9 -7 7.77695655822753906 7 6 6
-9 -7 8.45503044128417969 9 8 8
-9.52086162567138672 -6 -9 2 3 3
-9 -6 -9.52086162567138672 3 2 2
-9 -6 -8.70863723754882812 4 3 3
-9.52086162567138672 -6 8 7 6 6
-9 -6 7.70863723754882812 8 7 7
-9 -6 8.52086162567138672 9 9 9
-9.61294078826904297 -5 -9 3 3 4
-9 -5 -9.61294078826904297 3 2 2
-9 -5 -8.57272243499755859 3 2 2
-9.61294078826904297 -5 8 6 6 6
-9 -5 7.57272195816040039 8 8 8
-9 -5 8.61294078826904297 9 9 9
-9.69873714447021484 -4 -9 6 4 5
-9 -4 -9.69873714447021484 1 1 2
-9 -4 -8.36784458160400391 2 2 2
-9.69873714447021484 -4 8 6 5 5
-9 -4 7.36784505844116211 9 9 9
-9 -4 8.69873714447021484 10 9 9
-9.76672172546386719 -3 -9 5 4 4
-9 -3 -9.76672172546386719 1 1 1
-9 -3 -8.09184646606445312 1 1 2
-9.76672172546386719 -3 8 5 4 5
-9 -3 7.09184694290161133 9 9 9
-9 -3 8.76672172546386719 10 9 9
-9.81736469268798828 -2 -9 5 4 4
-9 -2 -9.81736469268798828 1 1 0
-9.47886085510253906 -2 -8 6 4 4
-9 -2.73434734344482422 -8 2 2 2
-9 -2 -7.70895576477050781 1 1 1
-9.47886085510253906 -2 7 3 3 4
-9 -2.73434734344482422 7 9 9 9
-9 -2 6.70895576477050781 9 9 9
-9.81736469268798828 -2 8 3 4 4
-9 -2 8.81736469268798828 9 9 9
-9.8544921875 -1 -9 5 3 3
-9 -1 -9.8544921875 1 1 0
-9.70514106750488281 -1 -8 6 4 4
-9 -1 -7.22713232040405273 1 1 0
-9.70514106750488281 -1 7 2 3 2
-9 -1 6.22713232040405273 9 9 9
-9.8544921875 -1 8 2 3 3
-9 -1 8.8544921875 9 8 8
-9.8544921875 0 -9 4 3 5
-9 0 -9.8544921875 2 2 1
-9.70514106750488281 0 -8 5 4 5
-9 0 -7.22713232040405273 1 1 1
-9.70514106750488281 0 7 1 2 2
-9 0 6.22713232040405273 9 8 8
-9.8544921875 0 8 2 3 3
-9 0 8.8544921875 9 7 7
-9.81736469268798828 1 -9 4 6 4
-9 1 -9.81736469268798828 1 3 1
-9.47886085510253906 1 -8 4 6 5
-9 1 -7.70895576477050781 1 1 1
-9.47886085510253906 1 7 0 1 1
-9 1 6.70895576477050781 7 6 6
-9.81736469268798828 1 8 1 1 2
-9 1 8.81736469268798828 8 6 6
-9.76672172546386719 2 -9 7 4 4
-9 2 -9.76672172546386719 2 4 3
-9 1.73434734344482422 -8 1 1 1
-9 2 -8.09184646606445312 1 2 2
-9 1.73434734344482422 7 8 6 6
-9.76672172546386719 2 8 0 1 0
-9 2 7.09184694290161133 6 4 6
-9 2 8.76672172546386719 5 4 7
-9.69873714447021484 3 -9 5 8 4
-9 3 -9.69873714447021484 2 4 6
-9 3 -8.36784458160400391 2 2 4
-9.69873714447021484 3 8 0 0 0
-9 3 7.36784505844116211 5 4 3
-9 3 8.69873714447021484 5 5 3
-9.61294078826904297 4 -9 4 8 9
-9 4 -9.61294078826904297 5 3 7
-9 4 -8.57272243499755859 4 3 5
-9.61294078826904297 4 8 0 0 0
-9 4 7.57272195816040039 3 2 4
-9 4 8.61294078826904297 3 2 4
-9.52086162567138672 5 -9 7 5 11
-9 5 -9.52086162567138672 10 4 9
-9 5 -8.70863723754882812 7 3 5
-9.52086162567138672 5 8 0 0 0
-9 5 7.70863723754882812 3 1 1
-9 5 8.52086162567138672 4 1 1
-9.45503044128417969 6 -9 13 5 9
-9 6 -9.45503044128417969 12 4 4
-9 6 -8.77695655822753906 9 4 4
-9.45503044128417969 6 8 1 0 0
-9 6 7.77695655822753906 3 1 1
-9 6 8.45503044128417969 4 1 1
-9.45349597930908203 7 -9 15 5 5
-9 7 -9.45349597930908203 15 4 4
-9 7 -8.77834796905517578 11 5 5
-9.45349597930908203 7 8 1 0 0
-9 7 7.77834796905517578 3 1 1
-9 7 8.45349597930908203 3 1 1
-9.51729965209960938 8 -9 18 5 5
-9 8 -9.51729965209960938 18 4 4
-9 8 -8.71282482147216797 14 5 5
-9.51729965209960938 8 8 0 0 0
-9 8 7.71282434463500977 3 1 1
-9 8 8.51729965209960938 3 1 1
-9 8.51729965209960938 -9 14 5 5
-9 8.51729965209960938 8 3 1 1
-8.96091461181640625 -9 -9 3 2 3
-8.96091461181640625 -9 8 9 7 7
-8.96980953216552734 -8 -9 4 3 3
-8.96980953216552734 -8 8 8 8 8
-8.96962070465087891 -7 -9 5 4 4
-8.96962070465087891 -7 8 9 8 8
-8.96034717559814453 -6 -9 4 3 3
-8.96034717559814453 -6 8 9 9 9
-8.94194221496582031 -5 -9 3 2 2
-8.94194221496582031 -5 8 9 9 9
-8.914306640625 -4 -9 2 2 2
-8.914306640625 -4 8 10 9 9
-8.87727642059326172 -3 -9 1 1 2
-8.87727642059326172 -3 8 10 9 9
-8.83060550689697266 -2 -9 0 1 0
-8.96653938293457031 -2 -8 1 1 1
-8.96653938293457031 -2 7 9 9 9
-8.83060550689697266 -2 8 9 9 9
-8.77393722534179688 -1 -9 1 0 0
-8.91157436370849609 -1 -8 1 1 0
-8.91157436370849609 -1 7 9 8 8
-8.77393722534179688 -1 8 9 8 8
-8.77393722534179688 0 -9 1 1 1
-8.91157436370849609 0 -8 1 1 1
-8.91157436370849609 0 7 9 7 7
-8.77393722534179688 0 8 9 7 7
-8.83060550689697266 1 -9 1 2 1
-8.96653938293457031 1 -8 1 1 1
-8.96653938293457031 1 7 8 6 6
-8.83060550689697266 1 8 8 6 6
-8.87727642059326172 2 -9 1 2 2
-8.87727642059326172 2 8 5 4 7
-8.914306640625 3 -9 2 2 4
-8.914306640625 3 8 5 5 3
-8.94194221496582031 4 -9 4 3 5
-8.94194221496582031 4 8 3 2 4
-8.96034717559814453 5 -9 7 3 5
-8.96034717559814453 5 8 4 1 1
-8.96962070465087891 6 -9 9 4 4
-8.96962070465087891 6 8 4 1 1
-8.96980953216552734 7 -9 11 5 5
-8.96980953216552734 7 8 3 1 1
-8.96091461181640625 8 -9 14 5 5
-8.96091461181640625 8 8 3 1 1
-3.03779816627502441 -9 -9 8 7 7
-3 -9.32036685943603516 -9 2 2 3
-3 -9 -9.32036685943603516 4 3 3
-3 -9 -8.8746795654296875 0 0 0
-3.03779816627502441 -9 8 7 5 5
-3 -9.32036685943603516 8 3 3 4
-3 -9 7.8746795654296875 5 7 6
-3 -9 8.32036685943603516 2 2 3
-3.01819205284118652 -8 -9 6 6 6
-3 -8 -9.18535518646240234 4 4 4
-3 -8 -8.93970108032226562 1 1 1
-3.01819205284118652 -8 8 9 6 7
-3 -8 7.93970108032226562 4 6 5
-3 -8 8.18535518646240234 1 1 1
-3.01860857009887695 -7 -9 6 6 6
-3 -7 -9.18878841400146484 4 3 3
-3 -7 -8.93832015991210938 3 3 3
-3.01860857009887695 -7 8 9 5 8
-3 -7 7.93832015991210938 3 5 5
-3 -7 8.18878841400146484 0 0 0
-3.03905057907104492 -6 -9 7 7 7
-3 -6 -9.32746505737304688 3 3 3
-3 -6 -8.87052440643310547 4 4 4
-3.03905057907104492 -6 8 6 4 4
-3 -6 7.87052488327026367 2 2 3
-3 -6 8.32746505737304688 0 0 0
-3.07967734336853027 -5 -9 7 7 7
-3 -5 -9.49686336517333984 3 3 3
-3 -5 -8.73566913604736328 3 3 3
-3.07967734336853027 -5 8 7 5 6
-3 -5 7.73566913604736328 2 4 4
-3 -5 8.49686336517333984 0 0 0
-3.14081716537475586 -4 -9 7 7 7
-3 -4 -9.63362979888916016 3 3 3
-3 -4 -8.53243064880371094 3 3 3
-3.14081716537475586 -4 8 8 6 8
-3 -4 7.53243064880371094 3 4 3
-3 -4 8.63362979888916016 0 0 1
-3.22299551963806152 -3 -9 7 7 7
-3 -3 -9.73010158538818359 3 3 3
-3 -3 -8.25871753692626953 3 3 3
-3.22299551963806152 -3 8 7 7 8
-3 -3 7.25871801376342773 3 4 3
-3 -3 8.73010158538818359 0 1 1
-3.32697629928588867 -2 -9 4 4 4
-3 -2 -9.79609012603759766 4 3 3
-3.02539825439453125 -2 -8 7 7 7
-3 -2.25155401229858398 -8 3 3 3
-3 -2 -7.90028619766235352 4 3 3
-3.02539825439453125 -2 7 8 9 9
-3 -2.25155401229858398 7 3 4 3
-3 -2 6.90028619766235352 5 5 4
-3.32697629928588867 -2 8 7 6 7
-3 -2 8.79609012603759766 0 0 0
-3.45381903648376465 -1 -9 1 1 1
-3 -1 -9.84161281585693359 5 4 4
-3.14686989784240723 -1 -8 4 4 4
-3 -1 -7.42231416702270508 3 3 3
-3.14686989784240723 -1 7 7 7 7
-3 -1 6.42231416702270508 2 3 2
-3.45381903648376465 -1 8 6 5 6
-3 -1 8.84161281585693359 0 0 0
-3.45381903648376465 0 -9 0 0 0
-3 0 -9.84161281585693359 6 5 7
-3.14686989784240723 0 -8 2 2 2
-3 0 -7.42231416702270508 4 3 4
-3.14686989784240723 0 7 5 5 5
-3 0 6.42231416702270508 0 0 0
-3.45381903648376465 0 8 4 4 4
-3 0 8.84161281585693359 1 2 2
-3.32697629928588867 1 -9 0 0 0
-3 1 -9.79609012603759766 6 8 8
-3.02539825439453125 1 -8 1 1 1
-3 1 -7.90028619766235352 5 5 5
-3.02539825439453125 1 7 3 3 3
-3 1 6.90028619766235352 2 2 2
-3.32697629928588867 1 8 2 2 2
-3 1 8.79609012603759766 3 4 4
-3.22299551963806152 2 -9 1 1 1
-3 2 -9.73010158538818359 7 10 7
-3 1.25155389308929443 -8 5 5 5
-3 2 -8.25871753692626953 8 8 7
-3 1.25155389308929443 7 2 3 3
-3.22299551963806152 2 8 1 1 1
-3 2 7.25871801376342773 5 5 5
-3 2 8.73010158538818359 5 6 6
-3.14081716537475586 3 -9 1 0 0
-3 3 -9.63362979888916016 12 12 8
-3 3 -8.53243064880371094 10 8 8
-3.14081716537475586 3 8 2 2 2
-3 3 7.53243064880371094 7 7 7
-3 3 8.63362979888916016 7 8 7
-3.07967734336853027 4 -9 0 0 0
-3 4 -9.49686336517333984 13 13 8
-3 4 -8.73566913604736328 11 11 9
-3.07967734336853027 4 8 2 2 2
-3 4 7.73566913604736328 6 6 6
-3 4 8.49686336517333984 8 9 8
-3.03905057907104492 5 -9 1 2 1
-3 5 -9.32746505737304688 8 11 13
-3 5 -8.87052440643310547 9 13 11
-3.03905057907104492 5 8 2 2 2
-3 5 7.87052488327026367 6 5 5
-3 5 8.32746505737304688 9 8 8
-3.01860857009887695 6 -9 2 3 4
-3 6 -9.18878841400146484 13 7 10
-3 6 -8.93832015991210938 12 9 13
-3.01860857009887695 6 8 1 1 1
-3 6 7.93832015991210938 6 5 5
-3 6 8.18878841400146484 9 9 7
-3.01819205284118652 7 -9 3 4 6
-3 7 -9.18535518646240234 13 6 6
-3 7 -8.93970108032226562 13 8 8
-3.01819205284118652 7 8 0 0 0
-3 7 7.93970108032226562 6 6 5
-3 7 8.18535518646240234 8 10 7
-3.03779816627502441 8 -9 6 3 4
-3 8 -9.32036685943603516 13 5 5
-3 8 -8.8746795654296875 13 7 7
-3.03779816627502441 8 8 0 0 0
-3 8 7.8746795654296875 6 8 6
-3 8 8.32036685943603516 6 10 7
-3 8.32036685943603516 -9 13 7 7
-3 8.32036685943603516 8 6 10 7
-2.73158955574035645 -9 -9 0 0 0
-2.73158955574035645 -9 8 2 2 3
-2.87086033821105957 -8 -9 1 1 1
-2.87086033821105957 -8 8 1 1 1
-2.86790323257446289 -7 -9 3 3 3
-2.86790323257446289 -7 8 0 0 0
-2.72268915176391602 -6 -9 4 4 4
-2.72268915176391602 -6 8 0 0 0
-2.43377876281738281 -5 -9 3 3 3
-2.43377876281738281 -5 8 0 0 0
-2 -4.00403833389282227 -9 1 1 1
-2 -4 -9.00305843353271484 0 0 0
-2 -4 -8.99918937683105469 0 0 0
-2 -4.00403833389282227 8 4 2 3
-2 -4 7.99918937683105469 0 0 0
-2 -4 8.00305843353271484 2 2 3
-2 -3 -9.50057697296142578 1 1 1
-2 -3 -8.73165988922119141 0 0 0
-2 -3 7.73166036605834961 0 0 0
-2 -3 8.50057697296142578 1 1 2
-2 -2 -9.69049835205078125 2 2 2
-2.81968379020690918 -2 -8 4 3 3
-2 -2 -8.39267349243164062 0 0 0
-2.81968379020690918 -2 7 3 3 2
-2 -2 7.39267349243164062 0 0 0
-2 -2 8.69049835205078125 1 1 2
-2 -1 -9.78615570068359375 3 3 3
-2 -1.05099725723266602 -8 0 0 0
-2 -1 -7.97571754455566406 0 0 0
-2 -1.05099725723266602 7 0 0 0
-2 -1 6.97571754455566406 0 0 0
-2 -1 8.78615570068359375 2 2 2
-2 0 -9.78615570068359375 5 4 4
-2 0 -7.97571754455566406 2 2 2
-2 0 6.97571754455566406 1 2 2
-2 0 8.78615570068359375 3 3 3
-2 1 -9.69049835205078125 6 6 5
-2.81968379020690918 1 -8 5 5 5
-2 0.0509972088038921356 -8 2 2 2
-2 1 -8.39267349243164062 5 5 4
-2.81968379020690918 1 7 2 3 3
-2 0.0509972088038921356 7 2 2 2
-2 1 7.39267349243164062 4 4 5
-2 1 8.69049835205078125 4 5 5
-2 2 -9.50057697296142578 8 8 6
-2 2 -8.73165988922119141 5 6 5
-2 2 7.73166036605834961 6 7 7
-2 2 8.50057697296142578 6 7 7
-2 3 -9.00305843353271484 7 10 7
-2 3 -8.99918937683105469 6 8 7
-2 3 7.99918937683105469 8 9 9
-2 3 8.00305843353271484 8 9 9
-2.43377876281738281 4 -9 11 11 9
-2 3.00403809547424316 -9 6 8 7
-2.43377876281738281 4 8 8 9 8
-2 3.00403809547424316 8 8 9 9
-2.72268915176391602 5 -9 9 13 11
-2.72268915176391602 5 8 9 8 8
-2.86790323257446289 6 -9 12 9 13
-2.86790323257446289 6 8 9 9 7
-2.87086033821105957 7 -9 13 8 8
-2.87086033821105957 7 8 8 10 7
-2.73158955574035645 8 -9 13 7 7
-2.73158955574035645 8 8 6 10 7
-1.99981069564819336 -4 -9 0 0 0
-1.99981069564819336 -4 8 2 2 3
-1.93741834163665771 -3 -9 0 0 0
-1.93741834163665771 -3 8 1 1 2
-1.85864949226379395 -2 -9 0 0 0
-1.85864949226379395 -2 8 1 1 2
-1.7628173828125 -1 -9 2 2 2
-1.99521100521087646 -1 -8 0 0 0
-1.99521100521087646 -1 7 0 1 1
-1.7628173828125 -1 8 2 2 2
-1.7628173828125 0 -9 3 3 3
-1.99521100521087646 0 -8 2 2 2
-1.99521100521087646 0 7 2 2 2
-1.7628173828125 0 8 3 3 3
-1.85864949226379395 1 -9 5 5 4
-1.85864949226379395 1 8 4 5 5
-1.93741834163665771 2 -9 5 6 5
-1.93741834163665771 2 8 6 7 7
-1.99981069564819336 3 -9 6 8 7
-1.99981069564819336 3 8 8 9 9
0.999810636043548584 -4 -9 1 1 1
1 -4.00403833389282227 -9 1 1 1
1 -4 -9.00305843353271484 0 0 0
1 -4 -8.99918937683105469 0 0 0
0.999810636043548584 -4 8 8 5 5
1 -4.00403833389282227 8 6 3 5
1 -4 7.99918937683105469 1 1 2
1 -4 8.00305843353271484 3 2 4
0.937418341636657715 -3 -9 1 1 1
1 -3 -9.50057697296142578 0 0 0
1 -3 -8.73165988922119141 0 0 0
0.937418341636657715 -3 8 7 5 5
1 -3 7.73166036605834961 1 1 2
1 -3 8.50057697296142578 2 2 4
0.858649492263793945 -2 -9 1 1 1
1 -2 -9.69049835205078125 1 1 0
1 -2 -8.39267349243164062 0 0 0
0.858649492263793945 -2 8 7 5 5
1 -2 7.39267349243164062 1 2 2
1 -2 8.69049835205078125 2 3 4
0.762817323207855225 -1 -9 2 2 2
1 -1 -9.78615570068359375 2 1 1
0.995210945606231689 -1 -8 1 1 1
1 -1.05099725723266602 -8 0 0 0
1 -1 -7.97571754455566406 0 0 0
0.995210945606231689 -1 7 6 5 5
1 -1.05099725723266602 7 1 2 2
1 -1 6.97571754455566406 1 2 2
0.762817323207855225 -1 8 8 6 6
1 -1 8.78615570068359375 3 4 4
0.762817323207855225 0 -9 3 3 3
1 0 -9.78615570068359375 4 4 2
0.995210945606231689 0 -8 2 2 2
1 0 -7.97571754455566406 0 0 0
0.995210945606231689 0 7 8 6 6
1 0 6.97571754455566406 3 4 4
0.762817323207855225 0 8 9 7 7
1 0 8.78615570068359375 4 6 6
0.858649492263793945 1 -9 4 5 5
1 1 -9.69049835205078125 4 5 3
1 0.0509972088038921356 -8 0 0 0
1 1 -8.39267349243164062 2 3 3
1 0.0509972088038921356 7 3 5 5
0.858649492263793945 1 8 10 8 8
1 1 7.39267349243164062 5 7 7
1 1 8.69049835205078125 6 7 8
0.937418341636657715 2 -9 5 6 6
1 2 -9.50057697296142578 4 7 5
1 2 -8.73165988922119141 3 5 5
0.937418341636657715 2 8 11 9 9
1 2 7.73166036605834961 7 9 9
1 2 8.50057697296142578 7 9 10
0.999810636043548584 3 -9 6 6 8
1 3 -9.00305843353271484 5 9 9
1 3 -8.99918937683105469 5 5 7
0.999810636043548584 3 8 9 7 7
1 3 7.99918937683105469 7 9 9
1 3 8.00305843353271484 8 11 11
1 3.00403809547424316 -9 5 5 7
1 3.00403809547424316 8 8 11 11
1.73158955574035645 -9 -9 3 2 3
2 -9.32036685943603516 -9 1 0 1
2 -9 -9.32036685943603516 3 2 3
2 -9 -8.8746795654296875 1 0 1
1.73158955574035645 -9 8 0 0 1
2 -9.32036685943603516 8 0 0 0
2 -9 7.8746795654296875 2 4 2
2 -9 8.32036685943603516 0 0 1
1.87086021900177002 -8 -9 6 4 5
2 -8 -9.18535518646240234 2 1 2
2 -8 -8.93970108032226562 4 2 3
1.87086021900177002 -8 8 2 1 2
2 -8 7.93970108032226562 1 2 2
2 -8 8.18535518646240234 2 1 2
1.86790311336517334 -7 -9 4 3 4
2 -7 -9.18878841400146484 1 1 2
2 -7 -8.93832015991210938 3 2 3
1.86790311336517334 -7 8 4 2 4
2 -7 7.93832015991210938 0 1 1
2 -7 8.18878841400146484 1 0 1
1.72268927097320557 -6 -9 3 2 2
2 -6 -9.32746505737304688 1 1 1
2 -6 -8.87052440643310547 1 1 2
1.72268927097320557 -6 8 4 2 3
2 -6 7.87052488327026367 0 0 0
2 -6 8.32746505737304688 0 0 1
1.43377864360809326 -5 -9 1 1 1
2 -5 -9.49686336517333984 1 1 1
2 -5 -8.73566913604736328 1 1 1
1.43377864360809326 -5 8 6 3 5
2 -5 7.73566913604736328 0 0 0
2 -5 8.49686336517333984 2 1 3
2 -4 -9.63362979888916016 1 1 1
2 -4 -8.53243064880371094 1 1 1
2 -4 7.53243064880371094 0 1 0
2 -4 8.63362979888916016 1 1 2
2 -3 -9.73010158538818359 1 1 1
2 -3 -8.25871753692626953 1 1 1
2 -3 7.25871801376342773 0 0 0
2 -3 8.73010158538818359 1 2 2
2 -2 -9.79609012603759766 2 1 2
1.81968390941619873 -2 -8 0 0 0
2 -2.25155401229858398 -8 1 1 1
2 -2 -7.90028619766235352 2 1 1
1.81968390941619873 -2 7 1 2 2
2 -2.25155401229858398 7 0 0 0
2 -2 6.90028619766235352 2 2 1
2 -2 8.79609012603759766 1 2 2
2 -1 -9.84161281585693359 2 2 3
2 -1 -7.42231416702270508 1 1 1
2 -1 6.42231416702270508 0 0 0
2 -1 8.84161281585693359 2 3 3
2 0 -9.84161281585693359 3 5 3
2 0 -7.42231416702270508 1 1 1
2 0 6.42231416702270508 2 2 2
2 0 8.84161281585693359 3 5 5
2 1 -9.79609012603759766 6 4 3
1.81968390941619873 1 -8 2 2 2
2 1 -7.90028619766235352 2 2 2
1.81968390941619873 1 7 5 7 7
2 1 6.90028619766235352 4 5 5
2 1 8.79609012603759766 5 7 7
2 2 -9.73010158538818359 8 7 4
2 1.25155389308929443 -8 2 2 2
2 2 -8.25871753692626953 5 6 4
2 1.25155389308929443 7 4 6 5
2 2 7.25871801376342773 6 8 7
2 2 8.73010158538818359 7 9 9
2 3 -9.63362979888916016 6 10 5
2 3 -8.53243064880371094 4 8 7
2 3 7.53243064880371094 6 6 4
2 3 8.63362979888916016 7 8 6
1.43377864360809326 4 -9 7 6 9
2 4 -9.49686336517333984 5 12 9
2 4 -8.73566913604736328 5 7 9
1.43377864360809326 4 8 7 10 9
2 4 7.73566913604736328 5 4 3
2 4 8.49686336517333984 7 6 5
1.72268927097320557 5 -9 11 6 10
2 5 -9.32746505737304688 5 12 15
2 5 -8.87052440643310547 9 6 12
1.72268927097320557 5 8 7 10 8
2 5 7.87052488327026367 4 4 2
2 5 8.32746505737304688 7 7 5
1.86790311336517334 6 -9 14 7 7
2 6 -9.18878841400146484 9 5 16
2 6 -8.93832015991210938 14 6 12
1.86790311336517334 6 8 6 10 9
2 6 7.93832015991210938 3 4 2
2 6 8.18878841400146484 5 8 5
1.87086021900177002 7 -9 14 7 7
2 7 -9.18535518646240234 16 4 4
2 7 -8.93970108032226562 16 7 7
1.87086021900177002 7 8 7 11 10
2 7 7.93970108032226562 3 5 3
2 7 8.18535518646240234 5 9 7
1.73158955574035645 8 -9 15 6 6
2 8 -9.32036685943603516 16 3 3
2 8 -8.8746795654296875 17 6 6
1.73158955574035645 8 8 7 13 7
2 8 7.8746795654296875 4 7 3
2 8 8.32036685943603516 5 11 12
2 8.32036685943603516 -9 17 6 6
2 8.32036685943603516 8 5 11 12
2.03779816627502441 -9 -9 1 0 1
2.03779816627502441 -9 8 0 0 1
2.01819205284118652 -8 -9 4 2 3
2.01819205284118652 -8 8 2 1 2
2.01860857009887695 -7 -9 3 2 3
2.01860857009887695 -7 8 1 0 1
2.03905057907104492 -6 -9 1 1 2
2.03905057907104492 -6 8 0 0 1
2.07967734336853027 -5 -9 1 1 1
2.07967734336853027 -5 8 2 1 3
2.14081716537475586 -4 -9 1 1 1
2.14081716537475586 -4 8 1 1 2
2.22299551963806152 -3 -9 1 1 1
2.22299551963806152 -3 8 1 2 2
2.32697629928588867 -2 -9 1 1 1
2.02539825439453125 -2 -8 2 1 1
2.02539825439453125 -2 7 0 0 0
2.32697629928588867 -2 8 1 2 2
2.45381903648376465 -1 -9 1 1 2
2.14686989784240723 -1 -8 1 1 1
2.14686989784240723 -1 7 1 1 1
2.45381903648376465 -1 8 2 3 3
2.45381903648376465 0 -9 2 3 2
2.14686989784240723 0 -8 1 1 1
2.14686989784240723 0 7 2 3 2
2.45381903648376465 0 8 3 5 5
2.32697629928588867 1 -9 4 3 3
2.02539825439453125 1 -8 2 2 2
2.02539825439453125 1 7 4 6 5
2.32697629928588867 1 8 5 7 7
2.22299551963806152 2 -9 5 6 4
2.22299551963806152 2 8 7 9 9
2.14081716537475586 3 -9 4 8 7
2.14081716537475586 3 8 7 8 6
2.07967734336853027 4 -9 5 7 9
2.07967734336853027 4 8 7 6 5
2.03905057907104492 5 -9 9 6 12
2.03905057907104492 5 8 7 7 5
2.01860857009887695 6 -9 14 6 12
2.01860857009887695 6 8 5 8 5
2.01819205284118652 7 -9 16 7 7
2.01819205284118652 7 8 5 9 7
2.03779816627502441 8 -9 17 6 6
2.03779816627502441 8 8 5 11 12
7.96091461181640625 -9 -9 6 1 1
8 -9.51729965209960938 -9 4 7 0
8 -9 -9.51729965209960938 0 0 1
8 -9 -8.71282482147216797 1 4 0
7.96091461181640625 -9 8 9 1 1
8 -9.51729965209960938 8 2 0 5
8 -9 7.71282434463500977 9 1 3
8 -9 8.51729965209960938 7 1 5
7.96980953216552734 -8 -9 2 8 2
8 -8 -9.45349597930908203 0 0 0
8 -8 -8.77834796905517578 0 0 2
7.96980953216552734 -8 8 6 1 1
8 -8 7.77834796905517578 10 2 2
8 -8 8.45349597930908203 9 2 2
7.9696202278137207 -7 -9 10 4 2
8 -7 -9.45503044128417969 0 0 1
8 -7 -8.77695655822753906 0 0 0
7.9696202278137207 -7 8 4 1 1
8 -7 7.77695655822753906 10 3 3
8 -7 8.45503044128417969 10 2 2
7.96034669876098633 -6 -9 7 11 2
8 -6 -9.52086162567138672 2 0 0
8 -6 -8.70863723754882812 0 1 1
7.96034669876098633 -6 8 3 1 1
8 -6 7.70863723754882812 10 3 3
8 -6 8.52086162567138672 10 3 3
7.94194221496582031 -5 -9 3 11 6
8 -5 -9.61294078826904297 0 3 0
8 -5 -8.57272243499755859 2 0 0
7.94194221496582031 -5 8 2 1 1
8 -5 7.57272195816040039 9 3 6
8 -5 8.61294078826904297 10 3 6
7.914306640625 -4 -9 3 10 12
8 -4 -9.69873714447021484 0 2 4
8 -4 -8.36784458160400391 0 3 1
7.914306640625 -4 8 3 1 1
8 -4 7.36784505844116211 7 2 8
8 -4 8.69873714447021484 9 3 9
7.87727689743041992 -3 -9 3 4 12
8 -3 -9.76672172546386719 2 0 5
8 -3 -8.09184646606445312 0 0 4
7.87727689743041992 -3 8 4 1 1
8 -3 7.09184694290161133 5 2 7
8 -3 8.76672172546386719 8 3 10
7.83060550689697266 -2 -9 4 2 12
8 -2 -9.81736469268798828 5 0 2
7.96653938293457031 -2 -8 6 3 12
8 -2.73434734344482422 -8 0 3 3
8 -2 -7.70895576477050781 2 0 4
7.96653938293457031 -2 7 6 2 3
8 -2.73434734344482422 7 5 2 7
8 -2 6.70895576477050781 4 1 3
7.83060550689697266 -2 8 4 2 2
8 -2 8.81736469268798828 8 2 10
7.77393674850463867 -1 -9 3 2 12
8 -1 -9.8544921875 4 0 0
7.9115748405456543 -1 -8 9 3 12
8 -1 -7.22713232040405273 4 0 1
7.9115748405456543 -1 7 3 7 5
8 -1 6.22713232040405273 5 1 1
7.77393674850463867 -1 8 2 2 5
8 -1 8.8544921875 11 2 8
7.77393674850463867 0 -9 2 5 12
8 0 -9.8544921875 4 0 0
7.9115748405456543 0 -8 8 3 12
8 0 -7.22713232040405273 4 0 0
7.9115748405456543 0 7 7 4 3
8 0 6.22713232040405273 6 1 1
7.77393674850463867 0 8 3 5 1
8 0 8.8544921875 12 2 2
7.83060550689697266 1 -9 1 8 11
8 1 -9.81736469268798828 3 0 0
7.96653938293457031 1 -8 3 3 12
8 1 -7.70895576477050781 4 0 0
7.96653938293457031 1 7 5 6 2
8 1 6.70895576477050781 7 1 4
7.83060550689697266 1 8 4 2 1
8 1 8.81736469268798828 13 1 1
7.87727689743041992 2 -9 1 9 11
8 2 -9.76672172546386719 1 0 0
8 1.73434734344482422 -8 4 0 0
8 2 -8.09184646606445312 3 0 0
8 1.73434734344482422 7 10 1 1
7.87727689743041992 2 8 1 2 0
8 2 7.09184694290161133 12 1 7
8 2 8.76672172546386719 14 0 0
7.914306640625 3 -9 0 5 10
8 3 -9.69873714447021484 0 0 0
8 3 -8.36784458160400391 2 0 0
7.914306640625 3 8 0 1 1
8 3 7.36784505844116211 0 9 13
8 3 8.69873714447021484 0 0 15
7.94194221496582031 4 -9 1 0 9
8 4 -9.61294078826904297 1 0 0
8 4 -8.57272243499755859 0 0 0
7.94194221496582031 4 8 0 0 0
8 4 7.57272195816040039 15 9 0
8 4 8.61294078826904297 16 13 0
7.96034669876098633 5 -9 7 0 7
8 5 -9.52086162567138672 4 0 0
8 5 -8.70863723754882812 1 0 0
7.96034669876098633 5 8 2 0 2
8 5 7.70863723754882812 0 11 16
8 5 8.52086162567138672 1 0 16
7.9696202278137207 6 -9 5 0 0
8 6 -9.45503044128417969 6 0 0
8 6 -8.77695655822753906 3 0 0
7.9696202278137207 6 8 4 0 0
8 6 7.77695655822753906 15 0 0
8 6 8.45503044128417969 15 0 0
7.96980953216552734 7 -9 3 0 0
8 7 -9.45349597930908203 10 0 0
8 7 -8.77834796905517578 5 0 0
7.96980953216552734 7 8 6 0 0
8 7 7.77834796905517578 15 0 0
8 7 8.45349597930908203 15 0 0
7.96091461181640625 8 -9 1 0 0
8 8 -9.51729965209960938 13 0 0
8 8 -8.71282482147216797 8 0 0
7.96091461181640625 8 8 8 0 0
8 8 7.71282434463500977 15 0 0
8 8 8.51729965209960938 15 0 0
8 8.51729965209960938 -9 8 0 0
8 8.51729965209960938 8 15 0 0
8.51729965209960938 -9 -9 1 4 0
8.51729965209960938 -9 8 7 1 5
8.45349597930908203 -8 -9 0 0 2
8.45349597930908203 -8 8 9 2 2
8.45503044128417969 -7 -9 0 0 0
8.45503044128417969 -7 8 10 2 2
8.52086162567138672 -6 -9 0 1 1
8.52086162567138672 -6 8 10 3 3
8.61294078826904297 -5 -9 2 0 0
8.61294078826904297 -5 8 10 3 6
8.69873714447021484 -4 -9 0 3 1
8.69873714447021484 -4 8 9 3 9
8.76672172546386719 -3 -9 0 0 4
8.76672172546386719 -3 8 8 3 10
8.81736469268798828 -2 -9 5 0 4
8.47886085510253906 -2 -8 2 0 4
8.47886085510253906 -2 7 6 2 7
8.81736469268798828 -2 8 8 2 10
8.8544921875 -1 -9 5 0 0
8.70514106750488281 -1 -8 4 0 1
8.70514106750488281 -1 7 8 2 4
8.8544921875 -1 8 11 2 8
8.8544921875 0 -9 4 0 0
8.70514106750488281 0 -8 4 0 0
8.70514106750488281 0 7 9 2 2
8.8544921875 0 8 12 2 2
8.81736469268798828 1 -9 4 0 0
8.47886085510253906 1 -8 4 0 0
8.47886085510253906 1 7 10 1 1
8.81736469268798828 1 8 13 1 1
8.76672172546386719 2 -9 3 0 0
8.76672172546386719 2 8 14 0 0
8.69873714447021484 3 -9 2 0 0
8.69873714447021484 3 8 0 0 15
8.61294078826904297 4 -9 0 0 0
8.61294078826904297 4 8 16 13 0
8.52086162567138672 5 -9 1 0 0
8.52086162567138672 5 8 1 0 16
8.45503044128417969 6 -9 3 0 0
8.45503044128417969 6 8 15 0 0
8.45349597930908203 7 -9 5 0 0
8.45349597930908203 7 8 15 0 0
8.51729965209960938 8 -9 8 0 0
8.51729965209960938 8 8 15 0 0
3 2 1 0
3 1 3 0
3 6 5 4
3 5 7 4
3 9 2 0
3 8 9 0
3 3 10 8
3 0 3 8
3 12 6 4
3 11 12 4
3 7 13 11
3 4 7 11
3 15 9 8
3 14 15 8
3 10 16 14
3 8 10 14
3 18 12 11
3 17 18 11
3 13 19 17
3 11 13 17
3 21 15 14
3 20 21 14
3 16 22 20
3 14 16 20
3 24 18 17
3 23 24 17
3 19 25 23
3 17 19 23
3 27 21 20
3 26 27 20
3 22 28 26
3 20 22 26
3 30 24 23
3 29 30 23
3 25 31 29
3 23 25 29
3 33 27 26
3 32 33 26
3 28 34 32
3 26 28 32
3 36 30 29
3 35 36 29
3 31 37 35
3 29 31 35
3 39 33 32
3 38 39 32
3 34 40 38
3 32 34 38
3 42 36 35
3 41 42 35
3 37 43 41
3 35 37 41
3 45 39 38
3 44 45 38
3 40 47 46
3 40 46 38
3 38 46 44
3 47 48 46
3 51 50 49
3 50 42 41
3 50 41 49
3 49 41 52
3 43 53 52
3 41 43 52
3 55 45 44
3 54 55 44
3 44 46 54
3 46 56 54
3 48 57 56
3 46 48 56
3 59 51 49
3 58 59 49
3 49 52 58
3 52 60 58
3 53 61 60
3 52 53 60
3 63 55 54
3 62 63 54
3 54 56 62
3 56 64 62
3 57 65 64
3 56 57 64
3 67 59 58
3 66 67 58
3 58 60 66
3 60 68 66
3 61 69 68
3 60 61 68
3 71 63 62
3 70 71 62
3 62 64 70
3 64 72 70
3 65 73 72
3 64 65 72
3 75 67 66
3 74 75 66
3 66 68 74
3 68 76 74
3 69 77 76
3 68 69 76
3 79 71 70
3 78 79 70
3 80 81 78
3 80 78 72
3 72 78 70
3 72 73 80
3 75 74 82
3 84 82 74
3 84 74 83
3 83 74 76
3 77 85 83
3 76 77 83
3 87 79 78
3 86 87 78
3 81 88 86
3 78 81 86
3 90 84 83
3 89 90 83
3 85 91 89
3 83 85 89
3 93 87 86
3 92 93 86
3 88 94 92
3 86 88 92
3 96 90 89
3 95 96 89
3 91 97 95
3 89 91 95
3 99 93 92
3 98 99 92
3 94 100 98
3 92 94 98
3 102 96 95
3 101 102 95
3 97 103 101
3 95 97 101
3 105 99 98
3 104 105 98
3 100 106 104
3 98 100 104
3 108 102 101
3 107 108 101
3 103 109 107
3 101 103 107
3 111 105 104
3 110 111 104
3 106 112 110
3 104 106 110
3 114 108 107
3 113 114 107
3 109 115 113
3 107 109 113
3 117 111 110
3 116 117 110
3 112 118 116
3 110 112 116
3 120 114 113
3 119 120 113
3 115 121 119
3 113 115 119
3 117 116 122
3 116 118 122
3 120 119 123
3 119 121 123
3 1 2 124
3 1 124 3
3 5 6 125
3 5 125 7
3 126 124 2
3 9 126 2
3 124 126 10
3 3 124 10
3 127 125 6
3 12 127 6
3 125 127 13
3 7 125 13
3 128 126 9
3 15 128 9
3 126 128 16
3 10 126 16
3 129 127 12
3 18 129 12
3 127 129 19
3 13 127 19
3 130 128 15
3 21 130 15
3 128 130 22
3 16 128 22
3 131 129 18
3 24 131 18
3 129 131 25
3 19 129 25
3 132 130 21
3 27 132 21
3 130 132 28
3 22 130 28
3 133 131 24
3 30 133 24
3 131 133 31
3 25 131 31
3 134 132 27
3 33 134 27
3 132 134 34
3 28 132 34
3 135 133 30
3 36 135 30
3 133 135 37
3 31 133 37
3 136 134 33
3 39 136 33
3 134 136 40
3 34 134 40
3 137 135 36
3 42 137 36
3 135 137 43
3 37 135 43
3 138 136 39
3 45 138 39
3 47 40 136
3 47 136 139
3 139 136 138
3 47 139 48
3 50 51 140
3 42 50 140
3 42 140 137
3 137 140 141
3 137 141 53
3 43 137 53
3 142 138 45
3 55 142 45
3 138 142 139
3 139 142 143
3 139 143 57
3 48 139 57
3 144 140 51
3 59 144 51
3 140 144 141
3 141 144 145
3 141 145 61
3 53 141 61
3 146 142 55
3 63 146 55
3 142 146 143
3 143 146 147
3 143 147 65
3 57 143 65
3 148 144 59
3 67 148 59
3 144 148 145
3 145 148 149
3 145 149 69
3 61 145 69
3 150 146 63
3 71 150 63
3 146 150 147
3 147 150 151
3 147 151 73
3 65 147 73
3 152 148 67
3 75 152 67
3 148 152 149
3 149 152 153
3 149 153 77
3 69 149 77
3 154 150 71
3 79 154 71
3 81 80 151
3 81 151 154
3 154 151 150
3 151 80 73
3 152 75 82
3 82 84 155
3 82 155 152
3 152 155 153
3 153 155 85
3 77 153 85
3 156 154 79
3 87 156 79
3 154 156 88
3 81 154 88
3 157 155 84
3 90 157 84
3 155 157 91
3 85 155 91
3 158 156 87
3 93 158 87
3 156 158 94
3 88 156 94
3 159 157 90
3 96 159 90
3 157 159 97
3 91 157 97
3 160 158 93
3 99 160 93
3 158 160 100
3 94 158 100
3 161 159 96
3 102 161 96
3 159 161 103
3 97 159 103
3 162 160 99
3 105 162 99
3 160 162 106
3 100 160 106
3 163 161 102
3 108 163 102
3 161 163 109
3 103 161 109
3 164 162 105
3 111 164 105
3 162 164 112
3 106 162 112
3 165 163 108
3 114 165 108
3 163 165 115
3 109 163 115
3 166 164 111
3 117 166 111
3 164 166 118
3 112 164 118
3 167 165 114
3 120 167 114
3 165 167 121
3 115 165 121
3 166 117 122
3 166 122 118
3 167 120 123
3 167 123 121
3 170 169 168
3 169 171 168
3 174 173 172
3 173 175 172
3 177 170 168
3 176 177 168
3 171 178 176
3 168 171 176
3 180 174 172
3 179 180 172
3 175 181 179
3 172 175 179
3 183 177 176
3 182 183 176
3 178 184 182
3 176 178 182
3 186 180 179
3 185 186 179
3 181 187 185
3 179 181 185
3 189 183 182
3 188 189 182
3 184 190 188
3 182 184 188
3 192 186 185
3 191 192 185
3 187 193 191
3 185 187 191
3 195 189 188
3 194 195 188
3 190 196 194
3 188 190 194
3 198 192 191
3 197 198 191
3 193 199 197
3 191 193 197
3 201 195 194
3 200 201 194
3 196 202 200
3 194 196 200
3 204 198 197
3 203 204 197
3 199 205 203
3 197 199 203
3 207 201 200
3 206 207 200
3 202 208 206
3 200 202 206
3 210 204 203
3 209 210 203
3 205 211 209
3 203 205 209
3 213 207 206
3 212 213 206
3 208 215 214
3 208 214 206
3 206 214 212
3 215 216 214
3 219 218 217
3 218 210 209
3 218 209 217
3 217 209 220
3 211 221 220
3 209 211 220
3 223 213 212
3 222 223 212
3 212 214 222
3 214 224 222
3 216 225 224
3 214 216 224
3 227 219 217
3 226 227 217
3 217 220 226
3 220 228 226
3 221 229 228
3 220 221 228
3 231 223 222
3 230 231 222
3 222 224 230
3 224 232 230
3 225 233 232
3 224 225 232
3 235 227 226
3 234 235 226
3 226 228 234
3 228 236 234
3 229 237 236
3 228 229 236
3 239 231 230
3 238 239 230
3 230 232 238
3 232 240 238
3 233 241 240
3 232 233 240
3 243 235 234
3 242 243 234
3 234 236 242
3 236 244 242
3 237 245 244
3 236 237 244
3 247 239 238
3 246 247 238
3 248 249 246
3 248 246 240
3 240 246 238
3 240 241 248
3 243 242 250
3 252 250 242
3 252 242 251
3 251 242 244
3 245 253 251
3 244 245 251
3 255 247 246
3 254 255 246
3 249 256 254
3 246 249 254
3 258 252 251
3 257 258 251
3 253 259 257
3 251 253 257
3 261 255 254
3 260 261 254
3 256 262 260
3 254 256 260
3 264 258 257
3 263 264 257
3 259 265 263
3 257 259 263
3 267 261 260
3 266 267 260
3 262 268 266
3 260 262 266
3 270 264 263
3 269 270 263
3 265 271 269
3 263 265 269
3 273 267 266
3 272 273 266
3 268 274 272
3 266 268 272
3 276 270 269
3 275 276 269
3 271 277 275
3 269 271 275
3 279 273 272
3 278 279 272
3 274 280 278
3 272 274 278
3 282 276 275
3 281 282 275
3 277 283 281
3 275 277 281
3 285 279 278
3 284 285 278
3 280 286 284
3 278 280 284
3 288 282 281
3 287 288 281
3 283 289 287
3 281 283 287
3 285 284 290
3 284 286 290
3 288 287 291
3 287 289 291
3 169 170 292
3 169 292 171
3 173 174 293
3 173 293 175
3 294 292 170
3 177 294 170
3 292 294 178
3 171 292 178
3 295 293 174
3 180 295 174
3 293 295 181
3 175 293 181
3 296 294 177
3 183 296 177
3 294 296 184
3 178 294 184
3 297 295 180
3 186 297 180
3 295 297 187
3 181 295 187
3 298 296 183
3 189 298 183
3 296 298 190
3 184 296 190
3 299 297 186
3 192 299 186
3 297 299 193
3 187 297 193
3 300 298 189
3 195 300 189
3 298 300 196
3 190 298 196
3 301 299 192
3 198 301 192
3 299 301 199
3 193 299 199
3 302 300 195
3 302 195 303
3 303 195 201
3 300 302 304
3 300 304 196
3 196 304 202
3 305 301 198
3 305 198 306
3 306 198 204
3 301 305 307
3 301 307 199
3 199 307 205
3 303 201 308
3 308 201 207
3 304 309 202
3 309 208 202
3 306 204 310
3 310 204 210
3 307 311 205
3 311 211 205
3 308 207 312
3 312 207 213
3 215 314 313
3 215 208 314
3 208 309 314
3 215 313 216
3 218 219 315
3 315 210 218
3 315 316 210
3 316 310 210
3 311 317 211
3 317 221 211
3 312 213 318
3 318 213 223
3 314 319 313
3 313 319 320
3 313 320 216
3 216 320 225
3 321 315 219
3 321 219 322
3 322 219 227
3 315 321 316
3 317 323 221
3 323 229 221
3 318 223 324
3 324 223 231
3 320 325 225
3 325 233 225
3 322 227 326
3 326 227 235
3 323 327 229
3 327 237 229
3 324 231 328
3 328 231 239
3 331 329 330
3 330 329 241
3 330 241 325
3 325 241 233
3 332 333 326
3 332 326 243
3 243 326 235
3 333 332 334
3 327 335 237
3 335 245 237
3 328 239 336
3 336 239 247
3 329 249 248
3 329 331 249
3 331 337 249
3 329 248 241
3 332 243 250
3 250 334 332
3 250 252 334
3 252 338 334
3 335 339 245
3 339 253 245
3 336 247 340
3 340 247 255
3 337 341 249
3 341 256 249
3 338 252 342
3 342 252 258
3 339 343 253
3 343 259 253
3 344 345 340
3 344 340 261
3 261 340 255
3 345 344 262
3 345 262 341
3 341 262 256
3 346 347 342
3 346 342 264
3 264 342 258
3 347 346 265
3 347 265 343
3 343 265 259
3 348 344 261
3 267 348 261
3 344 348 268
3 262 344 268
3 349 346 264
3 270 349 264
3 346 349 271
3 265 346 271
3 350 348 267
3 273 350 267
3 348 350 274
3 268 348 274
3 351 349 270
3 276 351 270
3 349 351 277
3 271 349 277
3 352 350 273
3 279 352 273
3 350 352 280
3 274 350 280
3 353 351 276
3 282 353 276
3 351 353 283
3 277 351 283
3 354 352 279
3 285 354 279
3 352 354 286
3 280 352 286
3 355 353 282
3 288 355 282
3 353 355 289
3 283 353 289
3 354 285 290
3 354 290 286
3 355 288 291
3 355 291 289
3 302 303 356
3 302 356 304
3 305 306 357
3 305 357 307
3 358 356 303
3 308 358 303
3 356 358 309
3 304 356 309
3 359 357 306
3 310 359 306
3 357 359 311
3 307 357 311
3 360 358 308
3 312 360 308
3 358 360 314
3 309 358 314
3 361 359 310
3 316 361 310
3 359 361 317
3 311 359 317
3 362 360 312
3 318 362 312
3 319 314 360
3 319 360 363
3 363 360 362
3 319 363 320
3 321 322 364
3 316 321 364
3 316 364 361
3 361 364 365
3 361 365 323
3 317 361 323
3 366 362 318
3 324 366 318
3 362 366 363
3 363 366 367
3 363 367 325
3 320 363 325
3 368 364 322
3 326 368 322
3 364 368 365
3 365 368 369
3 365 369 327
3 323 365 327
3 370 366 324
3 328 370 324
3 331 330 367
3 331 367 370
3 370 367 366
3 367 330 325
3 368 326 333
3 333 334 371
3 333 371 368
3 368 371 369
3 369 371 335
3 327 369 335
3 372 370 328
3 336 372 328
3 370 372 337
3 331 370 337
3 373 371 334
3 338 373 334
3 371 373 339
3 335 371 339
3 374 372 336
3 340 374 336
3 372 374 341
3 337 372 341
3 375 373 338
3 342 375 338
3 373 375 343
3 339 373 343
3 374 340 345
3 374 345 341
3 375 342 347
3 375 347 343
3 378 377 376
3 377 379 376
3 382 381 380
3 381 383 380
3 385 378 376
3 384 385 376
3 379 386 384
3 376 379 384
3 388 382 380
3 387 388 380
3 383 389 387
3 380 383 387
3 391 385 384
3 390 391 384
3 386 392 390
3 384 386 390
3 394 388 387
3 393 394 387
3 389 395 393
3 387 389 393
3 397 391 390
3 396 397 390
3 392 399 398
3 392 398 390
3 390 398 396
3 399 400 398
3 403 402 401
3 402 394 393
3 402 393 401
3 401 393 404
3 395 405 404
3 393 395 404
3 407 397 396
3 406 407 396
3 396 398 406
3 398 408 406
3 400 409 408
3 398 400 408
3 411 403 401
3 410 411 401
3 401 404 410
3 404 412 410
3 405 413 412
3 404 405 412
3 415 407 406
3 414 415 406
3 416 417 414
3 416 414 408
3 408 414 406
3 408 409 416
3 411 410 418
3 420 418 410
3 420 410 419
3 419 410 412
3 413 421 419
3 412 413 419
3 423 415 414
3 422 423 414
3 417 424 422
3 414 417 422
3 426 420 419
3 425 426 419
3 421 427 425
3 419 421 425
3 429 423 422
3 428 429 422
3 424 430 428
3 422 424 428
3 432 426 425
3 431 432 425
3 427 433 431
3 425 427 431
3 429 428 434
3 428 430 434
3 432 431 435
3 431 433 435
3 438 437 436
3 437 439 436
3 442 441 440
3 441 443 440
3 445 438 436
3 444 445 436
3 439 446 444
3 436 439 444
3 448 442 440
3 447 448 440
3 443 449 447
3 440 443 447
3 451 445 444
3 450 451 444
3 446 452 450
3 444 446 450
3 454 448 447
3 453 454 447
3 449 455 453
3 447 449 453
3 457 451 450
3 456 457 450
3 452 458 456
3 450 452 456
3 460 454 453
3 459 460 453
3 455 461 459
3 453 455 459
3 463 457 456
3 462 463 456
3 458 464 462
3 456 458 462
3 466 460 459
3 465 466 459
3 461 467 465
3 459 461 465
3 462 377 378
3 462 378 463
3 463 378 468
3 377 462 464
3 377 464 379
3 379 464 469
3 465 381 382
3 465 382 466
3 466 382 470
3 381 465 467
3 381 467 383
3 383 467 471
3 468 378 472
3 472 378 385
3 469 473 379
3 473 386 379
3 470 382 474
3 474 382 388
3 471 475 383
3 475 389 383
3 472 385 476
3 476 385 391
3 477 473 478
3 477 392 473
3 392 386 473
3 478 479 477
3 482 481 480
3 481 394 480
3 481 474 394
3 474 388 394
3 475 483 389
3 483 395 389
3 476 391 484
3 484 391 397
3 477 399 392
3 399 477 479
3 399 479 400
3 400 479 485
3 480 402 403
3 480 403 482
3 482 403 486
3 480 394 402
3 483 487 395
3 487 405 395
3 484 397 488
3 488 397 407
3 485 489 400
3 489 409 400
3 486 403 490
3 490 403 411
3 487 491 405
3 491 413 405
3 488 407 492
3 492 407 415
3 416 493 417
3 493 416 409
3 493 409 494
3 494 409 489
3 418 495 496
3 418 496 411
3 411 496 490
3 418 420 495
3 491 497 413
3 497 421 413
3 492 415 498
3 498 415 423
3 499 417 493
3 499 500 417
3 500 424 417
3 493 494 499
3 496 495 501
3 495 502 501
3 495 420 502
3 420 426 502
3 497 503 421
3 503 427 421
3 498 423 504
3 504 423 429
3 500 505 424
3 505 430 424
3 502 426 506
3 506 426 432
3 503 507 427
3 507 433 427
3 434 508 509
3 434 509 429
3 429 509 504
3 508 434 430
3 508 430 510
3 510 430 505
3 435 511 512
3 435 512 432
3 432 512 506
3 511 435 433
3 511 433 513
3 513 433 507
3 515 509 508
3 514 515 508
3 510 516 514
3 508 510 514
3 518 512 511
3 517 518 511
3 513 519 517
3 511 513 517
3 521 515 514
3 520 521 514
3 516 522 520
3 514 516 520
3 524 518 517
3 523 524 517
3 519 525 523
3 517 519 523
3 527 521 520
3 526 527 520
3 522 528 526
3 520 522 526
3 530 524 523
3 529 530 523
3 525 531 529
3 523 525 529
3 533 527 526
3 532 533 526
3 528 534 532
3 526 528 532
3 536 530 529
3 535 536 529
3 531 537 535
3 529 531 535
3 533 532 538
3 532 534 538
3 536 535 539
3 535 537 539
3 437 438 540
3 437 540 439
3 441 442 541
3 441 541 443
3 542 540 438
3 445 542 438
3 540 542 446
3 439 540 446
3 543 541 442
3 448 543 442
3 541 543 449
3 443 541 449
3 544 542 445
3 451 544 445
3 542 544 452
3 446 542 452
3 545 543 448
3 454 545 448
3 543 545 455
3 449 543 455
3 546 544 451
3 457 546 451
3 544 546 458
3 452 544 458
3 547 545 454
3 460 547 454
3 545 547 461
3 455 545 461
3 548 546 457
3 463 548 457
3 546 548 464
3 458 546 464
3 549 547 460
3 466 549 460
3 547 549 467
3 461 547 467
3 550 548 463
3 468 550 463
3 548 550 469
3 464 548 469
3 551 549 466
3 470 551 466
3 549 551 471
3 467 549 471
3 552 550 468
3 472 552 468
3 550 552 473
3 469 550 473
3 553 551 470
3 474 553 470
3 551 553 475
3 471 551 475
3 554 552 472
3 476 554 472
3 478 473 552
3 478 552 555
3 555 552 554
3 478 555 479
3 481 482 556
3 474 481 556
3 474 556 553
3 553 556 557
3 553 557 483
3 475 553 483
3 558 554 476
3 484 558 476
3 554 558 555
3 555 558 559
3 555 559 485
3 479 555 485
3 560 556 482
3 486 560 482
3 556 560 557
3 557 560 561
3 557 561 487
3 483 557 487
3 562 558 484
3 488 562 484
3 558 562 559
3 559 562 563
3 559 563 489
3 485 559 489
3 564 560 486
3 490 564 486
3 560 564 561
3 561 564 565
3 561 565 491
3 487 561 491
3 566 562 488
3 492 566 488
3 562 566 563
3 563 566 567
3 563 567 494
3 489 563 494
3 568 564 490
3 496 568 490
3 564 568 565
3 565 568 569
3 565 569 497
3 491 565 497
3 570 566 492
3 498 570 492
3 500 499 567
3 500 567 570
3 570 567 566
3 567 499 494
3 568 496 501
3 501 502 571
3 501 571 568
3 568 571 569
3 569 571 503
3 497 569 503
3 572 570 498
3 504 572 498
3 570 572 505
3 500 570 505
3 573 571 502
3 506 573 502
3 571 573 507
3 503 571 507
3 574 572 504
3 509 574 504
3 572 574 510
3 505 572 510
3 575 573 506
3 512 575 506
3 573 575 513
3 507 573 513
3 576 574 509
3 515 576 509
3 574 576 516
3 510 574 516
3 577 575 512
3 518 577 512
3 575 577 519
3 513 575 519
3 578 576 515
3 521 578 515
3 576 578 522
3 516 576 522
3 579 577 518
3 524 579 518
3 577 579 525
3 519 577 525
3 580 578 521
3 527 580 521
3 578 580 528
3 522 578 528
3 581 579 524
3 530 581 524
3 579 581 531
3 525 579 531
3 582 580 527
3 533 582 527
3 580 582 534
3 528 580 534
3 583 581 530
3 536 583 530
3 581 583 537
3 531 581 537
3 582 533 538
3 582 538 534
3 583 536 539
3 583 539 537
3 586 585 584
3 585 587 584
3 590 589 588
3 589 591 588
3 593 586 584
3 592 593 584
3 587 594 592
3 584 587 592
3 596 590 588
3 595 596 588
3 591 597 595
3 588 591 595
3 599 593 592
3 598 599 592
3 594 600 598
3 592 594 598
3 602 596 595
3 601 602 595
3 597 603 601
3 595 597 601
3 605 599 598
3 604 605 598
3 600 606 604
3 598 600 604
3 608 602 601
3 607 608 601
3 603 609 607
3 601 603 607
3 611 605 604
3 610 611 604
3 606 612 610
3 604 606 610
3 614 608 607
3 613 614 607
3 609 615 613
3 607 609 613
3 617 611 610
3 616 617 610
3 612 618 616
3 610 612 616
3 620 614 613
3 619 620 613
3 615 621 619
3 613 615 619
3 623 617 616
3 622 623 616
3 618 624 622
3 616 618 622
3 626 620 619
3 625 626 619
3 621 627 625
3 619 621 625
3 629 623 622
3 628 629 622
3 624 631 630
3 624 630 622
3 622 630 628
3 631 632 630
3 635 634 633
3 634 626 625
3 634 625 633
3 633 625 636
3 627 637 636
3 625 627 636
3 639 629 628
3 638 639 628
3 628 630 638
3 630 640 638
3 632 641 640
3 630 632 640
3 643 635 633
3 642 643 633
3 633 636 642
3 636 644 642
3 637 645 644
3 636 637 644
3 647 639 638
3 646 647 638
3 638 640 646
3 640 648 646
3 641 649 648
3 640 641 648
3 651 643 642
3 650 651 642
3 642 644 650
3 644 652 650
3 645 653 652
3 644 645 652
3 655 647 646
3 654 655 646
3 646 648 654
3 648 656 654
3 649 657 656
3 648 649 656
3 659 651 650
3 658 659 650
3 650 652 658
3 652 660 658
3 653 661 660
3 652 653 660
3 663 655 654
3 662 663 654
3 664 665 662
3 664 662 656
3 656 662 654
3 656 657 664
3 659 658 666
3 668 666 658
3 668 658 667
3 667 658 660
3 661 669 667
3 660 661 667
3 671 663 662
3 670 671 662
3 665 672 670
3 662 665 670
3 674 668 667
3 673 674 667
3 669 675 673
3 667 669 673
3 677 671 670
3 676 677 670
3 672 678 676
3 670 672 676
3 680 674 673
3 679 680 673
3 675 681 679
3 673 675 679
3 683 677 676
3 682 683 676
3 678 684 682
3 676 678 682
3 686 680 679
3 685 686 679
3 681 687 685
3 679 681 685
3 689 683 682
3 688 689 682
3 684 690 688
3 682 684 688
3 692 686 685
3 691 692 685
3 687 693 691
3 685 687 691
3 695 689 688
3 694 695 688
3 690 696 694
3 688 690 694
3 698 692 691
3 697 698 691
3 693 699 697
3 691 693 697
3 701 695 694
3 700 701 694
3 696 702 700
3 694 696 700
3 704 698 697
3 703 704 697
3 699 705 703
3 697 699 703
3 701 700 706
3 700 702 706
3 704 703 707
3 703 705 707
3 585 586 708
3 585 708 587
3 589 590 709
3 589 709 591
3 710 708 586
3 593 710 586
3 708 710 594
3 587 708 594
3 711 709 590
3 596 711 590
3 709 711 597
3 591 709 597
3 712 710 593
3 599 712 593
3 710 712 600
3 594 710 600
3 713 711 596
3 602 713 596
3 711 713 603
3 597 711 603
3 714 712 599
3 605 714 599
3 712 714 606
3 600 712 606
3 715 713 602
3 608 715 602
3 713 715 609
3 603 713 609
3 716 714 605
3 611 716 605
3 714 716 612
3 606 714 612
3 717 715 608
3 614 717 608
3 715 717 615
3 609 715 615
3 718 716 611
3 617 718 611
3 716 718 618
3 612 716 618
3 719 717 614
3 620 719 614
3 717 719 621
3 615 717 621
3 720 718 617
3 623 720 617
3 718 720 624
3 618 718 624
3 721 719 620
3 626 721 620
3 719 721 627
3 621 719 627
3 722 720 623
3 629 722 623
3 631 624 720
3 631 720 723
3 723 720 722
3 631 723 632
3 634 635 724
3 626 634 724
3 626 724 721
3 721 724 725
3 721 725 637
3 627 721 637
3 726 722 629
3 639 726 629
3 722 726 723
3 723 726 727
3 723 727 641
3 632 723 641
3 728 724 635
3 643 728 635
3 724 728 725
3 725 728 729
3 725 729 645
3 637 725 645
3 730 726 639
3 647 730 639
3 726 730 727
3 727 730 731
3 727 731 649
3 641 727 649
3 732 728 643
3 651 732 643
3 728 732 729
3 729 732 733
3 729 733 653
3 645 729 653
3 734 730 647
3 655 734 647
3 730 734 731
3 731 734 735
3 731 735 657
3 649 731 657
3 736 732 651
3 659 736 651
3 732 736 733
3 733 736 737
3 733 737 661
3 653 733 661
3 738 734 655
3 663 738 655
3 665 664 735
3 665 735 738
3 738 735 734
3 735 664 657
3 736 659 666
3 666 668 739
3 666 739 736
3 736 739 737
3 737 739 669
3 661 737 669
3 740 738 663
3 671 740 663
3 738 740 672
3 665 738 672
3 741 739 668
3 674 741 668
3 739 741 675
3 669 739 675
3 742 740 671
3 677 742 671
3 740 742 678
3 672 740 678
3 743 741 674
3 680 743 674
3 741 743 681
3 675 741 681
3 744 742 677
3 683 744 677
3 742 744 684
3 678 742 684
3 745 743 680
3 686 745 680
3 743 745 687
3 681 743 687
3 746 744 683
3 689 746 683
3 744 746 690
3 684 744 690
3 747 745 686
3 692 747 686
3 745 747 693
3 687 745 693
3 748 746 689
3 695 748 689
3 746 748 696
3 690 746 696
3 749 747 692
3 698 749 692
3 747 749 699
3 693 747 699
3 750 748 695
3 701 750 695
3 748 750 702
3 696 748 702
3 751 749 698
3 704 751 698
3 749 751 705
3 699 749 705
3 750 701 706
3 750 706 702
3 751 704 707
3 751 707 705
