ply
format ascii 1.0
element vertex 578
property float x
property float y
property float z
property uchar red
property uchar green
property uchar blue
element face 1152
property list uchar int vertex_indices
end_header
-5.0082402229309082 7 0 179 202 197
-5 6.94100046157836914 0 211 182 182
-5 7 -0.0417745001614093781 106 103 96
-5.03012418746948242 7 1 239 208 228
-5 6.55235624313354492 1 212 183 183
-5 7 1.24252569675445557 230 213 240
-5.00124549865722656 8 0 225 234 254
-5 8 -0.00405696453526616096 228 240 254
-5.13414907455444336 8 1 226 254 237
-5.10408639907836914 8 2 251 254 225
-5 7.46706008911132812 2 250 219 219
-5 8 2.53325200080871582 242 254 228
-5 8.05157947540283203 0 229 253 254
-5 8.85315704345703125 1 229 254 234
-5 8.81915473937988281 2 242 254 228
-4.09619235992431641 0 0 237 248 245
-4 -0.0605141744017601013 0 226 209 220
-4 0 -0.069962620735168457 12 11 11
-4.26146793365478516 0 1 135 147 137
-4 -0.288064509630203247 1 159 153 153
-4 0 1.1891944408416748 68 68 64
-4 0.278202265501022339 0 230 237 228
-4.32952594757080078 1 1 233 228 245
-4 1 0.421241939067840576 246 221 221
-4.49780750274658203 1 2 201 203 195
-4 0.678751051425933838 2 250 249 248
-4 1 2.84552741050720215 162 161 160
-4.16756772994995117 2 0 118 100 100
-4 1.65158450603485107 0 246 221 221
-4 2 -0.420818060636520386 78 67 67
-4.30926895141601562 2 1 164 138 138
-4.15933656692504883 2 2 208 173 173
-4 2 2.4395906925201416 197 168 168
-4 2.56198382377624512 0 129 110 110
-4.04012012481689453 3 1 18 15 15
-4 3 0.75310361385345459 39 32 32
-4 2.82592535018920898 2 197 168 168
-4 3 1.5533524751663208 12 10 10
-4.20014715194702148 4 0 200 170 170
-4 3.37849783897399902 0 39 32 32
-4 4 -0.537412106990814209 200 173 173
-4.32777833938598633 4 1 182 153 153
-4.22477293014526367 4 2 151 127 127
-4 3.12632560729980469 2 37 30 30
-4 4 2.67060041427612305 145 122 122
-4.36239147186279297 5 -1 216 186 186
-4 4.3295135498046875 -1 200 173 173
-4 5 -1.61978042125701904 201 174 174
-4.69325113296508789 5 0 214 183 183
-4.76157426834106445 5 1 208 177 177
-4.5801539421081543 5 2 198 168 168
-4.19687128067016602 5 3 179 153 153
-4 4.36263799667358398 3 96 81 81
-4 5 3.32576775550842285 173 148 148
-4.38572359085083008 6 -1 203 184 212
-4 6 -1.54220926761627197 175 199 179
-4.80830001831054688 6 0 211 182 182
-4.94420289993286133 6 1 212 183 183
-4.79185247421264648 6 2 214 185 185
-4.40884494781494141 6 3 216 187 187
-4 6 3.68348836898803711 212 186 186
-4.22047328948974609 7 -2 22 24 24
-4 6.5832672119140625 -2 175 199 179
-4 7 -2.27248859405517578 155 144 148
-4.73518705368041992 7 -1 106 103 96
-4.86631441116333008 7 2 250 219 219
-4.51886940002441406 7 3 252 218 218
-4 7 3.99413728713989258 252 222 236
-4.05441570281982422 8 -2 228 242 254
-4 8 -2.07491779327392578 230 254 240
-4.60005807876586914 8 -1 228 240 254
-4.87202119827270508 8 3 250 254 226
-4.38587570190429688 8 4 249 253 223
-4 7.00746583938598633 4 221 251 249
-4 8 4.52577972412109375 233 252 225
-4 8.66561222076416016 -2 231 254 250
-4 8.95245170593261719 -1 232 254 253
-4 8.96790027618408203 0 232 254 249
-4 8.97156333923339844 1 231 254 240
-4 8.97082710266113281 2 230 254 231
-4 8.96430397033691406 3 231 254 227
-4 8.92883872985839844 4 233 252 225
-3.37466859817504883 -2 1 212 178 178
-3 -2.50859832763671875 1 189 163 163
-3 -2 0.149396806955337524 104 88 88
-3.31603026390075684 -2 2 217 187 187
-3 -2.40034699440002441 2 122 106 106
-3 -2 2.71008825302124023 216 185 185
-3.30928397178649902 -1 1 159 153 153
-3 -1 0.784862279891967773 220 224 229
-3.80836749076843262 -1 2 40 34 34
-3.62461256980895996 -1 3 235 202 202
-3 -1.82554757595062256 3 135 114 114
-3 -1 3.83193159103393555 240 211 211
-3 -0.447593182325363159 0 220 224 229
-3 0 -0.86953425407409668 196 194 210
-3.02340388298034668 0 2 250 249 248
-3.35699987411499023 0 3 47 47 47
-3.33019423484802246 0 4 19 17 17
-3 -0.743315637111663818 4 223 184 184
-3 0 4.41023445129394531 116 99 99
-3.23864412307739258 1 -1 225 196 196
-3 0.406808763742446899 -1 196 194 210
-3 1 -1.57992410659790039 3 2 2
-3.64999651908874512 1 0 246 221 221
-3 0.511294424533843994 3 41 41 41
-3 1 2.79536128044128418 146 146 144
-3 0.528761565685272217 4 116 99 99
-3.64698362350463867 2 -1 78 67 67
-3 2 -1.69998908042907715 43 37 37
-3.70006966590881348 2 3 225 189 189
-3 1.38059651851654053 3 251 252 248
-3.02843260765075684 2 4 253 212 212
-3 1.91129457950592041 4 213 217 215
-3 2 4.01603937149047852 254 218 218
-3.26542305946350098 3 -1 33 28 28
-3 3 -1.30298733711242676 6 5 5
-3.8198246955871582 3 0 39 32 32
-3.95142507553100586 3 2 37 30 30
-3.51584601402282715 3 3 109 90 90
-3 2.11749577522277832 4 254 218 218
-3 3 3.67911434173583984 120 99 99
-3.75666213035583496 4 -1 200 173 173
-3 4 -1.90486240386962891 189 166 166
-3.84069514274597168 4 3 96 81 81
-3.06006240844726562 4 4 21 19 23
-3 3.79216790199279785 4 189 157 157
-3 4 4.05352020263671875 7 5 6
-3.69158554077148438 5 -2 201 174 174
-3 4.1045832633972168 -2 189 166 166
-3 5 -2.59881448745727539 171 149 149
-3.44513821601867676 5 4 140 120 123
-3 5 4.39453125 126 108 108
-3.550079345703125 6 -2 175 199 179
-3 6 -2.39679479598999023 186 166 165
-3.73898458480834961 6 4 212 184 184
-3 6 4.64317417144775391 208 183 183
-3.18773102760314941 7 -3 155 144 148
-3 6.80827188491821289 -3 186 166 165
-3 7 -3.11848711967468262 212 197 197
-3.9956514835357666 7 4 221 251 249
-3 7 4.93544292449951172 224 250 233
-3.16779422760009766 8 -3 230 254 240
-3 8 -3.15239691734313965 250 252 231
-3.52505779266357422 8 5 237 247 221
-3 7.10650444030761719 5 243 232 219
-3 8 5.36179637908935547 232 244 222
-3 8.83209609985351562 -3 238 254 233
-3 8.96426010131835938 -2 234 254 239
-3 8.97530078887939453 -1 234 254 246
-3 8.97837543487548828 0 234 254 249
-3 8.97922039031982422 1 232 254 249
-3 8.97901725769042969 2 231 254 247
-3 8.97738552093505859 3 228 253 242
-3 8.97118568420410156 4 226 251 229
-3 8.92864704132080078 5 232 244 222
-2.09147787094116211 -3 0 221 195 195
-2 -3.0739901065826416 0 180 159 159
-2 -3 -0.0994873642921447754 231 200 200
-2.43919801712036133 -3 1 189 163 163
-2 -3.34925031661987305 1 114 104 104
-2.29098105430603027 -3 2 122 106 106
-2 -3.23375439643859863 2 37 34 34
-2 -3 2.47002863883972168 124 109 109
-2.90594363212585449 -2 0 104 88 88
-2 -2 -0.585127711296081543 198 176 176
-2.7967522144317627 -2 3 135 114 114
-2 -2.69780778884887695 3 68 62 62
-2 -2 3.6907343864440918 130 111 111
-2.48445820808410645 -1 -1 246 222 222
-2 -1.32338845729827881 -1 198 176 176
-2 -1 -1.30909860134124756 199 179 179
-2 -1.1558840274810791 0 190 159 159
-2 -1 -0.352726787328720093 184 176 191
-2 -1 0.101437762379646301 145 148 145
-2.80550980567932129 -1 4 223 184 184
-2 -1.69286477565765381 4 58 50 50
-2 -1 4.46342039108276367 220 182 182
-2.85025525093078613 0 -1 196 194 210
-2 0 -1.37107002735137939 41 37 37
-2 -0.928214550018310547 0 145 148 145
-2.24045634269714355 0 5 250 214 214
-2 -0.215585038065910339 5 153 127 127
-2 0 5.11038446426391602 251 212 212
-2.71728825569152832 1 -2 3 2 2
-2 0.782189369201660156 -2 41 37 37
-2 1 -2.50452184677124023 156 135 135
-2.3429408073425293 1 3 251 252 248
-2.59772872924804688 1 4 213 217 215
-2 0.943031549453735352 5 251 212 212
-2 1 4.9796600341796875 176 180 181
-2.49455666542053223 2 -2 43 37 37
-2 2 -2.21444559097290039 7 6 6
-2 2 4.41902780532836914 246 215 215
-2.06830096244812012 3 -2 6 5 5
-2 3 -2.03647160530090332 68 59 59
-2.62206792831420898 3 4 189 157 157
-2 3 4.33203983306884766 200 166 166
-2.88560819625854492 4 -2 189 166 166
-2 4 -2.50006318092346191 168 149 149
-2 4 4.63741207122802734 21 18 18
-2.32696890830993652 5 -3 171 149 149
-2 4.73527336120605469 -3 168 149 149
-2 5 -3.1397702693939209 126 109 122
-2.01594758033752441 5 5 54 54 63
-2 4.97303485870361328 5 96 98 113
-2 5 5.00733327865600586 32 30 35
-2 5.65226364135742188 -3 134 116 116
-2 6 -2.89947080612182617 143 140 128
-2.41281414031982422 6 5 169 181 191
-2 6 5.18148946762084961 160 174 181
-2 6.1399836540222168 -3 143 140 128
-2 7 -3.47982573509216309 163 153 153
-2.90060257911682129 7 5 243 232 219
-2 7 5.39634037017822266 237 239 220
-2 8 -3.81421089172363281 248 237 230
-2 8 5.81079721450805664 221 237 218
-2 8.9599609375 -3 249 252 234
-2 8.97593975067138672 -2 238 254 235
-2 8.97949600219726562 -1 235 254 243
-2 8.98031520843505859 0 234 254 250
-2 8.9803924560546875 1 233 252 254
-2 8.98038291931152344 2 231 250 253
-2 8.98001003265380859 3 229 252 249
-2 8.97759342193603516 4 226 247 231
-2 8.96476078033447266 5 221 237 218
-1 -3.47713351249694824 0 194 172 172
-1 -3 -0.678861498832702637 245 216 216
-1 -3.75997138023376465 1 134 122 122
-1 -3.64458823204040527 2 65 60 60
-1.35831618309020996 -3 3 68 62 62
-1 -3.14629626274108887 3 4 4 4
-1 -3 3.16564130783081055 95 87 87
-1.19097113609313965 -2 -1 198 176 176
-1 -2.36835408210754395 -1 245 216 216
-1 -2 -1.04060840606689453 46 42 42
-1.34126460552215576 -2 4 58 50 50
-1 -2.15996384620666504 4 98 88 88
-1 -2 4.11028909683227539 91 81 81
-1 -1 -1.19719135761260986 204 185 185
-1.82278835773468018 -1 0 145 148 145
-1 -1 4.77223396301269531 221 184 184
-1 0 -1.5753248929977417 125 115 120
-1 -0.67107468843460083 5 174 147 147
-1 0 5.3361821174621582 252 210 210
-1 0.584637761116027832 -2 125 115 120
-1 1 -2.77808284759521484 189 164 164
-1.97908759117126465 1 5 154 153 152
-1 1 5.54983329772949219 254 252 245
-1 2 -2.32685685157775879 126 106 106
-1.13108921051025391 2 5 99 106 103
-1 2 5.26344585418701172 199 209 195
-1 3 -2.29161357879638672 38 32 32
-1 2.2435307502746582 5 199 209 195
-1 3 4.58849000930786133 217 180 180
-1 4 -2.82998442649841309 121 106 106
-1 4 4.95568943023681641 64 53 53
-1 4.27098608016967773 -3 121 106 106
-1 5 -3.33269071578979492 77 67 78
-1 4.11869144439697266 5 134 127 151
-1 5 5.23216104507446289 3 3 3
-1.64735960960388184 6 -3 143 140 128
-1 6 -3.13847684860229492 43 49 48
-1 6 5.3972315788269043 147 166 165
-1 7 -3.58530592918395996 30 28 28
-1 7 5.61751699447631836 222 233 218
-1.55554449558258057 8 -4 248 237 230
-1 7.68342733383178711 -4 30 28 28
-1 8 -4.16237545013427734 197 203 193
-1.15781056880950928 8 6 194 218 213
-1 7.91681241989135742 6 192 213 206
-1 8 6.02345705032348633 172 189 196
-1 8.87241840362548828 -4 232 229 219
-1 8.97109127044677734 -3 246 233 231
-1 8.97881603240966797 -2 250 251 235
-1 8.98033905029296875 -1 239 252 235
-1 8.98023319244384766 0 234 252 241
-1 8.97995185852050781 1 233 252 248
-1 8.98011016845703125 2 230 250 249
-1 8.98039150238037109 3 227 246 240
-1 8.97927474975585938 4 222 238 222
-1 8.97120952606201172 5 201 223 213
-1 8.54485607147216797 6 172 189 196
0 -3.49405145645141602 0 208 186 186
0 -3 -0.728477656841278076 250 224 224
0 -3.77725934982299805 1 159 146 146
0 -3.66333103179931641 2 103 95 95
0 -3.16661810874938965 3 53 48 48
0 -3 3.18912029266357422 131 121 121
0 -2.6538383960723877 -1 250 224 224
0 -2 -1.11933004856109619 206 186 186
0 -2.18766522407531738 4 142 126 126
0 -2 4.13006687164306641 137 123 123
-0.972124218940734863 -1 -1 7 8 8
0 -1.70242595672607422 -1 165 140 140
0 -1 -0.538926124572753906 159 166 158
0 -1 4.78934335708618164 227 190 190
0 -0.662607491016387939 -1 159 166 158
0 0 -1.70592391490936279 243 221 244
0 -0.69518744945526123 5 203 174 174
0 0 5.34316587448120117 253 210 210
0 0.473459601402282715 -2 243 221 244
0 1 -2.63719010353088379 208 180 180
0 1 5.6537022590637207 94 101 101
0 2 -2.19440221786499023 205 169 169
0 2 5.68159675598144531 184 198 181
0 3 -2.29101920127868652 62 53 53
0 2.54967617988586426 5 184 198 181
0 3 4.56915712356567383 236 195 195
0 4 -2.87265849113464355 59 51 52
0 4 4.96782636642456055 118 99 99
0 4.22919178009033203 -3 59 51 52
0 5 -3.29813289642333984 18 18 21
0 4.08784389495849609 5 173 163 195
0 5 5.23566818237304688 49 45 53
0 6 -3.16528654098510742 74 76 84
0 6 5.39582300186157227 126 144 131
0 7 -3.44163608551025391 144 135 135
0 7 5.61548900604248047 210 223 204
0 7.68842267990112305 -4 144 135 135
0 8 -4.21935844421386719 106 105 112
0 7.97287940979003906 6 175 197 182
0 8 6.00720357894897461 131 141 149
0 8.903778076171875 -4 163 164 170
0 8.97294330596923828 -3 202 210 208
0 8.97939014434814453 -2 226 231 220
0 8.98039150238037109 -1 240 231 227
0 8.97998237609863281 0 243 238 228
0 8.97959613800048828 1 235 242 227
0 8.97985744476318359 2 225 239 224
0 8.98037338256835938 3 219 231 217
0 8.97949886322021484 4 197 217 204
0 8.97155380249023438 5 170 192 190
0 8.27307701110839844 6 131 141 149
1 -3.12010741233825684 0 221 198 198
1 -3 -0.179708436131477356 252 222 222
1 -3.38821816444396973 1 186 172 172
1 -3.27950835227966309 2 146 132 132
0.453051269054412842 -3 3 131 121 121
1 -3 2.5745551586151123 179 162 162
1 -2.19535231590270996 -1 252 222 222
1 -2 -1.05532920360565186 159 139 139
1 -2.75892472267150879 3 171 154 154
0.456029057502746582 -2 4 137 123 123
1 -2 3.76284122467041016 176 155 155
1 -1.92382657527923584 -1 238 195 195
1 -1 -0.340018361806869507 190 194 185
1 -1.76330173015594482 4 183 167 167
1 -1 4.50078916549682617 235 198 198
1 -0.438271969556808472 -1 190 194 185
1 0 -1.66123783588409424 211 192 214
1 -0.266709625720977783 5 228 198 198
1 0 5.13095569610595703 254 210 210
1 0.726491212844848633 -2 211 192 214
1 1 -2.18625783920288086 215 184 184
1 1 5.4328160285949707 168 146 147
0.542473554611206055 2 -2 222 183 183
1 1.50849545001983643 -2 178 154 154
1 2 -1.77393341064453125 230 187 187
1 2 5.53966474533081055 40 45 43
1 2.83195853233337402 -2 230 187 187
1 3 -2.03264760971069336 116 97 97
1 2.39505648612976074 5 40 45 43
1 3 4.26995611190795898 252 206 206
1 4 -2.59442543983459473 18 15 16
1 4 4.67086362838745117 177 147 147
1 4.8779606819152832 -3 18 15 16
1 5 -3.03886580467224121 38 43 45
1 4.9387211799621582 5 194 195 234
1 5 5.01567268371582031 93 94 111
0.882943391799926758 6 -3 16 18 17
1 5.65720701217651367 -3 42 39 46
1 6 -2.96886301040649414 102 108 114
1 6 5.17859745025634766 107 111 96
1 6.14837551116943359 -3 102 108 114
1 7 -3.11475396156311035 217 214 229
1 7 5.39963197708129883 197 203 183
1 7.95352888107299805 -4 217 214 229
1 8 -4.03828048706054688 114 106 106
0.0406695567071437836 8 6 131 141 149
1 8 5.7644648551940918 110 125 120
1 8.62914562225341797 -4 44 41 41
1 8.96922969818115234 -3 45 43 43
1 8.97862529754638672 -2 120 116 117
1 8.98033428192138672 -1 161 161 166
1 8.98023033142089844 0 183 189 185
1 8.97996997833251953 1 199 197 190
1 8.98016834259033203 2 198 192 185
1 8.98036861419677734 3 177 187 170
1 8.97864341735839844 4 146 164 151
1 8.96639823913574219 5 110 125 120
1.15363729000091553 -3 0 243 210 210
1.48805606365203857 -3 1 214 187 187
1.35358476638793945 -3 2 179 162 162
1.20513701438903809 -2 -1 238 195 195
2 -2.31581950187683105 0 246 211 211
2 -2 -0.37193763256072998 253 203 203
2 -2.5834810733795166 1 224 197 197
2 -2.4440464973449707 2 205 186 186
1.86079120635986328 -2 3 176 155 155
2 -2 2.7948005199432373 230 198 198
2 -1 -0.135297790169715881 118 121 116
2 -1.88492214679718018 3 203 180 180
1.85966312885284424 -1 4 235 198 198
2 -1 3.88370180130004883 252 211 211
2 -0.179855376482009888 -1 118 121 116
2 0 -1.28993368148803711 64 57 64
2 -0.874527633190155029 4 243 206 206
1.29573369026184082 0 5 254 210 210
2 0 4.56855154037475586 254 216 216
1.25361692905426025 1 -2 178 154 154
2 1 -1.21816408634185791 192 161 161
1.99565672874450684 1 5 168 146 147
2 1 4.99570274353027344 210 219 219
1.96933960914611816 2 -1 217 176 176
2 1.88695299625396729 -1 146 124 124
2 2 -0.96316450834274292 207 166 166
1.10574460029602051 2 4 244 207 207
2 1.39278256893157959 4 210 219 219
2 2 3.21304965019226074 114 92 92
2 1.01764559745788574 5 247 205 205
2 2 4.86548185348510742 217 178 178
2 2 5.10525941848754883 186 178 209
1.06068706512451172 3 -2 114 94 94
2 2.08212089538574219 -1 207 166 166
2 3 -1.27909433841705322 178 145 145
1.46103560924530029 3 4 252 206 206
2 3 3.53018832206726074 252 204 204
2 2.07201194763183594 5 186 178 209
2 3.97248053550720215 -2 178 145 145
2 4 -2.01556921005249023 106 88 102
2 3.75428581237792969 4 252 205 205
2 4 4.10341310501098633 229 189 202
1.07836973667144775 5 -3 42 39 46
2 5 -2.37036275863647461 107 128 125
1.03416168689727783 5 5 93 94 111
2 5 4.40347003936767578 90 76 91
2 6 -2.38874030113220215 153 148 165
1.40665960311889648 6 5 107 111 96
2 6 4.64264631271362305 108 123 107
1.24502646923065186 7 -3 224 238 233
2 7 -2.52278900146484375 243 247 231
1.98166537284851074 7 5 197 203 183
2 7 4.9893798828125 199 189 180
1.0898902416229248 8 -4 44 41 41
2 7.43703460693359375 -3 243 247 231
2 8 -3.5104525089263916 254 235 235
2 7.01741409301757812 5 169 158 147
2 8 5.36806774139404297 6 6 6
2 8.94711685180664062 -3 236 220 220
2 8.974700927734375 -2 166 156 156
2 8.97930908203125 -1 70 66 66
2 8.98028564453125 0 11 11 11
2 8.98038768768310547 1 58 63 61
2 8.98033046722412109 2 84 82 77
2 8.97954273223876953 3 81 78 72
2 8.97506046295166016 4 52 55 48
2 8.94002914428710938 5 6 6 6
2.26376485824584961 -2 0 254 220 220
2.47380352020263672 -2 1 251 214 214
2.33681917190551758 -2 2 230 198 198
2.40141081809997559 -1 0 92 83 85
3 -1.2859349250793457 1 252 213 213
3 -1 0.689827144145965576 168 143 143
3 -1.21236848831176758 2 238 205 205
2.70047640800476074 -1 3 252 211 211
3 -1 2.38475346565246582 254 217 217
2.38103508949279785 0 -1 164 159 157
2.55865120887756348 0 0 207 208 209
2.35173773765563965 0 1 71 70 71
3 -0.701462030410766602 1 254 202 202
3 0 1.69607830047607422 140 139 141
3 -0.535668492317199707 3 253 211 211
2.64317035675048828 0 4 254 216 216
3 0 3.49221658706665039 253 205 205
2.14961409568786621 1 -1 146 124 124
2.68461084365844727 1 0 100 85 85
3 0.925811231136322021 1 140 139 141
3 1 0.90152817964553833 146 120 120
2.14363741874694824 1 2 105 105 105
3 0.169054716825485229 2 56 55 51
3 1 1.03599536418914795 4 4 4
3 1 2.98382949829101562 8 8 8
2.68084526062011719 1 4 210 219 219
3 1 3.06829690933227539 235 232 244
2.53476572036743164 2 0 177 143 143
2.77581477165222168 2 1 144 117 117
3 1.14519989490509033 1 4 4 4
2.61081576347351074 2 2 139 113 113
2.18958449363708496 2 3 114 92 92
3 1.01884448528289795 3 235 232 244
2.13997244834899902 2 5 186 178 209
2.24217939376831055 3 -1 185 150 150
2.7801520824432373 3 0 199 162 162
2.99977302551269531 3 1 217 176 176
2.86574697494506836 3 2 236 192 192
2.41006970405578613 3 3 252 204 204
2.01714444160461426 4 -2 96 79 79
2.78898954391479492 4 -1 93 77 77
3 3.42242217063903809 0 242 194 194
3 4 -0.586635768413543701 178 147 147
3 3.00044965744018555 1 250 200 200
3 3.26768684387207031 2 254 204 204
2.90299105644226074 4 3 182 150 150
3 4 2.79413127899169922 206 168 168
2.11806797981262207 4 4 229 189 202
2.39734578132629395 5 -2 107 116 126
3 4.51762533187866211 -1 178 147 147
3 5 -1.22430837154388428 174 196 167
3 4.26778268814086914 3 235 192 192
2.44892644882202148 5 4 90 76 91
3 5 3.30996227264404297 99 87 103
2.42907261848449707 6 -2 59 65 63
3 6 -1.33976411819458008 19 21 21
2.75346517562866211 6 4 108 123 107
3 6 3.70583128929138184 106 114 101
2.71644306182861328 7 -2 249 238 234
3 7 -1.71970176696777344 241 243 228
3 6.50483989715576172 4 67 61 58
3 7 4.17825889587402344 144 131 125
2.71372270584106445 8 -3 236 220 220
3 7.2247776985168457 -2 241 243 228
3 8 -2.74320578575134277 112 102 102
2.6772150993347168 8 5 6 6 6
3 8 4.75653886795043945 103 94 91
3 8.95410919189453125 -2 209 190 190
3 8.97352123260498047 -1 254 232 232
3 8.97772121429443359 0 223 203 203
3 8.97870254516601562 1 154 143 158
3 8.97812080383300781 2 97 108 101
3 8.97480392456054688 3 91 88 80
3 8.95870494842529297 4 103 94 91
3.15892481803894043 -1 1 254 202 202
3.13123774528503418 -1 2 254 217 217
3.1939704418182373 0 2 56 55 51
3.25603771209716797 0 3 253 205 205
3.02364468574523926 1 1 4 4 4
3.01558017730712891 1 3 235 232 244
3.21004152297973633 4 0 176 145 145
3.3465120792388916 4 1 184 151 151
3.25618338584899902 4 2 206 168 168
3.13498806953430176 5 -1 151 176 164
3.49573373794555664 5 0 120 129 139
3.63089823722839355 5 1 93 87 101
3.52164769172668457 5 2 84 71 84
3.18067789077758789 5 3 99 87 103
3.22105026245117188 6 -1 66 64 60
3.67062497138977051 6 0 117 117 106
3.8864436149597168 6 1 126 140 129
3.80072903633117676 6 2 124 138 129
3.43247437477111816 6 3 106 114 101
3.58375310897827148 7 -1 242 236 227
4 6.73065853118896484 0 121 117 109
4 7 -0.247410818934440613 195 205 192
4 6.24603605270385742 1 111 110 99
4 6.42838382720947266 2 84 79 74
3.85629940032958984 7 3 178 163 162
4 7 2.65802836418151855 123 114 111
3.17049384117126465 7 4 144 131 125
3.66809344291687012 8 -2 209 190 190
4 7.47623729705810547 -1 195 205 192
4 8 -1.54027342796325684 48 43 43
4 7.19704484939575195 3 78 72 68
3.80866527557373047 8 4 103 94 91
4 8 3.74773573875427246 204 232 210
4 8.92388725280761719 -1 82 73 73
4 8.96112060546875 0 202 182 182
4 8.96691131591796875 1 252 226 226
4 8.96402263641357422 2 229 220 247
4 8.94213581085205078 3 204 232 210
4.09997320175170898 7 0 185 189 177
4.26856279373168945 7 1 161 159 149
4.20115804672241211 7 2 123 114 111
4.30796527862548828 8 -1 82 73 73
4.68330669403076172 8 0 202 182 182
4.85149574279785156 8 1 252 226 226
4.76419830322265625 8 2 229 220 247
4.43001270294189453 8 3 204 232 210
3 2 1 0
3 1 4 3
3 0 1 3
3 4 5 3
3 7 2 0
3 6 7 0
3 0 3 6
3 3 8 6
3 5 10 9
3 5 9 3
3 3 9 8
3 10 11 9
3 7 6 12
3 6 8 13
3 12 6 13
3 8 9 14
3 13 8 14
3 9 11 14
3 17 16 15
3 16 19 18
3 15 16 18
3 19 20 18
3 17 15 21
3 23 21 15
3 23 15 22
3 22 15 18
3 20 25 24
3 20 24 18
3 18 24 22
3 25 26 24
3 29 28 27
3 28 23 22
3 28 22 27
3 27 22 30
3 22 24 30
3 24 31 30
3 26 32 31
3 24 26 31
3 29 27 33
3 35 33 27
3 35 27 34
3 34 27 30
3 36 37 34
3 36 34 31
3 31 34 30
3 31 32 36
3 40 39 38
3 39 35 34
3 39 34 38
3 38 34 41
3 37 43 42
3 37 42 34
3 34 42 41
3 43 44 42
3 47 46 45
3 46 40 38
3 46 38 45
3 45 38 48
3 38 41 48
3 41 49 48
3 41 42 49
3 42 50 49
3 44 52 51
3 44 51 42
3 42 51 50
3 52 53 51
3 55 47 45
3 54 55 45
3 45 48 54
3 48 56 54
3 48 49 56
3 49 57 56
3 49 50 57
3 50 58 57
3 50 51 58
3 51 59 58
3 53 60 59
3 51 53 59
3 63 62 61
3 62 55 54
3 62 54 61
3 61 54 64
3 2 56 1
3 2 64 56
3 64 54 56
3 57 1 56
3 4 1 57
3 4 65 5
3 4 57 65
3 57 58 65
3 58 59 65
3 59 66 65
3 60 67 66
3 59 60 66
3 69 63 61
3 68 69 61
3 61 64 68
3 64 70 68
3 64 7 70
3 2 7 64
3 65 10 5
3 10 71 11
3 10 65 71
3 65 66 71
3 67 73 72
3 67 72 66
3 66 72 71
3 73 74 72
3 69 68 75
3 68 70 76
3 75 68 76
3 70 7 12
3 70 12 76
3 76 12 77
3 77 12 78
3 12 13 78
3 78 13 79
3 13 14 79
3 11 71 80
3 11 80 14
3 14 80 79
3 71 72 81
3 80 71 81
3 72 74 81
3 84 83 82
3 83 86 85
3 82 83 85
3 86 87 85
3 89 84 82
3 88 89 82
3 82 85 88
3 85 90 88
3 87 92 91
3 87 91 85
3 85 91 90
3 92 93 91
3 17 95 94
3 16 17 94
3 88 94 89
3 88 19 94
3 19 16 94
3 19 96 20
3 19 88 96
3 88 90 96
3 90 91 96
3 91 97 96
3 93 99 98
3 93 98 91
3 91 98 97
3 99 100 98
3 103 102 101
3 102 104 101
3 102 17 104
3 102 95 17
3 17 21 104
3 21 23 104
3 96 25 20
3 105 96 97
3 105 26 96
3 105 106 26
3 26 25 96
3 97 98 107
3 105 97 107
3 98 100 107
3 109 103 101
3 108 109 101
3 29 104 28
3 29 108 104
3 108 101 104
3 104 23 28
3 110 106 111
3 110 32 106
3 32 26 106
3 111 113 112
3 110 111 112
3 113 114 112
3 116 109 108
3 115 116 108
3 33 108 29
3 33 117 108
3 117 115 108
3 33 35 117
3 36 118 37
3 32 118 36
3 32 110 118
3 110 119 118
3 120 121 119
3 120 119 112
3 112 119 110
3 112 114 120
3 123 116 115
3 122 123 115
3 40 117 39
3 40 122 117
3 122 115 117
3 117 35 39
3 118 43 37
3 43 124 44
3 43 118 124
3 118 119 124
3 121 126 125
3 121 125 119
3 119 125 124
3 126 127 125
3 130 129 128
3 122 46 47
3 123 122 47
3 123 47 128
3 123 128 129
3 122 40 46
3 124 52 44
3 52 131 53
3 52 124 131
3 124 125 131
3 127 132 131
3 125 127 131
3 134 130 128
3 133 134 128
3 128 55 133
3 47 55 128
3 135 53 131
3 60 53 135
3 132 136 135
3 131 132 135
3 139 138 137
3 133 62 63
3 134 133 63
3 134 63 137
3 134 137 138
3 133 55 62
3 140 60 135
3 67 60 140
3 136 141 140
3 135 136 140
3 143 139 137
3 142 143 137
3 137 69 142
3 63 69 137
3 140 73 67
3 73 144 74
3 140 144 73
3 140 145 144
3 140 141 145
3 145 146 144
3 143 142 147
3 142 69 75
3 142 75 147
3 147 75 148
3 148 75 149
3 75 76 149
3 149 76 150
3 76 77 150
3 150 77 151
3 77 78 151
3 151 78 152
3 78 79 152
3 152 79 153
3 79 80 153
3 153 80 154
3 80 81 154
3 74 144 155
3 74 155 81
3 81 155 154
3 144 146 155
3 158 157 156
3 157 160 159
3 156 157 159
3 160 162 161
3 159 160 161
3 162 163 161
3 165 158 156
3 164 165 156
3 84 159 83
3 84 164 159
3 164 156 159
3 161 83 159
3 86 83 161
3 86 166 87
3 161 166 86
3 161 167 166
3 161 163 167
3 167 168 166
3 171 170 169
3 172 173 169
3 172 169 164
3 170 165 169
3 165 164 169
3 164 174 172
3 164 84 174
3 84 89 174
3 166 92 87
3 92 175 93
3 166 175 92
3 166 176 175
3 166 168 176
3 176 177 175
3 179 171 169
3 178 179 169
3 173 180 94
3 173 94 178
3 173 178 169
3 178 94 95
3 180 89 94
3 174 89 180
3 175 99 93
3 99 181 100
3 175 181 99
3 175 182 181
3 175 177 182
3 182 183 181
3 186 185 184
3 178 102 103
3 179 178 103
3 179 103 184
3 179 184 185
3 178 95 102
3 105 187 106
3 107 187 105
3 188 187 107
3 188 189 190
3 107 189 188
3 107 181 189
3 107 100 181
3 181 183 189
3 192 186 184
3 191 192 184
3 184 109 191
3 103 109 184
3 187 111 106
3 188 111 187
3 113 111 188
3 113 188 190
3 113 190 114
3 114 190 193
3 195 192 191
3 194 195 191
3 191 116 194
3 109 116 191
3 120 196 121
3 196 120 114
3 196 114 197
3 197 114 193
3 199 195 194
3 198 199 194
3 194 123 198
3 116 123 194
3 196 126 121
3 126 196 197
3 126 197 127
3 127 197 200
3 203 202 201
3 198 129 130
3 199 198 130
3 199 130 201
3 199 201 202
3 198 123 129
3 204 200 205
3 204 132 200
3 132 127 200
3 205 206 204
3 203 201 207
3 201 208 207
3 201 130 208
3 130 134 208
3 209 132 204
3 136 132 209
3 206 210 209
3 204 206 209
3 139 212 211
3 138 139 211
3 211 134 138
3 208 134 211
3 213 136 209
3 141 136 213
3 210 214 213
3 209 210 213
3 212 139 215
3 215 139 143
3 213 145 141
3 145 213 214
3 145 214 146
3 146 214 216
3 215 143 147
3 217 215 147
3 217 147 218
3 147 148 218
3 218 148 219
3 148 149 219
3 219 149 220
3 149 150 220
3 220 150 221
3 150 151 221
3 221 151 222
3 151 152 222
3 222 152 223
3 152 153 223
3 223 153 224
3 153 154 224
3 224 154 225
3 154 155 225
3 225 155 146
3 216 225 146
3 158 227 226
3 157 158 226
3 226 228 157
3 157 228 160
3 228 229 160
3 160 229 162
3 230 163 162
3 230 162 231
3 231 162 229
3 231 232 230
3 235 234 233
3 234 165 233
3 234 227 165
3 227 158 165
3 230 167 163
3 167 236 168
3 230 236 167
3 230 237 236
3 230 232 237
3 237 238 236
3 233 170 171
3 233 171 235
3 235 171 239
3 170 233 165
3 173 172 240
3 172 174 240
3 236 176 168
3 176 236 238
3 176 238 177
3 177 238 241
3 239 171 242
3 242 171 179
3 240 180 173
3 240 174 180
3 241 182 177
3 243 182 241
3 182 243 244
3 183 182 244
3 186 246 245
3 185 186 245
3 245 179 185
3 242 179 245
3 189 247 190
3 247 189 183
3 247 183 248
3 248 183 244
3 246 186 249
3 249 186 192
3 250 190 247
3 193 190 250
3 248 251 250
3 247 248 250
3 249 192 252
3 252 192 195
3 253 193 250
3 253 254 193
3 254 197 193
3 250 251 253
3 252 195 255
3 255 195 199
3 254 256 197
3 256 200 197
3 203 258 257
3 202 203 257
3 257 199 202
3 255 199 257
3 256 205 200
3 259 205 256
3 205 259 260
3 206 205 260
3 207 261 262
3 207 262 203
3 203 262 258
3 207 208 261
3 260 263 206
3 263 210 206
3 261 211 212
3 261 212 262
3 262 212 264
3 261 208 211
3 263 265 210
3 265 214 210
3 268 267 266
3 267 215 266
3 267 264 215
3 264 212 215
3 269 265 270
3 269 216 265
3 216 214 265
3 270 271 269
3 268 266 272
3 266 215 217
3 266 217 272
3 272 217 273
3 273 217 274
3 217 218 274
3 274 218 275
3 218 219 275
3 275 219 276
3 219 220 276
3 276 220 277
3 220 221 277
3 277 221 278
3 221 222 278
3 278 222 279
3 222 223 279
3 279 223 280
3 223 224 280
3 280 224 281
3 224 225 281
3 216 269 282
3 216 282 225
3 225 282 281
3 269 271 282
3 227 284 283
3 226 227 283
3 283 285 226
3 226 285 228
3 285 286 228
3 228 286 229
3 286 287 229
3 229 287 231
3 231 287 288
3 232 231 288
3 235 290 289
3 234 235 289
3 289 227 234
3 284 227 289
3 288 237 232
3 291 237 288
3 237 291 292
3 238 237 292
3 293 294 290
3 293 290 239
3 239 290 235
3 294 293 295
3 292 296 238
3 296 241 238
3 297 293 239
3 297 239 298
3 298 239 242
3 293 297 295
3 296 243 241
3 299 243 296
3 243 299 300
3 244 243 300
3 246 302 301
3 245 246 301
3 301 242 245
3 298 242 301
3 300 303 244
3 303 248 244
3 302 246 304
3 304 246 249
3 303 305 248
3 305 251 248
3 304 249 306
3 306 249 252
3 254 307 308
3 253 307 254
3 307 253 251
3 305 307 251
3 306 252 309
3 309 252 255
3 308 310 254
3 310 256 254
3 258 312 311
3 257 258 311
3 311 255 257
3 309 255 311
3 310 259 256
3 313 259 310
3 259 313 314
3 260 259 314
3 312 258 315
3 315 258 262
3 314 316 260
3 316 263 260
3 315 262 317
3 317 262 264
3 316 318 263
3 318 265 263
3 268 320 319
3 267 268 319
3 319 264 267
3 317 264 319
3 318 270 265
3 321 270 318
3 270 321 322
3 271 270 322
3 320 268 272
3 323 320 272
3 323 272 324
3 272 273 324
3 324 273 325
3 273 274 325
3 325 274 326
3 274 275 326
3 326 275 327
3 275 276 327
3 327 276 328
3 276 277 328
3 328 277 329
3 277 278 329
3 329 278 330
3 278 279 330
3 330 279 331
3 279 280 331
3 331 280 332
3 280 281 332
3 332 281 333
3 281 282 333
3 333 282 271
3 322 333 271
3 284 335 334
3 283 284 334
3 334 336 283
3 283 336 285
3 336 337 285
3 285 337 286
3 339 338 287
3 339 287 337
3 337 287 286
3 287 338 288
3 290 341 340
3 289 290 340
3 340 284 289
3 335 284 340
3 339 342 338
3 344 343 291
3 342 344 291
3 342 291 288
3 342 288 338
3 291 343 292
3 341 290 294
3 345 341 294
3 294 346 345
3 295 346 294
3 344 347 343
3 343 347 348
3 343 348 292
3 292 348 296
3 298 350 349
3 297 298 349
3 349 295 297
3 346 295 349
3 348 299 296
3 351 299 348
3 299 351 352
3 300 299 352
3 302 354 353
3 301 302 353
3 353 298 301
3 350 298 353
3 352 355 300
3 355 303 300
3 356 357 354
3 356 354 304
3 304 354 302
3 357 356 358
3 355 359 303
3 359 305 303
3 360 356 304
3 360 304 361
3 361 304 306
3 356 360 358
3 308 362 363
3 307 362 308
3 362 307 305
3 359 362 305
3 361 306 364
3 364 306 309
3 363 365 308
3 365 310 308
3 312 367 366
3 311 312 366
3 366 309 311
3 364 309 366
3 365 313 310
3 368 313 365
3 313 368 369
3 314 313 369
3 370 371 367
3 370 367 315
3 315 367 312
3 371 370 372
3 369 373 314
3 373 316 314
3 374 370 315
3 374 315 375
3 375 315 317
3 370 374 372
3 373 376 316
3 376 318 316
3 320 378 377
3 319 320 377
3 377 317 319
3 375 317 377
3 321 380 379
3 321 318 380
3 318 376 380
3 321 379 322
3 378 320 323
3 381 378 323
3 381 323 382
3 323 324 382
3 382 324 383
3 324 325 383
3 383 325 384
3 325 326 384
3 384 326 385
3 326 327 385
3 385 327 386
3 327 328 386
3 386 328 387
3 328 329 387
3 387 329 388
3 329 330 388
3 388 330 389
3 330 331 389
3 389 331 390
3 331 332 390
3 379 380 390
3 379 390 333
3 333 390 332
3 379 333 322
3 334 335 391
3 336 334 391
3 392 336 391
3 337 336 392
3 393 337 392
3 337 393 339
3 340 341 394
3 394 396 395
3 340 394 395
3 340 395 391
3 340 391 335
3 391 397 392
3 395 397 391
3 392 398 393
3 397 398 392
3 400 399 342
3 398 400 342
3 398 342 339
3 398 339 393
3 342 399 344
3 394 341 345
3 345 396 394
3 345 346 396
3 346 401 396
3 400 402 399
3 404 403 347
3 402 404 347
3 402 347 344
3 402 344 399
3 347 403 348
3 350 406 405
3 349 350 405
3 405 346 349
3 401 346 405
3 404 407 403
3 409 408 351
3 407 409 351
3 407 351 348
3 407 348 403
3 351 408 352
3 353 354 410
3 410 350 353
3 410 411 350
3 411 406 350
3 413 408 409
3 412 408 413
3 408 412 355
3 352 408 355
3 410 354 357
3 357 358 414
3 410 357 414
3 410 414 415
3 410 415 411
3 415 414 416
3 419 417 418
3 418 417 421
3 413 420 412
3 412 420 422
3 412 422 355
3 355 422 359
3 360 361 423
3 423 425 424
3 360 423 424
3 360 424 414
3 360 414 358
3 414 424 416
3 427 417 419
3 426 417 427
3 421 362 428
3 421 426 362
3 421 417 426
3 426 363 362
3 428 362 359
3 422 428 359
3 429 423 361
3 429 361 430
3 430 361 364
3 423 429 425
3 427 431 426
3 426 431 432
3 426 432 363
3 363 432 365
3 366 367 433
3 433 364 366
3 433 434 364
3 434 430 364
3 368 436 435
3 368 365 436
3 365 432 436
3 368 435 369
3 433 367 371
3 371 434 433
3 371 372 434
3 372 437 434
3 439 435 436
3 438 435 439
3 435 438 373
3 369 435 373
3 374 375 440
3 440 372 374
3 440 441 372
3 441 437 372
3 443 438 439
3 442 438 443
3 438 442 376
3 373 438 376
3 377 378 444
3 444 446 445
3 377 444 445
3 377 445 440
3 377 440 375
3 440 445 441
3 443 447 442
3 442 447 448
3 442 448 376
3 376 448 380
3 444 378 381
3 446 444 381
3 446 381 449
3 449 381 382
3 449 382 450
3 382 383 450
3 450 383 451
3 383 384 451
3 451 384 452
3 384 385 452
3 452 385 453
3 385 386 453
3 453 386 454
3 386 387 454
3 454 387 455
3 387 388 455
3 455 388 456
3 388 389 456
3 456 389 457
3 389 390 457
3 457 390 380
3 448 457 380
3 395 396 458
3 397 395 458
3 459 397 458
3 398 397 459
3 460 398 459
3 398 460 400
3 461 458 396
3 401 461 396
3 462 461 463
3 462 459 461
3 459 458 461
3 459 464 460
3 462 464 459
3 466 465 402
3 464 466 402
3 464 402 400
3 464 400 460
3 402 465 404
3 405 406 467
3 401 405 467
3 401 467 461
3 461 467 468
3 463 469 470
3 463 461 469
3 461 468 469
3 470 469 471
3 466 472 465
3 474 473 407
3 472 474 407
3 472 407 404
3 472 404 465
3 407 473 409
3 475 467 406
3 411 475 406
3 467 475 468
3 468 475 476
3 477 476 478
3 477 469 476
3 469 468 476
3 471 469 477
3 480 481 479
3 480 479 482
3 484 473 474
3 483 473 484
3 473 483 413
3 409 473 413
3 475 411 415
3 415 416 485
3 415 485 475
3 475 485 476
3 478 486 487
3 478 476 486
3 476 485 486
3 487 479 481
3 487 486 479
3 486 488 479
3 482 489 490
3 482 479 489
3 479 488 489
3 483 419 418
3 484 419 483
3 484 489 419
3 484 490 489
3 420 413 483
3 420 483 491
3 418 421 483
3 421 491 483
3 420 491 422
3 424 425 492
3 416 424 492
3 416 492 485
3 485 492 493
3 485 493 486
3 486 493 494
3 486 494 488
3 488 494 495
3 488 495 489
3 489 495 496
3 489 496 427
3 419 489 427
3 491 421 428
3 491 428 422
3 429 430 497
3 425 429 497
3 425 497 492
3 492 497 498
3 499 498 500
3 499 493 498
3 493 492 498
3 493 501 494
3 499 501 493
3 494 502 495
3 501 502 494
3 504 495 502
3 504 503 495
3 503 496 495
3 431 427 496
3 431 496 505
3 505 496 503
3 431 505 432
3 506 497 430
3 434 506 430
3 507 506 508
3 507 498 506
3 498 497 506
3 498 507 500
3 504 509 503
3 511 503 509
3 511 510 503
3 510 505 503
3 505 510 436
3 432 505 436
3 512 506 434
3 437 512 434
3 508 512 513
3 506 512 508
3 515 510 511
3 514 510 515
3 510 514 439
3 436 510 439
3 516 512 437
3 441 516 437
3 513 516 517
3 512 516 513
3 515 518 514
3 514 518 519
3 514 519 439
3 439 519 443
3 445 446 520
3 520 522 521
3 445 520 521
3 445 521 516
3 445 516 441
3 516 521 517
3 447 524 523
3 447 443 524
3 443 519 524
3 447 523 448
3 520 446 449
3 522 520 449
3 522 449 525
3 525 449 450
3 525 450 526
3 450 451 526
3 526 451 527
3 451 452 527
3 527 452 528
3 452 453 528
3 528 453 529
3 453 454 529
3 529 454 530
3 454 455 530
3 530 455 531
3 455 456 531
3 523 524 531
3 523 531 457
3 457 531 456
3 523 457 448
3 462 463 532
3 464 462 532
3 533 464 532
3 464 533 466
3 532 463 470
3 470 471 534
3 470 534 532
3 532 534 533
3 472 466 533
3 472 533 535
3 535 533 534
3 472 535 474
3 477 478 536
3 481 480 534
3 481 534 536
3 471 477 534
3 477 536 534
3 480 482 537
3 480 537 534
3 534 537 535
3 535 537 484
3 474 535 484
3 536 478 487
3 536 487 481
3 537 482 490
3 537 490 484
3 499 500 538
3 501 499 538
3 539 501 538
3 502 501 539
3 540 502 539
3 502 540 504
3 507 508 541
3 500 507 541
3 500 541 538
3 538 541 542
3 538 542 539
3 539 542 543
3 539 543 540
3 540 543 544
3 509 504 540
3 509 540 545
3 545 540 544
3 509 545 511
3 546 541 508
3 513 546 508
3 541 546 542
3 542 546 547
3 542 547 543
3 543 547 548
3 543 548 544
3 544 548 549
3 544 549 545
3 545 549 550
3 545 550 515
3 511 545 515
3 551 546 513
3 517 551 513
3 552 551 553
3 552 547 551
3 547 546 551
3 547 554 548
3 552 554 547
3 548 555 549
3 554 555 548
3 557 549 555
3 557 556 549
3 556 550 549
3 518 515 550
3 518 550 558
3 558 550 556
3 518 558 519
3 521 522 559
3 559 561 560
3 521 559 560
3 521 560 551
3 521 551 517
3 551 560 553
3 557 562 556
3 564 556 562
3 564 563 556
3 563 558 556
3 558 563 524
3 519 558 524
3 559 522 525
3 561 559 525
3 561 525 565
3 565 525 526
3 565 526 566
3 526 527 566
3 566 527 567
3 527 528 567
3 567 528 568
3 528 529 568
3 568 529 569
3 529 530 569
3 563 564 569
3 563 569 531
3 531 569 530
3 563 531 524
3 552 553 570
3 554 552 570
3 571 554 570
3 555 554 571
3 572 555 571
3 555 572 557
3 560 561 573
3 553 560 573
3 553 573 570
3 570 573 574
3 570 574 571
3 571 574 575
3 571 575 572
3 572 575 576
3 562 557 572
3 562 572 577
3 577 572 576
3 562 577 564
3 573 561 565
3 574 573 565
3 566 574 565
3 575 574 566
3 567 575 566
3 576 575 567
3 568 576 567
3 577 576 568
3 569 577 568
3 577 569 564
