ply
format ascii 1.0
element vertex 144
property float x
property float y
property float z
property uchar red
property uchar green
property uchar blue
element face 272
property list uchar int vertex_indices
end_header
-3.00366497039794922 -7 -9 52 12 12
-3 -7.02673959732055664 -9 64 4 4
-3 -7 -9.02054309844970703 56 0 0
-3 -7 -8.99430179595947266 59 10 10
-3.01321816444396973 -7 8 65 45 45
-3 -7.09463310241699219 8 76 64 64
-3 -7 7.9812922477722168 72 47 47
-3 -7 8.0724334716796875 72 53 53
-3.14467144012451172 -6 -9 47 15 15
-3 -6 -9.45011043548583984 51 1 1
-3 -6 -8.77382659912109375 54 14 14
-3.15681219100952148 -6 8 61 36 36
-3 -6 7.77736949920654297 67 38 38
-3 -6 8.47794055938720703 66 44 44
-3.29126596450805664 -5 -9 42 17 17
-3 -5 -9.61956787109375 46 5 5
-3 -5 -8.54209423065185547 49 17 17
-3.30596256256103516 -5 8 56 28 28
-3 -5 7.56422281265258789 62 30 30
-3 -5 8.63824653625488281 61 37 37
-3.44365572929382324 -4 -9 37 17 17
-3 -4 -9.71017551422119141 41 7 7
-3 -4 -8.29860877990722656 43 18 18
-3.46089267730712891 -4 8 50 22 22
-3 -4 7.34140157699584961 57 24 24
-3 -4 8.72404193878173828 55 30 30
-3.60206270217895508 -3 -9 31 17 17
-3 -3 -9.7665252685546875 36 8 8
-3 -3 -8.04284477233886719 38 18 18
-3.62184429168701172 -3 8 45 17 17
-3 -3 7.10842227935791016 51 19 19
-3 -3 8.77742958068847656 49 25 25
-3.51329374313354492 -2 -9 30 17 17
-3 -2 -9.74564838409423828 31 9 9
-3 -2 -8.26419162750244141 36 18 18
-3.48313069343566895 -2 8 44 16 16
-3 -2 7.23164272308349609 50 16 16
-3 -2 8.7283477783203125 49 23 23
-3.34673237800598145 -1 -9 30 18 18
-3 -1 -9.66751575469970703 31 10 10
-3 -1 -8.50528144836425781 36 19 19
-3.30458426475524902 -1 8 44 15 15
-3 -1 7.51756477355957031 50 16 16
-3 -1 8.63165378570556641 49 22 22
-3.18670868873596191 0 -9 30 18 18
-3 0 -9.52276229858398438 31 10 10
-3 0 -8.73482513427734375 36 20 20
-3.13304877281188965 0 8 44 14 14
-3 0 7.79012250900268555 50 15 15
-3 0 8.43165779113769531 49 22 22
-3.03293991088867188 1 -9 29 18 18
-3 1 -9.16366958618164062 31 10 10
-3 1 -8.95342731475830078 36 19 19
-3 0.805172264575958252 8 49 22 22
-3 1.22082936763763428 -9 36 19 19
-2.99597883224487305 -7 -9 59 10 10
-2.98424339294433594 -7 8 72 53 53
-2.84171915054321289 -6 -9 54 14 14
-2.81364655494689941 -6 8 66 44 44
-2.68222260475158691 -5 -9 49 17 17
-2.63752961158752441 -5 8 61 37 37
-2.51728677749633789 -4 -9 43 18 18
-2.45569896697998047 -4 8 55 30 30
-2.34669065475463867 -3 -9 38 18 18
-2.26794338226318359 -3 8 49 25 25
-2.36967229843139648 -2 -9 36 18 18
-2.45349693298339844 -2 8 49 23 23
-2.57312130928039551 -1 -9 36 19 19
-2.65435194969177246 -1 8 49 22 22
-2.7695612907409668 0 -9 36 20 20
-2.84852433204650879 0 8 49 22 22
-2.95924663543701172 1 -9 36 19 19
1.98287928104400635 -6 8 62 31 31
2 -6.09845209121704102 8 69 42 42
2 -6 7.97698450088500977 66 27 27
2 -6 8.07149600982666016 64 34 34
1.80331659317016602 -5 8 56 24 24
2 -5 7.73540544509887695 61 20 20
2 -5 8.46610927581787109 60 26 26
1.91706860065460205 -4 -9 39 21 21
2 -4.43758964538574219 -9 51 23 23
2 -4 -9.2640533447265625 50 13 13
2 -4 -8.88162994384765625 47 24 24
1.61584997177124023 -4 8 51 19 19
2 -4 7.48285436630249023 56 14 14
2 -4 8.62718391418457031 55 20 20
1.72139978408813477 -3 -9 34 21 21
2 -3 -9.54394340515136719 47 15 15
2 -3 -8.60231590270996094 42 24 24
1.42021775245666504 -3 8 45 14 14
2 -3 7.21897268295288086 50 10 10
2 -3 8.71461200714111328 50 15 15
1.51829516887664795 -2 -9 29 19 19
2 -2 -9.67103195190429688 43 16 16
2 -2 -8.31238937377929688 38 23 23
1.33010196685791016 -2 8 41 11 11
2 -2 7.12158727645874023 46 7 7
2 -2 8.76944732666015625 45 11 11
1.31324303150177002 -1 -9 24 16 16
2 -1 -9.74353981018066406 38 16 16
2 -1 -8.09210681915283203 34 22 22
1.48045098781585693 -1 8 41 10 10
2 -1 7.33398866653442383 47 6 6
2 -1 8.73894786834716797 44 9 9
1.40963280200958252 0 -9 24 17 17
2 0 -9.76459789276123047 33 14 14
2 0 -8.27194690704345703 31 21 21
1.64751851558685303 0 8 41 10 10
2 0 7.54833555221557617 46 5 5
2 0 8.66070842742919922 44 9 9
1.57006752490997314 1 -9 25 17 17
2 1 -9.70520591735839844 30 13 13
2 1 -8.46978855133056641 32 22 22
1.80782234668731689 1 8 41 9 9
2 1 7.75384140014648438 46 5 5
2 1 8.51827907562255859 44 8 8
1.72479867935180664 2 -9 25 17 17
2 2 -9.60749340057373047 29 12 12
2 2 -8.66059207916259766 32 22 22
1.96168482303619385 2 8 41 9 9
2 2 7.95094013214111328 46 5 5
2 2 8.17846775054931641 43 9 9
1.8740699291229248 3 -9 25 17 17
2 3 -9.41706180572509766 28 11 11
2 3 -8.84467601776123047 32 21 21
2 2.25706839561462402 8 43 9 9
2 3.87324285507202148 -9 32 21 21
2.01170492172241211 -6 8 64 34 34
2.13392376899719238 -5 8 60 26 26
2.05497932434082031 -4 -9 47 24 24
2.26056647300720215 -4 8 55 20 20
2.18494153022766113 -3 -9 42 24 24
2.39182901382446289 -3 8 50 15 15
2.32023739814758301 -2 -9 38 23 23
2.5279231071472168 -2 8 45 11 11
2.46110033988952637 -1 -9 34 22 22
2.57781314849853516 -1 8 44 9 9
2.57173681259155273 0 -9 31 21 21
2.39794230461120605 0 8 44 9 9
2.48236274719238281 1 -9 32 22 22
2.21743679046630859 1 8 44 8 8
2.30799388885498047 2 -9 32 22 22
2.04343628883361816 2 8 43 9 9
2.14056992530822754 3 -9 32 21 21
3 2 1 0
3 1 3 0
3 6 5 4
3 5 7 4
3 9 2 0
3 8 9 0
3 3 10 8
3 0 3 8
3 12 6 4
3 11 12 4
3 7 13 11
3 4 7 11
3 15 9 8
3 14 15 8
3 10 16 14
3 8 10 14
3 18 12 11
3 17 18 11
3 13 19 17
3 11 13 17
3 21 15 14
3 20 21 14
3 16 22 20
3 14 16 20
3 24 18 17
3 23 24 17
3 19 25 23
3 17 19 23
3 27 21 20
3 26 27 20
3 22 28 26
3 20 22 26
3 30 24 23
3 29 30 23
3 25 31 29
3 23 25 29
3 33 27 26
3 32 33 26
3 28 34 32
3 26 28 32
3 36 30 29
3 35 36 29
3 31 37 35
3 29 31 35
3 39 33 32
3 38 39 32
3 34 40 38
3 32 34 38
3 42 36 35
3 41 42 35
3 37 43 41
3 35 37 41
3 45 39 38
3 44 45 38
3 40 46 44
3 38 40 44
3 48 42 41
3 47 48 41
3 43 49 47
3 41 43 47
3 51 45 44
3 50 51 44
3 46 52 50
3 44 46 50
3 48 47 53
3 47 49 53
3 51 50 54
3 50 52 54
3 1 2 55
3 1 55 3
3 5 6 56
3 5 56 7
3 57 55 2
3 9 57 2
3 55 57 10
3 3 55 10
3 58 56 6
3 12 58 6
3 56 58 13
3 7 56 13
3 59 57 9
3 15 59 9
3 57 59 16
3 10 57 16
3 60 58 12
3 18 60 12
3 58 60 19
3 13 58 19
3 61 59 15
3 21 61 15
3 59 61 22
3 16 59 22
3 62 60 18
3 24 62 18
3 60 62 25
3 19 60 25
3 63 61 21
3 27 63 21
3 61 63 28
3 22 61 28
3 64 62 24
3 30 64 24
3 62 64 31
3 25 62 31
3 65 63 27
3 33 65 27
3 63 65 34
3 28 63 34
3 66 64 30
3 36 66 30
3 64 66 37
3 31 64 37
3 67 65 33
3 39 67 33
3 65 67 40
3 34 65 40
3 68 66 36
3 42 68 36
3 66 68 43
3 37 66 43
3 69 67 39
3 45 69 39
3 67 69 46
3 40 67 46
3 70 68 42
3 48 70 42
3 68 70 49
3 43 68 49
3 71 69 45
3 51 71 45
3 69 71 52
3 46 69 52
3 70 48 53
3 70 53 49
3 71 51 54
3 71 54 52
3 74 73 72
3 73 75 72
3 77 74 72
3 76 77 72
3 75 78 76
3 72 75 76
3 81 80 79
3 80 82 79
3 84 77 76
3 83 84 76
3 78 85 83
3 76 78 83
3 87 81 79
3 86 87 79
3 82 88 86
3 79 82 86
3 90 84 83
3 89 90 83
3 85 91 89
3 83 85 89
3 93 87 86
3 92 93 86
3 88 94 92
3 86 88 92
3 96 90 89
3 95 96 89
3 91 97 95
3 89 91 95
3 99 93 92
3 98 99 92
3 94 100 98
3 92 94 98
3 102 96 95
3 101 102 95
3 97 103 101
3 95 97 101
3 105 99 98
3 104 105 98
3 100 106 104
3 98 100 104
3 108 102 101
3 107 108 101
3 103 109 107
3 101 103 107
3 111 105 104
3 110 111 104
3 106 112 110
3 104 106 110
3 114 108 107
3 113 114 107
3 109 115 113
3 107 109 113
3 117 111 110
3 116 117 110
3 112 118 116
3 110 112 116
3 120 114 113
3 119 120 113
3 115 121 119
3 113 115 119
3 123 117 116
3 122 123 116
3 118 124 122
3 116 118 122
3 120 119 125
3 119 121 125
3 123 122 126
3 122 124 126
3 73 74 127
3 73 127 75
3 128 127 74
3 77 128 74
3 127 128 78
3 75 127 78
3 80 81 129
3 80 129 82
3 130 128 77
3 84 130 77
3 128 130 85
3 78 128 85
3 131 129 81
3 87 131 81
3 129 131 88
3 82 129 88
3 132 130 84
3 90 132 84
3 130 132 91
3 85 130 91
3 133 131 87
3 93 133 87
3 131 133 94
3 88 131 94
3 134 132 90
3 96 134 90
3 132 134 97
3 91 132 97
3 135 133 93
3 99 135 93
3 133 135 100
3 94 133 100
3 136 134 96
3 102 136 96
3 134 136 103
3 97 134 103
3 137 135 99
3 105 137 99
3 135 137 106
3 100 135 106
3 138 136 102
3 108 138 102
3 136 138 109
3 103 136 109
3 139 137 105
3 111 139 105
3 137 139 112
3 106 137 112
3 140 138 108
3 114 140 108
3 138 140 115
3 109 138 115
3 141 139 111
3 117 141 111
3 139 141 118
3 112 139 118
3 142 140 114
3 120 142 114
3 140 142 121
3 115 140 121
3 143 141 117
3 123 143 117
3 141 143 124
3 118 141 124
3 142 120 125
3 142 125 121
3 143 123 126
3 143 126 124
