ply
format ascii 1.0
element vertex 510
property float x
property float y
property float z
property uchar red
property uchar green
property uchar blue
element face 1016
property list uchar int vertex_indices
end_header
-7.00531005859375 6 -2 160 116 103
-7 5.99307155609130859 -2 11 6 5
-7 6 -2.02062630653381348 141 95 75
-7.0506892204284668 6 -1 142 96 87
-7 5.94963741302490234 -1 39 24 22
-7.03690052032470703 6 0 133 86 81
-7 5.96333408355712891 0 48 31 29
-7 6 0.489934206008911133 67 35 29
-7 6.00621271133422852 -2 102 60 45
-7 6.06231403350830078 -1 76 41 32
-7 6.04524040222167969 0 67 35 29
-6.10383224487304688 6 -4 186 146 127
-6 5.910003662109375 -4 13 8 6
-6 6 -4.17894220352172852 196 154 132
-6 6 -3.57933497428894043 129 84 60
-6.99038171768188477 6 -2 102 60 45
-6.9394221305847168 6 -1 76 41 32
-6.95600557327270508 6 0 67 35 29
-6 6.11233329772949219 -4 129 84 60
-6.15004777908325195 7 -2 195 154 141
-6 6.78477573394775391 -2 23 11 9
-6 7 -2.48723435401916504 190 146 128
-6.23600959777832031 7 -1 177 134 124
-6 6.76937723159790039 -1 3 1 1
-6.22499418258666992 7 0 168 123 118
-6 6.78006267547607422 0 12 6 5
-6.11418485641479492 7 1 166 119 119
-6 6.83844470977783203 1 1 0 0
-6 7 1.32746577262878418 128 81 77
-6 7.15053939819335938 -2 154 106 89
-6 7.22932338714599609 -1 130 83 70
-6 7.21871709823608398 0 121 75 67
-6 7.11454200744628906 1 128 81 77
-5.19687747955322266 6 -5 196 154 132
-5 5.90949058532714844 -5 21 14 11
-5 6 -5.20274543762207031 223 181 162
-5.8538966178894043 6 -4 129 84 60
-5 6 -4.83860588073730469 139 93 66
-5 6.16027641296386719 -5 139 93 66
-5.19834280014038086 7 -4 231 167 139
-5 6.74933242797851562 -4 59 33 23
-5 7 -4.249114990234375 249 167 131
-5.64391040802001953 7 -3 190 146 128
-5 6.77697658538818359 -3 4 2 2
-5 6.89616823196411133 -2 48 38 36
-5.21651601791381836 7 -1 130 83 70
-5 7 -1.3339308500289917 91 51 37
-5.26266717910766602 7 0 121 75 67
-5 6.92608404159545898 1 67 55 54
-5 7 0.469732999801635742 59 30 25
-5.50675630569458008 7 2 146 100 100
-5 6.81106472015380859 2 37 25 25
-5.10103940963745117 7 3 169 131 124
-5 6.87471103668212891 3 11 6 6
-5 7 3.12029671669006348 140 99 97
-5 7.17365407943725586 -4 191 145 122
-5 7.38618993759155273 -3 134 87 64
-5 7.62660837173461914 -2 91 51 37
-5.1140141487121582 8 -1 231 146 129
-5 7.38987350463867188 -1 66 33 26
-5 8 -1.56833899021148682 227 153 128
-5.09931278228759766 8 0 222 137 128
-5 7.4749140739440918 0 59 30 25
-5 7.42427206039428711 1 71 39 35
-5 8 0.419202446937561035 200 142 131
-5 7.3131709098815918 2 99 58 57
-5 7.08958911895751953 3 140 99 97
-5 8.92547702789306641 -1 208 147 131
-5 8.91516590118408203 0 200 142 131
-4.22625637054443359 6 -6 223 181 162
-4 5.88463878631591797 -6 56 37 28
-4 6 -6.13542842864990234 255 176 145
-4.83490085601806641 6 -5 139 93 66
-4 6 -5.81474113464355469 174 125 99
-4 6.14488935470581055 -6 174 125 99
-4.26148414611816406 7 -5 249 167 131
-4 6.73162031173706055 -5 75 45 31
-4 7 -5.21466970443725586 255 156 116
-4 6.8067474365234375 -4 7 5 4
-4.47777175903320312 7 -3 134 87 64
-4 7 -3.51012802124023438 132 86 60
-4.85076713562011719 7 -2 91 51 37
-4.89556646347045898 7 1 71 39 35
-4.58425569534301758 7 2 99 58 57
-4 6.85961771011352539 3 40 24 24
-4 7 2.65562534332275391 46 24 23
-4.10453605651855469 7 4 181 133 121
-4 6.89297294616699219 4 30 18 16
-4 7 4.08553934097290039 159 131 128
-4 7.18499612808227539 -5 208 163 141
-4 7.50368165969848633 -4 132 86 60
-4.36732387542724609 8 -3 255 160 124
-4 7.49784612655639648 -3 69 37 26
-4 8 -3.51595926284790039 255 158 116
-4.83547019958496094 8 -2 227 153 128
-4 7.65326452255249023 -2 25 13 11
-4 7.6902618408203125 -1 0 0 0
-4 7.69380617141723633 0 3 2 1
-4.75618171691894531 8 1 205 136 130
-4 7.67079591751098633 1 11 6 6
-4.28943824768066406 8 2 218 127 126
-4 7.61136293411254883 2 46 24 23
-4 7.33425998687744141 3 97 66 64
-4 8 2.37797188758850098 193 139 136
-4 7.07684516906738281 4 159 131 128
-4 8.97078418731689453 -3 218 159 132
-4 8.97954845428466797 -2 181 144 128
-4 8.98003101348876953 -1 159 121 109
-4 8.97990322113037109 0 154 121 114
-4 8.97888278961181641 1 167 141 138
-4 8.96411514282226562 2 193 139 136
-3.13445544242858887 5 -1 190 180 175
-3 4.86394119262695312 -1 196 191 189
-3 5 -1.73895370960235596 202 189 180
-3.0846865177154541 5 0 193 191 190
-3 4.91430854797363281 0 197 195 194
-3 5 0.296615809202194214 209 205 204
-3.40368843078613281 6 -6 174 125 99
-3 5.07347488403320312 -1 207 203 201
-3 5.04645347595214844 0 209 205 204
-3 6.76442527770996094 -5 12 9 7
-3 7 -5.72831201553344727 243 169 137
-3.49521970748901367 7 -4 132 86 60
-3 7 -4.44852638244628906 153 106 79
-3.66506099700927734 7 3 97 66 64
-3 6.82582283020019531 4 10 4 4
-3 7 3.61575651168823242 53 21 20
-3 7 4.4415898323059082 127 101 99
-3 7.41592121124267578 -5 153 106 79
-3.52472519874572754 8 -4 255 158 116
-3 7.47417879104614258 -4 69 41 28
-3 8 -4.39107608795166016 255 154 111
-3 7.68349647521972656 -3 4 2 2
-3 7.72375822067260742 -2 39 35 33
-3 7.7584228515625 -1 61 58 58
-3 7.76378250122070312 0 62 54 52
-3 7.73431777954101562 1 44 29 27
-3 7.70121574401855469 2 5 2 2
-3.36596202850341797 8 3 225 134 129
-3 7.63332986831665039 3 53 21 20
-3 7.28418302536010742 4 127 101 99
-3 8 3.26918506622314453 200 142 141
-3 8.97176361083984375 -4 219 166 138
-3 8.98022842407226562 -3 163 123 101
-3 8.97940731048583984 -2 122 83 64
-3 8.97582817077636719 -1 99 61 46
-3 8.97526264190673828 0 98 55 43
-3 8.97868728637695312 1 116 66 56
-3 8.97958660125732422 2 152 105 101
-3 8.96229362487792969 3 200 142 141
-2.00523138046264648 5 -3 189 165 152
-2 4.99275112152099609 -3 220 214 209
-2 5 -3.00324225425720215 198 178 165
-2.87161660194396973 5 -2 202 189 180
-2 4.76818466186523438 -2 212 211 210
-2 4.81316661834716797 -1 206 206 206
-2 4.84030342102050781 0 205 200 196
-2.47025465965270996 5 1 206 204 203
-2 4.87279748916625977 1 209 187 175
-2 5 1.41452229022979736 228 219 214
-2.27962946891784668 6 -7 231 181 160
-2 5.90453767776489258 -7 73 51 40
-2 6 -7.07227706909179688 255 161 135
-2 6 -6.86860132217407227 190 144 124
-2 5.0017704963684082 -3 223 216 211
-2 5.24654912948608398 -2 231 227 224
-2 5.43056869506835938 -1 232 221 213
-2 5.3661656379699707 0 231 220 213
-2 5.13512516021728516 1 228 219 214
-2 6.08499860763549805 -7 190 144 124
-2.63600802421569824 7 -6 243 169 137
-2 6.71371936798095703 -6 65 44 32
-2 7 -6.1976323127746582 255 157 124
-2 6.86823129653930664 -5 43 38 36
-2 7 -4.80978250503540039 98 66 44
-2 6.9580535888671875 4 47 22 21
-2 7 3.9409339427947998 8 2 2
-2.18367791175842285 7 5 203 138 122
-2 6.91114091873168945 5 53 25 20
-2 7 5.06335783004760742 185 149 145
-2 7.19631242752075195 -6 200 157 136
-2 7.83981895446777344 -5 98 66 44
-2 7.64182090759277344 -4 9 6 6
-2 8 -4.92568397521972656 238 176 146
-2 7.720489501953125 -3 57 54 53
-2 7.82270574569702148 -2 100 91 85
-2 7.99431037902832031 -1 119 104 97
-2.02667069435119629 8 0 98 55 43
-2 8 -0.613687098026275635 39 19 13
-2 7.84887123107910156 1 97 76 71
-2 8 0.0458834618330001831 39 17 11
-2 7.73808193206787109 2 56 32 29
-2 7.68275690078735352 3 8 2 2
-2 7.22989130020141602 4 91 40 36
-2 8 3.68843650817871094 164 99 95
-2 7.06405401229858398 5 185 149 145
-2 8.97988128662109375 -4 168 130 105
-2 8.97960186004638672 -3 105 73 51
-2 8.96387577056884766 -2 61 36 24
-2 8.40477943420410156 -1 39 19 13
-2 8.9573822021484375 1 62 26 17
-2 8.97839927673339844 2 105 44 35
-2 8.97831916809082031 3 164 99 95
-1 4.76138734817504883 -3 255 249 243
-1 5 -3.24956607818603516 245 228 216
-1 4.78568124771118164 -2 250 237 221
-1 4.85234403610229492 -1 243 232 220
-1 4.87550735473632812 0 240 225 210
-1 4.8671116828918457 1 243 239 235
-1 5 1.94593572616577148 255 246 240
-1 5.87195968627929688 -7 32 26 23
-1 6 -7.13016080856323242 255 180 161
-1 6 -6.8457341194152832 152 107 86
-1 5.12782096862792969 -3 255 231 211
-1 5.49652862548828125 -2 255 239 225
-1.13426697254180908 6 -1 211 210 210
-1 6 -1.15033352375030518 253 245 239
-1.03472065925598145 6 0 210 207 205
-1 5.30321407318115234 1 255 246 240
-1 6 0.0314654037356376648 255 245 238
-1 6.16134500503540039 -7 152 107 86
-1 6.71725940704345703 -6 18 15 13
-1 7 -6.29366827011108398 255 188 164
-1.03038513660430908 7 -5 98 66 44
-1 7 -5.01805448532104492 157 115 92
-1 6.02125215530395508 -1 255 250 245
-1 6.00556087493896484 0 255 245 238
-1.73603296279907227 7 4 91 40 36
-1 6.83507966995239258 5 26 8 7
-1 7 4.45420217514038086 57 15 14
-1 7 5.16673946380615234 162 122 120
-1 7.28101158142089844 -6 157 115 92
-1.8279268741607666 8 -5 238 176 146
-1 7.03302001953125 -5 46 35 26
-1 8 -5.17385959625244141 255 185 156
-1 7.68022775650024414 -4 47 42 40
-1 7.7480463981628418 -3 117 101 90
-1 7.97961235046386719 -2 160 143 130
-1.97761499881744385 8 -1 39 19 13
-1 8 -1.92369139194488525 0 0 0
-1.11173343658447266 8 1 62 26 17
-1 7.77483415603637695 2 106 65 56
-1 8 1.07015931606292725 6 2 1
-1 7.7050166130065918 3 35 17 14
-1.16988718509674072 8 4 229 141 138
-1 7.80265235900878906 4 57 15 14
-1 7.16407203674316406 5 162 122 120
-1 8 4.03860902786254883 201 97 93
-1 8.94952964782714844 -5 194 162 143
-1 8.98029994964599609 -4 115 82 56
-1 8.97683238983154297 -3 46 34 23
-1 8.71044349670410156 -2 0 0 0
-1 8.97399234771728516 2 56 22 12
-1 8.979400634765625 3 124 46 38
-1 8.80692672729492188 4 201 97 93
0 4.76055812835693359 -3 255 217 180
0 5 -3.25043416023254395 255 202 163
0 4.78523826599121094 -2 255 236 214
0 4.85196542739868164 -1 255 251 246
0 4.87512588500976562 0 255 246 235
0 4.86666297912597656 1 255 251 247
0 5 1.94925463199615479 255 232 211
0 5.87176322937011719 -7 0 0 0
0 6 -7.13036108016967773 247 204 193
0 6 -6.84549093246459961 121 81 63
0 5.12825679779052734 -3 255 208 165
0 5.49759769439697266 -2 255 218 178
0 6 -1.15216660499572754 255 218 182
0 5.30426168441772461 1 255 232 211
0 6 0.0329429209232330322 255 230 206
0 6.16160106658935547 -7 121 81 63
0 6.71709680557250977 -6 21 18 17
0 7 -6.29384040832519531 228 195 182
0 7 -5.01724576950073242 119 84 63
0 6.02150678634643555 -1 255 222 188
0 6.00582075119018555 0 255 230 206
0 6.83488750457763672 5 0 0 0
0 7 4.4534602165222168 21 7 5
0 7 5.16693401336669922 137 57 55
0 7.2811732292175293 -6 119 84 63
0 7.03153753280639648 -5 1 1 1
0 8 -5.17408847808837891 226 202 190
0 7.68017721176147461 -4 94 75 64
0 7.74796533584594727 -3 163 139 123
0 7.97937774658203125 -2 204 193 184
0 8 -1.92279994487762451 44 36 30
0 7.77473878860473633 2 152 89 66
0 8 1.06945443153381348 38 25 19
0 7.70495080947875977 3 79 49 42
0 7.80129814147949219 4 21 7 5
0 7.16426324844360352 5 137 57 55
0 8 4.03886699676513672 167 70 64
0 8.94959354400634766 -5 150 109 82
0 8.9803009033203125 -4 68 50 35
0 8.97684001922607422 -3 0 0 0
0 8.71281242370605469 -2 44 36 30
0 8.97400379180908203 2 11 5 3
0 8.97940444946289062 3 83 28 16
0 8.80797386169433594 4 167 70 64
1 4.9882049560546875 -3 255 208 164
1 5 -3.00527477264404297 255 193 150
1 4.76646041870117188 -2 255 226 193
1 4.81182575225830078 -1 255 240 221
1 4.83895730972290039 0 255 243 226
1 4.87106609344482422 1 255 229 199
1 5 1.42027199268341064 255 217 178
1 5.90370845794677734 -7 22 17 14
1 6 -7.0728912353515625 222 154 139
1 6 -6.86743879318237305 98 60 46
1 5.00287961959838867 -3 255 208 166
1 5.24838781356811523 -2 255 220 183
0.136379078030586243 6 -1 255 222 188
1 5.43376970291137695 -1 255 228 195
0.036478094756603241 6 0 255 230 206
1 5.36934471130371094 0 255 228 197
1 5.13696718215942383 1 255 217 178
1 6.08573102951049805 -7 98 60 46
1 6.71286344528198242 -6 41 27 19
1 7 -6.19817447662353516 197 137 112
0.0289537552744150162 7 -5 1 1 1
1 6.8677973747253418 -5 157 114 94
1 7 -4.80909919738769531 14 11 9
0.733008980751037598 7 4 21 7 5
1 6.95749330520629883 4 138 66 57
1 7 3.94012880325317383 90 52 38
1 6.91020107269287109 5 18 10 9
1 7 5.06401443481445312 115 32 31
1 7.19684934616088867 -6 95 66 49
0.831356644630432129 8 -5 150 109 82
1 7.84335660934448242 -5 14 11 9
1 7.64154672622680664 -4 105 79 61
1 8 -4.92727088928222656 126 87 60
1 7.72033452987670898 -3 170 148 132
1 7.82229042053222656 -2 210 204 200
0.974805295467376709 8 -1 66 46 34
1 7.99358654022216797 -1 227 226 225
1 8 -0.564212501049041748 69 46 29
0.110391773283481598 8 1 38 25 19
1 7.84842300415039062 1 203 157 125
1 8 0.0421945974230766296 66 42 27
1 7.73788881301879883 2 159 94 63
1 7.68245029449462891 3 90 52 38
0.171482503414154053 8 4 167 70 64
1 7.2331385612487793 4 4 2 1
1 8 3.68956637382507324 69 28 14
1 7.06471824645996094 5 115 32 31
1 8.97988796234130859 -4 54 40 29
1 8.97961044311523438 -3 8 7 6
1 8.96396350860595703 -2 49 38 28
1 8.43400955200195312 -1 69 46 29
1 8.95751190185546875 1 41 28 20
1 8.97841358184814453 2 4 2 1
1 8.97833442687988281 3 69 28 14
1.00853252410888672 5 -3 255 208 166
1.88247406482696533 5 -2 255 220 183
2 4.85973548889160156 -1 255 237 216
2 5 -1.76208710670471191 255 228 203
2 4.91010284423828125 0 255 227 192
1.4790043830871582 5 1 255 217 178
2 5 0.311273574829101562 255 218 178
1.28271603584289551 6 -7 98 60 46
2 5.07572126388549805 -1 255 227 198
2 5.04871797561645508 0 255 218 178
1.63917505741119385 7 -6 95 66 49
2 6.76392602920532227 -5 138 79 54
2 7 -5.73090410232543945 102 66 49
2 7 -4.44672679901123047 5 4 3
2 6.82517719268798828 4 114 59 47
2 7 3.61396479606628418 61 36 25
1.185951828956604 7 5 115 32 31
2 7 4.44370460510253906 27 14 10
2 7.4171442985534668 -5 5 4 3
2 7.47222518920898438 -4 82 54 31
2 8 -4.39240837097167969 129 84 56
2 7.6832275390625 -3 144 103 76
2 7.72348403930664062 -2 184 144 115
2 7.75798320770263672 -1 201 163 133
1.02451431751251221 8 0 66 42 27
2 7.76332855224609375 0 198 150 112
2 7.73400497436523438 1 174 113 71
2 7.70089292526245117 2 129 72 39
2 7.63146352767944336 3 61 36 25
2 7.28542375564575195 4 27 14 10
2 8 3.27047634124755859 89 38 20
2 8.97183990478515625 -4 69 47 31
2 8.98023509979248047 -3 15 12 9
2 8.97942447662353516 -2 22 17 11
2 8.97587299346923828 -1 39 27 16
2 8.97531223297119141 0 36 24 14
2 8.97871017456054688 1 12 8 5
2 8.97960186004638672 2 31 17 9
2 8.96245670318603516 3 89 38 20
2.13887214660644531 5 -1 255 227 198
2.08900928497314453 5 0 255 218 178
2.39682483673095703 6 -6 25 14 9
3 5.88319540023803711 -6 102 43 19
3 6 -6.13716030120849609 121 53 40
3 6 -5.81229496002197266 18 11 9
3 6.14675569534301758 -6 18 11 9
3 6.72956943511962891 -5 87 38 14
3 7 -5.21623849868774414 125 71 52
2.49280905723571777 7 -4 82 54 31
3 6.80594587326049805 -4 171 119 98
3 7 -3.50729727745056152 29 20 14
2.66255688667297363 7 3 61 36 25
3 6.85863113403320312 3 145 78 55
3 7 2.65270495414733887 69 37 20
3 6.89075851440429688 4 57 34 26
3 7 4.08728218078613281 76 35 26
3 7.18629884719848633 -5 48 39 35
2.52719330787658691 8 -4 69 47 31
3 7.5066075325012207 -4 29 20 14
3 7.49511384963989258 -3 90 55 28
3 8 -3.5187833309173584 102 61 36
3 7.65259122848510742 -2 128 71 38
3 7.68985223770141602 -1 144 81 44
3 7.69338130950927734 0 140 77 39
3 7.6700901985168457 1 115 59 28
3 7.6087183952331543 2 69 37 20
2.36816024780273438 8 3 89 38 20
3 7.3370819091796875 3 3 2 1
3 8 2.38052892684936523 81 40 21
3 7.07839632034301758 4 76 35 26
3 8.97090244293212891 -3 60 38 21
3 8.97957038879394531 -2 29 19 11
3 8.98004531860351562 -1 14 10 6
3 8.97991943359375 0 19 12 7
3 8.97891330718994141 1 42 24 13
3 8.96431922912597656 2 81 40 21
3.22948813438415527 6 -6 18 11 9
3.83184671401977539 6 -5 87 38 14
4 5.90785980224609375 -5 133 52 27
4 6 -5.20669174194335938 76 45 39
4 6 -4.83551597595214844 11 5 4
3.26362109184265137 7 -5 48 39 35
4 6.16334247589111328 -5 11 5 4
4 6.74675750732421875 -4 93 45 21
4 7 -4.25167083740234375 100 64 52
3.4749753475189209 7 -3 90 55 28
4 6.77604150772094727 -3 152 89 62
3.84867310523986816 7 -2 128 71 38
4 6.89476108551025391 -2 188 126 95
4 7 -1.32314932346343994 48 27 12
3.89335417747497559 7 1 115 59 28
4 6.92455101013183594 1 172 100 60
4 7 0.457367151975631714 57 29 14
3.58147835731506348 7 2 69 37 20
4 6.80998706817626953 2 127 64 35
4 6.87197685241699219 3 60 32 21
3.1067502498626709 7 4 76 35 26
4 7 3.12291336059570312 73 40 29
4 7.17531061172485352 -4 40 29 24
3.36936759948730469 8 -3 60 38 21
4 7.38834047317504883 -3 12 8 5
3.8395543098449707 8 -2 29 19 11
4 7.63671445846557617 -2 48 27 12
4 7.37725114822387695 -1 63 33 14
4 8 -1.5800621509552002 90 49 22
4 7.4624176025390625 0 57 29 14
3.75982904434204102 8 1 42 24 13
4 7.43410158157348633 1 31 17 10
4 8 0.429113775491714478 87 45 21
3.29144930839538574 8 2 81 40 21
4 7.31533956527709961 2 13 9 7
4 7.09148645401000977 3 73 40 29
4 8.92677879333496094 -1 81 44 20
4 8.91687202453613281 0 87 45 21
4.20088386535644531 6 -5 11 5 4
4.85014104843139648 6 -4 93 45 21
5 5.90772008895874023 -4 112 45 25
5 6 -4.18373394012451172 72 53 49
5 6 -3.56766271591186523 6 4 4
4.2003779411315918 7 -4 40 29 24
5 6.11524534225463867 -4 6 4 4
4.64881515502929688 7 -3 12 8 5
5 6.78159952163696289 -2 85 39 17
5 7 -2.49505329132080078 74 42 28
4.20939064025878906 7 -1 63 33 14
5 6.7674717903137207 -1 99 42 20
4.25560617446899414 7 0 57 29 14
5 6.77812814712524414 0 92 39 20
5 6.83518552780151367 1 66 30 16
4.51120948791503906 7 2 13 9 7
5 7 1.33443355560302734 67 37 25
4.10324525833129883 7 3 73 40 29
5 7.15263175964355469 -2 47 29 19
4.11620759963989258 8 -1 81 44 20
5 7.23121261596679688 -1 36 22 15
4.10153532028198242 8 0 87 45 21
5 7.22063636779785156 0 43 26 17
5 7.11676025390625 1 67 37 25
5.1065521240234375 6 -4 6 4 4
5.98498773574829102 6 -2 85 39 17
6 5.98918390274047852 -2 78 33 16
6 6 -2.03225421905517578 65 40 33
5.93591976165771484 6 -1 99 42 20
6 5.94672870635986328 -1 92 34 19
5.95243549346923828 6 0 92 39 20
6 5.96036100387573242 0 85 33 19
6 6 0.531362533569335938 32 20 16
5.15218210220336914 7 -2 47 29 19
6 6.00969552993774414 -2 37 25 20
5.23807048797607422 7 -1 36 22 15
6 6.06595277786254883 -1 25 15 12
5.22707748413085938 7 0 43 26 17
6 6.04893779754638672 0 32 20 16
5.11643123626708984 7 1 67 37 25
6.0082850456237793 6 -2 37 25 20
6.0536346435546875 6 -1 25 15 12
6.03990554809570312 6 0 32 20 16
3 2 1 0
3 1 4 3
3 0 1 3
3 4 6 5
3 3 4 5
3 6 7 5
3 2 0 8
3 0 3 9
3 8 0 9
3 3 5 10
3 9 3 10
3 5 7 10
3 13 12 11
3 12 14 11
3 1 2 15
3 4 1 15
3 16 4 15
3 6 4 16
3 17 6 16
3 6 17 7
3 13 11 18
3 11 14 18
3 8 19 21
3 8 21 2
3 20 15 21
3 15 2 21
3 8 22 19
3 8 9 22
3 20 23 15
3 23 16 15
3 9 24 22
3 9 10 24
3 23 25 16
3 25 17 16
3 25 27 7
3 25 7 17
3 27 26 7
3 10 7 24
3 26 24 7
3 27 28 26
3 21 19 29
3 19 22 30
3 29 19 30
3 22 24 31
3 30 22 31
3 24 26 32
3 31 24 32
3 26 28 32
3 35 34 33
3 13 33 34
3 13 34 12
3 37 36 34
3 36 12 34
3 12 36 14
3 35 33 38
3 38 39 41
3 38 18 39
3 38 33 18
3 13 18 33
3 37 40 36
3 40 43 14
3 40 14 36
3 43 42 14
3 18 14 39
3 42 39 14
3 21 42 43
3 21 43 20
3 20 43 44
3 46 45 23
3 46 23 44
3 44 23 20
3 25 23 45
3 47 25 45
3 47 49 48
3 47 48 25
3 25 48 27
3 50 28 27
3 50 27 51
3 51 27 48
3 51 53 52
3 50 51 52
3 53 54 52
3 41 39 55
3 39 42 56
3 55 39 56
3 42 21 29
3 42 29 56
3 56 29 57
3 46 59 45
3 60 57 58
3 57 30 58
3 57 29 30
3 30 61 58
3 30 31 61
3 59 62 45
3 62 47 45
3 49 47 62
3 63 64 31
3 63 31 32
3 31 64 61
3 28 50 65
3 28 65 32
3 32 65 63
3 50 52 66
3 65 50 66
3 52 54 66
3 60 58 67
3 58 61 68
3 67 58 68
3 61 64 68
3 71 70 69
3 35 69 70
3 35 70 34
3 73 72 70
3 72 34 70
3 34 72 37
3 71 69 74
3 74 75 77
3 74 38 75
3 74 69 38
3 35 38 69
3 73 76 72
3 75 38 41
3 72 76 37
3 76 40 37
3 76 78 40
3 80 79 43
3 80 43 78
3 78 43 40
3 44 43 79
3 81 44 79
3 44 81 46
3 48 49 82
3 51 48 82
3 83 51 82
3 83 85 84
3 83 84 51
3 51 84 53
3 86 54 53
3 86 53 87
3 87 53 84
3 87 88 86
3 77 75 89
3 75 41 55
3 75 55 89
3 89 55 90
3 80 92 79
3 93 90 91
3 90 56 91
3 90 55 56
3 56 94 91
3 56 57 94
3 92 95 79
3 95 81 79
3 94 57 60
3 81 95 46
3 95 59 46
3 95 96 59
3 96 97 59
3 59 97 62
3 64 63 98
3 49 62 82
3 62 99 82
3 62 97 99
3 63 100 98
3 63 65 100
3 99 101 82
3 101 83 82
3 85 83 101
3 102 103 65
3 102 65 66
3 65 103 100
3 54 86 104
3 54 104 66
3 66 104 102
3 86 88 104
3 93 91 105
3 91 94 106
3 105 91 106
3 94 60 67
3 94 67 106
3 106 67 107
3 107 67 108
3 67 68 108
3 64 98 109
3 64 109 68
3 68 109 108
3 98 100 110
3 109 98 110
3 100 103 110
3 113 112 111
3 112 115 114
3 111 112 114
3 115 116 114
3 70 71 117
3 70 117 73
3 113 111 118
3 111 114 119
3 118 111 119
3 114 116 119
3 117 71 74
3 77 121 117
3 77 117 74
3 121 120 117
3 73 117 76
3 120 76 117
3 123 122 78
3 123 78 120
3 120 78 76
3 78 122 80
3 84 85 124
3 124 126 125
3 124 125 84
3 84 125 87
3 87 125 127
3 88 87 127
3 121 77 89
3 128 121 89
3 123 130 122
3 131 128 129
3 128 90 129
3 128 89 90
3 129 90 93
3 122 130 80
3 130 92 80
3 130 132 92
3 132 133 92
3 92 133 95
3 133 134 95
3 95 134 96
3 134 135 96
3 96 135 97
3 135 136 97
3 97 136 99
3 136 137 99
3 99 137 101
3 103 102 138
3 85 101 124
3 101 139 124
3 101 137 139
3 126 124 139
3 140 141 102
3 140 102 104
3 102 141 138
3 140 104 88
3 127 140 88
3 131 129 142
3 129 93 105
3 129 105 142
3 142 105 143
3 143 105 144
3 105 106 144
3 144 106 145
3 106 107 145
3 145 107 146
3 107 108 146
3 146 108 147
3 108 109 147
3 147 109 148
3 109 110 148
3 103 138 149
3 103 149 110
3 110 149 148
3 138 141 149
3 152 151 150
3 151 154 153
3 150 151 153
3 113 153 154
3 113 154 112
3 112 154 155
3 155 156 112
3 112 156 115
3 157 116 115
3 157 115 158
3 158 115 156
3 158 159 157
3 162 161 160
3 161 163 160
3 152 150 164
3 150 153 165
3 164 150 165
3 153 113 118
3 153 118 165
3 165 118 166
3 166 118 167
3 118 119 167
3 116 157 168
3 116 168 119
3 119 168 167
3 157 159 168
3 162 160 169
3 172 169 160
3 172 160 170
3 163 171 160
3 171 170 160
3 121 170 171
3 121 171 120
3 120 171 173
3 120 173 174
3 123 120 174
3 126 176 175
3 125 126 175
3 177 127 125
3 177 125 178
3 178 125 175
3 178 179 177
3 172 170 180
3 170 121 128
3 170 128 180
3 180 128 181
3 174 182 123
3 123 182 130
3 183 181 128
3 183 128 131
3 182 184 130
3 130 184 132
3 184 185 132
3 132 185 133
3 185 186 133
3 133 186 134
3 188 187 135
3 188 135 186
3 186 135 134
3 187 190 189
3 187 189 135
3 135 189 136
3 189 191 136
3 136 191 137
3 191 192 137
3 137 192 139
3 194 140 193
3 194 141 140
3 176 126 192
3 126 139 192
3 127 177 195
3 127 195 140
3 140 195 193
3 177 179 195
3 183 131 142
3 196 183 142
3 196 142 197
3 142 143 197
3 197 143 198
3 143 144 198
3 198 144 199
3 144 145 199
3 187 188 199
3 187 199 146
3 146 199 145
3 190 187 146
3 190 146 200
3 200 146 147
3 200 147 201
3 147 148 201
3 201 148 202
3 148 149 202
3 202 149 141
3 194 202 141
3 152 204 203
3 151 152 203
3 203 205 151
3 151 205 154
3 205 206 154
3 154 206 155
3 206 207 155
3 155 207 156
3 207 208 156
3 156 208 158
3 158 208 209
3 159 158 209
3 162 211 210
3 161 162 210
3 161 210 212
3 163 161 212
3 204 152 164
3 213 204 164
3 213 164 214
3 164 165 214
3 216 166 215
3 216 214 166
3 214 165 166
3 167 215 166
3 217 215 167
3 217 218 219
3 217 167 218
3 167 168 218
3 218 168 159
3 209 218 159
3 211 162 169
3 220 211 169
3 212 221 163
3 163 221 171
3 222 220 169
3 222 169 172
3 224 223 173
3 224 173 221
3 221 173 171
3 173 223 174
3 216 215 225
3 215 217 226
3 225 215 226
3 217 219 226
3 175 176 227
3 227 229 228
3 227 228 175
3 175 228 178
3 178 228 230
3 179 178 230
3 222 172 180
3 231 222 180
3 224 233 223
3 234 231 232
3 231 181 232
3 231 180 181
3 232 181 183
3 223 233 174
3 233 182 174
3 233 235 182
3 235 236 182
3 182 236 184
3 236 237 184
3 184 237 185
3 239 238 186
3 239 186 237
3 237 186 185
3 186 238 188
3 189 190 240
3 240 242 241
3 240 241 189
3 189 241 191
3 241 243 191
3 191 243 192
3 194 193 244
3 176 192 227
3 192 245 227
3 192 243 245
3 229 227 245
3 246 247 193
3 246 193 195
3 193 247 244
3 246 195 179
3 230 246 179
3 234 232 248
3 232 183 196
3 232 196 248
3 248 196 249
3 249 196 250
3 196 197 250
3 250 197 251
3 197 198 251
3 238 239 251
3 238 251 199
3 199 251 198
3 238 199 188
3 240 190 200
3 242 240 200
3 242 200 252
3 252 200 201
3 252 201 253
3 201 202 253
3 194 244 254
3 194 254 202
3 202 254 253
3 244 247 254
3 204 256 255
3 203 204 255
3 255 257 203
3 203 257 205
3 257 258 205
3 205 258 206
3 258 259 206
3 206 259 207
3 259 260 207
3 207 260 208
3 208 260 261
3 209 208 261
3 211 263 262
3 210 211 262
3 210 262 264
3 212 210 264
3 256 204 213
3 265 256 213
3 265 213 266
3 213 214 266
3 214 267 266
3 216 267 214
3 219 268 269
3 218 268 219
3 268 218 209
3 261 268 209
3 263 211 220
3 270 263 220
3 264 271 212
3 212 271 221
3 272 270 220
3 272 220 222
3 221 271 273
3 224 221 273
3 267 216 225
3 274 267 225
3 274 225 275
3 225 226 275
3 275 226 219
3 269 275 219
3 229 277 276
3 228 229 276
3 228 276 278
3 230 228 278
3 272 222 231
3 279 272 231
3 273 280 224
3 224 280 233
3 281 279 231
3 281 231 234
3 280 282 233
3 233 282 235
3 282 283 235
3 235 283 236
3 283 284 236
3 236 284 237
3 237 284 285
3 239 237 285
3 242 287 286
3 241 242 286
3 286 288 241
3 241 288 243
3 288 289 243
3 243 289 245
3 291 246 290
3 291 247 246
3 277 229 289
3 229 245 289
3 290 246 230
3 278 290 230
3 281 234 248
3 292 281 248
3 292 248 293
3 248 249 293
3 293 249 294
3 249 250 294
3 294 250 295
3 250 251 295
3 295 251 239
3 285 295 239
3 287 242 252
3 296 287 252
3 296 252 297
3 252 253 297
3 297 253 298
3 253 254 298
3 298 254 247
3 291 298 247
3 256 300 299
3 255 256 299
3 299 301 255
3 255 301 257
3 301 302 257
3 257 302 258
3 302 303 258
3 258 303 259
3 303 304 259
3 259 304 260
3 260 304 305
3 261 260 305
3 263 307 306
3 262 263 306
3 262 306 308
3 264 262 308
3 300 256 265
3 309 300 265
3 309 265 310
3 265 266 310
3 311 266 267
3 311 312 266
3 312 310 266
3 312 313 314
3 311 313 312
3 269 314 313
3 269 268 314
3 268 315 314
3 315 268 261
3 305 315 261
3 307 263 270
3 316 307 270
3 308 317 264
3 264 317 271
3 318 316 270
3 318 270 272
3 319 273 271
3 319 271 320
3 320 271 317
3 320 321 319
3 311 267 274
3 313 311 274
3 275 313 274
3 313 275 269
3 324 323 322
3 277 322 323
3 277 323 276
3 276 323 325
3 276 325 326
3 278 276 326
3 318 272 279
3 327 318 279
3 273 319 280
3 279 281 329
3 279 329 327
3 329 281 328
3 331 329 328
3 321 330 319
3 330 280 319
3 330 282 280
3 330 332 282
3 282 332 283
3 332 333 283
3 283 333 284
3 334 285 284
3 334 284 335
3 335 284 333
3 335 336 334
3 339 338 337
3 287 337 338
3 287 338 286
3 286 338 340
3 340 341 286
3 286 341 288
3 344 342 343
3 341 324 289
3 341 289 288
3 289 324 322
3 322 277 289
3 343 342 290
3 343 290 345
3 290 342 291
3 345 290 278
3 326 345 278
3 328 281 292
3 331 328 292
3 331 292 346
3 346 292 293
3 346 293 347
3 293 294 347
3 347 294 348
3 294 295 348
3 285 334 349
3 285 349 295
3 295 349 348
3 334 336 349
3 339 337 350
3 337 287 296
3 337 296 350
3 350 296 351
3 351 296 352
3 296 297 352
3 342 344 352
3 342 352 298
3 298 352 297
3 342 298 291
3 299 300 353
3 301 299 353
3 354 301 353
3 354 356 355
3 354 355 301
3 301 355 302
3 355 357 302
3 302 357 303
3 359 358 304
3 359 304 357
3 357 304 303
3 304 358 305
3 306 307 360
3 306 360 308
3 353 300 309
3 354 353 309
3 310 354 309
3 356 354 310
3 356 310 361
3 361 310 312
3 361 312 362
3 312 314 362
3 358 359 362
3 358 362 315
3 315 362 314
3 358 315 305
3 360 307 316
3 317 308 360
3 317 360 363
3 316 318 360
3 318 363 360
3 363 365 364
3 363 364 317
3 317 364 320
3 320 364 366
3 321 320 366
3 324 368 367
3 323 324 367
3 370 369 325
3 370 325 367
3 367 325 323
3 325 369 326
3 363 318 327
3 365 363 327
3 365 327 371
3 371 327 329
3 366 372 321
3 321 372 330
3 373 371 329
3 373 329 331
3 372 374 330
3 330 374 332
3 374 375 332
3 332 375 333
3 375 376 333
3 333 376 335
3 377 336 335
3 377 335 378
3 378 335 376
3 339 377 378
3 339 378 338
3 338 378 379
3 379 380 338
3 338 380 340
3 380 381 340
3 340 381 341
3 383 343 382
3 383 344 343
3 368 324 381
3 324 341 381
3 369 370 382
3 369 382 345
3 345 382 343
3 369 345 326
3 373 331 346
3 384 373 346
3 384 346 385
3 346 347 385
3 385 347 386
3 347 348 386
3 386 348 387
3 348 349 387
3 336 377 388
3 336 388 349
3 349 388 387
3 377 339 350
3 377 350 388
3 388 350 389
3 389 350 390
3 350 351 390
3 390 351 391
3 351 352 391
3 391 352 344
3 383 391 344
3 355 356 392
3 357 355 392
3 393 357 392
3 357 393 359
3 396 395 394
3 395 397 394
3 392 356 361
3 393 392 361
3 362 393 361
3 393 362 359
3 396 394 398
3 399 364 394
3 399 394 397
3 364 365 394
3 398 394 400
3 365 400 394
3 401 366 364
3 401 364 402
3 402 364 399
3 402 403 401
3 406 405 404
3 368 404 405
3 368 405 367
3 367 405 407
3 367 407 408
3 370 367 408
3 400 365 371
3 409 400 371
3 366 401 372
3 371 373 411
3 371 411 409
3 411 373 410
3 413 411 410
3 403 412 401
3 412 372 401
3 412 374 372
3 412 414 374
3 374 414 375
3 414 415 375
3 375 415 376
3 415 416 376
3 376 416 378
3 416 417 378
3 378 417 379
3 417 418 379
3 379 418 380
3 421 419 420
3 418 406 381
3 418 381 380
3 381 406 404
3 404 368 381
3 420 419 382
3 420 382 422
3 382 419 383
3 422 382 370
3 408 422 370
3 410 373 384
3 413 410 384
3 413 384 423
3 423 384 385
3 423 385 424
3 385 386 424
3 424 386 425
3 386 387 425
3 425 387 426
3 387 388 426
3 426 388 427
3 388 389 427
3 427 389 428
3 389 390 428
3 419 421 428
3 419 428 391
3 391 428 390
3 419 391 383
3 395 396 429
3 430 397 395
3 430 395 431
3 429 432 395
3 432 431 395
3 431 433 430
3 429 396 398
3 429 435 432
3 429 434 435
3 429 398 434
3 400 434 398
3 397 430 399
3 437 435 434
3 433 436 430
3 436 399 430
3 436 402 399
3 438 403 402
3 438 402 439
3 439 402 436
3 439 441 440
3 438 439 440
3 441 442 440
3 445 444 443
3 444 447 446
3 443 444 446
3 406 446 447
3 406 447 405
3 405 447 448
3 450 449 407
3 450 407 448
3 448 407 405
3 407 449 408
3 434 400 409
3 437 434 409
3 437 409 451
3 451 409 411
3 403 438 412
3 411 413 453
3 411 453 451
3 453 413 452
3 453 452 455
3 455 452 454
3 412 438 440
3 412 440 414
3 457 455 454
3 442 456 440
3 456 414 440
3 456 415 414
3 456 458 415
3 415 458 416
3 461 459 460
3 458 445 417
3 458 417 416
3 417 445 443
3 460 459 463
3 463 459 462
3 417 443 446
3 417 446 418
3 446 406 418
3 463 462 420
3 463 420 464
3 420 462 421
3 449 450 464
3 449 464 422
3 422 464 420
3 449 422 408
3 452 413 423
3 454 452 423
3 424 454 423
3 457 454 424
3 457 424 465
3 465 424 425
3 465 425 466
3 425 426 466
3 459 461 466
3 459 466 427
3 427 466 426
3 462 459 427
3 428 462 427
3 462 428 421
3 431 432 467
3 468 433 431
3 468 431 469
3 467 470 431
3 470 469 431
3 469 471 468
3 467 432 435
3 467 473 470
3 467 472 473
3 467 435 472
3 437 472 435
3 433 468 436
3 472 474 471
3 472 471 473
3 474 439 471
3 468 471 436
3 439 436 471
3 474 476 475
3 474 475 439
3 439 475 441
3 477 442 441
3 477 441 478
3 478 441 475
3 478 480 479
3 477 478 479
3 445 479 480
3 445 480 444
3 444 480 481
3 483 482 447
3 483 447 481
3 481 447 444
3 448 447 482
3 484 448 482
3 448 484 450
3 472 437 451
3 474 472 451
3 453 474 451
3 476 474 453
3 476 453 485
3 485 453 455
3 442 477 456
3 455 457 487
3 455 487 485
3 487 457 486
3 487 486 489
3 489 486 488
3 456 477 479
3 456 479 458
3 479 445 458
3 489 488 460
3 489 460 490
3 460 488 461
3 482 483 490
3 482 490 463
3 463 490 460
3 484 482 463
3 464 484 463
3 484 464 450
3 486 457 465
3 488 486 465
3 466 488 465
3 488 466 461
3 469 470 491
3 469 491 471
3 494 493 492
3 493 496 495
3 492 493 495
3 496 498 497
3 495 496 497
3 498 499 497
3 491 470 473
3 491 473 471
3 500 501 494
3 500 494 476
3 492 475 494
3 475 476 494
3 501 500 503
3 503 500 502
3 475 492 495
3 475 495 478
3 503 502 505
3 505 502 504
3 478 495 497
3 478 497 480
3 504 506 499
3 504 499 505
3 506 481 499
3 497 499 480
3 481 480 499
3 481 506 483
3 500 476 485
3 502 500 485
3 487 502 485
3 504 502 487
3 489 504 487
3 506 504 489
3 490 506 489
3 506 490 483
3 493 494 507
3 496 493 507
3 508 496 507
3 498 496 508
3 509 498 508
3 498 509 499
3 507 494 501
3 508 507 501
3 503 508 501
3 509 508 503
3 505 509 503
3 509 505 499
