ply
format ascii 1.0
element vertex 712
property float x
property float y
property float z
property uchar red
property uchar green
property uchar blue
element face 1408
property list uchar int vertex_indices
end_header
-6.27859401702880859 -9 -9 7 0 0
-6 -9.68842506408691406 -9 8 0 0
-6 -9 -9.68842506408691406 8 1 1
-6 -9 -8.45899581909179688 8 1 1
-6.27859401702880859 -9 8 1 0 0
-6 -9.68842506408691406 8 1 1 1
-6 -9 7.45899534225463867 0 0 0
-6 -9 8.68842506408691406 1 0 0
-6.17180490493774414 -8 -9 8 0 0
-6 -8 -9.60211372375488281 8 0 0
-6 -8 -8.63296604156494141 8 1 1
-6.17180490493774414 -8 8 1 0 0
-6 -8 7.6329655647277832 0 0 0
-6 -8 8.60211372375488281 0 0 0
-6.08495903015136719 -7 -9 8 0 0
-6 -7 -9.45040702819824219 7 0 0
-6 -7 -8.80305576324462891 8 2 2
-6.08495903015136719 -7 8 0 0 0
-6 -7 7.80305576324462891 0 0 0
-6 -7 8.45040702819824219 0 0 0
-6.01285266876220703 -6 -9 8 1 4
-6 -6 -9.11828231811523438 7 0 0
-6 -6 -8.968048095703125 8 3 3
-6.01285266876220703 -6 8 0 0 0
-6 -6 7.9680476188659668 0 0 0
-6 -6 8.11828231811523438 0 0 0
-6 -5.79989385604858398 -9 8 3 3
-6 -5.79989385604858398 8 0 0 0
-6.01285266876220703 5 -9 2 0 0
-6 4.79989385604858398 -9 3 0 0
-6 5 -9.11828231811523438 1 0 0
-6 5 -8.968048095703125 2 0 0
-6.01285266876220703 5 8 0 0 1
-6 4.79989385604858398 8 0 0 0
-6 5 7.9680476188659668 0 0 0
-6 5 8.11828231811523438 0 0 0
-6.08495903015136719 6 -9 1 0 0
-6 6 -9.45040702819824219 2 0 0
-6 6 -8.80305576324462891 1 0 0
-6.08495903015136719 6 8 1 0 1
-6 6 7.80305576324462891 0 0 0
-6 6 8.45040702819824219 0 0 0
-6.17180490493774414 7 -9 0 0 0
-6 7 -9.60211372375488281 3 0 0
-6 7 -8.63296604156494141 0 0 0
-6.17180490493774414 7 8 0 0 0
-6 7 7.6329655647277832 0 0 0
-6 7 8.60211372375488281 0 0 0
-6.27859401702880859 8 -9 1 0 0
-6 8 -9.68842506408691406 4 0 0
-6 8 -8.45899581909179688 1 0 0
-6.27859401702880859 8 8 0 0 0
-6 8 7.45899534225463867 0 0 0
-6 8 8.68842506408691406 0 0 0
-6 8.68842506408691406 -9 1 0 0
-6 8.68842506408691406 8 0 0 0
-5 -9.7904510498046875 -9 9 2 2
-5 -9 -9.7904510498046875 8 0 0
-5 -9 -8.05568504333496094 9 2 2
-5 -9.7904510498046875 8 1 0 0
-5 -9 7.05568504333496094 0 0 0
-5 -9 8.7904510498046875 1 0 0
-5 -8 -9.80219841003417969 8 0 0
-5.02885055541992188 -8 -8 8 1 1
-5 -8.25845813751220703 -8 8 2 2
-5 -8 -7.97828292846679688 9 2 2
-5.02885055541992188 -8 7 0 0 0
-5 -8.25845813751220703 7 0 0 0
-5 -8 6.97828292846679688 0 0 0
-5 -8 8.80219841003417969 0 0 0
-5 -7 -9.81216621398925781 8 0 0
-5.09763145446777344 -7 -8 8 1 1
-5 -7 -7.89835071563720703 9 2 2
-5.09763145446777344 -7 7 0 0 0
-5 -7 6.89835071563720703 0 0 0
-5 -7 8.81216621398925781 0 0 0
-5 -6 -9.82073879241943359 7 0 0
-5.13442277908325195 -6 -8 9 1 1
-5 -6 -7.82192134857177734 9 3 3
-5.13442277908325195 -6 7 0 0 0
-5 -6 6.82192134857177734 0 0 0
-5 -6 8.82073879241943359 0 0 0
-5.89991092681884766 -5 -9 8 2 3
-5 -5 -9.82821941375732422 7 0 0
-5.15700817108154297 -5 -8 9 2 2
-5 -5 -7.74846267700195312 10 4 4
-5.15700817108154297 -5 7 0 0 0
-5 -5 6.74846267700195312 0 0 0
-5.89991092681884766 -5 8 0 0 0
-5 -5 8.82821941375732422 0 0 0
-5.81018590927124023 -4 -9 8 2 4
-5 -4 -9.83485317230224609 6 0 0
-5.17244672775268555 -4 -8 9 3 7
-5 -4 -7.67726325988769531 9 4 6
-5.17244672775268555 -4 7 0 0 0
-5 -4 6.67726325988769531 0 0 0
-5.81018590927124023 -4 8 0 0 0
-5 -4 8.83485317230224609 0 0 0
-5.74563074111938477 -3 -9 8 1 4
-5 -3 -9.84083938598632812 5 0 0
-5.18416690826416016 -3 -8 8 4 9
-5 -3 -7.60742998123168945 9 4 8
-5.18416690826416016 -3 7 0 0 0
-5 -3 6.60742998123168945 0 0 0
-5.74563074111938477 -3 8 0 0 0
-5 -3 8.84083938598632812 0 0 0
-5.69815778732299805 -2 -9 7 0 2
-5 -2 -9.84634780883789062 4 0 0
-5.19409561157226562 -2 -8 6 4 8
-5 -2 -7.53789186477661133 9 4 8
-5.19409561157226562 -2 7 0 0 0
-5 -2 6.53789186477661133 0 0 0
-5.69815778732299805 -2 8 0 0 0
-5 -2 8.84634780883789062 0 0 0
-5.66317605972290039 -1 -9 7 0 0
-5 -1 -9.85152149200439453 3 0 0
-5.20345735549926758 -1 -8 5 4 8
-5 -1 -7.46740198135375977 9 3 8
-5.20345735549926758 -1 7 0 0 0
-5 -1 6.46740198135375977 0 0 0
-5.66317605972290039 -1 8 0 0 0
-5 -1 8.85152149200439453 0 0 0
-5.66317605972290039 0 -9 6 0 0
-5 0 -9.85152149200439453 2 0 0
-5.20345735549926758 0 -8 4 3 7
-5 0 -7.46740198135375977 8 2 6
-5.20345735549926758 0 7 0 0 0
-5 0 6.46740198135375977 0 0 0
-5.66317605972290039 0 8 0 0 0
-5 0 8.85152149200439453 0 0 0
-5.69815778732299805 1 -9 6 0 0
-5 1 -9.84634780883789062 1 0 0
-5.19409561157226562 1 -8 5 3 7
-5 1 -7.53789186477661133 7 1 3
-5.19409561157226562 1 7 0 1 0
-5 1 6.53789186477661133 0 0 0
-5.69815778732299805 1 8 0 0 0
-5 1 8.84634780883789062 0 0 0
-5.74563074111938477 2 -9 5 0 0
-5 2 -9.84083938598632812 0 0 0
-5.18416690826416016 2 -8 6 2 6
-5 2 -7.60742998123168945 7 0 0
-5.18416690826416016 2 7 0 0 0
-5 2 6.60742998123168945 0 0 0
-5.74563074111938477 2 8 0 0 0
-5 2 8.84083938598632812 0 0 1
-5.81018590927124023 3 -9 4 0 0
-5 3 -9.83485317230224609 0 0 0
-5.17244672775268555 3 -8 6 1 3
-5 3 -7.67726325988769531 6 0 0
-5.17244672775268555 3 7 0 0 0
-5 3 6.67726325988769531 0 0 0
-5.81018590927124023 3 8 0 0 0
-5 3 8.83485317230224609 1 0 1
-5.89991092681884766 4 -9 3 0 0
-5 4 -9.82821941375732422 1 0 0
-5.15700817108154297 4 -8 5 0 0
-5 4 -7.74846267700195312 5 0 0
-5.15700817108154297 4 7 0 0 0
-5 4 6.74846267700195312 0 0 0
-5.89991092681884766 4 8 0 0 0
-5 4 8.82821941375732422 1 0 0
-5 5 -9.82073879241943359 2 0 0
-5.13442277908325195 5 -8 4 0 0
-5 5 -7.82192134857177734 4 0 0
-5.13442277908325195 5 7 0 0 0
-5 5 6.82192134857177734 1 0 0
-5 5 8.82073879241943359 1 0 0
-5 6 -9.81216621398925781 3 0 0
-5.09763145446777344 6 -8 3 0 0
-5 6 -7.89835071563720703 3 0 0
-5.09763145446777344 6 7 0 0 0
-5 6 6.89835071563720703 1 0 0
-5 6 8.81216621398925781 1 0 0
-5 7 -9.80219841003417969 3 0 0
-5.02885055541992188 7 -8 2 0 0
-5 7 -7.97828292846679688 2 0 0
-5.02885055541992188 7 7 0 0 0
-5 7 6.97828292846679688 0 0 0
-5 7 8.80219841003417969 1 0 0
-5 8 -9.7904510498046875 3 0 0
-5 7.25845766067504883 -8 2 0 0
-5 8 -8.05568504333496094 1 0 0
-5 7.25845766067504883 7 1 0 0
-5 8 7.05568504333496094 0 0 0
-5 8 8.7904510498046875 0 0 0
-5 8.7904510498046875 -9 1 0 0
-5 8.7904510498046875 8 0 0 0
-4.31235790252685547 -9 -9 9 2 2
-4.31235790252685547 -9 8 1 0 0
-4.07754611968994141 -8 -9 9 3 3
-4.98329973220825195 -8 -8 9 2 2
-4.98329973220825195 -8 7 0 0 0
-4.07754611968994141 -8 8 0 0 0
-4 -7.74603462219238281 -9 9 3 3
-4 -7 -9.50037574768066406 7 0 0
-4.89703130722045898 -7 -8 9 2 2
-4 -7 -8.75874614715576172 9 2 2
-4.89703130722045898 -7 7 0 0 0
-4 -7.74603462219238281 8 0 0 0
-4 -7 7.75874614715576172 0 0 0
-4 -7 8.50037574768066406 0 0 0
-4 -6 -9.69796371459960938 6 0 0
-4.73686361312866211 -6 -8 9 3 3
-4 -6 -8.43338298797607422 9 2 2
-4.73686361312866211 -6 7 0 0 0
-4 -6 7.43338251113891602 0 0 0
-4 -6 8.69796371459960938 0 0 0
-4 -5 -9.78189754486083984 5 0 0
-4.32120752334594727 -5 -8 10 4 4
-4 -5 -8.10496902465820312 9 1 1
-4.32120752334594727 -5 7 0 0 0
-4 -5 7.10496902465820312 0 0 0
-4 -5 8.78189754486083984 0 0 0
-4 -4 -9.82825565338134766 4 0 0
-4 -4.67910528182983398 -8 10 4 4
-4 -4 -7.74809741973876953 10 4 5
-4 -4.67910528182983398 7 0 0 0
-4 -4 6.74809741973876953 0 0 0
-4 -4 8.82825565338134766 0 0 0
-4 -3 -9.85761165618896484 3 0 0
-4 -3 -7.37715530395507812 10 3 5
-4 -3 6.37715530395507812 0 0 0
-4 -3 8.85761165618896484 0 0 0
-4 -2 -9.87784576416015625 2 0 0
-4 -2 -7.00418663024902344 9 2 3
-4 -2 6.00418663024902344 0 0 1
-4 -2 8.87784576416015625 0 0 1
-4 -1 -9.89262771606445312 1 0 0
-4.43279743194580078 -1 -7 7 4 9
-4 -1.98864340782165527 -7 10 5 10
-4 -1 -6.57094526290893555 8 4 10
-4.43279743194580078 -1 6 0 0 0
-4 -1.98864340782165527 6 0 0 1
-4 -1 5.57094526290893555 0 0 1
-4 -1 8.89262771606445312 0 0 1
-4 0 -9.89262771606445312 0 0 0
-4.43279743194580078 0 -7 6 5 9
-4 0 -6.57094526290893555 8 4 10
-4.43279743194580078 0 6 0 0 0
-4 0 5.57094526290893555 1 0 1
-4 0 8.89262771606445312 0 0 1
-4 1 -9.87784576416015625 0 0 0
-4 0.988643407821655273 -7 8 4 10
-4 1 -7.00418663024902344 8 0 0
-4 0.988643407821655273 6 0 0 1
-4 1 6.00418663024902344 1 0 1
-4 1 8.87784576416015625 1 0 1
-4 2 -9.85761165618896484 1 0 0
-4 2 -7.37715530395507812 7 0 0
-4 2 6.37715530395507812 1 0 0
-4 2 8.85761165618896484 2 0 1
-4 3 -9.82825565338134766 2 0 0
-4 3 -7.74809741973876953 6 0 0
-4 3 6.74809741973876953 2 0 0
-4 3 8.82825565338134766 2 0 0
-4 4 -9.78189754486083984 3 0 0
-4.32120752334594727 4 -8 5 0 0
-4 3.67910504341125488 -8 6 0 0
-4 4 -8.10496902465820312 0 0 0
-4.32120752334594727 4 7 1 0 0
-4 3.67910504341125488 7 2 0 0
-4 4 7.10496902465820312 2 0 0
-4 4 8.78189754486083984 2 0 0
-4 5 -9.69796371459960938 3 0 0
-4.73686361312866211 5 -8 4 0 0
-4 5 -8.43338298797607422 0 0 0
-4.73686361312866211 5 7 1 0 0
-4 5 7.43338251113891602 2 0 0
-4 5 8.69796371459960938 3 0 1
-4 6 -9.50037574768066406 3 0 0
-4.89703130722045898 6 -8 3 0 0
-4 6 -8.75874614715576172 1 0 0
-4.89703130722045898 6 7 1 0 0
-4 6 7.75874614715576172 2 0 0
-4 6 8.50037574768066406 2 0 2
-4.07754611968994141 7 -9 0 0 0
-4 6.74603462219238281 -9 1 0 0
-4.98329973220825195 7 -8 2 0 0
-4.98329973220825195 7 7 1 0 0
-4.07754611968994141 7 8 1 0 0
-4 6.74603462219238281 8 2 0 2
-4.31235790252685547 8 -9 1 0 0
-4.31235790252685547 8 8 0 0 0
-3.90765857696533203 -7 -9 9 2 2
-3.90765857696533203 -7 8 0 0 0
-3.76047801971435547 -6 -9 9 2 2
-3.76047801971435547 -6 8 0 0 0
-3.57606387138366699 -5 -9 9 1 1
-3.57606387138366699 -5 8 0 0 0
-3.33759069442749023 -4 -9 8 0 0
-3.88416719436645508 -4 -8 10 4 5
-3.88416719436645508 -4 7 0 0 0
-3.33759069442749023 -4 8 0 0 0
-3.01704597473144531 -3 -9 8 0 0
-3.66619467735290527 -3 -8 10 3 5
-3.66619467735290527 -3 7 0 0 0
-3.01704597473144531 -3 8 0 0 0
-3 -2.95430850982666016 -9 6 1 1
-3 -2 -9.68568229675292969 0 0 0
-3.35916757583618164 -2 -8 9 2 3
-3 -2 -8.46605873107910156 4 1 1
-3.35916757583618164 -2 7 0 0 1
-3 -2.95430850982666016 8 0 0 1
-3 -2 7.46605873107910156 0 0 1
-3 -2 8.68568229675292969 0 0 1
-3 -1 -9.81462383270263672 1 0 0
-3 -1.18641388416290283 -8 9 1 1
-3.71484208106994629 -1 -7 8 4 10
-3 -1 -7.87721920013427734 8 1 1
-3.71484208106994629 -1 6 0 0 1
-3 -1.18641388416290283 7 0 0 1
-3 -1 6.87721920013427734 2 0 2
-3 -1 8.81462383270263672 2 0 2
-3 0 -9.81462383270263672 1 0 0
-3.71484208106994629 0 -7 8 4 10
-3 0 -7.87721920013427734 7 0 0
-3.71484208106994629 0 6 0 0 1
-3 0 6.87721920013427734 2 0 1
-3 0 8.81462383270263672 2 0 1
-3 1 -9.68568229675292969 2 1 1
-3.35916757583618164 1 -8 8 0 0
-3 0.186413928866386414 -8 7 0 0
-3 1 -8.46605873107910156 1 0 0
-3.35916757583618164 1 7 1 0 1
-3 0.186413928866386414 7 2 0 1
-3 1 7.46605873107910156 2 0 0
-3 1 8.68568229675292969 2 0 0
-3.01704597473144531 2 -9 3 0 0
-3 1.95430850982666016 -9 1 0 0
-3.66619467735290527 2 -8 7 0 0
-3.66619467735290527 2 7 2 0 0
-3.01704597473144531 2 8 2 0 1
-3 1.95430850982666016 8 2 0 0
-3.33759069442749023 3 -9 2 0 0
-3.88416719436645508 3 -8 6 0 0
-3.88416719436645508 3 7 2 0 0
-3.33759069442749023 3 8 2 0 0
-3.57606387138366699 4 -9 0 0 0
-3.57606387138366699 4 8 2 0 0
-3.76047801971435547 5 -9 0 0 0
-3.76047801971435547 5 8 3 0 1
-3.90765857696533203 6 -9 1 0 0
-3.90765857696533203 6 8 2 0 2
-2.82272505760192871 -2 -9 4 1 1
-2.82272505760192871 -2 8 0 0 1
-2.60196495056152344 -1 -9 3 1 1
-2.96244955062866211 -1 -8 8 1 1
-2.96244955062866211 -1 7 2 0 2
-2.60196495056152344 -1 8 2 0 2
-2.60196495056152344 0 -9 2 1 1
-2.96244955062866211 0 -8 7 0 0
-2.96244955062866211 0 7 2 0 1
-2.60196495056152344 0 8 2 0 1
-2.82272505760192871 1 -9 1 0 0
-2.82272505760192871 1 8 2 0 0
1.82272493839263916 -2 -9 3 3 3
2 -2.95430850982666016 -9 4 4 4
2 -2 -9.68568229675292969 2 1 1
2 -2 -8.46605873107910156 4 3 4
1.82272493839263916 -2 8 5 7 4
2 -2.95430850982666016 8 6 6 6
2 -2 7.46605873107910156 5 6 3
2 -2 8.68568229675292969 6 6 5
1.60196495056152344 -1 -9 3 3 4
2 -1 -9.81462383270263672 1 1 1
1.96244966983795166 -1 -8 2 2 2
2 -1.18641388416290283 -8 4 4 4
2 -1 -7.87721920013427734 4 4 4
1.96244966983795166 -1 7 5 7 5
2 -1.18641388416290283 7 5 6 3
2 -1 6.87721920013427734 6 7 4
1.60196495056152344 -1 8 7 7 5
2 -1 8.81462383270263672 6 5 4
1.60196495056152344 0 -9 4 3 4
2 0 -9.81462383270263672 0 0 0
1.96244966983795166 0 -8 2 2 2
2 0 -7.87721920013427734 4 4 4
1.96244966983795166 0 7 6 6 6
2 0 6.87721920013427734 8 8 6
1.60196495056152344 0 8 7 6 6
2 0 8.81462383270263672 5 4 4
1.82272493839263916 1 -9 4 3 4
2 1 -9.68568229675292969 1 0 0
2 0.186413928866386414 -8 4 4 4
2 1 -8.46605873107910156 2 1 1
2 0.186413928866386414 7 6 5 4
1.82272493839263916 1 8 6 5 5
2 1 7.46605873107910156 7 6 6
2 1 8.68568229675292969 5 3 3
2 1.95430850982666016 -9 2 1 1
2 1.95430850982666016 8 5 3 3
2.90765857696533203 -7 -9 4 3 3
3 -7.74603462219238281 -9 5 2 3
3 -7 -9.50037574768066406 4 4 4
3 -7 -8.75874614715576172 5 2 3
2.90765857696533203 -7 8 4 3 4
3 -7.74603462219238281 8 4 5 5
3 -7 7.75874614715576172 4 5 5
3 -7 8.50037574768066406 5 5 5
2.76047801971435547 -6 -9 4 3 4
3 -6 -9.69796371459960938 3 2 2
3 -6 -8.43338298797607422 4 2 3
2.76047801971435547 -6 8 4 5 5
3 -6 7.43338251113891602 3 5 4
3 -6 8.69796371459960938 5 5 4
2.57606387138366699 -5 -9 4 4 4
3 -5 -9.78189754486083984 2 2 2
3 -5 -8.10496902465820312 4 2 2
2.57606387138366699 -5 8 5 6 5
3 -5 7.10496902465820312 3 5 2
3 -5 8.78189754486083984 5 5 4
2.33759069442749023 -4 -9 4 4 4
3 -4 -9.82825565338134766 1 1 1
2.88416719436645508 -4 -8 3 3 3
3 -4.67910528182983398 -8 4 3 4
3 -4 -7.74809741973876953 4 3 5
2.88416719436645508 -4 7 6 6 6
3 -4.67910528182983398 7 3 5 2
3 -4 6.74809741973876953 3 6 3
2.33759069442749023 -4 8 6 6 6
3 -4 8.82825565338134766 5 5 4
2.01704597473144531 -3 -9 4 4 4
3 -3 -9.85761165618896484 0 0 0
2.66619467735290527 -3 -8 4 3 4
3 -3 -7.37715530395507812 4 3 5
2.66619467735290527 -3 7 5 6 4
3 -3 6.37715530395507812 5 7 4
2.01704597473144531 -3 8 6 6 6
3 -3 8.85761165618896484 5 5 3
3 -2 -9.87784576416015625 1 0 0
2.35916757583618164 -2 -8 4 4 4
3 -2 -7.00418663024902344 4 3 4
2.35916757583618164 -2 7 5 6 3
3 -2 6.00418663024902344 6 7 4
3 -2 8.87784576416015625 4 4 4
3 -1 -9.89262771606445312 2 0 0
2.71484208106994629 -1 -7 3 2 3
3 -1.98864340782165527 -7 4 4 4
3 -1 -6.57094526290893555 5 4 5
2.71484208106994629 -1 6 6 7 4
3 -1.98864340782165527 6 6 7 4
3 -1 5.57094526290893555 7 8 6
3 -1 8.89262771606445312 4 4 4
3 0 -9.89262771606445312 3 0 0
2.71484208106994629 0 -7 4 4 4
3 0 -6.57094526290893555 5 5 5
2.71484208106994629 0 6 8 8 6
3 0 5.57094526290893555 7 8 6
3 0 8.89262771606445312 4 4 3
3 1 -9.87784576416015625 3 0 0
2.35916757583618164 1 -8 4 3 4
3 0.988643407821655273 -7 5 5 5
3 1 -7.00418663024902344 3 2 2
3 0.988643407821655273 6 6 6 5
2.35916757583618164 1 7 7 6 6
3 1 6.00418663024902344 5 6 5
3 1 8.87784576416015625 3 3 2
2.01704597473144531 2 -9 2 2 2
3 2 -9.85761165618896484 2 1 2
2.66619467735290527 2 -8 4 3 4
3 2 -7.37715530395507812 3 2 2
2.66619467735290527 2 7 7 7 7
3 2 6.37715530395507812 5 5 5
2.01704597473144531 2 8 5 4 4
3 2 8.85761165618896484 1 2 2
2.33759069442749023 3 -9 2 1 1
3 3 -9.82825565338134766 2 2 2
2.88416719436645508 3 -8 4 2 3
3 3 -7.74809741973876953 3 2 2
2.88416719436645508 3 7 7 7 6
3 3 6.74809741973876953 4 4 4
2.33759069442749023 3 8 4 4 4
3 3 8.82825565338134766 1 1 1
2.57606387138366699 4 -9 0 0 0
3 4 -9.78189754486083984 2 3 3
3 3.67910504341125488 -8 3 2 2
3 4 -8.10496902465820312 1 0 0
3 3.67910504341125488 7 1 1 1
2.57606387138366699 4 8 3 3 3
3 4 7.10496902465820312 0 1 1
3 4 8.78189754486083984 0 0 1
2.76047801971435547 5 -9 0 0 0
3 5 -9.69796371459960938 2 4 4
3 5 -8.43338298797607422 1 0 0
2.76047801971435547 5 8 2 2 2
3 5 7.43338251113891602 0 0 0
3 5 8.69796371459960938 0 0 0
2.90765857696533203 6 -9 0 0 0
3 6 -9.50037574768066406 2 4 3
3 6 -8.75874614715576172 0 0 0
2.90765857696533203 6 8 1 1 1
3 6 7.75874614715576172 0 0 0
3 6 8.50037574768066406 0 0 0
3 6.74603462219238281 -9 0 0 0
3 6.74603462219238281 8 0 0 0
3.31235766410827637 -9 -9 5 2 2
4 -9.7904510498046875 -9 5 0 0
4 -9 -9.7904510498046875 3 3 3
4 -9 -8.05568504333496094 5 1 1
3.31235766410827637 -9 8 4 3 4
4 -9.7904510498046875 8 4 4 4
4 -9 7.05568504333496094 3 3 4
4 -9 8.7904510498046875 4 4 4
3.07754611968994141 -8 -9 5 2 3
4 -8 -9.80219841003417969 3 3 3
3.98329973220825195 -8 -8 3 1 1
4 -8.25845813751220703 -8 5 1 3
4 -8 -7.97828292846679688 5 2 4
3.98329973220825195 -8 7 5 5 5
4 -8.25845813751220703 7 3 3 4
4 -8 6.97828292846679688 1 3 4
3.07754611968994141 -8 8 4 5 5
4 -8 8.80219841003417969 4 4 4
4 -7 -9.81216621398925781 2 1 1
3.89703130722045898 -7 -8 4 2 2
4 -7 -7.89835071563720703 5 2 4
3.89703130722045898 -7 7 4 5 5
4 -7 6.89835071563720703 1 4 3
4 -7 8.81216621398925781 4 4 4
4 -6 -9.82073879241943359 0 0 0
3.73686385154724121 -6 -8 4 2 4
4 -6 -7.82192134857177734 5 2 4
3.73686385154724121 -6 7 3 5 4
4 -6 6.82192134857177734 1 4 2
4 -6 8.82073879241943359 4 4 4
4 -5 -9.82821941375732422 1 0 0
3.32120752334594727 -5 -8 4 3 4
4 -5 -7.74846267700195312 4 2 3
3.32120752334594727 -5 7 3 5 2
4 -5 6.74846267700195312 2 4 2
4 -5 8.82821941375732422 3 4 3
4 -4 -9.83485317230224609 2 0 0
4 -4 -7.67726325988769531 5 3 4
4 -4 6.67726325988769531 1 4 2
4 -4 8.83485317230224609 3 3 3
4 -3 -9.84083938598632812 2 0 0
4 -3 -7.60742998123168945 4 4 4
4 -3 6.60742998123168945 1 3 1
4 -3 8.84083938598632812 2 3 2
4 -2 -9.84634780883789062 3 1 2
4 -2 -7.53789186477661133 2 2 2
4 -2 6.53789186477661133 1 2 2
4 -2 8.84634780883789062 1 2 2
4 -1 -9.85152149200439453 2 2 2
3.43279767036437988 -1 -7 5 4 5
4 -1 -7.46740198135375977 2 1 1
3.43279767036437988 -1 6 6 7 5
4 -1 6.46740198135375977 1 2 2
4 -1 8.85152149200439453 0 1 1
4 0 -9.85152149200439453 2 2 2
3.43279767036437988 0 -7 5 5 5
4 0 -7.46740198135375977 2 2 2
3.43279767036437988 0 6 6 6 5
4 0 6.46740198135375977 1 1 1
4 0 8.85152149200439453 0 0 1
4 1 -9.84634780883789062 3 3 3
4 1 -7.53789186477661133 1 1 1
4 1 6.53789186477661133 0 1 1
4 1 8.84634780883789062 0 0 0
4 2 -9.84083938598632812 3 4 4
4 2 -7.60742998123168945 0 0 0
4 2 6.60742998123168945 0 0 0
4 2 8.84083938598632812 0 0 0
4 3 -9.83485317230224609 3 5 3
4 3 -7.67726325988769531 0 0 0
4 3 6.67726325988769531 0 0 0
4 3 8.83485317230224609 0 0 1
4 4 -9.82821941375732422 3 4 3
3.32120752334594727 4 -8 1 0 0
4 4 -7.74846267700195312 1 0 0
3.32120752334594727 4 7 0 1 1
4 4 6.74846267700195312 1 0 1
4 4 8.82821941375732422 0 0 2
4 5 -9.82073879241943359 2 4 2
3.73686385154724121 5 -8 0 0 0
4 5 -7.82192134857177734 0 0 0
3.73686385154724121 5 7 0 0 0
4 5 6.82192134857177734 2 0 2
4 5 8.82073879241943359 0 0 3
4 6 -9.81216621398925781 2 3 2
3.89703130722045898 6 -8 0 0 0
4 6 -7.89835071563720703 0 0 0
3.89703130722045898 6 7 0 0 0
4 6 6.89835071563720703 3 0 3
4 6 8.81216621398925781 0 2 4
3.07754611968994141 7 -9 2 1 2
4 7 -9.80219841003417969 1 1 1
3.98329973220825195 7 -8 0 0 0
4 7 -7.97828292846679688 1 1 2
3.98329973220825195 7 7 1 0 1
4 7 6.97828292846679688 4 0 4
3.07754611968994141 7 8 1 0 1
4 7 8.80219841003417969 1 5 6
3.31235766410827637 8 -9 1 1 3
4 8 -9.7904510498046875 0 0 0
4 7.25845766067504883 -8 1 1 2
4 8 -8.05568504333496094 1 2 1
4 7.25845766067504883 7 1 1 5
3.31235766410827637 8 8 2 0 3
4 8 7.05568504333496094 3 3 7
4 8 8.7904510498046875 4 8 8
4 8.7904510498046875 -9 1 2 1
4 8.7904510498046875 8 4 8 8
5 -9.68842506408691406 -9 6 6 6
5 -9 -9.68842506408691406 1 0 0
5 -9 -8.45899581909179688 3 3 3
5 -9.68842506408691406 8 2 2 2
5 -9 7.45899534225463867 2 2 2
5 -9 8.68842506408691406 1 1 2
5 -8 -9.60211372375488281 0 0 0
4.02885055541992188 -8 -8 5 2 4
5 -8 -8.63296604156494141 2 2 2
4.02885055541992188 -8 7 2 4 4
5 -8 7.6329655647277832 2 2 2
5 -8 8.60211372375488281 1 1 1
5 -7 -9.45040702819824219 1 0 0
4.09763145446777344 -7 -8 5 2 4
5 -7 -8.80305576324462891 2 2 2
4.09763145446777344 -7 7 2 4 3
5 -7 7.80305576324462891 1 2 2
5 -7 8.45040702819824219 1 1 1
5 -6 -9.11828231811523438 2 0 0
4.13442277908325195 -6 -8 5 2 4
5 -6 -8.968048095703125 2 2 2
4.13442277908325195 -6 7 2 4 2
5 -6 7.9680476188659668 1 1 1
5 -6 8.11828231811523438 0 0 0
4.89991092681884766 -5 -9 2 2 2
5 -5.79989385604858398 -9 2 2 2
4.15700817108154297 -5 -8 4 2 3
4.15700817108154297 -5 7 2 3 2
4.89991092681884766 -5 8 3 4 3
5 -5.79989385604858398 8 0 0 0
4.81018590927124023 -4 -9 2 2 2
4.17244672775268555 -4 -8 5 3 4
4.17244672775268555 -4 7 2 3 2
4.81018590927124023 -4 8 3 3 3
4.74563074111938477 -3 -9 1 1 1
4.18416690826416016 -3 -8 4 4 4
4.18416690826416016 -3 7 2 3 2
4.74563074111938477 -3 8 2 3 2
4.69815778732299805 -2 -9 0 0 0
4.19409561157226562 -2 -8 2 2 2
4.19409561157226562 -2 7 2 2 2
4.69815778732299805 -2 8 1 2 2
4.66317605972290039 -1 -9 1 0 0
4.20345735549926758 -1 -8 2 1 1
4.20345735549926758 -1 7 1 2 2
4.66317605972290039 -1 8 0 1 1
4.66317605972290039 0 -9 2 0 0
4.20345735549926758 0 -8 2 2 2
4.20345735549926758 0 7 1 1 1
4.66317605972290039 0 8 0 0 1
4.69815778732299805 1 -9 2 0 1
4.19409561157226562 1 -8 1 1 1
4.19409561157226562 1 7 0 0 1
4.69815778732299805 1 8 0 0 0
4.74563074111938477 2 -9 1 1 2
4.18416690826416016 2 -8 0 0 0
4.18416690826416016 2 7 0 0 0
4.74563074111938477 2 8 0 0 0
4.81018590927124023 3 -9 1 1 1
4.17244672775268555 3 -8 0 0 0
4.17244672775268555 3 7 0 0 0
4.81018590927124023 3 8 0 0 1
4.89991092681884766 4 -9 2 2 2
4.15700817108154297 4 -8 1 0 0
4.15700817108154297 4 7 0 0 1
4.89991092681884766 4 8 0 0 2
5 4.79989385604858398 -9 4 5 2
5 5 -9.11828231811523438 0 2 2
4.13442277908325195 5 -8 0 0 0
5 5 -8.968048095703125 4 4 2
4.13442277908325195 5 7 1 0 2
5 4.79989385604858398 8 6 7 2
5 5 7.9680476188659668 5 7 4
5 5 8.11828231811523438 8 8 5
5 6 -9.45040702819824219 0 1 1
4.09763145446777344 6 -8 0 0 0
5 6 -8.80305576324462891 2 4 1
4.09763145446777344 6 7 1 0 3
5 6 7.80305576324462891 8 9 7
5 6 8.45040702819824219 9 9 7
5 7 -9.60211372375488281 0 0 0
4.02885055541992188 7 -8 1 1 2
5 7 -8.63296604156494141 1 3 1
4.02885055541992188 7 7 1 1 5
5 7 7.6329655647277832 8 9 7
5 7 8.60211372375488281 10 10 8
5 8 -9.68842506408691406 1 0 1
5 8 -8.45899581909179688 0 2 1
5 8 7.45899534225463867 7 9 6
5 8 8.68842506408691406 9 10 6
5 8.68842506408691406 -9 0 2 1
5 8.68842506408691406 8 9 10 6
5.27859401702880859 -9 -9 3 3 3
5.27859401702880859 -9 8 1 1 2
5.17180490493774414 -8 -9 2 2 2
5.17180490493774414 -8 8 1 1 1
5.08495903015136719 -7 -9 2 2 2
5.08495903015136719 -7 8 1 1 1
5.01285266876220703 -6 -9 2 2 2
5.01285266876220703 -6 8 0 0 0
5.01285266876220703 5 -9 4 4 2
5.01285266876220703 5 8 8 8 5
5.08495903015136719 6 -9 2 4 1
5.08495903015136719 6 8 9 9 7
5.17180490493774414 7 -9 1 3 1
5.17180490493774414 7 8 10 10 8
5.27859401702880859 8 -9 0 2 1
5.27859401702880859 8 8 9 10 6
3 2 1 0
3 1 3 0
3 6 5 4
3 5 7 4
3 9 2 0
3 8 9 0
3 3 10 8
3 0 3 8
3 12 6 4
3 11 12 4
3 7 13 11
3 4 7 11
3 15 9 8
3 14 15 8
3 10 16 14
3 8 10 14
3 18 12 11
3 17 18 11
3 13 19 17
3 11 13 17
3 21 15 14
3 20 21 14
3 16 22 20
3 14 16 20
3 24 18 17
3 23 24 17
3 19 25 23
3 17 19 23
3 21 20 26
3 20 22 26
3 24 23 27
3 23 25 27
3 30 29 28
3 29 31 28
3 34 33 32
3 33 35 32
3 37 30 28
3 36 37 28
3 31 38 36
3 28 31 36
3 40 34 32
3 39 40 32
3 35 41 39
3 32 35 39
3 43 37 36
3 42 43 36
3 38 44 42
3 36 38 42
3 46 40 39
3 45 46 39
3 41 47 45
3 39 41 45
3 49 43 42
3 48 49 42
3 44 50 48
3 42 44 48
3 52 46 45
3 51 52 45
3 47 53 51
3 45 47 51
3 49 48 54
3 48 50 54
3 52 51 55
3 51 53 55
3 2 57 56
3 1 2 56
3 1 56 58
3 3 1 58
3 6 60 59
3 5 6 59
3 5 59 61
3 7 5 61
3 57 2 62
3 62 2 9
3 63 58 64
3 63 10 58
3 10 3 58
3 64 65 63
3 68 67 66
3 67 12 66
3 67 60 12
3 60 6 12
3 61 69 7
3 69 13 7
3 62 9 70
3 70 9 15
3 71 10 63
3 16 10 71
3 65 72 71
3 63 65 71
3 74 68 66
3 73 74 66
3 66 18 73
3 12 18 66
3 69 75 13
3 75 19 13
3 70 15 76
3 76 15 21
3 77 16 71
3 22 16 77
3 72 78 77
3 71 72 77
3 80 74 73
3 79 80 73
3 73 24 79
3 18 24 73
3 75 81 19
3 81 25 19
3 26 82 83
3 26 83 21
3 21 83 76
3 22 82 26
3 22 77 82
3 77 84 82
3 78 85 84
3 77 78 84
3 87 80 79
3 86 87 79
3 27 79 24
3 27 88 79
3 88 86 79
3 88 27 25
3 88 25 89
3 89 25 81
3 91 83 82
3 90 91 82
3 82 84 90
3 84 92 90
3 85 93 92
3 84 85 92
3 95 87 86
3 94 95 86
3 86 88 94
3 88 96 94
3 89 97 96
3 88 89 96
3 99 91 90
3 98 99 90
3 90 92 98
3 92 100 98
3 93 101 100
3 92 93 100
3 103 95 94
3 102 103 94
3 94 96 102
3 96 104 102
3 97 105 104
3 96 97 104
3 107 99 98
3 106 107 98
3 98 100 106
3 100 108 106
3 101 109 108
3 100 101 108
3 111 103 102
3 110 111 102
3 102 104 110
3 104 112 110
3 105 113 112
3 104 105 112
3 115 107 106
3 114 115 106
3 106 108 114
3 108 116 114
3 109 117 116
3 108 109 116
3 119 111 110
3 118 119 110
3 110 112 118
3 112 120 118
3 113 121 120
3 112 113 120
3 123 115 114
3 122 123 114
3 114 116 122
3 116 124 122
3 117 125 124
3 116 117 124
3 127 119 118
3 126 127 118
3 118 120 126
3 120 128 126
3 121 129 128
3 120 121 128
3 131 123 122
3 130 131 122
3 122 124 130
3 124 132 130
3 125 133 132
3 124 125 132
3 135 127 126
3 134 135 126
3 126 128 134
3 128 136 134
3 129 137 136
3 128 129 136
3 139 131 130
3 138 139 130
3 130 132 138
3 132 140 138
3 133 141 140
3 132 133 140
3 143 135 134
3 142 143 134
3 134 136 142
3 136 144 142
3 137 145 144
3 136 137 144
3 147 139 138
3 146 147 138
3 138 140 146
3 140 148 146
3 141 149 148
3 140 141 148
3 151 143 142
3 150 151 142
3 142 144 150
3 144 152 150
3 145 153 152
3 144 145 152
3 155 147 146
3 154 155 146
3 146 148 154
3 148 156 154
3 149 157 156
3 148 149 156
3 159 151 150
3 158 159 150
3 150 152 158
3 152 160 158
3 153 161 160
3 152 153 160
3 154 29 30
3 154 30 155
3 155 30 162
3 29 163 31
3 29 154 163
3 154 156 163
3 157 164 163
3 156 157 163
3 166 159 158
3 165 166 158
3 34 160 33
3 34 165 160
3 165 158 160
3 33 160 161
3 33 161 35
3 35 161 167
3 162 30 168
3 168 30 37
3 169 31 163
3 38 31 169
3 164 170 169
3 163 164 169
3 172 166 165
3 171 172 165
3 165 40 171
3 34 40 165
3 167 173 35
3 173 41 35
3 168 37 174
3 174 37 43
3 175 38 169
3 44 38 175
3 170 176 175
3 169 170 175
3 178 172 171
3 177 178 171
3 171 46 177
3 40 46 171
3 173 179 41
3 179 47 41
3 174 43 180
3 180 43 49
3 181 44 175
3 181 182 44
3 182 50 44
3 175 176 181
3 178 177 183
3 177 184 183
3 177 46 184
3 46 52 184
3 179 185 47
3 185 53 47
3 180 49 54
3 186 180 54
3 186 54 50
3 182 186 50
3 184 52 55
3 187 184 55
3 187 55 53
3 185 187 53
3 56 57 188
3 56 188 58
3 59 60 189
3 59 189 61
3 190 188 57
3 62 190 57
3 64 58 188
3 64 188 191
3 191 188 190
3 64 191 65
3 67 68 192
3 60 67 192
3 60 192 189
3 189 192 193
3 189 193 69
3 61 189 69
3 194 190 62
3 194 62 195
3 195 62 70
3 197 190 194
3 197 196 190
3 196 191 190
3 191 196 72
3 65 191 72
3 198 192 68
3 74 198 68
3 199 198 200
3 199 193 198
3 193 192 198
3 193 199 201
3 193 201 69
3 69 201 75
3 195 70 202
3 202 70 76
3 204 196 197
3 203 196 204
3 196 203 78
3 72 196 78
3 205 198 74
3 80 205 74
3 200 205 206
3 198 205 200
3 201 207 75
3 207 81 75
3 202 76 208
3 208 76 83
3 210 203 204
3 209 203 210
3 203 209 85
3 78 203 85
3 211 205 80
3 87 211 80
3 206 211 212
3 205 211 206
3 207 213 81
3 213 89 81
3 208 83 214
3 214 83 91
3 210 215 209
3 209 215 216
3 209 216 85
3 85 216 93
3 217 211 87
3 217 87 218
3 218 87 95
3 211 217 212
3 213 219 89
3 219 97 89
3 214 91 220
3 220 91 99
3 216 221 93
3 221 101 93
3 218 95 222
3 222 95 103
3 219 223 97
3 223 105 97
3 220 99 224
3 224 99 107
3 221 225 101
3 225 109 101
3 222 103 226
3 226 103 111
3 223 227 105
3 227 113 105
3 224 107 228
3 228 107 115
3 229 225 230
3 229 117 225
3 117 109 225
3 230 231 229
3 234 233 232
3 233 119 232
3 233 226 119
3 226 111 119
3 227 235 113
3 235 121 113
3 228 115 236
3 236 115 123
3 237 117 229
3 125 117 237
3 231 238 237
3 229 231 237
3 240 234 232
3 239 240 232
3 232 127 239
3 119 127 232
3 235 241 121
3 241 129 121
3 236 123 242
3 242 123 131
3 243 125 237
3 243 244 125
3 244 133 125
3 237 238 243
3 240 239 245
3 239 246 245
3 239 127 246
3 127 135 246
3 241 247 129
3 247 137 129
3 242 131 248
3 248 131 139
3 244 249 133
3 249 141 133
3 246 135 250
3 250 135 143
3 247 251 137
3 251 145 137
3 248 139 252
3 252 139 147
3 249 253 141
3 253 149 141
3 250 143 254
3 254 143 151
3 251 255 145
3 255 153 145
3 252 147 256
3 256 147 155
3 259 257 258
3 258 257 157
3 258 157 253
3 253 157 149
3 260 261 254
3 260 254 159
3 159 254 151
3 261 260 262
3 255 263 153
3 263 161 153
3 256 155 264
3 264 155 162
3 266 257 259
3 265 257 266
3 257 265 164
3 157 257 164
3 267 260 159
3 166 267 159
3 262 267 268
3 260 267 262
3 263 269 161
3 269 167 161
3 264 162 270
3 270 162 168
3 272 265 266
3 271 265 272
3 265 271 170
3 164 265 170
3 273 267 166
3 172 273 166
3 268 273 274
3 267 273 268
3 269 275 167
3 275 173 167
3 276 277 270
3 276 270 174
3 174 270 168
3 277 271 272
3 277 276 271
3 276 278 271
3 271 278 176
3 170 271 176
3 279 273 172
3 178 279 172
3 274 280 281
3 274 273 280
3 273 279 280
3 281 280 179
3 281 179 275
3 275 179 173
3 282 276 174
3 180 282 174
3 182 181 278
3 182 278 282
3 282 278 276
3 278 181 176
3 279 178 183
3 183 184 283
3 183 283 279
3 279 283 280
3 280 283 185
3 179 280 185
3 282 180 186
3 282 186 182
3 283 184 187
3 283 187 185
3 194 195 284
3 194 284 197
3 199 200 285
3 199 285 201
3 286 284 195
3 202 286 195
3 284 286 204
3 197 284 204
3 287 285 200
3 206 287 200
3 285 287 207
3 201 285 207
3 288 286 202
3 208 288 202
3 286 288 210
3 204 286 210
3 289 287 206
3 212 289 206
3 287 289 213
3 207 287 213
3 290 288 208
3 214 290 208
3 215 210 288
3 215 288 291
3 291 288 290
3 215 291 216
3 217 218 292
3 212 217 292
3 212 292 289
3 289 292 293
3 289 293 219
3 213 289 219
3 294 290 214
3 220 294 214
3 290 294 291
3 291 294 295
3 291 295 221
3 216 291 221
3 296 292 218
3 222 296 218
3 292 296 293
3 293 296 297
3 293 297 223
3 219 293 223
3 298 294 220
3 298 220 299
3 299 220 224
3 301 294 298
3 301 300 294
3 300 295 294
3 295 300 225
3 221 295 225
3 302 296 222
3 226 302 222
3 303 302 304
3 303 297 302
3 297 296 302
3 297 303 305
3 297 305 223
3 223 305 227
3 299 224 306
3 306 224 228
3 301 307 300
3 309 308 230
3 307 309 230
3 307 230 225
3 307 225 300
3 230 308 231
3 233 234 310
3 310 312 311
3 233 310 311
3 233 311 302
3 233 302 226
3 302 311 304
3 305 313 227
3 313 235 227
3 306 228 314
3 314 228 236
3 316 308 309
3 315 308 316
3 308 315 238
3 231 308 238
3 317 310 234
3 240 317 234
3 312 317 318
3 310 317 312
3 313 319 235
3 319 241 235
3 314 236 320
3 320 236 242
3 323 321 322
3 315 244 243
3 316 244 315
3 316 321 244
3 316 322 321
3 315 243 238
3 317 240 245
3 245 246 324
3 317 245 324
3 317 324 325
3 317 325 318
3 325 324 326
3 319 327 241
3 327 247 241
3 328 329 320
3 328 320 248
3 248 320 242
3 329 321 323
3 329 328 321
3 328 330 321
3 321 330 249
3 244 321 249
3 331 324 246
3 250 331 246
3 326 332 333
3 326 324 332
3 324 331 332
3 333 332 251
3 333 251 327
3 327 251 247
3 334 328 248
3 252 334 248
3 328 334 330
3 330 334 335
3 330 335 253
3 249 330 253
3 336 331 250
3 254 336 250
3 331 336 332
3 332 336 337
3 332 337 255
3 251 332 255
3 338 334 252
3 256 338 252
3 259 258 335
3 259 335 338
3 338 335 334
3 335 258 253
3 336 254 261
3 261 262 339
3 261 339 336
3 336 339 337
3 337 339 263
3 255 337 263
3 340 338 256
3 264 340 256
3 338 340 266
3 259 338 266
3 341 339 262
3 268 341 262
3 339 341 269
3 263 339 269
3 342 340 264
3 270 342 264
3 340 342 272
3 266 340 272
3 343 341 268
3 274 343 268
3 341 343 275
3 269 341 275
3 342 270 277
3 342 277 272
3 343 274 281
3 343 281 275
3 298 299 344
3 298 344 301
3 303 304 345
3 303 345 305
3 346 344 299
3 306 346 299
3 307 301 344
3 307 344 347
3 347 344 346
3 307 347 309
3 311 312 348
3 304 311 348
3 304 348 345
3 345 348 349
3 345 349 313
3 305 345 313
3 350 346 306
3 314 350 306
3 346 350 347
3 347 350 351
3 347 351 316
3 309 347 316
3 352 348 312
3 318 352 312
3 348 352 349
3 349 352 353
3 349 353 319
3 313 349 319
3 354 350 314
3 320 354 314
3 323 322 351
3 323 351 354
3 354 351 350
3 351 322 316
3 352 318 325
3 325 326 355
3 325 355 352
3 352 355 353
3 353 355 327
3 319 353 327
3 354 320 329
3 354 329 323
3 355 326 333
3 355 333 327
3 358 357 356
3 357 359 356
3 362 361 360
3 361 363 360
3 365 358 356
3 364 365 356
3 359 367 366
3 359 366 356
3 356 366 364
3 367 368 366
3 371 370 369
3 370 362 360
3 370 360 369
3 369 360 372
3 363 373 372
3 360 363 372
3 375 365 364
3 374 375 364
3 364 366 374
3 366 376 374
3 368 377 376
3 366 368 376
3 379 371 369
3 378 379 369
3 369 372 378
3 372 380 378
3 373 381 380
3 372 373 380
3 383 375 374
3 382 383 374
3 384 385 382
3 384 382 376
3 376 382 374
3 376 377 384
3 379 378 386
3 388 386 378
3 388 378 387
3 387 378 380
3 381 389 387
3 380 381 387
3 383 382 390
3 382 385 390
3 388 387 391
3 387 389 391
3 394 393 392
3 393 395 392
3 398 397 396
3 397 399 396
3 401 394 392
3 400 401 392
3 395 402 400
3 392 395 400
3 404 398 396
3 403 404 396
3 399 405 403
3 396 399 403
3 407 401 400
3 406 407 400
3 402 408 406
3 400 402 406
3 410 404 403
3 409 410 403
3 405 411 409
3 403 405 409
3 413 407 406
3 412 413 406
3 408 415 414
3 408 414 406
3 406 414 412
3 415 416 414
3 419 418 417
3 418 410 409
3 418 409 417
3 417 409 420
3 411 421 420
3 409 411 420
3 423 413 412
3 422 423 412
3 412 414 422
3 414 424 422
3 416 425 424
3 414 416 424
3 427 419 417
3 426 427 417
3 417 420 426
3 420 428 426
3 421 429 428
3 420 421 428
3 422 357 358
3 422 358 423
3 423 358 430
3 357 431 359
3 357 422 431
3 422 424 431
3 425 432 431
3 424 425 431
3 434 427 426
3 433 434 426
3 362 428 361
3 362 433 428
3 433 426 428
3 361 428 429
3 361 429 363
3 363 429 435
3 430 358 436
3 436 358 365
3 431 367 359
3 367 437 368
3 431 437 367
3 431 438 437
3 431 432 438
3 438 439 437
3 442 441 440
3 433 370 371
3 434 433 371
3 434 371 440
3 434 440 441
3 433 362 370
3 435 443 363
3 443 373 363
3 436 365 444
3 444 365 375
3 445 368 437
3 377 368 445
3 439 446 445
3 437 439 445
3 448 442 440
3 447 448 440
3 440 379 447
3 371 379 440
3 443 449 373
3 449 381 373
3 444 375 450
3 450 375 383
3 384 451 385
3 451 452 453
3 384 452 451
3 384 445 452
3 384 377 445
3 445 446 452
3 448 447 454
3 456 386 455
3 454 386 456
3 454 379 386
3 454 447 379
3 386 388 455
3 449 457 381
3 457 389 381
3 390 458 459
3 390 459 383
3 383 459 450
3 385 458 390
3 385 451 458
3 451 460 458
3 453 461 460
3 451 453 460
3 463 456 455
3 462 463 455
3 391 455 388
3 391 464 455
3 464 462 455
3 464 391 389
3 464 389 465
3 465 389 457
3 467 459 458
3 466 467 458
3 458 460 466
3 460 468 466
3 461 469 468
3 460 461 468
3 471 463 462
3 470 471 462
3 462 464 470
3 464 472 470
3 465 473 472
3 464 465 472
3 475 467 466
3 474 475 466
3 476 477 474
3 476 474 468
3 468 474 466
3 468 469 476
3 471 470 478
3 480 478 470
3 480 470 479
3 479 470 472
3 473 481 479
3 472 473 479
3 483 475 474
3 482 483 474
3 477 484 482
3 474 477 482
3 486 480 479
3 485 486 479
3 481 487 485
3 479 481 485
3 489 483 482
3 488 489 482
3 484 490 488
3 482 484 488
3 492 486 485
3 491 492 485
3 487 493 491
3 485 487 491
3 489 488 494
3 488 490 494
3 492 491 495
3 491 493 495
3 498 497 496
3 497 499 496
3 502 501 500
3 501 503 500
3 505 498 496
3 504 505 496
3 499 507 506
3 499 506 496
3 496 506 504
3 507 508 506
3 511 510 509
3 510 502 500
3 510 500 509
3 509 500 512
3 503 513 512
3 500 503 512
3 504 393 394
3 504 394 505
3 505 394 514
3 393 515 395
3 393 504 515
3 504 506 515
3 508 516 515
3 506 508 515
3 518 511 509
3 517 518 509
3 398 512 397
3 398 517 512
3 517 509 512
3 397 512 513
3 397 513 399
3 399 513 519
3 514 394 520
3 520 394 401
3 521 395 515
3 402 395 521
3 516 522 521
3 515 516 521
3 524 518 517
3 523 524 517
3 517 404 523
3 398 404 517
3 519 525 399
3 525 405 399
3 520 401 526
3 526 401 407
3 527 402 521
3 408 402 527
3 522 528 527
3 521 522 527
3 530 524 523
3 529 530 523
3 523 410 529
3 404 410 523
3 525 531 405
3 531 411 405
3 526 407 532
3 532 407 413
3 527 415 408
3 415 527 528
3 415 528 416
3 416 528 533
3 529 418 419
3 529 419 530
3 530 419 534
3 529 410 418
3 531 535 411
3 535 421 411
3 532 413 536
3 536 413 423
3 533 537 416
3 537 425 416
3 534 419 538
3 538 419 427
3 535 539 421
3 539 429 421
3 536 423 540
3 540 423 430
3 537 541 425
3 541 432 425
3 538 427 542
3 542 427 434
3 539 543 429
3 543 435 429
3 540 430 544
3 544 430 436
3 438 546 545
3 438 432 546
3 432 541 546
3 438 545 439
3 441 442 547
3 547 434 441
3 547 548 434
3 548 542 434
3 543 549 435
3 549 443 435
3 544 436 550
3 550 436 444
3 552 545 546
3 551 545 552
3 545 551 446
3 439 545 446
3 553 547 442
3 448 553 442
3 548 553 554
3 547 553 548
3 549 555 443
3 555 449 443
3 550 444 556
3 556 444 450
3 551 453 452
3 551 552 453
3 552 557 453
3 551 452 446
3 553 448 454
3 454 554 553
3 454 456 554
3 456 558 554
3 555 559 449
3 559 457 449
3 556 450 560
3 560 450 459
3 557 561 453
3 561 461 453
3 558 456 562
3 562 456 463
3 559 563 457
3 563 465 457
3 560 459 564
3 564 459 467
3 561 565 461
3 565 469 461
3 562 463 566
3 566 463 471
3 563 567 465
3 567 473 465
3 564 467 568
3 568 467 475
3 476 569 477
3 569 476 469
3 569 469 570
3 570 469 565
3 478 571 572
3 478 572 471
3 471 572 566
3 478 480 571
3 567 573 473
3 573 481 473
3 568 475 574
3 574 475 483
3 575 477 569
3 484 477 575
3 570 576 575
3 569 570 575
3 578 572 571
3 577 578 571
3 571 486 577
3 480 486 571
3 573 579 481
3 579 487 481
3 574 483 580
3 580 483 489
3 581 484 575
3 490 484 581
3 576 582 581
3 575 576 581
3 584 578 577
3 583 584 577
3 577 492 583
3 486 492 577
3 579 585 487
3 585 493 487
3 494 586 587
3 494 587 489
3 489 587 580
3 490 586 494
3 490 581 586
3 581 588 586
3 582 589 588
3 581 582 588
3 591 584 583
3 590 591 583
3 495 583 492
3 495 592 583
3 592 590 583
3 592 495 493
3 592 493 593
3 593 493 585
3 595 587 586
3 594 595 586
3 596 597 594
3 596 594 588
3 588 594 586
3 588 589 596
3 591 590 598
3 600 598 590
3 600 590 599
3 599 590 592
3 593 601 599
3 592 593 599
3 595 594 602
3 594 597 602
3 600 599 603
3 599 601 603
3 498 605 604
3 497 498 604
3 497 604 606
3 499 497 606
3 502 608 607
3 501 502 607
3 501 607 609
3 503 501 609
3 605 498 610
3 610 498 505
3 507 612 611
3 507 499 612
3 499 606 612
3 507 611 508
3 510 511 613
3 613 502 510
3 613 614 502
3 614 608 502
3 609 615 503
3 615 513 503
3 610 505 616
3 616 505 514
3 618 611 612
3 617 611 618
3 611 617 516
3 508 611 516
3 619 613 511
3 518 619 511
3 614 619 620
3 613 619 614
3 615 621 513
3 621 519 513
3 616 514 622
3 622 514 520
3 624 617 618
3 623 617 624
3 617 623 522
3 516 617 522
3 625 619 518
3 524 625 518
3 620 625 626
3 619 625 620
3 621 627 519
3 627 525 519
3 628 629 622
3 628 622 526
3 526 622 520
3 629 623 624
3 629 628 623
3 628 630 623
3 623 630 528
3 522 623 528
3 631 625 524
3 530 631 524
3 626 632 633
3 626 625 632
3 625 631 632
3 633 632 531
3 633 531 627
3 627 531 525
3 634 628 526
3 532 634 526
3 628 634 630
3 630 634 635
3 630 635 533
3 528 630 533
3 636 631 530
3 534 636 530
3 631 636 632
3 632 636 637
3 632 637 535
3 531 632 535
3 638 634 532
3 536 638 532
3 634 638 635
3 635 638 639
3 635 639 537
3 533 635 537
3 640 636 534
3 538 640 534
3 636 640 637
3 637 640 641
3 637 641 539
3 535 637 539
3 642 638 536
3 540 642 536
3 638 642 639
3 639 642 643
3 639 643 541
3 537 639 541
3 644 640 538
3 542 644 538
3 640 644 641
3 641 644 645
3 641 645 543
3 539 641 543
3 646 642 540
3 544 646 540
3 642 646 643
3 643 646 647
3 643 647 546
3 541 643 546
3 648 644 542
3 548 648 542
3 644 648 645
3 645 648 649
3 645 649 549
3 543 645 549
3 650 646 544
3 550 650 544
3 646 650 647
3 647 650 651
3 647 651 552
3 546 647 552
3 652 648 548
3 554 652 548
3 648 652 649
3 649 652 653
3 649 653 555
3 549 649 555
3 654 650 550
3 556 654 550
3 650 654 651
3 651 654 655
3 651 655 557
3 552 651 557
3 656 652 554
3 558 656 554
3 652 656 653
3 653 656 657
3 653 657 559
3 555 653 559
3 658 654 556
3 560 658 556
3 654 658 655
3 655 658 659
3 655 659 561
3 557 655 561
3 660 656 558
3 562 660 558
3 656 660 657
3 657 660 661
3 657 661 563
3 559 657 563
3 662 658 560
3 564 662 560
3 658 662 659
3 659 662 663
3 659 663 565
3 561 659 565
3 664 660 562
3 566 664 562
3 660 664 661
3 661 664 665
3 661 665 567
3 563 661 567
3 666 662 564
3 568 666 564
3 662 666 663
3 663 666 667
3 663 667 570
3 565 663 570
3 668 664 566
3 572 668 566
3 664 668 665
3 665 668 669
3 665 669 573
3 567 665 573
3 670 666 568
3 670 568 671
3 671 568 574
3 673 666 670
3 673 672 666
3 672 667 666
3 667 672 576
3 570 667 576
3 674 668 572
3 578 674 572
3 675 674 676
3 675 669 674
3 669 668 674
3 669 675 677
3 669 677 573
3 573 677 579
3 671 574 678
3 678 574 580
3 680 672 673
3 679 672 680
3 672 679 582
3 576 672 582
3 681 674 578
3 584 681 578
3 676 681 682
3 674 681 676
3 677 683 579
3 683 585 579
3 678 580 684
3 684 580 587
3 686 679 680
3 685 679 686
3 679 685 589
3 582 679 589
3 687 681 584
3 591 687 584
3 682 687 688
3 681 687 682
3 683 689 585
3 689 593 585
3 684 587 690
3 690 587 595
3 685 597 596
3 685 686 597
3 686 691 597
3 685 596 589
3 687 591 598
3 598 688 687
3 598 600 688
3 600 692 688
3 689 693 593
3 693 601 593
3 690 595 602
3 694 690 602
3 694 602 597
3 691 694 597
3 692 600 603
3 695 692 603
3 695 603 601
3 693 695 601
3 604 605 696
3 604 696 606
3 607 608 697
3 607 697 609
3 698 696 605
3 610 698 605
3 696 698 612
3 606 696 612
3 699 697 608
3 614 699 608
3 697 699 615
3 609 697 615
3 700 698 610
3 616 700 610
3 698 700 618
3 612 698 618
3 701 699 614
3 620 701 614
3 699 701 621
3 615 699 621
3 702 700 616
3 622 702 616
3 700 702 624
3 618 700 624
3 703 701 620
3 626 703 620
3 701 703 627
3 621 701 627
3 702 622 629
3 702 629 624
3 703 626 633
3 703 633 627
3 670 671 704
3 670 704 673
3 675 676 705
3 675 705 677
3 706 704 671
3 678 706 671
3 704 706 680
3 673 704 680
3 707 705 676
3 682 707 676
3 705 707 683
3 677 705 683
3 708 706 678
3 684 708 678
3 706 708 686
3 680 706 686
3 709 707 682
3 688 709 682
3 707 709 689
3 683 707 689
3 710 708 684
3 690 710 684
3 708 710 691
3 686 708 691
3 711 709 688
3 692 711 688
3 709 711 693
3 689 709 693
3 710 690 694
3 710 694 691
3 711 692 695
3 711 695 693
