ply
format ascii 1.0
element vertex 338
property float x
property float y
property float z
property uchar red
property uchar green
property uchar blue
element face 672
property list uchar int vertex_indices
end_header
-3.02302670478820801 3 0 208 180 253
-3 2.96252608299255371 0 239 182 254
-3 3 -0.153049319982528687 180 254 223
-3 3 0.083890177309513092 194 181 254
-3 3.15055155754089355 0 194 181 254
-2.21092009544372559 2 0 239 182 254
-2 1.64318656921386719 0 232 198 252
-2 2 -0.561359405517578125 184 252 254
-2.24163293838500977 2 1 254 184 222
-2 1.75179839134216309 1 252 195 228
-2 2 1.40721809864044189 254 187 234
-2.11268091201782227 3 -2 254 198 180
-2 2.89646029472351074 -2 254 249 181
-2 3 -2.11916661262512207 182 241 254
-2.79848527908325195 3 -1 180 254 223
-2 2.19656729698181152 -1 184 252 254
-2.64772844314575195 3 1 254 179 244
-2 3 1.99725008010864258 248 181 254
-2.15204548835754395 4 -3 223 188 250
-2 3.8167729377746582 -3 182 241 254
-2 4 -3.18573546409606934 250 196 196
-2.67481684684753418 4 -2 184 251 185
-2.90728354454040527 4 -1 252 233 181
-2.82834196090698242 4 0 179 252 245
-2.44374299049377441 4 1 200 178 251
-2 4 1.65686178207397461 179 184 252
-2 4.28544282913208008 -3 251 191 249
-2.12616300582885742 5 -2 177 175 233
-2 5 -2.24855828285217285 235 180 184
-2.34243226051330566 5 -1 196 236 174
-2.26212048530578613 5 0 235 219 173
-2 4.79021787643432617 1 179 184 252
-2 5 0.693739712238311768 242 193 177
-2 5.22900152206420898 -2 226 180 240
-2 5.58173608779907227 -1 179 242 217
-2 5.43965673446655273 0 242 193 177
-1.33977746963500977 1 0 232 198 252
-1 0.833010554313659668 0 231 200 242
-1 1 -0.939393460750579834 197 234 252
-1 1 0.748938620090484619 234 197 251
-1.76221072673797607 2 -1 184 252 254
-1 1.02333807945251465 -1 197 234 252
-1 2 -1.80379021167755127 254 243 182
-1 1.07502758502960205 1 252 194 226
-1.50019681453704834 2 2 254 184 203
-1 1.61818826198577881 2 253 191 203
-1 2 2.40291166305541992 254 183 201
-1 2.15270423889160156 -2 254 243 182
-1 3 -2.90095686912536621 181 237 254
-1.99745643138885498 3 2 254 180 217
-1 3 2.72471308708190918 254 178 212
-1.03937220573425293 4 -4 250 196 196
-1 3.97473669052124023 -4 253 183 230
-1 4 -4.02420520782470703 246 199 231
-1 3.08420372009277344 -3 181 237 254
-1.66207730770111084 4 2 241 180 251
-1 4 2.45451903343200684 241 179 252
-1 4.05306577682495117 -4 250 195 195
-1.43500864505767822 5 -3 235 180 184
-1 5 -3.37543725967407227 229 180 201
-1.82674360275268555 5 1 191 239 176
-1 4.79296970367431641 2 241 179 252
-1 5 1.82580435276031494 236 242 178
-1 5.58345413208007812 -3 237 182 183
-1.34584343433380127 6 -2 184 141 149
-1 6 -2.51716732978820801 183 142 154
-1.62113511562347412 6 -1 178 142 187
-1.48502957820892334 6 0 141 182 186
-1 5.93396806716918945 1 236 242 178
-1 6 0.889623582363128662 171 148 194
-1.0468822717666626 7 -2 158 119 122
-1 7 -2.08122611045837402 164 124 137
-1.26656055450439453 7 -1 153 115 143
-1.12418961524963379 7 0 113 115 152
-1 7 0.246287524700164795 153 115 136
-1.20374178886413574 8 -3 233 158 177
-1 7.73859357833862305 -3 164 124 137
-1 8 -3.25610780715942383 238 160 160
-1.70679295063018799 8 -2 225 154 221
-1.89966237545013428 8 -1 151 161 221
-1.76733875274658203 8 0 151 222 156
-1.31683933734893799 8 1 227 173 153
-1 7.56685543060302734 1 122 116 155
-1 8 1.41933834552764893 159 223 153
-1 8.43856906890869141 -3 228 156 160
-1 8.72629928588867188 -2 221 153 171
-1 8.76983928680419922 -1 218 151 204
-1 8.741119384765625 0 154 151 218
-1 8.54589557647705078 1 159 223 153
-0.968797385692596436 1 -1 197 234 252
0 0.524006307125091553 -1 202 221 242
0 1 -1.54658734798431396 221 252 192
0 0.478114575147628784 0 232 199 241
-0.837825179100036621 1 1 252 194 226
0 0.703027963638305664 1 243 198 220
0 1 1.7844085693359375 252 193 223
-0.684815704822540283 2 -2 254 243 182
0 1.5371239185333252 -2 221 252 192
0 2 -2.29555273056030273 211 254 179
0 1.11637818813323975 2 252 190 201
0 2 2.93208098411560059 254 182 199
-0.806892633438110352 3 -3 181 237 254
0 2.67017364501953125 -3 211 254 179
0 3 -3.32259821891784668 253 182 238
-0.381381630897521973 3 3 253 178 193
0 2.24803614616394043 3 254 180 186
0 3 3.11614775657653809 253 178 192
0 3.6155848503112793 -4 253 182 238
0 4 -4.36783409118652344 246 197 222
0 3.50373435020446777 3 253 178 192
0 4 2.84818124771118164 238 178 252
0 4.80631256103515625 -4 250 194 195
0 5 -3.87192320823669434 227 177 196
-0.690218865871429443 5 2 175 236 218
0 5 2.26210951805114746 174 235 195
-0.449203521013259888 6 -3 183 142 154
0 6 -3.25213909149169922 166 131 168
-0.895041406154632568 6 1 143 187 180
0 5.47846651077270508 2 174 235 195
0 6 1.54062175750732422 140 161 184
-0.157424598932266235 7 -3 164 124 137
0 7 -3.10851955413818359 171 128 159
-0.388371974229812622 7 1 122 116 155
0 7 1.28532171249389648 147 114 151
-0.138180792331695557 8 -4 238 160 160
0 7.90302467346191406 -4 171 128 159
0 8 -4.09039831161499023 245 161 167
-0.35374799370765686 8 2 224 231 155
0 7.73305940628051758 2 118 158 151
0 8 2.22824859619140625 230 177 154
0 8.26675319671630859 -4 236 159 159
0 8.76743888854980469 -3 227 155 157
0 8.83597278594970703 -2 219 151 161
0 8.85196399688720703 -1 215 149 181
0 8.84089851379394531 0 191 149 216
0 8.78635978698730469 1 152 222 202
0 8.47676372528076172 2 230 177 154
1 0.25268101692199707 -1 202 214 244
1 1 -1.66005885601043701 207 252 189
1 0.24333035945892334 0 239 199 243
1 0.476886600255966187 1 245 198 219
0.401288002729415894 1 2 252 190 201
1 0.871811509132385254 2 249 196 204
1 1 2.20584940910339355 253 189 200
1 1.37209844589233398 -2 207 252 189
1 2 -2.43909978866577148 221 254 178
0.316835254430770874 2 3 254 180 186
1 1.8283240795135498 3 253 186 189
1 2 3.09430646896362305 254 180 186
1 2.5000762939453125 -3 221 254 178
1 3 -3.52185535430908203 253 183 245
1 3 3.19633316993713379 253 178 193
1 3.47546267509460449 -4 253 183 245
1 4 -4.45164203643798828 244 195 213
1 3.78695797920227051 3 253 178 193
1 4 2.92897248268127441 228 179 251
0.962129831314086914 5 -4 227 177 196
1 5 -4.00362253189086914 198 164 206
1 5 2.34562397003173828 182 230 172
1 5.0102391242980957 -4 221 173 187
1 6 -3.44237494468688965 160 125 157
1 5.6754918098449707 2 182 230 172
1 6 1.7309037446975708 136 133 174
1 7 -3.41851997375488281 171 127 152
1 7 1.61250793933868408 149 112 144
1 7.54239034652709961 -4 171 127 152
1 8 -4.46695947647094727 246 160 160
1 7.36605548858642578 2 118 151 158
1 8 2.58720731735229492 232 173 155
1 8.64370155334472656 -4 238 158 160
1 8.82241058349609375 -3 229 155 160
1 8.86412811279296875 -2 221 152 165
1 8.87486171722412109 -1 218 150 184
1 8.86723041534423828 0 195 150 219
1 8.83258342742919922 1 152 224 210
1 8.69528961181640625 2 232 173 155
2 0.612101912498474121 -1 200 202 248
2 1 -1.32902145385742188 189 253 186
2 0.193776369094848633 0 247 200 245
2 0.391031980514526367 1 248 198 217
2 0.82780987024307251 2 250 195 202
2 1 2.24389815330505371 253 188 198
2 1.63188791275024414 -2 189 253 186
2 2 -2.3057713508605957 230 254 177
2 1.98674750328063965 3 253 186 189
2 2 3.00584673881530762 254 180 186
2 2.55096101760864258 -3 230 254 177
2 3 -3.52418255805969238 253 185 251
2 3 3.04910826683044434 252 179 196
2 3.59631586074829102 -4 253 185 251
2 4 -4.26907730102539062 239 191 201
2 3.17755270004272461 3 252 179 196
2 4 2.69268918037414551 210 180 249
1.02177810668945312 5 -4 221 173 187
2 4.63086509704589844 -4 246 191 195
2 5 -3.76651716232299805 210 165 173
2 5 2.13539671897888184 208 219 166
2 6 -3.26606464385986328 149 116 137
2 5.31247329711914062 2 208 219 166
2 6 1.51071155071258545 135 122 158
2 7 -3.3647913932800293 177 131 142
2 7 1.54608500003814697 152 114 153
2 7.51108074188232422 -4 177 131 142
2 8 -4.58735990524291992 249 158 162
2 7.37150907516479492 2 122 164 157
2 8 2.66803860664367676 236 237 155
2 8.68520069122314453 -4 242 158 175
2 8.83018016815185547 -3 234 156 182
2 8.86762619018554688 -2 228 153 192
2 8.87746620178222656 -1 224 152 221
2 8.87026309967041016 0 156 152 225
2 8.83824062347412109 1 154 230 156
2 8.71802711486816406 2 236 237 155
2.44525361061096191 1 -1 189 204 252
3 0.867786169052124023 0 251 196 240
3 1 -0.241615772247314453 184 191 253
3 0.764836132526397705 1 251 197 213
2.84255123138427734 1 2 253 188 198
3 1 1.83859860897064209 253 187 212
2.78588557243347168 2 -2 239 254 179
3 1.35197889804840088 -1 184 191 253
3 2 -1.87634134292602539 232 254 178
3 1.0624535083770752 2 253 188 196
2.01743745803833008 2 3 254 180 186
3 2 2.54457306861877441 254 182 198
3 2.74684739112854004 -3 242 254 178
3 3 -3.33478999137878418 244 189 251
3 2.06694269180297852 -2 232 254 178
2.12837457656860352 3 3 252 179 196
3 3 2.53860974311828613 252 181 222
2.60284543037414551 4 -4 246 191 195
3 4 -3.7491755485534668 240 188 195
3 4 2.16397643089294434 188 180 244
3 5 -3.16032862663269043 192 151 153
2.27359485626220703 5 2 208 219 166
3 4.32133913040161133 2 188 180 244
3 5 1.4668809175491333 212 211 162
2.49410581588745117 6 -3 156 121 130
3 5.4002833366394043 -3 205 160 163
3 6 -2.54700088500976562 142 110 112
2.82882165908813477 6 1 135 122 158
3 5.83056735992431641 1 212 211 162
3 6 0.812832355499267578 145 113 134
2.87469029426574707 7 -3 161 120 127
3 7 -2.91197609901428223 173 127 127
3 6.59695959091186523 1 116 109 140
3 7 1.08855295181274414 127 122 165
3 7.69862937927246094 -4 191 138 139
3 8 -4.4456639289855957 251 155 188
3 7.04291772842407227 -3 173 127 127
3 7.62478876113891602 2 151 178 130
3 8 2.47096729278564453 155 243 199
3 8.61277389526367188 -4 247 157 229
3 8.80674648284912109 -3 229 156 241
3 8.85232639312744141 -2 195 155 236
3 8.86392021179199219 -1 155 169 234
3 8.85491847991943359 0 155 234 194
3 8.81423568725585938 1 238 178 155
3 8.63999271392822266 2 155 243 199
3.12191867828369141 1 0 253 186 251
3.23377370834350586 1 1 253 187 212
3.9945988655090332 2 -1 180 230 254
4 1.6481095552444458 0 253 183 246
4 2 -0.9920387864112854 181 226 253
4 1.55573451519012451 1 253 184 208
3.71433162689208984 2 2 254 182 198
4 2 1.69397389888763428 253 185 224
3.90501570701599121 3 -3 186 252 243
4 2.47678112983703613 -2 221 253 180
4 3 -2.95173215866088867 192 251 230
4 2.0032808780670166 -1 181 226 253
3.65808916091918945 3 2 252 181 222
4 3 1.59968245029449463 232 184 251
3.75173354148864746 4 -3 235 188 245
4 4 -2.60837888717651367 216 183 235
3.20002937316894531 4 2 188 180 244
4 4 1.04875838756561279 179 239 217
3.16547632217407227 5 -3 205 160 163
3.8005378246307373 5 -2 214 165 197
4 4.67614412307739258 -2 183 240 235
4 5 -1.20355331897735596 189 147 182
3.91977596282958984 5 0 166 218 200
4 4.87581062316894531 0 238 241 181
4 5 -0.61612701416015625 156 150 193
3.4147498607635498 5 1 212 211 162
4 4.07282400131225586 1 179 239 217
3.37149405479431152 6 -2 145 112 112
3.62649440765380859 6 -1 147 114 118
4 5.14365386962890625 -1 156 150 193
3.46760177612304688 6 0 145 113 134
3.71627140045166016 7 -2 162 120 121
3.99776697158813477 7 -1 157 117 122
3.79810738563537598 7 0 158 117 142
3.10671544075012207 7 1 127 122 165
4 7.9836125373840332 -4 212 150 170
4 8 -4.02958440780639648 253 152 249
4 7.5235595703125 -3 194 139 164
4 7.15801763534545898 -2 182 132 164
4 7.00131559371948242 -1 174 129 177
4 7.1170496940612793 0 130 131 178
4 7.47767782211303711 1 134 186 139
4 7.99561691284179688 2 199 185 142
4 8 2.00650334358215332 168 152 248
4 8.09327411651611328 -4 157 153 251
4 8.72059822082519531 -3 155 226 248
4 8.80367374420166016 -2 155 245 199
4 8.82221889495849609 -1 201 243 155
4 8.80576610565185547 0 243 160 155
4 8.72470283508300781 1 154 246 165
4 8.02404594421386719 2 168 152 248
4.53801584243774414 2 0 233 183 253
4.42985439300537109 2 1 253 185 224
4.59895420074462891 3 -2 251 204 190
4.79302406311035156 3 -1 187 252 187
4.71102190017700195 3 0 185 208 252
4.36186838150024414 3 1 232 184 251
4.27451753616333008 4 -2 183 240 235
4.45888042449951172 4 -1 242 235 183
4.37567663192749023 4 0 238 241 181
4.03026628494262695 4 1 179 239 217
4.03678989410400391 5 -1 156 150 193
4.042388916015625 8 -4 157 153 251
5 7.98010492324829102 -3 153 163 220
5 8 -3.05348443984985352 148 253 206
5 7.74160385131835938 -2 147 192 210
5 7.65047407150268555 -1 144 205 171
5 7.74130487442016602 0 205 206 145
4.98434638977050781 8 1 154 246 165
5 8 0.973176538944244385 151 250 232
4.00900506973266602 8 2 168 152 248
5 8.11607551574707031 -3 243 252 150
5 8.61156749725341797 -2 251 166 151
5 8.67140960693359375 -1 210 250 151
5 8.60298442840576172 0 151 250 232
5.03680896759033203 8 -3 243 252 150
5.45052766799926758 8 -2 251 166 151
5.57987070083618164 8 -1 210 250 151
5.42207908630371094 8 0 151 250 232
3 2 1 0
3 1 3 0
3 2 0 4
3 0 3 4
3 7 6 5
3 6 9 8
3 5 6 8
3 9 10 8
3 13 12 11
3 12 15 14
3 11 12 14
3 5 1 2
3 7 5 2
3 7 2 14
3 7 14 15
3 1 16 3
3 1 5 16
3 5 8 16
3 10 17 16
3 8 10 16
3 20 19 18
3 19 13 11
3 19 11 18
3 18 11 21
3 11 14 21
3 14 22 21
3 4 14 2
3 4 23 14
3 23 22 14
3 3 23 4
3 3 16 23
3 16 24 23
3 17 25 24
3 16 17 24
3 20 18 26
3 28 26 18
3 28 18 27
3 27 18 21
3 21 22 27
3 22 29 27
3 22 23 29
3 23 30 29
3 31 32 30
3 31 30 24
3 24 30 23
3 24 25 31
3 28 27 33
3 27 29 34
3 33 27 34
3 29 30 35
3 34 29 35
3 30 32 35
3 38 37 36
3 37 39 36
3 42 41 40
3 36 6 7
3 38 36 7
3 38 7 40
3 38 40 41
3 39 6 36
3 39 43 6
3 43 9 6
3 44 10 9
3 44 9 45
3 45 9 43
3 45 46 44
3 13 48 47
3 12 13 47
3 40 47 42
3 40 15 47
3 15 12 47
3 40 7 15
3 49 10 44
3 17 10 49
3 46 50 49
3 44 46 49
3 53 52 51
3 20 51 52
3 20 52 19
3 19 52 54
3 54 13 19
3 48 13 54
3 55 17 49
3 25 17 55
3 50 56 55
3 49 50 55
3 53 51 57
3 59 26 58
3 57 26 59
3 57 20 26
3 57 51 20
3 26 28 58
3 31 60 32
3 60 61 62
3 31 61 60
3 31 55 61
3 31 25 55
3 55 56 61
3 59 58 63
3 65 33 64
3 63 33 65
3 63 28 33
3 63 58 28
3 34 64 33
3 66 64 34
3 35 66 34
3 67 66 35
3 67 68 69
3 35 68 67
3 35 60 68
3 35 32 60
3 60 62 68
3 71 65 64
3 70 71 64
3 64 66 70
3 66 72 70
3 66 67 72
3 67 73 72
3 69 74 73
3 67 69 73
3 77 76 75
3 76 71 70
3 76 70 75
3 75 70 78
3 70 72 78
3 72 79 78
3 72 73 79
3 73 80 79
3 74 82 81
3 74 81 73
3 73 81 80
3 82 83 81
3 77 75 84
3 75 78 85
3 84 75 85
3 78 79 86
3 85 78 86
3 79 80 87
3 86 79 87
3 80 81 88
3 87 80 88
3 81 83 88
3 91 90 89
3 38 89 90
3 38 90 37
3 37 90 92
3 93 39 37
3 93 37 94
3 94 37 92
3 94 95 93
3 98 97 96
3 89 41 42
3 91 89 42
3 91 42 96
3 91 96 97
3 89 38 41
3 93 43 39
3 95 43 93
3 95 99 43
3 99 45 43
3 45 99 100
3 46 45 100
3 103 102 101
3 96 47 48
3 98 96 48
3 98 48 101
3 98 101 102
3 96 42 47
3 104 100 105
3 104 50 100
3 50 46 100
3 105 106 104
3 53 108 107
3 52 53 107
3 101 107 103
3 101 54 107
3 54 52 107
3 101 48 54
3 109 50 104
3 109 110 50
3 110 56 50
3 104 106 109
3 108 53 57
3 111 108 57
3 57 112 111
3 59 112 57
3 61 113 62
3 113 61 56
3 113 56 114
3 114 56 110
3 63 115 116
3 63 116 59
3 59 116 112
3 63 65 115
3 68 117 69
3 117 118 119
3 68 118 117
3 68 113 118
3 68 62 113
3 113 114 118
3 121 116 115
3 120 121 115
3 115 71 120
3 65 71 115
3 122 69 117
3 74 69 122
3 119 123 122
3 117 119 122
3 126 125 124
3 120 76 77
3 121 120 77
3 121 77 124
3 121 124 125
3 120 71 76
3 122 82 74
3 82 127 83
3 122 127 82
3 122 128 127
3 122 123 128
3 128 129 127
3 126 124 130
3 124 77 84
3 124 84 130
3 130 84 131
3 131 84 132
3 84 85 132
3 132 85 133
3 85 86 133
3 133 86 134
3 86 87 134
3 134 87 135
3 87 88 135
3 83 127 136
3 83 136 88
3 88 136 135
3 127 129 136
3 91 138 137
3 90 91 137
3 137 139 90
3 90 139 92
3 139 140 92
3 92 140 94
3 141 95 94
3 141 94 142
3 142 94 140
3 142 143 141
3 98 145 144
3 97 98 144
3 144 91 97
3 138 91 144
3 141 99 95
3 99 146 100
3 141 146 99
3 141 147 146
3 141 143 147
3 147 148 146
3 103 150 149
3 102 103 149
3 149 98 102
3 145 98 149
3 146 105 100
3 105 146 148
3 105 148 106
3 106 148 151
3 108 153 152
3 107 108 152
3 152 103 107
3 150 103 152
3 110 154 155
3 109 154 110
3 154 109 106
3 151 154 106
3 111 156 157
3 111 157 108
3 108 157 153
3 111 112 156
3 155 158 110
3 158 114 110
3 157 156 159
3 156 160 159
3 156 112 160
3 112 116 160
3 119 161 162
3 118 161 119
3 161 118 114
3 158 161 114
3 160 116 163
3 163 116 121
3 162 164 119
3 164 123 119
3 126 166 165
3 125 126 165
3 165 121 125
3 163 121 165
3 164 128 123
3 167 128 164
3 128 167 168
3 129 128 168
3 166 126 130
3 169 166 130
3 169 130 170
3 130 131 170
3 170 131 171
3 131 132 171
3 171 132 172
3 132 133 172
3 172 133 173
3 133 134 173
3 173 134 174
3 134 135 174
3 174 135 175
3 135 136 175
3 175 136 129
3 168 175 129
3 138 177 176
3 137 138 176
3 176 178 137
3 137 178 139
3 178 179 139
3 139 179 140
3 179 180 140
3 140 180 142
3 142 180 181
3 143 142 181
3 145 183 182
3 144 145 182
3 182 138 144
3 177 138 182
3 181 147 143
3 184 147 181
3 147 184 185
3 148 147 185
3 150 187 186
3 149 150 186
3 186 145 149
3 183 145 186
3 185 188 148
3 188 151 148
3 153 190 189
3 152 153 189
3 189 150 152
3 187 150 189
3 155 191 192
3 154 191 155
3 191 154 151
3 188 191 151
3 193 194 190
3 193 190 157
3 157 190 153
3 194 193 195
3 192 196 155
3 196 158 155
3 193 157 159
3 159 195 193
3 159 160 195
3 160 197 195
3 162 198 199
3 161 198 162
3 198 161 158
3 196 198 158
3 197 160 200
3 200 160 163
3 199 201 162
3 201 164 162
3 166 203 202
3 165 166 202
3 202 163 165
3 200 163 202
3 201 167 164
3 204 167 201
3 167 204 205
3 168 167 205
3 203 166 169
3 206 203 169
3 206 169 207
3 169 170 207
3 207 170 208
3 170 171 208
3 208 171 209
3 171 172 209
3 209 172 210
3 172 173 210
3 210 173 211
3 173 174 211
3 211 174 212
3 174 175 212
3 212 175 168
3 205 212 168
3 176 177 213
3 213 215 214
3 213 214 176
3 176 214 178
3 214 216 178
3 178 216 179
3 218 217 180
3 218 180 216
3 216 180 179
3 180 217 181
3 182 183 219
3 219 221 220
3 182 219 220
3 182 220 213
3 182 213 177
3 213 220 215
3 218 222 217
3 224 223 184
3 222 224 184
3 222 184 181
3 222 181 217
3 184 223 185
3 187 226 225
3 186 187 225
3 183 227 219
3 183 186 227
3 186 225 227
3 219 227 221
3 229 223 224
3 228 223 229
3 223 228 188
3 185 223 188
3 189 190 230
3 230 187 189
3 230 231 187
3 231 226 187
3 228 192 191
3 228 229 192
3 229 232 192
3 228 191 188
3 230 190 194
3 194 231 230
3 194 195 231
3 195 233 231
3 236 234 235
3 235 234 196
3 235 196 232
3 232 196 192
3 237 238 233
3 237 233 197
3 197 233 195
3 238 237 239
3 242 240 241
3 234 199 198
3 236 199 234
3 236 240 199
3 236 241 240
3 234 198 196
3 243 237 197
3 200 243 197
3 239 243 244
3 237 243 239
3 242 245 240
3 240 245 246
3 240 246 199
3 199 246 201
3 203 248 247
3 202 203 247
3 200 249 243
3 200 202 249
3 202 247 249
3 243 249 244
3 246 204 201
3 250 204 246
3 204 250 251
3 205 204 251
3 248 203 206
3 252 248 206
3 252 206 253
3 206 207 253
3 253 207 254
3 207 208 254
3 254 208 255
3 208 209 255
3 255 209 256
3 209 210 256
3 256 210 257
3 210 211 257
3 257 211 258
3 211 212 258
3 258 212 205
3 251 258 205
3 214 215 259
3 216 214 259
3 260 216 259
3 216 260 218
3 220 221 261
3 261 263 262
3 220 261 262
3 220 262 259
3 220 259 215
3 259 264 260
3 262 264 259
3 266 265 222
3 264 266 222
3 264 222 218
3 264 218 260
3 222 265 224
3 225 226 267
3 267 269 268
3 267 268 225
3 225 268 227
3 221 270 261
3 221 227 270
3 227 268 270
3 261 270 263
3 272 265 266
3 271 265 272
3 265 271 229
3 224 265 229
3 273 267 226
3 231 273 226
3 269 273 274
3 267 273 269
3 276 271 272
3 275 271 276
3 271 275 232
3 229 271 232
3 277 273 231
3 233 277 231
3 274 278 279
3 274 273 278
3 273 277 278
3 279 278 280
3 283 281 282
3 282 284 285
3 281 284 282
3 275 236 235
3 276 236 275
3 276 284 236
3 276 285 284
3 275 235 232
3 277 233 238
3 238 239 286
3 238 286 277
3 277 286 278
3 280 287 288
3 280 278 287
3 278 286 287
3 288 281 283
3 288 287 281
3 287 289 281
3 242 241 284
3 242 284 289
3 289 284 281
3 284 241 236
3 290 286 239
3 244 290 239
3 286 290 287
3 287 290 291
3 287 291 289
3 289 291 292
3 245 242 289
3 245 289 293
3 293 289 292
3 245 293 246
3 248 295 294
3 247 248 294
3 294 296 247
3 247 296 249
3 244 297 290
3 244 249 297
3 249 296 297
3 290 298 291
3 297 298 290
3 291 299 292
3 298 299 291
3 292 300 293
3 299 300 292
3 293 250 246
3 293 300 250
3 300 301 250
3 250 301 302
3 251 250 302
3 295 248 252
3 303 295 252
3 303 252 304
3 252 253 304
3 304 253 305
3 253 254 305
3 305 254 306
3 254 255 306
3 306 255 307
3 255 256 307
3 307 256 308
3 256 257 308
3 308 257 309
3 257 258 309
3 309 258 251
3 302 309 251
3 262 263 310
3 264 262 310
3 311 264 310
3 264 311 266
3 268 269 312
3 270 268 312
3 313 270 312
3 263 270 313
3 263 313 310
3 310 313 314
3 310 314 311
3 311 314 315
3 311 315 272
3 266 311 272
3 316 312 269
3 274 316 269
3 312 316 313
3 313 316 317
3 313 317 314
3 314 317 318
3 314 318 315
3 315 318 319
3 315 319 276
3 272 315 276
3 316 274 279
3 279 280 320
3 279 320 316
3 316 320 317
3 283 282 318
3 283 318 320
3 320 318 317
3 319 318 282
3 285 319 282
3 319 285 276
3 320 280 288
3 320 288 283
3 294 295 321
3 321 323 322
3 321 322 294
3 294 322 296
3 322 324 296
3 296 324 297
3 324 325 297
3 297 325 298
3 325 326 298
3 298 326 299
3 328 327 300
3 328 300 326
3 326 300 299
3 301 300 327
3 329 301 327
3 301 329 302
3 321 295 303
3 323 321 303
3 323 303 330
3 330 303 304
3 330 304 331
3 304 305 331
3 331 305 332
3 305 306 332
3 332 306 333
3 306 307 333
3 327 328 333
3 327 333 308
3 308 333 307
3 329 327 308
3 309 329 308
3 329 309 302
3 322 323 334
3 324 322 334
3 335 324 334
3 325 324 335
3 336 325 335
3 326 325 336
3 337 326 336
3 326 337 328
3 334 323 330
3 335 334 330
3 331 335 330
3 336 335 331
3 332 336 331
3 337 336 332
3 333 337 332
3 337 333 328
