ply
format ascii 1.0
element vertex 480
property float x
property float y
property float z
property uchar red
property uchar green
property uchar blue
element face 956
property list uchar int vertex_indices
end_header
-7.01515913009643555 6 -1 180 186 90
-7 5.98492336273193359 -1 42 42 36
-7 6 -1.30312979221343994 94 91 59
-7.00238943099975586 6 0 174 187 85
-7 5.99762344360351562 0 41 41 33
-7 6 0.0309617798775434494 76 77 47
-7 6.01835250854492188 -1 76 75 48
-7 6.00288581848144531 0 76 77 47
-6.05832386016845703 6 -4 172 164 108
-6 5.94882965087890625 -4 44 43 39
-6 6 -4.09736108779907227 143 133 95
-6 6 -3.77073192596435547 74 69 54
-6.98211526870727539 6 -1 76 75 48
-6.99718666076660156 6 0 76 77 47
-6 6.06275081634521484 -4 74 69 54
-6.11890316009521484 7 -2 189 187 122
-6 6.8329777717590332 -2 28 28 26
-6 7 -2.3667292594909668 137 132 97
-6.20796012878417969 7 -1 179 179 111
-6 6.79633712768554688 -1 49 49 46
-6.19822216033935547 7 0 175 180 109
-6 6.805816650390625 0 48 48 44
-6.08645534515380859 7 1 179 191 113
-6 6.87998247146606445 1 26 26 22
-6 7 1.24043726921081543 105 106 72
-6 7.11923313140869141 -2 105 101 72
-6 7.2024226188659668 -1 87 85 63
-6 7.19301843643188477 0 88 86 63
-6 7.0866856575012207 1 105 106 72
-5.11273908615112305 6 -5 143 133 95
-5 5.94546222686767578 -5 66 65 62
-5 6 -5.11514186859130859 143 132 100
-5.91938209533691406 6 -4 74 69 54
-5 6 -4.90637445449829102 53 50 42
-5 6.09249067306518555 -5 53 50 42
-5.15801429748535156 7 -4 177 171 132
-5 6.80270481109619141 -4 30 29 28
-5 7 -4.19517374038696289 164 157 129
-5.56146907806396484 7 -3 137 132 97
-5 6.79362249374389648 -3 94 92 87
-5 6.9209752082824707 -2 135 129 114
-5.33491373062133789 7 -1 87 85 63
-5 7 -1.52387285232543945 6 6 5
-5.37313270568847656 7 0 88 86 63
-5 6.9490818977355957 1 133 131 116
-5 7 0.662988424301147461 14 14 14
-5.44937610626220703 7 2 132 140 87
-5 6.82422924041748047 2 91 91 88
-5.07355928421020508 7 3 160 181 111
-5 6.90962123870849609 3 25 26 23
-5 7 3.0872199535369873 100 107 74
-5 7.13972568511962891 -4 103 98 78
-5 7.3426518440246582 -3 47 45 39
-5 7.4420623779296875 -2 6 6 5
-5.07589530944824219 8 -1 191 189 153
-5 7.60878419876098633 -1 14 14 14
-5 8 -1.3590620756149292 144 141 128
-5.06260442733764648 8 0 190 191 152
-5 7.68069171905517578 0 14 14 14
-5 7.27286529541015625 1 7 7 7
-5 8 0.257224291563034058 130 128 115
-5 7.28136682510375977 2 49 49 41
-5 7.06573581695556641 3 100 107 74
-5 8.89451694488525391 -1 129 127 116
-5 8.87452030181884766 0 130 128 115
-4.13623046875 6 -6 143 132 100
-4 5.92764759063720703 -6 46 43 40
-4 6 -6.08342933654785156 170 159 123
-4.90473794937133789 6 -5 53 50 42
-4 6 -5.88682460784912109 72 67 53
-4 6.08915233612060547 -6 72 67 53
-4.20623922348022461 7 -5 164 157 129
-4 6.7883758544921875 -5 31 30 29
-4 7 -5.17072725296020508 175 169 143
-4 6.82537317276000977 -4 116 111 103
-4.54139900207519531 7 -3 47 45 39
-4 7 -3.58135223388671875 25 24 23
-4.89026594161987305 7 -2 6 6 5
-4.93029880523681641 7 1 7 7 7
-4.62934780120849609 7 2 49 49 41
-4 6.8728947639465332 3 113 112 98
-4 7 2.70426821708679199 36 35 32
-4.07507181167602539 7 4 147 169 108
-4 6.92313480377197266 4 26 26 24
-4 7 4.06222248077392578 98 106 78
-4 7.14929008483886719 -5 102 97 82
-4 7.42733907699584961 -4 25 24 23
-4.32125616073608398 8 -3 169 165 148
-4 7.5652461051940918 -3 38 37 36
-4 8 -3.44352459907531738 156 153 145
-4.75791120529174805 8 -2 144 141 128
-4 7.67247533798217773 -2 80 77 68
-4 7.70257377624511719 -1 102 95 80
-4 7.70554399490356445 0 101 95 78
-4.69518899917602539 8 1 145 145 124
-4 7.68711376190185547 1 79 76 63
-4.2555394172668457 8 2 166 171 139
-4 7.65948772430419922 2 36 35 32
-4 7.28861761093139648 3 28 28 26
-4 8 2.33282995223999023 113 114 101
-4 7.05607938766479492 4 98 106 78
-4 8.96850395202636719 -3 111 110 106
-4 8.97933483123779297 -2 76 76 74
-4 8.97993278503417969 -1 57 57 55
-4 8.97980308532714844 0 58 57 55
-4 8.97867774963378906 1 77 77 77
-4 8.96133232116699219 2 113 114 101
-3.01300692558288574 5 -1 255 224 171
-3 4.98679637908935547 -1 255 232 204
-3 5 -1.06808066368103027 255 218 171
-3 5 -0.697684168815612793 255 217 165
-3.64817404747009277 6 -6 72 67 53
-3 5.00719451904296875 -1 255 217 165
-3 6.7826848030090332 -5 96 94 90
-3 7 -5.62282037734985352 134 129 112
-3.57103061676025391 7 -4 25 24 23
-3 7 -4.51678800582885742 44 43 39
-3.71036052703857422 7 3 28 28 26
-3 6.83576393127441406 4 91 92 81
-3 7 3.65340709686279297 36 36 31
-3 7 4.40352821350097656 47 48 43
-3 7.3664555549621582 -5 44 43 39
-3.45226001739501953 8 -4 156 153 145
-3 7.54609012603759766 -4 39 38 36
-3 8 -4.33958148956298828 166 165 162
-3 7.69691276550292969 -3 103 96 82
-3 7.73347759246826172 -2 145 129 100
-3 7.77064609527587891 -1 165 143 104
-3 7.77548027038574219 0 165 143 99
-3 7.74270343780517578 1 144 128 88
-3 7.71150493621826172 2 102 96 69
-3.32276582717895508 8 3 153 159 133
-3 7.67614603042602539 3 36 36 31
-3 7.25984811782836914 4 47 48 43
-3 8 3.24070358276367188 111 113 102
-3 8.96956443786621094 -4 110 109 108
-3 8.98014259338378906 -3 55 54 52
-3 8.97917270660400391 -2 15 14 13
-3 8.97502517700195312 -1 5 4 3
-3 8.97445201873779297 0 4 4 3
-3 8.97846317291259766 1 16 15 13
-3 8.97951030731201172 2 57 57 52
-3 8.95959854125976562 3 111 113 102
-2.52640700340270996 5 -2 255 218 171
-2 4.8573756217956543 -2 255 227 202
-2 5 -2.59761404991149902 255 215 173
-2 4.87886285781860352 -1 255 219 191
-2.85064482688903809 5 0 255 216 157
-2 4.90251922607421875 0 255 215 180
-2.19066667556762695 5 1 255 219 149
-2 4.94757080078125 1 255 215 168
-2 5 1.17214047908782959 255 203 133
-2.08633184432983398 6 -7 126 117 93
-2 5.96926212310791016 -7 25 24 20
-2 6 -7.02379989624023438 192 182 141
-2 6 -6.95813131332397461 90 84 68
-2 5.15100479125976562 -2 255 210 164
-2 5.27419710159301758 -1 255 204 153
-2 5.21967172622680664 0 255 201 142
-2 5.05545663833618164 1 255 203 133
-2 6.02759170532226562 -7 90 84 68
-2.4871363639831543 7 -6 134 129 112
-2 6.77437162399291992 -6 33 32 30
-2 7 -6.15909337997436523 184 179 156
-2 6.89525938034057617 -5 139 131 120
-2 7 -4.85392093658447266 1 1 1
-2 6.97560024261474609 4 135 136 95
-2 7 3.96671199798583984 82 78 53
-2.13215804100036621 7 5 124 139 101
-2 6.9351043701171875 5 28 28 28
-2 7 5.0471343994140625 98 104 88
-2 7.15855073928833008 -6 100 97 88
-2 7.61309814453125 -5 1 1 1
-2 7.66304397583007812 -4 84 78 68
-2 8 -4.82479190826416016 139 137 131
-2 7.73058271408081055 -3 147 127 99
-2 7.84377241134643555 -2 186 153 108
-2.09308385848999023 8 -1 5 4 3
-2 8 -1.14398574829101562 28 24 19
-2.12846589088439941 8 0 4 4 3
-2 7.86767101287841797 1 185 152 91
-2 8 0.220300927758216858 49 41 29
-2 7.74577045440673828 2 146 127 77
-2 7.69629240036010742 3 82 78 53
-2 7.12620830535888672 4 5 5 5
-2 8 3.6465919017791748 75 76 71
-2 7.04747390747070312 5 98 104 88
-2 8.97967910766601562 -4 73 70 65
-2 8.97937297821044922 -3 13 12 11
-2 8.95971298217773438 -2 28 24 19
-2 8.9521484375 1 27 24 17
-2 8.97820472717285156 2 15 14 10
-2 8.97818946838378906 3 75 76 71
-1.42943894863128662 5 -3 255 215 173
-1 4.89751338958740234 -3 255 222 196
-1 5 -3.10574936866760254 255 215 175
-1 4.85448360443115234 -2 255 212 185
-1 4.90799188613891602 -1 255 205 175
-1 4.92835855484008789 0 255 201 165
-1 4.92507553100585938 1 255 201 154
-1 5 1.54177176952362061 255 189 119
-1 5.91745281219482422 -7 48 45 39
-1 6 -7.08348560333251953 180 173 136
-1 6 -6.90173816680908203 69 66 56
-1 5.05544900894165039 -3 255 207 162
-1 5.33095359802246094 -2 255 198 150
-1 5.77361726760864258 -1 255 190 139
-1 5.59727621078491211 0 255 187 129
-1 5.16815614700317383 1 255 189 119
-1 6.10196256637573242 -7 69 66 56
-1 6.75211191177368164 -6 56 55 54
-1 7 -6.25562620162963867 172 168 154
-1.29034769535064697 7 -5 1 1 1
-1 7 -5.17225313186645508 80 79 77
-1.85462307929992676 7 4 5 5 5
-1 6.84865808486938477 5 50 51 45
-1 7 4.51893949508666992 17 17 13
-1 7 5.15340662002563477 83 85 79
-1 7.246307373046875 -6 80 79 77
-1.58352410793304443 8 -5 139 137 131
-1 7.31634950637817383 -5 21 20 19
-1 8 -5.12813520431518555 183 181 172
-1 7.6941986083984375 -4 107 94 77
-1 7.76114225387573242 -3 169 137 100
-1.08943843841552734 8 -2 28 24 19
-1 8 -2.05425357818603516 8 7 6
-1.26455700397491455 8 1 27 24 17
-1 7.78487777709960938 2 167 137 74
-1 8 1.16438639163970947 50 41 26
-1 7.7142481803894043 3 105 95 55
-1.05678808689117432 8 4 140 143 132
-1 7.93378782272338867 4 17 17 13
-1 7.15051507949829102 5 83 85 79
-1 8 4.01337146759033203 126 127 126
-1 8.93484878540039062 -5 122 117 105
-1 8.980224609375 -4 52 48 42
-1 8.97607040405273438 -3 8 7 6
-1 8.9732513427734375 2 7 6 4
-1 8.97936058044433594 3 55 54 41
-1 8.59610748291015625 4 126 127 126
0 4.89576339721679688 -3 255 213 183
0 5 -3.10755586624145508 255 210 167
0 4.85353803634643555 -2 255 204 174
0 4.90717458724975586 -1 255 197 166
0 4.92753410339355469 0 255 193 156
0 4.92411327362060547 1 255 192 144
0 5 1.54889214038848877 255 182 113
0 5.91700172424316406 -7 49 47 41
0 6 -7.08394193649291992 179 173 141
0 6 -6.90119266510009766 68 65 58
0 5.05638790130615234 -3 255 199 154
0 5.33316564559936523 -2 255 191 143
0 5.78076076507568359 -1 255 184 133
0 5.60435628890991211 0 255 181 123
0 5.17034626007080078 1 255 182 113
0 6.10253000259399414 -7 68 65 58
0 6.75175857543945312 -6 57 57 56
0 7 -6.25599479675292969 171 169 163
0 7 -5.17064523696899414 79 78 76
0 6.84824419021606445 5 51 53 42
0 7 4.51741790771484375 19 19 12
0 7 5.15382719039916992 83 83 83
0 7.24665737152099609 -6 79 78 76
0 7.31334161758422852 -5 22 21 19
0 8 -5.12863969802856445 182 175 157
0 7.69409465789794922 -4 106 91 72
0 7.76096200942993164 -3 165 130 92
0 8 -2.05279707908630371 6 5 3
0 7.7846684455871582 2 163 128 66
0 8 1.16297638416290283 45 36 22
0 7.71411371231079102 3 104 90 48
0 7.93093395233154297 4 19 19 12
0 7.15092658996582031 5 83 83 83
0 8 4.01394224166870117 123 125 115
0 8.93509292602539062 -5 121 111 93
0 8.98022747039794922 -4 52 45 37
0 8.97608852386474609 -3 6 5 3
0 8.97327899932861328 2 4 3 2
0 8.97936820983886719 3 53 51 34
0 8.60617923736572266 4 123 125 115
0.443560779094696045 5 -3 255 199 154
1 4.85373926162719727 -2 255 198 164
1 5 -2.6132504940032959 255 195 147
1 4.87601137161254883 -1 255 192 156
1 4.89965105056762695 0 255 188 146
1 4.94389486312866211 1 255 187 134
1 5 1.18431317806243896 255 180 108
1 5.96740484237670898 -7 29 28 24
1 6 -7.02522802352905273 189 184 156
1 6 -6.95558643341064453 86 84 79
1 5.1548614501953125 -2 255 187 136
1 5.28080415725708008 -1 255 181 127
1 5.2262568473815918 0 255 178 117
1 5.05934762954711914 1 255 180 108
1 6.02925443649291992 -7 86 84 79
1 6.7725529670715332 -6 34 34 33
1 7 -6.1602935791015625 180 180 178
0.286173641681671143 7 -5 22 21 19
1 6.89424753189086914 -5 136 122 104
1 7 -4.85241889953613281 3 3 3
0.847666263580322266 7 4 19 19 12
1 6.97433376312255859 4 133 121 60
1 7 3.96496462821960449 76 65 34
1 6.93309211730957031 5 31 32 23
1 7 5.04857349395751953 98 100 96
1 7.15974521636962891 -6 97 94 86
0.589257180690765381 8 -5 121 111 93
1 7.62019920349121094 -5 3 3 3
1 7.66248655319213867 -4 78 67 53
1 8 -4.82774066925048828 140 125 99
1 7.73024845123291016 -3 139 109 77
0.0866743922233581543 8 -2 47 36 26
1 7.84283876419067383 -2 176 130 84
1 8 -1.13718366622924805 19 15 10
0.26118817925453186 8 1 45 36 22
1 7.8666682243347168 1 175 129 68
1 8 0.212894707918167114 39 30 18
1 7.74535894393920898 2 137 107 55
1 7.6956629753112793 3 76 65 34
0.0595461465418338776 8 4 123 125 115
1 7.13297557830810547 4 5 5 3
1 8 3.64887619018554688 79 74 47
1 7.04892444610595703 5 98 100 96
1 8.97969722747802734 -4 77 66 51
1 8.97939491271972656 -3 21 17 13
1 8.95996284484863281 -2 19 15 10
1 8.95251941680908203 1 18 14 8
1 8.97824001312255859 2 22 19 11
1 8.9782257080078125 3 79 74 47
1.54532706737518311 5 -2 255 187 136
2 4.97802209854125977 -1 255 189 145
2 5 -1.11341524124145508 255 186 131
1.89194059371948242 5 0 255 178 117
2 5 -0.496284395456314087 255 181 121
1.20609426498413086 5 1 255 180 108
1.09197676181793213 6 -7 86 84 79
2 5.01196718215942383 -1 255 181 121
1.49302184581756592 7 -6 97 94 86
2 6.78157567977905273 -5 89 81 70
2 7 -5.62780666351318359 136 129 114
2 7 -4.51319074630737305 50 46 39
2 6.83436775207519531 4 86 78 40
2 7 3.64976000785827637 27 24 13
1.13675379753112793 7 5 98 100 96
2 7 4.40789270401000977 53 51 31
2 7.36893463134765625 -5 50 46 39
2 7.54217100143432617 -4 30 26 21
2 8 -4.34229135513305664 171 151 115
2 7.69637203216552734 -3 91 73 53
2 7.7328953742980957 -2 131 99 65
1.08859467506408691 8 -1 39 30 19
2 7.76968860626220703 -1 150 110 67
1.12402141094207764 8 0 39 30 18
2 7.77449321746826172 0 150 110 62
2 7.74204301834106445 1 130 98 53
2 7.71085357666015625 2 90 71 38
2 7.67230415344238281 3 27 24 13
2 7.26241779327392578 4 53 51 31
2 8 3.2434086799621582 120 112 72
2 8.96976852416992188 -4 118 99 73
2 8.98015975952148438 -3 66 54 40
2 8.97921371459960938 -2 28 22 16
2 8.97513484954833984 -1 8 6 4
2 8.97457122802734375 0 8 6 4
2 8.97851753234863281 1 29 23 14
2 8.97954463958740234 2 68 58 36
2 8.96001529693603516 3 120 112 72
2.02173066139221191 5 -1 255 181 121
2.63325285911560059 6 -6 13 13 13
3 5.92444229125976562 -6 37 37 37
3 6 -6.08717107772827148 173 172 172
3 6 -5.88164424896240234 79 77 72
3 6.0931706428527832 -6 79 77 72
3 6.78410530090332031 -5 19 18 16
3 7 -5.17405223846435547 181 172 148
2.56605100631713867 7 -4 30 26 21
3 6.82358264923095703 -4 102 87 70
3 7 -3.57566499710083008 38 33 27
2.70514011383056641 7 3 27 24 13
3 6.87073659896850586 3 99 84 43
3 7 2.69835114479064941 21 17 10
3 6.91848659515380859 4 16 15 8
3 7 4.06594228744506836 114 112 75
3 7.15212059020996094 -5 112 101 82
2.45704054832458496 8 -4 118 99 73
3 7.43316888809204102 -4 38 33 27
3 7.55978870391845703 -3 22 19 14
3 8 -3.44911766052246094 167 141 99
3 7.67113018035888672 -2 64 50 34
3 7.70175552368164062 -1 84 65 41
3 7.70469427108764648 0 84 64 38
3 7.68569469451904297 1 63 49 28
3 7.65410757064819336 2 21 17 10
2.32718133926391602 8 3 120 112 72
3 7.29437446594238281 3 40 36 21
3 8 2.33806777000427246 127 112 71
3 7.05940914154052734 4 114 112 75
3 8.96881675720214844 -3 125 102 71
3 8.97938823699951172 -2 92 74 51
3 8.97996616363525391 -1 74 60 41
3 8.97984123229980469 0 74 61 41
3 8.97874832153320312 1 93 78 52
3 8.96185588836669922 2 127 112 71
3.14279961585998535 6 -6 79 77 72
3.89802718162536621 6 -5 19 18 16
4 5.94167089462280273 -5 51 48 44
4 6 -5.12350749969482422 153 149 135
4 6 -4.89963293075561523 67 63 55
3.21065068244934082 7 -5 112 101 82
4 6.09914636611938477 -5 67 63 55
4 6.79717540740966797 -4 12 11 9
4 7 -4.20063543319702148 177 162 127
3.53568220138549805 7 -3 22 19 14
4 6.79152250289916992 -3 74 63 47
3.8856203556060791 7 -2 64 50 34
4 6.91770410537719727 -2 114 92 63
4 7 -1.50142931938171387 25 21 15
3.92539358139038086 7 1 63 49 28
4 6.94554471969604492 1 113 91 51
4 7 0.637630939483642578 5 4 2
3.62356400489807129 7 2 21 17 10
4 6.82183218002319336 2 73 61 33
4 6.90370559692382812 3 10 9 5
3.07969856262207031 7 4 114 112 75
4 7 3.09291648864746094 121 114 75
4 7.14342403411865234 -4 119 104 79
3.325408935546875 8 -3 125 102 71
4 7.34712696075439453 -3 65 56 42
3.76577162742614746 8 -2 92 74 51
4 7.46284961700439453 -2 25 21 15
4 7.58256959915161133 -1 5 4 3
4 8 -1.38308143615722656 162 133 86
4 7.65463352203369141 0 5 4 2
3.70236492156982422 8 1 93 78 52
4 7.29331445693969727 1 26 22 13
4 8 0.27813875675201416 148 124 78
3.25967955589294434 8 2 127 112 71
4 7.28593778610229492 2 66 58 37
4 7.06994390487670898 3 121 114 75
4 8.90024662017822266 -1 148 122 78
4 8.88262653350830078 0 148 124 78
4.12115335464477539 6 -5 67 63 55
4.91109752655029297 6 -4 12 11 9
5 5.94361162185668945 -4 22 21 18
5 6 -4.10759830474853516 161 152 128
5 6 -3.74609565734863281 94 86 70
4.16243314743041992 7 -4 119 104 79
5 6.06922769546508789 -4 94 86 70
4.57124423980712891 7 -3 65 56 42
5 6.82610654830932617 -2 5 4 3
5 7 -2.38285493850708008 158 139 99
4.3201141357421875 7 -1 5 4 3
5 6.79217863082885742 -1 25 22 15
4.35840559005737305 7 0 5 4 2
5 6.80159282684326172 0 25 21 14
5 6.87290334701538086 1 4 3 2
4.45848274230957031 7 2 66 58 37
5 7 1.25522410869598389 127 115 80
4.07837200164794922 7 3 121 114 75
5 7.1239161491394043 -2 126 110 77
4.08073186874389648 8 -1 148 122 78
5 7.20654726028442383 -1 109 95 67
4.06750965118408203 8 0 148 124 78
5 7.19720935821533203 0 110 97 68
5 7.09164333343505859 1 127 115 80
5.06437206268310547 6 -4 94 86 70
5.97433757781982422 6 -1 25 22 15
6 5.97837257385253906 -1 15 13 9
6 6 -1.43801653385162354 120 110 84
5.98926448822021484 6 0 25 21 14
6 5.99093294143676758 0 15 13 9
6 6 0.118944272398948669 102 94 70
5.12364482879638672 7 -2 126 110 77
5.21239328384399414 7 -1 109 95 67
6 6.02636051177978516 -1 101 93 71
5.20271015167236328 7 0 110 97 68
6 6.01102447509765625 0 102 94 70
5.09144973754882812 7 1 127 115 80
6.02175807952880859 6 -1 101 93 71
6.00912094116210938 6 0 102 94 70
3 2 1 0
3 1 4 3
3 0 1 3
3 4 5 3
3 2 0 6
3 0 3 7
3 6 0 7
3 3 5 7
3 10 9 8
3 9 11 8
3 1 2 12
3 4 1 12
3 13 4 12
3 4 13 5
3 10 8 14
3 8 11 14
3 17 16 15
3 18 15 2
3 18 2 6
3 15 16 2
3 12 2 19
3 16 19 2
3 6 20 18
3 6 7 20
3 19 21 12
3 21 13 12
3 21 23 5
3 21 5 13
3 23 22 5
3 7 5 20
3 22 20 5
3 23 24 22
3 17 15 25
3 15 18 26
3 25 15 26
3 18 20 27
3 26 18 27
3 20 22 28
3 27 20 28
3 22 24 28
3 31 30 29
3 10 29 30
3 10 30 9
3 33 32 30
3 32 9 30
3 9 32 11
3 31 29 34
3 34 35 37
3 34 14 35
3 34 29 14
3 10 14 29
3 33 36 32
3 36 39 11
3 36 11 32
3 39 38 11
3 14 11 35
3 38 35 11
3 17 38 39
3 17 39 16
3 16 39 40
3 42 41 19
3 42 19 40
3 40 19 16
3 21 19 41
3 43 21 41
3 43 45 44
3 43 44 21
3 21 44 23
3 46 24 23
3 46 23 47
3 47 23 44
3 47 49 48
3 46 47 48
3 49 50 48
3 37 35 51
3 35 38 52
3 51 35 52
3 38 17 25
3 38 25 52
3 52 25 53
3 42 55 41
3 56 53 54
3 53 26 54
3 53 25 26
3 26 57 54
3 26 27 57
3 55 58 41
3 58 43 41
3 45 43 58
3 59 60 27
3 59 27 28
3 27 60 57
3 24 46 61
3 24 61 28
3 28 61 59
3 46 48 62
3 61 46 62
3 48 50 62
3 56 54 63
3 54 57 64
3 63 54 64
3 57 60 64
3 67 66 65
3 31 65 66
3 31 66 30
3 69 68 66
3 68 30 66
3 30 68 33
3 67 65 70
3 70 71 73
3 70 34 71
3 70 65 34
3 31 34 65
3 69 72 68
3 71 34 37
3 68 72 33
3 72 36 33
3 72 74 36
3 76 75 39
3 76 39 74
3 74 39 36
3 40 39 75
3 77 40 75
3 40 77 42
3 44 45 78
3 47 44 78
3 79 47 78
3 79 81 80
3 79 80 47
3 47 80 49
3 82 50 49
3 82 49 83
3 83 49 80
3 83 84 82
3 73 71 85
3 71 37 51
3 71 51 85
3 85 51 86
3 76 88 75
3 89 86 87
3 86 52 87
3 86 51 52
3 52 90 87
3 52 53 90
3 88 91 75
3 91 77 75
3 90 53 56
3 77 91 42
3 91 55 42
3 91 92 55
3 92 93 55
3 55 93 58
3 60 59 94
3 45 58 78
3 58 95 78
3 58 93 95
3 59 96 94
3 59 61 96
3 95 97 78
3 97 79 78
3 81 79 97
3 98 99 61
3 98 61 62
3 61 99 96
3 50 82 100
3 50 100 62
3 62 100 98
3 82 84 100
3 89 87 101
3 87 90 102
3 101 87 102
3 90 56 63
3 90 63 102
3 102 63 103
3 103 63 104
3 63 64 104
3 60 94 105
3 60 105 64
3 64 105 104
3 94 96 106
3 105 94 106
3 96 99 106
3 109 108 107
3 108 110 107
3 66 67 111
3 66 111 69
3 109 107 112
3 107 110 112
3 111 67 70
3 73 114 111
3 73 111 70
3 114 113 111
3 69 111 72
3 113 72 111
3 116 115 74
3 116 74 113
3 113 74 72
3 74 115 76
3 80 81 117
3 117 119 118
3 117 118 80
3 80 118 83
3 83 118 120
3 84 83 120
3 114 73 85
3 121 114 85
3 116 123 115
3 124 121 122
3 121 86 122
3 121 85 86
3 122 86 89
3 115 123 76
3 123 88 76
3 123 125 88
3 125 126 88
3 88 126 91
3 126 127 91
3 91 127 92
3 127 128 92
3 92 128 93
3 128 129 93
3 93 129 95
3 129 130 95
3 95 130 97
3 99 98 131
3 81 97 117
3 97 132 117
3 97 130 132
3 119 117 132
3 133 134 98
3 133 98 100
3 98 134 131
3 133 100 84
3 120 133 84
3 124 122 135
3 122 89 101
3 122 101 135
3 135 101 136
3 136 101 137
3 101 102 137
3 137 102 138
3 102 103 138
3 138 103 139
3 103 104 139
3 139 104 140
3 104 105 140
3 140 105 141
3 105 106 141
3 99 131 142
3 99 142 106
3 106 142 141
3 131 134 142
3 145 144 143
3 109 143 144
3 109 144 108
3 108 144 146
3 147 110 108
3 147 108 148
3 148 108 146
3 148 150 149
3 147 148 149
3 150 151 149
3 154 153 152
3 153 155 152
3 145 143 156
3 143 109 112
3 143 112 156
3 156 112 157
3 110 147 158
3 110 158 112
3 112 158 157
3 147 149 159
3 158 147 159
3 149 151 159
3 154 152 160
3 163 160 152
3 163 152 161
3 155 162 152
3 162 161 152
3 114 161 162
3 114 162 113
3 113 162 164
3 113 164 165
3 116 113 165
3 119 167 166
3 118 119 166
3 168 120 118
3 168 118 169
3 169 118 166
3 169 170 168
3 163 161 171
3 161 114 121
3 161 121 171
3 171 121 172
3 165 173 116
3 116 173 123
3 174 172 121
3 174 121 124
3 173 175 123
3 123 175 125
3 175 176 125
3 125 176 126
3 178 177 127
3 178 127 176
3 176 127 126
3 128 127 177
3 179 128 177
3 179 181 180
3 179 180 128
3 128 180 129
3 180 182 129
3 129 182 130
3 182 183 130
3 130 183 132
3 185 133 184
3 185 134 133
3 167 119 183
3 119 132 183
3 120 168 186
3 120 186 133
3 133 186 184
3 168 170 186
3 174 124 135
3 187 174 135
3 187 135 188
3 135 136 188
3 188 136 189
3 136 137 189
3 177 178 189
3 177 189 138
3 138 189 137
3 179 177 138
3 139 179 138
3 181 179 139
3 181 139 190
3 190 139 140
3 190 140 191
3 140 141 191
3 191 141 192
3 141 142 192
3 192 142 134
3 185 192 134
3 195 194 193
3 145 193 194
3 145 194 144
3 144 194 196
3 196 197 144
3 144 197 146
3 197 198 146
3 146 198 148
3 198 199 148
3 148 199 150
3 150 199 200
3 151 150 200
3 154 202 201
3 153 154 201
3 153 201 203
3 155 153 203
3 195 193 204
3 193 145 156
3 193 156 204
3 204 156 205
3 205 156 206
3 156 157 206
3 206 157 207
3 157 158 207
3 207 158 208
3 158 159 208
3 208 159 151
3 200 208 151
3 202 154 160
3 209 202 160
3 203 210 155
3 155 210 162
3 211 209 160
3 211 160 163
3 213 212 164
3 213 164 210
3 210 164 162
3 164 212 165
3 166 167 214
3 214 216 215
3 214 215 166
3 166 215 169
3 169 215 217
3 170 169 217
3 211 163 171
3 218 211 171
3 213 220 212
3 221 218 219
3 218 172 219
3 218 171 172
3 219 172 174
3 212 220 165
3 220 173 165
3 220 222 173
3 222 223 173
3 173 223 175
3 225 224 176
3 225 176 223
3 223 176 175
3 176 224 178
3 180 181 226
3 226 228 227
3 226 227 180
3 180 227 182
3 227 229 182
3 182 229 183
3 185 184 230
3 167 183 214
3 183 231 214
3 183 229 231
3 216 214 231
3 232 233 184
3 232 184 186
3 184 233 230
3 232 186 170
3 217 232 170
3 221 219 234
3 219 174 187
3 219 187 234
3 234 187 235
3 235 187 236
3 187 188 236
3 224 225 236
3 224 236 189
3 189 236 188
3 224 189 178
3 226 181 190
3 228 226 190
3 228 190 237
3 237 190 191
3 237 191 238
3 191 192 238
3 185 230 239
3 185 239 192
3 192 239 238
3 230 233 239
3 195 241 240
3 194 195 240
3 240 242 194
3 194 242 196
3 242 243 196
3 196 243 197
3 243 244 197
3 197 244 198
3 244 245 198
3 198 245 199
3 199 245 246
3 200 199 246
3 202 248 247
3 201 202 247
3 201 247 249
3 203 201 249
3 241 195 204
3 250 241 204
3 250 204 251
3 204 205 251
3 251 205 252
3 205 206 252
3 252 206 253
3 206 207 253
3 253 207 254
3 207 208 254
3 254 208 200
3 246 254 200
3 248 202 209
3 255 248 209
3 249 256 203
3 203 256 210
3 257 255 209
3 257 209 211
3 210 256 258
3 213 210 258
3 216 260 259
3 215 216 259
3 215 259 261
3 217 215 261
3 257 211 218
3 262 257 218
3 258 263 213
3 213 263 220
3 264 262 218
3 264 218 221
3 263 265 220
3 220 265 222
3 265 266 222
3 222 266 223
3 223 266 267
3 225 223 267
3 228 269 268
3 227 228 268
3 268 270 227
3 227 270 229
3 270 271 229
3 229 271 231
3 273 232 272
3 273 233 232
3 260 216 271
3 216 231 271
3 272 232 217
3 261 272 217
3 264 221 234
3 274 264 234
3 274 234 275
3 234 235 275
3 275 235 276
3 235 236 276
3 276 236 225
3 267 276 225
3 269 228 237
3 277 269 237
3 277 237 278
3 237 238 278
3 278 238 279
3 238 239 279
3 279 239 233
3 273 279 233
3 240 241 280
3 280 282 281
3 280 281 240
3 240 281 242
3 281 283 242
3 242 283 243
3 283 284 243
3 243 284 244
3 284 285 244
3 244 285 245
3 245 285 286
3 246 245 286
3 248 288 287
3 247 248 287
3 247 287 289
3 249 247 289
3 280 241 250
3 282 280 250
3 282 250 290
3 290 250 251
3 290 251 291
3 251 252 291
3 291 252 292
3 252 253 292
3 292 253 293
3 253 254 293
3 293 254 246
3 286 293 246
3 288 248 255
3 294 288 255
3 289 295 249
3 249 295 256
3 296 294 255
3 296 255 257
3 297 258 256
3 297 256 298
3 298 256 295
3 298 299 297
3 302 301 300
3 260 300 301
3 260 301 259
3 259 301 303
3 259 303 304
3 261 259 304
3 296 257 262
3 305 296 262
3 258 297 263
3 262 264 307
3 262 307 305
3 307 264 306
3 309 307 306
3 299 308 297
3 308 263 297
3 308 265 263
3 308 310 265
3 265 310 266
3 311 267 266
3 311 266 312
3 312 266 310
3 312 313 311
3 316 315 314
3 269 314 315
3 269 315 268
3 268 315 317
3 317 318 268
3 268 318 270
3 321 319 320
3 318 302 271
3 318 271 270
3 271 302 300
3 300 260 271
3 320 319 272
3 320 272 322
3 272 319 273
3 322 272 261
3 304 322 261
3 306 264 274
3 309 306 274
3 309 274 323
3 323 274 275
3 323 275 324
3 275 276 324
3 267 311 325
3 267 325 276
3 276 325 324
3 311 313 325
3 316 314 326
3 314 269 277
3 314 277 326
3 326 277 327
3 327 277 328
3 277 278 328
3 319 321 328
3 319 328 279
3 279 328 278
3 319 279 273
3 281 282 329
3 329 331 330
3 329 330 281
3 281 330 283
3 333 332 284
3 333 284 330
3 330 284 283
3 285 284 332
3 334 285 332
3 285 334 286
3 287 288 335
3 287 335 289
3 329 282 290
3 331 329 290
3 331 290 336
3 336 290 291
3 332 333 336
3 332 336 292
3 292 336 291
3 334 332 292
3 293 334 292
3 334 293 286
3 335 288 294
3 295 289 335
3 295 335 337
3 294 296 335
3 296 337 335
3 337 339 338
3 337 338 295
3 295 338 298
3 298 338 340
3 299 298 340
3 302 342 341
3 301 302 341
3 344 343 303
3 344 303 341
3 341 303 301
3 303 343 304
3 337 296 305
3 339 337 305
3 339 305 345
3 345 305 307
3 340 346 299
3 299 346 308
3 347 345 307
3 347 307 309
3 346 348 308
3 308 348 310
3 348 349 310
3 310 349 312
3 350 313 312
3 350 312 351
3 351 312 349
3 351 353 352
3 350 351 352
3 316 352 353
3 316 353 315
3 315 353 354
3 354 355 315
3 315 355 317
3 355 356 317
3 317 356 318
3 358 320 357
3 358 321 320
3 342 302 356
3 302 318 356
3 343 344 357
3 343 357 322
3 322 357 320
3 343 322 304
3 347 309 323
3 359 347 323
3 359 323 360
3 323 324 360
3 360 324 361
3 324 325 361
3 313 350 362
3 313 362 325
3 325 362 361
3 350 352 363
3 362 350 363
3 352 316 326
3 352 326 363
3 363 326 364
3 364 326 365
3 326 327 365
3 365 327 366
3 327 328 366
3 366 328 321
3 358 366 321
3 330 331 367
3 330 367 333
3 370 369 368
3 369 371 368
3 367 331 336
3 367 336 333
3 370 368 372
3 373 338 368
3 373 368 371
3 338 339 368
3 372 368 374
3 339 374 368
3 375 340 338
3 375 338 376
3 376 338 373
3 376 377 375
3 380 379 378
3 342 378 379
3 342 379 341
3 341 379 381
3 341 381 382
3 344 341 382
3 374 339 345
3 383 374 345
3 340 375 346
3 345 347 385
3 345 385 383
3 385 347 384
3 387 385 384
3 377 386 375
3 386 346 375
3 386 348 346
3 386 388 348
3 348 388 349
3 388 389 349
3 349 389 351
3 389 390 351
3 351 390 353
3 390 391 353
3 353 391 354
3 391 392 354
3 354 392 355
3 395 393 394
3 392 380 356
3 392 356 355
3 356 380 378
3 378 342 356
3 394 393 357
3 394 357 396
3 357 393 358
3 396 357 344
3 382 396 344
3 384 347 359
3 387 384 359
3 387 359 397
3 397 359 360
3 397 360 398
3 360 361 398
3 398 361 399
3 361 362 399
3 399 362 400
3 362 363 400
3 400 363 401
3 363 364 401
3 401 364 402
3 364 365 402
3 393 395 402
3 393 402 366
3 366 402 365
3 393 366 358
3 369 370 403
3 404 371 369
3 404 369 405
3 403 406 369
3 406 405 369
3 405 407 404
3 403 370 372
3 403 409 406
3 403 408 409
3 403 372 408
3 374 408 372
3 371 404 373
3 411 409 408
3 407 410 404
3 410 373 404
3 410 376 373
3 412 377 376
3 412 376 413
3 413 376 410
3 413 415 414
3 412 413 414
3 415 416 414
3 419 418 417
3 418 421 420
3 417 418 420
3 380 420 421
3 380 421 379
3 379 421 422
3 424 423 381
3 424 381 422
3 422 381 379
3 381 423 382
3 408 374 383
3 411 408 383
3 411 383 425
3 425 383 385
3 377 412 386
3 385 387 427
3 385 427 425
3 427 387 426
3 427 426 429
3 429 426 428
3 386 412 414
3 386 414 388
3 431 429 428
3 416 430 414
3 430 388 414
3 430 389 388
3 430 432 389
3 389 432 390
3 435 433 434
3 432 419 391
3 432 391 390
3 391 419 417
3 434 433 437
3 437 433 436
3 391 417 420
3 391 420 392
3 420 380 392
3 437 436 394
3 437 394 438
3 394 436 395
3 423 424 438
3 423 438 396
3 396 438 394
3 423 396 382
3 426 387 397
3 428 426 397
3 398 428 397
3 431 428 398
3 431 398 439
3 439 398 399
3 439 399 440
3 399 400 440
3 433 435 440
3 433 440 401
3 401 440 400
3 436 433 401
3 402 436 401
3 436 402 395
3 405 406 441
3 442 407 405
3 442 405 443
3 441 444 405
3 444 443 405
3 443 445 442
3 441 406 409
3 441 447 444
3 441 446 447
3 441 409 446
3 411 446 409
3 407 442 410
3 446 448 445
3 446 445 447
3 448 413 445
3 442 445 410
3 413 410 445
3 448 450 449
3 448 449 413
3 413 449 415
3 451 416 415
3 451 415 452
3 452 415 449
3 452 454 453
3 451 452 453
3 419 453 454
3 419 454 418
3 418 454 455
3 457 456 421
3 457 421 455
3 455 421 418
3 422 421 456
3 458 422 456
3 422 458 424
3 446 411 425
3 448 446 425
3 427 448 425
3 450 448 427
3 450 427 459
3 459 427 429
3 416 451 430
3 429 431 461
3 429 461 459
3 461 431 460
3 461 460 463
3 463 460 462
3 430 451 453
3 430 453 432
3 453 419 432
3 463 462 434
3 463 434 464
3 434 462 435
3 456 457 464
3 456 464 437
3 437 464 434
3 458 456 437
3 438 458 437
3 458 438 424
3 460 431 439
3 462 460 439
3 440 462 439
3 462 440 435
3 443 444 465
3 443 465 445
3 468 467 466
3 467 470 469
3 466 467 469
3 470 471 469
3 465 444 447
3 465 447 445
3 449 450 472
3 452 449 468
3 452 468 466
3 449 472 468
3 474 468 473
3 472 473 468
3 474 473 476
3 476 473 475
3 452 466 469
3 452 469 454
3 475 477 471
3 475 471 476
3 477 455 471
3 469 471 454
3 455 454 471
3 455 477 457
3 472 450 459
3 473 472 459
3 461 473 459
3 475 473 461
3 463 475 461
3 477 475 463
3 464 477 463
3 477 464 457
3 467 468 478
3 470 467 478
3 479 470 478
3 470 479 471
3 478 468 474
3 479 478 474
3 476 479 474
3 479 476 471
