ply
format ascii 1.0
element vertex 528
property float x
property float y
property float z
property uchar red
property uchar green
property uchar blue
element face 1052
property list uchar int vertex_indices
end_header
-7.02214241027832031 6 -1 205 140 106
-7 5.97798681259155273 -1 22 19 15
-7 6 -1.3743976354598999 113 103 95
-7.01908302307128906 6 0 206 131 102
-7 5.98102807998657227 0 21 17 14
-7 6 0.290252864360809326 97 87 80
-7 6.02691841125488281 -1 95 88 82
-7 6.02318572998046875 0 97 87 80
-6.03589296340942383 6 -4 188 147 117
-6 5.96848154067993164 -4 29 26 24
-6 6 -4.05870962142944336 156 135 120
-6 6 -3.85442972183227539 89 87 86
-6.97379016876220703 6 -1 95 88 82
-6.97742319107055664 6 0 97 87 80
-6.01168203353881836 6 3 194 94 93
-6 5.98971366882324219 3 20 14 13
-6 6 2.9519035816192627 37 33 32
-6 6 3.01875495910644531 96 79 76
-6 6.03861427307128906 -4 89 87 86
-6.11713027954101562 7 -2 208 161 133
-6 6.83524417877197266 -2 10 9 9
-6 7 -2.3516700267791748 154 145 137
-6.21373510360717773 7 -1 199 154 129
-6 6.79083585739135742 -1 29 27 26
-6.21137094497680664 7 0 199 145 124
-6 6.79313373565673828 0 27 25 23
-6.109283447265625 7 1 210 138 124
-6 6.84672880172729492 1 5 4 4
-6 7 1.31966185569763184 126 116 112
-6 6.01255035400390625 3 96 79 76
-6 7.11750698089599609 -2 123 122 121
-6 7.20804595947265625 -1 107 107 106
-6 7.2057642936706543 0 108 106 105
-6 7.10963153839111328 1 126 116 112
-5.06087160110473633 6 -5 156 135 120
-5 5.97021055221557617 -5 55 50 46
-5 6 -5.06127357482910156 152 134 124
-5.95053195953369141 6 -4 89 87 86
-5 6 -4.94869184494018555 64 62 60
-5.98398494720458984 6 3 96 79 76
-5.00989103317260742 6 4 165 97 95
-5 5.99507999420166016 4 43 30 27
-5 6 3.99156522750854492 6 5 5
-5 6 4.00984573364257812 74 64 63
-5 6.05013084411621094 -5 64 62 60
-5.13898420333862305 7 -4 193 163 143
-5 6.8270263671875 -4 16 16 15
-5 7 -4.16950416564941406 176 158 146
-5.5420074462890625 7 -3 154 145 137
-5 6.79938316345214844 -3 78 72 67
-5 6.92268705368041992 -2 117 113 109
-5.31033468246459961 7 -1 107 107 106
-5 7 -1.50710678100585938 23 21 19
-5.31984424591064453 7 0 108 106 105
-5 6.92940378189086914 1 112 109 107
-5 7 0.539312183856964111 6 5 5
-5.51380825042724609 7 2 158 125 117
-5 6.80683612823486328 2 70 60 54
-5.11797046661376953 7 3 198 118 115
-5 6.85377264022827148 3 6 5 5
-5 6.00817251205444336 4 74 64 63
-5 7 3.14229774475097656 124 110 108
-5 7.12310981750488281 -4 117 113 109
-5 7.3326106071472168 -3 62 57 51
-5 7.43631315231323242 -2 23 21 19
-5.08454561233520508 8 -1 210 185 173
-5 7.56139612197875977 -1 4 4 4
-5 8 -1.38354218006134033 162 161 160
-5.08134174346923828 8 0 210 180 170
-5 7.57910919189453125 0 6 5 5
-5 7.39418601989746094 1 28 26 25
-5 8 0.356337696313858032 149 149 149
-5 7.31732463836669922 2 69 67 66
-5 7.10477542877197266 3 124 110 108
-5 8.9037017822265625 -1 148 145 143
-5 8.90021514892578125 0 149 149 149
-4.07126140594482422 6 -6 152 134 124
-4 5.9616236686706543 -6 40 38 37
-4 6 -6.04386615753173828 174 140 125
-4.94842433929443359 6 -5 64 62 60
-4 6 -5.93991613388061523 78 74 71
-4.99159622192382812 6 4 74 64 63
-4.00942611694335938 6 5 163 108 97
-4 5.99484157562255859 5 26 18 18
-4 6 4.99195480346679688 10 9 8
-4 6 5.00584316253662109 90 77 77
-4 6.04708194732666016 -6 78 74 71
-4.17303800582885742 7 -5 176 158 146
-4 6.82263708114624023 -5 22 20 19
-4 7 -5.14283943176269531 182 159 146
-4 6.836395263671875 -4 105 103 101
-4.55629634857177734 7 -3 62 57 51
-4 7 -3.60568952560424805 36 31 26
-4.89212942123413086 7 -2 23 21 19
-4.90185213088989258 7 1 28 26 25
-4.5783543586730957 7 2 69 67 66
-4 6.84807729721069336 3 93 92 91
-4 7 2.63645029067993164 16 15 15
-4.13961648941040039 7 4 184 125 116
-4 6.85697078704833984 4 10 9 8
-4 6.00628757476806641 5 90 77 77
-4 7 4.11520719528198242 120 110 109
-4 7.12609100341796875 -5 111 102 95
-4 7.39599132537841797 -4 36 31 26
-4.31077098846435547 8 -3 185 175 167
-4 7.58084917068481445 -3 24 21 18
-4 8 -3.42086434364318848 168 163 159
-4.75754690170288086 8 -2 162 161 160
-4 7.67200422286987305 -2 64 61 58
-4 7.69979333877563477 -1 83 82 81
-4 7.70051956176757812 0 81 81 80
-4.74164104461669922 8 1 163 152 148
-4 7.67561864852905273 1 59 59 59
-4.29442071914672852 8 2 189 150 147
-4 7.60442495346069336 2 16 15 15
-4 7.36077976226806641 3 45 43 42
-4 8 2.39271163940429688 130 124 123
-4 7.10256385803222656 4 120 110 109
-4 8.96724700927734375 -3 126 112 99
-4 8.97922229766845703 -2 93 79 66
-4 8.97994709014892578 -1 76 64 53
-4 8.97991752624511719 0 77 65 56
-4 8.97907066345214844 1 96 84 77
-4 8.96564292907714844 2 130 124 123
-3.03606057167053223 5 -1 255 236 213
-3 4.9634699821472168 -1 255 227 180
-3 5 -1.16109645366668701 255 233 203
-3.0255424976348877 5 0 255 237 215
-3 4.97412538528442383 0 255 227 182
-3 5 0.103909999132156372 255 234 206
-3.818450927734375 6 -6 78 74 71
-3 5.01991796493530273 -1 255 233 203
-3 5.01412010192871094 0 255 234 206
-3.97629070281982422 6 5 90 77 77
-3 6.79600715637207031 -5 91 90 90
-3 7 -5.5596156120300293 137 128 122
-3.60292601585388184 7 -4 36 31 26
-3 7 -4.54890727996826172 50 41 34
-3.63824939727783203 7 3 45 43 42
-3 6.80936527252197266 4 76 73 73
-3 7 3.58378767967224121 20 19 18
-3 7 4.50174951553344727 61 56 55
-3 7.33968114852905273 -5 50 41 34
-3.4235377311706543 8 -4 168 163 159
-3 7.57535743713378906 -4 30 26 22
-3 8 -4.31600284576416016 173 165 160
-3 7.69824552536010742 -3 92 85 78
-3 7.73363876342773438 -2 131 105 81
-3 7.76793622970581055 -1 149 114 82
-3 7.76909732818603516 0 147 113 82
-3 7.73587322235107422 1 125 100 81
-3 7.70186758041381836 2 83 77 74
-3.39065909385681152 8 3 174 148 148
-3 7.60833883285522461 3 20 19 18
-3 7.31223201751708984 4 61 56 55
-3 8 3.29075956344604492 126 115 114
-3 8.96759223937988281 -4 119 100 83
-3 8.98000717163085938 -3 67 54 40
-3 8.97905254364013672 -2 30 24 17
-3 8.97519779205322266 -1 11 9 7
-3 8.97506618499755859 0 13 10 8
-3 8.97888851165771484 1 34 27 23
-3 8.97986125946044922 2 74 60 54
-3 8.96535587310791016 3 126 115 114
-2.50227499008178711 5 -2 255 233 203
-2 4.86393928527832031 -2 255 220 160
-2 5 -2.51965451240539551 255 230 199
-2 4.86630582809448242 -1 255 216 146
-2 4.87207651138305664 0 255 216 148
-2.41898918151855469 5 1 255 235 212
-2 4.88608598709106445 1 255 219 166
-2 5 1.40917563438415527 255 231 202
-2 5.14452075958251953 -2 255 229 193
-2 5.30474424362182617 -1 255 227 187
-2 5.29127025604248047 0 255 228 190
-2 5.12096548080444336 1 255 231 202
-2.38745856285095215 7 -6 137 128 122
-2 6.81765365600585938 -6 34 31 28
-2 7 -6.12931680679321289 180 174 172
-2 6.91505289077758789 -5 137 110 89
-2 7 -4.88135290145874023 3 3 2
-2 6.93508481979370117 4 121 93 84
-2 7 3.90981531143188477 66 62 61
-2.29395008087158203 7 5 149 130 126
-2 6.85952234268188477 5 19 17 17
-2 7 5.10033607482910156 111 108 108
-2 7.12946605682373047 -6 98 81 71
-2 7.48544979095458984 -5 3 3 2
-2 7.6692357063293457 -4 78 72 67
-2 8 -4.77597427368164062 142 117 101
-2 7.73279094696044922 -3 139 103 72
-2 7.84495210647583008 -2 176 123 76
-2.06798362731933594 8 -1 11 9 7
-2 8 -1.1088181734085083 16 13 9
-2.0768885612487793 8 0 13 10 8
-2 7.85070180892944336 1 169 118 77
-2 8 0.126236960291862488 33 27 22
-2 7.73650646209716797 2 128 94 72
-2 7.67764472961425781 3 66 62 61
-2 7.35930871963500977 4 16 14 14
-2 8 3.72909712791442871 87 68 64
-2 7.10079717636108398 5 111 108 108
-2 8.97933197021484375 -4 79 60 44
-2 8.97911357879638672 -3 22 17 12
-2 8.95916366577148438 -2 16 13 9
-2 8.95752906799316406 1 11 9 7
-2 8.97884082794189453 2 30 23 20
-2 8.97898101806640625 3 87 68 64
-1.25641274452209473 5 -3 255 230 199
-1 4.93869924545288086 -3 255 222 174
-1 5 -3.06131172180175781 255 227 198
-1 4.85959863662719727 -2 255 213 143
-1 4.89718770980834961 -1 255 209 128
-1 4.90214252471923828 0 255 208 130
-1 4.87690258026123047 1 255 211 148
-1.03364324569702148 5 2 255 234 213
-1 4.99192047119140625 2 255 222 185
-1 5 2.00790238380432129 255 233 213
-1.69965195655822754 6 -7 84 74 69
-1 5.95728158950805664 -7 58 58 57
-1 6 -7.04305648803710938 167 163 162
-1 6 -6.94910955429077148 60 49 44
-1 5.03335952758789062 -3 255 229 197
-1 5.32044315338134766 -2 255 225 186
-1 5.87752676010131836 -1 255 222 178
-1 5.83348941802978516 0 255 223 181
-1 5.28002643585205078 1 255 227 195
-1 5.00441503524780273 2 255 233 213
-1.0569615364074707 6 6 100 94 92
-1 5.99637031555175781 6 40 34 32
-1 6 5.99568271636962891 45 42 42
-1 6 6.00364589691162109 76 75 75
-1 6.05245637893676758 -7 60 49 44
-1 6.7776799201965332 -6 61 56 54
-1 7 -6.22789335250854492 163 148 143
-1.44031858444213867 7 -5 3 3 2
-1 7 -5.26344966888427734 75 57 46
-1.58624017238616943 7 4 16 14 14
-1 6.802764892578125 5 45 42 42
-1 7 4.35353326797485352 9 8 8
-1 6.00442266464233398 6 76 75 75
-1 7 5.20109748840332031 88 77 76
-1 7.22110700607299805 -6 75 57 46
-1.44695389270782471 8 -5 142 117 101
-1 7.47873783111572266 -5 22 18 14
-1 8 -5.09954929351806641 179 153 142
-1 7.69731235504150391 -4 105 81 63
-1 7.76526880264282227 -3 164 110 65
-1.09326088428497314 8 -2 16 13 9
-1 8 -2.05721735954284668 3 2 1
-1.13712596893310547 8 1 11 9 7
-1 7.77105379104614258 2 153 99 67
-1 8 1.08464169502258301 37 30 26
-1 7.70236301422119141 3 92 68 60
-1.31087887287139893 8 4 151 146 145
-1 7.63786077499389648 4 9 8 8
-1 7.19619941711425781 5 88 77 76
-1 8 4.07044601440429688 131 110 108
-1 8.91705226898193359 -5 121 91 72
-1 8.98004150390625 -4 54 39 26
-1 8.97549343109130859 -3 3 2 1
-1 8.97484111785888672 2 4 3 3
-1 8.97984027862548828 3 63 45 42
-1 8.88645553588867188 4 131 110 108
0 4.93695068359375 -3 255 220 175
0 5 -3.06306052207946777 255 220 187
0 4.85865259170532227 -2 255 209 142
0 4.89637517929077148 -1 255 203 127
0 4.90132808685302734 0 255 202 129
0 4.87595319747924805 1 255 206 149
0 4.99016857147216797 2 255 219 188
0 5 2.00961589813232422 255 222 197
0 5.95680046081542969 -7 61 60 60
0 6 -7.04354143142700195 165 157 155
0 6 -6.9485316276550293 55 43 38
0 5.03430604934692383 -3 255 212 166
0 5.32266044616699219 -2 255 213 165
0 5.88477087020874023 -1 255 216 172
0 5.84071588516235352 0 255 218 177
0 5.28223705291748047 1 255 219 184
0 5.0053715705871582 2 255 222 197
0 5.99585723876953125 6 45 44 43
0 6 5.9950714111328125 51 47 47
0 6 6.00416135787963867 70 67 66
0 6.05305242538452148 -7 55 43 38
0 6.77731132507324219 -6 67 61 58
0 7 -6.22827434539794922 158 132 124
0 7 -5.26187324523925781 69 49 39
0 6.80238103866577148 5 51 47 47
0 7 4.35197925567626953 15 13 13
0 6.00504875183105469 6 70 67 66
0 7 5.20149135589599609 83 68 67
0 7.22147321701049805 -6 69 49 39
0 7.4758000373840332 -5 28 22 17
0 8 -5.1000666618347168 173 136 122
0 7.69719743728637695 -4 111 77 54
0 7.76508235931396484 -3 170 106 59
0 8 -2.05574655532836914 9 6 4
0 7.77086019515991211 2 159 95 60
0 8 1.08318400382995605 43 33 29
0 7.70224094390869141 3 98 63 52
0 7.63496828079223633 4 15 13 13
0 7.19658088684082031 5 83 68 67
0 8 4.07097911834716797 126 96 94
0 8.91745471954345703 -5 116 81 61
0 8.98004531860351562 -4 49 33 22
0 8.97551441192626953 -3 9 6 4
0 8.97486400604248047 2 0 0 0
0 8.97984504699707031 3 58 39 36
0 8.88722610473632812 4 126 96 94
0.267816334962844849 5 -3 255 212 166
1 4.86030435562133789 -2 255 216 167
1 5 -2.53386354446411133 255 205 152
1 4.86346435546875 -1 255 207 148
1 4.8692317008972168 0 255 204 148
1 4.88244342803955078 1 255 208 168
0.0415723323822021484 5 2 255 222 197
1 5 1.422507643699646 255 205 163
0.71998298168182373 6 -7 55 43 38
1 5.14838743209838867 -2 255 203 147
1 5.31138896942138672 -1 255 203 149
1 5.29790830612182617 0 255 203 154
1 5.12483882904052734 1 255 205 163
0.0661563277244567871 6 6 70 67 66
1 6.81579256057739258 -6 42 37 34
1 7 -6.13057279586791992 174 143 132
0.435440689325332642 7 -5 28 22 17
1 6.91398525238037109 -5 147 95 61
1 7 -4.87979030609130859 6 4 3
0.580651819705963135 7 4 15 13 13
1 6.93395471572875977 4 137 73 61
1 7 3.90819191932678223 82 49 43
1 6.85761451721191406 5 35 31 31
1 7 5.10165071487426758 95 77 73
1 7.13072347640991211 -6 91 65 50
0.451879322528839111 8 -5 116 81 61
1 7.49243354797363281 -5 6 4 3
1 7.66865158081054688 -4 91 62 43
1 8 -4.77869606018066406 132 90 66
1 7.73243474960327148 -3 153 91 49
0.0904856547713279724 8 -2 48 37 28
1 7.84401702880859375 -2 192 112 59
1 8 -1.10169553756713867 32 23 17
0.134203150868415833 8 1 43 33 29
1 7.84975004196166992 1 185 106 61
1 8 0.11896660178899765 49 35 28
1 7.73613166809082031 2 144 79 50
1 7.67704343795776367 3 82 49 43
0.315026789903640747 8 4 126 96 94
1 7.36619329452514648 4 0 0 0
1 8 3.73163938522338867 71 43 41
1 7.10211849212646484 5 95 77 73
1 8.9793548583984375 -4 67 44 28
1 8.97913837432861328 -3 8 6 4
1 8.95941829681396484 -2 32 23 17
1 8.95780849456787109 1 27 19 16
1 8.97886943817138672 2 14 9 8
1 8.97900772094726562 3 71 43 41
1.52093243598937988 5 -2 255 203 147
2 4.95472145080566406 -1 255 212 156
2 5 -1.19982683658599854 255 200 137
2 4.96537351608276367 0 255 212 161
1.43676888942718506 5 1 255 205 163
2 5 0.13915736973285675 255 198 141
2 5.02467107772827148 -1 255 198 137
2 5.01888275146484375 0 255 198 141
1.39292812347412109 7 -6 91 65 50
2 6.79482221603393555 -5 99 66 43
2 7 -5.56436061859130859 130 94 74
2 7 -4.54528474807739258 41 30 22
2 6.80810976028442383 4 97 50 45
2 7 3.58015561103820801 43 28 27
1.29906916618347168 7 5 95 77 73
2 7 4.50631618499755859 37 26 25
2 7.34218454360961914 -5 41 30 22
2 7.57146501541137695 -4 42 31 24
2 8 -4.31869697570800781 164 113 86
2 7.69766521453857422 -3 105 65 35
2 7.73303890228271484 -2 146 85 42
1.06347000598907471 8 -1 51 37 28
2 7.76698923110961914 -1 165 95 47
1.07238805294036865 8 0 49 35 28
2 7.7681431770324707 0 164 93 48
2 7.73525476455688477 1 143 78 43
2 7.70126104354858398 2 102 55 37
2 7.60447216033935547 3 43 28 27
2 7.31475400924682617 4 37 26 25
2 8 3.29344534873962402 102 58 57
2 8.96783161163330078 -4 108 72 46
2 8.98002815246582031 -3 55 37 23
2 8.979095458984375 -2 16 11 7
2 8.97530364990234375 -1 4 3 2
2 8.97517490386962891 0 4 3 2
2 8.97893524169921875 1 15 10 8
2 8.97988700866699219 2 52 31 27
2 8.96563911437988281 3 102 58 57
2.0448613166809082 5 -1 255 198 137
2.03430795669555664 5 0 255 198 141
2.80283069610595703 6 -6 6 5 4
3 5.95823907852172852 -6 42 33 26
3 6 -6.04775762557983398 173 138 121
3 6 -5.93452930450439453 75 58 47
2.95993876457214355 6 5 1 1 1
3 5.99126577377319336 5 45 28 28
3 6 4.98636007308959961 30 19 19
3 6 5.00989770889282227 68 55 53
3 6.0512700080871582 -6 75 58 47
3 6.81828546524047852 -5 28 21 16
3 7 -5.14624547958374023 178 131 106
2.59789538383483887 7 -4 42 31 24
3 6.83452415466308594 -4 112 71 37
3 7 -3.59990644454956055 29 22 16
2.63316535949707031 7 3 43 28 27
3 6.84611749649047852 3 109 56 38
3 7 2.63061404228210449 33 20 17
3 6.85253047943115234 4 30 19 19
3 6.01065349578857422 5 68 55 53
3 7 4.11870479583740234 99 65 63
3 7.12903833389282227 -5 105 75 52
2.42822837829589844 8 -4 108 72 46
3 7.40180397033691406 -4 29 22 16
3 7.57540607452392578 -3 33 23 15
3 8 -3.42633438110351562 160 107 71
3 7.67063045501708984 -2 75 47 24
3 7.69896650314331055 -1 96 57 27
3 7.69968509674072266 0 95 55 27
3 7.67422723770141602 1 73 42 25
3 7.59900712966918945 2 33 20 17
2.39524984359741211 8 3 102 58 57
3 7.36656427383422852 3 26 18 18
3 8 2.39808201789855957 112 63 55
3 7.10563325881958008 4 99 65 63
3 8.96758937835693359 -3 116 77 47
3 8.97927761077880859 -2 82 55 33
3 8.97997951507568359 -1 63 42 27
3 8.97995090484619141 0 63 40 28
3 8.97912979125976562 1 80 49 37
3 8.96603012084960938 2 112 63 55
3.07782578468322754 6 -6 75 58 47
3.94149374961853027 6 -5 28 21 16
4 5.96623373031616211 -5 55 38 24
4 6 -5.06964492797851562 154 115 90
4 6 -4.94171142578125 64 50 39
3.98443269729614258 6 4 30 19 19
4 5.99089336395263672 4 54 29 24
4 6 3.98435235023498535 18 11 9
3.01601600646972656 6 5 68 55 53
4 6 4.01827287673950195 59 44 44
3.1774909496307373 7 -5 105 75 52
4 6.05694723129272461 -5 64 50 39
4 6.82141971588134766 -4 18 13 9
4 7 -4.17498493194580078 175 124 90
3.55055761337280273 7 -3 33 23 15
4 6.79722356796264648 -3 82 51 25
3.88747549057006836 7 -2 75 47 24
4 6.91942310333251953 -2 123 74 34
4 7 -1.4834747314453125 18 14 10
3.89713716506958008 7 1 73 42 25
4 6.92607688903808594 1 121 68 35
4 7 0.514967679977416992 2 1 1
3.57260584831237793 7 2 33 20 17
4 6.80460548400878906 2 79 43 25
4 6.84807729721069336 3 18 11 9
3.14411568641662598 7 4 99 65 63
4 6.01516008377075195 4 59 44 44
4 7 3.14782547950744629 110 65 63
4 7.12691640853881836 -4 115 80 52
3.31493234634399414 8 -3 116 77 47
4 7.33712339401245117 -3 59 43 29
3.76537299156188965 8 -2 82 55 33
4 7.4571537971496582 -2 18 14 10
4 7.53515434265136719 -1 2 1 1
4 8 -1.40642118453979492 155 100 63
4 7.55291223526000977 0 2 1 1
3.74928712844848633 8 1 80 49 37
4 7.41492748260498047 1 17 13 11
4 8 0.378437072038650513 139 84 59
3.29857397079467773 8 2 112 63 55
4 7.32185554504394531 2 56 38 33
4 7.1087031364440918 3 110 65 63
4 8.90841579437255859 -1 140 88 57
4 8.90528106689453125 0 139 84 59
4.06931638717651367 6 -5 64 50 39
4.94206476211547852 6 -4 18 13 9
5 5.96311044692993164 -4 24 16 10
5 6 -4.06890153884887695 164 120 87
5 6 -3.82880091667175293 94 70 50
4.97530937194824219 6 3 18 11 9
5 5.98415088653564453 3 23 13 10
5 6 2.92554283142089844 33 25 22
4.01839113235473633 6 4 59 44 44
5 6 3.02897286415100098 90 60 58
4.14348554611206055 7 -4 115 80 52
5 6.04524421691894531 -4 94 70 50
4.55165576934814453 7 -3 59 43 29
5 6.82836198806762695 -2 7 5 3
5 7 -2.36730694770812988 158 107 68
4.29547595977783203 7 -1 2 1 1
5 6.78670501708984375 -1 28 18 10
4.3050074577331543 7 0 2 1 1
5 6.78898811340332031 0 28 17 10
5 6.83980035781860352 1 7 4 3
4.52327775955200195 7 2 56 38 33
5 7 1.33494722843170166 122 75 59
4.12256336212158203 7 3 110 65 63
5 6.01935815811157227 3 90 60 58
5 7.12220096588134766 -2 125 85 53
4.08933210372924805 8 -1 140 88 57
5 7.21214723587036133 -1 107 72 47
4.08614397048950195 8 0 139 84 59
5 7.20988082885742188 0 106 69 49
5 7.11438894271850586 1 122 75 59
5.04207372665405273 6 -4 94 70 50
5.9661107063293457 6 -1 28 18 10
6 5.97154331207275391 -1 12 8 4
6 6 -1.48743879795074463 124 87 59
5.96970987319946289 6 0 28 17 10
6 5.97455215454101562 0 12 7 4
6 6 0.392066448926925659 104 71 54
5.01802587509155273 6 3 90 60 58
5.12187910079956055 7 -2 125 85 53
5.21815156936645508 7 -1 107 72 47
6 6.03484201431274414 -1 105 73 52
5.21579980850219727 7 0 106 69 49
6 6.03113937377929688 0 104 71 54
5.11409091949462891 7 1 122 75 59
6.02863979339599609 6 -1 105 73 52
6.02561140060424805 6 0 104 71 54
3 2 1 0
3 1 4 3
3 0 1 3
3 4 5 3
3 2 0 6
3 0 3 7
3 6 0 7
3 3 5 7
3 10 9 8
3 9 11 8
3 1 2 12
3 4 1 12
3 13 4 12
3 4 13 5
3 16 15 14
3 15 17 14
3 10 8 18
3 8 11 18
3 21 20 19
3 22 19 2
3 22 2 6
3 19 20 2
3 12 2 23
3 20 23 2
3 6 24 22
3 6 7 24
3 23 25 12
3 25 13 12
3 25 27 5
3 25 5 13
3 27 26 5
3 7 5 24
3 26 24 5
3 27 28 26
3 16 14 29
3 14 17 29
3 21 19 30
3 19 22 31
3 30 19 31
3 22 24 32
3 31 22 32
3 24 26 33
3 32 24 33
3 26 28 33
3 36 35 34
3 10 34 35
3 10 35 9
3 38 37 35
3 37 9 35
3 9 37 11
3 15 16 39
3 40 17 15
3 40 15 41
3 39 42 15
3 42 41 15
3 41 43 40
3 36 34 44
3 44 45 47
3 44 18 45
3 44 34 18
3 10 18 34
3 38 46 37
3 46 49 11
3 46 11 37
3 49 48 11
3 18 11 45
3 48 45 11
3 21 48 49
3 21 49 20
3 20 49 50
3 52 51 23
3 52 23 50
3 50 23 20
3 25 23 51
3 53 25 51
3 53 55 54
3 53 54 25
3 25 54 27
3 56 28 27
3 56 27 57
3 57 27 54
3 58 56 16
3 58 16 29
3 56 57 16
3 39 16 59
3 57 59 16
3 29 61 58
3 29 60 61
3 29 17 60
3 40 60 17
3 39 59 42
3 40 43 60
3 47 45 62
3 45 48 63
3 62 45 63
3 48 21 30
3 48 30 63
3 63 30 64
3 52 66 51
3 67 64 65
3 64 31 65
3 64 30 31
3 31 68 65
3 31 32 68
3 66 69 51
3 69 53 51
3 55 53 69
3 70 71 32
3 70 32 33
3 32 71 68
3 28 56 72
3 28 72 33
3 33 72 70
3 56 58 73
3 72 56 73
3 58 61 73
3 67 65 74
3 65 68 75
3 74 65 75
3 68 71 75
3 78 77 76
3 36 76 77
3 36 77 35
3 80 79 77
3 79 35 77
3 35 79 38
3 41 42 81
3 82 43 41
3 82 41 83
3 81 84 41
3 84 83 41
3 83 85 82
3 78 76 86
3 86 87 89
3 86 44 87
3 86 76 44
3 36 44 76
3 80 88 79
3 87 44 47
3 79 88 38
3 88 46 38
3 88 90 46
3 92 91 49
3 92 49 90
3 90 49 46
3 50 49 91
3 93 50 91
3 50 93 52
3 54 55 94
3 57 54 94
3 95 57 94
3 95 97 96
3 95 96 57
3 57 96 59
3 61 60 98
3 42 59 81
3 59 99 81
3 59 96 99
3 60 101 98
3 60 100 101
3 60 43 100
3 82 100 43
3 81 99 84
3 82 85 100
3 89 87 102
3 87 47 62
3 87 62 102
3 102 62 103
3 92 105 91
3 106 103 104
3 103 63 104
3 103 62 63
3 63 107 104
3 63 64 107
3 105 108 91
3 108 93 91
3 107 64 67
3 93 108 52
3 108 66 52
3 108 109 66
3 109 110 66
3 66 110 69
3 71 70 111
3 55 69 94
3 69 112 94
3 69 110 112
3 70 113 111
3 70 72 113
3 112 114 94
3 114 95 94
3 97 95 114
3 115 116 72
3 115 72 73
3 72 116 113
3 61 98 117
3 61 117 73
3 73 117 115
3 98 101 117
3 106 104 118
3 104 107 119
3 118 104 119
3 107 67 74
3 107 74 119
3 119 74 120
3 120 74 121
3 74 75 121
3 71 111 122
3 71 122 75
3 75 122 121
3 111 113 123
3 122 111 123
3 113 116 123
3 126 125 124
3 125 128 127
3 124 125 127
3 128 129 127
3 77 78 130
3 77 130 80
3 126 124 131
3 124 127 132
3 131 124 132
3 127 129 132
3 83 84 133
3 83 133 85
3 130 78 86
3 89 135 130
3 89 130 86
3 135 134 130
3 80 130 88
3 134 88 130
3 137 136 90
3 137 90 134
3 134 90 88
3 90 136 92
3 96 97 138
3 138 140 139
3 138 139 96
3 96 139 99
3 99 139 133
3 99 133 84
3 139 141 133
3 100 133 101
3 141 101 133
3 133 100 85
3 135 89 102
3 142 135 102
3 137 144 136
3 145 142 143
3 142 103 143
3 142 102 103
3 143 103 106
3 136 144 92
3 144 105 92
3 144 146 105
3 146 147 105
3 105 147 108
3 147 148 108
3 108 148 109
3 148 149 109
3 109 149 110
3 149 150 110
3 110 150 112
3 150 151 112
3 112 151 114
3 116 115 152
3 97 114 138
3 114 153 138
3 114 151 153
3 140 138 153
3 154 155 115
3 154 115 117
3 115 155 152
3 154 117 101
3 141 154 101
3 145 143 156
3 143 106 118
3 143 118 156
3 156 118 157
3 157 118 158
3 118 119 158
3 158 119 159
3 119 120 159
3 159 120 160
3 120 121 160
3 160 121 161
3 121 122 161
3 161 122 162
3 122 123 162
3 116 152 163
3 116 163 123
3 123 163 162
3 152 155 163
3 166 165 164
3 126 164 165
3 126 165 125
3 125 165 167
3 167 168 125
3 125 168 128
3 169 129 128
3 169 128 170
3 170 128 168
3 170 171 169
3 166 164 172
3 164 126 131
3 164 131 172
3 172 131 173
3 173 131 174
3 131 132 174
3 129 169 175
3 129 175 132
3 132 175 174
3 169 171 175
3 178 177 176
3 135 176 177
3 135 177 134
3 134 177 179
3 134 179 180
3 137 134 180
3 140 182 181
3 139 140 181
3 183 141 139
3 183 139 184
3 184 139 181
3 184 185 183
3 178 176 186
3 176 135 142
3 176 142 186
3 186 142 187
3 180 188 137
3 137 188 144
3 189 187 142
3 189 142 145
3 188 190 144
3 144 190 146
3 190 191 146
3 146 191 147
3 193 192 148
3 193 148 191
3 191 148 147
3 149 148 192
3 194 149 192
3 194 196 195
3 194 195 149
3 149 195 150
3 195 197 150
3 150 197 151
3 197 198 151
3 151 198 153
3 200 154 199
3 200 155 154
3 182 140 198
3 140 153 198
3 141 183 201
3 141 201 154
3 154 201 199
3 183 185 201
3 189 145 156
3 202 189 156
3 202 156 203
3 156 157 203
3 203 157 204
3 157 158 204
3 192 193 204
3 192 204 159
3 159 204 158
3 194 192 159
3 160 194 159
3 196 194 160
3 196 160 205
3 205 160 161
3 205 161 206
3 161 162 206
3 206 162 207
3 162 163 207
3 207 163 155
3 200 207 155
3 210 209 208
3 166 208 209
3 166 209 165
3 165 209 211
3 211 212 165
3 165 212 167
3 212 213 167
3 167 213 168
3 213 214 168
3 168 214 170
3 215 171 170
3 215 170 216
3 216 170 214
3 216 217 215
3 220 219 218
3 219 221 218
3 210 208 222
3 208 166 172
3 208 172 222
3 222 172 223
3 223 172 224
3 172 173 224
3 224 173 225
3 173 174 225
3 225 174 226
3 174 175 226
3 171 215 227
3 171 227 175
3 175 227 226
3 215 217 227
3 230 229 228
3 229 231 228
3 220 218 232
3 233 177 218
3 233 218 221
3 177 178 218
3 232 218 234
3 178 234 218
3 236 235 179
3 236 179 233
3 233 179 177
3 179 235 180
3 181 182 237
3 237 239 238
3 237 238 181
3 181 238 184
3 241 185 228
3 241 228 240
3 185 184 228
3 230 228 238
3 184 238 228
3 228 231 240
3 234 178 186
3 242 234 186
3 236 244 235
3 245 242 243
3 242 187 243
3 242 186 187
3 243 187 189
3 235 244 180
3 244 188 180
3 244 246 188
3 246 247 188
3 188 247 190
3 249 248 191
3 249 191 247
3 247 191 190
3 191 248 193
3 195 196 250
3 250 252 251
3 250 251 195
3 195 251 197
3 251 253 197
3 197 253 198
3 200 199 254
3 182 198 237
3 198 255 237
3 198 253 255
3 239 237 255
3 256 257 199
3 256 199 201
3 199 257 254
3 256 201 185
3 241 256 185
3 245 243 258
3 243 189 202
3 243 202 258
3 258 202 259
3 259 202 260
3 202 203 260
3 248 249 260
3 248 260 204
3 204 260 203
3 248 204 193
3 250 196 205
3 252 250 205
3 252 205 261
3 261 205 206
3 261 206 262
3 206 207 262
3 200 254 263
3 200 263 207
3 207 263 262
3 254 257 263
3 210 265 264
3 209 210 264
3 264 266 209
3 209 266 211
3 266 267 211
3 211 267 212
3 267 268 212
3 212 268 213
3 268 269 213
3 213 269 214
3 269 270 214
3 214 270 216
3 216 270 271
3 217 216 271
3 220 273 272
3 219 220 272
3 219 272 274
3 221 219 274
3 265 210 222
3 275 265 222
3 275 222 276
3 222 223 276
3 276 223 277
3 223 224 277
3 277 224 278
3 224 225 278
3 278 225 279
3 225 226 279
3 279 226 280
3 226 227 280
3 280 227 217
3 271 280 217
3 230 282 281
3 229 230 281
3 229 281 283
3 231 229 283
3 273 220 232
3 284 273 232
3 274 285 221
3 221 285 233
3 286 284 232
3 286 232 234
3 233 285 287
3 236 233 287
3 239 289 288
3 238 239 288
3 291 240 290
3 291 241 240
3 282 230 288
3 230 238 288
3 290 240 231
3 283 290 231
3 286 234 242
3 292 286 242
3 287 293 236
3 236 293 244
3 294 292 242
3 294 242 245
3 293 295 244
3 244 295 246
3 295 296 246
3 246 296 247
3 247 296 297
3 249 247 297
3 252 299 298
3 251 252 298
3 298 300 251
3 251 300 253
3 300 301 253
3 253 301 255
3 303 256 302
3 303 257 256
3 289 239 301
3 239 255 301
3 302 256 241
3 291 302 241
3 294 245 258
3 304 294 258
3 304 258 305
3 258 259 305
3 305 259 306
3 259 260 306
3 306 260 249
3 297 306 249
3 299 252 261
3 307 299 261
3 307 261 308
3 261 262 308
3 308 262 309
3 262 263 309
3 309 263 257
3 303 309 257
3 264 265 310
3 310 312 311
3 310 311 264
3 264 311 266
3 311 313 266
3 266 313 267
3 313 314 267
3 267 314 268
3 314 315 268
3 268 315 269
3 317 316 270
3 317 270 315
3 315 270 269
3 270 316 271
3 272 273 318
3 272 318 274
3 310 265 275
3 312 310 275
3 312 275 319
3 319 275 276
3 319 276 320
3 276 277 320
3 320 277 321
3 277 278 321
3 321 278 322
3 278 279 322
3 316 317 322
3 316 322 280
3 280 322 279
3 316 280 271
3 281 282 323
3 281 323 283
3 318 273 284
3 286 325 318
3 286 318 284
3 325 324 318
3 274 318 285
3 324 285 318
3 326 287 285
3 326 285 327
3 327 285 324
3 327 328 326
3 331 330 329
3 289 329 330
3 289 330 288
3 288 330 332
3 288 332 323
3 288 323 282
3 332 333 323
3 290 323 291
3 333 291 323
3 323 290 283
3 325 286 292
3 334 325 292
3 287 326 293
3 292 294 336
3 292 336 334
3 336 294 335
3 338 336 335
3 328 337 326
3 337 293 326
3 337 295 293
3 337 339 295
3 295 339 296
3 340 297 296
3 340 296 341
3 341 296 339
3 341 342 340
3 345 344 343
3 299 343 344
3 299 344 298
3 298 344 346
3 346 347 298
3 298 347 300
3 350 348 349
3 347 331 301
3 347 301 300
3 301 331 329
3 329 289 301
3 349 348 302
3 349 302 351
3 302 348 303
3 351 302 291
3 333 351 291
3 335 294 304
3 338 335 304
3 338 304 352
3 352 304 305
3 352 305 353
3 305 306 353
3 297 340 354
3 297 354 306
3 306 354 353
3 340 342 354
3 345 343 355
3 343 299 307
3 343 307 355
3 355 307 356
3 356 307 357
3 307 308 357
3 348 350 357
3 348 357 309
3 309 357 308
3 348 309 303
3 311 312 358
3 358 360 359
3 358 359 311
3 311 359 313
3 359 361 313
3 313 361 314
3 363 362 315
3 363 315 361
3 361 315 314
3 315 362 317
3 358 312 319
3 360 358 319
3 360 319 364
3 364 319 320
3 364 320 365
3 320 321 365
3 362 363 365
3 362 365 322
3 322 365 321
3 362 322 317
3 324 325 366
3 366 368 367
3 366 367 324
3 324 367 327
3 327 367 369
3 328 327 369
3 331 371 370
3 330 331 370
3 373 372 332
3 373 332 370
3 370 332 330
3 332 372 333
3 366 325 334
3 368 366 334
3 368 334 374
3 374 334 336
3 369 375 328
3 328 375 337
3 376 374 336
3 376 336 338
3 375 377 337
3 337 377 339
3 377 378 339
3 339 378 341
3 379 342 341
3 379 341 380
3 380 341 378
3 380 382 381
3 379 380 381
3 345 381 382
3 345 382 344
3 344 382 383
3 383 384 344
3 344 384 346
3 384 385 346
3 346 385 347
3 387 349 386
3 387 350 349
3 371 331 385
3 331 347 385
3 372 373 386
3 372 386 351
3 351 386 349
3 372 351 333
3 376 338 352
3 388 376 352
3 388 352 389
3 352 353 389
3 389 353 390
3 353 354 390
3 342 379 391
3 342 391 354
3 354 391 390
3 379 381 392
3 391 379 392
3 381 345 355
3 381 355 392
3 392 355 393
3 393 355 394
3 355 356 394
3 394 356 395
3 356 357 395
3 395 357 350
3 387 395 350
3 359 360 396
3 361 359 396
3 397 361 396
3 361 397 363
3 400 399 398
3 399 401 398
3 396 360 364
3 397 396 364
3 365 397 364
3 397 365 363
3 404 403 402
3 403 405 402
3 400 398 406
3 407 367 398
3 407 398 401
3 367 368 398
3 406 398 408
3 368 408 398
3 409 369 367
3 409 367 410
3 410 367 407
3 410 411 409
3 414 413 412
3 371 412 413
3 371 413 370
3 370 413 415
3 417 373 402
3 417 402 416
3 373 370 402
3 404 402 415
3 370 415 402
3 402 405 416
3 408 368 374
3 418 408 374
3 369 409 375
3 374 376 420
3 374 420 418
3 420 376 419
3 422 420 419
3 411 421 409
3 421 375 409
3 421 377 375
3 421 423 377
3 377 423 378
3 423 424 378
3 378 424 380
3 424 425 380
3 380 425 382
3 425 426 382
3 382 426 383
3 426 427 383
3 383 427 384
3 430 428 429
3 427 414 385
3 427 385 384
3 385 414 412
3 412 371 385
3 429 428 386
3 429 386 431
3 386 428 387
3 431 386 373
3 417 431 373
3 419 376 388
3 422 419 388
3 422 388 432
3 432 388 389
3 432 389 433
3 389 390 433
3 433 390 434
3 390 391 434
3 434 391 435
3 391 392 435
3 435 392 436
3 392 393 436
3 436 393 437
3 393 394 437
3 428 430 437
3 428 437 395
3 395 437 394
3 428 395 387
3 399 400 438
3 439 401 399
3 439 399 440
3 438 441 399
3 441 440 399
3 440 442 439
3 445 444 443
3 404 443 444
3 404 444 403
3 447 446 444
3 446 403 444
3 403 446 405
3 438 400 406
3 438 449 441
3 438 448 449
3 438 406 448
3 408 448 406
3 401 439 407
3 451 449 448
3 442 450 439
3 450 407 439
3 450 410 407
3 452 411 410
3 452 410 453
3 453 410 450
3 453 455 454
3 452 453 454
3 455 456 454
3 459 458 457
3 458 461 460
3 457 458 460
3 414 460 461
3 414 461 413
3 413 461 462
3 465 463 464
3 462 445 415
3 462 415 413
3 415 445 443
3 447 416 446
3 447 417 416
3 447 464 417
3 463 417 464
3 443 404 415
3 446 416 405
3 448 408 418
3 451 448 418
3 451 418 466
3 466 418 420
3 411 452 421
3 420 422 468
3 420 468 466
3 468 422 467
3 468 467 470
3 470 467 469
3 421 452 454
3 421 454 423
3 472 470 469
3 456 471 454
3 471 423 454
3 471 424 423
3 471 473 424
3 424 473 425
3 476 474 475
3 473 459 426
3 473 426 425
3 426 459 457
3 475 474 478
3 478 474 477
3 426 457 460
3 426 460 427
3 460 414 427
3 478 477 429
3 478 429 479
3 429 477 430
3 463 465 479
3 463 479 431
3 431 479 429
3 463 431 417
3 467 422 432
3 469 467 432
3 433 469 432
3 472 469 433
3 472 433 480
3 480 433 434
3 480 434 481
3 434 435 481
3 474 476 481
3 474 481 436
3 436 481 435
3 477 474 436
3 437 477 436
3 477 437 430
3 440 441 482
3 483 442 440
3 483 440 484
3 482 485 440
3 485 484 440
3 484 486 483
3 489 488 487
3 445 487 488
3 445 488 444
3 491 490 488
3 490 444 488
3 444 490 447
3 482 441 449
3 482 493 485
3 482 492 493
3 482 449 492
3 451 492 449
3 442 483 450
3 492 494 486
3 492 486 493
3 494 453 486
3 483 486 450
3 453 450 486
3 494 496 495
3 494 495 453
3 453 495 455
3 497 456 455
3 497 455 498
3 498 455 495
3 498 500 499
3 497 498 499
3 459 499 500
3 459 500 458
3 458 500 501
3 503 502 461
3 503 461 501
3 501 461 458
3 462 461 489
3 462 489 487
3 461 502 489
3 505 489 504
3 502 504 489
3 491 464 490
3 491 465 464
3 491 505 465
3 504 465 505
3 487 445 462
3 490 464 447
3 492 451 466
3 494 492 466
3 468 494 466
3 496 494 468
3 496 468 506
3 506 468 470
3 456 497 471
3 470 472 508
3 470 508 506
3 508 472 507
3 508 507 510
3 510 507 509
3 471 497 499
3 471 499 473
3 499 459 473
3 510 509 475
3 510 475 511
3 475 509 476
3 502 503 511
3 502 511 478
3 478 511 475
3 504 502 478
3 479 504 478
3 504 479 465
3 507 472 480
3 509 507 480
3 481 509 480
3 509 481 476
3 484 485 512
3 484 512 486
3 515 514 513
3 514 517 516
3 513 514 516
3 517 518 516
3 488 489 519
3 488 519 491
3 512 485 493
3 512 493 486
3 495 496 520
3 498 495 515
3 498 515 513
3 495 520 515
3 522 515 521
3 520 521 515
3 522 521 524
3 524 521 523
3 498 513 516
3 498 516 500
3 523 525 518
3 523 518 524
3 525 501 518
3 516 518 500
3 501 500 518
3 501 525 503
3 519 489 505
3 519 505 491
3 520 496 506
3 521 520 506
3 508 521 506
3 523 521 508
3 510 523 508
3 525 523 510
3 511 525 510
3 525 511 503
3 514 515 526
3 517 514 526
3 527 517 526
3 517 527 518
3 526 515 522
3 527 526 522
3 524 527 522
3 527 524 518
