ply
format ascii 1.0
element vertex 792
property float x
property float y
property float z
property uchar red
property uchar green
property uchar blue
element face 1568
property list uchar int vertex_indices
end_header
-6.04525470733642578 -2 -9 25 0 11
-6 -2.1714935302734375 -9 20 0 14
-6 -2 -9.32635211944580078 19 0 5
-6 -2 -8.87514591217041016 12 3 21
-6.04525470733642578 -2 8 9 0 6
-6 -2.1714935302734375 8 3 0 0
-6 -2 7.87514543533325195 1 0 2
-6 -2 8.32635211944580078 2 0 0
-6.35210418701171875 -1 -9 27 0 23
-6 -1 -9.78060436248779297 15 0 3
-6 -1 -8.04344749450683594 7 5 20
-6.35210418701171875 -1 8 8 0 0
-6 -1 7.04344797134399414 1 3 0
-6 -1 8.78060436248779297 0 0 3
-6.42911911010742188 0 -9 18 1 25
-6 0 -9.80819129943847656 12 0 1
-6.05139493942260742 0 -8 26 2 0
-6 -0.766163408756256104 -8 19 10 3
-6 0 -7.8454289436340332 13 20 8
-6.05139493942260742 0 7 0 9 3
-6 -0.766163408756256104 7 1 3 0
-6 0 6.8454289436340332 3 2 6
-6.42911911010742188 0 8 6 0 9
-6 0 8.80819129943847656 5 2 0
-6.25616550445556641 1 -9 15 0 24
-6 1 -9.71590137481689453 11 0 0
-6 0.296712428331375122 -8 13 20 8
-6 1 -8.33247280120849609 3 11 16
-6 0.296712428331375122 7 0 5 1
-6.25616550445556641 1 8 2 10 0
-6 1 7.33247280120849609 7 2 7
-6 1 8.71590137481689453 0 6 6
-6.11719989776611328 2 -9 2 0 22
-6 2 -9.53427314758300781 10 0 1
-6 2 -8.70175266265869141 1 15 9
-6.11719989776611328 2 8 0 12 0
-6 2 7.70175266265869141 8 3 3
-6 2 8.53427314758300781 8 2 5
-6.01198482513427734 3 -9 0 15 21
-6 3 -9.10392379760742188 10 0 7
-6 3 -8.97025299072265625 8 15 0
-6.01198482513427734 3 8 12 0 12
-6 3 7.97025251388549805 9 5 10
-6 3 8.10392379760742188 9 3 3
-6 3.17188191413879395 -9 8 15 0
-6 3.17188191413879395 8 9 3 3
-6.0497593879699707 8 -9 18 11 0
-6 7.47678995132446289 -9 6 15 0
-6 8 -9.29278087615966797 14 4 0
-6 8 -8.89340400695800781 0 15 5
-6.0497593879699707 8 8 8 2 21
-6 7.47678995132446289 8 14 18 19
-6 8 7.89340400695800781 19 20 18
-6 8 8.29278087615966797 14 15 20
-6 8.29278087615966797 -9 0 15 5
-6 8.29278087615966797 8 14 15 20
-5.11162424087524414 -5 -9 12 0 0
-5 -5.63743972778320312 -9 7 0 1
-5 -5 -9.47063732147216797 17 0 10
-5 -5 -8.76964950561523438 10 0 4
-5.11162424087524414 -5 8 2 2 0
-5 -5.63743972778320312 8 0 1 0
-5 -5 7.76964950561523438 1 0 0
-5 -5 8.47063732147216797 0 0 0
-5.34873437881469727 -4 -9 17 0 3
-5 -4 -9.72294044494628906 17 1 5
-5 -4 -8.30791568756103516 13 0 10
-5.34873437881469727 -4 8 0 0 2
-5 -4 7.30791521072387695 0 0 0
-5 -4 8.72294044494628906 0 0 0
-5.66415929794311523 -3 -9 20 0 14
-5 -3 -9.82233333587646484 15 1 2
-5.13202619552612305 -3 -8 1 13 0
-5 -3.45450353622436523 -8 9 10 0
-5 -3 -7.71600341796875 11 5 0
-5.13202619552612305 -3 7 2 0 0
-5 -3.45450353622436523 7 0 0 0
-5 -3 6.71600341796875 0 0 0
-5.66415929794311523 -3 8 3 0 0
-5 -3 8.82233333587646484 0 0 0
-5 -2 -9.87364673614501953 11 0 0
-5.49898433685302734 -2 -8 16 15 0
-5.01247262954711914 -2 -7 1 3 16
-5 -2.03493928909301758 -7 6 2 10
-5 -2 -6.97050285339355469 8 1 10
-5.01247262954711914 -2 6 0 2 2
-5 -2.03493928909301758 6 0 0 0
-5 -2 5.97050285339355469 0 0 0
-5.49898433685302734 -2 7 1 0 2
-5 -2 8.87364673614501953 0 0 0
-5 -1 -9.90411567687988281 7 0 0
-5.97396278381347656 -1 -8 19 10 3
-5.44337320327758789 -1 -7 3 0 14
-5.0000767707824707 -1 -6 18 12 12
-5 -1.00017845630645752 -6 12 10 11
-5 -1 -5.99979639053344727 12 8 9
-5.0000767707824707 -1 5 1 3 5
-5 -1.00017845630645752 5 0 0 0
-5 -1 4.99979639053344727 5 5 5
-5.44337320327758789 -1 6 4 3 0
-5.97396278381347656 -1 7 1 3 0
-5 -1 8.90411567687988281 1 0 0
-5 0 -9.90699958801269531 5 0 0
-5.52818870544433594 0 -7 11 0 15
-5.05891180038452148 0 -6 16 7 8
-5 0 -5.85172748565673828 10 5 7
-5.05891180038452148 0 5 8 4 5
-5 0 4.85172748565673828 5 6 7
-5.52818870544433594 0 6 3 2 6
-5 0 8.90699958801269531 1 2 3
-5 1 -9.88792324066162109 5 0 1
-5.77995872497558594 1 -8 10 20 12
-5.20223474502563477 1 -7 17 4 13
-5 0.177348330616950989 -6 10 5 7
-5 1 -6.59090375900268555 14 10 10
-5 0.177348330616950989 5 6 5 6
-5.20223474502563477 1 6 8 4 4
-5 1 5.59090375900268555 5 7 7
-5.77995872497558594 1 7 7 2 7
-5 1 8.88792324066162109 5 2 3
-5 2 -9.86417007446289062 5 0 5
-5.50899410247802734 2 -8 12 19 11
-5 1.69752669334411621 -7 14 10 10
-5 2 -7.15752458572387695 13 14 15
-5 1.69752669334411621 6 6 6 6
-5.50899410247802734 2 7 8 3 3
-5 2 6.15752458572387695 7 8 7
-5 2 8.86417007446289062 6 4 4
-5 3 -9.83598995208740234 0 0 6
-5.27874326705932617 3 -8 12 18 10
-5 3 -7.56791400909423828 11 13 14
-5.27874326705932617 3 7 9 5 10
-5 3 6.56791400909423828 11 9 8
-5 3 8.83598995208740234 8 7 9
-5.88127899169921875 4 -9 14 2 0
-5 4 -9.80574226379394531 0 7 2
-5.09294748306274414 4 -8 9 18 9
-5 4 -7.86578083038330078 10 12 13
-5.09294748306274414 4 7 8 12 10
-5 4 6.86578083038330078 8 14 9
-5.88127899169921875 4 8 9 4 11
-5 4 8.80574226379394531 12 12 12
-5.80264663696289062 5 -9 15 6 0
-5 5 -9.77919101715087891 9 2 0
-5 4.70522117614746094 -8 10 12 13
-5 5 -8.05169486999511719 2 11 1
-5 4.70522117614746094 7 13 11 10
-5.80264663696289062 5 8 8 14 11
-5 5 7.05169486999511719 16 14 10
-5 5 8.77919101715087891 14 15 13
-5.80112600326538086 6 -9 14 13 0
-5 6 -9.76468563079833984 10 6 0
-5 6 -8.13022232055664062 0 11 3
-5.80112600326538086 6 8 12 18 14
-5 6 7.13022279739379883 17 14 11
-5 6 8.76468563079833984 14 17 15
-5.89780855178833008 7 -9 6 15 0
-5 7 -9.76821994781494141 10 10 0
-5 7 -8.11205291748046875 0 11 9
-5.89780855178833008 7 8 14 18 19
-5 7 7.11205339431762695 18 14 12
-5 7 8.76821994781494141 16 18 18
-5 8 -9.78822708129882812 4 11 0
-5.00324916839599609 8 -8 0 0 16
-5 7.97366905212402344 -8 7 5 13
-5 8 -7.99672031402587891 11 3 13
-5.00324916839599609 8 7 19 20 18
-5 7.97366905212402344 7 18 14 12
-5 8 6.99672031402587891 11 18 12
-5 8 8.78822708129882812 18 18 18
-5 8.78822708129882812 -9 0 7 12
-5 8.0111846923828125 -8 11 3 13
-5 8.0111846923828125 7 18 17 14
-5 8.78822708129882812 8 18 18 18
-4.41388463973999023 -9 -9 11 0 1
-4 -9.6432952880859375 -9 6 0 1
-4 -9 -9.6432952880859375 0 0 4
-4 -9 -8.52697086334228516 5 0 1
-4.41388463973999023 -9 8 2 0 0
-4 -9.6432952880859375 8 5 0 2
-4 -9 7.52697086334228516 7 6 0
-4 -9 8.6432952880859375 0 2 4
-4.43831300735473633 -8 -9 9 0 1
-4 -8 -9.63609504699707031 3 0 5
-4 -8 -8.54186630249023438 4 0 1
-4.43831300735473633 -8 8 0 0 2
-4 -8 7.54186582565307617 0 6 0
-4 -8 8.63609504699707031 4 2 0
-4.56808662414550781 -7 -9 8 0 1
-4 -7 -9.67145919799804688 8 0 8
-4 -7 -8.46216678619384766 2 0 1
-4.56808662414550781 -7 8 1 2 0
-4 -7 7.46216726303100586 3 0 5
-4 -7 8.67145919799804688 0 3 1
-4.84157609939575195 -6 -9 7 0 1
-4 -6 -9.72872257232666016 11 0 6
-4 -6 -8.2867431640625 6 0 3
-4.84157609939575195 -6 8 0 1 0
-4 -6 7.2867431640625 3 0 0
-4 -6 8.72872257232666016 1 0 1
-4 -5 -9.78566646575927734 13 1 3
-4 -5 -8.01296615600585938 8 0 8
-4 -5 7.01296663284301758 4 0 1
-4 -5 8.78566646575927734 3 0 0
-4 -4 -9.83240318298339844 12 2 3
-4.53284835815429688 -4 -8 9 10 0
-4 -4.96491050720214844 -8 6 3 0
-4 -4 -7.60934877395629883 7 1 0
-4.53284835815429688 -4 7 0 0 0
-4 -4.96491050720214844 7 4 0 1
-4 -4 6.60934877395629883 3 4 1
-4 -4 8.83240318298339844 4 0 3
-4 -3 -9.86788177490234375 9 1 1
-4 -3 -7.08886146545410156 8 7 2
-4 -3 6.08886146545410156 1 3 2
-4 -3 8.86788177490234375 0 3 3
-4 -2 -9.89414119720458984 6 0 0
-4 -2.85874724388122559 -7 6 2 6
-4 -2 -6.38866806030273438 6 1 6
-4 -2.85874724388122559 6 1 3 2
-4 -2 5.38866806030273438 0 0 0
-4 -2 8.89414119720458984 2 1 0
-4 -1 -9.91355705261230469 2 0 0
-4 -1.53786885738372803 -6 7 6 6
-4 -1 -5.47096157073974609 6 4 5
-4 -1.53786885738372803 5 0 0 0
-4 -1 4.47096157073974609 2 4 4
-4 -1 8.91355705261230469 0 0 0
-4 0 -9.91347122192382812 1 0 0
-4 0 -5.47642707824707031 6 3 4
-4 0 4.47642707824707031 8 3 2
-4 0 8.91347122192382812 2 2 2
-4 1 -9.89373588562011719 1 0 1
-4 0.526374220848083496 -6 6 3 4
-4 1 -6.40268087387084961 11 10 10
-4 0.526374220848083496 5 3 6 4
-4 1 5.40268087387084961 9 5 3
-4 1 8.89373588562011719 5 4 4
-4 2 -9.866790771484375 0 1 2
-4 1.82815587520599365 -7 11 10 10
-4 2 -7.10948801040649414 11 11 11
-4 1.82815587520599365 6 4 7 4
-4 2 6.10948801040649414 10 7 4
-4 2 8.866790771484375 8 7 8
-4 3 -9.82986545562744141 0 3 0
-4 3 -7.63752174377441406 10 10 10
-4 3 6.63752174377441406 3 12 9
-4 3 8.82986545562744141 7 11 10
-4 4 -9.78017044067382812 5 0 0
-4.27102947235107422 4 -8 10 12 13
-4 3.8778996467590332 -8 10 10 10
-4 4 -8.04599475860595703 2 7 8
-4.27102947235107422 4 7 13 11 10
-4 3.8778996467590332 7 12 7 5
-4 4 7.04599475860595703 13 13 5
-4 4 8.78017044067382812 9 13 8
-4 5 -9.71765518188476562 0 6 0
-4 5 -8.32647514343261719 2 7 8
-4 5 7.32647514343261719 12 13 6
-4 5 8.71765518188476562 9 15 8
-4 6 -9.65176963806152344 0 7 0
-4 6 -8.50861835479736328 1 5 8
-4 6 7.50861883163452148 14 12 7
-4 6 8.65176963806152344 9 15 11
-4 7 -9.60767269134521484 0 7 2
-4 7 -8.59513759613037109 0 2 8
-4 7 7.59513759613037109 15 9 8
-4 7 8.60767269134521484 11 15 13
-4 8 -9.61216831207275391 0 8 6
-4.99498844146728516 8 -8 11 3 13
-4 8 -8.58724880218505859 2 0 9
-4.99498844146728516 8 7 18 17 14
-4 8 7.5872492790222168 14 10 9
-4 8 8.61216831207275391 12 14 13
-4 8.61216831207275391 -9 2 0 9
-4 8.61216831207275391 8 12 14 13
-3 -9.36767768859863281 -9 1 0 0
-3 -9 -9.36767768859863281 0 0 1
-3 -9 -8.84995269775390625 0 0 0
-3 -9.36767768859863281 8 1 0 2
-3 -9 7.84995222091674805 0 6 1
-3 -9 8.36767768859863281 0 1 0
-3 -8 -9.11387443542480469 4 0 4
-3 -8 -8.96703338623046875 1 0 0
-3 -8 7.96703290939331055 3 0 4
-3 -8 8.11387443542480469 1 0 0
-3 -7 -9.03307628631591797 8 0 6
-3 -7 -8.99123477935791016 1 0 0
-3 -7 7.99123525619506836 7 0 0
-3 -7 8.03307628631591797 1 0 4
-3 -6 -9.23084259033203125 11 2 5
-3 -6 -8.9228363037109375 3 0 3
-3 -6 7.9228367805480957 9 0 7
-3 -6 8.23084259033203125 8 0 0
-3 -5 -9.47987174987792969 10 3 4
-3 -5 -8.76085376739501953 5 1 7
-3 -5 7.76085376739501953 0 9 8
-3 -5 8.47987174987792969 9 0 8
-3 -4 -9.65430736541748047 9 3 3
-3.59121561050415039 -4 -8 7 1 0
-3 -4 -8.50294017791748047 5 5 9
-3.59121561050415039 -4 7 0 1 4
-3 -4 7.50294065475463867 8 4 2
-3 -4 8.65430736541748047 1 8 6
-3 -3 -9.76169300079345703 6 1 2
-3.15248012542724609 -3 -8 8 7 2
-3 -3 -8.14515972137451172 6 9 8
-3.15248012542724609 -3 7 3 1 1
-3 -3 7.14515972137451172 3 4 5
-3 -3 8.76169300079345703 5 2 2
-3 -2 -9.82798576354980469 3 0 1
-3 -2.68170928955078125 -8 5 6 4
-3.55541253089904785 -2 -7 6 1 6
-3 -2 -7.65780162811279297 7 8 8
-3.55541253089904785 -2 6 1 1 1
-3 -2.68170928955078125 7 3 4 5
-3 -2 6.65780162811279297 1 1 1
-3 -2 8.82798576354980469 1 2 2
-3 -1 -9.87045192718505859 0 0 0
-3.02988982200622559 -1 -7 8 4 6
-3 -1 -7.03872537612915039 8 8 8
-3.70276761054992676 -1 -6 6 4 5
-3.70276761054992676 -1 5 2 2 3
-3.02988982200622559 -1 6 1 1 1
-3 -1 6.03872537612915039 2 1 2
-3 -1 8.87045192718505859 0 0 0
-3 0 -9.86404800415039062 0 0 0
-3.11360502243041992 0 -7 10 9 9
-3 0 -7.15970993041992188 7 7 7
-3.73029184341430664 0 -6 6 3 4
-3.73029184341430664 0 5 3 6 4
-3.11360502243041992 0 6 3 3 4
-3 0 6.15970993041992188 2 5 7
-3 0 8.86404800415039062 4 3 3
-3 1 -9.78643321990966797 0 0 0
-3.0061042308807373 1 -8 11 11 11
-3 0.98919147253036499 -8 7 7 7
-3 1 -8.00821399688720703 2 3 1
-3.66563653945922852 1 -7 11 10 10
-3.66563653945922852 1 6 4 7 4
-3.0061042308807373 1 7 5 4 6
-3 0.98919147253036499 7 5 3 4
-3 1 7.00821399688720703 3 4 8
-3 1 8.78643321990966797 7 5 5
-3 2 -9.55649185180664062 0 0 0
-3.46703362464904785 2 -8 11 11 11
-3 2 -8.67331695556640625 1 3 2
-3.46703362464904785 2 7 5 9 7
-3 2 7.67331743240356445 8 9 3
-3 2 8.55649185180664062 5 5 9
-3.15416717529296875 3 -9 3 7 3
-3 2.58529448509216309 -9 1 3 2
-3.79725289344787598 3 -8 10 10 10
-3.79725289344787598 3 7 12 7 5
-3.15416717529296875 3 8 7 11 10
-3 2.58529448509216309 8 5 5 9
-3.43356442451477051 4 -9 2 7 8
-3.43356442451477051 4 8 9 13 8
-3.62302970886230469 5 -9 2 7 8
-3.62302970886230469 5 8 9 15 8
-3.73978924751281738 6 -9 1 5 8
-3.73978924751281738 6 8 9 15 11
-3.79649186134338379 7 -9 0 2 8
-3.79649186134338379 7 8 11 15 13
-3.80249142646789551 8 -9 2 0 9
-3.80249142646789551 8 8 12 14 13
-2.91795969009399414 -9 -9 0 0 0
-2.91795969009399414 -9 8 0 1 0
-2.98290610313415527 -8 -9 1 0 0
-2.98290610313415527 -8 8 1 0 0
-2.99567699432373047 -7 -9 1 0 0
-2.99567699432373047 -7 8 1 0 4
-2.96369791030883789 -6 -9 3 0 3
-2.96369791030883789 -6 8 8 0 0
-2.89242672920227051 -5 -9 5 1 7
-2.89242672920227051 -5 8 9 0 8
-2.78575587272644043 -4 -9 5 5 9
-2.78575587272644043 -4 8 1 8 6
-2.6462562084197998 -3 -9 6 9 8
-2.6462562084197998 -3 8 5 2 2
-2.47529840469360352 -2 -9 5 7 5
-2.87934994697570801 -2 -8 7 8 8
-2.87934994697570801 -2 7 2 1 2
-2.47529840469360352 -2 8 1 2 2
-2.27307891845703125 -1 -9 4 4 2
-2.67353415489196777 -1 -8 8 8 8
-2.67353415489196777 -1 7 1 1 1
-2.27307891845703125 -1 8 0 0 0
-2.33908939361572266 0 -9 3 2 1
-2.72402667999267578 0 -8 7 7 7
-2.72402667999267578 0 7 5 3 4
-2.33908939361572266 0 8 4 3 3
-2.64316630363464355 1 -9 2 3 1
-2.64316630363464355 1 8 7 5 5
-2.88572239875793457 2 -9 1 3 2
-2.88572239875793457 2 8 5 5 9
1.91795969009399414 -9 -9 0 0 1
2 -9.36767768859863281 -9 1 2 0
2 -9 -9.36767768859863281 0 1 0
2 -9 -8.84995269775390625 0 1 0
1.91795969009399414 -9 8 9 0 1
2 -9.36767768859863281 8 7 0 2
2 -9 7.84995222091674805 5 1 6
2 -9 8.36767768859863281 6 0 0
1.98290610313415527 -8 -9 0 0 0
2 -8 -9.11387443542480469 1 0 0
2 -8 -8.96703338623046875 0 0 0
1.98290610313415527 -8 8 7 1 2
2 -8 7.96703290939331055 2 4 4
2 -8 8.11387443542480469 5 1 4
1.99567687511444092 -7 -9 0 0 0
2 -7 -9.03307628631591797 1 3 0
2 -7 -8.99123477935791016 0 0 0
1.99567687511444092 -7 8 5 2 5
2 -7 7.99123525619506836 3 4 2
2 -7 8.03307628631591797 2 1 4
1.96369791030883789 -6 -9 1 0 0
2 -6 -9.23084259033203125 0 2 2
2 -6 -8.9228363037109375 2 0 2
1.96369791030883789 -6 8 2 3 4
2 -6 7.9228367805480957 4 3 3
2 -6 8.23084259033203125 2 3 3
1.89242672920227051 -5 -9 0 0 0
2 -5 -9.47987174987792969 0 0 0
2 -5 -8.76085376739501953 1 0 0
1.89242672920227051 -5 8 3 4 2
2 -5 7.76085376739501953 3 3 3
2 -5 8.47987174987792969 3 3 2
1.78575587272644043 -4 -9 0 0 0
2 -4 -9.65430736541748047 2 0 1
2 -4 -8.50294017791748047 0 0 0
1.78575587272644043 -4 8 3 3 2
2 -4 7.50294065475463867 2 2 2
2 -4 8.65430736541748047 2 3 2
1.64625632762908936 -3 -9 1 0 1
2 -3 -9.76169300079345703 4 0 0
2 -3 -8.14515972137451172 3 0 1
1.64625632762908936 -3 8 1 1 1
2 -3 7.14515972137451172 0 0 0
2 -3 8.76169300079345703 1 1 1
1.47529828548431396 -2 -9 1 1 3
2 -2 -9.82798576354980469 5 0 0
1.87934994697570801 -2 -8 0 0 0
2 -2.68170928955078125 -8 0 0 0
2 -2 -7.65780162811279297 1 2 1
1.87934994697570801 -2 7 0 0 0
2 -2.68170928955078125 7 0 0 0
2 -2 6.65780162811279297 0 0 0
1.47529828548431396 -2 8 1 0 1
2 -2 8.82798576354980469 0 0 0
1.2730790376663208 -1 -9 1 4 2
2 -1 -9.87045192718505859 6 0 5
1.67353427410125732 -1 -8 2 2 1
2 -1 -7.03872537612915039 4 3 2
1.67353427410125732 -1 7 2 1 1
2 -1 6.03872537612915039 0 0 0
1.2730790376663208 -1 8 0 0 0
2 -1 8.87045192718505859 0 0 0
1.33908939361572266 0 -9 5 2 1
2 0 -9.86404800415039062 0 2 6
1.72402667999267578 0 -8 1 2 2
2 0 -7.15970993041992188 2 4 2
1.72402667999267578 0 7 1 1 1
2 0 6.15970993041992188 0 0 0
1.33908939361572266 0 8 0 0 0
2 0 8.86404800415039062 1 0 0
1.64316630363464355 1 -9 1 3 1
2 1 -9.78643321990966797 3 4 0
2 0.98919147253036499 -8 2 4 2
2 1 -8.00821399688720703 2 4 1
2 0.98919147253036499 7 0 0 0
1.64316630363464355 1 8 0 0 0
2 1 7.00821399688720703 3 1 3
2 1 8.78643321990966797 4 2 3
1.88572227954864502 2 -9 0 2 2
2 2 -9.55649185180664062 2 2 0
2 2 -8.67331695556640625 0 1 1
1.88572227954864502 2 8 1 1 1
2 2 7.67331743240356445 5 4 6
2 2 8.55649185180664062 6 5 5
2 2.58529448509216309 -9 0 1 1
2 2.58529448509216309 8 6 5 5
3 -9.6432952880859375 -9 0 2 0
3 -9 -9.6432952880859375 0 1 1
3 -9 -8.52697086334228516 1 0 0
3 -9.6432952880859375 8 3 0 0
3 -9 7.52697086334228516 1 0 2
3 -9 8.6432952880859375 2 0 0
3 -8 -9.63609504699707031 0 3 0
3 -8 -8.54186630249023438 0 0 0
3 -8 7.54186582565307617 1 2 2
3 -8 8.63609504699707031 2 0 2
3 -7 -9.67145919799804688 4 0 0
3 -7 -8.46216678619384766 0 2 1
3 -7 7.46216726303100586 2 2 1
3 -7 8.67145919799804688 1 1 2
3 -6 -9.72872257232666016 0 2 0
3 -6 -8.2867431640625 0 0 2
3 -6 7.2867431640625 3 3 2
3 -6 8.72872257232666016 1 3 2
3 -5 -9.78566646575927734 0 0 0
3 -5 -8.01296615600585938 0 0 0
3 -5 7.01296663284301758 3 3 3
3 -5 8.78566646575927734 3 3 2
3 -4 -9.83240318298339844 1 0 2
2.59121561050415039 -4 -8 1 1 1
3 -4.96491050720214844 -8 2 1 1
3 -4 -7.60934877395629883 0 0 0
2.59121561050415039 -4 7 2 2 2
3 -4.96491050720214844 7 3 3 3
3 -4 6.60934877395629883 4 3 3
3 -4 8.83240318298339844 4 3 3
3 -3 -9.86788177490234375 3 0 1
2.15248012542724609 -3 -8 0 0 0
3 -3 -7.08886146545410156 1 0 1
2.15248012542724609 -3 7 0 0 0
3 -3 6.08886146545410156 4 2 3
3 -3 8.86788177490234375 4 4 4
3 -2 -9.89414119720458984 4 0 0
2.55541253089904785 -2 -7 0 0 0
3 -2.85874724388122559 -7 1 1 1
3 -2 -6.38866806030273438 0 0 0
2.55541253089904785 -2 6 0 0 0
3 -2.85874724388122559 6 4 2 3
3 -2 5.38866806030273438 4 2 3
3 -2 8.89414119720458984 4 4 4
3 -1 -9.91355705261230469 5 0 2
2.02988982200622559 -1 -7 0 0 0
2.70276761054992676 -1 -6 1 2 2
3 -1.53786885738372803 -6 1 1 1
3 -1 -5.47096157073974609 1 2 1
2.70276761054992676 -1 5 0 1 1
3 -1.53786885738372803 5 4 2 3
3 -1 4.47096157073974609 4 3 6
2.02988982200622559 -1 6 0 0 0
3 -1 8.91355705261230469 4 4 4
3 0 -9.91347122192382812 1 0 4
2.11360502243041992 0 -7 0 0 0
2.73029184341430664 0 -6 2 2 3
3 0 -5.47642707824707031 2 2 2
2.73029184341430664 0 5 0 0 0
3 0 4.47642707824707031 6 6 7
2.11360502243041992 0 6 0 0 0
3 0 8.91347122192382812 5 5 5
3 1 -9.89373588562011719 0 3 0
2.0061042308807373 1 -8 1 1 1
2.66563653945922852 1 -7 0 0 0
3 0.526374220848083496 -6 2 2 2
3 1 -6.40268087387084961 0 0 0
3 0.526374220848083496 5 6 5 7
2.66563653945922852 1 6 1 3 3
3 1 5.40268087387084961 8 8 8
2.0061042308807373 1 7 3 1 3
3 1 8.89373588562011719 6 5 6
3 2 -9.866790771484375 0 0 0
2.46703362464904785 2 -8 0 0 0
3 1.82815587520599365 -7 0 0 0
3 2 -7.10948801040649414 0 0 0
3 1.82815587520599365 6 8 8 8
2.46703362464904785 2 7 5 4 6
3 2 6.10948801040649414 8 6 8
3 2 8.866790771484375 6 4 5
2.15416717529296875 3 -9 0 0 0
3 3 -9.82986545562744141 0 0 0
2.79725289344787598 3 -8 0 0 0
3 3 -7.63752174377441406 0 0 0
2.79725289344787598 3 7 7 7 7
3 3 6.63752174377441406 5 4 6
2.15416717529296875 3 8 7 6 7
3 3 8.82986545562744141 3 2 2
2.43356442451477051 4 -9 0 0 0
3 4 -9.78017044067382812 1 0 0
3 3.8778996467590332 -8 0 0 0
3 4 -8.04599475860595703 1 1 0
3 3.8778996467590332 7 4 3 3
2.43356442451477051 4 8 6 5 6
3 4 7.04599475860595703 4 3 3
3 4 8.78017044067382812 2 1 2
2.62302970886230469 5 -9 0 0 0
3 5 -9.71765518188476562 1 0 0
3 5 -8.32647514343261719 1 1 0
2.62302970886230469 5 8 5 3 4
3 5 7.32647514343261719 4 4 4
3 5 8.71765518188476562 3 2 3
2.73978924751281738 6 -9 0 0 0
3 6 -9.65176963806152344 1 0 0
3 6 -8.50861835479736328 1 2 1
2.73978924751281738 6 8 3 1 1
3 6 7.50861883163452148 4 4 4
3 6 8.65176963806152344 3 2 3
2.79649186134338379 7 -9 0 0 0
3 7 -9.60767269134521484 2 2 0
3 7 -8.59513759613037109 1 2 1
2.79649186134338379 7 8 3 1 1
3 7 7.59513759613037109 2 2 2
3 7 8.60767269134521484 2 2 2
2.80249142646789551 8 -9 0 0 1
3 8 -9.61216831207275391 1 3 0
3 8 -8.58724880218505859 1 3 3
2.80249142646789551 8 8 3 1 1
3 8 7.5872492790222168 0 0 0
3 8 8.61216831207275391 0 0 0
3 8.61216831207275391 -9 1 3 3
3 8.61216831207275391 8 0 0 0
3.41388463973999023 -9 -9 1 0 0
3.41388463973999023 -9 8 2 0 0
3.43831300735473633 -8 -9 0 0 0
3.43831300735473633 -8 8 2 0 2
3.56808662414550781 -7 -9 0 2 1
3.56808662414550781 -7 8 1 1 2
3.84157633781433105 -6 -9 0 0 2
3.84157633781433105 -6 8 1 3 2
4 -5.63743972778320312 -9 0 3 1
4 -5 -9.47063732147216797 0 1 0
4 -5 -8.76964950561523438 0 0 1
4 -5.63743972778320312 8 1 1 2
4 -5 7.76964950561523438 3 3 3
4 -5 8.47063732147216797 2 3 3
4 -4 -9.72294044494628906 0 0 0
3.53284811973571777 -4 -8 0 0 0
4 -4 -8.30791568756103516 0 0 0
3.53284811973571777 -4 7 3 3 4
4 -4 7.30791521072387695 4 4 4
4 -4 8.72294044494628906 3 4 3
4 -3 -9.82233333587646484 2 0 1
4 -3.45450353622436523 -8 1 0 0
4 -3 -7.71600341796875 0 0 0
4 -3.45450353622436523 7 4 4 4
4 -3 6.71600341796875 5 5 6
4 -3 8.82233333587646484 4 5 3
4 -2 -9.87364673614501953 3 0 0
4 -2.03493928909301758 -7 1 1 1
4 -2 -6.97050285339355469 0 0 0
4 -2.03493928909301758 6 5 5 6
4 -2 5.97050285339355469 7 6 6
4 -2 8.87364673614501953 5 4 3
4 -1 -9.90411567687988281 3 0 0
4 -1.00017845630645752 -6 0 1 1
4 -1 -5.99979639053344727 0 0 0
4 -1.00017845630645752 5 7 6 6
4 -1 4.99979639053344727 8 5 5
4 -1 8.90411567687988281 5 3 3
4 0 -9.90699958801269531 2 0 1
4 0 -5.85172748565673828 0 1 0
4 0 4.85172748565673828 7 6 6
4 0 8.90699958801269531 4 4 2
4 1 -9.88792324066162109 0 0 0
4 0.177348330616950989 -6 0 1 0
4 1 -6.59090375900268555 0 0 0
4 0.177348330616950989 5 7 5 5
4 1 5.59090375900268555 6 6 6
4 1 8.88792324066162109 1 2 1
4 2 -9.86417007446289062 0 1 1
4 1.69752669334411621 -7 0 0 0
4 2 -7.15752458572387695 0 0 0
4 1.69752669334411621 6 6 4 5
4 2 6.15752458572387695 5 5 5
4 2 8.86417007446289062 1 2 2
4 3 -9.83598995208740234 0 2 2
4 3 -7.56791400909423828 0 0 0
4 3 6.56791400909423828 4 3 4
4 3 8.83598995208740234 2 3 2
4 4 -9.80574226379394531 0 2 2
3.27102923393249512 4 -8 0 0 0
4 4 -7.86578083038330078 0 0 0
3.27102923393249512 4 7 4 3 3
4 4 6.86578083038330078 1 1 2
4 4 8.80574226379394531 2 2 2
4 5 -9.77919101715087891 0 3 1
4 4.70522117614746094 -8 0 0 0
4 5 -8.05169486999511719 2 1 0
4 4.70522117614746094 7 2 2 3
4 5 7.05169486999511719 0 0 0
4 5 8.77919101715087891 1 1 1
4 6 -9.76468563079833984 0 3 0
4 6 -8.13022232055664062 2 1 0
4 6 7.13022279739379883 2 1 1
4 6 8.76468563079833984 0 1 1
4 7 -9.76821994781494141 3 4 0
4 7 -8.11205291748046875 2 2 0
4 7 7.11205339431762695 0 0 0
4 7 8.76821994781494141 2 3 3
4 8 -9.78822708129882812 4 1 0
3.99498867988586426 8 -8 1 1 2
4 7.97366905212402344 -8 0 1 1
4 8 -7.99672031402587891 0 0 2
3.99498867988586426 8 7 0 0 0
4 7.97366905212402344 7 0 0 0
4 8 6.99672031402587891 3 3 3
4 8 8.78822708129882812 2 2 1
4 8.78822708129882812 -9 0 3 0
4 8.0111846923828125 -8 0 0 2
4 8.0111846923828125 7 0 0 0
4 8.78822708129882812 8 2 2 1
4.11162424087524414 -5 -9 0 0 1
4.11162424087524414 -5 8 2 3 3
4.34873437881469727 -4 -9 0 0 0
4.34873437881469727 -4 8 3 4 3
4.66415929794311523 -3 -9 1 0 0
4.13202619552612305 -3 -8 0 0 0
4.13202619552612305 -3 7 4 5 4
4.66415929794311523 -3 8 4 5 3
5 -2.1714935302734375 -9 0 0 0
5 -2 -9.32635211944580078 0 0 0
4.49898433685302734 -2 -8 1 0 1
5 -2 -8.87514591217041016 0 0 0
4.01247262954711914 -2 -7 0 0 0
4.01247262954711914 -2 6 6 5 6
4.49898433685302734 -2 7 4 6 5
5 -2.1714935302734375 8 2 1 1
5 -2 7.87514543533325195 0 0 0
5 -2 8.32635211944580078 3 1 2
5 -1 -9.78060436248779297 0 0 0
4.97396278381347656 -1 -8 0 1 2
5 -1 -8.04344749450683594 0 0 0
4.44337320327758789 -1 -7 0 0 0
4.0000767707824707 -1 -6 0 0 0
4.0000767707824707 -1 5 7 5 6
4.44337320327758789 -1 6 6 4 6
4.97396278381347656 -1 7 4 6 6
5 -1 7.04344797134399414 1 1 1
5 -1 8.78060436248779297 0 0 0
5 0 -9.80819129943847656 1 0 0
5 -0.766163408756256104 -8 0 0 0
4.52818870544433594 0 -7 0 0 0
5 0 -7.8454289436340332 0 0 1
4.05891180038452148 0 -6 0 1 0
4.05891180038452148 0 5 7 5 5
4.52818870544433594 0 6 6 4 6
5 -0.766163408756256104 7 1 1 1
5 0 6.8454289436340332 2 2 2
5 0 8.80819129943847656 0 0 1
5 1 -9.71590137481689453 2 0 2
4.77995872497558594 1 -8 0 0 0
5 0.296712428331375122 -8 0 0 1
5 1 -8.33247280120849609 0 0 2
4.20223474502563477 1 -7 0 0 0
4.20223474502563477 1 6 6 4 5
4.77995872497558594 1 7 3 2 4
5 0.296712428331375122 7 1 2 1
5 1 7.33247280120849609 1 1 1
5 1 8.71590137481689453 0 0 1
5 2 -9.53427314758300781 2 0 3
4.50899410247802734 2 -8 0 0 0
5 2 -8.70175266265869141 0 1 2
4.50899410247802734 2 7 4 3 4
5 2 7.70175266265869141 0 0 0
5 2 8.53427314758300781 0 0 0
5 3 -9.10392379760742188 1 0 3
4.27874326705932617 3 -8 0 0 0
5 3 -8.97025299072265625 0 1 2
4.27874326705932617 3 7 4 3 4
5 3 7.97025251388549805 1 1 2
5 3 8.10392379760742188 1 1 1
4.88127899169921875 4 -9 1 2 0
5 3.17188191413879395 -9 0 1 2
4.09294748306274414 4 -8 0 0 0
4.09294748306274414 4 7 2 2 3
4.88127899169921875 4 8 2 2 2
5 3.17188191413879395 8 1 1 1
4.80264663696289062 5 -9 2 1 0
4.80264663696289062 5 8 1 1 1
4.80112600326538086 6 -9 2 1 0
4.80112600326538086 6 8 0 1 1
4.89780855178833008 7 -9 2 2 0
4.89780855178833008 7 8 2 3 3
5 7.47678995132446289 -9 3 1 0
5 8 -9.29278087615966797 1 5 0
4.00324916839599609 8 -8 0 0 2
5 8 -8.89340400695800781 3 2 0
4.00324916839599609 8 7 0 0 0
5 7.47678995132446289 8 2 2 1
5 8 7.89340400695800781 1 2 1
5 8 8.29278087615966797 1 0 0
5 8.29278087615966797 -9 3 2 0
5 8.29278087615966797 8 1 0 0
5.04525470733642578 -2 -9 0 0 0
5.04525470733642578 -2 8 3 1 2
5.35210418701171875 -1 -9 0 0 0
5.35210418701171875 -1 8 0 0 0
5.42911911010742188 0 -9 1 0 1
5.05139493942260742 0 -8 0 0 1
5.05139493942260742 0 7 1 2 1
5.42911911010742188 0 8 0 0 1
5.25616550445556641 1 -9 0 0 2
5.25616550445556641 1 8 0 0 1
5.11719989776611328 2 -9 0 1 2
5.11719989776611328 2 8 0 0 0
5.01198482513427734 3 -9 0 1 2
5.01198482513427734 3 8 1 1 1
5.0497593879699707 8 -9 3 2 0
5.0497593879699707 8 8 1 0 0
3 2 1 0
3 1 3 0
3 6 5 4
3 5 7 4
3 9 2 0
3 8 9 0
3 3 10 8
3 0 3 8
3 12 6 4
3 11 12 4
3 7 13 11
3 4 7 11
3 15 9 8
3 14 15 8
3 10 17 16
3 10 16 8
3 8 16 14
3 17 18 16
3 21 20 19
3 20 12 11
3 20 11 19
3 19 11 22
3 13 23 22
3 11 13 22
3 25 15 14
3 24 25 14
3 26 27 24
3 26 24 16
3 16 24 14
3 16 18 26
3 21 19 28
3 30 28 19
3 30 19 29
3 29 19 22
3 23 31 29
3 22 23 29
3 33 25 24
3 32 33 24
3 27 34 32
3 24 27 32
3 36 30 29
3 35 36 29
3 31 37 35
3 29 31 35
3 39 33 32
3 38 39 32
3 34 40 38
3 32 34 38
3 42 36 35
3 41 42 35
3 37 43 41
3 35 37 41
3 39 38 44
3 38 40 44
3 42 41 45
3 41 43 45
3 48 47 46
3 47 49 46
3 52 51 50
3 51 53 50
3 48 46 54
3 46 49 54
3 52 50 55
3 50 53 55
3 58 57 56
3 57 59 56
3 62 61 60
3 61 63 60
3 65 58 56
3 64 65 56
3 59 66 64
3 56 59 64
3 68 62 60
3 67 68 60
3 63 69 67
3 60 63 67
3 71 65 64
3 70 71 64
3 66 73 72
3 66 72 64
3 64 72 70
3 73 74 72
3 77 76 75
3 76 68 67
3 76 67 75
3 75 67 78
3 69 79 78
3 67 69 78
3 70 1 2
3 70 2 71
3 71 2 80
3 1 81 3
3 1 70 81
3 70 72 81
3 74 83 82
3 74 82 72
3 72 82 81
3 83 84 82
3 87 86 85
3 86 77 75
3 86 75 85
3 85 75 88
3 6 78 5
3 6 88 78
3 88 75 78
3 5 78 79
3 5 79 7
3 7 79 89
3 80 2 90
3 90 2 9
3 91 3 81
3 10 3 91
3 81 82 91
3 82 92 91
3 84 94 93
3 84 93 82
3 82 93 92
3 94 95 93
3 98 97 96
3 97 87 85
3 97 85 96
3 96 85 99
3 85 88 99
3 88 100 99
3 88 12 100
3 6 12 88
3 89 101 7
3 101 13 7
3 90 9 102
3 102 9 15
3 91 17 10
3 17 103 18
3 17 91 103
3 91 92 103
3 92 93 103
3 93 104 103
3 95 105 104
3 93 95 104
3 107 98 96
3 106 107 96
3 96 99 106
3 99 108 106
3 21 100 20
3 21 108 100
3 108 99 100
3 100 12 20
3 101 109 13
3 109 23 13
3 102 15 110
3 110 15 25
3 26 111 27
3 18 111 26
3 18 103 111
3 103 112 111
3 113 114 112
3 113 112 104
3 104 112 103
3 104 105 113
3 107 106 115
3 117 115 106
3 117 106 116
3 116 106 108
3 28 108 21
3 28 118 108
3 118 116 108
3 28 30 118
3 109 119 23
3 119 31 23
3 110 25 120
3 120 25 33
3 121 27 111
3 34 27 121
3 122 123 121
3 122 121 112
3 112 121 111
3 112 114 122
3 117 116 124
3 126 124 116
3 126 116 125
3 125 116 118
3 118 36 125
3 30 36 118
3 119 127 31
3 127 37 31
3 120 33 128
3 128 33 39
3 129 34 121
3 40 34 129
3 123 130 129
3 121 123 129
3 132 126 125
3 131 132 125
3 125 42 131
3 36 42 125
3 127 133 37
3 133 43 37
3 44 134 135
3 44 135 39
3 39 135 128
3 40 134 44
3 40 129 134
3 129 136 134
3 130 137 136
3 129 130 136
3 139 132 131
3 138 139 131
3 45 131 42
3 45 140 131
3 140 138 131
3 140 45 43
3 140 43 141
3 141 43 133
3 143 135 134
3 142 143 134
3 144 145 142
3 144 142 136
3 136 142 134
3 136 137 144
3 139 138 146
3 148 146 138
3 148 138 147
3 147 138 140
3 141 149 147
3 140 141 147
3 151 143 142
3 150 151 142
3 145 152 150
3 142 145 150
3 154 148 147
3 153 154 147
3 149 155 153
3 147 149 153
3 157 151 150
3 156 157 150
3 152 158 156
3 150 152 156
3 160 154 153
3 159 160 153
3 155 161 159
3 153 155 159
3 156 47 48
3 156 48 157
3 157 48 162
3 47 163 49
3 156 163 47
3 156 164 163
3 156 158 164
3 164 165 163
3 168 167 166
3 159 51 52
3 160 159 52
3 160 52 166
3 160 166 167
3 51 159 161
3 51 161 53
3 53 161 169
3 162 48 54
3 170 162 54
3 49 163 171
3 49 171 54
3 54 171 170
3 163 165 171
3 168 166 172
3 166 52 55
3 166 55 172
3 172 55 173
3 173 55 53
3 169 173 53
3 176 175 174
3 175 177 174
3 180 179 178
3 179 181 178
3 183 176 174
3 182 183 174
3 177 184 182
3 174 177 182
3 186 180 178
3 185 186 178
3 181 187 185
3 178 181 185
3 189 183 182
3 188 189 182
3 184 190 188
3 182 184 188
3 192 186 185
3 191 192 185
3 187 193 191
3 185 187 191
3 195 189 188
3 194 195 188
3 190 196 194
3 188 190 194
3 198 192 191
3 197 198 191
3 193 199 197
3 191 193 197
3 194 57 58
3 194 58 195
3 195 58 200
3 57 194 196
3 57 196 59
3 59 196 201
3 197 61 62
3 197 62 198
3 198 62 202
3 61 197 199
3 61 199 63
3 63 199 203
3 200 58 204
3 204 58 65
3 205 201 206
3 205 66 201
3 66 59 201
3 206 207 205
3 210 209 208
3 209 68 208
3 209 202 68
3 202 62 68
3 203 211 63
3 211 69 63
3 204 65 212
3 212 65 71
3 205 73 66
3 73 205 207
3 73 207 74
3 74 207 213
3 208 76 77
3 208 77 210
3 210 77 214
3 208 68 76
3 211 215 69
3 215 79 69
3 212 71 216
3 216 71 80
3 213 83 74
3 217 83 213
3 83 217 218
3 84 83 218
3 87 220 219
3 86 87 219
3 219 77 86
3 214 77 219
3 215 221 79
3 221 89 79
3 216 80 222
3 222 80 90
3 218 94 84
3 223 94 218
3 94 223 224
3 95 94 224
3 98 226 225
3 97 98 225
3 225 87 97
3 220 87 225
3 221 227 89
3 227 101 89
3 222 90 228
3 228 90 102
3 224 229 95
3 229 105 95
3 226 98 230
3 230 98 107
3 227 231 101
3 231 109 101
3 228 102 232
3 232 102 110
3 114 233 234
3 113 233 114
3 233 113 105
3 229 233 105
3 230 107 115
3 235 230 115
3 115 236 235
3 117 236 115
3 231 237 109
3 237 119 109
3 232 110 238
3 238 110 120
3 123 239 240
3 122 239 123
3 239 122 114
3 234 239 114
3 236 117 124
3 241 236 124
3 124 242 241
3 126 242 124
3 237 243 119
3 243 127 119
3 238 120 244
3 244 120 128
3 240 245 123
3 245 130 123
3 242 126 246
3 246 126 132
3 243 247 127
3 247 133 127
3 244 128 248
3 248 128 135
3 251 249 250
3 250 249 137
3 250 137 245
3 245 137 130
3 252 253 246
3 252 246 139
3 139 246 132
3 253 252 254
3 247 255 133
3 255 141 133
3 248 135 256
3 256 135 143
3 249 145 144
3 249 251 145
3 251 257 145
3 249 144 137
3 252 139 146
3 146 254 252
3 146 148 254
3 148 258 254
3 255 259 141
3 259 149 141
3 256 143 260
3 260 143 151
3 257 261 145
3 261 152 145
3 258 148 262
3 262 148 154
3 259 263 149
3 263 155 149
3 260 151 264
3 264 151 157
3 261 265 152
3 265 158 152
3 262 154 266
3 266 154 160
3 263 267 155
3 267 161 155
3 264 157 268
3 268 157 162
3 164 270 269
3 164 158 270
3 158 265 270
3 164 269 165
3 167 168 271
3 271 160 167
3 271 272 160
3 272 266 160
3 267 273 161
3 273 169 161
3 268 162 170
3 274 268 170
3 269 270 274
3 269 274 171
3 171 274 170
3 269 171 165
3 271 168 172
3 272 271 172
3 272 172 275
3 275 172 173
3 275 173 169
3 273 275 169
3 176 277 276
3 175 176 276
3 175 276 278
3 177 175 278
3 180 280 279
3 179 180 279
3 179 279 281
3 181 179 281
3 277 176 282
3 282 176 183
3 278 283 177
3 283 184 177
3 280 180 284
3 284 180 186
3 281 285 181
3 285 187 181
3 282 183 286
3 286 183 189
3 283 287 184
3 287 190 184
3 284 186 288
3 288 186 192
3 285 289 187
3 289 193 187
3 286 189 290
3 290 189 195
3 287 291 190
3 291 196 190
3 288 192 292
3 292 192 198
3 289 293 193
3 293 199 193
3 290 195 294
3 294 195 200
3 291 295 196
3 295 201 196
3 292 198 296
3 296 198 202
3 293 297 199
3 297 203 199
3 294 200 298
3 298 200 204
3 206 300 299
3 206 201 300
3 201 295 300
3 206 299 207
3 209 210 301
3 301 202 209
3 301 302 202
3 302 296 202
3 297 303 203
3 303 211 203
3 298 204 304
3 304 204 212
3 306 299 300
3 305 299 306
3 299 305 213
3 207 299 213
3 307 301 210
3 214 307 210
3 302 307 308
3 301 307 302
3 303 309 211
3 309 215 211
3 304 212 310
3 310 212 216
3 306 311 305
3 313 312 217
3 311 313 217
3 311 217 213
3 311 213 305
3 217 312 218
3 219 220 314
3 314 316 315
3 219 314 315
3 219 315 307
3 219 307 214
3 307 315 308
3 309 317 215
3 317 221 215
3 310 216 318
3 318 216 222
3 320 312 313
3 319 312 320
3 223 218 312
3 223 312 321
3 321 312 319
3 223 321 224
3 225 226 322
3 220 225 322
3 220 322 314
3 314 322 323
3 316 323 324
3 314 323 316
3 317 325 221
3 325 227 221
3 318 222 326
3 326 222 228
3 328 319 320
3 327 319 328
3 319 327 321
3 321 327 329
3 321 329 229
3 224 321 229
3 330 322 226
3 230 330 226
3 322 330 323
3 323 330 331
3 324 331 332
3 323 331 324
3 325 333 227
3 333 231 227
3 326 228 334
3 334 228 232
3 337 335 336
3 336 327 328
3 336 335 327
3 335 338 327
3 234 233 329
3 234 329 338
3 338 329 327
3 329 233 229
3 330 230 235
3 235 236 339
3 235 339 330
3 330 339 331
3 332 340 341
3 332 331 340
3 331 339 340
3 341 340 342
3 333 343 231
3 343 237 231
3 334 232 344
3 344 232 238
3 346 335 337
3 345 335 346
3 240 239 338
3 240 338 345
3 345 338 335
3 338 239 234
3 339 236 241
3 241 242 347
3 241 347 339
3 339 347 340
3 342 347 348
3 340 347 342
3 343 349 237
3 349 243 237
3 350 351 344
3 350 344 244
3 244 344 238
3 351 345 346
3 351 350 345
3 350 352 345
3 345 352 245
3 240 345 245
3 353 347 242
3 246 353 242
3 348 354 355
3 348 347 354
3 347 353 354
3 355 354 247
3 355 247 349
3 349 247 243
3 356 350 244
3 248 356 244
3 251 250 352
3 251 352 356
3 356 352 350
3 352 250 245
3 353 246 253
3 253 254 357
3 253 357 353
3 353 357 354
3 354 357 255
3 247 354 255
3 358 356 248
3 256 358 248
3 356 358 257
3 251 356 257
3 359 357 254
3 258 359 254
3 357 359 259
3 255 357 259
3 360 358 256
3 260 360 256
3 358 360 261
3 257 358 261
3 361 359 258
3 262 361 258
3 359 361 263
3 259 359 263
3 362 360 260
3 264 362 260
3 360 362 265
3 261 360 265
3 363 361 262
3 266 363 262
3 361 363 267
3 263 361 267
3 364 362 264
3 268 364 264
3 362 364 270
3 265 362 270
3 365 363 266
3 272 365 266
3 363 365 273
3 267 363 273
3 364 268 274
3 364 274 270
3 365 272 275
3 365 275 273
3 276 277 366
3 276 366 278
3 279 280 367
3 279 367 281
3 368 366 277
3 282 368 277
3 366 368 283
3 278 366 283
3 369 367 280
3 284 369 280
3 367 369 285
3 281 367 285
3 370 368 282
3 286 370 282
3 368 370 287
3 283 368 287
3 371 369 284
3 288 371 284
3 369 371 289
3 285 369 289
3 372 370 286
3 290 372 286
3 370 372 291
3 287 370 291
3 373 371 288
3 292 373 288
3 371 373 293
3 289 371 293
3 374 372 290
3 294 374 290
3 372 374 295
3 291 372 295
3 375 373 292
3 296 375 292
3 373 375 297
3 293 373 297
3 376 374 294
3 298 376 294
3 374 376 300
3 295 374 300
3 377 375 296
3 302 377 296
3 375 377 303
3 297 375 303
3 378 376 298
3 304 378 298
3 376 378 306
3 300 376 306
3 379 377 302
3 308 379 302
3 377 379 309
3 303 377 309
3 380 378 304
3 310 380 304
3 311 306 378
3 311 378 381
3 381 378 380
3 311 381 313
3 315 316 382
3 308 315 382
3 308 382 379
3 379 382 383
3 379 383 317
3 309 379 317
3 384 380 310
3 318 384 310
3 380 384 381
3 381 384 385
3 381 385 320
3 313 381 320
3 386 382 316
3 324 386 316
3 382 386 383
3 383 386 387
3 383 387 325
3 317 383 325
3 388 384 318
3 326 388 318
3 384 388 385
3 385 388 389
3 385 389 328
3 320 385 328
3 390 386 324
3 332 390 324
3 386 390 387
3 387 390 391
3 387 391 333
3 325 387 333
3 392 388 326
3 334 392 326
3 337 336 389
3 337 389 392
3 392 389 388
3 389 336 328
3 390 332 341
3 341 342 393
3 341 393 390
3 390 393 391
3 391 393 343
3 333 391 343
3 394 392 334
3 344 394 334
3 392 394 346
3 337 392 346
3 395 393 342
3 348 395 342
3 393 395 349
3 343 393 349
3 394 344 351
3 394 351 346
3 395 348 355
3 395 355 349
3 398 397 396
3 397 399 396
3 402 401 400
3 401 403 400
3 405 398 396
3 404 405 396
3 399 406 404
3 396 399 404
3 408 402 400
3 407 408 400
3 403 409 407
3 400 403 407
3 411 405 404
3 410 411 404
3 406 412 410
3 404 406 410
3 414 408 407
3 413 414 407
3 409 415 413
3 407 409 413
3 417 411 410
3 416 417 410
3 412 418 416
3 410 412 416
3 420 414 413
3 419 420 413
3 415 421 419
3 413 415 419
3 423 417 416
3 422 423 416
3 418 424 422
3 416 418 422
3 426 420 419
3 425 426 419
3 421 427 425
3 419 421 425
3 429 423 422
3 428 429 422
3 424 430 428
3 422 424 428
3 432 426 425
3 431 432 425
3 427 433 431
3 425 427 431
3 435 429 428
3 434 435 428
3 430 436 434
3 428 430 434
3 438 432 431
3 437 438 431
3 433 439 437
3 431 433 437
3 441 435 434
3 440 441 434
3 436 443 442
3 436 442 434
3 434 442 440
3 443 444 442
3 447 446 445
3 446 438 437
3 446 437 445
3 445 437 448
3 439 449 448
3 437 439 448
3 451 441 440
3 450 451 440
3 440 442 450
3 442 452 450
3 444 453 452
3 442 444 452
3 455 447 445
3 454 455 445
3 445 448 454
3 448 456 454
3 449 457 456
3 448 449 456
3 459 451 450
3 458 459 450
3 450 452 458
3 452 460 458
3 453 461 460
3 452 453 460
3 463 455 454
3 462 463 454
3 454 456 462
3 456 464 462
3 457 465 464
3 456 457 464
3 467 459 458
3 466 467 458
3 468 469 466
3 468 466 460
3 460 466 458
3 460 461 468
3 463 462 470
3 472 470 462
3 472 462 471
3 471 462 464
3 465 473 471
3 464 465 471
3 475 467 466
3 474 475 466
3 469 476 474
3 466 469 474
3 478 472 471
3 477 478 471
3 473 479 477
3 471 473 477
3 475 474 480
3 474 476 480
3 478 477 481
3 477 479 481
3 398 483 482
3 397 398 482
3 397 482 484
3 399 397 484
3 402 486 485
3 401 402 485
3 401 485 487
3 403 401 487
3 483 398 488
3 488 398 405
3 484 489 399
3 489 406 399
3 486 402 490
3 490 402 408
3 487 491 403
3 491 409 403
3 488 405 492
3 492 405 411
3 489 493 406
3 493 412 406
3 490 408 494
3 494 408 414
3 491 495 409
3 495 415 409
3 492 411 496
3 496 411 417
3 493 497 412
3 497 418 412
3 494 414 498
3 498 414 420
3 495 499 415
3 499 421 415
3 496 417 500
3 500 417 423
3 497 501 418
3 501 424 418
3 498 420 502
3 502 420 426
3 499 503 421
3 503 427 421
3 500 423 504
3 504 423 429
3 505 501 506
3 505 430 501
3 430 424 501
3 506 507 505
3 510 509 508
3 509 432 508
3 509 502 432
3 502 426 432
3 503 511 427
3 511 433 427
3 504 429 512
3 512 429 435
3 513 430 505
3 436 430 513
3 507 514 513
3 505 507 513
3 516 510 508
3 515 516 508
3 508 438 515
3 432 438 508
3 511 517 433
3 517 439 433
3 512 435 518
3 518 435 441
3 513 443 436
3 443 519 444
3 513 519 443
3 513 520 519
3 513 514 520
3 520 521 519
3 524 523 522
3 515 446 447
3 516 515 447
3 516 447 522
3 516 522 523
3 515 438 446
3 517 525 439
3 525 449 439
3 518 441 526
3 526 441 451
3 527 444 519
3 453 444 527
3 521 529 528
3 521 528 519
3 519 528 527
3 529 530 528
3 533 532 531
3 532 524 522
3 532 522 531
3 531 522 534
3 522 455 534
3 447 455 522
3 525 535 449
3 535 457 449
3 526 451 536
3 536 451 459
3 537 453 527
3 461 453 537
3 527 528 537
3 528 538 537
3 530 539 538
3 528 530 538
3 541 533 531
3 540 541 531
3 531 534 540
3 534 542 540
3 534 463 542
3 455 463 534
3 535 543 457
3 543 465 457
3 536 459 544
3 544 459 467
3 468 545 469
3 461 545 468
3 461 537 545
3 537 546 545
3 547 548 546
3 547 546 538
3 538 546 537
3 538 539 547
3 541 540 549
3 551 549 540
3 551 540 550
3 550 540 542
3 470 542 463
3 470 552 542
3 552 550 542
3 470 472 552
3 543 553 465
3 553 473 465
3 544 467 554
3 554 467 475
3 555 469 545
3 476 469 555
3 556 557 555
3 556 555 546
3 546 555 545
3 546 548 556
3 551 550 558
3 560 558 550
3 560 550 559
3 559 550 552
3 552 478 559
3 472 478 552
3 553 561 473
3 561 479 473
3 480 562 563
3 480 563 475
3 475 563 554
3 476 562 480
3 476 555 562
3 555 564 562
3 557 565 564
3 555 557 564
3 567 560 559
3 566 567 559
3 481 559 478
3 481 568 559
3 568 566 559
3 568 481 479
3 568 479 569
3 569 479 561
3 571 563 562
3 570 571 562
3 572 573 570
3 572 570 564
3 564 570 562
3 564 565 572
3 567 566 574
3 576 574 566
3 576 566 575
3 575 566 568
3 569 577 575
3 568 569 575
3 579 571 570
3 578 579 570
3 573 580 578
3 570 573 578
3 582 576 575
3 581 582 575
3 577 583 581
3 575 577 581
3 585 579 578
3 584 585 578
3 580 586 584
3 578 580 584
3 588 582 581
3 587 588 581
3 583 589 587
3 581 583 587
3 591 585 584
3 590 591 584
3 586 592 590
3 584 586 590
3 594 588 587
3 593 594 587
3 589 595 593
3 587 589 593
3 597 591 590
3 596 597 590
3 592 598 596
3 590 592 596
3 600 594 593
3 599 600 593
3 595 601 599
3 593 595 599
3 597 596 602
3 596 598 602
3 600 599 603
3 599 601 603
3 482 483 604
3 482 604 484
3 485 486 605
3 485 605 487
3 606 604 483
3 488 606 483
3 604 606 489
3 484 604 489
3 607 605 486
3 490 607 486
3 605 607 491
3 487 605 491
3 608 606 488
3 492 608 488
3 606 608 493
3 489 606 493
3 609 607 490
3 494 609 490
3 607 609 495
3 491 607 495
3 610 608 492
3 496 610 492
3 608 610 497
3 493 608 497
3 611 609 494
3 498 611 494
3 609 611 499
3 495 609 499
3 612 610 496
3 612 496 613
3 613 496 500
3 610 612 614
3 610 614 497
3 497 614 501
3 615 611 498
3 615 498 616
3 616 498 502
3 611 615 617
3 611 617 499
3 499 617 503
3 613 500 618
3 618 500 504
3 506 620 619
3 506 501 620
3 501 614 620
3 506 619 507
3 509 510 621
3 621 502 509
3 621 622 502
3 622 616 502
3 617 623 503
3 623 511 503
3 618 504 624
3 624 504 512
3 620 625 619
3 619 625 626
3 619 626 507
3 507 626 514
3 627 621 510
3 627 510 628
3 628 510 516
3 621 627 622
3 623 629 511
3 629 517 511
3 624 512 630
3 630 512 518
3 626 520 514
3 631 520 626
3 520 631 632
3 521 520 632
3 524 634 633
3 523 524 633
3 633 516 523
3 628 516 633
3 629 635 517
3 635 525 517
3 630 518 636
3 636 518 526
3 632 529 521
3 637 529 632
3 529 637 638
3 530 529 638
3 533 640 639
3 532 533 639
3 639 524 532
3 634 524 639
3 635 641 525
3 641 535 525
3 636 526 642
3 642 526 536
3 638 643 530
3 643 539 530
3 640 533 644
3 644 533 541
3 641 645 535
3 645 543 535
3 642 536 646
3 646 536 544
3 548 647 648
3 547 647 548
3 647 547 539
3 643 647 539
3 644 541 549
3 649 644 549
3 549 650 649
3 551 650 549
3 645 651 543
3 651 553 543
3 646 544 652
3 652 544 554
3 557 653 654
3 556 653 557
3 653 556 548
3 648 653 548
3 650 551 558
3 655 650 558
3 558 656 655
3 560 656 558
3 651 657 553
3 657 561 553
3 652 554 658
3 658 554 563
3 654 659 557
3 659 565 557
3 656 560 660
3 660 560 567
3 657 661 561
3 661 569 561
3 658 563 662
3 662 563 571
3 572 663 573
3 663 572 565
3 663 565 664
3 664 565 659
3 574 665 666
3 574 666 567
3 567 666 660
3 574 576 665
3 661 667 569
3 667 577 569
3 662 571 668
3 668 571 579
3 669 573 663
3 669 670 573
3 670 580 573
3 663 664 669
3 666 665 671
3 665 672 671
3 665 576 672
3 576 582 672
3 667 673 577
3 673 583 577
3 668 579 674
3 674 579 585
3 670 675 580
3 675 586 580
3 672 582 676
3 676 582 588
3 673 677 583
3 677 589 583
3 674 585 678
3 678 585 591
3 675 679 586
3 679 592 586
3 676 588 680
3 680 588 594
3 677 681 589
3 681 595 589
3 678 591 682
3 682 591 597
3 683 679 684
3 683 598 679
3 598 592 679
3 684 685 683
3 688 687 686
3 687 600 686
3 687 680 600
3 680 594 600
3 681 689 595
3 689 601 595
3 682 597 602
3 690 682 602
3 598 683 691
3 598 691 602
3 602 691 690
3 683 685 691
3 688 686 692
3 686 600 603
3 686 603 692
3 692 603 693
3 693 603 601
3 689 693 601
3 612 613 694
3 612 694 614
3 615 616 695
3 615 695 617
3 696 694 613
3 618 696 613
3 694 696 620
3 614 694 620
3 697 695 616
3 622 697 616
3 695 697 623
3 617 695 623
3 698 696 618
3 624 698 618
3 625 620 696
3 625 696 699
3 699 696 698
3 625 699 626
3 627 628 700
3 622 627 700
3 622 700 697
3 697 700 701
3 697 701 629
3 623 697 629
3 702 698 624
3 702 624 703
3 703 624 630
3 705 698 702
3 705 704 698
3 704 699 698
3 631 626 699
3 631 699 706
3 706 699 704
3 631 706 632
3 633 634 707
3 628 633 707
3 628 707 700
3 700 707 708
3 709 708 710
3 709 701 708
3 701 700 708
3 701 709 711
3 701 711 629
3 629 711 635
3 703 630 712
3 712 630 636
3 714 704 705
3 713 704 714
3 704 713 706
3 706 713 715
3 637 632 706
3 637 706 716
3 716 706 715
3 637 716 638
3 639 640 717
3 634 639 717
3 634 717 707
3 707 717 718
3 707 718 708
3 708 718 719
3 710 719 720
3 708 719 710
3 711 721 635
3 721 641 635
3 712 636 722
3 722 636 642
3 714 723 713
3 725 713 723
3 725 724 713
3 724 715 713
3 715 724 716
3 716 724 726
3 716 726 643
3 638 716 643
3 727 717 640
3 644 727 640
3 717 727 718
3 718 727 728
3 729 728 730
3 729 719 728
3 719 718 728
3 719 729 720
3 721 731 641
3 731 645 641
3 722 642 732
3 732 642 646
3 735 733 734
3 734 724 725
3 734 733 724
3 733 736 724
3 648 647 726
3 648 726 736
3 736 726 724
3 726 647 643
3 727 644 649
3 649 650 737
3 649 737 727
3 727 737 728
3 730 738 739
3 730 728 738
3 728 737 738
3 739 738 740
3 731 741 645
3 741 651 645
3 732 646 742
3 742 646 652
3 744 733 735
3 743 733 744
3 654 653 736
3 654 736 743
3 743 736 733
3 736 653 648
3 737 650 655
3 655 656 745
3 655 745 737
3 737 745 738
3 740 745 746
3 738 745 740
3 741 747 651
3 747 657 651
3 742 652 748
3 748 652 658
3 750 743 744
3 749 743 750
3 743 749 659
3 654 743 659
3 751 745 656
3 660 751 656
3 746 751 752
3 745 751 746
3 747 753 657
3 753 661 657
3 754 755 748
3 754 748 662
3 662 748 658
3 755 749 750
3 755 754 749
3 754 756 749
3 749 756 664
3 659 749 664
3 757 751 660
3 666 757 660
3 752 758 759
3 752 751 758
3 751 757 758
3 759 758 667
3 759 667 753
3 753 667 661
3 760 754 662
3 668 760 662
3 670 669 756
3 670 756 760
3 760 756 754
3 756 669 664
3 757 666 671
3 671 672 761
3 671 761 757
3 757 761 758
3 758 761 673
3 667 758 673
3 762 760 668
3 674 762 668
3 760 762 675
3 670 760 675
3 763 761 672
3 676 763 672
3 761 763 677
3 673 761 677
3 764 762 674
3 678 764 674
3 762 764 679
3 675 762 679
3 765 763 676
3 680 765 676
3 763 765 681
3 677 763 681
3 766 764 678
3 766 678 767
3 767 678 682
3 769 768 684
3 766 769 684
3 766 684 679
3 766 679 764
3 684 768 685
3 687 688 770
3 770 772 771
3 687 770 771
3 687 771 765
3 687 765 680
3 765 771 773
3 765 773 681
3 681 773 689
3 767 682 690
3 774 767 690
3 768 769 774
3 768 774 691
3 691 774 690
3 768 691 685
3 770 688 692
3 772 770 692
3 772 692 775
3 775 692 693
3 775 693 689
3 773 775 689
3 702 703 776
3 702 776 705
3 709 710 777
3 709 777 711
3 778 776 703
3 712 778 703
3 776 778 714
3 705 776 714
3 779 777 710
3 720 779 710
3 777 779 721
3 711 777 721
3 780 778 712
3 722 780 712
3 723 714 778
3 723 778 781
3 781 778 780
3 723 781 725
3 729 730 782
3 720 729 782
3 720 782 779
3 779 782 783
3 779 783 731
3 721 779 731
3 784 780 722
3 732 784 722
3 735 734 781
3 735 781 784
3 784 781 780
3 781 734 725
3 782 730 739
3 739 740 785
3 739 785 782
3 782 785 783
3 783 785 741
3 731 783 741
3 786 784 732
3 742 786 732
3 784 786 744
3 735 784 744
3 787 785 740
3 746 787 740
3 785 787 747
3 741 785 747
3 788 786 742
3 748 788 742
3 786 788 750
3 744 786 750
3 789 787 746
3 752 789 746
3 787 789 753
3 747 787 753
3 788 748 755
3 788 755 750
3 789 752 759
3 789 759 753
3 766 767 790
3 766 790 769
3 771 772 791
3 771 791 773
3 790 767 774
3 790 774 769
3 791 772 775
3 791 775 773
