ply
format ascii 1.0
element vertex 106
property float x
property float y
property float z
property uchar red
property uchar green
property uchar blue
element face 208
property list uchar int vertex_indices
end_header
-5.01146650314331055 7 -4 249 111 71
-5 6.98972225189208984 -4 203 42 26
-5 7 -4.0135807991027832 249 115 77
-5 7 -3.9082643985748291 254 202 184
-5 7.00985479354858398 -4 254 202 184
-5.04216241836547852 8 -2 239 135 84
-5 7.93212413787841797 -2 235 152 119
-5 8 -2.09453344345092773 246 179 145
-5.1752171516418457 8 -1 238 166 128
-5 7.85033321380615234 -1 231 129 85
-5.15517520904541016 8 0 232 174 142
-5 7.88570261001586914 0 237 129 81
-5.00586748123168945 8 1 221 162 128
-5 7.99478530883789062 1 248 153 107
-5 8 1.01664543151855469 237 233 230
-5 8.82388973236083984 -2 250 225 211
-5 8.9455718994140625 -1 250 243 238
-5 8.93406772613525391 0 247 244 242
-5 8.35385322570800781 1 237 233 230
-4.00797748565673828 7 -5 249 115 77
-4 6.99354171752929688 -5 213 41 26
-4 7 -5.00598335266113281 240 63 18
-4.93950891494750977 7 -4 254 202 184
-4 7 -4.96375608444213867 254 189 168
-4 7.00552082061767578 -5 254 189 168
-4.39065408706665039 8 -3 246 179 145
-4 7.76993417739868164 -3 220 105 59
-4 8 -3.53086280822753906 245 182 149
-4 7.81573629379272461 -2 201 65 9
-4 7.91013336181640625 -1 195 59 0
-4 7.98856973648071289 0 205 64 0
-4 7.99050092697143555 1 225 75 4
-4.06968259811401367 8 2 216 201 191
-4 7.98247528076171875 2 247 109 39
-4 8 2.0999598503112793 234 234 234
-4 8.96636104583740234 -3 253 237 227
-4 8.96682929992675781 -2 254 245 239
-4 8.93134212493896484 -1 254 239 228
-4 8.61807632446289062 0 254 238 225
-4 8.57376956939697266 1 251 242 235
-4 8.70788002014160156 2 234 234 234
-3 6.98286533355712891 -5 187 13 0
-3 7 -5.05314111709594727 246 136 104
-3 7 -4.97329568862915039 253 185 161
-3 7.03741455078125 -5 253 185 161
-3.52559041976928711 8 -4 245 182 149
-3 7.75577306747436523 -4 228 106 60
-3 8 -4.31403017044067383 235 137 93
-3 7.82046079635620117 -3 197 55 0
-3.24566245079040527 8 -2 254 245 239
-3 8 -2.24820041656494141 254 235 221
-3.78172588348388672 8 -1 254 239 228
-3.97559785842895508 8 0 254 238 225
-3.97722816467285156 8 1 251 242 235
-3.92885851860046387 8 2 234 234 234
-3 8.96566677093505859 -4 251 224 209
-3 8.96638870239257812 -3 254 235 221
-2.93116569519042969 7 -5 253 185 161
-2 7.77601432800292969 -4 220 63 4
-2 8 -4.7817387580871582 235 172 141
-2 7.99761104583740234 -3 189 53 0
-2 8 -2.99464631080627441 253 210 178
-2 8.97201442718505859 -4 252 230 216
-2 8.24738407135009766 -3 253 210 178
-1.34947764873504639 7 -6 248 165 140
-1 6.97958993911743164 -6 238 18 0
-1 7 -6.0197906494140625 202 38 0
-1 7 -5.96019887924194336 246 168 143
-1 7.02064323425292969 -6 246 168 143
-1.47053921222686768 8 -5 235 172 141
-1 7.87318992614746094 -5 251 128 84
-1 8 -5.0687708854675293 196 57 2
-1 7.81444406509399414 -4 224 62 0
-1.98751246929168701 8 -3 253 210 178
-1 8 -3.46745514869689941 251 222 202
-1 8.89602947235107422 -5 230 180 153
-1 8.96733379364013672 -4 251 222 202
-0.399607062339782715 7 -6 246 168 143
0 7.92549228668212891 -5 254 125 77
0 8 -5.04183053970336914 175 49 0
0 7.83437061309814453 -4 237 66 0
0 8 -3.54545450210571289 244 211 189
0 8.83775806427001953 -5 215 164 137
0 8.96314907073974609 -4 244 211 189
0.201927110552787781 8 -5 215 164 137
1 7.83409023284912109 -4 252 71 0
1 8 -4.55298423767089844 185 125 96
1 8 -3.37257647514343262 224 191 171
1 8.9618988037109375 -4 224 191 171
2 7.9011998176574707 -4 251 91 27
2 8 -4.13170099258422852 135 67 36
1.63023960590362549 8 -3 244 189 148
2 7.94018077850341797 -3 254 76 0
2 8 -2.80358242988586426 211 176 151
2 8.92040157318115234 -4 179 144 124
2 8.89791297912597656 -3 211 176 151
2.18832731246948242 8 -4 179 144 124
3 7.96549272537231445 -3 239 81 13
3 8 -3.07813906669616699 108 67 46
2.97179293632507324 8 -2 228 171 127
3 7.99254417419433594 -2 249 78 0
3 8 -1.95089423656463623 166 139 120
3 8.80858230590820312 -3 144 117 100
3 8.51087570190429688 -2 166 139 120
3.05414271354675293 8 -3 144 117 100
3.03419756889343262 8 -2 166 139 120
3 2 1 0
3 1 3 0
3 2 0 4
3 0 3 4
3 7 6 5
3 6 9 8
3 5 6 8
3 9 11 10
3 8 9 10
3 11 13 12
3 10 11 12
3 13 14 12
3 7 5 15
3 5 8 16
3 15 5 16
3 8 10 17
3 16 8 17
3 10 12 18
3 17 10 18
3 12 14 18
3 21 20 19
3 2 19 20
3 2 20 1
3 23 22 20
3 22 1 20
3 1 22 3
3 21 19 24
3 22 23 24
3 22 24 4
3 19 2 24
3 2 4 24
3 22 4 3
3 26 25 27
3 7 25 26
3 7 26 6
3 6 26 28
3 28 29 6
3 6 29 9
3 29 30 9
3 9 30 11
3 30 31 11
3 11 31 13
3 32 14 13
3 32 13 33
3 33 13 31
3 33 34 32
3 27 25 35
3 25 7 15
3 25 15 35
3 35 15 36
3 36 15 37
3 15 16 37
3 37 16 38
3 16 17 38
3 38 17 39
3 17 18 39
3 14 32 40
3 14 40 18
3 18 40 39
3 32 34 40
3 21 42 41
3 20 21 41
3 20 41 43
3 23 20 43
3 42 21 24
3 44 42 24
3 44 24 45
3 44 45 47
3 24 23 45
3 46 45 43
3 23 43 45
3 27 45 46
3 27 46 26
3 26 46 48
3 50 49 28
3 50 28 48
3 48 28 26
3 29 28 49
3 51 29 49
3 30 29 51
3 52 30 51
3 31 30 52
3 53 31 52
3 33 31 53
3 54 33 53
3 33 54 34
3 47 45 55
3 45 27 35
3 45 35 55
3 55 35 56
3 49 50 56
3 49 56 36
3 36 56 35
3 51 49 36
3 37 51 36
3 52 51 37
3 38 52 37
3 53 52 38
3 39 53 38
3 54 53 39
3 40 54 39
3 54 40 34
3 41 42 57
3 41 57 43
3 57 42 44
3 47 59 57
3 47 57 44
3 59 58 57
3 43 57 46
3 58 46 57
3 58 60 46
3 46 60 48
3 48 60 61
3 50 48 61
3 59 47 55
3 62 59 55
3 62 55 63
3 55 56 63
3 63 56 50
3 61 63 50
3 66 65 64
3 65 67 64
3 66 64 68
3 71 68 64
3 71 64 69
3 67 70 64
3 70 69 64
3 59 69 70
3 59 70 58
3 58 70 72
3 74 73 60
3 74 60 72
3 72 60 58
3 60 73 61
3 71 69 75
3 69 59 62
3 69 62 75
3 75 62 76
3 73 74 76
3 73 76 63
3 63 76 62
3 73 63 61
3 65 66 77
3 65 77 67
3 77 66 68
3 71 79 77
3 71 77 68
3 79 78 77
3 67 77 70
3 78 70 77
3 78 80 70
3 70 80 72
3 72 80 81
3 74 72 81
3 79 71 75
3 82 79 75
3 82 75 83
3 75 76 83
3 83 76 74
3 81 83 74
3 78 79 84
3 84 86 85
3 84 85 78
3 78 85 80
3 80 85 87
3 81 80 87
3 84 79 82
3 86 84 82
3 86 82 88
3 88 82 83
3 88 83 81
3 87 88 81
3 86 90 89
3 85 86 89
3 91 87 85
3 91 85 92
3 92 85 89
3 92 93 91
3 90 86 88
3 94 90 88
3 87 91 95
3 87 95 88
3 88 95 94
3 91 93 95
3 89 90 96
3 96 98 97
3 96 97 89
3 89 97 92
3 99 93 92
3 99 92 100
3 100 92 97
3 100 101 99
3 96 90 94
3 98 96 94
3 98 94 102
3 102 94 95
3 93 99 103
3 93 103 95
3 95 103 102
3 99 101 103
3 97 98 104
3 100 97 104
3 105 100 104
3 100 105 101
3 104 98 102
3 105 104 102
3 103 105 102
3 105 103 101
