ply
format ascii 1.0
element vertex 342
property float x
property float y
property float z
property uchar red
property uchar green
property uchar blue
element face 680
property list uchar int vertex_indices
end_header
-3.02116584777832031 3 0 185 200 253
-3 2.96534156799316406 0 213 254 184
-3 3 -0.144180551171302795 246 183 254
-3 3 0.0769963189959526062 183 254 249
-3 3.13715624809265137 0 183 254 249
-2.21251845359802246 2 0 213 254 184
-2 1.64215266704559326 0 252 213 196
-2 2 -0.565413355827331543 184 254 204
-2.24096179008483887 2 1 186 254 201
-2 1.75337767601013184 1 206 252 194
-2 2 1.40427529811859131 202 254 186
-2.1147003173828125 3 -2 254 185 202
-2 2.89467096328735352 -2 254 184 208
-2 3 -2.12120294570922852 185 254 228
-2.80106949806213379 3 -1 246 183 254
-2 2.19465875625610352 -1 184 254 204
-2.6447906494140625 3 1 182 247 253
-2 3 1.99296116828918457 181 254 216
-2.15085434913635254 4 -3 196 250 206
-2 3.81755566596984863 -3 185 254 228
-2 4 -3.18446612358093262 249 240 202
-2.67262816429138184 4 -2 251 190 250
-2.90401673316955566 4 -1 252 185 190
-2.82426571846008301 4 0 251 183 246
-2.43947815895080566 4 1 244 183 251
-2 4 1.650917649269104 216 182 252
-2 4.28274869918823242 -3 195 251 195
-2.12294793128967285 5 -2 182 189 234
-2 5 -2.24297523498535156 218 234 186
-2.33777046203613281 5 -1 236 180 206
-2.25651216506958008 5 0 235 178 181
-2 4.78028440475463867 1 216 182 252
-2 5 0.678659677505493164 241 181 184
-2 5.22255945205688477 -2 185 213 240
-2 5.57229900360107422 -1 242 183 214
-2 5.42915201187133789 0 241 181 184
-1.33878076076507568 1 0 252 213 196
-1 0.833380639553070068 0 242 235 201
-1 1 -0.941038072109222412 252 225 197
-1 1 0.746985912322998047 251 233 197
-1.7641603946685791 2 -1 184 254 204
-1 1.02260828018188477 -1 252 225 197
-1 2 -1.80476009845733643 254 185 235
-1 1.07564795017242432 1 220 252 195
-1.49825680255889893 2 2 185 222 254
-1 1.6189805269241333 2 193 193 253
-1 2 2.4019777774810791 185 235 254
-1 2.15193510055541992 -2 254 185 235
-1 3 -2.90174412727355957 185 254 246
-1.99350011348724365 3 2 181 229 253
-1 3 2.72347593307495117 181 253 254
-1.0389634370803833 4 -4 249 240 202
-1 3.97496771812438965 -4 216 253 190
-1 4 -4.0239710807800293 209 245 216
-1 3.0836331844329834 -3 185 254 246
-1.65715634822845459 4 2 226 183 251
-1 4 2.45280075073242188 203 182 252
-1 4.05251359939575195 -4 250 249 202
-1.43288600444793701 5 -3 218 234 186
-1 5 -3.37450218200683594 226 195 185
-1.8187178373336792 5 1 238 180 183
-1 4.78875064849853516 2 203 182 252
-1 5 1.82203543186187744 242 181 182
-1 5.58102655410766602 -3 233 236 186
-1.34106826782226562 6 -2 148 186 168
-1 6 -2.51322579383850098 160 176 142
-1.61333072185516357 6 -1 149 163 190
-1.47681331634521484 6 0 145 149 186
-1 5.92851924896240234 1 242 181 182
-1 6 0.880439400672912598 151 165 193
-1.04239118099212646 7 -2 141 126 161
-1 7 -2.07410383224487305 138 125 158
-1.25910437107086182 7 -1 134 121 156
-1.1171104907989502 7 0 119 118 152
-1 7 0.23443169891834259 118 143 152
-1.19950294494628906 8 -3 203 168 233
-1 7.74280881881713867 -3 138 125 158
-1 8 -3.25243973731994629 206 173 237
-1.69728684425354004 8 -2 225 162 216
-1.88597953319549561 8 -1 221 158 201
-1.75293338298797607 8 0 220 157 186
-1.30652916431427002 8 1 224 159 181
-1 7.57618570327758789 1 120 153 137
-1 8 1.41035342216491699 222 159 159
-1 8.43468666076660156 -3 228 166 216
-1 8.72507667541503906 -2 221 160 176
-1 8.76878452301025391 -1 217 157 165
-1 8.73958301544189453 0 218 157 159
-1 8.54065895080566406 1 222 159 159
-0.969698786735534668 1 -1 252 225 197
0 0.524074852466583252 -1 214 243 204
0 1 -1.54588675498962402 196 252 234
0 0.477637290954589844 0 238 243 201
-0.836956441402435303 1 1 220 252 195
0 0.702457964420318604 1 216 245 201
0 1 1.78598260879516602 236 252 196
-0.685348093509674072 2 -2 254 185 235
0 1.53818023204803467 -2 196 252 234
0 2 -2.2947685718536377 251 185 254
0 1.11549901962280273 2 193 207 253
0 2 2.93324184417724609 186 254 253
-0.807805955410003662 3 -3 185 254 246
0 2.67089390754699707 -3 251 185 254
0 3 -3.3219606876373291 226 253 190
-0.382221341133117676 3 3 187 182 253
0 2.2432708740234375 3 230 184 254
0 3 3.11714482307434082 182 196 253
0 3.61560273170471191 -4 226 253 190
0 4 -4.36805534362792969 209 245 211
0 3.50936555862426758 3 182 196 253
0 4 2.85025739669799805 183 183 252
0 4.80746984481811523 -4 249 241 203
0 5 -3.87281918525695801 224 186 184
-0.687718808650970459 5 2 235 179 181
0 5 2.26502227783203125 237 180 180
-0.449771672487258911 6 -3 160 176 142
0 6 -3.25437474250793457 132 160 140
-0.888171732425689697 6 1 146 185 186
0 5.4845576286315918 2 237 180 180
0 6 1.54660630226135254 145 173 185
-0.161231294274330139 7 -3 138 125 158
0 7 -3.11222410202026367 166 133 141
-0.39078211784362793 7 1 120 153 137
0 7 1.29338037967681885 118 152 145
-0.140593156218528748 8 -4 206 173 237
0 7.9006505012512207 -4 166 133 141
0 8 -4.09247207641601562 213 180 245
-0.356858551502227783 8 2 229 162 185
0 7.72485065460205078 2 127 147 163
0 8 2.23512172698974609 231 163 198
0 8.27140903472900391 -4 194 172 236
0 8.76813888549804688 -3 226 165 222
0 8.83642959594726562 -2 218 159 179
0 8.85241222381591797 -1 215 155 167
0 8.84148788452148438 0 217 156 161
0 8.78752326965332031 1 223 160 163
0 8.48412418365478516 2 231 163 198
1 0.251966893672943115 -1 211 245 206
1 1 -1.65744078159332275 195 251 252
1 0.241781607270240784 0 228 245 203
1 0.475030422210693359 1 238 247 202
0.395795881748199463 1 2 193 207 253
1 0.869804620742797852 2 202 200 250
1 1 2.20909380912780762 194 232 253
1 1.37539160251617432 -2 195 251 252
1 2 -2.43638968467712402 239 185 254
0.307637721300125122 2 3 230 184 254
1 1.82405281066894531 3 254 191 237
1 2 3.09677767753601074 207 185 254
1 2.50235199928283691 -3 239 185 254
1 3 -3.51990699768066406 248 253 193
1 3 3.19961929321289062 184 220 253
1 3.47587227821350098 -4 248 253 193
1 4 -4.45234155654907227 232 242 210
1 3.80615973472595215 3 184 220 253
1 4 2.93581533432006836 184 196 251
0.941809952259063721 5 -4 224 186 184
1 5 -4.00564432144165039 188 200 173
1 5 2.35513758659362793 233 179 179
1 5.01604080200195312 -4 218 213 181
1 6 -3.44932317733764648 126 139 152
1 5.69754266738891602 2 233 179 179
1 6 1.75026869773864746 142 138 175
1 7 -3.42930841445922852 167 134 134
1 7 1.63828659057617188 124 117 150
1 7.53497505187988281 -4 167 134 134
1 8 -4.47221183776855469 188 182 246
1 7.34183692932128906 2 160 127 164
1 8 2.6084132194519043 176 165 235
1 8.64697837829589844 -4 174 204 238
1 8.82363033294677734 -3 166 166 228
1 8.86506366729736328 -2 201 160 221
1 8.87581634521484375 -1 207 157 218
1 8.86844921112060547 0 220 157 216
1 8.83469867706298828 1 226 161 215
1 8.70264053344726562 2 176 165 235
2 0.617176592350006104 -1 222 248 205
2 1 -1.32391476631164551 193 198 253
2 0.191853001713752747 0 221 248 205
2 0.388049095869064331 1 249 234 203
2 0.82438361644744873 2 201 231 251
2 1 2.24889421463012695 194 253 241
2 1.63755810260772705 -2 193 198 253
2 2 -2.30080962181091309 216 186 254
2 1.97761440277099609 3 241 192 254
2 2 3.00990509986877441 187 199 254
2 2.55439901351928711 -3 216 186 254
2 3 -3.52110075950622559 252 216 198
2 3 3.05464601516723633 186 245 253
2 3.59623026847839355 -4 252 216 198
2 4 -4.27047300338745117 238 220 209
2 3.19989871978759766 3 186 245 253
2 4 2.70418500900268555 186 207 250
1.03429710865020752 5 -4 218 213 181
2 4.63756513595581055 -4 245 240 205
2 5 -3.77225518226623535 174 206 196
2 5 2.15159964561462402 223 173 181
2 6 -3.27900481224060059 143 120 135
2 5.35312557220458984 2 223 173 181
2 6 1.54341161251068115 160 127 148
2 7 -3.3833920955657959 175 140 168
2 7 1.58973240852355957 156 121 123
2 7.50052833557128906 -4 175 140 168
2 8 -4.59491491317749023 184 207 249
2 7.33620071411132812 2 171 132 133
2 8 2.70268893241882324 205 239 166
2 8.68909168243408203 -4 176 242 196
2 8.83192539215087891 -3 172 234 169
2 8.86903476715087891 -2 164 228 168
2 8.87892818450927734 -1 173 225 160
2 8.87212848663330078 0 164 227 161
2 8.84139919281005859 1 163 232 176
2 8.72802162170410156 2 205 239 166
2.43660426139831543 1 -1 253 199 194
3 0.875255227088928223 0 228 251 202
3 1 -0.227244406938552856 253 252 191
3 0.771355807781219482 1 252 216 203
2.82705068588256836 1 2 194 253 241
3 1 1.81546759605407715 253 223 194
2.76894211769104004 2 -2 254 186 208
3 1.35923933982849121 -1 253 252 191
3 2 -1.86586844921112061 254 187 193
3 1.06985223293304443 2 195 254 210
2.02968692779541016 2 3 187 199 254
3 2 2.55215048789978027 197 254 190
3 2.75038886070251465 -3 208 189 254
3 3 -3.33107709884643555 239 251 206
3 2.0725250244140625 -2 254 187 193
2.1437375545501709 3 3 186 245 253
3 3 2.54909014701843262 188 253 191
2.60752630233764648 4 -4 245 240 205
3 4 -3.75303268432617188 205 237 239
3 4 2.17900180816650391 187 232 246
3 5 -3.17080879211425781 188 161 183
2.31023931503295898 5 2 223 173 181
3 4.35524988174438477 2 187 232 246
3 5 1.49885797500610352 215 169 197
2.52578616142272949 6 -3 141 122 149
3 5.43487262725830078 -3 203 168 196
3 6 -2.58365797996520996 138 114 114
2.89760470390319824 6 1 160 127 148
3 5.89897680282592773 1 215 169 197
3 6 0.88937985897064209 146 117 122
2.94010329246520996 7 -3 158 125 129
3 7 -2.95914745330810547 137 159 173
3 6.3432765007019043 1 145 116 119
3 7 1.14756166934967041 131 131 170
3 7.68848180770874023 -4 153 191 179
3 8 -4.45523595809936523 186 222 251
3 7.02028846740722656 -3 137 159 173
3 7.58604001998901367 2 142 187 183
3 8 2.51585078239440918 245 200 166
3 8.61948776245117188 -4 227 247 179
3 8.80948448181152344 -3 242 175 173
3 8.85452365875244141 -2 237 230 168
3 8.86622428894042969 -1 182 235 165
3 8.85792827606201172 0 177 236 164
3 8.81960773468017578 1 226 240 165
3 8.66062831878662109 2 245 200 166
3.1144404411315918 1 0 253 226 192
3.22624039649963379 1 1 253 223 194
3.98065948486328125 2 -1 186 254 248
4 1.65525031089782715 0 254 203 190
4 2 -0.97145688533782959 190 230 254
4 1.55532693862915039 1 254 234 193
3.72535252571105957 2 2 197 254 190
4 2 1.70590758323669434 254 245 195
3.89513182640075684 3 -3 200 199 252
4 2.47815871238708496 -2 253 192 196
4 3 -2.94737529754638672 251 209 236
4 2.01159834861755371 -1 190 230 254
3.67236137390136719 3 2 188 253 191
4 3 1.6166532039642334 222 252 193
3.7585303783416748 4 -3 216 200 244
4 4 -2.62162423133850098 235 199 204
3.21917867660522461 4 2 187 232 246
4 4 1.07295894622802734 188 241 210
3.17755913734436035 5 -3 203 168 196
3.81983780860900879 5 -2 213 172 181
4 4.70466899871826172 -2 240 195 200
4 5 -1.2989577054977417 189 156 173
3.94970965385437012 5 0 219 171 196
4 4.92132425308227539 0 189 243 236
4 5 -0.399646848440170288 170 157 195
3.44493818283081055 5 1 215 169 197
4 4.11063623428344727 1 188 241 210
3.40301918983459473 6 -2 142 115 115
3.66688680648803711 6 -1 145 116 119
4 5.22164201736450195 -1 170 157 195
3.51267743110656738 6 0 146 117 122
3.76945805549621582 7 -2 127 129 162
4 6.88100099563598633 -1 108 134 124
4 7 -1.22065770626068115 185 178 144
3.8729708194732666 7 0 124 129 161
4 7 -0.660731852054595947 158 181 139
3.17977643013000488 7 1 131 131 170
4 7.9770503044128418 -4 213 184 171
4 8 -4.04088258743286133 188 201 253
4 7.50632858276367188 -3 197 171 155
4 7.12840843200683594 -2 185 178 144
4 7.07336091995239258 0 155 184 140
4 7.43630409240722656 1 181 193 146
4 7.96178627014160156 2 201 208 156
4 8 2.05606317520141602 250 226 164
4 8.12529850006103516 -4 246 251 181
4 8.72622871398925781 -3 248 236 175
4 8.80773735046386719 -2 171 246 186
4 8.82647991180419922 -1 168 225 244
4 8.81171035766601562 0 166 228 245
4 8.7376708984375 1 174 247 166
4 8.17528343200683594 2 250 226 164
4.52777767181396484 2 0 251 254 192
4.43678092956542969 2 1 254 245 195
4.60341787338256836 3 -2 252 204 208
4.79976177215576172 3 -1 198 204 252
4.71974563598632812 3 0 202 252 194
4.37169408798217773 3 1 222 252 193
4.28243303298950195 4 -2 240 195 200
4.46997833251953125 4 -1 215 192 242
4.38935470581054688 4 0 189 243 236
4.04524850845336914 4 1 188 241 210
4.05541467666625977 5 -1 170 157 195
4.04628705978393555 7 -1 158 181 139
4.05866909027099609 8 -4 246 251 181
5 7.97124814987182617 -3 178 223 175
5 8 -3.0757145881652832 212 253 183
5 7.7237091064453125 -2 165 212 214
5 7.62470054626464844 -1 159 164 210
5 7.71170949935913086 0 159 164 212
5 7.97867631912231445 1 162 219 213
4.07739925384521484 8 2 250 226 164
5 8 1.04855990409851074 251 203 163
5 8.15844440460205078 -3 252 213 177
5 8.625030517578125 -2 184 251 172
5 8.68446826934814453 -1 168 250 231
5 8.62573814392089844 0 165 251 184
5 8.11449813842773438 1 251 203 163
5.05240345001220703 8 -3 252 213 177
5.47267627716064453 8 -2 184 251 172
5.60953855514526367 8 -1 168 250 231
5.45995521545410156 8 0 165 251 184
5.03442049026489258 8 1 251 203 163
3 2 1 0
3 1 3 0
3 2 0 4
3 0 3 4
3 7 6 5
3 6 9 8
3 5 6 8
3 9 10 8
3 13 12 11
3 12 15 14
3 11 12 14
3 5 1 2
3 7 5 2
3 7 2 14
3 7 14 15
3 1 16 3
3 1 5 16
3 5 8 16
3 10 17 16
3 8 10 16
3 20 19 18
3 19 13 11
3 19 11 18
3 18 11 21
3 11 14 21
3 14 22 21
3 4 14 2
3 4 23 14
3 23 22 14
3 3 23 4
3 3 16 23
3 16 24 23
3 17 25 24
3 16 17 24
3 20 18 26
3 28 26 18
3 28 18 27
3 27 18 21
3 21 22 27
3 22 29 27
3 22 23 29
3 23 30 29
3 31 32 30
3 31 30 24
3 24 30 23
3 24 25 31
3 28 27 33
3 27 29 34
3 33 27 34
3 29 30 35
3 34 29 35
3 30 32 35
3 38 37 36
3 37 39 36
3 42 41 40
3 36 6 7
3 38 36 7
3 38 7 40
3 38 40 41
3 39 6 36
3 39 43 6
3 43 9 6
3 44 10 9
3 44 9 45
3 45 9 43
3 45 46 44
3 13 48 47
3 12 13 47
3 40 47 42
3 40 15 47
3 15 12 47
3 40 7 15
3 49 10 44
3 17 10 49
3 46 50 49
3 44 46 49
3 53 52 51
3 20 51 52
3 20 52 19
3 19 52 54
3 54 13 19
3 48 13 54
3 55 17 49
3 25 17 55
3 50 56 55
3 49 50 55
3 53 51 57
3 59 26 58
3 57 26 59
3 57 20 26
3 57 51 20
3 26 28 58
3 31 60 32
3 60 61 62
3 31 61 60
3 31 55 61
3 31 25 55
3 55 56 61
3 59 58 63
3 65 33 64
3 63 33 65
3 63 28 33
3 63 58 28
3 34 64 33
3 66 64 34
3 35 66 34
3 67 66 35
3 67 68 69
3 35 68 67
3 35 60 68
3 35 32 60
3 60 62 68
3 71 65 64
3 70 71 64
3 64 66 70
3 66 72 70
3 66 67 72
3 67 73 72
3 69 74 73
3 67 69 73
3 77 76 75
3 76 71 70
3 76 70 75
3 75 70 78
3 70 72 78
3 72 79 78
3 72 73 79
3 73 80 79
3 74 82 81
3 74 81 73
3 73 81 80
3 82 83 81
3 77 75 84
3 75 78 85
3 84 75 85
3 78 79 86
3 85 78 86
3 79 80 87
3 86 79 87
3 80 81 88
3 87 80 88
3 81 83 88
3 91 90 89
3 38 89 90
3 38 90 37
3 37 90 92
3 93 39 37
3 93 37 94
3 94 37 92
3 94 95 93
3 98 97 96
3 89 41 42
3 91 89 42
3 91 42 96
3 91 96 97
3 89 38 41
3 93 43 39
3 95 43 93
3 95 99 43
3 99 45 43
3 45 99 100
3 46 45 100
3 103 102 101
3 96 47 48
3 98 96 48
3 98 48 101
3 98 101 102
3 96 42 47
3 104 100 105
3 104 50 100
3 50 46 100
3 105 106 104
3 53 108 107
3 52 53 107
3 101 107 103
3 101 54 107
3 54 52 107
3 101 48 54
3 109 50 104
3 109 110 50
3 110 56 50
3 104 106 109
3 108 53 57
3 111 108 57
3 57 112 111
3 59 112 57
3 61 113 62
3 113 61 56
3 113 56 114
3 114 56 110
3 63 115 116
3 63 116 59
3 59 116 112
3 63 65 115
3 68 117 69
3 117 118 119
3 68 118 117
3 68 113 118
3 68 62 113
3 113 114 118
3 121 116 115
3 120 121 115
3 115 71 120
3 65 71 115
3 122 69 117
3 74 69 122
3 119 123 122
3 117 119 122
3 126 125 124
3 120 76 77
3 121 120 77
3 121 77 124
3 121 124 125
3 120 71 76
3 122 82 74
3 82 127 83
3 122 127 82
3 122 128 127
3 122 123 128
3 128 129 127
3 126 124 130
3 124 77 84
3 124 84 130
3 130 84 131
3 131 84 132
3 84 85 132
3 132 85 133
3 85 86 133
3 133 86 134
3 86 87 134
3 134 87 135
3 87 88 135
3 83 127 136
3 83 136 88
3 88 136 135
3 127 129 136
3 91 138 137
3 90 91 137
3 137 139 90
3 90 139 92
3 139 140 92
3 92 140 94
3 141 95 94
3 141 94 142
3 142 94 140
3 142 143 141
3 98 145 144
3 97 98 144
3 144 91 97
3 138 91 144
3 141 99 95
3 99 146 100
3 141 146 99
3 141 147 146
3 141 143 147
3 147 148 146
3 103 150 149
3 102 103 149
3 149 98 102
3 145 98 149
3 146 105 100
3 105 146 148
3 105 148 106
3 106 148 151
3 108 153 152
3 107 108 152
3 152 103 107
3 150 103 152
3 110 154 155
3 109 154 110
3 154 109 106
3 151 154 106
3 111 156 157
3 111 157 108
3 108 157 153
3 111 112 156
3 155 158 110
3 158 114 110
3 157 156 159
3 156 160 159
3 156 112 160
3 112 116 160
3 119 161 162
3 118 161 119
3 161 118 114
3 158 161 114
3 160 116 163
3 163 116 121
3 162 164 119
3 164 123 119
3 126 166 165
3 125 126 165
3 165 121 125
3 163 121 165
3 164 128 123
3 167 128 164
3 128 167 168
3 129 128 168
3 166 126 130
3 169 166 130
3 169 130 170
3 130 131 170
3 170 131 171
3 131 132 171
3 171 132 172
3 132 133 172
3 172 133 173
3 133 134 173
3 173 134 174
3 134 135 174
3 174 135 175
3 135 136 175
3 175 136 129
3 168 175 129
3 138 177 176
3 137 138 176
3 176 178 137
3 137 178 139
3 178 179 139
3 139 179 140
3 179 180 140
3 140 180 142
3 142 180 181
3 143 142 181
3 145 183 182
3 144 145 182
3 182 138 144
3 177 138 182
3 181 147 143
3 184 147 181
3 147 184 185
3 148 147 185
3 150 187 186
3 149 150 186
3 186 145 149
3 183 145 186
3 185 188 148
3 188 151 148
3 153 190 189
3 152 153 189
3 189 150 152
3 187 150 189
3 155 191 192
3 154 191 155
3 191 154 151
3 188 191 151
3 193 194 190
3 193 190 157
3 157 190 153
3 194 193 195
3 192 196 155
3 196 158 155
3 193 157 159
3 159 195 193
3 159 160 195
3 160 197 195
3 162 198 199
3 161 198 162
3 198 161 158
3 196 198 158
3 197 160 200
3 200 160 163
3 199 201 162
3 201 164 162
3 166 203 202
3 165 166 202
3 202 163 165
3 200 163 202
3 201 167 164
3 204 167 201
3 167 204 205
3 168 167 205
3 203 166 169
3 206 203 169
3 206 169 207
3 169 170 207
3 207 170 208
3 170 171 208
3 208 171 209
3 171 172 209
3 209 172 210
3 172 173 210
3 210 173 211
3 173 174 211
3 211 174 212
3 174 175 212
3 212 175 168
3 205 212 168
3 176 177 213
3 213 215 214
3 213 214 176
3 176 214 178
3 214 216 178
3 178 216 179
3 218 217 180
3 218 180 216
3 216 180 179
3 180 217 181
3 182 183 219
3 219 221 220
3 182 219 220
3 182 220 213
3 182 213 177
3 213 220 215
3 218 222 217
3 224 223 184
3 222 224 184
3 222 184 181
3 222 181 217
3 184 223 185
3 187 226 225
3 186 187 225
3 183 227 219
3 183 186 227
3 186 225 227
3 219 227 221
3 229 223 224
3 228 223 229
3 223 228 188
3 185 223 188
3 189 190 230
3 230 187 189
3 230 231 187
3 231 226 187
3 228 192 191
3 228 229 192
3 229 232 192
3 228 191 188
3 230 190 194
3 194 231 230
3 194 195 231
3 195 233 231
3 236 234 235
3 235 234 196
3 235 196 232
3 232 196 192
3 237 238 233
3 237 233 197
3 197 233 195
3 238 237 239
3 242 240 241
3 234 199 198
3 236 199 234
3 236 240 199
3 236 241 240
3 234 198 196
3 243 237 197
3 200 243 197
3 239 243 244
3 237 243 239
3 242 245 240
3 240 245 246
3 240 246 199
3 199 246 201
3 203 248 247
3 202 203 247
3 200 249 243
3 200 202 249
3 202 247 249
3 243 249 244
3 246 204 201
3 250 204 246
3 204 250 251
3 205 204 251
3 248 203 206
3 252 248 206
3 252 206 253
3 206 207 253
3 253 207 254
3 207 208 254
3 254 208 255
3 208 209 255
3 255 209 256
3 209 210 256
3 256 210 257
3 210 211 257
3 257 211 258
3 211 212 258
3 258 212 205
3 251 258 205
3 214 215 259
3 216 214 259
3 260 216 259
3 216 260 218
3 220 221 261
3 261 263 262
3 220 261 262
3 220 262 259
3 220 259 215
3 259 264 260
3 262 264 259
3 266 265 222
3 264 266 222
3 264 222 218
3 264 218 260
3 222 265 224
3 225 226 267
3 267 269 268
3 267 268 225
3 225 268 227
3 221 270 261
3 221 227 270
3 227 268 270
3 261 270 263
3 272 265 266
3 271 265 272
3 265 271 229
3 224 265 229
3 273 267 226
3 231 273 226
3 269 273 274
3 267 273 269
3 276 271 272
3 275 271 276
3 271 275 232
3 229 271 232
3 277 273 231
3 233 277 231
3 274 278 279
3 274 273 278
3 273 277 278
3 279 278 280
3 283 281 282
3 282 284 285
3 281 284 282
3 275 236 235
3 276 236 275
3 276 284 236
3 276 285 284
3 275 235 232
3 277 233 238
3 238 239 286
3 238 286 277
3 277 286 278
3 280 287 288
3 280 278 287
3 278 286 287
3 288 281 283
3 288 287 281
3 287 289 281
3 242 241 284
3 242 284 289
3 289 284 281
3 284 241 236
3 290 286 239
3 244 290 239
3 291 290 292
3 291 287 290
3 287 286 290
3 294 287 291
3 294 293 287
3 293 289 287
3 245 242 289
3 245 289 295
3 295 289 293
3 245 295 246
3 248 297 296
3 247 248 296
3 296 298 247
3 247 298 249
3 244 299 290
3 244 249 299
3 249 298 299
3 290 299 292
3 294 300 293
3 293 301 295
3 300 301 293
3 295 250 246
3 295 301 250
3 301 302 250
3 250 302 303
3 251 250 303
3 297 248 252
3 304 297 252
3 304 252 305
3 252 253 305
3 305 253 306
3 253 254 306
3 306 254 307
3 254 255 307
3 307 255 308
3 255 256 308
3 308 256 309
3 256 257 309
3 309 257 310
3 257 258 310
3 310 258 251
3 303 310 251
3 262 263 311
3 264 262 311
3 312 264 311
3 264 312 266
3 268 269 313
3 270 268 313
3 314 270 313
3 263 270 314
3 263 314 311
3 311 314 315
3 311 315 312
3 312 315 316
3 312 316 272
3 266 312 272
3 317 313 269
3 274 317 269
3 313 317 314
3 314 317 318
3 314 318 315
3 315 318 319
3 315 319 316
3 316 319 320
3 316 320 276
3 272 316 276
3 317 274 279
3 279 280 321
3 279 321 317
3 317 321 318
3 283 282 319
3 283 319 321
3 321 319 318
3 320 319 282
3 285 320 282
3 320 285 276
3 321 280 288
3 321 288 283
3 291 292 322
3 291 322 294
3 296 297 323
3 323 325 324
3 323 324 296
3 296 324 298
3 324 326 298
3 298 326 299
3 292 327 322
3 292 299 327
3 299 326 327
3 322 300 294
3 322 327 300
3 327 328 300
3 328 329 300
3 300 329 301
3 331 330 302
3 331 302 329
3 329 302 301
3 302 330 303
3 323 297 304
3 325 323 304
3 325 304 332
3 332 304 305
3 332 305 333
3 305 306 333
3 333 306 334
3 306 307 334
3 334 307 335
3 307 308 335
3 335 308 336
3 308 309 336
3 330 331 336
3 330 336 310
3 310 336 309
3 330 310 303
3 324 325 337
3 326 324 337
3 338 326 337
3 327 326 338
3 339 327 338
3 328 327 339
3 340 328 339
3 329 328 340
3 341 329 340
3 329 341 331
3 337 325 332
3 338 337 332
3 333 338 332
3 339 338 333
3 334 339 333
3 340 339 334
3 335 340 334
3 341 340 335
3 336 341 335
3 341 336 331
