ply
format ascii 1.0
element vertex 288
property float x
property float y
property float z
property uchar red
property uchar green
property uchar blue
element face 544
property list uchar int vertex_indices
end_header
-9.93942737579345703 -9 -9 11 0 0
-9 -9.93942737579345703 -9 15 4 4
-9 -9 -9.93942737579345703 10 0 0
-9.90673828125 -9 -8 12 1 1
-9 -9.90673828125 -8 15 2 2
-9.80334091186523438 -9 -7 12 4 4
-9 -9.80334091186523438 -7 16 1 1
-9 -9 -6.22177791595458984 12 2 2
-9.83546161651611328 -9 6 10 3 9
-9 -9.83546161651611328 6 13 13 13
-9 -9 5.05352497100830078 8 4 9
-9.914764404296875 -9 7 10 3 7
-9 -9.914764404296875 7 12 11 13
-9.94250583648681641 -9 8 11 5 5
-9 -9.94250583648681641 8 14 9 13
-9 -9 8.94250583648681641 9 4 6
-9.92063808441162109 -8 -9 7 5 5
-9 -8 -9.92063808441162109 5 4 4
-9.84142208099365234 -8 -8 7 7 7
-9 -8.15626621246337891 -7 12 2 2
-9 -8 -7.12479162216186523 6 6 6
-9.33401107788085938 -8 6 5 1 1
-9 -8 5.91190242767333984 4 0 3
-9.86821365356445312 -8 7 5 2 2
-9.92730045318603516 -8 8 6 3 3
-9 -8 8.92730045318603516 4 0 0
-9.88917636871337891 -7 -9 1 1 1
-9 -7 -9.88917636871337891 0 0 0
-9.56368064880371094 -7 -8 2 2 2
-9 -7 -7.79956436157226562 1 1 1
-9 -7.88427114486694336 6 4 0 2
-9.72556304931640625 -7 7 0 0 0
-9 -7 6.59174585342407227 1 0 0
-9.90274810791015625 -7 8 0 0 0
-9 -7 8.90274810791015625 1 0 0
-9.83012580871582031 -6 -9 4 0 0
-9 -6 -9.83012580871582031 5 0 0
-9 -6.62494611740112305 -8 1 1 1
-9 -6 -8.30580425262451172 4 0 0
-9 -6.26464557647705078 7 1 0 0
-9.85898590087890625 -6 8 6 1 1
-9 -6 7.13509607315063477 7 2 2
-9 -6 8.85898590087890625 7 2 2
-9.69410419464111328 -5 -9 9 1 1
-9 -5 -9.69410419464111328 11 2 2
-9 -5 -8.68852424621582031 10 1 1
-9.76699447631835938 -5 8 12 8 8
-9 -5 7.55193710327148438 13 8 8
-9 -5 8.76699447631835938 13 8 8
-9 -4.01192378997802734 -9 10 1 1
-9.49687862396240234 -4 8 18 0 0
-9 -4 7.86953496932983398 19 0 0
-9 -4 8.49687862396240234 19 0 0
-9 -3.42119145393371582 8 19 0 0
-9.36345005035400391 5 8 6 3 3
-9 4.42143821716308594 8 13 12 12
-9 5 7.92499017715454102 6 0 0
-9 5 8.36345005035400391 7 0 0
-9.30634403228759766 6 -9 3 2 2
-9 5.50202035903930664 -9 3 1 1
-9 6 -9.30634403228759766 1 1 1
-9 6 -8.94093894958496094 2 1 1
-9.61743354797363281 6 8 0 0 0
-9 6 7.7853703498840332 1 0 0
-9 6 8.61743354797363281 1 0 0
-9.58065319061279297 7 -9 7 3 3
-9 7 -9.58065319061279297 6 3 3
-9 7 -8.81285190582275391 7 3 3
-9.72011280059814453 7 8 5 2 2
-9 7 7.64806318283081055 4 2 2
-9 7 8.72011280059814453 4 2 2
-9.71173191070556641 8 -9 12 4 4
-9 8 -9.71173191070556641 10 6 6
-9 8 -8.66395759582519531 11 5 5
-9.76044273376464844 8 8 10 7 7
-9 8 7.55402851104736328 9 4 4
-9 8 8.76044273376464844 9 1 1
-9 8.71173191070556641 -9 11 5 5
-9 8.76044273376464844 8 9 1 1
-8 -9.89551067352294922 -9 14 2 2
-8 -9 -9.89551067352294922 9 8 8
-8 -9.66745853424072266 -8 15 3 3
-8.51193618774414062 -9 -7 12 2 2
-8 -9 -7.68099498748779297 11 9 9
-8.42749118804931641 -9 6 9 4 9
-8 -9.72092819213867188 7 2 1 12
-8 -9 6.59475898742675781 6 0 8
-8 -9.90214920043945312 8 5 0 12
-8 -9 8.90214920043945312 7 0 2
-8 -8 -9.82315349578857422 4 4 4
-8.30807399749755859 -8 -8 6 6 6
-8 -8.54065895080566406 -8 11 9 9
-8 -8 -8.33667278289794922 5 3 3
-8.94286060333251953 -8 6 4 0 2
-8.18631935119628906 -8 7 4 0 0
-8 -8.36867237091064453 7 7 0 6
-8 -8 7.21289157867431641 3 0 0
-8 -8 8.84796619415283203 2 0 0
-8 -7 -9.509857177734375 0 0 0
-8.83134078979492188 -7 -8 1 1 1
-8 -7 -8.85958385467529297 0 0 0
-8.66456317901611328 -7 7 1 0 0
-8 -7 7.69945383071899414 2 0 0
-8 -7 8.69237041473388672 2 0 0
-8.30778217315673828 -6 -9 4 0 0
-8 -6.67624616622924805 -9 0 0 0
-8.10206508636474609 -6 8 7 2 2
-8 -6.23526525497436523 8 2 0 0
-8.68250942230224609 -5 -9 10 1 1
-8.49952220916748047 -5 8 13 8 8
-8.84640979766845703 -4 8 19 0 0
-8.92464637756347656 5 8 7 0 0
-8.943115234375 6 -9 2 1 1
-8.80820751190185547 6 8 1 0 0
-8.83663558959960938 7 -9 7 3 3
-8.70823192596435547 7 8 4 2 2
-8.71885013580322266 8 -9 11 5 5
-8.66167926788330078 8 8 9 1 1
-7 -9.67956829071044922 -9 14 9 9
-7 -9 -9.67956829071044922 9 6 6
-7.72137165069580078 -9 -8 11 9 9
-7 -9 -8.71016693115234375 10 5 5
-7.60782003402709961 -9 7 7 0 6
-7 -9.77051067352294922 8 6 0 11
-7 -9 7.54389476776123047 7 0 4
-7 -9 8.77051067352294922 6 0 0
-7.25787353515625 -8 -9 5 3 3
-7 -8.43266677856445312 -9 10 5 5
-7.02122783660888672 -8 8 2 0 0
-7 -8.03477573394775391 8 6 0 0
-7.82681751251220703 -7 -9 0 0 0
-7.58566665649414062 -7 8 2 0 0
-6.57557058334350586 -9 -9 10 5 5
-6.3091583251953125 -9 8 6 0 0
4.65400505065917969 -9 -9 1 0 0
5 -9.47810745239257812 -9 2 0 0
5 -9 -9.47810745239257812 1 1 1
5 -9 -8.87402248382568359 0 0 0
4.22973108291625977 -9 8 2 2 2
5 -9.64400672912597656 8 0 0 0
5 -9 7.75861644744873047 3 0 1
5 -9 8.64400672912597656 4 0 0
5 -8.81647014617919922 -9 0 0 0
5 -8.63838100433349609 8 4 0 0
6 -9.81992816925048828 -9 0 0 0
6 -9 -9.81992816925048828 4 2 2
6 -9 -8.35965538024902344 3 1 1
6 -9.88200569152832031 8 0 0 0
6 -9 7.11510276794433594 5 0 0
6 -9 8.88200569152832031 5 0 0
6 -8.04344367980957031 -9 3 1 1
5.67757081985473633 -8 8 9 5 5
6 -8 7.79655790328979492 10 9 9
6 -8 8.60312652587890625 10 9 9
6 -7.64450693130493164 8 10 9 9
7 -9.91529083251953125 -9 1 0 0
7 -9 -9.91529083251953125 6 5 5
6.40947771072387695 -9 -8 2 0 0
7 -9.78669643402099609 -8 1 0 0
7 -9 -7.43899297714233398 5 0 0
6.93112516403198242 -9 6 5 0 1
7 -9.36718845367431641 6 1 1 2
7 -9 5.90348577499389648 5 0 6
6.11984920501708984 -9 7 5 0 0
7 -9.87715721130371094 7 0 0 1
7 -9.93119430541992188 8 0 0 0
7 -9 8.93119430541992188 4 1 3
6.03518390655517578 -8 -9 8 1 1
7 -8 -9.85009288787841797 11 1 1
7 -8.25188350677490234 -8 5 0 0
7 -8 -8.17963790893554688 10 3 3
7 -8.88080596923828125 6 6 0 5
6.74274969100952148 -8 7 10 9 9
7 -8 6.67539024353027344 11 2 5
7 -8 8.90018081665039062 9 2 2
6.72481870651245117 -7 -9 13 12 12
7 -7 -9.64082717895507812 16 12 12
7 -7 -8.75803852081298828 16 15 15
7 -7.50834560394287109 7 10 1 1
6.35395479202270508 -7 8 16 1 1
7 -7 7.29761409759521484 16 3 3
7 -7 8.83413124084472656 15 9 9
7 -6.52598762512207031 -9 16 15 15
6.8739933967590332 -6 8 22 2 2
7 -6 7.88221502304077148 23 3 3
7 -6 8.50038433074951172 22 2 2
7 -5.77059841156005859 8 22 2 2
8 -9.94445228576660156 -9 2 1 1
8 -9 -9.94445228576660156 6 6 6
8 -9.91902446746826172 -8 2 1 1
7.33129262924194336 -9 -7 4 0 0
8 -9.85348701477050781 -7 2 0 0
7.92882776260375977 -9 -6 4 0 0
8 -9.40130901336669922 -6 2 0 0
8 -9 -5.85346698760986328 6 2 2
7.75787925720214844 -9 5 5 0 6
8 -9.63441085815429688 5 1 0 2
8 -9 4.62533664703369141 7 0 5
8 -9.87305641174316406 6 1 0 2
8 -9.9245452880859375 7 1 0 1
8 -9.946075439453125 8 0 0 0
8 -9 8.946075439453125 4 1 1
8 -8 -9.92963027954101562 11 2 2
7.14840602874755859 -8 -8 10 4 4
7.86464118957519531 -8 -7 9 5 5
8 -8.86356163024902344 -6 6 2 2
8 -8 -6.77579832077026367 11 0 0
8 -8.65267848968505859 5 7 0 3
7.65919637680053711 -8 6 11 2 5
8 -8 5.595306396484375 12 11 11
8 -8 8.93257236480712891 10 6 6
8 -7 -9.90324211120605469 17 7 7
7.66915607452392578 -7 -8 15 13 13
8 -7.74431324005126953 -7 11 0 0
8 -7 -7.56360292434692383 17 15 15
8 -7.52244377136230469 6 11 11 11
7.35993671417236328 -7 7 16 3 3
8 -7 6.39025592803955078 17 1 1
8 -7 8.91216850280761719 16 1 1
7.2687835693359375 -6 -9 22 8 8
8 -6 -9.84340763092041016 24 8 8
8 -6.37486171722412109 -8 17 15 15
8 -6 -8.23529052734375 24 11 11
8 -6.00095224380493164 7 17 1 1
8 -6 7.00051450729370117 23 2 2
8 -6 8.87524318695068359 22 2 2
7.70634841918945312 -5 -9 28 5 5
8 -5 -9.68581295013427734 30 9 9
8 -5 -8.70225906372070312 30 5 5
7.47167539596557617 -5 8 29 28 28
8 -5 7.4850006103515625 30 29 29
8 -5 8.79028606414794922 29 27 27
8 -4.13841962814331055 -9 30 5 5
7.87974977493286133 -4 8 35 0 0
8 -4 7.87976408004760742 36 0 0
8 -4 8.47714710235595703 35 0 0
8 -3.60753440856933594 8 35 0 0
7.97315025329589844 6 -9 15 9 9
8 5.82390165328979492 -9 23 2 2
8 6 -9.17468166351318359 18 11 11
8 6 -8.97163963317871094 17 14 14
7.88127422332763672 6 8 16 3 3
8 5.43819379806518555 8 22 21 21
8 6 7.88422298431396484 17 0 0
8 6 8.46604824066162109 16 0 0
7.79502010345458984 7 -9 10 6 6
8 7 -9.60676860809326172 12 7 7
8 7 -8.79042148590087891 12 4 4
7.66081380844116211 7 8 11 3 3
8 7 7.66381216049194336 12 5 5
8 7 8.71375179290771484 11 5 5
7.58932161331176758 8 -9 6 1 1
8 8 -9.74947643280029297 7 2 2
8 8 -8.58661937713623047 7 1 1
7.42828512191772461 8 8 6 4 4
8 8 7.43002843856811523 7 5 5
8 8 8.80543613433837891 6 5 5
8 8.74947643280029297 -9 7 1 1
8 8.80543613433837891 8 6 5 5
8.94445228576660156 -9 -9 7 5 5
8.91902446746826172 -9 -8 7 4 4
8.85348701477050781 -9 -7 6 3 3
8.40130901336669922 -9 -6 6 2 2
8.63441085815429688 -9 5 7 0 3
8.87305641174316406 -9 6 6 0 2
8.9245452880859375 -9 7 5 0 0
8.946075439453125 -9 8 4 1 1
8.92963027954101562 -8 -9 12 0 0
8.87693119049072266 -8 -8 12 0 0
8.55078315734863281 -8 -7 11 0 0
8.68913364410400391 -8 6 11 11 11
8.88817882537841797 -8 7 11 9 9
8.93257236480712891 -8 8 10 6 6
8.90324211120605469 -7 -9 17 11 11
8.7342987060546875 -7 -8 17 15 15
8.79119491577148438 -7 7 17 1 1
8.91216850280761719 -7 8 16 1 1
8.84340763092041016 -6 -9 24 11 11
8.87524318695068359 -6 8 22 2 2
8.68581295013427734 -5 -9 30 5 5
8.79028606414794922 -5 8 29 27 27
8.47714710235595703 -4 8 35 0 0
8.17468166351318359 6 -9 17 14 14
8.46604824066162109 6 8 16 0 0
8.60676860809326172 7 -9 12 4 4
8.71375179290771484 7 8 11 5 5
8.74947643280029297 8 -9 7 1 1
8.80543613433837891 8 8 6 5 5
3 2 1 0
3 1 4 3
3 0 1 3
3 4 6 5
3 3 4 5
3 6 7 5
3 10 9 8
3 9 12 11
3 8 9 11
3 12 14 13
3 11 12 13
3 14 15 13
3 17 2 0
3 16 17 0
3 0 3 16
3 3 18 16
3 19 20 18
3 19 18 5
3 5 18 3
3 5 7 19
3 22 10 8
3 21 22 8
3 8 11 21
3 11 23 21
3 11 13 23
3 13 24 23
3 15 25 24
3 13 15 24
3 27 17 16
3 26 27 16
3 16 18 26
3 18 28 26
3 20 29 28
3 18 20 28
3 22 21 30
3 32 30 21
3 32 21 31
3 31 21 23
3 23 24 31
3 24 33 31
3 25 34 33
3 24 25 33
3 36 27 26
3 35 36 26
3 37 38 35
3 37 35 28
3 28 35 26
3 28 29 37
3 32 31 39
3 41 39 31
3 41 31 40
3 40 31 33
3 34 42 40
3 33 34 40
3 44 36 35
3 43 44 35
3 38 45 43
3 35 38 43
3 47 41 40
3 46 47 40
3 42 48 46
3 40 42 46
3 44 43 49
3 43 45 49
3 51 47 46
3 50 51 46
3 48 52 50
3 46 48 50
3 51 50 53
3 50 52 53
3 56 55 54
3 55 57 54
3 60 59 58
3 59 61 58
3 63 56 54
3 62 63 54
3 57 64 62
3 54 57 62
3 66 60 58
3 65 66 58
3 61 67 65
3 58 61 65
3 69 63 62
3 68 69 62
3 64 70 68
3 62 64 68
3 72 66 65
3 71 72 65
3 67 73 71
3 65 67 71
3 75 69 68
3 74 75 68
3 70 76 74
3 68 70 74
3 72 71 77
3 71 73 77
3 75 74 78
3 74 76 78
3 2 80 79
3 1 2 79
3 79 81 1
3 1 81 4
3 83 82 6
3 83 6 81
3 81 6 4
3 6 82 7
3 9 10 84
3 84 86 85
3 84 85 9
3 9 85 12
3 85 87 12
3 12 87 14
3 14 87 88
3 15 14 88
3 80 2 89
3 89 2 17
3 92 90 91
3 82 20 19
3 83 20 82
3 83 90 20
3 83 91 90
3 82 19 7
3 93 84 10
3 22 93 10
3 86 94 95
3 86 84 94
3 84 93 94
3 95 94 96
3 88 97 15
3 97 25 15
3 89 17 98
3 98 17 27
3 100 90 92
3 99 90 100
3 90 99 29
3 20 90 29
3 93 22 30
3 30 32 101
3 30 101 93
3 93 101 94
3 96 101 102
3 94 101 96
3 97 103 25
3 103 34 25
3 104 105 98
3 104 98 36
3 36 98 27
3 99 38 37
3 100 38 99
3 100 104 38
3 100 105 104
3 99 37 29
3 101 32 39
3 39 41 106
3 101 39 106
3 101 106 107
3 101 107 102
3 107 106 42
3 107 42 103
3 103 42 34
3 108 104 36
3 44 108 36
3 104 108 45
3 38 104 45
3 109 106 41
3 47 109 41
3 106 109 48
3 42 106 48
3 108 44 49
3 108 49 45
3 110 109 47
3 51 110 47
3 109 110 52
3 48 109 52
3 110 51 53
3 110 53 52
3 55 56 111
3 55 111 57
3 59 60 112
3 59 112 61
3 113 111 56
3 63 113 56
3 111 113 64
3 57 111 64
3 114 112 60
3 66 114 60
3 112 114 67
3 61 112 67
3 115 113 63
3 69 115 63
3 113 115 70
3 64 113 70
3 116 114 66
3 72 116 66
3 114 116 73
3 67 114 73
3 117 115 69
3 75 117 69
3 115 117 76
3 70 115 76
3 116 72 77
3 116 77 73
3 117 75 78
3 117 78 76
3 80 119 118
3 79 80 118
3 121 120 81
3 121 81 118
3 118 81 79
3 81 120 83
3 85 86 122
3 122 124 123
3 122 123 85
3 85 123 87
3 87 123 125
3 88 87 125
3 126 127 119
3 126 119 89
3 89 119 80
3 120 92 91
3 121 92 120
3 121 126 92
3 121 127 126
3 120 91 83
3 122 86 95
3 95 96 128
3 122 95 128
3 122 128 129
3 122 129 124
3 129 128 97
3 129 97 125
3 125 97 88
3 130 126 89
3 98 130 89
3 126 130 100
3 92 126 100
3 131 128 96
3 102 131 96
3 128 131 103
3 97 128 103
3 130 98 105
3 130 105 100
3 131 102 107
3 131 107 103
3 118 119 132
3 118 132 121
3 123 124 133
3 123 133 125
3 132 119 127
3 132 127 121
3 133 124 129
3 133 129 125
3 136 135 134
3 135 137 134
3 140 139 138
3 139 141 138
3 136 134 142
3 134 137 142
3 140 138 143
3 138 141 143
3 136 145 144
3 135 136 144
3 135 144 146
3 137 135 146
3 140 148 147
3 139 140 147
3 139 147 149
3 141 139 149
3 145 136 142
3 150 145 142
3 150 142 137
3 146 150 137
3 143 151 152
3 143 152 140
3 140 152 148
3 151 143 141
3 151 141 153
3 153 141 149
3 152 151 154
3 151 153 154
3 145 156 155
3 144 145 155
3 157 146 144
3 157 144 158
3 158 144 155
3 158 159 157
3 162 161 160
3 161 164 163
3 160 161 163
3 148 163 164
3 148 164 147
3 147 164 165
3 147 165 166
3 149 147 166
3 150 167 168
3 150 168 145
3 145 168 156
3 167 169 170
3 150 169 167
3 150 157 169
3 150 146 157
3 157 159 169
3 162 160 171
3 173 171 160
3 173 160 172
3 172 160 163
3 163 152 172
3 148 152 163
3 166 174 149
3 174 153 149
3 176 168 167
3 175 176 167
3 170 177 175
3 167 170 175
3 173 172 178
3 180 154 179
3 178 154 180
3 178 152 154
3 178 172 152
3 179 154 153
3 179 153 181
3 181 153 174
3 176 175 182
3 175 177 182
3 184 180 179
3 183 184 179
3 181 185 183
3 179 181 183
3 184 183 186
3 183 185 186
3 156 188 187
3 155 156 187
3 187 189 155
3 155 189 158
3 190 159 158
3 190 158 191
3 191 158 189
3 191 193 192
3 190 191 192
3 193 194 192
3 197 196 195
3 162 195 196
3 162 196 161
3 161 196 198
3 198 199 161
3 161 199 164
3 199 200 164
3 164 200 165
3 165 200 201
3 166 165 201
3 188 156 202
3 202 156 168
3 169 203 170
3 159 203 169
3 159 190 203
3 190 204 203
3 205 206 204
3 205 204 192
3 192 204 190
3 192 194 205
3 197 195 207
3 209 171 208
3 207 171 209
3 207 162 171
3 207 195 162
3 171 173 208
3 201 210 166
3 210 174 166
3 202 168 211
3 211 168 176
3 212 170 203
3 177 170 212
3 213 214 212
3 213 212 204
3 204 212 203
3 204 206 213
3 209 208 215
3 217 178 216
3 215 178 217
3 215 173 178
3 215 208 173
3 178 180 216
3 210 218 174
3 218 181 174
3 182 219 220
3 182 220 176
3 176 220 211
3 219 221 222
3 182 221 219
3 182 212 221
3 182 177 212
3 212 214 221
3 217 216 223
3 216 224 223
3 216 180 224
3 180 184 224
3 218 225 181
3 225 185 181
3 227 220 219
3 226 227 219
3 222 228 226
3 219 222 226
3 186 229 230
3 186 230 184
3 184 230 224
3 229 186 185
3 229 185 231
3 231 185 225
3 227 226 232
3 226 228 232
3 234 230 229
3 233 234 229
3 231 235 233
3 229 231 233
3 234 233 236
3 233 235 236
3 239 238 237
3 238 240 237
3 243 242 241
3 242 244 241
3 246 239 237
3 245 246 237
3 240 247 245
3 237 240 245
3 249 243 241
3 248 249 241
3 244 250 248
3 241 244 248
3 252 246 245
3 251 252 245
3 247 253 251
3 245 247 251
3 255 249 248
3 254 255 248
3 250 256 254
3 248 250 254
3 252 251 257
3 251 253 257
3 255 254 258
3 254 256 258
3 187 188 259
3 189 187 259
3 260 189 259
3 191 189 260
3 261 191 260
3 193 191 261
3 262 193 261
3 193 262 194
3 196 197 263
3 198 196 263
3 264 198 263
3 199 198 264
3 265 199 264
3 200 199 265
3 266 200 265
3 200 266 201
3 267 259 188
3 202 267 188
3 259 267 260
3 260 267 268
3 260 268 261
3 261 268 269
3 206 205 262
3 206 262 269
3 269 262 261
3 262 205 194
3 263 197 207
3 207 209 270
3 207 270 263
3 263 270 264
3 264 270 265
3 265 270 271
3 265 271 266
3 266 271 272
3 266 272 210
3 201 266 210
3 273 267 202
3 211 273 202
3 267 273 268
3 268 273 274
3 214 213 269
3 214 269 274
3 274 269 268
3 269 213 206
3 270 209 215
3 215 217 275
3 215 275 270
3 270 275 271
3 271 275 272
3 272 275 276
3 272 276 218
3 210 272 218
3 277 273 211
3 220 277 211
3 222 221 274
3 222 274 277
3 277 274 273
3 274 221 214
3 275 217 223
3 223 224 278
3 223 278 275
3 275 278 276
3 276 278 225
3 218 276 225
3 279 277 220
3 227 279 220
3 277 279 228
3 222 277 228
3 280 278 224
3 230 280 224
3 278 280 231
3 225 278 231
3 279 227 232
3 279 232 228
3 281 280 230
3 234 281 230
3 280 281 235
3 231 280 235
3 281 234 236
3 281 236 235
3 238 239 282
3 238 282 240
3 242 243 283
3 242 283 244
3 284 282 239
3 246 284 239
3 282 284 247
3 240 282 247
3 285 283 243
3 249 285 243
3 283 285 250
3 244 283 250
3 286 284 246
3 252 286 246
3 284 286 253
3 247 284 253
3 287 285 249
3 255 287 249
3 285 287 256
3 250 285 256
3 286 252 257
3 286 257 253
3 287 255 258
3 287 258 256
