ply
format ascii 1.0
element vertex 176
property float x
property float y
property float z
property uchar red
property uchar green
property uchar blue
element face 336
property list uchar int vertex_indices
end_header
-9.90163516998291016 -9 -9 0 2 2
-9 -9.90163516998291016 -9 1 2 7
-9 -9 -9.90163516998291016 0 3 1
-9.87588977813720703 -9 -8 1 1 5
-9 -9.87588977813720703 -8 12 3 15
-9.83779430389404297 -9 -7 11 3 12
-9 -9.83779430389404297 -7 22 6 16
-9.77858161926269531 -9 -6 18 5 13
-9 -9.77858161926269531 -6 28 9 13
-9.68092727661132812 -9 -5 22 9 12
-9 -9.68092727661132812 -5 32 13 14
-9.50903034210205078 -9 -4 26 12 13
-9 -9.50903034210205078 -4 36 18 18
-9.19125461578369141 -9 -3 28 13 13
-9 -9.19125461578369141 -3 38 18 20
-9 -9 -2.67122077941894531 37 21 21
-9.38985538482666016 -9 3 15 4 17
-9 -9.38985538482666016 3 10 6 27
-9 -9 2.24706625938415527 29 10 31
-9.64068603515625 -9 4 7 2 12
-9 -9.64068603515625 4 4 9 22
-9.76231956481933594 -9 5 1 1 5
-9 -9.76231956481933594 5 3 11 15
-9.83028602600097656 -9 6 0 1 2
-9 -9.83028602600097656 6 1 7 7
-9.87202930450439453 -9 7 2 8 11
-9 -9.87202930450439453 7 0 1 0
-9.89945507049560547 -9 8 3 21 21
-9 -9.89945507049560547 8 1 11 4
-9 -9 8.89945507049560547 2 12 9
-9.79199504852294922 -8 -9 0 4 3
-9 -8 -9.79199504852294922 1 4 1
-9.60095024108886719 -8 -8 0 2 4
-9 -8.09660911560058594 -7 21 6 19
-9 -8 -7.26835107803344727 3 3 12
-9 -8.39960193634033203 -6 26 9 16
-9 -8.64251232147216797 -5 31 12 15
-9 -8.82882595062255859 -4 34 16 17
-9 -8.96133899688720703 -3 37 21 21
-9 -8.89159584045410156 3 18 7 26
-9 -8.69285297393798828 4 8 5 21
-9 -8.43647289276123047 5 3 5 14
-9 -8.1189117431640625 6 1 4 6
-9.58784675598144531 -8 7 2 4 12
-9 -8 6.3164372444152832 1 1 5
-9.78937435150146484 -8 8 4 14 22
-9 -8 8.78937435150146484 2 11 13
-9 -7.28699159622192383 -9 1 4 4
-9 -7.726837158203125 -8 3 3 12
-9 -7.73204517364501953 7 0 2 3
-9 -7.27260875701904297 8 2 11 13
-8 -9.86903858184814453 -9 6 3 15
-8 -9 -9.86903858184814453 1 4 4
-8 -9.81584072113037109 -8 23 5 23
-8 -9.71045017242431641 -7 30 8 18
-8 -9.42318820953369141 -6 35 12 15
-8.24886703491210938 -9 -5 31 12 15
-8 -9 -5.49076938629150391 34 11 18
-8.64087867736816406 -9 -4 34 16 17
-8.91897296905517578 -9 -3 37 21 21
-8.76695823669433594 -9 3 18 7 26
-8.34291553497314453 -9 4 8 5 21
-8 -9.34732151031494141 5 5 21 23
-8 -9 4.63618612289428711 8 10 29
-8 -9.69382476806640625 6 3 16 13
-8 -9.80945491790771484 7 1 7 4
-8 -9.86578750610351562 8 0 2 0
-8 -9 8.86578750610351562 0 3 2
-8 -8 -9.51356029510498047 0 3 1
-8.47105789184570312 -8 -8 3 3 12
-8 -8.23238563537597656 -8 17 6 21
-8 -8 -8.55953407287597656 3 8 12
-8 -8.58658599853515625 -7 28 8 22
-8 -8.87917041778564453 -6 34 11 18
-8 -8.90968036651611328 5 5 13 22
-8 -8.60631084442138672 6 3 12 15
-8.48562908172607422 -8 7 0 2 3
-8 -8.24069023132324219 7 1 6 6
-8 -8 7.56343793869018555 1 3 5
-8 -8 8.51060962677001953 1 4 4
-8 -7.80928850173950195 -9 3 8 12
-8 -7.80453395843505859 8 1 4 4
-7 -9.81268215179443359 -9 14 5 21
-7 -9 -9.81268215179443359 3 10 11
-7 -9.67185401916503906 -8 29 8 24
-7.00127887725830078 -9 -7 28 8 22
-7 -9 -7.00153255462646484 27 8 28
-7.70883035659790039 -9 -6 34 11 18
-7.78669404983520508 -9 5 5 13 22
-7.07873010635375977 -9 6 3 12 15
-7 -9.64709091186523438 7 3 15 11
-7 -9 6.09552717208862305 5 18 22
-7 -9.80365467071533203 8 1 5 3
-7 -9 8.80365467071533203 1 4 4
-7.57533645629882812 -8 -9 3 8 12
-7 -8.24794197082519531 -9 8 6 20
-7 -8.65631484985351562 -8 27 8 28
-7 -8.68253707885742188 7 3 14 14
-7.58976602554321289 -8 8 1 4 4
-7 -8.26818466186523438 8 1 4 4
-6 -9.69795894622802734 -9 22 7 28
-6 -9 -9.69795894622802734 5 12 17
-6.02510309219360352 -9 -8 27 8 28
-6 -9 -8.02230548858642578 15 8 26
-6.18190670013427734 -9 7 3 14 14
-6 -9.65523815155029297 8 3 13 8
-6 -9 7.17662954330444336 6 18 21
-6 -9 8.65523815155029297 3 11 11
-6 -8.61013698577880859 -9 15 8 26
-6 -8.66988945007324219 8 3 11 11
-5 -9.36558914184570312 -9 30 9 33
-5 -9 -9.36558914184570312 7 13 23
-5 -9 -8.76217555999755859 22 10 32
-5.03811025619506836 -9 8 3 11 11
-5 -8.90486049652099609 -9 22 10 32
-4.59557819366455078 -9 -9 22 10 32
4.3735041618347168 -9 -9 22 17 33
5 -9.47037887573242188 -9 21 14 29
5 -9 -9.47037887573242188 8 17 18
5 -9 -8.65927982330322266 17 15 27
5 -8.85283470153808594 -9 17 15 27
6 -9.71867942810058594 -9 13 9 22
6 -9 -9.71867942810058594 4 11 11
6 -9 -8.01528072357177734 11 12 20
5.42466974258422852 -9 8 2 7 7
6 -9.50119686126708984 8 0 1 0
6 -9 7.58948135375976562 3 8 10
6 -9 8.50119686126708984 0 0 0
6 -8.56774520874023438 -9 11 12 20
6 -8.82886028289794922 8 0 0 0
7 -9.81622409820556641 -9 6 5 13
7 -9 -9.81622409820556641 1 3 2
6.01993560791015625 -9 -8 24 15 28
7 -9.66089344024658203 -8 19 8 21
7 -9 -7.14944171905517578 15 10 20
6.69714927673339844 -9 7 3 8 10
7 -9.38529109954833984 7 0 2 2
7 -9 6.70614528656005859 3 5 10
7 -9.75004100799560547 8 1 7 4
7 -9 8.75004100799560547 2 8 8
7 -8.22932720184326172 -9 6 8 12
7 -8.66358089447021484 -8 15 10 20
7 -8.89373493194580078 7 0 1 1
7 -8.47477531433105469 8 2 8 8
8 -9.8669891357421875 -9 1 1 3
8 -9 -9.8669891357421875 2 6 3
8 -9.80797195434570312 -8 9 4 11
7.14629030227661133 -9 -7 27 12 24
8 -9.66647529602050781 -7 18 6 14
7.98443078994750977 -9 -6 32 14 21
8 -9.03617286682128906 -6 23 8 12
8 -9 -5.97775793075561523 22 9 15
7.63419008255004883 -9 6 3 5 10
8 -9.46489524841308594 6 0 1 1
8 -9 5.51743602752685547 2 2 8
8 -9.74529647827148438 7 1 7 5
8 -9.8390350341796875 8 4 17 9
8 -9 8.8390350341796875 4 18 16
7.58828115463256836 -8 -9 5 9 11
8 -8 -9.48050785064697266 2 7 2
8 -8.2595672607421875 -8 7 4 10
8 -8 -8.61459541320800781 0 1 1
8 -8.65517711639404297 -7 17 7 16
8 -8.99368667602539062 -6 22 9 15
8 -8.85219669342041016 6 0 0 0
8 -8.4881439208984375 7 2 6 8
8 -8.05720710754394531 8 4 18 16
8 -7.83339738845825195 -9 0 1 1
8.8669891357421875 -9 -9 1 1 2
8.80797195434570312 -9 -8 7 4 10
8.66647529602050781 -9 -7 17 7 16
8.03617286682128906 -9 -6 22 9 15
8.46489524841308594 -9 6 0 0 0
8.74529647827148438 -9 7 2 6 8
8.8390350341796875 -9 8 4 18 16
8.48050785064697266 -8 -9 0 1 1
3 2 1 0
3 1 4 3
3 0 1 3
3 4 6 5
3 3 4 5
3 6 8 7
3 5 6 7
3 8 10 9
3 7 8 9
3 10 12 11
3 9 10 11
3 12 14 13
3 11 12 13
3 14 15 13
3 18 17 16
3 17 20 19
3 16 17 19
3 20 22 21
3 19 20 21
3 22 24 23
3 21 22 23
3 24 26 25
3 23 24 25
3 26 28 27
3 25 26 27
3 28 29 27
3 31 2 0
3 30 31 0
3 0 3 30
3 3 32 30
3 33 34 32
3 33 32 5
3 5 32 3
3 5 7 35
3 33 5 35
3 7 9 36
3 35 7 36
3 9 11 37
3 36 9 37
3 11 13 38
3 37 11 38
3 13 15 38
3 18 16 39
3 16 19 40
3 39 16 40
3 19 21 41
3 40 19 41
3 21 23 42
3 41 21 42
3 44 42 23
3 44 23 43
3 43 23 25
3 25 27 43
3 27 45 43
3 29 46 45
3 27 29 45
3 31 30 47
3 30 32 48
3 47 30 48
3 32 34 48
3 44 43 49
3 43 45 50
3 49 43 50
3 45 46 50
3 2 52 51
3 1 2 51
3 51 53 1
3 1 53 4
3 53 54 4
3 4 54 6
3 54 55 6
3 6 55 8
3 57 56 10
3 57 10 55
3 55 10 8
3 12 10 56
3 58 12 56
3 14 12 58
3 59 14 58
3 14 59 15
3 17 18 60
3 20 17 60
3 61 20 60
3 61 63 62
3 61 62 20
3 20 62 22
3 62 64 22
3 22 64 24
3 64 65 24
3 24 65 26
3 65 66 26
3 26 66 28
3 28 66 67
3 29 28 67
3 52 2 68
3 68 2 31
3 71 69 70
3 34 70 69
3 34 33 70
3 33 72 70
3 72 33 73
3 33 35 73
3 56 57 73
3 56 73 36
3 36 73 35
3 58 56 36
3 37 58 36
3 59 58 37
3 38 59 37
3 59 38 15
3 60 18 39
3 61 60 39
3 40 61 39
3 63 61 40
3 63 40 74
3 74 40 41
3 74 41 75
3 41 42 75
3 76 42 44
3 76 77 42
3 77 75 42
3 77 76 78
3 67 79 29
3 79 46 29
3 68 31 47
3 80 68 47
3 69 71 80
3 69 80 48
3 48 80 47
3 69 48 34
3 76 44 49
3 78 76 49
3 78 49 81
3 81 49 50
3 81 50 46
3 79 81 46
3 52 83 82
3 51 52 82
3 82 84 51
3 51 84 53
3 86 85 54
3 86 54 84
3 84 54 53
3 55 54 85
3 87 55 85
3 55 87 57
3 62 63 88
3 64 62 88
3 89 64 88
3 89 91 90
3 89 90 64
3 64 90 65
3 90 92 65
3 65 92 66
3 66 92 93
3 67 66 93
3 94 95 83
3 94 83 68
3 68 83 52
3 71 95 94
3 71 70 95
3 70 96 95
3 85 86 96
3 85 96 72
3 72 96 70
3 87 85 72
3 73 87 72
3 87 73 57
3 88 63 74
3 89 88 74
3 75 89 74
3 91 89 75
3 91 75 97
3 97 75 77
3 98 77 78
3 98 99 77
3 99 97 77
3 99 98 79
3 99 79 93
3 93 79 67
3 94 68 80
3 94 80 71
3 98 78 81
3 98 81 79
3 83 101 100
3 82 83 100
3 103 102 84
3 103 84 100
3 100 84 82
3 84 102 86
3 90 91 104
3 104 106 105
3 104 105 90
3 90 105 92
3 92 105 107
3 93 92 107
3 101 83 95
3 108 101 95
3 102 103 108
3 102 108 96
3 96 108 95
3 102 96 86
3 104 91 97
3 106 104 97
3 106 97 109
3 109 97 99
3 109 99 93
3 107 109 93
3 101 111 110
3 100 101 110
3 100 110 112
3 103 100 112
3 105 106 113
3 105 113 107
3 111 101 108
3 114 111 108
3 114 108 103
3 112 114 103
3 113 106 109
3 113 109 107
3 110 111 115
3 110 115 112
3 115 111 114
3 115 114 112
3 118 117 116
3 117 119 116
3 118 116 120
3 116 119 120
3 118 122 121
3 117 118 121
3 117 121 123
3 119 117 123
3 126 125 124
3 125 127 124
3 122 118 120
3 128 122 120
3 128 120 119
3 123 128 119
3 126 124 129
3 124 127 129
3 122 131 130
3 121 122 130
3 132 123 121
3 132 121 133
3 133 121 130
3 133 134 132
3 137 136 135
3 126 135 136
3 126 136 125
3 125 136 138
3 125 138 139
3 127 125 139
3 131 122 128
3 140 131 128
3 123 132 141
3 123 141 128
3 128 141 140
3 132 134 141
3 137 135 142
3 135 126 129
3 135 129 142
3 142 129 143
3 143 129 127
3 139 143 127
3 131 145 144
3 130 131 144
3 144 146 130
3 130 146 133
3 147 134 133
3 147 133 148
3 148 133 146
3 148 150 149
3 147 148 149
3 150 151 149
3 154 153 152
3 137 152 153
3 137 153 136
3 136 153 155
3 155 156 136
3 136 156 138
3 138 156 157
3 139 138 157
3 140 158 159
3 140 159 131
3 131 159 145
3 158 160 161
3 158 140 160
3 140 141 160
3 134 147 162
3 134 162 141
3 141 162 160
3 147 149 163
3 162 147 163
3 149 151 163
3 154 152 164
3 152 137 142
3 152 142 164
3 164 142 165
3 165 142 166
3 142 143 166
3 166 143 139
3 157 166 139
3 159 158 167
3 158 161 167
3 144 145 168
3 146 144 168
3 169 146 168
3 148 146 169
3 170 148 169
3 150 148 170
3 171 150 170
3 150 171 151
3 153 154 172
3 155 153 172
3 173 155 172
3 156 155 173
3 174 156 173
3 156 174 157
3 175 168 145
3 159 175 145
3 161 160 169
3 161 169 175
3 175 169 168
3 170 169 160
3 162 170 160
3 171 170 162
3 163 171 162
3 171 163 151
3 172 154 164
3 173 172 164
3 165 173 164
3 174 173 165
3 166 174 165
3 174 166 157
3 175 159 167
3 175 167 161
