ply
format ascii 1.0
element vertex 168
property float x
property float y
property float z
property uchar red
property uchar green
property uchar blue
element face 320
property list uchar int vertex_indices
end_header
-9.89496803283691406 -9 -9 0 3 0
-9 -9.89496803283691406 -9 2 11 11
-9 -9 -9.89496803283691406 1 3 0
-9.86553192138671875 -9 -8 1 6 6
-9 -9.86553192138671875 -8 5 7 21
-9.82054805755615234 -9 -7 3 6 15
-9 -9.82054805755615234 -7 20 7 30
-9.74694347381591797 -9 -6 14 6 23
-9 -9.74694347381591797 -6 37 9 32
-9.614776611328125 -9 -5 29 8 27
-9 -9.614776611328125 -5 43 12 25
-9.34399509429931641 -9 -4 34 10 22
-9 -9.34399509429931641 -4 48 14 19
-9 -9 -3.32088565826416016 46 14 25
-9.13258457183837891 -9 3 22 4 8
-9 -9.13258457183837891 3 36 7 26
-9 -9 2.81732702255249023 41 10 19
-9.56277656555175781 -9 4 14 2 7
-9 -9.56277656555175781 4 28 5 26
-9.73001575469970703 -9 5 5 0 3
-9 -9.73001575469970703 5 18 3 20
-9.81425189971923828 -9 6 4 0 3
-9 -9.81425189971923828 6 6 1 9
-9.86306381225585938 -9 7 16 2 15
-9 -9.86306381225585938 7 0 0 1
-9.89399909973144531 -9 8 26 3 29
-9 -9.89399909973144531 8 5 1 14
-9 -9 8.89399909973144531 10 2 17
-9.76153659820556641 -8 -9 3 6 1
-9 -8 -9.76153659820556641 6 6 1
-9.47899723052978516 -8 -8 0 3 2
-9 -8.19567108154296875 -7 11 6 26
-9 -8 -7.54749441146850586 3 14 14
-9 -8.49355506896972656 -6 30 9 34
-9 -8.73159313201904297 -5 40 11 31
-9 -8.91313743591308594 -4 46 14 25
-9 -8.97394847869873047 3 34 7 20
-9 -8.77733993530273438 4 26 5 19
-9 -8.52308559417724609 5 17 3 15
-9 -8.20772838592529297 6 6 1 6
-9.48232460021972656 -8 7 19 2 14
-9 -8 6.55229282379150391 4 0 3
-9.76468944549560547 -8 8 32 4 28
-9 -8 8.76468944549560547 16 2 20
-9 -7.39741039276123047 -9 1 4 1
-9 -7.83202266693115234 -8 3 14 14
-9 -7.82423877716064453 7 7 1 7
-9 -7.36693429946899414 8 16 2 20
-8 -9.85863876342773438 -9 4 14 22
-8 -9 -9.85863876342773438 1 7 1
-8 -9.79525184631347656 -8 13 7 31
-8 -9.65788459777832031 -7 37 9 40
-8 -9.17811203002929688 -6 47 12 33
-8.43150711059570312 -9 -5 40 11 31
-8 -9 -5.84824752807617188 45 12 41
-8.81700611114501953 -9 -4 46 14 25
-8.94366931915283203 -9 3 34 7 20
-8.51922130584716797 -9 4 26 5 19
-8 -9.06929111480712891 5 19 5 30
-8 -9 4.94916486740112305 38 8 36
-8 -9.64455318450927734 6 8 3 20
-8 -9.79176807403564453 7 1 1 8
-8 -9.85741043090820312 8 0 0 3
-8 -9 8.85741043090820312 1 0 7
-8 -8 -9.34756660461425781 2 4 0
-8.66785526275634766 -8 -8 3 14 14
-8 -8.32247161865234375 -8 6 9 28
-8 -8 -8.77629375457763672 3 15 9
-8 -8.67403888702392578 -7 25 9 37
-8 -8.96412277221679688 -6 45 12 41
-8 -8.98731327056884766 5 24 5 28
-8 -8.68373394012451172 6 11 3 17
-8.65519046783447266 -8 7 7 1 7
-8 -8.31768894195556641 7 2 0 5
-8 -8 7.73840904235839844 2 0 3
-8 -8 8.38544178009033203 5 1 10
-8 -7.90297460556030273 -9 3 15 9
-8 -7.8819737434387207 8 5 1 10
-7 -9.79397869110107422 -9 7 12 31
-7 -9 -9.79397869110107422 3 16 9
-7 -9.61102008819580078 -8 27 9 40
-7.19767904281616211 -9 -7 25 9 37
-7 -9 -7.23172760009765625 15 9 38
-7.9122471809387207 -9 -6 45 12 41
-7.96945571899414062 -9 5 24 5 28
-7.24044609069824219 -9 6 11 3 17
-7 -9.59598159790039062 7 2 6 18
-7 -9 6.28013277053833008 11 5 28
-7 -9.78968715667724609 8 0 2 5
-7 -9 8.78968715667724609 0 0 2
-7.77852201461791992 -8 -9 3 15 9
-7 -8.32700634002685547 -9 6 19 27
-7 -8.73446464538574219 -8 15 9 38
-7 -8.74348831176757812 7 3 2 15
-7.74261474609375 -8 8 5 1 10
-7 -8.32520580291748047 8 0 0 2
-6 -9.65393829345703125 -9 13 9 39
-6 -9 -9.65393829345703125 6 25 20
-6.23067045211791992 -9 -8 15 9 38
-6 -9 -8.19951534271240234 9 16 36
-6.31077051162719727 -9 7 3 2 15
-6 -9.62593555450439453 8 2 9 14
-6 -9 7.28443002700805664 4 7 24
-6 -9 8.62593555450439453 1 5 11
-6 -8.67873573303222656 -9 9 16 36
-6 -8.70749855041503906 8 1 5 11
-5 -9.17040920257568359 -9 25 12 46
-5 -9 -9.17040920257568359 8 30 32
-5 -9 -8.91522407531738281 13 12 43
-5.11528301239013672 -9 8 1 5 11
-5 -8.96581554412841797 -9 13 12 43
-4.85183143615722656 -9 -9 13 12 43
4.67644500732421875 -9 -9 33 26 46
5 -9.30479526519775391 -9 31 23 41
5 -9 -9.30479526519775391 15 26 27
5 -9 -8.82968616485595703 24 22 38
5 -8.92695522308349609 -9 24 22 38
6 -9.66895580291748047 -9 22 18 32
6 -9 -9.66895580291748047 9 18 17
6 -9 -8.17454910278320312 16 17 29
5.76033973693847656 -9 8 1 6 9
6 -9.29515457153320312 8 0 2 3
6 -9 7.82727718353271484 2 6 13
6 -9 8.29515457153320312 0 0 0
6 -8.65643215179443359 -9 16 17 29
6 -8.92838191986083984 8 0 0 0
7 -9.79193878173828125 -9 11 11 21
7 -9 -9.79193878173828125 3 6 5
6.21327066421508789 -9 -8 35 22 39
7 -9.61184310913085938 -8 29 17 31
7 -9 -7.30795049667358398 23 16 28
6.96757316589355469 -9 7 2 6 13
7 -9.06298351287841797 7 1 3 5
7 -9 6.96818399429321289 3 4 13
7 -9.70790481567382812 8 1 6 7
7 -9 8.70790481567382812 2 5 10
7 -8.33711433410644531 -9 9 12 18
7 -8.73375892639160156 -8 23 16 28
7 -8.98855304718017578 7 0 0 2
7 -8.57424449920654297 8 2 5 10
8 -9.85281562805175781 -9 3 4 7
8 -9 -9.85281562805175781 3 7 4
8 -9.78432464599609375 -8 16 9 18
7.30003881454467773 -9 -7 36 20 31
8 -9.62068557739257812 -7 27 14 22
8 -9 -6.16437911987304688 24 13 22
7.85973644256591797 -9 6 3 4 13
8 -9.25021171569824219 6 1 2 4
8 -9 5.81288480758666992 4 2 11
8 -9.70384788513183594 7 1 4 7
8 -9.82309818267822266 8 3 14 21
8 -9 8.82309818267822266 4 9 23
7.9018702507019043 -8 -9 7 12 14
8 -8 -9.17397594451904297 4 10 4
8 -8.36845588684082031 -8 11 8 15
8 -8 -8.90969467163085938 0 1 1
8 -8.7195587158203125 -7 24 13 22
8 -8.94295597076416016 6 0 0 1
8 -8.58256721496582031 7 2 3 10
8 -8.15582561492919922 8 4 9 23
8 -7.96189022064208984 -9 0 1 1
8.85281562805175781 -9 -9 2 3 5
8.78432464599609375 -9 -8 11 8 15
8.62068557739257812 -9 -7 24 13 22
8.25021171569824219 -9 6 0 0 1
8.70384788513183594 -9 7 2 3 10
8.82309818267822266 -9 8 4 9 23
8.17397594451904297 -8 -9 0 1 1
3 2 1 0
3 1 4 3
3 0 1 3
3 4 6 5
3 3 4 5
3 6 8 7
3 5 6 7
3 8 10 9
3 7 8 9
3 10 12 11
3 9 10 11
3 12 13 11
3 16 15 14
3 15 18 17
3 14 15 17
3 18 20 19
3 17 18 19
3 20 22 21
3 19 20 21
3 22 24 23
3 21 22 23
3 24 26 25
3 23 24 25
3 26 27 25
3 29 2 0
3 28 29 0
3 0 3 28
3 3 30 28
3 31 32 30
3 31 30 5
3 5 30 3
3 5 7 33
3 31 5 33
3 7 9 34
3 33 7 34
3 9 11 35
3 34 9 35
3 11 13 35
3 16 14 36
3 14 17 37
3 36 14 37
3 17 19 38
3 37 17 38
3 19 21 39
3 38 19 39
3 41 39 21
3 41 21 40
3 40 21 23
3 23 25 40
3 25 42 40
3 27 43 42
3 25 27 42
3 29 28 44
3 28 30 45
3 44 28 45
3 30 32 45
3 41 40 46
3 40 42 47
3 46 40 47
3 42 43 47
3 2 49 48
3 1 2 48
3 48 50 1
3 1 50 4
3 50 51 4
3 4 51 6
3 51 52 6
3 6 52 8
3 54 53 10
3 54 10 52
3 52 10 8
3 12 10 53
3 55 12 53
3 12 55 13
3 15 16 56
3 18 15 56
3 57 18 56
3 57 59 58
3 57 58 18
3 18 58 20
3 58 60 20
3 20 60 22
3 60 61 22
3 22 61 24
3 61 62 24
3 24 62 26
3 26 62 63
3 27 26 63
3 49 2 64
3 64 2 29
3 67 65 66
3 32 66 65
3 32 31 66
3 31 68 66
3 68 31 69
3 31 33 69
3 53 54 69
3 53 69 34
3 34 69 33
3 55 53 34
3 35 55 34
3 55 35 13
3 56 16 36
3 57 56 36
3 37 57 36
3 59 57 37
3 59 37 70
3 70 37 38
3 70 38 71
3 38 39 71
3 72 39 41
3 72 73 39
3 73 71 39
3 73 72 74
3 63 75 27
3 75 43 27
3 64 29 44
3 76 64 44
3 65 67 76
3 65 76 45
3 45 76 44
3 65 45 32
3 72 41 46
3 74 72 46
3 74 46 77
3 77 46 47
3 77 47 43
3 75 77 43
3 49 79 78
3 48 49 78
3 78 80 48
3 48 80 50
3 82 81 51
3 82 51 80
3 80 51 50
3 52 51 81
3 83 52 81
3 52 83 54
3 58 59 84
3 60 58 84
3 85 60 84
3 85 87 86
3 85 86 60
3 60 86 61
3 86 88 61
3 61 88 62
3 62 88 89
3 63 62 89
3 90 91 79
3 90 79 64
3 64 79 49
3 67 91 90
3 67 66 91
3 66 92 91
3 81 82 92
3 81 92 68
3 68 92 66
3 83 81 68
3 69 83 68
3 83 69 54
3 84 59 70
3 85 84 70
3 71 85 70
3 87 85 71
3 87 71 93
3 93 71 73
3 94 73 74
3 94 95 73
3 95 93 73
3 95 94 75
3 95 75 89
3 89 75 63
3 90 64 76
3 90 76 67
3 94 74 77
3 94 77 75
3 79 97 96
3 78 79 96
3 99 98 80
3 99 80 96
3 96 80 78
3 80 98 82
3 86 87 100
3 100 102 101
3 100 101 86
3 86 101 88
3 88 101 103
3 89 88 103
3 97 79 91
3 104 97 91
3 98 99 104
3 98 104 92
3 92 104 91
3 98 92 82
3 100 87 93
3 102 100 93
3 102 93 105
3 105 93 95
3 105 95 89
3 103 105 89
3 97 107 106
3 96 97 106
3 96 106 108
3 99 96 108
3 101 102 109
3 101 109 103
3 107 97 104
3 110 107 104
3 110 104 99
3 108 110 99
3 109 102 105
3 109 105 103
3 106 107 111
3 106 111 108
3 111 107 110
3 111 110 108
3 114 113 112
3 113 115 112
3 114 112 116
3 112 115 116
3 114 118 117
3 113 114 117
3 113 117 119
3 115 113 119
3 122 121 120
3 121 123 120
3 118 114 116
3 124 118 116
3 124 116 115
3 119 124 115
3 122 120 125
3 120 123 125
3 118 127 126
3 117 118 126
3 128 119 117
3 128 117 129
3 129 117 126
3 129 130 128
3 133 132 131
3 122 131 132
3 122 132 121
3 121 132 134
3 121 134 135
3 123 121 135
3 127 118 124
3 136 127 124
3 119 128 137
3 119 137 124
3 124 137 136
3 128 130 137
3 133 131 138
3 131 122 125
3 131 125 138
3 138 125 139
3 139 125 123
3 135 139 123
3 127 141 140
3 126 127 140
3 140 142 126
3 126 142 129
3 143 130 129
3 143 129 144
3 144 129 142
3 144 145 143
3 148 147 146
3 133 146 147
3 133 147 132
3 132 147 149
3 149 150 132
3 132 150 134
3 134 150 151
3 135 134 151
3 136 152 153
3 136 153 127
3 127 153 141
3 152 154 155
3 152 136 154
3 136 137 154
3 130 143 156
3 130 156 137
3 137 156 154
3 143 145 156
3 148 146 157
3 146 133 138
3 146 138 157
3 157 138 158
3 158 138 159
3 138 139 159
3 159 139 135
3 151 159 135
3 153 152 160
3 152 155 160
3 140 141 161
3 142 140 161
3 162 142 161
3 144 142 162
3 163 144 162
3 144 163 145
3 147 148 164
3 149 147 164
3 165 149 164
3 150 149 165
3 166 150 165
3 150 166 151
3 167 161 141
3 153 167 141
3 155 154 162
3 155 162 167
3 167 162 161
3 163 162 154
3 156 163 154
3 163 156 145
3 164 148 157
3 165 164 157
3 158 165 157
3 166 165 158
3 159 166 158
3 166 159 151
3 167 153 160
3 167 160 155
