ply
format ascii 1.0
element vertex 514
property float x
property float y
property float z
property uchar red
property uchar green
property uchar blue
element face 1044
property list uchar int vertex_indices
end_header
-7.14797735214233398 6 -2 255 212 189
-7 5.8382411003112793 -2 83 57 53
-7 6 -2.71230626106262207 234 224 218
-7.17836141586303711 6 -1 255 225 207
-7 5.8435664176940918 -1 168 122 116
-7.17493724822998047 6 0 255 232 216
-7 5.8464360237121582 0 191 145 138
-7.13834905624389648 6 1 255 231 215
-7 5.84901952743530273 1 150 119 111
-7 6 1.6291888952255249 140 131 123
-7 6.16630840301513672 -2 172 170 169
-7 6.21258640289306641 -1 123 119 116
-7 6.20830631256103516 0 109 104 100
-7 6.1551518440246582 1 140 131 123
-6.20870733261108398 6 -4 255 218 194
-6 5.84462594985961914 -4 93 63 55
-6 6 -4.39646720886230469 249 225 205
-6 6 -3.50261998176574707 139 134 131
-6.81003475189208984 6 -2 172 170 169
-6.82967424392700195 6 -1 123 119 116
-6.83289670944213867 6 0 109 104 100
-6.82314872741699219 6 1 140 131 123
-6.17875862121582031 6 3 255 252 251
-6 5.8653101921081543 3 255 227 213
-6 6 2.57225370407104492 142 140 139
-6 6 3.32702302932739258 7 6 5
-6 6.21100378036499023 -4 139 134 131
-6.24355173110961914 7 -2 255 237 211
-6 6.72542285919189453 -2 164 132 116
-6 7 -2.91592860221862793 108 107 106
-6.31816577911376953 7 -1 234 226 212
-6 6.73810243606567383 -1 249 211 192
-6.31548023223876953 7 0 218 213 205
-6 6.7399592399597168 0 255 223 205
-6.2355189323425293 7 1 231 226 216
-6 6.73506641387939453 1 232 208 189
-6 7 1.84339439868927002 70 67 57
-6 6.18065881729125977 3 7 6 5
-6 7.23075342178344727 -2 27 26 25
-6 7.28615474700927734 -1 91 87 79
-6 7.28394174575805664 0 89 84 73
-6 7.22338771820068359 1 70 67 57
-5.32171344757080078 6 -5 249 225 205
-5 5.88982772827148438 -5 137 103 88
-5 6 -5.31286239624023438 243 221 193
-5.79546165466308594 6 -4 139 134 131
-5 6 -4.84341621398925781 85 80 76
-5.82468938827514648 6 3 7 6 5
-5.22796916961669922 6 4 183 168 155
-5 5.91867637634277344 4 255 248 244
-5 6 3.88560152053833008 185 177 164
-5 6 4.21706962585449219 119 108 93
-5 6.2111048698425293 -5 85 80 76
-5.27800559997558594 7 -4 235 218 189
-5 6.72980976104736328 -4 169 135 110
-5 7 -4.34794902801513672 159 150 130
-5.92536687850952148 7 -3 108 107 106
-5 6.777740478515625 -3 255 230 216
-5 6.95512294769287109 -2 255 249 246
-5.39928627014160156 7 -1 91 87 79
-5 7 -1.80397045612335205 106 104 102
-5.40646886825561523 7 0 89 84 73
-5 6.96636962890625 1 137 131 127
-5 7 0.849813342094421387 29 28 27
-5.85872936248779297 7 2 41 39 34
-5 6.78560590744018555 2 150 148 145
-5.25423574447631836 7 3 53 52 49
-5 6.75263309478759766 3 185 177 164
-5 6.15134382247924805 4 119 108 93
-5 7 3.31212019920349121 212 198 154
-5 7.22741270065307617 -4 69 69 68
-5 7.39700746536254883 -3 31 31 30
-5.00206089019775391 8 -2 1 1 1
-5 8 -2.0039668083190918 255 253 239
-5.1965947151184082 8 -1 104 103 101
-5 7.52127265930175781 -1 62 61 57
-5.19302797317504883 8 0 181 181 178
-5 7.5316767692565918 0 29 28 27
-5 7.76132392883300781 1 66 65 61
-5 8 0.940822422504425049 241 239 196
-5 7.37568187713623047 2 166 158 129
-5 7.20976972579956055 3 212 198 154
-5 8.19625091552734375 -2 213 212 198
-5 8.96267509460449219 -1 217 215 184
-5 8.96199321746826172 0 241 239 196
-4.36263370513916016 6 -6 243 221 193
-4 5.85856389999389648 -6 95 71 53
-4 6 -6.18659877777099609 255 227 174
-4.84497594833374023 6 -5 85 80 76
-4 6 -5.81349897384643555 96 92 85
-4.88761377334594727 6 4 119 108 93
-4.26214313507080078 6 5 104 92 83
-4 5.89308500289916992 5 222 215 207
-4 6 4.86040163040161133 64 63 60
-4 6 5.13761186599731445 48 42 34
-4 6.19044589996337891 -6 96 92 85
-4.34176063537597656 7 -5 159 150 130
-4 6.73747920989990234 -5 239 197 149
-4 7 -5.26754474639892578 107 101 80
-4 6.83464241027832031 -4 236 222 207
-4.62595748901367188 7 -3 31 31 30
-4 7 -3.70211124420166016 131 131 128
-4.94677639007568359 7 -2 106 104 102
-4.96025609970092773 7 1 66 65 61
-4.64548206329345703 7 2 166 158 129
-4 6.85114669799804688 3 154 147 134
-4 7 2.73513102531433105 35 35 33
-4.29932117462158203 7 4 40 38 34
-4 6.76728200912475586 4 64 63 60
-4 6.14132976531982422 5 48 42 34
-4 7 4.23528814315795898 146 133 99
-4 7.22153234481811523 -5 12 12 12
-4 7.4717555046081543 -4 131 131 128
-4.40527963638305664 8 -3 255 253 239
-4 7.61786031723022461 -3 39 36 30
-4 8 -3.56556916236877441 248 247 239
-4 7.70898962020874023 -2 13 12 12
-4 7.72799205780029297 -1 158 157 154
-4 7.72819662094116211 0 252 247 237
-4.96911716461181641 8 1 250 248 205
-4 7.71064519882202148 1 181 180 176
-4.38479852676391602 8 2 243 240 212
-4 7.63657999038696289 2 35 35 33
-4 7.40943384170532227 3 107 102 83
-4 8 2.52347230911254883 23 23 16
-4 7.19822978973388672 4 146 133 99
-4 8.97662544250488281 -3 87 86 75
-4 8.98039150238037109 -2 77 76 60
-4 8.98037242889404297 -1 19 19 14
-4 8.98038101196289062 0 50 50 36
-4 8.98037624359130859 1 61 61 42
-4 8.97574615478515625 2 23 23 16
-3.19800949096679688 5 -1 255 190 162
-3 4.85462760925292969 -1 255 218 183
-3 5 -1.93477499485015869 228 176 140
-3.18074631690979004 5 0 255 196 170
-3 4.86722040176391602 0 228 201 170
-3 5 0.730211853981018066 255 220 175
-3.57110428810119629 6 -6 96 92 85
-3 5.09156465530395508 -1 255 211 167
-3 5.08373594284057617 0 255 220 175
-3.69157028198242188 6 5 48 42 34
-3 6.78519248962402344 -5 34 31 28
-3 7 -5.83430957794189453 192 190 175
-3.70634770393371582 7 -4 131 131 128
-3 7 -4.63993024826049805 102 102 101
-3.74186897277832031 7 3 107 102 83
-3 6.80072212219238281 4 153 147 132
-3 7 3.67257475852966309 135 135 135
-3 7 4.7081456184387207 74 68 50
-3 7.37676477432250977 -5 102 102 101
-3.56129741668701172 8 -4 248 247 239
-3 7.62672281265258789 -4 69 65 52
-3 8 -4.39021158218383789 166 166 151
-3 7.72827529907226562 -3 255 252 249
-3 7.75404024124145508 -2 255 246 231
-3 7.81451702117919922 -1 255 241 219
-3 7.81662273406982422 0 255 240 210
-3 7.7570643424987793 1 255 241 204
-3 7.72962284088134766 2 255 246 216
-3.51430010795593262 8 3 17 16 13
-3 7.652984619140625 3 135 135 135
-3 7.33839082717895508 4 74 68 50
-3 8 3.35828757286071777 3 3 2
-3 8.97622489929199219 -4 97 97 85
-3 8.98038291931152344 -3 30 30 24
-3 8.97881031036376953 -2 161 159 134
-3 8.969940185546875 -1 126 126 110
-3 8.96955299377441406 0 60 60 51
-3 8.97851848602294922 1 45 45 33
-3 8.98038673400878906 2 78 77 50
-3 8.97486114501953125 3 3 3 2
-2.95225858688354492 5 -2 228 176 140
-2 4.85325527191162109 -2 255 223 172
-2 5 -2.83215570449829102 255 200 153
-2 4.8831634521484375 -1 255 226 176
-2 4.89032506942749023 0 255 230 180
-2.77124547958374023 5 1 255 221 181
-2 4.8801112174987793 1 255 228 174
-2 5 1.6091010570526123 255 218 166
-2.5128779411315918 6 -7 168 160 139
-2 5.88236236572265625 -7 190 157 101
-2 6 -7.1078948974609375 255 238 156
-2 6 -6.86190414428710938 66 64 59
-2 5.18115472793579102 -2 255 204 160
-2 5.32573080062866211 -1 255 212 163
-2 5.30502176284790039 0 255 216 163
-2 5.14775419235229492 1 255 218 166
-2.26771807670593262 6 6 171 139 119
-2 5.93489313125610352 6 115 113 110
-2 6 5.92379856109619141 101 101 100
-2 6 6.0599513053894043 114 90 72
-2 6.12072372436523438 -7 66 64 59
-2.80402779579162598 7 -6 192 190 175
-2 6.7564244270324707 -6 49 44 31
-2 7 -6.2162632942199707 255 253 185
-2 6.98234748840332031 -5 74 72 68
-2 7 -4.97912502288818359 129 127 119
-2.07393765449523926 7 4 74 68 50
-2.64582347869873047 7 5 255 222 174
-2 6.79413843154907227 5 101 101 100
-2 7 4.09603691101074219 139 131 109
-2 6.06669282913208008 6 114 90 72
-2 7 5.18338584899902344 98 80 60
-2 7.20679855346679688 -6 245 245 242
-2 7.38883733749389648 -5 129 127 119
-2 7.71167278289794922 -4 207 201 187
-2 8 -4.92360639572143555 185 185 180
-2 7.75640583038330078 -3 255 247 234
-2 7.98212480545043945 -2 125 120 111
-2.53559112548828125 8 -1 126 126 110
-2 8 -1.93590164184570312 108 108 106
-2.54315900802612305 8 0 60 60 51
-2 7.99480199813842773 1 148 141 121
-2 8 0.980988442897796631 37 37 37
-2 7.76179790496826172 2 61 59 48
-2 7.71636581420898438 3 78 76 69
-2 8 3.83561086654663086 255 239 151
-2 7.1766810417175293 5 98 80 60
-2 8.98035907745361328 -4 67 67 55
-2 8.97858238220214844 -3 94 94 83
-2 8.71820449829101562 -2 108 108 106
-2 8.42321300506591797 1 68 68 59
-2 8.97803688049316406 2 154 152 106
-2 8.98021888732910156 3 255 239 151
-1.67889153957366943 5 -3 255 200 153
-1 4.91416263580322266 -3 255 209 140
-1 5 -3.11167287826538086 255 192 139
-1 4.90009403228759766 -2 255 239 174
-1 4.95355081558227539 -1 162 162 137
-1 4.96003818511962891 0 157 158 141
-1 4.9218287467956543 1 156 157 134
-1.17599141597747803 5 2 255 221 178
-1 4.97750568389892578 2 255 245 185
-1 5 2.02820324897766113 242 219 160
-1 5.88713550567626953 -7 21 20 13
-1 6 -7.12643575668334961 59 57 40
-1 6 -6.87748050689697266 213 211 198
-1 5.05437564849853516 -3 255 206 126
-1 5.27694416046142578 -2 211 176 113
-1 5.746673583984375 -1 255 220 160
-1 5.63975906372070312 0 255 226 173
-1 5.21515893936157227 1 255 227 171
-1 5.01433277130126953 2 242 219 160
-1 5.93197441101074219 6 88 87 86
-1 6 5.92638158798217773 148 146 142
-1 6 6.07518863677978516 30 22 18
-1 6.14963436126708984 -7 213 211 198
-1 6.76131725311279297 -6 1 1 1
-1 7 -6.28320837020874023 251 255 205
-1.92874550819396973 7 -5 129 127 119
-1 7 -5.47088527679443359 106 105 100
-1 6.78524541854858398 5 148 146 142
-1 7 4.53788042068481445 117 115 107
-1 6.08838033676147461 6 30 22 18
-1 7 5.25017452239990234 173 142 111
-1 7.2588810920715332 -6 106 105 100
-1.83634674549102783 8 -5 185 185 180
-1 7.61871099472045898 -5 177 170 147
-1 8 -5.16077613830566406 198 200 172
-1 7.72986125946044922 -4 2 2 2
-1 7.82468843460083008 -3 160 157 152
-1.93827104568481445 8 -2 108 108 106
-1 8 -2.56167745590209961 140 139 122
-1.98228061199188232 8 1 68 68 59
-1 7.83610010147094727 2 255 238 186
-1 8 1.59246337413787842 99 98 89
-1 7.73265695571899414 3 170 163 136
-1.62687921524047852 8 4 184 164 126
-1 7.70964574813842773 4 117 115 107
-1 7.23150396347045898 5 173 142 111
-1 8 4.12546253204345703 255 213 150
-1 8.95474720001220703 -5 98 99 91
-1 8.98038291931152344 -4 234 234 183
-1 8.96798133850097656 -3 140 139 122
-1 8.96549224853515625 2 17 16 12
-1 8.98028373718261719 3 118 106 65
-1 8.94245719909667969 4 255 213 150
0 4.95671939849853516 -3 143 137 90
0 5 -3.05621051788330078 139 118 66
0 4.92444944381713867 -2 255 247 222
0 4.97546625137329102 -1 255 254 254
0 4.98206901550292969 0 255 253 245
0 4.94646930694580078 1 255 254 254
-0.476308465003967285 5 2 242 219 160
0 5 1.81521594524383545 255 235 206
0 5.89832592010498047 -7 32 28 19
0 6 -7.1136164665222168 246 255 183
0 6 -6.88983249664306641 211 210 197
0 5.02752590179443359 -3 255 205 149
0 5.20776987075805664 -2 255 215 173
0 5.38903570175170898 -1 255 229 196
0 5.2832026481628418 0 255 234 206
0 5.14619588851928711 1 255 235 206
0 5.94465112686157227 6 171 165 159
0 6 5.94020605087280273 124 123 119
0 6 6.06104326248168945 16 13 11
0 6.1340632438659668 -7 211 210 197
0 6.76841449737548828 -6 86 77 56
0 7 -6.27371597290039062 198 198 162
0 7 -5.49417829513549805 9 9 9
0 6.79314279556274414 5 124 123 119
0 7 4.56092119216918945 86 80 71
0 6.07155179977416992 6 16 13 11
0 7 5.24014663696289062 181 142 110
0 7.25069427490234375 -6 9 9 9
0 7.65291976928710938 -5 163 161 136
0 8 -5.14803457260131836 187 189 165
0 7.73108863830566406 -4 123 122 120
0 7.83228921890258789 -3 255 237 212
0 8 -2.58745288848876953 49 48 40
0 7.84416818618774414 2 255 227 168
0 8 1.61861753463745117 165 159 139
0 7.73434114456176758 3 251 229 181
0 7.74366998672485352 4 86 80 71
0 7.22259426116943359 5 181 142 110
0 8 4.11196327209472656 255 195 140
0 8.95087718963623047 -5 252 255 217
0 8.98034858703613281 -4 238 240 174
0 8.96636104583740234 -3 49 48 40
0 8.96351528167724609 2 89 80 58
0 8.98019695281982422 3 34 27 17
0 8.93566322326660156 4 255 195 140
0.200709104537963867 5 -3 255 205 149
1 4.9442448616027832 -2 255 247 234
1 5 -2.30760383605957031 255 212 182
1 4.95653390884399414 -1 255 252 248
1 4.96398067474365234 0 255 250 239
1 4.97181320190429688 1 255 252 248
1 5 1.139518141746521 255 243 230
1 5.92311191558837891 -7 115 111 54
1 6 -7.07089519500732422 241 255 171
1 6 -6.91047811508178711 192 189 159
1 5.06845235824584961 -2 255 225 202
1 5.11834096908569336 -1 255 233 214
1 5.09784412384033203 0 255 239 223
1 5.03455162048339844 1 255 243 230
1 5.98009157180786133 6 55 54 54
1 6 5.9768824577331543 101 100 99
1 6 6.01842403411865234 255 201 173
1 6.07879161834716797 -7 192 189 159
1 6.79118013381958008 -6 80 76 44
1 7 -6.18672323226928711 113 115 80
1 7 -5.11539411544799805 254 255 245
1 6.83126497268676758 5 101 100 99
1 7 4.29587125778198242 63 52 43
1 6.02036619186401367 6 255 201 173
1 7 5.1513371467590332 172 118 97
1 7.1790776252746582 -6 254 255 245
0.649133265018463135 8 -5 252 255 217
1 7.71873140335083008 -4 176 174 170
1 8 -4.82493734359741211 251 255 219
1 7.76784420013427734 -3 255 231 197
1 8 -2.07717061042785645 22 21 15
1 7.77434206008911133 2 255 216 158
1 8 1.11594784259796143 118 106 83
1 7.72469902038574219 3 202 178 148
0.473261386156082153 8 4 255 195 140
1 8 3.74993467330932617 33 23 16
1 7.14615917205810547 5 172 118 97
1 8.98012065887451172 -4 177 177 121
1 8.97738265991210938 -3 22 21 15
1 8.97663021087646484 2 52 42 28
1 8.97981548309326172 3 33 23 16
1.24956274032592773 5 -2 255 225 202
1.5166250467300415 5 -1 255 233 214
1.42660021781921387 5 0 255 239 223
1.12524878978729248 5 1 255 243 230
1.28113698959350586 6 -7 192 189 159
1.06912696361541748 6 6 255 201 173
1.59509289264678955 7 -6 254 255 245
1.09843838214874268 7 -5 76 76 76
2 6.81597232818603516 -5 195 193 189
2 7 -5.63713884353637695 254 255 249
2 7 -4.70801973342895508 87 86 74
1.24329590797424316 7 4 63 52 43
2 6.83536148071289062 4 200 169 145
2 7 3.7431337833404541 116 105 97
1.46036195755004883 7 5 172 118 97
2 7 4.52716588973999023 8 5 4
2 7.30435991287231445 -5 87 86 74
2 7.69049453735351562 -4 120 118 112
2 8 -4.32228994369506836 253 255 243
2 7.73473787307739258 -3 229 212 184
1.07926046848297119 8 -2 119 114 96
2 7.77348089218139648 -2 255 221 176
1.63968753814697266 8 -1 156 151 134
2 7.8534855842590332 -1 255 215 167
1.64763617515563965 8 0 154 147 128
2 7.85606002807617188 0 255 212 160
1.11773467063903809 8 1 118 106 83
2 7.77761316299438477 1 255 211 156
2 7.73772239685058594 2 213 179 140
2 7.71775293350219727 3 116 105 97
2 7.26476097106933594 4 8 5 4
2 8 3.29061698913574219 77 47 38
2 8.97235679626464844 -4 138 138 99
2 8.98017406463623047 -3 15 14 9
2 8.97673320770263672 -2 41 38 26
2 8.96096611022949219 -1 70 63 46
2 8.960205078125 0 66 57 42
2 8.97623157501220703 1 34 27 19
2 8.97998714447021484 2 17 12 8
2 8.97001266479492188 3 77 47 38
2.81488275527954102 6 -6 146 144 122
3 5.93780517578125 -6 31 30 24
3 6 -6.07916164398193359 236 255 201
3 6 -5.92087507247924805 141 141 135
2.94643402099609375 6 5 36 29 26
3 5.9811854362487793 5 120 107 103
3 6 4.97625494003295898 94 86 83
3 6 5.02344274520874023 80 49 46
3 6.08061647415161133 -6 141 141 135
3 6.81917285919189453 -5 99 94 79
3 7 -5.1838531494140625 248 255 227
2.82245230674743652 7 -4 120 118 112
3 6.89618015289306641 -4 236 224 206
3 7 -3.82676053047180176 13 13 11
2.86251115798950195 7 3 116 105 97
3 6.91790533065795898 3 216 173 142
3 7 2.86430191993713379 103 94 87
3 6.85352420806884766 4 94 86 83
3 6.02400827407836914 5 80 49 46
3 7 4.14789390563964844 93 53 49
3 7.15618515014648438 -5 202 203 170
2.42675566673278809 8 -4 138 138 99
3 7.26391506195068359 -4 13 13 11
3 7.70742273330688477 -3 116 116 115
3 8 -3.41440653800964355 152 152 127
3 7.72631549835205078 -2 180 168 146
3 7.73795795440673828 -1 207 184 149
3 7.73862218856811523 0 200 174 139
3 7.72925281524658203 1 167 145 121
3 7.72713708877563477 2 103 94 87
2.38504505157470703 8 3 77 47 38
3 7.20243406295776367 3 10 7 6
3 8 2.37758636474609375 82 50 40
3 7.12750864028930664 4 93 53 49
3 8.97096157073974609 -3 81 77 52
3 8.9797210693359375 -2 45 40 25
3 8.97997188568115234 -1 26 22 14
3 8.97992610931396484 0 28 22 14
3 8.9795379638671875 1 49 34 23
3 8.96907901763916016 2 82 50 40
3.13633871078491211 6 -6 141 141 135
3.99887418746948242 6 -5 99 94 79
4 5.99917459487915039 -5 175 170 163
4 6 -5.00206661224365234 254 255 251
4 6 -4.99889278411865234 42 42 39
3.03978490829467773 6 5 80 49 46
3.22061467170715332 7 -5 202 203 170
4 6.00144338607788086 -5 42 42 39
4 6.83559370040893555 -4 108 103 92
4 7 -4.20414018630981445 252 255 235
3.7390291690826416 7 -3 116 116 115
4 6.83478021621704102 -3 204 193 176
4 7 -2.29149580001831055 11 10 8
3.7610476016998291 7 2 103 94 87
4 6.84653091430664062 2 183 151 130
4 7 1.34252870082855225 32 26 22
4 6.86298131942749023 3 93 85 82
3.17715573310852051 7 4 93 53 49
4 7 3.16725873947143555 79 43 40
4 7.14255142211914062 -4 87 85 65
3.29786348342895508 8 -3 81 77 52
4 7.26590061187744141 -3 11 10 8
3.71953630447387695 8 -2 45 40 25
4 7.82955694198608398 -1 72 67 60
4 8 -1.34183251857757568 110 98 72
4 7.83975601196289062 0 65 58 52
3.69739365577697754 8 1 49 34 23
4 8 0.307061731815338135 100 73 55
3.2776646614074707 8 2 82 50 40
4 7.24335718154907227 2 19 12 10
4 7.11951303482055664 3 79 43 40
4 8.90723896026611328 -1 98 80 57
4 8.90200519561767578 0 100 73 55
4.00197553634643555 6 -5 42 42 39
4.96420097351074219 6 -4 108 103 92
5 5.97195625305175781 -4 145 137 126
5 6 -4.06217145919799805 171 171 149
5 6 -3.92371010780334473 39 37 31
4.16479206085205078 7 -4 87 85 65
5 6.03589630126953125 -4 39 37 31
4.51500844955444336 7 -3 11 10 8
4.38974905014038086 7 -2 45 42 35
5 6.85646677017211914 -2 111 110 108
5 7 -2.40619683265686035 102 96 75
4.6271514892578125 7 -1 72 67 60
5 6.82046127319335938 -1 138 133 129
4.63406038284301758 7 0 65 58 52
5 6.82313013076782227 0 127 120 115
4.44865989685058594 7 1 32 26 22
5 6.86851072311401367 1 90 86 84
4.46530342102050781 7 2 19 12 10
5 7 1.35778999328613281 76 48 40
4.13732814788818359 7 3 79 43 40
5 7.12502527236938477 -2 71 62 45
4.07596015930175781 8 -1 98 80 57
5 7.1921544075012207 -1 56 44 33
4.07163095474243164 8 0 100 73 55
5 7.18920803070068359 0 59 42 33
5 7.11482048034667969 1 76 48 40
5.03476428985595703 6 -4 39 37 31
5.99872636795043945 6 -1 138 133 129
6 5.99881839752197266 -1 144 143 143
6 6 -1.05416369438171387 51 45 35
6 6 -0.730013728141784668 31 25 20
5.12865924835205078 7 -2 71 62 45
5.20486974716186523 7 -1 56 44 33
6 6.00149917602539062 -1 31 25 20
5.20164632797241211 7 0 59 42 33
5.11809110641479492 7 1 76 48 40
6.00128650665283203 6 -1 31 25 20
3 2 1 0
3 1 4 3
3 0 1 3
3 4 6 5
3 3 4 5
3 6 8 7
3 5 6 7
3 8 9 7
3 2 0 10
3 0 3 11
3 10 0 11
3 3 5 12
3 11 3 12
3 5 7 13
3 12 5 13
3 7 9 13
3 16 15 14
3 15 17 14
3 1 2 18
3 4 1 18
3 19 4 18
3 6 4 19
3 20 6 19
3 8 6 20
3 21 8 20
3 8 21 9
3 24 23 22
3 23 25 22
3 16 14 26
3 14 17 26
3 10 27 29
3 10 29 2
3 28 18 29
3 18 2 29
3 10 30 27
3 10 11 30
3 28 31 18
3 31 19 18
3 11 32 30
3 11 12 32
3 31 33 19
3 33 20 19
3 12 34 32
3 12 13 34
3 33 35 20
3 35 21 20
3 34 13 9
3 34 9 36
3 21 35 9
3 35 36 9
3 24 22 37
3 22 25 37
3 29 27 38
3 27 30 39
3 38 27 39
3 30 32 40
3 39 30 40
3 32 34 41
3 40 32 41
3 34 36 41
3 44 43 42
3 16 42 43
3 16 43 15
3 46 45 43
3 45 15 43
3 15 45 17
3 23 24 47
3 48 25 23
3 48 23 49
3 47 50 23
3 50 49 23
3 49 51 48
3 44 42 52
3 52 53 55
3 52 26 53
3 52 42 26
3 16 26 42
3 46 54 45
3 54 57 17
3 54 17 45
3 57 56 17
3 26 17 53
3 56 53 17
3 29 56 57
3 29 57 28
3 28 57 58
3 60 59 31
3 60 31 58
3 58 31 28
3 33 31 59
3 61 33 59
3 61 63 62
3 61 62 33
3 33 62 35
3 64 36 35
3 64 35 65
3 65 35 62
3 66 64 24
3 66 24 37
3 64 65 24
3 47 24 67
3 65 67 24
3 37 69 66
3 37 68 69
3 37 25 68
3 48 68 25
3 47 67 50
3 48 51 68
3 55 53 70
3 53 56 71
3 70 53 71
3 73 38 72
3 71 38 73
3 71 29 38
3 71 56 29
3 39 72 38
3 39 74 72
3 75 59 60
3 39 76 74
3 39 40 76
3 75 77 59
3 77 61 59
3 63 61 77
3 78 79 40
3 78 40 41
3 40 79 76
3 36 64 80
3 36 80 41
3 41 80 78
3 64 66 81
3 80 64 81
3 66 69 81
3 73 72 82
3 72 74 83
3 82 72 83
3 74 76 84
3 83 74 84
3 76 79 84
3 87 86 85
3 44 85 86
3 44 86 43
3 89 88 86
3 88 43 86
3 43 88 46
3 49 50 90
3 91 51 49
3 91 49 92
3 90 93 49
3 93 92 49
3 92 94 91
3 87 85 95
3 95 96 98
3 95 52 96
3 95 85 52
3 44 52 85
3 89 97 88
3 96 52 55
3 88 97 46
3 97 54 46
3 97 99 54
3 101 100 57
3 101 57 99
3 99 57 54
3 58 57 100
3 102 58 100
3 58 102 60
3 62 63 103
3 65 62 103
3 104 65 103
3 104 106 105
3 104 105 65
3 65 105 67
3 69 68 107
3 50 67 90
3 67 108 90
3 67 105 108
3 68 110 107
3 68 109 110
3 68 51 109
3 91 109 51
3 90 108 93
3 91 94 109
3 98 96 111
3 96 55 70
3 96 70 111
3 111 70 112
3 101 114 100
3 115 112 113
3 112 71 113
3 112 70 71
3 100 116 102
3 100 114 116
3 113 71 73
3 102 75 60
3 102 116 75
3 116 117 75
3 117 118 75
3 75 118 77
3 79 78 119
3 63 77 103
3 77 120 103
3 77 118 120
3 78 121 119
3 78 80 121
3 120 122 103
3 122 104 103
3 106 104 122
3 123 124 80
3 123 80 81
3 80 124 121
3 69 107 125
3 69 125 81
3 81 125 123
3 107 110 125
3 115 113 126
3 113 73 82
3 113 82 126
3 126 82 127
3 127 82 128
3 82 83 128
3 128 83 129
3 83 84 129
3 79 119 130
3 79 130 84
3 84 130 129
3 119 121 131
3 130 119 131
3 121 124 131
3 134 133 132
3 133 136 135
3 132 133 135
3 136 137 135
3 86 87 138
3 86 138 89
3 134 132 139
3 132 135 140
3 139 132 140
3 135 137 140
3 92 93 141
3 92 141 94
3 138 87 95
3 98 143 138
3 98 138 95
3 143 142 138
3 89 138 97
3 142 97 138
3 145 144 99
3 145 99 142
3 142 99 97
3 99 144 101
3 105 106 146
3 146 148 147
3 146 147 105
3 105 147 108
3 108 147 141
3 108 141 93
3 147 149 141
3 109 141 110
3 149 110 141
3 141 109 94
3 143 98 111
3 150 143 111
3 145 152 144
3 153 150 151
3 150 112 151
3 150 111 112
3 151 112 115
3 144 152 101
3 152 114 101
3 152 154 114
3 154 155 114
3 114 155 116
3 155 156 116
3 116 156 117
3 156 157 117
3 117 157 118
3 157 158 118
3 118 158 120
3 158 159 120
3 120 159 122
3 124 123 160
3 106 122 146
3 122 161 146
3 122 159 161
3 148 146 161
3 162 163 123
3 162 123 125
3 123 163 160
3 162 125 110
3 149 162 110
3 153 151 164
3 151 115 126
3 151 126 164
3 164 126 165
3 165 126 166
3 126 127 166
3 166 127 167
3 127 128 167
3 167 128 168
3 128 129 168
3 168 129 169
3 129 130 169
3 169 130 170
3 130 131 170
3 124 160 171
3 124 171 131
3 131 171 170
3 160 163 171
3 174 173 172
3 134 172 173
3 134 173 133
3 133 173 175
3 175 176 133
3 133 176 136
3 177 137 136
3 177 136 178
3 178 136 176
3 178 179 177
3 182 181 180
3 181 183 180
3 174 172 184
3 172 134 139
3 172 139 184
3 184 139 185
3 185 139 186
3 139 140 186
3 137 177 187
3 137 187 140
3 140 187 186
3 177 179 187
3 190 189 188
3 189 191 188
3 182 180 192
3 195 192 180
3 195 180 193
3 183 194 180
3 194 193 180
3 143 193 194
3 143 194 142
3 142 194 196
3 142 196 197
3 145 142 197
3 147 148 198
3 199 149 147
3 199 147 200
3 198 201 147
3 201 200 147
3 202 203 199
3 202 199 188
3 200 190 199
3 190 188 199
3 188 191 202
3 195 193 204
3 193 143 150
3 193 150 204
3 204 150 205
3 197 206 145
3 145 206 152
3 207 205 150
3 207 150 153
3 206 208 152
3 152 208 154
3 208 209 154
3 154 209 155
3 211 210 156
3 211 156 209
3 209 156 155
3 157 156 210
3 212 157 210
3 212 214 213
3 212 213 157
3 157 213 158
3 213 215 158
3 158 215 159
3 215 216 159
3 159 216 161
3 161 216 198
3 161 198 148
3 216 217 198
3 162 198 163
3 217 163 198
3 149 199 218
3 149 218 162
3 201 198 218
3 198 162 218
3 199 203 218
3 207 153 164
3 219 207 164
3 219 164 220
3 164 165 220
3 220 165 221
3 165 166 221
3 210 211 221
3 210 221 167
3 167 221 166
3 212 210 167
3 168 212 167
3 214 212 168
3 214 168 222
3 222 168 169
3 222 169 223
3 169 170 223
3 223 170 224
3 170 171 224
3 224 171 163
3 217 224 163
3 227 226 225
3 174 225 226
3 174 226 173
3 173 226 228
3 228 229 173
3 173 229 175
3 229 230 175
3 175 230 176
3 230 231 176
3 176 231 178
3 232 179 178
3 232 178 233
3 233 178 231
3 233 234 232
3 182 236 235
3 181 182 235
3 181 235 237
3 183 181 237
3 227 225 238
3 225 174 184
3 225 184 238
3 238 184 239
3 239 184 240
3 184 185 240
3 240 185 241
3 185 186 241
3 241 186 242
3 186 187 242
3 179 232 243
3 179 243 187
3 187 243 242
3 232 234 243
3 190 245 244
3 189 190 244
3 189 244 246
3 191 189 246
3 236 182 192
3 247 236 192
3 237 248 183
3 183 248 194
3 249 247 192
3 249 192 195
3 251 250 196
3 251 196 248
3 248 196 194
3 196 250 197
3 201 253 252
3 200 201 252
3 255 202 254
3 255 203 202
3 245 190 252
3 190 200 252
3 254 202 191
3 246 254 191
3 249 195 204
3 256 249 204
3 251 258 250
3 259 256 257
3 256 205 257
3 256 204 205
3 257 205 207
3 250 258 197
3 258 206 197
3 258 260 206
3 260 261 206
3 206 261 208
3 263 262 209
3 263 209 261
3 261 209 208
3 209 262 211
3 213 214 264
3 264 266 265
3 264 265 213
3 213 265 215
3 265 267 215
3 215 267 216
3 268 217 216
3 268 216 269
3 269 216 267
3 253 201 268
3 253 268 269
3 201 218 268
3 271 268 270
3 218 270 268
3 270 218 203
3 255 270 203
3 259 257 272
3 257 207 219
3 257 219 272
3 272 219 273
3 273 219 274
3 219 220 274
3 262 263 274
3 262 274 221
3 221 274 220
3 262 221 211
3 264 214 222
3 266 264 222
3 266 222 275
3 275 222 223
3 275 223 276
3 223 224 276
3 217 268 277
3 217 277 224
3 224 277 276
3 268 271 277
3 227 279 278
3 226 227 278
3 278 280 226
3 226 280 228
3 280 281 228
3 228 281 229
3 281 282 229
3 229 282 230
3 282 283 230
3 230 283 231
3 285 284 233
3 285 233 283
3 283 233 231
3 233 284 234
3 236 287 286
3 235 236 286
3 235 286 288
3 237 235 288
3 279 227 238
3 289 279 238
3 289 238 290
3 238 239 290
3 290 239 291
3 239 240 291
3 291 240 292
3 240 241 292
3 292 241 293
3 241 242 293
3 284 285 293
3 284 293 243
3 243 293 242
3 284 243 234
3 245 295 294
3 244 245 294
3 244 294 296
3 246 244 296
3 287 236 247
3 297 287 247
3 288 298 237
3 237 298 248
3 299 297 247
3 299 247 249
3 248 298 300
3 251 248 300
3 253 302 301
3 252 253 301
3 304 254 303
3 304 255 254
3 295 245 301
3 245 252 301
3 303 254 246
3 296 303 246
3 299 249 256
3 305 299 256
3 300 306 251
3 251 306 258
3 307 305 256
3 307 256 259
3 306 308 258
3 258 308 260
3 308 309 260
3 260 309 261
3 261 309 310
3 263 261 310
3 266 312 311
3 265 266 311
3 311 313 265
3 265 313 267
3 313 314 267
3 267 314 269
3 316 270 315
3 316 271 270
3 302 253 314
3 253 269 314
3 315 270 255
3 304 315 255
3 307 259 272
3 317 307 272
3 317 272 318
3 272 273 318
3 318 273 319
3 273 274 319
3 319 274 263
3 310 319 263
3 312 266 275
3 320 312 275
3 320 275 321
3 275 276 321
3 321 276 322
3 276 277 322
3 322 277 271
3 316 322 271
3 278 279 323
3 323 325 324
3 323 324 278
3 278 324 280
3 324 326 280
3 280 326 281
3 326 327 281
3 281 327 282
3 327 328 282
3 282 328 283
3 283 328 329
3 285 283 329
3 287 331 330
3 286 287 330
3 286 330 332
3 288 286 332
3 323 279 289
3 325 323 289
3 325 289 333
3 333 289 290
3 333 290 334
3 290 291 334
3 334 291 335
3 291 292 335
3 335 292 336
3 292 293 336
3 336 293 285
3 329 336 285
3 295 338 337
3 294 295 337
3 294 337 339
3 296 294 339
3 331 287 297
3 340 331 297
3 332 341 288
3 288 341 298
3 342 340 297
3 342 297 299
3 298 341 343
3 300 298 343
3 302 345 344
3 301 302 344
3 347 303 346
3 347 304 303
3 338 295 344
3 295 301 344
3 346 303 296
3 339 346 296
3 342 299 305
3 348 342 305
3 300 343 349
3 300 349 306
3 343 348 349
3 307 349 305
3 348 305 349
3 349 351 350
3 349 350 306
3 306 350 308
3 350 352 308
3 308 352 309
3 309 352 353
3 310 309 353
3 312 355 354
3 311 312 354
3 354 356 311
3 311 356 313
3 358 357 314
3 358 314 356
3 356 314 313
3 315 359 357
3 315 357 316
3 359 345 357
3 314 357 302
3 345 302 357
3 359 315 304
3 347 359 304
3 349 307 317
3 351 349 317
3 351 317 360
3 360 317 318
3 360 318 361
3 318 319 361
3 361 319 310
3 353 361 310
3 355 312 320
3 362 355 320
3 362 320 363
3 320 321 363
3 357 358 363
3 357 363 322
3 322 363 321
3 357 322 316
3 324 325 364
3 326 324 364
3 365 326 364
3 327 326 365
3 366 327 365
3 328 327 366
3 367 328 366
3 328 367 329
3 330 331 368
3 330 368 332
3 364 325 333
3 365 364 333
3 334 365 333
3 366 365 334
3 335 366 334
3 367 366 335
3 336 367 335
3 367 336 329
3 337 338 369
3 337 369 339
3 368 331 340
3 341 332 368
3 341 368 370
3 340 342 368
3 342 370 368
3 371 343 341
3 371 341 372
3 370 373 341
3 373 372 341
3 372 374 371
3 377 376 375
3 345 375 376
3 345 376 344
3 379 378 376
3 378 344 376
3 347 346 369
3 347 369 378
3 338 344 369
3 344 378 369
3 369 346 339
3 370 342 348
3 343 371 380
3 343 380 348
3 373 370 380
3 370 348 380
3 381 350 371
3 381 371 374
3 350 351 371
3 380 371 382
3 351 382 371
3 381 383 350
3 350 383 352
3 384 353 352
3 384 352 385
3 385 352 383
3 385 387 386
3 384 385 386
3 387 389 388
3 386 387 388
3 389 391 390
3 388 389 390
3 355 390 391
3 355 391 354
3 354 391 392
3 392 393 354
3 354 393 356
3 395 358 375
3 395 375 394
3 358 356 375
3 377 375 393
3 356 393 375
3 378 379 394
3 378 394 359
3 375 345 394
3 345 359 394
3 378 359 347
3 382 351 360
3 396 382 360
3 396 360 397
3 360 361 397
3 353 384 398
3 353 398 361
3 361 398 397
3 384 386 399
3 398 384 399
3 386 388 400
3 399 386 400
3 388 390 401
3 400 388 401
3 390 355 362
3 390 362 401
3 401 362 402
3 402 362 403
3 362 363 403
3 403 363 358
3 395 403 358
3 406 405 404
3 405 407 404
3 410 409 408
3 409 411 408
3 406 404 412
3 413 372 404
3 413 404 407
3 372 373 404
3 412 404 414
3 373 414 404
3 415 374 372
3 415 372 416
3 416 372 413
3 416 417 415
3 420 419 418
3 377 418 419
3 377 419 376
3 376 419 421
3 423 379 408
3 423 408 422
3 379 376 408
3 410 408 421
3 376 421 408
3 408 411 422
3 414 373 380
3 424 414 380
3 374 415 381
3 380 382 426
3 380 426 424
3 426 382 425
3 428 426 425
3 417 427 415
3 427 381 415
3 427 383 381
3 427 429 383
3 383 429 385
3 429 430 385
3 385 430 387
3 430 431 387
3 387 431 389
3 431 432 389
3 389 432 391
3 432 433 391
3 391 433 392
3 436 434 435
3 433 420 393
3 433 393 392
3 393 420 418
3 418 377 393
3 435 434 394
3 435 394 437
3 394 434 395
3 437 394 379
3 423 437 379
3 425 382 396
3 428 425 396
3 428 396 438
3 438 396 397
3 438 397 439
3 397 398 439
3 439 398 440
3 398 399 440
3 440 399 441
3 399 400 441
3 441 400 442
3 400 401 442
3 442 401 443
3 401 402 443
3 434 436 443
3 434 443 403
3 403 443 402
3 434 403 395
3 405 406 444
3 445 407 405
3 445 405 446
3 444 447 405
3 447 446 405
3 446 448 445
3 409 410 449
3 409 449 411
3 444 406 412
3 444 451 447
3 444 450 451
3 444 412 450
3 414 450 412
3 407 445 413
3 453 451 450
3 448 452 445
3 452 413 445
3 452 416 413
3 454 417 416
3 454 416 455
3 455 416 452
3 455 456 454
3 459 458 457
3 420 457 458
3 420 458 419
3 419 458 460
3 462 461 421
3 462 421 460
3 460 421 419
3 423 422 449
3 423 449 461
3 410 421 449
3 421 461 449
3 449 422 411
3 450 414 424
3 453 450 424
3 453 424 463
3 463 424 426
3 417 454 427
3 426 428 465
3 426 465 463
3 465 428 464
3 464 466 456
3 464 456 465
3 466 429 456
3 454 456 427
3 429 427 456
3 466 468 467
3 466 467 429
3 429 467 430
3 467 469 430
3 430 469 431
3 471 470 432
3 471 432 469
3 469 432 431
3 433 432 459
3 433 459 457
3 432 470 459
3 473 459 472
3 470 472 459
3 457 420 433
3 473 472 435
3 473 435 474
3 435 472 436
3 461 462 474
3 461 474 437
3 437 474 435
3 461 437 423
3 464 428 438
3 466 464 438
3 439 466 438
3 468 466 439
3 468 439 475
3 475 439 440
3 475 440 476
3 440 441 476
3 470 471 476
3 470 476 442
3 442 476 441
3 472 470 442
3 443 472 442
3 472 443 436
3 446 447 477
3 478 448 446
3 478 446 479
3 477 480 446
3 480 479 446
3 479 481 478
3 477 447 451
3 477 483 480
3 477 482 483
3 477 451 482
3 453 482 451
3 448 478 452
3 482 484 481
3 482 481 483
3 484 455 481
3 478 481 452
3 455 452 481
3 485 456 455
3 485 455 486
3 484 487 455
3 487 486 455
3 486 489 488
3 485 486 488
3 489 491 490
3 488 489 490
3 491 493 492
3 490 491 492
3 459 492 493
3 459 493 458
3 495 494 493
3 494 458 493
3 460 458 494
3 496 460 494
3 460 496 462
3 482 453 463
3 484 482 463
3 465 484 463
3 456 485 497
3 456 497 465
3 487 484 497
3 484 465 497
3 499 497 468
3 499 468 498
3 497 485 468
3 467 468 488
3 485 488 468
3 499 498 501
3 501 498 500
3 467 488 490
3 467 490 469
3 490 492 471
3 490 471 469
3 492 502 471
3 500 471 501
3 502 501 471
3 494 495 502
3 494 502 473
3 492 459 502
3 459 473 502
3 496 494 473
3 474 496 473
3 496 474 462
3 498 468 475
3 500 498 475
3 476 500 475
3 500 476 471
3 479 480 503
3 479 503 481
3 506 505 504
3 505 507 504
3 503 480 483
3 503 483 481
3 486 487 508
3 489 486 506
3 489 506 504
3 486 508 506
3 510 506 509
3 508 509 506
3 509 511 507
3 509 507 510
3 511 491 507
3 504 507 489
3 491 489 507
3 493 491 511
3 512 493 511
3 493 512 495
3 508 487 497
3 509 508 497
3 499 509 497
3 511 509 499
3 501 511 499
3 512 511 501
3 502 512 501
3 512 502 495
3 505 506 513
3 505 513 507
3 513 506 510
3 513 510 507
