ply
format ascii 1.0
element vertex 512
property float x
property float y
property float z
property uchar red
property uchar green
property uchar blue
element face 1008
property list uchar int vertex_indices
end_header
-6.07303810119628906 -9 -9 0 10 4
-6 -9.28538799285888672 -9 0 2 0
-6 -9 -9.28538799285888672 1 4 0
-6 -9 -8.85919475555419922 0 1 0
-6.07303810119628906 -9 8 8 5 0
-6 -9.28538799285888672 8 3 4 0
-6 -9 7.85919475555419922 2 4 0
-6 -9 8.28538799285888672 1 1 0
-6 -8.12099933624267578 -9 0 1 0
-6 -8.12099933624267578 8 1 1 0
-6.07662105560302734 -4 -9 5 9 0
-6 -4.90648365020751953 -9 4 6 0
-6 -4 -9.29520320892333984 13 12 0
-6 -4 -8.85228633880615234 6 5 0
-6.07662105560302734 -4 8 18 14 9
-6 -4.90648365020751953 8 17 17 9
-6 -4 7.85228633880615234 5 9 6
-6 -4 8.29520320892333984 13 15 9
-6.20387363433837891 -3 -9 13 10 0
-6 -3 -9.52485561370849609 8 4 0
-6 -3 -8.60686779022216797 7 0 0
-6.20387363433837891 -3 8 17 11 10
-6 -3 7.60686779022216797 3 6 5
-6 -3 8.52485561370849609 8 11 8
-6.37502861022949219 -2 -9 17 2 0
-6 -2 -9.66751861572265625 9 1 0
-6 -2 -8.27659702301025391 9 5 0
-6.37502861022949219 -2 8 15 10 9
-6 -2 7.27659702301025391 2 5 6
-6 -2 8.66751861572265625 5 7 5
-6.59170246124267578 -1 -9 20 10 0
-6 -1 -9.75724887847900391 12 10 0
-6.07084035873413086 -1 -8 15 15 0
-6 -1.33539795875549316 -8 5 5 0
-6 -1 -7.8305511474609375 2 7 0
-6.07084035873413086 -1 7 5 7 4
-6 -1.33539795875549316 7 2 5 6
-6 -1 6.8305511474609375 1 0 6
-6.59170246124267578 -1 8 11 10 8
-6 -1 8.75724887847900391 2 3 2
-6.558380126953125 0 -9 18 20 0
-6 0 -9.74756240844726562 7 15 0
-6.04523324966430664 0 -8 7 16 0
-6 0 -7.89029884338378906 0 8 1
-6.04523324966430664 0 7 2 4 2
-6 0 6.89029884338378906 1 0 4
-6.558380126953125 0 8 8 8 6
-6 0 8.74756240844726562 0 1 1
-6.34239435195922852 1 -9 7 18 0
-6 1 -9.64837455749511719 0 17 2
-6 0.214343398809432983 -8 0 8 1
-6 1 -8.33085155487060547 0 13 4
-6 0.214343398809432983 7 0 0 6
-6.34239435195922852 1 8 5 6 4
-6 1 7.33085107803344727 1 0 5
-6 1 8.64837455749511719 1 2 2
-6.1710662841796875 2 -9 0 14 0
-6 2 -9.48251914978027344 0 19 14
-6 2 -8.66579055786132812 0 13 10
-6.1710662841796875 2 8 2 5 2
-6 2 7.66579103469848633 2 0 4
-6 2 8.48251914978027344 0 1 4
-6.04280900955200195 3 -9 0 8 3
-6 3 -9.19057273864746094 0 15 19
-6 3 -8.91638565063476562 0 9 11
-6.04280900955200195 3 8 1 4 3
-6 3 7.91638565063476562 2 0 2
-6 3 8.19057273864746094 1 0 5
-6 3.49454402923583984 -9 0 9 11
-6 3.49454402923583984 8 1 0 5
-6.02175092697143555 8 -9 14 0 33
-6 7.72154617309570312 -9 5 0 11
-6 8 -9.10698604583740234 5 0 4
-6 8 -8.95751762390136719 15 0 19
-6.02175092697143555 8 8 2 0 2
-6 7.72154617309570312 8 3 0 2
-6 8 7.95751762390136719 6 0 4
-6 8 8.10698604583740234 7 0 4
-6 8.10698604583740234 -9 15 0 19
-6 8.10698604583740234 8 7 0 4
-5 -9.68192768096923828 -9 3 8 0
-5 -9 -9.68192768096923828 0 0 0
-5 -9 -8.22603893280029297 1 9 0
-5 -9.68192768096923828 8 0 2 1
-5 -9 7.22603940963745117 0 1 0
-5 -9 8.68192768096923828 0 1 0
-5.96868324279785156 -8 -9 0 9 0
-5 -8 -9.62969112396240234 7 7 0
-5 -8 -8.38989353179931641 3 15 0
-5.96868324279785156 -8 8 9 7 0
-5 -8 7.38989353179931641 3 4 3
-5 -8 8.62969112396240234 3 6 3
-5.84029245376586914 -7 -9 0 14 0
-5 -7 -9.59670639038085938 16 14 0
-5 -7 -8.47074127197265625 8 19 0
-5.84029245376586914 -7 8 15 12 3
-5 -7 7.47074174880981445 4 5 5
-5 -7 8.59670639038085938 6 9 6
-5.84251785278320312 -6 -9 4 13 0
-5 -6 -9.59732913970947266 20 13 0
-5 -6 -8.46934032440185547 15 18 0
-5.84251785278320312 -6 8 18 16 7
-5 -6 7.46934032440185547 4 6 6
-5 -6 8.59732913970947266 7 9 7
-5.97538089752197266 -5 -9 4 6 0
-5 -5 -9.63125991821289062 20 7 0
-5 -5 -8.38567638397216797 13 9 0
-5.97538089752197266 -5 8 17 17 9
-5 -5 7.38567590713500977 3 6 8
-5 -5 8.63125991821289062 6 7 6
-5 -4 -9.68383979797363281 18 0 0
-5 -4 -8.21896648406982422 5 1 0
-5 -4 7.21896600723266602 1 3 9
-5 -4 8.68383979797363281 4 5 5
-5 -3 -9.73905181884765625 13 5 0
-5.04952859878540039 -3 -8 4 1 0
-5 -3.12780427932739258 -8 1 0 0
-5 -3 -7.96128654479980469 1 1 0
-5.04952859878540039 -3 7 3 6 5
-5 -3.12780427932739258 7 1 3 9
-5 -3 6.96128654479980469 2 0 5
-5 -3 8.73905181884765625 2 3 4
-5 -2 -9.78782558441162109 8 6 0
-5.56684970855712891 -2 -8 5 5 0
-5 -2 -7.55695772171020508 0 1 0
-5.56684970855712891 -2 7 2 5 6
-5 -2 6.55695772171020508 1 0 2
-5 -2 8.78782558441162109 1 2 3
-5 -1 -9.82750034332275391 1 2 0
-5 -1 -7.04495382308959961 0 1 0
-5 -1 6.04495382308959961 1 0 1
-5 -1 8.82750034332275391 0 0 2
-5 0 -9.82326030731201172 0 3 0
-5 0 -7.09092903137207031 0 2 1
-5 0 6.09092903137207031 4 0 4
-5 0 8.82326030731201172 0 0 1
-5 1 -9.78111743927001953 0 5 2
-5.49109029769897461 1 -8 0 7 4
-5 1 -7.60871267318725586 0 1 1
-5.49109029769897461 1 7 1 0 5
-5 1 6.60871267318725586 7 0 6
-5 1 8.78111743927001953 0 0 0
-5 2 -9.72823333740234375 0 8 9
-5 1.95242571830749512 -8 0 1 1
-5 2 -8.01613521575927734 0 5 7
-5 1.95242571830749512 7 2 0 3
-5 2 7.01613521575927734 5 0 4
-5 2 8.72823333740234375 1 0 1
-5 3 -9.66661834716796875 0 4 14
-5 3 -8.27280998229980469 0 3 10
-5 3 7.27280998229980469 6 0 5
-5 3 8.66661834716796875 2 0 2
-5.8644719123840332 4 -9 0 3 7
-5 4 -9.60550975799560547 2 0 17
-5 4 -8.44534969329833984 0 0 12
-5.8644719123840332 4 8 2 0 4
-5 4 7.44534921646118164 7 0 5
-5 4 8.60550975799560547 4 0 3
-5.72412824630737305 5 -9 0 0 2
-5 5 -9.56332969665527344 9 0 19
-5 5 -8.53537940979003906 4 0 12
-5.72412824630737305 5 8 3 0 3
-5 5 7.53537940979003906 7 0 5
-5 5 8.56332969665527344 5 0 4
-5.71111869812011719 6 -9 0 0 3
-5 6 -9.55894279479980469 14 0 18
-5 6 -8.54372501373291016 5 0 10
-5.71111869812011719 6 8 1 0 1
-5 6 7.54372549057006836 7 0 4
-5 6 8.55894279479980469 6 0 4
-5.82532262802124023 7 -9 5 0 11
-5 7 -9.59461307525634766 14 0 13
-5 7 -8.47046279907226562 4 0 5
-5.82532262802124023 7 8 3 0 2
-5 7 7.47046327590942383 7 0 4
-5 7 8.59461307525634766 8 0 5
-5 8 -9.65358448028564453 9 0 6
-5 8 -8.31492328643798828 1 0 1
-5 8 7.31492328643798828 9 0 4
-5 8 8.65358448028564453 10 0 5
-5 8.65358448028564453 -9 1 0 1
-5 8.65358448028564453 8 10 0 5
-4.10122871398925781 -9 -9 1 9 0
-4.10122871398925781 -9 8 0 1 0
-4.29152297973632812 -8 -9 3 15 0
-4.29152297973632812 -8 8 3 6 3
-4.38541364669799805 -7 -9 8 19 0
-4.38541364669799805 -7 8 6 9 6
-4.38378620147705078 -6 -9 15 18 0
-4.38378620147705078 -6 8 7 9 7
-4.28662490844726562 -5 -9 13 9 0
-4.28662490844726562 -5 8 6 7 6
-4.09301424026489258 -4 -9 5 1 0
-4.09301424026489258 -4 8 4 5 5
-4 -3.67932391166687012 -9 15 4 1
-4 -3 -9.31968212127685547 1 10 0
-4.96377038955688477 -3 -8 1 1 0
-4 -3 -8.83417034149169922 8 7 0
-4.96377038955688477 -3 7 1 0 8
-4 -3.67932391166687012 8 1 2 2
-4 -3 7.83417034149169922 0 0 0
-4 -3 8.31968212127685547 1 0 2
-4 -2 -9.57999420166015625 0 8 3
-4.58539104461669922 -2 -8 0 1 0
-4 -2 -8.50669574737548828 0 0 0
-4.58539104461669922 -2 7 1 0 5
-4 -2 7.50669622421264648 1 0 2
-4 -2 8.57999420166015625 0 0 0
-4 -1 -9.71450138092041016 0 8 6
-4.10626792907714844 -1 -8 0 1 0
-4 -1 -8.09198760986328125 0 2 0
-4.10626792907714844 -1 7 1 0 2
-4 -1 7.09198713302612305 5 1 6
-4 -1 8.71450138092041016 2 1 3
-4 0 -9.70336341857910156 0 6 8
-4.1532902717590332 0 -8 0 2 1
-4 0 -8.13319587707519531 0 3 1
-4.1532902717590332 0 7 0 0 0
-4 0 7.13319540023803711 8 2 8
-4 0 8.70336341857910156 5 2 6
-4 1 -9.55439186096191406 0 4 9
-4.63554525375366211 1 -8 0 1 1
-4 1 -8.55220127105712891 0 2 2
-4.63554525375366211 1 7 2 0 3
-4 1 7.55220127105712891 10 2 10
-4 1 8.55439186096191406 8 2 8
-4 2 -9.24527835845947266 0 1 11
-4 2 -8.88444805145263672 0 0 0
-4 2 7.88444757461547852 12 2 9
-4 2 8.24527835845947266 10 2 9
-4.15889883041381836 3 -9 0 3 10
-4 2.46246099472045898 -9 0 0 0
-4.15889883041381836 3 8 2 0 2
-4 2.46246099472045898 8 10 2 9
-4.35848140716552734 4 -9 0 0 12
-4.35848140716552734 4 8 4 0 3
-4.46261835098266602 5 -9 4 0 12
-4.46261835098266602 5 8 5 0 4
-4.47227191925048828 6 -9 5 0 10
-4.47227191925048828 6 8 6 0 4
-4.38753032684326172 7 -9 4 0 5
-4.38753032684326172 7 8 8 0 5
-4.20761346817016602 8 -9 1 0 1
-4.20761346817016602 8 8 10 0 5
-3.93098354339599609 -3 -9 8 7 0
-3.93098354339599609 -3 8 1 0 2
-3.79479241371154785 -2 -9 0 0 0
-3.79479241371154785 -2 8 0 0 0
-3.62250590324401855 -1 -9 0 2 0
-3.62250590324401855 -1 8 2 1 3
-3.64243459701538086 0 -9 0 3 1
-3.64243459701538086 0 8 5 2 6
-3.81516695022583008 1 -9 0 2 2
-3.81516695022583008 1 8 8 2 8
-3.95228123664855957 2 -9 0 0 0
-3.95228123664855957 2 8 10 2 9
2.93098354339599609 -3 -9 1 0 1
3 -3.67932391166687012 -9 9 0 10
3 -3 -9.31968212127685547 1 0 2
3 -3 -8.83417034149169922 6 0 6
2.93098354339599609 -3 8 6 6 4
3 -3.67932391166687012 8 5 5 3
3 -3 7.83417034149169922 3 3 3
3 -3 8.31968212127685547 2 2 1
2.79479241371154785 -2 -9 1 0 1
3 -2 -9.57999420166015625 0 0 0
3 -2 -8.50669574737548828 4 0 4
2.79479241371154785 -2 8 4 4 3
3 -2 7.50669622421264648 2 2 2
3 -2 8.57999420166015625 1 0 0
2.62250590324401855 -1 -9 3 0 2
3 -1 -9.71450138092041016 0 0 0
3 -1 -8.09198760986328125 4 0 4
2.62250590324401855 -1 8 2 2 1
3 -1 7.09198713302612305 10 9 8
3 -1 8.71450138092041016 3 2 2
2.64243459701538086 0 -9 4 0 3
3 0 -9.70336341857910156 0 0 0
3 0 -8.13319587707519531 4 0 4
2.64243459701538086 0 8 0 0 0
3 0 7.13319540023803711 16 16 15
3 0 8.70336341857910156 10 7 6
2.81516695022583008 1 -9 5 0 3
3 1 -9.55439186096191406 0 0 0
3 1 -8.55220127105712891 4 0 3
2.81516695022583008 1 8 0 0 0
3 1 7.55220127105712891 12 17 11
3 1 8.55439186096191406 17 15 10
2.95228123664855957 2 -9 6 0 3
3 2 -9.24527835845947266 0 0 0
3 2 -8.88444805145263672 4 0 3
2.95228123664855957 2 8 3 3 3
3 2 7.88444757461547852 14 23 16
3 2 8.24527835845947266 22 24 14
3 2.46246099472045898 -9 4 0 3
3 2.46246099472045898 8 22 24 14
3.10122871398925781 -9 -9 16 9 27
4 -9.68192768096923828 -9 12 6 39
4 -9 -9.68192768096923828 0 18 32
4 -9 -8.22603893280029297 10 12 29
3.10122871398925781 -9 8 3 3 3
4 -9.68192768096923828 8 16 16 16
4 -9 7.22603940963745117 5 6 6
4 -9 8.68192768096923828 6 6 6
3.29152297973632812 -8 -9 14 11 21
4 -8 -9.62969112396240234 8 24 25
4 -8 -8.38989353179931641 12 15 22
3.29152297973632812 -8 8 9 9 8
4 -8 7.38989353179931641 7 7 7
4 -8 8.62969112396240234 5 5 5
3.38541388511657715 -7 -9 14 11 18
4 -7 -9.59670639038085938 10 19 18
4 -7 -8.47074127197265625 12 14 18
3.38541388511657715 -7 8 11 11 9
4 -7 7.47074174880981445 4 5 5
4 -7 8.59670639038085938 10 15 12
3.38378620147705078 -6 -9 13 8 16
4 -6 -9.59732913970947266 10 15 14
4 -6 -8.46934032440185547 12 13 17
3.38378620147705078 -6 8 10 11 8
4 -6 7.46934032440185547 6 6 6
4 -6 8.59732913970947266 12 14 13
3.28662514686584473 -5 -9 12 5 14
4 -5 -9.63125991821289062 7 12 11
4 -5 -8.38567638397216797 12 12 17
3.28662514686584473 -5 8 8 9 6
4 -5 7.38567590713500977 4 4 4
4 -5 8.63125991821289062 2 3 2
3.09301400184631348 -4 -9 9 0 10
4 -4 -9.68383979797363281 6 12 11
4 -4 -8.21896648406982422 10 9 16
3.09301400184631348 -4 8 5 5 3
4 -4 7.21896600723266602 0 0 0
4 -4 8.68383979797363281 1 1 1
4 -3 -9.73905181884765625 2 9 9
3.96377062797546387 -3 -8 4 0 3
4 -3.12780427932739258 -8 14 5 16
4 -3 -7.96128654479980469 13 1 15
3.96377062797546387 -3 7 3 3 3
4 -3.12780427932739258 7 0 0 0
4 -3 6.96128654479980469 21 18 10
4 -3 8.73905181884765625 1 2 1
4 -2 -9.78782558441162109 0 5 6
3.58539128303527832 -2 -8 5 0 3
4 -2 -7.55695772171020508 13 0 14
3.58539128303527832 -2 7 2 2 2
4 -2 6.55695772171020508 21 21 21
4 -2 8.78782558441162109 8 9 5
4 -1 -9.82750034332275391 0 4 6
3.10626769065856934 -1 -8 6 0 4
4 -1 -7.04495382308959961 15 0 15
3.10626769065856934 -1 7 10 9 8
4 -1 6.04495382308959961 24 23 17
4 -1 8.82750034332275391 19 19 8
4 0 -9.82326030731201172 0 3 5
3.1532902717590332 0 -8 7 0 4
4 0 -7.09092903137207031 16 0 15
3.1532902717590332 0 7 16 16 15
4 0 6.09092903137207031 35 35 32
4 0 8.82326030731201172 23 18 11
4 1 -9.78111743927001953 0 2 6
3.63554525375366211 1 -8 7 0 4
4 1 -7.60871267318725586 16 0 13
3.63554525375366211 1 7 12 17 11
4 1 6.60871267318725586 42 43 39
4 1 8.78111743927001953 32 17 15
4 2 -9.72823333740234375 0 1 7
4 1.95242571830749512 -8 16 0 13
4 2 -8.01613521575927734 7 0 9
4 1.95242571830749512 7 32 33 26
4 2 7.01613521575927734 41 41 40
4 2 8.72823333740234375 32 31 29
3.15889883041381836 3 -9 4 0 2
4 3 -9.66661834716796875 0 0 8
4 3 -8.27280998229980469 9 0 10
3.15889883041381836 3 8 22 24 22
4 3 7.27280998229980469 44 46 43
4 3 8.66661834716796875 38 38 37
3.35848116874694824 4 -9 3 0 2
4 4 -9.60550975799560547 1 0 8
4 4 -8.44534969329833984 9 0 10
3.35848116874694824 4 8 22 26 24
4 4 7.44534921646118164 45 46 45
4 4 8.60550975799560547 40 40 40
3.46261811256408691 5 -9 2 0 1
4 5 -9.56332969665527344 3 0 7
4 5 -8.53537940979003906 9 0 9
3.46261811256408691 5 8 31 34 33
4 5 7.53537940979003906 45 46 46
4 5 8.56332969665527344 34 39 34
3.47227191925048828 6 -9 1 0 0
4 6 -9.55894279479980469 6 0 9
4 6 -8.54372501373291016 9 0 9
3.47227191925048828 6 8 33 35 34
4 6 7.54372549057006836 42 44 44
4 6 8.55894279479980469 32 39 35
3.38753032684326172 7 -9 1 0 0
4 7 -9.59461307525634766 15 0 16
4 7 -8.47046279907226562 8 0 7
3.38753032684326172 7 8 35 35 35
4 7 7.47046327590942383 42 47 47
4 7 8.59461307525634766 32 41 41
3.20761370658874512 8 -9 4 0 1
4 8 -9.65358448028564453 26 0 22
4 8 -8.31492328643798828 12 0 8
3.20761370658874512 8 8 36 37 39
4 8 7.31492328643798828 30 45 54
4 8 8.65358448028564453 36 41 47
4 8.65358448028564453 -9 12 0 8
4 8.65358448028564453 8 36 41 47
5 -9.28538799285888672 -9 26 51 50
5 -9 -9.28538799285888672 4 33 0
5 -9 -8.85919475555419922 22 38 31
5 -9.28538799285888672 8 0 3 2
5 -9 7.85919475555419922 9 10 11
5 -9 8.28538799285888672 0 8 8
4.96868324279785156 -8 -9 12 15 22
5 -8.12099933624267578 -9 22 38 31
4.96868324279785156 -8 8 5 5 5
5 -8.12099933624267578 8 0 8 8
4.84029245376586914 -7 -9 12 14 18
4.84029245376586914 -7 8 10 15 12
4.84251785278320312 -6 -9 12 13 17
4.84251785278320312 -6 8 12 14 13
4.97538089752197266 -5 -9 12 12 17
4.97538089752197266 -5 8 2 3 2
5 -4.90648365020751953 -9 1 3 2
5 -4 -9.29520320892333984 1 1 0
5 -4 -8.85228633880615234 0 3 2
5 -4.90648365020751953 8 2 3 3
5 -4 7.85228633880615234 7 14 9
5 -4 8.29520320892333984 4 6 5
5 -3 -9.52485561370849609 1 1 0
4.04952859878540039 -3 -8 13 1 15
5 -3 -8.60686779022216797 1 5 3
4.04952859878540039 -3 7 8 9 6
5 -3 7.60686779022216797 9 17 8
5 -3 8.52485561370849609 6 10 8
5 -2 -9.66751861572265625 0 0 0
4.56684970855712891 -2 -8 13 0 14
5 -2 -8.27659702301025391 1 8 5
4.56684970855712891 -2 7 20 19 8
5 -2 7.27659702301025391 16 18 13
5 -2 8.66751861572265625 8 13 9
5 -1 -9.75724887847900391 0 1 0
5 -1.33539795875549316 -8 13 16 23
5 -1 -7.8305511474609375 10 13 24
5 -1.33539795875549316 7 16 18 13
5 -1 6.8305511474609375 32 30 30
5 -1 8.75724887847900391 14 16 12
5 0 -9.74756240844726562 3 5 0
5 0 -7.89029884338378906 8 9 24
5 0 6.89029884338378906 40 40 40
5 0 8.74756240844726562 21 21 20
5 1 -9.64837455749511719 6 15 0
4.49109029769897461 1 -8 16 0 13
5 0.214343398809432983 -8 8 9 24
5 1 -8.33085155487060547 0 17 14
4.49109029769897461 1 7 32 33 26
5 0.214343398809432983 7 35 34 34
5 1 7.33085107803344727 41 40 40
5 1 8.64837455749511719 33 31 30
5 2 -9.48251914978027344 0 18 0
5 2 -8.66579055786132812 0 19 18
5 2 7.66579103469848633 41 40 36
5 2 8.48251914978027344 40 36 36
5 3 -9.19057273864746094 0 19 14
5 3 -8.91638565063476562 0 12 21
5 3 7.91638565063476562 38 41 32
5 3 8.19057273864746094 38 36 33
4.8644719123840332 4 -9 9 0 10
5 3.49454402923583984 -9 0 12 21
4.8644719123840332 4 8 40 40 40
5 3.49454402923583984 8 38 36 33
4.72412824630737305 5 -9 9 0 9
4.72412824630737305 5 8 34 39 34
4.71111869812011719 6 -9 9 0 9
4.71111869812011719 6 8 32 39 35
4.82532262802124023 7 -9 8 0 7
4.82532262802124023 7 8 32 41 41
5 7.72154617309570312 -9 17 0 23
5 8 -9.10698604583740234 35 0 59
5 8 -8.95751762390136719 34 0 34
5 7.72154617309570312 8 19 42 38
5 8 7.95751762390136719 43 53 56
5 8 8.10698604583740234 25 38 50
5 8.10698604583740234 -9 34 0 34
5 8.10698604583740234 8 25 38 50
5.07303810119628906 -9 -9 22 38 31
5.07303810119628906 -9 8 0 8 8
5.07662105560302734 -4 -9 0 3 2
5.07662105560302734 -4 8 4 6 5
5.20387363433837891 -3 -9 1 5 3
5.20387363433837891 -3 8 6 10 8
5.37502861022949219 -2 -9 1 8 5
5.37502861022949219 -2 8 8 13 9
5.59170246124267578 -1 -9 0 11 7
5.07084035873413086 -1 -8 10 13 24
5.07084035873413086 -1 7 26 26 25
5.59170246124267578 -1 8 14 16 12
5.558380126953125 0 -9 0 14 10
5.04523324966430664 0 -8 8 9 24
5.04523324966430664 0 7 35 34 34
5.558380126953125 0 8 21 21 20
5.34239435195922852 1 -9 0 17 14
5.34239435195922852 1 8 33 31 30
5.1710662841796875 2 -9 0 19 18
5.1710662841796875 2 8 40 36 36
5.04280900955200195 3 -9 0 12 21
5.04280900955200195 3 8 38 36 33
5.02175092697143555 8 -9 34 0 34
5.02175092697143555 8 8 25 38 50
3 2 1 0
3 1 3 0
3 6 5 4
3 5 7 4
3 2 0 8
3 0 3 8
3 6 4 9
3 4 7 9
3 12 11 10
3 11 13 10
3 16 15 14
3 15 17 14
3 19 12 10
3 18 19 10
3 13 20 18
3 10 13 18
3 22 16 14
3 21 22 14
3 17 23 21
3 14 17 21
3 25 19 18
3 24 25 18
3 20 26 24
3 18 20 24
3 28 22 21
3 27 28 21
3 23 29 27
3 21 23 27
3 31 25 24
3 30 31 24
3 26 33 32
3 26 32 24
3 24 32 30
3 33 34 32
3 37 36 35
3 36 28 27
3 36 27 35
3 35 27 38
3 29 39 38
3 27 29 38
3 41 31 30
3 40 41 30
3 30 32 40
3 32 42 40
3 34 43 42
3 32 34 42
3 45 37 35
3 44 45 35
3 35 38 44
3 38 46 44
3 39 47 46
3 38 39 46
3 49 41 40
3 48 49 40
3 50 51 48
3 50 48 42
3 42 48 40
3 42 43 50
3 45 44 52
3 54 52 44
3 54 44 53
3 53 44 46
3 47 55 53
3 46 47 53
3 57 49 48
3 56 57 48
3 51 58 56
3 48 51 56
3 60 54 53
3 59 60 53
3 55 61 59
3 53 55 59
3 63 57 56
3 62 63 56
3 58 64 62
3 56 58 62
3 66 60 59
3 65 66 59
3 61 67 65
3 59 61 65
3 63 62 68
3 62 64 68
3 66 65 69
3 65 67 69
3 72 71 70
3 71 73 70
3 76 75 74
3 75 77 74
3 72 70 78
3 70 73 78
3 76 74 79
3 74 77 79
3 2 81 80
3 1 2 80
3 1 80 82
3 3 1 82
3 6 84 83
3 5 6 83
3 5 83 85
3 7 5 85
3 8 86 87
3 8 87 2
3 2 87 81
3 86 8 3
3 86 3 88
3 88 3 82
3 9 89 90
3 9 90 6
3 6 90 84
3 89 9 7
3 89 7 91
3 91 7 85
3 93 87 86
3 92 93 86
3 88 94 92
3 86 88 92
3 96 90 89
3 95 96 89
3 91 97 95
3 89 91 95
3 99 93 92
3 98 99 92
3 94 100 98
3 92 94 98
3 102 96 95
3 101 102 95
3 97 103 101
3 95 97 101
3 105 99 98
3 104 105 98
3 100 106 104
3 98 100 104
3 108 102 101
3 107 108 101
3 103 109 107
3 101 103 107
3 104 11 12
3 104 12 105
3 105 12 110
3 11 104 106
3 11 106 13
3 13 106 111
3 107 15 16
3 107 16 108
3 108 16 112
3 15 107 109
3 15 109 17
3 17 109 113
3 110 12 114
3 114 12 19
3 115 111 116
3 115 20 111
3 20 13 111
3 116 117 115
3 120 119 118
3 119 22 118
3 119 112 22
3 112 16 22
3 113 121 17
3 121 23 17
3 114 19 122
3 122 19 25
3 123 20 115
3 26 20 123
3 117 124 123
3 115 117 123
3 126 120 118
3 125 126 118
3 118 28 125
3 22 28 118
3 121 127 23
3 127 29 23
3 122 25 128
3 128 25 31
3 123 33 26
3 33 123 124
3 33 124 34
3 34 124 129
3 125 36 37
3 125 37 126
3 126 37 130
3 125 28 36
3 127 131 29
3 131 39 29
3 128 31 132
3 132 31 41
3 129 133 34
3 133 43 34
3 130 37 134
3 134 37 45
3 131 135 39
3 135 47 39
3 132 41 136
3 136 41 49
3 50 137 51
3 137 50 43
3 137 43 138
3 138 43 133
3 52 139 140
3 52 140 45
3 45 140 134
3 52 54 139
3 135 141 47
3 141 55 47
3 136 49 142
3 142 49 57
3 143 51 137
3 143 144 51
3 144 58 51
3 137 138 143
3 140 139 145
3 139 146 145
3 139 54 146
3 54 60 146
3 141 147 55
3 147 61 55
3 142 57 148
3 148 57 63
3 144 149 58
3 149 64 58
3 146 60 150
3 150 60 66
3 147 151 61
3 151 67 61
3 68 152 153
3 68 153 63
3 63 153 148
3 152 68 64
3 152 64 154
3 154 64 149
3 69 155 156
3 69 156 66
3 66 156 150
3 155 69 67
3 155 67 157
3 157 67 151
3 159 153 152
3 158 159 152
3 154 160 158
3 152 154 158
3 162 156 155
3 161 162 155
3 157 163 161
3 155 157 161
3 165 159 158
3 164 165 158
3 160 166 164
3 158 160 164
3 168 162 161
3 167 168 161
3 163 169 167
3 161 163 167
3 171 165 164
3 170 171 164
3 166 172 170
3 164 166 170
3 174 168 167
3 173 174 167
3 169 175 173
3 167 169 173
3 170 71 72
3 170 72 171
3 171 72 176
3 71 170 172
3 71 172 73
3 73 172 177
3 173 75 76
3 173 76 174
3 174 76 178
3 75 173 175
3 75 175 77
3 77 175 179
3 176 72 78
3 180 176 78
3 180 78 73
3 177 180 73
3 178 76 79
3 181 178 79
3 181 79 77
3 179 181 77
3 80 81 182
3 80 182 82
3 83 84 183
3 83 183 85
3 184 182 81
3 87 184 81
3 182 184 88
3 82 182 88
3 185 183 84
3 90 185 84
3 183 185 91
3 85 183 91
3 186 184 87
3 93 186 87
3 184 186 94
3 88 184 94
3 187 185 90
3 96 187 90
3 185 187 97
3 91 185 97
3 188 186 93
3 99 188 93
3 186 188 100
3 94 186 100
3 189 187 96
3 102 189 96
3 187 189 103
3 97 187 103
3 190 188 99
3 105 190 99
3 188 190 106
3 100 188 106
3 191 189 102
3 108 191 102
3 189 191 109
3 103 189 109
3 192 190 105
3 110 192 105
3 190 192 111
3 106 190 111
3 193 191 108
3 112 193 108
3 191 193 113
3 109 191 113
3 194 192 110
3 194 110 195
3 195 110 114
3 197 196 116
3 194 197 116
3 194 116 111
3 194 111 192
3 116 196 117
3 119 120 198
3 198 200 199
3 119 198 199
3 119 199 193
3 119 193 112
3 193 199 201
3 193 201 113
3 113 201 121
3 195 114 202
3 202 114 122
3 204 196 197
3 203 196 204
3 196 203 124
3 117 196 124
3 205 198 120
3 126 205 120
3 200 205 206
3 198 205 200
3 201 207 121
3 207 127 121
3 202 122 208
3 208 122 128
3 210 203 204
3 209 203 210
3 203 209 129
3 124 203 129
3 211 205 126
3 130 211 126
3 206 211 212
3 205 211 206
3 207 213 127
3 213 131 127
3 208 128 214
3 214 128 132
3 216 209 210
3 215 209 216
3 209 215 133
3 129 209 133
3 217 211 130
3 134 217 130
3 212 217 218
3 211 217 212
3 213 219 131
3 219 135 131
3 214 132 220
3 220 132 136
3 222 215 216
3 221 215 222
3 215 221 138
3 133 215 138
3 223 217 134
3 140 223 134
3 218 223 224
3 217 223 218
3 219 225 135
3 225 141 135
3 220 136 226
3 226 136 142
3 221 144 143
3 221 222 144
3 222 227 144
3 221 143 138
3 223 140 145
3 145 224 223
3 145 146 224
3 146 228 224
3 225 229 141
3 229 147 141
3 230 231 226
3 230 226 148
3 148 226 142
3 231 230 149
3 231 149 227
3 227 149 144
3 232 233 228
3 232 228 150
3 150 228 146
3 233 232 151
3 233 151 229
3 229 151 147
3 234 230 148
3 153 234 148
3 230 234 154
3 149 230 154
3 235 232 150
3 156 235 150
3 232 235 157
3 151 232 157
3 236 234 153
3 159 236 153
3 234 236 160
3 154 234 160
3 237 235 156
3 162 237 156
3 235 237 163
3 157 235 163
3 238 236 159
3 165 238 159
3 236 238 166
3 160 236 166
3 239 237 162
3 168 239 162
3 237 239 169
3 163 237 169
3 240 238 165
3 171 240 165
3 238 240 172
3 166 238 172
3 241 239 168
3 174 241 168
3 239 241 175
3 169 239 175
3 242 240 171
3 176 242 171
3 240 242 177
3 172 240 177
3 243 241 174
3 178 243 174
3 241 243 179
3 175 241 179
3 242 176 180
3 242 180 177
3 243 178 181
3 243 181 179
3 194 195 244
3 194 244 197
3 199 200 245
3 199 245 201
3 246 244 195
3 202 246 195
3 244 246 204
3 197 244 204
3 247 245 200
3 206 247 200
3 245 247 207
3 201 245 207
3 248 246 202
3 208 248 202
3 246 248 210
3 204 246 210
3 249 247 206
3 212 249 206
3 247 249 213
3 207 247 213
3 250 248 208
3 214 250 208
3 248 250 216
3 210 248 216
3 251 249 212
3 218 251 212
3 249 251 219
3 213 249 219
3 252 250 214
3 220 252 214
3 250 252 222
3 216 250 222
3 253 251 218
3 224 253 218
3 251 253 225
3 219 251 225
3 254 252 220
3 226 254 220
3 252 254 227
3 222 252 227
3 255 253 224
3 228 255 224
3 253 255 229
3 225 253 229
3 254 226 231
3 254 231 227
3 255 228 233
3 255 233 229
3 258 257 256
3 257 259 256
3 262 261 260
3 261 263 260
3 265 258 256
3 264 265 256
3 259 266 264
3 256 259 264
3 268 262 260
3 267 268 260
3 263 269 267
3 260 263 267
3 271 265 264
3 270 271 264
3 266 272 270
3 264 266 270
3 274 268 267
3 273 274 267
3 269 275 273
3 267 269 273
3 277 271 270
3 276 277 270
3 272 278 276
3 270 272 276
3 280 274 273
3 279 280 273
3 275 281 279
3 273 275 279
3 283 277 276
3 282 283 276
3 278 284 282
3 276 278 282
3 286 280 279
3 285 286 279
3 281 287 285
3 279 281 285
3 289 283 282
3 288 289 282
3 284 290 288
3 282 284 288
3 292 286 285
3 291 292 285
3 287 293 291
3 285 287 291
3 289 288 294
3 288 290 294
3 292 291 295
3 291 293 295
3 298 297 296
3 297 299 296
3 302 301 300
3 301 303 300
3 305 298 296
3 304 305 296
3 299 306 304
3 296 299 304
3 308 302 300
3 307 308 300
3 303 309 307
3 300 303 307
3 311 305 304
3 310 311 304
3 306 312 310
3 304 306 310
3 314 308 307
3 313 314 307
3 309 315 313
3 307 309 313
3 317 311 310
3 316 317 310
3 312 318 316
3 310 312 316
3 320 314 313
3 319 320 313
3 315 321 319
3 313 315 319
3 323 317 316
3 322 323 316
3 318 324 322
3 316 318 322
3 326 320 319
3 325 326 319
3 321 327 325
3 319 321 325
3 329 323 322
3 328 329 322
3 324 330 328
3 322 324 328
3 332 326 325
3 331 332 325
3 327 333 331
3 325 327 331
3 328 257 258
3 328 258 329
3 329 258 334
3 257 335 259
3 328 335 257
3 328 336 335
3 328 330 336
3 336 337 335
3 340 339 338
3 331 261 262
3 332 331 262
3 332 262 338
3 332 338 339
3 261 331 333
3 261 333 263
3 263 333 341
3 334 258 342
3 342 258 265
3 343 259 335
3 266 259 343
3 337 344 343
3 335 337 343
3 346 340 338
3 345 346 338
3 338 268 345
3 262 268 338
3 341 347 263
3 347 269 263
3 342 265 348
3 348 265 271
3 349 266 343
3 272 266 349
3 344 350 349
3 343 344 349
3 352 346 345
3 351 352 345
3 345 274 351
3 268 274 345
3 347 353 269
3 353 275 269
3 348 271 354
3 354 271 277
3 355 272 349
3 278 272 355
3 350 356 355
3 349 350 355
3 358 352 351
3 357 358 351
3 351 280 357
3 274 280 351
3 353 359 275
3 359 281 275
3 354 277 360
3 360 277 283
3 361 278 355
3 284 278 361
3 356 362 361
3 355 356 361
3 364 358 357
3 363 364 357
3 357 286 363
3 280 286 357
3 359 365 281
3 365 287 281
3 360 283 366
3 366 283 289
3 367 284 361
3 367 368 284
3 368 290 284
3 361 362 367
3 364 363 369
3 363 370 369
3 363 286 370
3 286 292 370
3 365 371 287
3 371 293 287
3 294 372 373
3 294 373 289
3 289 373 366
3 372 294 290
3 372 290 374
3 374 290 368
3 295 375 376
3 295 376 292
3 292 376 370
3 375 295 293
3 375 293 377
3 377 293 371
3 379 373 372
3 378 379 372
3 374 380 378
3 372 374 378
3 382 376 375
3 381 382 375
3 377 383 381
3 375 377 381
3 385 379 378
3 384 385 378
3 380 386 384
3 378 380 384
3 388 382 381
3 387 388 381
3 383 389 387
3 381 383 387
3 391 385 384
3 390 391 384
3 386 392 390
3 384 386 390
3 394 388 387
3 393 394 387
3 389 395 393
3 387 389 393
3 397 391 390
3 396 397 390
3 392 398 396
3 390 392 396
3 400 394 393
3 399 400 393
3 395 401 399
3 393 395 399
3 403 397 396
3 402 403 396
3 398 404 402
3 396 398 402
3 406 400 399
3 405 406 399
3 401 407 405
3 399 401 405
3 403 402 408
3 402 404 408
3 406 405 409
3 405 407 409
3 298 411 410
3 297 298 410
3 297 410 412
3 299 297 412
3 302 414 413
3 301 302 413
3 301 413 415
3 303 301 415
3 416 417 411
3 416 411 305
3 305 411 298
3 417 416 306
3 417 306 412
3 412 306 299
3 418 419 414
3 418 414 308
3 308 414 302
3 419 418 309
3 419 309 415
3 415 309 303
3 420 416 305
3 311 420 305
3 416 420 312
3 306 416 312
3 421 418 308
3 314 421 308
3 418 421 315
3 309 418 315
3 422 420 311
3 317 422 311
3 420 422 318
3 312 420 318
3 423 421 314
3 320 423 314
3 421 423 321
3 315 421 321
3 424 422 317
3 323 424 317
3 422 424 324
3 318 422 324
3 425 423 320
3 326 425 320
3 423 425 327
3 321 423 327
3 426 424 323
3 426 323 427
3 427 323 329
3 424 426 428
3 424 428 324
3 324 428 330
3 429 425 326
3 429 326 430
3 430 326 332
3 425 429 431
3 425 431 327
3 327 431 333
3 427 329 432
3 432 329 334
3 336 434 433
3 336 330 434
3 330 428 434
3 336 433 337
3 339 340 435
3 435 332 339
3 435 436 332
3 436 430 332
3 431 437 333
3 437 341 333
3 432 334 438
3 438 334 342
3 440 433 434
3 439 433 440
3 433 439 344
3 337 433 344
3 441 435 340
3 346 441 340
3 436 441 442
3 435 441 436
3 437 443 341
3 443 347 341
3 438 342 444
3 444 342 348
3 440 445 439
3 439 445 446
3 439 446 344
3 344 446 350
3 447 441 346
3 447 346 448
3 448 346 352
3 441 447 442
3 443 449 347
3 449 353 347
3 444 348 450
3 450 348 354
3 446 451 350
3 451 356 350
3 448 352 452
3 452 352 358
3 449 453 353
3 453 359 353
3 450 354 454
3 454 354 360
3 457 455 456
3 456 455 362
3 456 362 451
3 451 362 356
3 458 459 452
3 458 452 364
3 364 452 358
3 459 458 460
3 453 461 359
3 461 365 359
3 454 360 462
3 462 360 366
3 455 368 367
3 455 457 368
3 457 463 368
3 455 367 362
3 458 364 369
3 369 460 458
3 369 370 460
3 370 464 460
3 461 465 365
3 465 371 365
3 462 366 466
3 466 366 373
3 463 467 368
3 467 374 368
3 464 370 468
3 468 370 376
3 465 469 371
3 469 377 371
3 470 471 466
3 470 466 379
3 379 466 373
3 471 470 380
3 471 380 467
3 467 380 374
3 472 473 468
3 472 468 382
3 382 468 376
3 473 472 383
3 473 383 469
3 469 383 377
3 474 470 379
3 385 474 379
3 470 474 386
3 380 470 386
3 475 472 382
3 388 475 382
3 472 475 389
3 383 472 389
3 476 474 385
3 391 476 385
3 474 476 392
3 386 474 392
3 477 475 388
3 394 477 388
3 475 477 395
3 389 475 395
3 478 476 391
3 397 478 391
3 476 478 398
3 392 476 398
3 479 477 394
3 400 479 394
3 477 479 401
3 395 477 401
3 480 478 397
3 480 397 481
3 481 397 403
3 478 480 482
3 478 482 398
3 398 482 404
3 483 479 400
3 483 400 484
3 484 400 406
3 479 483 485
3 479 485 401
3 401 485 407
3 481 403 408
3 486 481 408
3 486 408 404
3 482 486 404
3 484 406 409
3 487 484 409
3 487 409 407
3 485 487 407
3 410 411 488
3 410 488 412
3 413 414 489
3 413 489 415
3 488 411 417
3 488 417 412
3 489 414 419
3 489 419 415
3 426 427 490
3 426 490 428
3 429 430 491
3 429 491 431
3 492 490 427
3 432 492 427
3 490 492 434
3 428 490 434
3 493 491 430
3 436 493 430
3 491 493 437
3 431 491 437
3 494 492 432
3 438 494 432
3 492 494 440
3 434 492 440
3 495 493 436
3 442 495 436
3 493 495 443
3 437 493 443
3 496 494 438
3 444 496 438
3 445 440 494
3 445 494 497
3 497 494 496
3 445 497 446
3 447 448 498
3 442 447 498
3 442 498 495
3 495 498 499
3 495 499 449
3 443 495 449
3 500 496 444
3 450 500 444
3 496 500 497
3 497 500 501
3 497 501 451
3 446 497 451
3 502 498 448
3 452 502 448
3 498 502 499
3 499 502 503
3 499 503 453
3 449 499 453
3 504 500 450
3 454 504 450
3 457 456 501
3 457 501 504
3 504 501 500
3 501 456 451
3 502 452 459
3 459 460 505
3 459 505 502
3 502 505 503
3 503 505 461
3 453 503 461
3 506 504 454
3 462 506 454
3 504 506 463
3 457 504 463
3 507 505 460
3 464 507 460
3 505 507 465
3 461 505 465
3 508 506 462
3 466 508 462
3 506 508 467
3 463 506 467
3 509 507 464
3 468 509 464
3 507 509 469
3 465 507 469
3 508 466 471
3 508 471 467
3 509 468 473
3 509 473 469
3 480 481 510
3 480 510 482
3 483 484 511
3 483 511 485
3 510 481 486
3 510 486 482
3 511 484 487
3 511 487 485
