ply
format ascii 1.0
element vertex 74
property float x
property float y
property float z
property uchar red
property uchar green
property uchar blue
element face 144
property list uchar int vertex_indices
end_header
7.63988780975341797 8 -9 52 56 33
8 7.71350193023681641 -9 51 56 24
8 8 -9.38137531280517578 28 31 24
7.63126945495605469 8 -8 67 67 16
8 7.70654630661010742 -8 69 67 10
7.62298488616943359 8 -7 38 33 3
8 7.69983148574829102 -7 36 30 2
7.6191096305847168 8 -6 83 62 6
8 7.69660615921020508 -6 82 57 3
7.62325859069824219 8 -5 57 40 8
8 7.69975996017456055 -5 57 36 5
7.63755655288696289 8 -4 28 22 13
8 7.71100473403930664 -4 28 20 9
7.66173315048217773 8 -3 40 36 30
8 7.73014640808105469 -3 42 41 40
7.69290876388549805 8 -2 55 43 8
8 7.75490570068359375 -2 53 44 19
7.72639083862304688 8 -1 96 91 1
8 7.78154420852661133 -1 95 87 14
7.75720930099487305 8 0 65 82 5
8 7.80609035491943359 0 70 82 20
7.78163337707519531 8 1 14 20 9
8 7.82555580139160156 1 17 20 14
7.79799413681030273 8 2 59 68 58
8 7.83859586715698242 2 44 68 42
7.80662679672241211 8 3 8 25 14
8 7.84547138214111328 3 5 27 13
7.80925512313842773 8 4 3 37 29
8 7.84755229949951172 4 2 36 27
7.80824422836303711 8 5 2 62 70
8 7.8467259407043457 5 1 63 69
7.80604457855224609 8 6 1 43 75
8 7.84494829177856445 6 0 44 74
7.80488157272338867 8 7 0 19 59
8 7.84399747848510742 7 0 20 58
7.80663061141967773 8 8 0 3 27
8 7.84537458419799805 8 0 3 27
8 8 8.25035953521728516 0 2 36
8 8.38137531280517578 -9 30 34 18
8 8.38700389862060547 -8 98 104 23
8 8.39233875274658203 -7 7 6 0
8 8.39486789703369141 -6 72 58 3
8 8.39239597320556641 -5 66 48 4
8 8.38340854644775391 -4 4 3 1
8 8.36746788024902344 -3 79 73 57
8 8.34555721282958984 -2 23 21 12
8 8.32018375396728516 -1 81 82 16
8 8.29495811462402344 0 66 85 18
8 8.27355575561523438 1 28 39 22
8 8.25846099853515625 2 34 43 34
8 8.25024318695068359 3 18 65 38
8 8.24771881103515625 4 0 4 3
8 8.24872303009033203 5 1 40 49
8 8.25087451934814453 6 0 34 65
8 8.25201988220214844 7 0 16 59
8 8.25035953521728516 8 0 2 36
8.38137531280517578 8 -9 30 34 18
8.38700389862060547 8 -8 98 104 23
8.39233875274658203 8 -7 7 6 0
8.39486789703369141 8 -6 72 58 3
8.39239597320556641 8 -5 66 48 4
8.38340854644775391 8 -4 4 3 1
8.36746788024902344 8 -3 79 73 57
8.34555721282958984 8 -2 23 21 12
8.32018375396728516 8 -1 81 82 16
8.29495811462402344 8 0 66 85 18
8.27355575561523438 8 1 28 39 22
8.25846099853515625 8 2 34 43 34
8.25024318695068359 8 3 18 65 38
8.24771881103515625 8 4 0 4 3
8.24872303009033203 8 5 1 40 49
8.25087451934814453 8 6 0 34 65
8.25201988220214844 8 7 0 16 59
8.25035953521728516 8 8 0 2 36
3 2 1 0
3 1 4 3
3 0 1 3
3 4 6 5
3 3 4 5
3 6 8 7
3 5 6 7
3 8 10 9
3 7 8 9
3 10 12 11
3 9 10 11
3 12 14 13
3 11 12 13
3 14 16 15
3 13 14 15
3 16 18 17
3 15 16 17
3 18 20 19
3 17 18 19
3 20 22 21
3 19 20 21
3 22 24 23
3 21 22 23
3 24 26 25
3 23 24 25
3 26 28 27
3 25 26 27
3 28 30 29
3 27 28 29
3 30 32 31
3 29 30 31
3 32 34 33
3 31 32 33
3 34 36 35
3 33 34 35
3 36 37 35
3 2 0 38
3 0 3 39
3 38 0 39
3 3 5 40
3 39 3 40
3 5 7 41
3 40 5 41
3 7 9 42
3 41 7 42
3 9 11 43
3 42 9 43
3 11 13 44
3 43 11 44
3 13 15 45
3 44 13 45
3 15 17 46
3 45 15 46
3 17 19 47
3 46 17 47
3 19 21 48
3 47 19 48
3 21 23 49
3 48 21 49
3 23 25 50
3 49 23 50
3 25 27 51
3 50 25 51
3 27 29 52
3 51 27 52
3 29 31 53
3 52 29 53
3 31 33 54
3 53 31 54
3 33 35 55
3 54 33 55
3 35 37 55
3 1 2 56
3 4 1 56
3 57 4 56
3 6 4 57
3 58 6 57
3 8 6 58
3 59 8 58
3 10 8 59
3 60 10 59
3 12 10 60
3 61 12 60
3 14 12 61
3 62 14 61
3 16 14 62
3 63 16 62
3 18 16 63
3 64 18 63
3 20 18 64
3 65 20 64
3 22 20 65
3 66 22 65
3 24 22 66
3 67 24 66
3 26 24 67
3 68 26 67
3 28 26 68
3 69 28 68
3 30 28 69
3 70 30 69
3 32 30 70
3 71 32 70
3 34 32 71
3 72 34 71
3 36 34 72
3 73 36 72
3 36 73 37
3 56 2 38
3 57 56 38
3 39 57 38
3 58 57 39
3 40 58 39
3 59 58 40
3 41 59 40
3 60 59 41
3 42 60 41
3 61 60 42
3 43 61 42
3 62 61 43
3 44 62 43
3 63 62 44
3 45 63 44
3 64 63 45
3 46 64 45
3 65 64 46
3 47 65 46
3 66 65 47
3 48 66 47
3 67 66 48
3 49 67 48
3 68 67 49
3 50 68 49
3 69 68 50
3 51 69 50
3 70 69 51
3 52 70 51
3 71 70 52
3 53 71 52
3 72 71 53
3 54 72 53
3 73 72 54
3 55 73 54
3 73 55 37
