ply
format ascii 1.0
element vertex 194
property float x
property float y
property float z
property uchar red
property uchar green
property uchar blue
element face 384
property list uchar int vertex_indices
end_header
-4.04415702819824219 7 -1 33 99 61
-4 6.7801361083984375 -1 36 69 39
-4 7 -1.39869821071624756 34 93 46
-4 7 -0.77485889196395874 38 93 53
-4.14673614501953125 8 -2 27 123 76
-4 7.31333208084106445 -2 34 93 46
-4 8 -2.34882235527038574 27 119 58
-4.25801610946655273 8 -1 30 123 84
-4.06184768676757812 8 0 33 125 94
-4 7.71093559265136719 0 41 95 61
-4 8 0.121763266623020172 39 120 81
-4 8.66797828674316406 -2 32 118 64
-4 8.77853679656982422 -1 36 118 71
-4 8.45998477935791016 0 39 120 81
-3.0610954761505127 4 -2 17 24 16
-3 3.74216175079345703 -2 0 0 0
-3 4 -2.09880566596984863 16 20 13
-3.22391939163208008 4 -1 18 24 18
-3 3.05396437644958496 -1 0 1 0
-3 4 -0.221668407320976257 16 19 15
-3.31755280494689941 5 -2 27 45 26
-3 5 -2.51399445533752441 28 42 23
-3.48196530342102051 5 -1 29 45 28
-3.19234180450439453 5 0 31 48 33
-3 4.24875783920288086 0 19 22 18
-3 5 0.25792926549911499 32 43 32
-3.59615731239318848 6 -2 32 68 34
-3 6 -2.9658653736114502 35 65 30
-3.76273965835571289 6 -1 36 69 39
-3.46947956085205078 6 0 39 71 45
-3 6 0.629958689212799072 41 66 43
-3.27373933792114258 7 -3 29 95 40
-3 6.07051897048950195 -3 35 65 30
-3 7 -3.25306010246276855 27 94 29
-3.89845705032348633 7 -2 34 93 46
-3.76978778839111328 7 0 41 95 61
-3.02423906326293945 7 1 43 99 70
-3 6.91782379150390625 1 44 71 49
-3 7 1.02001774311065674 47 95 64
-3.5908510684967041 8 -3 27 119 58
-3 8 -3.54609298706054688 25 119 45
-3.33826470375061035 8 1 40 124 93
-3 8 1.2791975736618042 45 120 84
-3 8.84432411193847656 -3 31 116 49
-3 8.91591739654541016 -2 36 114 56
-3 8.92485618591308594 -1 40 114 64
-3 8.90739154815673828 0 43 116 73
-3 8.75848579406738281 1 45 120 84
-2.19554853439331055 1 -1 24 25 24
-2 0.412682175636291504 -1 37 37 37
-2 1 -1.64700663089752197 28 29 27
-2 1 -0.634658515453338623 29 29 28
-2.2618408203125 2 -2 13 14 12
-2 1.28981459140777588 -2 28 29 27
-2 2 -2.22780227661132812 14 15 12
-2.56580734252929688 2 -1 13 13 12
-2.03041267395019531 2 0 10 11 10
-2 1.91754388809204102 0 25 26 25
-2 2 0.0219364054501056671 14 14 14
-2.66870856285095215 3 -2 0 0 0
-2 3 -2.58168649673461914 0 0 0
-2.97589993476867676 3 -1 0 1 0
-2.43509674072265625 3 0 3 3 3
-2 3 0.313706368207931519 0 0 0
-2 4 -2.97100543975830078 14 17 11
-2.87998199462890625 4 0 19 22 18
-2 4 0.634186446666717529 17 18 16
-2.44333958625793457 5 -3 28 42 23
-2 4.06880998611450195 -3 14 17 11
-2 5 -3.22034168243408203 29 43 21
-2 5 0.984929203987121582 32 40 31
-2.96091103553771973 6 -3 35 65 30
-2 6 -3.47693753242492676 36 66 27
-2.4915311336517334 6 1 44 71 49
-2 5.03992366790771484 1 35 45 35
-2 6 1.21811282634735107 46 68 48
-2 7 -3.75500321388244629 33 91 29
-2 7 1.46341407299041748 50 93 62
-2.1077110767364502 8 -4 25 119 45
-2 7.81559991836547852 -4 33 91 29
-2 8 -4.03736734390258789 21 121 36
-2 8 1.72828876972198486 48 118 79
-2 8.35240745544433594 -4 27 117 38
-2 8.91073131561279297 -3 33 113 44
-2 8.93928909301757812 -2 39 112 51
-2 8.94390869140625 -1 44 112 60
-2 8.93514823913574219 0 47 114 69
-2 8.88878536224365234 1 48 118 79
-1.12096333503723145 0 -1 37 37 37
-1 -0.0633436962962150574 -1 42 43 42
-1 0 -1.06228852272033691 38 39 37
-1 0 -0.964824080467224121 38 38 38
-1.3169553279876709 1 -2 28 29 27
-1 0.851844906806945801 -2 38 39 37
-1 1 -2.04293036460876465 27 28 23
-1 1 -0.342539072036743164 30 30 29
-1 2 -2.36395788192749023 16 16 13
-1 1.49518406391143799 0 27 27 26
-1 2 0.134244844317436218 15 15 15
-1 3 -2.71919798851013184 1 1 1
-1 3 0.426964521408081055 0 0 0
-1.7911078929901123 4 -3 14 17 11
-1 3.7204287052154541 -3 1 1 1
-1 4 -3.06124758720397949 17 21 11
-1 4 0.748712241649627686 16 18 15
-1 5 -3.2983548641204834 30 42 20
-1.86978304386138916 5 1 35 45 35
-1 4.71577882766723633 1 20 23 20
-1 5 1.06013846397399902 36 44 35
-1 6 -3.55585312843322754 38 66 27
-1 6 1.28781437873840332 46 68 47
-1 7 -3.83514642715454102 37 91 30
-1 7 1.53395724296569824 52 92 60
-1 7.54847335815429688 -4 37 91 30
-1 8 -4.09141683578491211 22 121 31
-1 8 1.79999363422393799 50 118 77
-1 8.57034683227539062 -4 28 116 34
-1 8.91623497009277344 -3 35 113 41
-1 8.94177150726318359 -2 40 112 48
-1 8.94600582122802734 -1 45 112 57
-1 8.93800067901611328 0 48 114 66
-1 8.89733028411865234 1 50 118 77
-0.97243887186050415 0 -1 38 38 38
-0.927785873413085938 1 -2 30 30 28
-0.484932065010070801 1 -1 30 30 29
-0.387505292892456055 2 -2 18 18 16
0 1.89163851737976074 -1 28 29 28
0 2 -1.13219964504241943 16 17 14
-0.72753220796585083 2 0 15 15 15
0 2 -0.925344347953796387 16 17 15
0 2.64996099472045898 -2 16 17 14
0 3 -2.1232147216796875 0 0 0
-0.132776364684104919 3 0 0 0 0
0 3 -0.168850570917129517 1 1 1
-0.819774985313415527 4 -3 14 16 11
0 4 -2.50738000869750977 15 18 11
0 3.20473599433898926 0 0 1 0
0 4 0.252478212118148804 17 19 16
-0.120653547346591949 5 -3 29 38 22
0 5 -2.92745351791381836 30 40 22
-0.801855087280273438 5 1 36 44 35
0 5 0.598362088203430176 33 41 31
0 5.16025638580322266 -3 30 40 22
0 6 -3.21369838714599609 39 67 27
-0.0497716329991817474 6 1 46 68 47
0 6 0.975045919418334961 44 65 42
0 7 -3.48821043968200684 38 92 29
0 6.0618290901184082 1 46 69 47
0 7 1.22807371616363525 52 94 60
-0.613990187644958496 8 -4 28 116 34
0 8 -3.7847285270690918 28 118 32
0 8 1.48958706855773926 50 119 75
0 8.88501644134521484 -3 34 114 38
0 8.92895412445068359 -2 40 113 46
0 8.93533229827880859 -1 45 113 55
0 8.92307853698730469 0 48 115 65
0 8.84488201141357422 1 50 119 75
0.0260066911578178406 2 -1 16 17 15
0.0921397805213928223 3 -2 1 2 1
0.289233237504959106 3 -1 1 1 1
0.379253178834915161 4 -2 14 16 12
0.578278660774230957 4 -1 15 17 13
0.227746456861495972 4 0 17 19 16
0.692909538745880127 5 -2 30 38 24
0.894516170024871826 5 -1 31 38 27
0.539649426937103271 5 0 33 41 31
0.27962803840637207 6 -3 41 64 30
1 5.89953804016113281 -2 32 42 25
1 6 -2.04477620124816895 41 67 30
1 5.30872821807861328 -1 33 42 28
0.879191219806671143 6 0 44 65 42
1 6 -0.338546901941299438 43 66 38
0.639254331588745117 7 -3 42 89 34
1 7 -2.52191066741943359 41 92 33
1 6.33071517944335938 0 45 68 42
0.334256440401077271 7 1 52 94 60
1 7 0.26445278525352478 47 93 50
1 7.92841577529907227 -3 41 92 33
1 8 -3.02080392837524414 26 121 32
0.718284189701080322 8 1 50 119 75
1 8 0.688817977905273438 46 118 65
1 8.17463207244873047 -3 32 118 38
1 8.85429477691650391 -2 38 116 46
1 8.87997913360595703 -1 43 116 55
1 8.825439453125 0 46 118 65
1.02141737937927246 6 -2 42 66 34
1.14715993404388428 6 -1 43 66 38
1.24921548366546631 7 -2 43 91 38
1.37616205215454102 7 -1 44 91 43
1.15246856212615967 7 0 47 93 50
1.01740348339080811 8 -3 32 118 38
1.49444580078125 8 -2 38 116 46
1.62312436103820801 8 -1 43 116 55
1.39653885364532471 8 0 46 118 65
3 2 1 0
3 1 3 0
3 6 5 4
3 5 2 0
3 5 0 4
3 4 0 7
3 3 9 8
3 3 8 0
3 0 8 7
3 9 10 8
3 6 4 11
3 4 7 12
3 11 4 12
3 7 8 13
3 12 7 13
3 8 10 13
3 16 15 14
3 15 18 17
3 14 15 17
3 18 19 17
3 21 16 14
3 20 21 14
3 14 17 20
3 17 22 20
3 19 24 23
3 19 23 17
3 17 23 22
3 24 25 23
3 27 21 20
3 26 27 20
3 20 22 26
3 22 28 26
3 22 23 28
3 23 29 28
3 25 30 29
3 23 25 29
3 33 32 31
3 32 27 26
3 32 26 31
3 31 26 34
3 2 28 1
3 2 34 28
3 34 26 28
3 1 35 3
3 1 28 35
3 28 29 35
3 30 37 36
3 30 36 29
3 29 36 35
3 37 38 36
3 40 33 31
3 39 40 31
3 6 34 5
3 6 39 34
3 39 31 34
3 34 2 5
3 35 9 3
3 9 41 10
3 9 35 41
3 35 36 41
3 38 42 41
3 36 38 41
3 40 39 43
3 39 6 11
3 39 11 43
3 43 11 44
3 44 11 45
3 11 12 45
3 45 12 46
3 12 13 46
3 10 41 47
3 10 47 13
3 13 47 46
3 41 42 47
3 50 49 48
3 49 51 48
3 54 53 52
3 53 50 48
3 53 48 52
3 52 48 55
3 51 57 56
3 51 56 48
3 48 56 55
3 57 58 56
3 60 54 52
3 59 60 52
3 52 55 59
3 55 61 59
3 55 56 61
3 56 62 61
3 58 63 62
3 56 58 62
3 59 15 16
3 59 16 60
3 60 16 64
3 61 15 59
3 18 15 61
3 18 65 19
3 18 61 65
3 61 62 65
3 63 66 65
3 62 63 65
3 69 68 67
3 68 21 67
3 68 64 21
3 64 16 21
3 65 24 19
3 24 65 66
3 24 66 25
3 25 66 70
3 72 69 67
3 71 72 67
3 67 27 71
3 21 27 67
3 73 70 74
3 73 30 70
3 30 25 70
3 74 75 73
3 71 32 33
3 71 33 72
3 72 33 76
3 71 27 32
3 73 37 30
3 37 73 75
3 37 75 38
3 38 75 77
3 80 79 78
3 79 40 78
3 79 76 40
3 76 33 40
3 77 81 38
3 81 42 38
3 80 78 82
3 78 40 43
3 78 43 82
3 82 43 83
3 83 43 84
3 43 44 84
3 84 44 85
3 44 45 85
3 85 45 86
3 45 46 86
3 86 46 87
3 46 47 87
3 87 47 42
3 81 87 42
3 90 89 88
3 89 91 88
3 94 93 92
3 88 49 50
3 90 88 50
3 90 50 92
3 90 92 93
3 49 88 91
3 49 91 51
3 51 91 95
3 92 53 54
3 92 54 94
3 94 54 96
3 92 50 53
3 95 57 51
3 97 57 95
3 57 97 98
3 58 57 98
3 96 54 99
3 99 54 60
3 98 100 58
3 100 63 58
3 103 102 101
3 102 64 101
3 102 99 64
3 99 60 64
3 100 104 63
3 104 66 63
3 101 68 69
3 101 69 103
3 103 69 105
3 101 64 68
3 106 104 107
3 106 70 104
3 70 66 104
3 107 108 106
3 105 69 109
3 109 69 72
3 106 74 70
3 74 106 108
3 74 108 75
3 75 108 110
3 109 72 111
3 111 72 76
3 110 112 75
3 112 77 75
3 80 114 113
3 79 80 113
3 113 76 79
3 111 76 113
3 112 115 77
3 115 81 77
3 114 80 82
3 116 114 82
3 116 82 117
3 82 83 117
3 117 83 118
3 83 84 118
3 118 84 119
3 84 85 119
3 119 85 120
3 85 86 120
3 120 86 121
3 86 87 121
3 121 87 81
3 115 121 81
3 89 90 122
3 89 122 91
3 93 94 123
3 90 93 123
3 90 123 122
3 122 123 124
3 122 124 95
3 91 122 95
3 125 123 94
3 96 125 94
3 126 125 127
3 126 124 125
3 124 123 125
3 129 128 97
3 126 129 97
3 126 97 95
3 126 95 124
3 97 128 98
3 130 125 96
3 130 96 131
3 131 96 99
3 125 130 127
3 133 128 129
3 132 128 133
3 128 132 100
3 98 128 100
3 102 103 134
3 134 99 102
3 134 135 99
3 135 131 99
3 133 136 132
3 132 136 137
3 132 137 100
3 100 137 104
3 138 134 103
3 105 138 103
3 135 138 139
3 134 138 135
3 107 141 140
3 107 104 141
3 104 137 141
3 107 140 108
3 142 138 105
3 142 105 143
3 143 105 109
3 138 142 139
3 145 140 141
3 144 140 145
3 140 144 110
3 108 140 110
3 143 109 146
3 146 109 111
3 145 147 144
3 144 147 148
3 144 148 110
3 110 148 112
3 113 114 149
3 149 111 113
3 149 150 111
3 150 146 111
3 148 151 112
3 151 115 112
3 149 114 116
3 150 149 116
3 150 116 152
3 152 116 117
3 152 117 153
3 117 118 153
3 153 118 154
3 118 119 154
3 154 119 155
3 119 120 155
3 155 120 156
3 120 121 156
3 156 121 115
3 151 156 115
3 126 127 157
3 126 157 129
3 130 131 158
3 127 130 158
3 127 158 157
3 157 158 159
3 157 159 133
3 129 157 133
3 160 158 131
3 135 160 131
3 158 160 159
3 159 160 161
3 136 133 159
3 136 159 162
3 162 159 161
3 136 162 137
3 163 160 135
3 139 163 135
3 160 163 161
3 161 163 164
3 161 164 162
3 162 164 165
3 162 165 141
3 137 162 141
3 142 143 166
3 166 168 167
3 142 166 167
3 142 167 163
3 142 163 139
3 163 169 164
3 167 169 163
3 171 164 169
3 171 170 164
3 170 165 164
3 165 170 145
3 141 165 145
3 172 166 143
3 146 172 143
3 168 172 173
3 166 172 168
3 171 174 170
3 176 175 147
3 174 176 147
3 174 147 145
3 174 145 170
3 147 175 148
3 177 172 146
3 177 146 178
3 178 146 150
3 172 177 173
3 180 175 176
3 179 175 180
3 175 179 151
3 148 175 151
3 178 150 152
3 181 178 152
3 181 152 182
3 152 153 182
3 182 153 183
3 153 154 183
3 183 154 184
3 154 155 184
3 179 180 184
3 179 184 156
3 156 184 155
3 179 156 151
3 167 168 185
3 169 167 185
3 186 169 185
3 169 186 171
3 187 185 168
3 173 187 168
3 185 187 186
3 186 187 188
3 174 171 186
3 174 186 189
3 189 186 188
3 174 189 176
3 177 178 190
3 173 177 190
3 173 190 187
3 187 190 191
3 187 191 188
3 188 191 192
3 188 192 189
3 189 192 193
3 189 193 180
3 176 189 180
3 190 178 181
3 191 190 181
3 182 191 181
3 192 191 182
3 183 192 182
3 193 192 183
3 184 193 183
3 193 184 180
