ply
format ascii 1.0
element vertex 268
property float x
property float y
property float z
property uchar red
property uchar green
property uchar blue
element face 532
property list uchar int vertex_indices
end_header
-2.10312342643737793 3 -1 245 168 254
-2 2.79301309585571289 -1 204 184 254
-2 3 -1.28257656097412109 218 165 254
-2.21021175384521484 3 0 254 169 251
-2 2.59382390975952148 0 237 185 254
-2.06256103515625 3 1 254 167 234
-2 2.86647558212280273 1 254 183 226
-2 3 1.15127813816070557 254 167 245
-2.01488494873046875 4 -1 222 157 252
-2 4 -1.03915822505950928 209 155 252
-2.12040352821350098 4 0 214 157 252
-2 3.55722498893737793 1 254 167 245
-2 4 0.723526716232299805 190 155 253
-2 4.03113365173339844 -1 198 156 252
-2 4.2501072883605957 0 190 155 253
-1.37991952896118164 2 -1 204 184 254
-1 1.7616417407989502 -1 210 252 198
-1 2 -1.45230984687805176 173 202 254
-1.51762771606445312 2 0 237 185 254
-1 1.68135559558868408 0 199 251 230
-1.35989725589752197 2 1 254 183 226
-1 1.76907026767730713 1 197 197 252
-1 2 1.78038239479064941 254 180 247
-1.62954425811767578 3 -2 218 165 254
-1 2.39715266227722168 -2 173 202 254
-1 3 -2.50083136558532715 225 153 254
-1.50670313835144043 3 2 254 163 227
-1 2.1512305736541748 2 254 175 196
-1 3 2.52543544769287109 254 159 235
-1.47200906276702881 4 -2 209 155 252
-1 4 -2.50753974914550781 199 149 251
-1.93233358860015869 4 1 189 153 252
-1.29223155975341797 4 2 193 150 251
-1 4 2.28063726425170898 176 146 251
-1 4.70916318893432617 -2 186 151 252
-1.3408043384552002 5 -1 240 153 209
-1 5 -1.64137411117553711 239 150 224
-1.48678219318389893 5 0 240 151 201
-1.24043774604797363 5 1 237 151 188
-1 4.42393302917480469 2 176 146 251
-1 5 1.37811172008514404 239 146 194
-1 5.47036027908325195 -1 241 148 217
-1 5.66109943389892578 0 242 146 209
-1 5.34210968017578125 1 239 146 194
-1.00998330116271973 8 0 227 157 186
-1 7.98230266571044922 0 149 130 130
-1 8 -0.0506813637912273407 219 155 202
-1 8 0.0981485992670059204 219 156 165
-1 8.03285312652587891 0 219 156 165
-0.355011224746704102 2 -2 173 202 254
0 1.77028059959411621 -2 213 252 194
0 2 -2.13628244400024414 197 160 254
0 1.32096195220947266 -1 220 251 198
0 1.24491548538208008 0 199 251 217
0 1.32078444957733154 1 195 209 251
-0.853193759918212891 2 2 254 175 196
0 1.58689093589782715 2 252 189 237
0 2 2.70964384078979492 254 172 201
-0.0113823842257261276 3 -3 225 153 254
0 2.99503159523010254 -3 197 160 254
0 3 -3.00407671928405762 253 147 232
-0.286351382732391357 3 3 253 153 226
0 2.53897976875305176 3 254 164 168
0 3 3.12536454200744629 253 149 233
-0.253585278987884521 4 -3 199 149 251
0 4 -3.11504745483398438 178 152 248
0 3.55539345741271973 3 253 149 233
0 4 2.86431312561035156 170 143 251
0 4.23437881469726562 -3 193 151 251
-0.680732131004333496 5 -2 239 150 224
0 5 -2.44813966751098633 215 152 231
-0.339919060468673706 5 2 232 146 173
0 5 2.19957399368286133 229 144 168
0 5.60618305206298828 -2 237 149 225
-0.357366591691970825 6 -1 184 142 145
0 6 -1.44704329967498779 174 137 150
-0.581514239311218262 6 0 182 141 141
-0.223011985421180725 6 1 173 137 140
0 5.32858133316040039 2 229 144 168
0 6 1.24180364608764648 165 132 135
0 6.95357561111450195 -1 177 137 139
-0.213603377342224121 7 0 149 130 130
0 7 -0.923296809196472168 141 123 124
0 6.85715818405151367 1 165 132 135
0 7 0.848946690559387207 137 121 121
-0.723426878452301025 8 -1 219 155 202
0 7.02492666244506836 -1 141 123 124
0 8 -1.9838021993637085 153 170 217
-0.863442420959472656 8 1 222 155 156
0 7.04413461685180664 1 137 121 126
-0.286727935075759888 8 2 229 154 155
0 7.73245573043823242 2 142 125 136
0 8 2.28901100158691406 225 153 153
0 8.62466812133789062 -1 213 153 192
0 8.69813728332519531 0 213 154 160
0 8.66370487213134766 1 217 154 154
0 8.39950752258300781 2 225 153 153
0.809563040733337402 1 0 199 251 217
1 0.953758120536804199 0 240 224 211
1 1 -0.781155228614807129 201 251 212
1 1 0.821475744247436523 202 251 245
1 1.50296270847320557 -2 196 252 212
1 2 -2.28426194190979004 231 163 254
1 1.01727116107940674 -1 201 251 212
1 1.01363420486450195 1 207 199 251
1 1.28182291984558105 2 252 192 227
0.681316018104553223 2 3 254 164 168
1 1.90292418003082275 3 253 182 183
1 2 3.08145833015441895 253 168 172
1 2.77989840507507324 -3 231 163 254
1 3 -3.1906135082244873 253 153 234
1 3 3.29349827766418457 253 153 237
1 4 -3.27698040008544922 167 156 246
0.67081141471862793 4 3 192 140 248
1 4 3.04528045654296875 210 144 246
1 4.57141971588134766 -3 194 155 250
1 5 -2.69258284568786621 203 154 224
1 4.10189199447631836 3 210 144 246
1 5 2.41109776496887207 221 146 159
1 5.98592042922973633 -2 232 152 221
1 6 -1.98115015029907227 160 130 142
1 5.72518634796142578 2 221 146 159
1 6 1.70813238620758057 149 123 126
0.0356460884213447571 7 -1 141 123 124
1 7 -1.66673934459686279 140 121 133
0.075114421546459198 7 1 137 121 126
1 7 1.66743600368499756 128 114 118
0.0216667037457227707 8 -2 153 170 217
1 7.3173975944519043 -2 140 121 133
1 8 -2.44465517997741699 223 178 153
1 7.22312355041503906 2 134 120 127
1 8 2.86061739921569824 224 153 159
1 8.55303287506103516 -2 153 209 215
1 8.74408912658691406 -1 211 153 210
1 8.78034877777099609 0 211 153 167
1 8.76341629028320312 1 215 153 157
1 8.66062450408935547 2 224 153 159
1.11473667621612549 1 -1 201 251 212
2 0.894505321979522705 -1 241 245 212
2 1 -1.1928260326385498 190 232 252
2 0.829560399055480957 0 219 244 212
1.09132766723632812 1 1 207 199 251
2 0.893434286117553711 1 210 238 245
2 1 1.50180554389953613 243 197 252
2 1.68670237064361572 -2 190 232 252
2 2 -2.21051406860351562 253 162 231
2 1.16295754909515381 2 252 191 209
2 1.91640615463256836 3 253 181 182
2 2 3.05740857124328613 253 168 174
2 2.77252388000488281 -3 253 162 231
2 3 -3.21804308891296387 252 157 246
2 3 3.18606066703796387 252 154 244
2 4 -3.14780402183532715 160 181 242
1.35186862945556641 4 3 210 144 246
2 3.67902779579162598 3 252 154 244
2 4 2.8779911994934082 212 150 247
2 4.3167567253112793 -3 186 159 247
2 5 -2.52167224884033203 180 153 211
2 5 2.25408101081848145 204 144 150
2 5.8442387580871582 -2 220 153 212
2 6 -1.81565964221954346 140 119 130
2 5.53437566757202148 2 204 144 150
2 6 1.57893621921539307 126 108 110
2 7 -1.69695830345153809 133 118 135
2 7 1.7444533109664917 124 111 112
2 7.26233768463134766 -2 133 118 135
2 8 -2.52812051773071289 153 225 159
2 7.15728330612182617 2 134 118 121
2 8 2.99521994590759277 226 151 215
2 8.59474754333496094 -2 192 217 153
2 8.75874996185302734 -1 152 162 213
2 8.79183483123779297 0 214 152 212
2 8.77757167816162109 1 218 152 193
2 8.69083309173583984 2 226 151 215
2.65352725982666016 1 -1 200 234 252
3 0.859659016132354736 0 206 224 248
3 1 -0.698768317699432373 223 191 252
3 0.942162573337554932 1 232 204 249
3 1 1.21649074554443359 252 191 223
2.76297211647033691 2 -2 223 175 253
3 1.08144533634185791 -1 223 191 252
3 2 -1.90972900390625 253 169 236
3 1.36017715930938721 2 253 185 190
2.17776107788085938 2 3 253 168 174
3 2 2.61480808258056641 253 171 191
3 2.99792957305908203 -3 253 159 197
3 3 -3.0022430419921875 213 160 250
3 2.10062670707702637 -2 253 169 236
2.48601841926574707 3 3 252 154 244
3 3 2.71631264686584473 245 159 251
2.35082101821899414 4 -3 186 159 247
3 3.00873756408691406 -3 238 163 251
3 4 -2.6002194881439209 160 161 240
3 4 2.31688427925109863 227 151 239
2.89496636390686035 5 -2 220 153 212
3 4.90960788726806641 -2 192 159 244
3 5 -1.8914567232131958 193 148 199
2.48920917510986328 5 2 204 144 150
3 4.55626916885375977 2 227 151 239
3 5 1.56246364116668701 193 141 152
2.95608735084533691 6 -1 141 118 120
3 5.96255588531494141 -1 203 147 182
3 6 -0.866630733013153076 115 101 105
2.79242634773254395 6 1 126 108 110
3 5.81050014495849609 1 193 141 152
3 6 0.584970712661743164 109 96 97
3 6.31814146041870117 -1 115 101 105
3 7 -1.08589315414428711 120 131 138
3 6.58082246780395508 1 99 90 90
3 7 1.146767258644104 130 114 115
3 7.70051813125610352 -2 120 131 138
3 8 -2.24382686614990234 158 152 230
3 7.46878671646118164 2 142 123 125
3 8 2.68207430839538574 148 232 196
3 8.40608024597167969 -2 186 224 152
3 8.70523452758789062 -1 219 220 152
3 8.75485992431640625 0 151 221 194
3 8.73620700836181641 1 150 216 225
3 8.60581016540527344 2 148 232 196
3.47622799873352051 1 0 247 193 252
3.18517398834228516 1 1 252 191 223
4 1.75669741630554199 -1 253 175 228
4 2 -1.30754303932189941 253 162 211
4 1.29801106452941895 0 253 181 212
4 1.5199894905090332 1 253 179 193
3.70981907844543457 2 2 253 171 191
4 2 1.60715126991271973 253 168 206
3.00347447395324707 3 -3 238 163 251
3.99453353881835938 3 -2 238 165 252
4 3 -1.99071156978607178 218 161 250
3.77372598648071289 3 2 245 159 251
4 3 1.66739487648010254 222 158 250
3.58074760437011719 4 -2 192 159 244
4 4 -1.24689507484436035 158 158 232
3.34360909461975098 4 2 227 151 239
4 4 1.02206027507781982 209 152 230
3.51488351821899414 5 -1 203 147 182
4 4.23534345626831055 -1 188 156 235
3.66588807106018066 5 0 202 146 166
4 4.47776269912719727 0 203 155 235
3.39456844329833984 5 1 193 141 152
4 4.0266566276550293 1 209 152 230
3.16409969329833984 6 0 109 96 97
3.06982207298278809 7 -1 129 114 128
3.35389542579650879 7 0 126 111 115
3.11324977874755859 7 1 130 114 115
3.38004016876220703 8 -2 186 224 152
4 7.75842905044555664 -1 122 142 129
4 8 -1.36375236511230469 171 150 232
4 7.49958610534667969 0 120 125 140
4 7.62636137008666992 1 130 124 146
3.90079045295715332 8 2 148 232 196
4 8 1.86554932594299316 228 233 146
4 8.38937759399414062 -1 149 229 212
4 8.57630348205566406 0 186 230 148
4 8.52145290374755859 1 228 233 146
4.30504035949707031 2 -1 253 169 222
4.46013164520263672 2 0 253 170 216
4.28186368942260742 2 1 253 168 206
4.38672971725463867 3 -1 221 162 250
4.49282979965209961 3 0 218 161 250
4.31019306182861328 3 1 222 158 250
4.09658384323120117 4 -1 188 156 235
4.19760417938232422 4 0 203 155 235
4.01061487197875977 4 1 209 152 230
4.23019218444824219 8 -1 149 229 212
4.49652194976806641 8 0 186 230 148
4.39946699142456055 8 1 228 233 146
3 2 1 0
3 1 4 3
3 0 1 3
3 4 6 5
3 3 4 5
3 6 7 5
3 9 2 0
3 8 9 0
3 0 3 8
3 3 10 8
3 11 12 10
3 11 10 5
3 5 10 3
3 5 7 11
3 9 8 13
3 8 10 14
3 13 8 14
3 10 12 14
3 17 16 15
3 16 19 18
3 15 16 18
3 19 21 20
3 18 19 20
3 21 22 20
3 25 24 23
3 15 1 2
3 17 15 2
3 17 2 23
3 17 23 24
3 18 1 15
3 4 1 18
3 20 4 18
3 6 4 20
3 6 26 7
3 20 26 6
3 20 27 26
3 20 22 27
3 27 28 26
3 30 25 23
3 29 30 23
3 23 9 29
3 2 9 23
3 11 31 12
3 7 31 11
3 7 26 31
3 26 32 31
3 28 33 32
3 26 28 32
3 30 29 34
3 36 13 35
3 34 13 36
3 34 9 13
3 34 29 9
3 14 35 13
3 37 35 14
3 12 37 14
3 12 31 37
3 31 38 37
3 39 40 38
3 39 38 32
3 32 38 31
3 32 33 39
3 36 35 41
3 35 37 42
3 41 35 42
3 37 38 43
3 42 37 43
3 38 40 43
3 46 45 44
3 45 47 44
3 46 44 48
3 44 47 48
3 51 50 49
3 17 49 50
3 17 50 16
3 16 50 52
3 52 53 16
3 16 53 19
3 53 54 19
3 19 54 21
3 55 22 21
3 55 21 56
3 56 21 54
3 56 57 55
3 60 59 58
3 49 24 25
3 51 49 25
3 51 25 58
3 51 58 59
3 49 17 24
3 55 27 22
3 27 61 28
3 55 61 27
3 55 62 61
3 55 57 62
3 62 63 61
3 65 60 58
3 64 65 58
3 58 30 64
3 25 30 58
3 66 28 61
3 66 67 28
3 67 33 28
3 61 63 66
3 65 64 68
3 70 34 69
3 68 34 70
3 68 30 34
3 68 64 30
3 34 36 69
3 39 71 40
3 71 39 33
3 71 33 72
3 72 33 67
3 70 69 73
3 75 41 74
3 73 41 75
3 73 36 41
3 73 69 36
3 42 74 41
3 76 74 42
3 43 76 42
3 77 76 43
3 77 78 79
3 43 78 77
3 43 71 78
3 43 40 71
3 71 72 78
3 75 74 80
3 82 80 74
3 82 74 81
3 81 74 76
3 83 84 81
3 83 81 77
3 77 81 76
3 77 79 83
3 87 86 85
3 81 45 46
3 82 81 46
3 82 46 85
3 82 85 86
3 45 88 47
3 81 88 45
3 81 89 88
3 81 84 89
3 89 91 90
3 88 89 90
3 91 92 90
3 87 85 93
3 85 46 48
3 85 48 93
3 93 48 94
3 47 88 95
3 47 95 48
3 48 95 94
3 88 90 96
3 95 88 96
3 90 92 96
3 99 98 97
3 98 100 97
3 51 102 101
3 50 51 101
3 101 103 50
3 50 103 52
3 97 103 99
3 97 53 103
3 53 52 103
3 100 53 97
3 100 104 53
3 104 54 53
3 104 105 54
3 54 105 56
3 106 57 56
3 106 56 107
3 107 56 105
3 107 108 106
3 60 110 109
3 59 60 109
3 109 51 59
3 102 51 109
3 106 62 57
3 62 106 108
3 62 108 63
3 63 108 111
3 110 60 112
3 112 60 65
3 66 113 67
3 113 66 63
3 113 63 114
3 114 63 111
3 112 65 68
3 115 112 68
3 68 116 115
3 70 116 68
3 117 67 113
3 117 118 67
3 118 72 67
3 113 114 117
3 116 70 73
3 119 116 73
3 73 120 119
3 75 120 73
3 79 121 122
3 78 121 79
3 121 78 72
3 118 121 72
3 80 123 124
3 80 124 75
3 75 124 120
3 80 82 123
3 83 125 84
3 125 83 79
3 125 79 126
3 126 79 122
3 129 128 127
3 123 86 87
3 124 123 87
3 124 87 127
3 124 127 128
3 123 82 86
3 125 89 84
3 126 89 125
3 126 130 89
3 130 91 89
3 91 130 131
3 92 91 131
3 129 127 132
3 127 87 93
3 127 93 132
3 132 93 133
3 133 93 134
3 93 94 134
3 134 94 135
3 94 95 135
3 135 95 136
3 95 96 136
3 136 96 92
3 131 136 92
3 139 138 137
3 99 137 138
3 99 138 98
3 98 138 140
3 141 100 98
3 141 98 142
3 142 98 140
3 142 143 141
3 102 145 144
3 101 102 144
3 137 144 139
3 137 103 144
3 103 101 144
3 137 99 103
3 141 104 100
3 143 104 141
3 143 146 104
3 146 105 104
3 146 147 105
3 105 147 107
3 107 147 148
3 108 107 148
3 110 150 149
3 109 110 149
3 149 102 109
3 145 102 149
3 148 151 108
3 151 111 108
3 150 110 152
3 152 110 112
3 155 153 154
3 154 153 114
3 154 114 151
3 151 114 111
3 152 112 115
3 156 152 115
3 115 157 156
3 116 157 115
3 153 118 117
3 153 155 118
3 155 158 118
3 153 117 114
3 157 116 119
3 159 157 119
3 119 160 159
3 120 160 119
3 122 161 162
3 121 161 122
3 161 121 118
3 158 161 118
3 160 120 163
3 163 120 124
3 162 164 122
3 164 126 122
3 129 166 165
3 128 129 165
3 165 124 128
3 163 124 165
3 164 130 126
3 167 130 164
3 130 167 168
3 131 130 168
3 166 129 132
3 169 166 132
3 169 132 170
3 132 133 170
3 170 133 171
3 133 134 171
3 171 134 172
3 134 135 172
3 172 135 173
3 135 136 173
3 173 136 131
3 168 173 131
3 138 139 174
3 174 176 175
3 174 175 138
3 138 175 140
3 175 177 140
3 140 177 142
3 142 177 178
3 143 142 178
3 144 145 179
3 179 181 180
3 144 179 180
3 144 180 174
3 144 174 139
3 174 180 176
3 178 146 143
3 182 146 178
3 184 183 147
3 184 147 182
3 182 147 146
3 147 183 148
3 150 186 185
3 149 150 185
3 145 187 179
3 145 149 187
3 149 185 187
3 179 187 181
3 189 183 184
3 188 183 189
3 183 188 151
3 148 183 151
3 190 191 186
3 190 186 152
3 152 186 150
3 191 190 192
3 188 155 154
3 188 189 155
3 189 193 155
3 188 154 151
3 190 152 156
3 156 157 194
3 190 156 194
3 190 194 195
3 190 195 192
3 195 194 196
3 199 197 198
3 198 197 158
3 198 158 193
3 193 158 155
3 194 157 159
3 159 160 200
3 194 159 200
3 194 200 201
3 194 201 196
3 201 200 202
3 205 203 204
3 197 162 161
3 199 162 197
3 199 203 162
3 199 204 203
3 197 161 158
3 206 200 160
3 206 160 207
3 207 160 163
3 200 206 202
3 205 208 203
3 203 208 209
3 203 209 162
3 162 209 164
3 166 211 210
3 165 166 210
3 210 163 165
3 207 163 210
3 209 167 164
3 212 167 209
3 167 212 213
3 168 167 213
3 211 166 169
3 214 211 169
3 214 169 215
3 169 170 215
3 215 170 216
3 170 171 216
3 216 171 217
3 171 172 217
3 217 172 218
3 172 173 218
3 218 173 168
3 213 218 168
3 175 176 219
3 177 175 219
3 220 177 219
3 177 220 178
3 181 222 221
3 180 181 221
3 176 223 219
3 176 180 223
3 180 221 223
3 219 224 220
3 223 224 219
3 226 225 182
3 224 226 182
3 224 182 178
3 224 178 220
3 182 225 184
3 185 186 227
3 187 185 227
3 228 187 227
3 228 181 187
3 228 229 181
3 229 222 181
3 231 225 226
3 230 225 231
3 225 230 189
3 184 225 189
3 227 186 191
3 191 192 232
3 191 232 227
3 227 232 228
3 229 232 233
3 228 232 229
3 235 230 231
3 234 230 235
3 230 234 193
3 189 230 193
3 232 192 195
3 195 196 236
3 232 195 236
3 232 236 237
3 232 237 233
3 237 238 239
3 236 238 237
3 239 240 241
3 238 240 239
3 234 199 198
3 235 199 234
3 235 240 199
3 235 241 240
3 234 198 193
3 236 196 201
3 201 202 242
3 201 242 236
3 236 242 238
3 205 204 240
3 205 240 242
3 242 240 238
3 240 204 199
3 206 207 243
3 202 206 243
3 202 243 242
3 242 243 244
3 208 205 242
3 208 242 245
3 245 242 244
3 208 245 209
3 210 211 246
3 246 248 247
3 210 246 247
3 210 247 243
3 210 243 207
3 243 249 244
3 247 249 243
3 244 250 245
3 249 250 244
3 252 251 212
3 250 252 212
3 250 212 209
3 250 209 245
3 212 251 213
3 246 211 214
3 248 246 214
3 248 214 253
3 253 214 215
3 253 215 254
3 215 216 254
3 254 216 255
3 216 217 255
3 251 252 255
3 251 255 218
3 218 255 217
3 251 218 213
3 221 222 256
3 223 221 256
3 257 223 256
3 224 223 257
3 258 224 257
3 224 258 226
3 259 256 222
3 229 259 222
3 256 259 257
3 257 259 260
3 257 260 258
3 258 260 261
3 258 261 231
3 226 258 231
3 262 259 229
3 233 262 229
3 259 262 260
3 260 262 263
3 260 263 261
3 261 263 264
3 261 264 235
3 231 261 235
3 262 233 237
3 263 262 237
3 239 263 237
3 264 263 239
3 241 264 239
3 264 241 235
3 247 248 265
3 249 247 265
3 266 249 265
3 250 249 266
3 267 250 266
3 250 267 252
3 265 248 253
3 266 265 253
3 254 266 253
3 267 266 254
3 255 267 254
3 267 255 252
