ply
format ascii 1.0
element vertex 340
property float x
property float y
property float z
property uchar red
property uchar green
property uchar blue
element face 672
property list uchar int vertex_indices
end_header
-9.58708381652832031 6 -2 117 40 41
-9 5.66091537475585938 -2 115 41 41
-9 6 -2.98224353790283203 117 42 43
-9.68853473663330078 6 -1 110 38 39
-9 5.46708965301513672 -1 95 33 33
-9.68966579437255859 6 0 99 33 34
-9 5.46432733535766602 0 74 24 24
-9.59305000305175781 6 1 85 27 28
-9 5.65253734588623047 1 54 16 16
-9.03344058990478516 6 2 71 21 24
-9 5.99190855026245117 2 36 10 10
-9 6 2.01874923706054688 37 10 12
-9.44199657440185547 7 -5 60 16 31
-9 6.82948875427246094 -5 109 35 39
-9 7 -5.51326656341552734 58 16 48
-9.72459602355957031 7 -4 73 21 29
-9 6.41891002655029297 -4 118 41 42
-9.81432342529296875 7 -3 85 26 31
-9 6.00582647323608398 -3 117 42 43
-9.85165214538574219 7 -2 91 30 33
-9.8662872314453125 7 -1 90 30 33
-9.86648368835449219 7 0 84 28 31
-9.85237789154052734 7 1 75 24 27
-9.81621551513671875 7 2 64 19 25
-9.73036479949951172 7 3 53 14 24
-9 6.40064477920532227 3 22 5 9
-9.47131824493408203 7 4 43 11 25
-9 6.80756950378417969 4 10 2 6
-9 7 4.58566665649414062 12 3 10
-9.10900020599365234 7 8 16 4 25
-9 6.97375726699829102 8 0 1 1
-9 7 7.91327428817749023 0 0 0
-9 7 8.10900020599365234 0 1 1
-9.82529163360595703 8 -9 40 100 146
-9 7.01082992553710938 -9 33 121 93
-9 8 -9.82529163360595703 84 148 42
-9.77366828918457031 8 -8 30 33 116
-9 7.29775619506835938 -8 21 45 80
-9.76587009429931641 8 -7 49 19 75
-9 7.33004236221313477 -7 43 17 65
-9.80299472808837891 8 -6 41 10 39
-9 7.15561008453369141 -6 58 16 48
-9.84656143188476562 8 -5 28 7 19
-9.87846946716308594 8 -4 32 8 16
-9.89854240417480469 8 -3 43 12 18
-9.90999698638916016 8 -2 53 16 20
-9.91519832611083984 8 -1 58 18 22
-9.91526412963867188 8 0 58 18 22
-9.91021728515625 8 1 54 16 21
-9.89900684356689453 8 2 47 13 20
-9.87939357757568359 8 3 39 10 19
-9.84843349456787109 8 4 31 7 18
-9.80673027038574219 8 5 24 5 18
-9 7.13126325607299805 5 3 1 4
-9.77200126647949219 8 6 18 3 17
-9 7.30244302749633789 6 0 0 0
-9.78000640869140625 8 7 11 2 12
-9 7.26650762557983398 7 0 0 0
-9.82909774780273438 8 8 7 1 7
-9 8 8.82909774780273438 0 1 4
-9 8.82529163360595703 -9 34 124 49
-9 8.77366828918457031 -8 21 82 79
-9 8.76587009429931641 -7 11 17 45
-9 8.80299472808837891 -6 20 7 29
-9 8.84656143188476562 -5 32 9 27
-9 8.87846946716308594 -4 46 14 27
-9 8.89854240417480469 -3 58 19 28
-9 8.90999698638916016 -2 64 22 28
-9 8.91519832611083984 -1 62 22 27
-9 8.91526412963867188 0 55 19 24
-9 8.91021728515625 1 44 14 20
-9 8.89900684356689453 2 32 10 17
-9 8.87939357757568359 3 21 5 14
-9 8.84843349456787109 4 11 2 10
-9 8.80673027038574219 5 3 0 4
-9 8.77200126647949219 6 0 0 0
-9 8.78000640869140625 7 0 0 3
-9 8.82909774780273438 8 0 1 4
-8.74950027465820312 6 -2 107 39 39
-8.60633087158203125 6 -1 92 32 33
-8.6042633056640625 6 0 73 24 25
-8.74326229095458984 6 1 54 17 18
-8.99401950836181641 6 2 37 10 12
-8.86217021942138672 7 -5 73 22 38
-8.53033638000488281 7 -4 88 28 36
-8.1965789794921875 7 -3 94 33 37
-8 6.91489744186401367 -2 86 32 32
-8 7 -2.2694094181060791 92 35 37
-8 6.73998689651489258 -1 63 22 22
-8 6.73742246627807617 0 40 13 13
-8 6.90715217590332031 1 18 6 6
-8.18557262420654297 7 2 37 11 16
-8 7 1.29909014701843262 21 7 8
-8.51567649841308594 7 3 23 6 13
-8.8445281982421875 7 4 12 3 10
-8.97889137268066406 7 8 0 1 1
-8.13353443145751953 8 -9 34 124 49
-8.38443374633789062 8 -8 21 82 79
-8.41247177124023438 8 -7 11 17 45
-8.25892925262451172 8 -6 20 7 29
-8 7.9735102653503418 -5 86 28 42
-8 8 -5.08648300170898438 14 8 28
-8 7.59862136840820312 -4 95 34 39
-8 7.22183513641357422 -3 92 35 37
-8 7.20948266983032227 2 3 1 1
-8 7.58241748809814453 3 11 3 7
-8 7.95450019836425781 4 21 5 23
-8.23876953125 8 5 3 0 4
-8 8 4.1498875617980957 12 4 18
-8.38944721221923828 8 6 0 0 0
-8.35900211334228516 8 7 0 0 3
-8.10537052154541016 8 8 0 1 4
-8 8.11880779266357422 -5 44 13 41
-8 8.66577625274658203 -4 59 20 37
-8 8.79010200500488281 -3 66 24 34
-8 8.83695220947265625 -2 63 24 30
-8 8.85461807250976562 -1 53 20 25
-8 8.85484790802001953 0 38 14 18
-8 8.83781719207763672 1 22 7 11
-8 8.79247665405273438 2 6 1 4
-8 8.67403602600097656 3 7 2 6
-8 8.18754863739013672 4 12 4 18
-7.92060470581054688 7 -2 80 30 32
-7.75740671157836914 7 -1 62 23 24
-7.75499629974365234 7 0 42 14 15
-7.91336154937744141 7 1 21 7 8
-7.97315168380737305 8 -5 44 13 41
-7.59312868118286133 8 -4 59 20 37
-7.21110439300537109 8 -3 66 24 34
-7 7.90878868103027344 -2 59 22 23
-7 8 -2.31374192237854004 63 25 33
-7 7.7476649284362793 -1 34 12 13
-7 7.74529075622558594 0 10 3 3
-7 7.90167808532714844 1 11 3 4
-7.19869470596313477 8 2 6 1 4
-7 8 1.34392905235290527 6 2 3
-7.57685422897338867 8 3 7 2 6
-7.95391702651977539 8 4 12 4 18
-7 8.31530666351318359 -2 52 20 25
-7 8.55764484405517578 -1 34 13 16
-7 8.55995750427246094 0 13 5 6
-7 8.33172702789306641 1 6 2 3
-6.89091253280639648 8 -2 52 20 25
-6.69815397262573242 8 -1 34 13 16
-6.69529533386230469 8 0 13 5 6
-6.88238954544067383 8 1 6 2 3
5.69262170791625977 8 -3 31 41 32
6 7.71953105926513672 -3 1 1 1
6 8 -3.7601313591003418 6 5 6
5.36874246597290039 8 -2 41 43 32
6 7.42413711547851562 -2 1 0 0
5.18751001358032227 8 -1 38 34 27
6 7.25891351699829102 -1 5 5 4
5.1860051155090332 8 0 31 29 21
6 7.2575831413269043 0 12 11 9
5.36396121978759766 8 1 18 24 15
6 7.41987514495849609 1 19 15 13
5.68375682830810547 8 2 11 19 19
6 7.71152448654174805 2 16 23 15
6 8 2.79312252998352051 14 12 18
6 8.58334159851074219 -3 16 17 20
6 8.73823738098144531 -2 25 31 30
6 8.78218555450439453 -1 25 32 29
6 8.78252887725830078 0 21 28 26
6 8.73979473114013672 1 16 21 23
6 8.59045886993408203 2 14 12 18
6.67922687530517578 7 -3 1 1 1
7 6.629241943359375 -3 37 33 31
7 7 -3.92523360252380371 35 36 43
6.40046596527099609 7 -2 1 0 0
7 6.30704641342163086 -2 35 37 31
6.24449634552001953 7 -1 5 5 4
7 6.12680244445800781 -1 38 44 35
6.24325275421142578 7 0 12 11 9
7 6.12543296813964844 0 45 51 39
6.39650106430053711 7 1 19 15 13
7 6.30262422561645508 1 57 50 42
6.67182254791259766 7 2 16 23 15
7 6.62082624435424805 2 59 61 43
7 7 2.96011137962341309 17 18 24
6.62325382232666016 8 -9 110 95 154
7 7.59885883331298828 -9 151 119 178
7 8 -9.66627788543701172 103 146 125
6.88370609283447266 8 -8 155 95 130
7 7.87621688842773438 -8 178 118 137
6.91251134872436523 8 -7 136 85 88
7 7.90688848495483398 -7 160 110 110
6.75233602523803711 8 -6 97 64 67
7 7.73644495010375977 -6 126 91 103
6.45598602294921875 8 -5 49 34 42
7 7.42115497589111328 -5 80 63 82
6.0870366096496582 8 -4 6 5 6
7 7.02872800827026367 -4 35 36 43
6.07399129867553711 8 3 14 8 12
7 7.01510238647460938 3 28 18 27
6.43706846237182617 8 4 11 6 7
7 7.40109348297119141 4 30 18 20
6.72742652893066406 8 5 10 5 5
7 7.70985126495361328 5 31 18 18
6.88275861740112305 8 6 10 5 7
7 7.87508773803710938 6 31 16 23
6.85112762451171875 8 7 11 5 11
7 7.8411707878112793 7 29 15 30
6.58948802947998047 8 8 12 5 13
7 7.56117868423461914 8 21 13 28
7 8 8.68394374847412109 6 3 7
7 8.66627788543701172 -9 103 129 154
7 8.38520717620849609 -8 150 106 163
7 8.32041454315185547 -7 156 104 120
7 8.56864738464355469 -6 132 91 91
7 8.73921775817871094 -5 94 68 73
7 8.82251358032226562 -4 50 39 46
7 8.86385345458984375 -3 13 11 14
7 8.88455486297607422 -2 7 7 8
7 8.89335155487060547 -1 16 16 19
7 8.89344596862792969 0 17 18 21
7 8.88490009307861328 1 17 15 20
7 8.86471652984619141 2 16 12 16
7 8.82476234436035156 3 13 9 10
7 8.74598312377929688 4 11 7 7
7 8.59211540222167969 5 10 5 6
7 8.38697910308837891 6 9 5 7
7 8.44434642791748047 7 8 4 8
7 8.68394374847412109 8 6 3 7
7.93148946762084961 5 -2 56 59 69
8 4.89066219329833984 -2 85 90 97
8 5 -2.28704214096069336 74 71 67
7.79992866516113281 5 -1 62 61 77
8 4.68066072463989258 -1 88 90 103
7.79898309707641602 5 0 64 66 83
8 4.6791844367980957 0 90 95 110
7.92845869064331055 5 1 64 81 87
8 4.88586091995239258 1 90 112 114
8 5 1.30321037769317627 88 84 70
7.79285621643066406 6 -4 47 48 41
8 5.70035839080810547 -4 88 85 78
8 6 -4.66705036163330078 106 98 120
7.48496580123901367 6 -3 37 33 31
8 5.25477027893066406 -3 74 71 67
7.23673725128173828 6 -2 35 37 31
7.09778881072998047 6 -1 38 44 35
7.09673786163330078 6 0 45 51 39
7.23336458206176758 6 1 57 50 42
7.47860193252563477 6 2 59 61 43
8 5.24588346481323242 2 93 90 70
7.78241539001464844 6 3 42 58 64
8 5.68542575836181641 3 67 92 96
8 6 3.71368002891540527 62 46 64
7.49843120574951172 7 -9 151 119 178
8 6.33627128601074219 -9 181 141 195
8 7 -9.74995803833007812 130 172 150
7.7294306755065918 7 -8 178 118 137
8 6.64216136932373047 -8 196 141 150
7.75507593154907227 7 -7 160 110 110
8 6.6761317253112793 -7 184 135 138
7.61331605911254883 7 -6 126 91 103
8 6.48865652084350586 -6 157 120 144
7.35087156295776367 7 -5 80 63 82
8 6.14148712158203125 -5 106 98 120
7.02394437789916992 7 -4 35 36 43
7.0125880241394043 7 3 28 18 27
7.33408689498901367 7 4 30 18 20
8 6.11944389343261719 4 66 44 48
7.59073352813720703 7 5 31 18 18
8 6.45868015289306641 5 68 42 43
7.7274174690246582 7 6 31 16 23
8 6.63921833038330078 6 68 39 54
7.69823837280273438 7 7 29 15 30
8 6.60008335113525391 7 61 36 66
7.46502161026000977 7 8 21 13 28
8 6.28957080841064453 8 44 33 65
8 7 8.76097774505615234 26 17 33
8 8 -9.88340950012207031 119 158 131
8 8 8.88515567779541016 10 5 10
8 8.88340950012207031 -9 113 155 155
8 8.86331367492675781 -8 126 116 165
8 8.86044502258300781 -7 168 119 152
8 8.87398052215576172 -6 159 114 118
8 8.89269924163818359 -5 135 101 102
8 8.90877723693847656 -4 100 78 86
8 8.92013835906982422 -3 62 51 60
8 8.92711639404296875 -2 29 26 30
8 8.93041515350341797 -1 8 8 9
8 8.93045997619628906 0 2 1 2
8 8.92726993560791016 1 7 6 7
8 8.92046260833740234 2 8 6 7
8 8.90940761566162109 3 7 5 5
8 8.89387321472167969 4 5 4 4
8 8.87597560882568359 5 3 2 2
8 8.86318683624267578 6 1 0 1
8 8.86597156524658203 7 2 1 2
8 8.88515567779541016 8 10 5 10
8.29617404937744141 5 -2 67 72 64
8.54882431030273438 5 -1 67 76 66
8.55002880096435547 5 0 73 83 69
8.30537796020507812 5 1 88 84 70
8.55748558044433594 6 -4 73 81 84
8.75353240966796875 6 -3 53 59 54
8.81626224517822266 6 -2 47 48 44
8.83855438232421875 6 -1 47 47 42
8.83873844146728516 6 0 49 51 43
8.81701564788818359 6 1 45 56 46
8.75601005554199219 6 2 46 54 61
8.56997871398925781 6 3 62 46 64
8.74995803833007812 7 -9 129 148 178
8.62195301055908203 7 -8 184 131 184
8.59832382202148438 7 -7 180 129 137
8.69901943206787109 7 -6 160 119 120
8.79233932495117188 7 -5 127 99 111
8.84819602966308594 7 -4 88 73 88
8.87910175323486328 7 -3 49 48 55
8.89547824859619141 7 -2 29 30 32
8.9026336669921875 7 -1 19 21 22
8.90271282196044922 7 0 17 18 19
8.89576435089111328 7 1 17 17 21
8.879791259765625 7 2 23 19 24
8.84987258911132812 7 3 27 20 22
8.79675769805908203 7 4 29 20 20
8.71102714538574219 7 5 31 19 21
8.62366294860839844 7 6 31 18 27
8.64668560028076172 7 7 30 17 32
8.76097774505615234 7 8 26 17 33
8.88340950012207031 8 -9 113 155 155
8.86331367492675781 8 -8 126 116 165
8.86044502258300781 8 -7 168 119 152
8.87398052215576172 8 -6 159 114 118
8.89269924163818359 8 -5 135 101 102
8.90877723693847656 8 -4 100 78 86
8.92013835906982422 8 -3 62 51 60
8.92711639404296875 8 -2 29 26 30
8.93041515350341797 8 -1 8 8 9
8.93045997619628906 8 0 2 1 2
8.92726993560791016 8 1 7 6 7
8.92046260833740234 8 2 8 6 7
8.90940761566162109 8 3 7 5 5
8.89387321472167969 8 4 5 4 4
8.87597560882568359 8 5 3 2 2
8.86318683624267578 8 6 1 0 1
8.86597156524658203 8 7 2 1 2
8.88515567779541016 8 8 10 5 10
3 2 1 0
3 1 4 3
3 0 1 3
3 4 6 5
3 3 4 5
3 6 8 7
3 5 6 7
3 8 10 9
3 7 8 9
3 10 11 9
3 14 13 12
3 13 16 15
3 12 13 15
3 16 18 17
3 15 16 17
3 18 2 0
3 18 0 17
3 17 0 19
3 0 3 19
3 3 20 19
3 3 5 20
3 5 21 20
3 5 7 21
3 7 22 21
3 7 9 22
3 9 23 22
3 11 25 24
3 11 24 9
3 9 24 23
3 25 27 26
3 24 25 26
3 27 28 26
3 31 30 29
3 30 32 29
3 35 34 33
3 34 37 36
3 33 34 36
3 37 39 38
3 36 37 38
3 39 41 40
3 38 39 40
3 41 14 12
3 41 12 40
3 40 12 42
3 12 15 42
3 15 43 42
3 15 17 43
3 17 44 43
3 17 19 44
3 19 45 44
3 19 20 45
3 20 46 45
3 20 21 46
3 21 47 46
3 21 22 47
3 22 48 47
3 22 23 48
3 23 49 48
3 23 24 49
3 24 50 49
3 24 26 50
3 26 51 50
3 28 53 52
3 28 52 26
3 26 52 51
3 53 55 54
3 52 53 54
3 55 57 56
3 54 55 56
3 57 31 29
3 57 29 56
3 56 29 58
3 32 59 58
3 29 32 58
3 35 33 60
3 33 36 61
3 60 33 61
3 36 38 62
3 61 36 62
3 38 40 63
3 62 38 63
3 40 42 64
3 63 40 64
3 42 43 65
3 64 42 65
3 43 44 66
3 65 43 66
3 44 45 67
3 66 44 67
3 45 46 68
3 67 45 68
3 46 47 69
3 68 46 69
3 47 48 70
3 69 47 70
3 48 49 71
3 70 48 71
3 49 50 72
3 71 49 72
3 50 51 73
3 72 50 73
3 51 52 74
3 73 51 74
3 52 54 75
3 74 52 75
3 54 56 76
3 75 54 76
3 56 58 77
3 76 56 77
3 58 59 77
3 1 2 78
3 4 1 78
3 79 4 78
3 6 4 79
3 80 6 79
3 8 6 80
3 81 8 80
3 10 8 81
3 82 10 81
3 10 82 11
3 13 14 83
3 16 13 83
3 84 16 83
3 18 16 84
3 85 18 84
3 85 87 86
3 18 85 86
3 18 86 78
3 18 78 2
3 78 88 79
3 86 88 78
3 79 89 80
3 88 89 79
3 80 90 81
3 89 90 80
3 92 81 90
3 92 91 81
3 91 82 81
3 25 11 82
3 25 82 93
3 93 82 91
3 27 25 93
3 94 27 93
3 27 94 28
3 30 31 95
3 30 95 32
3 34 35 96
3 37 34 96
3 97 37 96
3 39 37 97
3 98 39 97
3 41 39 98
3 99 41 98
3 99 101 100
3 41 99 100
3 41 100 83
3 41 83 14
3 83 102 84
3 100 102 83
3 84 103 85
3 102 103 84
3 85 103 87
3 92 104 91
3 91 105 93
3 104 105 91
3 93 106 94
3 105 106 93
3 108 107 53
3 106 108 53
3 106 53 28
3 106 28 94
3 55 53 107
3 109 55 107
3 57 55 109
3 110 57 109
3 31 57 110
3 31 110 95
3 95 110 111
3 95 111 59
3 32 95 59
3 96 35 60
3 97 96 60
3 61 97 60
3 98 97 61
3 62 98 61
3 99 98 62
3 63 99 62
3 101 99 63
3 101 63 112
3 112 63 64
3 112 64 113
3 64 65 113
3 113 65 114
3 65 66 114
3 114 66 115
3 66 67 115
3 115 67 116
3 67 68 116
3 116 68 117
3 68 69 117
3 117 69 118
3 69 70 118
3 118 70 119
3 70 71 119
3 119 71 120
3 71 72 120
3 120 72 121
3 72 73 121
3 107 108 121
3 107 121 74
3 74 121 73
3 109 107 74
3 75 109 74
3 110 109 75
3 76 110 75
3 111 110 76
3 77 111 76
3 111 77 59
3 86 87 122
3 88 86 122
3 123 88 122
3 89 88 123
3 124 89 123
3 90 89 124
3 125 90 124
3 90 125 92
3 100 101 126
3 102 100 126
3 127 102 126
3 103 102 127
3 128 103 127
3 128 130 129
3 103 128 129
3 103 129 122
3 103 122 87
3 122 131 123
3 129 131 122
3 123 132 124
3 131 132 123
3 124 133 125
3 132 133 124
3 135 134 104
3 133 135 104
3 133 104 92
3 133 92 125
3 105 104 134
3 136 105 134
3 106 105 136
3 137 106 136
3 106 137 108
3 126 101 112
3 127 126 112
3 113 127 112
3 128 127 113
3 114 128 113
3 130 128 114
3 130 114 138
3 138 114 115
3 138 115 139
3 115 116 139
3 139 116 140
3 116 117 140
3 140 117 141
3 117 118 141
3 134 135 141
3 134 141 119
3 119 141 118
3 136 134 119
3 120 136 119
3 137 136 120
3 121 137 120
3 137 121 108
3 129 130 142
3 131 129 142
3 143 131 142
3 132 131 143
3 144 132 143
3 133 132 144
3 145 133 144
3 133 145 135
3 142 130 138
3 143 142 138
3 139 143 138
3 144 143 139
3 140 144 139
3 145 144 140
3 141 145 140
3 145 141 135
3 148 147 146
3 147 150 149
3 146 147 149
3 150 152 151
3 149 150 151
3 152 154 153
3 151 152 153
3 154 156 155
3 153 154 155
3 156 158 157
3 155 156 157
3 158 159 157
3 148 146 160
3 146 149 161
3 160 146 161
3 149 151 162
3 161 149 162
3 151 153 163
3 162 151 163
3 153 155 164
3 163 153 164
3 155 157 165
3 164 155 165
3 157 159 165
3 168 167 166
3 167 170 169
3 166 167 169
3 170 172 171
3 169 170 171
3 172 174 173
3 171 172 173
3 174 176 175
3 173 174 175
3 176 178 177
3 175 176 177
3 178 179 177
3 182 181 180
3 181 184 183
3 180 181 183
3 184 186 185
3 183 184 185
3 186 188 187
3 185 186 187
3 188 190 189
3 187 188 189
3 190 192 191
3 189 190 191
3 166 147 148
3 168 166 148
3 168 148 191
3 168 191 192
3 169 147 166
3 150 147 169
3 171 150 169
3 152 150 171
3 173 152 171
3 154 152 173
3 175 154 173
3 156 154 175
3 177 156 175
3 158 156 177
3 158 193 159
3 177 193 158
3 177 194 193
3 177 179 194
3 194 196 195
3 193 194 195
3 196 198 197
3 195 196 197
3 198 200 199
3 197 198 199
3 200 202 201
3 199 200 201
3 202 204 203
3 201 202 203
3 204 205 203
3 182 180 206
3 180 183 207
3 206 180 207
3 183 185 208
3 207 183 208
3 185 187 209
3 208 185 209
3 187 189 210
3 209 187 210
3 189 191 211
3 210 189 211
3 191 148 160
3 191 160 211
3 211 160 212
3 212 160 213
3 160 161 213
3 213 161 214
3 161 162 214
3 214 162 215
3 162 163 215
3 215 163 216
3 163 164 216
3 216 164 217
3 164 165 217
3 159 193 218
3 159 218 165
3 165 218 217
3 193 195 219
3 218 193 219
3 195 197 220
3 219 195 220
3 197 199 221
3 220 197 221
3 199 201 222
3 221 199 222
3 201 203 223
3 222 201 223
3 203 205 223
3 226 225 224
3 225 228 227
3 224 225 227
3 228 230 229
3 227 228 229
3 230 232 231
3 229 230 231
3 232 233 231
3 236 235 234
3 235 238 237
3 234 235 237
3 238 226 224
3 238 224 237
3 237 224 239
3 224 227 239
3 227 240 239
3 227 229 240
3 229 241 240
3 229 231 241
3 231 242 241
3 233 244 243
3 233 243 231
3 231 243 242
3 244 246 245
3 243 244 245
3 246 247 245
3 250 249 248
3 249 252 251
3 248 249 251
3 252 254 253
3 251 252 253
3 254 256 255
3 253 254 255
3 256 258 257
3 255 256 257
3 258 236 234
3 258 234 257
3 257 234 259
3 168 237 167
3 168 259 237
3 259 234 237
3 239 167 237
3 170 167 239
3 240 170 239
3 172 170 240
3 241 172 240
3 174 172 241
3 242 174 241
3 176 174 242
3 243 176 242
3 178 176 243
3 178 260 179
3 178 243 260
3 243 245 260
3 247 262 261
3 247 261 245
3 245 261 260
3 262 264 263
3 261 262 263
3 264 266 265
3 263 264 265
3 266 268 267
3 265 266 267
3 268 270 269
3 267 268 269
3 270 271 269
3 248 181 182
3 248 182 250
3 250 182 272
3 251 181 248
3 184 181 251
3 253 184 251
3 186 184 253
3 255 186 253
3 188 186 255
3 257 188 255
3 190 188 257
3 259 190 257
3 192 190 259
3 259 168 192
3 260 194 179
3 261 194 260
3 196 194 261
3 263 196 261
3 198 196 263
3 265 198 263
3 200 198 265
3 267 200 265
3 202 200 267
3 269 202 267
3 204 202 269
3 204 269 271
3 204 271 205
3 205 271 273
3 272 182 206
3 274 272 206
3 274 206 275
3 206 207 275
3 275 207 276
3 207 208 276
3 276 208 277
3 208 209 277
3 277 209 278
3 209 210 278
3 278 210 279
3 210 211 279
3 279 211 280
3 211 212 280
3 280 212 281
3 212 213 281
3 281 213 282
3 213 214 282
3 282 214 283
3 214 215 283
3 283 215 284
3 215 216 284
3 284 216 285
3 216 217 285
3 285 217 286
3 217 218 286
3 286 218 287
3 218 219 287
3 287 219 288
3 219 220 288
3 288 220 289
3 220 221 289
3 289 221 290
3 221 222 290
3 290 222 291
3 222 223 291
3 291 223 205
3 273 291 205
3 225 226 292
3 228 225 292
3 293 228 292
3 230 228 293
3 294 230 293
3 232 230 294
3 295 232 294
3 232 295 233
3 235 236 296
3 238 235 296
3 297 238 296
3 226 238 297
3 226 297 292
3 292 297 298
3 292 298 293
3 293 298 299
3 293 299 294
3 294 299 300
3 294 300 295
3 295 300 301
3 244 233 295
3 244 295 302
3 302 295 301
3 246 244 302
3 303 246 302
3 246 303 247
3 249 250 304
3 252 249 304
3 305 252 304
3 254 252 305
3 306 254 305
3 256 254 306
3 307 256 306
3 258 256 307
3 308 258 307
3 236 258 308
3 236 308 296
3 296 308 309
3 296 309 297
3 297 309 310
3 297 310 298
3 298 310 311
3 298 311 299
3 299 311 312
3 299 312 300
3 300 312 313
3 300 313 301
3 301 313 314
3 301 314 302
3 302 314 315
3 302 315 303
3 303 315 316
3 262 247 303
3 262 303 317
3 317 303 316
3 264 262 317
3 318 264 317
3 266 264 318
3 319 266 318
3 268 266 319
3 320 268 319
3 270 268 320
3 321 270 320
3 270 321 271
3 322 304 250
3 272 322 250
3 304 322 305
3 305 322 323
3 305 323 306
3 306 323 324
3 306 324 307
3 307 324 325
3 307 325 308
3 308 325 326
3 308 326 309
3 309 326 327
3 309 327 310
3 310 327 328
3 310 328 311
3 311 328 329
3 311 329 312
3 312 329 330
3 312 330 313
3 313 330 331
3 313 331 314
3 314 331 332
3 314 332 315
3 315 332 333
3 315 333 316
3 316 333 334
3 316 334 317
3 317 334 335
3 317 335 318
3 318 335 336
3 318 336 319
3 319 336 337
3 319 337 320
3 320 337 338
3 320 338 321
3 321 338 339
3 321 339 273
3 271 321 273
3 322 272 274
3 323 322 274
3 275 323 274
3 324 323 275
3 276 324 275
3 325 324 276
3 277 325 276
3 326 325 277
3 278 326 277
3 327 326 278
3 279 327 278
3 328 327 279
3 280 328 279
3 329 328 280
3 281 329 280
3 330 329 281
3 282 330 281
3 331 330 282
3 283 331 282
3 332 331 283
3 284 332 283
3 333 332 284
3 285 333 284
3 334 333 285
3 286 334 285
3 335 334 286
3 287 335 286
3 336 335 287
3 288 336 287
3 337 336 288
3 289 337 288
3 338 337 289
3 290 338 289
3 339 338 290
3 291 339 290
3 339 291 273
