ply
format ascii 1.0
element vertex 182
property float x
property float y
property float z
property uchar red
property uchar green
property uchar blue
element face 356
property list uchar int vertex_indices
end_header
-7.04909563064575195 7 -1 241 254 252
-7 6.90135860443115234 -1 0 1 1
-7 7 -1.40871286392211914 181 186 186
-7.02248048782348633 7 0 251 255 254
-7 6.95517969131469727 0 4 4 5
-7 7 0.125715151429176331 162 173 174
-7 7.06261968612670898 -1 165 170 170
-7 7.02858161926269531 0 162 173 174
-6.07060909271240234 7 -4 208 249 241
-6 6.87282371520996094 -4 4 4 4
-6 7 -4.09862518310546875 193 238 229
-6.40871238708496094 7 -3 196 217 215
-6 6.81278038024902344 -3 74 83 85
-6.7285308837890625 7 -2 181 186 186
-6 6.88590145111083984 -2 113 135 142
-6 6.96608161926269531 -1 124 155 168
-6 6.98233890533447266 0 115 148 164
-6.42812538146972656 7 1 181 197 198
-6 6.92808151245117188 1 89 116 130
-6.2223052978515625 7 2 215 236 237
-6 6.89180231094360352 2 45 58 65
-6 7 2.54020595550537109 101 120 125
-6 7.08036422729492188 -4 156 173 172
-6 7.42288398742675781 -3 105 105 105
-6 7.76642465591430664 -2 48 52 53
-6.09883356094360352 8 -1 248 253 253
-6 8 -1.58115625381469727 210 214 214
-6.0666656494140625 8 0 250 255 254
-6 7.44998598098754883 1 52 61 65
-6 8 0.276139795780181885 192 204 206
-6 7.2295527458190918 2 101 120 125
-6 8.87927722930908203 -1 196 201 202
-6 8.83086967468261719 0 192 204 206
-5.19703912734985352 7 -5 193 238 229
-5 6.83281850814819336 -5 15 15 15
-5 7 -5.18652057647705078 191 249 236
-5 6.89158487319946289 -4 118 131 135
-5.58179855346679688 7 -3 105 105 105
-5 7 -3.67460107803344727 60 60 60
-5.83325958251953125 7 -2 48 52 53
-5.95647192001342773 7 -1 23 26 27
-5.97746801376342773 7 0 25 29 31
-5.89739847183227539 7 1 52 61 65
-5.77284145355224609 7 2 101 120 125
-5 7.17717981338500977 -5 142 162 161
-5 7.71756172180175781 -4 60 60 60
-5.47529697418212891 8 -3 217 237 236
-5 7.52949333190917969 -3 24 26 26
-5 8 -3.82395243644714355 198 221 221
-5.88523292541503906 8 -2 210 214 214
-5 7.68009185791015625 -2 69 79 85
-5 7.72442913055419922 -1 84 101 112
-5 7.73339653015136719 0 77 95 108
-5.73807573318481445 8 1 206 224 227
-5 7.71746587753295898 1 51 63 73
-5.30602216720581055 8 2 227 251 255
-5 7.69685554504394531 2 4 5 6
-5 8 2.45388317108154297 159 183 190
-5 8.96776294708251953 -3 166 170 170
-5 8.97589683532714844 -2 121 126 128
-5 8.97639083862304688 -1 94 103 106
-5 8.97566318511962891 0 94 105 110
-5 8.97318172454833984 1 117 134 140
-5 8.953125 2 159 183 190
-4 6.91135787963867188 -5 114 122 124
-4 7 -5.89691877365112305 159 195 191
-4.79253673553466797 7 -4 60 60 60
-4 7 -4.82577323913574219 68 71 71
-4 7.56467151641845703 -5 68 71 71
-4.84558677673339844 8 -4 198 221 221
-4 7.63928985595703125 -4 42 45 46
-4 8 -4.77622842788696289 197 233 231
-4 7.75387668609619141 -3 109 126 135
-4 7.83039236068725586 -2 138 169 190
-4 7.91459894180297852 -1 144 184 214
-4 7.92807865142822266 0 134 175 210
-4 7.86088943481445312 1 111 146 178
-4 7.79575204849243164 2 72 94 115
-4.47879552841186523 8 3 210 242 250
-4 7.77749919891357422 3 12 15 18
-4 8 3.40134620666503906 147 176 188
-4 8.97231769561767578 -4 151 158 159
-4 8.97594928741455078 -3 82 85 86
-4 8.96633720397949219 -2 27 30 32
-4 8.93081378936767578 -1 4 5 5
-4 8.91797351837158203 0 7 8 9
-4 8.95822715759277344 1 33 39 44
-4 8.97078418731689453 2 81 97 106
-4 8.95740127563476562 3 147 176 188
-3.90918445587158203 7 -6 159 195 191
-3 6.88097572326660156 -6 50 51 51
-3 7 -6.23128557205200195 184 255 238
-3.75711441040039062 7 -5 68 71 71
-3 7 -5.73040008544921875 119 139 138
-3 7.25419712066650391 -6 119 139 138
-3.70726323127746582 8 -5 197 233 231
-3 7.62596321105957031 -5 4 4 4
-3 8 -5.35557222366333008 199 255 248
-3 7.76495456695556641 -4 105 118 124
-3 7.91980123519897461 -3 155 187 207
-3.55324697494506836 8 -2 27 30 32
-3 8 -2.7387087345123291 11 12 12
-3.8295743465423584 8 -1 4 5 5
-3.85844302177429199 8 0 7 8 9
-3.65389108657836914 8 1 33 39 44
-3 7.99461603164672852 2 108 147 187
-3 8 1.98212945461273193 23 28 33
-3 7.83001136779785156 3 58 76 96
-3.12257671356201172 8 4 207 244 255
-3 7.931396484375 4 21 27 32
-3 8 4.06153011322021484 178 214 229
-3 8.96072959899902344 -5 170 192 193
-3 8.97477817535400391 -4 97 97 97
-3 8.92633152008056641 -3 11 12 12
-3 8.44089508056640625 2 23 28 33
-3 8.96444416046142578 3 93 113 126
-3 8.82404422760009766 4 178 214 229
-2 6.97064542770385742 -6 95 96 97
-2 7 -6.14031076431274414 180 242 231
-2 7 -5.95770931243896484 88 98 98
-2 7.17038345336914062 -6 88 98 98
-2 7.73441791534423828 -5 48 50 51
-2 8 -5.62712812423706055 202 255 251
-2 7.85890769958496094 -4 136 156 167
-2.75664758682250977 8 -3 11 12 12
-2 8 -3.62655878067016602 52 54 54
-2.98504161834716797 8 2 23 28 33
-2 7.94734907150268555 3 80 107 139
-2 8 2.8660581111907959 9 11 13
-2 7.86671161651611328 4 9 12 15
-2 8 4.25698137283325195 148 181 198
-2 8.97148704528808594 -5 148 160 162
-2 8.95885181427001953 -4 52 54 54
-2 8.88927268981933594 3 58 71 83
-2 8.94412040710449219 4 148 181 198
-1.75178253650665283 7 -6 88 98 98
-1 7.78024864196777344 -5 62 65 66
-1 8 -5.75133705139160156 204 255 252
-1 7.97490453720092773 -4 144 168 180
-1 8 -3.95050787925720215 37 39 39
-1.63164389133453369 8 3 58 71 83
-1 7.89282083511352539 4 18 24 30
-1 8 3.47388839721679688 46 57 68
-1 8 4.27905035018920898 138 169 188
-1 8.97046947479248047 -5 140 150 151
-1 8.78911304473876953 -4 37 39 39
-1 8.93861007690429688 4 138 169 188
0 7.80752992630004883 -5 48 50 51
0 8 -5.62341594696044922 202 255 252
-0.359735101461410522 8 -4 37 39 39
0 8 -4.06859350204467773 153 165 167
0 7.93017387390136719 4 9 12 15
0 8 3.67227888107299805 58 70 83
0 8 4.17500686645507812 151 183 203
0 8.966156005859375 -5 153 165 167
0 8.90683460235595703 4 151 183 203
1 7.84049510955810547 -5 4 4 5
1 8 -5.33880949020385742 196 255 250
0.219122216105461121 8 -4 52 54 55
1 7.95072317123413086 -4 101 114 121
1 8 -3.88411045074462891 99 100 101
0.965791046619415283 8 4 151 183 203
1 8.95297336578369141 -5 185 205 208
1 8.88224506378173828 -4 99 100 101
1.84779870510101318 8 -5 185 205 208
2 7.89199209213256836 -4 42 45 47
2 8 -4.81915855407714844 215 253 255
2 8 -3.50493788719177246 167 173 174
1.97951793670654297 8 3 94 112 129
2 7.99855184555053711 3 12 15 18
2 8 2.99323153495788574 82 97 110
2 8 3.00753355026245117 157 185 203
2 8.94278907775878906 -4 167 173 174
2 8.16905403137207031 3 157 185 203
2.9419705867767334 8 -4 167 173 174
2.6587224006652832 8 -3 84 88 90
3 7.94075155258178711 -3 23 26 27
3 8 -3.89559125900268555 227 252 255
3 8 -2.51571989059448242 192 193 194
2.01069259643554688 8 3 157 185 203
3 8.89699268341064453 -3 192 193 194
3.28853344917297363 8 -3 192 193 194
3 2 1 0
3 1 4 3
3 0 1 3
3 4 5 3
3 2 0 6
3 0 3 7
3 6 0 7
3 3 5 7
3 10 9 8
3 9 12 11
3 8 9 11
3 12 14 13
3 11 12 13
3 2 13 14
3 2 14 1
3 1 14 15
3 15 16 1
3 1 16 4
3 17 5 4
3 17 4 18
3 18 4 16
3 18 20 19
3 17 18 19
3 20 21 19
3 10 8 22
3 8 11 23
3 22 8 23
3 11 13 24
3 23 11 24
3 26 6 25
3 24 6 26
3 24 2 6
3 24 13 2
3 7 25 6
3 27 25 7
3 27 28 29
3 7 28 27
3 7 17 28
3 7 5 17
3 17 19 30
3 28 17 30
3 19 21 30
3 26 25 31
3 25 27 32
3 31 25 32
3 27 29 32
3 35 34 33
3 10 33 34
3 10 34 9
3 9 34 36
3 38 37 12
3 38 12 36
3 36 12 9
3 14 12 37
3 39 14 37
3 15 14 39
3 40 15 39
3 16 15 40
3 41 16 40
3 18 16 41
3 42 18 41
3 20 18 42
3 43 20 42
3 20 43 21
3 35 33 44
3 33 10 22
3 33 22 44
3 44 22 45
3 38 47 37
3 48 45 46
3 45 23 46
3 45 22 23
3 23 49 46
3 23 24 49
3 47 50 37
3 50 39 37
3 39 51 40
3 39 50 51
3 49 24 26
3 40 52 41
3 51 52 40
3 54 41 52
3 54 42 41
3 28 53 29
3 28 55 53
3 28 30 55
3 54 56 42
3 56 43 42
3 55 30 21
3 55 21 57
3 43 56 21
3 56 57 21
3 48 46 58
3 46 49 59
3 58 46 59
3 49 26 31
3 49 31 59
3 59 31 60
3 60 31 61
3 31 32 61
3 29 53 62
3 29 62 32
3 32 62 61
3 53 55 63
3 62 53 63
3 55 57 63
3 35 65 64
3 34 35 64
3 67 66 36
3 67 36 64
3 64 36 34
3 36 66 38
3 65 35 44
3 68 65 44
3 67 70 66
3 71 68 69
3 68 45 69
3 68 44 45
3 69 45 48
3 66 70 38
3 70 47 38
3 70 72 47
3 72 73 47
3 47 73 50
3 73 74 50
3 50 74 51
3 74 75 51
3 51 75 52
3 75 76 52
3 52 76 54
3 76 77 54
3 54 77 56
3 78 57 56
3 78 56 79
3 79 56 77
3 79 80 78
3 71 69 81
3 69 48 58
3 69 58 81
3 81 58 82
3 82 58 83
3 58 59 83
3 83 59 84
3 59 60 84
3 84 60 85
3 60 61 85
3 85 61 86
3 61 62 86
3 86 62 87
3 62 63 87
3 57 78 88
3 57 88 63
3 63 88 87
3 78 80 88
3 91 90 89
3 65 89 90
3 65 90 64
3 93 92 90
3 92 64 90
3 64 92 67
3 91 89 94
3 94 95 97
3 94 68 95
3 94 89 68
3 65 68 89
3 93 96 92
3 95 68 71
3 92 96 67
3 96 70 67
3 96 98 70
3 98 99 70
3 70 99 72
3 101 100 73
3 101 73 99
3 99 73 72
3 74 73 100
3 102 74 100
3 75 74 102
3 103 75 102
3 76 75 103
3 104 76 103
3 104 106 105
3 104 105 76
3 76 105 77
3 105 107 77
3 77 107 79
3 108 80 79
3 108 79 109
3 109 79 107
3 109 110 108
3 97 95 111
3 95 71 81
3 95 81 111
3 111 81 112
3 112 81 113
3 81 82 113
3 100 101 113
3 100 113 83
3 83 113 82
3 102 100 83
3 84 102 83
3 103 102 84
3 85 103 84
3 104 103 85
3 86 104 85
3 106 104 86
3 106 86 114
3 114 86 87
3 114 87 115
3 87 88 115
3 80 108 116
3 80 116 88
3 88 116 115
3 108 110 116
3 91 118 117
3 90 91 117
3 90 117 119
3 93 90 119
3 118 91 94
3 120 118 94
3 119 121 93
3 93 121 96
3 122 120 94
3 122 94 97
3 121 123 96
3 96 123 98
3 125 124 99
3 125 99 123
3 123 99 98
3 99 124 101
3 105 106 126
3 126 128 127
3 126 127 105
3 105 127 107
3 127 129 107
3 107 129 109
3 109 129 130
3 110 109 130
3 122 97 111
3 131 122 111
3 131 111 132
3 111 112 132
3 124 125 132
3 124 132 113
3 113 132 112
3 124 113 101
3 126 106 114
3 128 126 114
3 128 114 133
3 133 114 115
3 133 115 134
3 115 116 134
3 134 116 110
3 130 134 110
3 117 118 135
3 117 135 119
3 135 118 120
3 122 137 135
3 122 135 120
3 137 136 135
3 119 135 121
3 136 121 135
3 136 138 121
3 121 138 123
3 123 138 139
3 125 123 139
3 127 128 140
3 140 142 141
3 140 141 127
3 127 141 129
3 129 141 143
3 130 129 143
3 137 122 131
3 144 137 131
3 144 131 145
3 131 132 145
3 145 132 125
3 139 145 125
3 140 128 133
3 142 140 133
3 142 133 146
3 146 133 134
3 146 134 130
3 143 146 130
3 137 148 147
3 136 137 147
3 150 149 138
3 150 138 147
3 147 138 136
3 138 149 139
3 142 152 151
3 141 142 151
3 141 151 153
3 143 141 153
3 148 137 144
3 154 148 144
3 149 150 154
3 149 154 145
3 145 154 144
3 149 145 139
3 152 142 146
3 155 152 146
3 155 146 143
3 153 155 143
3 148 157 156
3 147 148 156
3 158 150 147
3 158 147 159
3 159 147 156
3 159 160 158
3 151 152 161
3 151 161 153
3 157 148 154
3 162 157 154
3 150 158 163
3 150 163 154
3 154 163 162
3 158 160 163
3 161 152 155
3 161 155 153
3 156 157 164
3 164 166 165
3 164 165 156
3 156 165 159
3 159 165 167
3 160 159 167
3 170 169 168
3 169 171 168
3 164 157 162
3 166 164 162
3 166 162 172
3 172 162 163
3 172 163 160
3 167 172 160
3 170 168 173
3 168 171 173
3 165 166 174
3 175 167 165
3 175 165 176
3 174 177 165
3 177 176 165
3 176 178 175
3 169 170 179
3 169 179 171
3 174 166 172
3 167 175 180
3 167 180 172
3 177 174 180
3 174 172 180
3 175 178 180
3 179 170 173
3 179 173 171
3 176 177 181
3 176 181 178
3 181 177 180
3 181 180 178
