ply
format ascii 1.0
element vertex 656
property float x
property float y
property float z
property uchar red
property uchar green
property uchar blue
element face 1300
property list uchar int vertex_indices
end_header
-5.07744169235229492 5 -1 133 131 131
-5 4.912994384765625 -1 195 192 192
-5 5 -1.14806270599365234 128 127 127
-5.38972377777099609 5 0 136 134 134
-5 4.4653620719909668 0 154 152 152
-5.52122259140014648 5 1 140 138 138
-5 4.30175113677978516 1 143 141 141
-5.41351175308227539 5 2 132 131 131
-5 4.54015493392944336 2 163 161 161
-5 5 2.87763428688049316 138 137 137
-5 5.28730487823486328 -1 119 117 117
-5.40622472763061523 6 0 244 241 241
-5 6 -0.695327520370483398 250 247 247
-5.72592353820800781 6 1 226 223 223
-5.75143098831176758 6 2 201 199 199
-5.45981931686401367 6 3 174 172 172
-5 5.10999965667724609 3 166 164 164
-5 6 3.73645305633544922 170 169 169
-5.19362878799438477 7 0 254 250 250
-5 7 -0.74437713623046875 254 250 250
-5.26734447479248047 7 1 254 250 250
-5.20855283737182617 7 2 254 250 250
-5.02188348770141602 7 3 254 250 250
-5 7 3.0590057373046875 253 250 250
-5.12068700790405273 8 -1 254 251 251
-5 7.34761333465576172 -1 254 250 250
-5 8 -1.31323039531707764 254 251 251
-5.39635658264160156 8 0 254 250 250
-5.5234980583190918 8 1 254 250 250
-5.47491312026977539 8 2 254 250 250
-5.25023698806762695 8 3 254 251 251
-5 8 3.59115242958068848 254 252 252
-5 8.81755256652832031 -1 254 251 251
-5 8.93537235260009766 0 254 251 251
-5 8.94967555999755859 1 254 251 251
-5 8.94550800323486328 2 254 251 251
-5 8.90417766571044922 3 254 252 252
-4.07678794860839844 0 1 168 165 168
-4 -0.19352412223815918 1 18 18 18
-4 0 0.891695737838745117 74 72 72
-4.26073360443115234 0 2 121 122 122
-4 -0.382888972759246826 2 81 80 80
-4 0 2.18696713447570801 9 9 9
-4 0.306338846683502197 1 45 44 45
-4 0.39964604377746582 2 9 9 9
-4.14592885971069336 4 -1 195 192 192
-4 3.77551722526550293 -1 148 146 146
-4 4 -1.21609139442443848 187 185 185
-4.57353782653808594 4 0 154 152 152
-4 3.33033108711242676 0 134 132 132
-4.66060304641723633 4 1 143 141 141
-4 3.27179908752441406 1 130 129 129
-4.287750244140625 4 2 163 161 161
-4 3.56187272071838379 2 109 108 108
-4 4 2.5625605583190918 177 175 175
-4.43442058563232422 5 -2 128 127 127
-4 4.59541797637939453 -2 187 185 185
-4 5 -2.43878006935119629 157 155 155
-4.888214111328125 5 3 166 164 164
-4 4.24986362457275391 3 174 173 173
-4 5 3.65186977386474609 209 208 208
-4 5.64364385604858398 -2 112 111 111
-4.75940036773681641 6 -1 250 247 247
-4 6 -1.76189184188842773 253 251 251
-4.72392797470092773 6 4 183 182 182
-4 5.35851764678955078 4 225 224 224
-4 6 4.4578557014465332 213 212 212
-4.23503732681274414 7 -2 254 250 250
-4 6.52783679962158203 -2 253 251 251
-4 7 -2.22828578948974609 254 251 251
-4.90726566314697266 7 -1 254 250 250
-4.52558422088623047 7 4 252 249 249
-4 7 4.62639904022216797 250 248 248
-4.10733318328857422 8 -3 252 249 249
-4 7.87379550933837891 -3 254 251 251
-4 8 -3.15839934349060059 239 236 236
-4.65189218521118164 8 -2 254 251 251
-4.76018476486206055 8 4 254 252 252
-4 8 4.90175867080688477 254 254 254
-4 8.76709175109863281 -3 253 250 250
-4 8.94845008850097656 -2 254 251 251
-4 8.96786975860595703 -1 254 251 252
-4 8.97392368316650391 0 254 251 251
-4 8.97573184967041016 1 254 252 252
-4 8.97513198852539062 2 254 252 252
-4 8.97107410430908203 3 254 253 253
-4 8.95388889312744141 4 254 254 254
-3.31728696823120117 -2 1 243 246 242
-3 -2.17661213874816895 1 161 160 160
-3 -2 0.672022819519042969 216 215 212
-3.19830513000488281 -2 2 238 236 234
-3 -2.0901801586151123 2 146 144 144
-3 -2 2.20828461647033691 152 154 155
-3.61519384384155273 -1 0 120 118 118
-3 -1.43152403831481934 0 216 215 212
-3 -1 -0.518830537796020508 56 57 57
-3 -1.4616628885269165 1 250 250 246
-3 -1 0.644594550132751465 144 143 143
-3.54909420013427734 -1 2 81 80 80
-3 -1 1.30208289623260498 169 170 169
-3.59278535842895508 -1 3 117 115 115
-3 -1.49633550643920898 3 12 12 12
-3.06930804252624512 -1 4 238 242 239
-3 -1.04308509826660156 4 59 59 59
-3 -1 4.06733465194702148 250 251 247
-3.13556981086730957 0 0 74 72 72
-3 0 -0.279190897941589355 248 242 242
-3 -0.728911817073822021 1 169 170 169
-3.69229316711425781 0 2 9 9 9
-3 -0.534083545207977295 2 235 232 232
-3 0 1.50379085540771484 136 137 137
-3.23522663116455078 0 3 247 247 247
-3 0 2.62716031074523926 253 252 252
-3.09291458129882812 0 4 132 132 132
-3 0 4.15258216857910156 53 53 53
-3 0.882420897483825684 0 129 127 127
-3.44148850440979004 1 1 128 126 126
-3 1 0.087693437933921814 225 221 221
-3.13196086883544922 1 2 108 106 108
-3 0.907849252223968506 2 253 252 252
-3 0.603680729866027832 3 143 143 143
-3 1 2.20639824867248535 166 164 164
-3 0.0794377252459526062 4 53 53 53
-3.0376434326171875 2 1 67 66 66
-3 2 0.842083930969238281 49 48 48
-3.04540562629699707 2 2 31 31 31
-3 2 2.40203690528869629 27 27 27
-3.15349388122558594 3 -1 148 146 146
-3 2.83447647094726562 -1 76 75 75
-3 3 -1.18035566806793213 139 137 137
-3.5686805248260498 3 0 134 132 132
-3 2.28790736198425293 0 49 48 48
-3.71660923957824707 3 1 130 129 129
-3.62588834762573242 3 2 109 108 108
-3.32465910911560059 3 3 70 69 69
-3 2.1645653247833252 3 148 146 146
-3 3 3.6094512939453125 17 17 17
-3.33983707427978516 4 -2 187 185 185
-3 3.60387659072875977 -2 139 137 137
-3 4 -2.3484952449798584 153 152 152
-3.77358293533325195 4 3 174 173 173
-3.15471887588500977 4 4 154 152 152
-3 3.56540513038635254 4 46 45 45
-3 4 4.16711330413818359 125 124 124
-3.28969740867614746 5 -3 157 155 155
-3 4.7308201789855957 -3 153 152 152
-3 5 -3.14162254333496094 232 229 229
-3.62505269050598145 5 4 225 224 224
-3 5 4.70559072494506836 220 219 219
-3 5.34469223022460938 -3 144 143 143
-3.67889189720153809 6 -2 253 251 251
-3 6 -2.54134416580200195 254 251 251
-3.03236627578735352 6 5 232 231 231
-3 5.90753841400146484 5 201 200 200
-3 6 5.01842308044433594 239 238 238
-3 7 -2.96900439262390137 254 251 251
-3.53503680229187012 7 5 249 249 249
-3 7 5.31672525405883789 250 249 249
-3.27811980247497559 8 -4 239 236 236
-3 7.85419511795043945 -4 254 252 252
-3 8 -4.22339057922363281 198 196 196
-3 7.03253316879272461 -3 254 251 251
-3.88862872123718262 8 5 254 254 254
-3 8 5.58422517776489258 254 253 253
-3 8.87083339691162109 -4 246 243 243
-3 8.96012306213378906 -3 251 250 253
-3 8.97310829162597656 -2 251 252 254
-3 8.97774028778076172 -1 253 251 254
-3 8.97945690155029297 0 254 252 252
-3 8.97991847991943359 1 254 253 253
-3 8.97971153259277344 2 254 253 253
-3 8.97837734222412109 3 254 254 254
-3 8.97331142425537109 4 254 253 253
-3 8.94731903076171875 5 254 253 253
-2.47494626045227051 -2 0 216 215 212
-2 -2.3684537410736084 0 117 116 116
-2 -2 -0.270573318004608154 74 75 76
-2 -2.50873327255249023 1 103 102 102
-2 -2.42177510261535645 2 92 91 91
-2 -2 2.91353750228881836 206 205 205
-2.54863357543945312 -1 -1 56 57 57
-2 -1.25975179672241211 -1 74 75 76
-2 -1 -1.21300244331359863 226 226 223
-2.77499604225158691 -1 1 169 170 169
-2 -1.95532345771789551 3 8 8 8
-2 -1.45034050941467285 4 20 19 20
-2 -1 4.66265583038330078 250 252 253
-2 -0.250986427068710327 -1 139 138 139
-2 0 -0.817856311798095703 236 230 230
-2.57682204246520996 0 2 253 252 252
-2.26851534843444824 0 5 86 86 86
-2 -0.418425500392913818 5 254 254 251
-2 0 5.22159385681152344 212 212 213
-2.94686555862426758 1 0 225 221 221
-2 1 -0.577729880809783936 228 225 225
-2.2815544605255127 1 3 250 254 252
-2.49355053901672363 1 4 69 70 70
-2.96446371078491211 1 5 244 242 242
-2 1 5.73495864868164062 239 237 237
-2.70308470726013184 2 0 49 48 48
-2 2 -0.865575313568115234 26 26 26
-2.88250064849853516 2 3 148 146 146
-2 1.78490650653839111 4 185 183 183
-2 2 3.58241748809814453 162 160 160
-2 1.35876595973968506 5 239 237 237
-2.08338356018066406 3 -2 139 137 137
-2 2.93854355812072754 -2 55 55 55
-2 3 -2.04652953147888184 129 128 128
-2 2.09495067596435547 -1 26 26 26
-2.69741654396057129 3 4 46 45 45
-2 2.41798734664916992 4 129 129 129
-2 3 4.47705888748168945 106 106 106
-2.11224961280822754 4 -3 153 152 152
-2 3.92320656776428223 -3 129 128 128
-2 4 -3.0713036060333252 93 92 92
-2 4 4.76918220520019531 76 75 75
-2 5 -3.4321434497833252 226 225 225
-2.61243963241577148 5 5 201 200 200
-2 4.37903594970703125 5 38 38 38
-2 5 5.26884078979492188 171 171 171
-2.14364862442016602 6 -3 254 251 251
-2 6 -3.06896233558654785 252 250 250
-2 6 5.50918436050415039 235 234 234
-2.9423363208770752 7 -3 254 251 251
-2 7 -3.3660280704498291 254 252 252
-2 7 5.79275751113891602 251 249 249
-2 7.51620101928710938 -4 254 252 252
-2 8 -4.78296422958374023 219 217 217
-2.16233181953430176 8 6 253 252 252
-2 7.70757102966308594 6 241 241 241
-2 8 6.06247854232788086 253 251 251
-2 8.95551300048828125 -4 237 238 240
-2 8.97338962554931641 -3 247 250 249
-2 8.97836208343505859 -2 250 254 253
-2 8.98003578186035156 -1 254 252 252
-2 8.98038959503173828 0 254 253 253
-2 8.98036766052246094 1 254 253 253
-2 8.98039150238037109 2 254 253 253
-2 8.98003768920898438 3 254 253 253
-2 8.97768115997314453 4 254 252 252
-2 8.96723079681396484 5 253 251 251
-2 8.71264553070068359 6 253 251 251
-1 -2.61483025550842285 0 26 25 25
-1 -2 -0.459160149097442627 18 18 18
-1 -2.77478337287902832 1 33 32 32
-1 -2.80109739303588867 2 20 20 20
-1.86093306541442871 -2 3 8 8 8
-1 -2.60771036148071289 3 40 41 41
-1 -2 3.68371129035949707 78 78 77
-1 -1.39303457736968994 -1 18 18 18
-1 -1 -1.38234734535217285 96 97 96
-1.26233422756195068 -1 0 57 57 57
-1 -1.12030994892120361 0 253 252 249
-1 -1 -0.152045413851737976 149 148 149
-1 -1 0.0886339694261550903 214 214 214
-1 -1.84266602993011475 4 116 115 115
-1.11347079277038574 -1 5 254 254 251
-1 -1.0542980432510376 5 249 249 249
-1 -1 5.03289270401000977 254 252 252
-1.41585540771484375 0 -1 236 230 230
-1 0 -1.21624457836151123 25 25 24
-1 -0.865739226341247559 0 214 214 214
-1 0 5.65124607086181641 230 230 230
-1 0.522501707077026367 -1 130 128 131
-1 1 -0.845655739307403564 232 229 229
-1.37513995170593262 1 6 216 215 215
-1 0.691845238208770752 6 249 246 246
-1 1 6.09905195236206055 88 88 88
-1.81622004508972168 2 -1 26 26 26
-1 1.32398319244384766 -1 232 229 229
-1 2 -1.37486100196838379 4 4 4
-1.09126615524291992 2 4 129 129 129
-1 1.57659256458282471 5 166 166 166
-1 2 4.03997421264648438 174 174 174
-1 1.07387018203735352 6 88 88 88
-1 2.55603885650634766 -2 4 4 4
-1 3 -2.39767026901245117 39 39 39
-1 3 4.73785972595214844 166 165 165
-1 3.52728438377380371 -3 39 39 39
-1 4 -3.39980387687683105 14 14 14
-1.1650155782699585 4 5 38 38 38
-1 3.85895180702209473 5 184 183 183
-1 4 5.03349161148071289 19 19 19
-1 5 -3.53629875183105469 217 216 216
-1 5 5.39052009582519531 155 155 155
-1 6 -3.31390762329101562 251 250 250
-1 6 5.7018585205078125 229 228 228
-1 7 -3.62060952186584473 254 252 252
-1.4812767505645752 7 6 241 241 241
-1 6.63039064407348633 6 213 212 212
-1 7 6.13511562347412109 192 192 192
-1.30418527126312256 8 -5 219 217 217
-1 7.94990158081054688 -5 252 251 251
-1 8 -5.05930280685424805 166 164 164
-1 7.28822231292724609 -4 254 252 252
-1 8 6.26235151290893555 251 249 249
-1 8.72243595123291016 -5 137 136 136
-1 8.96730422973632812 -4 160 159 159
-1 8.97751903533935547 -3 235 237 237
-1 8.97989273071289062 -2 251 250 253
-1 8.9803924560546875 -1 254 252 252
-1 8.98014354705810547 0 253 253 253
-1 8.97999477386474609 1 254 253 253
-1 8.98025798797607422 2 254 252 252
-1 8.98033905029296875 3 253 252 252
-1 8.97892665863037109 4 253 251 251
-1 8.97211456298828125 5 252 250 250
-1 8.91232013702392578 6 251 249 249
-0.332788199186325073 -3 2 20 20 20
0 -3.16426587104797363 2 108 109 110
0 -3 1.40621542930603027 58 58 58
-0.250536292791366577 -3 3 40 41 41
0 -3.11220479011535645 3 233 235 232
0 -3 3.22880029678344727 123 123 122
-0.160720974206924438 -2 -1 18 18 18
0 -2.19123578071594238 -1 89 89 89
0 -2 -1.12117135524749756 24 24 24
0 -2.71697735786437988 0 71 70 70
0 -2.94135665893554688 1 58 58 58
-0.599592149257659912 -2 4 116 115 115
0 -2.48781251907348633 4 251 250 250
0 -2 4.41615200042724609 250 250 250
0 -1 -1.56406819820404053 177 178 179
-0.866651475429534912 -1 0 214 214 214
0 -1.21448314189910889 5 235 234 234
0 -1 5.07732295989990234 254 252 252
0 0 -1.18498098850250244 12 12 13
0 0 5.70735502243041992 104 103 103
0 0.519958674907684326 -1 5 5 5
0 1 -0.810570180416107178 235 232 232
0 0.687817156314849854 6 252 253 254
0 1 6.09941291809082031 135 134 134
0 1.25807583332061768 -1 235 232 232
0 2 -1.5969538688659668 45 44 44
0 1.60015487670898438 5 16 16 16
0 2 4.12460136413574219 215 215 215
0 1.33347856998443604 6 135 134 134
0 2.38577532768249512 -2 45 44 44
0 3 -2.63532662391662598 36 36 36
0 3 4.73198795318603516 216 216 216
0 3.28549575805664062 -3 36 36 36
0 4 -3.5624997615814209 71 71 71
0 3.88430881500244141 5 227 226 226
0 4 5.02700185775756836 81 81 81
0 5 -3.48544001579284668 212 212 212
0 5 5.35281229019165039 114 114 114
0 6 -3.34362435340881348 251 250 250
0 6 5.7760624885559082 214 213 213
0 7 -3.72051787376403809 251 252 253
0 6.52997207641601562 6 158 157 157
0 7 6.11803388595581055 83 82 83
0 7.90570163726806641 -5 251 249 249
0 8 -5.09584283828735352 35 35 35
0 7.18953847885131836 -4 251 252 253
0 8 6.25419807434082031 250 247 247
0 8.81117057800292969 -5 114 113 113
0 8.97069168090820312 -4 29 29 29
0 8.97872447967529297 -3 197 195 197
0 8.98031425476074219 -2 247 246 246
0 8.98030471801757812 -1 250 250 250
0 8.98005390167236328 0 250 250 250
0 8.98002052307128906 1 251 250 250
0 8.98027610778808594 2 252 250 250
0 8.98033332824707031 3 252 250 250
0 8.97899723052978516 4 252 250 250
0 8.97263813018798828 5 251 249 249
0 8.91166877746582031 6 250 247 247
1 -3.11567139625549316 2 244 244 247
1 -3 1.57518303394317627 148 148 150
1 -3.06111240386962891 3 208 209 209
1 -3 3.10003280639648438 251 253 252
1 -2.17565369606018066 -1 204 202 203
1 -2 -1.09244585037231445 60 61 60
1 -2.62513828277587891 0 174 171 172
1 -2.89351844787597656 1 148 148 150
1 -2.43049287796020508 4 191 190 190
1 -2 4.3199920654296875 192 191 191
1 -1 -1.35451030731201172 252 250 253
0.461187392473220825 -1 5 254 252 252
1 -1 4.87022209167480469 254 253 252
0.383312970399856567 0 -1 5 5 5
1 -0.37969517707824707 -1 253 253 253
1 0 -0.583734691143035889 35 35 34
1 -0.853291690349578857 5 254 252 252
1 0 5.52404594421386719 253 251 251
1 1 -0.47730863094329834 241 238 238
0.62251126766204834 1 6 135 134 134
1 1 5.91883039474487305 207 205 205
1 1.54694390296936035 -1 241 238 238
1 2 -1.46253585815429688 93 92 93
0.357355177402496338 2 4 215 215 215
1 1.88551104068756104 4 213 212 212
1 2 3.67589378356933594 231 231 231
1 1.45919716358184814 5 207 205 205
1 2.50456786155700684 -2 93 92 93
1 3 -2.49745988845825195 102 101 101
1 2.3064122200012207 4 245 245 245
1 3 4.48196935653686523 249 248 248
1 3.41324353218078613 -3 102 101 101
1 4 -3.40070199966430664 126 126 126
0.123208366334438324 4 5 81 81 81
1 4 4.73618698120117188 107 107 107
1 5 -3.30646443367004395 210 209 209
1 4.56708240509033203 5 139 139 139
1 5 5.24721908569335938 2 2 2
1 6 -3.10839414596557617 252 250 250
0.539253056049346924 6 6 158 157 157
1 5.74755477905273438 6 166 166 166
1 6 6.39416694641113281 45 45 45
1 7 -3.68828701972961426 246 245 247
0.410161256790161133 7 6 83 82 83
1 6.40116786956787109 6 45 45 45
1 7 5.77864837646484375 124 124 124
1 7.98183012008666992 -5 219 217 217
1 8 -5.01541233062744141 180 179 179
1 7.19826745986938477 -4 246 245 247
1 7.76671409606933594 6 80 80 80
1 8 6.0597686767578125 247 245 245
1 8.41881275177001953 -5 247 245 245
1 8.97049617767333984 -4 192 190 190
1 8.97897434234619141 -3 81 80 80
1 8.98031139373779297 -2 208 207 207
1 8.98037242889404297 -1 229 229 229
1 8.98030471801757812 0 241 240 240
1 8.98033428192138672 1 249 247 247
1 8.98038959503173828 2 252 249 249
1 8.98002147674560547 3 252 249 249
1 8.97777271270751953 4 251 248 248
1 8.96797084808349609 5 249 246 246
1 8.6987762451171875 6 247 245 245
1.26232659816741943 -3 2 145 147 147
1.10834610462188721 -3 3 251 253 252
1.44386875629425049 -2 -1 251 252 254
2 -2.29520535469055176 0 249 246 249
2 -2 -0.556789577007293701 253 252 254
2 -2.55513238906860352 1 218 219 221
2 -2.67358207702636719 2 247 247 245
2 -2.46217560768127441 3 100 100 100
1.51311731338500977 -2 4 192 191 191
2 -2 3.52288985252380371 165 164 164
1.5274817943572998 -1 -1 253 253 253
2 -1 -0.660006225109100342 246 245 246
2 -1.52885949611663818 4 254 253 254
2 -1 4.30867481231689453 253 254 252
1.48183226585388184 0 0 253 250 250
2 -0.346762776374816895 0 86 85 85
2 0 0.256999671459197998 202 200 201
2 -0.123008191585540771 5 253 254 254
2 0 5.06654119491577148 254 252 254
1.66212368011474609 1 0 237 235 235
1.64735758304595947 1 1 247 246 246
2 0.886965453624725342 1 125 125 125
1.95613241195678711 1 2 123 122 122
2 0.984885454177856445 2 142 142 142
2 1 2.01405906677246094 129 128 128
2 1 5.37604618072509766 250 248 248
1.45160627365112305 2 -1 134 134 135
2 1.67949676513671875 0 244 243 243
2 2 -0.17932717502117157 191 190 190
2 1.3372577428817749 1 242 242 242
2 1.11228764057159424 2 129 128 128
1.71046018600463867 2 3 231 231 231
2 1.89839935302734375 3 252 250 253
2 2 2.49920344352722168 244 244 244
2 1.60163617134094238 4 250 247 247
2 1.21150636672973633 5 250 248 248
1.48784935474395752 3 -2 41 41 41
2 2.94489669799804688 -1 191 190 190
2 3 -1.05582118034362793 86 86 86
2 2.26468491554260254 3 254 254 254
1.97079122066497803 3 4 249 248 248
2 3 3.97196316719055176 250 249 249
1.68131649494171143 4 -3 154 154 154
2 3.41164350509643555 -2 86 86 86
2 4 -2.69101786613464355 191 190 190
2 3.08052945137023926 4 253 252 253
2 4 4.16267204284667969 157 157 157
1.63776254653930664 5 -3 100 100 100
2 5 -2.7321629524230957 131 130 130
2 4.93684911727905273 5 174 174 174
2 5 5.10522794723510742 152 152 152
1.25489675998687744 6 -3 249 248 250
2 6 -2.5983123779296875 245 243 243
2 5.53143072128295898 6 252 252 252
2 6 6.48736476898193359 254 253 253
2 6.48412179946899414 -3 245 243 243
2 7 -3.48877334594726562 220 219 219
2 6.46046781539916992 6 254 253 253
2 7 5.45055818557739258 132 132 132
1.07523596286773682 8 -5 247 245 245
2 7.31629276275634766 -4 220 219 219
2 8 -4.75883293151855469 254 252 252
1.16119253635406494 8 6 247 245 245
2 8 5.59766626358032227 245 242 242
2 8.96536159515380859 -4 232 231 231
2 8.97832965850830078 -3 57 57 57
2 8.98016166687011719 -2 107 107 107
2 8.98034000396728516 -1 189 189 189
2 8.98030853271484375 0 233 231 231
2 8.98016262054443359 1 247 245 245
2 8.97961807250976562 2 250 247 247
2 8.97805690765380859 3 249 247 247
2 8.97310161590576172 4 247 244 244
2 8.94718074798583984 5 245 242 242
2.44023251533508301 -2 0 252 254 252
2.71645927429199219 -2 1 165 164 164
2.70625472068786621 -2 2 64 64 64
2.32543063163757324 -2 3 165 164 164
3 -1.2295609712600708 0 253 251 254
3 -1 -0.0616144314408302307 177 175 175
3 -1.69738531112670898 1 244 242 242
3 -1.70014059543609619 2 234 233 233
3 -1.28462886810302734 3 252 254 254
2.31925845146179199 -1 4 253 254 252
3 -1 3.27412056922912598 252 252 254
3 -0.92924731969833374 0 227 225 225
3 0 0.846376001834869385 117 116 116
3 -0.0493860170245170593 4 253 254 254
2.08773636817932129 0 5 254 252 254
3 0 4.03280162811279297 252 252 254
3 0.219658493995666504 1 129 128 128
3 0.454267114400863647 2 194 193 193
3 1 2.57237148284912109 176 176 176
2.51635575294494629 1 5 250 248 248
3 1 4.52030134201049805 252 254 252
2.09027004241943359 2 0 235 235 235
2.33511710166931152 2 1 245 245 245
2.18425130844116211 2 2 244 244 244
3 1.43547165393829346 3 251 253 251
3 1.2359999418258667 4 252 254 252
2.02478361129760742 3 -1 38 38 38
2.44532322883605957 3 0 70 70 70
2.6925349235534668 3 1 118 118 118
2.68960928916931152 3 2 193 192 192
2.53334903717041016 3 3 250 249 249
2.57762432098388672 4 -2 158 157 157
2.9194488525390625 4 -1 35 35 35
3 3.95894098281860352 0 115 115 115
3 4 -0.233191490173339844 59 59 59
3 3.51770377159118652 1 158 157 157
3 3.52003598213195801 2 207 207 207
2.86243557929992676 4 3 104 103 103
3 4 2.6811673641204834 86 85 85
2.16247725486755371 4 4 157 157 157
2.88532924652099609 5 -2 16 16 16
3 4.11018514633178711 -1 59 59 59
3 5 -1.83041751384735107 43 43 43
3 4.35521936416625977 3 138 138 138
2.86607670783996582 5 4 46 45 45
3 5 3.75756525993347168 56 56 56
2.31069135665893555 5 5 152 152 152
2.89402937889099121 6 -2 237 235 235
3 6 -1.89510297775268555 227 227 227
3 5.78655433654785156 4 63 62 62
3 5.2818760871887207 5 254 254 254
3 5.8756556510925293 6 82 81 82
3 6 6.08471918106079102 122 121 121
3 6.99340724945068359 -3 237 236 236
3 7 -3.00888919830322266 89 89 89
3 6.11319446563720703 -2 227 227 227
2.45005035400390625 7 5 132 132 132
3 6.39102697372436523 5 190 189 189
3 7 4.50302886962890625 103 103 103
3 6.21626567840576172 6 122 121 121
3 7.60508394241333008 -4 89 89 89
3 8 -4.33954954147338867 251 250 250
2.85149931907653809 8 5 245 242 242
3 8 4.86253929138183594 240 237 237
3 8.93756484985351562 -4 237 236 236
3 8.97515487670898438 -3 159 158 158
3 8.97940254211425781 -2 75 75 75
3 8.97981929779052734 -1 60 59 59
3 8.97908306121826172 0 193 192 192
3 8.97748661041259766 1 237 235 235
3 8.97503185272216797 2 245 242 242
3 8.97002983093261719 3 243 241 241
3 8.95151233673095703 4 240 237 237
3.10050272941589355 -1 0 227 225 225
3.46618962287902832 -1 1 254 252 254
3.35008072853088379 -1 2 254 254 252
3.17081952095031738 -1 3 252 252 254
3.09643697738647461 0 1 129 128 128
3.79889631271362305 0 2 194 193 193
3.52725410461425781 0 3 242 240 240
3.02684378623962402 0 4 252 252 254
3.2396392822265625 1 3 251 253 251
3.41649246215820312 1 4 252 254 252
3.01772475242614746 4 0 48 48 48
3.21410274505615234 4 1 10 10 10
3.21063327789306641 4 2 86 85 85
3.43219709396362305 5 -1 18 18 18
3.55206942558288574 5 0 99 98 98
3.57320547103881836 5 1 153 153 153
3.60171842575073242 5 2 69 69 69
3.19449639320373535 5 3 56 56 56
3.59814310073852539 6 -1 209 209 209
3.91616511344909668 6 0 202 202 202
3.96556687355041504 6 1 209 208 208
4 5.93646001815795898 2 13 13 13
4 6 1.5590360164642334 179 178 178
3.74849224090576172 6 3 36 36 36
4 6 2.09452557563781738 23 23 23
3.02360272407531738 6 4 135 135 135
3.72954845428466797 6 5 190 189 189
3.1166999340057373 6 6 122 121 121
3.0120234489440918 7 -3 191 191 191
3.80384922027587891 7 -2 206 206 206
4 6.75146484375 -1 149 149 149
4 7 -1.49794876575469971 112 112 112
4 6.22197628021240234 0 154 154 154
4 6.08981466293334961 1 179 178 178
3.97573661804199219 7 3 233 232 232
4 7 2.91898202896118164 227 225 225
3.40444540977478027 7 4 103 103 103
3.56006908416748047 8 -4 237 236 236
4 7.43276739120483398 -3 0 0 0
4 8 -3.65328240394592285 247 246 246
4 7.089813232421875 -2 112 112 112
4 7.07580709457397461 3 218 217 217
3.6941375732421875 8 4 240 237 237
4 8 3.47941422462463379 232 230 230
4 8.95694255828857422 -3 229 229 229
4 8.97534942626953125 -2 228 228 228
4 8.97786140441894531 -1 197 196 196
4 8.97580528259277344 0 7 7 7
4 8.96763038635253906 1 193 192 192
4 8.94968509674072266 2 231 229 229
4 8.88843154907226562 3 232 230 230
4.02051973342895508 6 2 23 23 23
4.12403774261474609 7 -1 179 179 179
4.23829221725463867 7 0 213 211 211
4.26162052154541016 7 1 227 225 225
4.19607734680175781 7 2 227 225 225
4.66988182067871094 8 -3 229 229 229
5 7.64870262145996094 -2 85 85 85
5 8 -2.5925590991973877 254 254 254
5 7.47736501693725586 -1 92 92 92
5 7.46769094467163086 0 180 179 179
5 7.6452784538269043 1 204 203 203
4.64968204498291016 8 2 231 229 229
5 8 1.59925639629364014 61 60 60
4.21547412872314453 8 3 232 230 230
5 8.94092845916748047 -2 250 250 250
5 8.96767997741699219 -1 235 235 235
5 8.96878433227539062 0 254 253 253
5 8.93834400177001953 1 61 60 60
5.3740997314453125 8 -2 250 250 250
5.84398841857910156 8 -1 235 235 235
6 7.92583608627319336 0 63 62 62
6 8 -0.488237589597702026 141 140 140
6 7.97555065155029297 1 157 155 155
6 8 1.06118333339691162 176 175 175
6 8.84076881408691406 0 103 102 102
6 8.64187145233154297 1 176 175 175
6.1054224967956543 8 0 103 102 102
6.04306793212890625 8 1 176 175 175
3 2 1 0
3 1 4 3
3 0 1 3
3 4 6 5
3 3 4 5
3 6 8 7
3 5 6 7
3 8 9 7
3 2 0 10
3 12 10 0
3 12 0 11
3 11 0 3
3 3 5 11
3 5 13 11
3 5 7 13
3 7 14 13
3 9 16 15
3 9 15 7
3 7 15 14
3 16 17 15
3 19 12 11
3 18 19 11
3 11 13 18
3 13 20 18
3 13 14 20
3 14 21 20
3 14 15 21
3 15 22 21
3 17 23 22
3 15 17 22
3 26 25 24
3 25 19 18
3 25 18 24
3 24 18 27
3 18 20 27
3 20 28 27
3 20 21 28
3 21 29 28
3 21 22 29
3 22 30 29
3 23 31 30
3 22 23 30
3 26 24 32
3 24 27 33
3 32 24 33
3 27 28 34
3 33 27 34
3 28 29 35
3 34 28 35
3 29 30 36
3 35 29 36
3 30 31 36
3 39 38 37
3 38 41 40
3 37 38 40
3 41 42 40
3 39 37 43
3 37 40 44
3 43 37 44
3 40 42 44
3 47 46 45
3 46 49 48
3 45 46 48
3 49 51 50
3 48 49 50
3 51 53 52
3 50 51 52
3 53 54 52
3 57 56 55
3 45 1 2
3 47 45 2
3 47 2 55
3 47 55 56
3 48 1 45
3 4 1 48
3 50 4 48
3 6 4 50
3 52 6 50
3 8 6 52
3 8 58 9
3 52 58 8
3 52 59 58
3 52 54 59
3 59 60 58
3 57 55 61
3 63 10 62
3 61 10 63
3 61 2 10
3 61 55 2
3 10 12 62
3 58 16 9
3 16 64 17
3 58 64 16
3 58 65 64
3 58 60 65
3 65 66 64
3 69 68 67
3 68 63 62
3 68 62 67
3 67 62 70
3 62 19 70
3 12 19 62
3 71 17 64
3 23 17 71
3 66 72 71
3 64 66 71
3 75 74 73
3 74 69 67
3 74 67 73
3 73 67 76
3 26 70 25
3 26 76 70
3 76 67 70
3 70 19 25
3 77 23 71
3 31 23 77
3 72 78 77
3 71 72 77
3 75 73 79
3 73 76 80
3 79 73 80
3 76 26 32
3 76 32 80
3 80 32 81
3 81 32 82
3 32 33 82
3 82 33 83
3 33 34 83
3 83 34 84
3 34 35 84
3 84 35 85
3 35 36 85
3 31 77 86
3 31 86 36
3 36 86 85
3 77 78 86
3 89 88 87
3 88 91 90
3 87 88 90
3 91 92 90
3 95 94 93
3 96 97 93
3 96 93 87
3 94 89 93
3 89 87 93
3 99 96 87
3 99 87 98
3 98 87 90
3 92 101 100
3 92 100 90
3 90 100 98
3 101 103 102
3 100 101 102
3 103 104 102
3 106 95 93
3 105 106 93
3 97 107 38
3 97 38 105
3 97 105 93
3 105 38 39
3 110 108 109
3 107 99 41
3 107 41 38
3 41 99 98
3 109 108 112
3 41 98 42
3 98 111 42
3 98 100 111
3 100 102 111
3 102 113 111
3 104 114 113
3 102 104 113
3 106 105 115
3 117 43 116
3 115 43 117
3 115 39 43
3 115 105 39
3 44 116 43
3 44 118 116
3 119 108 110
3 44 121 118
3 44 120 121
3 44 42 120
3 111 120 42
3 108 119 112
3 111 113 122
3 120 111 122
3 113 114 122
3 124 117 116
3 123 124 116
3 116 118 123
3 118 125 123
3 121 126 125
3 118 121 125
3 129 128 127
3 128 131 130
3 127 128 130
3 131 124 123
3 131 123 130
3 130 123 132
3 123 125 132
3 125 133 132
3 126 135 134
3 126 134 125
3 125 134 133
3 135 136 134
3 139 138 137
3 127 46 47
3 129 127 47
3 129 47 137
3 129 137 138
3 130 46 127
3 49 46 130
3 132 49 130
3 51 49 132
3 133 51 132
3 53 51 133
3 53 140 54
3 53 133 140
3 133 134 140
3 136 142 141
3 136 141 134
3 134 141 140
3 142 143 141
3 146 145 144
3 137 56 57
3 139 137 57
3 139 57 144
3 139 144 145
3 137 47 56
3 140 59 54
3 59 147 60
3 59 140 147
3 140 141 147
3 143 148 147
3 141 143 147
3 146 144 149
3 151 61 150
3 149 61 151
3 149 57 61
3 149 144 57
3 61 63 150
3 147 65 60
3 65 152 66
3 147 152 65
3 147 153 152
3 147 148 153
3 153 154 152
3 150 68 69
3 150 69 151
3 151 69 155
3 150 63 68
3 156 66 152
3 72 66 156
3 154 157 156
3 152 154 156
3 160 159 158
3 75 158 159
3 75 159 74
3 74 159 161
3 161 69 74
3 155 69 161
3 162 72 156
3 78 72 162
3 157 163 162
3 156 157 162
3 160 158 164
3 158 75 79
3 158 79 164
3 164 79 165
3 165 79 166
3 79 80 166
3 166 80 167
3 80 81 167
3 167 81 168
3 81 82 168
3 168 82 169
3 82 83 169
3 169 83 170
3 83 84 170
3 170 84 171
3 84 85 171
3 171 85 172
3 85 86 172
3 78 162 173
3 78 173 86
3 86 173 172
3 162 163 173
3 176 175 174
3 89 174 175
3 89 175 88
3 88 175 177
3 177 178 88
3 88 178 91
3 91 178 179
3 92 91 179
3 182 181 180
3 174 94 95
3 176 174 95
3 176 95 180
3 176 180 181
3 94 174 89
3 97 96 183
3 96 99 183
3 179 101 92
3 184 101 179
3 184 185 101
3 101 185 103
3 103 185 186
3 104 103 186
3 182 180 187
3 180 188 187
3 180 95 188
3 95 106 188
3 183 107 97
3 107 183 99
3 110 109 189
3 109 112 189
3 190 186 191
3 190 114 186
3 114 104 186
3 191 192 190
3 115 193 194
3 115 194 106
3 106 194 188
3 115 117 193
3 189 119 110
3 119 189 112
3 121 120 195
3 122 195 120
3 196 195 122
3 114 196 122
3 114 190 196
3 190 197 196
3 192 198 197
3 190 192 197
3 200 194 193
3 199 200 193
3 193 124 199
3 117 124 193
3 201 121 195
3 126 121 201
3 202 203 201
3 202 201 196
3 196 201 195
3 196 197 204
3 202 196 204
3 197 198 204
3 207 206 205
3 129 205 206
3 129 206 128
3 128 206 208
3 199 208 200
3 199 131 208
3 131 128 208
3 199 124 131
3 201 135 126
3 135 209 136
3 201 209 135
3 201 210 209
3 201 203 210
3 210 211 209
3 214 213 212
3 205 138 139
3 207 205 139
3 207 139 212
3 207 212 213
3 205 129 138
3 209 142 136
3 142 209 211
3 142 211 143
3 143 211 215
3 212 145 146
3 212 146 214
3 214 146 216
3 212 139 145
3 217 215 218
3 217 148 215
3 148 143 215
3 218 219 217
3 149 220 221
3 149 221 146
3 146 221 216
3 149 151 220
3 217 153 148
3 153 217 219
3 153 219 154
3 154 219 222
3 224 221 220
3 223 224 220
3 220 155 223
3 151 155 220
3 222 225 154
3 225 157 154
3 160 227 226
3 159 160 226
3 223 226 224
3 223 161 226
3 161 159 226
3 223 155 161
3 228 225 229
3 228 163 225
3 163 157 225
3 229 230 228
3 227 160 164
3 231 227 164
3 231 164 232
3 164 165 232
3 232 165 233
3 165 166 233
3 233 166 234
3 166 167 234
3 234 167 235
3 167 168 235
3 235 168 236
3 168 169 236
3 236 169 237
3 169 170 237
3 237 170 238
3 170 171 238
3 238 171 239
3 171 172 239
3 239 172 240
3 172 173 240
3 163 228 241
3 163 241 173
3 173 241 240
3 228 230 241
3 176 243 242
3 175 176 242
3 242 244 175
3 175 244 177
3 244 245 177
3 177 245 178
3 246 179 178
3 246 178 247
3 247 178 245
3 247 248 246
3 182 250 249
3 181 182 249
3 249 176 181
3 249 243 176
3 252 253 251
3 252 251 254
3 246 184 179
3 248 184 246
3 248 255 184
3 255 185 184
3 256 186 185
3 256 185 257
3 257 185 255
3 257 258 256
3 187 259 260
3 187 260 182
3 182 260 250
3 253 261 251
3 259 187 188
3 251 261 254
3 256 191 186
3 191 256 258
3 191 258 192
3 192 258 262
3 260 259 263
3 259 264 263
3 259 188 264
3 188 194 264
3 265 262 266
3 265 198 262
3 198 192 262
3 266 267 265
3 270 269 268
3 269 200 268
3 269 264 200
3 264 194 200
3 202 271 203
3 271 272 273
3 271 202 272
3 202 204 272
3 198 265 274
3 198 274 204
3 204 274 272
3 265 267 274
3 207 276 275
3 206 207 275
3 268 275 270
3 268 208 275
3 208 206 275
3 268 200 208
3 271 210 203
3 210 271 273
3 210 273 211
3 211 273 277
3 214 279 278
3 213 214 278
3 278 207 213
3 276 207 278
3 280 277 281
3 280 215 277
3 215 211 277
3 281 282 280
3 279 214 283
3 283 214 216
3 280 218 215
3 218 280 282
3 218 282 219
3 219 282 284
3 283 216 285
3 285 216 221
3 284 286 219
3 286 222 219
3 285 221 287
3 287 221 224
3 288 286 289
3 288 225 286
3 225 222 286
3 289 290 288
3 293 292 291
3 227 291 292
3 227 292 226
3 226 292 294
3 294 224 226
3 287 224 294
3 288 229 225
3 229 288 290
3 229 290 230
3 230 290 295
3 293 291 296
3 291 227 231
3 291 231 296
3 296 231 297
3 297 231 298
3 231 232 298
3 298 232 299
3 232 233 299
3 299 233 300
3 233 234 300
3 300 234 301
3 234 235 301
3 301 235 302
3 235 236 302
3 302 236 303
3 236 237 303
3 303 237 304
3 237 238 304
3 304 238 305
3 238 239 305
3 305 239 306
3 239 240 306
3 306 240 307
3 240 241 307
3 307 241 230
3 295 307 230
3 310 309 308
3 309 312 311
3 308 309 311
3 312 313 311
3 316 315 314
3 243 314 315
3 243 315 242
3 242 315 317
3 317 318 242
3 242 318 244
3 308 318 310
3 308 245 318
3 245 244 318
3 311 245 308
3 247 245 311
3 247 319 248
3 311 319 247
3 311 320 319
3 311 313 320
3 320 321 319
3 314 249 250
3 314 250 316
3 316 250 322
3 249 314 243
3 253 252 323
3 252 254 323
3 319 255 248
3 321 255 319
3 321 324 255
3 324 257 255
3 257 324 325
3 258 257 325
3 322 250 326
3 326 250 260
3 323 261 253
3 323 254 261
3 325 327 258
3 327 262 258
3 326 260 263
3 328 326 263
3 263 329 328
3 264 329 263
3 327 266 262
3 330 266 327
3 266 330 331
3 267 266 331
3 270 333 332
3 269 270 332
3 332 264 269
3 329 264 332
3 273 334 335
3 272 334 273
3 334 272 336
3 272 274 336
3 336 274 267
3 331 336 267
3 276 338 337
3 275 276 337
3 337 270 275
3 333 270 337
3 335 339 273
3 339 277 273
3 279 341 340
3 278 279 340
3 340 276 278
3 338 276 340
3 339 281 277
3 342 281 339
3 281 342 343
3 282 281 343
3 341 279 344
3 344 279 283
3 343 345 282
3 345 284 282
3 344 283 346
3 346 283 285
3 345 347 284
3 347 286 284
3 346 285 348
3 348 285 287
3 347 289 286
3 349 289 347
3 289 349 350
3 290 289 350
3 293 352 351
3 292 293 351
3 351 353 292
3 292 353 294
3 353 287 294
3 348 287 353
3 350 354 290
3 354 295 290
3 352 293 296
3 355 352 296
3 355 296 356
3 296 297 356
3 356 297 357
3 297 298 357
3 357 298 358
3 298 299 358
3 358 299 359
3 299 300 359
3 359 300 360
3 300 301 360
3 360 301 361
3 301 302 361
3 361 302 362
3 302 303 362
3 362 303 363
3 303 304 363
3 363 304 364
3 304 305 364
3 364 305 365
3 305 306 365
3 365 306 366
3 306 307 366
3 366 307 295
3 354 366 295
3 310 368 367
3 309 310 367
3 367 369 309
3 309 369 312
3 312 369 370
3 313 312 370
3 316 372 371
3 315 316 371
3 371 373 315
3 315 373 317
3 373 374 317
3 317 374 318
3 374 310 318
3 368 310 374
3 370 320 313
3 375 320 370
3 320 375 376
3 321 320 376
3 372 316 377
3 377 316 322
3 324 379 378
3 324 321 379
3 321 376 379
3 324 378 325
3 380 381 377
3 380 377 326
3 326 377 322
3 381 380 382
3 379 383 378
3 378 383 384
3 378 384 325
3 325 384 327
3 380 326 328
3 328 382 380
3 328 329 382
3 329 385 382
3 330 387 386
3 330 327 387
3 327 384 387
3 330 386 331
3 333 389 388
3 332 333 388
3 388 329 332
3 385 329 388
3 392 390 391
3 335 391 390
3 335 334 391
3 334 393 391
3 386 387 393
3 386 393 336
3 336 393 334
3 386 336 331
3 338 395 394
3 337 338 394
3 394 333 337
3 389 333 394
3 392 396 390
3 390 396 397
3 390 397 335
3 335 397 339
3 341 399 398
3 340 341 398
3 398 338 340
3 395 338 398
3 342 401 400
3 342 339 401
3 339 397 401
3 342 400 343
3 399 341 402
3 402 341 344
3 401 403 400
3 400 403 404
3 400 404 343
3 343 404 345
3 402 344 405
3 405 344 346
3 406 404 407
3 406 347 404
3 347 345 404
3 407 408 406
3 405 346 409
3 409 346 348
3 411 412 410
3 406 349 347
3 349 406 408
3 349 408 350
3 411 410 408
3 410 350 408
3 352 414 413
3 351 352 413
3 413 415 351
3 351 415 353
3 415 348 353
3 409 348 415
3 412 416 410
3 410 416 417
3 410 417 350
3 350 417 354
3 414 352 355
3 418 414 355
3 418 355 419
3 355 356 419
3 419 356 420
3 356 357 420
3 420 357 421
3 357 358 421
3 421 358 422
3 358 359 422
3 422 359 423
3 359 360 423
3 423 360 424
3 360 361 424
3 424 361 425
3 361 362 425
3 425 362 426
3 362 363 426
3 426 363 427
3 363 364 427
3 427 364 428
3 364 365 428
3 428 365 429
3 365 366 429
3 429 366 354
3 417 429 354
3 367 368 430
3 369 367 430
3 431 369 430
3 369 431 370
3 371 372 432
3 432 434 433
3 432 433 371
3 371 433 373
3 433 435 373
3 373 435 374
3 368 436 430
3 368 374 436
3 374 435 436
3 430 437 431
3 436 437 430
3 439 438 375
3 437 439 375
3 437 375 370
3 437 370 431
3 375 438 376
3 440 432 372
3 377 440 372
3 434 440 441
3 432 440 434
3 439 442 438
3 438 442 443
3 438 443 376
3 376 443 379
3 440 377 381
3 381 382 444
3 440 381 444
3 440 444 445
3 440 445 441
3 445 444 446
3 443 383 379
3 447 383 443
3 383 447 448
3 384 383 448
3 449 444 382
3 385 449 382
3 446 450 451
3 446 444 450
3 444 449 450
3 451 452 453
3 450 452 451
3 453 452 454
3 448 455 384
3 455 387 384
3 388 389 456
3 456 458 457
3 388 456 457
3 388 457 449
3 388 449 385
3 449 459 450
3 457 459 449
3 450 460 452
3 459 460 450
3 454 452 460
3 462 463 461
3 392 462 461
3 392 391 462
3 391 464 462
3 464 391 465
3 391 393 465
3 465 393 387
3 455 465 387
3 394 395 466
3 466 468 467
3 394 466 467
3 394 467 456
3 394 456 389
3 456 467 458
3 463 469 461
3 471 470 396
3 469 471 396
3 469 396 392
3 469 392 461
3 396 470 397
3 398 399 472
3 472 474 473
3 398 472 473
3 398 473 466
3 398 466 395
3 466 473 468
3 471 475 470
3 470 475 476
3 470 476 397
3 397 476 401
3 477 472 399
3 402 477 399
3 474 477 478
3 472 477 474
3 476 403 401
3 479 403 476
3 403 479 480
3 404 403 480
3 481 477 402
3 405 481 402
3 478 481 482
3 477 481 478
3 480 407 404
3 483 407 480
3 407 483 484
3 408 407 484
3 485 481 405
3 485 405 486
3 486 405 409
3 481 485 482
3 412 487 488
3 411 487 412
3 487 411 408
3 484 487 408
3 413 414 489
3 489 491 490
3 489 490 413
3 413 490 415
3 490 409 415
3 486 409 490
3 416 493 492
3 416 412 493
3 412 488 493
3 416 492 417
3 489 414 418
3 491 489 418
3 491 418 494
3 494 418 419
3 494 419 495
3 419 420 495
3 495 420 496
3 420 421 496
3 496 421 497
3 421 422 497
3 497 422 498
3 422 423 498
3 498 423 499
3 423 424 499
3 499 424 500
3 424 425 500
3 500 425 501
3 425 426 501
3 501 426 502
3 426 427 502
3 502 427 503
3 427 428 503
3 492 493 503
3 492 503 429
3 429 503 428
3 492 429 417
3 433 434 504
3 435 433 504
3 505 435 504
3 436 435 505
3 506 436 505
3 437 436 506
3 507 437 506
3 437 507 439
3 508 504 434
3 508 434 509
3 509 434 441
3 504 510 505
3 508 510 504
3 505 511 506
3 510 511 505
3 506 512 507
3 511 512 506
3 514 513 442
3 512 514 442
3 512 442 439
3 512 439 507
3 442 513 443
3 509 441 445
3 515 509 445
3 445 516 515
3 446 516 445
3 514 517 513
3 519 518 447
3 517 519 447
3 517 447 443
3 517 443 513
3 447 518 448
3 516 446 451
3 520 516 451
3 520 451 521
3 451 453 521
3 453 522 521
3 454 522 453
3 524 518 519
3 523 518 524
3 518 523 455
3 448 518 455
3 457 458 525
3 459 457 525
3 526 459 525
3 460 459 526
3 527 460 526
3 462 528 527
3 462 527 463
3 528 522 527
3 460 527 454
3 522 454 527
3 528 462 529
3 462 464 529
3 523 524 529
3 523 529 465
3 465 529 464
3 523 465 455
3 467 468 530
3 458 467 530
3 458 530 525
3 525 530 531
3 525 531 526
3 526 531 532
3 526 532 527
3 527 532 533
3 469 463 527
3 469 527 534
3 534 527 533
3 469 534 471
3 473 474 535
3 468 473 535
3 468 535 530
3 530 535 536
3 537 536 538
3 537 531 536
3 531 530 536
3 531 539 532
3 537 539 531
3 532 540 533
3 539 540 532
3 542 533 540
3 542 541 533
3 541 534 533
3 475 471 534
3 475 534 543
3 543 534 541
3 475 543 476
3 544 535 474
3 478 544 474
3 545 544 546
3 545 536 544
3 536 535 544
3 536 545 538
3 542 547 541
3 549 541 547
3 549 548 541
3 548 543 541
3 479 476 543
3 479 543 550
3 550 543 548
3 479 550 480
3 551 544 478
3 482 551 478
3 546 551 552
3 544 551 546
3 549 553 548
3 548 554 550
3 553 554 548
3 550 483 480
3 550 554 483
3 554 555 483
3 483 555 556
3 484 483 556
3 486 558 557
3 485 486 557
3 482 559 551
3 482 485 559
3 485 557 559
3 551 559 552
3 562 560 561
3 488 561 560
3 488 487 561
3 487 563 561
3 563 487 484
3 556 563 484
3 491 565 564
3 490 491 564
3 564 486 490
3 558 486 564
3 567 560 562
3 566 560 567
3 560 566 493
3 488 560 493
3 565 491 494
3 568 565 494
3 568 494 569
3 494 495 569
3 569 495 570
3 495 496 570
3 570 496 571
3 496 497 571
3 571 497 572
3 497 498 572
3 572 498 573
3 498 499 573
3 573 499 574
3 499 500 574
3 574 500 575
3 500 501 575
3 575 501 576
3 501 502 576
3 566 567 576
3 566 576 503
3 503 576 502
3 566 503 493
3 508 509 577
3 510 508 577
3 578 510 577
3 511 510 578
3 579 511 578
3 512 511 579
3 580 512 579
3 512 580 514
3 577 509 515
3 515 516 581
3 515 581 577
3 577 581 578
3 578 581 579
3 579 581 582
3 579 582 580
3 580 582 583
3 517 514 580
3 517 580 584
3 584 580 583
3 517 584 519
3 581 516 520
3 582 581 520
3 521 582 520
3 521 522 585
3 521 585 582
3 582 585 583
3 583 585 584
3 584 585 586
3 584 586 524
3 519 584 524
3 585 522 528
3 586 585 528
3 529 586 528
3 586 529 524
3 537 538 587
3 539 537 587
3 588 539 587
3 540 539 588
3 589 540 588
3 540 589 542
3 545 546 590
3 538 545 590
3 538 590 587
3 587 590 591
3 587 591 588
3 588 591 592
3 588 592 589
3 589 592 593
3 547 542 589
3 547 589 594
3 594 589 593
3 547 594 549
3 595 590 546
3 552 595 546
3 590 595 591
3 591 595 596
3 591 596 592
3 592 596 597
3 598 597 599
3 598 593 597
3 593 592 597
3 601 593 598
3 601 600 593
3 600 594 593
3 553 549 594
3 553 594 602
3 602 594 600
3 554 553 602
3 603 554 602
3 555 554 603
3 604 555 603
3 555 604 556
3 557 558 605
3 559 557 605
3 606 559 605
3 606 608 607
3 559 606 607
3 559 607 595
3 559 595 552
3 595 609 596
3 607 609 595
3 596 610 597
3 609 610 596
3 597 610 599
3 612 600 601
3 611 600 612
3 600 611 602
3 602 611 613
3 562 561 603
3 562 603 613
3 613 603 602
3 604 603 561
3 563 604 561
3 604 563 556
3 564 565 614
3 614 616 615
3 564 614 615
3 564 615 605
3 564 605 558
3 605 617 606
3 615 617 605
3 606 617 608
3 612 618 611
3 620 611 618
3 620 619 611
3 619 613 611
3 613 619 567
3 562 613 567
3 614 565 568
3 616 614 568
3 616 568 621
3 621 568 569
3 621 569 622
3 569 570 622
3 622 570 623
3 570 571 623
3 623 571 624
3 571 572 624
3 624 572 625
3 572 573 625
3 625 573 626
3 573 574 626
3 626 574 627
3 574 575 627
3 619 620 627
3 619 627 576
3 576 627 575
3 619 576 567
3 598 599 628
3 598 628 601
3 607 608 629
3 609 607 629
3 630 609 629
3 610 609 630
3 631 610 630
3 599 610 631
3 599 631 628
3 628 631 632
3 628 632 612
3 601 628 612
3 615 616 633
3 633 635 634
3 633 634 615
3 615 634 617
3 608 636 629
3 608 617 636
3 617 634 636
3 629 637 630
3 636 637 629
3 630 638 631
3 637 638 630
3 640 631 638
3 640 639 631
3 639 632 631
3 618 612 632
3 618 632 641
3 641 632 639
3 618 641 620
3 633 616 621
3 635 633 621
3 635 621 642
3 642 621 622
3 642 622 643
3 622 623 643
3 643 623 644
3 623 624 644
3 644 624 645
3 624 625 645
3 639 640 645
3 639 645 626
3 626 645 625
3 641 639 626
3 627 641 626
3 641 627 620
3 634 635 646
3 636 634 646
3 647 636 646
3 647 649 648
3 647 648 636
3 636 648 637
3 648 650 637
3 637 650 638
3 638 650 651
3 640 638 651
3 646 635 642
3 647 646 642
3 643 647 642
3 649 647 643
3 649 643 652
3 652 643 644
3 652 644 653
3 644 645 653
3 653 645 640
3 651 653 640
3 648 649 654
3 650 648 654
3 655 650 654
3 650 655 651
3 654 649 652
3 655 654 652
3 653 655 652
3 655 653 651
