ply
format ascii 1.0
element vertex 380
property float x
property float y
property float z
property uchar red
property uchar green
property uchar blue
element face 756
property list uchar int vertex_indices
end_header
-3.09172415733337402 -4 -1 101 98 83
-3 -4.63886642456054688 -1 79 78 69
-3 -4 -1.4893038272857666 85 72 30
-3 -4 -0.399709343910217285 85 81 69
-3.11854839324951172 -3 -1 105 99 81
-3 -3 -1.62239754199981689 89 67 29
-3 -3 -0.19691920280456543 89 82 69
-3.00889825820922852 -2 -1 109 98 78
-3 -2 -1.04618930816650391 93 63 29
-3 -2 -0.938968241214752197 93 81 67
-3 -1.96594703197479248 -1 93 81 67
-3.02382683753967285 1 -1 126 90 53
-3 0.910919487476348877 -1 101 76 59
-3 1 -1.12463676929473877 109 51 14
-3 1 -0.838228464126586914 110 73 48
-3.14191603660583496 2 -1 133 86 36
-3 2 -1.75121235847473145 117 48 2
-3 2 -0.0482899844646453857 118 68 34
-3.12629294395446777 3 -1 139 82 20
-3 3 -1.67989230155944824 124 51 0
-3 3 -0.181779474020004272 124 63 17
-3 3.96680140495300293 -1 124 63 17
-2.11054110527038574 -9 -1 29 42 16
-2 -9.46673297882080078 -1 8 17 3
-2 -9 -1.90046477317810059 30 31 30
-2 -9 -0.735992014408111572 21 28 12
-2 -8.44757556915283203 -1 21 28 12
-2.17759037017822266 -7 -1 63 64 57
-2 -7.73909950256347656 -1 37 39 29
-2 -7 -1.75589549541473389 48 50 26
-2 -7 -0.390663266181945801 49 49 48
-2.30110716819763184 -6 -2 73 74 33
-2 -6.85258769989013672 -2 48 50 26
-2 -6 -2.37239193916320801 58 58 25
-2.56186270713806152 -6 -1 72 73 69
-2.30158901214599609 -6 0 66 71 27
-2 -6.74891138076782227 0 41 47 15
-2 -6 0.396868377923965454 54 56 24
-2.6347968578338623 -5 -2 80 75 30
-2 -5 -2.77135252952575684 64 59 24
-2.91530418395996094 -5 -1 79 78 69
-2.66849088668823242 -5 0 78 76 36
-2 -5 0.90748286247253418 63 60 31
-2.01821351051330566 -4 -3 85 75 35
-2 -4.093292236328125 -3 64 59 24
-2 -4 -3.0130157470703125 68 63 44
-2.84952187538146973 -4 -2 85 72 30
-2.90462923049926758 -4 0 84 77 42
-2.17425084114074707 -4 1 82 79 24
-2 -4.7321772575378418 1 60 61 19
-2 -4 1.14387273788452148 67 61 21
-2.04909276962280273 -3 -3 89 72 37
-2 -3 -3.03491783142089844 71 64 48
-2.88603925704956055 -3 -2 89 67 29
-2.95401453971862793 -3 0 89 77 48
-2.22678685188293457 -3 1 87 76 26
-2 -3 1.18807721138000488 72 60 23
-2 -2.72032546997070312 -3 72 55 28
-2.70969963073730469 -2 -2 93 63 29
-2 -2 -2.84732675552368164 75 53 31
-2.7835392951965332 -2 0 93 77 54
-2.06653165817260742 -2 1 92 73 28
-2 -2 1.05533099174499512 77 58 24
-2.31084299087524414 -1 -2 95 58 28
-2 -1 -2.37025618553161621 77 52 32
-2.60793828964233398 -1 -1 96 79 64
-2.38616204261779785 -1 0 96 79 61
-2 -1.83008205890655518 1 77 58 24
-2 -1 0.540321767330169678 80 64 51
-2.3264315128326416 0 -2 101 55 23
-2 0 -2.38960647583007812 82 52 32
-2.62170600891113281 0 -1 101 76 59
-2.39739775657653809 0 0 102 87 74
-2 0 0.554219484329223633 86 72 63
-2.73546171188354492 1 -2 109 51 14
-2 1 -2.87989115715026855 91 53 30
-2.80475592613220215 1 0 110 102 96
-2.08453154563903809 1 1 109 85 54
-2 0.789154171943664551 1 86 61 34
-2 1 1.07017219066619873 95 71 47
-2.08871006965637207 2 -3 116 69 33
-2 1.52829194068908691 -3 91 53 30
-2 2 -3.06313204765319824 98 78 62
-2.92545676231384277 2 -2 117 48 2
-2.98860287666320801 2 0 118 116 114
-2.25736236572265625 2 1 117 98 72
-2 2 1.21302509307861328 102 84 64
-2.07533550262451172 3 -3 123 71 30
-2 3 -3.05386662483215332 105 83 65
-2.90639615058898926 3 -2 124 51 0
-2.95614218711853027 3 0 124 112 101
-2.2211310863494873 3 1 123 110 91
-2 3 1.18220221996307373 109 97 82
-2 3.43011331558227539 -3 106 56 23
-2.71438956260681152 4 -2 130 56 0
-2 4 -2.87038350105285645 113 60 24
-2.99289131164550781 4 -1 130 61 3
-2.7416231632232666 4 0 130 109 88
-2.00229406356811523 4 1 128 120 107
-2 4 1.00187480449676514 115 108 99
-2.41300487518310547 5 -2 134 60 0
-2 5 -2.51243996620178223 118 65 28
-2.67011880874633789 5 -1 135 64 0
-2.4049224853515625 5 0 134 108 78
-2 4.00693941116333008 1 115 108 99
-2 5 0.530714750289916992 120 94 67
-2.10451745986938477 6 -2 138 63 0
-2 6 -2.13396787643432617 122 73 37
-2.3338465690612793 6 -1 138 67 0
-2.03812003135681152 6 0 138 110 75
-2 6 0.0475786291062831879 124 95 63
-2 6.86525821685791016 -2 123 52 0
-2.16357064247131348 7 -1 140 67 0
-2 7 -1.89645850658416748 126 53 0
-2 6.19464492797851562 0 124 95 63
-2 7 -0.535757005214691162 127 58 0
-2.37514209747314453 8 -2 140 75 39
-2 7.05913066864013672 -2 126 53 0
-2 8 -2.54580903053283691 122 99 85
-2.4832911491394043 8 -1 141 74 28
-2.05579662322998047 8 0 141 124 109
-2 7.80319499969482422 0 127 97 65
-2 8 0.0598652288317680359 128 104 82
-2 8.73818111419677734 -2 126 59 17
-2 8.78729438781738281 -1 127 59 8
-2 8.30255699157714844 0 128 104 82
-1.97433137893676758 -9 -2 30 31 30
-1 -9.78597259521484375 -2 8 9 7
-1 -9 -2.67123508453369141 20 20 20
-1 -9.82520675659179688 -1 3 5 1
-1.37630712985992432 -9 0 9 25 0
-1 -9.59549331665039062 0 0 2 0
-1 -9 0.199114963412284851 4 12 0
-1.45621740818023682 -8 -2 39 41 31
-1 -8 -2.2957618236541748 28 29 21
-1.84985744953155518 -8 -1 37 39 29
-1.15663790702819824 -8 0 24 37 3
-1 -8 0.0905562713742256165 14 23 3
-1.8806835412979126 -7 -2 48 50 26
-1 -7 -2.5439140796661377 35 37 18
-1.76995193958282471 -7 0 41 47 15
-1 -7 0.475609719753265381 28 33 12
-1 -6 -2.9717869758605957 44 44 16
-1.0733569860458374 -6 1 48 54 15
-1 -6.088623046875 1 19 30 6
-1 -6 1.02895665168762207 32 39 12
-1.61459827423095703 -5 -3 64 59 24
-1 -5.93378114700317383 -3 44 44 16
-1 -5 -3.21420621871948242 49 48 31
-1.86193537712097168 -5 1 60 61 19
-1 -5 1.3428574800491333 45 46 16
-1 -4 -3.35730767250061035 54 50 33
-1 -4 1.54548203945159912 53 48 18
-1 -3 -3.37722420692443848 57 50 36
-1 -3 1.59200048446655273 58 47 20
-1.74061453342437744 -2 -3 75 53 31
-1 -2 -3.25307822227478027 59 51 39
-1 -2 1.45693755149841309 62 47 21
-1 -1.09304845333099365 -3 60 42 23
-1 -1 -2.9553840160369873 62 41 24
-1.33062565326690674 -1 1 80 57 26
-1 -1 1.13315057754516602 65 46 23
-1 0 -2.97641944885253906 67 41 24
-1.34869480133056641 0 1 86 61 34
-1 0 1.14015614986419678 71 51 30
-1.79628372192382812 1 -3 91 53 30
-1 0.0479792878031730652 -3 67 41 24
-1 1 -3.27218818664550781 74 59 47
-1 1 1.47136104106903076 80 61 42
-1 2 -3.4059288501739502 82 64 49
-1 2 1.61678993701934814 88 73 58
-1 3 -3.39856100082397461 89 69 53
-1 3 1.58373236656188965 95 85 74
-1.78203237056732178 4 -3 113 60 24
-1 4 -3.27251601219177246 95 75 59
-1 4 1.39850819110870361 101 96 89
-1.18911242485046387 5 -3 118 65 28
-1 5 -3.06698346138000488 101 82 68
-1.27614748477935791 5 1 119 116 110
-1 5 1.10862243175506592 106 104 100
-1 5.34542465209960938 -3 103 55 22
-1 6 -2.75224089622497559 107 62 30
-1 5.36204195022583008 1 106 104 100
-1 6 0.6621665358543396 111 83 54
-1.96060836315155029 7 -2 126 53 0
-1 7 -2.62569737434387207 109 71 43
-1.62116491794586182 7 0 127 97 65
-1 7 0.356399685144424438 113 85 55
-1.34183776378631592 8 -3 122 99 85
-1 7.67961978912353516 -3 109 71 43
-1 8 -3.12586760520935059 103 93 87
-1 8 0.583796679973602295 114 90 65
-1 8.54925727844238281 -3 108 82 66
-1 8.86582469940185547 -2 111 50 7
-1 8.88109493255615234 -1 114 51 0
-1 8.80821609497070312 0 114 90 65
0 -9.77191162109375 -2 1 1 0
0 -9 -2.61766338348388672 9 9 9
0 -9.81600093841552734 -1 2 5 1
0 -9.54140949249267578 0 1 9 0
0 -9 0.15947316586971283 0 0 0
0 -8 -2.2547144889831543 16 17 12
0 -8 0.0552453063428401947 6 10 1
0 -7 -2.51066470146179199 23 25 11
0 -7 0.443316400051116943 16 19 8
0 -6 -2.94252800941467285 31 32 10
0 -6.03238248825073242 1 9 16 4
0 -6 1.01058375835418701 19 25 9
0 -5.865081787109375 -3 31 32 10
0 -5 -3.19852972030639648 37 37 22
0 -5 1.3254164457321167 29 32 12
0 -4 -3.34246110916137695 41 39 24
0 -4 1.52843856811523438 39 38 15
0 -3 -3.36287641525268555 45 40 27
0 -3 1.57521522045135498 44 38 17
0 -2 -3.23910808563232422 47 41 29
0 -2 1.44049715995788574 48 39 19
0 -1.14348828792572021 -3 48 33 16
0 -1 -2.9312136173248291 49 32 18
0 -1 1.1170814037322998 52 39 21
0 0 -2.95191526412963867 54 32 18
0 0 1.12393879890441895 57 43 27
0 0.0978590026497840881 -3 54 32 18
0 1 -3.25803852081298828 60 47 37
0 1 1.45475578308105469 66 53 39
0 2 -3.39137768745422363 67 52 40
0 2 1.59981560707092285 74 64 52
0 3 -3.38348555564880371 73 57 44
0 3 1.56647491455078125 81 75 66
0 4 -3.25658345222473145 79 62 49
0 4 1.3808361291885376 87 84 79
0 5 -3.04947280883789062 85 69 57
0 5 1.09001064300537109 93 91 89
0 5.25502824783325195 -3 87 47 18
0 6 -2.71807384490966797 91 53 25
0 5.29991483688354492 1 93 91 89
0 6 0.629316568374633789 97 73 46
0 7 -2.58327794075012207 93 61 36
0 7 0.320443868637084961 100 76 47
0 7.75671482086181641 -3 93 61 36
0 8 -3.0955958366394043 88 79 74
0 8 0.543220043182373047 101 79 54
0 8.48095607757568359 -3 92 70 55
0 8.86052608489990234 -2 96 44 4
0 8.87697982788085938 -1 99 47 0
0 8.79703998565673828 0 101 79 54
0.775517582893371582 -9 -2 7 7 7
0.999228298664093018 -9 -1 3 4 2
0.261607617139816284 -9 0 0 0 0
0.34814116358757019 -8 -2 14 16 10
0.700325131416320801 -8 -1 13 13 11
0.0849597081542015076 -8 0 6 10 1
0.745876014232635498 -7 -2 22 24 10
1 -7.41588735580444336 -1 2 2 1
1 -7 -1.42533636093139648 11 12 5
0.649040818214416504 -7 0 16 19 8
1 -7 -0.657110810279846191 10 10 9
1 -6.65302371978759766 -2 11 12 5
1 -6 -2.28537368774414062 19 21 6
1 -6.57773303985595703 0 5 7 3
0.0244658589363098145 -6 1 19 25 9
1 -6 0.306282758712768555 14 16 9
0.521604418754577637 -5 -3 38 35 11
1 -5 -2.69120121002197266 26 26 7
0.751137197017669678 -5 1 29 32 12
1 -5 0.81905442476272583 23 23 14
0.91494375467300415 -4 -3 42 35 13
1 -4 -2.94557094573974609 30 27 8
1 -4.47585153579711914 1 17 20 8
1 -4 1.09361720085144043 25 26 11
0.978381633758544922 -3 -3 45 34 14
1 -3 -2.98622369766235352 34 26 10
1 -3 1.1388784646987915 31 29 13
0.645678997039794922 -2 -3 48 33 16
1 -2 -2.77487802505493164 36 26 11
1 -2 1.0069117546081543 35 30 15
1 -1 -2.30044364929199219 37 25 12
0.268624931573867798 -1 1 52 39 21
1 -1.97879588603973389 1 35 30 15
1 -1 0.458210080862045288 39 34 29
1 0 -2.31884574890136719 41 25 13
0.284681260585784912 0 1 57 43 27
1 0 0.471455216407775879 44 40 37
0.695994019508361816 1 -3 61 33 17
1 1 -2.80636692047119141 48 27 12
1 0.936075985431671143 1 44 35 22
1 1 1.02129578590393066 52 43 32
1 1.85246765613555908 -3 48 27 12
1 2 -3.01977419853210449 53 42 32
1 2 1.16332125663757324 59 52 43
1 3 -3.0087425708770752 59 46 36
1 3 1.13139700889587402 66 62 55
0.673536956310272217 4 -3 81 41 15
1 3.06970810890197754 -3 61 31 11
1 4 -2.78858494758605957 66 35 12
0.880778133869171143 4 1 87 84 79
1 3.7275242805480957 1 66 62 55
1 4 0.913545072078704834 72 58 43
0.126792341470718384 5 -3 87 47 18
1 5 -2.42350649833679199 71 40 16
0.208564415574073792 5 1 93 91 89
1 5 0.438858330249786377 77 60 41
1 6 -2.03054237365722656 75 45 22
0.925405800342559814 6 0 97 73 46
1 5.90282201766967773 0 77 60 41
1 6 -0.137904882431030273 80 39 0
0.791853964328765869 7 -2 97 43 0
1 6.19713735580444336 -2 78 35 0
1 7 -1.38306748867034912 80 37 0
0.495591163635253906 7 0 100 76 47
1 7 -0.801594197750091553 83 41 0
0.222491830587387085 8 -3 92 70 55
1 7.35227680206298828 -2 80 37 0
1 8 -2.37582731246948242 76 60 49
0.897851645946502686 8 0 101 79 54
1 8 -0.136100515723228455 83 41 0
1 8.66098690032958984 -2 80 39 6
1 8.73930835723876953 -1 83 41 0
1.09489774703979492 -7 -1 10 10 9
1.2200629711151123 -6 -2 18 20 5
1.46957182884216309 -6 -1 18 18 14
1.222206711769104 -6 0 14 16 9
1.54438769817352295 -5 -2 26 25 5
1.81265544891357422 -5 -1 25 24 17
1.57786500453948975 -5 0 23 23 14
1.75323259830474854 -4 -2 30 25 6
2 -4.16696882247924805 -1 12 13 8
2 -4 -1.12789881229400635 19 17 3
1.80674970149993896 -4 0 28 27 18
2 -4 -0.843108236789703369 18 17 11
1.10872793197631836 -4 1 25 26 11
1.79042983055114746 -3 -2 34 24 7
2 -3 -1.27767407894134521 23 18 4
1.85589873790740967 -3 0 33 30 22
2 -3 -0.641769170761108398 22 20 13
1.1607513427734375 -3 1 31 29 13
1.62334799766540527 -2 -2 37 23 7
1.91431236267089844 -2 -1 37 30 23
2 -2.51682662963867188 -1 22 20 13
1.69426727294921875 -2 0 37 32 25
1.00798296928405762 -2 1 35 30 15
1.24238288402557373 -1 -2 38 21 7
1.52687263488769531 -1 -1 39 30 22
1.3147728443145752 -1 0 39 34 29
1.25660586357116699 0 -2 43 20 6
1.53922033309936523 0 -1 44 30 21
1.32480263710021973 0 0 44 40 37
1.64707207679748535 1 -2 50 19 2
1.93631410598754883 1 -1 51 30 17
1.71363043785095215 1 0 52 51 51
1.02463090419769287 1 1 52 43 32
1.02663660049438477 2 -3 55 29 11
1.8270258903503418 2 -2 56 21 0
2 1.35812723636627197 -1 39 24 11
2 2 -1.39925229549407959 45 20 0
1.8878791332244873 2 0 59 54 51
2 2 -0.494256556034088135 46 25 7
1.18932223320007324 2 1 59 52 43
1.01170492172241211 3 -3 61 31 11
1.80637288093566895 3 -2 62 24 0
2 3 -1.31018781661987305 50 23 0
1.85479152202606201 3 0 65 56 47
2 3 -0.626741111278533936 52 26 2
1.15284872055053711 3 1 66 62 55
1.61909663677215576 4 -2 68 28 0
1.88527321815490723 4 -1 70 31 0
2 3.44100451469421387 -1 52 26 2
1.64647805690765381 4 0 72 58 43
1.32531344890594482 5 -2 74 31 0
1.57121014595031738 5 -1 76 35 0
1.31946837902069092 5 0 77 60 41
1.02256917953491211 6 -2 78 35 0
1.24146354198455811 6 -1 80 39 0
1.06569743156433105 7 -1 83 41 0
1.23927819728851318 8 -2 80 39 6
1.3420332670211792 8 -1 83 41 0
2.0233616828918457 -4 -1 18 17 11
2.05158281326293945 -3 -1 22 20 13
2.07353901863098145 2 -1 46 25 7
2.05612373352050781 3 -1 52 26 2
3 2 1 0
3 1 3 0
3 5 2 0
3 4 5 0
3 3 6 4
3 0 3 4
3 8 5 4
3 7 8 4
3 6 9 7
3 4 6 7
3 8 7 10
3 7 9 10
3 13 12 11
3 12 14 11
3 16 13 11
3 15 16 11
3 14 17 15
3 11 14 15
3 19 16 15
3 18 19 15
3 17 20 18
3 15 17 18
3 19 18 21
3 18 20 21
3 24 23 22
3 23 25 22
3 24 22 26
3 22 25 26
3 29 28 27
3 28 30 27
3 33 32 31
3 32 29 27
3 32 27 31
3 31 27 34
3 30 36 35
3 30 35 27
3 27 35 34
3 36 37 35
3 39 33 31
3 38 39 31
3 31 34 38
3 34 40 38
3 34 35 40
3 35 41 40
3 37 42 41
3 35 37 41
3 45 44 43
3 44 39 38
3 44 38 43
3 43 38 46
3 2 40 1
3 2 46 40
3 46 38 40
3 1 47 3
3 1 40 47
3 40 41 47
3 42 49 48
3 42 48 41
3 41 48 47
3 49 50 48
3 52 45 43
3 51 52 43
3 43 46 51
3 46 53 51
3 46 5 53
3 2 5 46
3 54 3 47
3 6 3 54
3 47 48 54
3 48 55 54
3 50 56 55
3 48 50 55
3 52 51 57
3 59 57 51
3 59 51 58
3 58 51 53
3 53 8 58
3 5 8 53
3 60 6 54
3 9 6 60
3 54 55 60
3 55 61 60
3 56 62 61
3 55 56 61
3 64 59 58
3 63 64 58
3 10 58 8
3 10 65 58
3 65 63 58
3 9 65 10
3 9 60 65
3 60 66 65
3 67 68 66
3 67 66 61
3 61 66 60
3 61 62 67
3 70 64 63
3 69 70 63
3 63 65 69
3 65 71 69
3 65 66 71
3 66 72 71
3 68 73 72
3 66 68 72
3 75 70 69
3 74 75 69
3 13 71 12
3 13 74 71
3 74 69 71
3 12 76 14
3 12 71 76
3 71 72 76
3 73 78 77
3 73 77 72
3 72 77 76
3 78 79 77
3 82 81 80
3 81 75 74
3 81 74 80
3 80 74 83
3 74 16 83
3 13 16 74
3 84 14 76
3 17 14 84
3 76 77 84
3 77 85 84
3 79 86 85
3 77 79 85
3 88 82 80
3 87 88 80
3 80 83 87
3 83 89 87
3 83 19 89
3 16 19 83
3 90 17 84
3 20 17 90
3 84 85 90
3 85 91 90
3 86 92 91
3 85 86 91
3 88 87 93
3 95 93 87
3 95 87 94
3 94 87 89
3 21 89 19
3 21 96 89
3 96 94 89
3 20 96 21
3 20 90 96
3 90 97 96
3 90 91 97
3 91 98 97
3 92 99 98
3 91 92 98
3 101 95 94
3 100 101 94
3 94 96 100
3 96 102 100
3 96 97 102
3 97 103 102
3 104 105 103
3 104 103 98
3 98 103 97
3 98 99 104
3 107 101 100
3 106 107 100
3 100 102 106
3 102 108 106
3 102 103 108
3 103 109 108
3 105 110 109
3 103 105 109
3 107 106 111
3 113 111 106
3 113 106 112
3 112 106 108
3 114 115 112
3 114 112 109
3 109 112 108
3 109 110 114
3 118 117 116
3 117 113 112
3 117 112 116
3 116 112 119
3 115 121 120
3 115 120 112
3 112 120 119
3 121 122 120
3 118 116 123
3 116 119 124
3 123 116 124
3 119 120 125
3 124 119 125
3 120 122 125
3 128 127 126
3 24 126 127
3 24 127 23
3 23 127 129
3 130 25 23
3 130 23 131
3 131 23 129
3 131 132 130
3 134 128 126
3 133 134 126
3 26 126 24
3 26 135 126
3 135 133 126
3 25 135 26
3 25 130 135
3 130 136 135
3 132 137 136
3 130 132 136
3 139 134 133
3 138 139 133
3 29 135 28
3 29 138 135
3 138 133 135
3 28 140 30
3 28 135 140
3 135 136 140
3 137 141 140
3 136 137 140
3 138 32 33
3 138 33 139
3 139 33 142
3 138 29 32
3 140 36 30
3 36 143 37
3 140 143 36
3 140 144 143
3 140 141 144
3 144 145 143
3 148 147 146
3 147 39 146
3 147 142 39
3 142 33 39
3 149 37 143
3 42 37 149
3 145 150 149
3 143 145 149
3 146 44 45
3 146 45 148
3 148 45 151
3 146 39 44
3 149 49 42
3 49 149 150
3 49 150 50
3 50 150 152
3 151 45 153
3 153 45 52
3 152 154 50
3 154 56 50
3 57 155 156
3 57 156 52
3 52 156 153
3 57 59 155
3 154 157 56
3 157 62 56
3 156 155 158
3 155 159 158
3 155 59 159
3 59 64 159
3 67 160 68
3 160 67 62
3 160 62 161
3 161 62 157
3 159 64 162
3 162 64 70
3 163 68 160
3 73 68 163
3 161 164 163
3 160 161 163
3 167 166 165
3 166 75 165
3 166 162 75
3 162 70 75
3 163 78 73
3 78 163 164
3 78 164 79
3 79 164 168
3 165 81 82
3 165 82 167
3 167 82 169
3 165 75 81
3 168 170 79
3 170 86 79
3 169 82 171
3 171 82 88
3 170 172 86
3 172 92 86
3 93 173 174
3 93 174 88
3 88 174 171
3 93 95 173
3 172 175 92
3 175 99 92
3 177 174 173
3 176 177 173
3 173 101 176
3 95 101 173
3 104 178 105
3 178 104 99
3 178 99 179
3 179 99 175
3 177 176 180
3 176 181 180
3 176 101 181
3 101 107 181
3 182 105 178
3 182 183 105
3 183 110 105
3 178 179 182
3 111 184 185
3 111 185 107
3 107 185 181
3 111 113 184
3 114 186 115
3 186 114 110
3 186 110 187
3 187 110 183
3 190 189 188
3 184 117 118
3 185 184 118
3 185 118 188
3 185 188 189
3 184 113 117
3 186 121 115
3 121 186 187
3 121 187 122
3 122 187 191
3 190 188 192
3 188 118 123
3 188 123 192
3 192 123 193
3 193 123 194
3 123 124 194
3 194 124 195
3 124 125 195
3 195 125 122
3 191 195 122
3 128 197 196
3 127 128 196
3 196 198 127
3 127 198 129
3 198 199 129
3 129 199 131
3 131 199 200
3 132 131 200
3 197 128 201
3 201 128 134
3 200 202 132
3 202 137 132
3 201 134 203
3 203 134 139
3 202 204 137
3 204 141 137
3 203 139 205
3 205 139 142
3 204 144 141
3 206 144 204
3 144 206 207
3 145 144 207
3 148 209 208
3 147 148 208
3 208 142 147
3 205 142 208
3 207 210 145
3 210 150 145
3 209 148 211
3 211 148 151
3 210 212 150
3 212 152 150
3 211 151 213
3 213 151 153
3 212 214 152
3 214 154 152
3 213 153 215
3 215 153 156
3 214 216 154
3 216 157 154
3 215 156 158
3 217 215 158
3 158 218 217
3 159 218 158
3 216 219 157
3 219 161 157
3 218 159 220
3 220 159 162
3 219 221 161
3 221 164 161
3 167 223 222
3 166 167 222
3 222 162 166
3 220 162 222
3 221 224 164
3 224 168 164
3 223 167 225
3 225 167 169
3 224 226 168
3 226 170 168
3 225 169 227
3 227 169 171
3 226 228 170
3 228 172 170
3 227 171 229
3 229 171 174
3 228 230 172
3 230 175 172
3 229 174 231
3 231 174 177
3 230 232 175
3 232 179 175
3 231 177 180
3 233 231 180
3 180 234 233
3 181 234 180
3 183 235 236
3 182 235 183
3 235 182 179
3 232 235 179
3 234 181 237
3 237 181 185
3 236 238 183
3 238 187 183
3 190 240 239
3 189 190 239
3 239 185 189
3 237 185 239
3 238 241 187
3 241 191 187
3 240 190 192
3 242 240 192
3 242 192 243
3 192 193 243
3 243 193 244
3 193 194 244
3 244 194 245
3 194 195 245
3 245 195 191
3 241 245 191
3 196 197 246
3 198 196 246
3 247 198 246
3 199 198 247
3 248 199 247
3 199 248 200
3 249 246 197
3 201 249 197
3 246 249 247
3 247 249 250
3 247 250 248
3 248 250 251
3 248 251 202
3 200 248 202
3 252 249 201
3 203 252 201
3 253 252 254
3 253 250 252
3 250 249 252
3 256 250 253
3 256 255 250
3 255 251 250
3 251 255 204
3 202 251 204
3 257 252 203
3 257 203 258
3 258 203 205
3 252 257 254
3 256 259 255
3 261 260 206
3 259 261 206
3 259 206 204
3 259 204 255
3 206 260 207
3 208 209 262
3 262 205 208
3 262 263 205
3 263 258 205
3 265 260 261
3 264 260 265
3 260 264 210
3 207 260 210
3 266 262 209
3 211 266 209
3 263 266 267
3 262 266 263
3 265 268 264
3 264 268 269
3 264 269 210
3 210 269 212
3 270 266 211
3 213 270 211
3 267 270 271
3 266 270 267
3 269 272 212
3 272 214 212
3 273 270 213
3 215 273 213
3 271 273 274
3 270 273 271
3 272 275 214
3 275 216 214
3 273 215 217
3 217 274 273
3 217 218 274
3 218 276 274
3 279 277 278
3 278 277 219
3 278 219 275
3 275 219 216
3 276 218 280
3 280 218 220
3 282 277 279
3 281 277 282
3 277 281 221
3 219 277 221
3 222 223 283
3 283 220 222
3 283 284 220
3 284 280 220
3 282 285 281
3 281 285 286
3 281 286 221
3 221 286 224
3 287 283 223
3 287 223 288
3 288 223 225
3 283 287 284
3 286 289 224
3 289 226 224
3 288 225 290
3 290 225 227
3 289 291 226
3 291 228 226
3 292 293 290
3 292 290 229
3 229 290 227
3 293 292 294
3 297 295 296
3 296 295 230
3 296 230 291
3 291 230 228
3 298 292 229
3 231 298 229
3 294 298 299
3 292 298 294
3 301 295 297
3 300 295 301
3 295 300 232
3 230 295 232
3 298 231 233
3 233 299 298
3 233 234 299
3 234 302 299
3 305 303 304
3 300 236 235
3 301 236 300
3 301 303 236
3 301 304 303
3 300 235 232
3 306 307 302
3 306 302 237
3 237 302 234
3 307 306 308
3 310 303 305
3 309 303 310
3 303 309 238
3 236 303 238
3 239 240 311
3 311 313 312
3 239 311 312
3 239 312 306
3 239 306 237
3 306 312 308
3 315 309 310
3 314 309 315
3 309 314 241
3 238 309 241
3 311 240 242
3 313 311 242
3 313 242 316
3 316 242 243
3 316 243 317
3 243 244 317
3 314 315 317
3 314 317 245
3 245 317 244
3 314 245 241
3 253 254 318
3 253 318 256
3 257 258 319
3 254 257 319
3 254 319 318
3 318 319 320
3 259 256 318
3 259 318 321
3 321 318 320
3 259 321 261
3 322 319 258
3 263 322 258
3 319 322 320
3 320 322 323
3 320 323 321
3 321 323 324
3 321 324 265
3 261 321 265
3 325 322 263
3 267 325 263
3 326 325 327
3 326 323 325
3 323 322 325
3 329 323 326
3 329 328 323
3 328 324 323
3 268 265 324
3 268 324 330
3 330 324 328
3 268 330 269
3 331 325 267
3 271 331 267
3 327 331 332
3 325 331 327
3 334 328 329
3 333 328 334
3 328 333 330
3 330 333 335
3 330 335 272
3 269 330 272
3 336 331 271
3 274 336 271
3 332 337 338
3 332 331 337
3 331 336 337
3 338 333 334
3 338 337 333
3 337 339 333
3 333 339 335
3 335 339 340
3 335 340 275
3 272 335 275
3 341 336 274
3 276 341 274
3 336 341 337
3 337 341 342
3 337 342 339
3 339 342 343
3 279 278 340
3 279 340 343
3 343 340 339
3 340 278 275
3 344 341 276
3 280 344 276
3 341 344 342
3 342 344 345
3 342 345 343
3 343 345 346
3 343 346 282
3 279 343 282
3 347 344 280
3 284 347 280
3 344 347 345
3 345 347 348
3 345 348 346
3 346 348 349
3 285 282 346
3 285 346 350
3 350 346 349
3 285 350 286
3 287 288 351
3 284 287 351
3 284 351 347
3 347 351 352
3 353 352 354
3 353 348 352
3 348 347 352
3 356 348 353
3 356 355 348
3 355 349 348
3 349 355 350
3 350 355 357
3 350 357 289
3 286 350 289
3 358 351 288
3 290 358 288
3 351 358 352
3 352 358 359
3 354 359 360
3 352 359 354
3 362 355 356
3 361 355 362
3 355 361 357
3 357 361 363
3 357 363 291
3 289 357 291
3 358 290 293
3 293 294 364
3 293 364 358
3 358 364 359
3 360 365 366
3 360 359 365
3 359 364 365
3 366 361 362
3 366 365 361
3 365 367 361
3 297 296 363
3 297 363 367
3 367 363 361
3 363 296 291
3 368 364 294
3 299 368 294
3 364 368 365
3 365 368 369
3 365 369 367
3 367 369 370
3 367 370 301
3 297 367 301
3 371 368 299
3 302 371 299
3 368 371 369
3 369 371 372
3 305 304 370
3 305 370 372
3 372 370 369
3 370 304 301
3 371 302 307
3 307 308 373
3 307 373 371
3 371 373 372
3 372 373 310
3 305 372 310
3 312 313 374
3 308 312 374
3 308 374 373
3 373 374 375
3 373 375 315
3 310 373 315
3 374 313 316
3 375 374 316
3 317 375 316
3 375 317 315
3 326 327 376
3 326 376 329
3 377 376 327
3 332 377 327
3 376 377 334
3 329 376 334
3 377 332 338
3 377 338 334
3 353 354 378
3 353 378 356
3 379 378 354
3 360 379 354
3 378 379 362
3 356 378 362
3 379 360 366
3 379 366 362
