ply
format ascii 1.0
element vertex 572
property float x
property float y
property float z
property uchar red
property uchar green
property uchar blue
element face 1132
property list uchar int vertex_indices
end_header
-9.90777587890625 5 -2 8 5 8
-9 4.89975070953369141 -2 84 64 87
-9 5 -2.97849416732788086 31 25 36
-9.81861782073974609 5 -1 21 16 22
-9 4.96043586730957031 -1 101 79 102
-9.52881813049316406 5 0 30 23 31
-9 4.99005270004272461 0 109 89 109
-9 5 0.849802970886230469 79 69 83
-9 5.16431903839111328 -2 54 45 59
-9 5.13133430480957031 -1 70 60 75
-9 5.03239870071411133 0 79 69 83
-8.06648159027099609 5 -5 23 15 26
-8 4.88242435455322266 -5 40 29 46
-8 5 -5.10214328765869141 23 16 27
-8 5 -4.64848566055297852 13 11 16
-8.9256591796875 5 -2 54 45 59
-8.96707630157470703 5 -1 70 60 75
-8.99167537689208984 5 0 79 69 83
-8 5.10912036895751953 -5 13 11 16
-8.09500694274902344 6 -4 13 9 14
-8 5.54656887054443359 -4 50 40 57
-8 6 -4.1578669548034668 10 8 12
-8.27137470245361328 6 -3 8 6 9
-8 5.72266244888305664 -3 84 67 89
-8.3177337646484375 6 -2 27 22 30
-8 5.84018707275390625 -2 109 89 111
-8.20287990570068359 6 -1 41 35 45
-8 5.94579505920410156 -1 124 105 124
-8.11299610137939453 6 0 50 44 53
-8 5.96905231475830078 0 131 116 131
-8.19228458404541016 6 1 53 47 55
-8 5.8981938362121582 1 131 122 131
-8.16501522064208984 6 2 50 45 51
-8 5.83187294006347656 2 124 120 124
-8 6 2.65767431259155273 93 91 94
-8 6.11800241470336914 -4 19 17 23
-8 6.44459867477416992 -3 48 42 54
-8.01960468292236328 7 -2 8 7 9
-8 7 -2.05707836151123047 17 15 19
-8.13513088226318359 7 -1 20 17 21
-8.11479663848876953 7 0 29 24 30
-8 6.64567756652832031 1 99 95 100
-8 7 0.669050693511962891 61 58 64
-8 6.25469684600830078 2 93 91 94
-8 7.02234125137329102 -2 37 34 41
-8 7.15493488311767578 -1 52 49 56
-8 7.13105440139770508 0 61 58 64
-7.07941484451293945 5 -6 23 16 27
-7 4.94308042526245117 -6 39 27 44
-7 5 -6.10131120681762695 31 24 40
-7.91068124771118164 5 -5 13 11 16
-7 5 -5.93077611923217773 11 9 13
-7 5.19119358062744141 -6 11 9 13
-7.31956863403320312 6 -5 10 8 12
-7 5.72670745849609375 -5 58 45 64
-7 6 -5.54448652267456055 14 12 18
-7.40488910675048828 6 -4 19 17 23
-7 6 -4.21356630325317383 22 20 27
-7.72198820114135742 6 -3 48 42 54
-7.837493896484375 6 -2 71 64 78
-7.94444799423217773 6 -1 88 81 93
-7.96831083297729492 6 0 97 91 100
-7.89665746688842773 6 1 99 95 100
-7.83152103424072266 6 2 93 91 94
-7.06969738006591797 6 4 63 62 63
-7 5.93832254409790039 4 129 119 129
-7 6 3.82596969604492188 118 112 120
-7 6 4.09811925888061523 97 92 99
-7 6.43701982498168945 -5 22 20 27
-7.26292705535888672 7 -4 4 3 5
-7 6.20329809188842773 -4 60 53 68
-7 7 -4.45238971710205078 6 5 7
-7.53045892715454102 7 -3 17 15 19
-7 6.6479039192199707 -3 94 82 99
-7 6.74039840698242188 -2 118 104 120
-7 6.80266571044921875 -1 132 121 133
-7 6.8166961669921875 0 139 133 139
-7.82176637649536133 7 1 64 61 65
-7 6.77423095703125 1 139 139 139
-7.40276908874511719 7 2 60 58 61
-7 6.71436357498168945 2 132 127 133
-7.12657785415649414 7 3 53 52 53
-7 6.67502784729003906 3 118 112 120
-7 6.08985328674316406 4 97 92 99
-7 7 3.18405508995056152 82 79 84
-7 7.28278064727783203 -4 23 22 27
-7 7.58280515670776367 -3 52 49 58
-7.08283710479736328 8 -2 14 12 15
-7 8 -2.2283015251159668 17 16 19
-7.20446395874023438 8 -1 26 23 27
-7.18409490585327148 8 0 34 32 36
-7 7.99938344955444336 1 103 102 104
-7 8 0.999060630798339844 62 61 62
-7 7.43631505966186523 2 95 93 97
-7 7.1341705322265625 3 82 79 84
-7 8.90915966033935547 -2 37 35 40
-7 8.96383380889892578 -1 52 51 54
-7 8.9598846435546875 0 62 61 62
-6.04154586791992188 5 -7 31 24 40
-6 4.97784328460693359 -7 21 15 24
-6 5 -7.02933835983276367 50 38 65
-6.94385814666748047 5 -6 11 9 13
-6 5 -6.97764015197753906 4 3 5
-6 5.07272100448608398 -7 4 3 5
-6.50948858261108398 6 -6 14 12 18
-6 5.79279613494873047 -6 48 37 53
-6 6 -6.47262430191040039 29 24 37
-6.65945291519165039 6 -5 22 20 27
-6 6 -5.69025611877441406 13 11 16
-6.92667818069458008 6 4 97 92 99
-6 6.56258869171142578 -6 13 11 16
-6.51737689971923828 7 -5 6 5 7
-6 6.58371829986572266 -5 59 51 66
-6 7 -5.67149114608764648 17 15 21
-6 6.79196548461914062 -4 100 84 104
-6.41345405578613281 7 -3 52 49 58
-6 7 -3.49754142761230469 57 54 63
-6.67125177383422852 7 -2 76 73 82
-6.76778745651245117 7 -1 94 91 97
-6.78560590744018555 7 0 103 102 104
-6.72136497497558594 7 1 103 102 104
-6.56130075454711914 7 2 95 93 97
-6 6.90365171432495117 3 149 132 148
-6 7 2.77964448928833008 126 115 129
-6.27560901641845703 7 4 66 64 67
-6 6.76632452011108398 4 129 111 131
-6 7 4.31151008605957031 90 82 95
-6 7.44343900680541992 -5 19 18 23
-6.24383449554443359 8 -4 4 3 4
-6 8 -4.33429288864135742 12 11 14
-6.5962214469909668 8 -3 17 16 19
-6 7.40007495880126953 -3 90 85 95
-6 7.63519573211669922 -2 114 110 116
-6 7.6778874397277832 -1 129 128 129
-6 7.68215465545654297 0 135 131 136
-6.99954986572265625 8 1 64 64 64
-6 7.65390586853027344 1 134 126 136
-6.4753875732421875 8 2 60 59 61
-6 7.52219581604003906 2 126 115 129
-6.07025527954101562 8 3 54 52 54
-6 7.24504899978637695 4 90 82 95
-6 8 3.08578991889953613 72 67 76
-6 8.96638393402099609 -4 16 15 18
-6 8.98037433624267578 -3 45 44 48
-6 8.98015880584716797 -2 69 68 71
-6 8.98035049438476562 -1 86 86 86
-6 8.98039150238037109 0 91 89 94
-6 8.98038578033447266 1 89 87 94
-6 8.97918128967285156 2 83 79 88
-6 8.89000701904296875 3 72 67 76
-5.22593116760253906 4 -3 138 111 159
-5 3.49055123329162598 -3 110 111 156
-5 4 -3.47845458984375 120 100 151
-5.56122493743896484 4 -2 147 126 169
-5 3.6329648494720459 -2 124 128 161
-5.76059961318969727 4 -1 156 138 175
-5 3.76429367065429688 -1 137 140 165
-5.52598476409912109 4 0 165 148 179
-5 3.83535313606262207 0 148 149 170
-5.15556001663208008 4 1 173 157 182
-5 3.89704394340515137 1 159 157 175
-5 4 1.38159990310668945 169 163 181
-5.97410821914672852 5 -7 4 3 5
-5 4.44944381713867188 -3 128 115 161
-5.14119434356689453 5 -2 153 129 163
-5 5 -2.45939350128173828 139 120 160
-5.25942087173461914 5 -1 162 142 171
-5.21205997467041016 5 0 169 153 176
-5.0126338005065918 5 1 174 161 177
-5 5 1.03040921688079834 176 167 182
-5.45800638198852539 6 -7 29 24 37
-5 5.7773590087890625 -7 22 17 25
-5 6 -7.24892997741699219 53 44 69
-5.70310068130493164 6 -6 13 11 16
-5 6 -6.71521854400634766 9 8 12
-5 5.1468501091003418 -2 149 135 169
-5 5.27812910079956055 -1 159 148 175
-5 5.22708225250244141 0 168 159 180
-5 5.01311302185058594 1 176 167 182
-5 6.34603452682495117 -7 9 8 12
-5.66349315643310547 7 -6 17 15 21
-5 6.60703897476196289 -6 41 35 47
-5 7 -6.46243762969970703 37 33 47
-5 6.89778470993041992 -5 89 74 94
-5.72019195556640625 7 -4 57 54 63
-5 7 -4.85059881210327148 46 44 53
-5.87847185134887695 7 3 110 101 116
-5.35591030120849609 7 4 90 82 95
-5.23566007614135742 7 5 69 62 70
-5 6.84013175964355469 5 127 101 129
-5 7 4.44778966903686523 113 96 120
-5 7 5.17073297500610352 86 74 93
-5 7.4175262451171875 -6 2 2 3
-5.41021585464477539 8 -5 12 11 14
-5 8 -5.39346790313720703 29 26 34
-5 7.63632440567016602 -4 88 82 92
-5 7.72033119201660156 -3 118 111 121
-5 7.85997819900512695 -2 138 133 139
-5.12262773513793945 8 -1 86 86 86
-5 8 -1.25479817390441895 98 97 99
-5.1740565299987793 8 0 91 89 94
-5 7.92043733596801758 1 155 143 156
-5 8 0.484814912080764771 114 108 120
-5 7.76279115676879883 2 149 131 151
-5 7.68611526489257812 3 136 114 140
-5.16871166229248047 8 4 60 54 61
-5 7.46914768218994141 4 113 96 120
-5 7.16695833206176758 5 86 74 93
-5 8 4.15533208847045898 73 65 79
-5 8.97550106048583984 -5 4 4 5
-5 8.98019313812255859 -4 40 40 44
-5 8.97928714752197266 -3 74 73 76
-5 8.95325851440429688 -2 98 97 99
-5 8.91801071166992188 1 112 103 120
-5 8.97573661804199219 2 103 94 113
-5 8.97961044311523438 3 89 81 99
-5 8.94594478607177734 4 73 65 79
-4.48620223999023438 4 -4 120 100 151
-4 3.62817001342773438 -4 97 105 143
-4 4 -4.40727853775024414 103 87 137
-4 3.84019684791564941 -3 111 124 146
-4.2199101448059082 4 -2 137 130 168
-4 4 -2.30489015579223633 118 118 156
-4.58497238159179688 4 -1 149 143 173
-4.71180820465087891 4 0 160 155 177
-4.78528451919555664 4 1 169 163 181
-4 4.84474802017211914 -4 110 103 149
-4.65037298202514648 5 -3 139 120 160
-4 5 -3.92319369316101074 122 107 149
-4 4.11533975601196289 -2 132 133 160
-4 4.34808921813964844 -1 145 146 165
-4 4.42009592056274414 0 156 156 169
-4 4.40236663818359375 1 167 166 175
-4.21988439559936523 5 2 180 173 183
-4 4.48581027984619141 2 175 173 180
-4 5 2.24389910697937012 181 178 183
-4.44812536239624023 6 -7 9 8 12
-4 5.49704885482788086 -3 132 123 160
-4.11721992492675781 6 -2 152 138 161
-4 6 -2.25831031799316406 139 126 155
-4.29300832748413086 6 -1 162 151 169
-4.24338293075561523 6 0 170 162 174
-4 5.92778301239013672 1 175 171 181
-4 6 0.902841567993164062 171 165 177
-4 5.17104005813598633 2 181 178 183
-4.34016323089599609 7 -7 37 33 47
-4 6.45457601547241211 -7 8 7 9
-4 7 -7.19350624084472656 64 56 82
-4 6.82538938522338867 -6 63 53 68
-4.85546541213989258 7 -5 46 44 53
-4 7 -5.76430606842041016 20 20 24
-4 6.07993268966674805 -2 151 141 166
-4 6.1844487190246582 -1 162 155 173
-4 6.15464925765991211 0 171 165 177
-4.26593255996704102 7 5 86 74 93
-4 7.21057462692260742 -7 25 24 32
-4.26614284515380859 8 -6 29 26 34
-4 8 -6.18380546569824219 52 48 63
-4 7.64347553253173828 -5 69 64 74
-4 7.77405452728271484 -4 107 99 111
-4.4251713752746582 8 -3 74 73 76
-4 8 -3.48732376098632812 62 62 65
-4.80389070510864258 8 -2 98 97 99
-4.89172267913818359 8 1 112 103 120
-4.56860876083374023 8 2 103 94 113
-4 7.87710475921630859 3 153 127 154
-4 8 2.73720955848693848 121 102 130
-4 7.71603107452392578 4 134 104 137
-4 8 4.75900983810424805 84 72 96
-4 8.95700740814208984 -6 18 18 21
-4 8.98034381866455078 -5 21 21 24
-4 8.97353744506835938 -4 62 62 65
-4 8.94973468780517578 3 105 89 117
-4 8.97800540924072266 4 84 72 96
-3.14062070846557617 4 -5 103 87 137
-3 3.87911152839660645 -5 83 91 128
-3 4 -5.05004215240478516 88 71 116
-3 3.91230058670043945 -4 96 111 131
-3.64716792106628418 4 -3 118 118 156
-3 4 -3.76867842674255371 103 106 142
-3 4.10687637329101562 -5 95 89 134
-3.91157960891723633 5 -4 122 107 149
-3 5 -4.48774099349975586 105 91 132
-3 4.36246871948242188 -3 117 123 146
-3 4.62625360488891602 -2 131 136 149
-3 4.75263309478759766 -1 144 147 153
-3 4.79302406311035156 0 156 156 159
-3 4.76398277282714844 1 165 165 165
-3 4.70835685729980469 2 171 170 172
-3 5 2.87563920021057129 179 178 180
-3.86246800422668457 6 -8 40 37 55
-3 5.85549259185791016 -8 6 4 7
-3 6 -8.13880825042724609 77 65 103
-3 6 -7.8515477180480957 33 31 44
-3 5.41780376434326172 -4 115 109 147
-3.42738056182861328 6 -3 139 126 155
-3 6 -3.38720870018005371 122 109 141
-3.93886780738830566 6 1 177 174 180
-3.04502415657043457 6 2 179 179 179
-3 6 2.03582644462585449 178 176 180
-3 6.21678447723388672 -8 33 31 44
-3 6.71136093139648438 -7 20 18 23
-3 7 -7.39180850982666016 60 56 78
-3.62555932998657227 7 -6 20 20 24
-3 7 -6.5334782600402832 17 17 21
-3 6.17861843109130859 -3 135 127 156
-3 6.43609142303466797 -2 148 142 165
-3 6.60490274429321289 -1 159 156 171
-3 6.55533647537231445 0 170 167 175
-3 6.32432031631469727 1 177 177 179
-3 6.02020835876464844 2 178 176 180
-3.27519798278808594 7 6 71 57 76
-3 6.95403814315795898 6 123 88 123
-3 7 5.93193244934082031 115 85 121
-3 7 6.05400753021240234 78 60 86
-3 7.44218921661376953 -7 17 17 21
-3 7.48979043960571289 -6 34 32 38
-3 8 -6.48567295074462891 50 48 60
-3 7.73876523971557617 -5 82 75 86
-3.51677298545837402 8 -4 62 62 65
-3 8 -4.46971368789672852 34 34 36
-3.77223992347717285 8 3 105 89 117
-3 7.84217691421508789 4 145 113 146
-3 8 3.71456480026245117 117 92 127
-3.67755508422851562 8 5 64 53 70
-3 7.7368321418762207 5 115 85 121
-3 7.06145811080932617 6 78 60 86
-3 8 5.24254465103149414 68 56 79
-3 8.97972011566162109 -6 10 10 12
-3 8.9779815673828125 -5 34 34 36
-3 8.96239280700683594 4 93 75 107
-3 8.96739101409912109 5 68 56 79
-2 3.9491269588470459 -5 80 93 117
-2 4 -5.06553411483764648 81 71 112
-2.71747541427612305 4 -4 103 106 142
-2 4 -4.86239242553710938 88 88 126
-2 4.65021610260009766 -5 88 88 126
-2 4.34655618667602539 -4 101 107 132
-2 5 -4.95645761489868164 99 91 128
-2 4.68121910095214844 -3 113 121 135
-2 4.8799281120300293 -2 127 131 137
-2.0408470630645752 5 -1 151 151 166
-2 5 -1.07427775859832764 136 137 153
-2.21150112152099609 5 0 163 162 171
-2 4.99916601181030273 1 147 149 154
-2 5 0.984066426753997803 160 160 162
-2 4.91371870040893555 2 155 155 163
-2.40503883361816406 5 3 179 176 182
-2 4.96507024765014648 3 163 161 171
-2 5 3.03933000564575195 171 166 177
-2 5.99492073059082031 -8 1 1 2
-2 6 -8.00858211517333984 74 65 104
-2 6 -7.99479389190673828 30 29 40
-2.01389694213867188 6 -4 122 109 141
-2 6 -4.0053253173828125 101 87 118
-2 5.02053356170654297 -1 148 149 157
-2 5.10494661331176758 0 160 160 162
-2 5.05277061462402344 3 171 166 177
-2 6 2.40346026420593262 171 168 176
-2 6.02852725982666016 -8 30 29 40
-2 6.81410551071166992 -7 25 21 28
-2 7 -7.56164264678955078 58 56 77
-2 7 -6.77040433883666992 14 14 17
-2 6.00389528274536133 -4 118 110 139
-2 6.39129495620727539 -3 131 127 152
-2 6.84598541259765625 -2 144 142 160
-2.25501322746276855 7 -1 160 156 164
-2 7 -1.54187917709350586 146 142 154
-2.15018653869628906 7 0 168 167 169
-2 6.63930273056030273 1 172 171 174
-2 7 0.215901553630828857 167 167 167
-2 6.20436954498291016 2 171 168 176
-2.65601611137390137 7 6 78 60 86
-2 7.73715305328369141 -7 14 14 17
-2 7.66673564910888672 -6 39 37 42
-2 8 -6.8246769905090332 50 50 60
-2 7.93348836898803711 -5 84 76 89
-2 8 -4.90698528289794922 40 40 41
-2 7.07035112380981445 -1 158 156 162
-2 7.04229402542114258 0 167 167 167
-2.46530985832214355 8 4 93 75 107
-2 7.77933216094970703 5 122 87 125
-2 8 4.39149904251098633 97 74 111
-2 8 5.37552690505981445 68 54 82
-2 8.98021602630615234 -6 8 8 9
-2 8.90276336669921875 -5 40 40 41
-2 8.97192096710205078 5 68 54 82
-1.72413372993469238 4 -5 88 88 126
-1.64116382598876953 5 -5 99 91 128
-1 4.73196792602539062 -5 83 86 117
-1 5 -5.02637910842895508 78 64 98
-1 4.59988832473754883 -4 96 104 122
-1 4.85018301010131836 -3 107 114 123
-1.33063936233520508 5 -2 136 137 153
-1 5 -2.29996728897094727 119 121 139
-1.9955979585647583 5 1 165 165 168
-1.46500098705291748 5 2 168 166 173
-1.7317579984664917 5 3 171 166 177
-1.97000837326049805 6 -8 30 29 40
-1 5.0297698974609375 -5 92 87 121
-1 6 -4.10654926300048828 95 83 112
-1 5.12109613418579102 -2 131 133 143
-1 5.34270954132080078 -1 144 144 148
-1 5.39976692199707031 0 151 152 153
-1 5.3501887321472168 1 153 153 160
-1 5.22985696792602539 2 157 155 166
-1 6 2.50595235824584961 163 158 171
-1 6.92319583892822266 -7 21 17 24
-1 7 -7.56653547286987305 60 59 82
-1 7 -6.91155147552490234 17 17 21
-1 6.07362651824951172 -4 112 107 133
-1 6.48815774917602539 -3 127 125 145
-1.37830615043640137 7 -2 146 142 154
-1 7 -2.11411428451538086 127 121 136
-1 6.82591438293457031 1 162 161 168
-1 7 0.687741398811340332 160 159 162
-1 6.25611734390258789 2 163 158 171
-1.31375563144683838 8 -7 50 50 60
-1 8 -7.03829622268676758 85 78 108
-1 7.71097803115844727 -6 35 32 38
-1.72358620166778564 8 -5 40 40 41
-1 8 -5.33699703216552734 12 12 13
-1 7.03661966323852539 -2 143 140 149
-1 7.13965702056884766 -1 155 154 157
-1 7.11435747146606445 0 160 159 162
-1 7.82613086700439453 5 120 88 122
-1 8 4.66873550415039062 96 72 107
-1 8 5.40212726593017578 65 52 78
-1 8.82805919647216797 -7 54 54 66
-1 8.97951412200927734 -6 12 12 13
-1 8.9656982421875 5 65 52 78
-0.750848233699798584 5 -5 92 87 121
0 4.74819040298461914 -4 86 94 112
0 5 -4.6830897331237793 82 78 111
0 4.94294309616088867 -3 96 104 113
0 5 -2.74306154251098633 109 112 130
-0.00327325914986431599 6 -4 112 107 133
0 5.99803876876831055 -4 95 96 123
0 6 -3.99905109405517578 101 96 123
0 5.29141855239868164 -2 121 124 134
0 5.46602439880371094 -1 133 134 139
0 5.52003383636474609 0 145 145 145
0 5.50479030609130859 1 147 147 152
0 5.55100011825561523 2 152 151 159
0 6 2.29761219024658203 158 155 164
0 6.97070550918579102 -7 10 7 11
0 7 -7.2013554573059082 66 66 94
0 7 -6.96662425994873047 26 26 34
0 6.38532495498657227 -3 116 115 136
-0.441236287355422974 7 -2 143 140 149
0 6.9035181999206543 -2 131 130 144
0 7 -1.74493753910064697 132 129 140
0 6.62439250946044922 1 157 156 161
0 7 0.314981132745742798 154 153 155
0 6.15383291244506836 2 158 155 164
-0.35949292778968811 8 -7 54 54 66
0 7.60823822021484375 -7 26 26 34
0 7.72786331176757812 -6 23 21 26
0 8 -6.94385814666748047 62 63 78
0 8 -5.41596078872680664 23 23 26
0 7.08282947540283203 -1 145 144 149
0 7.05538415908813477 0 154 153 155
0 7.85989856719970703 5 110 84 112
0 8 4.74386358261108398 87 67 97
0 8 5.30815410614013672 55 45 66
0 8.97846794128417969 -6 23 23 26
0 8.95683193206787109 5 55 45 66
1 4.92961835861206055 -4 75 82 102
1 5 -4.1004486083984375 72 66 98
1 4.9910130500793457 -3 85 93 105
1 5 -2.95275425910949707 97 99 120
1 5.10648918151855469 -4 83 83 112
1 6 -3.33579182624816895 89 83 110
1 5.36568927764892578 -2 109 112 126
1 5.51834297180175781 -1 121 122 131
1 5.58633708953857422 0 132 133 137
1 5.64717197418212891 1 143 143 144
0.674354910850524902 6 2 158 155 164
1 6 1.71391868591308594 152 152 152
1 6.92914533615112305 -7 8 6 9
1 7 -7.18128347396850586 75 74 110
1 7 -6.91627073287963867 41 41 54
1 6.14295673370361328 -3 104 102 125
1 6.41473770141601562 -2 118 117 134
0.397690802812576294 7 -1 145 144 149
1 6.60689878463745117 -1 131 130 142
0.259773671627044678 7 0 154 153 155
1 6.51951980590820312 0 143 142 147
1 6.23466777801513672 1 152 152 152
1 7.23174476623535156 -7 41 41 54
1 7.7263336181640625 -6 4 4 5
1 8 -6.55431890487670898 73 73 95
1 8 -5.23907136917114258 39 40 46
1 7.88509273529052734 5 92 71 94
1 8 4.73046350479125977 69 55 78
1 8 5.17742109298706055 39 32 46
1 8.97727680206298828 -6 39 40 46
1 8.94474315643310547 5 39 32 46
1.14545249938964844 5 -4 83 83 112
1.09685897827148438 5 -3 97 99 120
1.37833595275878906 6 -3 104 102 125
2 5.90442657470703125 -2 97 98 117
2 6 -2.05504941940307617 91 86 110
2 5.74881172180175781 -1 108 109 123
2 5.88901424407958984 0 119 119 130
1.57742011547088623 6 1 152 152 152
2 6 0.224515318870544434 128 126 136
2 6.90690326690673828 -7 31 26 39
2 7 -7.11566638946533203 89 84 130
2 7 -6.86821269989013672 58 60 81
2 6.01376152038574219 -2 105 102 122
2 6.08757114410400391 -1 117 115 130
2 6.0391545295715332 0 128 126 136
2 7.12656450271606445 -7 58 60 81
2 7.73654317855834961 -6 20 19 24
2 8 -6.25454568862915039 88 85 116
1.4034721851348877 8 -5 3 3 3
2 7.87380552291870117 -5 23 20 26
2 8 -4.79414224624633789 22 22 26
1.80112290382385254 8 5 39 32 46
2 8.96742343902587891 -6 59 61 73
2 8.95232963562011719 -5 22 22 26
2.02354049682617188 6 -2 105 102 122
2.1493067741394043 6 -1 117 115 130
2.06628084182739258 6 0 128 126 136
2.33806467056274414 7 -7 58 60 81
2.49639654159545898 8 -6 59 61 73
3 7.79296255111694336 -5 9 8 11
3 8 -5.51769065856933594 80 80 103
3 8 -4.2152867317199707 52 53 62
2.60819196701049805 8 4 43 37 50
3 7.95561504364013672 4 62 54 64
3 8 3.84526610374450684 34 30 38
3 8 4.08355140686035156 11 10 13
3 8.97000408172607422 -5 52 53 62
3 8.86285209655761719 4 11 10 13
3.62743139266967773 8 -5 52 53 62
3.2691342830657959 8 -4 19 19 21
4 7.84220409393310547 -4 13 11 14
4 8 -4.55647897720336914 79 80 100
4 8 -3.02440071105957031 55 56 65
3.93816423416137695 8 3 34 30 38
4 7.98368978500366211 3 44 41 44
4 8 2.89047551155090332 8 8 9
3.10805678367614746 8 4 11 10 13
4 8 3.04179668426513672 6 6 7
4 8.96014881134033203 -4 55 56 65
4 8.69374370574951172 3 6 6 7
4.31144189834594727 8 -4 55 56 65
4.48492717742919922 8 -3 30 30 33
5 7.99411916732788086 -3 31 28 34
5 8 -3.01187348365783691 88 87 109
4.80791139602661133 8 -2 7 7 7
5 7.92069530487060547 -2 8 7 9
4.91946744918823242 8 -1 9 9 9
5 7.95427370071411133 -1 7 7 8
4.95944976806640625 8 0 17 17 18
5 7.97662115097045898 0 16 15 16
4.97373294830322266 8 1 17 16 18
5 7.98849678039550781 1 16 16 16
5 8 1.08515667915344238 34 34 35
4.02867984771728516 8 3 6 6 7
5 8.39026451110839844 -3 71 71 82
5 8.92013931274414062 -2 55 54 60
5 8.87048149108886719 -1 42 42 44
5 8.77139854431152344 0 35 35 35
5 8.61420440673828125 1 34 34 35
5.0054168701171875 8 -3 71 71 82
5.11558198928833008 8 -2 55 54 60
5.08653068542480469 8 -1 42 42 44
5.04351234436035156 8 0 35 35 35
5.01624441146850586 8 1 34 34 35
3 2 1 0
3 1 4 3
3 0 1 3
3 4 6 5
3 3 4 5
3 6 7 5
3 2 0 8
3 0 3 9
3 8 0 9
3 3 5 10
3 9 3 10
3 5 7 10
3 13 12 11
3 12 14 11
3 1 2 15
3 4 1 15
3 16 4 15
3 6 4 16
3 17 6 16
3 6 17 7
3 13 11 18
3 21 18 11
3 21 11 19
3 14 20 11
3 20 19 11
3 20 23 22
3 19 20 22
3 24 22 2
3 24 2 8
3 22 23 2
3 15 2 25
3 23 25 2
3 8 26 24
3 8 9 26
3 25 27 15
3 27 16 15
3 9 28 26
3 9 10 28
3 27 29 16
3 29 17 16
3 29 31 7
3 29 7 17
3 31 30 7
3 10 7 28
3 30 28 7
3 31 33 32
3 30 31 32
3 33 34 32
3 21 19 35
3 19 22 36
3 35 19 36
3 38 36 22
3 38 22 37
3 37 22 24
3 24 26 37
3 26 39 37
3 26 28 39
3 28 40 39
3 41 42 40
3 41 40 30
3 30 40 28
3 30 32 43
3 41 30 43
3 32 34 43
3 38 37 44
3 37 39 45
3 44 37 45
3 39 40 46
3 45 39 46
3 40 42 46
3 49 48 47
3 13 47 48
3 13 48 12
3 51 50 48
3 50 12 48
3 12 50 14
3 49 47 52
3 52 53 55
3 52 18 53
3 52 47 18
3 13 18 47
3 51 54 50
3 54 14 50
3 54 20 14
3 54 57 20
3 56 20 57
3 53 18 21
3 23 20 56
3 58 23 56
3 25 23 58
3 59 25 58
3 27 25 59
3 60 27 59
3 29 27 60
3 61 29 60
3 31 29 61
3 62 31 61
3 33 31 62
3 63 33 62
3 33 63 34
3 66 65 64
3 65 67 64
3 55 53 68
3 68 69 71
3 68 35 69
3 68 53 35
3 21 35 53
3 57 70 56
3 35 72 69
3 35 36 72
3 70 73 56
3 73 58 56
3 58 74 59
3 58 73 74
3 72 36 38
3 59 75 60
3 74 75 59
3 60 76 61
3 75 76 60
3 78 61 76
3 78 62 61
3 41 77 42
3 41 79 77
3 41 43 79
3 78 80 62
3 80 63 62
3 80 82 34
3 80 34 63
3 82 81 34
3 43 34 79
3 81 79 34
3 83 84 81
3 83 81 64
3 82 66 81
3 66 64 81
3 64 67 83
3 71 69 85
3 69 72 86
3 85 69 86
3 88 44 87
3 86 44 88
3 86 38 44
3 86 72 38
3 45 87 44
3 89 87 45
3 46 89 45
3 90 89 46
3 90 91 92
3 46 91 90
3 46 77 91
3 46 42 77
3 77 79 93
3 91 77 93
3 79 81 94
3 93 79 94
3 81 84 94
3 88 87 95
3 87 89 96
3 95 87 96
3 89 90 97
3 96 89 97
3 90 92 97
3 100 99 98
3 49 98 99
3 49 99 48
3 102 101 99
3 101 48 99
3 48 101 51
3 100 98 103
3 103 104 106
3 103 52 104
3 103 98 52
3 49 52 98
3 102 105 101
3 105 51 101
3 105 54 51
3 105 108 54
3 107 54 108
3 104 52 55
3 54 107 57
3 65 66 109
3 65 109 67
3 106 104 110
3 110 111 113
3 110 68 111
3 110 104 68
3 55 68 104
3 108 112 107
3 111 68 71
3 107 112 57
3 112 70 57
3 112 114 70
3 116 115 73
3 116 73 114
3 114 73 70
3 74 73 115
3 117 74 115
3 75 74 117
3 118 75 117
3 76 75 118
3 119 76 118
3 78 76 119
3 120 78 119
3 80 78 120
3 121 80 120
3 121 123 122
3 121 122 80
3 80 122 82
3 84 83 124
3 66 82 109
3 82 125 109
3 82 122 125
3 124 83 67
3 124 67 126
3 109 125 67
3 125 126 67
3 113 111 127
3 129 85 128
3 127 85 129
3 127 71 85
3 127 111 71
3 86 128 85
3 86 130 128
3 131 115 116
3 115 132 117
3 115 131 132
3 130 86 88
3 117 133 118
3 132 133 117
3 118 134 119
3 133 134 118
3 136 119 134
3 136 120 119
3 91 135 92
3 91 137 135
3 91 93 137
3 136 138 120
3 138 121 120
3 137 94 139
3 137 93 94
3 121 138 123
3 139 140 141
3 94 140 139
3 94 124 140
3 94 84 124
3 124 126 140
3 129 128 142
3 128 130 143
3 142 128 143
3 130 88 95
3 130 95 143
3 143 95 144
3 144 95 145
3 95 96 145
3 145 96 146
3 96 97 146
3 92 135 147
3 92 147 97
3 97 147 146
3 135 137 148
3 147 135 148
3 137 139 149
3 148 137 149
3 139 141 149
3 152 151 150
3 151 154 153
3 150 151 153
3 154 156 155
3 153 154 155
3 156 158 157
3 155 156 157
3 158 160 159
3 157 158 159
3 160 161 159
3 99 100 162
3 99 162 102
3 152 150 163
3 165 163 150
3 165 150 164
3 164 150 153
3 153 155 164
3 155 166 164
3 155 157 166
3 157 167 166
3 157 159 167
3 159 168 167
3 161 169 168
3 159 161 168
3 103 170 172
3 103 172 100
3 171 162 172
3 162 100 172
3 171 102 162
3 171 105 102
3 171 174 105
3 173 105 174
3 170 103 106
3 105 173 108
3 165 164 175
3 164 166 176
3 175 164 176
3 166 167 177
3 176 166 177
3 167 168 178
3 177 167 178
3 168 169 178
3 172 170 179
3 179 180 182
3 179 110 180
3 179 170 110
3 106 110 170
3 174 181 173
3 180 110 113
3 173 181 108
3 181 112 108
3 181 183 112
3 185 184 114
3 185 114 183
3 183 114 112
3 114 184 116
3 122 123 186
3 125 122 186
3 187 125 186
3 188 126 125
3 188 125 189
3 187 190 125
3 190 189 125
3 189 191 188
3 182 180 192
3 194 127 193
3 192 127 194
3 192 113 127
3 192 180 113
3 185 195 184
3 193 127 129
3 184 131 116
3 184 195 131
3 195 196 131
3 196 197 131
3 131 197 132
3 199 198 133
3 199 133 197
3 197 133 132
3 134 133 198
3 200 134 198
3 200 202 201
3 200 201 134
3 134 201 136
3 201 203 136
3 136 203 138
3 123 204 186
3 123 138 204
3 138 203 204
3 206 186 204
3 206 187 186
3 140 205 141
3 140 208 205
3 140 207 208
3 140 126 207
3 188 207 126
3 187 206 190
3 188 191 207
3 194 193 209
3 193 129 142
3 193 142 209
3 209 142 210
3 210 142 211
3 142 143 211
3 211 143 212
3 143 144 212
3 198 199 212
3 198 212 145
3 145 212 144
3 200 198 145
3 146 200 145
3 202 200 146
3 202 146 213
3 213 146 147
3 213 147 214
3 147 148 214
3 214 148 215
3 148 149 215
3 141 205 216
3 141 216 149
3 149 216 215
3 205 208 216
3 219 218 217
3 152 217 218
3 152 218 151
3 151 218 220
3 222 221 154
3 222 154 220
3 220 154 151
3 156 154 221
3 223 156 221
3 158 156 223
3 224 158 223
3 160 158 224
3 225 160 224
3 160 225 161
3 219 217 226
3 228 163 227
3 226 163 228
3 226 152 163
3 226 217 152
3 222 229 221
3 227 163 165
3 221 230 223
3 229 230 221
3 223 231 224
3 230 231 223
3 224 232 225
3 231 232 224
3 225 169 161
3 225 234 169
3 225 232 234
3 234 233 169
3 234 235 233
3 171 172 236
3 171 236 174
3 228 227 237
3 239 175 238
3 237 175 239
3 237 165 175
3 237 227 165
3 176 238 175
3 240 238 176
3 177 240 176
3 241 240 177
3 241 242 243
3 241 177 242
3 177 178 242
3 169 233 244
3 169 244 178
3 178 244 242
3 233 235 244
3 179 245 247
3 179 247 172
3 246 236 247
3 236 172 247
3 245 179 182
3 236 246 174
3 246 181 174
3 246 248 181
3 250 249 183
3 250 183 248
3 248 183 181
3 183 249 185
3 239 238 251
3 238 240 252
3 251 238 252
3 240 241 253
3 252 240 253
3 241 243 253
3 189 190 254
3 189 254 191
3 247 245 255
3 257 192 256
3 255 192 257
3 255 182 192
3 255 245 182
3 250 258 249
3 256 192 194
3 249 195 185
3 249 258 195
3 258 259 195
3 261 260 196
3 261 196 259
3 259 196 195
3 197 196 260
3 262 197 260
3 197 262 199
3 201 202 263
3 203 201 263
3 264 203 263
3 264 266 265
3 264 265 203
3 203 265 204
3 265 267 204
3 204 267 206
3 206 267 254
3 206 254 190
3 267 268 254
3 207 254 208
3 268 208 254
3 254 207 191
3 257 256 269
3 256 194 209
3 256 209 269
3 269 209 270
3 270 209 271
3 209 210 271
3 260 261 271
3 260 271 211
3 211 271 210
3 262 260 211
3 212 262 211
3 262 212 199
3 263 202 213
3 264 263 213
3 214 264 213
3 266 264 214
3 266 214 272
3 272 214 215
3 272 215 273
3 215 216 273
3 273 216 208
3 268 273 208
3 276 275 274
3 219 274 275
3 219 275 218
3 218 275 277
3 279 278 220
3 279 220 277
3 277 220 218
3 220 278 222
3 276 274 280
3 282 226 281
3 280 226 282
3 280 219 226
3 280 274 219
3 279 283 278
3 281 226 228
3 278 229 222
3 278 283 229
3 283 284 229
3 284 285 229
3 229 285 230
3 285 286 230
3 230 286 231
3 286 287 231
3 231 287 232
3 287 288 232
3 232 288 234
3 234 288 289
3 235 234 289
3 292 291 290
3 291 293 290
3 282 281 294
3 296 237 295
3 294 237 296
3 294 228 237
3 294 281 228
3 237 239 295
3 242 297 243
3 244 297 242
3 298 297 244
3 298 244 235
3 298 235 299
3 299 235 289
3 292 290 300
3 301 246 290
3 301 290 293
3 246 247 290
3 300 290 302
3 247 302 290
3 304 303 248
3 304 248 301
3 301 248 246
3 248 303 250
3 296 295 305
3 295 239 251
3 295 251 305
3 305 251 306
3 306 251 307
3 251 252 307
3 307 252 308
3 252 253 308
3 243 297 309
3 243 309 253
3 253 309 308
3 297 298 310
3 309 297 310
3 298 299 310
3 313 312 311
3 312 314 311
3 302 247 255
3 315 302 255
3 317 255 257
3 317 315 255
3 304 316 303
3 303 258 250
3 303 316 258
3 316 318 258
3 320 319 259
3 320 259 318
3 318 259 258
3 259 319 261
3 265 266 321
3 321 323 322
3 321 322 265
3 265 322 267
3 324 268 267
3 324 267 325
3 325 267 322
3 326 327 324
3 326 324 311
3 325 313 324
3 313 311 324
3 311 314 326
3 317 257 269
3 328 317 269
3 328 269 329
3 269 270 329
3 319 320 329
3 319 329 271
3 271 329 270
3 319 271 261
3 321 266 272
3 323 321 272
3 323 272 330
3 330 272 273
3 268 324 331
3 268 331 273
3 273 331 330
3 324 327 331
3 276 333 332
3 275 276 332
3 335 334 277
3 335 277 332
3 332 277 275
3 277 334 279
3 333 276 280
3 336 333 280
3 338 280 282
3 338 336 280
3 335 337 334
3 334 283 279
3 334 337 283
3 337 339 283
3 339 340 283
3 283 340 284
3 342 341 285
3 342 285 340
3 340 285 284
3 286 285 341
3 343 286 341
3 343 345 344
3 343 344 286
3 286 344 287
3 344 346 287
3 287 346 288
3 347 289 288
3 347 288 348
3 348 288 346
3 348 349 347
3 292 351 350
3 291 292 350
3 291 350 352
3 293 291 352
3 294 353 354
3 294 354 282
3 282 354 338
3 294 296 353
3 342 355 341
3 341 356 343
3 355 356 341
3 343 356 345
3 357 289 347
3 357 358 289
3 358 299 289
3 347 349 357
3 351 292 300
3 359 351 300
3 352 360 293
3 293 360 301
3 361 359 300
3 361 300 302
3 301 360 362
3 304 301 362
3 354 353 363
3 353 296 305
3 353 305 363
3 363 305 364
3 364 305 365
3 305 306 365
3 367 307 366
3 367 365 307
3 365 306 307
3 308 366 307
3 368 366 308
3 368 369 370
3 368 308 369
3 308 309 369
3 369 309 371
3 309 310 371
3 371 310 299
3 358 371 299
3 312 313 372
3 312 372 314
3 361 302 315
3 373 361 315
3 362 374 304
3 304 374 316
3 375 373 315
3 375 315 317
3 374 376 316
3 316 376 318
3 318 376 377
3 320 318 377
3 367 366 378
3 366 368 379
3 378 366 379
3 368 370 379
3 322 323 380
3 380 382 381
3 380 381 322
3 322 381 325
3 325 381 372
3 325 372 313
3 381 383 372
3 326 372 327
3 383 327 372
3 372 326 314
3 375 317 328
3 384 375 328
3 384 328 385
3 328 329 385
3 385 329 320
3 377 385 320
3 380 323 330
3 382 380 330
3 382 330 386
3 386 330 331
3 386 331 327
3 383 386 327
3 332 333 387
3 332 387 335
3 336 388 390
3 336 390 333
3 389 387 390
3 387 333 390
3 388 336 338
3 387 389 335
3 389 337 335
3 389 391 337
3 391 392 337
3 337 392 339
3 394 393 340
3 394 340 392
3 392 340 339
3 340 393 342
3 344 345 395
3 346 344 395
3 396 346 395
3 348 346 396
3 397 348 396
3 348 397 349
3 350 351 398
3 350 398 352
3 390 388 399
3 388 400 399
3 388 338 400
3 338 354 400
3 394 401 393
3 393 355 342
3 393 401 355
3 401 402 355
3 402 403 355
3 355 403 356
3 345 404 395
3 345 356 404
3 356 403 404
3 395 405 396
3 404 405 395
3 405 406 358
3 405 358 397
3 405 397 396
3 357 397 358
3 397 357 349
3 398 351 359
3 361 408 398
3 361 398 359
3 408 407 398
3 352 398 360
3 407 360 398
3 360 407 409
3 362 360 409
3 400 354 363
3 410 400 363
3 410 363 411
3 363 364 411
3 413 365 412
3 413 411 365
3 411 364 365
3 365 367 412
3 370 414 415
3 369 414 370
3 414 369 416
3 369 371 416
3 416 371 358
3 406 416 358
3 373 417 418
3 373 418 361
3 361 418 408
3 374 409 419
3 374 362 409
3 373 375 417
3 421 420 376
3 421 376 419
3 419 376 374
3 376 420 377
3 413 412 422
3 412 367 378
3 412 378 422
3 422 378 423
3 423 378 424
3 378 379 424
3 424 379 370
3 415 424 370
3 382 426 425
3 381 382 425
3 381 425 427
3 383 381 427
3 418 417 428
3 417 375 384
3 417 384 428
3 428 384 429
3 420 421 429
3 420 429 385
3 385 429 384
3 420 385 377
3 426 382 386
3 430 426 386
3 430 386 383
3 427 430 383
3 389 390 431
3 431 433 432
3 431 432 389
3 389 432 391
3 432 434 391
3 391 434 392
3 392 434 435
3 394 392 435
3 431 390 399
3 399 400 436
3 431 399 436
3 431 436 437
3 431 437 433
3 437 436 438
3 435 401 394
3 439 401 435
3 439 440 401
3 401 440 402
3 440 441 402
3 402 441 403
3 441 442 403
3 403 442 404
3 442 443 404
3 404 443 405
3 405 443 444
3 406 405 444
3 408 446 445
3 407 408 445
3 407 445 447
3 409 407 447
3 436 400 410
3 438 436 410
3 438 410 448
3 448 410 411
3 449 411 413
3 449 450 411
3 450 448 411
3 450 449 451
3 415 452 453
3 414 452 415
3 452 414 454
3 414 416 454
3 454 416 406
3 444 454 406
3 455 456 446
3 455 446 418
3 418 446 408
3 447 419 409
3 447 457 419
3 458 456 455
3 419 457 459
3 421 419 459
3 449 413 422
3 451 449 422
3 451 422 460
3 460 422 423
3 460 423 461
3 423 424 461
3 461 424 415
3 453 461 415
3 426 463 462
3 425 426 462
3 425 462 464
3 427 425 464
3 455 418 428
3 458 455 428
3 458 428 465
3 465 428 429
3 465 429 421
3 459 465 421
3 463 426 430
3 466 463 430
3 466 430 427
3 464 466 427
3 433 468 467
3 432 433 467
3 467 469 432
3 432 469 434
3 434 469 470
3 435 434 470
3 468 433 437
3 471 468 437
3 437 472 471
3 438 472 437
3 470 439 435
3 473 439 470
3 473 474 439
3 439 474 440
3 474 475 440
3 440 475 441
3 475 476 441
3 441 476 442
3 478 477 443
3 478 443 476
3 476 443 442
3 443 477 444
3 446 480 479
3 445 446 479
3 445 479 481
3 447 445 481
3 472 438 448
3 482 472 448
3 482 448 483
3 448 450 483
3 484 450 451
3 484 485 450
3 485 483 450
3 485 486 487
3 484 486 485
3 453 487 486
3 453 452 487
3 452 488 487
3 477 478 488
3 477 488 454
3 454 488 452
3 477 454 444
3 480 446 456
3 489 480 456
3 481 490 447
3 447 490 457
3 491 489 456
3 491 456 458
3 457 490 492
3 459 457 492
3 484 451 460
3 486 484 460
3 461 486 460
3 486 461 453
3 463 494 493
3 462 463 493
3 462 493 495
3 464 462 495
3 491 458 465
3 496 491 465
3 496 465 459
3 492 496 459
3 494 463 466
3 497 494 466
3 497 466 464
3 495 497 464
3 467 468 498
3 469 467 498
3 499 469 498
3 469 499 470
3 498 468 471
3 471 472 500
3 471 500 498
3 498 500 499
3 470 499 500
3 470 500 501
3 470 501 473
3 502 501 500
3 501 503 473
3 473 503 474
3 503 504 474
3 474 504 475
3 506 505 476
3 506 476 504
3 504 476 475
3 476 505 478
3 480 508 507
3 479 480 507
3 479 507 509
3 481 479 509
3 500 472 482
3 502 500 482
3 502 482 510
3 510 482 483
3 510 483 511
3 483 485 511
3 511 485 512
3 485 487 512
3 505 506 512
3 505 512 488
3 488 512 487
3 505 488 478
3 508 480 489
3 513 508 489
3 509 514 481
3 481 514 490
3 515 513 489
3 515 489 491
3 516 492 490
3 516 490 517
3 517 490 514
3 517 518 516
3 493 494 519
3 493 519 495
3 515 491 496
3 520 515 496
3 492 516 521
3 492 521 496
3 496 521 520
3 516 518 521
3 519 494 497
3 519 497 495
3 501 502 522
3 503 501 522
3 523 503 522
3 504 503 523
3 524 504 523
3 504 524 506
3 507 508 525
3 507 525 509
3 522 502 510
3 523 522 510
3 511 523 510
3 524 523 511
3 512 524 511
3 524 512 506
3 525 508 513
3 514 509 525
3 514 525 526
3 513 515 525
3 515 526 525
3 526 528 527
3 526 527 514
3 514 527 517
3 517 527 529
3 518 517 529
3 532 531 530
3 531 533 530
3 526 515 520
3 528 526 520
3 528 520 534
3 534 520 521
3 534 521 518
3 529 534 518
3 532 530 535
3 530 533 535
3 527 528 536
3 537 529 527
3 537 527 538
3 536 539 527
3 539 538 527
3 538 540 537
3 543 542 541
3 532 541 542
3 532 542 531
3 545 544 542
3 544 531 542
3 531 544 533
3 536 528 534
3 529 537 546
3 529 546 534
3 539 536 546
3 536 534 546
3 537 540 546
3 543 541 547
3 544 545 547
3 544 547 535
3 541 532 547
3 532 535 547
3 544 535 533
3 538 539 548
3 549 540 538
3 549 538 550
3 548 551 538
3 551 550 538
3 550 553 552
3 549 550 552
3 553 555 554
3 552 553 554
3 555 557 556
3 554 555 556
3 557 559 558
3 556 557 558
3 559 560 558
3 542 543 561
3 542 561 545
3 548 539 546
3 540 549 562
3 540 562 546
3 551 548 562
3 548 546 562
3 549 552 563
3 562 549 563
3 552 554 564
3 563 552 564
3 554 556 565
3 564 554 565
3 556 558 566
3 565 556 566
3 558 560 566
3 561 543 547
3 561 547 545
3 550 551 567
3 553 550 567
3 568 553 567
3 555 553 568
3 569 555 568
3 557 555 569
3 570 557 569
3 559 557 570
3 571 559 570
3 559 571 560
3 567 551 562
3 568 567 562
3 563 568 562
3 569 568 563
3 564 569 563
3 570 569 564
3 565 570 564
3 571 570 565
3 566 571 565
3 571 566 560
