ply
format ascii 1.0
element vertex 210
property float x
property float y
property float z
property uchar red
property uchar green
property uchar blue
element face 416
property list uchar int vertex_indices
end_header
-3.10152721405029297 7 -1 186 171 171
-3 6.74118757247924805 -1 112 100 100
-3 7 -1.23462474346160889 12 12 12
-3.17396163940429688 7 0 38 32 32
-3 6.71608495712280273 0 81 69 69
-3 7 0.918137252330780029 226 219 219
-3.19604396820068359 8 -1 142 139 139
-3 8 -1.40174436569213867 51 49 49
-3.30664229393005371 8 0 220 218 218
-3.10229969024658203 8 1 239 231 231
-3 7.17806720733642578 1 248 229 229
-3 8 1.20664429664611816 78 75 75
-3 8.85657882690429688 -1 21 20 20
-3 8.9018096923828125 0 8 7 7
-3 8.76244735717773438 1 78 75 75
-2.04000592231750488 4 -2 254 251 251
-2 3.93781948089599609 -2 237 242 246
-2 4 -2.02450370788574219 193 190 190
-2.60715413093566895 4 -1 237 235 235
-2 3.09071969985961914 -1 246 243 254
-2.62172913551330566 4 0 229 227 227
-2 3.12983083724975586 0 212 207 207
-2.2657625675201416 4 1 250 249 249
-2 3.63101768493652344 1 222 221 221
-2 4 1.35747301578521729 238 228 228
-2 4.17826986312866211 -2 238 226 233
-2 4.93364334106445312 -1 254 238 238
-2.83139204978942871 5 0 225 220 220
-2 5 -0.75955730676651001 148 134 134
-2.61183905601501465 5 1 237 232 232
-2.01491069793701172 5 2 238 227 227
-2 4.96960210800170898 2 254 246 246
-2 5 2.0136716365814209 242 240 240
-2.30528497695922852 6 -2 252 239 239
-2 5.41821765899658203 -2 148 138 138
-2 6 -2.21267175674438477 78 76 76
-2.6853327751159668 6 -1 112 100 100
-2 5.05126190185546875 -1 148 134 134
-2.53733658790588379 6 0 81 69 69
-2.20377755165100098 6 1 21 17 17
-2 5.01898097991943359 2 242 240 240
-2 6 1.25222873687744141 201 181 181
-2.47461199760437012 7 -2 12 12 12
-2 7 -2.47431778907775879 28 28 28
-2.96486473083496094 7 1 248 229 229
-2.17853856086730957 7 2 132 114 114
-2 6.76274538040161133 2 118 101 101
-2 7 2.22153997421264648 214 206 206
-2.25413751602172852 8 -2 51 49 49
-2 8 -2.0629432201385498 250 233 233
-2.33852839469909668 8 2 198 194 194
-2 8 2.25050592422485352 43 40 40
-2 8.75188636779785156 -2 188 192 194
-2 8.9575347900390625 -1 129 122 122
-2 8.96365070343017578 0 104 98 98
-2 8.95463657379150391 1 86 80 80
-2 8.86313247680664062 2 43 40 40
-1.00656366348266602 2 -1 254 216 250
-1 1.99255108833312988 -1 254 228 228
-1 2 -1.00312232971191406 254 253 212
-1.54539132118225098 2 0 213 208 254
-1 1.38226866722106934 0 254 216 227
-1 2 0.952951014041900635 254 215 222
-1.22179436683654785 3 -2 237 242 246
-1 2.83396768569946289 -2 254 253 212
-1 3 -2.19593381881713867 230 219 210
-1.88937819004058838 3 -1 246 243 254
-1.85173511505126953 3 0 212 207 207
-1.20836448669433594 3 1 222 221 221
-1 2.07003426551818848 1 254 208 248
-1 3 1.15194475650787354 216 215 215
-1 4 -2.23881816864013672 172 168 168
-1.27077412605285645 4 2 254 246 246
-1 3.79010367393493652 2 235 233 233
-1 4 2.15273189544677734 243 235 254
-1.79215919971466064 5 -2 148 138 138
-1 5 -2.54379510879516602 4 4 4
-1.95958435535430908 5 -1 148 134 134
-1.63431239128112793 5 2 242 240 240
-1 4.87225580215454102 2 243 235 254
-1 5 1.93445062637329102 188 177 177
-1 6 -2.49728846549987793 116 115 115
-1.37712740898132324 6 2 118 101 101
-1 5.05251836776733398 2 251 247 247
-1 6 2.32688093185424805 245 233 233
-1.17903459072113037 7 -3 28 28 28
-1 6.81998109817504883 -3 116 115 115
-1 7 -3.06113958358764648 17 16 16
-1 7 2.51218795776367188 96 95 95
-1 7.06439113616943359 -3 8 8 8
-1.80077886581420898 8 -2 188 192 194
-1 7.64675807952880859 -2 89 87 87
-1 8 -1.63738417625427246 253 238 238
-1 8 2.60308218002319336 132 123 123
-1 8.95537853240966797 -1 222 225 230
-1 8.96947383880615234 0 181 169 169
-1 8.96648120880126953 1 152 142 142
-1 8.93893241882324219 2 132 123 123
-0.984060049057006836 2 -1 254 219 237
0 1.51187038421630859 0 254 228 228
0 2 -0.510910868644714355 254 218 208
0 2 0.759501278400421143 254 217 217
0 2.71503734588623047 -2 221 211 211
0 3 -2.37820625305175781 223 242 231
0 2.17351245880126953 -1 254 218 208
0 2.09829306602478027 1 254 215 215
0 3 1.56840646266937256 254 237 228
0 4 -2.51363492012023926 181 181 181
0 3.42700409889221191 2 233 231 250
0 4 2.3876032829284668 227 254 252
0 5 -2.20781135559082031 114 111 111
-0.81467282772064209 5 2 251 247 247
0 5 2.09841799736022949 254 252 252
0 6 -2.71359586715698242 16 16 16
0 6 2.52411603927612305 9 9 9
-0.139125287532806396 7 -3 8 8 8
0 7 -2.98473691940307617 35 34 34
0 7 2.33530282974243164 172 172 172
-0.365650922060012817 8 -3 247 224 224
0 7.01893043518066406 -3 35 34 34
0 8 -3.28531813621520996 112 109 109
-0.327544122934341431 8 -2 253 238 238
-0.0400558151304721832 8 -1 222 225 230
0 7.97397136688232422 -1 105 102 102
0 8 -1.13087332248687744 204 203 203
0 8 -0.950776994228363037 254 238 238
0 8 2.5516507625579834 178 164 164
0 8.95220088958740234 -3 127 113 143
0 8.85576534271240234 -2 204 203 203
0 8.94522666931152344 0 248 238 248
0 8.95897102355957031 1 217 200 200
0 8.93103885650634766 2 178 164 164
0.238170504570007324 2 0 254 217 217
0.776493489742279053 3 -2 224 245 236
1 2.62864446640014648 -1 213 203 203
1 3 -1.81152689456939697 254 242 242
1 2.49729609489440918 0 254 226 204
1 2.70359301567077637 1 254 215 215
1 3 1.3067777156829834 242 252 226
0.69094550609588623 4 -2 254 250 250
1 4 -1.70917952060699463 67 67 67
1 3.83884644508361816 2 242 235 219
1 4 2.0924220085144043 228 250 247
0.3701457679271698 5 -2 106 105 105
1 5 -1.32250964641571045 146 144 144
1 5 2.13332819938659668 220 217 217
1 5.48783636093139648 -2 146 144 144
1 6 -2.57608675956726074 61 61 61
0.533318579196929932 6 2 9 9 9
1 5.28347301483154297 2 220 217 217
1 6 1.40308189392089844 191 190 190
1 7 -2.22959518432617188 225 201 201
1 6.8103480339050293 2 163 160 160
1 7 2.07162904739379883 146 144 144
0.305456578731536865 8 -3 127 113 143
1 8 -2.41756510734558105 121 131 122
0.0274517759680747986 8 -1 254 238 238
0.805703639984130859 8 0 248 238 248
1 7.87585926055908203 0 80 78 78
1 8 -0.116201646625995636 51 44 44
0.712879359722137451 8 1 217 200 200
1 7.69269323348999023 1 124 121 121
0.521811127662658691 8 2 178 164 164
1 7.14864349365234375 2 146 144 144
1 8.97012615203857422 -2 73 68 87
1 8.96937370300292969 -1 51 44 44
1.40459311008453369 3 -1 252 235 246
1.60584807395935059 3 0 180 196 192
1.29715967178344727 3 1 242 252 226
1.41729855537414551 4 -1 206 202 202
1.70210933685302734 4 0 250 238 238
1.73051893711090088 4 1 214 221 235
1.11696124076843262 4 2 228 250 247
1.20427513122558594 5 -1 151 150 150
1.43188869953155518 5 0 112 112 112
1.37675201892852783 5 1 15 15 15
1.10275876522064209 5 2 220 217 217
1.84934937953948975 6 -2 0 0 0
2 5.76498508453369141 -1 141 139 139
2 6 -1.7536473274230957 40 39 39
2 5.90276384353637695 0 153 151 151
1.35650372505187988 6 1 191 190 190
2 6 0.12525494396686554 63 63 63
1.2133631706237793 7 -2 90 88 88
1.8963322639465332 7 -1 32 32 32
2 6.63234329223632812 -1 51 50 50
2 7 -0.77092444896697998 173 169 169
2 6.65632057189941406 1 144 142 142
1.14125370979309082 7 2 146 144 144
2 7 1.30967199802398682 1 1 1
1.40297389030456543 8 -2 73 68 87
2 7.11536121368408203 -1 173 169 169
2 8 -1.33622550964355469 210 228 230
1.11806654930114746 8 0 252 240 240
1.64789450168609619 8 1 253 250 250
2 8 1.09825670719146729 3 2 2
2 8.96058368682861328 -1 160 155 186
2 8.96883392333984375 0 199 150 150
2 8.83649539947509766 1 3 2 2
2.23443102836608887 6 -1 51 50 50
2.07436203956604004 6 0 63 63 63
2.18635177612304688 7 0 63 63 63
2.13631176948547363 7 1 1 1 1
2.31325626373291016 8 -1 160 155 186
2.37065458297729492 8 0 199 150 150
3 7.97097444534301758 1 164 162 162
3 8 0.979297220706939697 209 203 199
3 8 1.07050001621246338 148 121 121
3 8.52737140655517578 1 148 121 121
3.01183605194091797 8 1 148 121 121
3 2 1 0
3 1 4 3
3 0 1 3
3 4 5 3
3 7 2 0
3 6 7 0
3 0 3 6
3 3 8 6
3 5 10 9
3 5 9 3
3 3 9 8
3 10 11 9
3 7 6 12
3 6 8 13
3 12 6 13
3 8 9 14
3 13 8 14
3 9 11 14
3 17 16 15
3 16 19 18
3 15 16 18
3 19 21 20
3 18 19 20
3 21 23 22
3 20 21 22
3 23 24 22
3 17 15 25
3 15 18 26
3 25 15 26
3 28 26 18
3 28 18 27
3 27 18 20
3 20 22 27
3 22 29 27
3 24 31 30
3 24 30 22
3 22 30 29
3 31 32 30
3 35 34 33
3 34 37 36
3 33 34 36
3 37 28 27
3 37 27 36
3 36 27 38
3 27 29 38
3 29 39 38
3 40 41 39
3 40 39 30
3 30 39 29
3 30 32 40
3 43 35 33
3 42 43 33
3 2 36 1
3 2 42 36
3 42 33 36
3 38 1 36
3 4 1 38
3 4 44 5
3 4 38 44
3 38 39 44
3 41 46 45
3 41 45 39
3 39 45 44
3 46 47 45
3 49 43 42
3 48 49 42
3 42 7 48
3 2 7 42
3 44 10 5
3 10 50 11
3 10 44 50
3 44 45 50
3 47 51 50
3 45 47 50
3 49 48 52
3 48 7 12
3 48 12 52
3 52 12 53
3 53 12 54
3 12 13 54
3 54 13 55
3 13 14 55
3 11 50 56
3 11 56 14
3 14 56 55
3 50 51 56
3 59 58 57
3 58 61 60
3 57 58 60
3 61 62 60
3 65 64 63
3 64 59 57
3 64 57 63
3 63 57 66
3 57 60 66
3 60 67 66
3 62 69 68
3 62 68 60
3 60 68 67
3 69 70 68
3 63 16 17
3 63 17 65
3 65 17 71
3 66 16 63
3 19 16 66
3 67 19 66
3 21 19 67
3 68 21 67
3 23 21 68
3 23 72 24
3 68 72 23
3 68 73 72
3 68 70 73
3 73 74 72
3 25 75 76
3 25 76 17
3 17 76 71
3 26 75 25
3 77 75 26
3 26 28 77
3 79 80 78
3 72 31 24
3 31 72 74
3 31 74 32
3 79 78 74
3 78 32 74
3 75 34 35
3 75 35 76
3 76 35 81
3 77 34 75
3 37 34 77
3 77 28 37
3 78 80 83
3 40 82 41
3 82 40 32
3 82 32 84
3 78 83 32
3 83 84 32
3 87 86 85
3 86 43 85
3 86 81 43
3 81 35 43
3 82 46 41
3 46 82 84
3 46 84 47
3 47 84 88
3 87 85 89
3 85 43 49
3 85 49 91
3 85 91 89
3 91 49 90
3 91 90 92
3 88 93 47
3 93 51 47
3 90 49 52
3 92 90 52
3 92 52 94
3 94 52 53
3 94 53 95
3 53 54 95
3 95 54 96
3 54 55 96
3 96 55 97
3 55 56 97
3 97 56 51
3 93 97 51
3 58 59 98
3 98 100 99
3 98 99 58
3 58 99 61
3 61 99 101
3 62 61 101
3 65 103 102
3 64 65 102
3 59 104 98
3 59 64 104
3 64 102 104
3 98 104 100
3 101 69 62
3 105 69 101
3 69 105 106
3 70 69 106
3 103 65 107
3 107 65 71
3 106 73 70
3 108 73 106
3 73 108 109
3 74 73 109
3 107 71 110
3 110 71 76
3 79 111 80
3 111 79 74
3 111 74 112
3 112 74 109
3 110 76 113
3 113 76 81
3 111 83 80
3 83 111 112
3 83 112 84
3 84 112 114
3 86 87 115
3 115 81 86
3 115 116 81
3 116 113 81
3 114 117 84
3 117 88 84
3 89 118 120
3 89 120 87
3 119 115 120
3 115 87 120
3 118 91 121
3 118 89 91
3 115 119 116
3 121 91 92
3 124 122 123
3 123 122 125
3 117 126 88
3 126 93 88
3 120 118 127
3 118 121 128
3 127 118 128
3 122 124 128
3 122 128 94
3 121 92 128
3 92 94 128
3 125 122 94
3 125 94 129
3 129 94 95
3 129 95 130
3 95 96 130
3 130 96 131
3 96 97 131
3 131 97 93
3 126 131 93
3 99 100 132
3 99 132 101
3 102 103 133
3 133 135 134
3 133 134 102
3 102 134 104
3 100 136 132
3 100 104 136
3 104 134 136
3 132 105 101
3 132 136 105
3 136 137 105
3 105 137 138
3 106 105 138
3 139 133 103
3 107 139 103
3 135 139 140
3 133 139 135
3 138 108 106
3 141 108 138
3 108 141 142
3 109 108 142
3 143 139 107
3 110 143 107
3 140 143 144
3 139 143 140
3 142 145 109
3 145 112 109
3 146 143 110
3 146 110 147
3 147 110 113
3 143 146 144
3 150 148 149
3 149 148 114
3 149 114 145
3 145 114 112
3 147 113 151
3 151 113 116
3 150 152 148
3 148 152 153
3 148 153 114
3 114 153 117
3 119 120 154
3 154 116 119
3 154 155 116
3 155 151 116
3 123 156 124
3 156 123 125
3 159 157 158
3 158 160 161
3 157 160 158
3 161 162 163
3 160 162 161
3 163 162 126
3 163 126 153
3 153 126 117
3 154 120 127
3 155 154 127
3 155 127 164
3 164 127 128
3 124 156 165
3 124 165 128
3 128 165 164
3 157 159 165
3 157 165 129
3 156 125 165
3 125 129 165
3 160 157 129
3 130 160 129
3 162 160 130
3 131 162 130
3 162 131 126
3 134 135 166
3 136 134 166
3 167 136 166
3 137 136 167
3 168 137 167
3 137 168 138
3 169 166 135
3 140 169 135
3 166 169 167
3 167 169 170
3 167 170 168
3 168 170 171
3 141 138 168
3 141 168 172
3 172 168 171
3 141 172 142
3 173 169 140
3 144 173 140
3 169 173 170
3 170 173 174
3 170 174 171
3 171 174 175
3 171 175 172
3 172 175 176
3 172 176 145
3 142 172 145
3 146 147 177
3 177 179 178
3 146 177 178
3 146 178 173
3 146 173 144
3 173 180 174
3 178 180 173
3 182 174 180
3 182 181 174
3 181 175 174
3 150 149 176
3 150 176 181
3 181 176 175
3 176 149 145
3 183 177 147
3 151 183 147
3 179 184 185
3 179 177 184
3 177 183 184
3 185 184 186
3 182 187 181
3 189 188 152
3 187 189 152
3 187 152 150
3 187 150 181
3 152 188 153
3 190 183 151
3 155 190 151
3 191 190 192
3 191 184 190
3 184 183 190
3 184 191 186
3 159 158 193
3 161 193 158
3 194 193 161
3 194 189 195
3 194 163 189
3 194 161 163
3 163 188 189
3 188 163 153
3 190 155 164
3 192 190 164
3 192 164 196
3 196 164 165
3 159 193 197
3 159 197 165
3 165 197 196
3 193 194 198
3 197 193 198
3 194 195 198
3 178 179 199
3 180 178 199
3 200 180 199
3 180 200 182
3 199 179 185
3 185 186 201
3 185 201 199
3 199 201 200
3 187 182 200
3 187 200 202
3 202 200 201
3 187 202 189
3 191 192 203
3 186 191 203
3 186 203 201
3 201 203 204
3 205 204 206
3 205 202 204
3 202 201 204
3 202 205 207
3 202 207 189
3 189 207 195
3 203 192 196
3 204 203 196
3 197 204 196
3 206 204 197
3 206 197 208
3 208 197 198
3 208 198 195
3 207 208 195
3 205 206 209
3 205 209 207
3 209 206 208
3 209 208 207
