ply
format ascii 1.0
element vertex 76
property float x
property float y
property float z
property uchar red
property uchar green
property uchar blue
element face 136
property list uchar int vertex_indices
end_header
-6.03967571258544922 7 -2 153 189 192
-6 6.96867179870605469 -2 208 225 230
-6 7 -2.27629542350769043 180 211 214
-6 7 -1.47014009952545166 226 243 244
-6 7.03478717803955078 -2 226 243 244
-5.13123941421508789 7 -4 118 154 158
-5 6.91798257827758789 -4 244 249 250
-5 7 -4.18825149536132812 102 139 142
-5 7 -3.71131706237792969 186 217 218
-5.95624971389770508 7 -2 226 243 244
-5 7.09206295013427734 -4 186 217 218
-4.20649242401123047 7 -5 102 139 142
-4 6.9086909294128418 -5 248 253 254
-4 7 -5.14946889877319336 61 93 93
-4.82912969589233398 7 -4 186 217 218
-4 7 -4.81218290328979492 158 196 196
-4 7.10272884368896484 -5 158 196 196
-4.23076105117797852 8 -3 142 175 169
-4 7.87061452865600586 -3 223 245 244
-4 8 -3.35566973686218262 126 160 152
-4.52035236358642578 8 -2 190 214 209
-4 7.88347101211547852 -2 173 211 207
-4.49053668975830078 8 -1 220 235 231
-4 7.98676729202270508 -1 136 179 173
-4 8 -0.706016719341278076 245 254 251
-4.01518106460571289 8 1 234 243 239
-4 7.99591875076293945 1 124 166 154
-4 8 0.88730311393737793 239 254 248
-4 8 1.04840421676635742 241 254 248
-4 8.9536590576171875 -3 194 218 212
-4 8.95134353637695312 -2 241 247 245
-4 8.66685962677001953 -1 245 254 251
-4 8.3791046142578125 1 241 254 248
-3.66006040573120117 7 -5 158 196 196
-3.37107753753662109 8 -4 126 160 152
-3 7.86256837844848633 -4 243 253 252
-3 8 -4.25189733505249023 82 114 105
-3 7.93616342544555664 -3 181 216 212
-3.72472834587097168 8 -2 241 247 245
-3 8 -2.83509731292724609 234 244 240
-3.9787895679473877 8 -1 245 254 251
-3.99154233932495117 8 1 241 254 248
-3 8.95651531219482422 -4 165 196 186
-3 8.91043281555175781 -3 234 244 240
-2.61795949935913086 7 -6 93 132 129
-2 6.92755413055419922 -6 225 249 250
-2 7 -6.0941925048828125 18 32 30
-2 7 -5.89780950546264648 117 158 152
-2 7.08113622665405273 -6 117 158 152
-2 7.8686065673828125 -4 223 244 240
-2 8 -4.63848209381103516 100 135 121
-2.83028650283813477 8 -3 234 244 240
-2 8 -3.68946456909179688 191 217 206
-2 8.95726108551025391 -4 191 217 206
-1 6.97133350372314453 -6 230 252 251
-1 7 -6.04701423645019531 19 33 30
-1 7 -5.96642494201660156 124 167 156
-1 7.0366063117980957 -6 124 167 156
-1.26783788204193115 8 -5 100 135 121
-1 7.96420907974243164 -5 232 249 244
-1 8 -5.03901386260986328 25 41 33
-1 7.95546960830688477 -4 217 239 233
-1 8 -3.92802691459655762 198 223 210
-1 8.82267379760742188 -5 105 140 123
-1 8.874237060546875 -4 198 223 210
-0.136164203286170959 7 -6 124 167 156
-0.0755412876605987549 8 -5 105 140 123
0 7.98677635192871094 -4 228 244 237
0 8 -4.84067773818969727 93 128 106
0 8 -3.97910141944885254 186 215 197
0 8.66670513153076172 -4 186 215 197
1 7.94387912750244141 -4 250 253 251
1 8 -4.23479890823364258 65 97 73
1 8 -3.88038420677185059 154 190 162
1 8.89840316772460938 -4 154 190 162
1.84894323348999023 8 -4 154 190 162
3 2 1 0
3 1 3 0
3 2 0 4
3 0 3 4
3 7 6 5
3 6 8 5
3 1 2 9
3 1 9 3
3 7 5 10
3 5 8 10
3 9 2 4
3 9 4 3
3 13 12 11
3 7 11 12
3 7 12 6
3 15 14 12
3 14 6 12
3 6 14 8
3 13 11 16
3 14 15 16
3 14 16 10
3 11 7 16
3 7 10 16
3 14 10 8
3 18 17 19
3 18 21 20
3 17 18 20
3 21 23 22
3 20 21 22
3 23 24 22
3 27 26 25
3 26 28 25
3 19 17 29
3 17 20 30
3 29 17 30
3 20 22 31
3 30 20 31
3 22 24 31
3 27 25 32
3 25 28 32
3 12 13 33
3 12 33 15
3 33 13 16
3 33 16 15
3 35 34 36
3 19 34 35
3 19 35 18
3 18 35 37
3 39 38 21
3 39 21 37
3 37 21 18
3 23 21 38
3 40 23 38
3 23 40 24
3 26 27 41
3 26 41 28
3 36 34 42
3 34 19 29
3 34 29 42
3 42 29 43
3 38 39 43
3 38 43 30
3 30 43 29
3 40 38 30
3 31 40 30
3 40 31 24
3 41 27 32
3 41 32 28
3 46 45 44
3 45 47 44
3 46 44 48
3 44 47 48
3 36 50 49
3 35 36 49
3 52 51 37
3 52 37 49
3 49 37 35
3 37 51 39
3 50 36 42
3 53 50 42
3 51 52 53
3 51 53 43
3 43 53 42
3 51 43 39
3 46 55 54
3 45 46 54
3 45 54 56
3 47 45 56
3 55 46 48
3 57 55 48
3 57 48 58
3 57 58 60
3 48 47 58
3 59 58 56
3 47 56 58
3 50 58 59
3 50 59 49
3 49 59 61
3 49 61 62
3 52 49 62
3 60 58 63
3 58 50 53
3 58 53 63
3 63 53 64
3 64 53 52
3 62 64 52
3 54 55 65
3 54 65 56
3 65 55 57
3 59 56 65
3 59 65 66
3 57 60 65
3 60 66 65
3 66 68 67
3 66 67 59
3 59 67 61
3 61 67 69
3 62 61 69
3 66 60 63
3 68 66 63
3 68 63 70
3 70 63 64
3 70 64 62
3 69 70 62
3 68 72 71
3 67 68 71
3 67 71 73
3 69 67 73
3 72 68 70
3 74 72 70
3 74 70 69
3 73 74 69
3 71 72 75
3 71 75 73
3 75 72 74
3 75 74 73
