ply
format ascii 1.0
element vertex 536
property float x
property float y
property float z
property uchar red
property uchar green
property uchar blue
element face 836
property list uchar int vertex_indices
end_header
-8.06818294525146484 5 -3 13 5 0
-8 4.93191385269165039 -3 2 0 0
-8 5 -3.06970643997192383 8 1 0
-8 5 -2.92804217338562012 0 11 3
-8.06743717193603516 5 2 7 3 0
-8 4.93264579772949219 2 8 1 0
-8 5 1.92874670028686523 9 1 0
-8 5 2.06886911392211914 0 17 4
-8 5.06836843490600586 -3 0 11 3
-8 5.06764602661132812 2 0 17 4
-8.08945941925048828 8 -3 0 24 12
-8 7.95051670074462891 -3 12 13 0
-8 8 -3.04900527000427246 4 2 0
-8 8 -2.93914628028869629 0 7 0
-8.07389354705810547 8 2 0 30 14
-8 7.95845508575439453 2 6 7 0
-8 8 1.94818484783172607 2 0 0
-8 8 2.04112982749938965 0 13 0
-8 8.88474273681640625 -3 0 7 0
-8 8.86478519439697266 2 0 13 0
-7.07125282287597656 5 -5 18 7 0
-7 4.92883777618408203 -5 3 0 0
-7 5 -5.07097673416137695 21 13 0
-7 5 -4.92883825302124023 0 5 1
-7.41061162948608398 5 -3 0 11 3
-7.43803739547729492 5 2 0 17 4
-7.06994533538818359 5 4 8 4 0
-7 4.93013525009155273 4 6 0 0
-7 5 3.93014121055603027 8 4 0
-7 5 4.06971120834350586 0 16 3
-7 5.07145404815673828 -5 0 5 1
-7.14915847778320312 6 -4 15 11 0
-7 5.85133028030395508 -4 0 0 0
-7 6 -4.14922857284545898 16 14 0
-7 6 -3.8499758243560791 0 8 0
-7.14604806900024414 6 3 7 6 0
-7 5.85444831848144531 3 8 4 0
-7 6 2.85302901268005371 7 5 0
-7 5.07017326354980469 4 0 16 3
-7 6 3.14615392684936523 0 17 0
-7 6.14966249465942383 -4 0 8 0
-7.19736146926879883 7 -2 8 10 0
-7 6.80236387252807617 -2 7 4 0
-7 7 -2.25365900993347168 0 0 0
-7 7 -1.41483402252197266 3 14 0
-7.19621372222900391 7 1 5 6 0
-7 6.80364036560058594 1 10 6 0
-7 7 0.4136219322681427 14 14 0
-7 7 1.24978482723236084 4 17 0
-7 6.14658641815185547 3 0 17 0
-7.06417179107666016 8 -5 3 12 0
-7 7.94492769241333008 -5 18 19 0
-7 8 -5.05428838729858398 7 4 0
-7 8 -4.94457864761352539 0 1 0
-7.95000600814819336 8 -3 0 7 0
-7 7.19876861572265625 -2 3 14 0
-7 7.19761943817138672 1 4 17 0
-7.95803213119506836 8 2 0 13 0
-7.04863500595092773 8 4 7 23 0
-7 7.95904016494750977 4 7 8 0
-7 8 3.9587099552154541 4 5 0
-7 8 4.04040670394897461 0 12 0
-7 8.89571762084960938 -5 0 1 0
-7 8.86304855346679688 4 0 12 0
-6.89288139343261719 5 -5 0 5 1
-6.90400266647338867 5 4 0 16 3
-6.82697343826293945 6 -4 0 8 0
-6.83544158935546875 6 3 0 17 0
-6.78728532791137695 7 -2 3 14 0
-6.78999900817871094 7 1 4 17 0
-6.94454765319824219 8 -5 0 1 0
-6.2328333854675293 8 -2 3 9 0
-6 7.7515721321105957 -2 10 1 0
-6 8 -2.34566760063171387 0 0 0
-6 8 -1.29920649528503418 7 13 0
-6.23230600357055664 8 1 2 5 0
-6 7.75380563735961914 1 14 3 0
-6 8 0.296127855777740479 13 8 0
-6 8 1.3400568962097168 9 17 0
-6.95875692367553711 8 4 0 12 0
-6 8.97784709930419922 -2 7 13 0
-6 8.97779273986816406 1 9 17 0
-5.07951688766479492 5 -7 26 15 0
-5 4.92023086547851562 -7 15 1 0
-5 5 -7.07990264892578125 34 9 0
-5 5 -6.878265380859375 0 5 2
-5.07777833938598633 5 6 11 8 0
-5 4.92203664779663086 6 0 0 0
-5 5 5.89358186721801758 8 14 0
-5 5 6.07805919647216797 0 9 2
-5 5.08009529113769531 -7 0 5 2
-5 5.07832050323486328 6 0 9 2
-5.06497335433959961 8 -7 12 6 0
-5 7.93403959274291992 -7 29 27 0
-5 8 -7.07673501968383789 0 2 0
-5 8 -6.93361043930053711 0 8 1
-5.23502206802368164 8 -4 6 14 0
-5 7.7480621337890625 -4 3 0 0
-5 8 -4.23766136169433594 10 17 0
-5 8 -3.76357483863830566 3 6 0
-5.7674407958984375 8 -2 7 13 0
-5.76805543899536133 8 1 9 17 0
-5.23385715484619141 8 3 2 5 0
-5 7.75334310531616211 3 11 2 0
-5 8 2.76468062400817871 2 4 0
-5 8 3.23636698722839355 8 15 0
-5.0456395149230957 8 6 3 2 0
-5 7.95372200012207031 6 13 14 0
-5 8 5.95340585708618164 6 11 0
-5 8 6.0555419921875 0 7 0
-5 8.91225433349609375 -7 0 8 1
-5 8.97804832458496094 -4 3 6 0
-5 8.97792720794677734 3 8 15 0
-5 8.87740135192871094 6 0 7 0
-4.92017555236816406 5 -7 0 5 2
-4.92203092575073242 5 6 0 9 2
-4.16038942337036133 6 -7 26 21 0
-4 5.84010648727416992 -7 17 3 0
-4 6 -7.16048908233642578 36 20 0
-4 6 -6.81134605407714844 0 8 1
-4.15505123138427734 6 6 11 10 0
-4 5.84558677673339844 6 2 0 0
-4 6 5.82605934143066406 7 4 0
-4 6 6.1549835205078125 0 7 0
-4 6.16096830368041992 -7 0 8 1
-4 6.15558385848999023 6 0 7 0
-4.93360376358032227 8 -7 0 8 1
-4.23948478698730469 8 -5 10 17 0
-4 7.7448582649230957 -5 2 0 0
-4 8 -5.23716974258422852 13 25 0
-4.76603460311889648 8 -4 3 6 0
-4 8 -4.76423025131225586 0 0 0
-4.76721763610839844 8 3 8 15 0
-4.23795604705810547 8 4 3 6 0
-4 7.7517552375793457 4 7 1 0
-4 8 3.76564550399780273 0 1 0
-4 8 4.23567295074462891 5 11 0
-4.95328664779663086 8 6 0 7 0
-4 8.97826290130615234 -5 0 0 0
-4 8.97811603546142578 4 5 11 0
-3.09480500221252441 5 -8 30 0 0
-3 4.90750312805175781 -8 28 7 0
-3 5 -8.09268951416015625 45 2 0
-3 5 -7.17453813552856445 0 17 9
-3.09255695343017578 5 7 13 1 0
-3 4.90948820114135742 7 10 0 0
-3 5 6.25800609588623047 0 12 7
-3 5 7.09061574935913086 0 0 0
-3 5.09288358688354492 -8 0 17 9
-3.83848786354064941 6 -7 0 8 1
-3.84387564659118652 6 6 0 7 0
-3 5.09094476699829102 7 0 0 0
-3.07898497581481934 8 -8 24 9 0
-3 7.92015409469604492 -8 40 33 0
-3 8 -8.15182399749755859 0 6 4
-3 8 -7.91930246353149414 0 18 4
-3.76128578186035156 8 -5 0 0 0
-3.76270675659179688 8 4 5 11 0
-3.05764222145080566 8 7 6 4 0
-3 7.94171619415283203 7 22 22 0
-3 8 6.94109773635864258 11 19 0
-3 8 7.10432291030883789 0 0 0
-3 8.92731285095214844 -8 0 18 4
-3 8.90118026733398438 7 0 0 0
-2.01665306091308594 3 -9 29 36 0
-2 2.97997140884399414 -9 0 34 7
-2 3 -9.69729995727539062 55 45 12
-2 3 -8.98347091674804688 0 27 28
-2 3.01597261428833008 -9 0 27 28
-2.90177297592163086 5 -8 0 17 9
-2.01142668724060059 5 -2 22 35 0
-2 4.99158239364624023 -2 14 12 7
-2 5 -2.01160717010498047 16 29 0
-2 5 -1.89870917797088623 0 35 12
-2.90349555015563965 5 7 0 0 0
-2 5.00873231887817383 -2 0 35 12
-2.2795870304107666 7 -7 23 7 0
-2 6.78599834442138672 -7 24 3 0
-2 7 -7.21342706680297852 43 36 0
-2 7 -6.76601886749267578 0 16 1
-2.26723408699035645 7 6 7 1 0
-2 6.7910313606262207 6 9 3 0
-2 7 5.77700567245483398 2 0 0
-2 7 6.20901060104370117 0 0 0
-2.90275955200195312 8 -8 0 18 4
-2 7.21499204635620117 -7 0 16 1
-2.36692523956298828 8 -6 17 1 0
-2 7.73799848556518555 -6 14 3 0
-2 8 -6.241455078125 26 37 0
-2 8 -5.75902891159057617 3 11 0
-2.35319304466247559 8 5 4 0 0
-2 7.74676895141601562 5 2 0 0
-2 8 4.76092910766601562 4 6 0
-2 7.21064138412475586 6 0 0 0
-2 8 5.23971986770629883 0 1 0
-2.92397141456604004 8 7 0 0 0
-2 8.97874832153320312 -6 3 11 0
-2 8.97859477996826172 5 0 1 0
-1.96138632297515869 3 -9 0 27 28
-1.88729441165924072 5 -2 0 35 12
-1.33569145202636719 7 -7 0 16 1
-1.29445576667785645 7 6 0 0 0
-1.23213207721710205 8 -6 3 11 0
-1.18561780452728271 8 5 0 1 0
-0.259592235088348389 1 -1 2 9 0
0 0.987168073654174805 -1 3 5 2
0 1 -1.00362741947174072 1 0 0
0 1 -0.533716738224029541 2 7 1
0 1.00416088104248047 -1 2 7 1
0.00363382697105407715 1 -1 2 7 1
0.879428088665008545 3 -9 0 38 27
1 2.93494486808776855 -9 0 45 19
1 3 -9.88387012481689453 66 65 45
1 3 -8.94689083099365234 0 30 40
0.91588592529296875 3 8 0 18 11
1 2.95762252807617188 8 0 24 8
1 3 7.96397542953491211 0 12 1
1 3 8.82588863372802734 0 17 20
1 3.05125784873962402 -9 0 30 40
1 3.0323033332824707 8 0 17 20
0.548410475254058838 5 -2 0 28 6
1 4.95702409744262695 -2 7 3 1
1 5 -2.06042718887329102 6 22 0
1 5 -1.46419250965118408 0 28 16
0.554566383361816406 5 1 0 32 7
1 4.96525430679321289 1 11 5 1
1 5 0.497782081365585327 0 29 9
1 5 1.04757905006408691 0 32 17
1 5.04472827911376953 -2 0 28 16
1 5.0360870361328125 1 0 32 17
0.970163226127624512 7 -9 3 43 0
1 6.98578977584838867 -9 61 31 25
1 7 -9.68054008483886719 0 36 0
1 7 -8.98556804656982422 0 41 31
0.299985289573669434 7 -7 12 27 0
1 6.77385902404785156 -7 36 4 0
1 7 -7.22544336318969727 55 41 21
1 7 -6.75061798095703125 0 28 8
0.255870610475540161 7 6 6 11 0
1 6.77846384048461914 6 21 2 0
1 7 5.76204442977905273 14 3 0
1 7 6.22156763076782227 0 13 2
0.976873219013214111 7 8 0 22 0
1 6.99127721786499023 8 42 34 31
1 7 7.9911494255065918 38 35 26
1 7 8.56578159332275391 0 21 14
1 7.01415014266967773 -9 0 41 31
1 7.22726154327392578 -7 0 28 8
0.202169030904769897 8 -6 21 23 0
1 7.72777414321899414 -6 27 13 0
1 8 -6.24875020980834961 48 50 16
1 8 -5.75178956985473633 0 24 0
0.153446123003959656 8 5 9 10 0
1 7.73721647262573242 5 14 3 0
1 8 4.75345277786254883 18 18 0
1 7.22347211837768555 6 0 13 2
1 8 5.24727964401245117 1 11 0
1 7.00870752334594727 8 0 21 14
1 8.97945499420166016 -6 0 24 0
1 8.97934436798095703 5 1 11 0
1.97216570377349854 -8 -3 9 16 17
2 -8.03800201416015625 -3 24 35 38
2 -8 -3.01168632507324219 44 47 0
2 -8 -2.9715874195098877 7 13 22
1.99435818195343018 -8 2 7 10 11
2 -8.00754070281982422 2 17 30 32
2 -8 1.99419379234313965 10 13 13
2 -8 2.00238513946533203 7 11 16
2 -7.98838996887207031 -3 7 13 22
2 -7.99763011932373047 2 7 11 16
1.05401420593261719 3 -9 0 30 40
1.03373730182647705 3 8 0 17 20
1.85866165161132812 5 -8 42 35 0
2 4.86721944808959961 -8 47 31 0
2 5 -8.13310432434082031 63 48 41
1.96498119831085205 5 -7 30 17 14
2 4.96425151824951172 -7 23 25 18
2 5 -6.96473360061645508 0 20 22
1.06075632572174072 5 -2 0 28 16
1.04839241504669189 5 1 0 32 17
1.97581148147583008 5 6 14 10 9
2 4.97552776336669922 6 10 10 10
2 5 5.97567462921142578 2 1 1
1.85990309715270996 5 7 24 18 0
2 4.86896276473999023 7 29 14 0
2 5 7.13121414184570312 0 19 14
2 5.13341856002807617 -8 0 37 31
2 5.03594303131103516 -7 0 20 22
2 5.02476406097412109 6 0 6 6
2 5.13176155090332031 7 0 19 14
1.01569175720214844 7 -9 0 41 31
1.30698788166046143 7 -7 0 28 8
1.29359245300292969 7 6 0 13 2
1.00921499729156494 7 8 0 21 14
1.85036933422088623 8 -8 47 30 0
2 7.87785243988037109 -8 59 42 28
2 8 -8.24462032318115234 0 26 27
2 8 -7.87635421752929688 0 39 20
1.4002763032913208 8 -6 0 24 0
1.38437068462371826 8 5 1 11 0
1.86315035820007324 8 7 28 20 0
2 7.89579343795776367 7 41 38 32
2 8 6.89452219009399414 38 38 25
2 8 7.19560813903808594 0 21 8
2 8.95317268371582031 -8 0 39 20
2 8.94464111328125 7 0 21 8
2.01169013977050781 -8 -3 7 13 22
2.9645383358001709 -8 -1 11 12 12
3 -8.05421924591064453 -1 18 33 37
3 -8 -1.02852714061737061 28 31 31
2.96860241889953613 -8 0 10 11 11
3 -8.04805088043212891 0 16 32 36
3 -8 0.0249934643507003784 12 15 21
2.00238609313964844 -8 2 7 11 16
3 -7.98341512680053711 -1 12 16 22
3 -7.98521757125854492 0 12 15 21
2.99757933616638184 4 7 29 14 0
3 3.99755477905273438 7 31 33 0
3 4 6.98957681655883789 0 11 11
3 4 7.00242519378662109 0 23 21
2.13704991340637207 5 -8 0 37 31
2.03549814224243164 5 -7 0 20 22
2.02441811561584473 5 6 0 6 6
2.13486266136169434 5 7 0 19 14
3 4.00250244140625 7 0 23 21
2.8007805347442627 6 -7 42 0 0
3 5.80283164978027344 -7 45 17 0
3 6 -7.19807243347167969 61 44 43
3 6 -6.75977706909179688 0 35 24
2.80492591857910156 6 6 27 3 0
3 5.80718183517456055 6 30 6 0
3 6 5.77740573883056641 17 19 0
3 6 6.19370126724243164 0 20 12
3 6.19878673553466797 -7 0 35 24
3 6.19461631774902344 6 0 20 12
2.12070465087890625 8 -8 0 39 20
2.74576616287231445 8 -5 35 29 0
3 7.72310686111450195 -5 30 18 0
3 8 -5.25289201736450195 51 50 26
3 8 -4.74896574020385742 0 27 2
2.74665927886962891 8 4 24 22 0
3 7.73119783401489258 4 20 7 0
3 8 3.74987578392028809 26 25 0
3 8 4.25187969207763672 0 16 0
2.10292649269104004 8 7 0 21 8
3 8.97977924346923828 -5 0 27 2
3 8.97970867156982422 4 0 16 0
3.01691293716430664 -8 -1 12 16 22
3.0150752067565918 -8 0 12 15 21
3.95591974258422852 -7 -3 10 12 15
4 -7.01991176605224609 -3 21 46 47
4 -7 -3.01123547554016113 36 56 0
4 -7 -2.97992134094238281 7 12 31
3.98210048675537109 -7 2 7 8 10
4 -7.00868558883666992 2 14 41 42
4 -7 1.99115419387817383 19 23 24
4 -7 2.00496959686279297 8 12 25
4 -6.9883880615234375 -3 7 12 31
4 -6.99481582641601562 2 8 12 25
3.00241637229919434 4 7 0 23 21
3.85541081428527832 5 -7 45 17 0
4 4.85537052154541016 -7 50 39 0
4 5 -7.14493989944458008 65 60 57
4 5 -6.76192712783813477 0 40 37
3.85696268081665039 5 6 30 6 0
4 4.85682916641235352 6 35 22 0
4 5 5.79237842559814453 0 20 1
4 5 6.14339828491210938 0 24 21
3.19816946983337402 6 -7 0 35 24
4 5.14537143707275391 -7 0 40 37
3.94733214378356934 6 -5 20 18 14
4 5.94646024703979492 -5 21 22 19
4 6 -5.05959320068359375 43 37 0
4 6 -4.94730520248413086 0 22 17
3.19404172897338867 6 6 0 20 12
4 5.14400100708007812 6 0 24 21
4 6.063079833984375 -5 0 22 17
3.86464071273803711 8 -7 56 41 19
4 7.86548709869384766 -7 61 49 42
4 8 -7.16067123413085938 0 36 10
4 8 -6.86438894271850586 0 41 25
3.25663018226623535 8 -5 0 27 2
3.74792623519897461 8 -4 35 31 0
4 7.72193813323974609 -4 31 19 0
4 8 -4.25768518447875977 50 44 24
4 8 -3.74405384063720703 0 28 3
3.74863600730895996 8 3 26 25 0
4 7.72835206985473633 3 23 11 0
4 8 2.74465847015380859 31 23 0
3.25556325912475586 8 4 0 16 0
4 8 3.2568209171295166 0 19 1
3.87886476516723633 8 6 41 35 22
4 7.88002586364746094 6 46 45 43
4 8 5.87899875640869141 44 43 35
4 8 6.14839029312133789 0 25 13
4 8.95780086517333984 -7 0 41 25
4 8.979888916015625 -4 0 28 3
4 8.97983932495117188 3 0 19 1
4 8.95228862762451172 6 0 25 13
4.01174592971801758 -7 -3 7 12 31
4.00519609451293945 -7 2 8 12 25
4.14413595199584961 5 -7 0 40 37
4.14282369613647461 5 6 0 24 21
4.05983161926269531 6 -5 0 22 17
4.13190412521362305 8 -7 0 41 25
4.2544093132019043 8 -4 0 28 3
4.74636316299438477 8 -2 32 23 0
5 7.72218084335327148 -2 31 19 0
5 8 -2.41585254669189453 40 26 0
5 8 -1.05431616306304932 0 28 4
4.74678993225097656 8 1 28 22 0
5 7.72497367858886719 1 28 15 0
5 8 0.0486858412623405457 17 28 0
5 8 1.40831589698791504 0 24 3
4.2537074089050293 8 3 0 19 1
4.11782932281494141 8 6 0 25 13
5 8.97996425628662109 -2 0 28 4
5 8.97994518280029297 1 0 24 3
5.75161409378051758 5 -5 0 34 10
6 4.84775733947753906 -5 54 44 0
6 5 -5.15167522430419922 66 60 59
6 5 -4.84774971008300781 0 43 42
5.93723011016845703 5 -3 17 15 8
6 4.93644428253173828 -3 27 30 20
6 5 -3.06314253807067871 49 23 0
6 5 -2.9376375675201416 0 23 27
5.94083261489868164 5 2 11 10 4
6 4.94027996063232422 2 22 24 14
6 5 1.94119501113891602 31 29 27
6 5 2.05942559242248535 0 18 21
5.77768468856811523 5 4 0 24 2
6 4.84874153137207031 4 43 32 4
6 5 3.84875082969665527 41 15 0
6 5 4.15078306198120117 0 33 30
6 5.15307474136352539 -5 0 43 42
5.75087642669677734 6 -4 20 34 0
6 5.79463577270507812 -4 49 23 0
6 6 -4.2064061164855957 61 56 55
6 5.06407070159912109 -3 0 23 27
6 6 -3.79208159446716309 0 39 30
6 5.06036520004272461 2 0 18 21
5.76214742660522461 6 3 20 26 0
6 5.79682064056396484 3 41 15 0
6 6 2.79410552978515625 42 4 0
6 5.15215730667114258 4 0 33 30
6 6 3.20432448387145996 0 31 22
6 6.2072296142578125 -4 0 39 30
5.73870611190795898 7 -2 31 19 0
6 6.76265096664428711 -2 42 12 0
6 7 -2.32593894004821777 47 41 0
6 7 -1.14554870128631592 0 34 17
5.74184370040893555 7 1 28 15 0
6 6.76360225677490234 1 39 9 0
6 7 0.141203150153160095 5 34 0
6 7 1.32112956047058105 0 30 14
6 6.20515584945678711 3 0 31 22
5.85708808898925781 8 -5 57 52 39
6 7.85821294784545898 -5 63 57 54
6 8 -5.13895177841186523 52 6 0
6 8 -4.85706520080566406 0 42 28
5.25471353530883789 8 -2 0 28 4
6 7.23910713195800781 -2 0 34 17
5.25440597534179688 8 1 0 24 3
6 7.23838520050048828 1 0 30 14
5.86671352386474609 8 4 47 46 40
6 7.86777067184448242 4 53 51 51
6 8 3.86639833450317383 50 44 37
6 8 4.12972402572631836 0 32 18
6 8.96016502380371094 -5 0 42 28
6 8.95702934265136719 4 0 32 18
6.932220458984375 4 -4 0 29 31
7 3.97974395751953125 -4 41 58 0
7 4 -4.01997852325439453 68 63 57
7 4 -3.97994279861450195 0 45 48
6.89984703063964844 4 3 0 21 23
7 3.97481584548950195 3 41 50 7
7 4 2.97505593299865723 49 38 5
7 4 3.02484774589538574 0 39 40
6.15260982513427734 5 -5 0 43 42
7 4.02082157135009766 -4 0 45 48
7 4.8453221321105957 -3 55 45 0
7 5 -3.15973711013793945 62 56 46
7 5 -2.83366799354553223 0 44 43
7 4.84586334228515625 2 49 38 5
7 5 1.83403706550598145 44 47 0
7 4.02583885192871094 3 0 39 40
7 5 2.15891122817993164 0 38 36
6.15159416198730469 5 4 0 33 30
6.20643949508666992 6 -4 0 39 30
7 5.15555381774902344 -3 0 44 43
7 5.15505123138427734 2 0 38 36
6.20427703857421875 6 3 0 31 22
6.23697614669799805 7 -2 0 34 17
6.23624515533447266 7 1 0 30 14
6.17162990570068359 8 -5 0 42 28
6.85501623153686523 8 -3 57 54 45
7 7.85686683654785156 -3 63 61 60
7 8 -3.14119744300842285 54 7 0
7 8 -2.81629657745361328 0 43 28
6.86030912399291992 8 2 51 50 46
7 7.86206912994384766 2 57 56 55
7 8 1.82014882564544678 48 44 0
7 8 2.13599395751953125 0 37 22
6.16362190246582031 8 4 0 32 18
7 8.96058082580566406 -3 0 43 28
7 8.95895767211914062 2 0 37 22
7.90527486801147461 3 -2 14 39 20
8 2.88363385200500488 -2 0 57 35
8 3 -2.09353899955749512 49 64 42
8 3 -1.76403272151947021 0 32 51
7.90703487396240234 3 1 13 35 19
8 2.88683295249938965 1 0 53 32
8 3 0.769435226917266846 0 50 47
8 3 1.09005892276763916 0 31 48
7.02011013031005859 4 -4 0 45 48
8 3.0889427661895752 -2 0 32 51
8 3.085968017578125 1 0 31 48
7.02498865127563477 4 3 0 39 40
7.1550745964050293 5 -3 0 44 43
7.15448904037475586 5 2 0 38 36
7.93618917465209961 7 -2 61 60 59
8 6.93725252151489258 -2 68 60 60
8 7 -2.06851577758789062 29 56 0
8 7 -1.84391653537750244 0 48 44
7.93693399429321289 7 1 57 56 55
8 6.93796777725219727 1 65 53 53
8 7 0.843299984931945801 0 50 11
8 7 1.06677937507629395 0 44 40
7.29291296005249023 8 -3 0 43 28
8 7.0625147819519043 -2 0 48 44
8 7.06183242797851562 1 0 44 40
7.27686071395874023 8 2 0 37 22
8.931732177734375 3 -2 0 32 51
8.92943954467773438 3 1 0 31 48
8.90800094604492188 7 -2 0 48 44
8.90700912475585938 7 1 0 44 40
3 2 1 0
3 1 3 0
3 6 5 4
3 5 7 4
3 2 0 8
3 0 3 8
3 6 4 9
3 4 7 9
3 12 11 10
3 11 13 10
3 16 15 14
3 15 17 14
3 12 10 18
3 10 13 18
3 16 14 19
3 14 17 19
3 22 21 20
3 21 23 20
3 1 2 24
3 1 24 3
3 5 6 25
3 5 25 7
3 28 27 26
3 27 29 26
3 22 20 30
3 33 30 20
3 33 20 31
3 23 32 20
3 32 31 20
3 32 34 31
3 2 8 24
3 24 8 3
3 25 6 9
3 25 9 7
3 36 35 37
3 38 39 35
3 38 35 26
3 36 28 35
3 28 26 35
3 26 29 38
3 33 31 40
3 31 34 40
3 43 42 41
3 42 44 41
3 47 46 45
3 46 48 45
3 37 35 49
3 35 39 49
3 52 51 50
3 51 53 50
3 11 12 54
3 43 41 55
3 54 13 11
3 41 44 55
3 47 45 56
3 45 48 56
3 16 57 15
3 15 57 17
3 60 59 58
3 59 61 58
3 52 50 62
3 50 53 62
3 54 12 18
3 54 18 13
3 57 16 19
3 57 19 17
3 60 58 63
3 58 61 63
3 21 22 64
3 21 64 23
3 27 28 65
3 27 65 29
3 64 22 30
3 32 23 64
3 32 64 66
3 30 33 64
3 33 66 64
3 32 66 34
3 36 37 67
3 39 38 65
3 39 65 67
3 28 36 65
3 36 67 65
3 65 38 29
3 66 33 40
3 66 40 34
3 42 43 68
3 42 68 44
3 46 47 69
3 46 69 48
3 67 37 49
3 67 49 39
3 51 52 70
3 51 70 53
3 55 71 73
3 55 73 43
3 72 68 73
3 68 43 73
3 71 55 44
3 71 44 74
3 68 72 44
3 72 74 44
3 56 75 77
3 56 77 47
3 76 69 77
3 69 47 77
3 75 56 48
3 75 48 78
3 69 76 48
3 76 78 48
3 59 60 79
3 59 79 61
3 70 52 62
3 70 62 53
3 73 71 80
3 71 74 80
3 77 75 81
3 75 78 81
3 79 60 63
3 79 63 61
3 84 83 82
3 83 85 82
3 88 87 86
3 87 89 86
3 84 82 90
3 82 85 90
3 88 86 91
3 86 89 91
3 94 93 92
3 93 95 92
3 98 97 96
3 97 99 96
3 72 73 100
3 72 100 74
3 76 77 101
3 76 101 78
3 104 103 102
3 103 105 102
3 108 107 106
3 107 109 106
3 94 92 110
3 92 95 110
3 98 96 111
3 96 99 111
3 100 73 80
3 100 80 74
3 101 77 81
3 101 81 78
3 104 102 112
3 102 105 112
3 108 106 113
3 106 109 113
3 83 84 114
3 83 114 85
3 87 88 115
3 87 115 89
3 90 116 118
3 90 118 84
3 117 114 118
3 114 84 118
3 116 90 85
3 116 85 119
3 114 117 85
3 117 119 85
3 91 120 122
3 91 122 88
3 121 115 122
3 115 88 122
3 120 91 89
3 120 89 123
3 115 121 89
3 121 123 89
3 118 116 124
3 116 119 124
3 122 120 125
3 120 123 125
3 93 94 126
3 93 126 95
3 129 128 127
3 98 127 128
3 98 128 97
3 131 130 128
3 130 97 128
3 97 130 99
3 103 104 132
3 133 105 103
3 133 103 134
3 132 135 103
3 135 134 103
3 134 136 133
3 107 108 137
3 107 137 109
3 126 94 110
3 126 110 95
3 129 127 138
3 130 131 138
3 130 138 111
3 127 98 138
3 98 111 138
3 130 111 99
3 132 104 112
3 105 133 139
3 105 139 112
3 135 132 139
3 132 112 139
3 133 136 139
3 137 108 113
3 137 113 109
3 142 141 140
3 141 143 140
3 146 145 144
3 145 147 144
3 142 140 148
3 140 143 148
3 118 149 117
3 117 149 119
3 121 122 150
3 146 144 151
3 150 123 121
3 144 147 151
3 149 118 124
3 149 124 119
3 150 122 125
3 150 125 123
3 154 153 152
3 153 155 152
3 128 129 156
3 128 156 131
3 134 135 157
3 134 157 136
3 160 159 158
3 159 161 158
3 154 152 162
3 152 155 162
3 156 129 138
3 156 138 131
3 157 135 139
3 157 139 136
3 160 158 163
3 158 161 163
3 166 165 164
3 165 167 164
3 166 164 168
3 164 167 168
3 141 142 169
3 141 169 143
3 172 171 170
3 171 173 170
3 145 146 174
3 145 174 147
3 169 142 148
3 169 148 143
3 172 170 175
3 170 173 175
3 174 146 151
3 174 151 147
3 178 177 176
3 177 179 176
3 182 181 180
3 181 183 180
3 153 154 184
3 178 176 185
3 184 155 153
3 188 185 176
3 188 176 186
3 179 187 176
3 187 186 176
3 187 189 186
3 192 191 190
3 193 194 190
3 193 190 180
3 191 182 190
3 182 180 190
3 180 183 193
3 160 195 159
3 159 195 161
3 184 154 162
3 184 162 155
3 188 186 196
3 186 189 196
3 192 190 197
3 190 194 197
3 195 160 163
3 195 163 161
3 165 166 198
3 165 198 167
3 198 166 168
3 198 168 167
3 171 172 199
3 171 199 173
3 199 172 175
3 199 175 173
3 177 178 200
3 177 200 179
3 181 182 201
3 181 201 183
3 200 178 185
3 187 179 200
3 187 200 202
3 185 188 200
3 188 202 200
3 187 202 189
3 191 192 203
3 194 193 201
3 194 201 203
3 182 191 201
3 191 203 201
3 201 193 183
3 202 188 196
3 202 196 189
3 203 192 197
3 203 197 194
3 206 205 204
3 205 207 204
3 206 204 208
3 204 207 208
3 205 206 209
3 205 209 207
3 209 206 208
3 209 208 207
3 212 211 210
3 211 213 210
3 216 215 214
3 215 217 214
3 212 210 218
3 210 213 218
3 216 214 219
3 214 217 219
3 222 221 220
3 221 223 220
3 226 225 224
3 225 227 224
3 222 220 228
3 220 223 228
3 226 224 229
3 224 227 229
3 232 231 230
3 231 233 230
3 236 235 234
3 235 237 234
3 240 239 238
3 239 241 238
3 244 243 242
3 243 245 242
3 232 230 246
3 230 233 246
3 236 234 247
3 250 247 234
3 250 234 248
3 237 249 234
3 249 248 234
3 249 251 248
3 254 253 252
3 255 256 252
3 255 252 238
3 253 240 252
3 240 238 252
3 238 241 255
3 244 242 257
3 242 245 257
3 250 248 258
3 248 251 258
3 254 252 259
3 252 256 259
3 262 261 260
3 261 263 260
3 266 265 264
3 265 267 264
3 262 260 268
3 260 263 268
3 266 264 269
3 264 267 269
3 211 212 270
3 211 270 213
3 215 216 271
3 215 271 217
3 270 212 218
3 270 218 213
3 271 216 219
3 271 219 217
3 274 273 272
3 273 276 275
3 272 273 275
3 276 277 275
3 221 222 278
3 221 278 223
3 225 226 279
3 225 279 227
3 282 281 280
3 281 284 283
3 280 281 283
3 284 285 283
3 274 272 286
3 272 275 287
3 286 272 287
3 275 277 287
3 278 222 228
3 278 228 223
3 279 226 229
3 279 229 227
3 282 280 288
3 280 283 289
3 288 280 289
3 283 285 289
3 231 232 290
3 231 290 233
3 235 236 291
3 235 291 237
3 239 240 292
3 239 292 241
3 243 244 293
3 243 293 245
3 290 232 246
3 290 246 233
3 295 294 296
3 295 297 294
3 236 247 291
3 249 237 291
3 249 291 298
3 247 250 291
3 250 298 291
3 249 298 251
3 253 254 299
3 256 255 292
3 256 292 299
3 240 253 292
3 253 299 292
3 292 255 241
3 301 300 302
3 301 303 300
3 244 257 293
3 293 257 245
3 296 294 304
3 294 297 304
3 298 250 258
3 298 258 251
3 299 254 259
3 299 259 256
3 302 300 305
3 300 303 305
3 261 262 306
3 261 306 263
3 309 308 307
3 308 311 310
3 307 308 310
3 311 312 310
3 265 266 313
3 265 313 267
3 306 262 268
3 306 268 263
3 309 307 314
3 307 310 315
3 314 307 315
3 310 312 315
3 313 266 269
3 313 269 267
3 318 317 316
3 317 319 316
3 273 274 320
3 276 273 320
3 321 276 320
3 276 321 277
3 281 282 322
3 284 281 318
3 284 318 316
3 281 322 318
3 324 318 323
3 322 323 318
3 284 316 319
3 284 319 285
3 324 323 319
3 323 285 319
3 320 274 286
3 321 320 327
3 321 327 326
3 320 286 327
3 325 327 287
3 286 287 327
3 325 287 277
3 325 277 328
3 321 326 277
3 326 328 277
3 288 329 331
3 288 331 282
3 330 322 331
3 322 282 331
3 288 289 332
3 288 332 329
3 289 323 332
3 330 332 322
3 323 322 332
3 323 289 285
3 327 325 333
3 325 328 333
3 331 329 334
3 329 332 334
3 295 296 335
3 295 335 297
3 338 337 336
3 337 339 336
3 342 341 340
3 341 343 340
3 301 302 344
3 301 344 303
3 335 296 304
3 335 304 297
3 338 336 345
3 336 339 345
3 342 340 346
3 340 343 346
3 344 302 305
3 344 305 303
3 308 309 347
3 311 308 347
3 348 311 347
3 311 348 312
3 351 350 349
3 350 352 349
3 347 309 314
3 348 347 314
3 315 348 314
3 348 315 312
3 355 354 353
3 354 356 353
3 351 349 357
3 349 352 357
3 355 353 358
3 353 356 358
3 317 318 359
3 317 359 319
3 362 361 360
3 361 363 360
3 366 365 364
3 365 367 364
3 318 324 359
3 359 324 319
3 368 369 362
3 368 362 327
3 360 326 362
3 326 327 362
3 326 360 363
3 326 363 328
3 369 368 363
3 368 328 363
3 372 371 370
3 371 373 370
3 374 375 366
3 374 366 331
3 364 330 366
3 330 331 366
3 330 364 367
3 330 367 332
3 375 374 367
3 374 332 367
3 368 327 333
3 368 333 328
3 372 370 376
3 370 373 376
3 374 331 334
3 374 334 332
3 379 378 377
3 378 380 377
3 337 338 381
3 382 339 337
3 382 337 383
3 381 384 337
3 384 383 337
3 383 385 382
3 388 387 386
3 342 386 387
3 342 387 341
3 390 389 387
3 389 341 387
3 341 389 343
3 393 392 391
3 392 394 391
3 379 377 395
3 377 380 395
3 381 338 345
3 339 382 396
3 339 396 345
3 384 381 396
3 381 345 396
3 382 385 396
3 388 386 397
3 389 390 397
3 389 397 346
3 386 342 397
3 342 346 397
3 389 346 343
3 393 391 398
3 391 394 398
3 350 351 399
3 350 399 352
3 354 355 400
3 354 400 356
3 399 351 357
3 399 357 352
3 400 355 358
3 400 358 356
3 361 362 401
3 361 401 363
3 365 366 402
3 365 402 367
3 401 362 369
3 401 369 363
3 371 372 403
3 371 403 373
3 402 366 375
3 402 375 367
3 403 372 376
3 403 376 373
3 378 379 404
3 378 404 380
3 383 384 405
3 383 405 385
3 408 407 406
3 407 409 406
3 412 411 410
3 411 413 410
3 387 388 414
3 387 414 390
3 392 393 415
3 392 415 394
3 404 379 395
3 404 395 380
3 405 384 396
3 405 396 385
3 408 406 416
3 406 409 416
3 412 410 417
3 410 413 417
3 414 388 397
3 414 397 390
3 415 393 398
3 415 398 394
3 420 419 418
3 419 421 418
3 424 423 422
3 423 425 422
3 428 427 426
3 427 429 426
3 432 431 430
3 431 433 430
3 420 418 434
3 437 434 418
3 437 418 435
3 421 436 418
3 436 435 418
3 438 439 435
3 438 435 422
3 436 424 435
3 424 422 435
3 422 425 438
3 428 426 440
3 443 440 426
3 443 426 441
3 429 442 426
3 442 441 426
3 444 445 441
3 444 441 430
3 442 432 441
3 432 430 441
3 430 433 444
3 437 435 446
3 435 439 446
3 449 448 447
3 448 450 447
3 453 452 451
3 452 454 451
3 443 441 455
3 441 445 455
3 458 457 456
3 457 459 456
3 460 461 449
3 460 449 408
3 447 407 449
3 407 408 449
3 407 447 450
3 407 450 409
3 461 460 450
3 460 409 450
3 462 463 453
3 462 453 412
3 451 411 453
3 411 412 453
3 411 451 454
3 411 454 413
3 463 462 454
3 462 413 454
3 466 465 464
3 465 467 464
3 458 456 468
3 456 459 468
3 460 408 416
3 460 416 409
3 462 412 417
3 462 417 413
3 466 464 469
3 464 467 469
3 472 471 470
3 471 473 470
3 476 475 474
3 475 477 474
3 419 420 478
3 472 470 479
3 478 421 419
3 480 423 470
3 480 470 473
3 423 424 470
3 479 470 481
3 424 481 470
3 423 480 482
3 425 423 482
3 428 484 483
3 427 428 483
3 486 429 474
3 486 474 485
3 429 427 474
3 476 474 483
3 427 483 474
3 474 477 485
3 432 487 431
3 431 487 433
3 478 420 434
3 436 421 478
3 436 478 488
3 434 437 478
3 437 488 478
3 438 489 488
3 438 488 439
3 489 481 488
3 436 488 424
3 481 424 488
3 489 438 425
3 482 489 425
3 484 428 440
3 490 484 440
3 429 486 491
3 429 491 442
3 486 490 491
3 443 491 440
3 490 440 491
3 445 444 487
3 445 487 491
3 432 442 487
3 442 491 487
3 487 444 433
3 488 437 446
3 488 446 439
3 448 449 492
3 448 492 450
3 452 453 493
3 452 493 454
3 491 443 455
3 491 455 445
3 457 458 494
3 457 494 459
3 497 496 495
3 496 498 495
3 449 461 492
3 492 461 450
3 493 453 463
3 493 463 454
3 500 499 501
3 500 502 499
3 465 466 503
3 465 503 467
3 494 458 468
3 494 468 459
3 497 495 504
3 495 498 504
3 501 499 505
3 499 502 505
3 503 466 469
3 503 469 467
3 508 507 506
3 507 509 506
3 512 511 510
3 511 513 510
3 471 472 514
3 471 514 473
3 508 506 515
3 506 509 515
3 512 510 516
3 510 513 516
3 475 476 517
3 475 517 477
3 514 472 479
3 480 473 514
3 480 514 518
3 479 481 514
3 481 518 514
3 480 518 482
3 483 484 519
3 486 485 517
3 486 517 519
3 476 483 517
3 483 519 517
3 517 485 477
3 518 481 489
3 518 489 482
3 519 484 490
3 519 490 486
3 522 521 520
3 521 523 520
3 526 525 524
3 525 527 524
3 496 497 528
3 522 520 529
3 528 498 496
3 520 523 529
3 526 524 530
3 524 527 530
3 501 531 500
3 500 531 502
3 528 497 504
3 528 504 498
3 531 501 505
3 531 505 502
3 507 508 532
3 507 532 509
3 511 512 533
3 511 533 513
3 532 508 515
3 532 515 509
3 533 512 516
3 533 516 513
3 521 522 534
3 521 534 523
3 525 526 535
3 525 535 527
3 534 522 529
3 534 529 523
3 535 526 530
3 535 530 527
