ply
format ascii 1.0
element vertex 372
property float x
property float y
property float z
property uchar red
property uchar green
property uchar blue
element face 740
property list uchar int vertex_indices
end_header
-4.04648923873901367 -9 -3 255 139 149
-4 -9.16618251800537109 -3 255 182 182
-4 -9 -3.31277966499328613 255 160 160
-4 -9 -2.71426200866699219 255 155 208
-4.02318286895751953 -8 -3 255 113 202
-4 -8 -3.15394854545593262 255 132 203
-4 -8 -2.85367250442504883 246 125 255
-4 -7.0622406005859375 -3 246 125 255
-3.14539527893066406 -9 -5 255 157 157
-3 -9.29459285736083984 -5 255 189 189
-3 -9 -5.12304544448852539 255 153 153
-3.84397745132446289 -9 -4 255 160 160
-3 -9.70315170288085938 -4 255 190 190
-3 -9.74918079376220703 -3 255 182 182
-3.82292604446411133 -9 -2 255 141 237
-3 -9.69836902618408203 -2 255 171 206
-3.11413168907165527 -9 -1 255 132 232
-3 -9.24735546112060547 -1 255 161 216
-3 -9 -0.903395771980285645 251 143 255
-3.10723686218261719 -8 -5 255 136 136
-3 -8 -5.09071636199951172 255 139 139
-3.8054044246673584 -8 -4 255 132 203
-3.79381322860717773 -8 -2 218 121 255
-3.09294748306274414 -8 -1 230 126 255
-3 -8 -0.92096787691116333 209 135 255
-3.0657346248626709 -7 -5 255 119 187
-3 -7 -5.05556249618530273 255 137 140
-3.76459455490112305 -7 -4 235 114 255
-3.99764037132263184 -7 -3 173 112 255
-3.75863432884216309 -7 -2 149 115 255
-3.05936622619628906 -7 -1 163 127 255
-3 -7 -0.949529767036437988 151 136 255
-3.01579475402832031 -6 -5 228 119 252
-3 -6 -5.01335430145263672 255 143 222
-3.71317887306213379 -6 -4 141 109 252
-3.94508719444274902 -6 -3 108 139 254
-3.70311141014099121 -6 -2 112 177 255
-3.00062870979309082 -6 -1 122 192 255
-3 -6 -0.999466955661773682 132 208 255
-3 -5.73588085174560547 -5 201 126 255
-3.64844036102294922 -5 -4 100 159 210
-3 -5 -4.93523883819580078 115 126 205
-3.87428855895996094 -5 -3 98 218 214
-3.62470316886901855 -5 -2 103 228 180
-3 -5.99269580841064453 -1 132 208 255
-3 -5 -1.1227717399597168 108 226 166
-3.5779571533203125 -4 -4 129 208 189
-3 -4 -4.83821868896484375 132 165 182
-3.79617905616760254 -4 -3 131 235 143
-3.53846168518066406 -4 -2 181 255 138
-3 -4 -1.25441122055053711 200 255 141
-3.50727486610412598 -3 -4 217 255 239
-3 -3 -4.73408365249633789 242 250 255
-3.72299337387084961 -3 -3 216 255 199
-3.46203804016113281 -3 -2 251 255 195
-3 -3 -1.3642735481262207 255 243 194
-3.42418932914733887 -2 -4 237 255 248
-3 -2 -4.60851621627807617 222 250 255
-3.64391756057739258 -2 -3 247 255 247
-3.38597369194030762 -2 -2 217 219 213
-3 -2 -1.46825087070465088 247 247 240
-3.31472182273864746 -1 -4 39 44 36
-3 -1 -4.4463343620300293 41 51 41
-3.54020452499389648 -1 -3 70 73 60
-3.28858232498168945 -1 -2 83 77 66
-3 -1 -1.5994802713394165 101 87 79
-3.19701814651489258 0 -4 42 37 34
-3 0 -4.27751302719116211 42 39 34
-3.42872977256774902 0 -3 48 38 38
-3.18624448776245117 0 -2 60 51 45
-3 0 -1.73874068260192871 57 52 41
-3.11512398719787598 1 -4 110 101 93
-3 1 -4.16196393966674805 119 106 101
-3.3504939079284668 1 -3 109 105 88
-3.11526942253112793 1 -2 122 126 97
-3 1 -1.83683633804321289 99 112 83
-3.07306981086730957 2 -4 195 190 171
-3 2 -4.10303449630737305 204 195 181
-3.30954194068908691 2 -3 188 192 160
-3.07830667495727539 2 -2 189 204 162
-3 2 -1.88847851753234863 160 192 147
-3.05444025993347168 3 -4 249 243 225
-3 3 -4.07705402374267578 255 245 233
-3.29068493843078613 3 -3 242 245 211
-3.06156635284423828 3 -2 236 248 205
-3 3 -1.91191780567169189 211 242 193
-3.0494387149810791 4 -4 243 235 227
-3 4 -4.07031011581420898 218 211 206
-3.28494644165039062 4 -3 255 248 228
-3.0572514533996582 4 -2 255 253 218
-3 4 -1.91775596141815186 242 255 211
-3.05747294425964355 5 -4 130 126 125
-3 5 -4.08220863342285156 119 116 115
-3.29190874099731445 5 -3 147 141 136
-3.06517672538757324 5 -2 148 143 133
-3 5 -1.90607690811157227 171 170 149
-3.08259487152099609 6 -4 216 215 215
-3 6 -4.11905288696289062 235 234 233
-3.31491851806640625 6 -3 204 201 200
-3.08715391159057617 6 -2 227 224 222
-3 6 -1.87464785575866699 199 196 188
-3.12198734283447266 7 -4 255 250 226
-3 7 -4.17777252197265625 252 255 230
-3.34795904159545898 7 -3 255 233 226
-3.11280965805053711 7 -2 255 228 217
-3 7 -1.8396066427230835 255 247 226
-3.1515040397644043 8 -4 229 255 173
-3 8 -4.22366571426391602 207 255 185
-3.36746716499328613 8 -3 255 215 163
-3.12236595153808594 8 -2 255 152 143
-3 8 -1.82759654521942139 255 191 154
-3 8.30653858184814453 -4 255 237 183
-3 8.51588821411132812 -3 255 176 172
-3 8.26395893096923828 -2 255 191 154
-2 -9.65464401245117188 -5 255 187 187
-2 -9 -5.56777000427246094 255 153 153
-2 -9.79227733612060547 -4 255 185 185
-2 -9.81560516357421875 -3 255 179 179
-2 -9.7901153564453125 -2 255 170 207
-2 -9.64400482177734375 -1 255 163 217
-2 -9 -0.460874229669570923 251 148 255
-2 -8 -5.53394222259521484 255 138 138
-2 -8 -0.47683262825012207 212 144 255
-2 -7 -5.49704837799072266 255 138 158
-2 -7 -0.505359828472137451 159 145 255
-2 -6 -5.45340967178344727 255 151 238
-2 -6 -0.556029856204986572 141 208 255
-2.91420364379882812 -5 -5 115 126 205
-2 -5 -5.40214014053344727 167 137 194
-2.83469247817993164 -5 -1 119 238 159
-2 -5 -0.631043851375579834 127 238 170
-2.78679633140563965 -4 -5 132 165 182
-2 -4 -5.34565877914428711 156 151 167
-2.65305161476135254 -4 -1 232 255 144
-2 -4 -0.713442802429199219 229 255 150
-2.64866757392883301 -3 -5 242 250 255
-2 -3 -5.28380632400512695 238 229 255
-2.49990200996398926 -3 -1 255 222 198
-2 -3 -0.781646609306335449 255 224 202
-2.47788643836975098 -2 -5 222 250 255
-2 -2 -5.20800304412841797 202 223 255
-2.35745835304260254 -2 -1 239 230 225
-2 -2 -0.843703985214233398 246 233 228
-2.25264334678649902 -1 -5 41 51 41
-2 -1 -5.10935354232788086 40 51 43
-2.18216824531555176 -1 -1 94 73 71
-2 -1 -0.919984757900238037 99 76 72
-2.0179746150970459 0 -5 42 39 34
-2 0 -5.00778341293334961 75 74 62
-2 -0.00165650201961398125 -1 99 76 72
-2 0 -1.00022900104522705 56 53 39
-2 0.11459360271692276 -5 44 40 35
-2 1 -4.89549064636230469 122 108 100
-2 1 -1.09552502632141113 90 110 78
-2 2 -4.83904600143432617 207 199 177
-2 2 -1.14348185062408447 144 190 140
-2 3 -4.81787824630737305 255 246 226
-2 3 -1.16253805160522461 196 243 187
-2 4 -4.81765604019165039 227 217 208
-2 4 -1.16348719596862793 229 255 204
-2 5 -4.83783340454101562 119 114 113
-2 5 -1.14709138870239258 174 179 151
-2 6 -4.88513422012329102 236 234 233
-2 6 -1.114357590675354 196 195 180
-2 7 -4.95528030395507812 255 251 237
-2 7 -1.08500349521636963 255 254 232
-2.01333928108215332 8 -5 207 255 185
-2 7.80903911590576172 -5 255 251 237
-2 8 -5.00617027282714844 188 255 218
-2 8 -1.07835245132446289 255 217 160
-2 8.02032184600830078 -5 235 255 191
-2 8.66225147247314453 -4 255 214 187
-2 8.72001075744628906 -3 255 197 176
-2 8.65261173248291016 -2 255 217 160
-1 -9.67281055450439453 -5 255 178 178
-1 -9 -5.61539316177368164 255 148 148
-1 -9.7990570068359375 -4 255 177 177
-1 -9.82100677490234375 -3 255 172 172
-1 -9.79707527160644531 -2 255 167 191
-1 -9.66307353973388672 -1 255 165 202
-1 -9 -0.415174603462219238 255 148 239
-1 -8 -5.57969331741333008 255 134 134
-1 -8 -0.432023406028747559 232 152 255
-1 -7 -5.54086637496948242 255 137 158
-1 -7 -0.460393756628036499 183 154 255
-1 -6 -5.49550104141235352 255 156 241
-1 -6 -0.509343445301055908 150 196 255
-1 -5 -5.44299888610839844 172 149 194
-1 -5 -0.582250237464904785 138 242 196
-1 -4 -5.38543605804443359 164 162 167
-1 -4 -0.664146661758422852 216 255 161
-1 -3 -5.32222414016723633 229 214 255
-1 -3 -0.732541799545288086 255 238 214
-1 -2 -5.24469232559204102 188 213 251
-1 -2 -0.795040905475616455 216 205 190
-1 -1 -5.14404535293579102 36 47 38
-1 -1 -0.872782349586486816 85 59 59
-1 0 -5.04319334030151367 84 82 66
-1.99700438976287842 0 -1 66 68 46
-1 0 -0.955463528633117676 70 70 44
-1 0.662276327610015869 -5 66 58 50
-1 1 -4.96179771423339844 149 130 117
-1 0.783947765827178955 -1 70 70 44
-1 1 -1.0212700366973877 95 121 82
-1 2 -4.91098880767822266 227 217 187
-1 2 -1.06826281547546387 145 202 143
-1 3 -4.89597845077514648 255 243 218
-1 3 -1.08394467830657959 196 254 188
-1 4 -4.90318489074707031 208 197 184
-1 4 -1.08043539524078369 225 255 197
-1 5 -4.93250894546508789 116 109 106
-1 5 -1.05939078330993652 160 167 137
-1 6 -4.98981571197509766 255 246 244
-1 6 -1.02305197715759277 214 216 194
-1.59162116050720215 7 -5 255 251 237
-1 6.13685464859008789 -5 255 246 244
-1 7 -5.0377507209777832 242 255 235
-1.09087705612182617 7 -1 246 255 221
-1 6.72905445098876953 -1 234 240 214
-1 7 -0.995065987110137939 248 255 230
-1 8 -5.06761598587036133 191 255 208
-1.17570877075195312 8 -1 255 214 143
-1 8 -0.990237951278686523 255 217 152
-1 8.18498134613037109 -5 247 255 191
-1 8.68349552154541016 -4 255 203 186
-1 8.73433589935302734 -3 255 203 177
-1 8.67420387268066406 -2 255 220 165
-1 8.03292274475097656 -1 255 217 152
0 -9.49216938018798828 -5 255 183 183
0 -9 -5.2858734130859375 255 157 157
0 -9.74471950531005859 -4 255 181 181
0 -9.77944564819335938 -3 255 178 178
0 -9.74088287353515625 -2 255 177 177
0 -9.46238613128662109 -1 255 177 186
0 -9 -0.749025464057922363 255 161 214
0 -8 -5.24985170364379883 255 148 148
0 -8 -0.768795430660247803 255 164 250
0 -7 -5.2100224494934082 255 155 155
0 -7 -0.798337161540985107 212 163 255
0 -6 -5.16328287124633789 255 179 230
0 -6 -0.846815824508666992 160 180 255
0 -5 -5.10982275009155273 175 157 182
0 -5 -0.916537880897521973 152 246 224
0 -4 -5.05193901062011719 187 177 192
0 -4 -0.992621302604675293 205 255 178
-0.0372624583542346954 -3 -5 238 248 255
0 -3.19230389595031738 -5 189 193 198
0 -3 -4.97848796844482422 211 224 255
-0.177736803889274597 -3 -1 255 238 214
0 -3.88613724708557129 -1 205 255 178
0 -3 -1.09746527671813965 252 255 245
-0.276496350765228271 -2 -5 197 250 255
0 -2 -4.83908271789550781 146 199 208
-0.373230427503585815 -2 -1 216 205 190
0 -2 -1.20656657218933105 156 171 134
-0.577298820018768311 -1 -5 29 39 28
0 -1 -4.66216564178466797 20 27 18
-0.616366803646087646 -1 -1 85 59 59
0 -1 -1.34796679019927979 68 56 44
-0.872276544570922852 0 -5 66 58 50
0 0 -4.49529647827148438 82 70 59
-0.866944849491119385 0 -1 70 70 44
0 0 -1.49537694454193115 66 59 41
0 1 -4.39433526992797852 164 137 123
0 1 -1.59300315380096436 109 135 86
0 2 -4.35023975372314453 233 214 183
0 2 -1.63814318180084229 155 211 141
0 3 -4.33841037750244141 255 232 208
0 3 -1.65221166610717773 201 255 178
0 4 -4.34764432907104492 194 174 164
0 4 -1.64700889587402344 233 255 187
0 5 -4.37953329086303711 122 106 106
0 5 -1.62353229522705078 158 159 124
0 6 -4.43840408325195312 255 244 235
0 6 -1.58316552639007568 240 234 206
-0.88425445556640625 7 -5 255 250 240
0 7 -4.50774574279785156 255 254 246
-0.984972774982452393 7 -1 248 255 230
0 7 -1.54618918895721436 255 253 244
-0.795808255672454834 8 -5 247 255 191
0 8 -4.54740142822265625 234 255 195
-0.970177054405212402 8 -1 255 217 152
0 8 -1.53466451168060303 255 200 172
0 8.51687335968017578 -4 255 221 189
0 8.62631130218505859 -3 255 185 181
0 8.49080467224121094 -2 255 200 172
0.401957601308822632 -9 -5 255 156 156
1 -9.36309909820556641 -4 255 196 196
1 -9 -4.28334522247314453 255 175 175
1 -9.54662322998046875 -3 255 195 195
1 -9.33530998229980469 -2 255 197 197
0.35455736517906189 -9 -1 255 161 214
1 -9 -1.75631630420684814 255 178 182
0.351044356822967529 -8 -5 255 144 144
1 -8 -4.22288799285888672 255 168 168
0.323958873748779297 -8 -1 255 164 250
1 -8 -1.80094921588897705 255 170 215
0.294374227523803711 -7 -5 255 148 209
1 -7 -4.15340232849121094 255 171 188
0.280676662921905518 -7 -1 212 163 255
1 -7 -1.860420823097229 243 165 255
0.228082939982414246 -6 -5 227 161 255
1 -6 -4.06879520416259766 255 185 252
0.212152957916259766 -6 -1 160 180 255
1 -6 -1.94717907905578613 171 164 255
0.153022482991218567 -5 -5 151 153 202
0.9763450026512146 -5 -4 142 184 214
1 -5.28893852233886719 -4 217 170 255
1 -5 -3.91137003898620605 164 177 210
0.950835466384887695 -5 -2 142 234 219
1 -5.52231502532958984 -2 171 164 255
1 -5 -2.16879916191101074 162 205 225
0.115864470601081848 -5 -1 152 246 224
0.0722363591194152832 -4 -5 189 193 198
0.891224265098571777 -4 -4 189 223 213
1 -4 -3.58712196350097656 253 254 255
0.855360329151153564 -4 -2 197 255 184
1 -4 -2.48333525657653809 231 255 244
0.0103674270212650299 -4 -1 205 255 178
0.797956705093383789 -3 -4 231 255 249
1 -3 -3.24108242988586426 197 235 255
0.766824841499328613 -3 -2 252 255 245
1 -3 -2.78310489654541016 214 255 236
0.681162416934967041 -2 -4 137 189 167
0.951683163642883301 -2 -3 127 167 126
1 -2.42993807792663574 -3 214 255 236
0.664798378944396973 -2 -2 156 171 134
0.537123441696166992 -1 -4 27 31 20
0.810432076454162598 -1 -3 49 47 32
0.535943686962127686 -1 -2 68 56 44
0.406229883432388306 0 -4 62 42 42
0.683257758617401123 0 -3 60 48 38
0.412839293479919434 0 -2 66 59 41
0.326808542013168335 1 -4 137 132 98
0.606064021587371826 1 -3 117 130 87
0.334568440914154053 1 -2 109 135 86
0.291357994079589844 2 -4 203 212 158
0.571017086505889893 2 -3 170 206 145
0.2983512282371521 2 -2 155 211 141
0.281469017267227173 3 -4 250 255 198
0.56042712926864624 3 -3 220 252 186
0.286937296390533447 3 -2 201 255 178
0.288582742214202881 4 -4 252 240 204
0.566142857074737549 4 -3 249 255 196
0.291388720273971558 4 -2 233 255 187
0.314451038837432861 5 -4 124 114 104
0.589561283588409424 5 -3 142 138 115
0.311643004417419434 5 -2 158 159 124
0.361604750156402588 6 -4 255 232 229
0.631699740886688232 6 -3 244 231 215
0.347371786832809448 6 -2 240 234 206
0.413437038660049438 7 -4 255 249 248
0.67412114143371582 7 -3 255 250 247
0.381150335073471069 7 -2 255 253 244
0.438533395528793335 8 -4 255 221 189
0.69033205509185791 8 -3 255 185 181
0.391980111598968506 8 -2 255 200 172
1.14967823028564453 -9 -4 255 174 174
1.31920814514160156 -9 -3 255 174 174
1.13229215145111084 -9 -2 255 178 182
1.11774492263793945 -8 -4 255 167 167
1.28911900520324707 -8 -3 255 168 197
1.10679531097412109 -8 -2 255 170 215
1.08085596561431885 -7 -4 255 163 223
1.25277996063232422 -7 -3 255 161 251
1.07410037517547607 -7 -2 243 165 255
1.03608524799346924 -6 -4 217 170 255
1.2059859037399292 -6 -3 185 163 255
1.02791690826416016 -6 -2 171 164 255
1.15130722522735596 -5 -3 162 205 225
1.09636318683624268 -4 -3 231 255 244
1.03999733924865723 -3 -3 214 255 236
3 2 1 0
3 1 3 0
3 5 2 0
3 4 5 0
3 3 6 4
3 0 3 4
3 5 4 7
3 4 6 7
3 10 9 8
3 9 12 11
3 8 9 11
3 2 11 12
3 2 12 1
3 1 12 13
3 14 3 1
3 14 1 15
3 15 1 13
3 15 17 16
3 14 15 16
3 17 18 16
3 20 10 8
3 19 20 8
3 8 11 19
3 11 21 19
3 11 5 21
3 2 5 11
3 22 3 14
3 6 3 22
3 14 16 22
3 16 23 22
3 18 24 23
3 16 18 23
3 26 20 19
3 25 26 19
3 19 21 25
3 21 27 25
3 7 21 5
3 7 28 21
3 28 27 21
3 6 28 7
3 6 22 28
3 22 29 28
3 22 23 29
3 23 30 29
3 24 31 30
3 23 24 30
3 33 26 25
3 32 33 25
3 25 27 32
3 27 34 32
3 27 28 34
3 28 35 34
3 28 29 35
3 29 36 35
3 29 30 36
3 30 37 36
3 31 38 37
3 30 31 37
3 33 32 39
3 41 39 32
3 41 32 40
3 40 32 34
3 34 35 40
3 35 42 40
3 35 36 42
3 36 43 42
3 44 45 43
3 44 43 37
3 37 43 36
3 37 38 44
3 47 41 40
3 46 47 40
3 40 42 46
3 42 48 46
3 42 43 48
3 43 49 48
3 45 50 49
3 43 45 49
3 52 47 46
3 51 52 46
3 46 48 51
3 48 53 51
3 48 49 53
3 49 54 53
3 50 55 54
3 49 50 54
3 57 52 51
3 56 57 51
3 51 53 56
3 53 58 56
3 53 54 58
3 54 59 58
3 55 60 59
3 54 55 59
3 62 57 56
3 61 62 56
3 56 58 61
3 58 63 61
3 58 59 63
3 59 64 63
3 60 65 64
3 59 60 64
3 67 62 61
3 66 67 61
3 61 63 66
3 63 68 66
3 63 64 68
3 64 69 68
3 65 70 69
3 64 65 69
3 72 67 66
3 71 72 66
3 66 68 71
3 68 73 71
3 68 69 73
3 69 74 73
3 70 75 74
3 69 70 74
3 77 72 71
3 76 77 71
3 71 73 76
3 73 78 76
3 73 74 78
3 74 79 78
3 75 80 79
3 74 75 79
3 82 77 76
3 81 82 76
3 76 78 81
3 78 83 81
3 78 79 83
3 79 84 83
3 80 85 84
3 79 80 84
3 87 82 81
3 86 87 81
3 81 83 86
3 83 88 86
3 83 84 88
3 84 89 88
3 85 90 89
3 84 85 89
3 92 87 86
3 91 92 86
3 86 88 91
3 88 93 91
3 88 89 93
3 89 94 93
3 90 95 94
3 89 90 94
3 97 92 91
3 96 97 91
3 91 93 96
3 93 98 96
3 93 94 98
3 94 99 98
3 95 100 99
3 94 95 99
3 102 97 96
3 101 102 96
3 96 98 101
3 98 103 101
3 98 99 103
3 99 104 103
3 100 105 104
3 99 100 104
3 107 102 101
3 106 107 101
3 101 103 106
3 103 108 106
3 103 104 108
3 104 109 108
3 105 110 109
3 104 105 109
3 107 106 111
3 106 108 112
3 111 106 112
3 108 109 113
3 112 108 113
3 109 110 113
3 10 115 114
3 9 10 114
3 114 116 9
3 9 116 12
3 116 117 12
3 12 117 13
3 117 118 13
3 13 118 15
3 118 119 15
3 15 119 17
3 17 119 120
3 18 17 120
3 115 10 121
3 121 10 20
3 120 122 18
3 122 24 18
3 121 20 123
3 123 20 26
3 122 124 24
3 124 31 24
3 123 26 125
3 125 26 33
3 124 126 31
3 126 38 31
3 39 127 128
3 39 128 33
3 33 128 125
3 39 41 127
3 44 129 45
3 129 44 38
3 129 38 130
3 130 38 126
3 132 128 127
3 131 132 127
3 127 47 131
3 41 47 127
3 133 45 129
3 50 45 133
3 130 134 133
3 129 130 133
3 136 132 131
3 135 136 131
3 131 52 135
3 47 52 131
3 137 50 133
3 55 50 137
3 134 138 137
3 133 134 137
3 140 136 135
3 139 140 135
3 135 57 139
3 52 57 135
3 141 55 137
3 60 55 141
3 138 142 141
3 137 138 141
3 144 140 139
3 143 144 139
3 139 62 143
3 57 62 139
3 145 60 141
3 65 60 145
3 142 146 145
3 141 142 145
3 148 144 143
3 147 148 143
3 143 67 147
3 62 67 143
3 149 65 145
3 149 150 65
3 150 70 65
3 145 146 149
3 148 147 151
3 147 152 151
3 147 67 152
3 67 72 152
3 150 153 70
3 153 75 70
3 152 72 154
3 154 72 77
3 153 155 75
3 155 80 75
3 154 77 156
3 156 77 82
3 155 157 80
3 157 85 80
3 156 82 158
3 158 82 87
3 157 159 85
3 159 90 85
3 158 87 160
3 160 87 92
3 159 161 90
3 161 95 90
3 160 92 162
3 162 92 97
3 161 163 95
3 163 100 95
3 162 97 164
3 164 97 102
3 163 165 100
3 165 105 100
3 168 167 166
3 167 107 166
3 167 164 107
3 164 102 107
3 165 169 105
3 169 110 105
3 168 166 170
3 166 107 111
3 166 111 170
3 170 111 171
3 171 111 172
3 111 112 172
3 172 112 173
3 112 113 173
3 173 113 110
3 169 173 110
3 115 175 174
3 114 115 174
3 174 176 114
3 114 176 116
3 176 177 116
3 116 177 117
3 177 178 117
3 117 178 118
3 178 179 118
3 118 179 119
3 119 179 180
3 120 119 180
3 175 115 181
3 181 115 121
3 180 182 120
3 182 122 120
3 181 121 183
3 183 121 123
3 182 184 122
3 184 124 122
3 183 123 185
3 185 123 125
3 184 186 124
3 186 126 124
3 185 125 187
3 187 125 128
3 186 188 126
3 188 130 126
3 187 128 189
3 189 128 132
3 188 190 130
3 190 134 130
3 189 132 191
3 191 132 136
3 190 192 134
3 192 138 134
3 191 136 193
3 193 136 140
3 192 194 138
3 194 142 138
3 193 140 195
3 195 140 144
3 194 196 142
3 196 146 142
3 195 144 197
3 197 144 148
3 149 198 150
3 198 149 146
3 198 146 199
3 199 146 196
3 197 148 151
3 200 197 151
3 151 201 200
3 152 201 151
3 202 150 198
3 202 203 150
3 203 153 150
3 198 199 202
3 201 152 204
3 204 152 154
3 203 205 153
3 205 155 153
3 204 154 206
3 206 154 156
3 205 207 155
3 207 157 155
3 206 156 208
3 208 156 158
3 207 209 157
3 209 159 157
3 208 158 210
3 210 158 160
3 209 211 159
3 211 161 159
3 210 160 212
3 212 160 162
3 211 213 161
3 213 163 161
3 216 215 214
3 215 164 214
3 215 212 164
3 212 162 164
3 217 213 218
3 217 165 213
3 165 163 213
3 218 219 217
3 214 167 168
3 214 168 216
3 216 168 220
3 214 164 167
3 221 165 217
3 169 165 221
3 219 222 221
3 217 219 221
3 220 168 170
3 223 220 170
3 223 170 224
3 170 171 224
3 224 171 225
3 171 172 225
3 225 172 226
3 172 173 226
3 169 221 227
3 169 227 173
3 173 227 226
3 221 222 227
3 175 229 228
3 174 175 228
3 228 230 174
3 174 230 176
3 230 231 176
3 176 231 177
3 231 232 177
3 177 232 178
3 232 233 178
3 178 233 179
3 179 233 234
3 180 179 234
3 229 175 235
3 235 175 181
3 234 236 180
3 236 182 180
3 235 181 237
3 237 181 183
3 236 238 182
3 238 184 182
3 237 183 239
3 239 183 185
3 238 240 184
3 240 186 184
3 239 185 241
3 241 185 187
3 240 242 186
3 242 188 186
3 241 187 243
3 243 187 189
3 242 244 188
3 244 190 188
3 245 246 243
3 245 243 191
3 191 243 189
3 246 245 247
3 250 248 249
3 249 248 192
3 249 192 244
3 244 192 190
3 251 245 191
3 193 251 191
3 247 251 252
3 245 251 247
3 254 248 250
3 253 248 254
3 248 253 194
3 192 248 194
3 255 251 193
3 195 255 193
3 252 255 256
3 251 255 252
3 258 253 254
3 257 253 258
3 253 257 196
3 194 253 196
3 259 255 195
3 197 259 195
3 256 259 260
3 255 259 256
3 262 257 258
3 261 257 262
3 257 261 199
3 196 257 199
3 259 197 200
3 200 260 259
3 200 201 260
3 201 263 260
3 261 203 202
3 261 262 203
3 262 264 203
3 261 202 199
3 263 201 265
3 265 201 204
3 264 266 203
3 266 205 203
3 265 204 267
3 267 204 206
3 266 268 205
3 268 207 205
3 267 206 269
3 269 206 208
3 268 270 207
3 270 209 207
3 269 208 271
3 271 208 210
3 270 272 209
3 272 211 209
3 271 210 273
3 273 210 212
3 272 274 211
3 274 213 211
3 215 216 275
3 275 212 215
3 275 276 212
3 276 273 212
3 218 278 277
3 218 213 278
3 213 274 278
3 218 277 219
3 279 275 216
3 220 279 216
3 276 279 280
3 275 279 276
3 282 277 278
3 281 277 282
3 277 281 222
3 219 277 222
3 279 220 223
3 280 279 223
3 280 223 283
3 283 223 224
3 283 224 284
3 224 225 284
3 284 225 285
3 225 226 285
3 281 282 285
3 281 285 227
3 227 285 226
3 281 227 222
3 228 229 286
3 286 288 287
3 286 287 228
3 228 287 230
3 287 289 230
3 230 289 231
3 289 290 231
3 231 290 232
3 292 291 233
3 292 233 290
3 290 233 232
3 233 291 234
3 293 286 229
3 235 293 229
3 288 293 294
3 286 293 288
3 296 291 292
3 295 291 296
3 291 295 236
3 234 291 236
3 297 293 235
3 237 297 235
3 294 297 298
3 293 297 294
3 300 295 296
3 299 295 300
3 295 299 238
3 236 295 238
3 301 297 237
3 239 301 237
3 298 301 302
3 297 301 298
3 304 299 300
3 303 299 304
3 299 303 240
3 238 299 240
3 305 301 239
3 241 305 239
3 302 306 307
3 302 301 306
3 301 305 306
3 307 306 308
3 311 309 310
3 310 303 304
3 310 309 303
3 309 312 303
3 303 312 242
3 240 303 242
3 313 305 241
3 243 313 241
3 305 313 306
3 306 313 314
3 308 314 315
3 306 314 308
3 317 309 311
3 316 309 317
3 309 316 312
3 312 316 318
3 312 318 244
3 242 312 244
3 313 243 246
3 246 247 319
3 246 319 313
3 313 319 314
3 315 319 320
3 314 319 315
3 322 316 317
3 321 316 322
3 250 249 318
3 250 318 321
3 321 318 316
3 318 249 244
3 323 319 247
3 252 323 247
3 320 324 325
3 320 319 324
3 319 323 324
3 325 321 322
3 325 324 321
3 324 326 321
3 321 326 254
3 250 321 254
3 327 323 252
3 256 327 252
3 323 327 324
3 324 327 328
3 324 328 326
3 326 328 329
3 326 329 258
3 254 326 258
3 330 327 256
3 260 330 256
3 327 330 328
3 328 330 331
3 328 331 329
3 329 331 332
3 329 332 262
3 258 329 262
3 333 330 260
3 263 333 260
3 330 333 331
3 331 333 334
3 331 334 332
3 332 334 335
3 332 335 264
3 262 332 264
3 336 333 263
3 265 336 263
3 333 336 334
3 334 336 337
3 334 337 335
3 335 337 338
3 335 338 266
3 264 335 266
3 339 336 265
3 267 339 265
3 336 339 337
3 337 339 340
3 337 340 338
3 338 340 341
3 338 341 268
3 266 338 268
3 342 339 267
3 269 342 267
3 339 342 340
3 340 342 343
3 340 343 341
3 341 343 344
3 341 344 270
3 268 341 270
3 345 342 269
3 271 345 269
3 342 345 343
3 343 345 346
3 343 346 344
3 344 346 347
3 344 347 272
3 270 344 272
3 348 345 271
3 273 348 271
3 345 348 346
3 346 348 349
3 346 349 347
3 347 349 350
3 347 350 274
3 272 347 274
3 351 348 273
3 276 351 273
3 348 351 349
3 349 351 352
3 349 352 350
3 350 352 353
3 350 353 278
3 274 350 278
3 354 351 276
3 280 354 276
3 351 354 352
3 352 354 355
3 352 355 353
3 353 355 356
3 353 356 282
3 278 353 282
3 354 280 283
3 355 354 283
3 284 355 283
3 356 355 284
3 285 356 284
3 356 285 282
3 287 288 357
3 289 287 357
3 358 289 357
3 290 289 358
3 359 290 358
3 290 359 292
3 360 357 288
3 294 360 288
3 357 360 358
3 358 360 361
3 358 361 359
3 359 361 362
3 359 362 296
3 292 359 296
3 363 360 294
3 298 363 294
3 360 363 361
3 361 363 364
3 361 364 362
3 362 364 365
3 362 365 300
3 296 362 300
3 366 363 298
3 302 366 298
3 363 366 364
3 364 366 367
3 364 367 365
3 365 367 368
3 365 368 304
3 300 365 304
3 366 302 307
3 307 308 369
3 307 369 366
3 366 369 367
3 311 310 368
3 311 368 369
3 369 368 367
3 368 310 304
3 370 369 308
3 315 370 308
3 369 370 317
3 311 369 317
3 371 370 315
3 320 371 315
3 370 371 322
3 317 370 322
3 371 320 325
3 371 325 322
