ply
format ascii 1.0
element vertex 368
property float x
property float y
property float z
property uchar red
property uchar green
property uchar blue
element face 732
property list uchar int vertex_indices
end_header
-9.89500904083251953 7 -2 25 0 0
-9 6.89353275299072266 -2 175 14 0
-9 7 -2.84961366653442383 134 7 0
-9.90445137023925781 7 -1 36 0 0
-9 6.90089321136474609 -1 141 14 0
-9.89770030975341797 7 0 65 0 0
-9 6.90782690048217773 0 166 15 0
-9.86356258392333984 7 1 109 0 0
-9 6.92010211944580078 1 231 15 0
-9 7 1.53011751174926758 94 7 0
-9 7.17718982696533203 -2 173 11 0
-9 7.26799917221069336 -1 183 12 0
-9 7.247711181640625 0 160 11 0
-9 7.13141822814941406 1 94 7 0
-8.06278419494628906 7 -5 31 1 0
-8 6.90910100936889648 -5 198 18 0
-8 7 -5.11037588119506836 71 1 0
-8.14608287811279297 7 -4 81 1 0
-8 6.95125341415405273 -4 52 11 2
-8 7 -3.81020998954772949 250 4 0
-8.86808013916015625 7 -2 173 11 0
-8.8851318359375 7 -1 183 12 0
-8.89314556121826172 7 0 160 11 0
-8.90078639984130859 7 1 94 7 0
-8.03096580505371094 7 3 118 6 0
-8 6.98902463912963867 3 151 23 0
-8 7 2.95569515228271484 252 1 0
-8 7 3.48847579956054688 134 6 0
-8 7.09788036346435547 -5 171 5 0
-8.02686023712158203 8 -4 45 1 0
-8 8 -4.04868888854980469 0 0 0
-8.30480670928955078 8 -3 36 0 0
-8 7.45409202575683594 -3 226 6 0
-8.4771728515625 8 -2 35 1 0
-8 7.60824823379516602 -2 150 10 0
-8.58694839477539062 8 -1 46 3 0
-8 7.66502952575683594 -1 110 10 1
-8.57659626007080078 8 0 76 6 0
-8 7.66898679733276367 0 138 12 0
-8.45321846008300781 8 1 119 8 0
-8 7.62367820739746094 1 215 11 0
-8.27299022674560547 8 2 167 7 0
-8 7.50839519500732422 2 252 1 0
-8 7.30210113525390625 3 134 6 0
-8 8 2.90028977394104004 53 6 0
-8 8.729583740234375 -4 42 3 0
-8 8.96684360504150391 -3 95 9 0
-8 8.97306728363037109 -2 136 15 0
-8 8.97350215911865234 -1 148 16 0
-8 8.97318458557128906 0 122 14 0
-8 8.97196865081787109 1 51 6 0
-8 8.9630889892578125 2 53 6 0
-7.19393777847290039 7 -6 71 1 0
-7 6.88547325134277344 -6 91 15 0
-7 7 -6.25339221954345703 72 2 0
-7.80875396728515625 7 -5 171 5 0
-7 7 -5.68560457229614258 214 0 0
-7.93932056427001953 7 -4 250 4 0
-7.986358642578125 7 3 134 6 0
-7.05827760696411133 7 5 203 5 0
-7 6.96357345581054688 5 254 30 0
-7 7 4.89541864395141602 220 4 0
-7 7 5.07220602035522461 59 2 0
-7 7.31705379486083984 -6 214 0 0
-7.35995864868164062 8 -5 0 0 0
-7 7.44929361343383789 -5 220 12 0
-7 8 -5.55374860763549805 14 0 0
-7 7.70508718490600586 -4 16 3 1
-7 7.84922122955322266 -3 198 103 78
-7.08816766738891602 8 -2 136 15 0
-7 8 -2.14009928703308105 254 9 0
-7.35631847381591797 8 -1 148 16 0
-7.36450815200805664 8 0 122 14 0
-7.12497520446777344 8 1 51 6 0
-7 7.86465549468994141 2 71 34 25
-7 8 1.20595800876617432 253 3 0
-7.92105531692504883 8 3 152 14 0
-7 7.72846126556396484 3 177 27 7
-7.29028892517089844 8 4 215 10 0
-7 7.54744958877563477 4 220 4 0
-7 7.09430503845214844 5 59 2 0
-7 8 4.42428398132324219 143 15 0
-7 8.96737003326416016 -5 105 7 0
-7 8.97353744506835938 -4 214 15 0
-7 8.95544052124023438 -3 254 9 0
-7 8.95023155212402344 2 213 12 0
-7 8.97119426727294922 3 43 4 0
-7 8.96008682250976562 4 143 15 0
-6.24976062774658203 7 -7 72 2 0
-6 6.88791275024414062 -7 103 19 0
-6 7 -7.18975543975830078 33 2 0
-6.78198814392089844 7 -6 214 0 0
-6 7 -6.78525829315185547 203 4 0
-6.93022632598876953 7 5 59 2 0
-6.03817892074584961 7 6 226 4 0
-6 6.98131704330444336 6 244 32 0
-6 7 5.96315288543701172 225 12 0
-6 7 6.02882242202758789 116 3 0
-6 7.31099033355712891 -7 203 4 0
-6.58841037750244141 8 -6 14 0 0
-6 7.53806257247924805 -6 183 18 0
-6 8 -6.58626317977905273 2 0 0
-6 7.79399871826171875 -5 159 70 45
-6.35122203826904297 8 -4 214 15 0
-6 8 -4.40570640563964844 251 6 0
-6.77302742004394531 8 -3 254 9 0
-6.79723644256591797 8 2 213 12 0
-6.40837335586547852 8 3 43 4 0
-6 7.82103061676025391 4 93 33 20
-6 8 3.48168349266052246 254 4 0
-6.46178388595581055 8 5 232 13 0
-6 7.61802387237548828 5 225 12 0
-6 7.04791831970214844 6 116 3 0
-6 8 5.44846343994140625 166 15 0
-6 8.97155475616455078 -6 122 6 0
-6 8.96685886383056641 -5 251 6 0
-6 8.96160125732421875 4 91 5 0
-6 8.96552276611328125 5 166 15 0
-5.1013941764831543 7 -8 33 2 0
-5 6.91783475875854492 -8 223 37 0
-5 7 -8.05724811553955078 26 3 0
-5.69793462753295898 7 -7 203 4 0
-5 7 -7.82745695114135742 127 5 0
-5.94896650314331055 7 6 116 3 0
-5 7.08912944793701172 -8 127 5 0
-5.54976749420166016 8 -7 2 0 0
-5 7.46064615249633789 -7 231 24 0
-5 8 -7.35460519790649414 44 2 0
-5 7.79592275619506836 -6 155 69 42
-5.56808805465698242 8 -5 251 6 0
-5 8 -5.57033872604370117 249 0 0
-5.62932538986206055 8 4 91 5 0
-5 7.82941484451293945 5 143 50 28
-5 8 4.64117765426635742 253 14 0
-5.38052797317504883 8 6 250 10 0
-5 7.60373544692993164 6 139 6 0
-5 8 6.24956941604614258 223 16 0
-5 8.96714115142822266 -7 77 1 0
-5 8.96656322479248047 -6 249 0 0
-5 8.95966720581054688 5 36 1 0
-5 8.95486640930175781 6 223 16 0
-4 6.96174335479736328 -8 14 3 0
-4 7 -8.11595916748046875 4 0 0
-4 7 -7.952392578125 235 18 0
-4.03777122497558594 8 -8 44 2 0
-4 8 -8.02068614959716797 85 10 0
-4 7.71089601516723633 -7 3 0 0
-4.42062234878540039 8 -6 249 0 0
-4 8 -6.36636114120483398 195 0 0
-4.52473020553588867 8 5 36 1 0
-4 7.75588703155517578 6 253 39 0
-4 8 5.4644927978515625 233 10 0
-4 8 6.75052356719970703 124 7 0
-4 8.67770957946777344 -8 12 0 0
-4 8.97318840026855469 -7 195 0 0
-4 8.96803665161132812 6 124 7 0
-3.85650920867919922 7 -8 235 18 0
-3 7.4820094108581543 -8 244 34 0
-3 8 -8.29500389099121094 91 9 0
-3 7.85837793350219727 -7 186 101 65
-3 8 -6.78762578964233398 254 12 0
-3 7.90076971054077148 6 145 65 39
-3 8 5.85168886184692383 231 63 38
-3.65180325508117676 8 7 254 8 0
-3 7.64880466461181641 7 75 5 0
-3 8 7.19416999816894531 247 11 0
-3 8.96623802185058594 -8 44 0 0
-3 8.95255374908447266 -7 254 12 0
-3 8.93213653564453125 6 29 0 0
-3 8.94960975646972656 7 247 11 0
-2.75182151794433594 7 -9 60 5 0
-2 6.91155195236206055 -9 215 51 0
-2 7 -9.87873458862304688 89 15 0
-2 7 -8.89085960388183594 115 10 0
-2 7.14914608001708984 -9 115 10 0
-2 7.62552595138549805 -8 176 35 0
-2 8 -8.46136951446533203 91 8 0
-2.22827887535095215 8 -7 254 12 0
-2 8 -7.14362668991088867 99 1 0
-2.47383308410644531 8 6 29 0 0
-2 7.70633316040039062 7 185 24 0
-2 8 6.31122303009033203 145 6 0
-2 8 7.33687877655029297 228 9 0
-2 8.97253513336181641 -8 99 1 0
-2 8.96475791931152344 7 228 9 0
-1.51403594017028809 -1 -1 203 198 197
-1 -1.37197542190551758 -1 227 227 227
-1 -1 -1.54523801803588867 197 190 188
-1.42471444606781006 -1 0 216 210 209
-1 -1.30791997909545898 0 237 236 236
-1 -1 0.375025719404220581 251 249 248
-1.01885771751403809 0 -2 93 83 79
-1 -0.0430332422256469727 -2 197 190 188
-1 0 -2.00968408584594727 2 1 1
-1.9617154598236084 0 -1 183 172 168
-1.86522877216339111 0 0 198 185 181
-1 0 0.76078951358795166 245 236 234
-1 0.0403865650296211243 -2 177 163 159
-1.47429835796356201 1 -1 90 76 71
-1 1 -1.50227618217468262 81 67 62
-1.38451039791107178 1 0 111 93 87
-1 1 0.339360892772674561 190 165 157
-1 1.34820055961608887 -1 174 152 145
-1 1.28363692760467529 0 190 165 157
-1 6.92026805877685547 -9 178 49 0
-1 7 -9.88567829132080078 97 17 0
-1 7 -8.9078216552734375 141 14 0
-1 7.21933841705322266 -9 141 14 0
-1 7.68086719512939453 -8 127 30 0
-1 8 -8.56464576721191406 97 9 0
-1 8 -7.39705467224121094 127 4 0
-1 7.74455881118774414 7 222 37 0
-1 8 6.51393556594848633 191 14 0
-1 8 7.40706920623779297 213 5 0
-1 8.97279834747314453 -8 127 4 0
-1 8.96573925018310547 7 213 5 0
0 -1.34666979312896729 -1 233 228 226
0 -1 -1.50761187076568604 205 193 189
0 -1.28273546695709229 0 241 235 233
0 -1 0.344159722328186035 253 250 249
-0.466825604438781738 0 -2 177 163 159
0 0 -1.9808194637298584 186 167 161
0 0 0.727826237678527832 248 234 230
0 1 -1.4636911153793335 93 75 69
0 1 0.307549715042114258 198 168 159
0 1.32176077365875244 -1 183 156 147
0 1.25717425346374512 0 198 168 159
0 6.92957592010498047 -9 188 53 0
0 7 -9.87234306335449219 121 23 0
0 7 -8.91865158081054688 129 14 0
0 7.19290733337402344 -9 129 14 0
0 7.68699979782104492 -8 139 34 0
0 8 -8.55151748657226562 119 13 0
0 8 -7.41131782531738281 114 4 0
0 7.75135564804077148 7 216 38 0
0 8 6.52878284454345703 183 16 0
0 8 7.39502048492431641 222 3 0
0 8.97234439849853516 -8 114 4 0
0 8.96486949920654297 7 222 3 0
0.444950252771377563 -1 -1 249 247 247
0.362349808216094971 -1 0 253 250 249
0.855978786945343018 0 -1 242 229 226
0.767649590969085693 0 0 248 234 230
0.406314313411712646 1 -1 183 156 147
0.323292672634124756 1 0 198 168 159
1 6.94523048400878906 -9 235 63 0
1 7 -9.81749439239501953 163 37 0
1 7 -8.93262290954589844 69 8 0
1 7.0917353630065918 -9 69 8 0
1 7.64890718460083008 -8 204 47 0
1 8 -8.43065643310546875 163 23 0
1 8 -7.20944881439208984 51 2 0
1 7.73177146911621094 7 155 25 0
1 8 6.37936210632324219 110 8 0
1 8 7.30688810348510742 248 0 0
1 8.97105312347412109 -8 51 2 0
1 8.96175575256347656 7 248 0 0
1.38154077529907227 7 -9 69 8 0
2 7.5597686767578125 -8 254 50 0
2 8 -8.25487995147705078 215 43 0
1.35824728012084961 8 -7 246 33 0
2 7.88618040084838867 -7 109 67 44
2 8 -6.83193397521972656 236 25 0
1.62273240089416504 8 6 110 8 0
2 7.93156957626342773 6 206 113 72
2 8 5.89922475814819336 253 100 64
2 7.73153305053710938 7 4 0 0
2 8 7.150726318359375 247 7 0
2 8.96145057678222656 -8 60 4 0
2 8.94090175628662109 -7 236 25 0
2 8.90302944183349609 6 54 2 0
2 8.93603134155273438 7 247 7 0
2.84402203559875488 8 -8 60 4 0
3 7.74777793884277344 -7 129 50 17
3 8 -7.87379026412963867 181 24 0
3 8 -6.46818113327026367 81 7 0
3 7.796722412109375 6 237 70 15
3 8 5.56955909729003906 157 20 0
2.46163058280944824 8 7 247 7 0
3 8 6.59651708602905273 226 9 0
3 8.96961498260498047 -7 81 7 0
3 8.96187496185302734 6 226 9 0
4 7.60115861892700195 -7 243 54 0
4 8 -7.26771020889282227 248 56 0
3.5590519905090332 8 -6 241 45 3
4 7.84150791168212891 -6 26 14 8
4 8 -5.68143415451049805 147 17 0
3.66911554336547852 8 5 157 20 0
4 7.87933444976806641 5 248 122 65
4 8 4.7571253776550293 210 45 10
4 7.75197935104370117 6 39 6 0
4 8 6.1594395637512207 230 17 0
4 8.9578857421875 -7 143 16 0
4 8.956817626953125 -6 147 17 0
4 8.94288539886474609 5 149 11 0
4 8.93166828155517578 6 230 17 0
4.97876977920532227 7 -7 243 54 0
5 6.99221038818359375 -7 250 85 0
5 7 -7.01282358169555664 236 61 0
5 7 -6.98556184768676758 37 7 0
4.39199542999267578 8 -7 143 16 0
5 7.02064323425292969 -7 37 7 0
5 7.65586948394775391 -6 249 63 0
5 8 -6.43017673492431641 250 51 0
4.69434070587158203 8 -5 230 68 24
5 7.85018682479858398 -5 79 44 24
5 8 -4.59835338592529297 97 12 0
4.76060056686401367 8 4 210 45 10
5 7.88155412673950195 4 249 124 62
5 8 3.68017077445983887 151 25 0
5 7.74184322357177734 5 29 6 0
4.23048067092895508 8 6 230 17 0
5 8 5.30026912689208984 243 20 0
5 8.96381092071533203 -6 152 18 0
5 8.95426368713378906 -5 97 12 0
5 8.94185352325439453 4 153 14 0
5 8.95130157470703125 5 243 20 0
5.01598119735717773 7 -7 37 7 0
5.41793441772460938 8 -6 152 18 0
6 7.65384960174560547 -5 189 46 0
6 8 -5.34794378280639648 254 55 0
5.52296924591064453 8 -4 253 50 0
6 7.775238037109375 -4 235 91 18
5.88783597946166992 8 -3 189 90 54
6 7.92387723922729492 -3 93 57 33
6 8 -2.61073470115661621 82 12 0
5.91534137725830078 8 2 252 110 63
6 7.94231176376342773 2 211 123 69
6 8 1.69588923454284668 106 18 0
5.58329486846923828 8 3 151 25 0
6 7.80256557464599609 3 230 75 6
6 7.75970554351806641 4 52 11 0
5.29923486709594727 8 5 243 20 0
6 8 4.22611618041992188 226 25 0
6 8.95190620422363281 -5 218 30 0
6 8.96593189239501953 -4 84 10 0
6 8.9124755859375 -3 82 12 0
6 8.88647842407226562 2 68 9 0
6 8.96095180511474609 3 233 23 0
6 8.93039417266845703 4 226 25 0
6.22804164886474609 8 -5 218 30 0
6.70491552352905273 8 -4 84 10 0
7 7.69199514389038086 -3 117 30 0
7 8 -3.59683990478515625 254 48 0
6.38554286956787109 8 -2 182 34 0
7 7.72914934158325195 -2 209 62 0
6.5554656982421875 8 -1 212 43 0
7 7.76157426834106445 -1 232 73 0
6.56422042846679688 8 0 193 38 0
7 7.76619482040405273 0 217 68 0
6.42424392700195312 8 1 106 18 0
7 7.74662923812866211 1 142 40 0
7 7.75122165679931641 2 32 7 0
6.58107089996337891 8 3 233 23 0
7 8 2.44048810005187988 238 31 0
6.15527820587158203 8 4 226 25 0
7 8.9461517333984375 -3 248 36 0
7 8.96305656433105469 -2 228 30 0
7 8.964080810546875 -1 218 27 0
7 8.96333599090576172 0 232 28 0
7 8.96039676666259766 1 253 30 0
7 8.93319129943847656 2 238 31 0
7.17728567123413086 8 -3 248 36 0
7.31601619720458984 8 -2 228 30 0
7.38391828536987305 8 -1 218 27 0
7.37465381622314453 8 0 232 28 0
7.29280471801757812 8 1 253 30 0
7.14223480224609375 8 2 238 31 0
3 2 1 0
3 1 4 3
3 0 1 3
3 4 6 5
3 3 4 5
3 6 8 7
3 5 6 7
3 8 9 7
3 2 0 10
3 0 3 11
3 10 0 11
3 3 5 12
3 11 3 12
3 5 7 13
3 12 5 13
3 7 9 13
3 16 15 14
3 15 18 17
3 14 15 17
3 18 19 17
3 1 2 20
3 4 1 20
3 21 4 20
3 6 4 21
3 22 6 21
3 8 6 22
3 23 8 22
3 8 23 9
3 26 25 24
3 25 27 24
3 16 14 28
3 30 28 14
3 30 14 29
3 29 14 17
3 19 32 31
3 19 31 17
3 17 31 29
3 33 31 2
3 33 2 10
3 31 32 2
3 20 2 34
3 32 34 2
3 10 35 33
3 10 11 35
3 34 36 20
3 36 21 20
3 11 37 35
3 11 12 37
3 36 38 21
3 38 22 21
3 12 39 37
3 12 13 39
3 38 40 22
3 40 23 22
3 40 42 9
3 40 9 23
3 42 41 9
3 13 9 39
3 41 39 9
3 43 44 41
3 43 41 24
3 42 26 41
3 26 24 41
3 24 27 43
3 30 29 45
3 29 31 46
3 45 29 46
3 31 33 47
3 46 31 47
3 33 35 48
3 47 33 48
3 35 37 49
3 48 35 49
3 37 39 50
3 49 37 50
3 39 41 51
3 50 39 51
3 41 44 51
3 54 53 52
3 16 52 53
3 16 53 15
3 56 55 53
3 55 15 53
3 18 15 55
3 57 18 55
3 18 57 19
3 25 26 58
3 25 58 27
3 61 60 59
3 60 62 59
3 54 52 63
3 63 64 66
3 63 28 64
3 63 52 28
3 16 28 52
3 56 65 55
3 55 67 57
3 55 65 67
3 64 28 30
3 57 32 19
3 57 67 32
3 67 68 32
3 70 69 34
3 70 34 68
3 68 34 32
3 36 34 69
3 71 36 69
3 38 36 71
3 72 38 71
3 40 38 72
3 73 40 72
3 73 75 74
3 73 74 40
3 40 74 42
3 44 43 76
3 26 42 58
3 42 77 58
3 42 74 77
3 77 79 27
3 77 27 58
3 79 78 27
3 43 27 76
3 78 76 27
3 80 81 78
3 80 78 59
3 79 61 78
3 61 59 78
3 59 62 80
3 66 64 82
3 64 30 45
3 64 45 82
3 82 45 83
3 83 45 84
3 45 46 84
3 69 70 84
3 69 84 47
3 47 84 46
3 71 69 47
3 48 71 47
3 72 71 48
3 49 72 48
3 73 72 49
3 50 73 49
3 75 73 50
3 75 50 85
3 85 50 51
3 44 76 86
3 44 86 51
3 51 86 85
3 76 78 87
3 86 76 87
3 78 81 87
3 90 89 88
3 54 88 89
3 54 89 53
3 92 91 89
3 91 53 89
3 53 91 56
3 60 61 93
3 94 62 60
3 94 60 95
3 93 96 60
3 96 95 60
3 95 97 94
3 90 88 98
3 98 99 101
3 98 63 99
3 98 88 63
3 54 63 88
3 92 100 91
3 99 63 66
3 91 100 56
3 100 65 56
3 100 102 65
3 104 103 67
3 104 67 102
3 102 67 65
3 68 67 103
3 105 68 103
3 68 105 70
3 74 75 106
3 77 74 106
3 107 77 106
3 107 109 108
3 107 108 77
3 77 108 79
3 81 80 110
3 61 79 93
3 79 111 93
3 79 108 111
3 80 113 110
3 80 112 113
3 80 62 112
3 94 112 62
3 93 111 96
3 94 97 112
3 101 99 114
3 99 66 82
3 99 82 114
3 114 82 115
3 103 104 115
3 103 115 83
3 83 115 82
3 105 103 83
3 84 105 83
3 105 84 70
3 106 75 85
3 107 106 85
3 86 107 85
3 109 107 86
3 109 86 116
3 116 86 87
3 81 110 117
3 81 117 87
3 87 117 116
3 110 113 117
3 120 119 118
3 90 118 119
3 90 119 89
3 122 121 119
3 121 89 119
3 89 121 92
3 95 96 123
3 95 123 97
3 120 118 124
3 124 125 127
3 124 98 125
3 124 118 98
3 90 98 118
3 122 126 121
3 125 98 101
3 121 126 92
3 126 100 92
3 126 128 100
3 130 129 102
3 130 102 128
3 128 102 100
3 102 129 104
3 108 109 131
3 131 133 132
3 131 132 108
3 108 132 111
3 113 112 134
3 96 111 123
3 111 135 123
3 111 132 135
3 134 112 97
3 134 97 136
3 123 135 97
3 135 136 97
3 127 125 137
3 125 101 114
3 125 114 137
3 137 114 138
3 129 130 138
3 129 138 115
3 115 138 114
3 129 115 104
3 131 109 116
3 133 131 116
3 133 116 139
3 139 116 117
3 113 134 140
3 113 140 117
3 117 140 139
3 134 136 140
3 120 142 141
3 119 120 141
3 119 141 143
3 122 119 143
3 124 144 145
3 124 145 120
3 120 145 142
3 126 143 146
3 126 122 143
3 124 127 144
3 148 147 128
3 148 128 146
3 146 128 126
3 128 147 130
3 132 133 149
3 149 151 150
3 149 150 132
3 132 150 135
3 135 150 152
3 136 135 152
3 145 144 153
3 144 127 137
3 144 137 153
3 153 137 154
3 147 148 154
3 147 154 138
3 138 154 137
3 147 138 130
3 149 133 139
3 151 149 139
3 151 139 155
3 155 139 140
3 155 140 136
3 152 155 136
3 141 142 156
3 141 156 143
3 157 156 142
3 157 142 158
3 158 142 145
3 156 146 143
3 156 157 146
3 157 159 146
3 146 159 160
3 148 146 160
3 151 162 161
3 150 151 161
3 163 152 150
3 163 150 164
3 164 150 161
3 164 165 163
3 158 145 153
3 166 158 153
3 166 153 167
3 153 154 167
3 167 154 148
3 160 167 148
3 162 151 155
3 168 162 155
3 152 163 169
3 152 169 155
3 155 169 168
3 163 165 169
3 172 171 170
3 171 173 170
3 172 170 174
3 175 157 170
3 175 170 173
3 157 158 170
3 174 170 176
3 158 176 170
3 178 177 159
3 178 159 175
3 175 159 157
3 159 177 160
3 161 162 179
3 179 181 180
3 179 180 161
3 161 180 164
3 164 180 182
3 165 164 182
3 176 158 166
3 183 176 166
3 177 178 183
3 177 183 167
3 167 183 166
3 177 167 160
3 179 162 168
3 181 179 168
3 181 168 184
3 184 168 169
3 184 169 165
3 182 184 165
3 187 186 185
3 186 189 188
3 185 186 188
3 189 190 188
3 193 192 191
3 192 187 185
3 192 185 191
3 191 185 194
3 185 188 194
3 188 195 194
3 190 196 195
3 188 190 195
3 193 191 197
3 199 197 191
3 199 191 198
3 198 191 194
3 194 195 198
3 195 200 198
3 196 201 200
3 195 196 200
3 199 198 202
3 198 200 203
3 202 198 203
3 200 201 203
3 172 205 204
3 171 172 204
3 171 204 206
3 173 171 206
3 205 172 174
3 207 205 174
3 206 208 173
3 173 208 175
3 209 207 174
3 209 174 176
3 175 208 210
3 178 175 210
3 181 212 211
3 180 181 211
3 180 211 213
3 182 180 213
3 209 176 183
3 214 209 183
3 214 183 178
3 210 214 178
3 212 181 184
3 215 212 184
3 215 184 182
3 213 215 182
3 187 217 216
3 186 187 216
3 216 218 186
3 186 218 189
3 189 218 219
3 190 189 219
3 192 193 220
3 220 187 192
3 220 221 187
3 221 217 187
3 219 222 190
3 222 196 190
3 220 193 197
3 197 221 220
3 197 199 221
3 199 223 221
3 222 224 196
3 224 201 196
3 223 199 202
3 225 223 202
3 225 202 226
3 202 203 226
3 226 203 201
3 224 226 201
3 205 228 227
3 204 205 227
3 204 227 229
3 206 204 229
3 228 205 207
3 230 228 207
3 229 231 206
3 206 231 208
3 232 230 207
3 232 207 209
3 208 231 233
3 210 208 233
3 212 235 234
3 211 212 234
3 211 234 236
3 213 211 236
3 232 209 214
3 237 232 214
3 237 214 210
3 233 237 210
3 235 212 215
3 238 235 215
3 238 215 213
3 236 238 213
3 216 217 239
3 218 216 239
3 240 218 239
3 218 240 219
3 241 239 217
3 221 241 217
3 239 241 240
3 240 241 242
3 240 242 222
3 219 240 222
3 243 241 221
3 223 243 221
3 241 243 242
3 242 243 244
3 242 244 224
3 222 242 224
3 243 223 225
3 244 243 225
3 226 244 225
3 244 226 224
3 228 246 245
3 227 228 245
3 227 245 247
3 229 227 247
3 246 228 230
3 248 246 230
3 247 249 229
3 229 249 231
3 250 248 230
3 250 230 232
3 231 249 251
3 233 231 251
3 235 253 252
3 234 235 252
3 234 252 254
3 236 234 254
3 250 232 237
3 255 250 237
3 255 237 233
3 251 255 233
3 253 235 238
3 256 253 238
3 256 238 236
3 254 256 236
3 245 246 257
3 245 257 247
3 257 246 248
3 250 259 257
3 250 257 248
3 259 258 257
3 247 257 249
3 258 249 257
3 260 251 249
3 260 249 261
3 261 249 258
3 261 262 260
3 265 264 263
3 253 263 264
3 253 264 252
3 252 264 266
3 252 266 267
3 254 252 267
3 259 250 255
3 268 259 255
3 251 260 269
3 251 269 255
3 255 269 268
3 260 262 269
3 265 263 270
3 263 253 256
3 263 256 270
3 270 256 271
3 271 256 254
3 267 271 254
3 258 259 272
3 272 274 273
3 272 273 258
3 258 273 261
3 261 273 275
3 262 261 275
3 265 277 276
3 264 265 276
3 279 278 266
3 279 266 276
3 276 266 264
3 266 278 267
3 272 259 268
3 274 272 268
3 274 268 280
3 280 268 269
3 280 269 262
3 275 280 262
3 277 265 270
3 281 277 270
3 278 279 281
3 278 281 271
3 271 281 270
3 278 271 267
3 274 283 282
3 273 274 282
3 284 275 273
3 284 273 285
3 285 273 282
3 285 286 284
3 289 288 287
3 277 287 288
3 277 288 276
3 276 288 290
3 276 290 291
3 279 276 291
3 283 274 280
3 292 283 280
3 275 284 293
3 275 293 280
3 280 293 292
3 284 286 293
3 289 287 294
3 287 277 281
3 287 281 294
3 294 281 295
3 295 281 279
3 291 295 279
3 298 297 296
3 297 299 296
3 300 301 298
3 300 298 283
3 296 282 298
3 282 283 298
3 303 301 300
3 299 302 296
3 302 282 296
3 302 285 282
3 304 286 285
3 304 285 305
3 305 285 302
3 305 306 304
3 309 308 307
3 289 307 308
3 289 308 288
3 288 308 310
3 312 311 290
3 312 290 310
3 310 290 288
3 290 311 291
3 300 283 292
3 303 300 292
3 303 292 313
3 313 292 293
3 286 304 314
3 286 314 293
3 293 314 313
3 304 306 314
3 309 307 315
3 307 289 294
3 307 294 315
3 315 294 316
3 311 312 316
3 311 316 295
3 295 316 294
3 311 295 291
3 297 298 317
3 297 317 299
3 317 298 301
3 302 299 317
3 302 317 318
3 301 303 317
3 303 318 317
3 318 320 319
3 318 319 302
3 302 319 305
3 321 306 305
3 321 305 322
3 322 305 319
3 322 324 323
3 321 322 323
3 324 325 323
3 328 327 326
3 327 330 329
3 326 327 329
3 309 329 330
3 309 330 308
3 308 330 331
3 333 332 310
3 333 310 331
3 331 310 308
3 310 332 312
3 318 303 313
3 320 318 313
3 320 313 334
3 334 313 314
3 306 321 335
3 306 335 314
3 314 335 334
3 321 323 336
3 335 321 336
3 323 325 336
3 328 326 337
3 326 329 338
3 337 326 338
3 329 309 315
3 329 315 338
3 338 315 339
3 332 333 339
3 332 339 316
3 316 339 315
3 332 316 312
3 319 320 340
3 322 319 340
3 341 322 340
3 341 343 342
3 341 342 322
3 322 342 324
3 344 325 324
3 344 324 345
3 345 324 342
3 345 347 346
3 344 345 346
3 347 349 348
3 346 347 348
3 349 351 350
3 348 349 350
3 328 350 351
3 328 351 327
3 327 351 352
3 354 353 330
3 354 330 352
3 352 330 327
3 331 330 353
3 355 331 353
3 331 355 333
3 340 320 334
3 341 340 334
3 335 341 334
3 343 341 335
3 343 335 356
3 356 335 336
3 325 344 357
3 325 357 336
3 336 357 356
3 344 346 358
3 357 344 358
3 346 348 359
3 358 346 359
3 348 350 360
3 359 348 360
3 350 328 337
3 350 337 360
3 360 337 361
3 353 354 361
3 353 361 338
3 338 361 337
3 355 353 338
3 339 355 338
3 355 339 333
3 342 343 362
3 345 342 362
3 363 345 362
3 347 345 363
3 364 347 363
3 349 347 364
3 365 349 364
3 351 349 365
3 366 351 365
3 352 351 366
3 367 352 366
3 352 367 354
3 362 343 356
3 363 362 356
3 357 363 356
3 364 363 357
3 358 364 357
3 365 364 358
3 359 365 358
3 366 365 359
3 360 366 359
3 367 366 360
3 361 367 360
3 367 361 354
