ply
format ascii 1.0
element vertex 664
property float x
property float y
property float z
property uchar red
property uchar green
property uchar blue
element face 1312
property list uchar int vertex_indices
end_header
-9.4122314453125 -9 -9 95 58 64
-9 -9.4122314453125 -9 86 54 54
-9 -9 -9.4122314453125 102 56 85
-9 -9 -8.73513984680175781 89 63 64
-9.4122314453125 -9 8 95 6 6
-9 -9.4122314453125 8 96 23 23
-9 -9 7.73513984680175781 88 40 40
-9 -9 8.4122314453125 96 32 32
-9 -8.66105365753173828 -9 89 63 64
-9 -8.66105365753173828 8 96 32 32
-9.4122314453125 8 -9 0 145 5
-9 7.66105365753173828 -9 0 141 87
-9 8 -9.4122314453125 0 153 16
-9 8 -8.73513984680175781 0 147 44
-9.4122314453125 8 8 139 80 39
-9 7.66105365753173828 8 135 126 39
-9 8 7.73513984680175781 126 57 50
-9 8 8.4122314453125 131 51 37
-9 8.4122314453125 -9 0 147 44
-9 8.4122314453125 8 131 51 37
-8 -9.28285312652587891 -9 72 56 56
-8 -9 -9.28285312652587891 93 66 66
-8 -9 -8.85165500640869141 78 65 65
-8 -9.28285312652587891 8 103 58 58
-8 -9 7.85165548324584961 92 68 68
-8 -9 8.28285312652587891 107 66 66
-8.45982170104980469 -8 -9 92 73 88
-8 -8 -9.53797245025634766 97 73 88
-8 -8 -8.55754470825195312 82 73 73
-8.45982170104980469 -8 8 96 41 41
-8 -8 7.55754470825195312 93 76 76
-8 -8 8.53797245025634766 109 74 74
-8.16329288482666016 -7 -9 89 82 95
-8 -7 -9.46617794036865234 93 79 99
-8 -7 -8.66945362091064453 85 81 83
-8.16329288482666016 -7 8 98 51 51
-8 -7 7.66945314407348633 96 84 84
-8 -7 8.46617794036865234 110 82 82
-8 -6.34171342849731445 -9 85 81 83
-8 -6.34171342849731445 8 110 82 82
-8.16329288482666016 6 -9 0 135 132
-8 5.34171342849731445 -9 0 133 61
-8 6 -9.46617794036865234 0 141 117
-8 6 -8.66945362091064453 0 135 94
-8.16329288482666016 6 8 54 138 34
-8 5.34171342849731445 8 147 144 2
-8 6 7.66945314407348633 74 136 30
-8 6 8.46617794036865234 121 144 16
-8.45982170104980469 7 -9 0 141 87
-8 7 -9.53797245025634766 0 146 118
-8 7 -8.55754470825195312 0 138 114
-8.45982170104980469 7 8 135 126 39
-8 7 7.55754470825195312 126 100 43
-8 7 8.53797245025634766 133 64 30
-8 8 -9.28285312652587891 0 150 111
-8 8 -8.85165500640869141 0 143 122
-8 8 7.85165548324584961 122 77 51
-8 8 8.28285312652587891 127 98 38
-8 8.28285312652587891 -9 0 143 122
-8 8.28285312652587891 8 127 98 38
-7.9406275749206543 -9 -9 78 65 65
-7.9406275749206543 -9 8 107 66 66
-7.67829036712646484 -8 -9 82 73 73
-7.67829036712646484 -8 8 109 74 74
-7 -7.06546306610107422 -9 77 76 76
-7 -7 -9.14673328399658203 91 84 85
-7 -7 -8.93550872802734375 85 82 82
-7 -7.06546306610107422 8 92 87 87
-7 -7 7.93550920486450195 90 85 85
-7 -7 8.14673328399658203 99 96 96
-7.78739356994628906 -6 -9 89 89 89
-7 -6 -9.62670803070068359 97 93 96
-7 -6 -8.35755157470703125 90 83 84
-7.78739356994628906 -6 8 112 90 90
-7 -6 7.35755109786987305 96 88 88
-7 -6 8.62670803070068359 104 104 104
-7.43163204193115234 -5 -9 90 87 93
-7 -5 -9.6792144775390625 101 100 102
-7 -5 -8.18482398986816406 94 83 90
-7.43163204193115234 -5 8 115 98 98
-7 -5 7.18482446670532227 100 89 89
-7 -5 8.6792144775390625 109 107 107
-7.20137453079223633 -4 -9 84 85 96
-7 -4 -9.60557174682617188 105 105 105
-7 -4 -8.41364002227783203 93 81 97
-7.20137453079223633 -4 8 119 105 105
-7 -4 7.41364002227783203 103 88 88
-7 -4 8.60557174682617188 113 109 109
-7 -3.0140233039855957 -9 93 81 97
-7 -3.0140233039855957 8 113 109 109
-7.20137453079223633 3 -9 64 100 35
-7 2.0140233039855957 -9 99 81 72
-7 3 -9.60557174682617188 77 113 25
-7 3 -8.41364002227783203 99 78 46
-7.20137453079223633 3 8 131 31 4
-7 2.0140233039855957 8 51 111 34
-7 3 7.41364002227783203 96 122 21
-7 3 8.60557174682617188 132 116 9
-7.43163204193115234 4 -9 12 123 21
-7 4 -9.6792144775390625 1 131 12
-7 4 -8.18482398986816406 75 119 26
-7.43163204193115234 4 8 141 35 0
-7 4 7.18482446670532227 135 119 4
-7 4 8.6792144775390625 142 82 0
-7.78739356994628906 5 -9 0 133 61
-7 5 -9.62670803070068359 0 138 88
-7 5 -8.35755157470703125 1 132 30
-7.78739356994628906 5 8 147 144 2
-7 5 7.35755109786987305 143 137 2
-7 5 8.62670803070068359 149 92 0
-7 6 -9.14673328399658203 0 134 140
-7 6 -8.93550872802734375 0 136 109
-7 6 7.93550920486450195 141 134 19
-7 6 8.14673328399658203 148 76 6
-7.67829036712646484 7 -9 0 138 114
-7 6.06546306610107422 -9 0 136 109
-7.67829036712646484 7 8 133 64 30
-7 6.06546306610107422 8 148 76 6
-7.9406275749206543 8 -9 0 143 122
-7.9406275749206543 8 8 127 98 38
-6.97563457489013672 -7 -9 85 82 82
-6.97563457489013672 -7 8 99 96 96
-6.57997417449951172 -6 -9 90 83 84
-6.57997417449951172 -6 8 104 104 104
-6 -5.30894660949707031 -9 83 68 68
-6 -5 -9.50893402099609375 94 84 91
-6 -5 -8.60685825347900391 87 70 76
-6 -5.30894660949707031 8 86 73 73
-6 -5 7.6068577766418457 86 67 67
-6 -5 8.50893402099609375 90 77 77
-6 -4 -9.76432323455810547 97 90 101
-6.38810253143310547 -4 -8 92 73 92
-6 -4.30040693283081055 -8 88 74 83
-6 -4 -7.71644020080566406 89 72 91
-6.38810253143310547 -4 7 103 88 88
-6 -4.30040693283081055 7 86 67 67
-6 -4 6.71644020080566406 85 61 61
-6 -4 8.76432323455810547 94 79 79
-6.99503564834594727 -3 -9 83 80 100
-6 -3 -9.81400871276855469 94 95 106
-6.40871763229370117 -3 -8 82 68 94
-6 -3 -7.21861791610717773 82 71 94
-6.40871763229370117 -3 7 107 88 88
-6 -3 6.21861791610717773 88 61 61
-6.99503564834594727 -3 8 118 111 111
-6 -3 8.81400871276855469 99 82 82
-6.64308595657348633 -2 -9 78 89 102
-6 -2 -9.81844329833984375 97 108 110
-6.27545022964477539 -2 -8 64 63 95
-6 -2 -7.15986251831054688 70 73 97
-6.27545022964477539 -2 7 110 89 89
-6 -2 6.15986251831054688 90 60 60
-6.64308595657348633 -2 8 122 114 114
-6 -2 8.81844329833984375 104 86 86
-6.38833522796630859 -1 -9 76 103 99
-6 -1 -9.78730964660644531 99 112 104
-6.11796808242797852 -1 -8 58 80 95
-6 -1 -7.51701974868774414 67 93 99
-6.11796808242797852 -1 7 113 92 92
-6 -1 6.51701974868774414 93 61 61
-6.38833522796630859 -1 8 125 118 118
-6 -1 8.78730964660644531 109 92 92
-6.38833522796630859 0 -9 90 111 92
-6 0 -9.78730964660644531 115 117 113
-6.11796808242797852 0 -8 65 101 94
-6 0 -7.51701974868774414 68 101 84
-6.11796808242797852 0 7 121 115 116
-6 0 6.51701974868774414 104 76 76
-6.38833522796630859 0 8 128 116 128
-6 0 8.78730964660644531 121 116 120
-6.64308595657348633 1 -9 113 114 111
-6 1 -9.81844329833984375 113 108 94
-6.27545022964477539 1 -8 91 113 95
-6 1 -7.15986251831054688 87 108 82
-6.27545022964477539 1 7 81 78 105
-6 1 6.15986251831054688 112 107 108
-6.64308595657348633 1 8 65 95 109
-6 1 8.81844329833984375 104 93 119
-6.99503564834594727 2 -9 99 81 72
-6 2 -9.81400871276855469 100 68 61
-6.40871763229370117 2 -8 108 109 107
-6 2 -7.21861791610717773 109 110 99
-6.40871763229370117 2 7 43 98 61
-6 2 6.21861791610717773 84 71 95
-6.99503564834594727 2 8 51 111 34
-6 2 8.81400871276855469 53 100 108
-6 3 -9.76432323455810547 96 103 40
-6.38810253143310547 3 -8 95 78 69
-6 3 -7.71644020080566406 101 93 90
-6.38810253143310547 3 7 96 122 21
-6 3 6.71644020080566406 46 102 99
-6 3 8.76432323455810547 44 125 28
-6 4 -9.50893402099609375 22 120 22
-6 3.30040669441223145 -8 101 93 90
-6 4 -8.60685825347900391 80 104 43
-6 3.30040669441223145 7 39 113 72
-6 4 7.6068577766418457 90 133 18
-6 4 8.50893402099609375 141 125 6
-6.57997417449951172 5 -9 1 132 30
-6 4.30894660949707031 -9 80 104 43
-6.57997417449951172 5 8 149 92 0
-6 4.30894660949707031 8 141 125 6
-6.97563457489013672 6 -9 0 136 109
-6.97563457489013672 6 8 148 76 6
-5.85930109024047852 -5 -9 87 70 76
-5.85930109024047852 -5 8 90 77 77
-5.24637079238891602 -4 -9 93 72 92
-5.84583806991577148 -4 -8 89 72 91
-5.84583806991577148 -4 7 90 69 69
-5.24637079238891602 -4 8 94 79 79
-5 -3.73559403419494629 -9 80 61 85
-5 -3 -9.74680709838867188 76 84 97
-5 -3.0921485424041748 -8 82 69 88
-5 -3 -7.84271860122680664 74 72 94
-5 -3.0921485424041748 7 78 55 55
-5 -3 6.84271860122680664 80 52 52
-5 -3.73559403419494629 8 81 61 61
-5 -3 8.74680709838867188 85 64 64
-5 -2 -9.85261249542236328 81 100 95
-5.72244167327880859 -2 -7 77 86 91
-5 -2.32571792602539062 -7 76 78 78
-5 -2 -6.54753017425537109 78 84 84
-5.72244167327880859 -2 6 90 60 60
-5 -2.32571792602539062 6 80 52 52
-5 -2 5.54753017425537109 78 46 46
-5 -2 8.85261249542236328 92 70 70
-5 -1 -9.882965087890625 88 103 84
-5.69847345352172852 -1 -7 75 95 97
-5.17687416076660156 -1 -6 68 69 68
-5 -1.38544857501983643 -6 42 49 39
-5 -1 -5.61870431900024414 54 59 50
-5.17687416076660156 -1 5 87 51 51
-5 -1.38544857501983643 5 78 46 46
-5 -1 4.61870431900024414 76 40 40
-5.69847345352172852 -1 6 93 61 61
-5 -1 8.882965087890625 100 77 93
-5 0 -9.882965087890625 109 108 96
-5.69847345352172852 0 -7 71 101 98
-5.17687416076660156 0 -6 76 85 79
-5 0 -5.61870431900024414 69 71 69
-5.17687416076660156 0 5 98 65 65
-5 0 4.61870431900024414 82 45 45
-5.69847345352172852 0 6 104 76 76
-5 0 8.882965087890625 97 90 107
-5 1 -9.85261249542236328 115 113 112
-5.72244167327880859 1 -7 71 104 85
-5 0.385448545217514038 -6 69 71 69
-5 1 -6.54753017425537109 81 101 70
-5 0.385448545217514038 5 85 51 51
-5.72244167327880859 1 6 112 107 108
-5 1 5.54753017425537109 99 72 76
-5 1 8.85261249542236328 115 115 118
-5 2 -9.74680709838867188 110 99 88
-5 1.32571792602539062 -7 81 101 70
-5 2 -7.84271860122680664 104 81 79
-5 1.32571792602539062 6 105 82 99
-5 2 6.84271860122680664 108 107 109
-5 2 8.74680709838867188 82 111 114
-5.24637079238891602 3 -9 96 76 61
-5 2.73559403419494629 -9 110 107 106
-5.84583806991577148 3 -8 101 93 90
-5 2.0921485424041748 -8 104 81 79
-5.84583806991577148 3 7 39 113 72
-5 2.0921485424041748 7 97 100 112
-5.24637079238891602 3 8 44 125 28
-5 2.73559403419494629 8 82 111 114
-5.85930109024047852 4 -9 80 104 43
-5.85930109024047852 4 8 141 125 6
-4.60931396484375 -3 -9 66 66 92
-4.95099687576293945 -3 -8 74 72 94
-4.95099687576293945 -3 7 81 57 57
-4.60931396484375 -3 8 85 64 64
-4 -2.21582365036010742 -9 50 76 80
-4 -2 -9.55870628356933594 67 95 64
-4.29056262969970703 -2 -8 73 87 98
-4 -2 -8.51823997497558594 54 84 57
-4.79539203643798828 -2 -7 78 84 84
-4.79539203643798828 -2 6 82 53 53
-4.29056262969970703 -2 7 84 58 58
-4 -2.21582365036010742 8 85 63 63
-4 -2 7.51823997497558594 81 52 52
-4 -2 8.55870628356933594 90 65 81
-4 -1 -9.85346221923828125 106 97 75
-4 -1.71194970607757568 -8 71 96 90
-4 -1.21149587631225586 -7 79 83 81
-4.60575103759765625 -1 -6 54 59 50
-4 -1 -6.52794361114501953 81 87 81
-4.60575103759765625 -1 5 80 46 46
-4 -1.21149587631225586 6 74 44 44
-4 -1 5.52794361114501953 74 40 40
-4 -1.71194970607757568 7 81 52 52
-4 -1 8.85346221923828125 75 68 95
-4 0 -9.85346221923828125 114 92 85
-4.60575103759765625 0 -6 69 71 69
-4 0 -6.52794361114501953 86 97 80
-4.60575103759765625 0 5 85 51 51
-4 0 5.52794361114501953 81 45 63
-4 0 8.85346221923828125 75 91 100
-4 1 -9.55870628356933594 117 116 97
-4.29056262969970703 1 -8 99 95 68
-4 0.711949646472930908 -8 95 88 62
-4 1 -8.51823997497558594 110 97 72
-4.79539203643798828 1 -7 81 101 70
-4 0.211495906114578247 -7 86 97 80
-4.79539203643798828 1 6 105 82 99
-4 0.211495906114578247 6 83 54 89
-4.29056262969970703 1 7 106 99 111
-4 0.711949646472930908 7 65 64 96
-4 1 7.51823997497558594 72 90 100
-4 1 8.55870628356933594 92 110 103
-4.60931396484375 2 -9 110 107 106
-4 1.21582376956939697 -9 110 97 72
-4.95099687576293945 2 -8 104 81 79
-4.95099687576293945 2 7 97 100 112
-4.60931396484375 2 8 82 111 114
-4 1.21582376956939697 8 92 110 103
-3.88263511657714844 -2 -9 54 84 57
-3.88263511657714844 -2 8 90 65 81
-3.23258161544799805 -1 -9 94 96 63
-3.57194399833679199 -1 -8 73 95 69
-3.87270927429199219 -1 -7 81 87 81
-3.87270927429199219 -1 6 80 48 48
-3.57194399833679199 -1 7 87 57 81
-3.23258161544799805 -1 8 75 68 95
-3.23258161544799805 0 -9 105 69 67
-3.57194399833679199 0 -8 95 88 62
-3.87270927429199219 0 -7 86 97 80
-3.87270927429199219 0 6 83 54 89
-3.57194399833679199 0 7 65 64 96
-3.23258161544799805 0 8 75 91 100
-3.88263511657714844 1 -9 110 97 72
-3.88263511657714844 1 8 92 110 103
2.88263511657714844 -2 -9 103 103 101
3 -2.21582365036010742 -9 95 94 93
3 -2 -9.55870628356933594 105 99 94
3 -2 -8.51823997497558594 94 92 91
2.88263511657714844 -2 8 101 102 91
3 -2.21582365036010742 8 105 105 105
3 -2 7.51823997497558594 94 100 84
3 -2 8.55870628356933594 105 104 96
2.23258161544799805 -1 -9 110 113 109
3 -1 -9.85346221923828125 108 112 101
2.57194399833679199 -1 -8 89 97 74
3 -1.71194970607757568 -8 91 76 73
2.87270927429199219 -1 -7 73 73 39
3 -1.21149587631225586 -7 82 52 49
3 -1 -6.52794361114501953 85 80 53
2.87270927429199219 -1 6 91 93 87
3 -1.21149587631225586 6 74 96 74
3 -1 5.52794361114501953 75 88 54
2.57194399833679199 -1 7 99 99 97
3 -1.71194970607757568 7 94 100 84
2.23258161544799805 -1 8 105 102 102
3 -1 8.85346221923828125 104 92 86
2.23258161544799805 0 -9 114 118 116
3 0 -9.85346221923828125 103 117 106
2.57194399833679199 0 -8 92 107 97
2.87270927429199219 0 -7 61 90 59
3 0 -6.52794361114501953 70 89 64
2.87270927429199219 0 6 99 89 84
3 0 5.52794361114501953 74 44 38
2.57194399833679199 0 7 104 96 94
2.23258161544799805 0 8 110 109 104
3 0 8.85346221923828125 88 97 71
2.88263511657714844 1 -9 98 108 114
3 1 -9.55870628356933594 102 116 116
3 0.711949646472930908 -8 86 97 87
3 1 -8.51823997497558594 100 106 107
3 0.211495906114578247 -7 70 89 64
3 0.211495906114578247 6 82 61 47
3 0.711949646472930908 7 89 87 58
2.88263511657714844 1 8 99 108 92
3 1 7.51823997497558594 94 105 85
3 1 8.55870628356933594 99 112 100
3 1.21582376956939697 -9 100 106 107
3 1.21582376956939697 8 99 112 100
3.6093137264251709 -3 -9 95 94 93
4 -3.73559403419494629 -9 96 98 94
4 -3 -9.74680709838867188 104 99 90
3.95099663734436035 -3 -8 91 87 73
4 -3.0921485424041748 -8 86 91 80
4 -3 -7.84271860122680664 94 91 82
3.95099663734436035 -3 7 92 100 96
4 -3.0921485424041748 7 72 87 92
4 -3 6.84271860122680664 50 83 70
3.6093137264251709 -3 8 105 105 105
4 -3.73559403419494629 8 89 100 98
4 -3 8.74680709838867188 85 97 79
4 -2 -9.85261249542236328 103 93 90
3.29056262969970703 -2 -8 91 76 73
3.79539203643798828 -2 -7 82 52 49
4 -2.32571792602539062 -7 86 81 60
4 -2 -6.54753017425537109 90 66 65
3.79539203643798828 -2 6 74 96 74
4 -2.32571792602539062 6 50 83 70
4 -2 5.54753017425537109 48 74 36
3.29056262969970703 -2 7 94 100 84
4 -2 8.85261249542236328 95 83 71
4 -1 -9.882965087890625 99 101 87
3.60575103759765625 -1 -6 70 58 30
4 -1.38544857501983643 -6 78 47 42
4 -1 -5.61870431900024414 85 74 50
3.60575103759765625 -1 5 75 88 54
4 -1.38544857501983643 5 48 74 36
4 -1 4.61870431900024414 82 86 48
4 -1 8.882965087890625 92 81 65
4 0 -9.882965087890625 90 103 89
3.60575103759765625 0 -6 65 81 43
4 0 -5.61870431900024414 79 90 63
3.60575103759765625 0 5 74 44 38
4 0 4.61870431900024414 96 73 69
4 0 8.882965087890625 101 108 90
4 1 -9.85261249542236328 100 110 106
3.29056262969970703 1 -8 95 97 97
3.79539203643798828 1 -7 78 90 87
4 0.385448545217514038 -6 79 90 63
4 1 -6.54753017425537109 78 83 81
4 0.385448545217514038 5 99 71 71
3.79539203643798828 1 6 97 95 72
4 1 5.54753017425537109 99 97 90
3.29056262969970703 1 7 94 105 85
4 1 8.85261249542236328 116 119 115
3.6093137264251709 2 -9 99 100 106
4 2 -9.74680709838867188 113 114 115
3.95099663734436035 2 -8 92 93 96
4 1.32571792602539062 -7 78 83 81
4 2 -7.84271860122680664 92 93 93
4 1.32571792602539062 6 104 104 98
3.95099663734436035 2 7 107 108 107
4 2 6.84271860122680664 94 99 91
3.6093137264251709 2 8 109 116 113
4 2 8.74680709838867188 92 114 98
4 2.73559403419494629 -9 103 104 104
4 2.0921485424041748 -8 92 93 93
4 2.0921485424041748 7 93 106 92
4 2.73559403419494629 8 92 114 98
4.85930109024047852 -5 -9 89 96 90
5 -5.30894660949707031 -9 78 92 82
5 -5 -9.50893402099609375 85 102 78
5 -5 -8.60685825347900391 87 96 84
4.85930109024047852 -5 8 101 101 103
5 -5.30894660949707031 8 88 86 95
5 -5 7.6068577766418457 56 69 82
5 -5 8.50893402099609375 77 89 94
4.24637079238891602 -4 -9 96 98 94
5 -4 -9.76432323455810547 102 104 81
4.84583806991577148 -4 -8 86 91 80
5 -4.30040693283081055 -8 88 89 87
5 -4 -7.71644020080566406 92 92 91
4.84583806991577148 -4 7 72 87 92
5 -4.30040693283081055 7 56 69 82
5 -4 6.71644020080566406 50 81 73
4.24637079238891602 -4 8 89 100 98
5 -4 8.76432323455810547 71 94 80
5 -3 -9.81400871276855469 104 91 82
5 -3 -7.21861791610717773 93 93 93
5 -3 6.21861791610717773 66 90 59
5 -3 8.81400871276855469 83 94 66
5 -2 -9.81844329833984375 103 87 79
4.72244167327880859 -2 -7 90 66 65
5 -2 -7.15986251831054688 91 89 88
4.72244167327880859 -2 6 60 77 42
5 -2 6.15986251831054688 97 91 66
5 -2 8.81844329833984375 99 81 73
5 -1 -9.78730964660644531 96 100 73
4.69847345352172852 -1 -7 92 88 71
5 -1 -7.51701974868774414 85 86 78
4.17687416076660156 -1 -6 85 74 50
4.17687416076660156 -1 5 85 76 48
4.69847345352172852 -1 6 87 60 52
5 -1 6.51701974868774414 102 79 73
5 -1 8.78730964660644531 105 97 81
5 0 -9.78730964660644531 80 102 77
4.69847345352172852 0 -7 80 89 76
5 0 -7.51701974868774414 74 83 73
4.17687416076660156 0 -6 79 90 63
4.17687416076660156 0 5 99 71 71
4.69847345352172852 0 6 102 87 76
5 0 6.51701974868774414 106 109 91
5 0 8.78730964660644531 114 120 107
5 1 -9.81844329833984375 97 114 105
4.72244167327880859 1 -7 78 83 81
5 1 -7.15986251831054688 81 89 85
4.72244167327880859 1 6 104 104 98
5 1 6.15986251831054688 106 106 106
5 1 8.81844329833984375 112 123 112
5 2 -9.81400871276855469 116 120 120
5 2 -7.21861791610717773 97 99 99
5 2 6.21861791610717773 94 104 98
5 2 8.81400871276855469 90 118 106
4.24637079238891602 3 -9 105 105 110
5 3 -9.76432323455810547 110 112 118
4.84583806991577148 3 -8 96 96 99
5 3 -7.71644020080566406 102 105 108
4.84583806991577148 3 7 82 105 96
5 3 6.71644020080566406 96 107 103
4.24637079238891602 3 8 78 112 109
5 3 8.76432323455810547 80 115 117
4.85930109024047852 4 -9 108 100 111
5 4 -9.50893402099609375 114 109 127
5 3.30040669441223145 -8 102 105 108
5 4 -8.60685825347900391 112 109 117
5 3.30040669441223145 7 88 111 107
4.85930109024047852 4 8 77 85 114
5 4 7.6068577766418457 94 104 117
5 4 8.50893402099609375 81 94 120
5 4.30894660949707031 -9 112 109 117
5 4.30894660949707031 8 81 94 120
5.97563457489013672 -7 -9 70 88 84
6 -7.06546306610107422 -9 59 85 67
6 -7 -9.14673328399658203 68 96 59
6 -7 -8.93550872802734375 67 89 65
5.97563457489013672 -7 8 95 94 95
6 -7.06546306610107422 8 78 77 78
6 -7 7.93550920486450195 50 52 68
6 -7 8.14673328399658203 74 73 80
5.57997417449951172 -6 -9 78 92 82
6 -6 -9.62670803070068359 88 99 64
6 -6 -8.35755157470703125 81 92 70
5.57997417449951172 -6 8 88 86 95
6 -6 7.35755109786987305 56 74 76
6 -6 8.62670803070068359 70 78 84
6 -5 -9.6792144775390625 100 95 67
6 -5 -8.18482398986816406 93 93 72
6 -5 7.18482446670532227 62 83 68
6 -5 8.6792144775390625 68 88 79
6 -4 -9.60557174682617188 100 77 67
5.38810253143310547 -4 -8 92 92 91
6 -4 -8.41364002227783203 93 83 70
5.38810253143310547 -4 7 53 83 71
6 -4 7.41364002227783203 79 89 67
6 -4 8.60557174682617188 77 93 71
5.99503564834594727 -3 -9 98 92 87
6 -3.0140233039855957 -9 93 83 70
5.40871763229370117 -3 -8 93 93 93
5.40871763229370117 -3 7 74 91 61
5.99503564834594727 -3 8 83 94 66
6 -3.0140233039855957 8 77 93 71
5.64308595657348633 -2 -9 96 86 82
5.27545022964477539 -2 -8 91 89 88
5.27545022964477539 -2 7 99 87 70
5.64308595657348633 -2 8 99 81 73
5.38833522796630859 -1 -9 89 91 74
5.11796808242797852 -1 -8 85 86 78
5.11796808242797852 -1 7 105 88 78
5.38833522796630859 -1 8 105 97 81
5.38833522796630859 0 -9 76 91 73
5.11796808242797852 0 -8 74 83 73
5.11796808242797852 0 7 112 115 99
5.38833522796630859 0 8 114 120 107
5.64308595657348633 1 -9 89 101 94
5.27545022964477539 1 -8 81 89 85
5.27545022964477539 1 7 110 114 110
5.64308595657348633 1 8 112 123 112
5.99503564834594727 2 -9 109 112 112
5.40871763229370117 2 -8 97 99 99
5.40871763229370117 2 7 92 110 100
5.99503564834594727 2 8 90 118 106
6 2.0140233039855957 -9 99 109 113
6 3 -9.60557174682617188 120 120 122
5.38810253143310547 3 -8 102 105 108
6 3 -8.41364002227783203 118 119 120
5.38810253143310547 3 7 88 111 107
6 2.0140233039855957 8 104 126 127
6 3 7.41364002227783203 110 122 124
6 3 8.60557174682617188 97 118 128
6 4 -9.6792144775390625 119 103 129
6 4 -8.18482398986816406 123 123 123
6 4 7.18482446670532227 116 118 127
6 4 8.6792144775390625 98 105 131
5.57997417449951172 5 -9 117 104 121
6 5 -9.62670803070068359 123 72 105
6 5 -8.35755157470703125 117 96 124
5.57997417449951172 5 8 120 90 126
6 5 7.35755109786987305 127 124 127
6 5 8.62670803070068359 130 106 134
5.97563457489013672 6 -9 117 80 110
6 6 -9.14673328399658203 118 50 63
6 6 -8.93550872802734375 117 68 100
5.97563457489013672 6 8 132 107 114
6 6 7.93550920486450195 126 113 122
6 6 8.14673328399658203 134 116 122
6 6.06546306610107422 -9 117 68 100
6 6.06546306610107422 8 134 116 122
6.9406275749206543 -9 -9 51 81 71
7 -9.28285312652587891 -9 39 80 46
7 -9 -9.28285312652587891 65 91 39
7 -9 -8.85165500640869141 58 82 45
6.9406275749206543 -9 8 77 67 71
7 -9.28285312652587891 8 65 58 70
7 -9 7.85165548324584961 57 61 62
7 -9 8.28285312652587891 67 68 72
6.67829036712646484 -8 -9 59 85 67
7 -8 -9.53797245025634766 90 90 43
7 -8 -8.55754470825195312 79 85 50
6.67829036712646484 -8 8 78 77 78
7 -8 7.55754470825195312 59 66 62
7 -8 8.53797245025634766 72 73 74
7 -7 -9.46617794036865234 92 70 47
7 -7 -8.66945362091064453 86 78 52
7 -7 7.66945314407348633 64 71 61
7 -7 8.46617794036865234 70 77 74
6.78739356994628906 -6 -9 81 92 70
7 -6.34171342849731445 -9 86 78 52
6.78739356994628906 -6 8 70 78 84
7 -6.34171342849731445 8 70 77 74
6.43163204193115234 -5 -9 93 93 72
6.43163204193115234 -5 8 68 88 79
6.20137453079223633 -4 -9 93 83 70
6.20137453079223633 -4 8 77 93 71
6.20137453079223633 3 -9 118 119 120
6.20137453079223633 3 8 97 118 128
6.43163204193115234 4 -9 123 123 123
6.43163204193115234 4 8 98 105 131
6.78739356994628906 5 -9 117 96 124
6.78739356994628906 5 8 130 106 134
7 5.34171342849731445 -9 126 95 115
7 6 -9.46617794036865234 118 49 49
7 6 -8.66945362091064453 118 65 68
7 5.34171342849731445 8 137 126 138
7 6 7.66945314407348633 124 86 125
7 6 8.46617794036865234 137 98 123
6.67829036712646484 7 -9 115 50 68
7 7 -9.53797245025634766 122 36 36
7 7 -8.55754470825195312 117 47 47
6.67829036712646484 7 8 133 87 103
7 7 7.55754470825195312 113 53 94
7 7 8.53797245025634766 128 62 89
6.9406275749206543 8 -9 118 41 41
7 8 -9.28285312652587891 129 30 30
7 8 -8.85165500640869141 121 37 37
6.9406275749206543 8 8 122 47 82
7 8 7.85165548324584961 109 29 55
7 8 8.28285312652587891 119 30 49
7 8.28285312652587891 -9 121 37 37
7 8.28285312652587891 8 119 30 49
8 -9.4122314453125 -9 67 87 31
8 -9 -9.4122314453125 97 61 28
8 -9 -8.73513984680175781 87 69 34
8 -9.4122314453125 8 63 75 69
8 -9 7.73513984680175781 66 66 65
8 -9 8.4122314453125 72 77 71
7.45982170104980469 -8 -9 79 85 50
8 -8.66105365753173828 -9 87 69 34
7.45982170104980469 -8 8 72 73 74
8 -8.66105365753173828 8 72 77 71
7.16329240798950195 -7 -9 86 78 52
7.16329240798950195 -7 8 70 77 74
7.16329240798950195 6 -9 118 65 68
7.16329240798950195 6 8 137 98 123
7.45982170104980469 7 -9 117 47 47
7.45982170104980469 7 8 128 62 89
8 7.66105365753173828 -9 122 54 54
8 8 -9.4122314453125 139 38 38
8 8 -8.73513984680175781 129 43 43
8 7.66105365753173828 8 118 31 127
8 8 7.73513984680175781 118 11 60
8 8 8.4122314453125 124 8 64
8 8.4122314453125 -9 129 43 43
8 8.4122314453125 8 124 8 64
8.4122314453125 -9 -9 87 69 34
8.4122314453125 -9 8 72 77 71
8.4122314453125 8 -9 129 43 43
8.4122314453125 8 8 124 8 64
3 2 1 0
3 1 3 0
3 6 5 4
3 5 7 4
3 2 0 8
3 0 3 8
3 6 4 9
3 4 7 9
3 12 11 10
3 11 13 10
3 16 15 14
3 15 17 14
3 12 10 18
3 10 13 18
3 16 14 19
3 14 17 19
3 2 21 20
3 1 2 20
3 1 20 22
3 3 1 22
3 6 24 23
3 5 6 23
3 5 23 25
3 7 5 25
3 8 26 27
3 8 27 2
3 2 27 21
3 26 8 3
3 26 3 28
3 28 3 22
3 9 29 30
3 9 30 6
3 6 30 24
3 29 9 7
3 29 7 31
3 31 7 25
3 33 27 26
3 32 33 26
3 28 34 32
3 26 28 32
3 36 30 29
3 35 36 29
3 31 37 35
3 29 31 35
3 33 32 38
3 32 34 38
3 36 35 39
3 35 37 39
3 42 41 40
3 41 43 40
3 46 45 44
3 45 47 44
3 49 42 40
3 48 49 40
3 43 50 48
3 40 43 48
3 52 46 44
3 51 52 44
3 47 53 51
3 44 47 51
3 48 11 12
3 48 12 49
3 49 12 54
3 11 48 50
3 11 50 13
3 13 50 55
3 51 15 16
3 51 16 52
3 52 16 56
3 15 51 53
3 15 53 17
3 17 53 57
3 54 12 18
3 58 54 18
3 58 18 13
3 55 58 13
3 56 16 19
3 59 56 19
3 59 19 17
3 57 59 17
3 20 21 60
3 20 60 22
3 23 24 61
3 23 61 25
3 62 60 21
3 27 62 21
3 60 62 28
3 22 60 28
3 63 61 24
3 30 63 24
3 61 63 31
3 25 61 31
3 64 62 27
3 64 27 65
3 65 27 33
3 62 64 66
3 62 66 28
3 28 66 34
3 67 63 30
3 67 30 68
3 68 30 36
3 63 67 69
3 63 69 31
3 31 69 37
3 38 70 71
3 38 71 33
3 33 71 65
3 70 38 34
3 70 34 72
3 72 34 66
3 39 73 74
3 39 74 36
3 36 74 68
3 73 39 37
3 73 37 75
3 75 37 69
3 77 71 70
3 76 77 70
3 72 78 76
3 70 72 76
3 80 74 73
3 79 80 73
3 75 81 79
3 73 75 79
3 83 77 76
3 82 83 76
3 78 84 82
3 76 78 82
3 86 80 79
3 85 86 79
3 81 87 85
3 79 81 85
3 83 82 88
3 82 84 88
3 86 85 89
3 85 87 89
3 92 91 90
3 91 93 90
3 96 95 94
3 95 97 94
3 99 92 90
3 98 99 90
3 93 100 98
3 90 93 98
3 102 96 94
3 101 102 94
3 97 103 101
3 94 97 101
3 105 99 98
3 104 105 98
3 100 106 104
3 98 100 104
3 108 102 101
3 107 108 101
3 103 109 107
3 101 103 107
3 104 41 42
3 104 42 105
3 105 42 110
3 41 104 106
3 41 106 43
3 43 106 111
3 107 45 46
3 107 46 108
3 108 46 112
3 45 107 109
3 45 109 47
3 47 109 113
3 114 115 110
3 114 110 49
3 49 110 42
3 115 114 50
3 115 50 111
3 111 50 43
3 116 117 112
3 116 112 52
3 52 112 46
3 117 116 53
3 117 53 113
3 113 53 47
3 118 114 49
3 54 118 49
3 114 118 55
3 50 114 55
3 119 116 52
3 56 119 52
3 116 119 57
3 53 116 57
3 118 54 58
3 118 58 55
3 119 56 59
3 119 59 57
3 64 65 120
3 64 120 66
3 67 68 121
3 67 121 69
3 122 120 65
3 71 122 65
3 120 122 72
3 66 120 72
3 123 121 68
3 74 123 68
3 121 123 75
3 69 121 75
3 124 122 71
3 124 71 125
3 125 71 77
3 122 124 126
3 122 126 72
3 72 126 78
3 127 123 74
3 127 74 128
3 128 74 80
3 123 127 129
3 123 129 75
3 75 129 81
3 125 77 130
3 130 77 83
3 131 126 132
3 131 84 126
3 84 78 126
3 132 133 131
3 136 135 134
3 135 86 134
3 135 128 86
3 128 80 86
3 129 137 81
3 137 87 81
3 88 138 139
3 88 139 83
3 83 139 130
3 84 138 88
3 84 131 138
3 131 140 138
3 133 141 140
3 131 133 140
3 143 136 134
3 142 143 134
3 89 134 86
3 89 144 134
3 144 142 134
3 144 89 87
3 144 87 145
3 145 87 137
3 147 139 138
3 146 147 138
3 138 140 146
3 140 148 146
3 141 149 148
3 140 141 148
3 151 143 142
3 150 151 142
3 142 144 150
3 144 152 150
3 145 153 152
3 144 145 152
3 155 147 146
3 154 155 146
3 146 148 154
3 148 156 154
3 149 157 156
3 148 149 156
3 159 151 150
3 158 159 150
3 150 152 158
3 152 160 158
3 153 161 160
3 152 153 160
3 163 155 154
3 162 163 154
3 154 156 162
3 156 164 162
3 157 165 164
3 156 157 164
3 167 159 158
3 166 167 158
3 158 160 166
3 160 168 166
3 161 169 168
3 160 161 168
3 171 163 162
3 170 171 162
3 162 164 170
3 164 172 170
3 165 173 172
3 164 165 172
3 175 167 166
3 174 175 166
3 166 168 174
3 168 176 174
3 169 177 176
3 168 169 176
3 179 171 170
3 178 179 170
3 170 172 178
3 172 180 178
3 173 181 180
3 172 173 180
3 183 175 174
3 182 183 174
3 174 176 182
3 176 184 182
3 177 185 184
3 176 177 184
3 178 91 92
3 178 92 179
3 179 92 186
3 91 187 93
3 91 178 187
3 178 180 187
3 181 188 187
3 180 181 187
3 190 183 182
3 189 190 182
3 96 184 95
3 96 189 184
3 189 182 184
3 95 184 185
3 95 185 97
3 97 185 191
3 186 92 192
3 192 92 99
3 193 93 187
3 193 194 93
3 194 100 93
3 187 188 193
3 190 189 195
3 189 196 195
3 189 96 196
3 96 102 196
3 191 197 97
3 197 103 97
3 198 199 192
3 198 192 105
3 105 192 99
3 199 198 106
3 199 106 194
3 194 106 100
3 200 201 196
3 200 196 108
3 108 196 102
3 201 200 109
3 201 109 197
3 197 109 103
3 202 198 105
3 110 202 105
3 198 202 111
3 106 198 111
3 203 200 108
3 112 203 108
3 200 203 113
3 109 200 113
3 202 110 115
3 202 115 111
3 203 112 117
3 203 117 113
3 124 125 204
3 124 204 126
3 127 128 205
3 127 205 129
3 206 204 125
3 130 206 125
3 132 126 204
3 132 204 207
3 207 204 206
3 132 207 133
3 135 136 208
3 128 135 208
3 128 208 205
3 205 208 209
3 205 209 137
3 129 205 137
3 210 206 130
3 210 130 211
3 211 130 139
3 206 212 207
3 210 212 206
3 207 212 213
3 207 213 133
3 133 213 141
3 214 208 136
3 214 136 215
3 215 136 143
3 208 216 209
3 214 216 208
3 209 216 217
3 209 217 137
3 137 217 145
3 211 139 218
3 218 139 147
3 219 213 220
3 219 149 213
3 149 141 213
3 220 221 219
3 224 223 222
3 223 151 222
3 223 215 151
3 215 143 151
3 217 225 145
3 225 153 145
3 218 147 226
3 226 147 155
3 227 149 219
3 157 149 227
3 221 229 228
3 221 228 219
3 219 228 227
3 229 230 228
3 233 232 231
3 232 224 222
3 232 222 231
3 231 222 234
3 222 159 234
3 151 159 222
3 225 235 153
3 235 161 153
3 226 155 236
3 236 155 163
3 237 157 227
3 165 157 237
3 227 228 237
3 228 238 237
3 230 239 238
3 228 230 238
3 241 233 231
3 240 241 231
3 231 234 240
3 234 242 240
3 234 167 242
3 159 167 234
3 235 243 161
3 243 169 161
3 236 163 244
3 244 163 171
3 245 165 237
3 173 165 245
3 246 247 245
3 246 245 238
3 238 245 237
3 238 239 246
3 241 240 248
3 250 248 240
3 250 240 249
3 249 240 242
3 242 175 249
3 167 175 242
3 243 251 169
3 251 177 169
3 244 171 252
3 252 171 179
3 253 173 245
3 253 254 173
3 254 181 173
3 245 247 253
3 250 249 255
3 249 256 255
3 249 175 256
3 175 183 256
3 251 257 177
3 257 185 177
3 258 259 252
3 258 252 186
3 186 252 179
3 259 260 261
3 258 260 259
3 261 260 188
3 261 188 254
3 254 188 181
3 262 263 256
3 262 256 190
3 190 256 183
3 263 264 265
3 262 264 263
3 265 264 191
3 265 191 257
3 257 191 185
3 266 258 186
3 192 266 186
3 194 193 260
3 194 260 266
3 266 260 258
3 260 193 188
3 262 190 195
3 195 196 267
3 195 267 262
3 262 267 264
3 264 267 197
3 191 264 197
3 266 192 199
3 266 199 194
3 267 196 201
3 267 201 197
3 210 211 268
3 212 210 268
3 269 212 268
3 212 269 213
3 214 215 270
3 216 214 270
3 271 216 270
3 216 271 217
3 272 268 211
3 272 211 273
3 273 211 218
3 275 268 272
3 275 274 268
3 274 269 268
3 220 213 269
3 220 269 276
3 276 269 274
3 220 276 221
3 223 224 277
3 215 223 277
3 215 277 270
3 270 277 278
3 279 278 280
3 279 271 278
3 271 270 278
3 271 279 281
3 271 281 217
3 217 281 225
3 273 218 282
3 282 218 226
3 275 283 274
3 274 284 276
3 283 284 274
3 286 285 229
3 284 286 229
3 284 229 221
3 284 221 276
3 229 285 230
3 232 233 287
3 287 289 288
3 232 287 288
3 232 288 277
3 232 277 224
3 277 290 278
3 288 290 277
3 278 290 280
3 281 291 225
3 291 235 225
3 282 226 292
3 292 226 236
3 294 285 286
3 293 285 294
3 285 293 239
3 230 285 239
3 295 287 233
3 241 295 233
3 289 295 296
3 287 295 289
3 291 297 235
3 297 243 235
3 292 236 298
3 298 236 244
3 301 299 300
3 300 302 303
3 299 302 300
3 293 247 246
3 294 247 293
3 294 302 247
3 294 303 302
3 293 246 239
3 295 241 248
3 248 250 304
3 295 248 304
3 295 304 305
3 295 305 296
3 305 306 307
3 304 306 305
3 307 306 308
3 297 309 243
3 309 251 243
3 310 311 298
3 310 298 252
3 252 298 244
3 311 299 301
3 311 310 299
3 310 312 299
3 254 253 302
3 254 302 312
3 312 302 299
3 302 253 247
3 304 250 255
3 255 256 313
3 255 313 304
3 304 313 306
3 308 314 315
3 308 306 314
3 306 313 314
3 315 314 257
3 315 257 309
3 309 257 251
3 310 252 259
3 312 310 259
3 261 312 259
3 312 261 254
3 313 256 263
3 314 313 263
3 265 314 263
3 314 265 257
3 272 273 316
3 272 316 275
3 279 280 317
3 279 317 281
3 318 316 273
3 282 318 273
3 283 275 316
3 283 316 319
3 319 316 318
3 284 283 319
3 320 284 319
3 284 320 286
3 288 289 321
3 290 288 321
3 322 290 321
3 280 290 322
3 280 322 317
3 317 322 323
3 317 323 291
3 281 317 291
3 324 318 282
3 292 324 282
3 318 324 319
3 319 324 325
3 319 325 320
3 320 325 326
3 320 326 294
3 286 320 294
3 327 321 289
3 296 327 289
3 321 327 322
3 322 327 328
3 322 328 323
3 323 328 329
3 323 329 297
3 291 323 297
3 330 324 292
3 298 330 292
3 301 300 325
3 301 325 330
3 330 325 324
3 326 325 300
3 303 326 300
3 326 303 294
3 327 296 305
3 328 327 305
3 307 328 305
3 307 308 331
3 307 331 328
3 328 331 329
3 329 331 309
3 297 329 309
3 330 298 311
3 330 311 301
3 331 308 315
3 331 315 309
3 334 333 332
3 333 335 332
3 338 337 336
3 337 339 336
3 341 334 332
3 340 341 332
3 335 343 342
3 335 342 332
3 332 342 340
3 343 345 344
3 342 343 344
3 345 346 344
3 349 348 347
3 348 351 350
3 347 348 350
3 351 338 336
3 351 336 350
3 350 336 352
3 339 353 352
3 336 339 352
3 355 341 340
3 354 355 340
3 340 342 354
3 342 356 354
3 342 344 356
3 344 357 356
3 346 358 357
3 344 346 357
3 360 349 347
3 359 360 347
3 347 350 359
3 350 361 359
3 350 352 361
3 352 362 361
3 353 363 362
3 352 353 362
3 365 355 354
3 364 365 354
3 366 367 364
3 366 364 356
3 356 364 354
3 356 357 368
3 366 356 368
3 357 358 368
3 360 359 369
3 359 361 370
3 369 359 370
3 372 370 361
3 372 361 371
3 371 361 362
3 363 373 371
3 362 363 371
3 365 364 374
3 364 367 374
3 372 371 375
3 371 373 375
3 378 377 376
3 377 380 379
3 376 377 379
3 380 381 379
3 384 383 382
3 383 386 385
3 382 383 385
3 386 387 385
3 376 333 334
3 376 334 378
3 378 334 388
3 333 389 335
3 333 376 389
3 376 379 389
3 381 391 390
3 381 390 379
3 379 390 389
3 391 392 390
3 395 394 393
3 394 384 382
3 394 382 393
3 393 382 396
3 338 385 337
3 338 396 385
3 396 382 385
3 337 385 387
3 337 387 339
3 339 387 397
3 388 334 398
3 398 334 341
3 389 343 335
3 390 343 389
3 345 343 390
3 345 399 346
3 390 399 345
3 390 400 399
3 390 392 400
3 400 401 399
3 404 403 402
3 393 348 349
3 395 393 349
3 395 349 402
3 395 402 403
3 396 348 393
3 351 348 396
3 396 338 351
3 397 405 339
3 405 353 339
3 398 341 406
3 406 341 355
3 407 346 399
3 358 346 407
3 401 408 407
3 399 401 407
3 410 404 402
3 409 410 402
3 402 360 409
3 349 360 402
3 405 411 353
3 411 363 353
3 406 355 412
3 412 355 365
3 366 413 367
3 368 413 366
3 414 413 368
3 414 415 416
3 368 415 414
3 368 407 415
3 368 358 407
3 407 408 415
3 410 409 417
3 419 369 418
3 417 369 419
3 417 360 369
3 417 409 360
3 370 418 369
3 420 418 370
3 370 372 420
3 411 421 363
3 421 373 363
3 374 422 423
3 374 423 365
3 365 423 412
3 367 422 374
3 367 413 422
3 413 424 422
3 425 426 424
3 425 424 414
3 414 424 413
3 414 416 425
3 419 418 427
3 429 427 418
3 429 418 428
3 428 418 420
3 375 420 372
3 375 430 420
3 430 428 420
3 430 375 373
3 430 373 431
3 431 373 421
3 423 422 432
3 422 424 433
3 432 422 433
3 424 426 433
3 429 428 434
3 428 430 435
3 434 428 435
3 430 431 435
3 438 437 436
3 437 439 436
3 442 441 440
3 441 443 440
3 445 438 436
3 444 445 436
3 439 447 446
3 439 446 436
3 436 446 444
3 447 448 446
3 451 450 449
3 450 442 440
3 450 440 449
3 449 440 452
3 443 453 452
3 440 443 452
3 444 377 378
3 444 378 445
3 445 378 454
3 446 377 444
3 380 377 446
3 380 446 448
3 380 448 381
3 381 448 455
3 449 383 384
3 449 384 451
3 451 384 456
3 452 383 449
3 386 383 452
3 386 452 453
3 386 453 387
3 387 453 457
3 454 378 458
3 458 378 388
3 391 460 459
3 391 381 460
3 381 455 460
3 391 459 392
3 394 395 461
3 461 384 394
3 461 462 384
3 462 456 384
3 457 463 387
3 463 397 387
3 458 388 464
3 464 388 398
3 466 459 460
3 465 459 466
3 400 392 459
3 400 459 467
3 467 459 465
3 400 467 401
3 403 404 468
3 395 403 468
3 395 468 461
3 461 468 469
3 462 469 470
3 461 469 462
3 463 471 397
3 471 405 397
3 464 398 472
3 472 398 406
3 474 465 466
3 473 465 474
3 465 473 467
3 467 473 475
3 467 475 408
3 401 467 408
3 476 468 404
3 410 476 404
3 468 476 469
3 469 476 477
3 470 477 478
3 469 477 470
3 471 479 405
3 479 411 405
3 472 406 480
3 480 406 412
3 482 473 474
3 481 473 482
3 416 415 475
3 416 475 481
3 481 475 473
3 475 415 408
3 476 410 417
3 417 419 483
3 417 483 476
3 476 483 477
3 478 483 484
3 477 483 478
3 479 485 411
3 485 421 411
3 480 412 486
3 486 412 423
3 481 426 425
3 481 482 426
3 482 487 426
3 481 425 416
3 483 419 427
3 427 484 483
3 427 429 484
3 429 488 484
3 485 489 421
3 489 431 421
3 432 490 491
3 432 491 423
3 423 491 486
3 433 490 432
3 492 490 433
3 492 433 426
3 492 426 493
3 493 426 487
3 434 494 495
3 434 495 429
3 429 495 488
3 435 494 434
3 496 494 435
3 496 435 431
3 496 431 497
3 497 431 489
3 499 491 490
3 498 499 490
3 500 501 498
3 500 498 492
3 492 498 490
3 492 493 500
3 495 494 502
3 504 502 494
3 504 494 503
3 503 494 496
3 497 505 503
3 496 497 503
3 499 498 506
3 498 501 506
3 504 503 507
3 503 505 507
3 510 509 508
3 509 511 508
3 514 513 512
3 513 515 512
3 517 510 508
3 516 517 508
3 511 518 516
3 508 511 516
3 520 514 512
3 519 520 512
3 515 521 519
3 512 515 519
3 516 437 438
3 516 438 517
3 517 438 522
3 437 516 518
3 437 518 439
3 439 518 523
3 519 441 442
3 519 442 520
3 520 442 524
3 441 519 521
3 441 521 443
3 443 521 525
3 522 438 526
3 526 438 445
3 447 528 527
3 447 439 528
3 439 523 528
3 447 527 448
3 450 451 529
3 529 442 450
3 529 530 442
3 530 524 442
3 525 531 443
3 531 453 443
3 532 533 526
3 532 526 454
3 454 526 445
3 533 527 528
3 533 532 527
3 532 534 527
3 527 534 455
3 448 527 455
3 535 529 451
3 456 535 451
3 530 536 537
3 530 529 536
3 529 535 536
3 537 536 457
3 537 457 531
3 531 457 453
3 538 532 454
3 458 538 454
3 532 538 534
3 534 538 539
3 534 539 460
3 455 534 460
3 540 535 456
3 462 540 456
3 535 540 536
3 536 540 541
3 536 541 463
3 457 536 463
3 542 538 458
3 464 542 458
3 538 542 539
3 539 542 543
3 539 543 466
3 460 539 466
3 544 540 462
3 470 544 462
3 540 544 541
3 541 544 545
3 541 545 471
3 463 541 471
3 546 542 464
3 472 546 464
3 542 546 543
3 543 546 547
3 543 547 474
3 466 543 474
3 548 544 470
3 478 548 470
3 544 548 545
3 545 548 549
3 545 549 479
3 471 545 479
3 550 546 472
3 480 550 472
3 546 550 547
3 547 550 551
3 547 551 482
3 474 547 482
3 552 548 478
3 484 552 478
3 548 552 549
3 549 552 553
3 549 553 485
3 479 549 485
3 554 550 480
3 486 554 480
3 550 554 551
3 551 554 555
3 551 555 487
3 482 551 487
3 556 552 484
3 488 556 484
3 552 556 553
3 553 556 557
3 553 557 489
3 485 553 489
3 558 554 486
3 558 486 559
3 559 486 491
3 561 554 558
3 561 560 554
3 560 555 554
3 555 560 493
3 487 555 493
3 562 556 488
3 495 562 488
3 563 562 564
3 563 557 562
3 557 556 562
3 557 563 565
3 557 565 489
3 489 565 497
3 559 491 566
3 566 491 499
3 560 501 500
3 560 561 501
3 561 567 501
3 560 500 493
3 562 495 502
3 502 564 562
3 502 504 564
3 504 568 564
3 565 569 497
3 569 505 497
3 506 570 571
3 506 571 499
3 499 571 566
3 570 506 501
3 570 501 572
3 572 501 567
3 507 573 574
3 507 574 504
3 504 574 568
3 573 507 505
3 573 505 575
3 575 505 569
3 577 571 570
3 576 577 570
3 572 578 576
3 570 572 576
3 580 574 573
3 579 580 573
3 575 581 579
3 573 575 579
3 577 576 582
3 576 578 582
3 580 579 583
3 579 581 583
3 586 585 584
3 585 587 584
3 590 589 588
3 589 591 588
3 593 586 584
3 592 593 584
3 587 594 592
3 584 587 592
3 596 590 588
3 595 596 588
3 591 597 595
3 588 591 595
3 592 509 510
3 592 510 593
3 593 510 598
3 509 592 594
3 509 594 511
3 511 594 599
3 595 513 514
3 595 514 596
3 596 514 600
3 513 595 597
3 513 597 515
3 515 597 601
3 602 603 598
3 602 598 517
3 517 598 510
3 603 602 518
3 603 518 599
3 599 518 511
3 604 605 600
3 604 600 520
3 520 600 514
3 605 604 521
3 605 521 601
3 601 521 515
3 606 602 517
3 522 606 517
3 602 606 523
3 518 602 523
3 607 604 520
3 524 607 520
3 604 607 525
3 521 604 525
3 608 606 522
3 526 608 522
3 606 608 528
3 523 606 528
3 609 607 524
3 530 609 524
3 607 609 531
3 525 607 531
3 608 526 533
3 608 533 528
3 609 530 537
3 609 537 531
3 558 559 610
3 558 610 561
3 563 564 611
3 563 611 565
3 612 610 559
3 566 612 559
3 610 612 567
3 561 610 567
3 613 611 564
3 568 613 564
3 611 613 569
3 565 611 569
3 614 612 566
3 571 614 566
3 612 614 572
3 567 612 572
3 615 613 568
3 574 615 568
3 613 615 575
3 569 613 575
3 616 614 571
3 616 571 617
3 617 571 577
3 614 616 618
3 614 618 572
3 572 618 578
3 619 615 574
3 619 574 620
3 620 574 580
3 615 619 621
3 615 621 575
3 575 621 581
3 582 622 623
3 582 623 577
3 577 623 617
3 622 582 578
3 622 578 624
3 624 578 618
3 583 625 626
3 583 626 580
3 580 626 620
3 625 583 581
3 625 581 627
3 627 581 621
3 629 623 622
3 628 629 622
3 624 630 628
3 622 624 628
3 632 626 625
3 631 632 625
3 627 633 631
3 625 627 631
3 629 628 634
3 628 630 634
3 632 631 635
3 631 633 635
3 586 637 636
3 585 586 636
3 585 636 638
3 587 585 638
3 590 640 639
3 589 590 639
3 589 639 641
3 591 589 641
3 642 643 637
3 642 637 593
3 593 637 586
3 643 642 594
3 643 594 638
3 638 594 587
3 644 645 640
3 644 640 596
3 596 640 590
3 645 644 597
3 645 597 641
3 641 597 591
3 646 642 593
3 598 646 593
3 642 646 599
3 594 642 599
3 647 644 596
3 600 647 596
3 644 647 601
3 597 644 601
3 646 598 603
3 646 603 599
3 647 600 605
3 647 605 601
3 616 617 648
3 616 648 618
3 619 620 649
3 619 649 621
3 650 648 617
3 623 650 617
3 648 650 624
3 618 648 624
3 651 649 620
3 626 651 620
3 649 651 627
3 621 649 627
3 652 650 623
3 652 623 653
3 653 623 629
3 650 652 654
3 650 654 624
3 624 654 630
3 655 651 626
3 655 626 656
3 656 626 632
3 651 655 657
3 651 657 627
3 627 657 633
3 653 629 634
3 658 653 634
3 658 634 630
3 654 658 630
3 656 632 635
3 659 656 635
3 659 635 633
3 657 659 633
3 636 637 660
3 636 660 638
3 639 640 661
3 639 661 641
3 660 637 643
3 660 643 638
3 661 640 645
3 661 645 641
3 652 653 662
3 652 662 654
3 655 656 663
3 655 663 657
3 662 653 658
3 662 658 654
3 663 656 659
3 663 659 657
