ply
format ascii 1.0
element vertex 206
property float x
property float y
property float z
property uchar red
property uchar green
property uchar blue
element face 404
property list uchar int vertex_indices
end_header
-8.04712867736816406 -6 -3 207 206 181
-8 -6.05260753631591797 -3 250 254 246
-8 -6 -3.10558676719665527 223 226 221
-8.00537776947021484 -6 -2 237 236 200
-8 -6.00836658477783203 -2 237 243 230
-8 -6 -1.96307241916656494 14 15 14
-8.01761531829833984 -6 1 211 189 149
-8 -6.02422142028808594 1 247 254 203
-8 -6 0.872678935527801514 52 54 50
-8 -6 1.43041801452636719 59 63 53
-8 -5.93664216995239258 -3 63 64 63
-8 -5.99475717544555664 -2 14 15 14
-8 -5.98204946517944336 1 59 63 53
-7.13162946701049805 -7 -3 250 254 246
-7 -7.1398158073425293 -3 239 252 235
-7 -7 -3.61412644386291504 128 138 129
-7 -7 -2.39342951774597168 49 53 50
-7.10948324203491211 -7 2 228 222 167
-7 -7.11318397521972656 2 241 248 204
-7 -7 1.2739182710647583 10 11 10
-7 -7 2.27780938148498535 24 26 22
-7.03583145141601562 -6 -5 236 238 233
-7 -6.04020309448242188 -5 239 254 238
-7 -6 -5.04457283020019531 241 254 241
-7 -6 -4.93200540542602539 34 37 35
-7.95127487182617188 -6 -3 63 64 63
-7 -6.87732934951782227 -3 49 53 50
-7.9949803352355957 -6 -2 14 15 14
-7.98304653167724609 -6 1 59 63 53
-7 -6.88888931274414062 2 24 26 22
-7 -5.9572601318359375 -5 34 37 35
-6.20112276077270508 -8 -3 239 252 235
-6 -8.18154525756835938 -3 219 254 216
-6 -8 -3.56020760536193848 126 148 130
-6.2269587516784668 -8 -2 210 217 208
-6 -8.15501594543457031 -2 214 240 211
-6.00464487075805664 -8 -1 185 186 185
-6 -8.00199508666992188 -1 209 224 205
-6.05121421813964844 -8 0 194 199 190
-6 -8.02447795867919922 0 227 233 225
-6.21005678176879883 -8 1 231 242 216
-6 -8.15749645233154297 1 249 253 246
-6.15030193328857422 -8 2 241 248 204
-6 -8.14192295074462891 2 237 242 219
-6 -8 2.27846813201904297 40 43 39
-6.11703824996948242 -7 -5 239 254 238
-6 -7.11234045028686523 -5 217 253 220
-6 -7 -5.14165878295898438 212 243 219
-6 -7 -4.79761457443237305 10 12 11
-6.87648439407348633 -7 -3 49 53 50
-6 -7.82083606719970703 -3 33 39 34
-6 -7.8771510124206543 -2 115 132 120
-6 -7.99878644943237305 -1 100 113 102
-6 -7.98412179946899414 0 95 101 95
-6 -7.86452531814575195 1 96 97 96
-6.88774347305297852 -7 2 24 26 22
-6 -7.85087871551513672 2 40 43 39
-6.00996112823486328 -7 4 205 190 133
-6 -7.00980758666992188 4 213 206 153
-6 -7 3.96855592727661133 25 26 23
-6 -7 4.01053810119628906 131 140 104
-6.96257448196411133 -6 -5 34 37 35
-6 -6.8904414176940918 -5 10 12 11
-6 -6.9884648323059082 4 131 140 104
-5.23068475723266602 -9 -2 214 240 211
-5 -9.97146987915039062 -2 213 254 203
-5 -9 -2.83715939521789551 84 106 88
-5.30512571334838867 -9 -1 209 224 205
-5 -9.97552967071533203 -1 225 254 213
-5.28866910934448242 -9 0 227 233 225
-5 -9.97498321533203125 0 238 254 226
-5.18211460113525391 -9 1 249 253 246
-5 -9.96515941619873047 1 243 248 234
-5 -9 1.45012140274047852 35 36 34
-5.0443415641784668 -8 -5 217 253 220
-5 -8.04035663604736328 -5 197 254 201
-5 -8 -5.04509687423706055 204 252 214
-5.3147578239440918 -8 -4 126 148 130
-5 -8.09594249725341797 -4 179 227 185
-5.75367021560668945 -8 -3 33 39 34
-5 -8 -3.89456629753112793 116 149 134
-5.86955404281616211 -8 -2 115 132 120
-5 -8.80308437347412109 -2 10 13 11
-5.99875402450561523 -8 -1 100 113 102
-5 -8.78490257263183594 -1 53 63 54
-5.98365974426269531 -8 0 95 101 95
-5 -8.78823471069335938 0 42 48 42
-5.85365962982177734 -8 1 96 97 96
-5 -8.83043479919433594 1 35 36 34
-5.76476621627807617 -8 2 40 43 39
-5.22250890731811523 -8 3 221 233 189
-5 -8.1206207275390625 3 250 254 221
-5 -8 2.81427383422851562 43 43 43
-5 -8 3.36064624786376953 60 64 57
-5.10964584350585938 -7 -6 212 243 219
-5 -7.08769130706787109 -6 204 252 214
-5 -7 -6.09363126754760742 210 252 222
-5.87081098556518555 -7 -5 10 12 11
-5 -7.94841527938842773 -5 57 73 63
-5 -7 -5.90033292770385742 16 21 19
-5 -7.93052530288696289 -4 116 149 134
-5 -7.89304590225219727 3 60 64 57
-5.98419284820556641 -7 4 131 140 104
-5 -6.91790151596069336 -6 16 21 19
-4.16756105422973633 -9 -4 179 227 185
-4 -9.95479774475097656 -4 187 254 183
-4 -9 -4.17368125915527344 165 221 174
-4.8445134162902832 -9 -3 84 106 88
-4 -9.97295379638671875 -3 185 242 180
-4 -9.41632843017578125 -2 167 208 161
-4.46572446823120117 -9 -1 53 63 54
-4 -9 -1.97988677024841309 142 184 156
-4.4433445930480957 -9 0 42 48 42
-4 -9.88977622985839844 1 228 236 216
-4 -9 0.79360806941986084 132 157 133
-4.51395511627197266 -9 2 179 182 175
-4 -9.97281551361083984 2 254 254 250
-4 -9 2.87694382667541504 71 73 70
-4 -8.01403236389160156 -5 165 221 174
-4 -8 -5.06882858276367188 97 129 109
-4.92133522033691406 -8 -4 116 149 134
-4 -8.86062526702880859 -4 20 27 22
-4 -8 -4.98915338516235352 112 154 136
-4 -8.80530261993408203 -3 100 135 112
-4 -8.99525356292724609 -2 142 184 156
-4 -8.94878482818603516 1 148 161 146
-4 -8.80559921264648438 2 71 73 70
-4.86846399307250977 -8 3 60 64 57
-4.26397991180419922 -8 4 204 209 165
-4 -8.07905197143554688 4 251 241 207
-4 -8 3.91215777397155762 1 1 1
-4 -8 4.13359642028808594 39 40 35
-4.87859201431274414 -7 -6 16 21 19
-4 -7.99051666259765625 -5 112 154 136
-4 -7.92935800552368164 4 39 40 35
-3 -9.96853828430175781 -4 177 238 168
-3 -9 -4.94799947738647461 60 85 64
-3.59749770164489746 -9 -3 100 135 112
-3 -9 -3.63432884216308594 98 142 111
-3.99421572685241699 -9 -2 142 184 156
-3.93490719795227051 -9 1 148 161 146
-3.49573874473571777 -9 2 71 73 70
-3.86123466491699219 -9 3 143 146 136
-3 -9.96891117095947266 3 251 248 242
-3 -9 2.53025650978088379 139 144 135
-3 -9 3.40002059936523438 50 50 50
-3.50141501426696777 -8 -6 97 129 109
-3 -8.12730216979980469 -6 180 249 181
-3 -8 -6.15144968032836914 178 241 186
-3.98768854141235352 -8 -5 112 154 136
-3 -8 -5.85499715805053711 45 64 52
-3 -8.82888603210449219 -4 98 142 111
-3 -8.82663822174072266 3 50 50 50
-3.88959932327270508 -8 4 39 40 35
-3.07850122451782227 -8 5 251 231 185
-3 -8.04085254669189453 5 205 168 158
-3 -8 4.9358372688293457 28 28 26
-3 -8 5.04246330261230469 124 115 100
-3 -7.88302993774414062 -6 45 64 52
-3 -7.95787382125854492 5 124 115 100
-2.94562745094299316 -9 -5 60 85 64
-2 -9.96707057952880859 -5 199 252 171
-2 -9 -5.23383617401123047 163 220 153
-2.45418787002563477 -9 -4 98 142 111
-2 -9 -4.46588850021362305 28 41 28
-2.16727828979492188 -9 3 50 50 50
-2.19085526466369629 -9 4 217 209 190
-2 -9.91684532165527344 4 220 201 200
-2 -9 3.36217021942138672 133 133 129
-2 -9 4.07631111145019531 114 110 106
-2.48995780944824219 -8 -6 45 64 52
-2 -8.83241081237792969 -5 28 41 28
-2 -8.92753696441650391 4 114 110 106
-2.34762430191040039 -8 5 124 115 100
-1 -9.96390914916992188 -5 219 248 165
-1 -9 -5.28840970993041992 157 193 130
-1 -9 -4.74482583999633789 67 93 59
-1 -9.95151424407958984 4 228 216 212
-1 -9 3.73315978050231934 142 139 134
-1 -9 4.14472866058349609 56 55 55
-1 -8.84788036346435547 -5 67 93 59
-1 -8.88268280029296875 4 56 55 55
0 -9.95521068572998047 -5 250 247 164
0 -9 -5.24228811264038086 189 202 132
0 -9 -4.80419254302978516 70 82 51
0 -9.93764400482177734 4 221 217 210
0 -9 3.81097674369812012 140 131 128
0 -9 4.11483192443847656 72 71 71
0 -8.87489128112792969 -5 70 82 51
0 -8.90790081024169922 4 72 71 71
1 -9.94318294525146484 -5 254 211 164
1 -9 -5.14656400680541992 238 215 151
1 -9 -4.77768182754516602 5 5 3
1 -9.03004741668701172 4 194 195 191
1 -9 3.99915456771850586 99 89 86
1 -9 4.00023269653320312 158 156 151
1 -8.89926338195800781 -5 5 5 3
1 -8.99978733062744141 4 158 156 151
1.52260923385620117 -9 -5 5 5 3
1.96469283103942871 -9 3 99 89 86
2 -9.57264900207519531 3 227 230 211
2 -9 2.98485755920410156 126 106 98
1.00057315826416016 -9 4 158 156 151
2 -9 3.02420854568481445 22 21 18
2 -8.99112606048583984 3 22 21 18
2.05228018760681152 -9 3 22 21 18
3 2 1 0
3 1 4 3
3 0 1 3
3 4 5 3
3 8 7 6
3 7 9 6
3 2 0 10
3 0 3 11
3 10 0 11
3 3 5 11
3 8 6 12
3 6 9 12
3 15 14 13
3 14 16 13
3 19 18 17
3 18 20 17
3 23 22 21
3 22 24 21
3 25 26 15
3 25 15 2
3 13 1 15
3 1 2 15
3 25 27 16
3 25 16 26
3 27 4 16
3 13 16 1
3 4 1 16
3 4 27 5
3 7 8 28
3 19 17 29
3 28 9 7
3 17 20 29
3 23 21 30
3 21 24 30
3 25 2 10
3 27 25 10
3 11 27 10
3 27 11 5
3 28 8 12
3 28 12 9
3 33 32 31
3 32 35 34
3 31 32 34
3 35 37 36
3 34 35 36
3 37 39 38
3 36 37 38
3 39 41 40
3 38 39 40
3 41 43 42
3 40 41 42
3 43 44 42
3 47 46 45
3 46 48 45
3 49 50 33
3 49 33 15
3 31 14 33
3 14 15 33
3 31 34 16
3 31 16 14
3 34 51 16
3 49 16 50
3 51 50 16
3 34 36 52
3 51 34 52
3 36 38 53
3 52 36 53
3 38 40 54
3 53 38 54
3 56 54 19
3 56 19 55
3 54 40 19
3 18 19 42
3 40 42 19
3 18 42 44
3 18 44 20
3 56 55 44
3 55 20 44
3 59 58 57
3 58 60 57
3 61 62 47
3 61 47 23
3 45 22 47
3 22 23 47
3 22 45 48
3 22 48 24
3 62 61 48
3 61 24 48
3 49 15 26
3 49 26 16
3 55 19 29
3 55 29 20
3 59 57 63
3 57 60 63
3 61 23 30
3 61 30 24
3 66 65 64
3 65 68 67
3 64 65 67
3 68 70 69
3 67 68 69
3 70 72 71
3 69 70 71
3 72 73 71
3 76 75 74
3 75 78 77
3 74 75 77
3 33 77 78
3 33 78 32
3 80 79 78
3 79 32 78
3 35 32 66
3 35 66 64
3 32 79 66
3 82 66 81
3 79 81 66
3 82 81 84
3 84 81 83
3 35 64 67
3 35 67 37
3 84 83 86
3 86 83 85
3 37 67 69
3 37 69 39
3 86 85 88
3 88 85 87
3 39 69 71
3 39 71 41
3 87 89 73
3 87 73 88
3 89 43 73
3 71 73 41
3 43 41 73
3 90 44 43
3 90 43 91
3 89 92 43
3 92 91 43
3 91 93 90
3 96 95 94
3 76 94 95
3 76 47 94
3 76 74 47
3 46 47 74
3 98 99 97
3 74 77 48
3 74 48 46
3 77 100 48
3 97 48 98
3 100 98 48
3 79 80 100
3 79 100 50
3 77 33 100
3 33 50 100
3 81 79 50
3 51 81 50
3 83 81 51
3 52 83 51
3 85 83 52
3 53 85 52
3 87 85 53
3 54 87 53
3 89 87 54
3 56 89 54
3 44 90 101
3 44 101 56
3 92 89 101
3 89 56 101
3 90 93 101
3 59 102 58
3 58 102 60
3 96 94 103
3 97 99 103
3 97 103 62
3 94 47 103
3 47 62 103
3 97 62 48
3 102 59 63
3 102 63 60
3 106 105 104
3 105 108 107
3 104 105 107
3 66 107 108
3 66 108 65
3 65 108 109
3 111 110 68
3 111 68 109
3 109 68 65
3 70 68 110
3 112 70 110
3 112 114 113
3 112 113 70
3 70 113 72
3 115 73 72
3 115 72 116
3 116 72 113
3 116 117 115
3 76 119 118
3 75 76 118
3 122 120 121
3 118 106 78
3 118 78 75
3 78 106 104
3 104 107 80
3 104 80 78
3 107 123 80
3 120 80 121
3 123 121 80
3 107 66 82
3 107 82 123
3 123 82 124
3 110 111 124
3 110 124 84
3 84 124 82
3 112 110 84
3 86 112 84
3 114 112 86
3 114 86 125
3 125 86 88
3 73 115 126
3 73 126 88
3 88 126 125
3 115 117 126
3 92 127 91
3 128 93 91
3 128 91 129
3 127 130 91
3 130 129 91
3 129 131 128
3 95 96 132
3 98 133 132
3 98 132 99
3 133 119 132
3 95 132 76
3 119 76 132
3 120 122 133
3 120 133 100
3 100 133 98
3 120 100 80
3 127 92 101
3 93 128 134
3 93 134 101
3 130 127 134
3 127 101 134
3 128 131 134
3 132 96 103
3 132 103 99
3 106 136 135
3 105 106 135
3 138 137 108
3 138 108 135
3 135 108 105
3 109 108 137
3 139 109 137
3 109 139 111
3 113 114 140
3 116 113 140
3 141 116 140
3 142 117 116
3 142 116 143
3 141 144 116
3 144 143 116
3 143 145 142
3 148 147 146
3 119 146 147
3 119 147 118
3 150 149 147
3 149 118 147
3 121 151 149
3 121 149 122
3 151 136 149
3 118 149 106
3 136 106 149
3 137 138 151
3 137 151 123
3 123 151 121
3 139 137 123
3 124 139 123
3 139 124 111
3 140 114 125
3 141 140 125
3 126 141 125
3 117 142 152
3 117 152 126
3 144 141 152
3 141 126 152
3 142 145 152
3 130 153 129
3 154 131 129
3 154 129 155
3 153 156 129
3 156 155 129
3 155 157 154
3 148 146 158
3 149 150 158
3 149 158 133
3 146 119 158
3 119 133 158
3 149 133 122
3 153 130 134
3 131 154 159
3 131 159 134
3 156 153 159
3 153 134 159
3 154 157 159
3 162 161 160
3 136 160 161
3 136 161 135
3 164 163 161
3 163 135 161
3 135 163 138
3 143 144 165
3 166 145 143
3 166 143 167
3 165 168 143
3 168 167 143
3 167 169 166
3 147 148 170
3 162 160 171
3 170 150 147
3 163 164 171
3 163 171 151
3 160 136 171
3 136 151 171
3 163 151 138
3 165 144 152
3 145 166 172
3 145 172 152
3 168 165 172
3 165 152 172
3 166 169 172
3 156 173 155
3 155 173 157
3 170 148 158
3 170 158 150
3 173 156 159
3 173 159 157
3 162 175 174
3 161 162 174
3 161 174 176
3 164 161 176
3 168 178 177
3 167 168 177
3 167 177 179
3 169 167 179
3 175 162 171
3 180 175 171
3 180 171 164
3 176 180 164
3 178 168 172
3 181 178 172
3 181 172 169
3 179 181 169
3 175 183 182
3 174 175 182
3 174 182 184
3 176 174 184
3 178 186 185
3 177 178 185
3 177 185 187
3 179 177 187
3 183 175 180
3 188 183 180
3 188 180 176
3 184 188 176
3 186 178 181
3 189 186 181
3 189 181 179
3 187 189 179
3 183 191 190
3 182 183 190
3 182 190 192
3 184 182 192
3 186 194 193
3 185 186 193
3 185 193 195
3 187 185 195
3 191 183 188
3 196 191 188
3 196 188 184
3 192 196 184
3 194 186 189
3 197 194 189
3 197 189 187
3 195 197 187
3 190 191 198
3 190 198 192
3 201 200 199
3 194 199 200
3 194 200 193
3 203 202 200
3 202 193 200
3 193 202 195
3 198 191 196
3 198 196 192
3 201 199 204
3 202 203 204
3 202 204 197
3 199 194 204
3 194 197 204
3 202 197 195
3 200 201 205
3 200 205 203
3 205 201 204
3 205 204 203
