ply
format ascii 1.0
element vertex 514
property float x
property float y
property float z
property uchar red
property uchar green
property uchar blue
element face 1024
property list uchar int vertex_indices
end_header
-7.09045028686523438 6 -1 100 101 95
-7 5.8540949821472168 -1 6 6 4
-7 6 -1.81082546710968018 68 69 64
-7.06682586669921875 6 0 102 103 100
-7 5.89350223541259766 0 3 3 2
-7 6 0.395895779132843018 62 64 54
-7 6.11734342575073242 -1 60 61 53
-7 6.08614349365234375 0 62 64 54
-6.0584111213684082 5 -5 86 87 69
-6 4.94903707504272461 -5 19 19 17
-6 5 -5.07445192337036133 85 85 66
-6 5 -4.90584802627563477 41 41 40
-6 5.08800411224365234 -5 41 41 40
-6.17116928100585938 6 -4 97 97 86
-6 5.73556280136108398 -4 6 6 4
-6 6 -4.25024127960205078 91 91 82
-6.41302585601806641 6 -3 82 82 81
-6 5.80465126037597656 -3 42 43 28
-6.61251640319824219 6 -2 68 69 64
-6 5.97139930725097656 -2 64 66 35
-6.69813680648803711 6 -1 60 61 53
-6 6 -1.86246562004089355 8 8 6
-6.78231954574584961 6 0 62 64 54
-6.23162984848022461 6 2 91 93 84
-6 5.87963342666625977 2 29 31 16
-6 6 1.24262332916259766 15 16 9
-6 6 2.95145678520202637 40 43 29
-6 6.20783185958862305 -4 61 62 59
-6 6.56601572036743164 -3 30 31 25
-6.1558990478515625 7 -2 105 105 102
-6 7 -2.41711759567260742 92 93 85
-6.26694440841674805 7 -1 103 104 97
-6 6.45779895782470703 -1 1 1 1
-6.24638032913208008 7 0 105 106 97
-6 6.5088963508605957 0 0 0 0
-6.07705402374267578 7 1 109 111 100
-6 6.41283512115478516 1 15 16 9
-6 6.30950498580932617 2 40 43 29
-6 7 1.16959118843078613 84 87 67
-6 7.20484447479248047 -2 80 81 68
-6 7.32565212249755859 -1 73 74 58
-6 7.2990565299987793 0 74 77 58
-6 7.09955024719238281 1 84 87 67
-5.11317920684814453 5 -6 85 85 66
-5 4.91980409622192383 -6 14 14 13
-5 5 -6.09416389465332031 96 95 68
-5.93390369415283203 5 -5 41 41 40
-5 5 -5.89904880523681641 46 46 43
-5 5.13913488388061523 -6 46 46 43
-5.35034894943237305 6 -5 91 91 82
-5 5.71657085418701172 -5 14 14 11
-5 6 -5.36278247833251953 95 95 82
-5 5.92812967300415039 -4 64 64 38
-5.73165416717529297 6 -3 30 31 25
-5 6 -3.88625788688659668 11 11 8
-5.96831941604614258 6 -2 8 8 6
-5.84321689605712891 6 2 40 43 29
-5.08962059020996094 6 4 108 110 98
-5 5.92558908462524414 4 7 7 4
-5 6 3.59847402572631836 26 28 16
-5 6 4.08748912811279297 73 77 56
-5 6.35687446594238281 -5 56 56 53
-5.22801780700683594 7 -4 104 104 103
-5 7 -4.27883005142211914 105 105 101
-5.66590356826782227 7 -3 92 93 85
-5 6.64082145690917969 -3 25 26 15
-5 6.72677278518676758 -2 49 50 23
-5 6.75307655334472656 -1 58 60 23
-5 6.7591705322265625 0 55 58 21
-5 6.74100685119628906 1 40 42 16
-5.5122833251953125 7 2 100 103 83
-5 6.69652080535888672 2 12 13 6
-5.02531147003173828 7 3 116 118 100
-5 6.83686590194702148 3 26 28 16
-5 6.09121084213256836 4 73 77 56
-5 7 3.0283348560333252 94 98 71
-5 7.27357292175292969 -4 83 83 74
-5 7.57440567016601562 -3 57 57 44
-5 7.95388603210449219 -2 36 37 24
-5.18618869781494141 8 -1 111 112 92
-5 8 -1.86365234851837158 103 103 81
-5.14920186996459961 8 0 112 114 91
-5 7.79109525680541992 1 42 44 26
-5 8 0.493925601243972778 100 102 73
-5 7.45287895202636719 2 65 69 44
-5 7.02967357635498047 3 94 98 71
-5 8.937896728515625 -1 99 100 74
-5 8.92383003234863281 0 100 102 73
-4.83880186080932617 5 -6 46 46 43
-4.30993795394897461 6 -6 95 95 82
-4 5.65186691284179688 -6 3 3 2
-4 6 -6.22131109237670898 109 107 84
-4 5.90698719024658203 -5 60 59 37
-4.90829181671142578 6 -4 11 11 8
-4 6 -4.88240861892700195 15 15 12
-4.65314245223999023 6 4 73 77 56
-4 6.26557016372680664 -6 70 70 69
-4.30139636993408203 7 -5 105 105 101
-4 7 -5.26273250579833984 112 111 102
-4 6.68981313705444336 -4 34 34 20
-4 6.77701091766357422 -3 70 69 28
-4.18308210372924805 7 -2 36 37 24
-4 7 -2.21235966682434082 17 17 10
-4.53406810760498047 7 -1 26 27 16
-4.55726099014282227 7 0 28 30 17
-4.31972122192382812 7 1 42 44 26
-4 6.82762241363525391 2 57 58 16
-4 7 1.42237341403961182 0 0 0
-4 6.73273277282714844 3 16 17 7
-4 7 3.99099493026733398 64 67 39
-4 7.30717992782592773 -5 87 87 81
-4 7.76350545883178711 -4 51 51 39
-4.50763320922851562 8 -3 109 109 94
-4 8 -3.70746850967407227 109 108 95
-4.95448541641235352 8 -2 103 103 81
-4 7.18104028701782227 -2 6 6 3
-4 7.5222315788269043 -1 17 17 7
-4 7.53501462936401367 0 14 15 5
-4.79861640930175781 8 1 107 109 78
-4 7.30977249145507812 1 0 0 0
-4.33054161071777344 8 2 117 119 87
-4 7.53601980209350586 3 64 67 39
-4 8 2.40081310272216797 103 106 68
-4 8.97399234771728516 -3 95 95 73
-4 8.9803924560546875 -2 81 82 55
-4 8.97967910766601562 -1 74 75 46
-4 8.97996044158935547 0 75 77 46
-4 8.98011207580566406 1 86 88 53
-4 8.96333599090576172 2 103 106 68
-3.64615058898925781 5 -7 71 71 58
-3 4.91294145584106445 -7 16 16 15
-3 5 -7.11909627914428711 106 101 68
-3 5 -6.9140620231628418 45 45 42
-3 5.27564239501953125 -7 45 45 42
-3 5.76521968841552734 -6 29 29 22
-3 6 -6.55393505096435547 99 97 82
-3.84456467628479004 6 -5 15 15 12
-3 6 -5.6728668212890625 45 45 41
-3.58957386016845703 6 5 92 95 72
-3 5.93173027038574219 5 2 2 1
-3 6 4.91167736053466797 5 5 2
-3 6 5.1219635009765625 68 71 46
-3 6.7348175048828125 -6 45 45 41
-3 6.61747169494628906 -5 17 16 11
-3 7 -5.77929306030273438 104 104 101
-3 6.76828813552856445 -4 66 64 29
-3.52300214767456055 7 -3 17 17 10
-3 7 -3.51174259185791016 21 21 13
-3.67568564414978027 7 2 27 29 14
-3 6.8393244743347168 3 49 48 13
-3 7 2.69336891174316406 3 3 1
-3.99009251594543457 7 4 102 106 76
-3 6.71948623657226562 4 5 5 2
-3 6.16685009002685547 5 68 71 46
-3 7 4.44627237319946289 83 87 53
-3 7.6290278434753418 -5 66 66 55
-3.71764326095581055 8 -4 109 108 95
-3 8 -4.5723118782043457 117 116 108
-3 7.49278163909912109 -3 15 15 7
-3 7.73935413360595703 -2 39 39 13
-3 7.75514316558837891 -1 50 49 13
-3 7.74989509582519531 0 47 47 12
-3 7.72615337371826172 1 32 32 8
-3 7.55877351760864258 2 3 3 1
-3.37842679023742676 8 3 121 123 86
-3 7.41066074371337891 4 83 87 53
-3 8 3.2879486083984375 111 114 72
-3 8.97522163391113281 -4 99 98 80
-3 8.97884368896484375 -3 77 77 52
-3 8.97471904754638672 -2 58 59 33
-3 8.97619819641113281 -1 48 49 25
-3 8.97710132598876953 0 50 52 25
-3 8.97759628295898438 1 63 66 32
-3 8.98029994964599609 2 85 88 49
-3 8.95986175537109375 3 111 114 72
-2.57774829864501953 5 -7 45 45 42
-2.30556869506835938 6 -7 99 97 82
-2 5.54196977615356445 -7 27 27 27
-2 6 -7.11074113845825195 125 117 82
-2 5.88452768325805664 -6 49 47 33
-2 6 -5.87071371078491211 27 27 23
-2.65501308441162109 6 5 68 71 46
-2 6.14474821090698242 -7 90 89 78
-2.66944169998168945 7 -6 104 104 101
-2 7 -6.25875616073608398 124 120 103
-2 6.71678400039672852 -5 36 35 21
-2.06068921089172363 7 -4 21 21 13
-2 7 -4.05253505706787109 51 50 39
-2.50965714454650879 7 3 37 39 18
-2 6.75907611846923828 4 14 13 5
-2 7 3.39914989471435547 19 19 7
-2 7 4.93068552017211914 70 72 39
-2 7.34009408950805664 -6 97 97 96
-2.19879913330078125 8 -5 117 116 108
-2 8 -5.11620712280273438 126 125 124
-2 7.05289506912231445 -4 2 2 1
-2 7.74581623077392578 -3 35 34 13
-2 7.75222063064575195 -2 58 55 15
-2 7.73519229888916016 -1 67 64 13
-2 7.73539876937866211 0 65 62 11
-2 7.74156713485717773 1 51 48 9
-2 7.72342824935913086 2 22 22 5
-2 7.37586879730224609 3 19 19 7
-2 7.66648054122924805 4 70 72 39
-2 8 3.68792176246643066 103 105 60
-2 8.87948703765869141 -5 114 113 103
-2 8.98024272918701172 -4 90 88 67
-2 8.97324848175048828 -3 63 62 38
-2 8.97770977020263672 -2 42 42 20
-2 8.98027133941650391 -1 31 32 13
-2 8.98036766052246094 0 33 34 13
-2 8.9793853759765625 1 48 49 20
-2 8.97821903228759766 2 72 74 36
-2 8.97963237762451172 3 103 105 60
-1 5.6002044677734375 -7 21 21 21
-1 6 -7.22156143188476562 127 118 83
-1.24108231067657471 6 -6 27 27 23
-1 6 -6.16930532455444336 87 86 77
-1 6.29448032379150391 -7 87 86 77
-1 6.12425804138183594 -6 21 20 17
-1 7 -6.37482595443725586 127 122 105
-1 6.73344850540161133 -5 43 40 23
-1 7 -4.44647121429443359 45 44 33
-1 6.78755760192871094 4 20 19 6
-1 7 3.62994194030761719 13 12 4
-1.84112942218780518 7 5 118 120 85
-1 6.73402023315429688 5 48 47 25
-1 7 5.14210176467895508 118 118 81
-1 7.4579768180847168 -6 95 95 93
-1 8 -5.34470319747924805 130 129 128
-1 7.47072696685791016 -4 4 4 2
-1 7.76954793930053711 -3 41 38 14
-1 7.73580026626586914 -2 63 58 14
-1 7.746917724609375 -1 72 66 11
-1 7.75260591506958008 0 70 63 9
-1 7.73615074157714844 1 56 51 8
-1 7.74224042892456055 2 29 27 6
-1 7.56827306747436523 3 13 12 4
-1.0240013599395752 8 4 131 132 89
-1 7.17190742492675781 5 118 118 81
-1 8 4.00643730163574219 132 131 87
-1 8.96320152282714844 -5 115 113 102
-1 8.97823524475097656 -4 87 85 63
-1 8.97354602813720703 -3 58 57 33
-1 8.98007106781005859 -2 36 35 16
-1 8.97919750213623047 -1 25 25 9
-1 8.97868728637695312 0 28 28 10
-1 8.9803924560546875 1 43 43 16
-1 8.97839069366455078 2 69 70 31
-1 8.98036956787109375 3 102 102 56
-1 8.34920597076416016 4 132 131 87
0 5.59570455551147461 -7 28 28 28
0 6 -7.22211647033691406 132 121 82
0 6 -6.15338802337646484 93 92 80
0 6.29498767852783203 -7 93 92 80
0 6.11229467391967773 -6 27 27 23
0 7 -6.37471485137939453 132 126 106
0 6.73299217224121094 -5 36 34 20
0 7 -4.44166851043701172 52 51 39
0 6.78650808334350586 4 13 12 4
0 7 3.62682199478149414 20 18 7
0 6.73035812377929688 5 55 52 29
0 7 5.14310741424560547 123 121 86
0 7.45758199691772461 -6 101 101 100
0 8 -5.34372234344482422 135 134 130
0 7.46648025512695312 -4 2 2 1
0 7.77031469345092773 -3 34 31 12
0 7.73598575592041016 -2 57 50 13
0 7.74614381790161133 -1 66 58 11
0 7.75175714492797852 0 63 55 9
0 7.73603200912475586 1 49 43 8
0 7.74254512786865234 2 22 19 5
0 7.5664520263671875 3 20 18 7
0 7.17310714721679688 5 123 121 86
0 8 4.00738048553466797 137 134 92
0 8.96313667297363281 -5 120 118 108
0 8.97820758819580078 -4 93 91 68
0 8.97337532043457031 -3 64 63 37
0 8.98003578186035156 -2 43 41 20
0 8.97926902770996094 -1 32 31 12
0 8.97877120971679688 0 35 33 12
0 8.9803924560546875 1 50 49 19
0 8.97832870483398438 2 76 75 35
0 8.98036670684814453 3 108 107 60
0 8.38101768493652344 4 137 134 92
1 5.50949668884277344 -7 48 47 44
1 6 -7.11223983764648438 140 125 80
0.208318978548049927 6 -6 27 27 23
1 5.87650918960571289 -6 28 27 21
1 6 -5.86129951477050781 47 47 43
1 6.1463932991027832 -7 107 104 86
1 7 -6.25843906402587891 139 131 106
1 6.71560955047607422 -5 16 15 10
1 7 -4.01478242874145508 70 69 57
1 6.75670909881591797 4 6 5 2
1 7 3.38320302963256836 40 37 16
0.85780632495880127 7 5 123 121 86
1 7 4.9387669563293457 91 87 52
1 7.33905220031738281 -6 114 113 108
1 8 -5.11202144622802734 141 138 131
1 7.01488208770751953 -4 22 21 13
1 7.7465815544128418 -3 14 13 6
1 7.75412750244140625 -2 38 33 11
1 7.73541879653930664 -1 48 41 10
1 7.7353205680847168 0 45 38 9
1 7.74248218536376953 1 30 26 6
1 7.72358989715576172 2 2 1 0
1 7.36208820343017578 3 40 37 16
0.0276877656579017639 8 4 137 134 92
1 7.67079496383666992 4 91 87 52
1 8 3.69042754173278809 122 118 74
1 8.87573719024658203 -5 130 129 123
1 8.98023223876953125 -4 107 105 85
1 8.97282695770263672 -3 82 79 52
1 8.97740268707275391 -2 62 59 32
1 8.98020553588867188 -1 52 49 23
1 8.98033618927001953 0 54 52 23
1 8.97923374176025391 1 69 66 30
1 8.97805118560791016 2 93 90 47
1 8.97967910766601562 3 122 118 74
1.51447558403015137 5 -7 48 47 44
2 4.89988231658935547 -7 18 18 16
2 5 -7.13461446762084961 133 119 64
2 5 -6.90122604370117188 78 76 62
1.30859649181365967 6 -7 107 104 86
2 5.30436086654663086 -7 78 76 62
2 5.75818252563476562 -6 4 4 4
2 6 -6.56009960174560547 127 120 88
2 6 -5.65801334381103516 77 77 75
1.60293209552764893 6 5 73 70 44
2 5.92141008377075195 5 32 29 18
2 6 4.89751052856445312 40 35 20
2 6 5.13935232162475586 102 97 73
1.6651909351348877 7 -6 114 113 108
2 6.73608016967773438 -6 77 77 75
2 6.60786628723144531 -5 17 16 13
2 7 -5.77587604522705078 132 128 113
1.01669669151306152 7 -4 22 21 13
2 6.76262092590332031 -4 32 29 17
2 7 -3.48425698280334473 55 53 39
1.48111701011657715 7 3 40 37 16
2 6.8312220573425293 3 15 12 5
2 7 2.67181110382080078 31 28 12
2 6.71312713623046875 4 40 35 20
2 6.1895594596862793 5 102 97 73
2 7 4.45174217224121094 116 111 79
1.19007456302642822 8 -5 130 129 123
2 7.62445306777954102 -5 97 96 90
2 8 -4.56683349609375 142 142 141
2 7.47379779815673828 -3 18 17 10
2 7.74035310745239258 -2 5 4 2
2 7.75792264938354492 -1 16 13 5
2 7.75221443176269531 0 13 11 4
2 7.72659492492675781 1 2 2 0
2 7.54880094528198242 2 31 28 12
2 7.41515922546386719 4 116 111 79
2 8 3.29208827018737793 140 134 97
2 8.97518348693847656 -4 127 124 111
2 8.97872543334960938 -3 107 103 78
2 8.97413539886474609 -2 90 87 56
2 8.97562599182128906 -1 82 78 45
2 8.97663402557373047 0 84 80 44
2 8.97726058959960938 1 97 92 53
2 8.98026466369628906 2 117 112 71
2 8.96048164367675781 3 140 134 97
2.71659731864929199 5 -7 78 76 62
3 5.62244319915771484 -6 51 51 48
3 6 -6.22562074661254883 146 131 84
2.80856561660766602 6 -5 17 16 13
3 5.8870396614074707 -5 12 11 9
3 6 -4.85513544082641602 63 62 58
2.67565512657165527 6 5 102 97 73
3 6.2695612907409668 -6 113 109 92
3 7 -5.26171016693115234 148 139 112
3 6.68394947052001953 -4 13 12 9
2.49145960807800293 7 -3 18 17 10
3 6.76844930648803711 -3 23 20 11
3 7 -2.13164663314819336 64 61 45
2.65040802955627441 7 2 31 28 12
3 6.81689786911010742 2 10 8 4
3 7 1.35827398300170898 49 44 24
3 6.72691488265991211 3 31 27 15
3 6.9657893180847168 4 84 78 57
3 7 4.00457191467285156 143 138 117
3 7.30511474609375 -5 127 126 119
2.70788168907165527 8 -4 127 124 111
3 7.75505876541137695 -4 96 94 83
3 8 -3.69757366180419922 146 145 142
3 7.11503076553344727 -2 41 38 23
3 7.50174808502197266 -1 30 27 15
3 7.51716375350952148 0 33 30 15
3 7.26838588714599609 1 49 44 24
2.38446521759033203 8 3 140 134 97
3 7.54234933853149414 3 110 104 76
3 8 2.4073641300201416 143 136 105
3 7.00545406341552734 4 143 138 117
3 8.97396087646484375 -3 134 130 115
3 8.98038959503173828 -2 123 118 93
3 8.97955989837646484 -1 117 112 81
3 8.97986316680908203 0 119 113 80
3 8.98016643524169922 1 128 122 88
3 8.96396064758300781 2 143 136 105
3.78700828552246094 5 -6 51 51 48
4 4.8963322639465332 -6 48 46 39
4 5 -6.11687564849853516 145 127 64
4 5 -5.86723804473876953 103 98 74
3.31461358070373535 6 -6 113 109 92
4 5.16999101638793945 -6 103 98 74
4 5.69492578506469727 -5 47 47 47
4 6 -5.37000799179077148 144 132 92
3.87233304977416992 6 -4 13 12 9
4 5.90112781524658203 -4 2 2 1
4 6 -3.83871054649353027 72 71 66
3.54946565628051758 6 4 84 78 57
4 5.90710830688476562 4 69 64 52
4 6 3.45013713836669922 88 82 64
4 6 4.10670566558837891 130 126 115
3.29921483993530273 7 -5 127 126 119
4 6.36254501342773438 -5 112 109 97
4 7 -4.27746248245239258 151 144 119
4 6.62522077560424805 -3 36 34 26
3.1155693531036377 7 -2 41 38 23
4 6.72198152542114258 -2 12 11 7
3.50524997711181641 7 -1 30 27 15
4 6.74649238586425781 -1 1 1 1
3.53046011924743652 7 0 33 30 15
4 6.75210952758789062 0 4 3 2
3.27438521385192871 7 1 49 44 24
4 6.73526239395141602 1 20 17 10
4 6.68476963043212891 2 49 44 29
4 6.709320068359375 3 88 82 64
3.00536561012268066 7 4 143 138 117
4 6.11100959777832031 4 130 126 115
4 7 3.0402071475982666 147 142 128
4 7.27196407318115234 -4 134 133 127
3.50115251541137695 8 -3 134 130 115
4 7.56997537612915039 -3 113 111 102
3.94668054580688477 8 -2 123 118 93
4 7.94641304016113281 -2 96 92 75
4 8 -1.84277808666229248 150 147 137
3.80267453193664551 8 1 128 122 88
4 7.79782485961914062 1 102 97 73
4 8 0.503651559352874756 149 144 124
3.33565902709960938 8 2 143 136 105
4 7.45909595489501953 2 123 118 96
4 7.04204940795898438 3 147 142 128
4 8.93786430358886719 -1 148 143 126
4 8.92496871948242188 0 149 144 124
4.13991260528564453 5 -6 103 98 74
4.89509201049804688 5 -5 47 47 47
5 4.91993379592895508 -5 57 55 47
5 5 -5.11075019836425781 146 128 71
5 5 -4.84488296508789062 111 105 80
4.35716819763183594 6 -5 112 109 97
5 5.12917566299438477 -5 111 105 80
5 5.69602870941162109 -4 69 69 66
5 6 -4.26082086563110352 151 138 97
4.70179080963134766 6 -3 36 34 26
5 5.78732585906982422 -3 33 32 29
4.92878818511962891 6 -2 12 11 7
5 5.93612051010131836 -2 9 9 7
5 6 -1.6726527214050293 83 81 73
4.81554508209228516 6 2 49 44 29
5 5.86017084121704102 2 46 42 34
5 6 1.03475534915924072 90 86 73
4.87896966934204102 6 3 88 82 64
5 5.98421907424926758 3 86 83 75
4.10944700241088867 6 4 130 126 115
5 6 3.01366400718688965 141 141 140
4.22715473175048828 7 -4 134 133 127
5 6.21657657623291016 -4 128 123 106
4.66317176818847656 7 -3 113 111 102
5 6.58258390426635742 -3 103 103 102
5 7 -2.4191281795501709 152 147 134
5 6.38323068618774414 -1 73 70 59
5 6.44330883026123047 0 76 72 59
5 6.07625246047973633 1 90 86 73
4.52170562744140625 7 2 123 118 96
5 6.34891843795776367 2 113 110 101
5 7 1.18947041034698486 148 146 141
4.03592920303344727 7 3 147 142 128
5 6.01236772537231445 3 141 141 140
5 7.2073664665222168 -2 143 142 140
4.18485784530639648 8 -1 148 143 126
5 7.32975578308105469 -1 138 137 132
4.15084743499755859 8 0 149 144 124
5 7.30554771423339844 0 140 138 131
5 7.11062908172607422 1 148 146 141
5.08740139007568359 5 -5 111 105 80
5.9811396598815918 5 -3 33 32 29
6 4.98105764389038086 -3 56 55 51
6 5 -3.13894248008728027 136 124 87
6 5 -2.92323541641235352 112 106 90
5.17938899993896484 6 -4 128 123 106
5.43389320373535156 6 -3 103 103 102
6 5.05172157287597656 -3 112 106 90
5.87937736511230469 6 -2 83 81 73
5.59774541854858398 6 -1 73 70 59
6 5.81669521331787109 -1 83 83 83
6 6 -1.90975713729858398 144 137 117
5.69405317306518555 6 0 76 72 59
6 5.85790586471557617 0 85 85 84
6 6 0.492181658744812012 141 137 126
5.26493120193481445 6 2 113 110 101
5.01050901412963867 6 3 141 141 140
5.15847396850585938 7 -2 143 142 140
5.27120780944824219 7 -1 138 137 132
6 6.13465166091918945 -1 139 135 122
5.25244998931884766 7 0 140 138 131
6 6.10598087310791016 0 141 137 126
5.08585023880004883 7 1 148 146 141
6.02388095855712891 5 -3 112 106 90
6.10448837280273438 6 -1 139 135 122
6.08268070220947266 6 0 141 137 126
3 2 1 0
3 1 4 3
3 0 1 3
3 4 5 3
3 2 0 6
3 0 3 7
3 6 0 7
3 3 5 7
3 10 9 8
3 9 11 8
3 10 8 12
3 15 12 8
3 15 8 13
3 11 14 8
3 14 13 8
3 14 17 16
3 13 14 16
3 17 19 18
3 16 17 18
3 2 18 19
3 2 19 1
3 21 20 19
3 20 1 19
3 4 1 20
3 22 4 20
3 4 22 5
3 25 24 23
3 24 26 23
3 15 13 27
3 13 16 28
3 27 13 28
3 30 28 16
3 30 16 29
3 29 16 18
3 21 32 20
3 18 2 31
3 18 31 29
3 31 2 6
3 6 33 31
3 6 7 33
3 32 34 20
3 34 22 20
3 34 36 5
3 34 5 22
3 36 35 5
3 7 5 33
3 35 33 5
3 37 38 35
3 37 35 23
3 36 25 35
3 25 23 35
3 23 26 37
3 30 29 39
3 29 31 40
3 39 29 40
3 31 33 41
3 40 31 41
3 33 35 42
3 41 33 42
3 35 38 42
3 45 44 43
3 10 43 44
3 10 44 9
3 47 46 44
3 46 9 44
3 9 46 11
3 45 43 48
3 48 49 51
3 48 12 49
3 48 43 12
3 10 12 43
3 47 50 46
3 49 12 15
3 46 50 11
3 50 14 11
3 50 52 14
3 54 53 17
3 54 17 52
3 52 17 14
3 19 17 53
3 55 19 53
3 19 55 21
3 24 25 56
3 24 56 26
3 59 58 57
3 58 60 57
3 51 49 61
3 63 27 62
3 61 27 63
3 61 15 27
3 61 49 15
3 28 62 27
3 28 64 62
3 65 53 54
3 53 66 55
3 53 65 66
3 64 28 30
3 55 32 21
3 55 66 32
3 66 67 32
3 67 68 32
3 32 68 34
3 68 69 34
3 34 69 36
3 38 37 70
3 25 36 56
3 36 71 56
3 36 69 71
3 71 73 26
3 71 26 56
3 73 72 26
3 37 26 70
3 72 70 26
3 74 75 72
3 74 72 57
3 73 59 72
3 59 57 72
3 57 60 74
3 63 62 76
3 62 64 77
3 76 62 77
3 64 30 39
3 64 39 77
3 77 39 78
3 80 40 79
3 80 78 40
3 78 39 40
3 41 79 40
3 81 79 41
3 81 82 83
3 81 41 82
3 41 42 82
3 38 70 84
3 38 84 42
3 42 84 82
3 70 72 85
3 84 70 85
3 72 75 85
3 80 79 86
3 79 81 87
3 86 79 87
3 81 83 87
3 44 45 88
3 44 88 47
3 48 89 91
3 48 91 45
3 90 88 91
3 88 45 91
3 89 48 51
3 88 90 47
3 90 50 47
3 90 92 50
3 94 93 52
3 94 52 92
3 92 52 50
3 52 93 54
3 58 59 95
3 58 95 60
3 91 89 96
3 98 61 97
3 96 61 98
3 96 51 61
3 96 89 51
3 94 99 93
3 97 61 63
3 93 65 54
3 93 99 65
3 99 100 65
3 102 101 66
3 102 66 100
3 100 66 65
3 67 66 101
3 103 67 101
3 68 67 103
3 104 68 103
3 69 68 104
3 105 69 104
3 105 107 106
3 105 106 69
3 69 106 71
3 106 108 71
3 71 108 73
3 73 108 95
3 73 95 59
3 108 109 95
3 74 95 75
3 109 75 95
3 95 74 60
3 98 97 110
3 97 63 76
3 97 76 110
3 110 76 111
3 113 77 112
3 113 111 77
3 111 76 77
3 78 112 77
3 78 114 112
3 115 101 102
3 101 116 103
3 101 115 116
3 114 78 80
3 103 117 104
3 116 117 103
3 119 104 117
3 119 105 104
3 82 118 83
3 118 84 120
3 118 82 84
3 105 119 107
3 120 121 122
3 120 84 121
3 84 85 121
3 121 85 75
3 109 121 75
3 113 112 123
3 112 114 124
3 123 112 124
3 114 80 86
3 114 86 124
3 124 86 125
3 125 86 126
3 86 87 126
3 83 118 127
3 83 127 87
3 87 127 126
3 118 120 128
3 127 118 128
3 120 122 128
3 131 130 129
3 130 132 129
3 131 129 133
3 134 90 129
3 134 129 132
3 90 91 129
3 133 129 135
3 91 135 129
3 137 136 92
3 137 92 134
3 134 92 90
3 92 136 94
3 140 139 138
3 139 141 138
3 135 91 96
3 142 135 96
3 144 96 98
3 144 142 96
3 137 143 136
3 136 99 94
3 136 143 99
3 143 145 99
3 147 146 100
3 147 100 145
3 145 100 99
3 100 146 102
3 106 107 148
3 148 150 149
3 148 149 106
3 106 149 108
3 151 109 108
3 151 108 152
3 152 108 149
3 153 154 151
3 153 151 138
3 152 140 151
3 140 138 151
3 138 141 153
3 144 98 110
3 155 144 110
3 157 111 156
3 157 155 111
3 155 110 111
3 147 158 146
3 156 111 113
3 146 115 102
3 146 158 115
3 158 159 115
3 159 160 115
3 115 160 116
3 160 161 116
3 116 161 117
3 161 162 117
3 117 162 119
3 107 163 148
3 107 119 163
3 119 162 163
3 148 163 150
3 122 121 164
3 164 165 166
3 121 165 164
3 121 151 165
3 121 109 151
3 151 154 165
3 157 156 167
3 156 113 123
3 156 123 167
3 167 123 168
3 168 123 169
3 123 124 169
3 169 124 170
3 124 125 170
3 170 125 171
3 125 126 171
3 171 126 172
3 126 127 172
3 172 127 173
3 127 128 173
3 122 164 174
3 122 174 128
3 128 174 173
3 164 166 174
3 130 131 175
3 130 175 132
3 133 176 178
3 133 178 131
3 177 175 178
3 175 131 178
3 176 133 135
3 175 177 132
3 177 134 132
3 177 179 134
3 134 179 180
3 137 134 180
3 139 140 181
3 139 181 141
3 178 176 182
3 184 142 183
3 182 142 184
3 182 135 142
3 182 176 135
3 143 180 185
3 143 137 180
3 142 144 183
3 187 186 145
3 187 145 185
3 185 145 143
3 145 186 147
3 149 150 188
3 188 190 189
3 188 189 149
3 149 189 152
3 152 189 181
3 152 181 140
3 189 191 181
3 153 181 154
3 191 154 181
3 181 153 141
3 184 183 192
3 194 155 193
3 192 155 194
3 192 144 155
3 192 183 144
3 187 195 186
3 193 155 157
3 186 158 147
3 186 195 158
3 195 196 158
3 196 197 158
3 158 197 159
3 197 198 159
3 159 198 160
3 198 199 160
3 160 199 161
3 199 200 161
3 161 200 162
3 200 201 162
3 162 201 163
3 150 202 188
3 150 163 202
3 163 201 202
3 203 166 165
3 203 204 166
3 202 190 188
3 203 165 154
3 191 203 154
3 194 193 205
3 193 157 167
3 193 167 205
3 205 167 206
3 206 167 207
3 167 168 207
3 207 168 208
3 168 169 208
3 208 169 209
3 169 170 209
3 209 170 210
3 170 171 210
3 210 171 211
3 171 172 211
3 211 172 212
3 172 173 212
3 212 173 213
3 173 174 213
3 213 174 166
3 204 213 166
3 178 215 214
3 177 178 214
3 217 216 179
3 217 179 214
3 214 179 177
3 179 216 180
3 215 178 182
3 218 215 182
3 220 182 184
3 220 218 182
3 217 219 216
3 216 185 180
3 216 219 185
3 219 221 185
3 185 221 222
3 187 185 222
3 190 224 223
3 189 190 223
3 225 191 189
3 225 189 226
3 226 189 223
3 226 227 225
3 220 184 192
3 228 220 192
3 192 229 228
3 194 229 192
3 222 195 187
3 230 195 222
3 230 231 195
3 195 231 196
3 231 232 196
3 196 232 197
3 232 233 197
3 197 233 198
3 233 234 198
3 198 234 199
3 234 235 199
3 199 235 200
3 235 236 200
3 200 236 201
3 236 237 201
3 201 237 202
3 190 237 224
3 190 202 237
3 204 203 238
3 238 239 240
3 203 239 238
3 203 225 239
3 203 191 225
3 225 227 239
3 229 194 205
3 241 229 205
3 241 205 242
3 205 206 242
3 242 206 243
3 206 207 243
3 243 207 244
3 207 208 244
3 244 208 245
3 208 209 245
3 245 209 246
3 209 210 246
3 246 210 247
3 210 211 247
3 247 211 248
3 211 212 248
3 248 212 249
3 212 213 249
3 204 238 250
3 204 250 213
3 213 250 249
3 238 240 250
3 215 252 251
3 214 215 251
3 214 251 253
3 217 214 253
3 252 215 218
3 254 252 218
3 253 255 217
3 217 255 219
3 256 254 218
3 256 218 220
3 255 257 219
3 219 257 221
3 221 257 258
3 222 221 258
3 224 260 259
3 223 224 259
3 259 261 223
3 223 261 226
3 226 261 262
3 227 226 262
3 256 220 228
3 263 256 228
3 228 264 263
3 229 264 228
3 258 230 222
3 265 230 258
3 265 266 230
3 230 266 231
3 266 267 231
3 231 267 232
3 267 268 232
3 232 268 233
3 268 269 233
3 233 269 234
3 269 270 234
3 234 270 235
3 270 271 235
3 235 271 236
3 271 272 236
3 236 272 237
3 272 224 237
3 260 224 272
3 240 273 274
3 239 273 240
3 273 239 227
3 262 273 227
3 264 229 241
3 275 264 241
3 275 241 276
3 241 242 276
3 276 242 277
3 242 243 277
3 277 243 278
3 243 244 278
3 278 244 279
3 244 245 279
3 279 245 280
3 245 246 280
3 280 246 281
3 246 247 281
3 281 247 282
3 247 248 282
3 282 248 283
3 248 249 283
3 283 249 284
3 249 250 284
3 284 250 240
3 274 284 240
3 252 286 285
3 251 252 285
3 287 253 251
3 287 251 288
3 288 251 285
3 288 289 287
3 286 252 254
3 290 286 254
3 254 291 290
3 254 256 291
3 255 253 287
3 289 255 287
3 289 292 255
3 292 257 255
3 257 292 293
3 258 257 293
3 260 295 294
3 259 260 294
3 297 296 261
3 297 261 294
3 294 261 259
3 261 296 262
3 291 256 263
3 298 291 263
3 263 299 298
3 264 299 263
3 293 265 258
3 300 265 293
3 300 301 265
3 265 301 266
3 301 302 266
3 266 302 267
3 302 303 267
3 267 303 268
3 303 304 268
3 268 304 269
3 304 305 269
3 269 305 270
3 305 306 270
3 270 306 271
3 306 307 271
3 271 307 272
3 307 260 272
3 307 295 260
3 309 310 308
3 296 274 273
3 297 274 296
3 297 308 274
3 297 309 308
3 296 273 262
3 299 264 275
3 311 299 275
3 311 275 312
3 275 276 312
3 312 276 313
3 276 277 313
3 313 277 314
3 277 278 314
3 314 278 315
3 278 279 315
3 315 279 316
3 279 280 316
3 316 280 317
3 280 281 317
3 317 281 318
3 281 282 318
3 318 282 319
3 282 283 319
3 308 310 319
3 308 319 284
3 284 319 283
3 308 284 274
3 322 321 320
3 321 323 320
3 324 325 322
3 324 322 286
3 320 285 322
3 285 286 322
3 327 325 324
3 323 326 320
3 326 285 320
3 326 288 285
3 288 326 328
3 289 288 328
3 331 330 329
3 330 332 329
3 324 286 290
3 290 291 333
3 324 290 333
3 324 333 334
3 324 334 327
3 328 292 289
3 328 335 292
3 336 334 333
3 337 293 292
3 337 292 338
3 338 292 335
3 338 339 337
3 342 341 340
3 295 340 341
3 295 341 294
3 294 341 343
3 345 297 329
3 345 329 344
3 297 294 329
3 331 329 343
3 294 343 329
3 329 332 344
3 333 291 298
3 298 299 346
3 333 298 346
3 333 346 347
3 333 347 336
3 347 346 348
3 293 337 300
3 339 300 337
3 339 349 300
3 349 301 300
3 349 350 301
3 301 350 302
3 350 351 302
3 302 351 303
3 351 352 303
3 303 352 304
3 352 353 304
3 304 353 305
3 353 354 305
3 305 354 306
3 340 354 342
3 340 307 354
3 307 306 354
3 310 355 356
3 310 309 355
3 295 307 340
3 355 309 297
3 345 355 297
3 346 299 311
3 348 346 311
3 348 311 357
3 357 311 312
3 357 312 358
3 312 313 358
3 358 313 359
3 313 314 359
3 359 314 360
3 314 315 360
3 360 315 361
3 315 316 361
3 361 316 362
3 316 317 362
3 362 317 363
3 317 318 363
3 363 318 364
3 318 319 364
3 364 319 310
3 356 364 310
3 321 322 365
3 321 365 323
3 365 322 325
3 327 367 365
3 327 365 325
3 367 366 365
3 323 365 326
3 366 326 365
3 368 328 326
3 368 326 369
3 369 326 366
3 369 370 368
3 330 331 371
3 330 371 332
3 367 327 334
3 372 367 334
3 334 373 372
3 334 336 373
3 335 328 368
3 370 335 368
3 370 374 335
3 374 338 335
3 375 339 338
3 375 338 376
3 376 338 374
3 376 377 375
3 380 379 378
3 342 378 379
3 342 379 341
3 341 379 381
3 381 382 341
3 341 382 343
3 343 382 371
3 343 371 331
3 382 383 371
3 344 371 345
3 383 345 371
3 371 344 332
3 373 336 347
3 384 373 347
3 385 347 348
3 385 386 347
3 386 384 347
3 386 385 387
3 339 375 349
3 377 349 375
3 377 388 349
3 388 350 349
3 388 389 350
3 350 389 351
3 389 390 351
3 351 390 352
3 390 391 352
3 352 391 353
3 378 391 380
3 378 354 391
3 354 353 391
3 378 342 354
3 393 394 392
3 356 393 392
3 356 355 393
3 355 395 393
3 395 355 345
3 383 395 345
3 385 348 357
3 387 385 357
3 387 357 396
3 396 357 358
3 396 358 397
3 358 359 397
3 397 359 398
3 359 360 398
3 398 360 399
3 360 361 399
3 399 361 400
3 361 362 400
3 400 362 401
3 362 363 401
3 392 394 401
3 392 401 364
3 364 401 363
3 392 364 356
3 404 403 402
3 403 405 402
3 406 407 404
3 406 404 367
3 402 366 404
3 366 367 404
3 409 407 406
3 405 408 402
3 408 366 402
3 408 369 366
3 410 370 369
3 410 369 411
3 411 369 408
3 411 412 410
3 415 414 413
3 414 416 413
3 406 367 372
3 372 373 417
3 406 372 417
3 406 417 418
3 406 418 409
3 418 417 419
3 370 410 374
3 412 374 410
3 412 420 374
3 420 376 374
3 421 377 376
3 421 376 422
3 422 376 420
3 422 424 423
3 421 422 423
3 424 426 425
3 423 424 425
3 426 428 427
3 425 426 427
3 380 427 428
3 380 428 379
3 379 428 429
3 429 430 379
3 379 430 381
3 433 431 432
3 430 415 382
3 430 382 381
3 382 415 413
3 382 413 416
3 382 416 383
3 432 431 416
3 431 383 416
3 417 373 384
3 419 417 384
3 419 384 434
3 434 384 386
3 435 386 387
3 435 436 386
3 436 434 386
3 437 436 435
3 437 438 436
3 421 388 377
3 388 423 389
3 388 421 423
3 438 437 439
3 425 389 423
3 390 389 425
3 427 390 425
3 427 391 390
3 440 441 442
3 441 443 444
3 441 440 443
3 391 427 380
3 394 444 443
3 394 393 444
3 393 445 444
3 431 433 445
3 431 445 395
3 395 445 393
3 431 395 383
3 435 387 396
3 437 435 396
3 397 437 396
3 439 437 397
3 439 397 446
3 446 397 398
3 446 398 447
3 398 399 447
3 440 442 447
3 440 447 400
3 400 447 399
3 443 440 400
3 401 443 400
3 443 401 394
3 403 404 448
3 449 405 403
3 449 403 450
3 448 451 403
3 451 450 403
3 450 452 449
3 448 404 407
3 448 454 451
3 448 453 454
3 448 407 453
3 409 453 407
3 405 449 408
3 456 454 453
3 452 455 449
3 455 408 449
3 455 411 408
3 457 412 411
3 457 411 458
3 458 411 455
3 458 460 459
3 457 458 459
3 460 461 459
3 464 463 462
3 463 466 465
3 462 463 465
3 415 465 466
3 415 466 414
3 468 467 466
3 467 414 466
3 414 467 416
3 453 409 418
3 418 419 469
3 453 418 469
3 453 469 470
3 453 470 456
3 471 470 469
3 471 472 470
3 457 420 412
3 420 459 422
3 420 457 459
3 472 471 473
3 461 422 459
3 461 474 422
3 474 424 422
3 474 475 424
3 424 475 426
3 475 476 426
3 426 476 428
3 479 477 478
3 476 464 429
3 476 429 428
3 429 464 462
3 478 477 481
3 481 477 480
3 429 462 465
3 429 465 430
3 468 432 467
3 468 433 432
3 468 481 433
3 480 433 481
3 465 415 430
3 467 432 416
3 469 419 434
3 471 469 434
3 436 471 434
3 473 471 436
3 473 436 482
3 482 436 438
3 483 438 439
3 483 484 438
3 484 482 438
3 484 485 486
3 483 485 484
3 442 486 485
3 442 441 486
3 441 487 486
3 477 479 487
3 477 487 444
3 444 487 441
3 480 477 444
3 445 480 444
3 480 445 433
3 483 439 446
3 485 483 446
3 447 485 446
3 485 447 442
3 450 451 488
3 450 488 452
3 491 490 489
3 490 492 489
3 488 451 454
3 455 452 488
3 455 488 493
3 454 456 488
3 456 493 488
3 458 455 491
3 458 491 489
3 455 493 491
3 495 491 494
3 493 494 491
3 494 496 492
3 494 492 495
3 496 460 492
3 489 492 458
3 460 458 492
3 497 461 460
3 497 460 498
3 496 499 460
3 499 498 460
3 498 501 500
3 497 498 500
3 501 502 500
3 463 464 503
3 466 463 503
3 504 466 503
3 466 504 468
3 493 456 470
3 494 493 470
3 472 494 470
3 472 473 505
3 472 505 494
3 494 505 496
3 461 497 474
3 499 496 507
3 496 506 507
3 496 505 506
3 507 506 509
3 509 506 508
3 474 497 500
3 474 500 475
3 508 510 502
3 508 502 509
3 510 476 502
3 500 502 475
3 476 475 502
3 479 478 503
3 479 503 510
3 464 476 503
3 476 510 503
3 504 503 478
3 481 504 478
3 504 481 468
3 505 473 482
3 506 505 482
3 484 506 482
3 508 506 484
3 486 508 484
3 510 508 486
3 487 510 486
3 510 487 479
3 490 491 511
3 490 511 492
3 511 491 495
3 511 495 492
3 498 499 512
3 501 498 512
3 513 501 512
3 501 513 502
3 512 499 507
3 513 512 507
3 509 513 507
3 513 509 502
