ply
format ascii 1.0
element vertex 304
property float x
property float y
property float z
property uchar red
property uchar green
property uchar blue
element face 656
property list uchar int vertex_indices
end_header
-6.12165307998657227 7 -2 142 141 140
-6 6.88663911819458008 -2 47 45 44
-6 7 -2.46583437919616699 125 119 116
-6.17668867111206055 7 -1 136 136 136
-6 6.86679744720458984 -1 77 71 68
-6.17191410064697266 7 0 138 133 132
-6 6.87011814117431641 0 77 73 70
-6.10807609558105469 7 1 146 130 129
-6 6.89910650253295898 1 47 46 46
-6 7 1.39055037498474121 107 84 77
-6 7.1168513298034668 -2 104 93 85
-6 7.1627655029296875 -1 91 78 70
-6 7.15845155715942383 0 92 76 68
-6 7.10390090942382812 1 107 84 77
-5.15017366409301758 7 -4 150 145 143
-5 6.87959718704223633 -4 40 38 37
-5 7 -4.19192695617675781 158 158 158
-5.32791757583618164 7 -3 125 119 116
-5 6.94176816940307617 -3 131 122 117
-5.72955226898193359 7 -2 104 93 85
-5 7 -2.82822418212890625 69 61 54
-5.78591251373291016 7 -1 91 78 70
-5.79185152053833008 7 0 92 76 68
-5.76200723648071289 7 1 107 84 77
-5.20578622817993164 7 2 129 100 99
-5 6.96208572387695312 2 130 127 125
-5 7 1.88787651062011719 23 20 17
-5.1125950813293457 7 3 154 134 128
-5 6.90876102447509766 3 39 36 35
-5 7 3.14066863059997559 121 81 78
-5 7.12412214279174805 -4 119 105 97
-5 7.12534666061401367 -3 69 61 54
-5.15054225921630859 8 -1 168 147 136
-5 7.80107450485229492 -1 4 3 3
-5 8 -1.82098591327667236 153 142 126
-5.14598464965820312 8 0 170 142 132
-5 7.80733299255371094 0 3 3 3
-5 8 0.745497286319732666 146 127 107
-5 7.07981491088867188 2 71 54 46
-5 7.09385061264038086 3 121 81 78
-5 8.95104026794433594 -1 145 131 109
-5 8.94952869415283203 0 146 127 107
-4.19592952728271484 7 -5 158 158 158
-4 6.8766331672668457 -5 33 31 30
-4 7 -5.15442562103271484 180 180 180
-4.40411472320556641 7 -4 119 105 97
-4 7 -4.3979640007019043 132 116 106
-4.92116594314575195 7 -3 69 61 54
-4.94920015335083008 7 2 71 54 46
-4.5649876594543457 7 3 121 81 78
-4.13292932510375977 7 4 159 131 121
-4 6.91423177719116211 4 28 25 25
-4 7 3.58102583885192871 62 48 40
-4 7 4.10497093200683594 134 83 81
-4 7.12714862823486328 -5 132 116 106
-4.36300992965698242 8 -3 169 162 153
-4 7.74609088897705078 -3 22 22 21
-4 8 -3.52436542510986328 175 168 153
-4.9158930778503418 8 -2 153 142 126
-4 7.74802875518798828 -2 82 82 81
-4 7.76019096374511719 -1 112 110 105
-4 7.76144599914550781 0 112 110 101
-4.87601280212402344 8 1 157 132 118
-4 7.75182437896728516 1 82 81 77
-4.33608245849609375 8 2 174 144 139
-4 7.76199865341186523 2 21 20 18
-4 8 2.47065448760986328 153 121 99
-4 7.0881505012512207 4 134 83 81
-4 8.97304534912109375 -3 147 137 108
-4 8.97877979278564453 -2 121 113 80
-4 8.97822761535644531 -1 104 97 67
-4 8.97809791564941406 0 105 96 66
-4 8.97843837738037109 1 124 106 77
-4 8.97128677368164062 2 153 121 99
-3 6.93527793884277344 -5 109 103 99
-3 7 -5.37303304672241211 169 156 146
-3 7 -4.91233158111572266 93 83 72
-3 6.97198200225830078 4 105 97 90
-3 7 3.96245813369750977 8 8 7
-3 7 4.14345407485961914 97 68 58
-3 7.13992071151733398 -5 93 83 72
-3.5264744758605957 8 -4 175 168 153
-3 7.74374151229858398 -4 13 13 13
-3 8 -4.36841726303100586 196 191 179
-3 7.75800132751464844 -3 103 102 98
-3 7.85296297073364258 -2 156 153 133
-3.04253458976745605 8 -1 104 97 67
-3 8 -1.07372105121612549 71 70 49
-3.0566565990447998 8 0 105 96 66
-3 7.86145639419555664 1 155 153 121
-3 8 0.102702349424362183 47 46 33
-3 7.76430416107177734 2 101 98 85
-3.46609735488891602 8 3 182 140 133
-3 7.76608753204345703 3 8 8 7
-3 7.05820512771606445 4 97 68 58
-3 8 3.32604598999023438 167 123 103
-3 8.97326564788818359 -4 159 151 117
-3 8.97844886779785156 -3 114 110 77
-3 8.9616546630859375 -2 71 70 49
-3 8.95907211303710938 1 75 69 49
-3 8.97779464721679688 2 121 101 72
-3 8.97077178955078125 3 167 123 103
-2.51378369331359863 7 -6 169 156 146
-2 6.87467718124389648 -6 4 4 3
-2 7 -6.13471794128417969 215 215 215
-2.80481243133544922 7 -5 93 83 72
-2 7 -5.69894313812255859 157 145 126
-2.9191594123840332 7 4 97 68 58
-2.30411720275878906 7 5 160 102 95
-2 6.9209132194519043 5 6 5 5
-2 7 4.8133392333984375 59 48 40
-2 7 5.08399534225463867 149 82 77
-2 7.12906265258789062 -6 157 145 126
-2 7.74613666534423828 -4 66 66 65
-2 8 -4.94357061386108398 191 184 156
-2 7.85058259963989258 -3 148 146 128
-2.59799408912658691 8 -2 71 70 49
-2 8 -2.5935518741607666 78 77 56
-2.62739133834838867 8 1 75 69 49
-2 7.86476421356201172 2 144 142 112
-2 8 1.63377165794372559 27 26 20
-2 7.75508880615234375 3 60 58 53
-2 8 3.82703661918640137 149 111 84
-2 7.08117580413818359 5 149 82 77
-2 8.97893714904785156 -4 141 136 96
-2 8.96232891082763672 -3 78 77 56
-2 8.95798397064208984 2 84 75 54
-2 8.97812461853027344 3 149 111 84
-1 6.85438013076782227 -6 23 21 18
-1 7 -6.19481706619262695 219 219 218
-1 7 -5.76375150680541992 151 141 119
-1 6.89143466949462891 5 27 25 23
-1 7 4.82725191116333008 38 33 28
-1 7 5.14073276519775391 145 83 70
-1 7.17866802215576172 -6 151 141 119
-1.8834846019744873 8 -5 191 184 156
-1 7.78287267684936523 -5 30 30 29
-1 8 -5.16321134567260742 230 224 206
-1 7.7572789192199707 -4 90 90 88
-1.02953600883483887 8 -3 78 77 56
-1 8 -3.01678109169006348 128 123 87
-1.15590178966522217 8 2 84 75 54
-1 7.76618766784667969 3 83 79 68
-1 8 2.08804488182067871 62 55 41
-1.62408530712127686 8 4 195 132 120
-1 7.83992195129394531 4 38 33 28
-1 7.13090419769287109 5 145 83 70
-1 8 4.12085485458374023 193 124 106
-1 8.95470237731933594 -5 189 180 144
-1 8.97851943969726562 -4 128 123 87
-1 8.97758769989013672 3 136 101 74
-1 8.93948459625244141 4 193 124 106
0 6.85507631301879883 -6 17 16 14
0 7 -6.1936798095703125 228 226 224
0 7 -5.76486635208129883 157 145 122
0 6.89226388931274414 5 23 20 19
0 7 4.82855558395385742 41 35 29
0 7 5.13952255249023438 152 88 72
0 7.17766904830932617 -6 157 145 122
0 7.78447961807250977 -5 33 33 32
0 8 -5.161834716796875 237 230 210
0 7.75750350952148438 -4 88 88 85
0 8 -3.01831293106079102 132 123 85
0 7.76645755767822266 3 79 74 63
0 8 2.08957576751708984 64 54 40
0 7.84174776077270508 4 41 35 29
0 7.1298060417175293 5 152 88 72
0 8 4.11935615539550781 197 118 100
0 8.95432090759277344 -5 194 183 142
0 8.97849655151367188 -4 132 123 85
0 8.97755718231201172 3 139 96 70
0 8.93874263763427734 4 197 118 100
1 6.87764310836791992 -6 16 15 14
1 7 -6.13125514984130859 242 240 237
1 7 -5.70560932159423828 178 162 133
1 6.92439651489257812 5 11 9 9
1 7 4.82123708724975586 72 54 43
1 7 5.08014297485351562 174 97 79
1 7.12579965591430664 -6 178 162 133
0.857415437698364258 8 -5 194 183 142
1 7.74688100814819336 -4 58 58 56
1 8 -4.93022489547729492 209 192 150
0.0324183180928230286 8 -3 56 54 42
1 7.85167407989501953 -3 140 134 116
1 8 -2.59680271148681641 85 77 55
0.15954357385635376 8 2 64 54 40
1 7.86595439910888672 2 133 123 94
1 8 1.63722419738769531 31 27 21
1 7.75599384307861328 3 49 44 38
0.603300273418426514 8 4 197 118 100
1 8 3.81541872024536133 159 95 73
1 7.07748079299926758 5 174 97 79
1 8.9788665771484375 -4 153 137 92
1 8.96202850341796875 -3 85 77 55
1 8.95758342742919922 2 91 68 49
1 8.97802925109863281 3 159 95 73
1.49092888832092285 7 -6 178 162 133
1.81353163719177246 7 -5 65 61 55
2 6.93833541870117188 -5 74 73 71
2 7 -5.34631919860839844 209 187 156
2 7 -4.91649436950683594 119 105 84
1.92917072772979736 7 4 72 54 43
2 6.97552108764648438 4 70 60 48
2 7 3.96720790863037109 11 9 8
1.28468728065490723 7 5 174 97 79
2 7 4.12232494354248047 124 75 58
2 7.13175868988037109 -5 119 105 84
2 7.74743938446044922 -4 3 3 3
2 8 -4.36011600494384766 230 206 169
2 7.75915908813476562 -3 88 83 72
1.60268175601959229 8 -2 27 25 20
2 7.85482025146484375 -2 139 128 104
2 8 -1.08718967437744141 85 72 49
1.63227629661560059 8 1 31 27 21
2 7.86341285705566406 1 135 121 91
2 8 0.11682455986738205 59 48 34
2 7.7656254768371582 2 81 71 57
2 7.77025079727172852 3 11 9 8
2 7.0502781867980957 4 124 75 58
2 8 3.31775712966918945 189 94 83
2 8.97280216217041016 -4 187 158 108
2 8.97832870483398438 -3 133 112 72
2 8.96112346649169922 -2 85 72 49
2 8.95844173431396484 1 88 64 46
2 8.97764682769775391 2 138 82 61
2 8.97015190124511719 3 189 94 83
3 6.88368082046508789 -5 16 16 16
3 7 -5.14453506469726562 241 217 192
3 7 -4.42654275894165039 182 150 112
3 6.92227363586425781 4 15 12 11
3 7 3.61577343940734863 97 59 50
3 7 4.09447717666625977 181 80 73
3 7.11942720413208008 -5 182 150 112
2.50915408134460449 8 -4 187 158 108
3 7.75136947631835938 -3 2 2 2
3 8 -3.50508451461791992 222 181 135
3 7.7498779296875 -2 58 53 45
2.05034232139587402 8 -1 57 48 35
3 7.76190662384033203 -1 87 77 61
2.06447815895080566 8 0 59 48 34
3 7.76320791244506836 0 86 75 58
3 7.75383520126342773 1 55 47 39
3 7.76774311065673828 2 7 6 5
2.44953417778015137 8 3 189 94 83
3 8 2.45212697982788086 188 85 78
3 7.07959699630737305 4 181 80 73
3 8.97236824035644531 -3 188 143 94
3 8.97859764099121094 -2 155 113 72
3 8.97804450988769531 -1 134 94 61
3 8.97790718078613281 0 135 86 59
3 8.97823143005371094 1 156 85 64
3 8.97045421600341797 2 188 85 78
3.18237495422363281 7 -5 182 150 112
3.43408870697021484 7 -4 93 79 62
4 6.88689899444580078 -4 15 14 14
4 7 -4.17782974243164062 232 193 159
3.92609429359436035 7 -3 2 2 2
4 6.94536447525024414 -3 76 69 61
4 7 -2.83835816383361816 119 93 67
3.95479345321655273 7 2 7 6 5
4 6.96623706817626953 2 73 61 50
4 7 1.89982807636260986 67 47 38
3.6002342700958252 7 3 97 59 50
4 6.91722679138183594 3 15 13 11
3.11892223358154297 7 4 181 80 73
4 7 3.12592577934265137 180 78 74
4 7.11593437194824219 -4 181 140 100
3.35058736801147461 8 -3 188 143 94
4 7.11519765853881836 -3 119 93 67
3.88228321075439453 8 -2 155 113 72
4 7.81383228302001953 -1 35 29 24
4 8 -1.74605453014373779 212 140 104
4 7.82036876678466797 0 36 29 24
3.8435213565826416 8 1 156 85 64
4 8 0.674702584743499756 200 102 86
3.32349848747253418 8 2 188 85 78
4 7.06963014602661133 2 120 65 56
4 7.08468008041381836 3 180 78 74
4 8.94715309143066406 -1 200 118 89
4 8.94532680511474609 0 200 102 86
4.13968133926391602 7 -4 181 140 100
4.2939915657043457 7 -3 119 93 67
4.74476909637451172 7 -2 65 53 41
5 6.89367103576660156 -2 15 14 12
5 7 -2.42533254623413086 208 149 113
4.7929539680480957 7 -1 35 29 24
5 6.87139415740966797 -1 15 14 12
4.79907894134521484 7 0 36 29 24
5 6.87483453750610352 0 14 13 11
4.77843427658081055 7 1 67 47 38
5 6.90664005279541016 1 16 13 12
4.17514657974243164 7 2 120 65 56
5 7 1.35186946392059326 179 80 77
4.10117626190185547 7 3 180 78 74
5 7.10887765884399414 -2 180 119 87
4.13927125930786133 8 -1 200 118 89
5 7.15589761734008789 -1 163 99 74
4.13455343246459961 8 0 200 102 86
5 7.15148735046386719 0 162 88 72
5 7.09551763534545898 1 179 80 77
5.11321020126342773 7 -2 180 119 87
5.16886663436889648 7 -1 163 99 74
5.16400289535522461 7 0 162 88 72
5.09923362731933594 7 1 179 80 77
3 2 1 0
3 1 4 3
3 0 1 3
3 4 6 5
3 3 4 5
3 6 8 7
3 5 6 7
3 8 9 7
3 2 0 10
3 0 3 11
3 10 0 11
3 3 5 12
3 11 3 12
3 5 7 13
3 12 5 13
3 7 9 13
3 16 15 14
3 15 18 17
3 14 15 17
3 2 17 18
3 2 18 1
3 20 19 18
3 19 1 18
3 4 1 19
3 21 4 19
3 6 4 21
3 22 6 21
3 8 6 22
3 23 8 22
3 24 9 8
3 24 8 25
3 23 26 8
3 26 25 8
3 25 28 27
3 24 25 27
3 28 29 27
3 16 14 30
3 14 17 31
3 30 14 31
3 19 20 31
3 19 31 10
3 17 2 31
3 2 10 31
3 21 19 34
3 21 34 33
3 19 10 34
3 32 34 11
3 10 11 34
3 11 35 32
3 11 12 35
3 33 36 21
3 36 22 21
3 12 13 37
3 12 37 35
3 13 23 37
3 36 37 22
3 23 22 37
3 9 24 38
3 9 38 13
3 26 23 38
3 23 13 38
3 24 27 39
3 38 24 39
3 27 29 39
3 34 32 40
3 32 35 41
3 40 32 41
3 35 37 41
3 44 43 42
3 16 42 43
3 16 43 15
3 46 45 43
3 45 15 43
3 18 15 45
3 47 18 45
3 18 47 20
3 25 26 48
3 28 25 48
3 49 28 48
3 50 29 28
3 50 28 51
3 49 52 28
3 52 51 28
3 51 53 50
3 44 42 54
3 45 46 54
3 45 54 30
3 42 16 54
3 16 30 54
3 47 45 57
3 47 57 56
3 45 30 57
3 55 57 31
3 30 31 57
3 56 59 20
3 56 20 47
3 59 58 20
3 31 20 55
3 58 55 20
3 34 58 59
3 34 59 33
3 33 59 60
3 60 61 33
3 33 61 36
3 62 37 36
3 62 36 63
3 63 36 61
3 64 62 26
3 64 26 38
3 62 63 26
3 48 26 65
3 63 65 26
3 38 39 66
3 38 66 64
3 39 49 66
3 65 66 48
3 49 48 66
3 29 50 67
3 29 67 39
3 52 49 67
3 49 39 67
3 50 53 67
3 57 55 68
3 55 58 69
3 68 55 69
3 58 34 40
3 58 40 69
3 69 40 70
3 70 40 71
3 40 41 71
3 37 62 72
3 37 72 41
3 41 72 71
3 62 64 73
3 72 62 73
3 64 66 73
3 44 75 74
3 43 44 74
3 43 74 76
3 46 43 76
3 52 78 77
3 51 52 77
3 51 77 79
3 53 51 79
3 75 44 54
3 80 75 54
3 80 54 81
3 80 81 83
3 54 46 81
3 82 81 76
3 46 76 81
3 57 81 82
3 57 82 56
3 56 82 84
3 84 85 56
3 56 85 59
3 87 86 60
3 87 60 85
3 85 60 59
3 61 60 86
3 88 61 86
3 88 90 89
3 88 89 61
3 61 89 63
3 89 91 63
3 63 91 65
3 92 66 65
3 92 65 93
3 93 65 91
3 78 52 92
3 78 92 93
3 52 67 92
3 95 92 94
3 67 94 92
3 94 67 53
3 79 94 53
3 83 81 96
3 81 57 68
3 81 68 96
3 96 68 97
3 97 68 98
3 68 69 98
3 86 87 98
3 86 98 70
3 70 98 69
3 88 86 70
3 71 88 70
3 90 88 71
3 90 71 99
3 99 71 72
3 99 72 100
3 72 73 100
3 66 92 101
3 66 101 73
3 73 101 100
3 92 95 101
3 104 103 102
3 75 102 103
3 75 103 74
3 106 105 103
3 105 74 103
3 74 105 76
3 77 78 107
3 108 79 77
3 108 77 109
3 107 110 77
3 110 109 77
3 109 111 108
3 104 102 112
3 105 106 112
3 105 112 80
3 102 75 112
3 75 80 112
3 83 114 105
3 83 105 80
3 114 113 105
3 76 105 82
3 113 82 105
3 113 115 82
3 82 115 84
3 117 116 85
3 117 85 115
3 115 85 84
3 85 116 87
3 89 90 118
3 118 120 119
3 118 119 89
3 89 119 91
3 119 121 91
3 91 121 93
3 93 121 107
3 93 107 78
3 121 122 107
3 94 107 95
3 122 95 107
3 79 108 123
3 79 123 94
3 110 107 123
3 107 94 123
3 108 111 123
3 114 83 96
3 124 114 96
3 124 96 125
3 96 97 125
3 116 117 125
3 116 125 98
3 98 125 97
3 116 98 87
3 118 90 99
3 120 118 99
3 120 99 126
3 126 99 100
3 126 100 127
3 100 101 127
3 127 101 95
3 122 127 95
3 104 129 128
3 103 104 128
3 103 128 130
3 106 103 130
3 110 132 131
3 109 110 131
3 109 131 133
3 111 109 133
3 129 104 112
3 134 129 112
3 134 112 135
3 134 135 137
3 112 106 135
3 136 135 130
3 106 130 135
3 114 135 136
3 114 136 113
3 113 136 138
3 140 139 115
3 140 115 138
3 138 115 113
3 115 139 117
3 119 120 141
3 141 143 142
3 141 142 119
3 119 142 121
3 144 122 121
3 144 121 145
3 145 121 142
3 132 110 144
3 132 144 145
3 110 123 144
3 147 144 146
3 123 146 144
3 146 123 111
3 133 146 111
3 137 135 148
3 135 114 124
3 135 124 148
3 148 124 149
3 139 140 149
3 139 149 125
3 125 149 124
3 139 125 117
3 141 120 126
3 143 141 126
3 143 126 150
3 150 126 127
3 122 144 151
3 122 151 127
3 127 151 150
3 144 147 151
3 129 153 152
3 128 129 152
3 128 152 154
3 130 128 154
3 132 156 155
3 131 132 155
3 131 155 157
3 133 131 157
3 153 129 134
3 158 153 134
3 154 159 130
3 130 159 136
3 160 158 134
3 160 134 137
3 159 161 136
3 136 161 138
3 138 161 162
3 140 138 162
3 143 164 163
3 142 143 163
3 163 165 142
3 142 165 145
3 167 146 166
3 167 147 146
3 156 132 165
3 132 145 165
3 166 146 133
3 157 166 133
3 160 137 148
3 168 160 148
3 168 148 169
3 148 149 169
3 169 149 140
3 162 169 140
3 164 143 150
3 170 164 150
3 170 150 171
3 150 151 171
3 171 151 147
3 167 171 147
3 153 173 172
3 152 153 172
3 152 172 174
3 154 152 174
3 156 176 175
3 155 156 175
3 155 175 177
3 157 155 177
3 173 153 158
3 178 173 158
3 154 174 179
3 154 179 159
3 174 178 179
3 160 179 158
3 178 158 179
3 179 181 180
3 179 180 159
3 159 180 161
3 182 162 161
3 182 161 183
3 183 161 180
3 183 184 182
3 187 186 185
3 164 185 186
3 164 186 163
3 163 186 188
3 190 189 165
3 190 165 188
3 188 165 163
3 166 191 189
3 166 189 167
3 191 176 189
3 165 189 156
3 176 156 189
3 191 166 157
3 177 191 157
3 179 160 168
3 181 179 168
3 181 168 192
3 192 168 169
3 162 182 193
3 162 193 169
3 169 193 192
3 182 184 193
3 187 185 194
3 185 164 170
3 185 170 194
3 194 170 195
3 189 190 195
3 189 195 171
3 171 195 170
3 189 171 167
3 172 173 196
3 197 174 172
3 197 172 198
3 196 199 172
3 199 198 172
3 198 200 197
3 203 202 201
3 176 201 202
3 176 202 175
3 205 204 202
3 204 175 202
3 175 204 177
3 196 173 178
3 174 197 206
3 174 206 178
3 199 196 206
3 196 178 206
3 207 180 197
3 207 197 200
3 180 181 197
3 206 197 208
3 181 208 197
3 207 209 180
3 180 209 183
3 210 184 183
3 210 183 211
3 211 183 209
3 211 212 210
3 215 214 213
3 187 213 214
3 187 214 186
3 186 214 216
3 216 217 186
3 186 217 188
3 219 190 201
3 219 201 218
3 190 188 201
3 203 201 217
3 188 217 201
3 204 205 218
3 204 218 191
3 201 176 218
3 176 191 218
3 204 191 177
3 208 181 192
3 220 208 192
3 220 192 221
3 192 193 221
3 184 210 222
3 184 222 193
3 193 222 221
3 210 212 222
3 215 213 223
3 213 187 194
3 213 194 223
3 223 194 224
3 224 194 225
3 194 195 225
3 225 195 190
3 219 225 190
3 199 227 226
3 198 199 226
3 198 226 228
3 200 198 228
3 203 230 229
3 202 203 229
3 202 229 231
3 205 202 231
3 227 199 206
3 232 227 206
3 200 228 233
3 200 233 207
3 228 232 233
3 208 233 206
3 232 206 233
3 233 235 234
3 233 234 207
3 207 234 209
3 234 236 209
3 209 236 211
3 237 212 211
3 237 211 238
3 238 211 236
3 238 240 239
3 237 238 239
3 215 239 240
3 215 240 214
3 214 240 241
3 241 242 214
3 214 242 216
3 244 243 217
3 244 217 242
3 242 217 216
3 218 245 243
3 218 243 219
3 245 230 243
3 217 243 203
3 230 203 243
3 245 218 205
3 231 245 205
3 233 208 220
3 235 233 220
3 235 220 246
3 246 220 221
3 246 221 247
3 221 222 247
3 212 237 248
3 212 248 222
3 222 248 247
3 237 239 249
3 248 237 249
3 239 215 223
3 239 223 249
3 249 223 250
3 250 223 251
3 223 224 251
3 243 244 251
3 243 251 225
3 225 251 224
3 243 225 219
3 226 227 252
3 253 228 226
3 253 226 254
3 252 255 226
3 255 254 226
3 254 257 256
3 253 254 256
3 257 258 256
3 261 260 259
3 260 263 262
3 259 260 262
3 230 262 263
3 230 263 229
3 265 264 263
3 264 229 263
3 229 264 231
3 252 227 232
3 228 253 266
3 228 266 232
3 255 252 266
3 252 232 266
3 268 266 235
3 268 235 267
3 266 253 235
3 234 235 256
3 253 256 235
3 267 269 258
3 267 258 268
3 269 236 258
3 256 258 234
3 236 234 258
3 269 271 270
3 269 270 236
3 236 270 238
3 270 272 238
3 238 272 240
3 274 273 241
3 274 241 272
3 272 241 240
3 242 241 261
3 242 261 259
3 241 273 261
3 276 261 275
3 273 275 261
3 259 262 244
3 259 244 242
3 262 277 244
3 275 244 276
3 277 276 244
3 264 265 277
3 264 277 245
3 262 230 277
3 230 245 277
3 264 245 231
3 267 235 246
3 269 267 246
3 247 269 246
3 271 269 247
3 271 247 278
3 278 247 248
3 278 248 279
3 248 249 279
3 273 274 279
3 273 279 250
3 250 279 249
3 275 273 250
3 251 275 250
3 275 251 244
3 254 255 280
3 257 254 280
3 281 257 280
3 282 258 257
3 282 257 283
3 281 284 257
3 284 283 257
3 283 286 285
3 282 283 285
3 286 288 287
3 285 286 287
3 288 290 289
3 287 288 289
3 261 289 290
3 261 290 260
3 292 291 290
3 291 260 290
3 263 260 291
3 293 263 291
3 263 293 265
3 280 255 266
3 281 280 266
3 268 281 266
3 258 282 294
3 258 294 268
3 284 281 294
3 281 268 294
3 296 294 271
3 296 271 295
3 294 282 271
3 270 271 285
3 282 285 271
3 296 295 298
3 298 295 297
3 270 285 287
3 270 287 272
3 287 289 274
3 287 274 272
3 289 299 274
3 297 274 298
3 299 298 274
3 291 292 299
3 291 299 276
3 289 261 299
3 261 276 299
3 293 291 276
3 277 293 276
3 293 277 265
3 295 271 278
3 297 295 278
3 279 297 278
3 297 279 274
3 283 284 300
3 286 283 300
3 301 286 300
3 288 286 301
3 302 288 301
3 290 288 302
3 303 290 302
3 290 303 292
3 300 284 294
3 301 300 294
3 296 301 294
3 302 301 296
3 298 302 296
3 303 302 298
3 299 303 298
3 303 299 292
