ply
format ascii 1.0
element vertex 492
property float x
property float y
property float z
property uchar red
property uchar green
property uchar blue
element face 968
property list uchar int vertex_indices
end_header
-9.92498397827148438 -9 -9 51 56 4
-9 -9.92498397827148438 -9 55 39 2
-9 -9 -9.92498397827148438 89 89 1
-9.88015365600585938 -9 -8 65 57 8
-9 -9.88015365600585938 -8 63 31 5
-9.71999645233154297 -9 -7 71 52 12
-9 -9.71999645233154297 -7 70 24 8
-9 -9 -6.41674375534057617 108 41 16
-9.80407619476318359 -9 7 0 39 33
-9 -9.80407619476318359 7 0 40 18
-9 -9 6.09674215316772461 0 2 0
-9.89964008331298828 -9 8 0 39 60
-9 -9.89964008331298828 8 0 62 59
-9 -9 8.89964008331298828 0 25 24
-9.92434597015380859 -8 -9 83 96 10
-9 -8 -9.92434597015380859 120 126 4
-9.87835407257080078 -8 -8 102 94 16
-9.70915412902832031 -8 -7 104 80 20
-9 -8 -6.44796276092529297 122 53 21
-9.7989501953125 -8 7 0 14 12
-9 -8 6.127044677734375 0 0 0
-9.89841651916503906 -8 8 0 17 29
-9 -8 8.89841651916503906 0 14 14
-9.92334270477294922 -7 -9 99 123 15
-9 -7 -9.92334270477294922 129 145 8
-9.87547969818115234 -7 -8 122 120 21
-9.69076061248779297 -7 -7 116 96 24
-9 -7 -6.49568986892700195 113 57 22
-9.79053211212158203 -7 7 0 12 11
-9 -7 6.17336320877075195 0 23 2
-9.89647674560546875 -7 8 0 10 20
-9 -7 8.89647674560546875 0 24 26
-9.92194271087646484 -6 -9 95 132 18
-9 -6 -9.92194271087646484 115 145 11
-9.87136936187744141 -6 -8 114 122 22
-9.66184902191162109 -6 -7 109 99 24
-9 -6 -6.55978155136108398 90 54 18
-9.77796077728271484 -6 7 0 26 28
-9 -6 6.23555231094360352 0 54 11
-9.89373302459716797 -6 8 0 12 30
-9 -6 8.89373302459716797 0 41 51
-9.92009830474853516 -5 -9 77 126 19
-9 -5 -9.92009830474853516 89 131 13
-9.86577033996582031 -5 -8 90 109 21
-9.61655712127685547 -5 -7 88 89 20
-9 -5 -6.64005231857299805 61 43 13
-9.75974082946777344 -5 7 0 42 52
-9 -5 6.31342029571533203 0 84 30
-9.89004802703857422 -5 8 0 14 51
-9 -5 8.89004802703857422 0 55 80
-9.91774082183837891 -4 -9 52 110 17
-9 -4 -9.91774082183837891 59 109 12
-9.85829257965087891 -4 -8 61 88 17
-9.54228973388671875 -4 -7 56 65 15
-9 -4 -6.73627519607543945 34 28 8
-9.73321723937988281 -4 7 0 50 79
-9 -4 6.40673351287841797 3 108 57
-9.88522434234619141 -4 8 0 9 76
-9 -4 8.88522434234619141 0 56 107
-9.91477584838867188 -3 -9 29 89 15
-9 -3 -9.91477584838867188 33 86 11
-9.84833908081054688 -3 -8 36 65 13
-9.40705776214599609 -3 -7 29 41 10
-9 -3 -6.84818696975708008 12 11 3
-9.69334602355957031 -3 7 0 46 103
-9 -3 6.51522111892700195 7 124 89
-9.87896633148193359 -3 8 6 0 100
-9 -3 8.87896633148193359 0 42 129
-9.91107177734375 -2 -9 12 69 13
-9 -2 -9.91107177734375 14 65 10
-9.83495426177978516 -2 -8 17 44 9
-9.10042572021484375 -2 -7 11 20 5
-9 -2 -6.97549533843994141 4 4 1
-9.62943935394287109 -2 7 0 27 123
-9 -2 6.63857936859130859 10 135 125
-9.87083339691162109 -2 8 34 0 121
-9 -2 8.87083339691162109 0 16 144
-9.90644550323486328 -1 -9 9 51 21
-9 -1 -9.90644550323486328 8 47 14
-9.81654453277587891 -1 -8 5 26 6
-9 -1.8290712833404541 -7 4 4 1
-9 -1 -7.10846138000488281 0 0 0
-9.51444339752197266 -1 7 3 0 139
-9 -1 6.77647781372070312 14 120 142
-9.86014556884765625 -1 8 73 0 138
-9 -1 8.86014556884765625 21 0 156
-9.90063095092773438 0 -9 7 36 23
-9 0 -9.90063095092773438 6 32 18
-9.79025554656982422 0 -8 2 11 5
-9 0 -7.25279998779296875 4 12 3
-9.25471210479736328 0 7 46 0 151
-9 0 6.92856788635253906 18 90 147
-9.84580230712890625 0 8 122 0 152
-9 0 8.84580230712890625 68 0 165
-9.89323616027832031 1 -9 4 23 21
-9 1 -9.89323616027832031 4 20 16
-9.75044441223144531 1 -8 0 1 0
-9 1 -7.41005086898803711 7 21 10
-9 0.428042203187942505 7 8 22 158
-9.82592296600341797 1 8 163 0 144
-9 1 7.08780002593994141 45 13 165
-9 1 8.82592296600341797 125 0 174
-9.88366031646728516 2 -9 3 12 14
-9 2 -9.88366031646728516 2 10 11
-9.68423080444335938 2 -8 2 10 10
-9 2 -7.57980728149414062 10 30 21
-9.79699611663818359 2 8 172 0 94
-9 2 7.25418996810913086 103 17 173
-9 2 8.79699611663818359 182 5 172
-9.87093353271484375 3 -9 1 4 7
-9 3 -9.87093353271484375 1 3 4
-9.554443359375 3 -8 4 13 17
-9 3 -7.76165914535522461 14 38 36
-9.75167560577392578 3 8 179 0 33
-9 3 7.43228960037231445 169 23 182
-9 3 8.75167560577392578 191 10 114
-9.8533935546875 4 -9 1 1 4
-9 4 -9.8533935546875 0 0 0
-9.19155406951904297 4 -8 6 10 20
-9 4 -7.95520639419555664 17 36 45
-9.67156028747558594 4 8 184 0 0
-9 4 7.62166976928710938 192 29 142
-9 4 8.67156028747558594 199 15 49
-9.82793140411376953 5 -9 1 0 3
-9 5 -9.82793140411376953 0 0 0
-9 4.21632814407348633 -8 17 36 45
-9 5 -8.15138435363769531 9 10 26
-9.49398231506347656 5 8 186 0 0
-9 5 7.82191610336303711 201 36 80
-9 5 8.49398231506347656 206 21 21
-9.78798580169677734 6 -9 4 1 5
-9 6 -9.78798580169677734 1 0 1
-9 6 -8.35488033294677734 16 9 25
-9 5.84316778182983398 8 206 21 21
-9.71692562103271484 7 -9 9 2 7
-9 7 -9.71692562103271484 6 2 6
-9 7 -8.56762123107910156 19 8 20
-9.55673885345458984 8 -9 11 3 5
-9 8 -9.55673885345458984 12 5 7
-9 8 -8.78920650482177734 12 5 9
-9 8.55673885345458984 -9 12 5 9
-8 -9.88128471374511719 -9 95 35 2
-8 -9 -9.88128471374511719 128 83 0
-8 -9.66438007354736328 -8 103 17 7
-8.55371952056884766 -9 -7 108 41 16
-8 -9 -7.61710453033447266 132 28 14
-8.27214145660400391 -9 7 0 10 4
-8 -9.78918552398681641 8 0 26 16
-8 -9 7.29072999954223633 0 0 0
-8 -9 8.78918552398681641 0 9 5
-8 -8 -9.87952041625976562 151 107 5
-8.57759666442871094 -8 -7 122 53 21
-8 -8 -7.64372158050537109 134 37 18
-8.29654502868652344 -8 7 0 6 3
-8 -8 7.3168034553527832 0 18 2
-8 -8 8.78320598602294922 0 20 13
-8 -7 -9.87670612335205078 151 119 10
-8.61410140991210938 -7 -7 113 57 22
-8 -7 -7.68441677093505859 115 41 18
-8.33384990692138672 -7 7 0 24 14
-8 -7 7.35665988922119141 0 50 11
-8 -7 8.77332878112792969 0 47 35
-8 -6 -9.87268352508544922 133 118 12
-8.66312694549560547 -6 -7 90 54 18
-8 -6 -7.73907279968261719 85 39 15
-8.38393974304199219 -6 7 0 53 36
-8 -6 7.41017770767211914 0 83 27
-8 -6 8.75844860076904297 0 80 67
-8 -5 -9.86720752716064453 107 108 13
-8.72453498840332031 -5 -7 61 43 13
-8 -5 -7.80753755569458008 55 32 11
-8.44666290283203125 -5 7 0 83 67
-8 -5 7.47719621658325195 0 109 50
-8 -5 8.73660087585449219 0 109 105
-8 -4 -9.85990428924560547 69 81 12
-8.79815769195556641 -4 -7 34 28 8
-8 -4 -7.88962459564208984 30 22 7
-8.52183628082275391 -4 7 0 109 106
-8 -4 7.55752038955688477 0 126 79
-8 -4 8.70418453216552734 0 112 129
-8 -3 -9.85019683837890625 40 57 10
-8.88379859924316406 -3 -7 12 11 3
-8 -3 -7.98512029647827148 11 10 3
-8.60924625396728516 -3 7 0 107 128
-8 -3 7.65092325210571289 4 135 111
-8 -3 8.65404224395751953 0 96 142
-8 -2 -9.83717060089111328 20 38 8
-8.09006214141845703 -2 -8 10 14 3
-8 -2.86392521858215332 -8 11 10 3
-8 -2 -8.0887451171875 12 16 4
-8.98124122619628906 -2 -7 4 4 1
-8.70865345001220703 -2 7 1 88 141
-8 -2 7.75715208053588867 8 134 139
-8 -2 8.56992244720458984 0 68 149
-8 -1 -9.819305419921875 8 23 5
-8.20661449432373047 -1 -8 0 0 0
-8 -1 -8.20359325408935547 2 4 1
-8.81979751586914062 -1 7 4 58 150
-8 -1 7.87593173980712891 13 105 141
-8 -1 8.40572071075439453 3 34 154
-8 0 -9.79389286041259766 3 11 3
-8.33502292633056641 0 -8 4 12 3
-8 0 -8.33011913299560547 2 5 1
-8.94240570068359375 0 7 8 22 158
-8.00700855255126953 0 8 68 0 165
-8 -0.053665652871131897 8 3 34 154
-8 1 -9.75563526153564453 0 1 0
-8.47493457794189453 1 -8 7 21 10
-8 1 -8.46797943115234375 5 13 6
-8.15059661865234375 1 8 125 0 174
-8 2 -9.69259452819824219 2 7 6
-8.62599277496337891 2 -8 10 30 21
-8 2 -8.61682033538818359 8 22 15
-8.30550098419189453 2 8 182 5 172
-8 3 -9.57112312316894531 5 14 15
-8.78783988952636719 3 -8 14 38 36
-8 3 -8.77628707885742188 13 30 27
-8.47132110595703125 3 8 191 10 114
-8 4 -9.24553489685058594 9 15 21
-8.96012306213378906 4 -8 17 36 45
-8 4 -8.94603252410888672 18 34 39
-8.64766216278076172 4 8 199 15 49
-8.13772869110107422 5 -9 9 10 26
-8 4.29748010635375977 -9 18 34 39
-8.83414173126220703 5 8 206 21 21
-8.34450912475585938 6 -9 16 9 25
-8.56067657470703125 7 -9 19 8 20
-8.78582477569580078 8 -9 12 5 9
-7 -9.73280525207519531 -9 130 10 3
-7 -9 -9.73280525207519531 154 56 2
-7.61013364791870117 -9 -8 132 28 14
-7 -9 -8.53042411804199219 150 19 10
-7.24432706832885742 -9 8 0 9 5
-7 -8 -9.72297573089599609 157 68 9
-7.63723611831665039 -8 -8 134 37 18
-7 -8 -8.55397796630859375 141 29 15
-7.2721104621887207 -8 8 0 20 13
-7 -7 -9.70638275146484375 139 72 13
-7.67867279052734375 -7 -8 115 41 18
-7 -7 -8.58998870849609375 115 34 16
-7.31458044052124023 -7 8 0 47 35
-7 -6 -9.68050956726074219 110 69 14
-7.73432445526123047 -6 -8 85 39 15
-7 -6 -8.63834953308105469 83 34 15
-7.37160634994506836 -6 8 0 80 67
-7 -5 -9.64048671722412109 80 61 13
-7.80403566360473633 -5 -8 55 32 11
-7 -5 -8.69892406463623047 54 29 12
-7.44301652908325195 -5 8 0 109 105
-7 -4 -9.57616424560546875 55 49 11
-7.88761711120605469 -4 -8 30 22 7
-7 -4 -8.77154445648193359 32 22 8
-7.52860069274902344 -4 8 0 112 129
-7 -3 -9.46303653717041016 34 36 9
-7.98484992980957031 -3 -8 11 10 3
-7 -3 -8.85601711273193359 18 15 5
-7.62811660766601562 -3 8 0 96 142
-7 -2 -9.22410392761230469 18 23 6
-7 -2 -8.95212554931640625 10 10 3
-7.74129247665405273 -2 8 0 68 149
-7.07407617568969727 -1 -9 2 4 1
-7 -1.55671942234039307 -9 10 10 3
-7.86783313751220703 -1 8 3 34 154
-7.22123956680297852 0 -9 2 5 1
-7.38156032562255859 1 -9 5 13 6
-7.55462026596069336 2 -9 8 22 15
-7.73999929428100586 3 -9 13 30 27
-7.9372859001159668 4 -9 18 34 39
-6.36328792572021484 -9 -9 150 19 10
-6.39524269104003906 -8 -9 141 29 15
-6.4440922737121582 -7 -9 115 34 16
-6.50969076156616211 -6 -9 83 34 15
-6.59184455871582031 -5 -9 54 29 12
-6.69032049179077148 -4 -9 32 22 8
-6.80484676361083984 -3 -9 18 15 5
-6.93511962890625 -2 -9 10 10 3
5.78382682800292969 -9 -9 108 72 67
6 -9.47059440612792969 -9 92 63 42
6 -9 -9.47059440612792969 115 97 49
6 -9 -8.85152721405029297 121 85 58
5.81730842590332031 -8 -9 145 103 95
6 -8 -9.429412841796875 149 130 67
6 -8 -8.87451839447021484 160 119 81
5.86850118637084961 -7 -9 180 137 123
6 -7 -9.35198879241943359 184 169 87
6 -7 -8.90967559814453125 192 152 103
5.93726158142089844 -6 -9 200 162 142
6 -6 -9.20641613006591797 208 202 103
6 -6 -8.95690250396728516 209 176 115
6 -5.27258110046386719 -9 209 176 115
7 -9.84449481964111328 -9 100 84 29
7 -9 -9.84449481964111328 117 124 32
7 -9 -8.03326034545898438 132 113 41
6.65988445281982422 -9 8 0 2 1
7 -9.61996841430664062 8 0 28 29
7 -9 7.69982194900512695 1 36 20
7 -9 8.61996841430664062 0 13 14
7 -8 -9.84135055541992188 146 161 45
7 -8 -8.05777168273925781 171 153 58
6.68857908248901367 -8 8 5 39 30
7 -8 7.7251439094543457 3 66 39
7 -8 8.59942722320556641 0 44 49
7 -7 -9.83626365661621094 168 195 59
7 -7 -8.09523582458496094 202 190 73
6.73245096206665039 -7 8 8 57 47
7 -7 7.76386022567749023 4 73 49
7 -7 8.56315994262695312 0 53 63
7 -6 -9.82884311676025391 172 217 69
7 -6 -8.14553070068359375 214 215 81
6.79137468338012695 -6 8 8 55 51
7 -6 7.81586217880249023 4 61 47
7 -6 8.50223350524902344 0 42 58
6.0211634635925293 -5 -9 209 190 117
7 -5 -9.81844615936279297 158 223 73
7 -5 -8.20849704742431641 194 213 81
6.86518716812133789 -5 8 6 39 40
7 -5 7.88100719451904297 2 39 35
7 -5 8.39577579498291016 0 24 40
6.11451864242553711 -4 -9 199 194 111
7 -4 -9.80401802062988281 130 217 71
7 -4 -8.28394031524658203 162 200 76
6.9536900520324707 -4 8 2 15 18
7 -4 7.95912313461303711 0 13 13
7 -4 8.18450641632080078 0 7 16
6.22301864624023438 -3 -9 171 182 101
7 -3 -9.78377819061279297 95 203 66
7 -3 -8.37163448333740234 125 181 68
7 -3.55181241035461426 8 0 7 16
6.34634304046630859 -2 -9 137 164 89
7 -2 -9.7545166015625 59 187 60
7 -2 -8.47132492065429688 89 162 60
6.48414134979248047 -1 -9 105 147 78
7 -1 -9.70989036560058594 52 171 82
7 -1 -8.58273506164550781 55 144 52
6.63604307174682617 0 -9 75 132 68
7 0 -9.63544750213623047 46 156 104
7 0 -8.70557308197021484 45 129 65
6.80166196823120117 1 -9 59 119 71
7 1 -9.48975372314453125 41 144 127
7 1 -8.83953285217285156 39 117 81
6.98060512542724609 2 -9 52 110 83
7 2 -9.08668613433837891 36 117 134
7 2 -8.98430633544921875 34 107 99
7 2.10000491142272949 -9 34 107 99
8 -9.91120624542236328 -9 90 107 12
8 -9 -9.91120624542236328 73 133 10
7.0354914665222168 -9 -8 140 99 50
8 -9.83545970916748047 -8 109 103 17
7.97664642333984375 -9 -7 147 90 59
8 -9.11632156372070312 -7 113 89 21
8 -9 -6.97109842300415039 157 127 34
7.68881797790527344 -9 7 1 36 20
8 -9.63210582733154297 7 0 1 1
8 -9 6.63431978225708008 0 64 31
8 -9.87113475799560547 8 0 11 19
8 -9 8.87113475799560547 0 13 24
8 -8 -9.91027259826660156 89 171 16
7.06164741516113281 -8 -8 179 134 70
8 -8.04430103302001953 -7 157 127 34
8 -8 -7.00123119354248047 188 188 38
7.71374082565307617 -8 7 3 66 39
8 -8 6.66361236572265625 0 86 45
8 -8 8.86902999877929688 0 28 57
8 -7 -9.90879917144775391 96 205 24
7.10162544250488281 -7 -8 203 163 83
8 -7 -7.0437922477722168 198 210 47
7.7518463134765625 -7 7 4 73 49
8 -7 6.70839786529541016 0 84 50
8 -7 8.86565876007080078 0 29 68
8 -6 -9.90672683715820312 87 224 30
7.15529727935791016 -6 -8 208 180 88
8 -6 -7.10093021392822266 184 212 50
7.80302762985229492 -6 7 4 61 47
8 -6 6.76854753494262695 0 65 45
8 -6 8.86081314086914062 0 20 60
8 -5 -9.90396881103515625 65 228 33
7.22249364852905273 -5 -8 198 187 84
8 -5 -7.17246437072753906 154 200 48
7.86714458465576172 -5 7 2 39 35
8 -5 6.84389400482177734 0 38 32
8 -5 8.85416507720947266 0 8 40
8 -4 -9.90039825439453125 33 219 33
7.30300807952880859 -4 -8 173 179 76
8 -4 -7.25817298889160156 116 179 44
7.94402599334716797 -4 7 0 13 13
8 -4 6.93423366546630859 0 11 11
8 -4 8.84520530700683594 0 0 15
8 -3 -9.89583206176757812 31 205 63
7.39660072326660156 -3 -8 135 158 66
8 -3 -7.35780000686645508 79 157 38
8 -3.37573337554931641 7 0 7 13
7.05284738540649414 -3 8 0 1 7
8 -3 7.0365595817565918 0 3 10
8 -3 8.83312606811523438 1 0 8
8 -2 -9.89000892639160156 28 187 93
7.50300216674804688 -2 -8 99 137 56
8 -2 -7.47105693817138672 46 136 33
7.16201591491699219 -2 8 0 0 28
8 -2 7.14761114120483398 0 4 31
8 -2 8.8166046142578125 10 0 28
8 -1 -9.882537841796875 25 170 120
7.62192058563232422 -1 -8 67 119 47
8 -1 -7.59763050079345703 28 118 39
7.28395509719848633 -1 8 9 0 46
8 -1 7.2716522216796875 5 0 47
8 -1 8.79334259033203125 28 0 46
8 0 -9.87282657623291016 22 155 147
7.75304460525512695 0 -8 40 103 40
8 0 -7.73718738555908203 24 103 56
7.41832065582275391 0 8 29 0 60
8 0 7.40833139419555664 23 0 60
8 0 8.75899600982666016 54 0 60
8 1 -9.85992717742919922 20 113 143
7.89605331420898438 1 -8 34 91 52
8 1 -7.88938283920288086 21 91 70
7.56475353240966797 1 8 57 0 72
8 1 7.55728340148925781 49 0 70
8 1 8.70429229736328125 71 0 57
8 2 -9.84223461151123047 18 67 134
8 1.67007637023925781 -8 21 91 70
8 2 -8.05098724365234375 20 81 106
7.72288799285888672 2 8 81 0 70
8 2 7.71813535690307617 79 0 77
8 2 8.60534000396728516 80 0 37
7.16076898574829102 3 -9 31 83 101
8 3 -9.81681346893310547 17 23 127
8 3 -8.217681884765625 18 47 100
7.89235830307006836 3 8 88 0 43
8 3 7.89051342010498047 87 0 52
8 3 8.37620449066162109 88 0 8
7.35082721710205078 4 -9 29 53 97
8 4 -9.77765274047851562 52 16 123
8 4 -8.39481830596923828 21 17 96
8 3.59343218803405762 8 88 0 8
7.55162525177001953 5 -9 32 27 96
8 5 -9.71024799346923828 96 16 122
8 5 -8.5819854736328125 54 17 95
7.76273632049560547 6 -9 63 27 98
8 6 -9.56841373443603516 122 16 100
8 6 -8.77878856658935547 91 18 97
7.9837651252746582 7 -9 100 26 100
8 7 -9.08387470245361328 122 16 49
8 7 -8.98486232757568359 101 18 68
8 7.06934690475463867 -9 101 18 68
8.91120624542236328 -9 -9 117 141 18
8.83545970916748047 -9 -8 150 144 26
8.11632156372070312 -9 -7 157 127 34
8.63210582733154297 -9 7 0 46 43
8.87113475799560547 -9 8 0 13 24
8.91027259826660156 -8 -9 145 181 28
8.83191394805908203 -8 -8 188 188 38
8.6129150390625 -8 7 0 73 71
8.86902999877929688 -8 8 0 28 57
8.90879917144775391 -7 -9 156 210 37
8.82616043090820312 -7 -8 198 210 47
8.57919597625732422 -7 7 0 72 77
8.86565876007080078 -7 8 0 29 68
8.90672683715820312 -6 -9 147 221 42
8.81772327423095703 -6 -8 184 212 50
8.5230255126953125 -6 7 0 52 63
8.86081314086914062 -6 8 0 20 60
8.90396881103515625 -5 -9 121 216 43
8.80581378936767578 -5 -8 154 200 48
8.42628192901611328 -5 7 0 27 39
8.85416507720947266 -5 8 0 8 40
8.90039825439453125 -4 -9 87 201 40
8.78911781311035156 -4 -8 116 179 44
8.23940753936767578 -4 7 0 7 13
8.84520530700683594 -4 8 0 0 15
8.89583206176757812 -3 -9 51 181 36
8.76535415649414062 -3 -8 79 157 38
8.83312606811523438 -3 8 1 0 8
8.89000892639160156 -2 -9 32 161 47
8.73027420043945312 -2 -8 46 136 33
8.8166046142578125 -2 8 10 0 28
8.882537841796875 -1 -9 28 143 70
8.67505931854248047 -1 -8 28 118 39
8.79334259033203125 -1 8 28 0 46
8.87282657623291016 0 -9 25 128 91
8.57803726196289062 0 -8 24 103 56
8.75899600982666016 0 8 54 0 60
8.85992717742919922 1 -9 22 116 111
8.36810398101806641 1 -8 21 91 70
8.70429229736328125 1 8 71 0 57
8.84223461151123047 2 -9 20 81 106
8.60534000396728516 2 8 80 0 37
8.81681346893310547 3 -9 18 47 100
8.37620449066162109 3 8 88 0 8
8.77765274047851562 4 -9 21 17 96
8.71024799346923828 5 -9 54 17 95
8.56841373443603516 6 -9 91 18 97
8.08387470245361328 7 -9 101 18 68
3 2 1 0
3 1 4 3
3 0 1 3
3 4 6 5
3 3 4 5
3 6 7 5
3 10 9 8
3 9 12 11
3 8 9 11
3 12 13 11
3 15 2 0
3 14 15 0
3 0 3 14
3 3 16 14
3 3 5 16
3 5 17 16
3 7 18 17
3 5 7 17
3 20 10 8
3 19 20 8
3 8 11 19
3 11 21 19
3 13 22 21
3 11 13 21
3 24 15 14
3 23 24 14
3 14 16 23
3 16 25 23
3 16 17 25
3 17 26 25
3 18 27 26
3 17 18 26
3 29 20 19
3 28 29 19
3 19 21 28
3 21 30 28
3 22 31 30
3 21 22 30
3 33 24 23
3 32 33 23
3 23 25 32
3 25 34 32
3 25 26 34
3 26 35 34
3 27 36 35
3 26 27 35
3 38 29 28
3 37 38 28
3 28 30 37
3 30 39 37
3 31 40 39
3 30 31 39
3 42 33 32
3 41 42 32
3 32 34 41
3 34 43 41
3 34 35 43
3 35 44 43
3 36 45 44
3 35 36 44
3 47 38 37
3 46 47 37
3 37 39 46
3 39 48 46
3 40 49 48
3 39 40 48
3 51 42 41
3 50 51 41
3 41 43 50
3 43 52 50
3 43 44 52
3 44 53 52
3 45 54 53
3 44 45 53
3 56 47 46
3 55 56 46
3 46 48 55
3 48 57 55
3 49 58 57
3 48 49 57
3 60 51 50
3 59 60 50
3 50 52 59
3 52 61 59
3 52 53 61
3 53 62 61
3 54 63 62
3 53 54 62
3 65 56 55
3 64 65 55
3 55 57 64
3 57 66 64
3 58 67 66
3 57 58 66
3 69 60 59
3 68 69 59
3 59 61 68
3 61 70 68
3 61 62 70
3 62 71 70
3 63 72 71
3 62 63 71
3 74 65 64
3 73 74 64
3 64 66 73
3 66 75 73
3 67 76 75
3 66 67 75
3 78 69 68
3 77 78 68
3 68 70 77
3 70 79 77
3 80 81 79
3 80 79 71
3 71 79 70
3 71 72 80
3 83 74 73
3 82 83 73
3 73 75 82
3 75 84 82
3 76 85 84
3 75 76 84
3 87 78 77
3 86 87 77
3 77 79 86
3 79 88 86
3 81 89 88
3 79 81 88
3 91 83 82
3 90 91 82
3 82 84 90
3 84 92 90
3 85 93 92
3 84 85 92
3 95 87 86
3 94 95 86
3 86 88 94
3 88 96 94
3 89 97 96
3 88 89 96
3 91 90 98
3 100 98 90
3 100 90 99
3 99 90 92
3 93 101 99
3 92 93 99
3 103 95 94
3 102 103 94
3 94 96 102
3 96 104 102
3 97 105 104
3 96 97 104
3 107 100 99
3 106 107 99
3 101 108 106
3 99 101 106
3 110 103 102
3 109 110 102
3 102 104 109
3 104 111 109
3 105 112 111
3 104 105 111
3 114 107 106
3 113 114 106
3 108 115 113
3 106 108 113
3 117 110 109
3 116 117 109
3 109 111 116
3 111 118 116
3 112 119 118
3 111 112 118
3 121 114 113
3 120 121 113
3 115 122 120
3 113 115 120
3 124 117 116
3 123 124 116
3 125 126 123
3 125 123 118
3 118 123 116
3 118 119 125
3 128 121 120
3 127 128 120
3 122 129 127
3 120 122 127
3 131 124 123
3 130 131 123
3 126 132 130
3 123 126 130
3 128 127 133
3 127 129 133
3 135 131 130
3 134 135 130
3 132 136 134
3 130 132 134
3 138 135 134
3 137 138 134
3 136 139 137
3 134 136 137
3 138 137 140
3 137 139 140
3 2 142 141
3 1 2 141
3 141 143 1
3 1 143 4
3 145 144 6
3 145 6 143
3 143 6 4
3 6 144 7
3 9 10 146
3 146 148 147
3 146 147 9
3 9 147 12
3 12 147 149
3 13 12 149
3 142 2 150
3 150 2 15
3 152 144 145
3 151 144 152
3 144 151 18
3 7 144 18
3 153 146 10
3 20 153 10
3 148 153 154
3 146 153 148
3 149 155 13
3 155 22 13
3 150 15 156
3 156 15 24
3 158 151 152
3 157 151 158
3 151 157 27
3 18 151 27
3 159 153 20
3 29 159 20
3 154 159 160
3 153 159 154
3 155 161 22
3 161 31 22
3 156 24 162
3 162 24 33
3 164 157 158
3 163 157 164
3 157 163 36
3 27 157 36
3 165 159 29
3 38 165 29
3 160 165 166
3 159 165 160
3 161 167 31
3 167 40 31
3 162 33 168
3 168 33 42
3 170 163 164
3 169 163 170
3 163 169 45
3 36 163 45
3 171 165 38
3 47 171 38
3 166 171 172
3 165 171 166
3 167 173 40
3 173 49 40
3 168 42 174
3 174 42 51
3 176 169 170
3 175 169 176
3 169 175 54
3 45 169 54
3 177 171 47
3 56 177 47
3 172 177 178
3 171 177 172
3 173 179 49
3 179 58 49
3 174 51 180
3 180 51 60
3 182 175 176
3 181 175 182
3 175 181 63
3 54 175 63
3 183 177 56
3 65 183 56
3 178 183 184
3 177 183 178
3 179 185 58
3 185 67 58
3 180 60 186
3 186 60 69
3 189 187 188
3 188 181 182
3 188 187 181
3 187 190 181
3 181 190 72
3 63 181 72
3 191 183 65
3 74 191 65
3 184 191 192
3 183 191 184
3 185 193 67
3 193 76 67
3 186 69 194
3 194 69 78
3 196 187 189
3 195 187 196
3 81 80 190
3 81 190 195
3 195 190 187
3 190 80 72
3 197 191 74
3 83 197 74
3 192 197 198
3 191 197 192
3 193 199 76
3 199 85 76
3 194 78 200
3 200 78 87
3 202 195 196
3 201 195 202
3 195 201 89
3 81 195 89
3 203 197 83
3 91 203 83
3 198 204 205
3 198 197 204
3 197 203 204
3 205 204 93
3 205 93 199
3 199 93 85
3 200 87 206
3 206 87 95
3 208 201 202
3 207 201 208
3 201 207 97
3 89 201 97
3 203 91 98
3 98 100 209
3 98 209 203
3 203 209 204
3 204 209 101
3 93 204 101
3 206 95 210
3 210 95 103
3 212 207 208
3 211 207 212
3 207 211 105
3 97 207 105
3 213 209 100
3 107 213 100
3 209 213 108
3 101 209 108
3 210 103 214
3 214 103 110
3 216 211 212
3 215 211 216
3 211 215 112
3 105 211 112
3 217 213 107
3 114 217 107
3 213 217 115
3 108 213 115
3 214 110 218
3 218 110 117
3 220 215 216
3 219 215 220
3 215 219 119
3 112 215 119
3 221 217 114
3 121 221 114
3 217 221 122
3 115 217 122
3 222 223 218
3 222 218 124
3 124 218 117
3 219 126 125
3 220 126 219
3 220 222 126
3 220 223 222
3 219 125 119
3 224 221 121
3 128 224 121
3 221 224 129
3 122 221 129
3 225 222 124
3 131 225 124
3 222 225 132
3 126 222 132
3 224 128 133
3 224 133 129
3 226 225 131
3 135 226 131
3 225 226 136
3 132 225 136
3 227 226 135
3 138 227 135
3 226 227 139
3 136 226 139
3 227 138 140
3 227 140 139
3 142 229 228
3 141 142 228
3 231 230 143
3 231 143 228
3 228 143 141
3 143 230 145
3 147 148 232
3 147 232 149
3 229 142 233
3 233 142 150
3 235 230 231
3 234 230 235
3 230 234 152
3 145 230 152
3 236 232 148
3 154 236 148
3 232 236 155
3 149 232 155
3 233 150 237
3 237 150 156
3 239 234 235
3 238 234 239
3 234 238 158
3 152 234 158
3 240 236 154
3 160 240 154
3 236 240 161
3 155 236 161
3 237 156 241
3 241 156 162
3 243 238 239
3 242 238 243
3 238 242 164
3 158 238 164
3 244 240 160
3 166 244 160
3 240 244 167
3 161 240 167
3 241 162 245
3 245 162 168
3 247 242 243
3 246 242 247
3 242 246 170
3 164 242 170
3 248 244 166
3 172 248 166
3 244 248 173
3 167 244 173
3 245 168 249
3 249 168 174
3 251 246 247
3 250 246 251
3 246 250 176
3 170 246 176
3 252 248 172
3 178 252 172
3 248 252 179
3 173 248 179
3 249 174 253
3 253 174 180
3 255 250 251
3 254 250 255
3 250 254 182
3 176 250 182
3 256 252 178
3 184 256 178
3 252 256 185
3 179 252 185
3 253 180 257
3 257 180 186
3 254 189 188
3 254 255 189
3 255 258 189
3 254 188 182
3 259 256 184
3 192 259 184
3 256 259 193
3 185 256 193
3 260 261 257
3 260 257 194
3 194 257 186
3 261 260 196
3 261 196 258
3 258 196 189
3 262 259 192
3 198 262 192
3 259 262 199
3 193 259 199
3 263 260 194
3 200 263 194
3 260 263 202
3 196 260 202
3 262 198 205
3 262 205 199
3 264 263 200
3 206 264 200
3 263 264 208
3 202 263 208
3 265 264 206
3 210 265 206
3 264 265 212
3 208 264 212
3 266 265 210
3 214 266 210
3 265 266 216
3 212 265 216
3 267 266 214
3 218 267 214
3 266 267 220
3 216 266 220
3 267 218 223
3 267 223 220
3 228 229 268
3 228 268 231
3 269 268 229
3 233 269 229
3 268 269 235
3 231 268 235
3 270 269 233
3 237 270 233
3 269 270 239
3 235 269 239
3 271 270 237
3 241 271 237
3 270 271 243
3 239 270 243
3 272 271 241
3 245 272 241
3 271 272 247
3 243 271 247
3 273 272 245
3 249 273 245
3 272 273 251
3 247 272 251
3 274 273 249
3 253 274 249
3 273 274 255
3 251 273 255
3 275 274 253
3 257 275 253
3 274 275 258
3 255 274 258
3 275 257 261
3 275 261 258
3 278 277 276
3 277 279 276
3 281 278 276
3 280 281 276
3 279 282 280
3 276 279 280
3 284 281 280
3 283 284 280
3 282 285 283
3 280 282 283
3 287 284 283
3 286 287 283
3 285 288 286
3 283 285 286
3 287 286 289
3 286 288 289
3 278 291 290
3 277 278 290
3 277 290 292
3 279 277 292
3 295 294 293
3 294 296 293
3 291 278 297
3 297 278 281
3 292 298 279
3 298 282 279
3 300 295 293
3 299 300 293
3 296 301 299
3 293 296 299
3 297 281 302
3 302 281 284
3 298 303 282
3 303 285 282
3 305 300 299
3 304 305 299
3 301 306 304
3 299 301 304
3 302 284 307
3 307 284 287
3 303 308 285
3 308 288 285
3 310 305 304
3 309 310 304
3 306 311 309
3 304 306 309
3 289 312 313
3 289 313 287
3 287 313 307
3 312 289 288
3 312 288 314
3 314 288 308
3 316 310 309
3 315 316 309
3 311 317 315
3 309 311 315
3 319 313 312
3 318 319 312
3 314 320 318
3 312 314 318
3 322 316 315
3 321 322 315
3 317 323 321
3 315 317 321
3 325 319 318
3 324 325 318
3 320 326 324
3 318 320 324
3 322 321 327
3 321 323 327
3 329 325 324
3 328 329 324
3 326 330 328
3 324 326 328
3 332 329 328
3 331 332 328
3 330 333 331
3 328 330 331
3 335 332 331
3 334 335 331
3 333 336 334
3 331 333 334
3 338 335 334
3 337 338 334
3 336 339 337
3 334 336 337
3 341 338 337
3 340 341 337
3 339 342 340
3 337 339 340
3 341 340 343
3 340 342 343
3 291 345 344
3 290 291 344
3 346 292 290
3 346 290 347
3 347 290 344
3 347 349 348
3 346 347 348
3 349 350 348
3 353 352 351
3 295 351 352
3 295 352 294
3 294 352 354
3 294 354 355
3 296 294 355
3 345 291 356
3 356 291 297
3 357 292 346
3 298 292 357
3 358 359 357
3 358 357 348
3 348 357 346
3 348 350 358
3 361 353 351
3 360 361 351
3 351 300 360
3 295 300 351
3 355 362 296
3 362 301 296
3 356 297 363
3 363 297 302
3 364 298 357
3 303 298 364
3 359 365 364
3 357 359 364
3 367 361 360
3 366 367 360
3 360 305 366
3 300 305 360
3 362 368 301
3 368 306 301
3 363 302 369
3 369 302 307
3 370 303 364
3 308 303 370
3 365 371 370
3 364 365 370
3 373 367 366
3 372 373 366
3 366 310 372
3 305 310 366
3 368 374 306
3 374 311 306
3 369 307 375
3 375 307 313
3 376 308 370
3 314 308 376
3 371 377 376
3 370 371 376
3 379 373 372
3 378 379 372
3 372 316 378
3 310 316 372
3 374 380 311
3 380 317 311
3 375 313 381
3 381 313 319
3 382 314 376
3 320 314 382
3 377 383 382
3 376 377 382
3 385 379 378
3 384 385 378
3 378 322 384
3 316 322 378
3 380 386 317
3 386 323 317
3 381 319 387
3 387 319 325
3 388 320 382
3 326 320 388
3 383 389 388
3 382 383 388
3 385 384 390
3 392 327 391
3 390 327 392
3 390 322 327
3 390 384 322
3 391 327 323
3 391 323 393
3 393 323 386
3 387 325 394
3 394 325 329
3 395 326 388
3 330 326 395
3 389 396 395
3 388 389 395
3 398 392 391
3 397 398 391
3 393 399 397
3 391 393 397
3 394 329 400
3 400 329 332
3 401 330 395
3 333 330 401
3 396 402 401
3 395 396 401
3 404 398 397
3 403 404 397
3 399 405 403
3 397 399 403
3 400 332 406
3 406 332 335
3 407 333 401
3 336 333 407
3 402 408 407
3 401 402 407
3 410 404 403
3 409 410 403
3 405 411 409
3 403 405 409
3 406 335 412
3 412 335 338
3 413 336 407
3 339 336 413
3 408 414 413
3 407 408 413
3 416 410 409
3 415 416 409
3 411 417 415
3 409 411 415
3 412 338 418
3 418 338 341
3 419 339 413
3 419 420 339
3 420 342 339
3 413 414 419
3 422 416 415
3 421 422 415
3 417 423 421
3 415 417 421
3 343 424 425
3 343 425 341
3 341 425 418
3 424 343 342
3 424 342 426
3 426 342 420
3 428 422 421
3 427 428 421
3 423 429 427
3 421 423 427
3 431 425 424
3 430 431 424
3 426 432 430
3 424 426 430
3 428 427 433
3 427 429 433
3 435 431 430
3 434 435 430
3 432 436 434
3 430 432 434
3 438 435 434
3 437 438 434
3 436 439 437
3 434 436 437
3 441 438 437
3 440 441 437
3 439 442 440
3 437 439 440
3 441 440 443
3 440 442 443
3 344 345 444
3 347 344 444
3 445 347 444
3 349 347 445
3 446 349 445
3 349 446 350
3 352 353 447
3 354 352 447
3 448 354 447
3 354 448 355
3 449 444 345
3 356 449 345
3 444 449 445
3 445 449 450
3 359 358 446
3 359 446 450
3 450 446 445
3 446 358 350
3 451 447 353
3 361 451 353
3 447 451 448
3 448 451 452
3 448 452 362
3 355 448 362
3 453 449 356
3 363 453 356
3 449 453 450
3 450 453 454
3 450 454 365
3 359 450 365
3 455 451 361
3 367 455 361
3 451 455 452
3 452 455 456
3 452 456 368
3 362 452 368
3 457 453 363
3 369 457 363
3 453 457 454
3 454 457 458
3 454 458 371
3 365 454 371
3 459 455 367
3 373 459 367
3 455 459 456
3 456 459 460
3 456 460 374
3 368 456 374
3 461 457 369
3 375 461 369
3 457 461 458
3 458 461 462
3 458 462 377
3 371 458 377
3 463 459 373
3 379 463 373
3 459 463 460
3 460 463 464
3 460 464 380
3 374 460 380
3 465 461 375
3 381 465 375
3 461 465 462
3 462 465 466
3 462 466 383
3 377 462 383
3 467 463 379
3 385 467 379
3 463 467 464
3 464 467 468
3 464 468 386
3 380 464 386
3 469 465 381
3 387 469 381
3 465 469 466
3 466 469 470
3 466 470 389
3 383 466 389
3 467 385 390
3 390 392 471
3 390 471 467
3 467 471 468
3 468 471 393
3 386 468 393
3 472 469 387
3 394 472 387
3 469 472 470
3 470 472 473
3 470 473 396
3 389 470 396
3 474 471 392
3 398 474 392
3 471 474 399
3 393 471 399
3 475 472 394
3 400 475 394
3 472 475 473
3 473 475 476
3 473 476 402
3 396 473 402
3 477 474 398
3 404 477 398
3 474 477 405
3 399 474 405
3 478 475 400
3 406 478 400
3 475 478 476
3 476 478 479
3 476 479 408
3 402 476 408
3 480 477 404
3 410 480 404
3 477 480 411
3 405 477 411
3 481 478 406
3 412 481 406
3 478 481 479
3 479 481 482
3 479 482 414
3 408 479 414
3 483 480 410
3 416 483 410
3 480 483 417
3 411 480 417
3 484 481 412
3 418 484 412
3 420 419 482
3 420 482 484
3 484 482 481
3 482 419 414
3 485 483 416
3 422 485 416
3 483 485 423
3 417 483 423
3 486 484 418
3 425 486 418
3 484 486 426
3 420 484 426
3 487 485 422
3 428 487 422
3 485 487 429
3 423 485 429
3 488 486 425
3 431 488 425
3 486 488 432
3 426 486 432
3 487 428 433
3 487 433 429
3 489 488 431
3 435 489 431
3 488 489 436
3 432 488 436
3 490 489 435
3 438 490 435
3 489 490 439
3 436 489 439
3 491 490 438
3 441 491 438
3 490 491 442
3 439 490 442
3 491 441 443
3 491 443 442
