ply
format ascii 1.0
element vertex 270
property float x
property float y
property float z
property uchar red
property uchar green
property uchar blue
element face 536
property list uchar int vertex_indices
end_header
-3.00020694732666016 2 -1 251 230 200
-3 1.99953973293304443 -1 221 247 205
-3 2 -1.00048923492431641 250 211 207
-3.12693595886230469 2 0 251 229 200
-3 1.71755576133728027 0 222 247 205
-3 2 0.773380100727081299 250 214 207
-3.27334356307983398 3 -1 223 251 199
-3 3 -1.64685404300689697 251 248 207
-3.40297603607177734 3 0 223 251 199
-3.23559403419494629 3 1 219 251 199
-3 2.13747620582580566 1 250 208 207
-3 3 1.51096320152282715 249 250 207
-3.37556695938110352 4 -1 197 248 204
-3 4 -1.88907396793365479 224 248 205
-3.50634050369262695 4 0 197 248 206
-3.33747029304504395 4 1 197 248 212
-3 4 1.73218417167663574 219 248 206
-3.30265331268310547 5 -1 191 239 224
-3 5 -1.71629834175109863 198 240 200
-3.43258118629455566 5 0 191 239 231
-3.26478362083435059 5 1 190 237 239
-3 5 1.57441473007202148 200 240 213
-3.05803394317626953 6 -1 170 192 214
-3 6 -1.13723480701446533 179 216 204
-3.1853187084197998 6 0 170 182 213
-3.02096319198608398 6 1 170 169 211
-3 6 1.04545104503631592 180 208 215
-3 6.13874101638793945 -1 180 217 211
-3 6.44324445724487305 0 181 217 216
-3 6.05013179779052734 1 180 208 215
-2.33515167236328125 1 -1 221 247 205
-2 0.632014155387878418 -1 200 203 231
-2 1 -1.54683160781860352 212 246 219
-2.52263307571411133 1 0 222 247 205
-2 0.42615845799446106 0 200 207 231
-2.28063344955444336 1 1 230 247 205
-2 0.691899538040161133 1 201 217 232
-2 1 1.4196087121963501 212 246 214
-2.3731691837310791 2 -2 250 211 207
-2 1.42723977565765381 -2 212 246 219
-2 2 -2.35430598258972168 250 231 214
-2.94348335266113281 2 1 250 208 207
-2.26379704475402832 2 2 250 218 207
-2 1.59516477584838867 2 225 247 213
-2 2 2.23750114440917969 250 222 215
-2.77844858169555664 3 -2 251 248 207
-2 3 -2.73906302452087402 250 234 213
-2.66634774208068848 3 2 241 250 207
-2 3 2.59987592697143555 250 246 215
-2.93039965629577637 4 -2 224 248 205
-2 4 -2.8833000659942627 243 248 211
-2.81726622581481934 4 2 210 248 205
-2 4 2.73579025268554688 231 248 214
-2.82201838493347168 5 -2 198 240 200
-2 5 -2.78042101860046387 221 240 204
-2.70969939231872559 5 2 198 239 223
-2 5 2.63909316062927246 207 239 208
-2.45897364616394043 6 -2 179 216 204
-2 6 -2.43579626083374023 184 215 186
-2.34930825233459473 6 2 176 191 212
-2 6 2.31468582153320312 186 214 210
-2 6.75712776184082031 -2 187 218 193
-2.46532797813415527 7 -1 136 140 163
-2 7 -1.75949215888977051 141 163 164
-2.65429210662841797 7 0 136 136 163
-2.41060304641723633 7 1 141 134 160
-2 6.57667160034179688 2 186 214 210
-2 7 1.61462497711181641 142 153 163
-2 7.53955841064453125 -1 144 164 166
-2 7.75879716873168945 0 145 161 166
-2 7.4763636589050293 1 142 153 163
-1.32238507270812988 0 0 200 207 231
-1 -0.15408112108707428 0 180 162 173
-1 0 -0.984588384628295898 214 204 229
-1 0 0.759595870971679688 211 204 229
-1.50646722316741943 1 -2 212 246 219
-1 0.688045084476470947 -2 214 206 231
-1 1 -2.26976823806762695 218 246 231
-1 0.00325006432831287384 -1 214 204 229
-1 0.0654956325888633728 1 207 206 230
-1.31217408180236816 1 2 225 247 213
-1 0.807807207107543945 2 209 221 233
-1 1 2.15760517120361328 220 246 220
-1 2 -2.89922189712524414 250 247 220
-1 2 2.75023007392883301 250 234 223
-1.52444994449615479 3 -3 250 234 213
-1 2.25736117362976074 -3 250 247 220
-1 3 -3.19555354118347168 250 231 219
-1.23289120197296143 3 3 247 250 214
-1 2.67055702209472656 3 250 223 223
-1 3 3.08356571197509766 250 248 223
-1.78735470771789551 4 -3 243 248 211
-1 4 -3.29347085952758789 248 243 217
-1.49366450309753418 4 3 223 247 212
-1 4 3.17709898948669434 235 247 220
-1.59983932971954346 5 -3 221 240 204
-1 5 -3.22365212440490723 234 238 209
-1.30847179889678955 5 3 204 237 217
-1 5 3.11073637008666992 214 238 212
-1 5.95351696014404297 -3 234 240 211
-1 6 -2.9837334156036377 198 216 190
-1 5.49085044860839844 3 214 238 212
-1 6 2.83071684837341309 193 214 200
-1.73814713954925537 7 -2 141 163 164
-1 7 -2.39321398735046387 141 160 150
-1.5439983606338501 7 2 136 139 157
-1 7 2.27506542205810547 142 155 157
-1 7.48015928268432617 -2 147 165 156
-1.30469095706939697 8 -1 80 79 91
-1 8 -1.27898728847503662 79 85 89
-1.63586640357971191 8 0 81 79 90
-1.2097325325012207 8 1 81 77 88
-1 7.35432052612304688 2 142 155 157
-1 8 1.17629134654998779 79 82 86
-1 8.44478416442871094 -1 81 87 90
-1 8.62301445007324219 0 81 86 89
-1 8.35617542266845703 1 79 82 86
-0.978805303573608398 0 -1 214 204 229
0 -0.111041814088821411 -1 178 165 166
0 0 -1.21261394023895264 223 211 230
0 -0.268615752458572388 0 178 165 168
-0.571966350078582764 0 1 207 206 230
0 -0.0647605061531066895 1 182 169 177
0 0 1.11358582973480225 217 212 229
0 0.539292812347412109 -2 223 211 230
0 1 -2.3983912467956543 224 246 239
0 0.660605490207672119 2 215 220 233
0 1 2.27825236320495605 227 246 229
-0.246817708015441895 2 -3 250 247 220
0 1.94953739643096924 -3 224 246 239
0 2 -3.02186799049377441 250 245 225
0 2 2.87580561637878418 250 239 230
0 3 -3.28559374809265137 250 228 225
0 2.33335185050964355 3 250 231 230
0 3 3.16903519630432129 250 249 230
0 4 -3.38428974151611328 247 238 222
0 4 3.26334881782531738 240 247 228
0 5 -3.31392455101013184 238 236 214
0 5 3.19659924507141113 225 237 219
-0.878478467464447021 6 -3 198 216 190
0 6 -3.07783746719360352 204 210 189
0 5.87231016159057617 3 225 237 219
0 6 2.95755577087402344 200 213 199
0 6.19315338134765625 -3 207 215 195
0 7 -2.52298903465270996 143 157 144
0 7 2.3974151611328125 145 155 150
0 7.63877391815185547 -2 150 163 150
0 8 -1.49912965297698975 79 85 83
0 7.51213359832763672 2 145 155 150
0 8 1.37783694267272949 78 83 82
0 8.58699226379394531 -1 81 87 84
0 8.69376754760742188 0 81 86 84
0 8.54039096832275391 1 78 83 82
0.451108753681182861 0 -1 222 210 228
1 -0.022045256569981575 0 181 172 173
1 0 -0.141018033027648926 226 216 229
0.262710273265838623 0 1 217 212 229
1 0 0.10846371203660965 225 217 229
1 0.858756959438323975 -2 226 217 231
1 1 -2.12215209007263184 230 246 242
1 0.180825591087341309 -1 226 216 229
1 0.243200317025184631 1 223 220 230
1 0.97874826192855835 2 223 226 233
1 1 2.01742410659790039 235 246 235
0.113859787583351135 2 -3 246 250 226
1 2 -2.74549603462219238 246 250 232
1 2 2.60429930686950684 250 242 238
1 2.65013265609741211 -3 246 250 232
1 3 -3.09217023849487305 250 231 230
0.91270822286605835 3 3 250 249 230
1 3 2.97607922554016113 250 247 238
1 4 -3.18921709060668945 247 236 228
1 3.17243766784667969 3 249 250 238
1 4 3.07695937156677246 242 247 235
1 5 -3.12003827095031738 237 232 218
1 5 3.01139235496520996 231 236 225
0.405441522598266602 6 -3 207 215 195
1 5.51172208786010742 -3 239 234 222
1 6 -2.82923460006713867 210 212 198
1 5.05055475234985352 3 231 236 225
1 6 2.68494558334350586 206 210 203
1 7 -2.24476480484008789 146 152 143
1 7 2.13517355918884277 145 149 145
1 7.29908227920532227 -2 153 157 149
1 8 -1.02857184410095215 76 80 77
0.876008689403533936 8 1 78 83 82
1 7.95705986022949219 1 152 156 151
1 8 0.84999537467956543 79 80 78
1 7.17427444458007812 2 145 149 145
1 8.07648086547851562 -1 79 81 78
1 8.48533344268798828 0 79 80 78
1.03586721420288086 0 0 225 217 229
1.17844486236572266 1 -2 230 245 245
2 0.973505854606628418 -1 228 224 232
2 1 -1.03937935829162598 236 246 244
2 0.772123277187347412 0 228 226 232
1.95551586151123047 1 1 233 245 239
2 1 0.869488239288330078 239 246 243
1.0268176794052124 1 2 235 246 235
2 1.90525782108306885 -2 236 246 244
2 2 -2.05862927436828613 248 250 238
2 1.04905498027801514 1 240 246 242
1.93072378635406494 2 2 250 242 238
2 2 1.92555367946624756 250 247 244
1.19231915473937988 3 -3 250 235 232
2 3 -2.43609786033630371 250 239 237
2 2.1236574649810791 2 250 245 245
2 3 2.31259822845458984 250 249 245
1.39493465423583984 4 -3 248 237 230
2 4 -2.57747793197631836 247 239 235
1.16666233539581299 4 3 242 247 235
2 4 2.44612526893615723 246 247 243
1.25049948692321777 5 -3 239 234 222
2 5 -2.4766995906829834 237 232 226
1.02467203140258789 5 3 231 236 225
2 5 2.35190391540527344 235 236 233
2 6 -2.13884258270263672 207 206 198
2 6 2.03437256813049316 205 205 204
1.35780823230743408 7 -2 153 157 149
2 6.24142646789550781 -2 210 209 204
2 7 -1.24982202053070068 149 149 146
1.20823764801025391 7 2 145 149 145
2 6.06311178207397461 2 205 205 204
2 7 1.14901161193847656 147 148 147
1.02433896064758301 8 -1 79 81 78
2 7.17784261703491211 -1 151 152 150
1.28033137321472168 8 0 79 80 78
2 7.39338397979736328 0 151 151 150
2 7.11572456359863281 1 147 148 147
2.02072644233703613 1 -1 237 246 244
2.17820096015930176 1 0 239 246 243
2.05303788185119629 2 -2 247 250 239
2.58071112632751465 2 -1 247 249 240
2.74437880516052246 2 0 249 249 242
2.53160691261291504 2 1 250 247 244
2.39442014694213867 3 -2 250 241 239
2.93517518043518066 3 -1 250 242 241
3 2.71765470504760742 0 250 249 249
3 3 -0.611341118812561035 250 247 247
2.88480710983276367 3 1 250 247 245
3 3 0.468632996082305908 250 249 249
2.29812192916870117 3 2 250 249 245
2.52225518226623535 4 -2 247 241 237
3 3.48978781700134277 -1 250 247 247
3 4 -1.12069904804229736 246 244 242
3 3.86888027191162109 1 250 249 248
2.42543411254882812 4 2 246 247 243
3 4 1.02845799922943115 246 246 244
2.43117904663085938 5 -2 238 235 230
2.9735407829284668 5 -1 239 237 233
3 4.71914768218994141 -1 247 246 245
3 5 -0.841638267040252686 236 236 236
2.92367029190063477 5 1 237 238 235
3 4.1860346794128418 1 246 246 244
3 5 0.647395610809326172 236 235 234
2.33559942245483398 5 2 235 236 233
2.12564182281494141 6 -2 210 209 204
2.65640163421630859 6 -1 212 211 208
2.82153868675231934 6 0 212 212 209
3 5.43821382522583008 0 236 235 234
2.60816788673400879 6 1 209 209 208
2.03278851509094238 6 2 205 205 204
2.13165783882141113 7 -1 151 152 150
2.29110527038574219 7 0 151 151 150
2.0856175422668457 7 1 147 148 147
3.0691380500793457 3 0 250 249 249
3.04569888114929199 4 -1 247 246 245
3.15929746627807617 4 0 247 246 246
3.01177167892456055 4 1 246 246 244
3.09535932540893555 5 0 236 235 234
3 2 1 0
3 1 4 3
3 0 1 3
3 4 5 3
3 7 2 0
3 6 7 0
3 0 3 6
3 3 8 6
3 5 10 9
3 5 9 3
3 3 9 8
3 10 11 9
3 13 7 6
3 12 13 6
3 6 8 12
3 8 14 12
3 8 9 14
3 9 15 14
3 11 16 15
3 9 11 15
3 18 13 12
3 17 18 12
3 12 14 17
3 14 19 17
3 14 15 19
3 15 20 19
3 16 21 20
3 15 16 20
3 23 18 17
3 22 23 17
3 17 19 22
3 19 24 22
3 19 20 24
3 20 25 24
3 21 26 25
3 20 21 25
3 23 22 27
3 22 24 28
3 27 22 28
3 24 25 29
3 28 24 29
3 25 26 29
3 32 31 30
3 31 34 33
3 30 31 33
3 34 36 35
3 33 34 35
3 36 37 35
3 40 39 38
3 30 1 2
3 32 30 2
3 32 2 38
3 32 38 39
3 33 1 30
3 4 1 33
3 4 41 5
3 4 33 41
3 33 35 41
3 37 43 42
3 37 42 35
3 35 42 41
3 43 44 42
3 46 40 38
3 45 46 38
3 38 7 45
3 2 7 38
3 41 10 5
3 10 47 11
3 10 41 47
3 41 42 47
3 44 48 47
3 42 44 47
3 50 46 45
3 49 50 45
3 45 13 49
3 7 13 45
3 51 11 47
3 16 11 51
3 48 52 51
3 47 48 51
3 54 50 49
3 53 54 49
3 49 18 53
3 13 18 49
3 55 16 51
3 21 16 55
3 52 56 55
3 51 52 55
3 58 54 53
3 57 58 53
3 53 23 57
3 18 23 53
3 59 21 55
3 26 21 59
3 56 60 59
3 55 56 59
3 58 57 61
3 63 27 62
3 61 27 63
3 61 23 27
3 61 57 23
3 28 62 27
3 64 62 28
3 29 64 28
3 65 64 29
3 65 66 67
3 29 66 65
3 29 59 66
3 29 26 59
3 59 60 66
3 63 62 68
3 62 64 69
3 68 62 69
3 64 65 70
3 69 64 70
3 65 67 70
3 73 72 71
3 72 74 71
3 77 76 75
3 32 75 76
3 32 76 31
3 31 76 78
3 71 78 73
3 71 34 78
3 34 31 78
3 74 34 71
3 74 79 34
3 79 36 34
3 80 37 36
3 80 36 81
3 81 36 79
3 81 82 80
3 75 39 40
3 75 40 77
3 77 40 83
3 75 32 39
3 80 43 37
3 43 80 82
3 43 82 44
3 44 82 84
3 87 86 85
3 86 46 85
3 86 83 46
3 83 40 46
3 88 84 89
3 88 48 84
3 48 44 84
3 89 90 88
3 92 87 85
3 91 92 85
3 85 50 91
3 46 50 85
3 93 48 88
3 52 48 93
3 90 94 93
3 88 90 93
3 96 92 91
3 95 96 91
3 91 54 95
3 50 54 91
3 97 52 93
3 56 52 97
3 94 98 97
3 93 94 97
3 96 95 99
3 95 100 99
3 95 54 100
3 54 58 100
3 101 56 97
3 101 102 56
3 102 60 56
3 97 98 101
3 61 103 104
3 61 104 58
3 58 104 100
3 61 63 103
3 66 105 67
3 105 66 60
3 105 60 106
3 106 60 102
3 104 103 107
3 109 68 108
3 107 68 109
3 107 63 68
3 107 103 63
3 69 108 68
3 110 108 69
3 70 110 69
3 111 110 70
3 111 112 113
3 70 112 111
3 70 105 112
3 70 67 105
3 105 106 112
3 109 108 114
3 108 110 115
3 114 108 115
3 110 111 116
3 115 110 116
3 111 113 116
3 119 118 117
3 73 117 118
3 73 118 72
3 72 118 120
3 121 74 72
3 121 72 122
3 122 72 120
3 122 123 121
3 77 125 124
3 76 77 124
3 117 124 119
3 117 78 124
3 78 76 124
3 117 73 78
3 121 79 74
3 123 79 121
3 123 126 79
3 126 81 79
3 81 126 127
3 82 81 127
3 130 129 128
3 129 83 128
3 129 125 83
3 125 77 83
3 127 131 82
3 131 84 82
3 128 86 87
3 128 87 130
3 130 87 132
3 128 83 86
3 131 89 84
3 133 89 131
3 89 133 134
3 90 89 134
3 132 87 135
3 135 87 92
3 134 136 90
3 136 94 90
3 135 92 137
3 137 92 96
3 136 138 94
3 138 98 94
3 99 139 140
3 99 140 96
3 96 140 137
3 99 100 139
3 102 141 142
3 101 141 102
3 141 101 98
3 138 141 98
3 140 139 143
3 139 144 143
3 139 100 144
3 100 104 144
3 142 145 102
3 145 106 102
3 144 104 107
3 146 144 107
3 107 147 146
3 109 147 107
3 113 148 149
3 112 148 113
3 148 112 106
3 145 148 106
3 147 109 114
3 150 147 114
3 150 114 151
3 114 115 151
3 151 115 152
3 115 116 152
3 152 116 113
3 149 152 113
3 118 119 153
3 153 155 154
3 153 154 118
3 118 154 120
3 157 156 122
3 157 122 154
3 154 122 120
3 122 156 123
3 125 159 158
3 124 125 158
3 119 160 153
3 119 124 160
3 124 158 160
3 153 160 155
3 157 161 156
3 156 126 123
3 156 161 126
3 161 162 126
3 126 162 163
3 127 126 163
3 129 130 164
3 164 125 129
3 164 165 125
3 165 159 125
3 163 166 127
3 166 131 127
3 167 164 130
3 167 130 168
3 168 130 132
3 164 167 165
3 133 170 169
3 133 131 170
3 131 166 170
3 133 169 134
3 168 132 171
3 171 132 135
3 170 172 169
3 169 172 173
3 169 173 134
3 134 173 136
3 171 135 174
3 174 135 137
3 173 175 136
3 175 138 136
3 176 177 174
3 176 174 140
3 140 174 137
3 177 176 178
3 142 179 180
3 141 179 142
3 179 141 138
3 175 179 138
3 176 140 143
3 143 178 176
3 143 144 178
3 144 181 178
3 180 182 142
3 182 145 142
3 181 144 146
3 183 181 146
3 146 184 183
3 147 184 146
3 187 185 186
3 149 186 185
3 149 148 186
3 148 188 186
3 188 148 145
3 182 188 145
3 184 147 150
3 189 184 150
3 189 150 190
3 150 151 190
3 185 187 190
3 185 190 152
3 152 190 151
3 185 152 149
3 154 155 191
3 154 191 157
3 158 159 192
3 192 194 193
3 192 193 158
3 158 193 160
3 155 195 191
3 155 160 195
3 160 193 195
3 197 196 161
3 195 197 161
3 195 161 157
3 195 157 191
3 162 161 196
3 198 162 196
3 162 198 163
3 199 192 159
3 199 159 200
3 200 159 165
3 192 199 194
3 197 201 196
3 203 196 201
3 203 202 196
3 202 198 196
3 198 202 166
3 163 198 166
3 167 168 204
3 204 165 167
3 204 205 165
3 205 200 165
3 203 206 202
3 202 206 207
3 202 207 166
3 166 207 170
3 208 204 168
3 171 208 168
3 205 208 209
3 204 208 205
3 172 211 210
3 172 170 211
3 170 207 211
3 172 210 173
3 212 208 171
3 174 212 171
3 209 212 213
3 208 212 209
3 215 210 211
3 214 210 215
3 210 214 175
3 173 210 175
3 212 174 177
3 177 213 212
3 177 178 213
3 178 216 213
3 214 180 179
3 214 215 180
3 215 217 180
3 214 179 175
3 218 219 216
3 218 216 181
3 181 216 178
3 219 218 220
3 223 221 222
3 222 221 182
3 222 182 217
3 217 182 180
3 218 181 183
3 183 184 224
3 218 183 224
3 218 224 225
3 218 225 220
3 225 226 227
3 224 226 225
3 187 227 226
3 187 186 227
3 186 228 227
3 221 223 228
3 221 228 188
3 188 228 186
3 221 188 182
3 224 184 189
3 226 224 189
3 190 226 189
3 226 190 187
3 193 194 229
3 195 193 229
3 230 195 229
3 195 230 197
3 199 200 231
3 194 199 231
3 194 231 229
3 229 231 232
3 229 232 230
3 230 232 233
3 201 197 230
3 201 230 234
3 234 230 233
3 201 234 203
3 235 231 200
3 205 235 200
3 231 235 232
3 232 235 236
3 237 236 238
3 237 233 236
3 233 232 236
3 240 233 237
3 240 239 233
3 239 234 233
3 206 203 234
3 206 234 241
3 241 234 239
3 206 241 207
3 242 235 205
3 209 242 205
3 243 242 244
3 243 236 242
3 236 235 242
3 236 243 238
3 240 245 239
3 247 239 245
3 247 246 239
3 246 241 239
3 241 246 211
3 207 241 211
3 248 242 209
3 213 248 209
3 244 249 250
3 244 242 249
3 242 248 249
3 250 249 251
3 254 252 253
3 253 246 247
3 253 252 246
3 252 255 246
3 246 255 215
3 211 246 215
3 256 248 213
3 216 256 213
3 248 256 249
3 249 256 257
3 251 258 259
3 251 249 258
3 249 257 258
3 259 252 254
3 259 258 252
3 258 260 252
3 252 260 255
3 255 260 261
3 255 261 217
3 215 255 217
3 256 216 219
3 219 220 262
3 219 262 256
3 256 262 257
3 257 262 258
3 258 262 263
3 258 263 260
3 260 263 264
3 223 222 261
3 223 261 264
3 264 261 260
3 261 222 217
3 262 220 225
3 263 262 225
3 227 263 225
3 264 263 227
3 228 264 227
3 264 228 223
3 237 238 265
3 237 265 240
3 243 244 266
3 238 243 266
3 238 266 265
3 265 266 267
3 245 240 265
3 245 265 268
3 268 265 267
3 245 268 247
3 266 244 250
3 250 251 269
3 250 269 266
3 266 269 267
3 254 253 268
3 254 268 269
3 269 268 267
3 268 253 247
3 269 251 259
3 269 259 254
