ply
format ascii 1.0
element vertex 636
property float x
property float y
property float z
property uchar red
property uchar green
property uchar blue
element face 1272
property list uchar int vertex_indices
end_header
-9.82530307769775391 8 -9 95 251 135
-9 7.16171646118164062 -9 106 249 109
-9 8 -9.82530307769775391 97 251 140
-9.80830097198486328 8 -8 115 249 144
-9 7.25736093521118164 -8 128 247 126
-9.79045295715332031 8 -7 133 248 155
-9 7.33986377716064453 -7 149 245 144
-9.77234649658203125 8 -6 149 247 166
-9 7.40948343276977539 -6 165 242 161
-9.75484180450439453 8 -5 162 245 176
-9 7.46643304824829102 -5 178 240 173
-9.73905467987060547 8 -4 172 243 185
-9 7.51088094711303711 -4 186 237 183
-9.72625637054443359 8 -3 178 241 190
-9 7.54295635223388672 -3 191 234 188
-9.71767520904541016 8 -2 181 240 193
-9 7.56275177001953125 -2 192 232 190
-9.71424102783203125 8 -1 180 239 194
-9 7.57032251358032227 -1 189 230 189
-9.71635246276855469 8 0 176 238 192
-9 7.56569051742553711 0 184 228 185
-9.72376251220703125 8 1 168 237 188
-9 7.54884195327758789 1 177 227 179
-9.73565101623535156 8 2 158 237 183
-9 7.5197300910949707 2 166 227 171
-9.75083732604980469 8 3 145 237 177
-9 7.478271484375 3 154 228 161
-9.76803874969482422 8 4 131 238 170
-9 7.42434597015380859 4 140 229 150
-9.78608989715576172 8 5 115 239 162
-9 7.35779428482055664 5 124 231 137
-9.80406379699707031 8 6 98 241 154
-9 7.27841520309448242 6 106 234 124
-9.82130908966064453 8 7 80 243 145
-9 7.18596076965332031 7 89 237 110
-9.83742523193359375 8 8 64 245 136
-9 7.08013391494750977 8 71 240 95
-9 8 8.83742523193359375 81 242 138
-9 8.82530307769775391 -9 119 249 150
-9 8.80830097198486328 -8 141 248 162
-9 8.79045295715332031 -7 160 246 176
-9 8.77234649658203125 -6 178 244 189
-9 8.75484180450439453 -5 192 242 199
-9 8.73905467987060547 -4 202 239 208
-9 8.72625637054443359 -3 208 237 213
-9 8.71767520904541016 -2 210 235 215
-9 8.71424102783203125 -1 209 233 214
-9 8.71635246276855469 0 204 232 211
-9 8.72376251220703125 1 196 231 205
-9 8.73565101623535156 2 185 231 199
-9 8.75083732604980469 3 172 232 190
-9 8.76803874969482422 4 156 233 181
-9 8.78608989715576172 5 139 234 172
-9 8.80406379699707031 6 120 237 161
-9 8.82130908966064453 7 100 239 150
-9 8.83742523193359375 8 81 242 138
-8 7.27498245239257812 -9 127 247 128
-8 8 -9.80476760864257812 117 250 152
-8 7.36976814270019531 -8 152 245 149
-8 7.45154333114624023 -7 173 242 169
-8 7.52055931091308594 -6 190 239 186
-8 7.57702159881591797 -5 202 236 199
-8 7.6210942268371582 -4 210 232 208
-8 7.65290117263793945 -3 214 229 213
-8 7.6725316047668457 -2 215 226 214
-8 7.68003988265991211 -1 212 223 212
-8 7.6754460334777832 0 207 221 207
-8 7.6587376594543457 1 199 220 199
-8 7.62986898422241211 2 188 220 189
-8 7.5887598991394043 3 175 221 178
-8 7.5352940559387207 4 161 222 165
-8 7.46931743621826172 5 144 225 151
-8 7.39063501358032227 6 126 229 136
-8 7.29900789260864258 7 107 233 119
-8 7.19414615631103516 8 87 237 102
-8 8 8.819915771484375 99 238 142
-8 8.80476760864257812 -9 142 248 165
-8 8.7830657958984375 -8 166 246 181
-8 8.7596893310546875 -7 187 244 196
-8 8.73532772064208984 -6 205 241 210
-8 8.71112918853759766 -5 219 238 221
-8 8.68873977661132812 -4 228 235 229
-8 8.67017936706542969 -3 231 232 231
-8 8.65752506256103516 -2 224 230 225
-8 8.65241336822509766 -1 222 228 223
-8 8.65555953979492188 0 224 226 224
-8 8.66652011871337891 1 220 225 221
-8 8.68383979797363281 2 209 225 213
-8 8.70550155639648438 3 195 225 204
-8 8.72943210601806641 4 179 227 193
-8 8.75387859344482422 5 161 229 182
-8 8.77757167816162109 6 141 232 169
-8 8.79971790313720703 7 120 235 156
-8 8.819915771484375 8 99 238 142
-7 7.37485265731811523 -9 149 245 148
-7 8 -9.7817535400390625 138 248 165
-7 7.46889686584472656 -8 175 243 172
-7 7.55004549026489258 -7 195 239 192
-7 7.61854171752929688 -6 211 235 209
-7 7.67458486557006836 -5 222 231 221
-7 7.71833419799804688 -4 225 227 224
-7 7.74991035461425781 -3 213 223 212
-7 7.76939916610717773 -2 205 219 204
-7 7.77685308456420898 -1 202 215 201
-7 7.7722926139831543 0 202 213 202
-7 7.75570440292358398 1 208 212 208
-7 7.72704505920410156 2 205 212 205
-7 7.68623685836791992 3 193 213 194
-7 7.63316631317138672 4 178 215 180
-7 7.56768512725830078 5 162 219 165
-7 7.48960304260253906 6 144 223 148
-7 7.39868831634521484 7 123 228 130
-7 7.29465961456298828 8 102 233 110
-7 8 8.80065250396728516 116 235 148
-7 8.7817535400390625 -9 164 246 181
-7 8.75401973724365234 -8 189 244 199
-7 8.72324657440185547 -7 211 241 215
-7 8.69013500213623047 -6 229 238 230
-7 8.6561431884765625 -5 226 234 227
-7 8.62366199493408203 -4 210 230 213
-7 8.59595394134521484 -3 199 227 203
-7 8.57663917541503906 -2 192 224 197
-7 8.56873703002929688 -1 189 221 195
-7 8.57360744476318359 0 191 219 196
-7 8.59040355682373047 1 197 218 201
-7 8.61641788482666016 2 207 218 210
-7 8.64807415008544922 3 214 219 215
-7 8.68195724487304688 4 199 220 204
-7 8.71544742584228516 5 181 223 192
-7 8.74687290191650391 6 161 227 179
-7 8.77537059783935547 7 139 231 164
-7 8.80065250396728516 8 116 235 148
-6 7.46164512634277344 -9 168 243 167
-6 8 -9.75642299652099609 156 247 178
-6 7.55505895614624023 -8 194 240 191
-6 7.63567447662353516 -7 213 236 212
-6 7.70372819900512695 -6 228 231 228
-6 7.7594151496887207 -5 215 226 213
-6 7.80288982391357422 -4 199 221 196
-6 7.83426952362060547 -3 187 216 184
-6 7.8536381721496582 -2 179 211 176
-6 7.86104631423950195 -1 174 207 172
-6 7.85651350021362305 0 175 205 173
-6 7.84002828598022461 1 179 203 179
-6 7.81154680252075195 2 189 203 189
-6 7.77099370956420898 3 204 205 204
-6 7.71825933456420898 4 193 208 193
-6 7.65319919586181641 5 177 212 177
-6 7.57562828063964844 6 159 218 160
-6 7.48532009124755859 7 138 223 141
-6 7.38200044631958008 8 116 229 119
-6 8 8.77988052368164062 131 231 155
-6 8.75642299652099609 -9 184 244 196
-6 8.72107601165771484 -8 210 241 215
-6 8.68050956726074219 -7 231 238 232
-6 8.63519287109375 -6 219 234 221
-6 8.58676624298095703 -5 199 230 202
-6 8.53857803344726562 -4 182 225 188
-6 8.49590206146240234 -3 171 221 177
-6 8.4652557373046875 -2 164 217 171
-6 8.45249843597412109 -1 161 214 169
-6 8.46037673950195312 0 162 212 171
-6 8.48717308044433594 1 168 210 177
-6 8.52756309509277344 2 179 210 185
-6 8.57497406005859375 3 194 212 198
-6 8.62372303009033203 4 214 214 214
-6 8.66999435424804688 5 197 218 202
-6 8.71178245544433594 6 177 222 188
-6 8.74838638305664062 7 155 227 172
-6 8.77988052368164062 8 131 231 155
-5 7.53562831878662109 -9 184 241 183
-5 8 -9.72929573059082031 172 246 190
-5 7.62851476669311523 -8 209 237 207
-5 7.70868396759033203 -7 228 232 227
-5 7.77636814117431641 -6 213 227 212
-5 7.83175754547119141 -5 193 221 190
-5 7.87500286102294922 -4 177 215 173
-5 7.90621852874755859 -3 165 209 160
-5 7.92548656463623047 -2 157 204 152
-5 7.93285655975341797 -1 152 200 148
-5 7.92834711074829102 0 152 197 149
-5 7.91194725036621094 1 157 195 155
-5 7.88361406326293945 2 166 195 165
-5 7.84327459335327148 3 180 198 180
-5 7.79082107543945312 4 200 201 200
-5 7.72611284255981445 5 188 207 188
-5 7.64896917343139648 6 171 213 171
-5 7.55916833877563477 7 151 219 151
-5 7.45644283294677734 8 129 225 128
-5 8 8.75811672210693359 144 228 162
-5 8.72929573059082031 -9 201 243 209
-5 8.68460655212402344 -8 227 239 229
-5 8.63136386871337891 -7 222 235 223
-5 8.56926059722900391 -6 196 230 201
-5 8.49961471557617188 -5 175 225 181
-5 8.42669010162353516 -4 159 220 167
-5 8.35885715484619141 -3 148 215 156
-5 8.30813407897949219 -2 141 210 150
-5 8.2864990234375 -1 138 207 148
-5 8.29989719390869141 0 139 204 150
-5 8.34458637237548828 1 145 203 155
-5 8.40948486328125 2 155 203 164
-5 8.48211383819580078 3 170 205 177
-5 8.55308055877685547 4 190 208 194
-5 8.61720752716064453 5 209 212 210
-5 8.67259788513183594 6 190 217 196
-5 8.71926975250244141 7 168 223 180
-5 8.75811672210693359 8 144 228 162
-4 7.59702301025390625 -9 197 240 196
-4 8 -9.70139980316162109 186 244 199
-4 7.68947839736938477 -8 221 235 220
-4 7.76928377151489258 -7 220 229 219
-4 7.83666658401489258 -6 196 223 193
-4 7.89181280136108398 -5 176 216 171
-4 7.93487071990966797 -4 160 209 154
-4 7.96595335006713867 -3 148 203 141
-4 7.98513936996459961 -2 140 197 133
-4 7.99247837066650391 -1 135 192 130
-4 7.98798799514770508 0 135 189 131
-4 7.97165727615356445 1 139 188 136
-4 7.94344520568847656 2 148 188 146
-4 7.90327978134155273 3 162 191 161
-4 7.85105562210083008 4 182 196 181
-4 7.78663444519042969 5 197 201 197
-4 7.7098393440246582 6 181 208 180
-4 7.620452880859375 7 162 215 160
-4 7.51821279525756836 8 140 222 138
-4 8 8.73624134063720703 154 225 168
-4 8.70139980316162109 -9 215 241 220
-4 8.64575767517089844 -8 233 237 234
-4 8.57675933837890625 -7 203 232 207
-4 8.49230575561523438 -6 178 226 184
-4 8.39209270477294922 -5 157 221 164
-4 8.28034400939941406 -4 141 215 150
-4 8.16951847076416016 -3 130 209 139
-4 8.08191490173339844 -2 123 204 133
-4 8.04323291778564453 -1 120 200 131
-4 8.06728267669677734 0 121 198 132
-4 8.14529609680175781 1 127 196 138
-4 8.25288772583007812 2 137 197 147
-4 8.36593532562255859 3 152 199 160
-4 8.46956062316894531 4 172 203 177
-4 8.55789470672607422 5 197 208 199
-4 8.63045883178710938 6 200 213 203
-4 8.68909072875976562 7 179 219 186
-4 8.73624134063720703 8 154 225 168
-3 7.64600753784179688 -9 206 238 206
-3 8 -9.67439556121826172 196 243 207
-3 7.73812389373779297 -8 229 232 229
-3 7.8176422119140625 -7 207 226 205
-3 7.88478803634643555 -6 183 219 178
-3 7.9397435188293457 -5 163 212 157
-3 7.98265457153320312 -4 147 204 140
-3.28664159774780273 8 -3 130 209 139
-3 8 -3.4406278133392334 128 210 137
-3.68866348266601562 8 -2 123 204 133
-3.84241890907287598 8 -1 120 200 131
-3.74834489822387695 8 0 121 198 132
-3.4061739444732666 8 1 127 196 138
-3 7.99119997024536133 2 136 183 132
-3 8 1.68746805191040039 114 191 125
-3 7.95117092132568359 3 150 186 147
-3 7.89912700653076172 4 169 191 167
-3 7.83493185043334961 5 193 197 193
-3 7.75841093063354492 6 187 205 187
-3 7.66935062408447266 7 169 212 167
-3 7.56749248504638672 8 149 220 145
-3 8 8.71553516387939453 162 223 172
-3 8.67439556121826172 -9 225 239 228
-3 8.60677719116210938 -8 219 235 222
-3 8.51947784423828125 -7 189 229 195
-3 8.40705776214599609 -6 164 223 171
-3 8.2649993896484375 -5 143 217 152
-3 8.09430408477783203 -4 128 210 137
-3 8.05020713806152344 2 124 192 134
-3 8.22625732421875 3 139 194 147
-3 8.37566947937011719 4 158 199 165
-3 8.49491405487060547 5 183 204 186
-3 8.58775711059570312 6 207 210 208
-3 8.65964412689208984 7 186 216 191
-3 8.71553516387939453 8 162 223 172
-2 7.68272018432617188 -9 212 236 212
-2 8 -9.65054988861083984 202 242 211
-2 7.77458477020263672 -8 226 230 226
-2 7.85389089584350586 -7 197 224 195
-2 7.92086076736450195 -6 173 216 169
-2 7.97567462921142578 -5 154 208 147
-2.5164644718170166 8 -4 128 210 137
-2 8 -4.43247413635253906 134 213 143
-2.75468993186950684 8 2 124 192 134
-2 7.98707294464111328 3 142 183 139
-2 8 2.67690062522888184 115 188 125
-2 7.93516302108764648 4 161 188 159
-2 7.87113475799560547 5 184 195 184
-2 7.79481744766235352 6 191 202 191
-2 7.70599889755249023 7 174 210 172
-2 7.60442399978637695 8 154 218 150
-2 8 8.69762325286865234 167 221 176
-2 8.65054988861083984 -9 231 238 232
-2 8.57117366790771484 -8 210 233 214
-2 8.46483039855957031 -7 180 227 187
-2 8.32104396820068359 -6 155 220 163
-2 8.12735748291015625 -5 134 213 143
-2 8.07203292846679688 3 130 191 139
-2 8.27944278717041016 4 150 196 157
-2 8.43408870697021484 5 174 201 178
-2 8.54838371276855469 6 204 208 204
-2 8.63344860076904297 7 191 214 195
-2 8.69762325286865234 8 167 221 176
-1 7.70726299285888672 -9 215 235 214
-1 8 -9.63247013092041016 205 241 214
-1 7.79896068572998047 -8 222 229 221
-1 7.87812614440917969 -7 192 222 190
-1 7.94497919082641602 -6 168 214 164
-1 7.99969959259033203 -5 149 205 142
-1 8 -4.99299097061157227 129 211 139
-1.4619520902633667 8 3 130 191 139
-1 7.95925664901733398 4 157 187 155
-1 8 3.21443939208984375 126 190 135
-1 7.8953394889831543 5 181 193 180
-1 7.81915712356567383 6 193 201 192
-1 7.730499267578125 7 176 209 174
-1 7.62911176681518555 8 156 217 152
-1 8 8.68426895141601562 169 220 177
-1 8.63247013092041016 -9 234 237 234
-1 8.54340457916259766 -8 205 231 210
-1 8.42056941986083984 -7 175 225 182
-1 8.24774932861328125 -6 150 218 158
-1 8.00180244445800781 -5 129 211 139
-1 8.19623565673828125 4 146 194 153
-1 8.38428497314453125 5 170 200 175
-1 8.51742362976074219 6 200 207 201
-1 8.61346530914306641 7 193 213 196
-1 8.68426895141601562 8 169 220 177
0 7.71970272064208984 -9 214 235 213
0 8 -9.6225433349609375 204 241 213
0 7.81131649017333984 -8 221 228 221
0 7.8904109001159668 -7 192 221 189
0 7.95720529556274414 -6 167 213 163
-0.97535252571105957 8 -5 129 211 139
0 8 -5.21796321868896484 149 217 158
0 7.97147035598754883 4 158 187 155
0 8 3.44995856285095215 127 189 135
0 7.90760946273803711 5 181 194 181
0 7.83149480819702148 6 192 201 192
0 7.74291753768920898 7 175 209 173
0 7.64162540435791016 8 155 217 151
0 8 8.67701816558837891 169 220 176
0 8.6225433349609375 -9 233 236 234
0 8.52786350250244141 -8 205 231 210
0 8.39514064788818359 -7 175 224 182
0 8.20407390594482422 -6 149 217 158
0 8.14611244201660156 4 146 194 153
0 8.35545158386230469 5 171 200 175
0 8.5 6 200 207 201
0 8.60244846343994141 7 192 213 196
0 8.67701816558837891 8 169 220 176
1 7.72007417678833008 -9 209 235 209
1 8 -9.6222381591796875 200 241 211
1 7.81168508529663086 -8 225 228 225
1 7.890777587890625 -7 195 221 193
1 7.95757007598876953 -6 171 212 167
1 8 -5.22463035583496094 153 217 162
1 7.97183465957641602 4 163 189 161
1 8 3.4569847583770752 132 191 140
1 7.90797519683837891 5 187 195 186
1 7.8318629264831543 6 190 202 189
1 7.74328804016113281 7 172 210 170
1 7.6419987678527832 8 152 218 148
1 8 8.67679595947265625 165 221 174
1 8.6222381591796875 -9 229 236 230
1 8.52738285064697266 -8 209 231 213
1 8.39434719085693359 -7 179 224 186
1 8.20269203186035156 -6 153 217 162
1 8.14451980590820312 4 152 196 158
1 8.35454845428466797 5 176 201 180
1 8.49946022033691406 6 206 208 206
1 8.60210990905761719 7 189 214 193
1 8.67679595947265625 8 165 221 174
2 7.70837736129760742 -9 202 235 202
2 8 -9.63160324096679688 193 242 206
2 7.80006742477416992 -8 224 229 224
2 7.8792266845703125 -7 203 222 202
2 7.94607448577880859 -6 178 213 175
2 8 -5.01450681686401367 162 218 170
2 7.96035099029541016 4 172 192 171
2 8 3.23553824424743652 141 194 149
2 7.8964385986328125 5 196 198 196
2 7.82026243209838867 6 185 205 184
2 7.73161172866821289 7 166 212 164
2 7.63023281097412109 8 145 219 142
2 8 8.68363380432128906 159 222 170
2 8.63160324096679688 -9 221 237 224
2 8.54205608367919922 -8 218 231 221
2 8.4183807373046875 -7 188 225 194
2 8.24403667449951172 -6 162 218 170
2 8.19198989868164062 4 161 198 167
2 8.38181018829345703 5 186 204 189
2 8.51591396331787109 6 204 210 205
2 8.61250400543212891 7 183 216 189
2 8.68363380432128906 8 159 222 170
3 7.68458080291748047 -9 191 236 192
3 8 -9.64924430847167969 182 242 198
3 7.77643251419067383 -8 214 230 214
3 7.8557281494140625 -7 216 223 215
3 7.92268896102905273 -6 190 216 189
2.03399419784545898 8 -5 141 210 150
3 7.97749614715576172 -5 170 208 167
3 8 -4.47497177124023438 154 213 162
2.52324414253234863 8 3 141 194 149
3 7.98889303207397461 3 166 191 165
3 8 2.72238969802856445 140 195 149
3 7.93698930740356445 4 186 196 186
3 7.87296962738037109 5 193 202 192
3 7.79666280746459961 6 177 208 176
3 7.70785665512084961 7 157 215 156
3 7.60629558563232422 8 136 221 134
3 8 8.69665241241455078 150 224 164
3 8.64924430847167969 -9 210 238 216
3 8.56919097900390625 -8 232 233 232
3 8.46171855926513672 -7 201 226 205
3 8.31600093841552734 -6 175 220 182
3 8.11896991729736328 -5 154 213 162
3 8.06253337860107422 3 155 198 163
3 8.27375316619873047 4 176 202 181
3 8.43060302734375 5 201 207 202
3 8.54617977142333984 6 195 213 199
3 8.63200855255126953 7 174 218 182
3 8.69665241241455078 8 150 224 164
4 7.64861965179443359 -9 178 238 180
4 8 -9.67281150817871094 168 243 189
4 7.74071788787841797 -8 200 232 200
4 7.8202214241027832 -7 218 226 218
4 7.88735437393188477 -6 207 219 207
4 7.94229984283447266 -5 186 211 185
3.57895350456237793 8 -4 138 206 147
4 7.98520278930664062 -4 170 205 168
4 8 -3.52282071113586426 156 210 164
3.82207345962524414 8 2 140 195 149
4 7.99374675750732422 2 169 193 168
4 8 1.77792537212371826 147 198 156
4 7.95372486114501953 3 185 197 184
4 7.90169095993041992 4 197 201 197
4 7.83750724792480469 5 183 206 182
4 7.7610011100769043 6 165 212 165
4 7.67195844650268555 7 145 218 146
4 7.57012033462524414 8 124 224 124
4 8 8.71433448791503906 138 227 157
4 8.67281150817871094 -9 195 239 206
4 8.60444736480712891 -8 219 234 222
4 8.51597023010253906 -7 219 229 221
4 8.40167808532714844 -6 193 222 198
4 8.25667858123779297 -5 172 216 179
4 8.08159351348876953 -4 156 210 164
4 8.03620815277099609 2 159 200 166
4 8.21702289581298828 3 175 203 180
4 8.36969661712646484 4 195 207 197
4 8.49103164672851562 5 203 211 204
4 8.58519077301025391 6 184 216 191
4 8.65790939331054688 7 162 221 175
4 8.71433448791503906 8 138 227 157
5 7.60039424896240234 -9 161 239 165
5 8 -9.6996917724609375 151 244 179
5 7.6928257942199707 -8 183 234 184
5 7.77261114120483398 -7 201 229 201
5 7.83997774124145508 -6 215 222 215
5 7.895111083984375 -5 209 216 208
5 7.93815851211547852 -4 192 210 191
4.34537267684936523 8 -3 145 205 154
5 7.96923351287841797 -3 181 205 180
4.75353193283081055 8 -2 139 201 148
5 7.98841524124145508 -2 174 201 173
4.90963506698608398 8 -1 137 199 147
5 7.99575233459472656 -1 171 199 171
4.81412458419799805 8 0 140 198 150
5 7.99126338958740234 0 174 198 173
4.46673011779785156 8 1 147 198 156
5 7.97493648529052734 1 181 198 181
5 7.9467310905456543 2 192 200 192
5 7.90657472610473633 3 197 203 197
5 7.85436344146728516 4 185 207 185
5 7.78995800018310547 5 169 211 171
5 7.71318197250366211 6 152 217 154
5 7.62381792068481445 7 132 222 135
5 7.52160406112670898 8 111 227 114
5 8 8.73491859436035156 125 230 149
5 8.6996917724609375 -9 178 241 194
5 8.64333343505859375 -8 201 236 209
5 8.57327079772949219 -7 221 231 223
5 8.48725128173828125 -6 217 226 218
5 8.38479804992675781 -5 196 220 200
5 8.27006244659423828 -4 179 215 186
5 8.15576171875 -3 168 211 176
5 8.06504535675048828 -2 162 207 170
5 8.0248870849609375 -1 160 205 169
5 8.04986286163330078 0 163 204 171
5 8.13071060180664062 1 171 205 178
5 8.24179267883300781 2 182 206 188
5 8.35798835754394531 3 198 209 201
5 8.46403408050537109 4 205 212 207
5 8.55408191680908203 5 188 216 195
5 8.62781524658203125 6 169 220 181
5 8.68723583221435547 7 148 225 166
5 8.73491859436035156 8 125 230 149
6 7.53976774215698242 -9 142 241 149
6 8 -9.72758769989013672 132 246 168
6 7.63262462615966797 -8 163 237 166
6 7.7127690315246582 -7 181 232 182
6 7.78043317794799805 -6 196 227 196
6 7.83580589294433594 -5 206 221 206
6 7.87903833389282227 -4 212 216 212
6 7.91024494171142578 -3 208 212 208
6 7.92950773239135742 -2 202 208 202
6 7.93687534332275391 -1 200 206 200
6 7.93236732482910156 0 202 205 203
6 7.91597223281860352 1 202 206 202
6 7.88764715194702148 2 193 207 194
6 7.84731912612915039 3 182 210 184
6 7.79488182067871094 4 169 213 171
6 7.73019313812255859 5 153 217 157
6 7.65307283401489258 6 136 221 141
6 7.56330013275146484 7 116 226 124
6 7.46060752868652344 8 96 231 105
6 8 8.75676345825195312 109 233 142
6 8.72758769989013672 -9 157 243 181
6 8.68226814270019531 -8 180 239 195
6 8.628143310546875 -7 200 234 208
6 8.56483364105224609 -6 215 230 218
6 8.49360275268554688 -5 224 225 224
6 8.41875648498535156 -4 208 220 211
6 8.34889316558837891 -3 197 217 201
6 8.29649925231933594 -2 191 214 196
6 8.27411079406738281 -1 189 212 194
6 8.28797817230224609 0 192 211 196
6 8.33416557312011719 1 199 211 202
6 8.40105819702148438 2 211 213 211
6 8.47566604614257812 3 202 215 205
6 8.54830646514892578 4 188 217 196
6 8.61372947692871094 5 171 221 185
6 8.67007255554199219 6 152 225 172
6 8.71742916107177734 7 131 229 157
6 8.75676345825195312 8 109 233 142
7 7.46656513214111328 -9 121 243 133
7 8 -9.75479793548583984 112 247 158
7 7.55994367599487305 -8 141 240 148
7 7.64052867889404297 -7 159 236 163
7 7.70855808258056641 -6 173 231 175
7 7.76422500610351562 -5 184 226 185
7 7.80768442153930664 -4 191 222 192
7 7.83905315399169922 -3 195 218 196
7 7.85841464996337891 -2 196 216 197
7 7.86582040786743164 -1 194 214 195
7 7.86128950119018555 0 190 213 191
7 7.84480953216552734 1 183 213 186
7 7.81633806228637695 2 174 214 178
7 7.77579927444458008 3 163 216 168
7 7.7230839729309082 4 150 219 157
7 7.65804719924926758 5 134 223 144
7 7.5805048942565918 6 117 226 129
7 7.49023056030273438 7 99 230 113
7 7.38695144653320312 8 81 234 96
7 8 8.77856254577636719 92 236 135
7 8.75479793548583984 -9 135 245 169
7 8.71892642974853516 -8 157 241 181
7 8.67766761779785156 -7 176 238 192
7 8.63146209716796875 -6 191 234 202
7 8.58195018768310547 -5 203 230 209
7 8.53254413604736328 -4 211 226 214
7 8.48867321014404297 -3 215 223 217
7 8.45710086822509766 -2 216 220 217
7 8.44394207000732422 -1 214 219 216
7 8.45206928253173828 0 210 218 212
7 8.47968578338623047 1 203 218 207
7 8.52123165130615234 2 194 219 201
7 8.56987285614013672 3 182 221 194
7 8.61974811553955078 4 167 223 184
7 8.66695690155029297 5 150 226 174
7 8.70948314666748047 6 132 229 162
7 8.74664878845214844 7 112 232 149
7 8.77856254577636719 8 92 236 135
8 7.38056755065917969 -9 99 245 118
8 8 -9.78025913238525391 91 249 149
8 7.47457027435302734 -8 118 242 131
8 7.55568361282348633 -7 134 239 144
8 7.62415027618408203 -6 148 235 155
8 7.68017005920410156 -5 159 232 165
8 7.72390079498291016 -4 166 228 172
8 7.75546360015869141 -3 171 225 176
8 7.77494478225708008 -2 172 223 177
8 7.78239583969116211 -1 171 221 177
8 7.77783679962158203 0 167 220 174
8 7.76125574111938477 1 161 220 169
8 7.73260831832885742 2 152 221 162
8 7.69181632995605469 3 141 223 153
8 7.63876867294311523 4 128 225 143
8 7.57331514358520508 5 114 228 131
8 7.49526739120483398 6 98 231 118
8 7.40439271926879883 7 82 235 104
8 7.30041122436523438 8 65 238 89
8 8 8.79941463470458984 75 239 130
8 8.78025913238525391 -9 111 246 157
8 8.75210475921630859 -8 131 244 167
8 8.72080326080322266 -7 149 241 177
8 8.68705081939697266 -6 164 238 186
8 8.65232372283935547 -5 176 234 193
8 8.61906623840332031 -4 184 231 198
8 8.59063816070556641 -3 189 229 201
8 8.57078933715820312 -2 191 226 202
8 8.56266212463378906 -1 190 225 201
8 8.56767177581787109 0 185 224 198
8 8.58493709564208984 1 179 224 194
8 8.61163902282714844 2 169 225 189
8 8.64406871795654297 3 158 226 182
8 8.67870330810546875 4 144 228 174
8 8.712860107421875 5 128 231 164
8 8.74483966827392578 6 111 233 154
8 8.77378368377685547 7 93 236 142
8 8.79941463470458984 8 75 239 130
8.78025913238525391 8 -9 111 246 157
8.75210475921630859 8 -8 131 244 167
8.72080326080322266 8 -7 149 241 177
8.68705081939697266 8 -6 164 238 186
8.65232372283935547 8 -5 176 234 193
8.61906623840332031 8 -4 184 231 198
8.59063816070556641 8 -3 189 229 201
8.57078933715820312 8 -2 191 226 202
8.56266212463378906 8 -1 190 225 201
8.56767177581787109 8 0 185 224 198
8.58493709564208984 8 1 179 224 194
8.61163902282714844 8 2 169 225 189
8.64406871795654297 8 3 158 226 182
8.67870330810546875 8 4 144 228 174
8.712860107421875 8 5 128 231 164
8.74483966827392578 8 6 111 233 154
8.77378368377685547 8 7 93 236 142
8.79941463470458984 8 8 75 239 130
3 2 1 0
3 1 4 3
3 0 1 3
3 4 6 5
3 3 4 5
3 6 8 7
3 5 6 7
3 8 10 9
3 7 8 9
3 10 12 11
3 9 10 11
3 12 14 13
3 11 12 13
3 14 16 15
3 13 14 15
3 16 18 17
3 15 16 17
3 18 20 19
3 17 18 19
3 20 22 21
3 19 20 21
3 22 24 23
3 21 22 23
3 24 26 25
3 23 24 25
3 26 28 27
3 25 26 27
3 28 30 29
3 27 28 29
3 30 32 31
3 29 30 31
3 32 34 33
3 31 32 33
3 34 36 35
3 33 34 35
3 36 37 35
3 2 0 38
3 0 3 39
3 38 0 39
3 3 5 40
3 39 3 40
3 5 7 41
3 40 5 41
3 7 9 42
3 41 7 42
3 9 11 43
3 42 9 43
3 11 13 44
3 43 11 44
3 13 15 45
3 44 13 45
3 15 17 46
3 45 15 46
3 17 19 47
3 46 17 47
3 19 21 48
3 47 19 48
3 21 23 49
3 48 21 49
3 23 25 50
3 49 23 50
3 25 27 51
3 50 25 51
3 27 29 52
3 51 27 52
3 29 31 53
3 52 29 53
3 31 33 54
3 53 31 54
3 33 35 55
3 54 33 55
3 35 37 55
3 2 57 56
3 1 2 56
3 56 58 1
3 1 58 4
3 58 59 4
3 4 59 6
3 59 60 6
3 6 60 8
3 60 61 8
3 8 61 10
3 61 62 10
3 10 62 12
3 62 63 12
3 12 63 14
3 63 64 14
3 14 64 16
3 64 65 16
3 16 65 18
3 65 66 18
3 18 66 20
3 66 67 20
3 20 67 22
3 67 68 22
3 22 68 24
3 68 69 24
3 24 69 26
3 69 70 26
3 26 70 28
3 70 71 28
3 28 71 30
3 71 72 30
3 30 72 32
3 72 73 32
3 32 73 34
3 73 74 34
3 34 74 36
3 36 74 75
3 37 36 75
3 57 2 38
3 76 57 38
3 76 38 77
3 38 39 77
3 77 39 78
3 39 40 78
3 78 40 79
3 40 41 79
3 79 41 80
3 41 42 80
3 80 42 81
3 42 43 81
3 81 43 82
3 43 44 82
3 82 44 83
3 44 45 83
3 83 45 84
3 45 46 84
3 84 46 85
3 46 47 85
3 85 47 86
3 47 48 86
3 86 48 87
3 48 49 87
3 87 49 88
3 49 50 88
3 88 50 89
3 50 51 89
3 89 51 90
3 51 52 90
3 90 52 91
3 52 53 91
3 91 53 92
3 53 54 92
3 92 54 93
3 54 55 93
3 93 55 37
3 75 93 37
3 57 95 94
3 56 57 94
3 94 96 56
3 56 96 58
3 96 97 58
3 58 97 59
3 97 98 59
3 59 98 60
3 98 99 60
3 60 99 61
3 99 100 61
3 61 100 62
3 100 101 62
3 62 101 63
3 101 102 63
3 63 102 64
3 102 103 64
3 64 103 65
3 103 104 65
3 65 104 66
3 104 105 66
3 66 105 67
3 105 106 67
3 67 106 68
3 106 107 68
3 68 107 69
3 107 108 69
3 69 108 70
3 108 109 70
3 70 109 71
3 109 110 71
3 71 110 72
3 110 111 72
3 72 111 73
3 111 112 73
3 73 112 74
3 74 112 113
3 75 74 113
3 95 57 76
3 114 95 76
3 114 76 115
3 76 77 115
3 115 77 116
3 77 78 116
3 116 78 117
3 78 79 117
3 117 79 118
3 79 80 118
3 118 80 119
3 80 81 119
3 119 81 120
3 81 82 120
3 120 82 121
3 82 83 121
3 121 83 122
3 83 84 122
3 122 84 123
3 84 85 123
3 123 85 124
3 85 86 124
3 124 86 125
3 86 87 125
3 125 87 126
3 87 88 126
3 126 88 127
3 88 89 127
3 127 89 128
3 89 90 128
3 128 90 129
3 90 91 129
3 129 91 130
3 91 92 130
3 130 92 131
3 92 93 131
3 131 93 75
3 113 131 75
3 95 133 132
3 94 95 132
3 132 134 94
3 94 134 96
3 134 135 96
3 96 135 97
3 135 136 97
3 97 136 98
3 136 137 98
3 98 137 99
3 137 138 99
3 99 138 100
3 138 139 100
3 100 139 101
3 139 140 101
3 101 140 102
3 140 141 102
3 102 141 103
3 141 142 103
3 103 142 104
3 142 143 104
3 104 143 105
3 143 144 105
3 105 144 106
3 144 145 106
3 106 145 107
3 145 146 107
3 107 146 108
3 146 147 108
3 108 147 109
3 147 148 109
3 109 148 110
3 148 149 110
3 110 149 111
3 149 150 111
3 111 150 112
3 112 150 151
3 113 112 151
3 133 95 114
3 152 133 114
3 152 114 153
3 114 115 153
3 153 115 154
3 115 116 154
3 154 116 155
3 116 117 155
3 155 117 156
3 117 118 156
3 156 118 157
3 118 119 157
3 157 119 158
3 119 120 158
3 158 120 159
3 120 121 159
3 159 121 160
3 121 122 160
3 160 122 161
3 122 123 161
3 161 123 162
3 123 124 162
3 162 124 163
3 124 125 163
3 163 125 164
3 125 126 164
3 164 126 165
3 126 127 165
3 165 127 166
3 127 128 166
3 166 128 167
3 128 129 167
3 167 129 168
3 129 130 168
3 168 130 169
3 130 131 169
3 169 131 113
3 151 169 113
3 133 171 170
3 132 133 170
3 170 172 132
3 132 172 134
3 172 173 134
3 134 173 135
3 173 174 135
3 135 174 136
3 174 175 136
3 136 175 137
3 175 176 137
3 137 176 138
3 176 177 138
3 138 177 139
3 177 178 139
3 139 178 140
3 178 179 140
3 140 179 141
3 179 180 141
3 141 180 142
3 180 181 142
3 142 181 143
3 181 182 143
3 143 182 144
3 182 183 144
3 144 183 145
3 183 184 145
3 145 184 146
3 184 185 146
3 146 185 147
3 185 186 147
3 147 186 148
3 186 187 148
3 148 187 149
3 187 188 149
3 149 188 150
3 150 188 189
3 151 150 189
3 171 133 152
3 190 171 152
3 190 152 191
3 152 153 191
3 191 153 192
3 153 154 192
3 192 154 193
3 154 155 193
3 193 155 194
3 155 156 194
3 194 156 195
3 156 157 195
3 195 157 196
3 157 158 196
3 196 158 197
3 158 159 197
3 197 159 198
3 159 160 198
3 198 160 199
3 160 161 199
3 199 161 200
3 161 162 200
3 200 162 201
3 162 163 201
3 201 163 202
3 163 164 202
3 202 164 203
3 164 165 203
3 203 165 204
3 165 166 204
3 204 166 205
3 166 167 205
3 205 167 206
3 167 168 206
3 206 168 207
3 168 169 207
3 207 169 151
3 189 207 151
3 171 209 208
3 170 171 208
3 208 210 170
3 170 210 172
3 210 211 172
3 172 211 173
3 211 212 173
3 173 212 174
3 212 213 174
3 174 213 175
3 213 214 175
3 175 214 176
3 214 215 176
3 176 215 177
3 215 216 177
3 177 216 178
3 216 217 178
3 178 217 179
3 217 218 179
3 179 218 180
3 218 219 180
3 180 219 181
3 219 220 181
3 181 220 182
3 220 221 182
3 182 221 183
3 221 222 183
3 183 222 184
3 222 223 184
3 184 223 185
3 223 224 185
3 185 224 186
3 224 225 186
3 186 225 187
3 225 226 187
3 187 226 188
3 188 226 227
3 189 188 227
3 209 171 190
3 228 209 190
3 228 190 229
3 190 191 229
3 229 191 230
3 191 192 230
3 230 192 231
3 192 193 231
3 231 193 232
3 193 194 232
3 232 194 233
3 194 195 233
3 233 195 234
3 195 196 234
3 234 196 235
3 196 197 235
3 235 197 236
3 197 198 236
3 236 198 237
3 198 199 237
3 237 199 238
3 199 200 238
3 238 200 239
3 200 201 239
3 239 201 240
3 201 202 240
3 240 202 241
3 202 203 241
3 241 203 242
3 203 204 242
3 242 204 243
3 204 205 243
3 243 205 244
3 205 206 244
3 244 206 245
3 206 207 245
3 245 207 189
3 227 245 189
3 209 247 246
3 208 209 246
3 246 248 208
3 208 248 210
3 248 249 210
3 210 249 211
3 249 250 211
3 211 250 212
3 250 251 212
3 212 251 213
3 251 252 213
3 213 252 214
3 254 253 215
3 254 215 252
3 252 215 214
3 216 215 253
3 255 216 253
3 217 216 255
3 256 217 255
3 218 217 256
3 257 218 256
3 219 218 257
3 258 219 257
3 258 260 259
3 258 259 219
3 219 259 220
3 259 261 220
3 220 261 221
3 261 262 221
3 221 262 222
3 262 263 222
3 222 263 223
3 263 264 223
3 223 264 224
3 264 265 224
3 224 265 225
3 265 266 225
3 225 266 226
3 226 266 267
3 227 226 267
3 247 209 228
3 268 247 228
3 268 228 269
3 228 229 269
3 269 229 270
3 229 230 270
3 270 230 271
3 230 231 271
3 271 231 272
3 231 232 272
3 272 232 273
3 232 233 273
3 253 254 273
3 253 273 234
3 234 273 233
3 255 253 234
3 235 255 234
3 256 255 235
3 236 256 235
3 257 256 236
3 237 257 236
3 258 257 237
3 238 258 237
3 260 258 238
3 260 238 274
3 274 238 239
3 274 239 275
3 239 240 275
3 275 240 276
3 240 241 276
3 276 241 277
3 241 242 277
3 277 242 278
3 242 243 278
3 278 243 279
3 243 244 279
3 279 244 280
3 244 245 280
3 280 245 227
3 267 280 227
3 247 282 281
3 246 247 281
3 281 283 246
3 246 283 248
3 283 284 248
3 248 284 249
3 284 285 249
3 249 285 250
3 285 286 250
3 250 286 251
3 288 287 252
3 288 252 286
3 286 252 251
3 252 287 254
3 259 260 289
3 289 291 290
3 289 290 259
3 259 290 261
3 290 292 261
3 261 292 262
3 292 293 262
3 262 293 263
3 293 294 263
3 263 294 264
3 294 295 264
3 264 295 265
3 295 296 265
3 265 296 266
3 266 296 297
3 267 266 297
3 282 247 268
3 298 282 268
3 298 268 299
3 268 269 299
3 299 269 300
3 269 270 300
3 300 270 301
3 270 271 301
3 301 271 302
3 271 272 302
3 287 288 302
3 287 302 273
3 273 302 272
3 287 273 254
3 289 260 274
3 291 289 274
3 291 274 303
3 303 274 275
3 303 275 304
3 275 276 304
3 304 276 305
3 276 277 305
3 305 277 306
3 277 278 306
3 306 278 307
3 278 279 307
3 307 279 308
3 279 280 308
3 308 280 267
3 297 308 267
3 282 310 309
3 281 282 309
3 309 311 281
3 281 311 283
3 311 312 283
3 283 312 284
3 312 313 284
3 284 313 285
3 313 314 285
3 285 314 286
3 286 314 315
3 288 286 315
3 290 291 316
3 316 318 317
3 316 317 290
3 290 317 292
3 317 319 292
3 292 319 293
3 319 320 293
3 293 320 294
3 320 321 294
3 294 321 295
3 321 322 295
3 295 322 296
3 296 322 323
3 297 296 323
3 310 282 298
3 324 310 298
3 324 298 325
3 298 299 325
3 325 299 326
3 299 300 326
3 326 300 327
3 300 301 327
3 327 301 328
3 301 302 328
3 328 302 288
3 315 328 288
3 316 291 303
3 318 316 303
3 318 303 329
3 329 303 304
3 329 304 330
3 304 305 330
3 330 305 331
3 305 306 331
3 331 306 332
3 306 307 332
3 332 307 333
3 307 308 333
3 333 308 297
3 323 333 297
3 310 335 334
3 309 310 334
3 334 336 309
3 309 336 311
3 336 337 311
3 311 337 312
3 337 338 312
3 312 338 313
3 340 339 314
3 340 314 338
3 338 314 313
3 314 339 315
3 318 342 341
3 317 318 341
3 341 343 317
3 317 343 319
3 343 344 319
3 319 344 320
3 344 345 320
3 320 345 321
3 345 346 321
3 321 346 322
3 322 346 347
3 323 322 347
3 335 310 324
3 348 335 324
3 348 324 349
3 324 325 349
3 349 325 350
3 325 326 350
3 350 326 351
3 326 327 351
3 339 340 351
3 339 351 328
3 328 351 327
3 339 328 315
3 342 318 329
3 352 342 329
3 352 329 353
3 329 330 353
3 353 330 354
3 330 331 354
3 354 331 355
3 331 332 355
3 355 332 356
3 332 333 356
3 356 333 323
3 347 356 323
3 335 358 357
3 334 335 357
3 357 359 334
3 334 359 336
3 359 360 336
3 336 360 337
3 360 361 337
3 337 361 338
3 338 361 362
3 340 338 362
3 342 364 363
3 341 342 363
3 363 365 341
3 341 365 343
3 365 366 343
3 343 366 344
3 366 367 344
3 344 367 345
3 367 368 345
3 345 368 346
3 346 368 369
3 347 346 369
3 358 335 348
3 370 358 348
3 370 348 371
3 348 349 371
3 371 349 372
3 349 350 372
3 372 350 373
3 350 351 373
3 373 351 340
3 362 373 340
3 364 342 352
3 374 364 352
3 374 352 375
3 352 353 375
3 375 353 376
3 353 354 376
3 376 354 377
3 354 355 377
3 377 355 378
3 355 356 378
3 378 356 347
3 369 378 347
3 358 380 379
3 357 358 379
3 379 381 357
3 357 381 359
3 381 382 359
3 359 382 360
3 382 383 360
3 360 383 361
3 361 383 384
3 362 361 384
3 364 386 385
3 363 364 385
3 385 387 363
3 363 387 365
3 387 388 365
3 365 388 366
3 388 389 366
3 366 389 367
3 389 390 367
3 367 390 368
3 368 390 391
3 369 368 391
3 380 358 370
3 392 380 370
3 392 370 393
3 370 371 393
3 393 371 394
3 371 372 394
3 394 372 395
3 372 373 395
3 395 373 362
3 384 395 362
3 386 364 374
3 396 386 374
3 396 374 397
3 374 375 397
3 397 375 398
3 375 376 398
3 398 376 399
3 376 377 399
3 399 377 400
3 377 378 400
3 400 378 369
3 391 400 369
3 380 402 401
3 379 380 401
3 401 403 379
3 379 403 381
3 403 404 381
3 381 404 382
3 404 405 382
3 382 405 383
3 406 384 383
3 406 383 407
3 407 383 405
3 407 408 406
3 411 410 409
3 386 409 410
3 386 410 385
3 385 410 412
3 412 413 385
3 385 413 387
3 413 414 387
3 387 414 388
3 414 415 388
3 388 415 389
3 415 416 389
3 389 416 390
3 390 416 417
3 391 390 417
3 402 380 392
3 418 402 392
3 418 392 419
3 392 393 419
3 419 393 420
3 393 394 420
3 420 394 421
3 394 395 421
3 384 406 422
3 384 422 395
3 395 422 421
3 406 408 422
3 411 409 423
3 409 386 396
3 409 396 423
3 423 396 424
3 424 396 425
3 396 397 425
3 425 397 426
3 397 398 426
3 426 398 427
3 398 399 427
3 427 399 428
3 399 400 428
3 428 400 391
3 417 428 391
3 402 430 429
3 401 402 429
3 429 431 401
3 401 431 403
3 431 432 403
3 403 432 404
3 432 433 404
3 404 433 405
3 433 434 405
3 405 434 407
3 435 408 407
3 435 407 436
3 436 407 434
3 436 437 435
3 440 439 438
3 411 438 439
3 411 439 410
3 410 439 441
3 441 442 410
3 410 442 412
3 442 443 412
3 412 443 413
3 443 444 413
3 413 444 414
3 444 445 414
3 414 445 415
3 445 446 415
3 415 446 416
3 416 446 447
3 417 416 447
3 430 402 418
3 448 430 418
3 448 418 449
3 418 419 449
3 449 419 450
3 419 420 450
3 450 420 451
3 420 421 451
3 451 421 452
3 421 422 452
3 408 435 453
3 408 453 422
3 422 453 452
3 435 437 453
3 440 438 454
3 438 411 423
3 438 423 454
3 454 423 455
3 455 423 456
3 423 424 456
3 456 424 457
3 424 425 457
3 457 425 458
3 425 426 458
3 458 426 459
3 426 427 459
3 459 427 460
3 427 428 460
3 460 428 417
3 447 460 417
3 430 462 461
3 429 430 461
3 461 463 429
3 429 463 431
3 463 464 431
3 431 464 432
3 464 465 432
3 432 465 433
3 465 466 433
3 433 466 434
3 466 467 434
3 434 467 436
3 468 437 436
3 468 436 469
3 469 436 467
3 469 471 470
3 468 469 470
3 471 473 472
3 470 471 472
3 473 475 474
3 472 473 474
3 475 477 476
3 474 475 476
3 440 476 477
3 440 477 439
3 439 477 478
3 478 479 439
3 439 479 441
3 479 480 441
3 441 480 442
3 480 481 442
3 442 481 443
3 481 482 443
3 443 482 444
3 482 483 444
3 444 483 445
3 483 484 445
3 445 484 446
3 446 484 485
3 447 446 485
3 462 430 448
3 486 462 448
3 486 448 487
3 448 449 487
3 487 449 488
3 449 450 488
3 488 450 489
3 450 451 489
3 489 451 490
3 451 452 490
3 490 452 491
3 452 453 491
3 437 468 492
3 437 492 453
3 453 492 491
3 468 470 493
3 492 468 493
3 470 472 494
3 493 470 494
3 472 474 495
3 494 472 495
3 474 476 496
3 495 474 496
3 476 440 454
3 476 454 496
3 496 454 497
3 497 454 498
3 454 455 498
3 498 455 499
3 455 456 499
3 499 456 500
3 456 457 500
3 500 457 501
3 457 458 501
3 501 458 502
3 458 459 502
3 502 459 503
3 459 460 503
3 503 460 447
3 485 503 447
3 462 505 504
3 461 462 504
3 504 506 461
3 461 506 463
3 506 507 463
3 463 507 464
3 507 508 464
3 464 508 465
3 508 509 465
3 465 509 466
3 509 510 466
3 466 510 467
3 510 511 467
3 467 511 469
3 511 512 469
3 469 512 471
3 512 513 471
3 471 513 473
3 513 514 473
3 473 514 475
3 514 515 475
3 475 515 477
3 515 516 477
3 477 516 478
3 516 517 478
3 478 517 479
3 517 518 479
3 479 518 480
3 518 519 480
3 480 519 481
3 519 520 481
3 481 520 482
3 520 521 482
3 482 521 483
3 521 522 483
3 483 522 484
3 484 522 523
3 485 484 523
3 505 462 486
3 524 505 486
3 524 486 525
3 486 487 525
3 525 487 526
3 487 488 526
3 526 488 527
3 488 489 527
3 527 489 528
3 489 490 528
3 528 490 529
3 490 491 529
3 529 491 530
3 491 492 530
3 530 492 531
3 492 493 531
3 531 493 532
3 493 494 532
3 532 494 533
3 494 495 533
3 533 495 534
3 495 496 534
3 534 496 535
3 496 497 535
3 535 497 536
3 497 498 536
3 536 498 537
3 498 499 537
3 537 499 538
3 499 500 538
3 538 500 539
3 500 501 539
3 539 501 540
3 501 502 540
3 540 502 541
3 502 503 541
3 541 503 485
3 523 541 485
3 505 543 542
3 504 505 542
3 542 544 504
3 504 544 506
3 544 545 506
3 506 545 507
3 545 546 507
3 507 546 508
3 546 547 508
3 508 547 509
3 547 548 509
3 509 548 510
3 548 549 510
3 510 549 511
3 549 550 511
3 511 550 512
3 550 551 512
3 512 551 513
3 551 552 513
3 513 552 514
3 552 553 514
3 514 553 515
3 553 554 515
3 515 554 516
3 554 555 516
3 516 555 517
3 555 556 517
3 517 556 518
3 556 557 518
3 518 557 519
3 557 558 519
3 519 558 520
3 558 559 520
3 520 559 521
3 559 560 521
3 521 560 522
3 522 560 561
3 523 522 561
3 543 505 524
3 562 543 524
3 562 524 563
3 524 525 563
3 563 525 564
3 525 526 564
3 564 526 565
3 526 527 565
3 565 527 566
3 527 528 566
3 566 528 567
3 528 529 567
3 567 529 568
3 529 530 568
3 568 530 569
3 530 531 569
3 569 531 570
3 531 532 570
3 570 532 571
3 532 533 571
3 571 533 572
3 533 534 572
3 572 534 573
3 534 535 573
3 573 535 574
3 535 536 574
3 574 536 575
3 536 537 575
3 575 537 576
3 537 538 576
3 576 538 577
3 538 539 577
3 577 539 578
3 539 540 578
3 578 540 579
3 540 541 579
3 579 541 523
3 561 579 523
3 543 581 580
3 542 543 580
3 580 582 542
3 542 582 544
3 582 583 544
3 544 583 545
3 583 584 545
3 545 584 546
3 584 585 546
3 546 585 547
3 585 586 547
3 547 586 548
3 586 587 548
3 548 587 549
3 587 588 549
3 549 588 550
3 588 589 550
3 550 589 551
3 589 590 551
3 551 590 552
3 590 591 552
3 552 591 553
3 591 592 553
3 553 592 554
3 592 593 554
3 554 593 555
3 593 594 555
3 555 594 556
3 594 595 556
3 556 595 557
3 595 596 557
3 557 596 558
3 596 597 558
3 558 597 559
3 597 598 559
3 559 598 560
3 560 598 599
3 561 560 599
3 581 543 562
3 600 581 562
3 600 562 601
3 562 563 601
3 601 563 602
3 563 564 602
3 602 564 603
3 564 565 603
3 603 565 604
3 565 566 604
3 604 566 605
3 566 567 605
3 605 567 606
3 567 568 606
3 606 568 607
3 568 569 607
3 607 569 608
3 569 570 608
3 608 570 609
3 570 571 609
3 609 571 610
3 571 572 610
3 610 572 611
3 572 573 611
3 611 573 612
3 573 574 612
3 612 574 613
3 574 575 613
3 613 575 614
3 575 576 614
3 614 576 615
3 576 577 615
3 615 577 616
3 577 578 616
3 616 578 617
3 578 579 617
3 617 579 561
3 599 617 561
3 580 581 618
3 582 580 618
3 619 582 618
3 583 582 619
3 620 583 619
3 584 583 620
3 621 584 620
3 585 584 621
3 622 585 621
3 586 585 622
3 623 586 622
3 587 586 623
3 624 587 623
3 588 587 624
3 625 588 624
3 589 588 625
3 626 589 625
3 590 589 626
3 627 590 626
3 591 590 627
3 628 591 627
3 592 591 628
3 629 592 628
3 593 592 629
3 630 593 629
3 594 593 630
3 631 594 630
3 595 594 631
3 632 595 631
3 596 595 632
3 633 596 632
3 597 596 633
3 634 597 633
3 598 597 634
3 635 598 634
3 598 635 599
3 618 581 600
3 619 618 600
3 601 619 600
3 620 619 601
3 602 620 601
3 621 620 602
3 603 621 602
3 622 621 603
3 604 622 603
3 623 622 604
3 605 623 604
3 624 623 605
3 606 624 605
3 625 624 606
3 607 625 606
3 626 625 607
3 608 626 607
3 627 626 608
3 609 627 608
3 628 627 609
3 610 628 609
3 629 628 610
3 611 629 610
3 630 629 611
3 612 630 611
3 631 630 612
3 613 631 612
3 632 631 613
3 614 632 613
3 633 632 614
3 615 633 614
3 634 633 615
3 616 634 615
3 635 634 616
3 617 635 616
3 635 617 599
