ply
format ascii 1.0
element vertex 582
property float x
property float y
property float z
property uchar red
property uchar green
property uchar blue
element face 1148
property list uchar int vertex_indices
end_header
-9.89447021484375 -9 -9 13 38 45
-9 -9.89447021484375 -9 15 51 60
-9 -9 -9.89447021484375 10 32 39
-9.78512668609619141 -9 -8 30 95 98
-9 -9.78512668609619141 -8 31 111 112
-9 -9 -7.19243621826171875 46 147 133
-9.80990028381347656 -9 7 118 164 170
-9 -9.80990028381347656 7 120 178 182
-9 -9 6.0689692497253418 169 227 211
-9.90114212036132812 -9 8 89 120 136
-9 -9.90114212036132812 8 93 134 150
-9 -9 8.90114212036132812 120 170 180
-9.87322235107421875 -8 -9 26 76 81
-9 -8 -9.87322235107421875 23 70 76
-9.65953350067138672 -8 -8 46 131 124
-9 -8 -7.58204507827758789 63 176 145
-9.71896076202392578 -8 7 144 195 196
-9 -8 6.45430326461791992 190 241 221
-9.88295364379882812 -8 8 115 154 165
-9 -8 8.88295364379882812 144 201 204
-9.84581184387207031 -7 -9 40 112 111
-9 -7 -9.84581184387207031 36 107 107
-9.29812145233154297 -7 -8 63 159 139
-9 -7 -7.91017436981201172 80 199 152
-9.51436614990234375 -7 7 166 215 210
-9 -7 6.77857017517089844 206 250 228
-9.860260009765625 -7 8 138 182 188
-9 -7 8.860260009765625 165 221 218
-9.81078243255615234 -6 -9 55 138 128
-9 -6 -9.81078243255615234 50 133 126
-9 -6.67137670516967773 -8 80 199 152
-9 -6 -8.16840934753417969 74 181 149
-9 -6.17280149459838867 7 188 240 224
-9.83246135711669922 -6 8 159 205 206
-9 -6 7.04263162612915039 204 248 231
-9 -6 8.83246135711669922 183 234 226
-9.76738071441650391 -5 -9 70 158 141
-9 -5 -9.76738071441650391 64 154 139
-9 -5 -8.368804931640625 89 198 157
-9.79977798461914062 -5 8 176 220 218
-9 -5 7.24126863479614258 215 252 235
-9 -5 8.79977798461914062 198 243 232
-9.71734714508056641 -4 -9 85 174 151
-9 -4 -9.71734714508056641 77 170 149
-9 -4 -8.51953315734863281 104 211 163
-9.76435470581054688 -4 8 191 230 226
-9 -4 7.3904118537902832 225 254 239
-9 -4 8.76435470581054688 209 248 237
-9.66777610778808594 -3 -9 99 186 160
-9 -3 -9.66777610778808594 90 183 158
-9 -3 -8.62219905853271484 118 220 170
-9.73149204254150391 -3 8 203 237 232
-9 -3 7.49169206619262695 231 254 241
-9 -3 8.73149204254150391 219 251 241
-9.63243675231933594 -2 -9 112 195 168
-9 -2 -9.63243675231933594 101 191 165
-9 -2 -8.67784500122070312 131 226 177
-9.70944404602050781 -2 8 212 241 236
-9 -2 7.54617023468017578 236 254 244
-9 -2 8.70944404602050781 226 253 244
-9.62584209442138672 -1 -9 123 201 173
-9 -1 -9.62584209442138672 111 197 170
-9 -1 -8.68701648712158203 143 230 182
-9.70576858520507812 -1 8 219 244 239
-9 -1 7.55440568923950195 240 253 245
-9 -1 8.70576858520507812 231 254 245
-9.65115833282470703 0 -9 133 204 177
-9 0 -9.65115833282470703 120 200 174
-9 0 -8.64980316162109375 153 232 188
-9.72188663482666016 0 8 224 245 241
-9 0 7.51649236679077148 243 252 246
-9 0 8.72188663482666016 235 254 247
-9.69701671600341797 1 -9 140 204 181
-9 1 -9.69701671600341797 127 201 177
-9 1 -8.5658416748046875 162 233 193
-9.75189018249511719 1 8 227 246 242
-9 1 7.43206453323364258 245 252 248
-9 1 8.75189018249511719 238 254 248
-9.74810028076171875 2 -9 146 202 183
-9 2 -9.74810028076171875 132 199 179
-9 2 -8.43429470062255859 169 231 198
-9.78716468811035156 2 8 228 245 242
-9 2 7.30027198791503906 247 253 249
-9 2 8.78716468811035156 240 254 249
-9.79456043243408203 3 -9 149 198 183
-9 3 -9.79456043243408203 134 194 179
-9 3 -8.25379371643066406 174 228 202
-9.82118988037109375 3 8 227 243 241
-9 3 7.11972427368164062 248 253 250
-9 3 8.82118988037109375 241 254 249
-9.83289623260498047 4 -9 149 190 180
-9 4 -9.83289623260498047 134 186 177
-9 4 -8.02235221862792969 176 223 203
-9.36408805847167969 4 7 242 251 248
-9 3.52174878120422363 7 248 253 250
-9 4 6.88100767135620117 247 249 248
-9.85081100463867188 4 8 224 240 238
-9 4 8.85081100463867188 240 253 249
-9.86316013336181641 5 -9 145 179 174
-9 5 -9.86316013336181641 130 175 171
-9.56757450103759766 5 -8 191 214 206
-9 4.07988739013671875 -8 212 244 224
-9 5 -7.71908998489379883 214 239 226
-9.66581058502197266 5 7 238 248 246
-9 5 6.57806921005249023 251 252 252
-9.87527179718017578 5 8 219 235 234
-9 5 8.87527179718017578 237 251 248
-9.88666629791259766 6 -9 137 165 163
-9 6 -9.88666629791259766 122 160 160
-9.74680614471435547 6 -8 186 203 199
-9 6 -7.35440826416015625 213 232 224
-9.78354930877685547 6 7 231 244 242
-9 6 6.21571016311645508 251 254 252
-9.89497280120849609 6 8 210 226 227
-9 6 8.89497280120849609 231 247 245
-9.90489101409912109 7 -9 124 145 146
-9 7 -9.90489101409912109 110 138 141
-9.82698631286621094 7 -8 176 188 186
-9.24887371063232422 7 -7 213 218 216
-9 6.83013200759887695 -7 247 248 247
-9 7 -6.91784763336181641 235 241 238
-9.48603534698486328 7 6 238 248 245
-9 6.51287317276000977 6 251 254 252
-9 7 5.76903390884399414 252 253 252
-9.84467887878417969 7 7 221 236 235
-9.91069316864013672 7 8 197 213 216
-9 7 8.91069316864013672 222 240 240
-9.91909694671630859 8 -9 106 119 122
-9 8 -9.91909694671630859 93 111 117
-9.87152671813964844 8 -8 160 168 168
-9.71197700500488281 8 -7 195 202 201
-9 8 -6.36917877197265625 221 231 228
-9.75456619262695312 8 6 227 240 239
-9 8 5.22690725326538086 251 254 253
-9.88133621215820312 8 7 206 223 225
-9.92322921752929688 8 8 180 195 200
-9 8 8.92322921752929688 209 227 230
-9 8.91909694671630859 -9 147 168 169
-9 8.87152671813964844 -8 197 206 205
-9 8.71197700500488281 -7 221 231 228
-9 8.75456619262695312 6 242 253 250
-9 8.88133621215820312 7 229 245 244
-9 8.92322921752929688 8 209 227 230
-8 -9.78835010528564453 -9 27 105 107
-8 -9 -9.78835010528564453 24 82 88
-8.28687095642089844 -9 -8 46 147 133
-8 -9 -8.28295707702636719 42 143 131
-8.16109466552734375 -9 7 146 208 204
-8 -9.81539535522460938 8 118 179 187
-8 -9 7.15627574920654297 166 233 217
-8 -9 8.81539535522460938 143 212 211
-8 -8 -9.667755126953125 37 122 118
-8.63086414337158203 -8 -8 63 176 145
-8 -8 -8.62224578857421875 57 172 143
-8.50834465026855469 -8 7 169 227 216
-8 -8 7.49321794509887695 185 245 223
-8 -8 8.73102378845214844 164 230 221
-8 -7 -9.33288002014160156 51 150 135
-8.92065620422363281 -7 -8 80 199 152
-8 -7 -8.90806388854980469 73 195 150
-8.80051422119140625 -7 7 188 240 224
-8 -7 7.77680253982543945 200 252 227
-8 -7 8.54979991912841797 183 242 228
-8.15604114532470703 -6 -9 74 181 149
-8 -6.61356067657470703 -9 73 195 150
-8.01137638092041016 -6 8 183 234 226
-8 -6.04472589492797852 8 183 242 228
-8.35942459106445312 -5 -9 89 198 157
-8.21662330627441406 -5 8 198 243 232
-8.51239776611328125 -4 -9 104 211 163
-8.37069320678710938 -4 8 209 248 237
-8.61659145355224609 -3 -9 118 220 170
-8.47530460357666016 -3 8 219 251 241
-8.673065185546875 -2 -9 131 226 177
-8.53157711029052734 -2 8 226 253 244
-8.68237495422363281 -1 -9 143 230 182
-8.54010391235351562 -1 8 231 254 245
-8.64461040496826172 0 -9 153 232 188
-8.50099086761474609 0 8 235 254 247
-8.55940437316894531 1 -9 162 233 193
-8.41386604309082031 1 8 238 254 248
-8.42590618133544922 2 -9 169 231 198
-8.27785015106201172 2 8 240 254 249
-8.24272537231445312 3 -9 174 228 202
-8.09150028228759766 3 8 241 254 249
-8.00784587860107422 4 -9 176 223 203
-8.89286231994628906 4 7 248 254 251
-8 3.38718461990356445 8 243 253 248
-8 4 7.86697912216186523 244 246 245
-8 4 8.42266178131103516 243 254 249
-8 4.02766084671020508 -9 193 243 214
-8 5 -9.58082103729248047 155 208 195
-8.75191497802734375 5 -8 214 239 226
-8 5 -8.74167060852050781 195 237 217
-8.62013339996337891 5 7 247 254 251
-8 5 7.60216617584228516 245 250 247
-8 5 8.6824188232421875 243 254 250
-8 6 -9.75129890441894531 150 196 189
-8.42993259429931641 6 -8 213 232 224
-8 6 -8.42408466339111328 193 230 216
-8.29395866394042969 6 7 244 254 251
-8 6 7.2854461669921875 246 253 249
-8 6 8.79048347473144531 241 254 251
-8 7 -9.82903766632080078 141 180 179
-8.05137729644775391 7 -8 208 221 217
-8 7 -8.05068016052246094 188 218 211
-8.93816471099853516 7 -7 235 241 238
-8.82217979431152344 7 6 248 254 252
-8 6.77114295959472656 7 246 253 249
-8 7 6.90719461441040039 247 250 249
-8 7 8.84818649291992188 236 252 250
-8 8 -9.87262439727783203 126 156 160
-8 7.11997032165527344 -8 228 242 235
-8.52537918090820312 8 -7 221 231 228
-8 8 -7.59032106399536133 222 232 229
-8.40497589111328125 8 6 242 253 250
-8 8 6.44676876068115234 246 254 251
-8 8 8.883331298828125 228 247 247
-8 8.87262439727783203 -9 177 203 200
-8 8.65505123138427734 -8 222 232 229
-8 8.72153186798095703 7 240 254 251
-8 8.883331298828125 8 228 247 247
-7.16194820404052734 -9 -9 42 143 131
-7 -9.01762580871582031 8 137 214 212
-7 -9 7.99677228927612305 178 247 220
-7 -9 8.01762580871582031 159 233 221
-7.55857515335083008 -8 -9 57 172 143
-7.39716386795043945 -8 8 164 230 221
-7 -8.99007892608642578 8 159 233 221
-7.89258527755737305 -7 -9 73 195 150
-7.73459959030151367 -7 8 183 242 228
-7.8419647216796875 4 8 243 254 249
-7.69814538955688477 5 -9 195 237 217
-7.52726888656616211 5 8 243 254 250
-7.32693338394165039 6 -9 193 230 216
-7.1507420539855957 6 8 241 254 251
-7 6.75378894805908203 -9 207 245 226
-7 7 -9.32399845123291016 163 208 202
-7 7 -8.91168785095214844 205 238 225
-7.90379619598388672 7 7 244 254 251
-7 6.34640312194824219 8 242 253 249
-7 7 7.76881933212280273 242 249 246
-7 7 8.55821990966796875 241 254 251
-7 8 -9.72341060638427734 152 191 191
-7.58340358734130859 8 -8 222 232 229
-7 8 -8.50415897369384766 198 226 220
-7.42645788192749023 8 7 240 254 251
-7 8 7.36284303665161133 242 253 249
-7 8 8.77185249328613281 237 254 252
-7 8.72341060638427734 -9 198 226 220
-7 8.77185249328613281 8 237 254 252
-6.9954829216003418 -9 8 159 233 221
-6.87858867645263672 7 -9 205 238 225
-6.67682123184204102 7 8 241 254 251
-6.31802272796630859 8 -9 198 226 220
-6.10886001586914062 8 8 237 254 252
4.98337125778198242 8 -9 187 250 246
5 7.97361421585083008 -9 179 249 246
5 8 -9.055206298828125 144 192 215
5 8 -8.98929309844970703 175 234 241
4.76694440841674805 8 8 243 250 250
5 7.63135671615600586 8 247 251 251
5 8 7.85268306732177734 246 248 248
5 8 8.44750881195068359 245 252 254
5 8.055206298828125 -9 175 234 241
5 8.44750881195068359 8 245 252 254
5.81569337844848633 -9 -9 54 201 180
6 -9.43479442596435547 -9 33 128 145
6 -9 -9.43479442596435547 31 106 126
6 -9 -8.85773563385009766 46 173 176
5.63284635543823242 -9 8 182 248 244
6 -9.60299015045166016 8 153 203 221
6 -9 7.72174406051635742 193 249 244
6 -9 8.60299015045166016 174 229 237
6 -8.57068920135498047 -9 46 173 176
6 -8.14760684967041016 8 174 229 237
5.99051427841186523 6 -9 179 253 241
6 5.976593017578125 -9 168 249 242
6 6 -9.03841400146484375 140 203 221
6 6 -8.99268245697021484 168 243 245
5.81288671493530273 6 8 245 247 247
6 5.53951883316040039 8 251 251 251
6 6 7.85822439193725586 240 245 245
6 6 8.43816852569580078 251 253 253
5.52503156661987305 7 -9 179 249 246
6 7 -9.66107463836669922 134 183 209
6 7 -8.63367366790771484 166 228 238
5.34150457382202148 7 8 247 251 251
6 7 7.50123119354248047 249 250 250
6 7 8.72788143157958984 249 253 254
6 8 -9.80178546905517578 125 160 192
6 8 -8.21765804290771484 160 208 227
6 8 7.08724117279052734 251 253 254
6 8 8.82612133026123047 243 249 253
6 8.80178546905517578 -9 160 208 227
6 8.82612133026123047 8 243 249 253
7 -9.84217357635498047 -9 24 79 107
7 -9 -9.84217357635498047 21 61 87
6.94593524932861328 -9 -8 59 212 188
7 -9.20953941345214844 -8 37 135 155
7 -9 -7.94403409957885742 50 179 185
6.8097381591796875 -9 7 193 249 244
7 -9.48070049285888672 7 162 205 221
7 -9 6.80695152282714844 190 248 245
7 -9.85796737670898438 8 137 170 198
7 -9 8.85796737670898438 161 200 219
6.21844291687011719 -8 -9 59 200 187
7 -8 -9.78534889221191406 32 95 120
7 -8.85313034057617188 -8 50 179 185
7 -8 -8.29620265960693359 49 159 170
7 -8.48466873168945312 7 185 230 237
6.05672264099121094 -8 8 192 247 247
7 -8 7.16600465774536133 203 247 247
7 -8 8.81391143798828125 182 223 234
6.54380416870117188 -7 -9 72 219 190
7 -7 -9.68554973602294922 44 128 147
7 -7 -8.58921718597412109 62 193 193
6.38668918609619141 -7 8 206 253 248
7 -7 7.45768356323242188 217 253 249
7 -7 8.74384784698486328 199 239 244
6.81153011322021484 -6 -9 84 232 191
7 -6 -9.47807216644287109 56 157 170
7 -6 -8.83030033111572266 75 211 200
6.65807151794433594 -6 8 216 254 248
7 -6 7.69762325286865234 227 254 249
7 -6 8.62218379974365234 213 249 250
7 -5.11656904220581055 -9 75 211 200
6.87391948699951172 -5 8 224 254 246
7 -5 7.88849496841430664 235 254 249
7 -5 8.38096523284912109 223 253 252
7 -4.22608566284179688 8 223 253 252
6.94472122192382812 2 8 242 243 243
7 1.6123126745223999 8 251 252 252
7 2 7.95111370086669922 234 243 241
7 2 8.21306991577148438 252 252 252
6.90107154846191406 3 -9 161 253 230
7 2.48816394805908203 -9 147 247 237
7 3 -9.32586479187011719 127 206 221
7 3 -8.91095638275146484 151 245 241
6.7503819465637207 3 8 243 245 245
7 3 7.7792658805847168 236 245 243
7 3 8.54704856872558594 253 253 253
6.6552281379699707 4 -9 165 252 237
7 4 -9.62388801574707031 128 196 216
7 4 -8.68969440460205078 154 240 242
6.50158596038818359 4 8 247 248 248
7 4 7.55930471420288086 239 248 247
7 4 8.70358753204345703 254 254 254
6.35313510894775391 5 -9 168 249 242
7 5 -9.75327682495117188 126 182 208
7 5 -8.41784095764160156 154 228 237
6.19566011428833008 5 8 251 251 251
7 5 7.2888941764831543 244 251 251
7 5 8.78975486755371094 253 254 254
7 6 -9.82306194305419922 121 165 196
7 6 -8.09230422973632812 152 213 229
6.96304416656494141 6 7 240 245 245
7 5.89388465881347656 7 244 251 251
7 6 6.96254253387451172 234 247 246
7 6 8.84229564666748047 250 253 254
7 7 -9.86554145812988281 113 145 181
6.69927549362182617 7 -8 190 252 248
7 6.24585723876953125 -8 178 246 248
7 7 -7.68897199630737305 176 232 242
6.56236457824707031 7 7 249 250 250
7 7 6.55641460418701172 242 251 251
7 7 8.87669658660888672 244 248 251
7 8 -9.89350223541259766 101 122 161
6.24014663696289062 8 -8 188 242 246
7 8 -7.21403980255126953 171 215 232
6.09786558151245117 8 7 251 253 254
7 8 6.08558273315429688 250 253 254
7 8 8.9004364013671875 234 239 245
7 8.89350223541259766 -9 138 174 203
7 8.78074264526367188 -8 171 215 232
7 8.8071746826171875 7 249 252 253
7 8.9004364013671875 8 234 239 245
8 -9.91040897369384766 -9 13 35 60
8 -9 -9.91040897369384766 9 21 38
8 -9.84572410583496094 -8 26 80 113
7.80536174774169922 -9 -7 62 215 198
8 -9.51938152313232422 -7 38 128 155
8 -9 -6.72938728332519531 52 170 185
7.70129299163818359 -9 6 190 248 245
8 -9.62237071990966797 6 140 190 215
8 -9 5.59370803833007812 166 239 243
8 -9.859100341796875 7 136 165 194
8 -9.91535377502441406 8 114 131 164
8 -9 8.91535377502441406 141 163 191
8 -8 -9.89601516723632812 19 48 74
7.28796625137329102 -8 -8 63 207 196
8 -8.39506816864013672 -7 52 170 185
8 -8 -7.15637636184692383 52 158 175
8 -8.07542800903320312 6 171 221 232
7.16418552398681641 -8 7 203 247 247
8 -8 6.02944469451904297 199 241 244
8 -8 8.90272045135498047 164 191 211
8 -7 -9.878814697265625 30 75 104
7.57290840148925781 -7 -8 77 225 198
8 -7 -7.49416351318359375 65 191 197
7.45266056060791016 -7 7 217 253 249
8 -7 6.36505603790283203 225 251 249
8 -7 8.88793754577636719 185 212 226
8 -6 -9.85880756378173828 42 101 129
7.80740785598754883 -6 -8 89 237 198
8 -6 -7.77196979522705078 78 214 208
7.68995761871337891 -6 7 227 254 249
8 -6 6.64040756225585938 238 254 252
8 -6 8.87115955352783203 201 228 237
7.02305269241333008 -5 -9 87 224 204
8 -5 -9.8366546630859375 53 125 150
7.99400901794433594 -5 -8 101 245 198
8 -5 -7.99290847778320312 91 226 212
7.87872123718261719 -5 7 235 254 249
8 -5 6.85935068130493164 246 254 253
8 -5 8.85308265686035156 215 239 244
7.17356538772583008 -4 -9 98 233 208
8 -4 -9.81414890289306641 64 144 167
8 -4.95777606964111328 -8 91 226 212
8 -4 -8.14856243133544922 85 204 208
8 -4.14817142486572266 7 234 253 252
7.03425168991088867 -4 8 231 254 252
8 -4 7.02269744873046875 242 254 253
8 -4 8.83523082733154297 226 246 249
7.27596235275268555 -3 -9 109 239 211
8 -3 -9.79451370239257812 74 158 179
8 -3 -8.25412750244140625 96 217 217
7.13823032379150391 -3 8 237 254 252
8 -3 7.12792158126831055 248 254 254
8 -3 8.82005500793457031 235 250 252
7.33136224746704102 -2 -9 118 243 216
8 -2 -9.78189563751220703 83 168 188
8 -2 -8.31124591827392578 106 224 224
7.19455242156982422 -2 8 242 253 252
8 -2 7.18491697311401367 253 254 254
8 -2 8.81047725677490234 241 252 253
7.34035825729370117 -1 -9 127 246 221
8 -1 -9.77968406677246094 91 173 194
8 -1 -8.32054424285888672 114 227 228
7.20383834838867188 -1 8 245 253 252
8 -1 7.19431209564208984 251 253 253
8 -1 8.80877494812011719 246 253 254
7.3030552864074707 0 -9 135 247 227
8 0 -9.78853225708007812 98 174 198
8 0 -8.28214073181152344 122 226 230
7.16619873046875 0 8 248 252 252
8 0 7.1562190055847168 247 253 252
8 0 8.81538677215576172 250 253 254
7.21907663345336914 1 -9 141 248 233
8 1 -9.80592250823974609 103 172 198
8 1 -8.195648193359375 128 223 231
7.08124256134033203 1 8 251 252 252
8 1 7.07024097442626953 245 253 252
8 1 8.82865238189697266 252 254 254
7.08753776550292969 2 -9 147 247 237
8 2 -9.82775115966796875 106 168 197
8 2 -8.06015491485595703 133 218 230
7.94063282012939453 2 7 234 243 241
8 1.52355837821960449 7 245 253 252
8 2 6.93114614486694336 228 246 243
8 2 8.84574604034423828 253 254 254
8 3 -9.85031318664550781 107 161 192
7.88621616363525391 3 -8 168 254 233
8 2.32634520530700684 -8 153 248 242
8 3 -7.86536073684692383 158 246 245
7.77068328857421875 3 7 236 245 243
8 3 6.73401260375976562 230 248 245
8 3 8.86394023895263672 253 253 253
8 4 -9.87126922607421875 106 151 185
7.67097043991088867 4 -8 173 253 240
8 4 -7.61060571670532227 161 239 243
7.55314970016479492 4 7 239 248 247
8 4 6.48162555694580078 233 250 249
8 4 8.88133430480957031 251 252 252
8 5 -9.88957500457763672 102 138 174
7.40650081634521484 5 -8 177 251 245
8 5 -7.29748821258544922 162 228 239
7.28571796417236328 5 7 244 251 251
8 5 6.1712641716003418 237 252 253
8 5 8.89693355560302734 247 248 249
8 6 -9.90502738952636719 96 121 160
7.08979988098144531 6 -8 178 246 248
7.93834638595581055 6 -7 197 254 246
8 5.79688787460327148 -7 184 251 249
8 6 -6.91440343856811523 185 243 248
7.83762550354003906 6 6 234 247 246
8 5.46628093719482422 6 237 252 253
8 6 5.77971792221069336 229 251 250
8 6 8.91040515899658203 240 242 245
8 7 -9.91783809661865234 85 102 142
7.58841180801391602 7 -7 200 252 251
8 7 -6.4283289909362793 184 230 241
7.48429155349731445 7 6 242 251 251
8 7 5.30010843276977539 236 252 254
8 7 8.92179107666015625 230 233 238
8 8 -9.92837715148925781 72 80 119
7.18283462524414062 8 -7 198 243 248
7.90744113922119141 8 -6 221 254 252
8 7.7650604248046875 -6 207 250 251
8 8 -5.84481287002563477 206 239 246
7.8209834098815918 8 5 238 250 250
8 7.54664134979248047 5 236 252 254
8 8 4.70801067352294922 232 252 254
7.07450437545776367 8 6 250 253 254
8 8 8.93130874633789062 215 218 227
8 8.92837715148925781 -9 111 131 169
8 8.89500808715820312 -8 147 178 207
8 8.81252670288085938 -7 178 214 231
8 8.34093379974365234 -6 206 239 246
8 8.49841117858886719 5 243 252 254
8 8.82954788208007812 6 249 251 252
8 8.90096664428710938 7 238 240 243
8 8.93130874633789062 8 215 218 227
8.91040897369384766 -9 -9 24 68 98
8.84572410583496094 -9 -8 39 120 147
8.51938152313232422 -9 -7 52 170 185
8.62237071990966797 -9 6 171 221 232
8.859100341796875 -9 7 168 199 215
8.91535377502441406 -9 8 141 163 191
8.89601516723632812 -8 -9 36 102 130
8.79198741912841797 -8 -8 52 158 175
8.81590175628662109 -8 7 190 222 231
8.90272045135498047 -8 8 164 191 211
8.878814697265625 -7 -9 49 134 157
8.69981098175048828 -7 -8 65 191 197
8.74768829345703125 -7 7 208 238 242
8.88793754577636719 -7 8 185 212 226
8.85880756378173828 -6 -9 61 163 178
8.5166778564453125 -6 -8 78 214 208
8.63062858581542969 -6 7 223 248 249
8.87115955352783203 -6 8 201 228 237
8.8366546630859375 -5 -9 73 186 195
8.03259849548339844 -5 -8 91 226 212
8.40362834930419922 -5 7 234 253 252
8.85308265686035156 -5 8 215 239 244
8.81414890289306641 -4 -9 85 204 208
8.83523082733154297 -4 8 226 246 249
8.79451370239257812 -3 -9 96 217 217
8.82005500793457031 -3 8 235 250 252
8.78189563751220703 -2 -9 106 224 224
8.81047725677490234 -2 8 241 252 253
8.77968406677246094 -1 -9 114 227 228
8.80877494812011719 -1 8 246 253 254
8.78853225708007812 0 -9 122 226 230
8.81538677215576172 0 8 250 253 254
8.80592250823974609 1 -9 128 223 231
8.82865238189697266 1 8 252 254 254
8.82775115966796875 2 -9 133 218 230
8.24951553344726562 2 7 244 253 253
8.84574604034423828 2 8 253 254 254
8.85031318664550781 3 -9 135 211 227
8.3883514404296875 3 -8 158 246 245
8.55921363830566406 3 7 245 253 254
8.86394023895263672 3 8 253 253 253
8.87126922607421875 4 -9 136 201 222
8.64386844635009766 4 -8 161 239 243
8.70876121520996094 4 7 246 253 254
8.88133430480957031 4 8 251 252 252
8.88957500457763672 5 -9 135 188 214
8.76187229156494141 5 -8 162 228 239
8.79231929779052734 5 7 248 253 254
8.89693355560302734 5 8 247 248 249
8.90502738952636719 6 -9 130 173 203
8.82742595672607422 6 -8 160 214 232
8.25668430328369141 6 -7 185 243 248
8.47435951232910156 6 6 242 253 254
8.84370803833007812 6 7 250 252 253
8.91040515899658203 6 8 240 242 245
8.91783809661865234 7 -9 123 154 189
8.86800861358642578 7 -8 155 198 221
8.69214439392089844 7 -7 184 230 241
8.73643779754638672 7 6 246 252 254
8.87753772735595703 7 7 249 250 250
8.92179107666015625 7 8 230 233 238
8.92837715148925781 8 -9 111 131 169
8.89500808715820312 8 -8 147 178 207
8.81252670288085938 8 -7 178 214 231
8.34093379974365234 8 -6 206 239 246
8.49841117858886719 8 5 243 252 254
8.82954788208007812 8 6 249 251 252
8.90096664428710938 8 7 238 240 243
8.93130874633789062 8 8 215 218 227
3 2 1 0
3 1 4 3
3 0 1 3
3 4 5 3
3 8 7 6
3 7 10 9
3 6 7 9
3 10 11 9
3 13 2 0
3 12 13 0
3 0 3 12
3 3 14 12
3 5 15 14
3 3 5 14
3 17 8 6
3 16 17 6
3 6 9 16
3 9 18 16
3 11 19 18
3 9 11 18
3 21 13 12
3 20 21 12
3 12 14 20
3 14 22 20
3 15 23 22
3 14 15 22
3 25 17 16
3 24 25 16
3 16 18 24
3 18 26 24
3 19 27 26
3 18 19 26
3 29 21 20
3 28 29 20
3 30 31 28
3 30 28 22
3 22 28 20
3 22 23 30
3 25 24 32
3 34 32 24
3 34 24 33
3 33 24 26
3 27 35 33
3 26 27 33
3 37 29 28
3 36 37 28
3 31 38 36
3 28 31 36
3 40 34 33
3 39 40 33
3 35 41 39
3 33 35 39
3 43 37 36
3 42 43 36
3 38 44 42
3 36 38 42
3 46 40 39
3 45 46 39
3 41 47 45
3 39 41 45
3 49 43 42
3 48 49 42
3 44 50 48
3 42 44 48
3 52 46 45
3 51 52 45
3 47 53 51
3 45 47 51
3 55 49 48
3 54 55 48
3 50 56 54
3 48 50 54
3 58 52 51
3 57 58 51
3 53 59 57
3 51 53 57
3 61 55 54
3 60 61 54
3 56 62 60
3 54 56 60
3 64 58 57
3 63 64 57
3 59 65 63
3 57 59 63
3 67 61 60
3 66 67 60
3 62 68 66
3 60 62 66
3 70 64 63
3 69 70 63
3 65 71 69
3 63 65 69
3 73 67 66
3 72 73 66
3 68 74 72
3 66 68 72
3 76 70 69
3 75 76 69
3 71 77 75
3 69 71 75
3 79 73 72
3 78 79 72
3 74 80 78
3 72 74 78
3 82 76 75
3 81 82 75
3 77 83 81
3 75 77 81
3 85 79 78
3 84 85 78
3 80 86 84
3 78 80 84
3 88 82 81
3 87 88 81
3 83 89 87
3 81 83 87
3 91 85 84
3 90 91 84
3 86 92 90
3 84 86 90
3 95 94 93
3 94 88 87
3 94 87 93
3 93 87 96
3 89 97 96
3 87 89 96
3 99 91 90
3 98 99 90
3 92 101 100
3 92 100 90
3 90 100 98
3 101 102 100
3 104 95 93
3 103 104 93
3 93 96 103
3 96 105 103
3 97 106 105
3 96 97 105
3 108 99 98
3 107 108 98
3 98 100 107
3 100 109 107
3 102 110 109
3 100 102 109
3 112 104 103
3 111 112 103
3 103 105 111
3 105 113 111
3 106 114 113
3 105 106 113
3 116 108 107
3 115 116 107
3 107 109 115
3 109 117 115
3 110 119 118
3 110 118 109
3 109 118 117
3 119 120 118
3 123 122 121
3 122 112 111
3 122 111 121
3 121 111 124
3 111 113 124
3 113 125 124
3 114 126 125
3 113 114 125
3 128 116 115
3 127 128 115
3 115 117 127
3 117 129 127
3 117 118 129
3 118 130 129
3 120 131 130
3 118 120 130
3 133 123 121
3 132 133 121
3 121 124 132
3 124 134 132
3 124 125 134
3 125 135 134
3 126 136 135
3 125 126 135
3 128 127 137
3 127 129 138
3 137 127 138
3 129 130 139
3 138 129 139
3 130 131 139
3 133 132 140
3 132 134 141
3 140 132 141
3 134 135 142
3 141 134 142
3 135 136 142
3 2 144 143
3 1 2 143
3 146 145 4
3 146 4 143
3 143 4 1
3 4 145 5
3 7 8 147
3 147 149 148
3 147 148 7
3 7 148 10
3 10 148 150
3 11 10 150
3 144 2 151
3 151 2 13
3 153 145 146
3 152 145 153
3 145 152 15
3 5 145 15
3 154 147 8
3 17 154 8
3 149 154 155
3 147 154 149
3 150 156 11
3 156 19 11
3 151 13 157
3 157 13 21
3 159 152 153
3 158 152 159
3 152 158 23
3 15 152 23
3 160 154 17
3 25 160 17
3 155 160 161
3 154 160 155
3 156 162 19
3 162 27 19
3 163 164 157
3 163 157 29
3 29 157 21
3 158 31 30
3 159 31 158
3 159 163 31
3 159 164 163
3 158 30 23
3 160 25 32
3 32 34 165
3 160 32 165
3 160 165 166
3 160 166 161
3 166 165 35
3 166 35 162
3 162 35 27
3 167 163 29
3 37 167 29
3 163 167 38
3 31 163 38
3 168 165 34
3 40 168 34
3 165 168 41
3 35 165 41
3 169 167 37
3 43 169 37
3 167 169 44
3 38 167 44
3 170 168 40
3 46 170 40
3 168 170 47
3 41 168 47
3 171 169 43
3 49 171 43
3 169 171 50
3 44 169 50
3 172 170 46
3 52 172 46
3 170 172 53
3 47 170 53
3 173 171 49
3 55 173 49
3 171 173 56
3 50 171 56
3 174 172 52
3 58 174 52
3 172 174 59
3 53 172 59
3 175 173 55
3 61 175 55
3 173 175 62
3 56 173 62
3 176 174 58
3 64 176 58
3 174 176 65
3 59 174 65
3 177 175 61
3 67 177 61
3 175 177 68
3 62 175 68
3 178 176 64
3 70 178 64
3 176 178 71
3 65 176 71
3 179 177 67
3 73 179 67
3 177 179 74
3 68 177 74
3 180 178 70
3 76 180 70
3 178 180 77
3 71 178 77
3 181 179 73
3 79 181 73
3 179 181 80
3 74 179 80
3 182 180 76
3 82 182 76
3 180 182 83
3 77 180 83
3 183 181 79
3 85 183 79
3 181 183 86
3 80 181 86
3 184 182 82
3 88 184 82
3 182 184 89
3 83 182 89
3 185 183 85
3 91 185 85
3 183 185 92
3 86 183 92
3 94 95 186
3 186 188 187
3 94 186 187
3 94 187 184
3 94 184 88
3 184 187 189
3 184 189 89
3 89 189 97
3 190 185 91
3 190 91 191
3 191 91 99
3 193 192 101
3 190 193 101
3 190 101 92
3 190 92 185
3 101 192 102
3 194 186 95
3 104 194 95
3 188 194 195
3 186 194 188
3 189 196 97
3 196 106 97
3 191 99 197
3 197 99 108
3 199 192 193
3 198 192 199
3 192 198 110
3 102 192 110
3 200 194 104
3 112 200 104
3 195 200 201
3 194 200 195
3 196 202 106
3 202 114 106
3 197 108 203
3 203 108 116
3 205 198 199
3 204 198 205
3 119 110 198
3 119 198 206
3 206 198 204
3 119 206 120
3 122 123 207
3 207 209 208
3 122 207 208
3 122 208 200
3 122 200 112
3 200 208 201
3 202 210 114
3 210 126 114
3 203 116 211
3 211 116 128
3 205 212 204
3 214 204 212
3 214 213 204
3 213 206 204
3 206 213 131
3 120 206 131
3 215 207 123
3 133 215 123
3 209 215 216
3 207 215 209
3 210 217 126
3 217 136 126
3 211 128 137
3 218 211 137
3 218 137 219
3 137 138 219
3 213 214 219
3 213 219 139
3 139 219 138
3 213 139 131
3 215 133 140
3 216 215 140
3 216 140 220
3 220 140 141
3 220 141 221
3 141 142 221
3 221 142 136
3 217 221 136
3 143 144 222
3 143 222 146
3 149 224 223
3 148 149 223
3 148 223 225
3 150 148 225
3 226 222 144
3 151 226 144
3 222 226 153
3 146 222 153
3 227 228 224
3 227 224 155
3 155 224 149
3 228 227 156
3 228 156 225
3 225 156 150
3 229 226 151
3 157 229 151
3 226 229 159
3 153 226 159
3 230 227 155
3 161 230 155
3 227 230 162
3 156 227 162
3 229 157 164
3 229 164 159
3 230 161 166
3 230 166 162
3 187 188 231
3 187 231 189
3 190 191 232
3 190 232 193
3 233 231 188
3 195 233 188
3 231 233 196
3 189 231 196
3 234 232 191
3 197 234 191
3 232 234 199
3 193 232 199
3 235 233 195
3 201 235 195
3 233 235 202
3 196 233 202
3 236 234 197
3 236 197 237
3 237 197 203
3 234 236 238
3 234 238 199
3 199 238 205
3 208 209 239
3 239 241 240
3 208 239 240
3 208 240 235
3 208 235 201
3 235 240 242
3 235 242 202
3 202 242 210
3 237 203 243
3 243 203 211
3 212 245 244
3 212 205 245
3 205 238 245
3 212 244 214
3 246 239 209
3 216 246 209
3 241 246 247
3 239 246 241
3 242 248 210
3 248 217 210
3 243 211 218
3 249 243 218
3 244 245 249
3 244 249 219
3 219 249 218
3 244 219 214
3 246 216 220
3 247 246 220
3 247 220 250
3 250 220 221
3 250 221 217
3 248 250 217
3 223 224 251
3 223 251 225
3 251 224 228
3 251 228 225
3 236 237 252
3 236 252 238
3 240 241 253
3 240 253 242
3 254 252 237
3 243 254 237
3 252 254 245
3 238 252 245
3 255 253 241
3 247 255 241
3 253 255 248
3 242 253 248
3 254 243 249
3 254 249 245
3 255 247 250
3 255 250 248
3 258 257 256
3 257 259 256
3 262 261 260
3 261 263 260
3 258 256 264
3 256 259 264
3 262 260 265
3 260 263 265
3 268 267 266
3 267 269 266
3 272 271 270
3 271 273 270
3 268 266 274
3 266 269 274
3 272 270 275
3 270 273 275
3 278 277 276
3 277 279 276
3 282 281 280
3 281 283 280
3 285 278 276
3 284 285 276
3 279 286 284
3 276 279 284
3 288 282 280
3 287 288 280
3 283 289 287
3 280 283 287
3 284 257 258
3 284 258 285
3 285 258 290
3 257 284 286
3 257 286 259
3 259 286 291
3 287 261 262
3 287 262 288
3 288 262 292
3 261 287 289
3 261 289 263
3 263 289 293
3 290 258 264
3 294 290 264
3 294 264 259
3 291 294 259
3 292 262 265
3 295 292 265
3 295 265 263
3 293 295 263
3 268 297 296
3 267 268 296
3 298 269 267
3 298 267 299
3 299 267 296
3 299 300 298
3 303 302 301
3 272 301 302
3 272 302 271
3 271 302 304
3 271 304 305
3 273 271 305
3 274 306 307
3 274 307 268
3 268 307 297
3 306 308 309
3 274 308 306
3 274 298 308
3 274 269 298
3 298 300 308
3 303 301 310
3 312 275 311
3 310 275 312
3 310 272 275
3 310 301 272
3 311 275 273
3 311 273 313
3 313 273 305
3 315 307 306
3 314 315 306
3 309 316 314
3 306 309 314
3 318 312 311
3 317 318 311
3 313 319 317
3 311 313 317
3 321 315 314
3 320 321 314
3 316 322 320
3 314 316 320
3 324 318 317
3 323 324 317
3 319 325 323
3 317 319 323
3 321 320 326
3 320 322 326
3 328 324 323
3 327 328 323
3 325 329 327
3 323 325 327
3 328 327 330
3 327 329 330
3 333 332 331
3 332 334 331
3 337 336 335
3 336 338 335
3 340 333 331
3 339 340 331
3 334 341 339
3 331 334 339
3 343 337 335
3 342 343 335
3 338 344 342
3 335 338 342
3 346 340 339
3 345 346 339
3 341 347 345
3 339 341 345
3 349 343 342
3 348 349 342
3 344 350 348
3 342 344 348
3 352 346 345
3 351 352 345
3 347 353 351
3 345 347 351
3 348 277 278
3 348 278 349
3 349 278 354
3 277 348 350
3 277 350 279
3 279 350 355
3 358 357 356
3 351 281 282
3 352 351 282
3 352 282 356
3 352 356 357
3 281 351 353
3 281 353 283
3 283 353 359
3 354 278 360
3 360 278 285
3 361 355 362
3 361 286 355
3 286 279 355
3 362 363 361
3 365 358 356
3 364 365 356
3 356 288 364
3 282 288 356
3 359 366 283
3 366 289 283
3 360 285 367
3 367 285 290
3 368 286 361
3 291 286 368
3 363 369 368
3 361 363 368
3 371 365 364
3 370 371 364
3 364 292 370
3 288 292 364
3 366 372 289
3 372 293 289
3 367 290 294
3 373 367 294
3 291 368 374
3 291 374 294
3 294 374 373
3 368 369 374
3 371 370 375
3 370 292 295
3 370 295 375
3 375 295 376
3 376 295 293
3 372 376 293
3 297 378 377
3 296 297 377
3 377 379 296
3 296 379 299
3 380 300 299
3 380 299 381
3 381 299 379
3 381 382 380
3 385 384 383
3 303 383 384
3 303 384 302
3 302 384 386
3 386 387 302
3 302 387 304
3 304 387 388
3 305 304 388
3 378 297 389
3 389 297 307
3 308 390 309
3 390 391 392
3 308 391 390
3 308 380 391
3 308 300 380
3 380 382 391
3 385 383 393
3 395 310 394
3 393 310 395
3 393 303 310
3 393 383 303
3 310 312 394
3 388 396 305
3 396 313 305
3 389 307 397
3 397 307 315
3 398 309 390
3 316 309 398
3 392 399 398
3 390 392 398
3 401 395 394
3 400 401 394
3 394 318 400
3 312 318 394
3 396 402 313
3 402 319 313
3 397 315 403
3 403 315 321
3 404 316 398
3 322 316 404
3 399 405 404
3 398 399 404
3 407 401 400
3 406 407 400
3 400 324 406
3 318 324 400
3 402 408 319
3 408 325 319
3 326 409 410
3 326 410 321
3 321 410 403
3 322 409 326
3 322 404 409
3 404 411 409
3 405 412 411
3 404 405 411
3 414 407 406
3 413 414 406
3 406 328 413
3 324 328 406
3 408 415 325
3 415 329 325
3 417 410 409
3 416 417 409
3 418 419 416
3 418 416 411
3 411 416 409
3 411 412 418
3 414 413 420
3 422 330 421
3 420 330 422
3 420 328 330
3 420 413 328
3 421 330 329
3 421 329 423
3 423 329 415
3 425 417 416
3 424 425 416
3 419 426 424
3 416 419 424
3 428 422 421
3 427 428 421
3 423 429 427
3 421 423 427
3 431 425 424
3 430 431 424
3 426 432 430
3 424 426 430
3 434 428 427
3 433 434 427
3 429 435 433
3 427 429 433
3 437 431 430
3 436 437 430
3 432 438 436
3 430 432 436
3 440 434 433
3 439 440 433
3 435 441 439
3 433 435 439
3 443 437 436
3 442 443 436
3 438 444 442
3 436 438 442
3 446 440 439
3 445 446 439
3 441 447 445
3 439 441 445
3 449 443 442
3 448 449 442
3 444 450 448
3 442 444 448
3 452 446 445
3 451 452 445
3 447 453 451
3 445 447 451
3 455 449 448
3 454 455 448
3 450 456 454
3 448 450 454
3 459 458 457
3 451 332 333
3 452 451 333
3 452 333 457
3 452 457 458
3 332 451 453
3 332 453 334
3 334 453 460
3 454 336 337
3 454 337 455
3 455 337 461
3 336 462 338
3 454 462 336
3 454 463 462
3 454 456 463
3 463 464 462
3 466 459 457
3 465 466 457
3 457 340 465
3 333 340 457
3 460 467 334
3 467 341 334
3 461 337 468
3 468 337 343
3 469 338 462
3 344 338 469
3 464 470 469
3 462 464 469
3 472 466 465
3 471 472 465
3 465 346 471
3 340 346 465
3 467 473 341
3 473 347 341
3 468 343 474
3 474 343 349
3 475 344 469
3 350 344 475
3 470 476 475
3 469 470 475
3 478 472 471
3 477 478 471
3 471 352 477
3 346 352 471
3 473 479 347
3 479 353 347
3 474 349 480
3 480 349 354
3 481 350 475
3 355 350 481
3 476 483 482
3 476 482 475
3 475 482 481
3 483 484 482
3 487 486 485
3 477 357 358
3 478 477 358
3 478 358 485
3 478 485 486
3 477 352 357
3 479 488 353
3 488 359 353
3 480 354 489
3 489 354 360
3 481 362 355
3 362 490 363
3 362 481 490
3 481 482 490
3 484 491 490
3 482 484 490
3 493 487 485
3 492 493 485
3 485 365 492
3 358 365 485
3 488 494 359
3 494 366 359
3 489 360 495
3 495 360 367
3 496 363 490
3 369 363 496
3 491 498 497
3 491 497 490
3 490 497 496
3 498 499 497
3 502 501 500
3 501 493 492
3 501 492 500
3 500 492 503
3 492 371 503
3 365 371 492
3 494 504 366
3 504 372 366
3 495 367 373
3 505 495 373
3 505 373 506
3 373 374 506
3 369 496 507
3 369 507 374
3 374 507 506
3 496 497 508
3 507 496 508
3 497 499 508
3 502 500 509
3 500 503 510
3 509 500 510
3 503 371 375
3 503 375 510
3 510 375 511
3 511 375 512
3 375 376 512
3 512 376 372
3 504 512 372
3 377 378 513
3 379 377 513
3 514 379 513
3 381 379 514
3 515 381 514
3 381 515 382
3 384 385 516
3 386 384 516
3 517 386 516
3 387 386 517
3 518 387 517
3 387 518 388
3 519 513 378
3 389 519 378
3 513 519 514
3 514 519 520
3 392 391 515
3 392 515 520
3 520 515 514
3 515 391 382
3 516 385 393
3 393 395 521
3 393 521 516
3 516 521 517
3 517 521 518
3 518 521 522
3 518 522 396
3 388 518 396
3 523 519 389
3 397 523 389
3 519 523 520
3 520 523 524
3 520 524 399
3 392 520 399
3 525 521 395
3 401 525 395
3 521 525 522
3 522 525 526
3 522 526 402
3 396 522 402
3 527 523 397
3 403 527 397
3 523 527 524
3 524 527 528
3 524 528 405
3 399 524 405
3 529 525 401
3 407 529 401
3 525 529 526
3 526 529 530
3 526 530 408
3 402 526 408
3 531 527 403
3 410 531 403
3 527 531 528
3 528 531 532
3 528 532 412
3 405 528 412
3 533 529 407
3 414 533 407
3 529 533 530
3 530 533 534
3 530 534 415
3 408 530 415
3 535 531 410
3 417 535 410
3 419 418 532
3 419 532 535
3 535 532 531
3 532 418 412
3 533 414 420
3 420 422 536
3 420 536 533
3 533 536 534
3 534 536 423
3 415 534 423
3 537 535 417
3 425 537 417
3 535 537 426
3 419 535 426
3 538 536 422
3 428 538 422
3 536 538 429
3 423 536 429
3 539 537 425
3 431 539 425
3 537 539 432
3 426 537 432
3 540 538 428
3 434 540 428
3 538 540 435
3 429 538 435
3 541 539 431
3 437 541 431
3 539 541 438
3 432 539 438
3 542 540 434
3 440 542 434
3 540 542 441
3 435 540 441
3 543 541 437
3 443 543 437
3 541 543 444
3 438 541 444
3 544 542 440
3 446 544 440
3 542 544 447
3 441 542 447
3 545 543 443
3 449 545 443
3 543 545 450
3 444 543 450
3 546 544 446
3 452 546 446
3 544 546 453
3 447 544 453
3 547 545 449
3 455 547 449
3 545 547 456
3 450 545 456
3 458 459 548
3 452 458 548
3 452 548 546
3 546 548 549
3 546 549 460
3 453 546 460
3 550 547 455
3 461 550 455
3 463 456 547
3 463 547 551
3 551 547 550
3 463 551 464
3 552 548 459
3 466 552 459
3 548 552 549
3 549 552 553
3 549 553 467
3 460 549 467
3 554 550 461
3 468 554 461
3 550 554 551
3 551 554 555
3 551 555 470
3 464 551 470
3 556 552 466
3 472 556 466
3 552 556 553
3 553 556 557
3 553 557 473
3 467 553 473
3 558 554 468
3 474 558 468
3 554 558 555
3 555 558 559
3 555 559 476
3 470 555 476
3 560 556 472
3 478 560 472
3 556 560 557
3 557 560 561
3 557 561 479
3 473 557 479
3 562 558 474
3 480 562 474
3 558 562 559
3 559 562 563
3 483 476 559
3 483 559 564
3 564 559 563
3 483 564 484
3 486 487 565
3 478 486 565
3 478 565 560
3 560 565 566
3 560 566 561
3 561 566 567
3 561 567 488
3 479 561 488
3 568 562 480
3 489 568 480
3 562 568 563
3 563 568 569
3 563 569 564
3 564 569 570
3 564 570 491
3 484 564 491
3 571 565 487
3 493 571 487
3 565 571 566
3 566 571 572
3 566 572 567
3 567 572 573
3 567 573 494
3 488 567 494
3 574 568 489
3 495 574 489
3 568 574 569
3 569 574 575
3 569 575 570
3 570 575 576
3 498 491 570
3 498 570 577
3 577 570 576
3 498 577 499
3 501 502 578
3 493 501 578
3 493 578 571
3 571 578 579
3 571 579 572
3 572 579 580
3 572 580 573
3 573 580 581
3 573 581 504
3 494 573 504
3 574 495 505
3 575 574 505
3 506 575 505
3 576 575 506
3 507 576 506
3 577 576 507
3 508 577 507
3 577 508 499
3 578 502 509
3 579 578 509
3 510 579 509
3 580 579 510
3 511 580 510
3 581 580 511
3 512 581 511
3 581 512 504
