ply
format ascii 1.0
element vertex 780
property float x
property float y
property float z
property uchar red
property uchar green
property uchar blue
element face 1544
property list uchar int vertex_indices
end_header
-9.84376621246337891 -9 -9 29 27 27
-9 -9.84376621246337891 -9 7 0 0
-9 -9 -9.84376621246337891 31 23 23
-9.65592193603515625 -9 -8 9 0 0
-9 -9.65592193603515625 -8 14 0 0
-9 -9 -7.09578990936279297 3 0 0
-9.604644775390625 -9 7 6 30 22
-9 -9.604644775390625 7 27 33 13
-9 -9 6.36687946319580078 24 26 15
-9.81689643859863281 -9 8 14 0 30
-9 -9.81689643859863281 8 7 37 13
-9 -9 8.81689643859863281 0 13 31
-9.82678890228271484 -8 -9 30 25 25
-9 -8 -9.82678890228271484 24 10 10
-9.39241600036621094 -8 -8 5 0 0
-9 -8 -7.53875494003295898 12 0 0
-9.51171207427978516 -8 7 0 9 24
-9 -8 6.605712890625 20 23 14
-9.80863857269287109 -8 8 3 0 24
-9 -8 8.80863857269287109 8 0 22
-9.73935413360595703 -7 -9 31 25 25
-9 -7 -9.73935413360595703 17 1 1
-9 -7.56376028060913086 -8 12 0 0
-9 -7 -8.22734832763671875 28 21 21
-9 -7.30504274368286133 7 6 25 21
-9.69568634033203125 -7 8 2 6 33
-9 -7 7.16750955581665039 0 4 17
-9 -7 8.69568634033203125 10 0 22
-9 -6.10991477966308594 -9 28 21 21
-9 -6.37978410720825195 8 10 0 22
-9.12299251556396484 5 -9 46 25 25
-9 4.95484590530395508 -9 48 44 44
-9 5 -9.12299251556396484 66 66 66
-9 5 -8.92212772369384766 48 35 35
-9.1328582763671875 5 8 63 0 0
-9 4.95888328552246094 8 66 10 10
-9 5 7.94426345825195312 62 0 0
-9 5 8.1328582763671875 68 0 0
-9.69228935241699219 6 -9 51 23 23
-9 6 -9.69228935241699219 78 77 77
-9.22582340240478516 6 -8 57 41 41
-9 5.85059499740600586 -8 60 57 57
-9 6 -7.83681392669677734 60 55 55
-9.76123046875 6 8 62 0 0
-9 6 7.00106287002563477 65 0 0
-9 6 8.76123046875 62 0 0
-9.77072048187255859 7 -9 61 27 27
-9 7 -9.77072048187255859 80 40 40
-9.47405338287353516 7 -8 54 19 19
-9 7 -7.39049720764160156 59 40 40
-9.64005374908447266 7 7 63 0 0
-9 6.00190401077270508 7 65 0 0
-9 7 6.33991289138793945 61 0 0
-9.81033039093017578 7 8 84 23 23
-9 7 8.81033039093017578 70 0 0
-9.77593421936035156 8 -9 77 47 47
-9 8 -9.77593421936035156 88 48 48
-9.25225639343261719 8 -8 59 19 19
-9 8 -7.76942873001098633 59 25 25
-9.55859565734863281 8 7 89 53 53
-9 8 6.33023929595947266 62 0 0
-9.73483657836914062 8 8 101 92 92
-9 8 8.73483657836914062 97 74 74
-9 8.77593421936035156 -9 74 50 50
-9 8.25225639343261719 -8 59 25 25
-9 8.55859565734863281 7 75 0 0
-9 8.73483657836914062 8 97 74 74
-8 -9.53184986114501953 -9 0 0 0
-8 -9 -9.53184986114501953 29 22 22
-8.50083732604980469 -9 -8 3 0 0
-8 -9 -8.62736988067626953 15 11 11
-8.6333465576171875 -9 7 16 30 13
-8 -9.2937164306640625 8 39 25 15
-8 -9 7.86399316787719727 31 25 18
-8 -9 8.2937164306640625 11 32 6
-8 -8 -9.77957057952880859 19 7 7
-8.40032100677490234 -8 -8 12 0 0
-8 -8 -8.10866451263427734 23 19 19
-8.17189598083496094 -8 7 6 25 21
-8 -8 7.06749343872070312 15 26 11
-8 -8 8.75034332275390625 0 16 23
-8 -7 -9.81267070770263672 11 0 0
-8.28435611724853516 -7 -8 2 0 0
-8 -7.43477582931518555 -8 10 0 0
-8 -7 -7.70547866821289062 10 0 0
-8.70659446716308594 -7 7 0 4 17
-8 -7.8358616828918457 7 15 26 11
-8 -7 6.61306142807006836 15 19 11
-8 -7 8.80667877197265625 0 7 14
-8.91526222229003906 -6 -9 27 23 23
-8 -6 -9.79094886779785156 7 0 0
-8.21275424957275391 -6 -8 17 13 13
-8 -6 -7.69095373153686523 6 6 6
-8.22257614135742188 -6 7 0 10 18
-8 -6 6.61774778366088867 2 11 3
-8.70373821258544922 -6 8 7 11 30
-8 -6 8.768798828125 0 8 22
-8.27163219451904297 -5 -9 23 22 22
-8 -5 -9.64564037322998047 7 0 0
-8 -5.34108400344848633 -8 6 6 6
-8 -5 -8.19512844085693359 17 13 13
-8 -5.51663351058959961 7 0 10 9
-8.17129898071289062 -5 8 20 32 36
-8 -5 7.47610807418823242 4 19 16
-8 -5 8.55722618103027344 10 16 29
-8 -4.45026969909667969 -9 17 13 13
-8 -4.59163522720336914 8 10 16 29
-8.10026454925537109 3 -9 49 45 45
-8 2.72782254219055176 -9 49 36 36
-8 3 -9.44334888458251953 44 44 44
-8 3 -8.71635341644287109 50 41 41
-8.44888496398925781 4 -9 48 44 44
-8 4 -9.70721530914306641 53 50 50
-8.05845451354980469 4 -8 58 50 50
-8 3.86646771430969238 -8 45 42 42
-8 4 -7.88569450378417969 57 47 47
-8.32150363922119141 4 8 66 10 10
-8 3.09131884574890137 8 56 22 22
-8 4 7.27153539657592773 52 15 15
-8 4 8.62868213653564453 64 16 16
-8 5 -9.73803234100341797 66 59 59
-8.37747097015380859 5 -8 60 57 57
-8 5 -7.58559894561767578 61 52 52
-8.01234722137451172 5 7 62 0 0
-8 4.95109748840332031 7 52 15 15
-8 5 6.98449230194091797 51 11 11
-8 5 8.70037651062011719 73 11 11
-8 6 -9.67892360687255859 78 69 69
-8 6 -7.90007400512695312 63 59 59
-8 5.04956245422363281 7 60 6 6
-8 6 7.18930912017822266 70 5 5
-8 6 8.72713375091552734 66 0 0
-8 7 -9.25727462768554688 80 53 53
-8.69792366027832031 7 -8 59 40 40
-8 6.08709526062011719 -8 63 59 59
-8 7 -8.85738372802734375 62 48 48
-8.47874641418457031 7 7 61 0 0
-8 7 7.54598140716552734 65 0 0
-8 7 8.57592964172363281 67 0 0
-8.42003726959228516 8 -9 74 50 50
-8 7.12135219573974609 -9 62 48 48
-8.94460105895996094 8 -8 59 25 25
-8.78195667266845703 8 7 75 0 0
-8.50764560699462891 8 8 97 74 74
-8 7.322174072265625 8 67 0 0
-7.88541650772094727 -9 -9 15 11 11
-7.95666074752807617 -9 8 11 32 6
-7.46746635437011719 -8 -9 23 19 19
-7.53298234939575195 -8 8 0 16 23
-7 -7.17712926864624023 -9 21 18 18
-7 -7 -9.40057373046875 7 0 0
-7.91313314437866211 -7 -8 10 0 0
-7 -7 -8.83914661407470703 21 17 17
-7.69233083724975586 -7 7 1 17 12
-7 -7.1667943000793457 8 11 23 0
-7 -7 7.78403711318969727 11 17 2
-7 -7 8.40710353851318359 0 14 5
-7 -6 -9.739990234375 4 0 0
-7.18020439147949219 -6 -8 6 6 6
-7 -6 -8.06183147430419922 17 16 16
-7 -6.13494253158569336 7 11 17 2
-7 -6 6.86087703704833984 10 10 3
-7 -6 8.74365711212158203 0 17 5
-7 -5 -9.77833366394042969 4 0 0
-7.77007675170898438 -5 -8 18 10 10
-7 -5.88747882843017578 -8 1 1 1
-7 -5 -7.58368635177612305 14 9 9
-7.53142356872558594 -5 7 4 19 16
-7 -5 6.39833736419677734 4 2 0
-7 -5 8.78478431701660156 2 23 11
-7.66072607040405273 -4 -9 11 5 5
-7 -4 -9.7440032958984375 6 0 0
-7.2922825813293457 -4 -8 22 10 10
-7 -4 -7.63300752639770508 17 10 10
-7.13870620727539062 -4 7 17 26 24
-7 -4 6.67125463485717773 12 10 5
-7.64266109466552734 -4 8 19 22 33
-7 -4 8.76630687713623047 9 27 20
-7.17865562438964844 -3 -9 8 2 2
-7 -3 -9.56096172332763672 12 1 1
-7 -3.1241457462310791 -8 17 10 10
-7 -3 -8.13254165649414062 2 0 0
-7 -3.55629944801330566 7 13 20 8
-7.24347352981567383 -3 8 24 22 35
-7 -3 7.32665777206420898 17 24 16
-7 -3 8.65405654907226562 10 29 24
-7 -2.5150146484375 -9 2 0 0
-7 -2.20028877258300781 8 10 29 24
-7.16374683380126953 1 -9 41 38 38
-7 0.626854956150054932 -9 16 5 5
-7 1 -9.56431484222412109 43 28 28
-7 1 -8.621429443359375 34 29 29
-7.03673362731933594 1 8 53 49 49
-7 0.896679282188415527 8 49 44 50
-7 1 7.89109992980957031 42 39 47
-7 1 8.2335205078125 52 51 51
-7.61539602279663086 2 -9 49 36 36
-7 2 -9.77313041687011719 43 33 33
-7 2 -8.05767917633056641 49 32 32
-7.3878631591796875 2 8 54 38 38
-7 2 7.19784212112426758 49 48 49
-7 2 8.68626022338867188 54 43 43
-7 3 -9.79110240936279297 46 40 40
-7.26337909698486328 3 -8 45 42 42
-7 2.22482633590698242 -8 24 9 9
-7 3 -7.70851850509643555 39 29 29
-7.07236242294311523 3 7 48 26 26
-7 2.71072125434875488 7 49 48 49
-7 3 6.9101262092590332 38 38 44
-7.94174909591674805 3 8 56 22 22
-7 3 8.73339271545410156 56 31 31
-7 4 -9.73140335083007812 56 45 45
-7 4 -7.86189699172973633 55 45 45
-7 3.31871676445007324 7 49 33 48
-7 4 7.20301151275634766 53 23 30
-7 4 8.64821815490722656 66 29 29
-7 5 -9.24321174621582031 69 50 50
-7.62184619903564453 5 -8 61 52 52
-7 4.19733858108520508 -8 55 45 45
-7 5 -8.83746337890625 52 50 50
-7.98842048645019531 5 7 60 6 6
-7.16022443771362305 5 8 73 11 11
-7 4.80513191223144531 8 66 29 29
-7.61237096786499023 6 -9 54 43 43
-7 5.08776235580444336 -9 52 50 50
-7.96494626998901367 6 -8 63 59 59
-7.53407859802246094 6 8 66 0 0
-7.95944690704345703 7 -9 62 48 48
-7.84328079223632812 7 8 67 0 0
-6.92946386337280273 -7 -9 21 17 17
-6.9239964485168457 -7 8 0 14 5
-6.56278133392333984 -6 -9 17 16 16
-6.93636751174926758 -6 7 3 9 0
-6.50514888763427734 -6 8 0 17 5
-6.01475954055786133 -5 -9 10 6 6
-6.56320095062255859 -5 -8 14 9 9
-6.56517791748046875 -5 7 7 13 0
-6 -5.22210121154785156 8 14 16 0
-6 -5 7.66599702835083008 11 1 0
-6 -5 8.45814800262451172 17 20 0
-6 -4.97819089889526367 -9 4 1 1
-6 -4 -9.70232200622558594 6 0 0
-6 -4.30486106872558594 -8 11 8 8
-6 -4 -7.75854730606079102 12 9 9
-6 -4.31487178802490234 7 11 1 0
-6 -4 6.65994977951049805 8 8 2
-6 -4 8.77158260345458984 21 22 2
-6 -3 -9.78431606292724609 9 0 0
-6.9081873893737793 -3 -8 16 12 12
-6 -3 -7.18540620803833008 8 8 8
-6.68785381317138672 -3 7 17 24 16
-6 -3 6.15427255630493164 14 12 7
-6 -3 8.82631778717041016 22 22 1
-6.73340702056884766 -2 -9 3 0 0
-6 -2 -9.78870201110839844 20 11 11
-6.3351898193359375 -2 -8 12 11 11
-6.01272201538085938 -2 -7 16 6 6
-6 -2.13100957870483398 -7 1 1 1
-6 -2 -6.97977828979492188 11 6 6
-6.37810993194580078 -2 7 19 27 19
-6 -2 6.14480304718017578 17 14 11
-6.90675115585327148 -2 8 6 29 27
-6 -2 8.82157039642333984 16 28 8
-6.34911584854125977 -1 -9 7 0 0
-6 -1 -9.72800731658935547 35 26 26
-6.02670526504516602 -1 -8 7 4 4
-6 -1.94341862201690674 -7 11 6 6
-6 -1 -7.84419870376586914 1 0 0
-6.10395288467407227 -1 7 16 28 17
-6 -1 6.62972497940063477 18 14 10
-6.37788915634155273 -1 8 32 36 40
-6 -1 8.74212932586669922 36 40 39
-6.62664175033569336 0 -9 16 5 5
-6 0 -9.78503894805908203 44 19 19
-6.15561723709106445 0 -8 9 3 3
-6 0 -7.32821321487426758 4 0 0
-6.14754390716552734 0 7 39 40 41
-6 0 6.56770896911621094 31 31 30
-6.56275367736816406 0 8 49 44 50
-6 0 8.77288436889648438 40 42 49
-6 1 -9.81737613677978516 44 23 23
-6.34698009490966797 1 -8 15 4 4
-6 1 -7.31939983367919922 10 1 1
-6.29682016372680664 1 7 42 39 47
-6 1 6.5592036247253418 28 42 27
-6 1 8.78834152221679688 49 47 51
-6 2 -9.80082225799560547 46 29 29
-6.49197769165039062 2 -8 24 9 9
-6 2 -7.90356016159057617 20 5 5
-6.25541353225708008 2 7 49 48 49
-6 2 6.92536449432373047 33 45 40
-6 2 8.73979568481445312 54 49 54
-6 3 -9.62649154663085938 51 34 34
-6.71030998229980469 3 -8 39 29 29
-6 2.10277724266052246 -8 20 5 5
-6 3 -8.51251697540283203 55 26 26
-6.90231037139892578 3 7 49 33 48
-6 2.08361482620239258 7 44 46 49
-6 3 7.79905366897583008 44 43 51
-6 3 8.33776664733886719 60 44 44
-6.45846366882324219 4 -9 52 42 42
-6 3.42115688323974609 -9 55 26 26
-6.92395496368408203 4 -8 55 45 45
-6.65144157409667969 4 8 66 29 29
-6 3.12899637222290039 8 60 44 44
-6.96033954620361328 5 -9 52 50 50
-5.89902210235595703 -5 8 17 20 0
-5.58371448516845703 -4 -9 0 0 0
-5.86572265625 -4 -8 12 9 9
-5.85713052749633789 -4 7 16 4 4
-5.34678459167480469 -4 8 21 22 2
-5 -3.23961830139160156 -9 2 0 0
-5 -3 -9.51041030883789062 11 2 2
-5.40493011474609375 -3 -8 8 8 8
-5 -3 -8.55761528015136719 2 0 0
-5.11446619033813477 -3 7 19 8 7
-5 -3.56018781661987305 8 19 2 0
-5 -3 7.10264110565185547 12 15 2
-5 -3 8.69550704956054688 23 6 2
-5 -2 -9.79823875427246094 22 16 16
-5 -2.52765870094299316 -8 1 1 1
-5.39243841171264648 -2 -7 11 6 6
-5 -2 -7.02833080291748047 0 0 0
-5.44408559799194336 -2 6 17 14 11
-5 -2.09551644325256348 6 4 11 4
-5 -2 5.86836576461791992 5 9 7
-5 -2.90601730346679688 7 12 15 2
-5 -2 8.81828212738037109 34 34 22
-5 -1 -9.84737110137939453 36 23 23
-5.5632023811340332 -1 -7 13 8 8
-5 -1.97083175182342529 -7 7 5 5
-5 -1 -6.35812711715698242 5 5 5
-5.5338749885559082 -1 6 18 14 10
-5 -1 5.12257146835327148 7 12 9
-5 -1 8.84856414794921875 37 44 37
-5 0 -9.82446098327636719 46 14 14
-5.17021369934082031 0 -7 15 12 12
-5 0 -6.93443679809570312 6 5 5
-5 -0.121137462556362152 6 16 19 13
-5 0 6.10077667236328125 35 26 25
-5 0 8.81975746154785156 35 50 50
-5 1 -9.73960304260253906 48 17 17
-5.38532924652099609 1 -8 10 1 1
-5 0.7368316650390625 -8 3 0 0
-5 1 -8.19958019256591797 32 29 29
-5 0.0313472934067249298 -7 6 5 5
-5.36204338073730469 1 7 35 46 47
-5 0.768702030181884766 7 35 43 28
-5 1 7.22011184692382812 31 48 33
-5 1 8.67907238006591797 43 48 53
-5.10527467727661133 2 -9 49 29 29
-5 1.85722267627716064 -9 32 29 29
-5.95881175994873047 2 -8 20 5 5
-5.96044397354125977 2 7 44 46 49
-5.38410186767578125 2 8 54 49 54
-5 1.54407966136932373 8 43 48 53
-5.77904891967773438 3 -9 55 26 26
-5.93514060974121094 3 8 60 44 44
-4.86955451965332031 -3 -9 2 0 0
-4.72899913787841797 -3 8 23 6 2
-4.19628477096557617 -2 -9 3 0 0
-4.71545076370239258 -2 -8 0 0 0
-4.94542837142944336 -2 6 4 12 5
-4.54636716842651367 -2 7 19 19 6
-4.15811824798583984 -2 8 34 34 22
-4 -1.7839890718460083 -9 7 0 0
-4 -1 -9.77811431884765625 41 15 15
-4 -1.21479642391204834 -8 1 0 0
-4.476043701171875 -1 -7 5 5 5
-4 -1 -7.56177282333374023 3 0 0
-4.39226579666137695 -1 6 16 19 13
-4 -1.25375843048095703 7 30 28 25
-4 -1 6.50242853164672852 28 29 24
-4 -1.8057788610458374 8 43 44 37
-4 -1 8.77820968627929688 35 49 29
-4 0 -9.44555854797363281 47 12 12
-4.51733636856079102 0 -8 3 0 0
-4 -0.677932798862457275 -8 3 0 0
-4 0 -8.72562885284423828 18 8 8
-4.98005104064941406 0 -7 6 5 5
-4.51558589935302734 0 7 35 43 28
-4 -0.671901285648345947 7 40 30 26
-4 0 7.76773166656494141 38 47 22
-4 0 8.38990974426269531 33 52 48
-4.57838201522827148 1 -9 32 29 29
-4 0.17098313570022583 -9 18 8 8
-4.69864988327026367 1 8 43 48 53
-4 0.115262381732463837 8 33 52 48
-3.51738524436950684 -1 -9 7 0 0
-3.86432003974914551 -1 -8 3 0 0
-3.86470842361450195 -1 7 40 30 26
-3.51446890830993652 -1 8 35 49 29
-3.91123414039611816 0 -9 18 8 8
-3.93230938911437988 0 8 33 52 48
2.48414731025695801 -1 -9 20 17 21
3 -1.79934656620025635 -9 9 8 10
3 -1 -9.78058528900146484 21 22 22
2.77730917930603027 -1 -8 7 6 7
3 -1.37860190868377686 -8 15 13 13
3 -1 -7.42075300216674805 22 21 23
2.76664161682128906 -1 7 37 34 36
3 -1.37450087070465088 7 35 35 35
3 -1 6.20154762268066406 30 28 28
2.41291189193725586 -1 8 44 40 40
3 -1.91403508186340332 8 43 36 36
3 -1 8.79678630828857422 43 28 28
2.94081425666809082 0 -9 17 17 19
3 0 -9.35927581787109375 29 29 29
3 -0.492553144693374634 -8 22 21 23
3 0 -8.76603603363037109 13 14 14
3 -0.481464862823486328 7 39 39 39
2.89964914321899414 0 8 51 45 45
3 0 7.63444042205810547 42 34 34
3 0 8.46949291229248047 46 20 20
3 0.099730469286441803 -9 13 14 14
3 0.157357200980186462 8 46 20 20
3.84395980834960938 -3 -9 13 11 12
4 -3.28224945068359375 -9 7 6 7
4 -3 -9.55256843566894531 24 22 26
4 -3 -8.44782829284667969 8 8 8
3.82794451713562012 -3 8 42 39 39
4 -3.30420422554016113 8 36 18 18
4 -3 7.47566795349121094 32 23 23
4 -3 8.56080818176269531 36 15 15
3.17291688919067383 -2 -9 9 8 10
4 -2 -9.81029987335205078 23 23 25
3.64929389953613281 -2 -8 15 13 13
4 -2.62604546546936035 -8 11 10 11
4 -2 -7.11743259429931641 6 6 6
3.61656451225280762 -2 7 35 35 35
4 -2.59730124473571777 7 32 23 23
4 -2 6.19907522201538086 27 23 23
3.08195233345031738 -2 8 43 36 36
4 -2 8.80510520935058594 37 13 13
4 -1 -9.85808372497558594 23 23 23
3.4139256477355957 -1 -7 0 0 0
4 -1.89710819721221924 -7 11 11 11
4 -1 -6.38227987289428711 20 15 21
3.26578712463378906 -1 6 30 28 28
4 -1.72979307174682617 6 27 23 23
4 -1 5.39296150207519531 24 22 22
4 -1 8.85147380828857422 37 11 11
4 0 -9.83668327331542969 25 25 26
3.46318364143371582 0 -8 14 13 15
3.96611952781677246 0 -7 8 7 8
4 0 -6.93037557601928711 14 13 13
3.98577356338500977 0 6 37 35 35
4 0 5.97285747528076172 28 23 23
3.4008791446685791 0 7 42 34 34
4 0 8.82826709747314453 42 13 13
3.67280220985412598 1 -9 21 22 22
4 1 -9.71111965179443359 29 29 32
4 0.802503287792205811 -8 9 9 9
4 1 -8.17541027069091797 27 27 28
4 0.0501120723783969879 -7 14 13 13
4 0.0201097223907709122 6 32 21 21
4 0.91514122486114502 7 37 17 17
3.65385961532592773 1 8 49 15 15
4 1 7.07820796966552734 42 19 19
4 1 8.71500015258789062 48 17 17
4 1.58381283283233643 -9 27 27 28
4 1.7065742015838623 8 48 17 17
4.98621559143066406 -5 -9 8 8 9
5 -5.02913379669189453 -9 9 10 10
5 -5 -9.11053085327148438 24 21 23
5 -5 -8.95620822906494141 13 13 13
4.50973701477050781 -4 -9 7 6 7
5 -4 -9.75127601623535156 22 21 21
5 -4 -8.01054286956787109 18 15 18
4.54921579360961914 -4 8 36 18 18
5 -4.89034843444824219 8 31 4 4
5 -4 7.06353902816772461 26 8 8
5 -4 8.70563888549804688 31 5 5
5 -3 -9.82011032104492188 22 21 21
4.41214466094970703 -3 -8 11 10 11
5 -3.97796869277954102 -8 4 4 4
5 -3 -7.28737258911132812 6 6 6
4.48005342483520508 -3 7 32 23 23
5 -3.88524079322814941 7 26 8 8
5 -3 6.45276117324829102 21 10 10
5 -3 8.79279708862304688 33 7 7
5 -2 -9.81843948364257812 25 23 23
5 -2 -7.30865001678466797 9 9 10
5 -2 6.37989187240600586 22 10 10
5 -2 8.80373764038085938 35 12 12
5 -1 -9.76721572875976562 22 21 21
4.49631595611572266 -1 -7 20 15 21
5 -1 -7.70660305023193359 12 12 17
4.37593460083007812 -1 6 28 21 21
5 -1 6.7851262092590332 24 13 13
5 -1 8.76767063140869141 37 17 17
5 0 -9.79649066925048828 20 16 16
4.11837625503540039 0 -7 14 13 13
5 0 -7.40435266494750977 15 16 24
4.0630640983581543 0 6 32 21 21
5 0 6.31929731369018555 30 20 20
5 0 8.81771087646484375 44 31 31
5 1 -9.80119037628173828 23 18 18
4.24173831939697266 1 -8 16 16 16
5 1 -7.35552310943603516 22 20 24
4.0848383903503418 1 7 42 19 19
5 1 6.07019853591918945 37 30 30
5 1 8.83291339874267578 45 28 28
4.38427639007568359 2 -9 31 31 31
5 2 -9.7376556396484375 35 34 34
4.93624114990234375 2 -8 24 25 25
5 2 -7.86001253128051758 24 24 26
4.72929763793945312 2 7 49 25 25
5 2 6.38589143753051758 39 28 28
4.20373153686523438 2 8 56 31 31
5 2 8.80283832550048828 47 26 26
4.98149251937866211 3 -9 36 36 37
5 3 -9.12231063842773438 49 38 38
5 2.11964273452758789 -8 24 24 26
5 3 -8.94249725341796875 32 26 28
5 2.62334823608398438 7 42 27 27
4.77923774719238281 3 8 58 26 26
5 3 7.34259891510009766 47 32 32
5 3 8.63241100311279297 52 27 27
5 3.03674936294555664 -9 32 26 28
5 3.46422529220581055 8 52 27 27
5.97272825241088867 -7 -9 8 10 8
6 -7.06832695007324219 -9 20 19 21
6 -7 -9.21518039703369141 23 23 23
6 -7 -8.916900634765625 21 19 20
5.61008310317993164 -6 -9 9 10 10
6 -6 -9.72577667236328125 23 23 23
6 -6 -8.13450527191162109 21 17 19
5.70603656768798828 -6 8 30 4 4
6 -6.72403192520141602 8 28 0 0
6 -6 7.32414484024047852 22 2 2
6 -6 8.64356136322021484 28 0 0
6 -5 -9.77884387969970703 25 24 24
5.74376630783081055 -5 -8 5 5 5
6 -5.69443941116333008 -8 8 9 9
6 -5 -7.6505732536315918 11 10 14
5.89001274108886719 -5 7 26 10 10
6 -5.29161405563354492 7 22 2 2
6 -5 6.85121774673461914 17 5 5
5.08781623840332031 -5 8 31 4 4
6 -5 8.75409793853759766 30 5 5
6 -4 -9.76388359069824219 20 18 18
5.031402587890625 -4 -8 4 4 4
6 -4 -7.66033697128295898 17 11 17
5.30298185348510742 -4 7 26 8 8
6 -4 6.8482518196105957 18 7 7
6 -4 8.76102447509765625 32 12 12
6 -3 -9.64708614349365234 16 13 13
5.76540517807006836 -3 -8 6 6 6
6 -3.30608439445495605 -8 17 11 17
6 -3 -8.19277286529541016 19 15 17
5.63159656524658203 -3 7 26 8 8
6 -3.66168546676635742 7 25 9 9
6 -3 7.25214910507202148 26 13 13
6 -3 8.68459701538085938 33 19 19
5.8761138916015625 -2 -9 18 15 21
6 -2.2579646110534668 -9 19 15 17
5.34059572219848633 -2 -8 9 9 10
5.32849597930908203 -2 7 27 10 10
5.98642253875732422 -2 8 35 12 12
6 -2.02531242370605469 8 33 19 19
5.42572736740112305 -1 -9 19 16 20
5.10242366790771484 -1 -8 12 12 17
5.07571315765380859 -1 7 30 14 14
5.48491048812866211 -1 8 37 17 17
5.62220144271850586 0 -9 22 20 22
5.26551485061645508 0 -8 15 16 24
5.31369161605834961 0 7 36 23 23
5.8148193359375 0 8 44 31 31
6 0.929394543170928955 -9 19 19 19
6 1 -9.15292739868164062 27 15 15
5.46415472030639648 1 -8 22 20 24
6 1 -8.91306877136230469 20 17 17
5.73669052124023438 1 7 42 33 33
6 0.382140487432479858 8 39 30 30
6 1 7.33239030838012695 36 27 27
6 1 8.62240123748779297 44 31 31
6 2 -9.65095043182373047 33 13 13
5.47605085372924805 2 -8 24 24 26
6 2 -8.15483188629150391 26 24 24
6 1.50349915027618408 7 36 27 27
6 2 6.64395952224731445 35 29 29
6 2 8.75038528442382812 54 41 41
6 3 -9.71113967895507812 51 49 49
6 3 -8.08018016815185547 36 34 34
5.45915699005126953 3 7 47 32 32
6 3 6.49234151840209961 39 25 25
6 3 8.7480926513671875 60 37 37
5.69695138931274414 4 -9 39 35 35
6 4 -9.61364173889160156 57 50 50
6 4 -8.42181205749511719 42 30 30
6 3.83376908302307129 7 48 31 31
5.54064273834228516 4 8 57 26 26
6 4 7.11095809936523438 61 43 43
6 4 8.62784671783447266 66 29 29
6 4.70584249496459961 -9 42 30 30
6 4.87601804733276367 8 66 29 29
6.9108729362487793 -9 -9 16 18 16
7 -9.47328472137451172 -9 20 13 13
7 -9 -9.47328472137451172 26 19 19
7 -9 -8.66920185089111328 21 19 19
6.98190879821777344 -9 8 28 0 0
7 -9.15151596069335938 8 27 0 0
7 -9 7.93566513061523438 21 0 0
7 -9 8.15151596069335938 28 0 0
6.56850910186767578 -8 -9 20 19 21
7 -8 -9.73941516876220703 25 21 21
6.92217159271240234 -8 -8 8 8 7
7 -8.24273872375488281 -8 16 16 16
7 -8 -7.79807376861572266 15 14 14
6.64360189437866211 -8 8 28 0 0
7 -8 7.10453319549560547 21 0 0
7 -8 8.71379184722900391 28 0 0
7 -7 -9.78206348419189453 19 14 18
6.67362403869628906 -7 -8 6 7 6
7 -7 -7.477020263671875 14 14 14
6.8130335807800293 -7 7 21 0 0
7 -7.72769737243652344 7 21 0 0
7 -7 6.68800163269042969 16 3 3
6.16015386581420898 -7 8 28 0 0
7 -7 8.78302574157714844 29 4 4
7 -6 -9.76072502136230469 14 9 9
6.3507542610168457 -6 -8 8 9 9
7 -6 -7.67659664154052734 15 12 13
6.57092666625976562 -6 7 22 2 2
7 -6 6.74536514282226562 18 7 7
7 -6 8.77665901184082031 33 17 17
7 -5 -9.61399555206298828 13 8 8
6.45176982879638672 -5 -8 11 10 14
7 -5.5983881950378418 -8 15 12 13
7 -5 -8.41628170013427734 19 19 19
6.32413434982299805 -5 7 23 5 5
7 -5.53317928314208984 7 24 10 10
7 -5 7.26935386657714844 25 15 15
7 -5 8.66846466064453125 32 21 21
6.66312599182128906 -4 -9 18 14 16
7 -4.50817251205444336 -9 19 19 19
6.19228601455688477 -4 -8 17 11 17
6.09694433212280273 -4 7 25 9 9
6.80347633361816406 -4 8 32 12 12
7 -4.27866125106811523 8 32 21 21
6.23372411727905273 -3 -9 19 15 17
6.30739688873291016 -3 8 33 19 19
6.02215766906738281 1 -9 20 17 17
6.16821432113647461 1 8 44 31 31
6.32557010650634766 2 -9 26 24 24
6.10810613632202148 2 7 41 28 28
6.45302152633666992 2 8 54 41 41
7 2.92559933662414551 -9 30 16 16
7 3 -9.23695182800292969 48 35 35
7 3 -8.91644954681396484 43 41 41
6.25895309448242188 3 7 48 31 31
6.95664358139038086 3 8 60 37 37
7 4 -9.73955821990966797 55 42 42
7 4 -8.32155132293701172 50 43 43
7 3.06390261650085449 8 59 41 41
7 4 7.23286819458007812 64 61 61
7 4 8.66348171234130859 69 60 60
6.17520570755004883 5 -9 47 17 17
7 5 -9.75704383850097656 59 59 59
7 5 -8.15253829956054688 58 36 36
6.90159893035888672 5 7 69 43 43
7 4.65053844451904297 7 64 61 61
7 5 6.85967540740966797 64 62 62
6.08172225952148438 5 8 74 42 42
7 5 8.72847747802734375 76 64 64
6.61081075668334961 6 -9 68 67 67
7 6 -9.68275642395019531 66 51 51
6.94869041442871094 6 -8 63 39 39
7 5.62465095520019531 -8 43 21 21
7 6 -7.90861177444458008 62 59 59
7 5.57908964157104492 7 69 63 63
6.60529804229736328 6 8 81 52 52
7 6 7.10205698013305664 76 64 64
7 6 8.67278194427490234 82 58 58
6.9846653938293457 7 -9 71 67 67
7 7 -9.10245323181152344 73 42 42
7 6.18519401550292969 -8 62 59 59
7 7 -8.92852020263671875 71 51 51
6.98388814926147461 7 8 85 46 46
7 7 7.94591045379638672 85 71 71
7 7 8.11275768280029297 88 52 52
7 7.03563451766967773 -9 71 51 51
7 7.04624128341674805 8 88 52 52
8 -9.83193683624267578 -9 21 15 15
8 -9 -9.83193683624267578 17 6 11
7.43718671798706055 -9 -8 16 16 16
8 -9.70060920715332031 -8 17 13 13
7.90094709396362305 -9 -7 10 10 10
8 -9.32847690582275391 -7 12 9 9
8 -9 -6.80686473846435547 10 7 7
7.98864841461181641 -9 6 15 0 0
8 -9.05491924285888672 6 17 0 0
8 -9 5.97319316864013672 12 2 2
7.50638437271118164 -9 7 21 0 0
8 -9.71684169769287109 7 24 0 0
8 -9.83843517303466797 8 32 0 0
8 -9 8.83843517303466797 34 11 11
8 -8 -9.79933071136474609 16 6 6
8 -8.43287849426269531 -7 10 7 7
8 -8 -7.19697093963623047 15 15 15
8 -8.87488651275634766 6 17 2 2
7.12739801406860352 -8 7 21 0 0
8 -8 6.16928195953369141 21 11 11
8 -8 8.81889629364013672 32 12 12
8 -7 -9.6287841796875 19 8 8
7.76051568984985352 -7 -8 14 14 14
8 -7.23267364501953125 -8 15 15 15
8 -7 -8.21414089202880859 17 14 16
8 -7 6.97963953018188477 20 13 13
8 -7 8.71099472045898438 33 17 17
7.64756298065185547 -6 -9 20 18 18
8 -6.50532722473144531 -9 17 14 16
7.17431211471557617 -6 -8 15 12 13
7.16395139694213867 -6 7 24 10 10
8 -6.98579311370849609 7 25 14 14
7.76328659057617188 -6 8 33 17 17
8 -6.30476617813110352 8 33 17 17
7.20364999771118164 -5 -9 19 19 19
7.25109148025512695 -5 8 32 21 21
7.03946352005004883 3 -9 43 41 41
7.48622512817382812 4 -9 50 43 43
7.34824943542480469 4 8 69 60 60
8 4.85151958465576172 -9 46 46 46
8 5 -9.34348964691162109 56 10 10
8 5 -8.80937290191650391 54 47 47
7.10547065734863281 5 7 69 63 63
8 4.97429800033569336 8 63 34 34
8 5 7.96553277969360352 67 51 51
8 5 8.08870506286621094 74 53 53
8 6 -9.74121475219726562 64 14 14
7.65896797180175781 6 -8 62 59 59
8 6 -8.05739879608154297 60 37 37
8 6 7.01644039154052734 77 70 70
8 6 8.72208595275878906 83 65 65
8 7 -9.79782390594482422 72 20 20
7.64396381378173828 7 -8 67 58 58
8 6.17542791366577148 -8 60 39 39
8 7 -7.55965042114257812 65 58 58
7.63720607757568359 7 7 85 71 71
8 6.03318262100219727 7 77 70 70
8 7 6.45979690551757812 77 66 66
8 7 8.79013919830322266 90 64 64
7.45305442810058594 8 -9 77 73 73
8 8 -9.78855419158935547 79 21 21
7.89164447784423828 8 -8 74 56 56
8 8 -7.73148918151855469 71 60 60
7.82670211791992188 8 7 91 62 62
8 8 6.48280429840087891 82 57 57
7.42146730422973633 8 8 97 68 68
8 8 8.78252029418945312 97 57 57
8 8.78855419158935547 -9 76 28 28
8 8.39464282989501953 -8 71 60 60
8 8.54085636138916016 7 89 56 56
8 8.78252029418945312 8 97 57 57
8.83193683624267578 -9 -9 20 13 13
8.70060920715332031 -9 -8 16 15 16
8.32847690582275391 -9 -7 10 7 7
8.05491924285888672 -9 6 17 2 2
8.71684169769287109 -9 7 25 5 5
8.83843517303466797 -9 8 34 11 11
8.79933071136474609 -8 -9 19 14 14
8.603515625 -8 -8 15 15 15
8.66600990295410156 -8 7 26 12 12
8.81889629364013672 -8 8 32 12 12
8.6287841796875 -7 -9 17 14 16
8.04564380645751953 -7 7 25 14 14
8.71099472045898438 -7 8 33 17 17
8.34348964691162109 5 -9 54 47 47
8.08870506286621094 5 8 74 53 53
8.74121475219726562 6 -9 60 37 37
8.72208595275878906 6 8 83 65 65
8.79782390594482422 7 -9 68 33 33
8.45048999786376953 7 -8 65 58 58
8.55857276916503906 7 7 83 64 64
8.79013919830322266 7 8 90 64 64
8.78855419158935547 8 -9 76 28 28
8.39464282989501953 8 -8 71 60 60
8.54085636138916016 8 7 89 56 56
8.78252029418945312 8 8 97 57 57
3 2 1 0
3 1 4 3
3 0 1 3
3 4 5 3
3 8 7 6
3 7 10 9
3 6 7 9
3 10 11 9
3 13 2 0
3 12 13 0
3 0 3 12
3 3 14 12
3 5 15 14
3 3 5 14
3 17 8 6
3 16 17 6
3 6 9 16
3 9 18 16
3 11 19 18
3 9 11 18
3 21 13 12
3 20 21 12
3 22 23 20
3 22 20 14
3 14 20 12
3 14 15 22
3 17 16 24
3 26 24 16
3 26 16 25
3 25 16 18
3 19 27 25
3 18 19 25
3 21 20 28
3 20 23 28
3 26 25 29
3 25 27 29
3 32 31 30
3 31 33 30
3 36 35 34
3 35 37 34
3 39 32 30
3 38 39 30
3 33 41 40
3 33 40 30
3 30 40 38
3 41 42 40
3 44 36 34
3 43 44 34
3 37 45 43
3 34 37 43
3 47 39 38
3 46 47 38
3 38 40 46
3 40 48 46
3 42 49 48
3 40 42 48
3 52 51 50
3 51 44 43
3 51 43 50
3 50 43 53
3 45 54 53
3 43 45 53
3 56 47 46
3 55 56 46
3 46 48 55
3 48 57 55
3 49 58 57
3 48 49 57
3 60 52 50
3 59 60 50
3 50 53 59
3 53 61 59
3 54 62 61
3 53 54 61
3 56 55 63
3 55 57 64
3 63 55 64
3 57 58 64
3 60 59 65
3 59 61 66
3 65 59 66
3 61 62 66
3 2 68 67
3 1 2 67
3 70 69 4
3 70 4 67
3 67 4 1
3 4 69 5
3 7 8 71
3 71 73 72
3 71 72 7
3 7 72 10
3 10 72 74
3 11 10 74
3 68 2 75
3 75 2 13
3 77 69 70
3 76 69 77
3 69 76 15
3 5 69 15
3 78 71 8
3 17 78 8
3 73 78 79
3 71 78 73
3 74 80 11
3 80 19 11
3 75 13 81
3 81 13 21
3 76 77 83
3 22 82 23
3 82 22 15
3 82 15 84
3 76 83 15
3 83 84 15
3 24 85 87
3 24 87 17
3 86 78 87
3 78 17 87
3 86 79 78
3 85 24 26
3 80 88 19
3 88 27 19
3 28 89 90
3 28 90 21
3 21 90 81
3 23 89 28
3 23 82 89
3 82 91 89
3 84 92 91
3 82 84 91
3 94 87 85
3 93 94 85
3 29 85 26
3 29 95 85
3 95 93 85
3 95 29 27
3 95 27 96
3 96 27 88
3 98 90 89
3 97 98 89
3 99 100 97
3 99 97 91
3 91 97 89
3 91 92 99
3 94 93 101
3 103 101 93
3 103 93 102
3 102 93 95
3 96 104 102
3 95 96 102
3 98 97 105
3 97 100 105
3 103 102 106
3 102 104 106
3 109 108 107
3 108 110 107
3 112 109 107
3 111 112 107
3 110 114 113
3 110 113 107
3 107 113 111
3 114 115 113
3 118 117 116
3 117 119 116
3 111 31 32
3 111 32 112
3 112 32 120
3 31 121 33
3 31 111 121
3 111 113 121
3 115 122 121
3 113 115 121
3 125 124 123
3 116 35 36
3 118 116 36
3 118 36 123
3 118 123 124
3 35 116 119
3 35 119 37
3 37 119 126
3 120 32 127
3 127 32 39
3 121 41 33
3 41 121 122
3 41 122 42
3 42 122 128
3 125 123 129
3 123 130 129
3 123 36 130
3 36 44 130
3 126 131 37
3 131 45 37
3 127 39 132
3 132 39 47
3 135 133 134
3 134 133 49
3 134 49 128
3 128 49 42
3 51 52 136
3 136 44 51
3 136 137 44
3 137 130 44
3 131 138 45
3 138 54 45
3 139 140 132
3 139 132 56
3 56 132 47
3 140 133 135
3 140 139 133
3 139 141 133
3 133 141 58
3 49 133 58
3 142 136 52
3 60 142 52
3 137 143 144
3 137 136 143
3 136 142 143
3 144 143 62
3 144 62 138
3 138 62 54
3 139 56 63
3 141 139 63
3 64 141 63
3 141 64 58
3 142 60 65
3 143 142 65
3 66 143 65
3 143 66 62
3 67 68 145
3 67 145 70
3 72 73 146
3 72 146 74
3 147 145 68
3 75 147 68
3 145 147 77
3 70 145 77
3 148 146 73
3 79 148 73
3 146 148 80
3 74 146 80
3 149 147 75
3 149 75 150
3 150 75 81
3 152 151 83
3 149 152 83
3 149 83 77
3 149 77 147
3 83 151 84
3 86 87 153
3 153 155 154
3 86 153 154
3 86 154 148
3 86 148 79
3 148 154 156
3 148 156 80
3 80 156 88
3 150 81 157
3 157 81 90
3 159 151 152
3 158 151 159
3 151 158 92
3 84 151 92
3 160 153 87
3 160 87 161
3 161 87 94
3 153 160 155
3 156 162 88
3 162 96 88
3 157 90 163
3 163 90 98
3 158 159 165
3 99 164 100
3 164 99 92
3 164 92 166
3 158 165 92
3 165 166 92
3 101 167 168
3 101 168 94
3 94 168 161
3 101 103 167
3 162 169 96
3 169 104 96
3 105 170 171
3 105 171 98
3 98 171 163
3 100 170 105
3 100 164 170
3 164 172 170
3 166 173 172
3 164 166 172
3 175 168 167
3 174 175 167
3 106 167 103
3 106 176 167
3 176 174 167
3 176 106 104
3 176 104 177
3 177 104 169
3 179 171 170
3 178 179 170
3 180 181 178
3 180 178 172
3 172 178 170
3 172 173 180
3 175 174 182
3 184 182 174
3 184 174 183
3 183 174 176
3 177 185 183
3 176 177 183
3 179 178 186
3 178 181 186
3 184 183 187
3 183 185 187
3 190 189 188
3 189 191 188
3 194 193 192
3 193 195 192
3 197 190 188
3 196 197 188
3 191 198 196
3 188 191 196
3 200 194 192
3 199 200 192
3 195 201 199
3 192 195 199
3 196 108 109
3 196 109 197
3 197 109 202
3 108 203 110
3 196 203 108
3 196 204 203
3 196 198 204
3 204 205 203
3 208 207 206
3 207 200 199
3 207 199 206
3 206 199 209
3 201 210 209
3 199 201 209
3 202 109 211
3 211 109 112
3 203 114 110
3 114 203 205
3 114 205 115
3 115 205 212
3 208 206 213
3 213 118 214
3 213 209 118
3 213 206 209
3 117 118 209
3 117 209 210
3 117 210 119
3 119 210 215
3 211 112 216
3 216 112 120
3 219 217 218
3 218 217 122
3 218 122 212
3 212 122 115
3 124 125 220
3 222 214 118
3 222 118 220
3 222 220 221
3 124 220 118
3 222 221 126
3 222 126 215
3 215 126 119
3 223 224 216
3 223 216 127
3 127 216 120
3 224 217 219
3 224 223 217
3 223 225 217
3 217 225 128
3 122 217 128
3 220 125 129
3 129 130 226
3 129 226 220
3 220 226 221
3 221 226 131
3 126 221 131
3 227 223 127
3 132 227 127
3 135 134 225
3 135 225 227
3 227 225 223
3 225 134 128
3 228 226 130
3 137 228 130
3 226 228 138
3 131 226 138
3 227 132 140
3 227 140 135
3 228 137 144
3 228 144 138
3 149 150 229
3 149 229 152
3 154 155 230
3 154 230 156
3 231 229 150
3 157 231 150
3 229 231 159
3 152 229 159
3 160 161 232
3 155 160 232
3 155 232 230
3 230 232 233
3 230 233 162
3 156 230 162
3 234 231 157
3 163 234 157
3 165 159 231
3 165 231 235
3 235 231 234
3 165 235 166
3 236 232 161
3 168 236 161
3 237 236 238
3 237 233 236
3 233 232 236
3 233 237 239
3 233 239 162
3 162 239 169
3 240 234 163
3 240 163 241
3 241 163 171
3 234 242 235
3 240 242 234
3 235 242 243
3 235 243 166
3 166 243 173
3 244 236 168
3 244 168 245
3 245 168 175
3 236 244 238
3 239 246 169
3 246 177 169
3 241 171 247
3 247 171 179
3 180 248 181
3 248 180 173
3 248 173 249
3 249 173 243
3 182 250 251
3 182 251 175
3 175 251 245
3 182 184 250
3 246 252 177
3 252 185 177
3 186 253 254
3 186 254 179
3 179 254 247
3 181 253 186
3 181 248 253
3 248 255 253
3 249 257 256
3 249 256 248
3 248 256 255
3 257 258 256
3 260 251 250
3 259 260 250
3 187 250 184
3 187 261 250
3 261 259 250
3 261 187 185
3 261 185 262
3 262 185 252
3 264 254 253
3 263 264 253
3 253 255 263
3 255 265 263
3 266 267 265
3 266 265 256
3 256 265 255
3 256 258 266
3 269 260 259
3 268 269 259
3 259 261 268
3 261 270 268
3 262 271 270
3 261 262 270
3 273 264 263
3 272 273 263
3 263 265 272
3 265 274 272
3 267 275 274
3 265 267 274
3 277 269 268
3 276 277 268
3 268 270 276
3 270 278 276
3 271 279 278
3 270 271 278
3 272 189 190
3 272 190 273
3 273 190 280
3 189 281 191
3 189 272 281
3 272 274 281
3 275 282 281
3 274 275 281
3 284 277 276
3 283 284 276
3 194 278 193
3 194 283 278
3 283 276 278
3 193 278 279
3 193 279 195
3 195 279 285
3 280 190 286
3 286 190 197
3 287 191 281
3 198 191 287
3 282 288 287
3 281 282 287
3 290 284 283
3 289 290 283
3 283 200 289
3 194 200 283
3 285 291 195
3 291 201 195
3 286 197 292
3 292 197 202
3 294 295 293
3 287 204 198
3 204 287 288
3 204 288 205
3 294 293 288
3 293 205 288
3 296 297 290
3 296 290 208
3 289 207 290
3 207 208 290
3 289 200 207
3 297 296 298
3 291 299 201
3 299 210 201
3 300 301 292
3 300 292 211
3 211 292 202
3 301 293 295
3 301 300 293
3 300 302 293
3 293 302 212
3 205 293 212
3 296 208 213
3 213 214 303
3 296 213 303
3 296 303 304
3 296 304 298
3 304 303 215
3 304 215 299
3 299 215 210
3 305 300 211
3 216 305 211
3 219 218 302
3 219 302 305
3 305 302 300
3 302 218 212
3 303 214 222
3 303 222 215
3 305 216 224
3 305 224 219
3 237 238 306
3 237 306 239
3 240 241 307
3 242 240 307
3 308 242 307
3 242 308 243
3 244 245 309
3 238 244 309
3 238 309 306
3 306 309 310
3 306 310 246
3 239 306 246
3 311 307 241
3 311 241 312
3 312 241 247
3 314 307 311
3 314 313 307
3 313 308 307
3 308 313 249
3 243 308 249
3 315 309 245
3 251 315 245
3 316 315 317
3 316 310 315
3 310 309 315
3 310 316 318
3 310 318 246
3 246 318 252
3 312 247 319
3 319 247 254
3 314 320 313
3 322 321 257
3 320 322 257
3 320 257 249
3 320 249 313
3 257 321 258
3 325 324 323
3 323 324 326
3 323 326 251
3 323 251 260
3 315 251 326
3 315 326 317
3 318 327 252
3 327 262 252
3 319 254 328
3 328 254 264
3 321 322 330
3 266 329 267
3 329 266 258
3 329 258 331
3 321 330 258
3 330 331 258
3 333 325 323
3 332 333 323
3 323 269 332
3 260 269 323
3 327 334 262
3 334 271 262
3 328 264 335
3 335 264 273
3 336 267 329
3 275 267 336
3 331 337 336
3 329 331 336
3 333 332 338
3 332 339 338
3 332 269 339
3 269 277 339
3 334 340 271
3 340 279 271
3 335 273 341
3 341 273 280
3 344 342 343
3 342 345 343
3 342 275 345
3 342 282 275
3 336 345 275
3 336 337 345
3 346 347 339
3 346 339 284
3 284 339 277
3 347 346 348
3 340 349 279
3 349 285 279
3 350 351 341
3 350 341 286
3 286 341 280
3 351 342 344
3 351 350 342
3 350 352 342
3 342 352 288
3 282 342 288
3 353 346 284
3 290 353 284
3 348 354 355
3 348 346 354
3 346 353 354
3 355 354 291
3 355 291 349
3 349 291 285
3 356 350 286
3 292 356 286
3 295 294 352
3 295 352 356
3 356 352 350
3 352 294 288
3 353 290 297
3 297 298 357
3 297 357 353
3 353 357 354
3 354 357 299
3 291 354 299
3 356 292 301
3 356 301 295
3 357 298 304
3 357 304 299
3 311 312 358
3 311 358 314
3 316 317 359
3 316 359 318
3 360 358 312
3 319 360 312
3 320 314 358
3 320 358 361
3 361 358 360
3 320 361 322
3 324 325 362
3 326 324 362
3 363 326 362
3 317 326 363
3 317 363 359
3 359 363 364
3 359 364 327
3 318 359 327
3 365 360 319
3 365 319 366
3 366 319 328
3 360 367 361
3 365 367 360
3 369 368 330
3 367 369 330
3 367 330 322
3 367 322 361
3 330 368 331
3 370 362 325
3 333 370 325
3 371 370 372
3 371 363 370
3 363 362 370
3 363 373 364
3 371 373 363
3 364 373 374
3 364 374 327
3 327 374 334
3 366 328 375
3 375 328 335
3 378 376 377
3 377 368 369
3 377 376 368
3 376 379 368
3 368 379 337
3 331 368 337
3 370 333 338
3 338 339 380
3 370 338 380
3 370 380 381
3 370 381 372
3 381 380 382
3 374 383 334
3 383 340 334
3 384 385 375
3 384 375 341
3 341 375 335
3 376 344 343
3 378 344 376
3 378 384 344
3 378 385 384
3 379 376 343
3 345 379 343
3 379 345 337
3 380 339 347
3 347 348 386
3 380 347 386
3 380 386 387
3 380 387 382
3 387 386 349
3 387 349 383
3 383 349 340
3 384 341 351
3 384 351 344
3 386 348 355
3 386 355 349
3 365 366 388
3 367 365 388
3 389 367 388
3 367 389 369
3 371 372 390
3 373 371 390
3 391 373 390
3 373 391 374
3 392 388 366
3 375 392 366
3 378 377 389
3 378 389 392
3 392 389 388
3 389 377 369
3 390 372 381
3 381 382 393
3 381 393 390
3 390 393 391
3 391 393 383
3 374 391 383
3 392 375 385
3 392 385 378
3 393 382 387
3 393 387 383
3 396 395 394
3 395 398 397
3 394 395 397
3 398 399 397
3 402 401 400
3 401 404 403
3 400 401 403
3 404 405 403
3 407 396 394
3 406 407 394
3 408 409 406
3 408 406 397
3 397 406 394
3 397 399 408
3 402 400 410
3 412 410 400
3 412 400 411
3 411 400 403
3 405 413 411
3 403 405 411
3 407 406 414
3 406 409 414
3 412 411 415
3 411 413 415
3 418 417 416
3 417 419 416
3 422 421 420
3 421 423 420
3 425 418 416
3 424 425 416
3 419 427 426
3 419 426 416
3 416 426 424
3 427 428 426
3 431 430 429
3 430 422 420
3 430 420 429
3 429 420 432
3 423 433 432
3 420 423 432
3 424 395 396
3 424 396 425
3 425 396 434
3 426 395 424
3 398 395 426
3 398 435 399
3 426 435 398
3 426 436 435
3 426 428 436
3 436 437 435
3 440 439 438
3 429 401 402
3 431 429 402
3 431 402 438
3 431 438 439
3 432 401 429
3 404 401 432
3 404 432 433
3 404 433 405
3 405 433 441
3 434 396 442
3 442 396 407
3 408 443 409
3 399 443 408
3 399 435 443
3 435 444 443
3 437 445 444
3 435 437 444
3 447 440 438
3 446 447 438
3 410 438 402
3 410 448 438
3 448 446 438
3 410 412 448
3 441 449 405
3 449 413 405
3 414 450 451
3 414 451 407
3 407 451 442
3 450 452 453
3 414 452 450
3 414 443 452
3 414 409 443
3 443 444 454
3 452 443 454
3 444 445 454
3 447 446 455
3 446 448 456
3 455 446 456
3 458 415 457
3 456 415 458
3 456 412 415
3 456 448 412
3 457 415 413
3 457 413 459
3 459 413 449
3 451 450 460
3 450 453 460
3 458 457 461
3 457 459 461
3 464 463 462
3 463 465 462
3 467 464 462
3 466 467 462
3 465 468 466
3 462 465 466
3 471 470 469
3 470 472 469
3 466 417 418
3 466 418 467
3 467 418 473
3 417 474 419
3 466 474 417
3 466 475 474
3 466 468 475
3 475 476 474
3 479 478 477
3 469 421 422
3 471 469 422
3 471 422 477
3 471 477 478
3 421 469 472
3 421 472 423
3 423 472 480
3 473 418 481
3 481 418 425
3 474 427 419
3 427 474 476
3 427 476 428
3 428 476 482
3 477 430 431
3 477 431 479
3 479 431 483
3 477 422 430
3 480 484 423
3 484 433 423
3 481 425 485
3 485 425 434
3 436 487 486
3 436 428 487
3 428 482 487
3 436 486 437
3 439 440 488
3 488 431 439
3 488 489 431
3 489 483 431
3 484 490 433
3 490 441 433
3 485 434 491
3 491 434 442
3 493 486 487
3 492 486 493
3 486 492 445
3 437 486 445
3 494 488 440
3 447 494 440
3 489 494 495
3 488 494 489
3 490 496 441
3 496 449 441
3 491 442 497
3 497 442 451
3 452 498 453
3 498 493 499
3 498 454 493
3 498 452 454
3 454 492 493
3 492 454 445
3 494 447 455
3 494 455 456
3 494 456 501
3 494 501 495
3 500 501 456
3 456 458 500
3 496 502 449
3 502 459 449
3 460 503 504
3 460 504 451
3 451 504 497
3 453 503 460
3 453 498 503
3 498 505 503
3 499 506 505
3 498 499 505
3 508 501 500
3 507 508 500
3 461 500 458
3 461 509 500
3 509 507 500
3 509 461 459
3 509 459 510
3 510 459 502
3 512 504 503
3 511 512 503
3 513 514 511
3 513 511 505
3 505 511 503
3 505 506 513
3 508 507 515
3 517 515 507
3 517 507 516
3 516 507 509
3 510 518 516
3 509 510 516
3 512 511 519
3 511 514 519
3 517 516 520
3 516 518 520
3 523 522 521
3 522 524 521
3 526 523 521
3 525 526 521
3 524 527 525
3 521 524 525
3 530 529 528
3 529 531 528
3 525 463 464
3 525 464 526
3 526 464 532
3 463 533 465
3 525 533 463
3 525 534 533
3 525 527 534
3 534 535 533
3 538 537 536
3 537 530 528
3 537 528 536
3 536 528 539
3 531 540 539
3 528 531 539
3 532 464 541
3 541 464 467
3 542 465 533
3 468 465 542
3 535 543 542
3 533 535 542
3 545 538 536
3 544 545 536
3 471 539 470
3 471 544 539
3 544 536 539
3 470 539 540
3 470 540 472
3 472 540 546
3 541 467 547
3 547 467 473
3 549 550 548
3 542 475 468
3 475 542 543
3 475 543 476
3 549 548 543
3 548 476 543
3 551 552 545
3 551 545 479
3 544 478 545
3 478 479 545
3 544 471 478
3 552 551 553
3 546 554 472
3 554 480 472
3 555 556 547
3 555 547 481
3 481 547 473
3 556 548 550
3 556 555 548
3 555 557 548
3 548 557 482
3 476 548 482
3 558 551 479
3 483 558 479
3 553 559 560
3 553 551 559
3 551 558 559
3 560 559 484
3 560 484 554
3 554 484 480
3 561 555 481
3 485 561 481
3 555 561 557
3 557 561 562
3 557 562 487
3 482 557 487
3 563 558 483
3 489 563 483
3 558 563 559
3 559 563 564
3 559 564 490
3 484 559 490
3 565 561 485
3 491 565 485
3 561 565 562
3 562 565 566
3 562 566 493
3 487 562 493
3 567 563 489
3 495 567 489
3 563 567 564
3 564 567 568
3 564 568 496
3 490 564 496
3 569 565 491
3 569 491 570
3 570 491 497
3 572 565 569
3 572 571 565
3 571 566 565
3 566 571 499
3 493 566 499
3 573 567 495
3 501 573 495
3 574 573 575
3 574 568 573
3 568 567 573
3 568 574 576
3 568 576 496
3 496 576 502
3 570 497 577
3 577 497 504
3 579 571 572
3 578 571 579
3 571 578 506
3 499 571 506
3 580 573 501
3 580 501 581
3 581 501 508
3 573 580 575
3 576 582 502
3 582 510 502
3 577 504 583
3 583 504 512
3 578 514 513
3 578 579 514
3 579 584 514
3 578 513 506
3 515 585 586
3 515 586 508
3 508 586 581
3 515 517 585
3 582 587 510
3 587 518 510
3 519 588 589
3 519 589 512
3 512 589 583
3 588 519 514
3 588 514 590
3 590 514 584
3 586 585 591
3 593 520 592
3 591 520 593
3 591 517 520
3 591 585 517
3 592 520 518
3 592 518 594
3 594 518 587
3 589 588 595
3 588 590 595
3 593 592 596
3 592 594 596
3 599 598 597
3 598 600 597
3 603 602 601
3 602 604 601
3 606 599 597
3 605 606 597
3 600 608 607
3 600 607 597
3 597 607 605
3 608 609 607
3 611 603 601
3 610 611 601
3 604 612 610
3 601 604 610
3 605 522 523
3 605 523 606
3 606 523 613
3 522 614 524
3 522 605 614
3 605 607 614
3 609 615 614
3 607 609 614
3 618 617 616
3 617 611 610
3 617 610 616
3 616 610 619
3 612 620 619
3 610 612 619
3 613 523 621
3 621 523 526
3 622 524 614
3 527 524 622
3 615 623 622
3 614 615 622
3 625 618 616
3 624 625 616
3 530 619 529
3 530 624 619
3 624 616 619
3 529 619 620
3 529 620 531
3 531 620 626
3 621 526 627
3 627 526 532
3 629 630 628
3 622 534 527
3 534 622 623
3 534 623 535
3 629 628 623
3 628 535 623
3 631 632 625
3 631 625 538
3 624 537 625
3 537 538 625
3 624 530 537
3 632 631 633
3 626 634 531
3 634 540 531
3 635 636 627
3 635 627 541
3 541 627 532
3 636 628 630
3 636 635 628
3 635 637 628
3 628 637 543
3 535 628 543
3 638 631 538
3 545 638 538
3 633 639 640
3 633 631 639
3 631 638 639
3 640 639 546
3 640 546 634
3 634 546 540
3 641 635 541
3 547 641 541
3 550 549 637
3 550 637 641
3 641 637 635
3 637 549 543
3 638 545 552
3 552 553 642
3 552 642 638
3 638 642 639
3 639 642 554
3 546 639 554
3 641 547 556
3 641 556 550
3 642 553 560
3 642 560 554
3 569 570 643
3 569 643 572
3 574 575 644
3 574 644 576
3 645 643 570
3 577 645 570
3 643 645 579
3 572 643 579
3 580 581 646
3 575 580 646
3 575 646 644
3 644 646 647
3 644 647 582
3 576 644 582
3 648 645 577
3 648 577 649
3 649 577 583
3 645 648 650
3 645 650 579
3 579 650 584
3 651 646 581
3 586 651 581
3 646 651 647
3 647 651 652
3 647 652 587
3 582 647 587
3 649 583 653
3 653 583 589
3 650 654 584
3 654 590 584
3 651 586 591
3 655 652 651
3 655 651 593
3 655 593 656
3 593 651 591
3 652 655 657
3 652 657 587
3 587 657 594
3 595 658 659
3 595 659 589
3 589 659 653
3 658 595 590
3 658 590 660
3 660 590 654
3 663 662 661
3 662 664 661
3 662 593 664
3 662 656 593
3 593 596 664
3 664 596 594
3 664 594 665
3 665 594 657
3 667 659 658
3 666 667 658
3 660 669 668
3 660 668 658
3 658 668 666
3 669 670 668
3 663 661 671
3 673 671 661
3 673 661 672
3 672 661 664
3 665 674 672
3 664 665 672
3 676 667 666
3 675 676 666
3 677 678 675
3 677 675 668
3 668 675 666
3 668 670 677
3 680 673 672
3 679 680 672
3 674 681 679
3 672 674 679
3 676 675 682
3 675 678 682
3 680 679 683
3 679 681 683
3 599 685 684
3 598 599 684
3 686 600 598
3 686 598 687
3 687 598 684
3 687 689 688
3 686 687 688
3 689 690 688
3 693 692 691
3 692 695 694
3 691 692 694
3 603 694 695
3 603 695 602
3 602 695 696
3 602 696 697
3 604 602 697
3 685 599 698
3 698 599 606
3 686 608 600
3 699 686 688
3 699 609 686
3 699 700 609
3 609 608 686
3 688 690 699
3 693 691 701
3 703 701 691
3 703 691 702
3 702 691 694
3 694 611 702
3 603 611 694
3 697 704 604
3 704 612 604
3 698 606 705
3 705 606 613
3 708 706 707
3 707 706 615
3 707 615 700
3 700 615 609
3 702 617 618
3 702 618 703
3 703 618 709
3 702 611 617
3 704 710 612
3 710 620 612
3 711 712 705
3 711 705 621
3 621 705 613
3 712 706 708
3 712 711 706
3 711 713 706
3 706 713 623
3 615 706 623
3 714 715 709
3 714 709 625
3 625 709 618
3 715 716 717
3 714 716 715
3 717 716 626
3 717 626 710
3 710 626 620
3 718 711 621
3 627 718 621
3 630 629 713
3 630 713 718
3 718 713 711
3 713 629 623
3 714 625 632
3 632 633 719
3 632 719 714
3 714 719 716
3 716 719 634
3 626 716 634
3 718 627 636
3 718 636 630
3 719 633 640
3 719 640 634
3 648 649 720
3 648 720 650
3 721 720 649
3 653 721 649
3 720 721 654
3 650 720 654
3 655 656 722
3 655 722 657
3 723 721 653
3 723 653 724
3 724 653 659
3 721 723 725
3 721 725 654
3 654 725 660
3 662 663 726
3 726 728 727
3 662 726 727
3 662 727 722
3 662 722 656
3 722 727 729
3 722 729 657
3 657 729 665
3 724 659 730
3 730 659 667
3 669 732 731
3 669 660 732
3 660 725 732
3 669 731 670
3 726 663 671
3 671 728 726
3 671 673 728
3 673 733 728
3 729 734 665
3 734 674 665
3 730 667 735
3 735 667 676
3 731 732 737
3 677 736 678
3 736 677 670
3 736 670 738
3 731 737 670
3 737 738 670
3 741 740 739
3 740 680 739
3 740 733 680
3 733 673 680
3 734 742 674
3 742 681 674
3 682 743 744
3 682 744 676
3 676 744 735
3 678 743 682
3 678 736 743
3 736 745 743
3 738 746 745
3 736 738 745
3 748 741 739
3 747 748 739
3 683 739 680
3 683 749 739
3 749 747 739
3 749 683 681
3 749 681 750
3 750 681 742
3 744 743 751
3 743 745 752
3 751 743 752
3 745 746 752
3 748 747 753
3 747 749 754
3 753 747 754
3 749 750 754
3 684 685 755
3 687 684 755
3 756 687 755
3 689 687 756
3 757 689 756
3 689 757 690
3 692 693 758
3 695 692 758
3 759 695 758
3 696 695 759
3 760 696 759
3 696 760 697
3 761 755 685
3 698 761 685
3 755 761 756
3 756 761 762
3 700 699 757
3 700 757 762
3 762 757 756
3 757 699 690
3 758 693 701
3 701 703 763
3 701 763 758
3 758 763 759
3 759 763 760
3 760 763 764
3 760 764 704
3 697 760 704
3 765 761 698
3 705 765 698
3 708 707 762
3 708 762 765
3 765 762 761
3 762 707 700
3 766 763 703
3 709 766 703
3 763 766 764
3 764 766 767
3 764 767 710
3 704 764 710
3 765 705 712
3 765 712 708
3 766 709 715
3 767 766 715
3 717 767 715
3 767 717 710
3 723 724 768
3 723 768 725
3 727 728 769
3 727 769 729
3 770 768 724
3 730 770 724
3 768 770 732
3 725 768 732
3 771 769 728
3 733 771 728
3 769 771 734
3 729 769 734
3 772 770 730
3 735 772 730
3 737 732 770
3 737 770 773
3 773 770 772
3 737 773 738
3 740 741 774
3 733 740 774
3 733 774 771
3 771 774 775
3 771 775 742
3 734 771 742
3 776 772 735
3 744 776 735
3 772 776 773
3 773 776 777
3 773 777 746
3 738 773 746
3 778 774 741
3 748 778 741
3 774 778 775
3 775 778 779
3 775 779 750
3 742 775 750
3 776 744 751
3 777 776 751
3 752 777 751
3 777 752 746
3 778 748 753
3 779 778 753
3 754 779 753
3 779 754 750
