ply
format ascii 1.0
element vertex 270
property float x
property float y
property float z
property uchar red
property uchar green
property uchar blue
element face 536
property list uchar int vertex_indices
end_header
-3.12364315986633301 2 0 198 250 202
-3 1.72450149059295654 0 247 229 204
-3 2 -0.975782036781311035 235 250 206
-3 2 0.754571020603179932 248 250 206
-3.26975345611572266 3 -1 199 239 251
-3 2.01139020919799805 -1 235 250 206
-3 3 -1.63884496688842773 207 251 239
-3.39931893348693848 3 0 198 250 248
-3.23226165771484375 3 1 198 250 240
-3 2.1488182544708252 1 250 248 206
-3 3 1.50436699390411377 206 250 207
-3.37208867073059082 4 -1 196 223 248
-3 4 -1.88148105144500732 205 247 248
-3.50279116630554199 4 0 196 233 248
-3.33423781394958496 4 1 196 238 248
-3 4 1.72601032257080078 204 248 227
-3.29974055290222168 5 -1 190 216 239
-3 5 -1.70981132984161377 199 241 239
-3.4296269416809082 5 0 189 219 239
-3.26211261749267578 5 1 189 217 238
-3 5 1.56918370723724365 198 240 229
-3.05599474906921387 6 -1 170 187 214
-3 6 -1.13244771957397461 180 217 216
-3.18329834938049316 6 0 169 183 213
-3.01915574073791504 6 1 167 175 211
-3 6 1.04156172275543213 179 210 215
-3 6.13421964645385742 -1 181 218 218
-3 6.43955850601196289 0 180 216 217
-3 6.045928955078125 1 179 210 215
-2.3316500186920166 1 -1 247 217 205
-2 0.635114550590515137 -1 200 224 231
-2 1 -1.54189097881317139 246 242 212
-2.518951416015625 1 0 247 229 204
-2 0.42903667688369751 0 199 217 231
-2.27752184867858887 1 1 247 231 204
-2 0.694700062274932861 1 200 221 232
-2 1 1.41571652889251709 227 246 211
-2.36922073364257812 2 -2 218 250 207
-2 1.43215477466583252 -2 246 242 212
-2 2 -2.35113835334777832 240 250 215
-2.99532485008239746 2 -1 235 250 206
-2.93892455101013184 2 1 250 248 206
-2.26063060760498047 2 2 246 250 206
-2 1.5992581844329834 2 239 247 212
-2 2 2.23507571220397949 250 228 214
-2.7737424373626709 3 -2 207 251 239
-2 3 -2.73579216003417969 214 251 225
-2.66244649887084961 3 2 206 250 208
-2 3 2.59742331504821777 233 250 214
-2.92574024200439453 4 -2 205 247 248
-2 4 -2.88023638725280762 212 248 233
-2.81337213516235352 4 2 204 248 226
-2 4 2.73349618911743164 214 248 213
-2.81818032264709473 5 -2 199 241 239
-2 5 -2.77782511711120605 206 241 222
-2.70658040046691895 5 2 197 238 231
-2 5 2.63718008995056152 206 239 213
-2.45648336410522461 6 -2 180 217 216
-2 6 -2.43384957313537598 186 217 198
-2.34744048118591309 6 2 175 200 211
-2 6 2.31331086158752441 185 213 203
-2 6.75479364395141602 -2 188 220 201
-2.46394515037536621 7 -1 138 155 166
-2 7 -1.75750434398651123 145 169 162
-2.65290975570678711 7 0 137 150 164
-2.40951180458068848 7 1 133 142 160
-2 6.57482576370239258 2 185 213 203
-2 7 1.61334788799285889 142 163 164
-2 7.53885602951049805 -1 147 170 165
-2 7.75843667984008789 0 146 168 166
-2 7.47583103179931641 1 142 163 164
-1.31998085975646973 0 0 199 217 231
-1 -0.153425291180610657 0 179 161 167
-1 0 -0.979421138763427734 206 204 229
-1 0 0.756506502628326416 210 204 228
-1.50247585773468018 1 -2 246 242 212
-1 0.68943101167678833 -2 207 214 231
-1 1 -2.26848220825195312 243 247 219
-1 0.00434411689639091492 -1 206 204 229
-1 0.066330544650554657 1 208 205 230
-1.30966579914093018 1 2 239 247 212
-1 0.80871891975402832 2 208 217 232
-1 1 2.15683531761169434 224 246 219
-1 2 -2.89768338203430176 250 239 220
-1 2 2.74936151504516602 250 225 222
-1.51997065544128418 3 -3 214 251 225
-1 2.26131439208984375 -3 250 239 220
-1 3 -3.19452452659606934 221 251 220
-1.23051285743713379 3 3 229 250 214
-1 2.67291593551635742 3 250 227 222
-1 3 3.08296871185302734 246 250 222
-1.78242111206054688 4 -3 212 248 233
-1 4 -3.29254579544067383 218 248 222
-1.49069976806640625 4 3 211 247 211
-1 4 3.17653775215148926 232 247 220
-1.59618997573852539 5 -3 206 241 222
-1 5 -3.22290420532226562 214 239 211
-1.30646133422851562 5 3 203 237 214
-1 5 3.1102750301361084 217 237 211
-1 5.95107364654541016 -3 214 241 212
-1 6 -2.98289179801940918 196 218 192
-1 5.48909616470336914 3 217 237 211
-1 6 2.83023667335510254 193 214 194
-1.73632729053497314 7 -2 145 169 162
-1 7 -2.39275193214416504 147 166 149
-1.54301238059997559 7 2 136 151 157
-1 7 2.27481913566589355 143 158 153
-1 7.47983932495117188 -2 151 170 155
-1.30453062057495117 8 -1 85 94 97
-1 8 -1.27885270118713379 87 98 94
-1.63576626777648926 8 0 83 91 95
-1.20975518226623535 8 1 80 85 91
-1 7.35412931442260742 2 143 158 153
-1 8 1.17629468441009521 82 91 90
-1 8.44466018676757812 -1 88 97 95
-1 8.6229705810546875 0 86 95 93
-1 8.35614776611328125 1 82 91 90
-0.972034990787506104 0 -1 206 204 229
0 -0.111715421080589294 -1 179 166 166
0 0 -1.21383225917816162 217 212 231
0 -0.2694205641746521 0 178 165 165
-0.571995377540588379 0 1 208 205 230
0 -0.0655977725982666016 1 181 168 168
0 0 1.11504948139190674 222 212 229
0 0.53863757848739624 -2 217 212 231
0 1 -2.39886879920959473 231 247 225
0 0.65955042839050293 2 217 215 232
0 1 2.27909588813781738 227 246 230
-0.246064364910125732 2 -3 250 239 220
0 1.94895637035369873 -3 231 247 225
0 2 -3.02211737632751465 250 239 226
0 2 2.87663722038269043 250 238 230
0 3 -3.28586316108703613 240 250 226
0 2.33116292953491211 3 250 232 230
0 3 3.16955971717834473 250 247 230
0 4 -3.38462209701538086 233 248 223
0 4 3.26382184028625488 243 247 228
0 5 -3.31430172920227051 230 239 216
0 5 3.19700241088867188 230 237 219
-0.873483002185821533 6 -3 196 218 192
0 6 -3.07818460464477539 208 214 193
0 5.87370586395263672 3 230 237 219
0 6 2.95800304412841797 206 214 199
0 6.19397878646850586 -3 210 218 197
0 7 -2.52336931228637695 155 165 150
0 7 2.3976438045501709 147 157 147
0 7.63905191421508789 -2 159 168 155
0 8 -1.49931216239929199 88 95 90
0 7.51226186752319336 2 147 157 147
0 8 1.37781608104705811 84 89 86
0 8.58708858489990234 -1 89 95 90
0 8.69380569458007812 0 87 93 89
0 8.54041099548339844 1 84 89 86
0.456705182790756226 0 -1 222 210 228
1 -0.024319428950548172 0 182 173 173
1 0 -0.155472263693809509 230 217 230
0.267755031585693359 0 1 222 212 229
1 0 0.119689464569091797 229 217 228
1 0.856047570705413818 -2 227 218 232
1 1 -2.1244814395904541 230 247 231
1 0.177882283926010132 -1 230 217 230
1 0.240071490406990051 1 229 219 230
1 0.975718975067138672 2 226 223 233
1 1 2.01990699768066406 234 246 238
0.115984633564949036 2 -3 250 228 226
1 2 -2.74788403511047363 250 238 232
1 2 2.60683584213256836 250 244 237
1 2.64397215843200684 -3 250 238 232
1 3 -3.09380054473876953 250 249 231
0.921337723731994629 3 3 250 247 230
1 3 2.9785771369934082 250 244 238
1 4 -3.19087719917297363 246 248 229
1 3.15466928482055664 3 250 245 237
1 4 3.07847738265991211 247 246 235
1 5 -3.1216120719909668 238 236 220
1 5 3.01265811920166016 236 236 225
0.409332096576690674 6 -3 210 218 197
1 5.51789045333862305 -3 240 237 223
1 6 -2.83121347427368164 215 213 201
1 5.05608224868774414 3 236 236 225
1 6 2.6863095760345459 210 211 203
1 7 -2.24602365493774414 159 161 150
1 7 2.1358487606048584 150 152 147
1 7.30027341842651367 -2 163 164 155
1 8 -1.02895176410675049 89 92 87
0.875812530517578125 8 1 84 89 86
1 7.95703744888305664 1 158 160 155
1 8 0.84983748197555542 87 89 86
1 7.17496633529663086 2 150 152 147
1 8.07742118835449219 -1 89 91 88
1 8.48549556732177734 0 87 89 86
1.03967607021331787 0 0 229 217 228
1.18240153789520264 1 -2 230 246 239
2 0.968533158302307129 -1 233 225 232
2 1 -1.04676663875579834 236 247 244
2 0.767033100128173828 0 232 226 231
1.96211278438568115 1 1 233 245 242
2 1 0.889116227626800537 238 246 246
1.03072404861450195 1 2 234 246 238
2 1.89828503131866455 -2 236 247 244
2 2 -2.06294536590576172 250 246 237
2 1.04167068004608154 1 240 246 245
1.93720054626464844 2 2 250 244 237
2 2 1.93269121646881104 250 249 243
1.19633102416992188 3 -3 250 244 231
2 3 -2.44055938720703125 250 240 237
2 2.11183786392211914 2 250 248 244
2 3 2.31665873527526855 250 247 245
1.39959657192230225 4 -3 248 247 229
2 4 -2.58192849159240723 248 241 235
1.17035067081451416 4 3 247 246 235
2 4 2.4498751163482666 247 245 243
1.25446343421936035 5 -3 240 237 223
2 5 -2.48079323768615723 238 231 227
1.02746391296386719 5 3 236 236 225
2 5 2.35504269599914551 237 235 233
2 6 -2.1421046257019043 211 205 202
2 6 2.03661060333251953 207 206 205
1.36004674434661865 7 -2 163 164 155
2 6.24655389785766602 -2 214 209 206
2 7 -1.25307869911193848 158 156 153
1.20938873291015625 7 2 150 152 147
2 6.06707859039306641 2 207 206 205
2 7 1.15103209018707275 153 153 152
1.02465403079986572 8 -1 89 91 88
2 7.17972660064697266 -1 159 158 156
1.28037130832672119 8 0 87 89 86
2 7.39453411102294922 0 157 157 156
2 7.11710357666015625 1 153 153 152
2.02466535568237305 1 -1 237 246 246
2.18253016471862793 1 0 238 246 246
2.05705952644348145 2 -2 250 250 238
2.58594131469726562 2 -1 248 250 239
2.74994778633117676 2 0 248 250 241
2.53667545318603516 2 1 250 249 243
2.39925599098205566 3 -2 250 238 238
2.94119048118591309 3 -1 250 241 240
3 2.70093274116516113 0 250 250 248
3 3 -0.647802174091339111 250 247 246
2.89047503471374512 3 1 250 245 244
3 3 0.495930880308151245 250 249 248
2.30250811576843262 3 2 250 247 245
2.52725815773010254 4 -2 248 240 236
3 3.44431447982788086 -1 250 247 246
3 4 -1.13123798370361328 247 242 241
3 3.82732033729553223 1 250 249 249
2.42968344688415527 4 2 247 245 243
3 4 1.03734123706817627 247 246 245
2.43555712699890137 5 -2 239 232 229
2.97875571250915527 5 -1 240 235 232
3 4.77636337280273438 -1 247 244 244
3 5 -0.872824907302856445 237 236 236
2.92822027206420898 5 1 238 237 235
3 4.24207592010498047 1 247 246 245
3 5 0.669294118881225586 237 236 236
2.33902859687805176 5 2 237 235 233
2.12872695922851562 6 -2 214 209 206
2.65997695922851562 6 -1 215 212 210
2.82501125335693359 6 0 214 212 211
3 5.45182180404663086 0 237 236 236
2.61108160018920898 6 1 211 211 210
2.03495073318481445 6 2 207 206 205
2.13337111473083496 7 -1 159 158 156
2.29262375831604004 7 0 157 157 156
2.08681941032409668 7 1 153 153 152
3.07329797744750977 3 0 250 249 248
3.04973220825195312 4 -1 247 244 244
3.16334390640258789 4 0 247 247 247
3.01546621322631836 4 1 247 246 245
3.09879159927368164 5 0 237 236 236
3 2 1 0
3 1 3 0
3 6 5 4
3 5 2 0
3 5 0 4
3 4 0 7
3 3 9 8
3 3 8 0
3 0 8 7
3 9 10 8
3 12 6 4
3 11 12 4
3 4 7 11
3 7 13 11
3 7 8 13
3 8 14 13
3 10 15 14
3 8 10 14
3 17 12 11
3 16 17 11
3 11 13 16
3 13 18 16
3 13 14 18
3 14 19 18
3 15 20 19
3 14 15 19
3 22 17 16
3 21 22 16
3 16 18 21
3 18 23 21
3 18 19 23
3 19 24 23
3 20 25 24
3 19 20 24
3 22 21 26
3 21 23 27
3 26 21 27
3 23 24 28
3 27 23 28
3 24 25 28
3 31 30 29
3 30 33 32
3 29 30 32
3 33 35 34
3 32 33 34
3 35 36 34
3 39 38 37
3 38 31 29
3 38 29 37
3 37 29 40
3 2 32 1
3 2 40 32
3 40 29 32
3 1 41 3
3 1 32 41
3 32 34 41
3 36 43 42
3 36 42 34
3 34 42 41
3 43 44 42
3 46 39 37
3 45 46 37
3 6 40 5
3 6 45 40
3 45 37 40
3 40 2 5
3 41 9 3
3 9 47 10
3 9 41 47
3 41 42 47
3 44 48 47
3 42 44 47
3 50 46 45
3 49 50 45
3 45 12 49
3 6 12 45
3 51 10 47
3 15 10 51
3 48 52 51
3 47 48 51
3 54 50 49
3 53 54 49
3 49 17 53
3 12 17 49
3 55 15 51
3 20 15 55
3 52 56 55
3 51 52 55
3 58 54 53
3 57 58 53
3 53 22 57
3 17 22 53
3 59 20 55
3 25 20 59
3 56 60 59
3 55 56 59
3 58 57 61
3 63 26 62
3 61 26 63
3 61 22 26
3 61 57 22
3 27 62 26
3 64 62 27
3 28 64 27
3 65 64 28
3 65 66 67
3 28 66 65
3 28 59 66
3 28 25 59
3 59 60 66
3 63 62 68
3 62 64 69
3 68 62 69
3 64 65 70
3 69 64 70
3 65 67 70
3 73 72 71
3 72 74 71
3 77 76 75
3 31 75 76
3 31 76 30
3 30 76 78
3 71 78 73
3 71 33 78
3 33 30 78
3 74 33 71
3 74 79 33
3 79 35 33
3 80 36 35
3 80 35 81
3 81 35 79
3 81 82 80
3 75 38 39
3 75 39 77
3 77 39 83
3 75 31 38
3 80 43 36
3 43 80 82
3 43 82 44
3 44 82 84
3 87 86 85
3 86 46 85
3 86 83 46
3 83 39 46
3 88 84 89
3 88 48 84
3 48 44 84
3 89 90 88
3 92 87 85
3 91 92 85
3 85 50 91
3 46 50 85
3 93 48 88
3 52 48 93
3 90 94 93
3 88 90 93
3 96 92 91
3 95 96 91
3 91 54 95
3 50 54 91
3 97 52 93
3 56 52 97
3 94 98 97
3 93 94 97
3 96 95 99
3 95 100 99
3 95 54 100
3 54 58 100
3 101 56 97
3 101 102 56
3 102 60 56
3 97 98 101
3 61 103 104
3 61 104 58
3 58 104 100
3 61 63 103
3 66 105 67
3 105 66 60
3 105 60 106
3 106 60 102
3 104 103 107
3 109 68 108
3 107 68 109
3 107 63 68
3 107 103 63
3 69 108 68
3 110 108 69
3 70 110 69
3 111 110 70
3 111 112 113
3 70 112 111
3 70 105 112
3 70 67 105
3 105 106 112
3 109 108 114
3 108 110 115
3 114 108 115
3 110 111 116
3 115 110 116
3 111 113 116
3 119 118 117
3 73 117 118
3 73 118 72
3 72 118 120
3 121 74 72
3 121 72 122
3 122 72 120
3 122 123 121
3 77 125 124
3 76 77 124
3 117 124 119
3 117 78 124
3 78 76 124
3 117 73 78
3 121 79 74
3 123 79 121
3 123 126 79
3 126 81 79
3 81 126 127
3 82 81 127
3 130 129 128
3 129 83 128
3 129 125 83
3 125 77 83
3 127 131 82
3 131 84 82
3 128 86 87
3 128 87 130
3 130 87 132
3 128 83 86
3 131 89 84
3 133 89 131
3 89 133 134
3 90 89 134
3 132 87 135
3 135 87 92
3 134 136 90
3 136 94 90
3 135 92 137
3 137 92 96
3 136 138 94
3 138 98 94
3 99 139 140
3 99 140 96
3 96 140 137
3 99 100 139
3 102 141 142
3 101 141 102
3 141 101 98
3 138 141 98
3 140 139 143
3 139 144 143
3 139 100 144
3 100 104 144
3 142 145 102
3 145 106 102
3 144 104 107
3 146 144 107
3 107 147 146
3 109 147 107
3 113 148 149
3 112 148 113
3 148 112 106
3 145 148 106
3 147 109 114
3 150 147 114
3 150 114 151
3 114 115 151
3 151 115 152
3 115 116 152
3 152 116 113
3 149 152 113
3 118 119 153
3 153 155 154
3 153 154 118
3 118 154 120
3 157 156 122
3 157 122 154
3 154 122 120
3 122 156 123
3 125 159 158
3 124 125 158
3 119 160 153
3 119 124 160
3 124 158 160
3 153 160 155
3 157 161 156
3 156 126 123
3 156 161 126
3 161 162 126
3 126 162 163
3 127 126 163
3 129 130 164
3 164 125 129
3 164 165 125
3 165 159 125
3 163 166 127
3 166 131 127
3 167 164 130
3 167 130 168
3 168 130 132
3 164 167 165
3 133 170 169
3 133 131 170
3 131 166 170
3 133 169 134
3 168 132 171
3 171 132 135
3 170 172 169
3 169 172 173
3 169 173 134
3 134 173 136
3 171 135 174
3 174 135 137
3 173 175 136
3 175 138 136
3 176 177 174
3 176 174 140
3 140 174 137
3 177 176 178
3 142 179 180
3 141 179 142
3 179 141 138
3 175 179 138
3 176 140 143
3 143 178 176
3 143 144 178
3 144 181 178
3 180 182 142
3 182 145 142
3 181 144 146
3 183 181 146
3 146 184 183
3 147 184 146
3 187 185 186
3 149 186 185
3 149 148 186
3 148 188 186
3 188 148 145
3 182 188 145
3 184 147 150
3 189 184 150
3 189 150 190
3 150 151 190
3 185 187 190
3 185 190 152
3 152 190 151
3 185 152 149
3 154 155 191
3 154 191 157
3 158 159 192
3 192 194 193
3 192 193 158
3 158 193 160
3 155 195 191
3 155 160 195
3 160 193 195
3 197 196 161
3 195 197 161
3 195 161 157
3 195 157 191
3 162 161 196
3 198 162 196
3 162 198 163
3 199 192 159
3 199 159 200
3 200 159 165
3 192 199 194
3 197 201 196
3 203 196 201
3 203 202 196
3 202 198 196
3 198 202 166
3 163 198 166
3 167 168 204
3 204 165 167
3 204 205 165
3 205 200 165
3 203 206 202
3 202 206 207
3 202 207 166
3 166 207 170
3 208 204 168
3 171 208 168
3 205 208 209
3 204 208 205
3 172 211 210
3 172 170 211
3 170 207 211
3 172 210 173
3 212 208 171
3 174 212 171
3 209 212 213
3 208 212 209
3 215 210 211
3 214 210 215
3 210 214 175
3 173 210 175
3 212 174 177
3 177 213 212
3 177 178 213
3 178 216 213
3 214 180 179
3 214 215 180
3 215 217 180
3 214 179 175
3 218 219 216
3 218 216 181
3 181 216 178
3 219 218 220
3 223 221 222
3 222 221 182
3 222 182 217
3 217 182 180
3 218 181 183
3 183 184 224
3 218 183 224
3 218 224 225
3 218 225 220
3 225 226 227
3 224 226 225
3 187 227 226
3 187 186 227
3 186 228 227
3 221 223 228
3 221 228 188
3 188 228 186
3 221 188 182
3 224 184 189
3 226 224 189
3 190 226 189
3 226 190 187
3 193 194 229
3 195 193 229
3 230 195 229
3 195 230 197
3 199 200 231
3 194 199 231
3 194 231 229
3 229 231 232
3 229 232 230
3 230 232 233
3 201 197 230
3 201 230 234
3 234 230 233
3 201 234 203
3 235 231 200
3 205 235 200
3 231 235 232
3 232 235 236
3 237 236 238
3 237 233 236
3 233 232 236
3 240 233 237
3 240 239 233
3 239 234 233
3 206 203 234
3 206 234 241
3 241 234 239
3 206 241 207
3 242 235 205
3 209 242 205
3 243 242 244
3 243 236 242
3 236 235 242
3 236 243 238
3 240 245 239
3 247 239 245
3 247 246 239
3 246 241 239
3 241 246 211
3 207 241 211
3 248 242 209
3 213 248 209
3 244 249 250
3 244 242 249
3 242 248 249
3 250 249 251
3 254 252 253
3 253 246 247
3 253 252 246
3 252 255 246
3 246 255 215
3 211 246 215
3 256 248 213
3 216 256 213
3 248 256 249
3 249 256 257
3 251 258 259
3 251 249 258
3 249 257 258
3 259 252 254
3 259 258 252
3 258 260 252
3 252 260 255
3 255 260 261
3 255 261 217
3 215 255 217
3 256 216 219
3 219 220 262
3 219 262 256
3 256 262 257
3 257 262 258
3 258 262 263
3 258 263 260
3 260 263 264
3 223 222 261
3 223 261 264
3 264 261 260
3 261 222 217
3 262 220 225
3 263 262 225
3 227 263 225
3 264 263 227
3 228 264 227
3 264 228 223
3 237 238 265
3 237 265 240
3 243 244 266
3 238 243 266
3 238 266 265
3 265 266 267
3 245 240 265
3 245 265 268
3 268 265 267
3 245 268 247
3 266 244 250
3 250 251 269
3 250 269 266
3 266 269 267
3 254 253 268
3 254 268 269
3 269 268 267
3 268 253 247
3 269 251 259
3 269 259 254
