ply
format ascii 1.0
element vertex 558
property float x
property float y
property float z
property uchar red
property uchar green
property uchar blue
element face 1116
property list uchar int vertex_indices
end_header
-7.01676130294799805 6 -2 147 151 133
-7 5.97997570037841797 -2 2 2 1
-7 6 -2.03656578063964844 121 121 120
-7.10325241088867188 6 -1 135 137 123
-7 5.89314794540405273 -1 31 28 24
-7.08581018447875977 6 0 128 128 114
-7 5.9113612174987793 0 42 38 34
-7 6 0.633452415466308594 50 48 45
-7 6.01702022552490234 -2 87 85 80
-7 6.10633420944213867 -1 62 59 55
-7 6.08822965621948242 0 50 48 45
-6.15385627746582031 6 -4 153 154 139
-6 5.84615993499755859 -4 4 4 4
-6 6 -4.2086024284362793 147 146 137
-6 6 -3.36692500114440918 95 93 87
-6.97650527954101562 6 -2 87 85 80
-6.88740825653076172 6 -1 62 59 55
-6.90681743621826172 6 0 50 48 45
-6.02584409713745117 6 3 99 93 88
-6 5.97415781021118164 3 67 56 55
-6 6 2.89670538902282715 16 14 13
-6 6 3.03163790702819824 26 24 24
-6 6.1543574333190918 -4 95 93 87
-6.08081150054931641 7 -2 148 147 134
-6 6.89113473892211914 -2 5 5 4
-6 7 -2.15890336036682129 128 128 127
-6.19321966171264648 7 -1 133 131 123
-6 6.79657316207885742 -1 35 29 26
-6.18173742294311523 7 0 124 122 114
-6 6.80915927886962891 0 47 38 36
-6.01960134506225586 7 1 122 118 108
-6 6.97440862655639648 1 41 33 32
-6 7 1.03384661674499512 64 61 60
-6 6.02590322494506836 3 26 24 24
-6 7.0804286003112793 -2 96 93 89
-6 7.19021463394165039 -1 72 68 64
-6 7.17907285690307617 0 61 57 55
-6 7.01952409744262695 1 64 61 60
-5.23365068435668945 6 -5 147 146 137
-5 5.83273458480834961 -5 1 1 1
-5 6 -5.24286508560180664 156 151 140
-5.80180883407592773 6 -4 95 93 87
-5 6 -4.77765941619873047 94 90 86
-5.96862411499023438 6 3 26 24 24
-5.01816701889038086 6 4 78 74 74
-5 5.98561000823974609 4 82 73 66
-5 6 3.98198580741882324 53 46 43
-5 6 4.01810121536254883 10 10 9
-5 6.19159793853759766 -5 94 90 86
-5.12710714340209961 7 -4 158 157 144
-5 6.83529043197631836 -4 20 17 16
-5 7 -4.14049577713012695 161 156 146
-5.40824794769287109 7 -3 128 128 127
-5 6.7587428092956543 -3 41 32 30
-5 6.89145994186401367 -2 83 57 57
-5.45074605941772461 7 -1 72 68 64
-5 7 -1.60636746883392334 25 21 20
-5.49952030181884766 7 0 61 57 55
-5 6.94509363174438477 1 114 89 79
-5 7 0.78504788875579834 16 13 12
-5.32082509994506836 7 2 80 79 79
-5 6.78919601440429688 2 94 78 71
-5 7 2.94164395332336426 13 12 11
-5 6.01570844650268555 4 10 10 9
-5 7.12213134765625 -4 119 115 112
-5 7.27091407775878906 -3 69 62 58
-5 7.20498275756835938 -2 25 21 20
-5 7.09779167175292969 1 10 8 8
-5 7.22977685928344727 2 13 12 11
-4.00958013534545898 5 -7 164 159 134
-4 4.9918055534362793 -7 62 62 61
-4 5 -7.00750446319580078 189 175 131
-4 5 -6.99214839935302734 130 126 122
-4 5.00814151763916016 -7 130 126 122
-4.24818754196166992 6 -6 156 151 140
-4 5.82228755950927734 -6 33 30 29
-4 6 -6.18311071395874023 177 164 141
-4.77823543548583984 6 -5 94 90 86
-4 6 -5.77323675155639648 119 118 117
-4.98253488540649414 6 4 10 10 9
-4 6.18190956115722656 -6 119 118 117
-4.1640772819519043 7 -5 161 156 146
-4 6.80906534194946289 -5 35 30 29
-4 7 -5.15177679061889648 175 163 148
-4 6.78015375137329102 -4 42 31 30
-4.62052536010742188 7 -3 69 62 58
-4 7 -3.64687132835388184 69 59 58
-4.88355827331542969 7 -2 25 21 20
-4.9417262077331543 7 1 10 8 8
-4.69812679290771484 7 2 13 12 11
-4.91512107849121094 7 3 53 51 51
-4 6.84923124313354492 3 109 100 81
-4 7 2.77584695816040039 48 43 38
-4 7 3.85544347763061523 4 3 3
-4 7.14363002777099609 -5 131 128 127
-4 7.29729461669921875 -4 69 59 58
-4.15713882446289062 8 -3 149 146 141
-4 7.76521062850952148 -3 8 6 6
-4 8 -3.19210958480834961 154 149 146
-4.41440153121948242 8 -2 125 125 125
-4 7.73437356948852539 -2 38 29 28
-4.63409662246704102 8 -1 105 103 102
-4 7.75098991394042969 -1 67 53 47
-4.60805845260620117 8 0 95 93 93
-4 7.74877166748046875 0 78 64 56
-4.38143396377563477 8 1 96 94 94
-4 7.73962545394897461 1 72 62 54
-4.05795812606811523 8 2 106 99 97
-4 7.91812610626220703 2 48 43 38
-4 7.18723869323730469 3 4 3 3
-4 8 2.06638598442077637 70 69 69
-4 8.95938587188720703 -3 119 114 113
-4 8.98037910461425781 -2 84 74 74
-4 8.97973442077636719 -1 58 50 50
-4 8.98001384735107422 0 46 41 40
-4 8.98018360137939453 1 51 47 46
-4 8.89126777648925781 2 70 69 69
-3.10616588592529297 4 -3 162 125 82
-3 3.98179459571838379 -3 145 146 87
-3 4 -3.19242024421691895 151 129 79
-3 4 -2.92706131935119629 160 151 82
-3.977752685546875 5 -7 130 126 122
-3 4.15409135818481445 -3 160 151 82
-3.31807518005371094 5 -2 164 126 81
-3 4.51266956329345703 -2 160 164 87
-3 5 -2.68758344650268555 157 135 78
-3.55089783668518066 5 -1 174 144 85
-3 4.63760471343994141 -1 155 168 92
-3.47429203987121582 5 0 181 157 89
-3 4.68582916259765625 0 155 175 96
-3.15710639953613281 5 1 183 165 93
-3 4.76358795166015625 1 157 183 100
-3 5 1.26325523853302002 174 187 93
-3.30676484107971191 6 -6 119 118 117
-3 5.16290807723999023 -2 169 159 81
-3 5.25723791122436523 -1 176 177 85
-3 5.22459506988525391 0 174 183 89
-3 5.0838475227355957 1 174 187 93
-3 6.75423383712768555 -5 9 7 7
-3 7 -5.49182796478271484 160 151 148
-3.64823102951049805 7 -4 69 59 58
-3 7 -4.61623001098632812 99 88 88
-3.78632140159606934 7 3 4 3 3
-3.88335251808166504 7 4 55 54 54
-3 6.8144526481628418 4 92 91 71
-3 7 3.74197769165039062 48 46 39
-3 7 4.28258609771728516 16 15 14
-3 7.28583860397338867 -5 99 88 88
-3.21991515159606934 8 -4 154 149 146
-3 7.73443078994750977 -4 25 21 20
-3 8 -4.18857049942016602 170 157 154
-3 7.75753593444824219 -3 37 30 26
-3 7.74828863143920898 -2 80 67 53
-3 7.78091621398925781 -1 105 91 68
-3 7.78847312927246094 0 115 103 75
-3 7.75086545944213867 1 111 103 76
-3 7.74663352966308594 2 91 85 67
-3.05637812614440918 8 3 97 89 89
-3 7.93416404724121094 3 48 46 39
-3 7.20299720764160156 4 16 15 14
-3 8 3.04908466339111328 70 70 70
-3 8.96552276611328125 -4 133 128 128
-3 8.97896194458007812 -3 87 77 75
-3 8.98038291931152344 -2 45 39 36
-3 8.97657585144042969 -1 15 13 12
-3 8.97555160522460938 0 3 3 2
-3 8.98016452789306641 1 9 8 7
-3 8.98034763336181641 2 33 31 30
-3 8.8732147216796875 3 70 70 70
-2.57095670700073242 4 -4 151 129 79
-2 3.86986231803894043 -4 130 137 82
-2 4 -4.20637273788452148 134 121 75
-2.89246034622192383 4 -3 160 151 82
-2 4 -3.59772777557373047 147 148 78
-2 4.24690675735473633 -4 147 148 78
-2.73785662651062012 5 -3 157 135 78
-2 4.34941673278808594 -3 137 152 82
-2 5 -3.47562742233276367 141 131 73
-2 4.64379262924194336 -2 129 153 87
-2 4.74957656860351562 -1 125 157 92
-2 4.77411365509033203 0 126 164 98
-2 4.74117422103881836 1 129 174 102
-2.25241398811340332 5 2 173 188 96
-2 4.77575969696044922 2 133 184 103
-2 5 2.14789247512817383 145 188 95
-2.32886695861816406 6 -7 161 147 142
-2 5.8534092903137207 -7 72 69 69
-2 6 -7.12782716751098633 197 155 139
-2 6 -6.83228874206542969 148 139 139
-2 5.20793485641479492 -3 154 157 77
-2 5.54863262176513672 -2 149 166 81
-2.0117790699005127 6 -1 163 148 82
-2 6 -1.03042352199554443 155 156 77
-2 5.90431022644042969 0 143 179 90
-2 6 -0.768511176109313965 157 168 81
-2 5.38798666000366211 1 144 185 93
-2 5.07942628860473633 2 145 188 95
-2 6.13119792938232422 -7 148 139 139
-2.37057757377624512 7 -6 160 151 148
-2 6.78460597991943359 -6 59 54 52
-2 7 -6.17062759399414062 191 157 149
-2 6.88610506057739258 -5 34 29 25
-2 7 -4.87799453735351562 76 68 65
-2 6.00553798675537109 -1 157 168 81
-2.24558591842651367 7 4 16 15 14
-2 7.16822290420532227 -6 148 146 146
-2 7.27171134948730469 -5 76 68 65
-2 7.73747062683105469 -4 1 1 0
-2 8 -4.48869037628173828 162 155 154
-2 7.74832344055175781 -3 62 55 42
-2 7.94386148452758789 -2 101 94 63
-2.5404512882232666 8 -1 15 13 12
-2 8 -1.84819245338439941 18 16 14
-2.56874728202819824 8 0 3 3 2
-2.02847886085510254 8 1 9 8 7
-2 7.75498104095458984 2 111 112 80
-2 8 1.02907216548919678 17 16 14
-2 7.7470097541809082 3 74 73 58
-2 8 3.37246465682983398 50 49 47
-2 8.98007965087890625 -4 117 109 106
-2 8.98036766052246094 -3 64 57 52
-2 8.89770317077636719 -2 18 16 14
-2 8.97974777221679688 2 7 7 6
-2 8.97977924346923828 3 50 49 47
-1 3.87760043144226074 -4 107 127 79
-1 4 -4.49079608917236328 127 130 73
-1 4 -3.71842789649963379 123 142 76
-1.03582108020782471 5 -4 141 131 73
-1 5 -4.00885486602783203 107 103 63
-1 4.4517970085144043 -3 113 143 80
-1 4.70518732070922852 -2 106 143 85
-1 4.8012995719909668 -1 104 147 91
-1 4.82229042053222656 0 106 155 97
-1 4.77762031555175781 1 109 166 102
-1 4.699432373046875 2 111 178 103
-1 5 2.44670891761779785 119 185 95
-1 5.81636667251586914 -7 65 63 61
-1 6 -7.183929443359375 198 143 142
-1 6 -6.8077082633972168 144 141 139
-1 5.00734758377075195 -4 130 139 72
-1 5.37670087814331055 -3 129 153 76
-1.21902322769165039 6 -2 155 156 77
-1 6 -2.11684513092041016 127 136 71
-1.89234590530395508 6 0 156 174 86
-1 5.89007377624511719 1 118 181 93
-1 6 0.878331243991851807 131 173 85
-1 5.21471643447875977 2 119 185 95
-1 6.19407939910888672 -7 144 141 139
-1 6.74972820281982422 -6 51 48 44
-1 7 -6.25243043899536133 192 157 153
-1.60134899616241455 7 -5 76 68 65
-1 7 -5.392059326171875 144 143 143
-1 6.04760217666625977 -2 133 155 76
-1 6.15336704254150391 -1 133 167 81
-1 6.13780927658081055 0 131 173 85
-1.79985415935516357 7 5 70 70 70
-1 6.8739008903503418 5 41 43 36
-1 7 4.74873113632202148 17 17 15
-1 7 5.12584781646728516 65 65 63
-1 7.24236392974853516 -6 144 143 143
-1 7.7613825798034668 -4 9 9 7
-1 8 -4.94933700561523438 160 157 156
-1 7.77931118011474609 -3 69 67 46
-1.84959781169891357 8 -2 18 16 14
-1 8 -2.54131293296813965 56 53 45
-1 7.82472467422485352 2 110 118 83
-1 8 1.65536177158355713 26 26 21
-1 7.74702739715576172 3 79 82 63
-1 8 3.58567452430725098 43 43 40
-1 7.12393522262573242 5 65 65 63
-1 8.9785614013671875 -4 111 105 98
-1 8.97674655914306641 -3 56 53 45
-1 8.96938133239746094 2 0 0 0
-1 8.98039150238037109 3 43 43 40
0 3.84607672691345215 -4 90 119 75
0 4 -4.62456846237182617 106 123 69
0 4 -3.64056277275085449 103 135 74
0 5 -4.03466606140136719 92 98 59
0 4.40586471557617188 -3 94 136 78
0 4.68508577346801758 -2 90 137 83
0 4.78382301330566406 -1 89 140 89
0 4.80416440963745117 0 95 149 99
0 4.75647306442260742 1 100 161 106
0 4.65779256820678711 2 102 173 109
0 5 2.51042747497558594 100 181 95
0 5.81879186630249023 -7 75 74 71
0 6 -7.18277645111083984 202 159 145
0 6 -6.81085586547851562 151 148 145
0 5.02857494354248047 -4 108 132 69
0 5.40453767776489258 -3 107 147 74
0 6 -2.16485428810119629 107 129 68
-0.00324506917968392372 6 1 130 176 89
0 5.24266815185546875 2 100 181 95
0 6 1.00014603137969971 110 171 89
0 6.19351387023925781 -7 151 148 145
0 6.75068092346191406 -6 61 60 53
0 7 -6.25464248657226562 196 170 155
0 7 -5.42246341705322266 151 151 151
0 6.06561708450317383 -2 111 149 75
0 6.16579246520996094 -1 110 161 80
0 6.15105962753295898 0 108 168 84
0 6.00006914138793945 1 110 171 89
0 6.87248754501342773 5 31 33 28
0 7 4.75646162033081055 7 7 6
0 7 5.12809514999389648 75 75 74
0 7.24389123916625977 -6 151 151 151
-0.0340827107429504395 8 -5 160 157 156
0 7.99740028381347656 -5 78 76 66
0 8 -5.00061464309692383 196 174 160
0 7.76098966598510742 -4 0 0 0
0 7.7860112190246582 -3 56 60 40
0 8 -2.57075929641723633 64 63 53
0 7.83541679382324219 2 97 111 79
0 8 1.68617641925811768 17 17 14
0 7.74727058410644531 3 67 73 58
0 8 3.6045539379119873 53 53 50
0 7.12601375579833984 5 75 75 74
0 8.07914829254150391 -5 166 164 160
0 8.97864913940429688 -4 119 116 107
0 8.97583580017089844 -3 64 63 53
0 8.96704959869384766 2 8 8 7
0 8.98038864135742188 3 53 53 50
1 3.74639391899108887 -4 78 115 71
1 4 -4.40718555450439453 86 110 64
1 4 -3.17276525497436523 86 127 70
0.187426447868347168 5 -4 108 132 69
1 4.49445104598999023 -4 86 127 70
1 4.10158824920654297 -3 80 132 75
1 5 -3.64367437362670898 88 119 65
1 4.55873966217041016 -2 80 134 83
1 4.68835163116455078 -1 86 139 95
1 4.71184253692626953 0 93 147 106
1 4.65704202651977539 1 98 158 113
1 4.56041669845581055 2 100 169 116
1 5 2.28324794769287109 94 174 100
1 5.852325439453125 -7 101 101 98
1 6 -7.13380289077758789 209 175 145
1 6 -6.83516168594360352 168 165 155
1 5.26627826690673828 -3 88 139 71
0.391403704881668091 6 -2 111 149 75
1 5.70106744766235352 -2 84 149 77
1 6 -1.38190889358520508 90 137 72
0.000373745599063113332 6 1 110 171 89
1 5.52808332443237305 1 92 171 99
1 6 0.193228423595428467 92 159 83
1 5.14633893966674805 2 94 174 100
1 6.13809442520141602 -7 168 165 155
1 6.78103542327880859 -6 88 88 79
1 7 -6.18538808822631836 204 183 156
0.758088946342468262 7 -5 78 76 66
1 6.93422651290893555 -5 3 3 2
1 7 -4.93036365509033203 102 103 90
1 6.0631108283996582 -1 90 151 78
1 6.04244089126586914 0 92 159 83
0.941492438316345215 7 5 75 75 74
1 7.18220853805541992 -6 167 166 161
0.00201855483464896679 8 -5 166 164 160
1 7.19848394393920898 -5 102 103 90
1 7.74158382415771484 -4 26 27 22
1 8 -4.53550815582275391 179 175 164
1 7.74881982803344727 -3 31 34 24
1 8 -2.04400181770324707 89 89 77
1 7.76293039321899414 2 76 88 67
1 8 1.21979105472564697 9 9 8
1 7.74798345565795898 3 42 46 38
1 8 3.39752435684204102 78 78 78
1 8.97999668121337891 -4 138 138 131
1 8.98033332824707031 -3 89 89 77
1 8.97887897491455078 2 35 36 33
1 8.97988510131835938 3 78 78 78
2 3.69261431694030762 -4 68 111 68
2 4 -4.09276056289672852 65 88 54
1.1842038631439209 4 -3 80 132 75
2 3.82066249847412109 -3 71 111 78
2 4 -2.20158767700195312 71 127 75
2 4.08921146392822266 -4 71 116 65
2 5 -3.07494711875915527 66 96 56
2 4.11380910873413086 -2 77 133 89
2 4.41892433166503906 -1 83 140 101
2 4.47140979766845703 0 90 148 111
2 4.39705228805541992 1 95 158 118
1.60196328163146973 5 2 94 174 100
2 5 1.66565632820129395 90 163 105
1.4024888277053833 6 -7 168 165 155
2 5.04511070251464844 -3 71 124 67
2 5.26261806488037109 -2 73 140 77
1.15780377388000488 6 -1 90 151 78
2 5.39559173583984375 -1 79 150 91
1.1037212610244751 6 0 92 159 83
2 5.36307191848754883 0 85 158 100
2 5.19212579727172852 1 90 163 105
1.46649515628814697 7 -6 167 166 161
2 6.76353549957275391 -5 38 41 34
2 7 -5.55666494369506836 187 188 167
2 7 -4.67217493057250977 136 138 130
1.42572903633117676 7 4 20 21 19
2 6.83918571472167969 4 39 45 38
2 7 3.79551100730895996 0 0 0
2 7 4.27589225769042969 65 66 64
2 7.29198789596557617 -5 136 138 130
2 7.72999382019042969 -4 68 72 61
2 8 -4.23824930191040039 194 190 164
2 7.75608301162719727 -3 8 9 7
1.04459452629089355 8 -2 44 45 37
2 7.75164699554443359 -2 30 37 27
1.65597128868103027 8 -1 14 15 12
2 7.82225608825683594 -1 52 65 46
1.68572449684143066 8 0 2 2 2
2 7.83380603790283203 0 61 76 56
1.21867382526397705 8 1 9 9 8
2 7.76166820526123047 1 59 71 55
2 7.74743461608886719 2 41 47 39
2 7.87417840957641602 3 0 0 0
2 7.18331432342529297 4 65 66 64
2 8 3.11164951324462891 111 113 104
2 8.97215747833251953 -4 164 164 159
2 8.97931575775146484 -3 124 125 118
2 8.98006153106689453 -2 85 87 78
2 8.96981334686279297 -1 57 59 53
2 8.96737194061279297 0 46 48 43
2 8.97901344299316406 1 53 54 51
2 8.98038768768310547 2 78 78 77
2 8.94130420684814453 3 111 113 104
2.14072394371032715 4 -4 71 116 65
3 3.71815204620361328 -3 68 111 81
3 4 -3.130035400390625 55 93 56
2.20084881782531738 4 -2 77 133 89
3 3.7625737190246582 -2 74 116 92
2.6761472225189209 4 -1 83 140 101
3 3.863555908203125 -1 81 122 103
2.76890993118286133 4 0 90 148 111
3 3.90136456489562988 0 89 131 113
2.71674251556396484 4 1 95 158 118
3 3.91235470771789551 1 95 143 122
3 4 1.35604763031005859 91 153 120
2.07470107078552246 5 -3 71 124 67
3 4.08179473876953125 -3 66 116 75
2.62757682800292969 5 -2 73 140 77
3 4.46267509460449219 -2 73 128 91
3 5 -1.11593759059906006 67 120 77
2.96648168563842773 5 0 85 158 100
3 4.88543319702148438 0 86 146 114
3 5 -0.316805243492126465 75 135 91
2.43397116661071777 5 1 90 163 105
3 4.16634035110473633 1 91 153 120
2.52464437484741211 6 -6 125 127 120
3 5.83987617492675781 -6 98 101 95
3 6 -6.17722225189208984 203 209 159
3 6 -5.81339406967163086 166 168 163
3 5.01726198196411133 -1 75 135 91
3 6.17575263977050781 -6 166 168 163
3 6.79446029663085938 -5 95 101 91
3 7 -5.19384765625 202 207 163
2.74737763404846191 7 -4 68 72 61
3 6.82404279708862305 -4 21 25 20
3 7 -3.75823116302490234 122 126 117
2.90304708480834961 7 3 0 0 0
3 6.92601919174194336 3 41 48 40
3 7 2.90330362319946289 16 17 15
3 6.968170166015625 4 18 19 18
3 7 4.03025054931640625 113 118 109
3 7.17860651016235352 -5 172 175 166
2.29897904396057129 8 -4 164 164 159
3 7.28044652938842773 -4 122 126 117
3 7.7472987174987793 -3 66 71 62
3 8 -3.29245352745056152 186 190 162
3 7.74179935455322266 -2 22 25 21
3 7.7502894401550293 -1 4 5 4
3 7.74869728088378906 0 15 17 14
3 7.74390411376953125 1 9 10 9
3 7.84404134750366211 2 16 17 15
2.13660216331481934 8 3 111 113 104
3 7.10555887222290039 3 62 63 62
3 8 2.1692347526550293 121 126 113
3 7.02899837493896484 4 113 118 109
3 8.97129631042480469 -3 161 164 154
3 8.98031711578369141 -2 136 136 135
3 8.98003292083740234 -1 113 114 112
3 8.98022651672363281 0 104 104 104
3 8.98030376434326172 1 107 109 104
3 8.95380687713623047 2 121 126 113
3.08464384078979492 4 -3 66 116 75
3.3729398250579834 4 -2 73 128 91
3.52456378936767578 4 -1 80 138 104
3.37265181541442871 4 0 86 146 114
3.13505816459655762 4 1 91 153 120
3.02094435691833496 5 -1 75 135 91
3.27601718902587891 6 -6 166 168 163
3.8661346435546875 6 -5 95 101 91
4 5.88870096206665039 -5 82 89 81
4 6 -5.20435523986816406 186 202 168
4 6 -4.86951923370361328 160 161 160
3.22121071815490723 7 -5 172 175 166
4 6.14506959915161133 -5 160 161 160
4 6.80836677551269531 -4 94 102 93
4 7 -4.21139717102050781 190 204 165
3.70595288276672363 7 -3 66 71 62
4 6.78147077560424805 -3 36 42 36
4 7 -2.19002771377563477 137 138 136
3.78176212310791016 7 2 16 17 15
4 6.82729387283325195 2 12 13 12
4 7 1.39952921867370605 69 70 69
4 6.93858623504638672 3 33 34 33
3.03355741500854492 7 4 113 118 109
4 7 3.06471776962280273 119 130 115
4 7.17021369934082031 -4 169 175 164
3.23197507858276367 8 -3 161 164 154
4 7.27116060256958008 -3 137 138 136
3.5272667407989502 8 -2 136 136 135
3.92098236083984375 8 -1 113 114 112
3.86435675621032715 8 0 104 104 104
3.47303605079650879 8 1 107 109 104
3.14515519142150879 8 2 121 126 113
4 7.20416402816772461 2 92 94 92
4 7.05637025833129883 3 119 130 115
4.20195436477661133 6 -5 160 161 160
4.85673332214355469 6 -4 94 102 93
5 5.87588930130004883 -4 99 105 100
5 6 -4.21997261047363281 179 203 167
5 6 -3.71513819694519043 163 171 162
4.18466758728027344 7 -4 169 175 164
5 6.13775968551635742 -4 163 171 162
4.50885629653930664 7 -3 137 138 136
4.2821660041809082 7 -2 97 101 96
5 6.83821868896484375 -2 86 90 86
5 7 -2.38209700584411621 169 189 159
4.63024759292602539 7 -1 70 74 69
5 6.79484081268310547 -1 59 62 59
4.65611076354980469 7 0 60 63 60
5 6.8050384521484375 0 49 51 49
4.56377410888671875 7 1 69 70 69
5 6.89203786849975586 1 58 59 58
4.34882783889770508 7 2 92 94 92
5 7 1.21617162227630615 130 147 127
4.05973672866821289 7 3 119 130 115
5 7.14721250534057617 -2 155 168 150
5 7.20914173126220703 -1 140 151 138
5 7.19853448867797852 0 131 143 129
5 7.09946680068969727 1 130 147 127
5.13867282867431641 6 -4 163 171 162
5.94297027587890625 6 -2 86 90 86
6 5.9475398063659668 -2 109 109 109
6 6 -2.16037654876708984 162 193 159
5.93084573745727539 6 -1 59 62 59
6 5.93263006210327148 -1 83 83 83
5.9513092041015625 6 0 49 51 49
6 5.95249843597412109 0 72 72 72
6 6 0.748029768466949463 131 148 133
5.14982271194458008 7 -2 155 168 150
6 6.05233097076416016 -2 151 172 152
5.21837711334228516 7 -1 140 151 138
6 6.07442998886108398 -1 139 155 140
5.20685482025146484 7 0 131 143 129
6 6.05223989486694336 0 131 148 133
5.10096645355224609 7 1 130 147 127
6.05059289932250977 6 -2 151 172 152
6.06986522674560547 6 -1 139 155 140
6.04916715621948242 6 0 131 148 133
3 2 1 0
3 1 4 3
3 0 1 3
3 4 6 5
3 3 4 5
3 6 7 5
3 2 0 8
3 0 3 9
3 8 0 9
3 3 5 10
3 9 3 10
3 5 7 10
3 13 12 11
3 12 14 11
3 1 2 15
3 4 1 15
3 16 4 15
3 6 4 16
3 17 6 16
3 6 17 7
3 20 19 18
3 19 21 18
3 13 11 22
3 11 14 22
3 8 23 25
3 8 25 2
3 24 15 25
3 15 2 25
3 8 26 23
3 8 9 26
3 24 27 15
3 27 16 15
3 9 28 26
3 9 10 28
3 27 29 16
3 29 17 16
3 29 31 7
3 29 7 17
3 31 30 7
3 10 7 28
3 30 28 7
3 31 32 30
3 20 18 33
3 18 21 33
3 25 23 34
3 23 26 35
3 34 23 35
3 26 28 36
3 35 26 36
3 28 30 37
3 36 28 37
3 30 32 37
3 40 39 38
3 13 38 39
3 13 39 12
3 42 41 39
3 41 12 39
3 12 41 14
3 19 20 43
3 44 21 19
3 44 19 45
3 43 46 19
3 46 45 19
3 45 47 44
3 40 38 48
3 48 49 51
3 48 22 49
3 48 38 22
3 13 22 38
3 42 50 41
3 50 53 14
3 50 14 41
3 53 52 14
3 22 14 49
3 52 49 14
3 25 52 53
3 25 53 24
3 24 53 54
3 56 55 27
3 56 27 54
3 54 27 24
3 29 27 55
3 57 29 55
3 57 59 58
3 57 58 29
3 29 58 31
3 60 32 31
3 60 31 61
3 61 31 58
3 61 62 60
3 20 33 43
3 21 44 63
3 21 63 33
3 46 43 63
3 43 33 63
3 44 47 63
3 51 49 64
3 49 52 65
3 64 49 65
3 52 25 34
3 52 34 65
3 65 34 66
3 55 56 66
3 55 66 35
3 35 66 34
3 57 55 35
3 36 57 35
3 59 57 36
3 59 36 67
3 67 36 37
3 32 60 68
3 32 68 37
3 37 68 67
3 60 62 68
3 71 70 69
3 70 72 69
3 71 69 73
3 76 73 69
3 76 69 74
3 72 75 69
3 75 74 69
3 40 74 75
3 40 75 39
3 78 77 75
3 77 39 75
3 39 77 42
3 45 46 79
3 45 79 47
3 76 74 80
3 80 81 83
3 80 48 81
3 80 74 48
3 40 48 74
3 78 82 77
3 81 48 51
3 77 82 42
3 82 50 42
3 82 84 50
3 86 85 53
3 86 53 84
3 84 53 50
3 54 53 85
3 87 54 85
3 54 87 56
3 58 59 88
3 61 58 88
3 89 61 88
3 90 62 61
3 90 61 91
3 89 92 61
3 92 91 61
3 91 93 90
3 46 63 79
3 79 63 47
3 83 81 94
3 81 51 64
3 81 64 94
3 94 64 95
3 86 97 85
3 98 95 96
3 95 65 96
3 95 64 65
3 65 99 96
3 65 66 99
3 97 100 85
3 100 87 85
3 100 102 56
3 100 56 87
3 102 101 56
3 66 56 99
3 101 99 56
3 102 104 103
3 101 102 103
3 105 103 59
3 105 59 67
3 103 104 59
3 88 59 106
3 104 106 59
3 67 107 105
3 67 68 107
3 106 108 88
3 108 89 88
3 68 110 107
3 68 109 110
3 68 62 109
3 90 109 62
3 89 108 92
3 90 93 109
3 98 96 111
3 96 99 112
3 111 96 112
3 99 101 113
3 112 99 113
3 101 103 114
3 113 101 114
3 103 105 115
3 114 103 115
3 105 107 116
3 115 105 116
3 107 110 116
3 119 118 117
3 118 120 117
3 70 71 121
3 70 121 72
3 119 117 122
3 125 122 117
3 125 117 123
3 120 124 117
3 124 123 117
3 124 127 126
3 123 124 126
3 127 129 128
3 126 127 128
3 129 131 130
3 128 129 130
3 131 132 130
3 121 71 73
3 75 72 121
3 75 121 133
3 73 76 121
3 76 133 121
3 75 133 78
3 125 123 134
3 123 126 135
3 134 123 135
3 126 128 136
3 135 126 136
3 128 130 137
3 136 128 137
3 130 132 137
3 133 76 80
3 83 139 133
3 83 133 80
3 139 138 133
3 78 133 82
3 138 82 133
3 141 140 84
3 141 84 138
3 138 84 82
3 84 140 86
3 91 92 142
3 143 93 91
3 143 91 144
3 142 145 91
3 145 144 91
3 144 146 143
3 139 83 94
3 147 139 94
3 141 149 140
3 150 147 148
3 147 95 148
3 147 94 95
3 148 95 98
3 140 149 86
3 149 97 86
3 149 151 97
3 151 152 97
3 97 152 100
3 152 153 100
3 100 153 102
3 153 154 102
3 102 154 104
3 154 155 104
3 104 155 106
3 155 156 106
3 106 156 108
3 110 109 157
3 92 108 142
3 108 158 142
3 108 156 158
3 109 160 157
3 109 159 160
3 109 93 159
3 143 159 93
3 142 158 145
3 143 146 159
3 150 148 161
3 148 98 111
3 148 111 161
3 161 111 162
3 162 111 163
3 111 112 163
3 163 112 164
3 112 113 164
3 164 113 165
3 113 114 165
3 165 114 166
3 114 115 166
3 166 115 167
3 115 116 167
3 110 157 168
3 110 168 116
3 116 168 167
3 157 160 168
3 171 170 169
3 119 169 170
3 119 170 118
3 173 172 170
3 172 118 170
3 118 172 120
3 171 169 174
3 174 175 177
3 174 122 175
3 174 169 122
3 119 122 169
3 173 176 172
3 175 122 125
3 172 176 120
3 176 124 120
3 176 178 124
3 178 179 124
3 124 179 127
3 179 180 127
3 127 180 129
3 180 181 129
3 129 181 131
3 182 132 131
3 182 131 183
3 183 131 181
3 183 184 182
3 187 186 185
3 186 188 185
3 177 175 189
3 175 125 134
3 175 134 189
3 189 134 190
3 192 135 191
3 192 190 135
3 190 134 135
3 191 193 194
3 191 135 193
3 135 136 193
3 193 136 195
3 136 137 195
3 132 182 196
3 132 196 137
3 137 196 195
3 182 184 196
3 187 185 197
3 200 197 185
3 200 185 198
3 188 199 185
3 199 198 185
3 139 198 199
3 139 199 138
3 138 199 201
3 138 201 202
3 141 138 202
3 192 191 203
3 191 194 203
3 144 145 204
3 144 204 146
3 200 198 205
3 198 139 147
3 198 147 205
3 205 147 206
3 202 207 141
3 141 207 149
3 208 206 147
3 208 147 150
3 207 209 149
3 149 209 151
3 209 210 151
3 151 210 152
3 212 211 153
3 212 153 210
3 210 153 152
3 154 153 211
3 213 154 211
3 155 154 213
3 214 155 213
3 214 216 215
3 214 215 155
3 155 215 156
3 215 217 156
3 156 217 158
3 158 217 204
3 158 204 145
3 217 218 204
3 159 204 160
3 218 160 204
3 204 159 146
3 208 150 161
3 219 208 161
3 219 161 220
3 161 162 220
3 220 162 221
3 162 163 221
3 211 212 221
3 211 221 164
3 164 221 163
3 213 211 164
3 165 213 164
3 214 213 165
3 166 214 165
3 216 214 166
3 216 166 222
3 222 166 167
3 222 167 223
3 167 168 223
3 223 168 160
3 218 223 160
3 171 225 224
3 170 171 224
3 170 224 226
3 173 170 226
3 174 227 228
3 174 228 171
3 171 228 225
3 176 226 229
3 176 173 226
3 174 177 227
3 229 230 176
3 176 230 178
3 230 231 178
3 178 231 179
3 231 232 179
3 179 232 180
3 232 233 180
3 180 233 181
3 233 234 181
3 181 234 183
3 183 234 235
3 184 183 235
3 187 237 236
3 186 187 236
3 186 236 238
3 188 186 238
3 228 227 239
3 227 177 189
3 227 189 239
3 239 189 240
3 242 190 241
3 242 240 190
3 240 189 190
3 190 192 241
3 193 243 194
3 243 244 245
3 243 193 244
3 193 195 244
3 244 195 246
3 195 196 246
3 246 196 184
3 235 246 184
3 237 187 197
3 247 237 197
3 238 248 188
3 188 248 199
3 249 247 197
3 249 197 200
3 251 250 201
3 251 201 248
3 248 201 199
3 201 250 202
3 242 241 252
3 241 192 203
3 241 203 252
3 252 203 253
3 194 243 254
3 194 254 203
3 203 254 253
3 243 245 254
3 257 256 255
3 256 258 255
3 249 200 205
3 259 249 205
3 250 251 259
3 250 259 206
3 206 259 205
3 208 261 250
3 208 250 206
3 261 260 250
3 202 250 207
3 260 207 250
3 260 262 207
3 207 262 209
3 264 263 210
3 264 210 262
3 262 210 209
3 210 263 212
3 216 266 265
3 215 216 265
3 265 267 215
3 215 267 217
3 217 267 268
3 218 217 268
3 257 255 269
3 255 258 269
3 261 208 219
3 270 261 219
3 270 219 271
3 219 220 271
3 263 264 271
3 263 271 221
3 221 271 220
3 263 221 212
3 266 216 222
3 272 266 222
3 272 222 273
3 222 223 273
3 273 223 218
3 268 273 218
3 225 275 274
3 224 225 274
3 224 274 276
3 226 224 276
3 275 225 277
3 277 225 228
3 276 229 226
3 278 229 276
3 278 279 229
3 229 279 230
3 279 280 230
3 230 280 231
3 280 281 231
3 231 281 232
3 281 282 232
3 232 282 233
3 282 283 233
3 233 283 234
3 234 283 284
3 235 234 284
3 237 286 285
3 236 237 285
3 236 285 287
3 238 236 287
3 277 228 239
3 288 277 239
3 288 239 289
3 239 240 289
3 240 290 289
3 242 290 240
3 244 291 245
3 291 292 293
3 291 244 292
3 244 246 292
3 292 246 235
3 284 292 235
3 286 237 247
3 294 286 247
3 287 295 238
3 238 295 248
3 296 294 247
3 296 247 249
3 248 295 297
3 251 248 297
3 290 242 252
3 298 290 252
3 298 252 299
3 252 253 299
3 299 253 300
3 253 254 300
3 245 291 301
3 245 301 254
3 254 301 300
3 291 293 301
3 257 303 302
3 256 257 302
3 256 302 304
3 258 256 304
3 296 249 259
3 305 296 259
3 305 259 306
3 305 306 308
3 259 251 306
3 307 306 297
3 251 297 306
3 261 306 307
3 261 307 260
3 260 307 309
3 309 310 260
3 260 310 262
3 262 310 311
3 264 262 311
3 266 313 312
3 265 266 312
3 312 314 265
3 265 314 267
3 267 314 315
3 268 267 315
3 303 257 269
3 316 303 269
3 316 269 258
3 304 316 258
3 308 306 317
3 306 261 270
3 306 270 317
3 317 270 318
3 318 270 319
3 270 271 319
3 319 271 264
3 311 319 264
3 313 266 272
3 320 313 272
3 320 272 321
3 272 273 321
3 321 273 268
3 315 321 268
3 275 323 322
3 274 275 322
3 274 322 324
3 276 274 324
3 325 326 323
3 325 323 277
3 277 323 275
3 324 278 276
3 324 327 278
3 328 326 325
3 327 329 278
3 278 329 279
3 329 330 279
3 279 330 280
3 330 331 280
3 280 331 281
3 331 332 281
3 281 332 282
3 332 333 282
3 282 333 283
3 283 333 334
3 284 283 334
3 286 336 335
3 285 286 335
3 285 335 337
3 287 285 337
3 325 277 288
3 328 325 288
3 328 288 338
3 338 288 289
3 339 289 290
3 339 340 289
3 340 338 289
3 340 339 341
3 344 342 343
3 293 343 342
3 293 292 343
3 292 345 343
3 345 292 284
3 334 345 284
3 336 286 294
3 346 336 294
3 337 347 287
3 287 347 295
3 348 346 294
3 348 294 296
3 349 297 295
3 349 295 350
3 350 295 347
3 350 351 349
3 339 290 298
3 341 339 298
3 341 298 352
3 352 298 299
3 352 299 353
3 299 300 353
3 342 344 353
3 342 353 301
3 301 353 300
3 342 301 293
3 302 303 354
3 302 354 304
3 348 296 305
3 355 348 305
3 297 349 307
3 305 308 357
3 305 357 355
3 357 308 356
3 359 357 356
3 351 358 349
3 358 307 349
3 358 309 307
3 358 360 309
3 309 360 310
3 310 360 361
3 311 310 361
3 313 363 362
3 312 313 362
3 362 364 312
3 312 364 314
3 314 364 365
3 315 314 365
3 354 303 316
3 354 316 304
3 356 308 317
3 359 356 317
3 359 317 366
3 366 317 318
3 366 318 367
3 318 319 367
3 367 319 311
3 361 367 311
3 363 313 320
3 368 363 320
3 368 320 369
3 320 321 369
3 369 321 315
3 365 369 315
3 323 371 370
3 322 323 370
3 372 324 322
3 372 322 373
3 373 322 370
3 373 374 372
3 371 323 326
3 375 371 326
3 326 376 375
3 326 328 376
3 327 324 372
3 374 327 372
3 374 377 327
3 377 329 327
3 377 378 329
3 329 378 330
3 378 379 330
3 330 379 331
3 379 380 331
3 331 380 332
3 382 381 333
3 382 333 380
3 380 333 332
3 333 381 334
3 335 336 383
3 335 383 337
3 376 328 338
3 384 376 338
3 384 338 385
3 338 340 385
3 386 340 341
3 386 387 340
3 387 385 340
3 387 388 389
3 386 388 387
3 344 389 388
3 344 343 389
3 343 390 389
3 381 382 390
3 381 390 345
3 345 390 343
3 381 345 334
3 383 336 346
3 347 337 383
3 347 383 391
3 346 348 383
3 348 391 383
3 391 393 392
3 391 392 347
3 347 392 350
3 350 392 394
3 351 350 394
3 386 341 352
3 388 386 352
3 353 388 352
3 388 353 344
3 397 396 395
3 396 398 395
3 391 348 355
3 393 391 355
3 393 355 399
3 399 355 357
3 394 400 351
3 351 400 358
3 401 399 357
3 401 357 359
3 400 402 358
3 358 402 360
3 403 361 360
3 403 360 404
3 404 360 402
3 404 406 405
3 403 404 405
3 406 408 407
3 405 406 407
3 408 410 409
3 407 408 409
3 363 409 410
3 363 410 362
3 362 410 411
3 411 412 362
3 362 412 364
3 414 365 395
3 414 395 413
3 365 364 395
3 397 395 412
3 364 412 395
3 395 398 413
3 401 359 366
3 415 401 366
3 415 366 416
3 366 367 416
3 361 403 417
3 361 417 367
3 367 417 416
3 403 405 418
3 417 403 418
3 405 407 419
3 418 405 419
3 407 409 420
3 419 407 420
3 409 363 368
3 409 368 420
3 420 368 421
3 421 368 422
3 368 369 422
3 422 369 365
3 414 422 365
3 370 371 423
3 423 425 424
3 423 424 370
3 370 424 373
3 426 374 373
3 426 373 427
3 427 373 424
3 427 429 428
3 426 427 428
3 429 431 430
3 428 429 430
3 431 433 432
3 430 431 432
3 433 434 432
3 423 371 375
3 375 376 435
3 423 375 435
3 423 435 436
3 423 436 425
3 437 436 435
3 437 438 436
3 426 377 374
3 377 428 378
3 377 426 428
3 438 437 439
3 430 378 428
3 430 379 378
3 440 441 442
3 441 440 444
3 444 440 443
3 379 430 432
3 379 432 380
3 380 432 434
3 380 434 382
3 444 443 434
3 443 382 434
3 447 446 445
3 446 448 445
3 435 376 384
3 437 435 384
3 385 437 384
3 439 437 385
3 439 385 449
3 449 385 387
3 440 442 449
3 440 449 389
3 389 449 387
3 443 440 389
3 390 443 389
3 443 390 382
3 447 445 450
3 451 392 445
3 451 445 448
3 392 393 445
3 450 445 452
3 393 452 445
3 453 394 392
3 453 392 454
3 454 392 451
3 454 455 453
3 458 457 456
3 397 456 457
3 397 457 396
3 396 457 459
3 396 459 460
3 398 396 460
3 452 393 399
3 461 452 399
3 394 453 400
3 399 401 463
3 399 463 461
3 463 401 462
3 465 463 462
3 455 464 453
3 464 400 453
3 464 402 400
3 464 466 402
3 402 466 404
3 466 467 404
3 404 467 406
3 467 468 406
3 406 468 408
3 468 469 408
3 408 469 410
3 469 470 410
3 410 470 411
3 473 471 472
3 470 458 412
3 470 412 411
3 412 458 456
3 456 397 412
3 472 471 413
3 472 413 474
3 413 471 414
3 474 413 398
3 460 474 398
3 462 401 415
3 465 462 415
3 465 415 475
3 475 415 416
3 475 416 476
3 416 417 476
3 476 417 477
3 417 418 477
3 477 418 478
3 418 419 478
3 478 419 479
3 419 420 479
3 479 420 480
3 420 421 480
3 471 473 480
3 471 480 422
3 422 480 421
3 471 422 414
3 424 425 481
3 427 424 481
3 482 427 481
3 429 427 482
3 483 429 482
3 431 429 483
3 484 431 483
3 433 431 484
3 485 433 484
3 433 485 434
3 481 425 436
3 482 481 436
3 438 482 436
3 438 439 486
3 438 486 482
3 482 486 483
3 442 441 484
3 442 484 486
3 486 484 483
3 485 484 441
3 444 485 441
3 485 444 434
3 446 447 487
3 488 448 446
3 488 446 489
3 487 490 446
3 490 489 446
3 489 491 488
3 486 439 449
3 486 449 442
3 487 447 450
3 487 493 490
3 487 492 493
3 487 450 492
3 452 492 450
3 448 488 451
3 495 493 492
3 491 494 488
3 494 451 488
3 494 454 451
3 496 455 454
3 496 454 497
3 497 454 494
3 497 498 496
3 501 500 499
3 458 499 500
3 458 500 457
3 457 500 502
3 504 503 459
3 504 459 502
3 502 459 457
3 459 503 460
3 492 452 461
3 495 492 461
3 495 461 505
3 505 461 463
3 455 496 464
3 463 465 507
3 463 507 505
3 507 465 506
3 506 508 498
3 506 498 507
3 508 466 498
3 496 498 464
3 466 464 498
3 467 466 508
3 509 467 508
3 468 467 509
3 510 468 509
3 469 468 510
3 511 469 510
3 470 469 501
3 470 501 499
3 469 511 501
3 513 501 512
3 511 512 501
3 499 458 470
3 513 512 472
3 513 472 514
3 472 512 473
3 503 504 514
3 503 514 474
3 474 514 472
3 503 474 460
3 506 465 475
3 508 506 475
3 476 508 475
3 509 508 476
3 477 509 476
3 510 509 477
3 478 510 477
3 511 510 478
3 479 511 478
3 512 511 479
3 480 512 479
3 512 480 473
3 489 490 515
3 516 491 489
3 516 489 517
3 515 518 489
3 518 517 489
3 517 519 516
3 515 490 493
3 515 521 518
3 515 520 521
3 515 493 520
3 495 520 493
3 491 516 494
3 520 522 519
3 520 519 521
3 522 497 519
3 516 519 494
3 497 494 519
3 523 498 497
3 523 497 524
3 522 525 497
3 525 524 497
3 524 527 526
3 523 524 526
3 527 529 528
3 526 527 528
3 529 531 530
3 528 529 530
3 501 530 531
3 501 531 500
3 533 532 531
3 532 500 531
3 502 500 532
3 534 502 532
3 502 534 504
3 520 495 505
3 522 520 505
3 507 522 505
3 498 523 535
3 498 535 507
3 525 522 535
3 522 507 535
3 523 526 536
3 535 523 536
3 526 528 537
3 536 526 537
3 528 530 538
3 537 528 538
3 532 533 538
3 532 538 513
3 530 501 538
3 501 513 538
3 534 532 513
3 514 534 513
3 534 514 504
3 517 518 539
3 517 539 519
3 542 541 540
3 541 544 543
3 540 541 543
3 544 546 545
3 543 544 545
3 546 547 545
3 539 518 521
3 539 521 519
3 548 549 542
3 548 542 525
3 540 524 542
3 524 525 542
3 549 548 551
3 551 548 550
3 524 540 543
3 524 543 527
3 551 550 553
3 553 550 552
3 527 543 545
3 527 545 529
3 552 554 547
3 552 547 553
3 554 531 547
3 545 547 529
3 531 529 547
3 531 554 533
3 548 525 535
3 550 548 535
3 536 550 535
3 552 550 536
3 537 552 536
3 554 552 537
3 538 554 537
3 554 538 533
3 541 542 555
3 544 541 555
3 556 544 555
3 546 544 556
3 557 546 556
3 546 557 547
3 555 542 549
3 556 555 549
3 551 556 549
3 557 556 551
3 553 557 551
3 557 553 547
