ply
format ascii 1.0
element vertex 640
property float x
property float y
property float z
property uchar red
property uchar green
property uchar blue
element face 1276
property list uchar int vertex_indices
end_header
-5.0077662467956543 2 -2 50 8 13
-5 1.8157120943069458 -2 55 12 14
-5 2 -2.04822802543640137 50 9 21
-5 2 -1.85604715347290039 50 8 18
-5.04432439804077148 3 -2 43 8 17
-5 3 -2.26659178733825684 43 7 28
-5 3 -1.1098860502243042 43 6 25
-5.09009504318237305 4 -2 34 7 18
-5 4 -2.52786803245544434 35 6 29
-5.04496431350708008 4 -1 34 6 13
-5 3.11051750183105469 -1 42 5 19
-5 4 -0.827692091464996338 34 5 20
-5.16938924789428711 5 -2 24 6 13
-5 5 -2.97287631034851074 24 5 21
-5.12998533248901367 5 -1 23 5 10
-5 5 -0.486930817365646362 23 4 15
-5.15032386779785156 6 -3 11 4 7
-5 5.03061008453369141 -3 24 5 21
-5 6 -3.38269615173339844 11 4 9
-5.32941436767578125 6 -2 11 4 6
-5.29742097854614258 6 -1 11 3 4
-5.05501079559326172 6 0 10 3 3
-5 5.69483280181884766 0 22 3 9
-5 6 0.120881378650665283 10 2 4
-5.02394485473632812 7 -4 2 1 1
-5 6.90910100936889648 -4 11 4 9
-5 7 -4.03950309753417969 2 1 2
-5.41199159622192383 7 -3 2 1 1
-5.59656858444213867 7 -2 2 1 1
-5.5701909065246582 7 -1 3 1 1
-5.33393573760986328 7 0 4 2 2
-5 7 0.75646519660949707 4 1 1
-5.25450372695922852 8 -4 18 17 17
-5 8 -4.42391729354858398 19 17 17
-5.64627933502197266 8 -3 18 16 16
-5.83450222015380859 8 -2 19 15 15
-5.8074946403503418 8 -1 19 15 15
-5.56692171096801758 8 0 20 15 15
-5.12422657012939453 8 1 21 15 16
-5 7.45689058303833008 1 5 2 2
-5 8 1.18970859050750732 21 14 14
-5 8.83032703399658203 -4 18 15 16
-5 8.92274665832519531 -3 18 14 15
-5 8.93764591217041016 -2 18 14 14
-5 8.93553352355957031 -1 19 14 14
-5 8.91207790374755859 0 20 14 14
-5 8.70024871826171875 1 21 14 14
-4.10511112213134766 -4 -2 52 52 52
-4 -4.31836986541748047 -2 46 25 36
-4 -4 -2.58882951736450195 52 33 39
-4.02036714553833008 -4 -1 52 48 50
-4 -4.0614161491394043 -1 46 27 39
-4 -4 -0.941741347312927246 52 37 44
-4.19527912139892578 -3 -3 57 47 50
-4 -3.7264401912689209 -3 52 33 39
-4 -3 -3.43625140190124512 57 47 49
-4.37576389312744141 -3 -2 56 46 49
-4.29123306274414062 -3 -1 56 41 48
-4 -3 -0.165544107556343079 56 50 52
-4.40774726867675781 -2 -3 59 37 40
-4 -2 -3.91025543212890625 59 54 55
-4.59253931045532227 -2 -2 59 36 40
-4.50808620452880859 -2 -1 58 32 39
-4.1571807861328125 -2 0 57 27 40
-4 -2.73021578788757324 0 55 53 54
-4 -2 0.253016531467437744 57 42 47
-4.11266326904296875 -1 -4 59 27 28
-4 -1.73990070819854736 -4 59 54 55
-4 -1 -4.15387248992919922 59 37 37
-4.56703567504882812 -1 -3 59 27 28
-4.75735044479370117 -1 -2 59 26 27
-4.67358255386352539 -1 -1 59 23 26
-4.31962013244628906 -1 0 58 19 27
-4 -1 0.513158917427062988 58 29 33
-4.21334600448608398 0 -4 58 19 19
-4 0 -4.28819036483764648 58 25 25
-4.67741203308105469 0 -3 58 19 19
-4.87465667724609375 0 -2 58 17 17
-4.792816162109375 0 -1 57 15 15
-4.43631887435913086 0 0 56 12 15
-4 0 0.697916030883789062 56 18 19
-4.27264308929443359 1 -4 55 13 17
-4 1 -4.36231756210327148 54 16 20
-4.74845504760742188 1 -3 55 13 16
-4.95415449142456055 1 -2 55 12 14
-4.87572860717773438 1 -1 54 10 11
-4.51778984069824219 1 0 53 8 8
-4 1 0.824994862079620361 53 11 11
-4.30656003952026367 2 -4 50 10 21
-4 2 -4.39955043792724609 49 10 24
-4.79540681838989258 2 -3 50 9 21
-4.93680524826049805 2 -1 49 7 13
-4.57868194580078125 2 0 48 6 8
-4 2 0.919745385646820068 48 6 11
-4.33493232727050781 3 -4 43 8 28
-4 3 -4.42885255813598633 43 7 31
-4.83628225326538086 3 -3 43 7 28
-4.99246501922607422 3 -1 42 5 19
-4.63556385040283203 3 0 42 5 12
-4.00701189041137695 3 1 40 4 6
-4 2.87774991989135742 1 47 5 6
-4 3 1.007637619972229 40 4 8
-4.3796839714050293 4 -4 35 7 29
-4 4 -4.48079919815063477 34 6 32
-4.89125680923461914 4 -3 35 6 29
-4.70828962326049805 4 0 33 4 13
-4.08271265029907227 4 1 32 3 6
-4 4 1.09066128730773926 31 3 9
-4.47392797470092773 5 -4 24 6 21
-4 5 -4.59945535659790039 23 5 23
-4.99359893798828125 5 -3 24 5 21
-4.83255910873413086 5 0 22 3 9
-4.21500968933105469 5 1 21 3 5
-4 5 1.23989021778106689 21 2 7
-4.67914628982543945 6 -4 11 4 9
-4 6 -4.86723470687866211 11 3 10
-4.46852874755859375 6 1 9 2 2
-4 6 1.53851079940795898 8 1 2
-4.24480867385864258 7 -5 2 1 2
-4 6.2913670539855957 -5 11 3 10
-4 7 -5.23101949691772461 3 2 2
-4.8558955192565918 7 1 5 2 2
-4.00436496734619141 7 2 6 2 3
-4 6.98904895782470703 2 7 1 1
-4 7 2.00385475158691406 7 2 2
-4.54762172698974609 8 -5 19 17 17
-4 8 -5.51676464080810547 20 17 17
-4.30091142654418945 8 2 22 14 16
-4 8 2.26374959945678711 23 14 15
-4 8.88950824737548828 -5 19 15 16
-4 8.94877529144287109 -4 18 14 16
-4 8.96104812622070312 -3 18 13 16
-4 8.96463298797607422 -2 19 13 15
-4 8.96397590637207031 -1 19 13 14
-4 8.95849132537841797 0 20 13 14
-4 8.94055366516113281 1 21 14 14
-4 8.81113815307617188 2 23 14 15
-3.14747238159179688 -6 -2 38 19 31
-3 -6.23939323425292969 -2 28 9 21
-3 -6 -2.60615777969360352 38 11 24
-3.02917718887329102 -6 -1 38 20 34
-3 -6.04732942581176758 -1 28 10 23
-3 -6 -0.939514756202697754 37 13 29
-3.43672060966491699 -5 -3 47 24 34
-3 -5.81910610198974609 -3 38 11 24
-3 -5 -3.71651005744934082 46 15 27
-3.68413496017456055 -5 -2 46 25 36
-3.56457757949829102 -5 -1 46 27 39
-3.08212089538574219 -5 0 45 31 43
-3 -5.15257167816162109 0 36 15 35
-3 -5 0.0962598323822021484 44 20 39
-3.27760410308837891 -4 -4 52 34 40
-3 -4.61850786209106445 -4 46 15 27
-3 -4 -4.28047561645507812 52 24 33
-3.89590144157409668 -4 -3 52 33 39
-3.53691482543945312 -4 0 51 42 48
-3 -4 0.629683077335357666 50 27 42
-3.64801287651062012 -3 -4 57 47 49
-3 -3 -4.65346670150756836 56 34 38
-3.91814613342285156 -3 0 55 53 54
-3.0625617504119873 -3 1 54 43 52
-3 -3.16678047180175781 1 49 33 48
-3 -3 1.05071103572845459 53 46 51
-3.94369077682495117 -2 -4 59 54 55
-3 -2 -4.94857501983642578 58 49 49
-3.35648465156555176 -2 1 56 33 46
-3 -2 1.28768718242645264 55 49 52
-3.15327072143554688 -1 -5 59 37 37
-3 -1.75707745552062988 -5 58 49 49
-3 -1 -5.10999107360839844 58 44 45
-3.57838058471679688 -1 1 56 22 33
-3 -1 1.46364700794219971 56 34 39
-3.28021359443664551 0 -5 58 25 25
-3 0 -5.19891166687011719 56 29 29
-3.73650717735290527 0 1 55 14 19
-3 0 1.58497059345245361 54 20 23
-3.34396958351135254 1 -5 54 16 20
-3 1 -5.24008798599243164 53 18 21
-3.84601712226867676 1 1 52 8 9
-3 1 1.66445004940032959 51 11 11
-3.3679344654083252 2 -5 49 10 24
-3 2 -5.25130748748779297 48 11 22
-3.92878293991088867 2 1 47 5 6
-3 2 1.72148776054382324 46 6 8
-3.38472652435302734 3 -5 43 7 31
-3 3 -5.25728607177734375 41 7 27
-3 3 1.77941346168518066 40 4 10
-3.43183135986328125 4 -5 34 6 32
-3 4 -5.28497743606567383 33 5 29
-3 4 1.86721456050872803 31 2 12
-3.56042242050170898 5 -5 23 5 23
-3 5 -5.36976194381713867 22 4 22
-3.04370903968811035 5 2 19 2 2
-3 4.79314374923706055 2 29 2 4
-3 5 2.02618765830993652 19 2 3
-3.8557884693145752 6 -5 11 3 10
-3 6 -5.57139778137207031 10 2 8
-3.43750429153442383 6 2 7 1 1
-3 6 2.26933956146240234 6 1 1
-3 7 -5.91693115234375 4 2 3
-3 7 2.6253364086151123 7 2 2
-3.29718542098999023 8 -6 20 17 17
-3 7.27845096588134766 -6 4 2 3
-3 8 -6.15604877471923828 21 19 19
-3 8 2.88396930694580078 23 15 15
-3 8.76095199584960938 -6 20 17 18
-3 8.94675445556640625 -5 19 15 17
-3 8.96456241607666016 -4 19 14 17
-3 8.97020816802978516 -3 19 14 17
-3 8.97203254699707031 -2 19 13 16
-3 8.97165107727050781 -1 20 14 16
-3 8.96880626678466797 0 21 14 15
-3 8.96083736419677734 1 22 14 14
-3 8.93260955810546875 2 23 15 15
-2.25678420066833496 -7 -2 28 9 21
-2 -7.23548984527587891 -2 16 5 12
-2 -7 -2.66696739196777344 28 7 18
-2.06747221946716309 -7 -1 28 10 23
-2 -7.06190061569213867 -1 15 6 13
-2 -7 -0.912253379821777344 27 8 22
-2.84651589393615723 -6 -3 38 11 24
-2 -6.86733341217041016 -3 28 7 18
-2 -6 -3.87667155265808105 37 8 22
-2.27576828002929688 -6 0 36 15 35
-2 -6.2808995246887207 0 26 9 26
-2 -6 0.202999085187911987 36 11 34
-2.72572875022888184 -5 -4 46 15 27
-2 -5.85934925079345703 -4 37 8 22
-2 -5 -4.46099948883056641 45 11 26
-2 -5 0.835100233554840088 43 13 37
-2 -4 -4.92197084426879883 51 15 26
-2.50258111953735352 -4 1 49 33 48
-2 -4.69458389282226562 1 38 17 42
-2 -4 1.25619852542877197 48 22 47
-2.4616706371307373 -3 -5 56 34 38
-2 -3.79444122314453125 -5 51 15 26
-2 -3 -5.20863103866577148 54 27 35
-2 -3 1.55944991111755371 52 32 47
-2.9200890064239502 -2 -5 58 49 49
-2 -2 -5.41361427307128906 56 40 42
-2 -2 1.79941606521606445 54 46 50
-2 -1 -5.56024932861328125 57 56 57
-2 -1 1.97637176513671875 55 47 49
-2 0 -5.64780616760253906 55 38 38
-2.1815040111541748 0 2 53 14 25
-2 -0.797605514526367188 2 53 35 45
-2 0 2.06817722320556641 52 20 29
-2 1 -5.68227815628051758 52 23 25
-2.3259577751159668 1 2 50 8 12
-2 1 2.11986565589904785 49 11 14
-2 2 -5.68165397644042969 47 13 23
-2.42859196662902832 2 2 45 5 5
-2 2 2.15400195121765137 44 6 6
-2 3 -5.67463064193725586 41 7 27
-2.5397942066192627 3 2 38 3 4
-2 3 2.19048333168029785 37 3 4
-2 4 -5.69424009323120117 32 5 30
-2.72206807136535645 4 2 29 2 4
-2 4 2.25376605987548828 28 2 4
-2 5 -5.78122425079345703 20 3 21
-2 5 2.38405823707580566 18 1 3
-2 6 -5.99792337417602539 9 2 8
-2 6 2.64299750328063965 5 1 1
-2.80762052536010742 7 -6 4 2 3
-2 6.00593805313110352 -6 9 2 8
-2 7 -6.25994348526000977 6 3 4
-2.02455019950866699 7 3 9 3 4
-2 6.97470331192016602 3 3 0 0
-2 7 3.00723671913146973 10 3 4
-2 8 -6.4706263542175293 22 19 19
-2.68793725967407227 8 3 25 15 18
-2 8 3.19373631477355957 26 17 20
-2 8.90360164642333984 -6 21 17 19
-2 8.95876121520996094 -5 20 16 18
-2 8.96966743469238281 -4 20 15 18
-2 8.97352504730224609 -3 20 15 18
-2 8.97480392456054688 -2 20 15 18
-2 8.97451496124267578 -1 21 15 17
-2 8.97247600555419922 0 21 15 17
-2 8.96702003479003906 1 23 16 16
-2 8.95050525665283203 2 24 17 17
-2 8.80017852783203125 3 26 17 20
-1.69953858852386475 -7 -3 28 7 18
-1 -7.27074289321899414 -3 15 4 11
-1 -7 -3.30509853363037109 26 5 18
-1 -7.62364339828491211 -2 14 5 11
-1 -7.44796276092529297 -1 14 5 13
-1 -7 -0.364468425512313843 25 7 22
-1.72053229808807373 -6 -4 37 8 22
-1 -6.30899333953857422 -4 26 5 18
-1 -6 -4.19120121002197266 36 6 24
-1 -6.71139192581176758 0 23 7 24
-1 -6 0.513250350952148438 34 8 34
-1 -5 -4.72672557830810547 44 7 26
-1.47950839996337891 -5 1 38 17 42
-1 -5.23406028747558594 1 24 10 33
-1 -5 1.10226118564605713 34 12 41
-1.70792531967163086 -4 -5 51 15 26
-1 -4.40497922897338867 -5 44 7 26
-1 -4 -5.1297907829284668 49 12 31
-1 -4 1.47034871578216553 45 16 47
-1 -3 -5.39186954498291016 53 18 30
-1 -3 1.77622830867767334 51 23 46
-1 -2 -5.59899568557739258 55 28 33
-1.08405125141143799 -2 2 53 50 52
-1 -2.07534217834472656 2 44 30 49
-1 -2 2.01339912414550781 52 43 51
-1 -1 -5.74822854995727539 56 43 44
-1.89109706878662109 -1 2 53 35 45
-1 -1 2.13973069190979004 52 45 50
-1 0 -5.83661222457885742 54 47 47
-1 0 2.22014617919921875 51 27 35
-1 1 -5.86763858795166016 51 28 29
-1 1 2.26439642906188965 48 14 18
-1 2 -5.85838079452514648 46 15 22
-1 2 2.28944754600524902 43 7 7
-1 3 -5.84026479721069336 39 8 25
-1 3 2.31783723831176758 36 3 4
-1 4 -5.8519749641418457 31 5 27
-1 4 2.37745022773742676 27 2 4
-1 5 -5.93940258026123047 20 3 20
-1 5 2.51118731498718262 16 1 3
-1.98738765716552734 6 -6 9 2 8
-1 5.27692413330078125 -6 20 3 20
-1 6 -6.11944484710693359 6 1 4
-1 6 2.77796506881713867 4 0 0
-1 7 -6.3787999153137207 7 3 4
-1 6.62152481079101562 3 2 0 0
-1 7 3.10459280014038086 11 4 5
-1 8 -6.57767915725708008 23 21 21
-1 8 3.27542448043823242 27 20 22
-1 8.91956138610839844 -6 22 19 20
-1 8.96165370941162109 -5 21 18 20
-1 8.97105979919433594 -4 21 17 20
-1 8.97446727752685547 -3 21 17 20
-1 8.97559928894042969 -2 21 17 19
-1 8.97533130645751953 -1 22 17 19
-1 8.97349262237548828 0 23 18 19
-1 8.96861457824707031 1 24 19 19
-1 8.95429229736328125 2 26 20 20
-1 8.85125827789306641 3 27 20 22
0 -7.13241004943847656 -3 13 4 11
0 -7 -3.14820003509521484 25 5 20
0 -7.48538732528686523 -2 13 4 12
0 -7.30887460708618164 -1 12 5 12
0 -7 -0.562814176082611084 24 6 24
0 -6.14210987091064453 -4 25 5 20
0 -6 -4.08689260482788086 34 5 28
0 -6.5526275634765625 0 18 7 23
0 -6 0.397509336471557617 28 7 33
0 -5 -4.61214256286621094 42 6 30
0 -5.04860401153564453 1 17 9 31
0 -5 1.02117633819580078 26 10 39
0 -4.14448404312133789 -5 42 6 30
0 -4 -5.04587268829345703 47 9 34
0 -4 1.38668584823608398 37 12 45
0 -3 -5.30538749694824219 51 13 31
0 -3 1.69011592864990234 50 17 49
0 -2 -5.5115814208984375 54 21 30
-0.792248904705047607 -2 2 52 43 51
0 -2 1.92995035648345947 52 25 44
0 -1 -5.66138076782226562 54 34 36
0 -1.59214353561401367 2 48 33 50
0 -1 2.07399249076843262 51 48 50
0 0 -5.75079488754272461 53 51 51
0 0 2.15053844451904297 49 34 41
0 1 -5.78120946884155273 50 33 33
0 1 2.18796110153198242 46 18 23
0 2 -5.76768064498901367 45 17 21
0 2 2.20361876487731934 41 8 10
0 3 -5.74220848083496094 38 8 21
0 3 2.22235417366027832 34 4 4
0 4 -5.74735403060913086 29 4 22
0 4 2.27527832984924316 26 2 3
0 5 -5.83274412155151367 18 3 16
0 5 2.40685439109802246 15 1 2
0 5.752044677734375 -6 18 3 16
0 6 -6.04179096221923828 5 1 3
0 6 2.66977405548095703 2 0 0
0 7 -6.29197120666503906 9 4 5
0 6.97030067443847656 3 0 0 0
0 7 3.00780558586120605 13 6 7
0 8 -6.47194910049438477 25 23 23
0 8 3.15965938568115234 29 24 26
0 8.90471744537353516 -6 24 22 22
0 8.95917224884033203 -5 23 21 22
0 8.96993637084960938 -4 22 20 21
0 8.97373294830322266 -3 22 20 21
0 8.97498226165771484 -2 23 20 21
0 8.97467899322509766 -1 23 21 22
0 8.97262001037597656 0 24 22 22
0 8.96708106994628906 1 26 23 23
0 8.95000457763671875 2 27 24 24
0 8.77203559875488281 3 29 24 26
0.195461869239807129 -7 -3 25 5 20
0.722691535949707031 -7 -2 25 5 21
0.459471195936203003 -7 -1 24 6 24
0.181706652045249939 -6 -4 35 5 25
1 -6.37743425369262695 -3 23 5 23
1 -6 -3.36788773536682129 33 5 31
1 -6.78783607482910156 -2 21 5 23
1 -6.58938074111938477 -1 17 6 22
0.732016444206237793 -6 0 28 7 33
1 -6 -0.256379604339599609 26 6 32
1 -5.24702930450439453 -4 33 5 31
1 -5 -4.12762594223022461 40 5 37
1 -5.76485919952392578 0 19 7 31
0.055373072624206543 -5 1 26 10 39
1 -5 0.474100470542907715 27 7 39
0.129532292485237122 -4 -5 48 7 28
1 -4 -4.56428146362304688 46 6 36
1 -4.01790618896484375 1 15 9 38
1 -4 1.00655412673950195 25 11 44
0.866857647895812988 -3 -5 52 11 25
1 -3 -4.93322038650512695 50 8 31
1 -3 1.30406928062438965 38 14 48
1 -2.77364230155944824 -5 50 8 31
1 -2 -5.15794515609741211 52 16 32
1 -2 1.53802800178527832 50 20 49
1 -1 -5.30690670013427734 52 27 33
0.252835959196090698 -1 2 51 48 50
1 -1 1.70599770545959473 50 32 44
1 0 -5.39737272262573242 51 43 43
0.513125300407409668 0 2 49 34 41
1 0 1.80783402919769287 49 48 48
1 1 -5.42945718765258789 48 36 36
0.63078761100769043 1 2 46 18 23
1 1 1.85222864151000977 46 29 31
1 2 -5.41578912734985352 43 18 20
0.664205849170684814 2 2 41 8 10
1 2 1.86196637153625488 41 14 14
1 3 -5.3871150016784668 36 9 16
0.702018082141876221 3 2 34 4 4
1 3 1.8734281063079834 34 6 7
1 4 -5.38782167434692383 27 4 15
0.847735702991485596 4 2 26 2 3
1 4 1.93353557586669922 25 3 5
1 5 -5.4695887565612793 17 3 11
1 4.39723491668701172 2 24 2 2
1 5 2.07636260986328125 13 1 1
0.149421200156211853 6 -6 6 1 5
1 6 -5.68498325347900391 4 1 2
1 6 2.32610797882080078 0 0 0
1 6.98798847198486328 -6 4 1 2
1 7 -6.00286293029785156 11 6 6
0.0263946652412414551 7 3 13 6 7
1 7 2.63246726989746094 13 6 7
1 8 -6.16030502319335938 27 26 26
0.510601580142974854 8 3 29 24 26
1 8 2.80339837074279785 29 29 29
1 8.7693328857421875 -6 26 25 25
1 8.9479217529296875 -5 25 24 25
1 8.965240478515625 -4 24 24 24
1 8.97071456909179688 -3 24 24 24
1 8.9724578857421875 -2 25 24 24
1 8.97202777862548828 -1 25 25 25
1 8.96910858154296875 0 26 26 26
1 8.96082687377929688 1 27 27 27
1 8.92989635467529297 2 29 29 29
1.26771879196166992 -6 -3 33 5 31
1.56419634819030762 -6 -2 32 5 33
1.42543935775756836 -6 -1 26 6 32
1.1483311653137207 -5 -4 41 5 34
1.88045895099639893 -5 -3 41 5 34
2 -5.30152606964111328 -2 20 5 30
2 -5 -2.61298346519470215 32 5 39
2 -5.08809852600097656 -1 15 6 30
1.47785234451293945 -5 0 27 7 39
2 -5 -0.903774082660675049 22 6 38
1.6558682918548584 -4 -4 47 6 32
2 -4.77148056030273438 -3 32 5 39
2 -4 -3.53447151184082031 44 5 44
2 -4.0288548469543457 0 13 7 37
1.00947237014770508 -4 1 25 11 44
2 -4 0.0151192368939518929 23 8 43
2 -3.1987617015838623 -4 44 5 44
2 -3 -4.07101964950561523 48 7 42
1.44145667552947998 -3 1 38 14 48
2 -3 0.44545447826385498 36 10 47
1.25338089466094971 -2 -5 53 13 26
2 -2 -4.35577964782714844 50 11 34
1.78630435466766357 -2 1 50 20 49
2 -2 0.788887858390808105 49 14 48
1.49655783176422119 -1 -5 53 22 27
2 -1 -4.56809520721435547 51 19 29
2 -1.15280497074127197 1 37 18 48
2 -1 1.02550089359283447 48 27 48
1.64914536476135254 0 -5 52 37 37
2 0 -4.70118522644042969 50 32 34
2 0 1.12529706954956055 47 42 45
1.70740628242492676 1 -5 49 43 43
2 1 -4.75254249572753906 46 44 44
2 1 1.16541898250579834 44 31 35
1.6874239444732666 2 -5 44 22 25
2 2 -4.7366790771484375 41 23 23
2 2 1.16600894927978516 39 15 17
1.63878130912780762 3 -5 37 10 20
2 3 -4.69558286666870117 34 10 15
2 3 1.16320574283599854 32 7 7
1.63768398761749268 4 -5 28 5 20
2 4 -4.69414472579956055 26 5 13
2 4 1.206107497215271 23 3 3
1.77192997932434082 5 -5 17 3 15
2 5 -4.80770444869995117 15 3 9
1.13483929634094238 5 2 13 1 1
2 5 1.35673832893371582 12 2 2
2 5.65799379348754883 -5 15 3 9
2 6 -5.0712432861328125 2 0 1
1.56455457210540771 6 2 0 0 0
2 6 1.66834926605224609 0 0 0
1.00568962097167969 7 -6 9 5 6
2 7 -5.35350370407104492 12 7 7
2 6.88540554046630859 2 1 0 0
2 7 2.0313868522644043 15 9 10
1.30680680274963379 8 -6 26 25 25
2 8 -5.52946853637695312 28 24 24
2 8 2.17047500610351562 31 27 29
2 8.89450931549072266 -5 27 23 24
2 8.95048427581787109 -4 27 23 23
2 8.96216392517089844 -3 27 23 23
2 8.96550846099853516 -2 27 23 23
2 8.96468830108642578 -1 27 23 24
2 8.95889091491699219 0 28 24 24
2 8.93927574157714844 1 30 25 26
2 8.74986076354980469 2 31 27 29
2.12624502182006836 -5 -2 29 5 38
2.03727865219116211 -5 -1 22 6 38
2.27006244659423828 -4 -3 45 5 44
2.4813239574432373 -4 -2 42 6 44
2.39406442642211914 -4 -1 34 6 44
2.01040530204772949 -4 0 23 8 43
2.05744194984436035 -3 -4 49 7 38
2.5647122859954834 -3 -3 49 7 38
2.78322243690490723 -3 -2 48 7 41
2.69573736190795898 -3 -1 48 8 48
2.30629301071166992 -3 0 36 10 47
2.28849101066589355 -2 -4 51 10 31
2.80652785301208496 -2 -3 51 10 31
3 -2.12598443031311035 -2 34 7 46
3 -2 -2.13915014266967773 48 9 44
2.94252347946166992 -2 -1 50 11 39
3 -2 -1.64330124855041504 48 10 47
2.54401493072509766 -2 0 49 14 48
2.46257519721984863 -1 -4 51 17 26
2.99125385284423828 -1 -3 51 16 26
3 -1 -2.96122026443481445 49 15 35
3 -1.6880108118057251 -1 41 11 48
2.72048783302307129 -1 0 50 22 40
3 -1 -0.690571486949920654 48 17 42
2.02558398246765137 -1 1 48 27 48
2.57418251037597656 0 -4 50 29 31
3 -0.92605668306350708 -3 49 15 35
3 0 -3.19939804077148438 47 26 32
2.83095574378967285 0 0 48 35 40
3 0 -0.412676721811294556 47 28 37
2.12633752822875977 0 1 47 42 45
2.62018537521362305 1 -4 47 45 45
3 1 -3.28938913345336914 44 41 42
2.87591695785522461 1 0 45 39 40
3 1 -0.300740271806716919 44 43 43
2.16688871383666992 1 1 44 31 35
2.61051177978515625 2 -4 42 26 26
3 2 -3.27454638481140137 39 25 25
2.87154030799865723 2 0 40 19 19
3 2 -0.312643706798553467 39 23 23
2.16632747650146484 2 1 39 15 17
2.57852768898010254 3 -4 35 11 17
3 3 -3.21836376190185547 32 11 12
2.85583782196044922 3 0 33 8 9
3 3 -0.357219815254211426 32 10 10
2.16127514839172363 3 1 32 7 7
2.57870745658874512 4 -4 26 5 15
3 4 -3.22304630279541016 24 5 8
2.88293719291687012 4 0 24 4 6
3 4 -0.297962307929992676 23 5 6
2.20027303695678711 4 1 23 3 3
2.67472481727600098 5 -4 16 3 10
3 5 -3.40504598617553711 13 2 5
3 4.8887481689453125 0 22 4 4
2.34022688865661621 5 1 12 2 2
3 5 0.021312665194272995 11 2 2
2.08082437515258789 6 -5 3 0 1
2.91630983352661133 6 -4 3 0 2
3 6 -3.84763264656066895 0 0 0
2.62062883377075195 6 1 0 0 0
3 6 0.423688709735870361 0 0 0
2.39001202583312988 7 -5 11 6 7
3 6.26907682418823242 -4 0 0 0
3 7 -4.25678777694702148 13 9 9
2.93549108505249023 7 1 14 8 8
3 7 0.899237155914306641 15 10 10
2.03657054901123047 7 2 15 9 10
2.56579256057739258 8 -5 27 23 24
3 8 -4.45359897613525391 30 22 22
3 7.43504619598388672 1 16 11 12
2.19351053237915039 8 2 31 27 29
3 8 1.08469688892364502 32 23 27
3 8.84380340576171875 -4 29 21 21
3 8.92644786834716797 -3 29 21 21
3 8.93984508514404297 -2 29 21 21
3 8.936767578125 -1 30 21 22
3 8.91004276275634766 0 31 22 23
3 8.53619956970214844 1 32 23 27
3.02261567115783691 -2 -2 48 10 47
3.15546154975891113 -1 -2 49 15 37
3.09086179733276367 -1 -1 48 17 42
3.07841849327087402 0 -3 48 25 32
3.24040412902832031 0 -2 47 26 33
3.17389798164367676 0 -1 47 28 37
3.11418271064758301 1 -3 44 40 40
3.2764441967010498 1 -2 44 41 41
3.20845627784729004 1 -1 44 43 43
3.10894250869750977 2 -3 39 26 26
3.27222704887390137 2 -2 39 25 25
3.20463871955871582 2 -1 39 23 23
3.08731675148010254 3 -3 32 12 13
3.25320219993591309 3 -2 32 11 12
3.18878364562988281 3 -1 32 10 10
3.08994388580322266 4 -3 24 5 9
3.26016759872436523 4 -2 23 5 8
3.20119190216064453 4 -1 23 5 6
3.1643369197845459 5 -3 13 2 5
3.34025263786315918 5 -2 13 2 5
3.2879335880279541 5 -1 12 2 3
3.01076817512512207 5 0 11 2 2
3.34164595603942871 6 -3 0 0 0
3.5228426456451416 6 -2 0 0 0
3.47643208503723145 6 -1 0 0 0
3.20691585540771484 6 0 0 0 0
3.15875840187072754 7 -4 13 9 9
3.55553221702575684 7 -3 13 9 9
3.73683691024780273 7 -2 13 9 9
3.69107866287231445 7 -1 14 9 9
3.42413830757141113 7 0 15 10 10
3.27256155014038086 8 -4 29 21 21
3.66094470024108887 8 -3 29 21 21
3.83724141120910645 8 -2 29 21 21
3.78873634338378906 8 -1 30 21 22
3.52208399772644043 8 0 31 22 23
3.05721759796142578 8 1 32 23 27
3 2 1 0
3 1 3 0
3 5 2 0
3 4 5 0
3 3 6 4
3 0 3 4
3 8 5 4
3 7 8 4
3 6 10 9
3 6 9 4
3 4 9 7
3 10 11 9
3 13 8 7
3 12 13 7
3 7 9 12
3 9 14 12
3 11 15 14
3 9 11 14
3 18 17 16
3 17 13 12
3 17 12 16
3 16 12 19
3 12 14 19
3 14 20 19
3 15 22 21
3 15 21 14
3 14 21 20
3 22 23 21
3 26 25 24
3 25 18 16
3 25 16 24
3 24 16 27
3 16 19 27
3 19 28 27
3 19 20 28
3 20 29 28
3 20 21 29
3 21 30 29
3 23 31 30
3 21 23 30
3 33 26 24
3 32 33 24
3 24 27 32
3 27 34 32
3 27 28 34
3 28 35 34
3 28 29 35
3 29 36 35
3 29 30 36
3 30 37 36
3 31 39 38
3 31 38 30
3 30 38 37
3 39 40 38
3 33 32 41
3 32 34 42
3 41 32 42
3 34 35 43
3 42 34 43
3 35 36 44
3 43 35 44
3 36 37 45
3 44 36 45
3 37 38 46
3 45 37 46
3 38 40 46
3 49 48 47
3 48 51 50
3 47 48 50
3 51 52 50
3 55 54 53
3 54 49 47
3 54 47 53
3 53 47 56
3 47 50 56
3 50 57 56
3 52 58 57
3 50 52 57
3 60 55 53
3 59 60 53
3 53 56 59
3 56 61 59
3 56 57 61
3 57 62 61
3 58 64 63
3 58 63 57
3 57 63 62
3 64 65 63
3 68 67 66
3 67 60 59
3 67 59 66
3 66 59 69
3 59 61 69
3 61 70 69
3 61 62 70
3 62 71 70
3 62 63 71
3 63 72 71
3 65 73 72
3 63 65 72
3 75 68 66
3 74 75 66
3 66 69 74
3 69 76 74
3 69 70 76
3 70 77 76
3 70 71 77
3 71 78 77
3 71 72 78
3 72 79 78
3 73 80 79
3 72 73 79
3 82 75 74
3 81 82 74
3 74 76 81
3 76 83 81
3 76 77 83
3 77 84 83
3 77 78 84
3 78 85 84
3 78 79 85
3 79 86 85
3 80 87 86
3 79 80 86
3 89 82 81
3 88 89 81
3 81 83 88
3 83 90 88
3 2 84 1
3 2 90 84
3 90 83 84
3 1 91 3
3 1 84 91
3 84 85 91
3 85 86 91
3 86 92 91
3 87 93 92
3 86 87 92
3 95 89 88
3 94 95 88
3 88 90 94
3 90 96 94
3 90 5 96
3 2 5 90
3 97 3 91
3 6 3 97
3 91 92 97
3 92 98 97
3 93 100 99
3 93 99 92
3 92 99 98
3 100 101 99
3 103 95 94
3 102 103 94
3 94 96 102
3 96 104 102
3 96 8 104
3 5 8 96
3 97 10 6
3 10 105 11
3 10 97 105
3 97 98 105
3 98 99 105
3 99 106 105
3 101 107 106
3 99 101 106
3 109 103 102
3 108 109 102
3 102 104 108
3 104 110 108
3 104 13 110
3 8 13 104
3 111 11 105
3 15 11 111
3 105 106 111
3 106 112 111
3 107 113 112
3 106 107 112
3 115 109 108
3 114 115 108
3 18 110 17
3 18 114 110
3 114 108 110
3 110 13 17
3 111 22 15
3 22 116 23
3 22 111 116
3 111 112 116
3 113 117 116
3 112 113 116
3 120 119 118
3 114 25 26
3 115 114 26
3 115 26 118
3 115 118 119
3 114 18 25
3 121 23 116
3 31 23 121
3 117 123 122
3 117 122 116
3 116 122 121
3 123 124 122
3 126 120 118
3 125 126 118
3 118 33 125
3 26 33 118
3 121 39 31
3 39 127 40
3 39 121 127
3 121 122 127
3 124 128 127
3 122 124 127
3 126 125 129
3 125 33 41
3 125 41 129
3 129 41 130
3 130 41 131
3 41 42 131
3 131 42 132
3 42 43 132
3 132 43 133
3 43 44 133
3 133 44 134
3 44 45 134
3 134 45 135
3 45 46 135
3 40 127 136
3 40 136 46
3 46 136 135
3 127 128 136
3 139 138 137
3 138 141 140
3 137 138 140
3 141 142 140
3 145 144 143
3 144 139 137
3 144 137 143
3 143 137 146
3 137 140 146
3 140 147 146
3 142 149 148
3 142 148 140
3 140 148 147
3 149 150 148
3 153 152 151
3 152 145 143
3 152 143 151
3 151 143 154
3 49 146 48
3 49 154 146
3 154 143 146
3 147 48 146
3 51 48 147
3 51 155 52
3 51 147 155
3 147 148 155
3 150 156 155
3 148 150 155
3 158 153 151
3 157 158 151
3 55 154 54
3 55 157 154
3 157 151 154
3 154 49 54
3 159 52 155
3 58 52 159
3 156 161 160
3 156 160 155
3 155 160 159
3 161 162 160
3 164 158 157
3 163 164 157
3 157 60 163
3 55 60 157
3 159 64 58
3 64 165 65
3 64 159 165
3 159 160 165
3 162 166 165
3 160 162 165
3 169 168 167
3 163 67 68
3 164 163 68
3 164 68 167
3 164 167 168
3 163 60 67
3 170 65 165
3 73 65 170
3 166 171 170
3 165 166 170
3 173 169 167
3 172 173 167
3 167 75 172
3 68 75 167
3 174 73 170
3 80 73 174
3 171 175 174
3 170 171 174
3 177 173 172
3 176 177 172
3 172 82 176
3 75 82 172
3 178 80 174
3 87 80 178
3 175 179 178
3 174 175 178
3 181 177 176
3 180 181 176
3 176 89 180
3 82 89 176
3 182 87 178
3 93 87 182
3 179 183 182
3 178 179 182
3 185 181 180
3 184 185 180
3 180 95 184
3 89 95 180
3 182 100 93
3 100 182 183
3 100 183 101
3 101 183 186
3 188 185 184
3 187 188 184
3 184 103 187
3 95 103 184
3 186 189 101
3 189 107 101
3 191 188 187
3 190 191 187
3 187 109 190
3 103 109 187
3 192 189 193
3 192 113 189
3 113 107 189
3 193 194 192
3 196 191 190
3 195 196 190
3 190 115 195
3 109 115 190
3 197 113 192
3 117 113 197
3 194 198 197
3 192 194 197
3 195 119 120
3 195 120 196
3 196 120 199
3 195 115 119
3 197 123 117
3 123 197 198
3 123 198 124
3 124 198 200
3 203 202 201
3 202 126 201
3 202 199 126
3 199 120 126
3 200 204 124
3 204 128 124
3 203 201 205
3 201 126 129
3 201 129 205
3 205 129 206
3 206 129 207
3 129 130 207
3 207 130 208
3 130 131 208
3 208 131 209
3 131 132 209
3 209 132 210
3 132 133 210
3 210 133 211
3 133 134 211
3 211 134 212
3 134 135 212
3 212 135 213
3 135 136 213
3 213 136 128
3 204 213 128
3 216 215 214
3 215 218 217
3 214 215 217
3 218 219 217
3 222 221 220
3 214 138 139
3 216 214 139
3 216 139 220
3 216 220 221
3 217 138 214
3 141 138 217
3 141 223 142
3 217 223 141
3 217 224 223
3 217 219 224
3 224 225 223
3 228 227 226
3 220 144 145
3 222 220 145
3 222 145 226
3 222 226 227
3 220 139 144
3 223 149 142
3 149 223 225
3 149 225 150
3 150 225 229
3 226 152 153
3 226 153 228
3 228 153 230
3 226 145 152
3 231 229 232
3 231 156 229
3 156 150 229
3 232 233 231
3 236 235 234
3 235 158 234
3 235 230 158
3 230 153 158
3 231 161 156
3 161 231 233
3 161 233 162
3 162 233 237
3 239 236 234
3 238 239 234
3 234 164 238
3 158 164 234
3 237 240 162
3 240 166 162
3 238 168 169
3 238 169 239
3 239 169 241
3 238 164 168
3 240 242 166
3 242 171 166
3 241 169 243
3 243 169 173
3 244 242 245
3 244 175 242
3 175 171 242
3 245 246 244
3 243 173 247
3 247 173 177
3 248 175 244
3 179 175 248
3 246 249 248
3 244 246 248
3 247 177 250
3 250 177 181
3 251 179 248
3 183 179 251
3 249 252 251
3 248 249 251
3 250 181 253
3 253 181 185
3 254 183 251
3 186 183 254
3 252 255 254
3 251 252 254
3 253 185 256
3 256 185 188
3 257 186 254
3 189 186 257
3 255 258 257
3 254 255 257
3 256 188 259
3 259 188 191
3 257 193 189
3 193 257 258
3 193 258 194
3 194 258 260
3 259 191 261
3 261 191 196
3 260 262 194
3 262 198 194
3 265 264 263
3 264 199 263
3 264 261 199
3 261 196 199
3 266 262 267
3 266 200 262
3 200 198 262
3 267 268 266
3 263 202 203
3 263 203 265
3 265 203 269
3 263 199 202
3 270 200 266
3 204 200 270
3 268 271 270
3 266 268 270
3 269 203 205
3 272 269 205
3 272 205 273
3 205 206 273
3 273 206 274
3 206 207 274
3 274 207 275
3 207 208 275
3 275 208 276
3 208 209 276
3 276 209 277
3 209 210 277
3 277 210 278
3 210 211 278
3 278 211 279
3 211 212 279
3 279 212 280
3 212 213 280
3 204 270 281
3 204 281 213
3 213 281 280
3 270 271 281
3 284 283 282
3 216 282 283
3 216 283 215
3 215 283 285
3 285 286 215
3 215 286 218
3 218 286 287
3 219 218 287
3 290 289 288
3 282 221 222
3 284 282 222
3 284 222 288
3 284 288 289
3 282 216 221
3 287 224 219
3 291 224 287
3 224 291 292
3 225 224 292
3 288 227 228
3 288 228 290
3 290 228 293
3 288 222 227
3 294 292 295
3 294 229 292
3 229 225 292
3 295 296 294
3 299 298 297
3 298 230 297
3 298 293 230
3 293 228 230
3 294 232 229
3 232 294 296
3 232 296 233
3 233 296 300
3 297 235 236
3 297 236 299
3 299 236 301
3 297 230 235
3 300 302 233
3 302 237 233
3 301 236 303
3 303 236 239
3 304 302 305
3 304 240 302
3 240 237 302
3 305 306 304
3 303 239 307
3 307 239 241
3 308 240 304
3 242 240 308
3 306 309 308
3 304 306 308
3 307 241 310
3 310 241 243
3 308 245 242
3 245 308 309
3 245 309 246
3 246 309 311
3 310 243 312
3 312 243 247
3 311 313 246
3 313 249 246
3 312 247 314
3 314 247 250
3 313 315 249
3 315 252 249
3 314 250 316
3 316 250 253
3 315 317 252
3 317 255 252
3 316 253 318
3 318 253 256
3 317 319 255
3 319 258 255
3 318 256 320
3 320 256 259
3 319 321 258
3 321 260 258
3 324 323 322
3 323 261 322
3 323 320 261
3 320 259 261
3 321 325 260
3 325 262 260
3 322 264 265
3 322 265 324
3 324 265 326
3 322 261 264
3 325 267 262
3 327 267 325
3 267 327 328
3 268 267 328
3 326 265 329
3 329 265 269
3 328 330 268
3 330 271 268
3 329 269 272
3 331 329 272
3 331 272 332
3 272 273 332
3 332 273 333
3 273 274 333
3 333 274 334
3 274 275 334
3 334 275 335
3 275 276 335
3 335 276 336
3 276 277 336
3 336 277 337
3 277 278 337
3 337 278 338
3 278 279 338
3 338 279 339
3 279 280 339
3 339 280 340
3 280 281 340
3 340 281 271
3 330 340 271
3 284 342 341
3 283 284 341
3 341 343 283
3 283 343 285
3 343 344 285
3 285 344 286
3 286 344 345
3 287 286 345
3 290 347 346
3 289 290 346
3 346 284 289
3 342 284 346
3 345 291 287
3 348 291 345
3 291 348 349
3 292 291 349
3 347 290 350
3 350 290 293
3 349 295 292
3 351 295 349
3 295 351 352
3 296 295 352
3 299 354 353
3 298 299 353
3 353 293 298
3 350 293 353
3 352 355 296
3 355 300 296
3 354 299 356
3 356 299 301
3 355 357 300
3 357 302 300
3 356 301 358
3 358 301 303
3 305 360 359
3 305 302 360
3 302 357 360
3 305 359 306
3 358 303 361
3 361 303 307
3 360 362 359
3 359 362 363
3 359 363 306
3 306 363 309
3 361 307 364
3 364 307 310
3 363 365 309
3 365 311 309
3 364 310 366
3 366 310 312
3 365 367 311
3 367 313 311
3 366 312 368
3 368 312 314
3 367 369 313
3 369 315 313
3 368 314 370
3 370 314 316
3 369 371 315
3 371 317 315
3 370 316 372
3 372 316 318
3 371 373 317
3 373 319 317
3 372 318 374
3 374 318 320
3 373 375 319
3 375 321 319
3 324 377 376
3 323 324 376
3 376 320 323
3 374 320 376
3 375 378 321
3 378 325 321
3 377 324 379
3 379 324 326
3 378 327 325
3 380 327 378
3 327 380 381
3 328 327 381
3 379 326 382
3 382 326 329
3 381 383 328
3 383 330 328
3 382 329 331
3 384 382 331
3 384 331 385
3 331 332 385
3 385 332 386
3 332 333 386
3 386 333 387
3 333 334 387
3 387 334 388
3 334 335 388
3 388 335 389
3 335 336 389
3 389 336 390
3 336 337 390
3 390 337 391
3 337 338 391
3 391 338 392
3 338 339 392
3 392 339 393
3 339 340 393
3 393 340 330
3 383 393 330
3 341 342 394
3 343 341 394
3 395 343 394
3 344 343 395
3 396 344 395
3 344 396 345
3 346 347 397
3 397 399 398
3 346 397 398
3 346 398 394
3 346 394 342
3 394 400 395
3 398 400 394
3 395 401 396
3 400 401 395
3 403 402 348
3 401 403 348
3 401 348 345
3 401 345 396
3 348 402 349
3 404 397 347
3 404 347 405
3 405 347 350
3 397 404 399
3 403 406 402
3 408 407 351
3 406 408 351
3 406 351 349
3 406 349 402
3 351 407 352
3 353 354 409
3 409 350 353
3 409 410 350
3 410 405 350
3 408 411 407
3 407 411 412
3 407 412 352
3 352 412 355
3 413 409 354
3 356 413 354
3 410 413 414
3 409 413 410
3 412 415 355
3 415 357 355
3 416 413 356
3 416 356 417
3 417 356 358
3 413 416 414
3 415 418 357
3 418 360 357
3 417 358 419
3 419 358 361
3 362 421 420
3 362 360 421
3 360 418 421
3 362 420 363
3 419 361 422
3 422 361 364
3 424 420 421
3 423 420 424
3 420 423 365
3 363 420 365
3 422 364 425
3 425 364 366
3 427 423 424
3 426 423 427
3 423 426 367
3 365 423 367
3 425 366 428
3 428 366 368
3 430 426 427
3 429 426 430
3 426 429 369
3 367 426 369
3 428 368 431
3 431 368 370
3 433 429 430
3 432 429 433
3 429 432 371
3 369 429 371
3 431 370 434
3 434 370 372
3 436 432 433
3 435 432 436
3 432 435 373
3 371 432 373
3 434 372 437
3 437 372 374
3 436 438 435
3 435 438 439
3 435 439 373
3 373 439 375
3 376 377 440
3 440 374 376
3 440 441 374
3 441 437 374
3 439 442 375
3 442 378 375
3 443 440 377
3 443 377 444
3 444 377 379
3 440 443 441
3 380 446 445
3 380 378 446
3 378 442 446
3 380 445 381
3 444 379 447
3 447 379 382
3 449 445 446
3 448 445 449
3 445 448 383
3 381 445 383
3 447 382 384
3 450 447 384
3 450 384 451
3 384 385 451
3 451 385 452
3 385 386 452
3 452 386 453
3 386 387 453
3 453 387 454
3 387 388 454
3 454 388 455
3 388 389 455
3 455 389 456
3 389 390 456
3 456 390 457
3 390 391 457
3 457 391 458
3 391 392 458
3 448 449 458
3 448 458 393
3 393 458 392
3 448 393 383
3 398 399 459
3 400 398 459
3 460 400 459
3 401 400 460
3 461 401 460
3 401 461 403
3 404 405 462
3 399 404 462
3 399 462 459
3 459 462 463
3 464 463 465
3 464 460 463
3 460 459 463
3 460 466 461
3 464 466 460
3 468 467 406
3 466 468 406
3 466 406 403
3 466 403 461
3 406 467 408
3 469 462 405
3 410 469 405
3 470 469 471
3 470 463 469
3 463 462 469
3 463 470 465
3 468 472 467
3 474 473 411
3 472 474 411
3 472 411 408
3 472 408 467
3 411 473 412
3 475 469 410
3 475 410 476
3 476 410 414
3 469 475 471
3 478 473 474
3 477 473 478
3 473 477 415
3 412 473 415
3 416 417 479
3 479 414 416
3 479 480 414
3 480 476 414
3 482 477 478
3 481 477 482
3 477 481 418
3 415 477 418
3 483 479 417
3 419 483 417
3 480 483 484
3 479 483 480
3 482 485 481
3 481 485 486
3 481 486 418
3 418 486 421
3 487 483 419
3 422 487 419
3 484 487 488
3 483 487 484
3 486 489 421
3 489 424 421
3 490 487 422
3 425 490 422
3 488 490 491
3 487 490 488
3 489 492 424
3 492 427 424
3 493 490 425
3 428 493 425
3 491 493 494
3 490 493 491
3 492 495 427
3 495 430 427
3 496 493 428
3 431 496 428
3 494 496 497
3 493 496 494
3 495 498 430
3 498 433 430
3 499 496 431
3 434 499 431
3 497 499 500
3 496 499 497
3 498 501 433
3 501 436 433
3 502 499 434
3 437 502 434
3 500 502 503
3 499 502 500
3 438 505 504
3 438 436 505
3 436 501 505
3 438 504 439
3 506 502 437
3 506 437 507
3 507 437 441
3 502 506 503
3 509 504 505
3 508 504 509
3 504 508 442
3 439 504 442
3 443 444 510
3 510 441 443
3 510 511 441
3 511 507 441
3 509 512 508
3 508 512 513
3 508 513 442
3 442 513 446
3 514 510 444
3 447 514 444
3 511 514 515
3 510 514 511
3 513 516 446
3 516 449 446
3 514 447 450
3 515 514 450
3 515 450 517
3 517 450 451
3 517 451 518
3 451 452 518
3 518 452 519
3 452 453 519
3 519 453 520
3 453 454 520
3 520 454 521
3 454 455 521
3 521 455 522
3 455 456 522
3 522 456 523
3 456 457 523
3 523 457 524
3 457 458 524
3 524 458 449
3 516 524 449
3 464 465 525
3 466 464 525
3 526 466 525
3 466 526 468
3 470 471 527
3 465 470 527
3 465 527 525
3 525 527 528
3 525 528 526
3 526 528 529
3 472 468 526
3 472 526 530
3 530 526 529
3 472 530 474
3 475 476 531
3 471 475 531
3 471 531 527
3 527 531 532
3 527 532 528
3 528 532 533
3 528 533 529
3 529 533 534
3 529 534 530
3 530 534 535
3 530 535 478
3 474 530 478
3 536 531 476
3 480 536 476
3 531 536 532
3 532 536 537
3 538 537 539
3 538 533 537
3 533 532 537
3 541 533 538
3 541 540 533
3 540 534 533
3 534 540 535
3 535 540 542
3 535 542 482
3 478 535 482
3 543 536 480
3 484 543 480
3 536 543 537
3 537 543 544
3 539 544 545
3 537 544 539
3 541 546 540
3 548 540 546
3 548 547 540
3 547 542 540
3 485 482 542
3 485 542 549
3 549 542 547
3 485 549 486
3 550 543 484
3 488 550 484
3 551 550 552
3 551 544 550
3 544 543 550
3 544 551 545
3 554 547 548
3 553 547 554
3 547 553 549
3 549 553 555
3 549 555 489
3 486 549 489
3 556 550 488
3 491 556 488
3 552 556 557
3 550 556 552
3 559 553 554
3 558 553 559
3 553 558 555
3 555 558 560
3 555 560 492
3 489 555 492
3 561 556 491
3 494 561 491
3 557 561 562
3 556 561 557
3 564 558 559
3 563 558 564
3 558 563 560
3 560 563 565
3 560 565 495
3 492 560 495
3 566 561 494
3 497 566 494
3 562 566 567
3 561 566 562
3 569 563 564
3 568 563 569
3 563 568 565
3 565 568 570
3 565 570 498
3 495 565 498
3 571 566 497
3 500 571 497
3 567 571 572
3 566 571 567
3 574 568 569
3 573 568 574
3 568 573 570
3 570 573 575
3 570 575 501
3 498 570 501
3 576 571 500
3 503 576 500
3 572 576 577
3 571 576 572
3 574 578 573
3 580 573 578
3 580 579 573
3 579 575 573
3 575 579 505
3 501 575 505
3 506 507 581
3 503 506 581
3 503 581 576
3 576 581 582
3 577 582 583
3 576 582 577
3 585 579 580
3 584 579 585
3 579 584 509
3 505 579 509
3 586 581 507
3 511 586 507
3 587 586 588
3 587 582 586
3 582 581 586
3 582 587 583
3 590 584 585
3 589 584 590
3 512 509 584
3 512 584 591
3 591 584 589
3 512 591 513
3 592 586 511
3 515 592 511
3 588 592 593
3 586 592 588
3 590 594 589
3 596 589 594
3 596 595 589
3 595 591 589
3 591 595 516
3 513 591 516
3 592 515 517
3 593 592 517
3 593 517 597
3 597 517 518
3 597 518 598
3 518 519 598
3 598 519 599
3 519 520 599
3 599 520 600
3 520 521 600
3 600 521 601
3 521 522 601
3 601 522 602
3 522 523 602
3 595 596 602
3 595 602 524
3 524 602 523
3 595 524 516
3 538 539 603
3 538 603 541
3 604 603 539
3 545 604 539
3 546 541 603
3 546 603 605
3 605 603 604
3 546 605 548
3 551 552 606
3 545 551 606
3 545 606 604
3 604 606 607
3 604 607 605
3 605 607 608
3 605 608 554
3 548 605 554
3 609 606 552
3 557 609 552
3 606 609 607
3 607 609 610
3 607 610 608
3 608 610 611
3 608 611 559
3 554 608 559
3 612 609 557
3 562 612 557
3 609 612 610
3 610 612 613
3 610 613 611
3 611 613 614
3 611 614 564
3 559 611 564
3 615 612 562
3 567 615 562
3 612 615 613
3 613 615 616
3 613 616 614
3 614 616 617
3 614 617 569
3 564 614 569
3 618 615 567
3 572 618 567
3 615 618 616
3 616 618 619
3 616 619 617
3 617 619 620
3 617 620 574
3 569 617 574
3 621 618 572
3 577 621 572
3 618 621 619
3 619 621 622
3 619 622 620
3 620 622 623
3 578 574 620
3 578 620 624
3 624 620 623
3 578 624 580
3 625 621 577
3 583 625 577
3 621 625 622
3 622 625 626
3 622 626 623
3 623 626 627
3 623 627 624
3 624 627 628
3 624 628 585
3 580 624 585
3 587 588 629
3 583 587 629
3 583 629 625
3 625 629 630
3 625 630 626
3 626 630 631
3 626 631 627
3 627 631 632
3 627 632 628
3 628 632 633
3 628 633 590
3 585 628 590
3 634 629 588
3 593 634 588
3 629 634 630
3 630 634 635
3 630 635 631
3 631 635 636
3 631 636 632
3 632 636 637
3 632 637 633
3 633 637 638
3 594 590 633
3 594 633 639
3 639 633 638
3 594 639 596
3 634 593 597
3 635 634 597
3 598 635 597
3 636 635 598
3 599 636 598
3 637 636 599
3 600 637 599
3 638 637 600
3 601 638 600
3 639 638 601
3 602 639 601
3 639 602 596
