ply
format ascii 1.0
element vertex 380
property float x
property float y
property float z
property uchar red
property uchar green
property uchar blue
element face 752
property list uchar int vertex_indices
end_header
-4.00136423110961914 -3 0 72 69 68
-4 -3.0025641918182373 0 59 55 52
-4 -3 -0.0442701764404773712 62 56 55
-4 -3 0.00524361385032534599 59 55 54
-4.29729557037353516 -2 -1 77 72 72
-4 -2.90772151947021484 -1 62 56 55
-4 -2 -1.92548751831054688 69 63 63
-4.32865810394287109 -2 0 74 66 65
-4.06973934173583984 -2 1 71 62 58
-4 -2.21009325981140137 1 56 56 56
-4 -2 1.12493467330932617 58 56 55
-4.11167526245117188 -1 -2 85 76 75
-4 -1.82292032241821289 -2 69 63 63
-4 -1 -2.17862033843994141 79 77 77
-4.43553495407104492 -1 -1 80 70 69
-4.46778202056884766 -1 0 77 65 63
-4.20717382431030273 -1 1 75 62 56
-4 -1 1.37147378921508789 61 56 54
-4.06441783905029297 0 -2 90 73 73
-4 0 -2.10230207443237305 83 79 78
-4.39066600799560547 0 -1 85 69 67
-4.42401123046875 0 0 82 65 61
-4.16385173797607422 0 1 79 64 55
-4 0 1.29298484325408936 67 58 54
-4 0.305762916803359985 -2 78 72 72
-4.17844390869140625 1 -1 91 70 66
-4 1 -1.53606998920440674 84 72 72
-4.21381092071533203 1 0 88 68 60
-4 0.785782754421234131 1 67 58 54
-4 1 0.820058465003967285 76 64 60
-4 1.517464280128479 -1 80 68 66
-4 1.62198889255523682 0 76 64 60
-4.14336872100830078 7 -1 86 80 77
-4 6.85851478576660156 -1 90 73 73
-4 7 -1.35727536678314209 84 83 82
-4.24785947799682617 7 0 82 73 70
-4 6.7549138069152832 0 86 70 67
-4.05438137054443359 7 1 78 66 64
-4 6.94297075271606445 1 81 66 60
-4 7 1.10881125926971436 74 62 62
-4.21893405914306641 8 -1 84 83 80
-4 8 -1.62218868732452393 81 79 77
-4.28534555435180664 8 0 81 77 74
-4.06368494033813477 8 1 77 70 67
-4 8 1.12216401100158691 70 66 65
-4 8.722869873046875 -1 78 78 77
-4 8.77238273620605469 0 74 73 72
-4 8.44364452362060547 1 70 66 65
-3.18303275108337402 -4 -1 63 56 53
-3 -4.17304706573486328 -1 54 45 39
-3 -4 -1.39631974697113037 56 44 40
-3.22766804695129395 -4 0 59 55 52
-3 -4.21524810791015625 0 50 44 38
-3 -4 0.614055156707763672 47 41 37
-3.47735500335693359 -3 -2 67 59 57
-3 -3.62716841697692871 -2 56 44 40
-3 -3 -2.53570103645324707 62 48 46
-3.95466375350952148 -3 -1 62 56 55
-3.61368846893310547 -3 1 56 56 56
-3 -3.80700516700744629 1 45 42 38
-3 -3 1.76949036121368408 44 41 39
-3.06935548782348633 -2 -3 75 69 68
-3 -2.14624524116516113 -3 62 48 46
-3 -2 -3.05226874351501465 71 58 58
-3.96411609649658203 -2 -2 69 63 63
-3.29287815093994141 -2 2 57 53 49
-3 -2.61852455139160156 2 43 43 42
-3 -2 2.23744058609008789 45 44 44
-3.2626347541809082 -1 -3 79 77 77
-3 -1 -3.19764518737792969 74 67 66
-3.49225425720214844 -1 2 61 54 48
-3 -1 2.3991694450378418 48 46 44
-3.19278383255004883 0 -3 83 79 78
-3 0 -3.14497756958007812 79 77 77
-3.43033266067504883 0 2 66 57 48
-3 0 2.34977197647094727 54 49 44
-3 0.624547302722930908 -3 72 69 69
-3.77678442001342773 1 -2 84 72 72
-3 1 -2.86247992515563965 79 76 76
-3.93143939971923828 1 1 74 62 53
-3.13144040107727051 1 2 72 63 48
-3 1 2.10729336738586426 61 55 45
-3.26233386993408203 2 -2 91 74 71
-3 2 -2.28745388984680176 86 77 76
-3.74328494071960449 2 -1 87 71 66
-3.79922175407409668 2 0 83 69 60
-3.4289095401763916 2 1 81 68 54
-3 1.27788722515106201 2 61 55 45
-3 2 1.53813135623931885 70 62 52
-3 2.42688894271850586 -2 81 72 70
-3.10158133506774902 3 -1 93 75 66
-3 3 -1.20392501354217529 88 76 71
-3.16585803031921387 3 0 90 74 60
-3 2.70466732978820801 1 70 62 52
-3 3 0.452414989471435547 81 71 60
-3 3.17993736267089844 -1 84 73 65
-3 3.29530453681945801 0 81 71 60
-3.59718060493469238 7 -2 84 83 82
-3 6.62424278259277344 -2 87 78 77
-3 7 -2.56111264228820801 80 77 75
-3 6.23957252502441406 -1 85 74 71
-3 6.13419485092163086 0 82 70 65
-3 6.31290197372436523 1 77 66 59
-3.32645988464355469 7 2 67 56 55
-3 6.77475786209106445 2 70 61 53
-3 7 2.26887416839599609 62 55 53
-3.78783583641052246 8 -2 81 79 77
-3 8 -2.80778598785400391 76 72 65
-3.30891609191894531 8 2 65 58 58
-3 8 2.25040650367736816 58 54 54
-3 8.85468482971191406 -2 74 70 67
-3 8.90584659576416016 -1 71 69 67
-3 8.91213703155517578 0 68 67 67
-3 8.89128589630126953 1 63 62 62
-3 8.71920490264892578 2 58 54 54
-2.50426650047302246 -4 -2 56 44 40
-2 -4.26998519897460938 -2 48 36 30
-2 -4 -2.32069516181945801 52 38 33
-2 -4.71135854721069336 -1 43 34 28
-2 -4.75545930862426758 0 39 34 27
-2.74368500709533691 -4 1 45 42 38
-2 -4.39770603179931641 1 37 34 27
-2 -4 1.52780437469482422 34 31 25
-2.28751349449157715 -3 -3 62 48 46
-2 -3.21448564529418945 -3 52 38 33
-2 -3 -3.12304258346557617 59 44 40
-2.68144726753234863 -3 2 43 43 42
-2 -3.50794553756713867 2 33 32 28
-2 -3 2.31289243698120117 32 31 28
-2 -2 -3.47888708114624023 61 46 44
-2 -2 2.70260024070739746 34 33 31
-2 -1 -3.62814545631408691 64 52 51
-2 -1 2.87022686004638672 37 37 37
-2 0 -3.57385897636413574 69 62 61
-2 0 2.81802225112915039 43 41 39
-2.78655242919921875 1 -3 79 76 76
-2 1 -3.33654546737670898 76 73 73
-2 1 2.57171058654785156 51 48 42
-2 1.86835587024688721 -3 69 66 66
-2 2 -2.91889452934265137 77 74 73
-2.35723328590393066 2 2 68 63 47
-2 2 2.16762518882751465 59 55 44
-2.31583428382873535 3 -2 88 76 71
-2 3 -2.1954350471496582 84 77 75
-2.65013837814331055 3 1 78 70 54
-2 2.35116481781005859 2 59 55 44
-2 3 1.46911835670471191 68 64 52
-2 3.30408215522766113 -2 79 73 69
-2.03830718994140625 4 -1 89 77 67
-2 4 -1.04216122627258301 85 76 71
-2.17722916603088379 4 0 86 75 61
-2 3.63426566123962402 1 68 64 52
-2 4 0.283842355012893677 78 71 60
-2 4.07327842712402344 -1 81 74 65
-2 4.34361648559570312 0 78 71 60
-2.32834768295288086 6 -1 85 74 71
-2 5.74021816253662109 -1 83 75 67
-2 6 -1.29145026206970215 81 76 75
-2.6233680248260498 6 0 82 70 65
-2 5.51201200485229492 0 79 72 62
-2.09217119216918945 6 1 77 66 59
-2 5.94303321838378906 1 75 70 56
-2 6 1.06837308406829834 70 64 57
-2.1526036262512207 7 -3 80 77 75
-2 6.947601318359375 -3 82 81 81
-2 7 -3.05334329605102539 74 67 61
-2 6.28588294982910156 -2 81 76 75
-2 6.43203258514404297 2 64 58 50
-2 7 2.72873806953430176 55 52 50
-2.6687159538269043 8 -3 76 72 65
-2 8 -3.25300312042236328 71 65 53
-2 8 2.71323871612548828 50 50 50
-2 8.73856449127197266 -3 69 62 55
-2 8.90570926666259766 -2 67 61 57
-2 8.92906856536865234 -1 64 59 58
-2 8.93262577056884766 0 61 57 57
-2 8.92235279083251953 1 56 55 54
-2 8.87062740325927734 2 50 50 50
-1 -4.40993261337280273 -2 38 29 22
-1 -4 -2.48767995834350586 42 30 25
-1 -4.85623979568481445 -1 33 26 20
-1 -4.90110492706298828 0 29 25 19
-1 -4.5390472412109375 1 27 25 19
-1 -4 1.71685183048248291 24 22 17
-1 -3.4088139533996582 -3 42 30 25
-1 -3 -3.23412251472473145 50 36 31
-1 -3.70550417900085449 2 23 23 18
-1 -3 2.43386054039001465 22 22 18
-1 -2 -3.59294652938842773 51 39 34
-1 -2 2.82810115814208984 24 23 21
-1 -1 -3.74358797073364258 55 43 40
-1 -1 2.99763822555541992 28 27 26
-1 0 -3.68764400482177734 60 50 49
-1 0 2.94308090209960938 34 33 33
-1 1 -3.44734835624694824 67 61 61
-1 1 2.69249391555786133 41 40 36
-1.50514483451843262 2 -3 77 74 73
-1 2 -3.05526041984558105 74 73 72
-1 2 2.28638935089111328 50 48 40
-1 2.12093615531921387 -3 68 67 67
-1 3 -2.3502507209777832 75 73 72
-1 2.58158302307128906 2 50 48 40
-1 3 1.64747107028961182 60 57 48
-1 3.51983547210693359 -2 71 68 66
-1 4 -1.30883347988128662 76 72 68
-1 3.83591508865356445 1 60 57 48
-1 4 0.66599661111831665 69 66 57
-1 4.46806097030639648 -1 73 69 63
-1 4.70629167556762695 0 69 66 57
-1 5.54852485656738281 -1 75 71 65
-1 6 -1.44998037815093994 74 72 72
-1 5.29592561721801758 0 71 68 59
-1 5.81949996948242188 1 67 64 53
-1 6 1.19744729995727539 63 59 54
-1 6.891357421875 -3 74 72 72
-1 7 -3.11190247535705566 66 57 51
-1 6.22551441192626953 -2 74 72 72
-1 6.3756103515625 2 56 53 47
-1 7 2.81418442726135254 47 46 45
-1 8 -3.33619785308837891 63 54 44
-1 8 2.82201385498046875 42 40 40
-1 8.78640937805175781 -3 61 52 45
-1 8.91174030303955078 -2 59 50 47
-1 8.9322509765625 -1 56 49 47
-1 8.93549156188964844 0 52 47 46
-1 8.92644786834716797 1 48 44 44
-1 8.88339710235595703 2 42 40 40
0 -4.15673065185546875 -2 30 24 16
0 -4 -2.18604421615600586 34 25 19
0 -4.59447956085205078 -1 25 21 14
0 -4.63808059692382812 0 21 19 13
0 -4.28361606597900391 1 19 18 12
0 -4 1.37602758407592773 16 15 10
0 -3.0580909252166748 -3 34 25 19
0 -3 -3.03337311744689941 42 31 24
0 -3.34945058822631836 2 15 15 11
0 -3 2.21554827690124512 14 14 11
0 -2 -3.38722014427185059 43 33 27
0 -2 2.60193300247192383 16 16 13
0 -1 -3.53481173515319824 47 37 33
0 -1 2.76714992523193359 20 19 18
0 0 -3.47990250587463379 52 43 40
0 0 2.7142643928527832 25 25 25
0 1 -3.24134421348571777 59 53 51
0 1 2.46686315536499023 33 33 31
-0.736421942710876465 2 -3 68 67 67
0 1.62518942356109619 -3 52 46 44
0 2 -2.7705528736114502 60 57 56
0 2 2.05723261833190918 41 41 35
0 3 -2.04004096984863281 67 67 67
0 2.12082123756408691 2 41 41 35
0 3 1.28663694858551025 51 51 44
0 3.06309223175048828 -2 62 62 61
-0.469364762306213379 4 -1 73 69 63
0 3.81725072860717773 -1 58 57 55
-0.208609282970428467 4 0 69 66 57
0 3.91844511032104492 0 54 53 49
0 3.39242410659790039 1 51 51 44
-0.226682424545288086 6 -1 71 68 66
0 5.89004993438720703 0 62 61 55
0 6 -0.491374343633651733 62 62 61
-0.596687197685241699 6 1 63 59 54
0 6 0.271708041429519653 58 57 55
-0.507689535617828369 7 -3 66 58 56
0 6.45474576950073242 -2 64 63 62
0 7 -2.82593321800231934 57 46 45
0 6.05496978759765625 -1 62 62 61
0 6.13903045654296875 1 53 52 49
0 6.59857273101806641 2 46 45 41
0 7 2.51250147819519043 38 37 37
0 7.40050935745239258 -3 57 46 45
0 8 -3.12227034568786621 54 43 35
0 8 2.55623483657836914 33 30 29
0 8.57971954345703125 -3 52 41 36
0 8.89185523986816406 -2 50 39 37
0 8.92180442810058594 -1 47 37 37
0 8.92615032196044922 0 43 36 36
0 8.91336441040039062 1 38 34 33
0 8.84163379669189453 2 33 30 29
0.239942342042922974 -4 -2 27 21 15
0.9160270094871521 -4 -1 22 18 12
0.983479201793670654 -4 0 18 16 11
0.434551864862442017 -4 1 16 15 10
0.0639593005180358887 -3 -3 33 25 19
1 -3.30967879295349121 -2 21 17 11
1 -3 -2.26462650299072266 27 21 15
1 -3.92398881912231445 -1 15 13 8
1 -3.98504137992858887 0 11 11 6
1 -3.48609232902526855 1 9 9 6
0.38484346866607666 -3 2 14 14 11
1 -3 1.46347236633300781 8 8 5
0.746139705181121826 -2 -3 35 27 21
1 -2 -2.80017876625061035 28 23 17
1 -2.11056017875671387 2 7 8 6
1 -2 2.04267740249633789 9 9 7
1 -1.10719895362854004 -3 28 23 17
1 -1 -3.01564121246337891 40 34 27
1 -1 2.20109724998474121 13 13 11
0.920985639095306396 0 -3 44 37 34
1 -0.714970231056213379 -3 32 27 21
1 0 -2.93789482116699219 38 33 28
1 0 2.14791607856750488 19 19 18
0.458999007940292358 1 -3 52 46 44
1 1 -2.57634735107421875 45 40 37
0.818893313407897949 1 2 33 33 31
1 0.603187084197998047 2 19 19 18
1 1 1.8410649299621582 27 27 26
0.993259191513061523 2 -2 54 53 51
1 1.99155068397521973 -2 39 35 32
1 2 -1.99013173580169678 47 45 43
0.0982224270701408386 2 2 41 41 35
1 2 1.20096695423126221 36 36 34
0.0515433028340339661 3 -2 62 62 61
0.738463521003723145 3 -1 58 57 55
1 2.73822259902954102 -1 42 42 40
0.826553881168365479 3 0 54 53 49
1 2.82598996162414551 0 39 38 38
0.316034406423568726 3 1 51 51 44
1 2.26735424995422363 1 36 36 34
0.0976048707962036133 6 0 58 57 55
1 6.95295906066894531 -2 53 50 48
1 7 -2.06984472274780273 46 33 33
1 6.57429027557373047 -1 51 50 48
1 6.47051239013671875 0 47 47 47
1 6.64531564712524414 1 42 42 41
0.779020845890045166 7 2 38 37 37
1 7 1.757926344871521 33 32 30
0.238417178392410278 8 -3 52 41 36
1 8 -2.40843057632446289 42 29 27
0.93075716495513916 8 2 33 30 29
1 8 1.93175244331359863 28 24 22
1 8.75260257720947266 -2 39 28 27
1 8.87304496765136719 -1 37 27 26
1 8.88441276550292969 0 33 26 25
1 8.84369468688964844 1 28 24 22
1.20956194400787354 -3 -2 20 16 11
1.62371945381164551 -3 -1 14 13 8
1.66460824012756348 -3 0 11 10 6
1.32856309413909912 -3 1 8 8 5
1.63239431381225586 -2 -2 21 18 13
2 -2.14061927795410156 -1 9 9 5
2 -2 -1.14348971843719482 16 15 10
2 -2.23451352119445801 0 6 6 3
1.75568687915802002 -2 1 10 10 7
2 -2 0.297781288623809814 7 7 4
1.04670751094818115 -2 2 9 9 7
1.01842701435089111 -1 -3 32 27 21
1.80975008010864258 -1 -2 25 22 16
2 -1 -1.55734336376190186 20 19 13
1.93675625324249268 -1 1 14 13 11
2 -1 0.818134009838104248 11 11 8
1.21976733207702637 -1 2 13 13 11
1.74325144290924072 0 -2 31 27 23
2 0 -1.40095198154449463 26 24 19
1.87272202968597412 0 1 20 19 17
2 0 0.630328059196472168 17 16 13
1.1610177755355835 0 2 19 19 18
1.45922362804412842 1 -2 39 35 32
1.88303065299987793 1 -1 34 32 29
2 0.605486750602722168 -1 21 20 15
1.92864131927490234 1 0 30 29 27
2 0.759040236473083496 0 17 16 13
1.59282052516937256 1 1 27 27 26
1.4181067943572998 2 -1 42 42 40
1.46637904644012451 2 0 39 38 38
1.14086294174194336 2 1 36 36 34
1.05852878093719482 7 -2 45 36 35
1.53980326652526855 7 -1 43 37 35
1.6711496114730835 7 0 39 36 34
1.44004595279693604 7 1 33 32 30
1.33143877983093262 8 -2 39 28 27
1.79129719734191895 8 -1 37 27 26
1.88311600685119629 8 0 33 26 25
1.59242343902587891 8 1 28 24 22
2.04272055625915527 -2 -1 11 10 7
2.07118844985961914 -2 0 7 7 4
2.16602587699890137 -1 -1 15 14 10
2.19508957862854004 -1 0 11 11 8
2.12069177627563477 0 -1 21 20 15
2.15079975128173828 0 0 17 16 13
3 2 1 0
3 1 3 0
3 6 5 4
3 5 2 0
3 5 0 4
3 4 0 7
3 3 9 8
3 3 8 0
3 0 8 7
3 9 10 8
3 13 12 11
3 12 6 4
3 12 4 11
3 11 4 14
3 4 7 14
3 7 15 14
3 7 8 15
3 8 16 15
3 10 17 16
3 8 10 16
3 19 13 11
3 18 19 11
3 11 14 18
3 14 20 18
3 14 15 20
3 15 21 20
3 15 16 21
3 16 22 21
3 17 23 22
3 16 17 22
3 19 18 24
3 26 24 18
3 26 18 25
3 25 18 20
3 20 21 25
3 21 27 25
3 28 29 27
3 28 27 22
3 22 27 21
3 22 23 28
3 26 25 30
3 25 27 31
3 30 25 31
3 27 29 31
3 34 33 32
3 33 36 35
3 32 33 35
3 36 38 37
3 35 36 37
3 38 39 37
3 41 34 32
3 40 41 32
3 32 35 40
3 35 42 40
3 35 37 42
3 37 43 42
3 39 44 43
3 37 39 43
3 41 40 45
3 40 42 46
3 45 40 46
3 42 43 47
3 46 42 47
3 43 44 47
3 50 49 48
3 49 52 51
3 48 49 51
3 52 53 51
3 56 55 54
3 55 50 48
3 55 48 54
3 54 48 57
3 2 51 1
3 2 57 51
3 57 48 51
3 1 58 3
3 51 58 1
3 51 59 58
3 51 53 59
3 59 60 58
3 63 62 61
3 62 56 54
3 62 54 61
3 61 54 64
3 6 57 5
3 6 64 57
3 64 54 57
3 57 2 5
3 58 9 3
3 9 65 10
3 58 65 9
3 58 66 65
3 58 60 66
3 66 67 65
3 69 63 61
3 68 69 61
3 13 64 12
3 13 68 64
3 68 61 64
3 64 6 12
3 70 10 65
3 17 10 70
3 67 71 70
3 65 67 70
3 73 69 68
3 72 73 68
3 68 19 72
3 13 19 68
3 74 17 70
3 23 17 74
3 71 75 74
3 70 71 74
3 73 72 76
3 78 24 77
3 76 24 78
3 76 19 24
3 76 72 19
3 24 26 77
3 28 79 29
3 23 79 28
3 23 74 79
3 74 80 79
3 75 81 80
3 74 75 80
3 83 78 77
3 82 83 77
3 30 77 26
3 30 84 77
3 84 82 77
3 31 84 30
3 85 84 31
3 29 85 31
3 29 79 85
3 79 86 85
3 87 88 86
3 87 86 80
3 80 86 79
3 80 81 87
3 83 82 89
3 91 89 82
3 91 82 90
3 90 82 84
3 84 85 90
3 85 92 90
3 93 94 92
3 93 92 86
3 86 92 85
3 86 88 93
3 91 90 95
3 90 92 96
3 95 90 96
3 92 94 96
3 99 98 97
3 34 97 98
3 34 98 33
3 33 98 100
3 100 101 33
3 33 101 36
3 101 102 36
3 36 102 38
3 103 39 38
3 103 38 104
3 104 38 102
3 104 105 103
3 107 99 97
3 106 107 97
3 97 41 106
3 34 41 97
3 108 39 103
3 44 39 108
3 105 109 108
3 103 105 108
3 107 106 110
3 106 41 45
3 106 45 110
3 110 45 111
3 111 45 112
3 45 46 112
3 112 46 113
3 46 47 113
3 44 108 114
3 44 114 47
3 47 114 113
3 108 109 114
3 117 116 115
3 50 115 116
3 50 116 49
3 49 116 118
3 118 119 49
3 49 119 52
3 120 53 52
3 120 52 121
3 121 52 119
3 121 122 120
3 125 124 123
3 115 55 56
3 117 115 56
3 117 56 123
3 117 123 124
3 115 50 55
3 120 59 53
3 59 126 60
3 120 126 59
3 120 127 126
3 120 122 127
3 127 128 126
3 123 62 63
3 123 63 125
3 125 63 129
3 123 56 62
3 126 66 60
3 66 126 128
3 66 128 67
3 67 128 130
3 129 63 131
3 131 63 69
3 130 132 67
3 132 71 67
3 131 69 133
3 133 69 73
3 132 134 71
3 134 75 71
3 76 135 136
3 76 136 73
3 73 136 133
3 76 78 135
3 134 137 75
3 137 81 75
3 136 135 138
3 135 139 138
3 135 78 139
3 78 83 139
3 87 140 88
3 140 87 81
3 140 81 141
3 141 81 137
3 89 142 143
3 89 143 83
3 83 143 139
3 89 91 142
3 93 144 94
3 144 145 146
3 93 145 144
3 93 140 145
3 93 88 140
3 140 141 145
3 143 142 147
3 149 95 148
3 147 95 149
3 147 91 95
3 147 142 91
3 96 148 95
3 150 148 96
3 150 151 152
3 96 151 150
3 96 144 151
3 96 94 144
3 144 146 151
3 149 148 153
3 148 150 154
3 153 148 154
3 150 152 154
3 157 156 155
3 156 159 158
3 155 156 158
3 159 161 160
3 158 159 160
3 161 162 160
3 165 164 163
3 99 163 164
3 99 164 98
3 98 164 166
3 155 166 157
3 155 100 166
3 100 98 166
3 158 100 155
3 101 100 158
3 160 101 158
3 102 101 160
3 162 102 160
3 162 167 102
3 167 104 102
3 104 167 168
3 105 104 168
3 170 165 163
3 169 170 163
3 163 107 169
3 99 107 163
3 168 171 105
3 171 109 105
3 170 169 172
3 169 107 110
3 169 110 172
3 172 110 173
3 173 110 174
3 110 111 174
3 174 111 175
3 111 112 175
3 175 112 176
3 112 113 176
3 176 113 177
3 113 114 177
3 177 114 109
3 171 177 109
3 117 179 178
3 116 117 178
3 178 180 116
3 116 180 118
3 180 181 118
3 118 181 119
3 181 182 119
3 119 182 121
3 121 182 183
3 122 121 183
3 125 185 184
3 124 125 184
3 184 117 124
3 179 117 184
3 183 127 122
3 186 127 183
3 127 186 187
3 128 127 187
3 185 125 188
3 188 125 129
3 187 189 128
3 189 130 128
3 188 129 190
3 190 129 131
3 189 191 130
3 191 132 130
3 190 131 192
3 192 131 133
3 191 193 132
3 193 134 132
3 192 133 194
3 194 133 136
3 193 195 134
3 195 137 134
3 138 196 197
3 138 197 136
3 136 197 194
3 138 139 196
3 195 198 137
3 198 141 137
3 197 196 199
3 196 200 199
3 196 139 200
3 139 143 200
3 146 201 202
3 145 201 146
3 201 145 141
3 198 201 141
3 200 143 147
3 203 200 147
3 147 204 203
3 149 204 147
3 152 205 206
3 151 205 152
3 205 151 146
3 202 205 146
3 204 149 153
3 207 204 153
3 207 153 208
3 153 154 208
3 208 154 152
3 206 208 152
3 157 210 209
3 156 157 209
3 209 211 156
3 156 211 159
3 211 212 159
3 159 212 161
3 161 212 213
3 162 161 213
3 165 215 214
3 164 165 214
3 214 216 164
3 164 216 166
3 216 157 166
3 210 157 216
3 213 167 162
3 217 167 213
3 167 217 218
3 168 167 218
3 215 165 219
3 219 165 170
3 218 220 168
3 220 171 168
3 219 170 172
3 221 219 172
3 221 172 222
3 172 173 222
3 222 173 223
3 173 174 223
3 223 174 224
3 174 175 224
3 224 175 225
3 175 176 225
3 225 176 226
3 176 177 226
3 226 177 171
3 220 226 171
3 179 228 227
3 178 179 227
3 227 229 178
3 178 229 180
3 229 230 180
3 180 230 181
3 230 231 181
3 181 231 182
3 182 231 232
3 183 182 232
3 185 234 233
3 184 185 233
3 233 179 184
3 228 179 233
3 232 186 183
3 235 186 232
3 186 235 236
3 187 186 236
3 234 185 237
3 237 185 188
3 236 238 187
3 238 189 187
3 237 188 239
3 239 188 190
3 238 240 189
3 240 191 189
3 239 190 241
3 241 190 192
3 240 242 191
3 242 193 191
3 241 192 243
3 243 192 194
3 242 244 193
3 244 195 193
3 245 246 243
3 245 243 197
3 197 243 194
3 246 245 247
3 244 248 195
3 248 198 195
3 245 197 199
3 199 247 245
3 199 200 247
3 200 249 247
3 202 250 251
3 201 250 202
3 250 201 198
3 248 250 198
3 249 200 203
3 252 249 203
3 253 203 204
3 253 254 203
3 254 252 203
3 254 255 256
3 253 255 254
3 206 256 255
3 206 205 256
3 205 257 256
3 257 205 202
3 251 257 202
3 253 204 207
3 255 253 207
3 208 255 207
3 255 208 206
3 209 210 258
3 258 260 259
3 258 259 209
3 209 259 211
3 262 261 212
3 262 212 259
3 259 212 211
3 212 261 213
3 214 215 263
3 263 265 264
3 263 264 214
3 214 264 216
3 210 266 258
3 210 216 266
3 216 264 266
3 258 266 260
3 262 267 261
3 261 217 213
3 261 267 217
3 267 268 217
3 217 268 269
3 218 217 269
3 270 263 215
3 270 215 271
3 271 215 219
3 263 270 265
3 269 272 218
3 272 220 218
3 271 219 221
3 273 271 221
3 273 221 274
3 221 222 274
3 274 222 275
3 222 223 275
3 275 223 276
3 223 224 276
3 276 224 277
3 224 225 277
3 277 225 278
3 225 226 278
3 278 226 220
3 272 278 220
3 227 228 279
3 229 227 279
3 280 229 279
3 230 229 280
3 281 230 280
3 231 230 281
3 282 231 281
3 231 282 232
3 233 234 283
3 283 285 284
3 233 283 284
3 233 284 279
3 233 279 228
3 279 286 280
3 284 286 279
3 280 287 281
3 286 287 280
3 281 288 282
3 287 288 281
3 290 289 235
3 288 290 235
3 288 235 232
3 288 232 282
3 235 289 236
3 291 283 234
3 237 291 234
3 285 291 292
3 283 291 285
3 290 293 289
3 289 293 294
3 289 294 236
3 236 294 238
3 295 291 237
3 295 237 296
3 296 237 239
3 291 295 292
3 294 297 238
3 297 240 238
3 298 299 296
3 298 296 241
3 241 296 239
3 299 298 300
3 297 301 240
3 301 242 240
3 302 298 241
3 243 302 241
3 300 302 303
3 298 302 300
3 306 304 305
3 305 304 244
3 305 244 301
3 301 244 242
3 302 243 246
3 246 247 307
3 302 246 307
3 302 307 308
3 302 308 303
3 308 307 309
3 311 304 306
3 310 304 311
3 304 310 248
3 244 304 248
3 312 307 247
3 249 312 247
3 309 313 314
3 309 307 313
3 307 312 313
3 314 315 316
3 313 315 314
3 316 317 318
3 315 317 316
3 310 251 250
3 311 251 310
3 311 317 251
3 311 318 317
3 310 250 248
3 312 249 252
3 313 312 252
3 254 313 252
3 315 313 254
3 256 315 254
3 317 315 256
3 257 317 256
3 317 257 251
3 259 260 319
3 259 319 262
3 265 321 320
3 264 265 320
3 320 322 264
3 264 322 266
3 260 323 319
3 260 266 323
3 266 322 323
3 319 267 262
3 319 323 267
3 323 324 267
3 326 325 268
3 326 268 324
3 324 268 267
3 268 325 269
3 270 271 327
3 327 265 270
3 327 328 265
3 328 321 265
3 330 325 326
3 329 325 330
3 325 329 272
3 269 325 272
3 327 271 273
3 328 327 273
3 328 273 331
3 331 273 274
3 331 274 332
3 274 275 332
3 332 275 333
3 275 276 333
3 333 276 334
3 276 277 334
3 329 330 334
3 329 334 278
3 278 334 277
3 329 278 272
3 284 285 335
3 286 284 335
3 336 286 335
3 287 286 336
3 337 287 336
3 288 287 337
3 338 288 337
3 288 338 290
3 339 335 285
3 292 339 285
3 340 339 341
3 340 336 339
3 336 335 339
3 336 342 337
3 340 342 336
3 344 337 342
3 344 343 337
3 343 338 337
3 293 290 338
3 293 338 345
3 345 338 343
3 293 345 294
3 295 296 346
3 292 295 346
3 292 346 339
3 339 346 347
3 341 347 348
3 339 347 341
3 350 343 344
3 349 343 350
3 343 349 345
3 345 349 351
3 345 351 297
3 294 345 297
3 346 296 299
3 299 300 352
3 299 352 346
3 346 352 347
3 348 352 353
3 347 352 348
3 355 349 350
3 354 349 355
3 349 354 351
3 351 354 356
3 351 356 301
3 297 351 301
3 357 352 300
3 303 357 300
3 353 358 359
3 353 352 358
3 352 357 358
3 359 360 361
3 358 360 359
3 361 354 355
3 361 360 354
3 360 362 354
3 306 305 356
3 306 356 362
3 362 356 354
3 356 305 301
3 357 303 308
3 308 309 363
3 308 363 357
3 357 363 358
3 358 363 360
3 360 363 364
3 360 364 362
3 362 364 365
3 362 365 311
3 306 362 311
3 363 309 314
3 364 363 314
3 316 364 314
3 365 364 316
3 318 365 316
3 365 318 311
3 320 321 366
3 322 320 366
3 367 322 366
3 323 322 367
3 368 323 367
3 324 323 368
3 369 324 368
3 324 369 326
3 370 366 321
3 328 370 321
3 366 370 367
3 367 370 371
3 367 371 368
3 368 371 372
3 368 372 369
3 369 372 373
3 369 373 330
3 326 369 330
3 370 328 331
3 371 370 331
3 332 371 331
3 372 371 332
3 333 372 332
3 373 372 333
3 334 373 333
3 373 334 330
3 340 341 374
3 342 340 374
3 375 342 374
3 342 375 344
3 376 374 341
3 348 376 341
3 374 376 375
3 375 376 377
3 375 377 350
3 344 375 350
3 378 376 348
3 353 378 348
3 376 378 377
3 377 378 379
3 377 379 355
3 350 377 355
3 378 353 359
3 379 378 359
3 361 379 359
3 379 361 355
