ply
format ascii 1.0
element vertex 572
property float x
property float y
property float z
property uchar red
property uchar green
property uchar blue
element face 1144
property list uchar int vertex_indices
end_header
-8.01491451263427734 7 -4 2 2 5
-8 6.96297311782836914 -4 12 22 31
-8 7 -4.03535079956054688 16 18 35
-8.25799751281738281 7 -3 9 15 32
-8 6.73990869522094727 -3 5 9 10
-8.4742584228515625 7 -2 10 29 55
-8 6.74022436141967773 -2 2 3 3
-8.63079738616943359 7 -1 10 45 71
-8 6.75534343719482422 -1 3 5 5
-8.64286422729492188 7 0 9 60 82
-8 6.75081729888916016 0 2 5 4
-8.50293350219726562 7 1 7 71 85
-8 6.72476673126220703 1 8 26 20
-8.291534423828125 7 2 5 66 73
-8 6.70555686950683594 2 8 51 32
-8.04939460754394531 7 3 3 39 39
-8 6.87622785568237305 3 5 76 39
-8 7 3.12127447128295898 5 103 80
-8 7.03058338165283203 -4 20 32 60
-8.02579593658447266 8 -3 74 74 74
-8 8 -3.07217764854431152 0 0 0
-8.22179794311523438 8 -2 22 24 33
-8.32311058044433594 8 -1 4 5 8
-8.32634544372558594 8 0 1 2 3
-8.23119544982910156 8 1 1 2 3
-8.04222202301025391 8 2 14 26 32
-8 7.10190963745117188 3 5 103 80
-8 8 2.12172365188598633 12 72 80
-8 8.70837879180908203 -3 19 24 40
-8 8.95016193389892578 -2 22 39 65
-8 8.96237850189208984 -1 21 55 83
-8 8.96270656585693359 0 19 69 94
-8 8.95203971862792969 1 16 78 95
-8 8.79951381683349609 2 12 72 80
-7.2958526611328125 7 -5 16 18 35
-7 6.74226522445678711 -5 4 5 6
-7 7 -5.47556161880493164 30 32 50
-7 6.77781438827514648 -4 35 38 39
-7 6.87739706039428711 -3 46 77 79
-7 6.96388339996337891 -2 43 103 95
-7.06942844390869141 7 -1 18 65 77
-7 7 -1.26710402965545654 15 20 21
-7.05050516128540039 7 0 16 84 88
-7 6.95304441452026367 1 61 73 66
-7 7 0.168882951140403748 18 31 29
-7 6.85799694061279297 2 27 38 30
-7 6.74445438385009766 3 1 6 2
-7.37394905090332031 7 4 3 79 56
-7 6.67349433898925781 4 5 53 13
-7 7 4.62480354309082031 5 107 51
-7.00200605392456055 8 -5 47 45 64
-7 8 -5.00275897979736328 22 21 33
-7.48493766784667969 8 -4 0 0 0
-7 7.02529525756835938 -1 14 20 20
-7 7.01842832565307617 0 18 31 29
-7.51927995681762695 8 3 7 41 43
-7.03848695755004883 8 4 5 19 19
-7 8 4.05388545989990234 8 77 60
-7 8.14261436462402344 -5 26 27 33
-7 8.96710395812988281 -4 36 45 68
-7 8.97546958923339844 -3 36 57 84
-7 8.97729206085205078 -2 35 69 92
-7 8.9777679443359375 -1 33 84 101
-7 8.97783088684082031 0 29 103 112
-7 8.97750473022460938 1 23 121 120
-7 8.97597408294677734 2 16 123 111
-7 8.96883010864257812 3 11 111 92
-7 8.76215076446533203 4 8 77 60
-6.51433467864990234 7 -6 30 32 50
-6 6.72708702087402344 -6 1 1 1
-6 7 -6.48754739761352539 44 44 52
-6 6.82916021347045898 -5 26 57 68
-6.01271581649780273 7 -4 28 40 52
-6 7 -4.01460695266723633 33 35 38
-6.63318729400634766 7 -3 21 30 34
-6.90789985656738281 7 -2 15 20 21
-6.87971687316894531 7 1 21 50 41
-6.57132196426391602 7 2 16 74 50
-6 6.97448110580444336 3 78 83 77
-6 7 2.87077879905700684 3 4 3
-6 6.78977489471435547 4 8 18 7
-6.66301488876342773 7 5 3 94 40
-6 6.6490788459777832 5 10 49 5
-6 7 5.64901256561279297 5 109 23
-6.11142539978027344 8 -6 22 21 33
-6 8 -6.10692787170410156 15 12 32
-6 7.00434303283691406 -4 0 0 0
-6 7.27747106552124023 -3 20 34 35
-6 7.41700220108032227 -2 24 58 55
-6 7.47571992874145508 -1 25 63 53
-6 7.47258138656616211 0 27 52 42
-6 7.40611171722412109 1 23 28 26
-6 7.25262880325317383 2 3 4 3
-6.16584062576293945 8 5 2 11 8
-6 8 5.16093730926513672 7 87 46
-6 8.88289833068847656 -6 42 42 43
-6 8.97337532043457031 -5 54 59 75
-6 8.97764778137207031 -4 52 64 80
-6 8.97796344757080078 -3 50 64 73
-6 8.97735595703125 -2 47 63 67
-6 8.97677421569824219 -1 46 68 68
-6 8.97685432434082031 0 45 79 76
-6 8.97757148742675781 1 39 96 83
-6 8.97827911376953125 2 27 112 84
-6 8.97812843322753906 3 17 123 80
-6 8.97462081909179688 4 10 119 68
-6 8.91793537139892578 5 7 87 46
-5.43558263778686523 7 -7 44 44 52
-5 6.73775243759155273 -7 10 12 14
-5 7 -7.24799728393554688 32 32 39
-5 6.81613969802856445 -6 13 48 65
-5.21922731399536133 7 -5 33 35 38
-5 7 -5.20940208435058594 36 38 40
-5.92084407806396484 7 3 15 44 23
-5.01819944381713867 7 4 10 84 26
-5 6.7660064697265625 5 6 10 3
-5 7 4.01666641235351562 13 36 12
-5.62468051910400391 7 6 3 98 17
-5 6.62411069869995117 6 29 67 4
-5 7 6.36096429824829102 12 116 4
-5 7.72727394104003906 -7 63 64 68
-5 8 -6.89974546432495117 23 23 34
-5 7.07538604736328125 -5 6 10 12
-5 7.40035295486450195 -4 10 62 68
-5 7.57213115692138672 -3 1 113 102
-5 7.67003774642944336 -2 0 138 97
-5 7.71701145172119141 -1 0 145 75
-5 7.71451282501220703 0 0 134 49
-5 7.66221332550048828 1 10 109 33
-5 7.55726814270019531 2 33 72 38
-5 7.37141895294189453 3 20 22 20
-5 7.00636911392211914 4 13 36 12
-5.01224231719970703 8 6 2 13 7
-5 8 6.00833511352539062 7 80 25
-5 8.97297954559326172 -6 72 73 76
-5 8.977935791015625 -5 69 72 77
-5 8.97749900817871094 -4 54 55 56
-5 8.97486495971679688 -3 25 31 32
-5 8.97061538696289062 -2 10 16 16
-5 8.96698093414306641 -1 9 13 12
-5 8.96723747253417969 0 19 24 22
-5 8.97118282318115234 1 40 45 43
-5 8.97545051574707031 2 40 71 54
-5 8.97801113128662109 3 28 100 55
-5 8.97852039337158203 4 15 121 50
-5 8.97459030151367188 5 9 121 40
-5 8.41954326629638672 6 7 80 25
-4 6.74330282211303711 -7 7 21 31
-4 7 -7.85131597518920898 54 55 65
-4 6.96856832504272461 -6 1 108 128
-4 7 -5.90706348419189453 1 2 2
-4 6.9230036735534668 5 66 70 61
-4 7 4.77457904815673828 14 16 13
-4 6.67099237442016602 6 18 26 5
-4.09346818923950195 7 7 9 89 2
-4 6.86126422882080078 7 61 101 3
-4 7 7.03731584548950195 34 117 3
-4.8682255744934082 8 -7 23 23 34
-4 8 -7.38536214828491211 1 0 4
-4 7.37979793548583984 -5 3 57 68
-4 7.6078333854675293 -4 5 133 125
-4 7.75442409515380859 -3 40 179 140
-4 7.85995149612426758 -2 78 205 143
-4 7.91796350479125977 -1 85 210 125
-4 7.91504526138305664 0 56 199 80
-4 7.85145187377929688 1 14 175 19
-4 7.740692138671875 2 12 138 2
-4 7.58695840835571289 3 42 84 35
-4 7.33968496322631836 4 14 16 13
-4 7.07031869888305664 7 34 117 3
-4 8 6.45281171798706055 8 115 15
-4 8.96355152130126953 -7 51 53 68
-4 8.97761631011962891 -6 72 75 81
-4 8.97769069671630859 -5 41 49 56
-4 8.97372722625732422 -4 8 16 18
-4 8.96281051635742188 -3 4 16 16
-4 8.93758201599121094 -2 5 38 33
-4 8.89724445343017578 -1 5 44 30
-4 8.90046882629394531 0 6 33 20
-4 8.94097423553466797 1 4 10 6
-4 8.96461677551269531 2 20 22 21
-4 8.97471046447753906 3 36 63 41
-4 8.97832870483398438 4 24 103 35
-4 8.97839641571044922 5 13 127 23
-4 8.96775436401367188 6 8 115 15
-3.78435111045837402 7 -8 54 55 65
-3 6.72902917861938477 -8 9 15 22
-3 7 -8.18126392364501953 9 9 24
-3 6.82221603393554688 -7 0 52 72
-3.80327630043029785 7 -6 1 2 2
-3 7 -6.45217704772949219 18 28 39
-3.50366330146789551 7 5 24 54 13
-3 6.76265954971313477 6 10 11 5
-3 7 5.27589607238769531 14 20 10
-3 6.58112668991088867 7 65 82 5
-3 7 7.28079938888549805 60 127 4
-3 7.55750656127929688 -8 50 55 72
-3 8 -7.82490348815917969 9 9 32
-3 7.19973421096801758 -6 2 25 34
-3 7.54000139236450195 -5 6 112 115
-3 7.73920726776123047 -4 74 182 158
-3 7.902008056640625 -3 169 228 202
-3.20142531394958496 8 -2 5 38 33
-3 8 -2.26581168174743652 0 60 52
-3.56636977195739746 8 -1 5 44 30
-3.54979944229125977 8 0 6 33 20
-3.14562773704528809 8 1 4 10 6
-3 7.88641691207885742 2 63 186 20
-3 8 1.18268930912017822 4 56 14
-3 7.71923732757568359 3 49 133 6
-3 7.50977611541748047 4 49 61 41
-3 7.12867116928100586 5 14 20 10
-3 7.86733865737915039 7 60 127 4
-3 8 6.94548845291137695 23 131 10
-3 8.97448921203613281 -7 56 62 82
-3 8.97825431823730469 -6 46 58 71
-3 8.97577381134033203 -5 10 24 30
-3 8.96471881866455078 -4 1 17 19
-3 8.91277694702148438 -3 0 60 52
-3 8.92399215698242188 2 8 20 9
-3 8.96698760986328125 3 26 26 26
-3 8.97672843933105469 4 35 78 33
-3 8.97892189025878906 5 27 120 19
-3 8.97609615325927734 6 23 131 10
-2 6.68635797500610352 -8 0 1 3
-2 7 -8.35015678405761719 15 17 42
-2 6.88620233535766602 -7 6 87 102
-2 7 -6.70047426223754883 4 14 21
-2 6.83006381988525391 6 38 38 27
-2 7 5.55519819259643555 4 5 3
-2 6.57139158248901367 7 63 66 7
-2 7 7.48730087280273438 80 128 6
-2.54564762115478516 8 -8 9 9 32
-2 8 -8.10172748565673828 9 1 63
-2 7.33232450485229492 -6 0 52 62
-2 7.62510108947753906 -5 45 147 136
-2 7.82609224319458008 -4 172 214 199
-2.12651610374450684 8 -3 0 60 52
-2 8 -3.07511067390441895 0 46 44
-2 7.99666309356689453 2 139 216 84
-2 8 1.97886455059051514 0 87 4
-2 7.80496120452880859 3 82 164 2
-2 7.59767389297485352 4 63 92 28
-2 7.27664995193481445 5 4 5 3
-2.86419081687927246 8 7 17 84 8
-2 8 7.15720415115356445 35 105 10
-2 8.90686702728271484 -8 15 19 51
-2 8.9769287109375 -7 48 60 85
-2 8.97808551788330078 -6 25 45 60
-2 8.97313594818115234 -5 1 7 8
-2 8.94914627075195312 -4 0 46 44
-2 8.25730323791503906 2 8 50 6
-2 8.95439052581787109 3 0 0 0
-2 8.97453117370605469 4 42 58 38
-2 8.97879886627197266 5 46 111 26
-2 8.97801971435546875 6 45 136 13
-2 8.93742561340332031 7 35 105 10
-1 6.67996406555175781 -8 0 4 6
-1 7 -8.44945049285888672 14 19 47
-1 6.91306400299072266 -7 21 110 116
-1 7 -6.78309345245361328 1 9 12
-1 6.85726356506347656 6 51 50 45
-1 7 5.64545249938964844 16 16 16
-1 6.57417583465576172 7 58 54 10
-1 7 7.61420917510986328 97 128 8
-1 8 -8.17861747741699219 4 1 50
-1 7.37801456451416016 -6 3 71 75
-1 7.65712547302246094 -5 84 161 144
-1 7.86338329315185547 -4 219 228 224
-1 8 -3.31290388107299805 1 59 50
-1.93201887607574463 8 2 8 50 6
-1 7.84130668640136719 3 118 178 16
-1 8 2.21773648262023926 13 63 1
-1 7.63012933731079102 4 77 105 15
-1 7.32686805725097656 5 16 16 16
-1 8 7.23531055450439453 52 114 12
-1 8.94295597076416016 -8 14 22 58
-1 8.97762680053710938 -7 37 58 85
-1 8.97794723510742188 -6 14 41 54
-1 8.971588134765625 -5 0 1 1
-1 8.93617534637451172 -4 1 59 50
-1 8.94464302062988281 3 6 11 5
-1 8.97326374053955078 4 43 49 40
-1 8.97869873046875 5 59 106 32
-1 8.97857093811035156 6 64 137 17
-1 8.95554924011230469 7 52 114 12
0 6.66343593597412109 -8 0 3 4
0 7 -8.43887424468994141 9 17 45
0 6.89354038238525391 -7 26 112 110
0 7 -6.72893476486206055 1 11 15
0 6.83717536926269531 6 46 46 44
0 7 5.58736848831176758 12 12 11
0 6.55289649963378906 7 62 52 12
0 7 7.59753751754760742 112 129 10
0 8 -8.16309165954589844 4 5 55
0 7.35225915908813477 -6 5 71 69
0 7.63943576812744141 -5 93 157 138
0 7.84330320358276367 -4 200 224 210
0 8 -3.19251537322998047 2 55 42
0 7.82142782211303711 3 134 174 21
0 8 2.09810566902160645 17 59 0
0 7.61197614669799805 4 82 101 11
0 7.29824209213256836 5 12 12 11
0 8 7.21991157531738281 64 113 14
0 8.93860054016113281 -8 9 20 56
0 8.97763729095458984 -7 30 57 85
0 8.97818565368652344 -6 11 45 56
0 8.97260379791259766 -5 0 1 1
0 8.94396400451660156 -4 2 55 42
0 8.95052051544189453 3 4 7 3
0 8.97412204742431641 4 49 53 46
0 8.97889518737792969 5 71 109 37
0 8.97859001159667969 6 78 139 20
0 8.95323753356933594 7 64 113 14
1 6.64085149765014648 -8 0 7 9
1 7 -8.32309150695800781 3 11 33
1 6.82980489730834961 -7 16 92 85
1 7 -6.51945972442626953 2 23 28
1 6.77098274230957031 6 26 25 22
1 7 5.35780096054077148 7 7 6
1 6.50786399841308594 7 76 59 13
1 7 7.44810771942138672 124 133 11
1 8 -8.05292320251464844 20 23 79
1 7.24476337432861328 -6 2 52 47
1 7.5702519416809082 -5 67 135 110
1 7.76965188980102539 -4 199 203 201
0.397799968719482422 8 -3 24 99 64
1 7.94252443313598633 -3 166 248 176
1 8 -2.59484982490539551 13 78 43
0.20894254744052887 8 2 17 59 0
1 7.92548084259033203 2 183 207 122
1 8 1.49595534801483154 21 75 3
1 7.74874401092529297 3 126 153 11
1 7.54070520401000977 4 71 79 13
1 7.17803478240966797 5 7 7 6
1 8 7.1102910041809082 66 102 18
1 8.83839511871337891 -8 2 15 43
1 8.976806640625 -7 24 57 84
1 8.97864341735839844 -6 13 55 65
1 8.97532463073730469 -5 0 17 16
1 8.96087169647216797 -4 0 35 24
1 8.85875415802001953 -3 13 78 43
1 8.88778400421142578 2 14 38 1
1 8.96390247344970703 3 8 12 5
1 8.97639942169189453 4 63 69 57
1 8.97925853729248047 5 83 119 40
1 8.97796249389648438 6 89 139 23
1 8.91543197631835938 7 66 102 18
2 6.69302606582641602 -8 3 25 30
2 7 -8.14101409912109375 0 2 6
2 6.73180103302001953 -7 3 56 50
2 7 -6.02352523803710938 6 41 47
1.72197794914245605 7 5 7 7 6
2 6.95684289932250977 5 96 75 29
2 7 4.8839869499206543 38 40 15
2 6.66395139694213867 6 8 7 5
2 6.49185800552368164 7 97 70 13
2 7 7.23172569274902344 130 132 13
1.22108006477355957 8 -8 2 15 43
2 7.33293581008911133 -8 15 46 68
2 8 -7.66616725921630859 0 5 15
2 7.00972223281860352 -6 0 19 16
2 7.43474054336547852 -5 26 96 67
2 7.65084218978881836 -4 122 163 135
2 7.80153751373291016 -3 188 210 190
1.50228786468505859 8 -2 33 104 50
2 7.91692304611206055 -2 180 234 171
1.89919674396514893 8 -1 38 110 42
2 7.98199272155761719 -1 194 239 170
1.88013315200805664 8 0 31 99 23
2 7.97863435745239258 0 212 228 193
1.44051754474639893 8 1 21 75 3
2 7.90730524063110352 1 195 206 173
2 7.78664636611938477 2 144 169 59
2 7.62988758087158203 3 97 113 0
2 7.39773178100585938 4 38 40 15
1.47481870651245117 8 7 66 102 18
2 7.55046701431274414 7 130 132 13
2 8 6.76724052429199219 93 133 26
2 8.97331523895263672 -7 16 52 77
2 8.97881317138671875 -6 18 68 77
2 8.97779750823974609 -5 3 42 39
2 8.97216415405273438 -4 0 2 1
2 8.95519351959228516 -3 2 41 18
2 8.89842796325683594 -2 8 64 20
2 8.65262126922607422 -1 10 70 11
2 8.69050884246826172 0 13 60 4
2 8.90814495086669922 1 10 36 0
2 8.95815849304199219 2 0 0 0
2 8.97343063354492188 3 38 45 31
2 8.97846508026123047 4 81 94 65
2 8.97939205169677734 5 95 131 41
2 8.97528839111328125 6 93 133 26
2.50438690185546875 7 -8 15 46 68
3 6.62055206298828125 -7 0 11 10
3 7 -7.68776464462280273 7 35 53
2.03145027160644531 7 -6 0 19 16
3 6.83095788955688477 -6 27 103 70
3 7 -5.40911579132080078 0 20 17
3 6.7820439338684082 5 40 36 28
3 7 4.24871206283569336 10 11 8
3 6.52500009536743164 6 52 42 22
2.84116125106811523 7 7 130 132 13
3 7 6.89693641662597656 124 123 23
3 8 -7.24778938293457031 3 14 34
3 7.17186689376831055 -5 1 44 26
3 7.47074651718139648 -4 35 106 57
3 7.63022470474243164 -3 101 152 104
3 7.72795009613037109 -2 158 178 154
3 7.77743816375732422 -1 172 184 164
3 7.77470970153808594 0 153 174 129
3 7.71967315673828125 1 122 149 63
3 7.61554336547851562 2 89 111 7
3 7.44450712203979492 3 50 56 5
3 7.11071872711181641 4 10 11 8
3 8 6.30967092514038086 84 112 30
3 8.95149040222167969 -7 4 35 54
3 8.97769927978515625 -6 20 73 82
3 8.97899150848388672 -5 13 69 62
3 8.97749710083007812 -4 2 38 25
3 8.97330284118652344 -3 0 7 3
3 8.96630287170410156 -2 0 12 2
3 8.95975112915039062 -1 0 16 0
3 8.96020889282226562 0 1 5 0
3 8.96720027923583984 1 6 16 1
3 8.97409439086914062 2 33 48 21
3 8.97806262969970703 3 85 86 85
3 8.97944164276123047 4 97 121 65
3 8.97852516174316406 5 101 137 41
3 8.9599151611328125 6 84 112 30
4 6.66817426681518555 -7 3 30 27
4 7 -7.15450429916381836 0 7 13
4 6.65243625640869141 -6 0 36 21
3.43604803085327148 7 -5 1 44 26
4 6.85335969924926758 -5 36 115 59
4 7 -4.35714387893676758 0 13 7
3.27317237854003906 7 4 10 11 8
4 6.81455707550048828 4 58 47 19
4 7 3.20646166801452637 11 12 6
4 6.58623743057250977 5 24 22 19
4 6.46938514709472656 6 94 69 22
4 7 6.24718093872070312 124 123 23
3.46887397766113281 8 -7 4 35 54
4 7.28322172164916992 -7 12 57 64
4 8 -6.58516693115234375 0 3 5
4 7.128814697265625 -4 0 36 12
4 7.37860202789306641 -3 11 77 16
4 7.50211334228515625 -2 40 102 29
4 7.55476903915405273 -1 60 108 33
4 7.55187654495239258 0 61 98 19
4 7.49237585067749023 1 50 73 2
4 7.35726547241210938 2 29 36 2
4 7.07916784286499023 3 11 12 6
3.59012651443481445 8 6 84 112 30
4 7.45116806030273438 6 124 123 23
4 8 5.67364501953125 93 122 44
4 8.96908092498779297 -6 10 58 66
4 8.97838878631591797 -5 23 82 76
4 8.97916507720947266 -4 18 74 54
4 8.97848606109619141 -3 9 57 29
4 8.97716236114501953 -2 5 45 13
4 8.97608089447021484 -1 5 44 6
4 8.97618389129638672 0 19 55 12
4 8.97741603851318359 1 46 74 34
4 8.97879123687744141 2 89 98 83
4 8.97949123382568359 3 106 121 90
4 8.97895431518554688 4 104 135 62
4 8.97169685363769531 5 93 122 44
4.23550796508789062 7 -7 12 57 64
5 6.57772254943847656 -6 2 23 14
5 7 -6.31452369689941406 1 25 29
5 6.62654447555541992 -5 0 32 10
4.28511571884155273 7 -4 0 36 12
5 6.78350973129272461 -4 12 89 16
4.80767202377319336 7 -3 11 77 16
5 6.92669486999511719 -3 70 134 53
5 7 -2.37393355369567871 0 1 0
4.75268268585205078 7 2 29 36 2
5 6.90650367736816406 2 93 84 0
5 7 1.25094985961914062 8 12 2
4.17168998718261719 7 3 11 12 6
5 6.75266265869140625 3 39 34 10
5 6.57133388519287109 4 23 23 23
5 6.43556451797485352 5 83 68 33
4.37438535690307617 7 6 124 123 23
5 7 5.42758893966674805 118 121 35
4.72528934478759766 8 -6 10 58 66
5 7.52415704727172852 -6 15 64 58
5 8 -5.72255182266235352 0 11 13
5 7.07669401168823242 -2 1 16 0
5 7.17419052124023438 -1 6 20 0
5 7.16857194900512695 0 4 9 0
5 7.05584955215454102 1 8 12 2
4.82540178298950195 8 5 93 122 44
5 7.70150375366210938 5 118 121 35
5 8 4.82133007049560547 93 118 63
5 8.96866703033447266 -5 12 65 60
5 8.97780036926269531 -4 29 85 67
5 8.97918224334716797 -3 35 89 59
5 8.97935962677001953 -2 38 90 50
5 8.97931766510009766 -1 46 96 48
5 8.97935962677001953 0 71 107 66
5 8.97948265075683594 1 107 120 102
5 8.97941207885742188 2 121 131 114
5 8.97832298278808594 3 108 133 85
5 8.970916748046875 4 93 118 63
5.3060755729675293 7 -6 15 64 58
6 6.62594461441040039 -5 7 33 16
6 7 -5.22617721557617188 2 25 23
6 6.53751039505004883 -4 0 0 0
6 6.632781982421875 -3 4 32 0
5.15506505966186523 7 -2 1 16 0
6 6.71175289154052734 -2 20 53 0
5.33736038208007812 7 -1 6 20 0
6 6.75225400924682617 -1 33 57 0
5.32570886611938477 7 0 4 9 0
6 6.74831247329711914 0 35 46 0
5.11205625534057617 7 1 8 12 2
6 6.69872188568115234 1 21 23 2
6 6.60589027404785156 2 9 9 4
6 6.48195505142211914 3 50 50 49
6 6.47083473205566406 4 89 80 45
5.40681552886962891 7 5 118 121 35
6 7 4.32593679428100586 106 115 50
5.544586181640625 8 -5 12 65 60
6 7.25103044509887695 -5 18 61 46
6 8 -4.39693593978881836 0 3 3
5.6024785041809082 8 4 93 118 63
6 7.35329484939575195 4 106 115 50
6 8 3.46805286407470703 90 98 83
6 8.94449615478515625 -4 8 49 37
6 8.97261142730712891 -3 29 79 53
6 8.97686100006103516 -2 51 97 64
6 8.97796726226806641 -1 73 111 76
6 8.97803401947021484 0 99 122 98
6 8.97712612152099609 1 123 127 122
6 8.97345447540283203 2 113 121 109
6 8.95093536376953125 3 90 98 83
6.14161157608032227 7 -5 18 61 46
6.64803886413574219 7 -4 24 68 42
7 6.58729457855224609 -3 19 45 17
7 7 -3.42899274826049805 12 45 28
7 6.47437047958374023 -2 21 39 14
7 6.47176694869995117 -1 28 41 16
7 6.46334695816040039 0 43 52 27
7 6.4431300163269043 1 66 69 54
7 6.50026512145996094 2 87 88 77
6.72787904739379883 7 3 107 117 72
7 7 2.54251837730407715 104 113 89
6.19781351089477539 7 4 106 115 50
6.20029497146606445 8 -4 8 49 37
6.56489849090576172 8 -3 29 79 53
7 7.2449030876159668 -3 33 69 42
6.93509674072265625 8 -2 51 97 64
7 7.85754203796386719 -2 51 84 52
7 8 -1.72429049015045166 7 37 18
6.95830678939819336 8 1 123 127 122
7 7.90902519226074219 1 112 115 110
7 8 0.811898648738861084 35 72 35
6.59110927581787109 8 2 113 121 109
7 7.29540205001831055 2 104 113 89
6.22888374328613281 8 3 90 98 83
7 8.88502693176269531 -1 22 61 28
7 8.88915729522705078 0 35 72 35
7.11968135833740234 7 -3 33 69 42
7.29535579681396484 7 -2 51 84 52
7.4015507698059082 7 -1 73 96 69
7.4076995849609375 7 0 98 107 93
7.3119196891784668 7 1 112 115 110
7.14359569549560547 7 2 104 113 89
7.07538652420043945 8 -1 22 61 28
7.07851505279541016 8 0 35 72 35
3 2 1 0
3 1 4 3
3 0 1 3
3 4 6 5
3 3 4 5
3 6 8 7
3 5 6 7
3 8 10 9
3 7 8 9
3 10 12 11
3 9 10 11
3 12 14 13
3 11 12 13
3 14 16 15
3 13 14 15
3 16 17 15
3 2 0 18
3 20 18 0
3 20 0 19
3 19 0 3
3 3 5 19
3 5 21 19
3 5 7 21
3 7 22 21
3 7 9 22
3 9 23 22
3 9 11 23
3 11 24 23
3 11 13 24
3 13 25 24
3 26 27 25
3 26 25 15
3 15 25 13
3 15 17 26
3 20 19 28
3 19 21 29
3 28 19 29
3 21 22 30
3 29 21 30
3 22 23 31
3 30 22 31
3 23 24 32
3 31 23 32
3 24 25 33
3 32 24 33
3 25 27 33
3 36 35 34
3 2 34 35
3 2 35 1
3 1 35 37
3 37 38 1
3 1 38 4
3 38 39 4
3 4 39 6
3 41 40 8
3 41 8 39
3 39 8 6
3 10 8 40
3 42 10 40
3 42 44 43
3 42 43 10
3 10 43 12
3 43 45 12
3 12 45 14
3 45 46 14
3 14 46 16
3 47 17 16
3 47 16 48
3 48 16 46
3 48 49 47
3 51 36 34
3 50 51 34
3 18 34 2
3 18 52 34
3 52 50 34
3 18 20 52
3 41 53 40
3 40 54 42
3 53 54 40
3 42 54 44
3 26 55 27
3 17 55 26
3 17 47 55
3 47 56 55
3 49 57 56
3 47 49 56
3 51 50 58
3 50 52 59
3 58 50 59
3 52 20 28
3 52 28 59
3 59 28 60
3 60 28 61
3 28 29 61
3 61 29 62
3 29 30 62
3 62 30 63
3 30 31 63
3 63 31 64
3 31 32 64
3 64 32 65
3 32 33 65
3 27 55 66
3 27 66 33
3 33 66 65
3 55 56 67
3 66 55 67
3 56 57 67
3 70 69 68
3 36 68 69
3 36 69 35
3 35 69 71
3 73 72 37
3 73 37 71
3 71 37 35
3 38 37 72
3 74 38 72
3 39 38 74
3 75 39 74
3 39 75 41
3 43 44 76
3 45 43 76
3 77 45 76
3 77 79 78
3 77 78 45
3 45 78 46
3 78 80 46
3 46 80 48
3 81 49 48
3 81 48 82
3 82 48 80
3 82 83 81
3 85 70 68
3 84 85 68
3 68 51 84
3 36 51 68
3 73 86 72
3 72 87 74
3 86 87 72
3 74 88 75
3 87 88 74
3 75 53 41
3 75 88 53
3 88 89 53
3 89 90 53
3 53 90 54
3 44 91 76
3 44 54 91
3 54 90 91
3 76 92 77
3 91 92 76
3 77 92 79
3 93 49 81
3 57 49 93
3 83 94 93
3 81 83 93
3 85 84 95
3 84 51 58
3 84 58 95
3 95 58 96
3 96 58 97
3 58 59 97
3 97 59 98
3 59 60 98
3 98 60 99
3 60 61 99
3 99 61 100
3 61 62 100
3 100 62 101
3 62 63 101
3 101 63 102
3 63 64 102
3 102 64 103
3 64 65 103
3 103 65 104
3 65 66 104
3 104 66 105
3 66 67 105
3 57 93 106
3 57 106 67
3 67 106 105
3 93 94 106
3 109 108 107
3 70 107 108
3 70 108 69
3 69 108 110
3 112 111 71
3 112 71 110
3 110 71 69
3 71 111 73
3 78 79 113
3 80 78 113
3 114 80 113
3 114 116 115
3 114 115 80
3 80 115 82
3 117 83 82
3 117 82 118
3 118 82 115
3 118 119 117
3 109 107 120
3 107 121 120
3 107 70 121
3 70 85 121
3 112 122 111
3 111 86 73
3 111 122 86
3 122 123 86
3 123 124 86
3 86 124 87
3 124 125 87
3 87 125 88
3 125 126 88
3 88 126 89
3 126 127 89
3 89 127 90
3 127 128 90
3 90 128 91
3 128 129 91
3 91 129 92
3 79 130 113
3 79 92 130
3 92 129 130
3 113 131 114
3 130 131 113
3 114 131 116
3 132 83 117
3 94 83 132
3 119 133 132
3 117 119 132
3 121 85 95
3 134 121 95
3 134 95 135
3 95 96 135
3 135 96 136
3 96 97 136
3 136 97 137
3 97 98 137
3 137 98 138
3 98 99 138
3 138 99 139
3 99 100 139
3 139 100 140
3 100 101 140
3 140 101 141
3 101 102 141
3 141 102 142
3 102 103 142
3 142 103 143
3 103 104 143
3 143 104 144
3 104 105 144
3 144 105 145
3 105 106 145
3 94 132 146
3 94 146 106
3 106 146 145
3 132 133 146
3 109 148 147
3 108 109 147
3 147 149 108
3 108 149 110
3 110 149 150
3 112 110 150
3 116 152 151
3 115 116 151
3 151 153 115
3 115 153 118
3 154 119 118
3 154 118 155
3 155 118 153
3 155 156 154
3 120 157 158
3 120 158 109
3 109 158 148
3 120 121 157
3 150 122 112
3 159 122 150
3 159 160 122
3 122 160 123
3 160 161 123
3 123 161 124
3 161 162 124
3 124 162 125
3 162 163 125
3 125 163 126
3 163 164 126
3 126 164 127
3 164 165 127
3 127 165 128
3 165 166 128
3 128 166 129
3 166 167 129
3 129 167 130
3 167 168 130
3 130 168 131
3 168 116 131
3 152 116 168
3 169 119 154
3 169 170 119
3 170 133 119
3 154 156 169
3 158 157 171
3 157 121 134
3 157 134 171
3 171 134 172
3 172 134 173
3 134 135 173
3 173 135 174
3 135 136 174
3 174 136 175
3 136 137 175
3 175 137 176
3 137 138 176
3 176 138 177
3 138 139 177
3 177 139 178
3 139 140 178
3 178 140 179
3 140 141 179
3 179 141 180
3 141 142 180
3 180 142 181
3 142 143 181
3 181 143 182
3 143 144 182
3 182 144 183
3 144 145 183
3 183 145 184
3 145 146 184
3 184 146 133
3 170 184 133
3 187 186 185
3 148 185 186
3 148 186 147
3 147 186 188
3 190 189 149
3 190 149 188
3 188 149 147
3 149 189 150
3 151 152 191
3 191 193 192
3 191 192 151
3 151 192 153
3 192 194 153
3 153 194 155
3 155 194 195
3 156 155 195
3 187 185 196
3 185 197 196
3 185 148 197
3 148 158 197
3 190 198 189
3 189 159 150
3 189 198 159
3 198 199 159
3 199 200 159
3 159 200 160
3 200 201 160
3 160 201 161
3 203 202 162
3 203 162 201
3 201 162 161
3 163 162 202
3 204 163 202
3 164 163 204
3 205 164 204
3 165 164 205
3 206 165 205
3 206 208 207
3 206 207 165
3 165 207 166
3 207 209 166
3 166 209 167
3 209 210 167
3 167 210 168
3 152 211 191
3 152 168 211
3 168 210 211
3 191 211 193
3 170 212 213
3 169 212 170
3 212 169 156
3 195 212 156
3 197 158 171
3 214 197 171
3 214 171 215
3 171 172 215
3 215 172 216
3 172 173 216
3 216 173 217
3 173 174 217
3 217 174 218
3 174 175 218
3 202 203 218
3 202 218 176
3 176 218 175
3 204 202 176
3 177 204 176
3 205 204 177
3 178 205 177
3 206 205 178
3 179 206 178
3 208 206 179
3 208 179 219
3 219 179 180
3 219 180 220
3 180 181 220
3 220 181 221
3 181 182 221
3 221 182 222
3 182 183 222
3 222 183 223
3 183 184 223
3 223 184 170
3 213 223 170
3 187 225 224
3 186 187 224
3 224 226 186
3 186 226 188
3 188 226 227
3 190 188 227
3 193 229 228
3 192 193 228
3 228 230 192
3 192 230 194
3 194 230 231
3 195 194 231
3 196 232 233
3 196 233 187
3 187 233 225
3 196 197 232
3 227 198 190
3 234 198 227
3 234 235 198
3 198 235 199
3 235 236 199
3 199 236 200
3 238 237 201
3 238 201 236
3 236 201 200
3 201 237 203
3 208 240 239
3 207 208 239
3 239 241 207
3 207 241 209
3 241 242 209
3 209 242 210
3 242 243 210
3 210 243 211
3 243 193 211
3 229 193 243
3 212 244 213
3 244 212 195
3 244 195 245
3 245 195 231
3 233 232 246
3 232 197 214
3 232 214 246
3 246 214 247
3 247 214 248
3 214 215 248
3 248 215 249
3 215 216 249
3 249 216 250
3 216 217 250
3 237 238 250
3 237 250 218
3 218 250 217
3 237 218 203
3 240 208 219
3 251 240 219
3 251 219 252
3 219 220 252
3 252 220 253
3 220 221 253
3 253 221 254
3 221 222 254
3 254 222 255
3 222 223 255
3 213 244 256
3 213 256 223
3 223 256 255
3 244 245 256
3 225 258 257
3 224 225 257
3 257 259 224
3 224 259 226
3 226 259 260
3 227 226 260
3 229 262 261
3 228 229 261
3 261 263 228
3 228 263 230
3 230 263 264
3 231 230 264
3 258 225 265
3 265 225 233
3 260 234 227
3 266 234 260
3 266 267 234
3 234 267 235
3 267 268 235
3 235 268 236
3 236 268 269
3 238 236 269
3 239 240 270
3 270 272 271
3 270 271 239
3 239 271 241
3 271 273 241
3 241 273 242
3 273 274 242
3 242 274 243
3 274 229 243
3 262 229 274
3 264 275 231
3 275 245 231
3 265 233 246
3 276 265 246
3 276 246 277
3 246 247 277
3 277 247 278
3 247 248 278
3 278 248 279
3 248 249 279
3 279 249 280
3 249 250 280
3 280 250 238
3 269 280 238
3 270 240 251
3 272 270 251
3 272 251 281
3 281 251 252
3 281 252 282
3 252 253 282
3 282 253 283
3 253 254 283
3 283 254 284
3 254 255 284
3 284 255 285
3 255 256 285
3 285 256 245
3 275 285 245
3 258 287 286
3 257 258 286
3 286 288 257
3 257 288 259
3 259 288 289
3 260 259 289
3 262 291 290
3 261 262 290
3 290 292 261
3 261 292 263
3 263 292 293
3 264 263 293
3 287 258 294
3 294 258 265
3 289 266 260
3 295 266 289
3 295 296 266
3 266 296 267
3 296 297 267
3 267 297 268
3 268 297 298
3 269 268 298
3 272 300 299
3 271 272 299
3 299 301 271
3 271 301 273
3 301 302 273
3 273 302 274
3 302 262 274
3 291 262 302
3 293 303 264
3 303 275 264
3 294 265 276
3 304 294 276
3 304 276 305
3 276 277 305
3 305 277 306
3 277 278 306
3 306 278 307
3 278 279 307
3 307 279 308
3 279 280 308
3 308 280 269
3 298 308 269
3 300 272 281
3 309 300 281
3 309 281 310
3 281 282 310
3 310 282 311
3 282 283 311
3 311 283 312
3 283 284 312
3 312 284 313
3 284 285 313
3 313 285 275
3 303 313 275
3 287 315 314
3 286 287 314
3 314 316 286
3 286 316 288
3 288 316 317
3 289 288 317
3 291 319 318
3 290 291 318
3 318 320 290
3 290 320 292
3 292 320 321
3 293 292 321
3 315 287 322
3 322 287 294
3 317 295 289
3 323 295 317
3 323 324 295
3 295 324 296
3 324 325 296
3 296 325 297
3 326 298 297
3 326 297 327
3 327 297 325
3 327 328 326
3 331 330 329
3 300 329 330
3 300 330 299
3 299 330 332
3 332 333 299
3 299 333 301
3 333 334 301
3 301 334 302
3 334 291 302
3 319 291 334
3 321 335 293
3 335 303 293
3 322 294 304
3 336 322 304
3 336 304 337
3 304 305 337
3 337 305 338
3 305 306 338
3 338 306 339
3 306 307 339
3 339 307 340
3 307 308 340
3 298 326 341
3 298 341 308
3 308 341 340
3 326 328 341
3 331 329 342
3 329 300 309
3 329 309 342
3 342 309 343
3 343 309 344
3 309 310 344
3 344 310 345
3 310 311 345
3 345 311 346
3 311 312 346
3 346 312 347
3 312 313 347
3 347 313 303
3 335 347 303
3 315 349 348
3 314 315 348
3 348 350 314
3 314 350 316
3 316 350 351
3 317 316 351
3 354 353 352
3 319 352 353
3 319 353 318
3 318 353 355
3 355 356 318
3 318 356 320
3 320 356 357
3 321 320 357
3 358 359 349
3 358 349 322
3 322 349 315
3 359 358 360
3 351 323 317
3 361 323 351
3 361 362 323
3 323 362 324
3 362 363 324
3 324 363 325
3 363 364 325
3 325 364 327
3 365 328 327
3 365 327 366
3 366 327 364
3 366 368 367
3 365 366 367
3 368 370 369
3 367 368 369
3 370 372 371
3 369 370 371
3 331 371 372
3 331 372 330
3 330 372 373
3 373 374 330
3 330 374 332
3 374 375 332
3 332 375 333
3 352 375 354
3 352 334 375
3 334 333 375
3 352 319 334
3 378 376 377
3 377 376 335
3 377 335 357
3 357 335 321
3 358 322 336
3 360 358 336
3 360 336 379
3 379 336 337
3 379 337 380
3 337 338 380
3 380 338 381
3 338 339 381
3 381 339 382
3 339 340 382
3 382 340 383
3 340 341 383
3 328 365 384
3 328 384 341
3 341 384 383
3 365 367 385
3 384 365 385
3 367 369 386
3 385 367 386
3 369 371 387
3 386 369 387
3 371 331 342
3 371 342 387
3 387 342 388
3 388 342 389
3 342 343 389
3 389 343 390
3 343 344 390
3 390 344 391
3 344 345 391
3 391 345 392
3 345 346 392
3 376 378 392
3 376 392 347
3 347 392 346
3 376 347 335
3 348 349 393
3 393 395 394
3 393 394 348
3 348 394 350
3 396 351 350
3 396 350 397
3 397 350 394
3 397 398 396
3 354 400 399
3 353 354 399
3 399 401 353
3 353 401 355
3 403 402 356
3 403 356 401
3 401 356 355
3 356 402 357
3 393 349 359
3 359 395 393
3 359 360 395
3 360 404 395
3 396 361 351
3 398 361 396
3 398 405 361
3 405 362 361
3 405 406 362
3 362 406 363
3 406 407 363
3 363 407 364
3 407 408 364
3 364 408 366
3 408 409 366
3 366 409 368
3 409 410 368
3 368 410 370
3 410 411 370
3 370 411 372
3 411 412 372
3 372 412 373
3 412 413 373
3 373 413 374
3 413 414 374
3 374 414 375
3 414 354 375
3 400 354 414
3 402 378 377
3 402 403 378
3 403 415 378
3 402 377 357
3 404 360 379
3 416 404 379
3 416 379 417
3 379 380 417
3 417 380 418
3 380 381 418
3 418 381 419
3 381 382 419
3 419 382 420
3 382 383 420
3 420 383 421
3 383 384 421
3 421 384 422
3 384 385 422
3 422 385 423
3 385 386 423
3 423 386 424
3 386 387 424
3 424 387 425
3 387 388 425
3 425 388 426
3 388 389 426
3 426 389 427
3 389 390 427
3 427 390 428
3 390 391 428
3 428 391 429
3 391 392 429
3 429 392 378
3 415 429 378
3 395 431 430
3 394 395 430
3 430 432 394
3 394 432 397
3 433 398 397
3 433 397 434
3 434 397 432
3 434 435 433
3 438 437 436
3 400 436 437
3 400 437 399
3 399 437 439
3 439 440 399
3 399 440 401
3 401 440 441
3 403 401 441
3 442 443 431
3 442 431 404
3 404 431 395
3 443 442 444
3 433 405 398
3 435 405 433
3 435 445 405
3 445 406 405
3 445 446 406
3 406 446 407
3 446 447 407
3 407 447 408
3 447 448 408
3 408 448 409
3 448 449 409
3 409 449 410
3 449 450 410
3 410 450 411
3 450 451 411
3 411 451 412
3 451 452 412
3 412 452 413
3 436 452 438
3 436 414 452
3 414 413 452
3 436 400 414
3 455 453 454
3 454 453 415
3 454 415 441
3 441 415 403
3 442 404 416
3 444 442 416
3 444 416 456
3 456 416 417
3 456 417 457
3 417 418 457
3 457 418 458
3 418 419 458
3 458 419 459
3 419 420 459
3 459 420 460
3 420 421 460
3 460 421 461
3 421 422 461
3 461 422 462
3 422 423 462
3 462 423 463
3 423 424 463
3 463 424 464
3 424 425 464
3 464 425 465
3 425 426 465
3 465 426 466
3 426 427 466
3 466 427 467
3 427 428 467
3 453 455 467
3 453 467 429
3 429 467 428
3 453 429 415
3 430 431 468
3 468 470 469
3 468 469 430
3 430 469 432
3 469 471 432
3 432 471 434
3 472 435 434
3 472 434 473
3 473 434 471
3 473 475 474
3 472 473 474
3 475 476 474
3 479 478 477
3 478 481 480
3 477 478 480
3 438 480 481
3 438 481 437
3 437 481 482
3 482 483 437
3 437 483 439
3 485 484 440
3 485 440 483
3 483 440 439
3 440 484 441
3 468 431 443
3 443 444 486
3 468 443 486
3 468 486 487
3 468 487 470
3 487 486 488
3 472 445 435
3 474 445 472
3 446 445 474
3 476 446 474
3 476 489 446
3 489 447 446
3 489 490 447
3 447 490 448
3 490 491 448
3 448 491 449
3 491 492 449
3 449 492 450
3 477 492 479
3 477 451 492
3 451 450 492
3 480 451 477
3 452 451 480
3 480 438 452
3 495 493 494
3 484 455 454
3 485 455 484
3 485 493 455
3 485 494 493
3 484 454 441
3 486 444 456
3 488 486 456
3 488 456 496
3 496 456 457
3 496 457 497
3 457 458 497
3 497 458 498
3 458 459 498
3 498 459 499
3 459 460 499
3 499 460 500
3 460 461 500
3 500 461 501
3 461 462 501
3 501 462 502
3 462 463 502
3 502 463 503
3 463 464 503
3 503 464 504
3 464 465 504
3 504 465 505
3 465 466 505
3 493 495 505
3 493 505 467
3 467 505 466
3 493 467 455
3 469 470 506
3 506 508 507
3 506 507 469
3 469 507 471
3 507 509 471
3 471 509 473
3 509 510 473
3 473 510 475
3 511 476 475
3 511 475 512
3 512 475 510
3 512 514 513
3 511 512 513
3 514 516 515
3 513 514 515
3 516 518 517
3 515 516 517
3 479 517 518
3 479 518 478
3 478 518 519
3 519 520 478
3 478 520 481
3 520 521 481
3 481 521 482
3 523 522 483
3 523 483 521
3 521 483 482
3 483 522 485
3 506 470 487
3 487 488 524
3 506 487 524
3 506 524 525
3 506 525 508
3 525 524 526
3 511 489 476
3 513 489 511
3 490 489 513
3 515 490 513
3 491 490 515
3 517 491 515
3 492 491 517
3 517 479 492
3 529 527 528
3 522 495 494
3 523 495 522
3 523 527 495
3 523 528 527
3 522 494 485
3 524 488 496
3 526 524 496
3 526 496 530
3 530 496 497
3 530 497 531
3 497 498 531
3 531 498 532
3 498 499 532
3 532 499 533
3 499 500 533
3 533 500 534
3 500 501 534
3 534 501 535
3 501 502 535
3 535 502 536
3 502 503 536
3 536 503 537
3 503 504 537
3 527 529 537
3 527 537 505
3 505 537 504
3 527 505 495
3 507 508 538
3 509 507 538
3 539 509 538
3 539 541 540
3 539 540 509
3 509 540 510
3 540 542 510
3 510 542 512
3 542 543 512
3 512 543 514
3 543 544 514
3 514 544 516
3 544 545 516
3 516 545 518
3 545 546 518
3 518 546 519
3 548 547 520
3 548 520 546
3 546 520 519
3 521 520 547
3 549 521 547
3 521 549 523
3 538 508 525
3 525 526 550
3 525 550 538
3 538 550 539
3 541 551 552
3 541 539 551
3 539 550 551
3 552 553 554
3 551 553 552
3 554 553 555
3 558 556 557
3 557 559 560
3 556 559 557
3 560 547 548
3 560 559 547
3 559 561 547
3 529 528 549
3 529 549 561
3 561 549 547
3 549 528 523
3 550 526 530
3 551 550 530
3 531 551 530
3 553 551 531
3 532 553 531
3 555 553 532
3 555 532 562
3 562 532 533
3 562 533 563
3 533 534 563
3 556 558 563
3 556 563 535
3 535 563 534
3 559 556 535
3 536 559 535
3 561 559 536
3 537 561 536
3 561 537 529
3 540 541 564
3 542 540 564
3 565 542 564
3 543 542 565
3 566 543 565
3 544 543 566
3 567 544 566
3 545 544 567
3 568 545 567
3 546 545 568
3 569 546 568
3 546 569 548
3 564 541 552
3 565 564 552
3 554 565 552
3 554 555 570
3 554 570 565
3 565 570 566
3 566 570 567
3 567 570 571
3 558 557 568
3 558 568 571
3 571 568 567
3 569 568 557
3 560 569 557
3 569 560 548
3 570 555 562
3 571 570 562
3 563 571 562
3 571 563 558
