ply
format ascii 1.0
element vertex 130
property float x
property float y
property float z
property uchar red
property uchar green
property uchar blue
element face 256
property list uchar int vertex_indices
end_header
-7.04367208480834961 8 -2 26 115 92
-7 7.96187400817871094 -2 78 154 92
-7 8 -2.26468777656555176 17 79 64
-7.10056972503662109 8 -1 22 107 79
-7 7.93227815628051758 -1 109 167 111
-7.07441806793212891 8 0 21 106 71
-7 7.94983911514282227 0 110 166 108
-7 8 0.724559783935546875 16 80 47
-7 8.61598777770996094 -2 16 79 58
-7 8.76111030578613281 -1 17 80 53
-7 8.70260524749755859 0 16 80 47
-6.20854377746582031 8 -4 21 91 80
-6 7.89026975631713867 -4 99 161 114
-6 8 -4.39747476577758789 15 74 65
-6.63323736190795898 8 -3 17 79 64
-6 7.87244939804077148 -3 157 210 152
-6 7.90824413299560547 -2 143 247 82
-6 7.93993949890136719 -1 167 255 59
-6 7.95146751403808594 0 185 255 62
-6.80817413330078125 8 1 14 77 41
-6 7.94423723220825195 1 186 243 89
-6.29416227340698242 8 2 13 76 36
-6 7.93975687026977539 2 178 203 151
-6 8 2.85184359550476074 19 81 31
-6 8.83729362487792969 -4 17 71 55
-6 8.88497638702392578 -3 25 85 58
-6 8.86154842376708984 -2 37 102 64
-6 8.80998611450195312 -1 45 112 66
-6 8.77498054504394531 0 43 111 59
-6 8.79096126556396484 1 32 99 45
-6 8.78479862213134766 2 19 81 31
-5.47974538803100586 8 -5 15 74 65
-5 7.86048603057861328 -5 117 170 128
-5 8 -5.49098920822143555 12 66 59
-5 7.89163780212402344 -4 132 241 108
-5 7.97912836074829102 -3 158 255 33
-5.44484329223632812 8 -2 37 102 64
-5 8 -2.75875234603881836 86 129 96
-5.68738698959350586 8 -1 45 112 66
-5.74834680557250977 8 0 43 111 59
-5.66650056838989258 8 1 32 99 45
-5.41666793823242188 8 2 19 81 31
-5.720703125 8 3 12 66 21
-5 7.97587299346923828 3 211 230 95
-5 8 2.61413192749023438 78 124 72
-5 8 3.89786958694458008 32 86 27
-5 8.87795066833496094 -5 15 67 52
-5 8.88016414642333984 -4 34 94 63
-5 8.61321067810058594 -3 86 129 96
-5 8.62073612213134766 3 32 86 27
-4.43699741363525391 8 -6 12 66 59
-4 7.87643051147460938 -6 71 146 92
-4 8 -6.2386016845703125 11 66 61
-4 7.88696575164794922 -5 144 235 128
-4.08893680572509766 8 -4 34 94 63
-4 8 -4.08558988571166992 27 86 57
-4.8839106559753418 8 -3 86 129 96
-4.80290317535400391 8 3 32 86 27
-4.61628150939941406 8 4 14 57 11
-4 7.9955902099609375 4 218 217 99
-4 8 3.95707869529724121 106 126 94
-4 8 4.08206844329833984 38 73 24
-4 8.85268974304199219 -6 10 55 44
-4 8.88452625274658203 -5 27 86 57
-4 8.23017787933349609 4 38 73 24
-3 7.85665750503540039 -6 184 189 183
-3 8 -6.73543834686279297 7 45 38
-3 7.97058725357055664 -5 141 255 61
-3 8 -4.83993005752563477 61 115 75
-3.94701194763183594 8 4 38 73 24
-3 8.89622402191162109 -6 13 61 41
-3 8.69091796875 -5 61 115 75
-2.5101618766784668 8 -7 7 45 38
-2 7.92289304733276367 -7 40 113 58
-2 8 -7.08928680419921875 10 62 53
-2 7.88954544067382812 -6 155 217 136
-2.64063191413879395 8 -5 61 115 75
-2 8 -5.34738922119140625 19 68 40
-2 8.76390552520751953 -7 5 34 25
-2 8.88216114044189453 -6 19 68 40
-1 7.89087295532226562 -7 53 117 59
-1 8 -7.16437816619873047 7 43 34
-1 7.91749191284179688 -6 152 225 105
-1 8 -5.57801246643066406 23 69 37
-1 8.8365631103515625 -7 4 25 17
-1 8.85414695739746094 -6 23 69 37
0 7.90157938003540039 -7 50 107 51
0 8 -7.14816188812255859 5 32 23
0 7.92448949813842773 -6 153 214 98
0 8 -5.61471796035766602 20 57 28
0 8.82207870483398438 -7 2 14 9
0 8.84276390075683594 -6 20 57 28
1 7.95909929275512695 -7 31 80 32
1 8 -7.04733514785766602 5 29 20
1 7.91141605377197266 -6 145 184 107
1 8 -5.48039960861206055 11 35 16
1 8.63246250152587891 -7 0 1 0
1 8.85731792449951172 -6 11 35 16
1.23149168491363525 8 -7 0 1 0
2 7.89762449264526367 -6 129 134 125
2 8 -6.51989269256591797 2 10 5
2 8 -5.04825687408447266 1 5 2
2 8.86084365844726562 -6 1 5 2
3 7.95145559310913086 -6 50 70 42
3 8 -6.09315395355224609 2 11 6
2.06955504417419434 8 -5 39 60 36
3 7.93816804885864258 -5 135 158 73
3 8 -4.50870609283447266 3 9 3
3 8.695770263671875 -6 5 22 9
3 8.80753993988037109 -5 3 9 3
3.15752863883972168 8 -6 5 22 9
4 7.94762086868286133 -5 67 72 62
4 8 -5.18181943893432617 8 34 14
3.60220718383789062 8 -4 56 61 52
4 7.95770788192749023 -4 137 143 52
4 8 -3.51419448852539062 2 5 2
4 8.73103904724121094 -5 9 32 10
4 8.7415924072265625 -4 2 5 2
4.16609525680541992 8 -5 9 32 10
4.8769526481628418 8 -4 2 5 2
4.57721138000488281 8 -3 28 30 25
5 7.96327066421508789 -3 89 88 47
5 8 -3.84675073623657227 21 51 17
4.93277120590209961 8 -2 58 61 49
5 7.98965215682983398 -2 126 93 28
5 8 -1.65308701992034912 15 20 10
5 8.68991374969482422 -3 23 37 16
5 8.41237735748291016 -2 15 20 10
5.16446876525878906 8 -3 23 37 16
5.12127494812011719 8 -2 15 20 10
3 2 1 0
3 1 4 3
3 0 1 3
3 4 6 5
3 3 4 5
3 6 7 5
3 2 0 8
3 0 3 9
3 8 0 9
3 3 5 10
3 9 3 10
3 5 7 10
3 13 12 11
3 12 15 14
3 11 12 14
3 2 14 15
3 2 15 1
3 1 15 16
3 16 17 1
3 1 17 4
3 17 18 4
3 4 18 6
3 19 7 6
3 19 6 20
3 20 6 18
3 20 22 21
3 19 20 21
3 22 23 21
3 13 11 24
3 11 14 25
3 24 11 25
3 14 2 8
3 14 8 25
3 25 8 26
3 26 8 27
3 8 9 27
3 27 9 28
3 9 10 28
3 7 19 29
3 7 29 10
3 10 29 28
3 19 21 30
3 29 19 30
3 21 23 30
3 33 32 31
3 13 31 32
3 13 32 12
3 12 32 34
3 34 35 12
3 12 35 15
3 37 36 16
3 37 16 35
3 35 16 15
3 17 16 36
3 38 17 36
3 18 17 38
3 39 18 38
3 20 18 39
3 40 20 39
3 22 20 40
3 41 22 40
3 42 23 22
3 42 22 43
3 41 44 22
3 44 43 22
3 43 45 42
3 33 31 46
3 31 13 24
3 31 24 46
3 46 24 47
3 47 24 48
3 24 25 48
3 36 37 48
3 36 48 26
3 26 48 25
3 38 36 26
3 27 38 26
3 39 38 27
3 28 39 27
3 40 39 28
3 29 40 28
3 41 40 29
3 30 41 29
3 23 42 49
3 23 49 30
3 44 41 49
3 41 30 49
3 42 45 49
3 52 51 50
3 33 50 51
3 33 51 32
3 32 51 53
3 55 54 34
3 55 34 53
3 53 34 32
3 35 34 54
3 56 35 54
3 35 56 37
3 43 44 57
3 58 45 43
3 58 43 59
3 57 60 43
3 60 59 43
3 59 61 58
3 52 50 62
3 50 33 46
3 50 46 62
3 62 46 63
3 54 55 63
3 54 63 47
3 47 63 46
3 56 54 47
3 48 56 47
3 56 48 37
3 57 44 49
3 45 58 64
3 45 64 49
3 60 57 64
3 57 49 64
3 58 61 64
3 52 66 65
3 51 52 65
3 65 67 51
3 51 67 53
3 53 67 68
3 55 53 68
3 59 60 69
3 59 69 61
3 66 52 62
3 70 66 62
3 70 62 71
3 62 63 71
3 71 63 55
3 68 71 55
3 69 60 64
3 69 64 61
3 74 73 72
3 66 72 73
3 66 73 65
3 65 73 75
3 77 76 67
3 77 67 75
3 75 67 65
3 67 76 68
3 74 72 78
3 72 66 70
3 72 70 78
3 78 70 79
3 76 77 79
3 76 79 71
3 71 79 70
3 76 71 68
3 74 81 80
3 73 74 80
3 80 82 73
3 73 82 75
3 75 82 83
3 77 75 83
3 81 74 78
3 84 81 78
3 84 78 85
3 78 79 85
3 85 79 77
3 83 85 77
3 81 87 86
3 80 81 86
3 86 88 80
3 80 88 82
3 82 88 89
3 83 82 89
3 87 81 84
3 90 87 84
3 90 84 91
3 84 85 91
3 91 85 83
3 89 91 83
3 87 93 92
3 86 87 92
3 92 94 86
3 86 94 88
3 88 94 95
3 89 88 95
3 93 87 90
3 96 93 90
3 96 90 97
3 90 91 97
3 97 91 89
3 95 97 89
3 92 93 98
3 98 100 99
3 98 99 92
3 92 99 94
3 94 99 101
3 95 94 101
3 98 93 96
3 100 98 96
3 100 96 102
3 102 96 97
3 102 97 95
3 101 102 95
3 100 104 103
3 99 100 103
3 105 101 99
3 105 99 106
3 106 99 103
3 106 107 105
3 104 100 102
3 108 104 102
3 101 105 109
3 101 109 102
3 102 109 108
3 105 107 109
3 103 104 110
3 110 112 111
3 110 111 103
3 103 111 106
3 113 107 106
3 113 106 114
3 114 106 111
3 114 115 113
3 110 104 108
3 112 110 108
3 112 108 116
3 116 108 109
3 107 113 117
3 107 117 109
3 109 117 116
3 113 115 117
3 111 112 118
3 114 111 118
3 119 114 118
3 120 115 114
3 120 114 121
3 119 122 114
3 122 121 114
3 121 124 123
3 120 121 123
3 124 125 123
3 118 112 116
3 119 118 116
3 117 119 116
3 115 120 126
3 115 126 117
3 122 119 126
3 119 117 126
3 120 123 127
3 126 120 127
3 123 125 127
3 121 122 128
3 124 121 128
3 129 124 128
3 124 129 125
3 128 122 126
3 129 128 126
3 127 129 126
3 129 127 125
