ply
format ascii 1.0
element vertex 94
property float x
property float y
property float z
property uchar red
property uchar green
property uchar blue
element face 184
property list uchar int vertex_indices
end_header
-2.5623016357421875 8 -3 204 209 201
-2 7.60282516479492188 -3 132 164 152
-2 8 -3.79693508148193359 210 212 209
-2.89193010330200195 8 -2 205 211 199
-2 7.3703150749206543 -2 126 159 153
-2.83687496185302734 8 -1 212 210 196
-2 7.40908432006835938 -1 126 163 143
-2.39936137199401855 8 0 208 189 188
-2 7.71778440475463867 0 141 170 128
-2 8 0.489778012037277222 213 208 195
-2 8.78654575347900391 -3 208 214 209
-2 8.8524932861328125 -2 206 215 207
-2 8.84455585479736328 -1 208 216 203
-2 8.72458171844482422 0 213 208 195
-1.16861367225646973 7 -2 126 159 153
-1 6.91737222671508789 -2 52 64 80
-1 7 -2.31987261772155762 141 173 173
-1.08145797252655029 7 -1 126 163 143
-1 6.96006584167480469 -1 49 64 77
-1 7 -0.8841591477394104 134 171 165
-1.7675623893737793 8 -4 210 212 209
-1 7.66676473617553711 -4 155 187 161
-1 8 -4.43195486068725586 205 205 204
-1 7.1613316535949707 -3 141 173 173
-1 7.27864837646484375 0 134 176 138
-1.32751643657684326 8 1 204 188 183
-1 7.85764074325561523 1 177 181 134
-1 8 1.16745364665985107 206 191 186
-1 8.75613021850585938 -4 214 215 214
-1 8.88397884368896484 -3 213 216 215
-1 8.90618705749511719 -2 211 218 215
-1 8.90312480926513672 -1 207 218 207
-1 8.86826038360595703 0 211 215 199
-1 8.57169151306152344 1 206 191 186
-0.0604432672262191772 7 -3 141 173 173
0 6.98873281478881836 -3 71 98 106
0 7 -3.02003335952758789 162 194 171
0 6.73060321807861328 -2 59 69 89
0 6.77349853515625 -1 55 67 85
0 7 -0.342309176921844482 142 179 179
0 7.49939250946044922 -4 162 194 171
0 8 -4.64913415908813477 201 201 198
0 7.10799264907836914 0 140 182 153
0 7.69149017333984375 1 171 185 138
0 8 1.3629835844039917 204 194 186
0 8.822174072265625 -4 214 214 214
0 8.900970458984375 -3 215 217 217
0 8.91746330261230469 -2 213 218 217
0 8.915130615234375 -1 208 218 210
0 8.88987159729003906 0 207 214 200
0 8.74180030822753906 1 204 194 186
0.0987767800688743591 7 -3 150 178 182
1 6.84527444839477539 -2 68 82 102
1 7 -2.59957647323608398 157 189 189
1 6.88803577423095703 -1 61 77 95
1 7 -0.674936473369598389 149 187 185
1 7.60204744338989258 -4 166 198 171
1 8 -4.51591587066650391 189 188 186
1 7.09500980377197266 -3 157 189 189
1 7.21277046203613281 0 146 188 157
1 7.79336166381835938 1 174 187 141
1 8 1.24311220645904541 196 187 180
1 8.78689193725585938 -4 207 209 207
1 8.89123630523681641 -3 214 215 214
1 8.91092205047607422 -2 212 216 215
1 8.90817832946777344 -1 206 214 208
1 8.87760257720947266 0 203 208 196
1 8.65901374816894531 1 196 187 180
1.37148833274841309 7 -2 151 177 185
1.26869988441467285 7 -1 149 187 185
2 7.97151708602905273 -4 174 196 166
2 8 -4.03689718246459961 166 162 162
2 7.47286272048950195 -3 161 193 181
2 7.23892927169799805 -2 155 190 188
2 7.27796220779418945 -1 152 190 179
2 7.58843326568603516 0 148 190 148
1.55929994583129883 8 1 196 187 180
2 8 0.714769601821899414 193 195 185
2 8.21155643463134766 -4 194 195 193
2 8.82942962646484375 -3 206 206 206
2 8.87408638000488281 -2 205 208 206
2 8.86839485168457031 -1 198 205 198
2 8.79236507415771484 0 193 195 185
2.04441308975219727 8 -4 194 195 193
2.82329607009887695 8 -3 206 206 206
3 7.88216829299926758 -2 153 187 167
3 8 -2.51453971862792969 185 185 185
3 7.92015171051025391 -1 149 186 157
2.64253425598144531 8 0 193 195 185
3 8 -0.738771021366119385 182 185 179
3 8.52521038055419922 -2 188 190 188
3 8.42880535125732422 -1 182 185 179
3.12873482704162598 8 -2 188 190 188
3.0872349739074707 8 -1 182 185 179
3 2 1 0
3 1 4 3
3 0 1 3
3 4 6 5
3 3 4 5
3 6 8 7
3 5 6 7
3 8 9 7
3 2 0 10
3 0 3 11
3 10 0 11
3 3 5 12
3 11 3 12
3 5 7 13
3 12 5 13
3 7 9 13
3 16 15 14
3 15 18 17
3 14 15 17
3 18 19 17
3 22 21 20
3 2 20 21
3 2 21 1
3 1 21 23
3 14 23 16
3 14 4 23
3 4 1 23
3 17 4 14
3 6 4 17
3 19 6 17
3 19 24 6
3 24 8 6
3 25 9 8
3 25 8 26
3 26 8 24
3 26 27 25
3 22 20 28
3 20 2 10
3 20 10 28
3 28 10 29
3 29 10 30
3 10 11 30
3 30 11 31
3 11 12 31
3 31 12 32
3 12 13 32
3 9 25 33
3 9 33 13
3 13 33 32
3 25 27 33
3 36 35 34
3 16 34 35
3 16 35 15
3 15 35 37
3 37 38 15
3 15 38 18
3 18 38 39
3 19 18 39
3 22 41 40
3 21 22 40
3 34 40 36
3 34 23 40
3 23 21 40
3 34 16 23
3 39 24 19
3 42 24 39
3 42 43 24
3 24 43 26
3 26 43 44
3 27 26 44
3 41 22 28
3 45 41 28
3 45 28 46
3 28 29 46
3 46 29 47
3 29 30 47
3 47 30 48
3 30 31 48
3 48 31 49
3 31 32 49
3 49 32 50
3 32 33 50
3 50 33 27
3 44 50 27
3 35 36 51
3 51 53 52
3 51 52 35
3 35 52 37
3 52 54 37
3 37 54 38
3 38 54 55
3 39 38 55
3 41 57 56
3 40 41 56
3 36 58 51
3 36 40 58
3 40 56 58
3 51 58 53
3 55 42 39
3 59 42 55
3 59 60 42
3 42 60 43
3 43 60 61
3 44 43 61
3 57 41 45
3 62 57 45
3 62 45 63
3 45 46 63
3 63 46 64
3 46 47 64
3 64 47 65
3 47 48 65
3 65 48 66
3 48 49 66
3 66 49 67
3 49 50 67
3 67 50 44
3 61 67 44
3 52 53 68
3 54 52 68
3 69 54 68
3 54 69 55
3 57 71 70
3 56 57 70
3 70 72 56
3 56 72 58
3 53 73 68
3 53 58 73
3 58 72 73
3 68 74 69
3 73 74 68
3 69 59 55
3 69 74 59
3 74 75 59
3 77 76 60
3 77 60 75
3 75 60 59
3 60 76 61
3 71 57 62
3 78 71 62
3 78 62 79
3 62 63 79
3 79 63 80
3 63 64 80
3 80 64 81
3 64 65 81
3 81 65 82
3 65 66 82
3 76 77 82
3 76 82 67
3 67 82 66
3 76 67 61
3 70 71 83
3 72 70 83
3 84 72 83
3 84 86 85
3 84 85 72
3 72 85 73
3 85 87 73
3 73 87 74
3 89 88 75
3 89 75 87
3 87 75 74
3 75 88 77
3 83 71 78
3 84 83 78
3 79 84 78
3 86 84 79
3 86 79 90
3 90 79 80
3 90 80 91
3 80 81 91
3 88 89 91
3 88 91 82
3 82 91 81
3 88 82 77
3 85 86 92
3 87 85 92
3 93 87 92
3 87 93 89
3 92 86 90
3 93 92 90
3 91 93 90
3 93 91 89
