ply
format ascii 1.0
element vertex 178
property float x
property float y
property float z
property uchar red
property uchar green
property uchar blue
element face 348
property list uchar int vertex_indices
end_header
-3.27591848373413086 -9 -2 166 237 255
-3 -9.44853591918945312 -2 182 217 255
-3 -9 -2.84976577758789062 199 255 248
-3.21181440353393555 -9 -1 150 222 255
-3 -9.38494396209716797 -1 162 197 255
-3 -9 -0.533243000507354736 163 248 255
-3 -8.37915802001953125 -2 179 255 250
-3 -8.52337932586669922 -1 163 248 255
-3.09634900093078613 8 -3 255 249 251
-3 7.78161239624023438 -3 249 239 255
-3 8 -3.13660550117492676 255 239 247
-3.41471576690673828 8 -2 255 254 254
-3 7.05951976776123047 -2 254 253 255
-3.34866929054260254 8 -1 255 247 249
-3 7.20908355712890625 -1 252 244 255
-3 8 -0.223905384540557861 255 254 254
-3 8.22515773773193359 -3 255 242 250
-3 8.55261993408203125 -2 255 248 252
-3 8.51010990142822266 -1 255 254 254
-2.91814565658569336 -9 -3 199 255 248
-2 -9.61729049682617188 -3 220 242 255
-2 -9 -3.76968860626220703 239 255 251
-2 -9.71805286407470703 -2 195 231 255
-2 -9.70267963409423828 -1 174 215 255
-2.59579849243164062 -9 0 145 226 255
-2 -9.51313304901123047 0 153 189 255
-2 -9 0.42200961709022522 154 243 255
-2.17644858360290527 -8 -3 193 255 215
-2 -8 -3.14775872230529785 228 255 234
-2.71824836730957031 -8 -2 179 255 211
-2.61107707023620605 -8 -1 167 255 217
-2 -8.19352626800537109 0 154 243 255
-2 -8 -0.189766138792037964 176 255 210
-2 -7.72506380081176758 -3 205 255 216
-2.07544589042663574 -7 -2 190 255 187
-2 -7 -2.13967728614807129 215 255 201
-2 -7.04772186279296875 -1 176 255 210
-2 -7 -1.28624272346496582 202 255 191
-2 -6.86149024963378906 -2 202 255 191
-2.31244301795959473 6 -2 240 240 255
-2 5.43433904647827148 -2 232 248 255
-2 6 -2.59559440612792969 252 252 255
-2.20485186576843262 6 -1 232 228 255
-2 5.62885189056396484 -1 220 239 255
-2 6 -0.723768949508666992 233 232 255
-2.4276282787322998 7 -3 249 239 255
-2 6.33183956146240234 -3 252 252 255
-2 7 -3.36756134033203125 243 226 255
-2.95642614364624023 7 -2 254 253 255
-2.84699106216430664 7 -1 252 244 255
-2.10454940795898438 7 0 254 233 255
-2 6.83638477325439453 0 229 221 255
-2 7 0.0755682438611984253 252 237 255
-2.00095820426940918 8 -4 255 239 247
-2 7.99868392944335938 -4 243 226 255
-2 8 -4.00052928924560547 255 232 240
-2.83331608772277832 8 0 255 244 247
-2 8 0.602973818778991699 255 249 252
-2 8.00175857543945312 -4 255 234 246
-2 8.67511749267578125 -3 255 237 250
-2 8.74996757507324219 -2 255 242 251
-2 8.73756599426269531 -1 255 250 253
-2 8.60029888153076172 0 255 249 252
-1.26398169994354248 -9 -4 239 255 251
-1 -9.14756011962890625 -4 252 253 255
-1 -9 -4.05217123031616211 232 255 254
-1 -9.69181060791015625 -3 223 242 255
-1 -9.75998783111572266 -2 199 232 255
-1 -9.74891471862792969 -1 179 217 255
-1 -9.62750911712646484 0 158 192 255
-1 -9 0.680798709392547607 159 246 255
-1 -8.87077140808105469 -4 243 255 253
-1 -8 -3.44698500633239746 236 255 241
-1.59583592414855957 -8 0 159 255 220
-1 -8 0.148059248924255371 163 255 218
-1 -7.17859983444213867 -3 213 255 223
-1 -7 -2.78595709800720215 221 255 210
-1.91257607936859131 -7 -1 181 255 180
-1 -7.67580795288085938 0 163 255 218
-1 -7 -0.57911837100982666 186 255 184
-1 -6.22212362289428711 -2 207 255 197
-1 -6.41755104064941406 -1 186 255 184
-1.33338487148284912 5 -2 232 248 255
-1 4.74432992935180664 -2 229 255 247
-1 5 -2.22743749618530273 250 254 255
-1.03593575954437256 5 -1 220 239 255
-1 4.97240066528320312 -1 216 255 250
-1 5 -0.982621312141418457 225 242 255
-1.41363894939422607 6 -3 252 252 255
-1 5.73141956329345703 -3 250 254 255
-1 6 -3.1279137134552002 231 234 255
-1 6 -0.234921783208847046 238 238 255
-1 7 -3.68319582939147949 241 221 255
-1 6.27042531967163086 0 232 227 255
-1 7 0.338263571262359619 252 242 255
-1 7.4981846809387207 -4 241 221 255
-1 8 -4.20265674591064453 255 227 237
-1 8 0.872425377368927002 255 253 254
-1 8.40056896209716797 -4 255 229 244
-1 8.73152065277099609 -3 255 232 248
-1 8.78433990478515625 -2 255 238 250
-1 8.77525615692138672 -1 255 245 251
-1 8.68285751342773438 0 255 253 254
-0.597207069396972656 -9 -4 243 255 253
0 -9.64630317687988281 -3 212 231 255
0 -9 -3.87684130668640137 231 254 255
0 -9.73367214202880859 -2 192 219 255
0 -9.71990585327148438 -1 174 202 255
0 -9.55845069885253906 0 155 173 255
0 -9 0.508276402950286865 160 229 255
0 -8 -3.24464154243469238 226 255 239
-0.125273987650871277 -8 0 163 255 218
0 -8.04051017761230469 0 160 229 255
0 -8 -0.0401724278926849365 183 255 225
0 -7.55135726928710938 -3 208 255 228
0 -7 -2.33536338806152344 210 255 207
0 -7 -0.902840197086334229 188 255 198
0 -6.67301845550537109 -2 198 255 199
0 -6.86707878112792969 -1 188 255 198
-0.532101333141326904 5 -2 237 250 255
-0.949638903141021729 5 -1 225 242 255
-0.413536280393600464 6 -3 246 247 255
0 5.24647808074951172 -2 239 248 255
0 6 -2.7980952262878418 245 245 255
0 5.44098472595214844 -1 227 239 255
0 6 -0.581903517246246338 242 239 255
0 6.16505813598632812 -3 245 245 255
0 7 -3.46080708503723145 244 216 255
0 6.67051076889038086 0 238 228 255
0 7 0.152637213468551636 254 243 255
0 7.84995651245117188 -4 244 216 255
0 8 -4.06045436859130859 255 221 229
0 8 0.682249188423156738 255 250 252
0 8.16706275939941406 -4 255 223 238
0 8.69421863555908203 -3 255 227 243
0 8.76125526428222656 -2 255 232 246
0 8.74998664855957031 -1 255 240 247
0 8.62889957427978516 0 255 250 252
1 -9.21484375 -3 203 211 255
1 -9 -3.12856864929199219 220 243 255
1 -9.54988002777099609 -2 186 196 255
1 -9.50818252563476562 -1 170 176 255
0.808137774467468262 -9 0 160 229 255
1 -9 -0.225166141986846924 176 225 255
0.328355878591537476 -8 -3 208 255 228
1 -8.79505634307861328 -3 202 241 255
0.938148319721221924 -8 -2 195 255 223
1 -8.07320880889892578 -2 189 236 255
0.815755724906921387 -8 -1 183 255 225
1 -8.21806240081787109 -1 176 225 255
0.203247532248497009 -7 -2 198 255 199
0.0826226696372032166 -7 -1 188 255 198
0.469265162944793701 6 -2 251 251 255
0.347909420728683472 6 -1 242 239 255
0.600865721702575684 7 -3 246 230 255
1 6.73390769958496094 -2 253 253 255
1 7 -2.32541346549987793 253 228 255
1 6.90213203430175781 -1 247 241 255
0.236799895763397217 7 0 254 243 255
1 7 -0.915545344352722168 255 253 254
0.122614875435829163 8 -4 255 223 238
1 7.48672723770141602 -3 253 228 255
1 8 -3.32154059410095215 255 219 227
1 7.93156003952026367 0 255 245 252
1 8 0.0359916910529136658 255 248 248
1 8.40482616424560547 -3 255 223 233
1 8.61821365356445312 -2 255 228 237
1 8.58780574798583984 -1 255 236 241
1 8.08370494842529297 0 255 248 248
1.09906303882598877 -9 -3 202 241 255
1.44789791107177734 -9 -2 189 236 255
1.3778998851776123 -9 -1 176 225 255
1.11066257953643799 7 -2 254 241 255
1.04068779945373535 7 -1 255 253 254
1.24285924434661865 8 -3 255 223 233
1.5855107307434082 8 -2 255 228 237
1.51426529884338379 8 -1 255 236 241
1.03236222267150879 8 0 255 248 248
3 2 1 0
3 1 4 3
3 0 1 3
3 4 5 3
3 2 0 6
3 0 3 7
3 6 0 7
3 3 5 7
3 10 9 8
3 9 12 11
3 8 9 11
3 12 14 13
3 11 12 13
3 14 15 13
3 10 8 16
3 8 11 17
3 16 8 17
3 11 13 18
3 17 11 18
3 13 15 18
3 21 20 19
3 2 19 20
3 2 20 1
3 1 20 22
3 22 23 1
3 1 23 4
3 24 5 4
3 24 4 25
3 25 4 23
3 25 26 24
3 28 21 19
3 27 28 19
3 6 19 2
3 6 29 19
3 29 27 19
3 7 29 6
3 30 29 7
3 30 31 32
3 7 31 30
3 7 24 31
3 7 5 24
3 24 26 31
3 28 27 33
3 35 33 27
3 35 27 34
3 34 27 29
3 36 37 34
3 36 34 30
3 30 34 29
3 30 32 36
3 35 34 38
3 34 37 38
3 41 40 39
3 40 43 42
3 39 40 42
3 43 44 42
3 47 46 45
3 46 41 39
3 46 39 45
3 45 39 48
3 39 42 48
3 42 49 48
3 44 51 50
3 44 50 42
3 42 50 49
3 51 52 50
3 55 54 53
3 45 9 10
3 47 45 10
3 47 10 53
3 47 53 54
3 48 9 45
3 12 9 48
3 49 12 48
3 14 12 49
3 14 56 15
3 14 49 56
3 49 50 56
3 52 57 56
3 50 52 56
3 55 53 58
3 53 10 16
3 53 16 58
3 58 16 59
3 59 16 60
3 16 17 60
3 60 17 61
3 17 18 61
3 15 56 62
3 15 62 18
3 18 62 61
3 56 57 62
3 65 64 63
3 21 63 64
3 21 64 20
3 20 64 66
3 66 67 20
3 20 67 22
3 67 68 22
3 22 68 23
3 68 69 23
3 23 69 25
3 25 69 70
3 26 25 70
3 65 63 71
3 63 72 71
3 63 21 72
3 21 28 72
3 31 73 32
3 73 31 26
3 73 26 74
3 74 26 70
3 72 28 33
3 75 72 33
3 33 76 75
3 35 76 33
3 36 77 37
3 77 78 79
3 36 78 77
3 36 73 78
3 36 32 73
3 73 74 78
3 76 35 38
3 80 76 38
3 37 77 81
3 37 81 38
3 38 81 80
3 77 79 81
3 84 83 82
3 83 86 85
3 82 83 85
3 86 87 85
3 90 89 88
3 82 40 41
3 84 82 41
3 84 41 88
3 84 88 89
3 85 40 82
3 43 40 85
3 43 85 87
3 43 87 44
3 44 87 91
3 88 46 47
3 88 47 90
3 90 47 92
3 88 41 46
3 91 51 44
3 93 51 91
3 51 93 94
3 52 51 94
3 55 96 95
3 54 55 95
3 95 47 54
3 92 47 95
3 94 97 52
3 97 57 52
3 96 55 58
3 98 96 58
3 98 58 99
3 58 59 99
3 99 59 100
3 59 60 100
3 100 60 101
3 60 61 101
3 101 61 102
3 61 62 102
3 102 62 57
3 97 102 57
3 64 65 103
3 103 105 104
3 103 104 64
3 64 104 66
3 104 106 66
3 66 106 67
3 106 107 67
3 67 107 68
3 107 108 68
3 68 108 69
3 69 108 109
3 70 69 109
3 103 65 71
3 71 105 103
3 71 72 105
3 72 110 105
3 113 111 112
3 112 111 74
3 112 74 109
3 109 74 70
3 110 72 75
3 114 110 75
3 75 115 114
3 76 115 75
3 111 79 78
3 111 113 79
3 113 116 79
3 111 78 74
3 115 76 80
3 117 115 80
3 117 80 118
3 80 81 118
3 118 81 79
3 116 118 79
3 83 84 119
3 86 83 119
3 120 86 119
3 86 120 87
3 89 90 121
3 121 123 122
3 89 121 122
3 89 122 119
3 89 119 84
3 119 124 120
3 122 124 119
3 120 124 125
3 120 125 87
3 87 125 91
3 126 121 90
3 126 90 127
3 127 90 92
3 121 126 123
3 125 93 91
3 128 93 125
3 93 128 129
3 94 93 129
3 96 131 130
3 95 96 130
3 130 92 95
3 127 92 130
3 129 132 94
3 132 97 94
3 131 96 98
3 133 131 98
3 133 98 134
3 98 99 134
3 134 99 135
3 99 100 135
3 135 100 136
3 100 101 136
3 136 101 137
3 101 102 137
3 137 102 97
3 132 137 97
3 105 139 138
3 104 105 138
3 138 140 104
3 104 140 106
3 140 141 106
3 106 141 107
3 143 142 108
3 143 108 141
3 141 108 107
3 108 142 109
3 144 145 139
3 144 139 110
3 110 139 105
3 145 146 147
3 144 146 145
3 147 148 149
3 146 148 147
3 142 113 112
3 143 113 142
3 143 148 113
3 143 149 148
3 142 112 109
3 144 110 114
3 114 115 150
3 114 150 144
3 144 150 146
3 146 150 148
3 148 150 151
3 148 151 116
3 113 148 116
3 150 115 117
3 151 150 117
3 118 151 117
3 151 118 116
3 122 123 152
3 124 122 152
3 153 124 152
3 124 153 125
3 126 127 154
3 154 156 155
3 126 154 155
3 126 155 152
3 126 152 123
3 152 157 153
3 155 157 152
3 159 158 128
3 157 159 128
3 157 128 125
3 157 125 153
3 128 158 129
3 130 131 160
3 160 162 161
3 130 160 161
3 130 161 154
3 130 154 127
3 154 161 156
3 159 163 158
3 158 163 164
3 158 164 129
3 129 164 132
3 160 131 133
3 162 160 133
3 162 133 165
3 165 133 134
3 165 134 166
3 134 135 166
3 166 135 167
3 135 136 167
3 167 136 168
3 136 137 168
3 168 137 132
3 164 168 132
3 138 139 169
3 140 138 169
3 170 140 169
3 141 140 170
3 171 141 170
3 141 171 143
3 169 139 145
3 170 169 145
3 147 170 145
3 171 170 147
3 149 171 147
3 171 149 143
3 155 156 172
3 157 155 172
3 173 157 172
3 157 173 159
3 161 162 174
3 156 161 174
3 156 174 172
3 172 174 175
3 172 175 173
3 173 175 176
3 163 159 173
3 163 173 177
3 177 173 176
3 163 177 164
3 174 162 165
3 175 174 165
3 166 175 165
3 176 175 166
3 167 176 166
3 177 176 167
3 168 177 167
3 177 168 164
