ply
format ascii 1.0
element vertex 516
property float x
property float y
property float z
property uchar red
property uchar green
property uchar blue
element face 1016
property list uchar int vertex_indices
end_header
-9.81998538970947266 -9 -9 255 223 182
-9 -9.81998538970947266 -9 255 224 179
-9 -9 -9.81998538970947266 255 228 182
-9 -9 -8.25381278991699219 255 234 193
-9.84943962097167969 -9 8 255 227 147
-9 -9.84943962097167969 8 255 225 142
-9 -9 7.08181905746459961 255 202 156
-9 -9 8.84943962097167969 255 219 151
-9.82935810089111328 -8 -9 255 232 195
-9 -8 -9.82935810089111328 255 236 195
-9 -8 -8.20023727416992188 255 242 206
-9.85594463348388672 -8 8 255 224 156
-9 -8 7.02855825424194336 255 203 165
-9 -8 8.85594463348388672 255 217 160
-9.83797836303710938 -7 -9 255 238 207
-9 -7 -9.83797836303710938 255 242 206
-9 -7 -8.14496612548828125 255 246 218
-9.13844966888427734 -7 7 255 210 171
-9 -7.47916412353515625 7 255 203 165
-9 -7 6.97219944000244141 255 197 180
-9.86203479766845703 -7 8 255 223 165
-9 -7 8.86203479766845703 255 218 169
-9.84592533111572266 -6 -9 255 242 217
-9 -6 -9.84592533111572266 255 246 216
-9 -6 -8.08797550201416016 255 249 228
-9.33477401733398438 -6 7 255 215 182
-9 -6 6.91255855560302734 255 205 191
-9.86774253845214844 -6 8 255 224 174
-9 -6 8.86774253845214844 255 221 177
-9.85326576232910156 -5 -9 255 245 226
-9 -5 -9.85326576232910156 255 248 225
-9 -5 -8.02923774719238281 255 251 237
-9.46029281616210938 -5 7 255 221 192
-9 -5 6.85114526748657227 255 213 202
-9.87309741973876953 -5 8 255 228 182
-9 -5 8.87309741973876953 255 225 186
-9.86006259918212891 -4 -9 255 247 233
-9 -4 -9.86006259918212891 255 249 233
-9.15710926055908203 -4 -8 255 251 244
-9 -4.51556634902954102 -8 255 253 247
-9 -4 -7.96690034866333008 255 254 254
-9.54738616943359375 -4 7 255 228 202
-9 -4 6.7879338264465332 255 222 212
-9.87812709808349609 -4 8 255 234 192
-9 -4 8.87812709808349609 255 230 193
-9.86636734008789062 -3 -9 255 249 239
-9 -3 -9.86636734008789062 255 250 239
-9.35685253143310547 -3 -8 255 253 250
-9 -3 -7.90100526809692383 255 253 248
-9.61130714416503906 -3 7 255 235 212
-9 -3 6.72289848327636719 255 231 222
-9.88285636901855469 -3 8 255 239 201
-9 -3 8.88285636901855469 255 235 201
-9.87222671508789062 -2 -9 255 250 243
-9 -2 -9.87222671508789062 255 250 243
-9.48189449310302734 -2 -8 255 254 254
-9 -2 -7.83324718475341797 255 252 243
-9.66017818450927734 -2 7 255 241 220
-9 -2 6.65601158142089844 255 238 230
-9.88730621337890625 -2 8 255 244 209
-9 -2 8.88730621337890625 255 241 209
-9.87768173217773438 -1 -9 255 250 246
-9 -1 -9.87768173217773438 255 251 246
-9.56747817993164062 -1 -8 255 253 252
-9 -1 -7.76359748840332031 255 250 240
-9.69872665405273438 -1 7 255 246 228
-9 -1 6.58724260330200195 255 245 238
-9.89149856567382812 -1 8 255 249 217
-9 -1 8.89149856567382812 255 246 217
-9.88276958465576172 0 -9 255 250 248
-9 0 -9.88276958465576172 255 251 247
-9.62969112396240234 0 -8 255 252 250
-9 0 -7.69202661514282227 255 247 239
-9.72988605499267578 0 7 255 250 235
-9 0 6.51656246185302734 255 250 245
-9.89545059204101562 0 8 255 254 224
-9 0 8.89545059204101562 255 250 224
-9.88752174377441406 1 -9 255 249 247
-9 1 -9.88752174377441406 255 249 247
-9.67692470550537109 1 -8 255 252 251
-9 1 -7.61850166320800781 255 246 239
-9.75557899475097656 1 7 255 253 240
-9 1 6.44393730163574219 255 253 251
-9.89918136596679688 1 8 252 255 230
-9 1 8.89918136596679688 255 254 230
-9.89196681976318359 2 -9 255 247 246
-9 2 -9.89196681976318359 255 247 245
-9.71398162841796875 2 -8 255 253 252
-9 2 -7.54299020767211914 255 244 240
-9.77711105346679688 2 7 254 255 245
-9 2 6.36933422088623047 255 254 253
-9.90270423889160156 2 8 249 255 235
-9 2 8.90270423889160156 252 255 235
-9.89613151550292969 3 -9 255 243 242
-9 3 -9.89613151550292969 255 242 242
-9.74381256103515625 3 -8 255 254 254
-9 3 -7.46545648574829102 255 245 244
-9.79540538787841797 3 7 253 255 248
-9 3 6.29271650314331055 255 254 249
-9.90603542327880859 3 8 247 255 238
-9 3 8.90603542327880859 250 255 239
-9.90003871917724609 4 -9 255 241 237
-9 4 -9.90003871917724609 255 239 237
-9.7683258056640625 4 -8 255 250 249
-9 4 -7.38586330413818359 255 249 248
-9.81113147735595703 4 7 252 255 249
-9 4 6.21404743194580078 254 255 248
-9.90918731689453125 4 8 245 255 240
-9 4 8.90918731689453125 248 255 242
-9.90370845794677734 5 -9 255 241 231
-9 5 -9.90370845794677734 255 239 230
-9.78881549835205078 5 -8 255 247 242
-9 5 -7.30417251586914062 255 254 254
-9.82478523254394531 5 7 251 255 249
-9 5 6.13328695297241211 252 255 247
-9.91217231750488281 5 8 241 255 240
-9 5 8.91217231750488281 246 255 243
-9.90715980529785156 6 -9 255 244 223
-9 6 -9.90715980529785156 255 241 222
-9.80618572235107422 6 -8 255 247 234
-9 6 -7.22034263610839844 255 251 246
-9.83674430847167969 6 7 247 255 247
-9 6 6.05039358139038086 251 255 249
-9.91500091552734375 6 8 238 255 240
-9 6 8.91500091552734375 243 255 242
-9.91041088104248047 7 -9 255 251 213
-9 7 -9.91041088104248047 255 248 213
-9.82108974456787109 7 -8 255 251 225
-9 7 -7.13433074951171875 255 250 237
-9.15679931640625 7 6 250 255 250
-9 6.59393548965454102 6 251 255 249
-9 7 5.96234655380249023 249 255 246
-9.84729862213134766 7 7 242 255 244
-9.91768455505371094 7 8 234 255 241
-9 7 8.91768455505371094 239 255 243
-9.91347503662109375 8 -9 246 255 202
-9 8 -9.91347503662109375 249 255 202
-9.83401107788085938 8 -8 248 255 214
-9 8 -7.04609251022338867 253 255 226
-9.39385604858398438 8 6 243 255 246
-9 8 5.86764430999755859 252 255 252
-9.85667705535888672 8 7 236 255 243
-9.92023181915283203 8 8 228 255 243
-9 8 8.92023181915283203 235 255 244
-9 8.91347503662109375 -9 252 255 214
-9 8.83401107788085938 -8 253 255 226
-9 8.39385604858398438 6 250 255 251
-9 8.85667705535888672 7 243 255 246
-9 8.92023181915283203 8 235 255 244
-8.27584362030029297 -9 -9 255 234 193
-8.08840847015380859 -9 8 255 219 151
-8.22385597229003906 -8 -9 255 242 206
-8.03553199768066406 -8 8 255 217 160
-8.17022514343261719 -7 -9 255 246 218
-8.97592926025390625 -7 7 255 206 174
-8 -7.34768104553222656 8 255 212 164
-8 -7 7.98240804672241211 255 202 178
-8 -7 8.10448074340820312 255 214 173
-8.11492443084716797 -6 -9 255 249 228
-8.92429351806640625 -6 7 255 210 182
-8 -6 7.93042707443237305 255 207 187
-8 -6 8.31479835510253906 255 217 181
-8.05792999267578125 -5 -9 255 251 237
-8.87112617492675781 -5 7 255 217 192
-8 -5 7.87690591812133789 255 213 195
-8 -5 8.44728183746337891 255 222 190
-8 -4.01330709457397461 -9 255 254 247
-8 -4 -9.00479984283447266 255 253 243
-8.97207164764404297 -4 -8 255 254 254
-8 -4 -8.99925708770751953 255 254 254
-8.81640815734863281 -4 7 255 224 202
-8 -4 7.8218226432800293 255 219 203
-8 -4 8.53831672668457031 255 227 197
-8 -3 -9.27229404449462891 255 253 249
-8.91647529602050781 -3 -8 255 253 248
-8 -3 -8.94209766387939453 255 254 248
-8.76011562347412109 -3 7 255 231 211
-8 -3 7.76515531539916992 255 227 211
-8 -3 8.60467147827148438 255 233 204
-8 -2 -9.42868900299072266 255 254 254
-8.85931396484375 -2 -8 255 252 243
-8 -2 -8.88332939147949219 255 252 244
-8.7022247314453125 -2 7 255 238 220
-8 -2 7.7068791389465332 255 234 219
-8 -2 8.65514373779296875 255 238 211
-8 -1 -9.53122520446777344 255 254 252
-8.80056190490722656 -1 -8 255 250 240
-8 -1 -8.82292842864990234 255 250 241
-8.64271163940429688 -1 7 255 243 227
-8 -1 7.64696979522705078 255 241 227
-8 -1 8.69479751586914062 255 243 217
-8 0 -9.60358619689941406 255 253 251
-8.74019622802734375 0 -8 255 247 239
-8 0 -8.76086902618408203 255 248 239
-8.58154869079589844 0 7 255 248 235
-8 0 7.58540058135986328 255 246 234
-8 0 8.72675037384033203 255 248 223
-8 1 -9.6573486328125 255 253 251
-8.67818927764892578 1 -8 255 246 239
-8 1 -8.69712352752685547 255 247 239
-8.51870918273925781 1 7 255 252 241
-8 1 7.52214336395263672 255 250 240
-8 1 8.75302791595458984 255 252 229
-8 2 -9.6988372802734375 255 254 253
-8.61451339721679688 2 -8 255 244 240
-8 2 -8.63166332244873047 255 246 241
-8.45416259765625 2 7 255 254 246
-8 2 7.4571690559387207 255 253 246
-8 2 8.77500438690185547 254 255 235
-8 3 -9.73180294036865234 255 253 253
-8.54913902282714844 3 -8 255 245 244
-8 3 -8.56445980072021484 255 246 244
-8.38788032531738281 3 7 254 255 250
-8 3 7.39044713973999023 254 255 250
-8 3 8.79364299774169922 252 255 239
-8 4 -9.75861072540283203 255 248 248
-8.48203659057617188 4 -8 255 249 248
-8 4 -8.49547958374023438 255 249 249
-8.31982994079589844 4 7 254 255 252
-8 4 7.3219447135925293 254 255 253
-8 4 8.80963993072509766 250 255 243
-8 5 -9.78082466125488281 255 245 241
-8.41317272186279297 5 -8 255 254 254
-8 5 -8.42469120025634766 255 254 254
-8.24997615814208984 5 7 254 255 253
-8 5 7.25162887573242188 254 255 254
-8 5 8.82351112365722656 249 255 245
-8 6 -9.79952144622802734 255 244 233
-8.3425140380859375 6 -8 255 251 246
-8 6 -8.35205936431884766 255 250 246
-8.17828464508056641 6 7 252 255 251
-8 6 7.17946290969848633 254 255 254
-8 6 8.83564567565917969 246 255 245
-8 7 -9.81546401977539062 255 246 223
-8.27002429962158203 7 -8 255 250 237
-8 7 -8.27754592895507812 255 249 236
-8.97213649749755859 7 6 253 255 253
-8.10471820831298828 7 7 248 255 248
-8 7 7.10541009902954102 253 255 252
-8 7 8.846343994140625 243 255 244
-8 8 -9.82921314239501953 254 255 212
-8.19566631317138672 8 -8 253 255 226
-8 8 -8.20111465454101562 255 253 225
-8.90206813812255859 8 6 250 255 251
-8.02923774719238281 8 7 243 255 246
-8 8 7.02943086624145508 248 255 249
-8 8 8.85584259033203125 239 255 245
-8 8.82921314239501953 -9 255 253 225
-8 8.85584259033203125 8 239 255 245
-7.97999095916748047 -7 8 255 214 173
-7.92086505889892578 -6 8 255 217 181
-7.85998249053955078 -5 8 255 222 190
-7.99917411804199219 -4 -9 255 254 254
-7.79731845855712891 -4 8 255 227 197
-7.93561792373657227 -3 -9 255 254 248
-7.73284721374511719 -3 8 255 233 204
-7.87026882171630859 -2 -9 255 252 244
-7.66654062271118164 -2 8 255 238 211
-7.80309915542602539 -1 -9 255 250 241
-7.59837055206298828 -1 8 255 243 217
-7.73408031463623047 0 -9 255 248 239
-7.5283055305480957 0 8 255 248 223
-7.66318225860595703 1 -9 255 247 239
-7.4563145637512207 1 8 255 252 229
-7.59037256240844727 2 -9 255 246 241
-7.38236331939697266 2 8 254 255 235
-7.51561737060546875 3 -9 255 246 244
-7.30641651153564453 3 8 252 255 239
-7.43888187408447266 4 -9 255 249 249
-7.22843742370605469 4 8 250 255 243
-7.36012840270996094 5 -9 255 254 254
-7.14838600158691406 5 8 249 255 245
-7.27931785583496094 6 -9 255 250 246
-7.0662226676940918 6 8 246 255 245
-7.19640970230102539 7 -9 255 249 236
-7 6.78645658493041992 8 249 255 246
-7 7 7.98524045944213867 254 255 254
-7 7 8.08917617797851562 246 255 246
-7.11136054992675781 8 -9 255 253 225
-7 8 7.91474103927612305 252 255 252
-7 8 8.35990715026855469 244 255 247
-7 8.35990715026855469 8 244 255 247
-6.98038339614868164 7 8 246 255 246
-6.88667106628417969 8 8 244 255 247
6.95881271362304688 -2 8 255 251 247
7 -2.60678291320800781 8 255 253 250
7 -2 7.96529054641723633 255 247 238
7 -2 8.1869049072265625 255 251 244
6.88918066024780273 -1 8 255 250 241
7 -1 7.90661525726318359 255 246 232
7 -1 8.38097667694091797 255 251 237
6.81763792037963867 0 8 255 251 235
7 0 7.84633636474609375 255 246 226
7 0 8.50190162658691406 255 252 232
6.95538187026977539 1 -9 255 224 201
7 0.3852958083152771 -9 255 228 204
7 1 -9.19933128356933594 255 227 215
7 1 -8.96153640747070312 255 221 204
6.74415397644042969 1 8 255 253 230
7 1 7.78442811965942383 255 249 221
7 1 8.58442211151123047 254 255 227
6.88101291656494141 2 -9 255 217 202
7 2 -9.39774513244628906 255 222 217
7 2 -8.89743137359619141 255 215 206
6.66869544982910156 2 8 253 255 226
7 2 7.72086381912231445 255 253 217
7 2 8.644287109375 250 255 223
6.80468463897705078 3 -9 255 210 204
7 3 -9.51881790161132812 255 220 220
7 3 -8.83164310455322266 255 210 208
6.59122800827026367 3 8 248 255 222
7 3 7.65561437606811523 249 255 214
7 3 8.68967151641845703 244 255 219
6.72636318206787109 4 -9 255 212 209
7 4 -9.60034656524658203 255 230 225
7 4 -8.7641448974609375 255 219 213
6.51171588897705078 4 8 241 255 220
7 4 7.58865022659301758 242 255 211
7 4 8.72523975372314453 236 255 217
6.64601230621337891 5 -9 255 225 214
7 5 -9.6589508056640625 255 240 231
7 5 -8.69490337371826172 255 231 219
6.43012046813964844 5 8 233 255 218
7 5 7.51993942260742188 233 255 210
7 5 8.75384807586669922 228 255 216
6.56359338760375977 6 -9 255 237 222
7 6 -9.70308113098144531 255 248 238
7 6 -8.62388706207275391 255 242 226
6.34640216827392578 6 8 225 255 217
7 6 7.44944906234741211 224 255 210
7 6 8.77734375 220 255 215
6.47906684875488281 7 -9 255 248 231
7 7 -9.73749160766601562 255 253 248
7 7 -8.55106258392333984 255 251 235
6.26051902770996094 7 8 218 255 219
7 7 7.37714433670043945 215 255 212
7 7 8.79697227478027344 217 255 220
6.39239072799682617 8 -9 255 254 241
7 8 -9.76505947113037109 254 255 250
7 8 -8.47639369964599609 254 255 246
6.17242622375488281 8 8 221 255 229
7 8 7.30298805236816406 215 255 221
7 8 8.81360721588134766 221 255 231
7 8.76505947113037109 -9 254 255 246
7 8.81360721588134766 8 221 255 231
7.56070947647094727 -9 -9 255 251 240
8 -9.73202800750732422 -9 255 241 221
8 -9 -9.73202800750732422 255 242 224
8 -9 -8.56394195556640625 255 248 235
7.37125730514526367 -9 8 255 238 204
8 -9.79377365112304688 8 255 246 197
8 -9 7.38993310928344727 255 238 213
8 -9 8.79377365112304688 255 244 207
7.50814199447631836 -8 -9 255 254 253
8 -8 -9.75280475616455078 255 248 237
8 -8 -8.51176261901855469 255 253 248
7.31784868240356445 -8 8 255 239 215
8 -8 7.33811616897583008 255 240 224
8 -8 8.80610847473144531 255 245 218
7.45392847061157227 -7 -9 255 253 245
8 -7 -9.77095413208007812 255 253 249
8 -7 -8.45794963836669922 255 253 249
7.2627568244934082 -7 8 255 242 225
8 -7 7.28466701507568359 255 244 234
8 -7 8.8172760009765625 255 246 228
7.39804649353027344 -6 -9 255 251 235
8 -6 -9.78692817687988281 255 253 250
8 -6 -8.40248012542724609 255 250 239
7.20595741271972656 -6 8 255 246 234
8 -6 7.22956180572509766 255 248 243
8 -6 8.82742404937744141 255 249 237
7.34047079086303711 -5 -9 255 249 226
8 -5 -9.80108261108398438 255 250 242
8 -5 -8.34532928466796875 255 247 231
7.14742422103881836 -5 8 255 249 243
8 -5 7.17277622222900391 255 253 252
8 -5 8.83667850494384766 255 252 246
7.28117561340332031 -4 -9 255 247 219
8 -4 -9.81369972229003906 255 247 235
8 -4 -8.28647327423095703 255 244 224
7.08713006973266602 -4 8 255 253 251
8 -4 7.11428260803222656 255 252 249
8 -4 8.84514331817626953 255 254 254
7.22013378143310547 -3 -9 255 243 213
8 -3 -9.82500743865966797 255 244 229
8 -3 -8.22588253021240234 255 241 218
7.02504634857177734 -3 8 255 253 250
8 -3 7.05405426025390625 255 249 242
8 -3 8.85291004180908203 255 253 247
7.15731668472290039 -2 -9 255 239 209
8 -2 -9.83519172668457031 255 240 225
8 -2 -8.16353034973144531 255 236 214
7.99248504638671875 -2 7 255 247 238
8 -2.12746214866638184 7 255 249 242
8 -2 6.99163818359375 255 241 229
8 -2 8.86005401611328125 255 252 240
7.09269428253173828 -1 -9 255 234 206
8 -1 -9.84440326690673828 255 235 222
8 -1 -8.09938621520996094 255 231 211
7.93214797973632812 -1 7 255 246 232
8 -1 6.92449617385864258 255 240 223
8 -1 8.86664199829101562 255 252 234
7.02623462677001953 0 -9 255 228 204
8 0 -9.85276889801025391 255 231 220
8 0 -8.03341960906982422 255 225 209
7.8701634407043457 0 7 255 246 226
8 0 6.85551595687866211 255 241 218
8 0 8.87273216247558594 255 254 229
8 1 -9.86039543151855469 255 227 221
7.96811389923095703 1 -8 255 218 195
8 0.494172930717468262 -8 255 222 200
8 1 -7.96359062194824219 255 214 200
7.80650424957275391 1 7 255 249 221
8 1 6.78466796875 255 245 213
8 1 8.87837505340576172 251 255 224
8 2 -9.86737060546875 255 224 222
7.90356779098510742 2 -8 255 210 196
8 2 -7.88988351821899414 255 207 201
7.74114370346069336 2 7 255 253 217
8 2 6.71192121505737305 255 250 209
8 2 8.88361358642578125 246 255 220
8 3 -9.87376976013183594 255 229 225
7.83732843399047852 3 -8 255 202 199
8 3 -7.81423616409301758 255 206 203
7.67405223846435547 3 7 249 255 214
8 3 6.63724231719970703 252 255 206
8 3 8.88848686218261719 239 255 217
8 4 -9.87965774536132812 255 237 230
7.76936578750610352 4 -8 255 209 203
8 4 -7.73661422729492188 255 219 208
7.60519886016845703 4 7 242 255 211
8 4 6.56059694290161133 243 255 204
8 4 8.89302825927734375 232 255 215
8 5 -9.88508987426757812 255 245 236
7.69964981079101562 5 -8 255 223 208
8 5 -7.656982421875 255 231 213
7.53455114364624023 5 7 233 255 210
8 5 6.4819488525390625 233 255 203
8 5 8.89726829528808594 224 255 214
8 6 -9.89011478424072266 255 252 244
7.62814712524414062 6 -8 255 237 215
8 6 -7.5753021240234375 255 243 221
7.46207475662231445 6 7 224 255 210
8 6 6.40125942230224609 224 255 204
8 6 8.90123271942138672 216 255 215
8 7 -9.89477252960205078 255 254 254
7.55482387542724609 7 -8 255 248 224
8 7 -7.49153470993041992 255 251 230
7.38773441314697266 7 7 215 255 212
8 7 6.31848859786987305 215 255 207
8 7 8.90494537353515625 217 255 224
8 8 -9.89909934997558594 252 255 244
7.47964382171630859 8 -8 254 255 235
8 8 -7.40563821792602539 253 255 241
7.3114924430847168 8 7 215 255 221
8 8 6.23359394073486328 211 255 214
8 8 8.90842819213867188 222 255 235
8 8.89909934997558594 -9 254 255 252
8 8.7627105712890625 -8 253 255 241
8 8.80747127532958984 7 216 255 225
8 8.90842819213867188 8 222 255 235
8.73202800750732422 -9 -9 255 248 235
8.79377365112304688 -9 8 255 244 207
8.75280475616455078 -8 -9 255 253 248
8.80610847473144531 -8 8 255 245 218
8.77095413208007812 -7 -9 255 253 249
8.8172760009765625 -7 8 255 246 228
8.78692817687988281 -6 -9 255 250 239
8.82742404937744141 -6 8 255 249 237
8.80108261108398438 -5 -9 255 247 231
8.83667850494384766 -5 8 255 252 246
8.81369972229003906 -4 -9 255 244 224
8.84514331817626953 -4 8 255 254 254
8.82500743865966797 -3 -9 255 241 218
8.85291004180908203 -3 8 255 253 247
8.83519172668457031 -2 -9 255 236 214
8.04616928100585938 -2 7 255 247 235
8.86005401611328125 -2 8 255 252 240
8.84440326690673828 -1 -9 255 231 211
8.30309963226318359 -1 7 255 247 229
8.86664199829101562 -1 8 255 252 234
8.85276889801025391 0 -9 255 225 209
8.45297813415527344 0 7 255 249 223
8.87273216247558594 0 8 255 254 229
8.86039543151855469 1 -9 255 220 209
8.17011165618896484 1 -8 255 214 200
8.55111122131347656 1 7 255 252 218
8.87837505340576172 1 8 251 255 224
8.86737060546875 2 -9 255 214 211
8.3814544677734375 2 -8 255 207 201
8.62030601501464844 2 7 252 255 214
8.88361358642578125 2 8 246 255 220
8.87376976013183594 3 -9 255 217 214
8.50853538513183594 3 -8 255 206 203
8.67168712615966797 3 7 245 255 211
8.88848686218261719 3 8 239 255 217
8.87965774536132812 4 -9 255 228 218
8.59332084655761719 4 -8 255 219 208
8.71132278442382812 4 7 237 255 209
8.89302825927734375 4 8 232 255 215
8.88508987426757812 5 -9 255 238 224
8.65387916564941406 5 -8 255 231 213
8.74280929565429688 5 7 228 255 208
8.89726829528808594 5 8 224 255 214
8.89011478424072266 6 -9 255 247 232
8.69926929473876953 6 -8 255 243 221
8.76840877532958984 6 7 219 255 209
8.90123271942138672 6 8 216 255 215
8.89477252960205078 7 -9 255 253 241
8.73453521728515625 7 -8 255 251 230
8.78962039947509766 7 7 212 255 212
8.90494537353515625 7 8 217 255 224
8.89909934997558594 8 -9 254 255 252
8.7627105712890625 8 -8 253 255 241
8.80747127532958984 8 7 216 255 225
8.90842819213867188 8 8 222 255 235
3 2 1 0
3 1 3 0
3 6 5 4
3 5 7 4
3 9 2 0
3 8 9 0
3 3 10 8
3 0 3 8
3 12 6 4
3 11 12 4
3 7 13 11
3 4 7 11
3 15 9 8
3 14 15 8
3 10 16 14
3 8 10 14
3 19 18 17
3 18 12 11
3 18 11 17
3 17 11 20
3 13 21 20
3 11 13 20
3 23 15 14
3 22 23 14
3 16 24 22
3 14 16 22
3 26 19 17
3 25 26 17
3 17 20 25
3 20 27 25
3 21 28 27
3 20 21 27
3 30 23 22
3 29 30 22
3 24 31 29
3 22 24 29
3 33 26 25
3 32 33 25
3 25 27 32
3 27 34 32
3 28 35 34
3 27 28 34
3 37 30 29
3 36 37 29
3 31 39 38
3 31 38 29
3 29 38 36
3 39 40 38
3 42 33 32
3 41 42 32
3 32 34 41
3 34 43 41
3 35 44 43
3 34 35 43
3 46 37 36
3 45 46 36
3 36 38 45
3 38 47 45
3 40 48 47
3 38 40 47
3 50 42 41
3 49 50 41
3 41 43 49
3 43 51 49
3 44 52 51
3 43 44 51
3 54 46 45
3 53 54 45
3 45 47 53
3 47 55 53
3 48 56 55
3 47 48 55
3 58 50 49
3 57 58 49
3 49 51 57
3 51 59 57
3 52 60 59
3 51 52 59
3 62 54 53
3 61 62 53
3 53 55 61
3 55 63 61
3 56 64 63
3 55 56 63
3 66 58 57
3 65 66 57
3 57 59 65
3 59 67 65
3 60 68 67
3 59 60 67
3 70 62 61
3 69 70 61
3 61 63 69
3 63 71 69
3 64 72 71
3 63 64 71
3 74 66 65
3 73 74 65
3 65 67 73
3 67 75 73
3 68 76 75
3 67 68 75
3 78 70 69
3 77 78 69
3 69 71 77
3 71 79 77
3 72 80 79
3 71 72 79
3 82 74 73
3 81 82 73
3 73 75 81
3 75 83 81
3 76 84 83
3 75 76 83
3 86 78 77
3 85 86 77
3 77 79 85
3 79 87 85
3 80 88 87
3 79 80 87
3 90 82 81
3 89 90 81
3 81 83 89
3 83 91 89
3 84 92 91
3 83 84 91
3 94 86 85
3 93 94 85
3 85 87 93
3 87 95 93
3 88 96 95
3 87 88 95
3 98 90 89
3 97 98 89
3 89 91 97
3 91 99 97
3 92 100 99
3 91 92 99
3 102 94 93
3 101 102 93
3 93 95 101
3 95 103 101
3 96 104 103
3 95 96 103
3 106 98 97
3 105 106 97
3 97 99 105
3 99 107 105
3 100 108 107
3 99 100 107
3 110 102 101
3 109 110 101
3 101 103 109
3 103 111 109
3 104 112 111
3 103 104 111
3 114 106 105
3 113 114 105
3 105 107 113
3 107 115 113
3 108 116 115
3 107 108 115
3 118 110 109
3 117 118 109
3 109 111 117
3 111 119 117
3 112 120 119
3 111 112 119
3 122 114 113
3 121 122 113
3 113 115 121
3 115 123 121
3 116 124 123
3 115 116 123
3 126 118 117
3 125 126 117
3 117 119 125
3 119 127 125
3 120 128 127
3 119 120 127
3 131 130 129
3 130 122 121
3 130 121 129
3 129 121 132
3 121 123 132
3 123 133 132
3 124 134 133
3 123 124 133
3 136 126 125
3 135 136 125
3 125 127 135
3 127 137 135
3 128 138 137
3 127 128 137
3 140 131 129
3 139 140 129
3 129 132 139
3 132 141 139
3 132 133 141
3 133 142 141
3 134 143 142
3 133 134 142
3 136 135 144
3 135 137 145
3 144 135 145
3 137 138 145
3 140 139 146
3 139 141 147
3 146 139 147
3 141 142 148
3 147 141 148
3 142 143 148
3 1 2 149
3 1 149 3
3 5 6 150
3 5 150 7
3 151 149 2
3 9 151 2
3 149 151 10
3 3 149 10
3 152 150 6
3 12 152 6
3 150 152 13
3 7 150 13
3 153 151 9
3 15 153 9
3 151 153 16
3 10 151 16
3 18 19 154
3 154 156 155
3 18 154 155
3 18 155 152
3 18 152 12
3 152 155 157
3 152 157 13
3 13 157 21
3 158 153 15
3 23 158 15
3 153 158 24
3 16 153 24
3 159 154 19
3 26 159 19
3 156 159 160
3 154 159 156
3 157 161 21
3 161 28 21
3 162 158 23
3 30 162 23
3 158 162 31
3 24 158 31
3 163 159 26
3 33 163 26
3 160 163 164
3 159 163 160
3 161 165 28
3 165 35 28
3 166 162 30
3 166 30 167
3 167 30 37
3 169 168 39
3 166 169 39
3 166 39 31
3 166 31 162
3 39 168 40
3 170 163 33
3 42 170 33
3 164 170 171
3 163 170 164
3 165 172 35
3 172 44 35
3 167 37 173
3 173 37 46
3 175 168 169
3 174 168 175
3 168 174 48
3 40 168 48
3 176 170 42
3 50 176 42
3 171 176 177
3 170 176 171
3 172 178 44
3 178 52 44
3 173 46 179
3 179 46 54
3 181 174 175
3 180 174 181
3 174 180 56
3 48 174 56
3 182 176 50
3 58 182 50
3 177 182 183
3 176 182 177
3 178 184 52
3 184 60 52
3 179 54 185
3 185 54 62
3 187 180 181
3 186 180 187
3 180 186 64
3 56 180 64
3 188 182 58
3 66 188 58
3 183 188 189
3 182 188 183
3 184 190 60
3 190 68 60
3 185 62 191
3 191 62 70
3 193 186 187
3 192 186 193
3 186 192 72
3 64 186 72
3 194 188 66
3 74 194 66
3 189 194 195
3 188 194 189
3 190 196 68
3 196 76 68
3 191 70 197
3 197 70 78
3 199 192 193
3 198 192 199
3 192 198 80
3 72 192 80
3 200 194 74
3 82 200 74
3 195 200 201
3 194 200 195
3 196 202 76
3 202 84 76
3 197 78 203
3 203 78 86
3 205 198 199
3 204 198 205
3 198 204 88
3 80 198 88
3 206 200 82
3 90 206 82
3 201 206 207
3 200 206 201
3 202 208 84
3 208 92 84
3 203 86 209
3 209 86 94
3 211 204 205
3 210 204 211
3 204 210 96
3 88 204 96
3 212 206 90
3 98 212 90
3 207 212 213
3 206 212 207
3 208 214 92
3 214 100 92
3 209 94 215
3 215 94 102
3 217 210 211
3 216 210 217
3 210 216 104
3 96 210 104
3 218 212 98
3 106 218 98
3 213 218 219
3 212 218 213
3 214 220 100
3 220 108 100
3 215 102 221
3 221 102 110
3 223 216 217
3 222 216 223
3 216 222 112
3 104 216 112
3 224 218 106
3 114 224 106
3 219 224 225
3 218 224 219
3 220 226 108
3 226 116 108
3 221 110 227
3 227 110 118
3 229 222 223
3 228 222 229
3 222 228 120
3 112 222 120
3 230 224 114
3 122 230 114
3 225 230 231
3 224 230 225
3 226 232 116
3 232 124 116
3 227 118 233
3 233 118 126
3 235 228 229
3 234 228 235
3 228 234 128
3 120 228 128
3 130 131 236
3 122 130 236
3 122 236 230
3 230 236 237
3 231 237 238
3 230 237 231
3 232 239 124
3 239 134 124
3 233 126 240
3 240 126 136
3 242 234 235
3 241 234 242
3 234 241 138
3 128 234 138
3 243 236 131
3 140 243 131
3 236 243 237
3 237 243 244
3 238 244 245
3 237 244 238
3 239 246 134
3 246 143 134
3 240 136 144
3 247 240 144
3 241 242 247
3 241 247 145
3 145 247 144
3 241 145 138
3 243 140 146
3 244 243 146
3 147 244 146
3 245 244 147
3 245 147 248
3 248 147 148
3 248 148 143
3 246 248 143
3 155 156 249
3 155 249 157
3 250 249 156
3 160 250 156
3 249 250 161
3 157 249 161
3 251 250 160
3 164 251 160
3 250 251 165
3 161 250 165
3 166 167 252
3 166 252 169
3 253 251 164
3 171 253 164
3 251 253 172
3 165 251 172
3 254 252 167
3 173 254 167
3 252 254 175
3 169 252 175
3 255 253 171
3 177 255 171
3 253 255 178
3 172 253 178
3 256 254 173
3 179 256 173
3 254 256 181
3 175 254 181
3 257 255 177
3 183 257 177
3 255 257 184
3 178 255 184
3 258 256 179
3 185 258 179
3 256 258 187
3 181 256 187
3 259 257 183
3 189 259 183
3 257 259 190
3 184 257 190
3 260 258 185
3 191 260 185
3 258 260 193
3 187 258 193
3 261 259 189
3 195 261 189
3 259 261 196
3 190 259 196
3 262 260 191
3 197 262 191
3 260 262 199
3 193 260 199
3 263 261 195
3 201 263 195
3 261 263 202
3 196 261 202
3 264 262 197
3 203 264 197
3 262 264 205
3 199 262 205
3 265 263 201
3 207 265 201
3 263 265 208
3 202 263 208
3 266 264 203
3 209 266 203
3 264 266 211
3 205 264 211
3 267 265 207
3 213 267 207
3 265 267 214
3 208 265 214
3 268 266 209
3 215 268 209
3 266 268 217
3 211 266 217
3 269 267 213
3 219 269 213
3 267 269 220
3 214 267 220
3 270 268 215
3 221 270 215
3 268 270 223
3 217 268 223
3 271 269 219
3 225 271 219
3 269 271 226
3 220 269 226
3 272 270 221
3 227 272 221
3 270 272 229
3 223 270 229
3 273 271 225
3 231 273 225
3 271 273 232
3 226 271 232
3 274 272 227
3 233 274 227
3 272 274 235
3 229 272 235
3 275 273 231
3 275 231 276
3 276 231 238
3 273 275 277
3 273 277 232
3 232 277 239
3 278 274 233
3 240 278 233
3 274 278 242
3 235 274 242
3 276 238 279
3 279 238 245
3 277 280 239
3 280 246 239
3 278 240 247
3 278 247 242
3 279 245 248
3 281 279 248
3 281 248 246
3 280 281 246
3 275 276 282
3 275 282 277
3 283 282 276
3 279 283 276
3 282 283 280
3 277 282 280
3 283 279 281
3 283 281 280
3 286 285 284
3 285 287 284
3 289 286 284
3 288 289 284
3 287 290 288
3 284 287 288
3 292 289 288
3 291 292 288
3 290 293 291
3 288 290 291
3 296 295 294
3 295 297 294
3 299 292 291
3 298 299 291
3 293 300 298
3 291 293 298
3 302 296 294
3 301 302 294
3 297 303 301
3 294 297 301
3 305 299 298
3 304 305 298
3 300 306 304
3 298 300 304
3 308 302 301
3 307 308 301
3 303 309 307
3 301 303 307
3 311 305 304
3 310 311 304
3 306 312 310
3 304 306 310
3 314 308 307
3 313 314 307
3 309 315 313
3 307 309 313
3 317 311 310
3 316 317 310
3 312 318 316
3 310 312 316
3 320 314 313
3 319 320 313
3 315 321 319
3 313 315 319
3 323 317 316
3 322 323 316
3 318 324 322
3 316 318 322
3 326 320 319
3 325 326 319
3 321 327 325
3 319 321 325
3 329 323 322
3 328 329 322
3 324 330 328
3 322 324 328
3 332 326 325
3 331 332 325
3 327 333 331
3 325 327 331
3 335 329 328
3 334 335 328
3 330 336 334
3 328 330 334
3 338 332 331
3 337 338 331
3 333 339 337
3 331 333 337
3 341 335 334
3 340 341 334
3 336 342 340
3 334 336 340
3 338 337 343
3 337 339 343
3 341 340 344
3 340 342 344
3 347 346 345
3 346 348 345
3 351 350 349
3 350 352 349
3 354 347 345
3 353 354 345
3 348 355 353
3 345 348 353
3 357 351 349
3 356 357 349
3 352 358 356
3 349 352 356
3 360 354 353
3 359 360 353
3 355 361 359
3 353 355 359
3 363 357 356
3 362 363 356
3 358 364 362
3 356 358 362
3 366 360 359
3 365 366 359
3 361 367 365
3 359 361 365
3 369 363 362
3 368 369 362
3 364 370 368
3 362 364 368
3 372 366 365
3 371 372 365
3 367 373 371
3 365 367 371
3 375 369 368
3 374 375 368
3 370 376 374
3 368 370 374
3 378 372 371
3 377 378 371
3 373 379 377
3 371 373 377
3 381 375 374
3 380 381 374
3 376 382 380
3 374 376 380
3 384 378 377
3 383 384 377
3 379 385 383
3 377 379 383
3 387 381 380
3 386 387 380
3 382 388 386
3 380 382 386
3 390 384 383
3 389 390 383
3 385 391 389
3 383 385 389
3 394 393 392
3 386 285 286
3 387 386 286
3 387 286 392
3 387 392 393
3 285 386 388
3 285 388 287
3 287 388 395
3 397 390 389
3 396 397 389
3 391 398 396
3 389 391 396
3 400 394 392
3 399 400 392
3 392 289 399
3 286 289 392
3 395 401 287
3 401 290 287
3 403 397 396
3 402 403 396
3 398 404 402
3 396 398 402
3 406 400 399
3 405 406 399
3 399 292 405
3 289 292 399
3 401 407 290
3 407 293 290
3 402 295 296
3 402 296 403
3 403 296 408
3 295 409 297
3 402 409 295
3 402 410 409
3 402 404 410
3 410 411 409
3 413 406 405
3 412 413 405
3 405 299 412
3 292 299 405
3 407 414 293
3 414 300 293
3 408 296 415
3 415 296 302
3 416 297 409
3 303 297 416
3 411 417 416
3 409 411 416
3 419 413 412
3 418 419 412
3 412 305 418
3 299 305 412
3 414 420 300
3 420 306 300
3 415 302 421
3 421 302 308
3 422 303 416
3 309 303 422
3 417 423 422
3 416 417 422
3 425 419 418
3 424 425 418
3 418 311 424
3 305 311 418
3 420 426 306
3 426 312 306
3 421 308 427
3 427 308 314
3 428 309 422
3 315 309 428
3 423 429 428
3 422 423 428
3 431 425 424
3 430 431 424
3 424 317 430
3 311 317 424
3 426 432 312
3 432 318 312
3 427 314 433
3 433 314 320
3 434 315 428
3 321 315 434
3 429 435 434
3 428 429 434
3 437 431 430
3 436 437 430
3 430 323 436
3 317 323 430
3 432 438 318
3 438 324 318
3 433 320 439
3 439 320 326
3 440 321 434
3 327 321 440
3 435 441 440
3 434 435 440
3 443 437 436
3 442 443 436
3 436 329 442
3 323 329 436
3 438 444 324
3 444 330 324
3 439 326 445
3 445 326 332
3 446 327 440
3 333 327 446
3 441 447 446
3 440 441 446
3 449 443 442
3 448 449 442
3 442 335 448
3 329 335 442
3 444 450 330
3 450 336 330
3 445 332 451
3 451 332 338
3 452 333 446
3 339 333 452
3 447 453 452
3 446 447 452
3 455 449 448
3 454 455 448
3 448 341 454
3 335 341 448
3 450 456 336
3 456 342 336
3 451 338 343
3 457 451 343
3 339 452 458
3 339 458 343
3 343 458 457
3 452 453 458
3 455 454 459
3 454 341 344
3 454 344 459
3 459 344 460
3 460 344 342
3 456 460 342
3 346 347 461
3 346 461 348
3 350 351 462
3 350 462 352
3 463 461 347
3 354 463 347
3 461 463 355
3 348 461 355
3 464 462 351
3 357 464 351
3 462 464 358
3 352 462 358
3 465 463 354
3 360 465 354
3 463 465 361
3 355 463 361
3 466 464 357
3 363 466 357
3 464 466 364
3 358 464 364
3 467 465 360
3 366 467 360
3 465 467 367
3 361 465 367
3 468 466 363
3 369 468 363
3 466 468 370
3 364 466 370
3 469 467 366
3 372 469 366
3 467 469 373
3 367 467 373
3 470 468 369
3 375 470 369
3 468 470 376
3 370 468 376
3 471 469 372
3 378 471 372
3 469 471 379
3 373 469 379
3 472 470 375
3 381 472 375
3 470 472 382
3 376 470 382
3 473 471 378
3 384 473 378
3 471 473 385
3 379 471 385
3 474 472 381
3 387 474 381
3 472 474 388
3 382 472 388
3 475 473 384
3 390 475 384
3 473 475 391
3 385 473 391
3 393 394 476
3 387 393 476
3 387 476 474
3 474 476 477
3 474 477 395
3 388 474 395
3 478 475 390
3 397 478 390
3 475 478 398
3 391 475 398
3 479 476 394
3 400 479 394
3 476 479 477
3 477 479 480
3 477 480 401
3 395 477 401
3 481 478 397
3 403 481 397
3 478 481 404
3 398 478 404
3 482 479 400
3 406 482 400
3 479 482 480
3 480 482 483
3 480 483 407
3 401 480 407
3 484 481 403
3 408 484 403
3 410 404 481
3 410 481 485
3 485 481 484
3 410 485 411
3 486 482 406
3 413 486 406
3 482 486 483
3 483 486 487
3 483 487 414
3 407 483 414
3 488 484 408
3 415 488 408
3 484 488 485
3 485 488 489
3 485 489 417
3 411 485 417
3 490 486 413
3 419 490 413
3 486 490 487
3 487 490 491
3 487 491 420
3 414 487 420
3 492 488 415
3 421 492 415
3 488 492 489
3 489 492 493
3 489 493 423
3 417 489 423
3 494 490 419
3 425 494 419
3 490 494 491
3 491 494 495
3 491 495 426
3 420 491 426
3 496 492 421
3 427 496 421
3 492 496 493
3 493 496 497
3 493 497 429
3 423 493 429
3 498 494 425
3 431 498 425
3 494 498 495
3 495 498 499
3 495 499 432
3 426 495 432
3 500 496 427
3 433 500 427
3 496 500 497
3 497 500 501
3 497 501 435
3 429 497 435
3 502 498 431
3 437 502 431
3 498 502 499
3 499 502 503
3 499 503 438
3 432 499 438
3 504 500 433
3 439 504 433
3 500 504 501
3 501 504 505
3 501 505 441
3 435 501 441
3 506 502 437
3 443 506 437
3 502 506 503
3 503 506 507
3 503 507 444
3 438 503 444
3 508 504 439
3 445 508 439
3 504 508 505
3 505 508 509
3 505 509 447
3 441 505 447
3 510 506 443
3 449 510 443
3 506 510 507
3 507 510 511
3 507 511 450
3 444 507 450
3 512 508 445
3 451 512 445
3 508 512 509
3 509 512 513
3 509 513 453
3 447 509 453
3 514 510 449
3 455 514 449
3 510 514 511
3 511 514 515
3 511 515 456
3 450 511 456
3 512 451 457
3 513 512 457
3 458 513 457
3 513 458 453
3 514 455 459
3 515 514 459
3 460 515 459
3 515 460 456
