ply
format ascii 1.0
element vertex 684
property float x
property float y
property float z
property uchar red
property uchar green
property uchar blue
element face 1364
property list uchar int vertex_indices
end_header
-7.06776666641235352 6 -1 255 179 90
-7 5.88482952117919922 -1 255 216 122
-7 6 -1.33946096897125244 255 212 46
-7.14955472946166992 6 0 255 166 76
-7 5.74433994293212891 0 255 203 107
-7.11296510696411133 6 1 255 164 74
-7 5.78721809387207031 1 255 190 88
-7 6 1.71856832504272461 255 176 19
-7.10454559326171875 7 -2 255 225 169
-7 6.48940420150756836 -2 255 212 46
-7 7 -2.32766914367675781 255 245 65
-7.28728246688842773 7 -1 255 202 130
-7.34901905059814453 7 0 255 189 115
-7.28594112396240234 7 1 255 189 122
-7.10066509246826172 7 2 255 205 154
-7 6.25024271011352539 2 255 179 16
-7 7 2.30264520645141602 255 187 16
-7.04249763488769531 8 -2 235 231 212
-7 8 -2.12644791603088379 247 255 145
-7.22571468353271484 8 -1 246 242 232
-7.28005027770996094 8 0 249 238 219
-7.20909404754638672 8 1 243 235 222
-7.00477933883666992 8 2 228 224 218
-7 8 2.01313328742980957 255 206 73
-7 8.73638153076171875 -2 255 244 84
-7 8.93608379364013672 -1 255 223 52
-7 8.94739437103271484 0 255 207 41
-7 8.93151760101318359 1 255 201 47
-7 8.23774528503417969 2 255 206 73
-6.12969589233398438 5 0 255 203 107
-6 4.90653371810913086 0 164 166 152
-6 5 -0.780447900295257568 221 228 136
-6.14853668212890625 5 1 255 190 88
-6 4.89102458953857422 1 173 173 171
-6.02377843856811523 5 2 255 181 66
-6 4.98134756088256836 2 189 189 162
-6 5 2.08508849143981934 254 228 82
-6.33314800262451172 6 -3 255 233 65
-6 5.63524055480957031 -3 228 243 147
-6 6 -3.60921072959899902 208 255 50
-6.78341865539550781 6 -2 255 212 46
-6 5.26928329467773438 -2 223 233 144
-6 5.02876615524291992 -1 221 228 136
-6.92825794219970703 6 2 255 179 16
-6.50942564010620117 6 3 255 191 21
-6 5.25798654556274414 3 255 216 50
-6.01804018020629883 6 4 255 208 46
-6 5.96033096313476562 4 255 227 28
-6 6 4.02571296691894531 255 247 2
-6.14552402496337891 7 -4 245 255 133
-6 6.49077606201171875 -4 208 255 50
-6 7 -4.20680952072143555 183 255 88
-6.68508195877075195 7 -3 255 245 65
-6.67388582229614258 7 3 255 196 40
-6.13446426391601562 7 4 255 216 102
-6 7 4.18452310562133789 255 251 4
-6.09257650375366211 8 -4 234 237 223
-6 8 -4.12923812866210938 203 244 172
-6.61174631118774414 8 -3 247 255 145
-6.54757928848266602 8 3 255 223 128
-6.00659370422363281 8 4 229 220 190
-6 8 4.00881385803222656 255 246 51
-6 8.84001255035400391 -4 182 255 71
-6 8.96815872192382812 -3 197 255 18
-6 8.97696781158447266 -2 223 255 1
-6 8.97913742065429688 -1 245 255 0
-6 8.979583740234375 0 255 249 2
-6 8.97910308837890625 1 255 241 1
-6 8.97669124603271484 2 255 238 0
-6 8.96594715118408203 3 255 240 8
-6 8.27107715606689453 4 255 246 51
-5.54627418518066406 5 -2 223 233 144
-5 4.65923929214477539 -2 131 144 115
-5 5 -2.94912624359130859 177 207 146
-5.95163393020629883 5 -1 221 228 136
-5 4.38476753234863281 -1 130 139 117
-5 4.24246644973754883 0 132 138 124
-5 4.2550654411315918 1 140 141 137
-5 4.39207983016967773 2 149 153 142
-5.65148448944091797 5 3 255 216 50
-5 4.60947942733764648 3 166 175 136
-5.11308479309082031 5 4 255 227 28
-5 4.9199528694152832 4 202 208 116
-5 5 4.14982986450195312 245 255 30
-5.70127773284912109 6 -4 208 255 50
-5 5.46897983551025391 -4 182 224 145
-5 6 -4.79104232788085938 131 255 45
-5 5.01762247085571289 -3 177 207 146
-5.16017770767211914 6 5 243 255 15
-5 5.70790481567382812 5 217 255 10
-5 6 5.14981889724731445 191 255 0
-5.29351329803466797 7 -5 183 255 88
-5 6.27276945114135742 -5 131 255 45
-5 7 -5.27543449401855469 117 255 82
-5.27375411987304688 7 5 253 255 50
-5 7 5.25197505950927734 188 255 0
-5.23975658416748047 8 -5 203 244 172
-5 8 -5.22718620300292969 165 235 160
-5.11524677276611328 8 5 236 235 137
-5 8 5.10716915130615234 207 255 27
-5 8.9177398681640625 -5 100 255 48
-5 8.97514533996582031 -4 107 255 3
-5 8.98001384735107422 -3 141 255 3
-5 8.98025894165039062 -2 174 255 17
-5 8.97948455810546875 -1 198 255 31
-5 8.97901153564453125 0 214 255 40
-5 8.97938060760498047 1 221 255 43
-5 8.98021221160888672 2 220 255 36
-5 8.98000526428222656 3 214 255 17
-5 8.97411441802978516 4 206 255 0
-5 8.84490203857421875 5 207 255 27
-4.09080982208251953 4 -2 131 144 115
-4 3.88896536827087402 -2 102 119 81
-4 4 -2.13527631759643555 121 139 112
-4.50910043716430664 4 -1 130 139 117
-4 3.29078769683837891 -1 106 118 91
-4.69143390655517578 4 0 132 138 124
-4 3.03468799591064453 0 105 114 94
-4.6514897346496582 4 1 140 141 137
-4 3.2006525993347168 1 101 109 93
-4.38888692855834961 4 2 149 153 142
-4 3.6226038932800293 2 97 106 90
-4 4 2.79144167900085449 125 133 120
-4.02433109283447266 5 -4 182 224 145
-4 4.98795652389526367 -4 124 147 117
-4 5 -4.02076387405395508 145 218 134
-4.96405744552612305 5 -3 177 207 146
-4 4.46211671829223633 -3 121 139 112
-4 4.07130908966064453 3 132 148 118
-4 4.44347715377807617 4 151 178 110
-4.21698522567749023 5 5 217 255 10
-4 4.87169933319091797 5 182 217 81
-4 5 5.17351341247558594 177 255 9
-4.76659488677978516 6 -5 131 255 45
-4 5.5448760986328125 -5 145 218 134
-4 6 -5.54221630096435547 52 255 41
-4 6 5.93897056579589844 147 255 7
-4.0769953727722168 7 -6 117 255 82
-4 6.82577371597290039 -6 52 255 41
-4 7 -6.04810953140258789 113 255 136
-4.03710412979125977 7 6 193 255 40
-4 6.55752277374267578 6 113 255 2
-4 7 6.02325820922851562 115 255 0
-4.01230525970458984 8 -6 165 235 160
-4 8 -6.00796747207641602 182 213 190
-4 7.16194438934326172 6 115 255 0
-4 8 5.83172941207885742 139 255 1
-4 8.32102489471435547 -6 60 255 83
-4 8.97426223754882812 -5 15 255 1
-4 8.98026752471923828 -4 58 255 8
-4 8.97946357727050781 -3 105 255 31
-4 8.97657394409179688 -2 140 255 50
-4 8.97332859039306641 -1 166 255 66
-4 8.97150135040283203 0 183 255 79
-4 8.97242832183837891 1 193 255 89
-4 8.97566032409667969 2 193 255 90
-4 8.97912788391113281 3 183 255 75
-4 8.98027896881103516 4 161 255 38
-4 8.97260761260986328 5 139 255 1
-3.03937315940856934 1 -1 88 101 72
-3 0.894862115383148193 -1 109 112 108
-3 1 -1.08608794212341309 105 113 102
-3.17769694328308105 1 0 88 99 76
-3 0.522637069225311279 0 104 111 100
-3.00729465484619141 1 1 81 92 69
-3 0.981305420398712158 1 99 103 97
-3 1 1.01509392261505127 102 109 100
-3.36956524848937988 2 -1 96 109 79
-3 2 -1.79932796955108643 109 118 105
-3.51987338066101074 2 0 95 105 83
-3.3619990348815918 2 1 88 99 77
-3 2 1.77317428588867188 105 111 103
-3.31363892555236816 3 -2 102 119 81
-3 2.25350379943847656 -2 109 118 105
-3 3 -2.38902616500854492 99 121 91
-3.79673933982849121 3 -1 106 118 91
-3.97567462921142578 3 0 105 114 94
-3.8440711498260498 3 1 101 109 93
-3.41146373748779297 3 2 97 106 90
-3 2.23912239074707031 2 100 101 100
-3 3 2.56128764152526855 106 109 105
-3.27963137626647949 4 -3 121 139 112
-3 3.69839382171630859 -3 99 121 91
-3 4 -3.24252510070800781 117 138 116
-3.86445331573486328 4 3 132 148 118
-3 3.3491368293762207 3 106 107 106
-3 4 3.94887733459472656 107 135 100
-3 4.55356454849243164 -4 117 138 116
-3 5 -4.6824793815612793 127 198 135
-3 4.02428197860717773 4 116 158 98
-3 4.49404573440551758 5 135 196 78
-3 5 5.83882331848144531 129 255 10
-3.24694633483886719 6 -6 52 255 41
-3 5.87138509750366211 -6 115 223 135
-3 6 -6.10924911499023438 45 255 106
-3 5.17757368087768555 -5 127 198 135
-3.90906906127929688 6 6 113 255 2
-3 5.14398908615112305 6 84 255 0
-3 6 6.39861392974853516 71 255 18
-3 7 -6.49044275283813477 45 255 121
-3 7 6.45825576782226562 66 255 18
-3 8 -6.45654678344726562 108 233 167
-3.73150396347045898 8 6 149 255 33
-3 8 6.3369603157043457 69 255 0
-3 8.96136569976806641 -6 10 255 85
-3 8.97959995269775391 -5 6 255 44
-3 8.97971248626708984 -4 35 255 38
-3 8.97563743591308594 -3 79 255 59
-3 8.96892833709716797 -2 113 255 76
-3 8.96104335784912109 -1 139 255 90
-3 8.95571517944335938 0 160 255 104
-3 8.95739936828613281 1 175 255 119
-3 8.96522045135498047 2 181 255 130
-3 8.97379970550537109 3 175 255 127
-3 8.97937965393066406 4 149 255 97
-3 8.97947216033935547 5 100 255 38
-3 8.95138835906982422 6 69 255 0
-2.06993341445922852 -1 0 98 99 97
-2 -1.08875226974487305 0 83 96 79
-2 -1 -0.361143171787261963 91 117 86
-2 -1 0.26976168155670166 86 117 79
-2.5137639045715332 0 -1 109 112 108
-2 -0.79958808422088623 -1 91 117 86
-2 0 -1.78415167331695557 100 120 99
-2.71502518653869629 0 0 104 111 100
-2.45269346237182617 0 1 99 103 97
-2 -0.696226119995117188 1 83 107 78
-2 0 1.63144564628601074 83 119 77
-2.38338351249694824 1 -2 105 113 102
-2 0.272750198841094971 -2 100 120 99
-2 1 -2.33730483055114746 107 113 107
-2.29217672348022461 1 2 94 96 94
-2 0.484757989645004272 2 84 104 81
-2 1 2.25131654739379883 85 109 83
-2.86270236968994141 2 -2 109 118 105
-2 2 -2.75309109687805176 109 117 110
-2.84027552604675293 2 2 100 101 100
-2 2 2.73777461051940918 86 111 85
-2.29485344886779785 3 -3 99 121 91
-2 2.51581001281738281 -3 109 117 110
-2 3 -3.18272233009338379 88 117 89
-2.52095937728881836 3 3 106 107 106
-2 2.40874671936035156 3 90 98 90
-2 3 3.3576509952545166 91 108 91
-2 4 -3.84597063064575195 125 134 126
-2.92978763580322266 4 4 116 158 98
-2 3.59489703178405762 4 99 112 98
-2 4 4.56883335113525391 87 147 83
-2.32824349403381348 5 -5 127 198 135
-2 4.90871334075927734 -5 126 141 130
-2 5 -5.12736368179321289 105 211 149
-2 4.13222885131835938 -4 125 134 126
-2 4.22580814361572266 5 96 183 70
-2.68988418579101562 5 6 84 255 0
-2 4.78104686737060547 6 81 225 34
-2 5 6.2219395637512207 32 255 0
-2 5.57762479782104492 -6 105 211 149
-2 6 -6.4156341552734375 25 255 141
-2 6 6.75014638900756836 36 255 36
-2 7 -6.8485713005065918 14 255 149
-2 7 6.79750299453735352 52 255 61
-2 8 -6.79671049118041992 54 247 182
-2 8 6.64511775970458984 14 255 11
-2 8.97384166717529297 -6 0 255 128
-2 8.98039150238037109 -5 27 255 109
-2 8.97773170471191406 -4 61 255 106
-2 8.97046756744384766 -3 82 255 103
-2 8.95812416076660156 -2 95 255 98
-2 8.94070339202880859 -1 118 255 107
-2 8.92558574676513672 0 141 255 123
-2 8.92864131927490234 1 162 255 141
-2 8.94766807556152344 2 177 255 158
-2 8.96563148498535156 3 179 255 165
-2 8.97647571563720703 4 156 255 146
-2 8.98039150238037109 5 93 255 87
-2 8.97149467468261719 6 14 255 11
-1.75970423221588135 -1 -1 91 117 86
-1 -1.51011848449707031 -1 72 106 72
-1 -1 -1.61122572422027588 82 117 85
-1 -1.76323914527893066 0 67 106 66
-1.63386833667755127 -1 1 83 107 78
-1 -1.42490696907043457 1 66 98 65
-1 -1 1.46344101428985596 62 117 62
-1.73495125770568848 0 -2 100 120 99
-1 -0.602284908294677734 -2 82 117 85
-1 0 -2.34214377403259277 100 113 103
-1.50444555282592773 0 2 84 104 81
-1 -0.404537171125411987 2 67 101 67
-1 0 2.22651863098144531 67 113 69
-1 1 -2.81233668327331543 104 119 107
-1 1 2.70685911178588867 67 118 73
-1.49007439613342285 2 -3 109 117 110
-1 1.45220792293548584 -3 104 119 107
-1 2 -3.1637420654296875 90 108 95
-1.44714188575744629 2 3 90 98 90
-1 1.60577917098999023 3 76 99 79
-1 2 3.15688776969909668 78 103 82
-1 3 -3.51604676246643066 102 117 107
-1 3 3.72043728828430176 78 110 85
-1.54688799381256104 4 -4 125 134 126
-1 3.76660728454589844 -4 102 117 107
-1 4 -4.15029191970825195 134 137 135
-1 3.28612852096557617 4 85 112 90
-1 4 4.90107583999633789 70 144 82
-1 4.73521614074707031 -5 134 137 135
-1 5 -5.35564804077148438 91 204 162
-1 4.05525922775268555 5 58 177 58
-1 4.61598348617553711 6 29 219 26
-1 5 6.42018747329711914 2 255 28
-1 5.42393112182617188 -6 91 204 162
-1 6 -6.60672330856323242 13 255 184
-1 6 6.97985553741455078 53 255 100
-1.32901930809020996 7 -7 14 255 149
-1 6.80418586730957031 -7 13 255 184
-1 7 -7.04645109176635742 80 243 228
-1.08553659915924072 7 7 0 255 22
-1 6.43740367889404297 7 31 255 113
-1 7 7.01253747940063477 11 255 93
-1.07660388946533203 8 -7 54 247 182
-1 8 -7.01158237457275391 145 198 198
-1 7.09584140777587891 7 11 255 93
-1 8 6.83119297027587891 35 255 88
-1 8.44073677062988281 -7 26 254 220
-1 8.97684288024902344 -6 6 255 180
-1 8.98022651672363281 -5 48 255 165
-1 8.97596263885498047 -4 84 255 160
-1 8.96600055694580078 -3 103 255 154
-1 8.947357177734375 -2 114 255 148
-1 8.915130615234375 -1 126 255 146
-1 8.87813854217529297 0 142 255 151
-1 8.88385391235351562 1 162 255 166
-1 8.92612457275390625 2 183 255 186
-1 8.95762348175048828 3 195 255 200
-1 8.97375297546386719 4 182 255 193
-1 8.98011684417724609 5 126 255 153
-1 8.97567272186279297 6 35 255 88
0 -1.60120141506195068 -1 63 107 72
0 -1 -1.72057116031646729 72 118 86
0 -1.85644650459289551 0 57 108 66
0 -1.51539754867553711 1 57 100 63
0 -1 1.56223595142364502 52 120 65
0 -0.714098095893859863 -2 72 118 86
0 0 -2.40511393547058105 90 114 100
0 -0.514274001121520996 2 59 103 68
0 0 2.28759002685546875 57 115 72
0 1 -2.88003301620483398 92 119 105
0 1 2.77337789535522461 57 120 77
0 1.28858029842376709 -3 92 119 105
0 2 -3.21205615997314453 98 107 103
0 1.46753334999084473 3 68 101 79
0 2 3.21149086952209473 69 105 83
0 3 -3.57122468948364258 111 115 113
0 3 3.78926444053649902 68 112 87
0 3.67823886871337891 -4 111 115 113
0 4 -4.20700788497924805 127 137 134
0 3.21565628051757812 4 76 114 90
0 4 4.99061203002929688 58 146 89
0 4.68640422821044922 -5 127 137 134
0 5 -5.42163991928100586 74 205 182
0 4.00525808334350586 5 45 178 73
0 4.57109689712524414 6 15 219 61
0 5 6.46943855285644531 8 255 95
0 5.38116550445556641 -6 74 205 182
0 6 -6.65191507339477539 5 255 229
-0.508939564228057861 6 7 31 255 113
0 5.9539031982421875 7 23 255 152
0 6 7.01136159896850586 46 255 174
0 6.71005725860595703 -7 5 255 229
0 7 -7.06842851638793945 62 227 243
0 7 7.03221750259399414 21 255 158
0 8 -7.03156852722167969 126 184 198
0 7.24788522720336914 7 21 255 158
0 8 6.85837459564208984 51 255 151
0 8.68243598937988281 -7 15 244 254
0 8.97718238830566406 -6 13 255 228
0 8.98015880584716797 -5 66 255 210
0 8.9755401611328125 -4 105 255 202
0 8.9647674560546875 -3 125 255 196
0 8.94382572174072266 -2 137 255 190
0 8.90481472015380859 -1 150 255 189
0 8.85496807098388672 0 166 255 193
0 8.86304473876953125 1 187 255 205
0 8.91853618621826172 2 208 255 221
0 8.95548820495605469 3 220 255 231
0 8.97316646575927734 4 207 255 226
0 8.98003196716308594 5 150 255 198
0 8.97608852386474609 6 51 255 151
1 -1.11022806167602539 -1 60 101 78
1 -1 -1.13206744194030762 68 112 91
1 -1.35650753974914551 0 54 102 73
1 -1.02815806865692139 1 54 94 69
1 -1 1.03093802928924561 50 114 76
1 -0.115551494061946869 -2 68 112 91
1 0 -2.06665682792663574 85 108 100
0.889213681221008301 0 2 57 115 72
1 0 1.93955004215240479 47 126 82
1 1 -2.5320897102355957 87 114 106
1 0.0793955475091934204 2 55 110 80
1 1 2.44701266288757324 54 115 86
0.904674172401428223 2 -3 96 121 109
1 2 -2.9668879508972168 90 116 109
0.886326491832733154 2 3 69 105 83
1 2 2.9625244140625 56 116 91
1 2.0688774585723877 -3 90 116 109
1 3 -3.34903717041015625 109 112 111
1 2.05821847915649414 3 64 103 87
1 3 3.56788182258605957 62 113 94
1 3.93263912200927734 -4 109 112 111
1 4 -4.04903316497802734 115 140 138
1 3.40042448043823242 4 69 118 96
1 4 4.84388971328735352 47 154 102
1 4.76788806915283203 -5 115 140 138
1 5 -5.32489776611328125 53 212 212
1 4.08241891860961914 5 30 187 95
1 4.64520502090454102 6 5 225 114
1 5 6.35965394973754883 20 255 168
1 5.44898033142089844 -6 53 212 212
1 6 -6.54210472106933594 1 233 255
0.120925821363925934 6 7 46 255 174
1 6 6.85927391052246094 91 255 213
0.720327913761138916 7 -7 0 255 241
1 7 -6.95587491989135742 0 220 255
0.307170897722244263 7 7 21 255 158
1 7 6.8856348991394043 114 255 224
0.290049433708190918 8 -7 15 244 254
1 8 -6.88269519805908203 14 196 248
1 8 6.71782684326171875 51 255 200
1 8.97535800933837891 -6 15 235 255
1 8.98035526275634766 -5 76 255 247
1 8.97676849365234375 -4 122 255 235
1 8.96773052215576172 -3 148 255 228
1 8.95110988616943359 -2 164 255 224
1 8.92399883270263672 -1 178 255 223
1 8.89602184295654297 0 195 255 227
1 8.90204238891601562 1 214 255 235
1 8.93539333343505859 2 233 255 245
1 8.96142768859863281 3 240 255 249
1 8.97522449493408203 4 220 255 243
1 8.98033332824707031 5 156 255 226
1 8.97346210479736328 6 51 255 200
1.10192203521728516 -1 -1 55 121 85
1.32949602603912354 -1 0 49 122 79
1.02621662616729736 -1 1 50 114 76
1.08874928951263428 0 -2 66 124 99
1.86351525783538818 0 -1 52 133 93
2 -0.130776256322860718 0 54 108 89
2 0 -0.437397778034210205 58 120 103
1.79268503189086914 0 1 47 126 82
2 0 0.339107722043991089 51 120 99
1.71626079082489014 1 -2 67 129 106
2 0.215581938624382019 -1 58 120 103
2 1 -1.64064013957977295 71 117 109
2 0.318402022123336792 1 52 113 93
1.61890745162963867 1 2 54 115 86
2 1 1.5493016242980957 51 118 100
2 1.49272644519805908 -2 71 117 109
2 2 -2.22905874252319336 88 108 107
2 1.57278096675872803 2 57 105 92
2 2 2.23634886741638184 57 109 98
1.6956707239151001 3 -3 92 119 113
2 3 -2.78215241432189941 89 115 115
2 2.96396255493164062 3 64 100 92
2 3 3.02857232093811035 60 115 104
1.13403892517089844 4 -4 103 131 127
2 3.24854898452758789 -3 89 115 115
2 4 -3.60314083099365234 94 134 137
2 3.7399134635925293 4 63 126 108
2 4 4.43938255310058594 33 168 124
2 4.95142745971679688 -5 102 144 150
2 5 -5.07111454010009766 31 196 226
2 4.29144906997680664 -4 94 134 137
2 4.26858997344970703 5 13 201 134
2 4.86426687240600586 6 0 236 188
2 5 6.11676120758056641 39 255 238
2 5.64899444580078125 -6 31 196 226
2 6 -6.29718494415283203 0 187 255
2 6 6.54909038543701172 105 253 255
2 7 -6.63576412200927734 0 174 255
2 7 6.57775068283081055 105 250 255
2 8 -6.5742487907409668 25 150 235
2 8 6.44660043716430664 34 255 246
2 8.96784687042236328 -6 9 189 255
2 8.98013782501220703 -5 73 227 255
2 8.97889328002929688 -4 131 248 255
2 8.97305774688720703 -3 167 255 251
2 8.96311855316162109 -2 189 255 247
2 8.95002651214599609 -1 207 255 246
2 8.94008445739746094 0 224 255 248
2 8.94332218170166016 1 240 255 252
2 8.95716381072998047 2 252 255 254
2 8.97040176391601562 3 250 255 254
2 8.97838592529296875 4 217 255 251
2 8.98006534576416016 5 139 255 249
2 8.96184825897216797 6 34 255 246
2.06595778465270996 0 0 51 120 99
2.32562685012817383 1 -1 58 124 110
2.4836421012878418 1 0 51 125 106
2.29578018188476562 1 1 51 118 100
2.20469307899475098 2 -2 73 118 113
2.72882390022277832 2 -1 60 124 115
2.9072868824005127 2 0 53 124 111
2.73115777969360352 2 1 53 118 105
2.20700192451477051 2 2 57 109 98
2.72591471672058105 3 -2 74 120 118
3 2.52558732032775879 -1 67 109 111
3 3 -1.5107196569442749 76 111 116
3 2.1788327693939209 0 61 110 112
3 2.46886849403381348 1 59 107 108
2.88421440124511719 3 2 55 115 106
3 3 1.76755452156066895 56 115 117
2.03349852561950684 3 3 60 115 104
2.84357213973999023 4 -3 81 131 132
3 3.31074881553649902 -2 76 111 116
3 4 -2.84284687042236328 75 129 142
3 3.10650134086608887 2 56 117 117
3 3.66091704368591309 3 58 124 120
2.64552974700927734 4 4 33 168 124
3 4 3.692840576171875 31 164 150
2.17458653450012207 5 -5 44 185 201
3 4.66766023635864258 -4 83 136 151
3 5 -4.57930564880371094 20 173 223
3 4.08509111404418945 -3 75 129 142
3 4.11950540542602539 4 16 189 163
3 4.56069326400756836 5 1 220 206
2.30675911903381348 5 6 39 255 238
3 5 5.59803962707519531 34 241 255
2.82965302467346191 6 -6 0 212 255
3 5.23769712448120117 -5 20 173 223
3 6 -5.91268825531005859 4 166 255
3 5.5333099365234375 6 61 212 255
3 6 6.15127658843994141 103 213 255
3 6.15541219711303711 -6 4 166 255
3 7 -6.22597742080688477 6 130 255
3 7 6.1797332763671875 73 208 255
3 8 -6.16634321212768555 51 119 215
3 8 6.04270124435424805 10 210 255
3 8.90731906890869141 -6 0 139 255
3 8.97719955444335938 -5 52 184 255
3 8.98036289215087891 -4 122 220 255
3 8.97801303863525391 -3 172 239 255
3 8.97326278686523438 -2 204 248 255
3 8.96785068511962891 -1 226 252 255
3 8.96464729309082031 0 243 254 255
3 8.96628379821777344 1 254 254 255
3 8.97175312042236328 2 252 254 255
3 8.97743892669677734 3 240 253 255
3 8.98035717010498047 4 189 244 255
3 8.9761810302734375 5 97 226 255
3 8.71313858032226562 6 10 210 255
3.22334504127502441 3 -1 66 113 118
3.38482451438903809 3 0 59 114 118
3.28468132019042969 3 1 56 115 117
3.65668010711669922 4 -2 65 127 138
4 3.88484406471252441 -1 70 108 121
4 4 -1.28945183753967285 57 130 157
4 3.70006799697875977 0 63 109 122
4 3.74041581153869629 1 59 112 124
4 3.9422454833984375 2 56 121 130
3.56528902053833008 4 3 31 164 150
4 4 2.19158506393432617 26 160 173
3.84561538696289062 5 -4 28 169 203
4 4.61364459991455078 -3 62 133 164
4 5 -3.86601781845092773 6 155 231
4 4.21871328353881836 -2 57 130 157
4 4.20361232757568359 3 13 180 191
4 4.52586460113525391 4 1 188 216
3.89383125305175781 5 5 34 241 255
4 5 4.90168380737304688 35 200 255
4 5.71732759475708008 -5 2 145 247
4 6 -5.2441563606262207 5 116 255
4 5.06215620040893555 -4 6 155 231
4 5.08227252960205078 5 66 183 255
3.27472376823425293 6 6 103 213 255
4 6 5.46041631698608398 129 198 255
3.40389227867126465 7 -6 17 160 255
4 7 -5.56410789489746094 3 107 255
3.31679415702819824 7 6 73 208 255
4 7 5.49968719482421875 118 192 255
3.28291225433349609 8 -6 0 139 255
4 8 -5.47045183181762695 9 93 239
3.07134270668029785 8 6 10 210 255
4 8 5.34277772903442383 39 170 255
4 8.95660591125488281 -5 17 126 255
4 8.97827625274658203 -4 84 175 255
4 8.98038864135742188 -3 148 211 255
4 8.97926616668701172 -2 192 232 255
4 8.97748279571533203 -1 221 243 255
4 8.97655010223388672 0 238 249 255
4 8.97727489471435547 1 244 251 255
4 8.97912979125976562 2 233 247 255
4 8.98038959503173828 3 197 233 255
4 8.97772216796875 4 127 205 255
4 8.94406414031982422 5 39 170 255
4.12510538101196289 4 -1 49 130 154
4.32602834701538086 4 0 42 134 155
4.3121953010559082 4 1 35 143 161
4.08240222930908203 4 2 26 160 173
4.77564096450805664 5 -3 10 161 217
5 4.77482223510742188 -2 34 130 189
5 5 -2.68080329895019531 0 130 247
5 4.54734039306640625 -1 30 133 185
5 4.42366409301757812 0 24 137 187
5 4.41168928146362305 1 15 142 193
5 4.50722837448120117 2 5 146 205
5 4.71874475479125977 3 0 141 222
4.78023958206176758 5 4 35 200 255
5 5 3.68045330047607422 45 154 255
4.29424190521240234 6 -5 19 145 255
5 5.6971135139465332 -4 0 114 255
5 6 -4.29768848419189453 20 92 255
5 5.12085628509521484 -3 0 130 247
5 5.20918750762939453 4 72 149 255
4.53796243667602539 6 5 129 198 255
5 6 4.50477981567382812 136 179 255
4.65331411361694336 7 -5 47 149 255
5 7 -4.63712692260742188 15 84 255
4.58550548553466797 7 5 118 192 255
5 7 4.56302833557128906 125 171 255
4.53286457061767578 8 -5 17 126 255
5 8 -4.49719905853271484 1 68 247
4.39521598815917969 8 5 39 170 255
5 8 4.36302566528320312 45 131 255
5 8.95027351379394531 -4 25 102 255
5 8.97555828094482422 -3 84 149 255
5 8.97954559326171875 -2 137 185 255
5 8.98031902313232422 -1 172 207 255
5 8.98038768768310547 0 190 218 255
5 8.98031139373779297 1 188 216 255
5 8.97942543029785156 2 163 202 255
5 8.97459506988525391 3 112 171 255
5 8.93638420104980469 4 45 131 255
5.35132503509521484 5 -2 0 141 240
5.72754955291748047 5 -1 0 150 238
5.93042659759521484 5 0 1 156 239
5.92912578582763672 5 1 7 161 246
5.7189784049987793 5 2 21 161 255
5.34242868423461914 5 3 45 154 255
5.22808122634887695 6 -4 41 122 255
5.88046550750732422 6 -3 51 142 255
6 5.53212976455688477 -2 17 86 255
6 6 -2.7780764102935791 61 95 255
6 5.20749521255493164 -1 22 96 255
6 5.05315542221069336 0 30 103 255
6 5.05850982666015625 1 44 108 255
6 5.28061819076538086 2 63 112 255
6 5.96623706817626953 3 80 115 255
5.37325859069824219 6 4 136 179 255
6 6 3.02201461791992188 125 145 255
5.46822357177734375 7 -4 67 130 255
6 6.38751888275146484 -3 61 95 255
6 7 -3.17878937721252441 15 47 255
5.42653322219848633 7 4 125 171 255
6 7 3.1156928539276123 94 120 255
5.36862754821777344 8 -4 25 102 255
5.97945976257324219 8 -3 84 149 255
6 7.86046457290649414 -3 61 92 255
6 8 -2.95842409133911133 10 57 255
5.88867473602294922 8 3 112 171 255
6 7.43316125869750977 3 94 120 255
6 8 2.78069519996643066 56 101 255
5.28186178207397461 8 4 45 131 255
6 8.95072841644287109 -2 44 89 255
6 8.96700668334960938 -1 75 115 255
6 8.96971416473388672 0 89 127 255
6 8.96604347229003906 1 83 122 255
6 8.94477462768554688 2 56 101 255
6.26164674758911133 6 -2 82 118 255
6.48494338989257812 6 -1 99 135 255
6.57566070556640625 6 0 114 147 255
6.51527833938598633 6 1 128 156 255
6.31871747970581055 6 2 135 157 255
6.01065206527709961 6 3 125 145 255
6.08653736114501953 7 -3 61 92 255
6.40873622894287109 7 -2 103 131 255
6.61695575714111328 7 -1 133 157 255
6.68842458724975586 7 0 150 170 255
6.60625600814819336 7 1 152 171 255
6.39125680923461914 7 2 135 156 255
6.05916404724121094 7 3 94 120 255
6.31540870666503906 8 -2 44 89 255
6.50644588470458984 8 -1 75 115 255
6.56623697280883789 8 0 89 127 255
6.48822641372680664 8 1 83 122 255
6.27972078323364258 8 2 56 101 255
3 2 1 0
3 1 4 3
3 0 1 3
3 4 6 5
3 3 4 5
3 6 7 5
3 10 9 8
3 9 2 0
3 9 0 8
3 8 0 11
3 0 3 11
3 3 12 11
3 3 5 12
3 5 13 12
3 7 15 14
3 7 14 5
3 5 14 13
3 15 16 14
3 18 10 8
3 17 18 8
3 8 11 17
3 11 19 17
3 11 12 19
3 12 20 19
3 12 13 20
3 13 21 20
3 13 14 21
3 14 22 21
3 16 23 22
3 14 16 22
3 18 17 24
3 17 19 25
3 24 17 25
3 19 20 26
3 25 19 26
3 20 21 27
3 26 20 27
3 21 22 28
3 27 21 28
3 22 23 28
3 31 30 29
3 30 33 32
3 29 30 32
3 33 35 34
3 32 33 34
3 35 36 34
3 39 38 37
3 38 41 40
3 37 38 40
3 2 40 41
3 2 41 1
3 1 41 42
3 29 42 31
3 29 4 42
3 4 1 42
3 32 4 29
3 6 4 32
3 6 43 7
3 6 32 43
3 32 34 43
3 36 45 44
3 36 44 34
3 34 44 43
3 45 47 46
3 44 45 46
3 47 48 46
3 51 50 49
3 50 39 37
3 50 37 49
3 49 37 52
3 10 40 9
3 10 52 40
3 52 37 40
3 40 2 9
3 43 15 7
3 15 53 16
3 15 43 53
3 43 44 53
3 44 46 53
3 46 54 53
3 48 55 54
3 46 48 54
3 57 51 49
3 56 57 49
3 49 52 56
3 52 58 56
3 52 18 58
3 10 18 52
3 59 16 53
3 23 16 59
3 53 54 59
3 54 60 59
3 55 61 60
3 54 55 60
3 57 56 62
3 56 58 63
3 62 56 63
3 58 18 24
3 58 24 63
3 63 24 64
3 64 24 65
3 24 25 65
3 65 25 66
3 25 26 66
3 66 26 67
3 26 27 67
3 67 27 68
3 27 28 68
3 23 59 69
3 23 69 28
3 28 69 68
3 59 60 70
3 69 59 70
3 60 61 70
3 73 72 71
3 72 75 74
3 71 72 74
3 31 74 75
3 31 75 30
3 30 75 76
3 76 77 30
3 30 77 33
3 77 78 33
3 33 78 35
3 79 36 35
3 79 35 80
3 80 35 78
3 80 82 81
3 79 80 81
3 82 83 81
3 86 85 84
3 39 84 85
3 39 85 38
3 38 85 87
3 71 87 73
3 71 41 87
3 41 38 87
3 74 41 71
3 42 41 74
3 74 31 42
3 79 45 36
3 81 45 79
3 47 45 81
3 47 88 48
3 81 88 47
3 81 89 88
3 81 83 89
3 89 90 88
3 93 92 91
3 84 50 51
3 86 84 51
3 86 51 91
3 86 91 92
3 84 39 50
3 94 48 88
3 55 48 94
3 90 95 94
3 88 90 94
3 97 93 91
3 96 97 91
3 91 57 96
3 51 57 91
3 98 55 94
3 61 55 98
3 95 99 98
3 94 95 98
3 97 96 100
3 96 57 62
3 96 62 100
3 100 62 101
3 101 62 102
3 62 63 102
3 102 63 103
3 63 64 103
3 103 64 104
3 64 65 104
3 104 65 105
3 65 66 105
3 105 66 106
3 66 67 106
3 106 67 107
3 67 68 107
3 107 68 108
3 68 69 108
3 108 69 109
3 69 70 109
3 61 98 110
3 61 110 70
3 70 110 109
3 98 99 110
3 113 112 111
3 112 115 114
3 111 112 114
3 115 117 116
3 114 115 116
3 117 119 118
3 116 117 118
3 119 121 120
3 118 119 120
3 121 122 120
3 125 124 123
3 124 127 126
3 123 124 126
3 111 72 73
3 113 111 73
3 113 73 126
3 113 126 127
3 114 72 111
3 75 72 114
3 116 75 114
3 76 75 116
3 118 76 116
3 77 76 118
3 120 77 118
3 78 77 120
3 122 78 120
3 122 128 78
3 128 80 78
3 128 129 80
3 80 129 82
3 130 83 82
3 130 82 131
3 131 82 129
3 131 132 130
3 135 134 133
3 123 85 86
3 125 123 86
3 125 86 133
3 125 133 134
3 126 85 123
3 87 85 126
3 126 73 87
3 130 89 83
3 89 130 132
3 89 132 90
3 90 132 136
3 139 138 137
3 133 92 93
3 135 133 93
3 135 93 137
3 135 137 138
3 133 86 92
3 140 136 141
3 140 95 136
3 95 90 136
3 141 142 140
3 144 139 137
3 143 144 137
3 137 97 143
3 93 97 137
3 145 95 140
3 145 146 95
3 146 99 95
3 140 142 145
3 144 143 147
3 143 97 100
3 143 100 147
3 147 100 148
3 148 100 149
3 100 101 149
3 149 101 150
3 101 102 150
3 150 102 151
3 102 103 151
3 151 103 152
3 103 104 152
3 152 104 153
3 104 105 153
3 153 105 154
3 105 106 154
3 154 106 155
3 106 107 155
3 155 107 156
3 107 108 156
3 156 108 157
3 108 109 157
3 157 109 158
3 109 110 158
3 158 110 99
3 146 158 99
3 161 160 159
3 160 163 162
3 159 160 162
3 163 165 164
3 162 163 164
3 165 166 164
3 168 161 159
3 167 168 159
3 159 162 167
3 162 169 167
3 162 164 169
3 164 170 169
3 166 171 170
3 164 166 170
3 174 173 172
3 173 168 167
3 173 167 172
3 172 167 175
3 167 169 175
3 169 176 175
3 169 170 176
3 170 177 176
3 171 179 178
3 171 178 170
3 170 178 177
3 179 180 178
3 183 182 181
3 172 112 113
3 174 172 113
3 174 113 181
3 174 181 182
3 175 112 172
3 115 112 175
3 176 115 175
3 117 115 176
3 177 117 176
3 119 117 177
3 178 119 177
3 121 119 178
3 121 184 122
3 178 184 121
3 178 185 184
3 178 180 185
3 185 186 184
3 125 188 187
3 124 125 187
3 181 187 183
3 181 127 187
3 127 124 187
3 181 113 127
3 184 128 122
3 186 128 184
3 186 189 128
3 189 129 128
3 189 190 129
3 129 190 131
3 131 190 191
3 132 131 191
3 194 193 192
3 135 192 193
3 135 193 134
3 134 193 195
3 195 125 134
3 188 125 195
3 196 191 197
3 196 136 191
3 136 132 191
3 197 198 196
3 192 138 139
3 192 139 194
3 194 139 199
3 192 135 138
3 196 141 136
3 141 196 198
3 141 198 142
3 142 198 200
3 199 139 201
3 201 139 144
3 145 202 146
3 202 145 142
3 202 142 203
3 203 142 200
3 201 144 147
3 204 201 147
3 204 147 205
3 147 148 205
3 205 148 206
3 148 149 206
3 206 149 207
3 149 150 207
3 207 150 208
3 150 151 208
3 208 151 209
3 151 152 209
3 209 152 210
3 152 153 210
3 210 153 211
3 153 154 211
3 211 154 212
3 154 155 212
3 212 155 213
3 155 156 213
3 213 156 214
3 156 157 214
3 214 157 215
3 157 158 215
3 146 202 216
3 146 216 158
3 158 216 215
3 202 203 216
3 219 218 217
3 218 220 217
3 223 222 221
3 222 219 217
3 222 217 221
3 221 217 224
3 220 226 225
3 220 225 217
3 217 225 224
3 226 227 225
3 230 229 228
3 221 160 161
3 223 221 161
3 223 161 228
3 223 228 229
3 224 160 221
3 163 160 224
3 225 163 224
3 165 163 225
3 165 231 166
3 225 231 165
3 225 232 231
3 225 227 232
3 232 233 231
3 235 230 228
3 234 235 228
3 228 168 234
3 161 168 228
3 236 166 231
3 171 166 236
3 233 237 236
3 231 233 236
3 240 239 238
3 234 173 174
3 235 234 174
3 235 174 238
3 235 238 239
3 234 168 173
3 236 179 171
3 179 241 180
3 236 241 179
3 236 242 241
3 236 237 242
3 242 243 241
3 238 182 183
3 238 183 240
3 240 183 244
3 238 174 182
3 241 185 180
3 185 245 186
3 241 245 185
3 241 246 245
3 241 243 246
3 246 247 245
3 250 249 248
3 188 248 249
3 188 249 187
3 187 249 251
3 251 183 187
3 244 183 251
3 245 189 186
3 247 189 245
3 247 252 189
3 252 190 189
3 253 191 190
3 253 190 254
3 254 190 252
3 254 255 253
3 194 257 256
3 193 194 256
3 248 256 250
3 248 195 256
3 195 193 256
3 248 188 195
3 253 197 191
3 197 253 255
3 197 255 198
3 198 255 258
3 257 194 259
3 259 194 199
3 258 260 198
3 260 200 198
3 259 199 261
3 261 199 201
3 260 262 200
3 262 203 200
3 261 201 204
3 263 261 204
3 263 204 264
3 204 205 264
3 264 205 265
3 205 206 265
3 265 206 266
3 206 207 266
3 266 207 267
3 207 208 267
3 267 208 268
3 208 209 268
3 268 209 269
3 209 210 269
3 269 210 270
3 210 211 270
3 270 211 271
3 211 212 271
3 271 212 272
3 212 213 272
3 272 213 273
3 213 214 273
3 273 214 274
3 214 215 274
3 274 215 275
3 215 216 275
3 275 216 203
3 262 275 203
3 278 277 276
3 219 276 277
3 219 277 218
3 218 277 279
3 280 220 218
3 280 218 281
3 281 218 279
3 281 282 280
3 285 284 283
3 276 222 223
3 278 276 223
3 278 223 283
3 278 283 284
3 276 219 222
3 280 226 220
3 226 286 227
3 280 286 226
3 280 287 286
3 280 282 287
3 287 288 286
3 283 229 230
3 283 230 285
3 285 230 289
3 283 223 229
3 286 232 227
3 232 286 288
3 232 288 233
3 233 288 290
3 293 292 291
3 292 235 291
3 292 289 235
3 289 230 235
3 294 290 295
3 294 237 290
3 237 233 290
3 295 296 294
3 291 239 240
3 291 240 293
3 293 240 297
3 291 235 239
3 294 242 237
3 242 294 296
3 242 296 243
3 243 296 298
3 301 300 299
3 300 244 299
3 300 297 244
3 297 240 244
3 298 246 243
3 302 246 298
3 246 302 303
3 247 246 303
3 250 305 304
3 249 250 304
3 299 304 301
3 299 251 304
3 251 249 304
3 299 244 251
3 303 252 247
3 306 252 303
3 306 307 252
3 252 307 254
3 254 307 308
3 255 254 308
3 257 310 309
3 256 257 309
3 309 250 256
3 305 250 309
3 308 311 255
3 311 258 255
3 314 313 312
3 313 259 312
3 313 310 259
3 310 257 259
3 315 311 316
3 315 260 311
3 260 258 311
3 316 317 315
3 319 314 312
3 318 319 312
3 312 261 318
3 259 261 312
3 320 260 315
3 320 321 260
3 321 262 260
3 315 317 320
3 319 318 322
3 318 261 263
3 318 263 322
3 322 263 323
3 323 263 324
3 263 264 324
3 324 264 325
3 264 265 325
3 325 265 326
3 265 266 326
3 326 266 327
3 266 267 327
3 327 267 328
3 267 268 328
3 328 268 329
3 268 269 329
3 329 269 330
3 269 270 330
3 330 270 331
3 270 271 331
3 331 271 332
3 271 272 332
3 332 272 333
3 272 273 333
3 333 273 334
3 273 274 334
3 334 274 335
3 274 275 335
3 335 275 262
3 321 335 262
3 278 337 336
3 277 278 336
3 336 338 277
3 277 338 279
3 338 339 279
3 279 339 281
3 281 339 340
3 282 281 340
3 285 342 341
3 284 285 341
3 341 278 284
3 337 278 341
3 340 287 282
3 343 287 340
3 287 343 344
3 288 287 344
3 342 285 345
3 345 285 289
3 344 346 288
3 346 290 288
3 293 348 347
3 292 293 347
3 347 289 292
3 345 289 347
3 346 295 290
3 349 295 346
3 295 349 350
3 296 295 350
3 348 293 351
3 351 293 297
3 350 352 296
3 352 298 296
3 301 354 353
3 300 301 353
3 353 297 300
3 351 297 353
3 352 302 298
3 355 302 352
3 302 355 356
3 303 302 356
3 305 358 357
3 304 305 357
3 357 301 304
3 354 301 357
3 356 306 303
3 359 306 356
3 359 360 306
3 306 360 307
3 307 360 361
3 308 307 361
3 310 363 362
3 309 310 362
3 362 305 309
3 358 305 362
3 364 361 365
3 364 311 361
3 311 308 361
3 365 366 364
3 314 368 367
3 313 314 367
3 367 310 313
3 363 310 367
3 364 316 311
3 316 364 366
3 316 366 317
3 317 366 369
3 368 314 370
3 370 314 319
3 321 371 372
3 320 371 321
3 371 320 317
3 369 371 317
3 370 319 322
3 373 370 322
3 373 322 374
3 322 323 374
3 374 323 375
3 323 324 375
3 375 324 376
3 324 325 376
3 376 325 377
3 325 326 377
3 377 326 378
3 326 327 378
3 378 327 379
3 327 328 379
3 379 328 380
3 328 329 380
3 380 329 381
3 329 330 381
3 381 330 382
3 330 331 382
3 382 331 383
3 331 332 383
3 383 332 384
3 332 333 384
3 384 333 385
3 333 334 385
3 385 334 386
3 334 335 386
3 386 335 321
3 372 386 321
3 337 388 387
3 336 337 387
3 387 389 336
3 336 389 338
3 389 390 338
3 338 390 339
3 339 390 391
3 340 339 391
3 342 393 392
3 341 342 392
3 392 337 341
3 388 337 392
3 343 395 394
3 343 340 395
3 340 391 395
3 343 394 344
3 393 342 396
3 396 342 345
3 395 397 394
3 394 397 398
3 394 398 344
3 344 398 346
3 347 348 399
3 399 345 347
3 399 400 345
3 400 396 345
3 349 402 401
3 349 346 402
3 346 398 402
3 349 401 350
3 403 399 348
3 403 348 404
3 404 348 351
3 399 403 400
3 402 405 401
3 401 405 406
3 401 406 350
3 350 406 352
3 354 408 407
3 353 354 407
3 407 351 353
3 404 351 407
3 406 355 352
3 409 355 406
3 355 409 410
3 356 355 410
3 358 412 411
3 357 358 411
3 411 354 357
3 408 354 411
3 410 359 356
3 413 359 410
3 413 414 359
3 359 414 360
3 360 414 415
3 361 360 415
3 363 417 416
3 362 363 416
3 416 358 362
3 412 358 416
3 365 419 418
3 365 361 419
3 361 415 419
3 365 418 366
3 367 368 420
3 420 363 367
3 420 421 363
3 421 417 363
3 423 418 419
3 422 418 423
3 418 422 369
3 366 418 369
3 424 420 368
3 370 424 368
3 421 424 425
3 420 424 421
3 422 372 371
3 422 423 372
3 423 426 372
3 422 371 369
3 424 370 373
3 425 424 373
3 425 373 427
3 427 373 374
3 427 374 428
3 374 375 428
3 428 375 429
3 375 376 429
3 429 376 430
3 376 377 430
3 430 377 431
3 377 378 431
3 431 378 432
3 378 379 432
3 432 379 433
3 379 380 433
3 433 380 434
3 380 381 434
3 434 381 435
3 381 382 435
3 435 382 436
3 382 383 436
3 436 383 437
3 383 384 437
3 437 384 438
3 384 385 438
3 438 385 439
3 385 386 439
3 439 386 372
3 426 439 372
3 387 388 440
3 389 387 440
3 441 389 440
3 390 389 441
3 442 390 441
3 390 442 391
3 392 393 443
3 388 392 443
3 388 443 440
3 440 443 444
3 445 444 446
3 445 441 444
3 441 440 444
3 448 441 445
3 448 447 441
3 447 442 441
3 442 447 395
3 391 442 395
3 449 443 393
3 396 449 393
3 450 449 451
3 450 444 449
3 444 443 449
3 444 450 446
3 448 452 447
3 454 453 397
3 452 454 397
3 452 397 395
3 452 395 447
3 397 453 398
3 455 449 396
3 455 396 456
3 456 396 400
3 449 455 451
3 454 457 453
3 453 457 458
3 453 458 398
3 398 458 402
3 403 404 459
3 459 400 403
3 459 460 400
3 460 456 400
3 458 405 402
3 461 405 458
3 405 461 462
3 406 405 462
3 407 408 463
3 463 465 464
3 407 463 464
3 407 464 459
3 407 459 404
3 459 464 460
3 462 409 406
3 466 409 462
3 409 466 467
3 410 409 467
3 412 469 468
3 411 412 468
3 408 470 463
3 408 411 470
3 411 468 470
3 463 470 465
3 467 413 410
3 471 413 467
3 471 472 413
3 413 472 414
3 414 472 473
3 415 414 473
3 417 475 474
3 416 417 474
3 474 412 416
3 469 412 474
3 473 476 415
3 476 419 415
3 475 417 477
3 477 417 421
3 476 478 419
3 478 423 419
3 477 421 479
3 479 421 425
3 478 480 423
3 480 426 423
3 479 425 427
3 481 479 427
3 481 427 482
3 427 428 482
3 482 428 483
3 428 429 483
3 483 429 484
3 429 430 484
3 484 430 485
3 430 431 485
3 485 431 486
3 431 432 486
3 486 432 487
3 432 433 487
3 487 433 488
3 433 434 488
3 488 434 489
3 434 435 489
3 489 435 490
3 435 436 490
3 490 436 491
3 436 437 491
3 491 437 492
3 437 438 492
3 492 438 493
3 438 439 493
3 493 439 426
3 480 493 426
3 445 446 494
3 445 494 448
3 450 451 495
3 446 450 495
3 446 495 494
3 494 495 496
3 452 448 494
3 452 494 497
3 497 494 496
3 452 497 454
3 455 456 498
3 451 455 498
3 451 498 495
3 495 498 499
3 495 499 496
3 496 499 500
3 496 500 497
3 497 500 501
3 457 454 497
3 457 497 502
3 502 497 501
3 457 502 458
3 503 498 456
3 460 503 456
3 504 503 505
3 504 499 503
3 499 498 503
3 499 506 500
3 504 506 499
3 500 507 501
3 506 507 500
3 509 501 507
3 509 508 501
3 508 502 501
3 461 458 502
3 461 502 510
3 510 502 508
3 461 510 462
3 464 465 511
3 511 513 512
3 464 511 512
3 464 512 503
3 464 503 460
3 503 512 505
3 509 514 508
3 508 515 510
3 514 515 508
3 517 516 466
3 515 517 466
3 515 466 462
3 515 462 510
3 466 516 467
3 468 469 518
3 518 520 519
3 518 519 468
3 468 519 470
3 465 521 511
3 465 470 521
3 470 519 521
3 511 521 513
3 517 522 516
3 516 471 467
3 516 522 471
3 522 523 471
3 525 524 472
3 525 472 523
3 523 472 471
3 472 524 473
3 474 475 526
3 526 528 527
3 474 526 527
3 474 527 518
3 474 518 469
3 518 527 520
3 525 529 524
3 524 529 530
3 524 530 473
3 473 530 476
3 531 526 475
3 531 475 532
3 532 475 477
3 526 531 528
3 530 533 476
3 533 478 476
3 532 477 534
3 534 477 479
3 533 535 478
3 535 480 478
3 534 479 481
3 536 534 481
3 536 481 537
3 481 482 537
3 537 482 538
3 482 483 538
3 538 483 539
3 483 484 539
3 539 484 540
3 484 485 540
3 540 485 541
3 485 486 541
3 541 486 542
3 486 487 542
3 542 487 543
3 487 488 543
3 543 488 544
3 488 489 544
3 544 489 545
3 489 490 545
3 545 490 546
3 490 491 546
3 546 491 547
3 491 492 547
3 547 492 548
3 492 493 548
3 548 493 480
3 535 548 480
3 504 505 549
3 506 504 549
3 550 506 549
3 507 506 550
3 551 507 550
3 507 551 509
3 512 513 552
3 552 554 553
3 512 552 553
3 512 553 549
3 512 549 505
3 549 555 550
3 553 555 549
3 550 556 551
3 555 556 550
3 551 514 509
3 551 556 514
3 556 557 514
3 559 558 515
3 559 515 557
3 557 515 514
3 515 558 517
3 519 520 560
3 560 562 561
3 560 561 519
3 519 561 521
3 513 563 552
3 513 521 563
3 521 561 563
3 552 563 554
3 559 564 558
3 558 522 517
3 558 564 522
3 564 565 522
3 567 566 523
3 567 523 565
3 565 523 522
3 523 566 525
3 528 569 568
3 527 528 568
3 520 570 560
3 520 527 570
3 527 568 570
3 560 570 562
3 567 571 566
3 573 572 529
3 571 573 529
3 571 529 525
3 571 525 566
3 529 572 530
3 531 532 574
3 574 528 531
3 574 575 528
3 575 569 528
3 577 572 573
3 576 572 577
3 572 576 533
3 530 572 533
3 578 574 532
3 534 578 532
3 575 578 579
3 574 578 575
3 581 576 577
3 580 576 581
3 576 580 535
3 533 576 535
3 578 534 536
3 579 578 536
3 579 536 582
3 582 536 537
3 582 537 583
3 537 538 583
3 583 538 584
3 538 539 584
3 584 539 585
3 539 540 585
3 585 540 586
3 540 541 586
3 586 541 587
3 541 542 587
3 587 542 588
3 542 543 588
3 588 543 589
3 543 544 589
3 589 544 590
3 544 545 590
3 590 545 591
3 545 546 591
3 591 546 592
3 546 547 592
3 580 581 592
3 580 592 548
3 548 592 547
3 580 548 535
3 553 554 593
3 555 553 593
3 594 555 593
3 556 555 594
3 595 556 594
3 557 556 595
3 596 557 595
3 557 596 559
3 561 562 597
3 597 599 598
3 597 598 561
3 561 598 563
3 554 600 593
3 554 563 600
3 563 598 600
3 593 601 594
3 600 601 593
3 594 602 595
3 601 602 594
3 595 603 596
3 602 603 595
3 596 564 559
3 596 603 564
3 603 604 564
3 606 605 565
3 606 565 604
3 604 565 564
3 565 605 567
3 568 569 607
3 607 609 608
3 607 608 568
3 568 608 570
3 562 610 597
3 562 570 610
3 570 608 610
3 597 610 599
3 606 611 605
3 613 612 571
3 611 613 571
3 611 571 567
3 611 567 605
3 571 612 573
3 614 607 569
3 575 614 569
3 609 614 615
3 607 614 609
3 617 612 613
3 616 612 617
3 612 616 577
3 573 612 577
3 618 614 575
3 579 618 575
3 615 618 619
3 614 618 615
3 621 616 617
3 620 616 621
3 616 620 581
3 577 616 581
3 618 579 582
3 619 618 582
3 619 582 622
3 622 582 583
3 622 583 623
3 583 584 623
3 623 584 624
3 584 585 624
3 624 585 625
3 585 586 625
3 625 586 626
3 586 587 626
3 626 587 627
3 587 588 627
3 627 588 628
3 588 589 628
3 628 589 629
3 589 590 629
3 629 590 630
3 590 591 630
3 620 621 630
3 620 630 592
3 592 630 591
3 620 592 581
3 598 599 631
3 600 598 631
3 632 600 631
3 601 600 632
3 633 601 632
3 602 601 633
3 634 602 633
3 603 602 634
3 635 603 634
3 604 603 635
3 636 604 635
3 604 636 606
3 608 609 637
3 610 608 637
3 638 610 637
3 638 640 639
3 610 638 639
3 610 639 631
3 610 631 599
3 631 641 632
3 639 641 631
3 632 642 633
3 641 642 632
3 633 643 634
3 642 643 633
3 634 644 635
3 643 644 634
3 635 645 636
3 644 645 635
3 647 646 611
3 645 647 611
3 645 611 606
3 645 606 636
3 611 646 613
3 648 637 609
3 615 648 609
3 649 648 650
3 649 638 648
3 638 637 648
3 638 649 640
3 652 646 647
3 651 646 652
3 646 651 617
3 613 646 617
3 653 648 615
3 619 653 615
3 650 654 655
3 650 648 654
3 648 653 654
3 655 654 656
3 659 657 658
3 658 651 652
3 658 657 651
3 657 660 651
3 651 660 621
3 617 651 621
3 653 619 622
3 654 653 622
3 623 654 622
3 656 654 623
3 656 623 661
3 661 623 624
3 661 624 662
3 624 625 662
3 662 625 663
3 625 626 663
3 663 626 664
3 626 627 664
3 664 627 665
3 627 628 665
3 657 659 665
3 657 665 629
3 629 665 628
3 660 657 629
3 630 660 629
3 660 630 621
3 639 640 666
3 641 639 666
3 667 641 666
3 642 641 667
3 668 642 667
3 643 642 668
3 669 643 668
3 644 643 669
3 670 644 669
3 645 644 670
3 671 645 670
3 645 671 647
3 649 650 672
3 640 649 672
3 640 672 666
3 666 672 673
3 666 673 667
3 667 673 674
3 667 674 668
3 668 674 675
3 668 675 669
3 669 675 676
3 669 676 670
3 670 676 677
3 670 677 671
3 671 677 678
3 671 678 652
3 647 671 652
3 672 650 655
3 655 656 679
3 655 679 672
3 672 679 673
3 673 679 674
3 674 679 680
3 674 680 675
3 675 680 681
3 675 681 676
3 676 681 682
3 676 682 677
3 677 682 683
3 659 658 678
3 659 678 683
3 683 678 677
3 678 658 652
3 679 656 661
3 680 679 661
3 662 680 661
3 681 680 662
3 663 681 662
3 682 681 663
3 664 682 663
3 683 682 664
3 665 683 664
3 683 665 659
