ply
format ascii 1.0
element vertex 254
property float x
property float y
property float z
property uchar red
property uchar green
property uchar blue
element face 508
property list uchar int vertex_indices
end_header
-7.18441295623779297 7 -2 228 145 126
-7 6.79976081848144531 -2 240 45 0
-7 7 -2.9239506721496582 226 90 82
-7.23853969573974609 7 -1 236 137 104
-7 6.81467294692993164 -1 216 38 9
-7.21433067321777344 7 0 241 142 92
-7 6.83255577087402344 0 208 26 14
-7.11489534378051758 7 1 245 156 91
-7 6.8758387565612793 1 222 22 10
-7 7 1.43031084537506104 252 96 17
-7 7.22934436798095703 -2 241 61 42
-7 7.3039093017578125 -1 249 56 20
-7 7.27186775207519531 0 252 70 13
-7 7.14118623733520508 1 252 96 17
-6.33371353149414062 7 -4 206 133 132
-6 6.78907299041748047 -4 243 89 0
-6 7 -4.6081547737121582 193 128 122
-6.91398811340332031 7 -3 226 90 82
-6 6.89076757431030273 -3 168 78 19
-6.48625421524047852 7 -2 241 61 42
-6 7 -2.51972746849060059 252 25 9
-6.66735506057739258 7 -1 249 56 20
-6.7028651237487793 7 0 252 70 13
-6.69356346130371094 7 1 252 96 17
-6.20415210723876953 7 2 251 131 31
-6 6.97184944152832031 2 110 39 38
-6 7 1.86952817440032959 238 56 11
-6.11840057373046875 7 3 250 169 56
-6 6.92047882080078125 3 193 60 26
-6 7 3.18139767646789551 254 128 4
-6 7.3512568473815918 -4 228 69 56
-6.03020858764648438 8 -3 216 151 128
-6 8 -3.05176115036010742 201 135 122
-6.31130552291870117 8 -2 226 143 104
-6 7.38390827178955078 -2 250 12 0
-6.41141462326049805 8 -1 234 142 84
-6 7.55616664886474609 -1 236 11 10
-6.38775396347045898 8 0 240 151 72
-6 7.58238506317138672 0 229 34 16
-6.23990058898925781 8 1 244 167 70
-6 7.54105377197265625 1 238 56 11
-6 7.26302719116210938 2 251 86 1
-6 8 1.66861224174499512 248 130 20
-6 7.12392091751098633 3 254 128 4
-6 8.72952938079833984 -3 218 108 81
-6 8.96769046783447266 -2 233 91 46
-6 8.97405242919921875 -1 242 91 25
-6 8.97284603118896484 0 247 106 18
-6 8.95908737182617188 1 248 130 20
-5.61544895172119141 7 -5 193 128 122
-5 6.81241846084594727 -5 240 113 0
-5 7 -5.59499359130859375 169 136 130
-5.39173126220703125 7 -4 228 69 56
-5 7 -4.38443803787231445 221 87 60
-5.85040807723999023 7 -3 252 25 9
-5.96299362182617188 7 2 251 86 1
-5.79611444473266602 7 3 254 128 4
-5.10975122451782227 7 4 251 175 33
-5 6.96004438400268555 4 168 70 35
-5 7 3.8752896785736084 234 97 17
-5 7 4.09554052352905273 254 143 0
-5 7.45352697372436523 -5 221 87 60
-5.38494586944580078 8 -4 201 135 122
-5 7.35779380798339844 -4 254 53 3
-5 8 -4.48195028305053711 181 128 125
-5 7.67763042449951172 -3 221 60 13
-5 7.74298000335693359 -2 159 64 38
-5 7.77516269683837891 -1 116 58 45
-5 7.78241205215454102 0 104 52 47
-5 7.7619929313659668 1 124 52 50
-5.7781672477722168 8 2 248 160 32
-5 7.72584676742553711 2 177 69 45
-5.17785739898681641 8 3 248 192 50
-5 7.71855449676513672 3 234 97 17
-5 7.08364439010620117 4 254 143 0
-5 8 3.20059633255004883 250 166 13
-5 8.96867752075195312 -4 208 85 74
-5 8.97901058197021484 -3 235 47 25
-5 8.97854328155517578 -2 251 36 2
-5 8.97598171234130859 -1 254 48 0
-5 8.97507667541503906 0 254 70 2
-5 8.97676658630371094 1 254 96 0
-5 8.97605228424072266 2 253 128 0
-5 8.9373016357421875 3 250 166 13
-4.56569480895996094 7 -6 169 136 130
-4 6.80686235427856445 -6 254 135 14
-4 7 -6.29713773727416992 132 127 125
-4.40490055084228516 7 -5 221 87 60
-4 7 -5.43419694900512695 190 113 91
-4.89351272583007812 7 4 254 143 0
-4 7.3181605339050293 -6 190 113 91
-4.47333860397338867 8 -5 181 128 125
-4 7.38585472106933594 -5 252 79 12
-4 8 -5.36303520202636719 152 135 134
-4 7.71587944030761719 -4 217 82 12
-4 7.81354856491088867 -3 127 72 41
-4.14874124526977539 8 -2 251 36 2
-4 8 -2.19456958770751953 254 3 0
-4.49596452713012695 8 -1 254 48 0
-4.52331733703613281 8 0 254 70 2
-4.28537178039550781 8 1 254 96 0
-4 7.86685848236083984 2 63 41 40
-4 8 1.42871546745300293 231 82 34
-4 7.76929283142089844 3 149 74 53
-4.12344264984130859 8 4 248 204 42
-4 7.84468793869018555 4 236 116 17
-4 8 4.09270715713500977 249 182 14
-4 8.96761322021484375 -5 187 90 89
-4 8.97915840148925781 -4 228 31 29
-4 8.97057628631591797 -3 254 3 0
-4 8.95721244812011719 2 249 106 15
-4 8.97454357147216797 3 254 141 0
-4 8.89350128173828125 4 249 182 14
-3 6.91392374038696289 -6 229 141 0
-3 7 -6.63777399063110352 135 124 120
-3 7 -5.88261222839355469 218 107 57
-3 7.88911104202270508 -6 218 107 57
-3 7.68699026107788086 -5 247 98 0
-3 8 -5.96487236022949219 149 117 114
-3 7.81838464736938477 -4 154 89 33
-3.53888535499572754 8 -3 254 3 0
-3 8 -3.54652881622314453 248 33 4
-3.70411252975463867 8 2 249 106 15
-3 7.89980554580688477 3 67 45 42
-3 8 2.76563143730163574 215 92 48
-3 7.78356409072875977 4 183 92 46
-3 8 4.48509788513183594 253 161 0
-3 8.97856521606445312 -5 200 71 58
-3 8.96968364715576172 -4 248 33 4
-3 8.94218349456787109 3 250 120 15
-3 8.96985530853271484 4 253 161 0
-2.63676786422729492 7 -7 135 124 120
-2 6.86518287658691406 -7 240 160 59
-2 7 -7.12334728240966797 78 59 52
-2.65097141265869141 7 -6 218 107 57
-2 7 -6.65195989608764648 139 117 108
-2 7.15344810485839844 -7 139 117 108
-2.93888187408447266 8 -6 149 117 114
-2 7.49328136444091797 -6 238 115 35
-2 8 -6.25859785079956055 106 94 92
-2 7.75234174728393555 -5 223 114 6
-2.255767822265625 8 -4 248 33 4
-2 8 -4.20031404495239258 213 69 39
-2.6615293025970459 8 3 250 120 15
-2 7.82877635955810547 4 136 73 54
-2 8 3.52392935752868652 235 104 34
-2 8 4.91237926483154297 254 141 0
-2 8.962310791015625 -6 147 106 99
-2 8.97772026062011719 -5 213 69 39
-2 8.96660137176513672 4 254 141 0
-1 6.87203836441040039 -7 246 172 51
-1 7 -7.15993309020996094 65 49 42
-1 7 -6.77338695526123047 136 114 102
-1 7.20367002487182617 -7 136 114 102
-1 7.62378835678100586 -6 244 128 29
-1 8 -6.34487724304199219 92 81 78
-1 7.79073476791381836 -5 213 125 9
-1 8 -4.54391288757324219 216 79 34
-1 7.88584518432617188 4 119 64 53
-1 8 3.77556324005126953 227 89 40
-1.71942901611328125 8 5 244 186 21
-1 7.92173147201538086 5 239 111 15
-1 8 5.06975793838500977 241 169 18
-1 8.97050666809082031 -6 141 102 92
-1 8.97395038604736328 -5 216 79 34
-1 8.94924163818359375 4 254 123 2
-1 8.87694931030273438 5 241 169 18
0 6.90211248397827148 -7 240 179 62
0 7 -7.12146902084350586 48 35 28
0 7 -6.82939004898071289 120 107 98
0 7.15371274948120117 -7 120 107 98
0 7.66322183609008789 -6 237 139 37
0 8 -6.30956602096557617 75 63 59
0 7.80352449417114258 -5 223 139 5
0 8 -4.58537435531616211 205 92 42
0 7.90698623657226562 4 135 61 52
0 8 3.82158970832824707 235 72 31
0 7.96713113784790039 5 245 99 9
0 8 5.02938652038574219 234 155 26
0 8.96763801574707031 -6 125 100 91
0 8.97201824188232422 -5 205 92 42
0 8.93723201751708984 4 253 106 0
0 8.74848270416259766 5 234 155 26
1 6.98955535888671875 -7 214 173 89
1 7 -7.0096278190612793 27 19 14
1 7 -6.97445917129516602 90 89 89
1 7.01177120208740234 -7 90 89 89
1 7.72397851943969727 -6 211 142 62
1 8 -6.14767789840698242 55 43 38
1 7.78599309921264648 -5 245 157 0
1 8 -4.39644050598144531 176 101 60
1 7.88448429107666016 4 179 53 41
1 8 3.70924282073974609 251 50 11
0.156410396099090576 8 5 234 155 26
1 8 4.53697729110717773 245 93 3
1 8.9362030029296875 -6 99 91 88
1 8.97390937805175781 -5 176 101 60
1 8.94901561737060547 4 245 93 3
1.03242766857147217 7 -7 90 89 89
1.38011634349822998 8 -6 99 91 88
2 7.76633977890014648 -5 252 168 17
2 8 -5.59270334243774414 68 64 61
1.62341439723968506 8 -4 247 103 7
2 7.90818357467651367 -4 217 157 8
2 8 -3.80361294746398926 209 109 36
2 7.89394950866699219 4 236 30 12
2 8 3.21852660179138184 250 36 0
2 8 4.21056318283081055 222 92 26
2 8.97208595275878906 -5 129 98 78
2 8.9367523193359375 -4 209 109 36
2 8.93770980834960938 4 222 92 26
3 7.92688560485839844 -5 197 149 69
3 8 -5.04667425155639648 38 30 25
3 7.80544853210449219 -4 254 179 6
2.88026809692382812 8 -3 253 113 1
3 7.94692468643188477 -3 220 162 8
3 8 -2.82766461372375488 206 111 36
2.20801019668579102 8 3 250 36 0
3 7.89563369750976562 3 233 41 11
3 8 2.26228857040405273 241 14 5
2.40500926971435547 8 4 222 92 26
3 8 3.42020106315612793 214 53 29
3 8.79898262023925781 -5 79 77 76
3 8.96948909759521484 -4 141 101 71
3 8.891815185546875 -3 206 111 36
3 8.94127178192138672 3 214 53 29
3.05209898948669434 8 -5 79 77 76
3.91141510009765625 8 -4 141 101 71
4 7.83227920532226562 -3 250 178 17
4 8 -3.88824868202209473 76 74 72
3.64215183258056641 8 -2 244 109 7
4 7.86537027359008789 -2 249 171 0
3.85221362113952637 8 -1 254 98 0
4 7.9229435920715332 -1 232 151 4
3.88408541679382324 8 0 254 78 0
4 7.93862819671630859 0 225 132 9
3.76660513877868652 8 1 253 48 0
4 7.90663909912109375 1 236 109 5
3.31484317779541016 8 2 241 14 5
4 7.91173696517944336 2 253 73 0
3.4037930965423584 8 3 214 53 29
4 8 2.3438420295715332 181 60 55
4 8.96085834503173828 -3 123 96 75
4 8.95663928985595703 -2 167 103 58
4 8.92413997650146484 -1 195 97 41
4 8.90528774261474609 0 204 82 34
4 8.93650341033935547 1 197 66 38
4 8.92537879943847656 2 181 60 55
4.34572029113769531 8 -3 123 96 75
4.62376689910888672 8 -2 167 103 58
4.89170169830322266 8 -1 195 97 41
4.68823909759521484 8 0 204 82 34
4.39892005920410156 8 1 197 66 38
4.16933536529541016 8 2 181 60 55
3 2 1 0
3 1 4 3
3 0 1 3
3 4 6 5
3 3 4 5
3 6 8 7
3 5 6 7
3 8 9 7
3 2 0 10
3 0 3 11
3 10 0 11
3 3 5 12
3 11 3 12
3 5 7 13
3 12 5 13
3 7 9 13
3 16 15 14
3 15 18 17
3 14 15 17
3 2 17 18
3 2 18 1
3 20 19 18
3 19 1 18
3 4 1 19
3 21 4 19
3 6 4 21
3 22 6 21
3 8 6 22
3 23 8 22
3 24 9 8
3 24 8 25
3 23 26 8
3 26 25 8
3 25 28 27
3 24 25 27
3 28 29 27
3 16 14 30
3 32 30 14
3 32 14 31
3 31 14 17
3 20 34 19
3 17 2 33
3 17 33 31
3 33 2 10
3 10 35 33
3 10 11 35
3 34 36 19
3 36 21 19
3 11 37 35
3 11 12 37
3 36 38 21
3 38 22 21
3 12 39 37
3 12 13 39
3 38 40 22
3 40 23 22
3 13 42 39
3 13 41 42
3 13 9 41
3 24 41 9
3 23 40 26
3 24 27 43
3 41 24 43
3 27 29 43
3 32 31 44
3 31 33 45
3 44 31 45
3 33 35 46
3 45 33 46
3 35 37 47
3 46 35 47
3 37 39 48
3 47 37 48
3 39 42 48
3 51 50 49
3 16 49 50
3 16 50 15
3 53 52 50
3 52 15 50
3 18 15 52
3 54 18 52
3 18 54 20
3 25 26 55
3 28 25 55
3 56 28 55
3 57 29 28
3 57 28 58
3 56 59 28
3 59 58 28
3 58 60 57
3 51 49 61
3 61 62 64
3 61 30 62
3 61 49 30
3 16 30 49
3 53 63 52
3 52 65 54
3 52 63 65
3 62 30 32
3 54 34 20
3 54 65 34
3 65 66 34
3 66 67 34
3 34 67 36
3 67 68 36
3 36 68 38
3 68 69 38
3 38 69 40
3 42 41 70
3 26 40 55
3 40 71 55
3 40 69 71
3 41 72 70
3 41 43 72
3 71 73 55
3 73 56 55
3 43 75 72
3 43 74 75
3 43 29 74
3 57 74 29
3 56 73 59
3 57 60 74
3 64 62 76
3 62 32 44
3 62 44 76
3 76 44 77
3 77 44 78
3 44 45 78
3 78 45 79
3 45 46 79
3 79 46 80
3 46 47 80
3 80 47 81
3 47 48 81
3 42 70 82
3 42 82 48
3 48 82 81
3 70 72 83
3 82 70 83
3 72 75 83
3 86 85 84
3 51 84 85
3 51 85 50
3 88 87 85
3 87 50 85
3 50 87 53
3 58 59 89
3 58 89 60
3 86 84 90
3 90 91 93
3 90 61 91
3 90 84 61
3 51 61 84
3 88 92 87
3 91 61 64
3 87 92 53
3 92 63 53
3 92 94 63
3 94 95 63
3 63 95 65
3 97 96 66
3 97 66 95
3 95 66 65
3 67 66 96
3 98 67 96
3 68 67 98
3 99 68 98
3 69 68 99
3 100 69 99
3 100 102 101
3 100 101 69
3 69 101 71
3 101 103 71
3 71 103 73
3 75 74 104
3 59 73 89
3 73 105 89
3 73 103 105
3 104 74 60
3 104 60 106
3 89 105 60
3 105 106 60
3 93 91 107
3 91 64 76
3 91 76 107
3 107 76 108
3 108 76 109
3 76 77 109
3 96 97 109
3 96 109 78
3 78 109 77
3 98 96 78
3 79 98 78
3 99 98 79
3 80 99 79
3 100 99 80
3 81 100 80
3 102 100 81
3 102 81 110
3 110 81 82
3 110 82 111
3 82 83 111
3 75 104 112
3 75 112 83
3 83 112 111
3 104 106 112
3 86 114 113
3 85 86 113
3 85 113 115
3 88 85 115
3 114 86 90
3 116 114 90
3 115 117 88
3 88 117 92
3 118 116 90
3 118 90 93
3 117 119 92
3 92 119 94
3 121 120 95
3 121 95 119
3 119 95 94
3 95 120 97
3 101 102 122
3 122 124 123
3 122 123 101
3 101 123 103
3 123 125 103
3 103 125 105
3 105 125 126
3 106 105 126
3 118 93 107
3 127 118 107
3 127 107 128
3 107 108 128
3 120 121 128
3 120 128 109
3 109 128 108
3 120 109 97
3 122 102 110
3 124 122 110
3 124 110 129
3 129 110 111
3 129 111 130
3 111 112 130
3 130 112 106
3 126 130 106
3 133 132 131
3 114 131 132
3 114 132 113
3 135 134 132
3 134 113 132
3 113 134 115
3 133 131 136
3 136 137 139
3 136 116 137
3 136 131 116
3 114 116 131
3 135 138 134
3 137 116 118
3 134 138 115
3 138 117 115
3 138 140 117
3 142 141 119
3 142 119 140
3 140 119 117
3 119 141 121
3 123 124 143
3 143 145 144
3 143 144 123
3 123 144 125
3 125 144 146
3 126 125 146
3 139 137 147
3 137 118 127
3 137 127 147
3 147 127 148
3 141 142 148
3 141 148 128
3 128 148 127
3 141 128 121
3 143 124 129
3 145 143 129
3 145 129 149
3 149 129 130
3 149 130 126
3 146 149 126
3 133 151 150
3 132 133 150
3 132 150 152
3 135 132 152
3 151 133 136
3 153 151 136
3 152 154 135
3 135 154 138
3 155 153 136
3 155 136 139
3 154 156 138
3 138 156 140
3 140 156 157
3 142 140 157
3 145 159 158
3 144 145 158
3 160 146 144
3 160 144 161
3 161 144 158
3 161 162 160
3 155 139 147
3 163 155 147
3 163 147 164
3 147 148 164
3 164 148 142
3 157 164 142
3 159 145 149
3 165 159 149
3 146 160 166
3 146 166 149
3 149 166 165
3 160 162 166
3 151 168 167
3 150 151 167
3 150 167 169
3 152 150 169
3 168 151 153
3 170 168 153
3 169 171 152
3 152 171 154
3 172 170 153
3 172 153 155
3 171 173 154
3 154 173 156
3 156 173 174
3 157 156 174
3 159 176 175
3 158 159 175
3 175 177 158
3 158 177 161
3 161 177 178
3 162 161 178
3 172 155 163
3 179 172 163
3 179 163 180
3 163 164 180
3 180 164 157
3 174 180 157
3 176 159 165
3 181 176 165
3 181 165 182
3 165 166 182
3 182 166 162
3 178 182 162
3 168 184 183
3 167 168 183
3 167 183 185
3 169 167 185
3 184 168 170
3 186 184 170
3 185 187 169
3 169 187 171
3 188 186 170
3 188 170 172
3 187 189 171
3 171 189 173
3 173 189 190
3 174 173 190
3 176 192 191
3 175 176 191
3 194 193 177
3 194 177 191
3 191 177 175
3 177 193 178
3 188 172 179
3 195 188 179
3 195 179 196
3 179 180 196
3 196 180 174
3 190 196 174
3 192 176 181
3 197 192 181
3 193 194 197
3 193 197 182
3 182 197 181
3 193 182 178
3 183 184 198
3 183 198 185
3 198 184 186
3 187 185 198
3 187 198 199
3 186 188 198
3 188 199 198
3 199 201 200
3 199 200 187
3 187 200 189
3 202 190 189
3 202 189 203
3 203 189 200
3 203 204 202
3 192 206 205
3 191 192 205
3 191 205 207
3 194 191 207
3 199 188 195
3 201 199 195
3 201 195 208
3 208 195 196
3 190 202 209
3 190 209 196
3 196 209 208
3 202 204 209
3 206 192 197
3 210 206 197
3 210 197 194
3 207 210 194
3 201 212 211
3 200 201 211
3 211 213 200
3 200 213 203
3 214 204 203
3 214 203 215
3 215 203 213
3 215 216 214
3 219 218 217
3 206 217 218
3 206 218 205
3 221 220 218
3 220 205 218
3 205 220 207
3 212 201 208
3 222 212 208
3 222 208 223
3 208 209 223
3 204 214 224
3 204 224 209
3 209 224 223
3 214 216 224
3 219 217 225
3 220 221 225
3 220 225 210
3 217 206 225
3 206 210 225
3 220 210 207
3 211 212 226
3 213 211 226
3 227 213 226
3 227 229 228
3 227 228 213
3 213 228 215
3 230 216 215
3 230 215 231
3 231 215 228
3 231 233 232
3 230 231 232
3 233 235 234
3 232 233 234
3 235 237 236
3 234 235 236
3 237 239 238
3 236 237 238
3 219 238 239
3 219 239 218
3 241 240 239
3 240 218 239
3 218 240 221
3 226 212 222
3 227 226 222
3 223 227 222
3 229 227 223
3 229 223 242
3 242 223 224
3 216 230 243
3 216 243 224
3 224 243 242
3 230 232 244
3 243 230 244
3 232 234 245
3 244 232 245
3 234 236 246
3 245 234 246
3 236 238 247
3 246 236 247
3 240 241 247
3 240 247 225
3 238 219 247
3 219 225 247
3 240 225 221
3 228 229 248
3 231 228 248
3 249 231 248
3 233 231 249
3 250 233 249
3 235 233 250
3 251 235 250
3 237 235 251
3 252 237 251
3 239 237 252
3 253 239 252
3 239 253 241
3 248 229 242
3 249 248 242
3 243 249 242
3 250 249 243
3 244 250 243
3 251 250 244
3 245 251 244
3 252 251 245
3 246 252 245
3 253 252 246
3 247 253 246
3 253 247 241
