ply
format ascii 1.0
element vertex 416
property float x
property float y
property float z
property uchar red
property uchar green
property uchar blue
element face 816
property list uchar int vertex_indices
end_header
-9.80126571655273438 8 -9 241 151 255
-9 7.31815719604492188 -9 206 162 255
-9 8 -9.80126571655273438 253 134 255
-9 8 -8.21439170837402344 212 136 255
-9 8.80126571655273438 -9 212 136 255
-8 7.83613109588623047 -9 177 152 255
-8 8 -9.50261497497558594 230 122 255
-8 8 -8.81114292144775391 177 122 255
-8 8.50261497497558594 -9 177 122 255
-7.60183048248291016 8 -9 177 122 255
1.05221331119537354 8 -9 34 42 127
2 7.55842018127441406 -9 58 63 154
2 8 -9.72736072540283203 129 64 173
2 8 -8.49021816253662109 42 35 129
2 8.72736072540283203 -9 42 35 129
2.95375585556030273 7 -9 58 63 154
3 6.97079038619995117 -9 12 10 255
3 7 -9.14058399200439453 186 69 255
3 7 -8.96979236602783203 73 53 184
3 8 -9.85558605194091797 156 64 187
2.73276495933532715 8 -8 9 64 103
3 7.848785400390625 -8 34 70 112
3 8 -7.80197381973266602 10 44 110
3 8.85558605194091797 -9 65 37 137
3 8.48336696624755859 -8 10 44 110
4 6.22546195983886719 -9 59 0 255
4 7 -9.80430984497070312 209 39 255
4 7 -8.19912910461425781 108 41 225
4 8 -9.90509319305419922 198 63 213
4 7.17438697814941406 -8 36 55 141
3.91193938255310059 8 -7 0 99 93
4 7.94132518768310547 -7 17 90 102
4 8 -6.91136312484741211 0 87 119
3.3070065975189209 8 8 248 90 255
4 7.5378422737121582 8 231 91 255
4 8 7.3565068244934082 202 48 255
4 8 8.7359161376953125 255 68 244
4 8.90509319305419922 -9 96 40 155
4 8.82871627807617188 -8 13 19 126
4 8.26787567138671875 -7 0 87 119
4 8.7359161376953125 8 255 68 244
4.26021337509155273 6 -9 59 0 255
5 5.28406715393066406 -9 99 0 255
5 6 -9.77280139923095703 218 0 255
5 6 -8.34464359283447266 121 0 255
5 7 -9.89319610595703125 244 14 255
4.22287940979003906 7 -8 36 55 141
5 6.33422327041625977 -8 0 4 255
5 7 -7.21882438659667969 53 35 181
4.68713092803955078 7 8 231 91 255
5 6.73162317276000977 8 227 106 255
5 7 7.66547346115112305 187 56 255
5 7 8.59622669219970703 252 73 255
5 8 -9.93057727813720703 252 58 240
5 7.17031431198120117 -7 20 71 126
4.79222345352172852 8 -6 0 104 56
5 7.84056282043457031 -6 0 122 96
5 8 -5.71583366394042969 0 135 128
4.33449649810791016 8 7 202 48 255
5 7.48883724212646484 7 187 56 255
5 8 6.17101812362670898 142 11 255
5 8 8.87694263458251953 255 48 222
5 8.93057727813720703 -9 144 42 185
5 8.90039825439453125 -8 48 16 148
5 8.82942390441894531 -7 0 52 142
5 8.49664688110351562 -6 0 135 128
5 8.75439834594726562 7 228 28 255
5 8.87694263458251953 8 255 48 222
5.40084075927734375 -9 -9 245 0 255
6 -9.75824546813964844 -9 255 4 169
6 -9 -9.75824546813964844 255 0 173
6 -9 -8.39874649047851562 255 0 223
6 -8.28835010528564453 -9 255 0 223
5.26041841506958008 5 -9 99 0 255
6 4.07009744644165039 -9 146 10 255
6 5 -9.79308414459228516 243 0 255
6 5 -8.25777912139892578 161 0 255
6 6 -9.89173412322998047 255 0 245
5.34331798553466797 6 -8 0 4 255
6 5.28009366989135742 -8 54 0 255
6 6 -7.25220918655395508 74 0 255
5.75084924697875977 6 8 227 106 255
6 5.72656106948852539 8 235 131 255
6 6 7.69833898544311523 194 79 255
6 6 8.57187175750732422 250 92 255
6 7 -9.9275665283203125 255 0 223
5.19370889663696289 7 -7 20 71 126
6 6.21737575531005859 -7 0 60 255
5.95695257186889648 7 -6 0 122 96
6 6.95824432373046875 -6 23 147 170
6 7 -5.93333101272583008 0 110 148
5.55571317672729492 7 7 187 56 255
6 6.56835079193115234 7 194 79 255
6 7 6.37332725524902344 136 26 255
6 7 8.86581134796142578 255 56 230
6 8 -9.94570541381835938 255 39 208
5.47313928604125977 8 -5 0 76 24
6 7.54204082489013672 -5 0 158 89
6 8 -4.0062408447265625 0 123 96
5.7282710075378418 8 5 29 0 255
6 7.76364946365356445 5 23 13 255
6 8 4.43265676498413086 0 25 255
5.12364768981933594 8 6 142 11 255
6 7.23752117156982422 6 136 26 255
6 8 8.92105484008789062 255 29 194
6 8.94570541381835938 -9 213 41 226
6 8.93067741394042969 -8 103 20 176
6 8.90549659729003906 -7 0 0 168
6 8.85706043243408203 -6 0 103 168
6 8.73458766937255859 -5 0 123 96
6 8.59235858917236328 5 89 0 255
6 8.81789016723632812 6 185 0 255
6 8.88798046112060547 7 255 12 247
6 8.92105484008789062 8 255 29 194
7 -9.89502048492431641 -9 255 0 135
7 -9 -9.89502048492431641 255 0 141
6.3581695556640625 -9 -8 227 0 255
7 -9.7884674072265625 -8 255 0 171
7 -9 -7.18274688720703125 255 0 229
6.72253799438476562 -9 8 255 0 209
7 -9.62378692626953125 8 255 28 176
7 -9 7.62455940246582031 255 0 252
7 -9 8.62378692626953125 255 0 179
6.22107362747192383 -8 -9 230 10 255
7 -8 -9.81743907928466797 255 24 185
7 -8.14744091033935547 -8 255 0 229
7 -8 -8.12584590911865234 255 12 229
7 -8.63112258911132812 8 255 0 179
6.85419940948486328 -7 -9 186 55 255
7 -7 -9.46842861175537109 255 47 227
7 -7 -8.83650016784667969 233 44 255
7 -6.70928955078125 -9 233 44 255
6.67484378814697266 3 -9 128 12 255
7 2.35681843757629395 -9 180 32 255
7 3 -9.65964698791503906 254 28 255
7 3 -8.63534736633300781 185 3 255
6.0509486198425293 4 -9 146 10 255
7 4 -9.84331130981445312 255 3 239
6.94583892822265625 4 -8 50 14 255
7 3.91110801696777344 -8 107 13 255
7 4 -7.93110847473144531 121 8 255
7 5 -9.90159893035888672 255 0 220
6.23153829574584961 5 -8 54 0 255
7 5 -7.02134466171264648 132 0 255
6.59974336624145508 5 8 235 131 255
7 4.43662881851196289 8 247 150 255
7 5 7.45822715759277344 215 111 255
7 5 8.70314979553222656 255 122 251
7 6 -9.92946052551269531 255 0 202
6.20131206512451172 6 -7 0 60 255
7 5.02061367034912109 -7 16 0 255
6.88785648345947266 6 -6 23 147 170
7 5.86269187927246094 -6 0 128 255
7 6 -5.80581903457641602 14 94 224
6.52585887908935547 6 7 194 79 255
7 5.41811752319335938 7 215 111 255
7 6 6.25235891342163086 160 57 255
7 6 8.87292671203613281 255 80 230
7 7 -9.94539737701416016 255 0 182
6.55605840682983398 7 -5 0 158 89
7 6.51835775375366211 -5 9 173 174
7 7 -4.06378698348999023 0 172 190
6.78304433822631836 7 5 23 13 255
7 6.76448917388916016 5 65 47 255
7 7 4.49376678466796875 0 31 255
6.24339914321899414 7 6 136 26 255
7 6.17790079116821289 6 160 57 255
7 7 8.92031288146972656 255 42 200
7 8 -9.95548343658447266 255 19 169
6.00308322906494141 8 -4 0 21 6
7 7.03073406219482422 -4 0 194 100
6.39370393753051758 8 -3 1 28 0
7 7.41067695617675781 -3 0 130 14
6.67192602157592773 8 -2 6 27 0
7 7.68116521835327148 -2 5 60 0
6.84503984451293945 8 -1 0 3 0
7 7.84941577911376953 -1 6 55 0
6.91715478897094727 8 0 0 34 0
7 7.91949367523193359 0 0 90 4
6.88988542556762695 8 1 0 82 30
7 7.89298343658447266 1 0 142 54
6.76262950897216797 8 2 0 138 119
7 7.76926279067993164 2 0 203 172
6.53246307373046875 8 3 0 121 200
7 7.54540061950683594 3 0 161 255
6.19364356994628906 8 4 0 25 255
7 7.21566295623779297 4 0 31 255
7 8 8.942138671875 255 14 162
7 8.95548343658447266 -9 255 31 226
7 8.94701004028320312 -8 175 24 212
7 8.93503665924072266 -7 71 0 197
7 8.91756534576416016 -6 0 36 202
7 8.89104747772216797 -5 0 128 175
7 8.84893512725830078 -4 0 74 61
7 8.77900028228759766 -3 0 17 8
7 8.66093635559082031 -2 0 18 5
7 8.48270511627197266 -1 0 45 12
7 8.33406352996826172 0 0 85 40
7 8.39953327178955078 1 0 134 110
7 8.58683013916015625 2 0 139 190
7 8.73318004608154297 3 0 64 252
7 8.82189083099365234 4 50 0 255
7 8.87455844879150391 5 151 0 255
7 8.90703010559082031 6 234 0 255
7 8.92800426483154297 7 255 0 209
7 8.942138671875 8 255 14 162
8 -9.93298053741455078 -9 255 0 107
8 -9 -9.93298053741455078 255 0 111
8 -9.90554904937744141 -8 255 0 135
7.1329345703125 -9 -7 220 0 255
8 -9.84463405609130859 -7 255 0 171
7.76093959808349609 -9 -6 146 0 255
8 -9.61278152465820312 -6 255 0 217
8 -9 -5.54189825057983398 219 0 255
7.42869997024536133 -9 7 255 0 252
8 -9.78613090515136719 7 255 0 197
8 -9 6.00336456298828125 218 0 255
8 -9.88517093658447266 8 255 20 148
8 -9 8.88517093658447266 255 15 156
8 -8 -9.91127777099609375 255 28 153
7.10301303863525391 -8 -8 222 6 255
7.82371807098388672 -8 -7 152 6 255
8 -8.64907646179199219 -6 219 0 255
8 -8 -6.71373462677001953 223 13 255
8 -8.15911769866943359 7 255 0 211
7.44017410278320312 -8 8 255 0 189
8 -8 7.16162395477294922 255 0 224
8 -8 8.78298473358154297 255 0 159
8 -7 -9.87513446807861328 255 36 187
7.68459129333496094 -7 -8 171 37 255
8 -7.6889796257019043 -7 223 13 255
8 -7 -7.55595302581787109 228 23 255
8 -7.00849342346191406 8 255 0 159
7.33623600006103516 -6 -9 168 0 255
8 -6 -9.80931949615478516 255 0 218
8 -6.30380153656005859 -8 228 23 255
8 -6 -8.17597675323486328 233 0 255
7.68678426742553711 -5 -9 123 0 255
8 -5 -9.67380142211914062 255 32 250
8 -5 -8.61144161224365234 197 7 255
7.92078399658203125 -4 -9 123 39 255
8 -4 -9.34776115417480469 243 82 255
8 -4 -8.90178203582763672 191 59 255
8 -3.3740384578704834 -9 191 59 255
7.99502468109130859 -1 -9 151 46 255
8 -1.06554460525512695 -9 208 106 255
8 -1 -9.03260993957519531 250 106 255
8 -1 -8.99383258819580078 205 58 255
7.82150363922119141 0 -9 196 109 255
8 0 -9.54366874694824219 255 35 248
8 0 -8.77867031097412109 223 74 255
7.54835176467895508 1 -9 202 110 255
8 1 -9.74641036987304688 255 134 243
8 1 -8.43964385986328125 237 116 255
7.17059898376464844 2 -9 180 32 255
8 2 -9.83941841125488281 255 100 233
7.97759771347045898 2 -8 83 0 255
8 1.93848598003387451 -8 177 61 255
8 2 -7.9684906005859375 158 0 255
8 3 -9.88851737976074219 255 33 215
7.52005290985107422 3 -8 107 13 255
8 3 -7.32414102554321289 173 1 255
7.84439992904663086 3 8 235 129 255
8 2.65895676612854004 8 255 73 252
8 3 7.76728391647338867 212 74 255
8 3 8.50952053070068359 255 115 246
8 4 -9.91727733612060547 255 0 195
7.67701244354248047 4 -7 6 1 255
8 3.41299724578857422 -7 96 14 255
8 4 -6.47533416748046875 98 0 255
7.95859766006469727 4 7 206 133 255
8 3.92470121383666992 7 212 74 255
8 4 6.92790746688842773 177 97 255
7.28867578506469727 4 8 247 150 255
8 4 8.81895923614501953 255 144 240
8 5 -9.93545150756835938 255 0 179
7.01552820205688477 5 -7 16 0 255
7.64987993240356445 5 -6 0 128 255
8 4.45601749420166016 -6 0 18 255
8 5 -5.32886791229248047 0 10 255
7.89297914505004883 5 6 153 100 255
8 4.83362531661987305 6 177 97 255
8 5 5.77727794647216797 123 82 255
7.31453227996826172 5 7 215 111 255
8 5 8.89308452606201172 255 115 226
8 6 -9.94760036468505859 255 0 162
7.43747043609619141 6 -5 9 173 174
8 5.23712730407714844 -5 0 146 255
7.8707122802734375 6 -4 0 185 70
8 5.82488870620727539 -4 5 252 230
8 6 -3.61614251136779785 0 220 218
7.64469480514526367 6 5 65 47 255
8 5.51793193817138672 5 123 82 255
8 6 4.08261632919311523 30 34 255
7.14998149871826172 6 6 160 57 255
8 6 8.92550754547119141 255 70 200
8 7 -9.9560699462890625 255 0 146
7.028717041015625 7 -4 0 194 100
7.38378429412841797 7 -3 0 130 14
8 6.26000690460205078 -3 0 246 124
7.63662338256835938 7 -2 5 60 0
8 6.56384754180908203 -2 0 255 48
7.79390096664428711 7 -1 6 55 0
8 6.75269317626953125 -1 0 225 26
7.85937690734863281 7 0 0 90 4
8 6.83127164840698242 0 0 191 51
7.83452749252319336 7 1 0 142 54
8 6.80142545700073242 1 6 208 122
7.71880006790161133 7 2 0 203 172
8 6.66242265701293945 2 15 255 254
7.50951623916625977 7 3 0 161 255
8 6.41083717346191406 3 21 140 255
7.20141935348510742 7 4 0 31 255
8 6.03999519348144531 4 30 34 255
8 7 8.94326591491699219 255 30 167
8 8 -9.96216201782226562 255 1 130
8 8 8.9542236328125 255 2 130
8 8.96216201782226562 -9 255 12 180
8 8.95699882507324219 -8 255 24 243
8 8.95040798187255859 -7 160 0 231
8 8.94202709197998047 -6 56 0 237
8 8.93149757385253906 -5 0 57 228
8 8.91863250732421875 -4 0 90 137
8 8.90378093719482422 -3 0 65 68
8 8.88841724395751953 -2 0 66 56
8 8.87557506561279297 -1 0 95 79
8 8.86917400360107422 0 0 137 136
8 8.87167930603027344 1 0 133 188
8 8.88208293914794922 2 0 76 245
8 8.89677524566650391 3 26 0 255
8 8.91212940216064453 4 127 0 255
8 8.92598438262939453 5 213 0 255
8 8.93756389617919922 6 255 0 226
8 8.94687271118164062 7 255 0 172
8 8.9542236328125 8 255 2 130
8.93298053741455078 -9 -9 255 0 143
8.90554904937744141 -9 -8 255 0 182
8.84463405609130859 -9 -7 255 0 230
8.61278152465820312 -9 -6 219 0 255
8.78613090515136719 -9 7 255 0 211
8.88517093658447266 -9 8 255 15 156
8.91127777099609375 -8 -9 255 18 185
8.84878158569335938 -8 -8 255 13 230
8.54001617431640625 -8 -7 223 13 255
8.78298473358154297 -8 8 255 0 159
8.87513446807861328 -7 -9 255 31 229
8.67502689361572266 -7 -8 228 23 255
8.80931949615478516 -6 -9 233 0 255
8.67380142211914062 -5 -9 197 7 255
8.34776115417480469 -4 -9 191 59 255
8.03260993957519531 -1 -9 205 58 255
8.54366874694824219 0 -9 223 74 255
8.74641036987304688 1 -9 237 116 255
8.83941841125488281 2 -9 234 38 255
8.13146686553955078 2 -8 158 0 255
8.88851737976074219 3 -9 242 0 255
8.75707149505615234 3 -8 173 1 255
8.50952053070068359 3 8 255 115 246
8.91727733612060547 4 -9 255 0 250
8.86669349670410156 4 -8 189 0 255
8.67993545532226562 4 -7 98 0 255
8.21808147430419922 4 7 236 125 255
8.81895923614501953 4 8 255 144 240
8.93545150756835938 5 -9 255 0 233
8.91081523895263672 5 -8 205 0 255
8.85933589935302734 5 -7 110 0 255
8.69659137725830078 5 -6 0 10 255
8.41740322113037109 5 6 197 94 255
8.81364631652832031 5 7 248 105 255
8.89308452606201172 5 8 255 115 226
8.94760036468505859 6 -9 255 0 216
8.93398380279541016 6 -8 221 0 255
8.91192531585693359 6 -7 127 0 255
8.87198448181152344 6 -6 14 0 255
8.78352069854736328 6 -5 11 104 215
8.46333026885986328 6 -4 0 220 218
8.69944953918457031 6 5 130 40 255
8.84211349487304688 6 6 210 50 255
8.89723014831542969 6 7 255 60 241
8.92550754547119141 6 8 255 70 200
8.9560699462890625 7 -9 255 0 197
8.94791316986083984 7 -8 243 0 255
8.93648910522460938 7 -7 162 19 253
8.9200286865234375 7 -6 33 0 214
8.89551162719726562 7 -5 0 85 224
8.85769081115722656 7 -4 0 215 238
8.79773521423339844 7 -3 0 193 137
8.70388412475585938 7 -2 0 117 60
8.57742691040039062 7 -1 0 104 49
8.48388004302978516 7 0 0 139 85
8.52400875091552734 7 1 0 193 176
8.64942455291748047 7 2 0 172 255
8.76039600372314453 7 3 0 55 255
8.83417892456054688 7 4 58 0 255
8.88059520721435547 7 5 158 0 255
8.91025543212890625 7 6 240 4 255
8.92985630035400391 7 7 255 17 208
8.94326591491699219 7 8 255 30 167
8.96216201782226562 8 -9 255 12 180
8.95699882507324219 8 -8 255 24 243
8.95040798187255859 8 -7 160 0 231
8.94202709197998047 8 -6 56 0 237
8.93149757385253906 8 -5 0 57 228
8.91863250732421875 8 -4 0 90 137
8.90378093719482422 8 -3 0 65 68
8.88841724395751953 8 -2 0 66 56
8.87557506561279297 8 -1 0 95 79
8.86917400360107422 8 0 0 137 136
8.87167930603027344 8 1 0 133 188
8.88208293914794922 8 2 0 76 245
8.89677524566650391 8 3 26 0 255
8.91212940216064453 8 4 127 0 255
8.92598438262939453 8 5 213 0 255
8.93756389617919922 8 6 255 0 226
8.94687271118164062 8 7 255 0 172
8.9542236328125 8 8 255 2 130
3 2 1 0
3 1 3 0
3 2 0 4
3 0 3 4
3 2 6 5
3 1 2 5
3 1 5 7
3 3 1 7
3 6 2 4
3 8 6 4
3 8 4 3
3 7 8 3
3 5 6 9
3 5 9 7
3 9 6 8
3 9 8 7
3 12 11 10
3 11 13 10
3 12 10 14
3 10 13 14
3 17 16 15
3 16 18 15
3 15 11 12
3 15 12 17
3 17 12 19
3 11 20 13
3 15 20 11
3 15 21 20
3 15 18 21
3 21 22 20
3 19 12 14
3 23 19 14
3 13 20 24
3 13 24 14
3 14 24 23
3 20 22 24
3 17 26 25
3 16 17 25
3 16 25 27
3 18 16 27
3 26 17 28
3 28 17 19
3 27 21 18
3 29 21 27
3 30 22 21
3 30 21 31
3 31 21 29
3 31 32 30
3 35 34 33
3 34 36 33
3 28 19 23
3 37 28 23
3 37 23 38
3 23 24 38
3 22 30 39
3 22 39 24
3 24 39 38
3 30 32 39
3 35 33 40
3 33 36 40
3 43 42 41
3 42 44 41
3 41 25 26
3 41 26 43
3 43 26 45
3 25 46 27
3 41 46 25
3 41 47 46
3 41 44 47
3 47 48 46
3 51 50 49
3 50 52 49
3 45 26 53
3 53 26 28
3 46 29 27
3 48 29 46
3 48 54 29
3 54 31 29
3 55 32 31
3 55 31 56
3 56 31 54
3 56 57 55
3 60 59 58
3 49 34 35
3 51 49 35
3 51 35 58
3 51 58 59
3 34 49 52
3 34 52 36
3 36 52 61
3 53 28 37
3 62 53 37
3 62 37 63
3 37 38 63
3 63 38 64
3 38 39 64
3 32 55 65
3 32 65 39
3 39 65 64
3 55 57 65
3 60 58 66
3 58 35 40
3 58 40 66
3 66 40 67
3 67 40 36
3 61 67 36
3 70 69 68
3 69 71 68
3 70 68 72
3 68 71 72
3 75 74 73
3 74 76 73
3 73 42 43
3 73 43 75
3 75 43 77
3 42 78 44
3 73 78 42
3 73 79 78
3 73 76 79
3 79 80 78
3 83 82 81
3 82 84 81
3 77 43 85
3 85 43 45
3 78 47 44
3 47 86 48
3 78 86 47
3 78 87 86
3 78 80 87
3 87 89 88
3 86 87 88
3 89 90 88
3 93 92 91
3 81 50 51
3 83 81 51
3 83 51 91
3 83 91 92
3 50 81 84
3 50 84 52
3 52 84 94
3 85 45 95
3 95 45 53
3 86 54 48
3 88 54 86
3 56 54 88
3 56 96 57
3 88 96 56
3 88 97 96
3 88 90 97
3 97 98 96
3 101 100 99
3 100 103 102
3 99 100 102
3 91 59 60
3 93 91 60
3 93 60 102
3 93 102 103
3 91 51 59
3 94 104 52
3 104 61 52
3 95 53 62
3 105 95 62
3 105 62 106
3 62 63 106
3 106 63 107
3 63 64 107
3 107 64 108
3 64 65 108
3 57 96 109
3 57 109 65
3 65 109 108
3 96 98 109
3 101 99 110
3 99 102 111
3 110 99 111
3 102 60 66
3 102 66 111
3 111 66 112
3 112 66 113
3 66 67 113
3 113 67 61
3 104 113 61
3 70 115 114
3 69 70 114
3 116 71 69
3 116 69 117
3 117 69 114
3 117 118 116
3 121 120 119
3 120 122 119
3 72 123 124
3 72 124 70
3 70 124 115
3 123 125 126
3 72 125 123
3 72 116 125
3 72 71 116
3 116 118 125
3 121 119 127
3 119 122 127
3 129 124 123
3 128 129 123
3 126 130 128
3 123 126 128
3 129 128 131
3 128 130 131
3 134 133 132
3 133 135 132
3 137 134 132
3 136 137 132
3 135 139 138
3 135 138 132
3 132 138 136
3 139 140 138
3 136 74 75
3 136 75 137
3 137 75 141
3 74 142 76
3 74 136 142
3 136 138 142
3 140 143 142
3 138 140 142
3 146 145 144
3 145 147 144
3 141 75 148
3 148 75 77
3 142 79 76
3 79 149 80
3 142 149 79
3 142 150 149
3 142 143 150
3 150 152 151
3 149 150 151
3 152 153 151
3 156 155 154
3 144 82 83
3 146 144 83
3 146 83 154
3 146 154 155
3 82 144 147
3 82 147 84
3 84 147 157
3 148 77 158
3 158 77 85
3 149 87 80
3 151 87 149
3 89 87 151
3 89 159 90
3 151 159 89
3 151 160 159
3 151 153 160
3 160 161 159
3 164 163 162
3 163 166 165
3 162 163 165
3 154 92 93
3 156 154 93
3 156 93 165
3 156 165 166
3 154 83 92
3 157 167 84
3 167 94 84
3 158 85 168
3 168 85 95
3 159 97 90
3 97 169 98
3 159 169 97
3 159 170 169
3 159 161 170
3 170 172 171
3 169 170 171
3 172 174 173
3 171 172 173
3 174 176 175
3 173 174 175
3 176 178 177
3 175 176 177
3 178 180 179
3 177 178 179
3 180 182 181
3 179 180 181
3 182 184 183
3 181 182 183
3 184 186 185
3 183 184 185
3 162 100 101
3 164 162 101
3 164 101 185
3 164 185 186
3 165 100 162
3 103 100 165
3 165 93 103
3 167 187 94
3 187 104 94
3 168 95 105
3 188 168 105
3 188 105 189
3 105 106 189
3 189 106 190
3 106 107 190
3 190 107 191
3 107 108 191
3 191 108 192
3 108 109 192
3 98 169 193
3 98 193 109
3 109 193 192
3 169 171 194
3 193 169 194
3 171 173 195
3 194 171 195
3 173 175 196
3 195 173 196
3 175 177 197
3 196 175 197
3 177 179 198
3 197 177 198
3 179 181 199
3 198 179 199
3 181 183 200
3 199 181 200
3 183 185 201
3 200 183 201
3 185 101 110
3 185 110 201
3 201 110 202
3 202 110 203
3 110 111 203
3 203 111 204
3 111 112 204
3 204 112 205
3 112 113 205
3 205 113 104
3 187 205 104
3 115 207 206
3 114 115 206
3 206 208 114
3 114 208 117
3 209 118 117
3 209 117 210
3 210 117 208
3 210 212 211
3 209 210 211
3 212 213 211
3 216 215 214
3 121 214 215
3 121 215 120
3 120 215 217
3 120 217 218
3 122 120 218
3 207 115 219
3 219 115 124
3 125 220 126
3 118 220 125
3 118 209 220
3 209 221 220
3 222 223 221
3 222 221 211
3 211 221 209
3 211 213 222
3 216 214 224
3 226 127 225
3 224 127 226
3 224 121 127
3 224 214 121
3 225 127 122
3 225 122 227
3 227 122 218
3 219 124 228
3 228 124 129
3 229 126 220
3 130 126 229
3 230 231 229
3 230 229 221
3 221 229 220
3 221 223 230
3 226 225 232
3 225 227 232
3 131 233 234
3 131 234 129
3 129 234 228
3 233 235 236
3 131 235 233
3 131 229 235
3 131 130 229
3 229 231 235
3 238 234 233
3 237 238 233
3 236 239 237
3 233 236 237
3 241 238 237
3 240 241 237
3 239 242 240
3 237 239 240
3 241 240 243
3 240 242 243
3 246 245 244
3 245 247 244
3 249 246 244
3 248 249 244
3 247 250 248
3 244 247 248
3 252 249 248
3 251 252 248
3 250 253 251
3 248 250 251
3 255 252 251
3 254 255 251
3 253 257 256
3 253 256 251
3 251 256 254
3 257 258 256
3 254 133 134
3 254 134 255
3 255 134 259
3 133 260 135
3 133 254 260
3 254 256 260
3 258 261 260
3 256 258 260
3 264 263 262
3 263 265 262
3 259 134 266
3 266 134 137
3 260 139 135
3 139 267 140
3 260 267 139
3 260 268 267
3 260 261 268
3 268 269 267
3 272 271 270
3 271 264 262
3 271 262 270
3 270 262 273
3 265 274 273
3 262 265 273
3 266 137 275
3 275 137 141
3 276 140 267
3 143 140 276
3 269 278 277
3 269 277 267
3 267 277 276
3 278 279 277
3 282 281 280
3 281 272 270
3 281 270 280
3 280 270 283
3 146 273 145
3 146 283 273
3 283 270 273
3 145 273 274
3 145 274 147
3 147 274 284
3 275 141 285
3 285 141 148
3 276 150 143
3 277 150 276
3 152 150 277
3 152 286 153
3 277 286 152
3 277 287 286
3 277 279 287
3 287 289 288
3 286 287 288
3 289 290 288
3 293 292 291
3 292 282 280
3 292 280 291
3 291 280 294
3 156 283 155
3 156 294 283
3 294 280 283
3 283 146 155
3 284 295 147
3 295 157 147
3 285 148 296
3 296 148 158
3 286 160 153
3 160 297 161
3 160 286 297
3 286 288 297
3 290 299 298
3 290 298 288
3 288 298 297
3 299 301 300
3 298 299 300
3 301 303 302
3 300 301 302
3 303 305 304
3 302 303 304
3 305 307 306
3 304 305 306
3 307 309 308
3 306 307 308
3 309 311 310
3 308 309 310
3 311 313 312
3 310 311 312
3 291 163 164
3 293 291 164
3 293 164 312
3 293 312 313
3 294 163 291
3 166 163 294
3 294 156 166
3 295 314 157
3 314 167 157
3 296 158 315
3 315 158 168
3 297 170 161
3 298 170 297
3 172 170 298
3 300 172 298
3 174 172 300
3 302 174 300
3 176 174 302
3 304 176 302
3 178 176 304
3 306 178 304
3 180 178 306
3 308 180 306
3 182 180 308
3 310 182 308
3 184 182 310
3 312 184 310
3 186 184 312
3 312 164 186
3 314 316 167
3 316 187 167
3 315 168 188
3 317 315 188
3 317 188 318
3 188 189 318
3 318 189 319
3 189 190 319
3 319 190 320
3 190 191 320
3 320 191 321
3 191 192 321
3 321 192 322
3 192 193 322
3 322 193 323
3 193 194 323
3 323 194 324
3 194 195 324
3 324 195 325
3 195 196 325
3 325 196 326
3 196 197 326
3 326 197 327
3 197 198 327
3 327 198 328
3 198 199 328
3 328 199 329
3 199 200 329
3 329 200 330
3 200 201 330
3 330 201 331
3 201 202 331
3 331 202 332
3 202 203 332
3 332 203 333
3 203 204 333
3 333 204 334
3 204 205 334
3 334 205 187
3 316 334 187
3 206 207 335
3 208 206 335
3 336 208 335
3 210 208 336
3 337 210 336
3 212 210 337
3 338 212 337
3 212 338 213
3 215 216 339
3 217 215 339
3 340 217 339
3 217 340 218
3 341 335 207
3 219 341 207
3 335 341 336
3 336 341 342
3 336 342 337
3 337 342 343
3 223 222 338
3 223 338 343
3 343 338 337
3 338 222 213
3 339 216 224
3 224 226 344
3 224 344 339
3 339 344 340
3 340 344 227
3 218 340 227
3 345 341 219
3 228 345 219
3 341 345 342
3 342 345 346
3 231 230 343
3 231 343 346
3 346 343 342
3 343 230 223
3 344 226 232
3 344 232 227
3 347 345 228
3 234 347 228
3 236 235 346
3 236 346 347
3 347 346 345
3 346 235 231
3 348 347 234
3 238 348 234
3 347 348 239
3 236 347 239
3 349 348 238
3 241 349 238
3 348 349 242
3 239 348 242
3 349 241 243
3 349 243 242
3 245 246 350
3 245 350 247
3 351 350 246
3 249 351 246
3 350 351 250
3 247 350 250
3 352 351 249
3 252 352 249
3 351 352 253
3 250 351 253
3 353 352 252
3 255 353 252
3 257 253 352
3 257 352 354
3 354 352 353
3 257 354 258
3 355 353 255
3 259 355 255
3 353 355 354
3 354 355 356
3 354 356 261
3 258 354 261
3 263 264 357
3 263 357 265
3 358 355 259
3 266 358 259
3 355 358 356
3 356 358 359
3 268 261 356
3 268 356 360
3 360 356 359
3 268 360 269
3 271 272 361
3 264 271 361
3 264 361 357
3 357 361 362
3 357 362 274
3 265 357 274
3 363 358 266
3 275 363 266
3 358 363 359
3 359 363 364
3 359 364 360
3 360 364 365
3 278 269 360
3 278 360 366
3 366 360 365
3 278 366 279
3 281 282 367
3 272 281 367
3 272 367 361
3 361 367 368
3 361 368 362
3 362 368 369
3 362 369 284
3 274 362 284
3 370 363 275
3 285 370 275
3 363 370 364
3 364 370 371
3 364 371 365
3 365 371 372
3 365 372 366
3 366 372 373
3 287 279 366
3 287 366 374
3 374 366 373
3 289 287 374
3 375 289 374
3 289 375 290
3 292 293 376
3 282 292 376
3 282 376 367
3 367 376 377
3 367 377 368
3 368 377 378
3 368 378 369
3 369 378 379
3 369 379 295
3 284 369 295
3 380 370 285
3 296 380 285
3 370 380 371
3 371 380 381
3 371 381 372
3 372 381 382
3 372 382 373
3 373 382 383
3 373 383 374
3 374 383 384
3 374 384 375
3 375 384 385
3 299 290 375
3 299 375 386
3 386 375 385
3 301 299 386
3 387 301 386
3 303 301 387
3 388 303 387
3 305 303 388
3 389 305 388
3 307 305 389
3 390 307 389
3 309 307 390
3 391 309 390
3 311 309 391
3 392 311 391
3 313 311 392
3 393 313 392
3 293 313 393
3 293 393 376
3 376 393 394
3 376 394 377
3 377 394 395
3 377 395 378
3 378 395 396
3 378 396 379
3 379 396 397
3 379 397 314
3 295 379 314
3 398 380 296
3 315 398 296
3 380 398 381
3 381 398 399
3 381 399 382
3 382 399 400
3 382 400 383
3 383 400 401
3 383 401 384
3 384 401 402
3 384 402 385
3 385 402 403
3 385 403 386
3 386 403 404
3 386 404 387
3 387 404 405
3 387 405 388
3 388 405 406
3 388 406 389
3 389 406 407
3 389 407 390
3 390 407 408
3 390 408 391
3 391 408 409
3 391 409 392
3 392 409 410
3 392 410 393
3 393 410 411
3 393 411 394
3 394 411 412
3 394 412 395
3 395 412 413
3 395 413 396
3 396 413 414
3 396 414 397
3 397 414 415
3 397 415 316
3 314 397 316
3 398 315 317
3 399 398 317
3 318 399 317
3 400 399 318
3 319 400 318
3 401 400 319
3 320 401 319
3 402 401 320
3 321 402 320
3 403 402 321
3 322 403 321
3 404 403 322
3 323 404 322
3 405 404 323
3 324 405 323
3 406 405 324
3 325 406 324
3 407 406 325
3 326 407 325
3 408 407 326
3 327 408 326
3 409 408 327
3 328 409 327
3 410 409 328
3 329 410 328
3 411 410 329
3 330 411 329
3 412 411 330
3 331 412 330
3 413 412 331
3 332 413 331
3 414 413 332
3 333 414 332
3 415 414 333
3 334 415 333
3 415 334 316
