ply
format ascii 1.0
element vertex 264
property float x
property float y
property float z
property uchar red
property uchar green
property uchar blue
element face 512
property list uchar int vertex_indices
end_header
-9.02255916595458984 6 8 178 188 221
-9 5.99460411071777344 8 180 209 211
-9 6 7.99039745330810547 191 213 207
-9 6 8.02255916595458984 183 208 215
-9.75100421905517578 7 -9 233 243 230
-9 6.30928802490234375 -9 240 240 238
-9 7 -9.75100421905517578 238 244 232
-9.46458816528320312 7 -8 238 241 235
-9 6.80701780319213867 -8 237 236 231
-9 7 -7.54883003234863281 239 239 235
-9.67165565490722656 7 7 188 208 223
-9 6.5378265380859375 7 191 213 207
-9 7 6.00332546234130859 201 216 208
-9.81163597106933594 7 8 179 184 224
-9 7 8.81163597106933594 185 207 220
-9.88019180297851562 8 -9 230 245 229
-9 8 -9.88019180297851562 237 245 232
-9.84223270416259766 8 -8 237 243 234
-9.7795562744140625 8 -7 240 241 238
-9 7.22987461090087891 -7 236 234 226
-9.66248607635498047 8 -6 238 239 237
-9 7.58183526992797852 -6 234 228 219
-9.38924312591552734 8 -5 235 237 231
-9 7.86659622192382812 -5 231 223 213
-9 8 -4.39981412887573242 234 230 218
-9.12074756622314453 8 3 219 225 220
-9 7.97143793106079102 3 213 215 209
-9 8 2.85419583320617676 218 221 212
-9.57423019409179688 8 4 213 225 218
-9 7.71503829956054688 4 215 215 215
-9.73789787292480469 8 5 206 225 220
-9 7.39312839508056641 5 208 215 209
-9.81882381439208984 8 6 198 222 226
-9 7.00150775909423828 6 201 216 208
-9.86559295654296875 8 7 189 205 227
-9.89531517028808594 8 8 184 180 228
-9 8 8.89531517028808594 187 204 224
-9 8.88019180297851562 -9 241 243 238
-9 8.84223270416259766 -8 241 241 239
-9 8.7795562744140625 -7 239 238 231
-9 8.66248607635498047 -6 236 234 224
-9 8.38924312591552734 -5 234 230 218
-9 8.12074756622314453 3 218 220 216
-9 8.57423019409179688 4 218 220 218
-9 8.73789787292480469 5 211 221 213
-9 8.81882381439208984 6 204 221 215
-9 8.86559295654296875 7 195 221 223
-9 8.89531517028808594 8 187 204 224
-8.98984909057617188 6 8 183 208 215
-8 6.81459474563598633 -9 237 234 229
-8 7 -9.45475006103515625 242 242 240
-8.61406993865966797 7 -8 239 239 235
-8 7 -8.62341403961181641 239 237 233
-8.07540321350097656 7 7 193 218 215
-8 6.50933837890625 8 186 210 203
-8 7 7.07144880294799805 197 213 203
-8 7 8.68434715270996094 189 215 212
-8 8 -9.84144401550292969 243 244 240
-8 7.29937076568603516 -8 237 230 223
-8 7.7103123664855957 -7 234 221 214
-8.11383724212646484 8 -6 236 234 224
-8 8 -6.15537881851196289 236 228 219
-8.7174224853515625 8 -5 234 230 218
-8.93951034545898438 8 3 218 220 216
-8.39624500274658203 8 4 218 220 218
-8 7.86880254745483398 5 209 210 209
-8 8 4.58541250228881836 212 215 209
-8 7.48884725570678711 6 204 211 204
-8 7.0367741584777832 7 197 213 203
-8 8 8.86762905120849609 191 218 220
-8 8.84144401550292969 -9 241 241 237
-8 8.76366233825683594 -8 239 235 227
-8 8.57817459106445312 -7 236 228 219
-8 8.38531780242919922 5 215 216 215
-8 8.704620361328125 6 208 217 209
-8 8.81376552581787109 7 200 218 211
-8 8.86762905120849609 8 191 218 220
-7.57421684265136719 7 -9 239 237 233
-7 6.94598150253295898 8 188 204 193
-7 7 7.89783000946044922 199 207 199
-7 7 8.19669532775878906 192 209 200
-7 7.24472236633300781 -9 237 227 222
-7 8 -9.77635383605957031 242 241 237
-7 7.71752548217773438 -8 234 215 213
-7.29515314102172852 8 -7 236 228 219
-7 8 -7.30033206939697266 237 223 217
-7.68087100982666016 8 5 215 216 215
-7 7.90221643447875977 6 205 205 205
-7 8 5.74071168899536133 208 211 204
-7 7.46184158325195312 7 199 207 199
-7 8 8.82624626159667969 195 215 208
-7 8.77635383605957031 -9 240 233 227
-7 8.57212257385253906 -8 237 223 217
-7 8.318878173828125 6 211 212 210
-7 8.71487808227539062 7 203 213 205
-7 8.82624626159667969 8 195 215 208
-6.85446405410766602 7 8 192 209 200
-6 7.60363388061523438 -9 235 214 214
-6 8 -9.65072059631347656 241 234 229
-6.19349098205566406 8 -8 237 223 217
-6 8 -8.14689350128173828 238 222 218
-6.72091484069824219 8 6 211 212 210
-6 7.81599903106689453 7 201 202 200
-6 8 6.57984256744384766 205 207 202
-6 7.31147861480712891 8 193 204 195
-6 8 8.76063919067382812 197 211 202
-6 8.65072059631347656 -9 238 222 218
-6 8.46703433990478516 7 205 209 205
-6 8.76063919067382812 8 197 211 202
-5 7.89518594741821289 -9 233 214 206
-5 8 -9.33404731750488281 239 224 222
-5 8 -8.77451419830322266 236 213 211
-5.36503362655639648 8 7 205 209 205
-5 7.60827159881591797 8 194 200 193
-5 8 7.21477842330932617 204 204 203
-5 8 8.64810562133789062 198 207 199
-5 8.33404731750488281 -9 236 213 211
-5 8.64810562133789062 8 198 207 199
-4.54333066940307617 8 -9 236 213 211
-4 7.83994626998901367 8 193 195 193
-4 8 7.67928457260131836 198 200 195
-4 8 8.43290519714355469 199 203 198
-4 8.43290519714355469 8 199 203 198
-3.05523014068603516 8 8 199 203 198
1.70385289192199707 8 8 191 191 191
2 7.96189403533935547 8 182 182 182
2 8 7.9236607551574707 184 188 182
2 8 8.1547698974609375 188 191 189
2 8.1547698974609375 8 188 191 189
3 7.77291965484619141 8 179 183 180
3 8 7.54495048522949219 186 189 186
3 8 8.51890277862548828 186 192 188
3 8.51890277862548828 8 186 192 188
3.23295307159423828 8 -9 230 209 203
4 7.8092341423034668 -9 227 210 203
4 8 -9.47592544555664062 234 230 219
4 8 -8.58957195281982422 230 220 208
4 7.52079963684082031 8 177 185 181
4 8 7.03936910629272461 189 190 190
4 8 8.69143295288085938 183 193 190
4 8.47592544555664062 -9 230 220 208
4 8.69143295288085938 8 183 193 190
5 7.496612548828125 -9 228 222 209
5 8 -9.7015228271484375 235 235 226
4.87800884246826172 8 -8 226 208 198
5 7.96228218078613281 -8 223 211 199
5 8 -7.90662431716918945 227 221 204
4.06280851364135742 8 7 189 190 190
5 7.71038722991943359 7 180 184 182
5 8 6.33860635757446289 188 190 189
5 7.20245075225830078 8 175 187 185
5 8 8.78521823883056641 180 195 195
5 8.7015228271484375 -9 231 229 215
5 8.15343856811523438 -8 227 221 204
5 8.57811069488525391 7 187 192 190
5 8.78521823883056641 8 180 195 195
5.52676868438720703 7 8 175 187 185
6 6.81466579437255859 8 166 182 183
6 7 7.64942741394042969 178 187 185
6 7 8.45465278625488281 172 186 190
6 7.11520624160766602 -9 229 229 217
6 8 -9.80133533477783203 235 236 234
6 7.59186124801635742 -8 225 223 207
5.98820877075195312 8 -7 223 212 195
6 7.99563932418823242 -7 220 215 197
6 8 -6.98729372024536133 224 224 203
5.39940834045410156 8 6 188 190 189
6 7.77797508239746094 6 183 185 184
6 8 5.41117143630981445 189 192 190
6 7.33414745330810547 7 178 187 185
6 8 8.84143447875976562 177 189 198
6 8.80133533477783203 -9 230 233 223
6 8.65717601776123047 -8 227 229 213
6 8.02056598663330078 -7 224 224 203
6 8.51335716247558594 6 190 193 192
6 8.75475215911865234 7 184 195 195
6 8.84143447875976562 8 177 189 198
6.25834894180297852 7 -9 229 229 217
7 6.66181802749633789 -9 226 228 223
7 7 -9.60123157501220703 232 235 231
7 7 -8.313018798828125 229 231 227
6.74957990646362305 7 7 178 187 185
7 6.88577508926391602 7 169 183 184
7 7 6.75381898880004883 180 189 188
7 6.35379171371459961 8 164 176 187
7 7 8.73884868621826172 169 178 194
7 8 -9.85584926605224609 232 237 231
7 7.15036106109619141 -8 223 227 216
7 7.56515741348266602 -7 218 222 207
6.79101657867431641 8 -6 220 218 195
7 7.91000795364379883 -6 214 217 198
7 8 -5.68157672882080078 216 222 205
6.36132955551147461 8 5 189 192 190
7 7.72506523132324219 5 186 187 187
7 8 4.131011962890625 192 195 194
7 7.34166288375854492 6 180 189 188
7 8 8.87763214111328125 173 177 201
7 8.85584926605224609 -9 233 234 232
7 8.79516220092773438 -8 226 230 222
7 8.67094230651855469 -7 220 226 213
7 8.30121803283691406 -6 216 222 205
7 8.56559944152832031 5 192 196 195
7 8.75273227691650391 6 186 196 197
7 8.83358573913574219 7 180 190 199
7 8.87763214111328125 8 173 177 201
7.66085672378540039 6 8 164 176 187
8 5.81228351593017578 8 156 163 186
8 6 7.66591453552246094 166 177 189
8 6 8.44286632537841797 160 162 192
8 6.13070201873779297 -9 227 230 226
8 7 -9.78973388671875 223 236 225
7.29644298553466797 7 -8 223 227 216
8 6.63368749618530273 -8 224 225 223
8 7 -7.14346027374267578 228 229 228
7.6737828254699707 7 6 180 189 188
8 6.83011007308959961 6 172 184 186
8 7 5.57470941543579102 183 192 192
8 6.36172628402709961 7 166 177 189
8 7 8.83428001403808594 169 165 198
8 8 -9.88934230804443359 223 239 228
8 7.06010961532592773 -7 220 225 218
8 7.41588687896728516 -6 213 220 210
7.39690446853637695 8 -5 211 218 198
8 7.70355844497680664 -5 208 216 202
7.85108852386474609 8 -4 207 214 192
8 7.92677974700927734 -4 202 211 196
8 8 -3.54871201515197754 206 217 203
7.61237192153930664 8 3 187 195 189
8 7.80943727493286133 3 189 192 191
8 8 2.02690553665161133 195 200 198
7.08526611328125 8 4 192 195 194
8 7.55048084259033203 4 188 191 191
8 7.2251739501953125 5 183 192 192
8 8 8.90223217010498047 180 168 205
8 8.88934230804443359 -9 228 236 229
8 8.85819530487060547 -8 231 232 231
8 8.81024456024169922 -7 224 228 224
8 8.73071575164794922 -6 217 225 216
8 8.58368110656738281 -5 211 221 209
8 8.25985431671142578 -4 206 217 203
8 8.4756622314453125 3 199 199 199
8 8.67803001403808594 4 194 199 199
8 8.78054714202880859 5 188 197 200
8 8.83979892730712891 6 182 190 201
8 8.87716293334960938 7 175 177 203
8 8.90223217010498047 8 180 168 205
8.44286632537841797 6 8 160 162 192
8.78973388671875 7 -9 227 233 227
8.61983585357666016 7 -8 228 229 228
8.43339824676513672 7 6 177 187 193
8.73654842376708984 7 7 171 178 195
8.83428001403808594 7 8 169 165 198
8.88934230804443359 8 -9 228 236 229
8.85819530487060547 8 -8 231 232 231
8.81024456024169922 8 -7 224 228 224
8.73071575164794922 8 -6 217 225 216
8.58368110656738281 8 -5 211 221 209
8.25985431671142578 8 -4 206 217 203
8.4756622314453125 8 3 199 199 199
8.67803001403808594 8 4 194 199 199
8.78054714202880859 8 5 188 197 200
8.83979892730712891 8 6 182 190 201
8.87716293334960938 8 7 175 177 203
8.90223217010498047 8 8 180 168 205
3 2 1 0
3 1 3 0
3 6 5 4
3 5 8 7
3 4 5 7
3 8 9 7
3 12 11 10
3 11 2 0
3 11 0 10
3 10 0 13
3 3 14 13
3 0 3 13
3 16 6 4
3 15 16 4
3 4 7 15
3 7 17 15
3 9 19 18
3 9 18 7
3 7 18 17
3 19 21 20
3 18 19 20
3 21 23 22
3 20 21 22
3 23 24 22
3 27 26 25
3 26 29 28
3 25 26 28
3 29 31 30
3 28 29 30
3 31 33 32
3 30 31 32
3 33 12 10
3 33 10 32
3 32 10 34
3 10 13 34
3 13 35 34
3 14 36 35
3 13 14 35
3 16 15 37
3 15 17 38
3 37 15 38
3 17 18 39
3 38 17 39
3 18 20 40
3 39 18 40
3 20 22 41
3 40 20 41
3 22 24 41
3 27 25 42
3 25 28 43
3 42 25 43
3 28 30 44
3 43 28 44
3 30 32 45
3 44 30 45
3 32 34 46
3 45 32 46
3 34 35 47
3 46 34 47
3 35 36 47
3 1 2 48
3 1 48 3
3 6 50 49
3 5 6 49
3 52 51 8
3 52 8 49
3 49 8 5
3 8 51 9
3 11 12 53
3 53 55 54
3 11 53 54
3 11 54 48
3 11 48 2
3 48 54 56
3 48 56 3
3 3 56 14
3 50 6 57
3 57 6 16
3 52 58 51
3 51 19 9
3 51 58 19
3 58 59 19
3 61 60 21
3 61 21 59
3 59 21 19
3 23 21 60
3 62 23 60
3 23 62 24
3 26 27 63
3 29 26 63
3 64 29 63
3 64 66 65
3 64 65 29
3 29 65 31
3 65 67 31
3 31 67 33
3 12 68 53
3 12 33 68
3 33 67 68
3 53 68 55
3 56 69 14
3 69 36 14
3 57 16 37
3 70 57 37
3 70 37 71
3 37 38 71
3 71 38 72
3 38 39 72
3 60 61 72
3 60 72 40
3 40 72 39
3 62 60 40
3 41 62 40
3 62 41 24
3 63 27 42
3 64 63 42
3 43 64 42
3 66 64 43
3 66 43 73
3 73 43 44
3 73 44 74
3 44 45 74
3 74 45 75
3 45 46 75
3 75 46 76
3 46 47 76
3 76 47 36
3 69 76 36
3 49 50 77
3 49 77 52
3 55 79 78
3 54 55 78
3 54 78 80
3 56 54 80
3 81 77 50
3 81 50 82
3 82 50 57
3 77 58 52
3 77 81 58
3 81 83 58
3 85 84 59
3 85 59 83
3 83 59 58
3 59 84 61
3 65 66 86
3 86 88 87
3 86 87 65
3 65 87 67
3 87 89 67
3 67 89 68
3 89 55 68
3 79 55 89
3 80 90 56
3 90 69 56
3 82 57 70
3 91 82 70
3 91 70 92
3 70 71 92
3 84 85 92
3 84 92 72
3 72 92 71
3 84 72 61
3 86 66 73
3 88 86 73
3 88 73 93
3 93 73 74
3 93 74 94
3 74 75 94
3 94 75 95
3 75 76 95
3 95 76 69
3 90 95 69
3 78 79 96
3 78 96 80
3 82 98 97
3 81 82 97
3 100 99 83
3 100 83 97
3 97 83 81
3 83 99 85
3 87 88 101
3 101 103 102
3 101 102 87
3 87 102 89
3 79 104 96
3 79 89 104
3 89 102 104
3 96 104 105
3 96 105 80
3 80 105 90
3 98 82 91
3 106 98 91
3 99 100 106
3 99 106 92
3 92 106 91
3 99 92 85
3 101 88 93
3 103 101 93
3 103 93 107
3 107 93 94
3 107 94 108
3 94 95 108
3 108 95 90
3 105 108 90
3 98 110 109
3 97 98 109
3 97 109 111
3 100 97 111
3 102 103 112
3 112 114 113
3 112 113 102
3 102 113 104
3 104 113 115
3 105 104 115
3 110 98 106
3 116 110 106
3 116 106 100
3 111 116 100
3 112 103 107
3 114 112 107
3 114 107 117
3 117 107 108
3 117 108 105
3 115 117 105
3 109 110 118
3 109 118 111
3 114 120 119
3 113 114 119
3 113 119 121
3 115 113 121
3 118 110 116
3 118 116 111
3 120 114 117
3 122 120 117
3 122 117 115
3 121 122 115
3 119 120 123
3 119 123 121
3 123 120 122
3 123 122 121
3 126 125 124
3 125 127 124
3 126 124 128
3 124 127 128
3 126 130 129
3 125 126 129
3 125 129 131
3 127 125 131
3 130 126 128
3 132 130 128
3 132 128 127
3 131 132 127
3 135 134 133
3 134 136 133
3 130 138 137
3 129 130 137
3 129 137 139
3 131 129 139
3 135 133 140
3 133 136 140
3 138 130 132
3 141 138 132
3 141 132 131
3 139 141 131
3 135 143 142
3 134 135 142
3 144 136 134
3 144 134 145
3 145 134 142
3 145 146 144
3 149 148 147
3 138 147 148
3 138 148 137
3 137 148 150
3 137 150 151
3 139 137 151
3 143 135 140
3 152 143 140
3 136 144 153
3 136 153 140
3 140 153 152
3 144 146 153
3 149 147 154
3 147 138 141
3 147 141 154
3 154 141 155
3 155 141 139
3 151 155 139
3 158 157 156
3 157 159 156
3 143 161 160
3 142 143 160
3 160 162 142
3 142 162 145
3 163 146 145
3 163 145 164
3 164 145 162
3 164 165 163
3 168 167 166
3 149 166 167
3 149 167 148
3 148 167 169
3 156 169 158
3 156 150 169
3 150 148 169
3 150 156 159
3 150 159 151
3 151 159 170
3 161 143 152
3 171 161 152
3 171 152 172
3 152 153 172
3 146 163 173
3 146 173 153
3 153 173 172
3 163 165 173
3 168 166 174
3 166 149 154
3 166 154 174
3 174 154 175
3 175 154 176
3 154 155 176
3 176 155 151
3 170 176 151
3 179 178 177
3 178 180 177
3 183 182 181
3 158 181 182
3 158 182 157
3 157 182 184
3 157 184 185
3 159 157 185
3 177 160 161
3 177 161 179
3 179 161 186
3 180 160 177
3 180 187 160
3 187 162 160
3 187 188 162
3 162 188 164
3 189 165 164
3 189 164 190
3 190 164 188
3 190 191 189
3 194 193 192
3 168 192 193
3 168 193 167
3 167 193 195
3 181 195 183
3 181 169 195
3 169 167 195
3 181 158 169
3 185 196 159
3 196 170 159
3 186 161 171
3 197 186 171
3 197 171 198
3 171 172 198
3 198 172 199
3 172 173 199
3 165 189 200
3 165 200 173
3 173 200 199
3 189 191 200
3 194 192 201
3 192 168 174
3 192 174 201
3 201 174 202
3 202 174 203
3 174 175 203
3 203 175 204
3 175 176 204
3 204 176 170
3 196 204 170
3 207 206 205
3 206 208 205
3 179 210 209
3 178 179 209
3 211 180 178
3 211 178 212
3 212 178 209
3 212 213 211
3 216 215 214
3 183 214 215
3 183 215 182
3 182 215 217
3 205 217 207
3 205 184 217
3 184 182 217
3 184 205 208
3 184 208 185
3 185 208 218
3 210 179 219
3 219 179 186
3 211 187 180
3 213 187 211
3 213 220 187
3 220 188 187
3 220 221 188
3 188 221 190
3 222 191 190
3 222 190 223
3 223 190 221
3 223 225 224
3 222 223 224
3 225 226 224
3 229 228 227
3 228 231 230
3 227 228 230
3 194 230 231
3 194 231 193
3 193 231 232
3 214 232 216
3 214 195 232
3 195 193 232
3 214 183 195
3 218 233 185
3 233 196 185
3 219 186 197
3 234 219 197
3 234 197 235
3 197 198 235
3 235 198 236
3 198 199 236
3 236 199 237
3 199 200 237
3 191 222 238
3 191 238 200
3 200 238 237
3 222 224 239
3 238 222 239
3 224 226 239
3 229 227 240
3 227 230 241
3 240 227 241
3 230 194 201
3 230 201 241
3 241 201 242
3 242 201 243
3 201 202 243
3 243 202 244
3 202 203 244
3 244 203 245
3 203 204 245
3 245 204 196
3 233 245 196
3 206 207 246
3 206 246 208
3 209 210 247
3 212 209 247
3 248 212 247
3 212 248 213
3 215 216 249
3 217 215 249
3 250 217 249
3 207 217 250
3 207 250 246
3 246 250 251
3 246 251 218
3 208 246 218
3 252 247 210
3 219 252 210
3 247 252 248
3 248 252 253
3 220 213 248
3 220 248 254
3 254 248 253
3 221 220 254
3 255 221 254
3 223 221 255
3 256 223 255
3 225 223 256
3 257 225 256
3 225 257 226
3 228 229 258
3 231 228 258
3 259 231 258
3 232 231 259
3 260 232 259
3 216 232 260
3 216 260 249
3 249 260 261
3 249 261 250
3 250 261 262
3 250 262 251
3 251 262 263
3 251 263 233
3 218 251 233
3 252 219 234
3 253 252 234
3 235 253 234
3 254 253 235
3 236 254 235
3 255 254 236
3 237 255 236
3 256 255 237
3 238 256 237
3 257 256 238
3 239 257 238
3 257 239 226
3 258 229 240
3 259 258 240
3 241 259 240
3 260 259 241
3 242 260 241
3 261 260 242
3 243 261 242
3 262 261 243
3 244 262 243
3 263 262 244
3 245 263 244
3 263 245 233
