ply
format ascii 1.0
element vertex 684
property float x
property float y
property float z
property uchar red
property uchar green
property uchar blue
element face 1352
property list uchar int vertex_indices
end_header
-9.88646984100341797 -9 -9 182 51 51
-9 -9.88646984100341797 -9 163 80 80
-9 -9 -9.88646984100341797 161 58 58
-9.6514129638671875 -9 -8 177 64 64
-9 -9.6514129638671875 -8 156 91 91
-9 -9 -7.65196037292480469 160 81 81
-9.5927734375 -9 7 138 0 0
-9 -9.5927734375 7 122 0 0
-9 -9 6.72750568389892578 111 19 19
-9.88072395324707031 -9 8 151 0 0
-9 -9.88072395324707031 8 137 0 0
-9 -9 8.88072395324707031 124 0 0
-9.87837505340576172 -8 -9 184 44 44
-9 -8 -9.87837505340576172 154 52 52
-9.55067157745361328 -8 -8 184 54 54
-9 -8 -7.77369308471679688 162 75 75
-9.44699954986572266 -8 7 138 0 0
-9 -8 6.8499603271484375 118 14 14
-9.87167930603027344 -8 8 146 0 0
-9 -8 8.87167930603027344 122 0 0
-9.87599754333496094 -7 -9 183 41 41
-9 -7 -9.87599754333496094 147 48 48
-9.51283836364746094 -7 -8 187 50 50
-9 -7 -7.80604743957519531 161 73 73
-9.38803672790527344 -7 7 147 0 0
-9 -7 6.88256406784057617 131 6 6
-9.8690032958984375 -7 8 150 0 0
-9 -7 8.8690032958984375 130 0 0
-9.88007736206054688 -6 -9 180 39 39
-9 -6 -9.88007736206054688 147 46 46
-9.57512378692626953 -6 -8 186 50 50
-9 -6 -7.74961519241333008 159 71 71
-9.48356246948242188 -6 7 161 0 0
-9 -6 6.82590007781982422 149 0 0
-9.87357330322265625 -6 8 161 0 0
-9 -6 8.87357330322265625 145 0 0
-9.88936901092529297 -5 -9 179 39 39
-9 -5 -9.88936901092529297 153 44 44
-9.67972946166992188 -5 -8 184 49 49
-9 -5 -7.60335350036621094 160 69 113
-9.63088321685791016 -5 7 177 0 0
-9 -5 6.67893695831298828 166 0 150
-9.88392066955566406 -5 8 176 0 0
-9 -5 8.88392066955566406 162 0 0
-9.90147590637207031 -4 -9 181 38 43
-9 -4 -9.90147590637207031 156 40 113
-9.76977252960205078 -4 -8 184 49 134
-9 -4 -7.36444568634033203 85 67 162
-9.74601459503173828 -4 7 192 0 160
-9 -4 6.43888664245605469 0 105 183
-9.89726161956787109 -4 8 192 0 46
-9 -4 8.89726161956787109 110 0 180
-9.91413307189941406 -3 -9 178 34 113
-9 -3 -9.91413307189941406 137 34 154
-9.83311748504638672 -3 -8 168 47 181
-9 -3 -7.02793025970458984 62 94 158
-9.82129001617431641 -3 7 63 0 206
-9 -3 6.10083532333374023 0 197 108
-9.91103649139404297 -3 8 190 0 205
-9 -3 8.91103649139404297 0 59 197
-9.9258880615234375 -2 -9 170 28 50
-9 -2 -9.9258880615234375 150 27 117
-9.87552642822265625 -2 -8 172 42 134
-9.67310619354248047 -2 -7 151 52 175
-9 -2.9348750114440918 -7 73 143 162
-9 -2 -6.51615524291992188 66 101 152
-9.62934112548828125 -2 6 0 52 217
-9 -2.76714468002319336 6 0 197 108
-9 -2 5.59759044647216797 0 203 31
-9.86927890777587891 -2 7 60 0 217
-9.923675537109375 -2 8 193 0 218
-9 -2 8.923675537109375 0 72 209
-9.93609428405761719 -1 -9 158 21 21
-9 -1 -9.93609428405761719 141 19 19
-9.90406894683837891 -1 -8 157 34 34
-9.8228912353515625 -1 -7 159 45 45
-9.35298252105712891 -1 -6 163 51 88
-9 -1.19895052909851074 -6 74 138 156
-9 -1 -5.83143138885498047 102 64 139
-9.18814659118652344 -1 5 62 0 214
-9 -1.08417487144470215 5 0 203 31
-9 -1 4.92738103866577148 0 190 177
-9.81126213073730469 -1 6 154 0 219
-9.90055274963378906 -1 7 222 0 188
-9.93452930450439453 -1 8 222 0 47
-9 -1 8.93452930450439453 202 0 175
-9.93613433837890625 0 -9 144 12 12
-9 0 -9.93613433837890625 126 10 10
-9.90417003631591797 0 -8 143 26 26
-9.82326698303222656 0 -7 143 36 36
-9.35828685760498047 0 -6 145 42 42
-9 0 -5.82745361328125 123 53 53
-9.19632911682128906 0 5 203 0 0
-9 0 4.92343711853027344 169 0 173
-9.81167984008789062 0 6 209 0 0
-9.90065956115722656 0 7 212 0 0
-9.9345703125 0 8 210 0 0
-9 0 8.9345703125 190 0 0
-9.92605876922607422 1 -9 128 5 5
-9 1 -9.92605876922607422 110 3 3
-9.87605953216552734 1 -8 128 18 18
-9.67705726623535156 1 -7 128 27 27
-9 0.205629065632820129 -6 123 53 53
-9 1 -6.50709676742553711 108 37 37
-9 0.089589826762676239 5 182 0 138
-9.63430309295654297 1 6 195 0 0
-9 1 5.58868503570556641 167 0 0
-9.86985111236572266 1 7 198 0 0
-9.92385101318359375 1 8 196 0 0
-9 1 8.92385101318359375 175 0 0
-9.91452693939208984 2 -9 110 0 0
-9 2 -9.91452693939208984 94 0 0
-9.83475780487060547 2 -8 111 10 10
-9 1.9636152982711792 -7 108 37 37
-9 2 -7.01542854309082031 93 21 21
-9 1.7930905818939209 6 176 0 0
-9.82312297821044922 2 7 183 0 0
-9 2 6.08862113952636719 160 0 0
-9.91144847869873047 2 8 181 0 0
-9 2 8.91144847869873047 160 0 0
-9.90222072601318359 3 -9 94 0 0
-9 3 -9.90222072601318359 82 0 0
-9.77421283721923828 3 -8 96 5 5
-9 3 -7.34738636016845703 78 14 14
-9.75127315521240234 3 7 169 0 0
-9 3 6.42223882675170898 146 0 0
-9.89804840087890625 3 8 167 0 0
-9 3 8.89804840087890625 146 0 0
-9.89059638977050781 4 -9 83 0 0
-9 4 -9.89059638977050781 75 0 0
-9.69079685211181641 4 -8 84 1 1
-9 4 -7.5818023681640625 66 9 9
-9.64514732360839844 4 7 159 0 0
-9 4 6.65792322158813477 135 0 0
-9.88523292541503906 4 8 157 0 0
-9 4 8.88523292541503906 136 0 0
-9.88185405731201172 5 -9 80 0 0
-9 5 -9.88185405731201172 74 0 0
-9.59866714477539062 5 -8 79 0 0
-9 5 -7.72354745864868164 61 6 6
-9.51710987091064453 5 7 154 0 0
-9 5 6.80049657821655273 130 0 0
-9.87549018859863281 5 8 153 0 0
-9 5 8.87549018859863281 132 0 0
-9.87824535369873047 6 -9 84 0 0
-9 6 -9.87824535369873047 81 0 0
-9.54884624481201172 6 -8 82 0 0
-9 6 -7.77535915374755859 64 2 2
-9.44249248504638672 6 7 157 0 0
-9 6 6.85266351699829102 132 0 0
-9.87143802642822266 6 8 155 0 0
-9 6 8.87143802642822266 134 0 0
-9.88085746765136719 7 -9 96 0 0
-9 7 -9.88085746765136719 96 0 0
-9.58576583862304688 7 -8 93 0 0
-9 7 -7.73819589614868164 75 0 0
-9.49799633026123047 7 7 167 0 0
-9 7 6.81536960601806641 141 0 0
-9.87436199188232422 7 8 165 0 0
-9 7 8.87436199188232422 144 0 0
-9.88889408111572266 8 -9 115 0 0
-9 8 -9.88889408111572266 119 0 0
-9.67537212371826172 8 -8 111 0 0
-9 8 -7.61136865615844727 95 0 0
-9.62433338165283203 8 7 184 0 0
-9 8 6.68793249130249023 157 0 0
-9.88332080841064453 8 8 182 0 0
-9 8 8.88332080841064453 161 0 0
-9 8.88889408111572266 -9 103 0 0
-9 8.67537212371826172 -8 95 0 0
-9 8.62433338165283203 7 162 0 0
-9 8.88332080841064453 8 161 0 0
-8 -9.22714424133300781 -9 144 90 90
-8 -9 -9.22714424133300781 134 68 68
-8.77190017700195312 -9 -8 160 81 81
-8 -9 -8.95558929443359375 139 82 82
-8.82366657257080078 -9 7 114 0 0
-8.02654743194580078 -9 8 124 0 0
-8.04784488677978516 -8 -9 160 66 66
-8 -8.55252456665039062 -9 139 82 82
-8.85163688659667969 -8 -8 162 75 75
-8.9028778076171875 -8 7 117 0 0
-8.11271476745605469 -8 8 122 0 0
-8.07089424133300781 -7 -9 155 62 62
-8.87283229827880859 -7 -8 161 73 73
-8.92397403717041016 -7 7 128 0 0
-8.13560199737548828 -7 8 130 0 0
-8.03053379058837891 -6 -9 152 59 59
-8.83584117889404297 -6 -8 159 71 71
-8.887298583984375 -6 7 145 0 0
-8.09569358825683594 -6 8 145 0 0
-8 -5.70595169067382812 -9 127 66 66
-8 -5 -9.35687351226806641 128 52 84
-8.74001121520996094 -5 -8 160 69 113
-8 -5 -8.91587066650390625 128 64 131
-8.79221725463867188 -5 7 163 0 60
-8 -5.07540321350097656 8 130 0 0
-8 -5 7.99093246459960938 79 0 150
-8 -5 8.0562744140625 150 0 129
-8 -4 -9.64334487915039062 69 48 132
-8.583587646484375 -4 -8 85 67 162
-8 -4 -8.72204685211181641 62 90 134
-8.63702392578125 -4 7 0 1 180
-8 -4 7.79655361175537109 0 172 145
-8 -4 8.56833171844482422 0 93 172
-8 -3 -9.77732467651367188 43 67 133
-8.36347484588623047 -3 -8 62 94 158
-8 -3 -8.44952869415283203 56 127 133
-8.41869831085205078 -3 7 0 180 197
-8 -3 7.52333307266235352 17 190 0
-8 -3 8.75093269348144531 0 191 96
-8 -2 -9.84805774688720703 49 36 131
-8.07483291625976562 -2 -8 59 55 149
-8 -2 -8.09250354766845703 49 91 129
-8.74786853790283203 -2 -7 66 101 152
-8.79346847534179688 -2 6 0 206 124
-8.13251209259033203 -2 7 0 197 209
-8 -2 7.16554355621337891 0 193 12
-8 -2 8.83660984039306641 0 179 190
-8 -1 -9.88927459716796875 123 28 79
-8 -1.7880864143371582 -8 60 128 122
-8.41036224365234375 -1 -7 127 56 137
-8 -1 -7.6044769287109375 65 51 119
-8.93446445465087891 -1 -6 102 64 139
-8.97231292724609375 -1 5 0 146 197
-8.45826244354248047 -1 6 0 78 204
-8 -1.6238408088684082 7 0 193 12
-8 -1 6.68337869644165039 0 186 119
-8 -1 8.88356304168701172 103 0 181
-8 0 -9.88941764831542969 109 19 19
-8.40869903564453125 0 -7 123 46 46
-8 0 -7.60199356079101562 107 42 42
-8.93291473388671875 0 -6 123 53 53
-8.97080802917480469 0 5 182 0 138
-8.45665550231933594 0 6 191 0 88
-8 0 6.68094968795776367 107 0 171
-8 0 8.88371753692626953 169 0 0
-8 1 -9.84889793395996094 95 11 11
-8.06960487365722656 1 -8 110 29 29
-8 0.801016092300415039 -8 107 42 42
-8 1 -8.08602809906005859 93 23 23
-8.74311161041259766 1 -7 108 37 37
-8.78887462615966797 1 6 176 0 0
-8.12748813629150391 1 7 178 0 0
-8 0.634765565395355225 7 171 0 89
-8 1 7.15924406051635742 157 0 0
-8 1 8.83755588531494141 154 0 0
-8 2 -9.78040504455566406 81 5 5
-8.35512161254882812 2 -8 93 21 21
-8 2 -8.43907928466796875 76 16 16
-8.41067314147949219 2 7 162 0 0
-8 2 7.51317834854125977 141 0 0
-8 2 8.75468254089355469 139 0 0
-8 3 -9.65447998046875 70 0 0
-8.57225608825683594 3 -8 78 14 14
-8 3 -8.70775890350341797 62 10 10
-8.62614059448242188 3 7 148 0 0
-8 3 7.78267860412597656 127 0 0
-8 3 8.58413219451904297 125 0 0
-8 4 -9.40230274200439453 63 0 0
-8.72575855255126953 4 -8 66 9 9
-8 4 -8.89779281616210938 53 6 6
-8.77853202819824219 4 7 138 0 0
-8 4 7.97338724136352539 116 0 0
-8 4 8.14874553680419922 115 0 0
-8.01128292083740234 5 -9 64 0 0
-8 4.887664794921875 -9 53 6 6
-8.81864833831787109 5 -8 61 6 6
-8.87079238891601562 5 7 133 0 0
-8.07729721069335938 5 8 132 0 0
-8 4.22877645492553711 8 115 0 0
-8.04827404022216797 6 -9 69 0 0
-8.85261249542236328 6 -8 64 2 2
-8.90456295013427734 6 7 135 0 0
-8.11398601531982422 6 8 134 0 0
-8.02164840698242188 7 -9 82 0 0
-8.82823371887207031 7 -8 75 0 0
-8.88041019439697266 7 7 145 0 0
-8.08768081665039062 7 8 144 0 0
-8 7.24010133743286133 -9 71 0 0
-8 8 -9.34113693237304688 111 0 0
-8.74507522583007812 8 -8 95 0 0
-8 8 -8.92153072357177734 93 0 0
-8.79790973663330078 8 7 162 0 0
-8 7.97569513320922852 8 122 0 0
-8 8 7.9974675178527832 139 0 0
-8 8 8.016387939453125 138 0 0
-8 8.34113693237304688 -9 93 0 0
-8 8.016387939453125 8 138 0 0
-7.95905923843383789 -9 -9 139 82 82
-7.92242670059204102 -5 -9 128 64 131
-7.99173784255981445 -5 8 150 0 129
-7.74371623992919922 -4 -9 62 90 134
-7.81463003158569336 -4 8 0 93 172
-7.4924774169921875 -3 -9 56 127 133
-7.56572389602661133 -3 8 0 191 96
-7.16338920593261719 -2 -9 49 91 129
-7.23984766006469727 -2 8 0 179 190
-7 -1.59685325622558594 -9 51 109 77
-7 -1 -9.61741542816162109 63 31 105
-7.69800615310668945 -1 -8 65 51 119
-7 -1 -8.75188064575195312 42 57 103
-7.76147603988647461 -1 7 0 96 184
-7 -1.40650129318237305 8 0 170 109
-7 -1 7.82935857772827148 0 163 144
-7 -1 8.52529144287109375 8 0 161
-7 0 -9.61936473846435547 95 23 23
-7.69609308242797852 0 -8 107 42 42
-7 0 -8.74977684020996094 91 33 44
-7.75963401794433594 0 7 171 0 89
-7 0 7.82730865478515625 122 0 149
-7 0 8.52822208404541016 148 0 0
-7.15726757049560547 1 -9 93 23 23
-7 0.60815727710723877 -9 91 33 44
-7.23398065567016602 1 8 154 0 0
-7 0.415523558855056763 8 148 0 0
-7.48268890380859375 2 -9 76 16 16
-7.55634880065917969 2 8 139 0 0
-7.73042964935302734 3 -9 62 10 10
-7.8019108772277832 3 8 125 0 0
-7.90570735931396484 4 -9 53 6 6
-7.975738525390625 4 8 115 0 0
-7.92758941650390625 8 -9 93 0 0
-7.99769067764282227 8 8 138 0 0
-6.72688150405883789 -1 -9 42 57 103
-6.81450271606445312 -1 8 8 0 161
-6.7245478630065918 0 -9 91 33 44
-6.81226205825805664 0 8 148 0 0
5.68714237213134766 -1 -9 135 137 54
6 -1.6876380443572998 -9 169 88 63
6 -1 -9.64952564239501953 98 150 27
6 -1 -8.71412754058837891 141 154 44
5.61065340042114258 -1 8 83 42 0
6 -1.86711609363555908 8 113 42 0
6 -1 7.6481475830078125 112 12 0
6 -1 8.69680118560791016 105 96 0
5.68478536605834961 0 -9 39 105 120
6 0 -9.65117740631103516 20 52 126
6 0 -8.7119903564453125 31 101 135
5.613067626953125 0 8 0 71 38
6 0 7.65030908584594727 0 101 0
6 0 8.69553565979003906 0 94 91
6 0.700057268142700195 -9 31 101 135
6 0.852634727954864502 8 0 94 91
6.89784812927246094 -9 -9 111 97 97
7 -9.42383098602294922 -9 128 116 116
7 -9 -9.42383098602294922 142 113 113
7 -9 -8.88854598999023438 139 113 113
6.82441234588623047 -9 8 113 23 23
7 -9.55624675750732422 8 134 28 28
7 -9 7.81070661544799805 131 38 38
7 -9 8.55624675750732422 132 18 18
6.99228000640869141 -8 -9 128 101 101
7 -8 -9.05309391021728516 154 118 118
7 -8 -8.9915771484375 151 117 117
6.91967916488647461 -8 8 117 16 16
7 -8 7.91340923309326172 132 30 30
7 -8 8.36644744873046875 133 9 9
7 -7.72222614288330078 -9 151 117 117
6.94770240783691406 -7 8 122 9 75
7 -7 7.94361734390258789 134 23 111
7 -7 8.27408695220947266 136 2 17
6.98154687881469727 -6 -9 113 159 154
7 -6.47877073287963867 -9 167 123 141
7 -6 -9.11809730529785156 131 118 186
7 -6 -8.97986412048339844 125 155 184
6.90897178649902344 -6 8 4 102 125
7 -6 7.90185451507568359 12 135 114
7 -6 8.39574813842773438 0 51 138
6.87622308731079102 -5 -9 169 173 112
7 -5 -9.47083759307861328 104 194 124
7 -5 -8.86492156982421875 149 196 117
6.80283164978027344 -5 8 98 125 0
7 -5 7.78739309310913086 141 95 1
7 -5 8.58421516418457031 50 139 0
6.70221281051635742 -4 -9 180 121 100
7 -4 -9.67815113067626953 196 169 80
7 -4 -8.67497539520263672 199 116 97
6.62738323211669922 -4 8 123 22 0
7 -4 7.59815120697021484 144 114 0
7 -4 8.72323894500732422 139 36 0
6.45436000823974609 -3 -9 178 148 83
7 -3 -9.78997898101806641 194 60 53
7 -3 -8.40557289123535156 196 133 70
6.37921905517578125 -3 8 119 87 0
7 -3 7.33040380477905273 96 144 0
7 -3 8.80970573425292969 139 41 0
6.1261143684387207 -2 -9 169 88 63
7 -2 -9.85366153717041016 184 66 27
7 -2 -8.04774188995361328 187 68 47
6.98153829574584961 -2 7 79 119 0
7 -2.05988526344299316 7 96 144 0
7 -2 6.97596645355224609 64 146 0
6.05297183990478516 -2 8 113 42 0
7 -2 8.86294651031494141 134 8 0
7 -1 -9.89216423034667969 76 162 15
6.66023063659667969 -1 -8 156 139 61
7 -1.89066493511199951 -8 189 121 67
7 -1 -7.55293893814086914 174 162 46
6.60474491119384766 -1 7 112 12 0
7 -1 6.48512411117553711 143 67 0
7 -1 8.89684009552001953 73 128 0
7 0 -9.89230251312255859 10 27 139
6.65828800201416016 0 -8 45 140 140
7 0 -7.55040550231933594 30 152 156
6.60673093795776367 0 7 0 101 0
7 0 6.48768424987792969 41 133 0
7 0 8.89671134948730469 0 55 118
6.11990833282470703 1 -9 117 23 23
7 1 -9.85445117950439453 122 4 4
7 0.904877364635467529 -8 30 152 156
7 1 -8.04113197326660156 129 14 14
6.98724508285522461 1 7 48 0 88
7 1 6.98339319229125977 33 0 121
6.05934238433837891 1 8 81 0 37
7 1 8.86223411560058594 106 0 0
6.4451136589050293 2 -9 98 16 16
7 2 -9.79230690002441406 104 0 0
7 2 -8.39557743072509766 111 9 9
7 1.04086029529571533 7 113 0 99
6.38942575454711914 2 8 67 0 0
7 2 7.34123468399047852 99 0 0
7 2 8.80732345581054688 92 0 0
6.69261407852172852 3 -9 81 11 11
7 3 -9.68372154235839844 88 0 0
7 3 -8.66523456573486328 94 4 4
6.64126014709472656 3 8 54 0 0
7 3 7.61296987533569336 87 0 0
7 3 8.71590900421142578 79 0 0
6.86767339706420898 4 -9 67 5 5
7 4 -9.48599052429199219 77 0 0
7 4 -8.85590839385986328 82 1 1
6.82031488418579102 4 8 46 0 0
7 4 7.80615091323852539 80 0 0
7 4 8.56200313568115234 71 0 0
6.97362565994262695 5 -9 61 0 0
7 5 -9.15983390808105469 72 0 0
7 5 -8.97128391265869141 76 0 0
6.93008279800415039 5 8 43 0 0
7 5 7.92457151412963867 78 0 0
7 5 8.33523464202880859 70 0 0
7 5.68077611923217773 -9 76 0 0
6.97253990173339844 6 8 48 0 0
7 6 7.97037410736083984 84 0 0
7 6 8.16585445404052734 76 0 0
6.98441028594970703 7 -9 71 0 0
7 6.44216012954711914 -9 78 0 0
7 7 -9.10116004943847656 86 0 0
7 7 -8.98302841186523438 88 0 0
6.94842052459716797 7 8 61 0 0
7 7 7.94434928894042969 98 0 0
7 7 8.27149772644042969 91 0 0
6.88940191268920898 8 -9 88 0 0
7 8 -9.44184017181396484 104 0 0
7 8 -8.87959575653076172 106 0 0
6.85732698440551758 8 8 82 0 0
7 8 7.84604883193969727 121 0 0
7 8 8.50555324554443359 113 0 0
7 8.44184017181396484 -9 106 0 0
7 8.50555324554443359 8 113 0 0
8 -9.89196109771728516 -9 156 130 130
8 -9 -9.89196109771728516 166 129 129
7.71444034576416016 -9 -8 133 115 115
8 -9.70095729827880859 -8 150 134 134
8 -9 -7.56126070022583008 160 129 129
7.65895605087280273 -9 7 131 38 38
8 -9.73534393310546875 7 152 44 44
8 -9 6.48283815383911133 145 51 51
8 -9.89694595336914062 8 154 20 20
8 -9 8.89694595336914062 149 8 8
8 -8 -9.88441085815429688 180 133 133
7.79713106155395508 -8 -8 148 117 117
8 -8 -7.68837547302246094 171 133 133
7.74229574203491211 -8 7 132 30 30
8 -8 6.60929441452026367 144 37 37
8 -8 8.89015102386474609 148 0 0
7.01913833618164062 -7 -9 167 123 141
8 -7 -9.88196182250976562 196 132 132
7.82139205932617188 -7 -8 159 123 163
8 -7 -7.72565126419067383 189 139 158
7.76677751541137695 -7 7 134 23 111
8 -7 6.64641904830932617 100 22 149
8 -7 8.8879547119140625 150 0 0
8 -6 -9.88533973693847656 187 120 207
7.78766012191772461 -6 -8 128 181 172
8 -6 -7.67378711700439453 139 173 206
7.7328486442565918 -6 7 12 135 114
8 -6 6.59491777420043945 18 152 76
8 -6 8.89097499847412109 19 0 151
8 -5 -9.8935546875 97 212 182
7.69534778594970703 -5 -8 195 195 126
8 -5 -7.53181076049804688 165 218 128
7.63990640640258789 -5 7 141 95 1
8 -5 6.45380592346191406 155 98 14
8 -5 8.89836978912353516 0 154 23
8 -4 -9.90454387664794922 180 213 68
7.54276084899902344 -4 -8 201 142 111
8 -4 -7.29695224761962891 220 126 105
7.48620986938476562 -4 7 144 114 0
8 -4 6.22028160095214844 162 125 5
8 -4 8.90835952758789062 157 123 0
8 -3 -9.91625881195068359 211 126 38
7.32614660263061523 -3 -8 198 188 88
7.97828435897827148 -3 -7 176 201 105
8 -3.1051020622253418 -7 223 148 121
8 -3 -6.95807123184204102 219 213 92
7.93211507797241211 -3 6 46 142 12
8 -3.32899284362792969 6 162 125 5
8 -3 5.87065744400024414 41 172 20
7.26864910125732422 -3 7 96 144 0
8 -3 8.91912937164306641 159 33 0
8 -2 -9.92731094360351562 200 148 12
7.03846645355224609 -2 -8 189 121 67
7.71190834045410156 -2 -7 191 165 84
8 -2 -6.44505167007446289 209 184 59
7.6658782958984375 -2 6 64 146 0
8 -2 5.36262178421020508 35 181 1
8 -2 8.92940616607666016 157 102 0
8 -1 -9.93702888488769531 3 176 3
7.37419939041137695 -1 -7 176 125 61
7.89840364456176758 -1 -6 178 87 73
8 -1.30953073501586914 -6 176 212 72
8 -1 -5.73766088485717773 196 51 46
7.86273813247680664 -1 5 148 152 8
8 -1.4243919849395752 5 35 181 1
8 -1 4.64938879013061523 184 148 18
7.33127450942993164 -1 6 143 67 0
8 -1 8.93853759765625 0 153 12
8 0 -9.93706893920898438 3 0 157
7.37250328063964844 0 -7 42 160 115
7.89682102203369141 0 -6 53 162 78
8 0 -5.73358392715454102 27 180 30
7.86434841156005859 0 5 140 143 0
8 0 4.65348625183105469 109 175 16
7.33300495147705078 0 6 41 133 0
8 0 8.93849849700927734 31 0 145
8 1 -9.92736625671386719 140 0 0
7.03317499160766602 1 -8 139 22 35
7.70705127716064453 1 -7 144 30 104
8 0.31746596097946167 -6 27 180 30
8 1 -6.43576669692993164 159 11 110
8 0.415223389863967896 5 26 167 0
7.67083978652954102 1 6 33 0 121
8 1 5.37199878692626953 65 0 156
8 1 8.9292449951171875 132 0 0
8 2 -9.91633510589599609 124 0 0
7.31892871856689453 2 -8 120 16 16
7.97337150573730469 2 -7 127 19 19
8 2 -6.94877433776855469 140 6 6
7.94010210037231445 2 6 108 0 0
8 2 5.8858489990234375 143 0 0
7.27738618850708008 2 7 99 0 0
8 2 8.91876220703125 119 0 0
8 3 -9.90464591979980469 110 0 0
7.53617095947265625 3 -8 103 10 10
8 2.12843227386474609 -7 140 6 6
8 3 -7.28968238830566406 118 0 0
8 2.28584909439086914 6 134 0 0
7.49808073043823242 3 7 87 0 0
8 3 6.23803901672363281 124 0 0
8 3 8.90767955780029297 108 0 0
8 4 -9.89368343353271484 100 0 0
7.68970346450805664 4 -8 90 6 6
8 4 -7.52504968643188477 106 0 0
7.65485429763793945 4 7 80 0 0
8 4 6.47625255584716797 117 0 0
8 4 8.89726924896240234 101 0 0
8 5 -9.88549137115478516 96 0 0
7.78258419036865234 5 -8 84 2 2
8 5 -7.6673283576965332 100 0 0
7.75089216232299805 5 7 78 0 0
8 5 6.62207746505737305 116 0 0
8 5 8.88940238952636719 102 0 0
7.01177978515625 6 -9 78 0 0
8 6 -9.88212394714355469 99 0 0
7.81652116775512695 6 -8 85 0 0
8 6 -7.71929931640625 102 0 0
7.78800296783447266 6 7 84 0 0
8 6 6.67839813232421875 122 0 0
8 6 8.88597583770751953 109 0 0
8 7 -9.88456535339355469 111 0 0
7.79210519790649414 7 -8 94 0 0
8 7 -7.68193769454956055 112 0 0
7.76685953140258789 7 7 98 0 0
8 7 6.64628124237060547 137 0 0
8 7 8.88795852661132812 125 0 0
8 8 -9.89209461212158203 130 0 0
7.70889616012573242 8 -8 111 0 0
8 8 -7.55454063415527344 129 0 0
7.68709421157836914 8 7 121 0 0
8 8 6.52511978149414062 160 0 0
8 8 8.89477825164794922 149 0 0
8 8.89209461212158203 -9 127 0 0
8 8.70367908477783203 -8 129 0 0
8 8.71901607513427734 7 156 0 0
8 8.89477825164794922 8 149 0 0
8.89196109771728516 -9 -9 163 130 130
8.70095729827880859 -9 -8 160 129 129
8.73534393310546875 -9 7 147 31 31
8.89694595336914062 -9 8 149 8 8
8.88441085815429688 -8 -9 176 134 134
8.62685298919677734 -8 -8 171 133 133
8.67930221557617188 -8 7 146 22 22
8.89015102386474609 -8 8 148 0 0
8.88196182250976562 -7 -9 193 137 137
8.59723854064941406 -7 -8 189 139 158
8.65777015686035156 -7 7 147 11 56
8.8879547119140625 -7 8 150 0 0
8.88533973693847656 -6 -9 140 132 208
8.63725662231445312 -6 -8 139 173 206
8.68690013885498047 -6 7 0 123 152
8.89097499847412109 -6 8 19 0 151
8.8935546875 -5 -9 114 216 128
8.71397304534912109 -5 -8 165 218 128
8.7454376220703125 -5 7 156 159 0
8.89836978912353516 -5 8 0 154 23
8.90454387664794922 -4 -9 216 175 87
8.78660774230957031 -4 -8 220 126 105
8.8043212890625 -4 7 164 56 0
8.90835952758789062 -4 8 157 123 0
8.91625881195068359 -3 -9 213 63 57
8.84133052825927734 -3 -8 215 146 76
8.15459156036376953 -3 -7 219 213 92
8.36279773712158203 -3 6 94 170 0
8.85109615325927734 -3 7 166 152 0
8.91912937164306641 -3 8 159 33 0
8.92731094360351562 -2 -9 203 59 30
8.87967300415039062 -2 -8 206 100 45
8.70164871215820312 -2 -7 209 184 59
8.73155975341796875 -2 6 130 173 0
8.88519191741943359 -2 7 164 62 0
8.92940616607666016 -2 8 157 102 0
8.93702888488769531 -1 -9 123 184 10
8.90639495849609375 -1 -8 191 151 19
8.83131027221679688 -1 -7 194 91 33
8.45813941955566406 -1 -6 196 51 46
8.53339481353759766 -1 5 176 66 0
8.84032535552978516 -1 6 167 44 0
8.90950298309326172 -1 7 145 160 0
8.93853759765625 -1 8 0 153 12
8.93706893920898438 0 -9 6 63 162
8.90649318695068359 0 -8 14 147 170
8.83165645599365234 0 -7 17 177 90
8.46192455291748047 0 -6 27 180 30
8.53051090240478516 0 5 26 167 0
8.84000873565673828 0 6 0 160 72
8.90940952301025391 0 7 0 115 153
8.93849849700927734 0 8 31 0 145
8.92736625671386719 1 -9 145 0 0
8.88008022308349609 1 -8 152 8 8
8.70499610900878906 1 -7 159 11 110
8.7287445068359375 1 6 147 0 140
8.88471889495849609 1 7 140 0 23
8.9292449951171875 1 8 132 0 0
8.91633510589599609 2 -9 127 0 0
8.84206295013427734 2 -8 134 3 3
8.18255710601806641 2 -7 140 6 6
8.33462429046630859 2 6 134 0 0
8.8497161865234375 2 7 127 0 0
8.91876220703125 2 8 119 0 0
8.90464591979980469 3 -9 112 0 0
8.78796482086181641 3 -8 118 0 0
8.80087184906005859 3 7 116 0 0
8.90767955780029297 3 8 108 0 0
8.89368343353271484 4 -9 101 0 0
8.71645069122314453 4 -8 106 0 0
8.73769855499267578 4 7 109 0 0
8.89726924896240234 4 8 101 0 0
8.88549137115478516 5 -9 96 0 0
8.64127731323242188 5 -8 100 0 0
8.67220306396484375 5 7 109 0 0
8.88940238952636719 5 8 102 0 0
8.88212394714355469 6 -9 99 0 0
8.60221290588378906 6 -8 102 0 0
8.63663959503173828 6 7 117 0 0
8.88597583770751953 6 8 109 0 0
8.88456535339355469 7 -9 109 0 0
8.6311187744140625 7 -8 112 0 0
8.65784358978271484 7 7 132 0 0
8.88795852661132812 7 8 125 0 0
8.89209461212158203 8 -9 127 0 0
8.70367908477783203 8 -8 129 0 0
8.71901607513427734 8 7 156 0 0
8.89477825164794922 8 8 149 0 0
3 2 1 0
3 1 4 3
3 0 1 3
3 4 5 3
3 8 7 6
3 7 10 9
3 6 7 9
3 10 11 9
3 13 2 0
3 12 13 0
3 0 3 12
3 3 14 12
3 5 15 14
3 3 5 14
3 17 8 6
3 16 17 6
3 6 9 16
3 9 18 16
3 11 19 18
3 9 11 18
3 21 13 12
3 20 21 12
3 12 14 20
3 14 22 20
3 15 23 22
3 14 15 22
3 25 17 16
3 24 25 16
3 16 18 24
3 18 26 24
3 19 27 26
3 18 19 26
3 29 21 20
3 28 29 20
3 20 22 28
3 22 30 28
3 23 31 30
3 22 23 30
3 33 25 24
3 32 33 24
3 24 26 32
3 26 34 32
3 27 35 34
3 26 27 34
3 37 29 28
3 36 37 28
3 28 30 36
3 30 38 36
3 31 39 38
3 30 31 38
3 41 33 32
3 40 41 32
3 32 34 40
3 34 42 40
3 35 43 42
3 34 35 42
3 45 37 36
3 44 45 36
3 36 38 44
3 38 46 44
3 39 47 46
3 38 39 46
3 49 41 40
3 48 49 40
3 40 42 48
3 42 50 48
3 43 51 50
3 42 43 50
3 53 45 44
3 52 53 44
3 44 46 52
3 46 54 52
3 47 55 54
3 46 47 54
3 57 49 48
3 56 57 48
3 48 50 56
3 50 58 56
3 51 59 58
3 50 51 58
3 61 53 52
3 60 61 52
3 52 54 60
3 54 62 60
3 55 64 63
3 55 63 54
3 54 63 62
3 64 65 63
3 68 67 66
3 67 57 56
3 67 56 66
3 66 56 69
3 56 58 69
3 58 70 69
3 59 71 70
3 58 59 70
3 73 61 60
3 72 73 60
3 60 62 72
3 62 74 72
3 62 63 74
3 63 75 74
3 65 77 76
3 65 76 63
3 63 76 75
3 77 78 76
3 81 80 79
3 80 68 66
3 80 66 79
3 79 66 82
3 66 69 82
3 69 83 82
3 69 70 83
3 70 84 83
3 71 85 84
3 70 71 84
3 87 73 72
3 86 87 72
3 72 74 86
3 74 88 86
3 74 75 88
3 75 89 88
3 75 76 89
3 76 90 89
3 78 91 90
3 76 78 90
3 93 81 79
3 92 93 79
3 79 82 92
3 82 94 92
3 82 83 94
3 83 95 94
3 83 84 95
3 84 96 95
3 85 97 96
3 84 85 96
3 99 87 86
3 98 99 86
3 86 88 98
3 88 100 98
3 88 89 100
3 89 101 100
3 102 103 101
3 102 101 90
3 90 101 89
3 90 91 102
3 93 92 104
3 106 104 92
3 106 92 105
3 105 92 94
3 94 95 105
3 95 107 105
3 95 96 107
3 96 108 107
3 97 109 108
3 96 97 108
3 111 99 98
3 110 111 98
3 98 100 110
3 100 112 110
3 113 114 112
3 113 112 101
3 101 112 100
3 101 103 113
3 106 105 115
3 117 115 105
3 117 105 116
3 116 105 107
3 107 108 116
3 108 118 116
3 109 119 118
3 108 109 118
3 121 111 110
3 120 121 110
3 110 112 120
3 112 122 120
3 114 123 122
3 112 114 122
3 125 117 116
3 124 125 116
3 116 118 124
3 118 126 124
3 119 127 126
3 118 119 126
3 129 121 120
3 128 129 120
3 120 122 128
3 122 130 128
3 123 131 130
3 122 123 130
3 133 125 124
3 132 133 124
3 124 126 132
3 126 134 132
3 127 135 134
3 126 127 134
3 137 129 128
3 136 137 128
3 128 130 136
3 130 138 136
3 131 139 138
3 130 131 138
3 141 133 132
3 140 141 132
3 132 134 140
3 134 142 140
3 135 143 142
3 134 135 142
3 145 137 136
3 144 145 136
3 136 138 144
3 138 146 144
3 139 147 146
3 138 139 146
3 149 141 140
3 148 149 140
3 140 142 148
3 142 150 148
3 143 151 150
3 142 143 150
3 153 145 144
3 152 153 144
3 144 146 152
3 146 154 152
3 147 155 154
3 146 147 154
3 157 149 148
3 156 157 148
3 148 150 156
3 150 158 156
3 151 159 158
3 150 151 158
3 161 153 152
3 160 161 152
3 152 154 160
3 154 162 160
3 155 163 162
3 154 155 162
3 165 157 156
3 164 165 156
3 156 158 164
3 158 166 164
3 159 167 166
3 158 159 166
3 161 160 168
3 160 162 169
3 168 160 169
3 162 163 169
3 165 164 170
3 164 166 171
3 170 164 171
3 166 167 171
3 2 173 172
3 1 2 172
3 175 174 4
3 175 4 172
3 172 4 1
3 4 174 5
3 7 8 176
3 10 7 176
3 177 10 176
3 10 177 11
3 178 179 173
3 178 173 13
3 13 173 2
3 179 174 175
3 179 178 174
3 178 180 174
3 174 180 15
3 5 174 15
3 181 176 8
3 17 181 8
3 176 181 177
3 177 181 182
3 177 182 19
3 11 177 19
3 183 178 13
3 21 183 13
3 178 183 180
3 180 183 184
3 180 184 23
3 15 180 23
3 185 181 17
3 25 185 17
3 181 185 182
3 182 185 186
3 182 186 27
3 19 182 27
3 187 183 21
3 29 187 21
3 183 187 184
3 184 187 188
3 184 188 31
3 23 184 31
3 189 185 25
3 33 189 25
3 185 189 186
3 186 189 190
3 186 190 35
3 27 186 35
3 191 187 29
3 191 29 192
3 192 29 37
3 194 187 191
3 194 193 187
3 193 188 187
3 188 193 39
3 31 188 39
3 195 189 33
3 41 195 33
3 196 195 197
3 196 190 195
3 190 189 195
3 190 196 198
3 190 198 35
3 35 198 43
3 192 37 199
3 199 37 45
3 201 193 194
3 200 193 201
3 193 200 47
3 39 193 47
3 202 195 41
3 49 202 41
3 197 202 203
3 195 202 197
3 198 204 43
3 204 51 43
3 199 45 205
3 205 45 53
3 207 200 201
3 206 200 207
3 200 206 55
3 47 200 55
3 208 202 49
3 57 208 49
3 203 208 209
3 202 208 203
3 204 210 51
3 210 59 51
3 205 53 211
3 211 53 61
3 213 206 207
3 212 206 213
3 64 55 206
3 64 206 214
3 214 206 212
3 64 214 65
3 67 68 215
3 57 67 215
3 57 215 208
3 208 215 216
3 209 216 217
3 208 216 209
3 210 218 59
3 218 71 59
3 211 61 219
3 219 61 73
3 213 220 212
3 222 212 220
3 222 221 212
3 221 214 212
3 77 65 214
3 77 214 223
3 223 214 221
3 77 223 78
3 80 81 224
3 68 80 224
3 68 224 215
3 215 224 225
3 226 225 227
3 226 216 225
3 216 215 225
3 216 226 217
3 218 228 71
3 228 85 71
3 219 73 229
3 229 73 87
3 231 221 222
3 230 221 231
3 221 230 223
3 223 230 232
3 223 232 91
3 78 223 91
3 233 224 81
3 93 233 81
3 224 233 225
3 225 233 234
3 227 234 235
3 225 234 227
3 228 236 85
3 236 97 85
3 229 87 237
3 237 87 99
3 240 238 239
3 239 230 231
3 239 238 230
3 238 241 230
3 103 102 232
3 103 232 241
3 241 232 230
3 232 102 91
3 233 93 104
3 104 106 242
3 104 242 233
3 233 242 234
3 235 243 244
3 235 234 243
3 234 242 243
3 244 243 245
3 236 246 97
3 246 109 97
3 237 99 247
3 247 99 111
3 249 238 240
3 248 238 249
3 114 113 241
3 114 241 248
3 248 241 238
3 241 113 103
3 242 106 115
3 115 117 250
3 115 250 242
3 242 250 243
3 245 250 251
3 243 250 245
3 246 252 109
3 252 119 109
3 247 111 253
3 253 111 121
3 255 248 249
3 254 248 255
3 248 254 123
3 114 248 123
3 256 250 117
3 125 256 117
3 251 256 257
3 250 256 251
3 252 258 119
3 258 127 119
3 253 121 259
3 259 121 129
3 261 254 255
3 260 254 261
3 254 260 131
3 123 254 131
3 262 256 125
3 133 262 125
3 257 262 263
3 256 262 257
3 258 264 127
3 264 135 127
3 265 266 259
3 265 259 137
3 137 259 129
3 266 260 261
3 266 265 260
3 265 267 260
3 260 267 139
3 131 260 139
3 268 262 133
3 141 268 133
3 263 269 270
3 263 262 269
3 262 268 269
3 270 269 143
3 270 143 264
3 264 143 135
3 271 265 137
3 145 271 137
3 265 271 267
3 267 271 272
3 267 272 147
3 139 267 147
3 273 268 141
3 149 273 141
3 268 273 269
3 269 273 274
3 269 274 151
3 143 269 151
3 275 271 145
3 153 275 145
3 271 275 272
3 272 275 276
3 272 276 155
3 147 272 155
3 277 273 149
3 157 277 149
3 273 277 274
3 274 277 278
3 274 278 159
3 151 274 159
3 279 275 153
3 279 153 280
3 280 153 161
3 282 275 279
3 282 281 275
3 281 276 275
3 276 281 163
3 155 276 163
3 283 277 157
3 165 283 157
3 284 283 285
3 284 278 283
3 278 277 283
3 278 284 286
3 278 286 159
3 159 286 167
3 280 161 168
3 287 280 168
3 281 282 287
3 281 287 169
3 169 287 168
3 281 169 163
3 283 165 170
3 285 283 170
3 285 170 288
3 288 170 171
3 288 171 167
3 286 288 167
3 172 173 289
3 172 289 175
3 289 173 179
3 289 179 175
3 191 192 290
3 191 290 194
3 196 197 291
3 196 291 198
3 292 290 192
3 199 292 192
3 290 292 201
3 194 290 201
3 293 291 197
3 203 293 197
3 291 293 204
3 198 291 204
3 294 292 199
3 205 294 199
3 292 294 207
3 201 292 207
3 295 293 203
3 209 295 203
3 293 295 210
3 204 293 210
3 296 294 205
3 211 296 205
3 294 296 213
3 207 294 213
3 297 295 209
3 217 297 209
3 295 297 218
3 210 295 218
3 298 296 211
3 298 211 299
3 299 211 219
3 301 300 220
3 298 301 220
3 298 220 213
3 298 213 296
3 220 300 222
3 226 227 302
3 302 304 303
3 226 302 303
3 226 303 297
3 226 297 217
3 297 303 305
3 297 305 218
3 218 305 228
3 299 219 306
3 306 219 229
3 308 300 301
3 307 300 308
3 300 307 231
3 222 300 231
3 309 302 227
3 235 309 227
3 304 309 310
3 302 309 304
3 305 311 228
3 311 236 228
3 312 313 306
3 312 306 237
3 237 306 229
3 307 240 239
3 308 240 307
3 308 312 240
3 308 313 312
3 307 239 231
3 309 235 244
3 244 245 314
3 309 244 314
3 309 314 315
3 309 315 310
3 315 314 246
3 315 246 311
3 311 246 236
3 316 312 237
3 247 316 237
3 312 316 249
3 240 312 249
3 317 314 245
3 251 317 245
3 314 317 252
3 246 314 252
3 318 316 247
3 253 318 247
3 316 318 255
3 249 316 255
3 319 317 251
3 257 319 251
3 317 319 258
3 252 317 258
3 320 318 253
3 259 320 253
3 318 320 261
3 255 318 261
3 321 319 257
3 263 321 257
3 319 321 264
3 258 319 264
3 320 259 266
3 320 266 261
3 321 263 270
3 321 270 264
3 279 280 322
3 279 322 282
3 284 285 323
3 284 323 286
3 322 280 287
3 322 287 282
3 323 285 288
3 323 288 286
3 298 299 324
3 298 324 301
3 303 304 325
3 303 325 305
3 326 324 299
3 306 326 299
3 324 326 308
3 301 324 308
3 327 325 304
3 310 327 304
3 325 327 311
3 305 325 311
3 326 306 313
3 326 313 308
3 327 310 315
3 327 315 311
3 330 329 328
3 329 331 328
3 334 333 332
3 333 335 332
3 337 330 328
3 336 337 328
3 331 338 336
3 328 331 336
3 340 334 332
3 339 340 332
3 335 341 339
3 332 335 339
3 337 336 342
3 336 338 342
3 340 339 343
3 339 341 343
3 346 345 344
3 345 347 344
3 350 349 348
3 349 351 348
3 353 346 344
3 352 353 344
3 347 354 352
3 344 347 352
3 356 350 348
3 355 356 348
3 351 357 355
3 348 351 355
3 353 352 358
3 352 354 358
3 360 356 355
3 359 360 355
3 357 361 359
3 355 357 359
3 364 363 362
3 363 365 362
3 367 360 359
3 366 367 359
3 361 368 366
3 359 361 366
3 370 364 362
3 369 370 362
3 365 371 369
3 362 365 369
3 373 367 366
3 372 373 366
3 368 374 372
3 366 368 372
3 376 370 369
3 375 376 369
3 371 377 375
3 369 371 375
3 379 373 372
3 378 379 372
3 374 380 378
3 372 374 378
3 382 376 375
3 381 382 375
3 377 383 381
3 375 377 381
3 385 379 378
3 384 385 378
3 380 386 384
3 378 380 384
3 388 382 381
3 387 388 381
3 383 389 387
3 381 383 387
3 392 391 390
3 391 385 384
3 391 384 390
3 390 384 393
3 386 394 393
3 384 386 393
3 387 329 330
3 387 330 388
3 388 330 395
3 329 396 331
3 387 396 329
3 387 397 396
3 387 389 397
3 397 398 396
3 400 392 390
3 399 400 390
3 334 393 333
3 334 399 393
3 399 390 393
3 333 393 394
3 333 394 335
3 335 394 401
3 395 330 402
3 402 330 337
3 403 331 396
3 338 331 403
3 398 404 403
3 396 398 403
3 406 400 399
3 405 406 399
3 399 340 405
3 334 340 399
3 401 407 335
3 407 341 335
3 342 408 409
3 342 409 337
3 337 409 402
3 408 410 411
3 342 410 408
3 342 403 410
3 342 338 403
3 403 404 410
3 413 406 405
3 412 413 405
3 343 405 340
3 343 414 405
3 414 412 405
3 414 343 341
3 414 341 415
3 415 341 407
3 417 409 408
3 416 417 408
3 411 418 416
3 408 411 416
3 413 412 419
3 421 419 412
3 421 412 420
3 420 412 414
3 415 422 420
3 414 415 420
3 424 417 416
3 423 424 416
3 418 425 423
3 416 418 423
3 427 421 420
3 426 427 420
3 422 428 426
3 420 422 426
3 430 424 423
3 429 430 423
3 425 431 429
3 423 425 429
3 433 427 426
3 432 433 426
3 428 434 432
3 426 428 432
3 436 430 429
3 435 436 429
3 431 437 435
3 429 431 435
3 439 433 432
3 438 439 432
3 434 440 438
3 432 434 438
3 436 435 441
3 435 437 441
3 443 439 438
3 442 443 438
3 440 444 442
3 438 440 442
3 447 446 445
3 446 448 445
3 450 443 442
3 449 450 442
3 444 451 449
3 442 444 449
3 453 447 445
3 452 453 445
3 448 454 452
3 445 448 452
3 456 450 449
3 455 456 449
3 451 457 455
3 449 451 455
3 453 452 458
3 452 454 458
3 456 455 459
3 455 457 459
3 346 461 460
3 345 346 460
3 462 347 345
3 462 345 463
3 463 345 460
3 463 464 462
3 467 466 465
3 350 465 466
3 350 466 349
3 349 466 468
3 349 468 469
3 351 349 469
3 461 346 470
3 470 346 353
3 471 347 462
3 354 347 471
3 464 472 471
3 462 464 471
3 474 467 465
3 473 474 465
3 465 356 473
3 350 356 465
3 469 475 351
3 475 357 351
3 358 476 477
3 358 477 353
3 353 477 470
3 354 476 358
3 354 471 476
3 471 478 476
3 472 479 478
3 471 472 478
3 481 474 473
3 480 481 473
3 473 360 480
3 356 360 473
3 475 482 357
3 482 361 357
3 476 363 364
3 476 364 477
3 477 364 483
3 363 484 365
3 363 476 484
3 476 478 484
3 479 485 484
3 478 479 484
3 487 481 480
3 486 487 480
3 480 367 486
3 360 367 480
3 482 488 361
3 488 368 361
3 483 364 489
3 489 364 370
3 490 365 484
3 371 365 490
3 485 491 490
3 484 485 490
3 493 487 486
3 492 493 486
3 486 373 492
3 367 373 486
3 488 494 368
3 494 374 368
3 489 370 495
3 495 370 376
3 496 371 490
3 377 371 496
3 491 497 496
3 490 491 496
3 499 493 492
3 498 499 492
3 492 379 498
3 373 379 492
3 494 500 374
3 500 380 374
3 495 376 501
3 501 376 382
3 502 377 496
3 383 377 502
3 497 504 503
3 497 503 496
3 496 503 502
3 504 505 503
3 508 507 506
3 507 499 498
3 507 498 506
3 506 498 509
3 498 385 509
3 379 385 498
3 500 510 380
3 510 386 380
3 501 382 511
3 511 382 388
3 512 383 502
3 389 383 512
3 502 503 512
3 503 513 512
3 505 514 513
3 503 505 513
3 516 508 506
3 515 516 506
3 392 509 391
3 392 515 509
3 515 506 509
3 509 385 391
3 510 517 386
3 517 394 386
3 511 388 518
3 518 388 395
3 512 397 389
3 397 519 398
3 397 512 519
3 512 513 519
3 514 521 520
3 514 520 513
3 513 520 519
3 521 522 520
3 525 524 523
3 524 516 515
3 524 515 523
3 523 515 526
3 515 400 526
3 392 400 515
3 517 527 394
3 527 401 394
3 518 395 528
3 528 395 402
3 529 398 519
3 404 398 529
3 519 520 529
3 520 530 529
3 522 531 530
3 520 522 530
3 533 525 523
3 532 533 523
3 523 526 532
3 526 534 532
3 526 406 534
3 400 406 526
3 527 535 401
3 535 407 401
3 528 402 536
3 536 402 409
3 410 537 411
3 404 537 410
3 404 529 537
3 529 538 537
3 539 540 538
3 539 538 530
3 530 538 529
3 530 531 539
3 533 532 541
3 543 541 532
3 543 532 542
3 542 532 534
3 534 413 542
3 406 413 534
3 535 544 407
3 544 415 407
3 536 409 545
3 545 409 417
3 546 411 537
3 418 411 546
3 537 538 546
3 538 547 546
3 540 548 547
3 538 540 547
3 550 543 542
3 549 550 542
3 419 542 413
3 419 551 542
3 551 549 542
3 419 421 551
3 544 552 415
3 552 422 415
3 545 417 553
3 553 417 424
3 554 418 546
3 425 418 554
3 555 556 554
3 555 554 547
3 547 554 546
3 547 548 555
3 550 549 557
3 559 557 549
3 559 549 558
3 558 549 551
3 551 427 558
3 421 427 551
3 552 560 422
3 560 428 422
3 553 424 561
3 561 424 430
3 562 425 554
3 431 425 562
3 556 563 562
3 554 556 562
3 565 559 558
3 564 565 558
3 558 433 564
3 427 433 558
3 560 566 428
3 566 434 428
3 561 430 567
3 567 430 436
3 568 431 562
3 437 431 568
3 563 569 568
3 562 563 568
3 571 565 564
3 570 571 564
3 564 439 570
3 433 439 564
3 566 572 434
3 572 440 434
3 441 573 574
3 441 574 436
3 436 574 567
3 437 573 441
3 437 568 573
3 568 575 573
3 569 576 575
3 568 569 575
3 578 571 570
3 577 578 570
3 570 443 577
3 439 443 570
3 572 579 440
3 579 444 440
3 573 446 447
3 573 447 574
3 574 447 580
3 446 581 448
3 446 573 581
3 573 575 581
3 576 582 581
3 575 576 581
3 584 578 577
3 583 584 577
3 577 450 583
3 443 450 577
3 579 585 444
3 585 451 444
3 580 447 586
3 586 447 453
3 587 448 581
3 454 448 587
3 582 588 587
3 581 582 587
3 590 584 583
3 589 590 583
3 583 456 589
3 450 456 583
3 585 591 451
3 591 457 451
3 586 453 458
3 592 586 458
3 454 587 593
3 454 593 458
3 458 593 592
3 587 588 593
3 590 589 594
3 589 456 459
3 589 459 594
3 594 459 595
3 595 459 457
3 591 595 457
3 460 461 596
3 463 460 596
3 597 463 596
3 463 597 464
3 466 467 598
3 468 466 598
3 599 468 598
3 468 599 469
3 600 596 461
3 470 600 461
3 596 600 597
3 597 600 601
3 597 601 472
3 464 597 472
3 602 598 467
3 474 602 467
3 598 602 599
3 599 602 603
3 599 603 475
3 469 599 475
3 604 600 470
3 477 604 470
3 600 604 601
3 601 604 605
3 601 605 479
3 472 601 479
3 606 602 474
3 481 606 474
3 602 606 603
3 603 606 607
3 603 607 482
3 475 603 482
3 608 604 477
3 483 608 477
3 604 608 605
3 605 608 609
3 605 609 485
3 479 605 485
3 610 606 481
3 487 610 481
3 606 610 607
3 607 610 611
3 607 611 488
3 482 607 488
3 612 608 483
3 489 612 483
3 608 612 609
3 609 612 613
3 609 613 491
3 485 609 491
3 614 610 487
3 493 614 487
3 610 614 611
3 611 614 615
3 611 615 494
3 488 611 494
3 616 612 489
3 495 616 489
3 612 616 613
3 613 616 617
3 613 617 497
3 491 613 497
3 618 614 493
3 499 618 493
3 614 618 615
3 615 618 619
3 615 619 500
3 494 615 500
3 620 616 495
3 501 620 495
3 616 620 617
3 617 620 621
3 504 497 617
3 504 617 622
3 622 617 621
3 504 622 505
3 507 508 623
3 499 507 623
3 499 623 618
3 618 623 624
3 618 624 619
3 619 624 625
3 619 625 510
3 500 619 510
3 626 620 501
3 511 626 501
3 620 626 621
3 621 626 627
3 621 627 622
3 622 627 628
3 622 628 514
3 505 622 514
3 629 623 508
3 516 629 508
3 623 629 624
3 624 629 630
3 624 630 625
3 625 630 631
3 625 631 517
3 510 625 517
3 632 626 511
3 518 632 511
3 626 632 627
3 627 632 633
3 627 633 628
3 628 633 634
3 521 514 628
3 521 628 635
3 635 628 634
3 521 635 522
3 524 525 636
3 516 524 636
3 516 636 629
3 629 636 637
3 629 637 630
3 630 637 638
3 630 638 631
3 631 638 639
3 631 639 527
3 517 631 527
3 640 632 518
3 528 640 518
3 632 640 633
3 633 640 641
3 633 641 634
3 634 641 642
3 634 642 635
3 635 642 643
3 635 643 531
3 522 635 531
3 644 636 525
3 533 644 525
3 636 644 637
3 637 644 645
3 637 645 638
3 638 645 646
3 638 646 639
3 639 646 647
3 639 647 535
3 527 639 535
3 648 640 528
3 536 648 528
3 640 648 641
3 641 648 649
3 641 649 642
3 642 649 650
3 540 539 643
3 540 643 650
3 650 643 642
3 643 539 531
3 644 533 541
3 541 543 651
3 541 651 644
3 644 651 645
3 645 651 646
3 646 651 652
3 646 652 647
3 647 652 653
3 647 653 544
3 535 647 544
3 654 648 536
3 545 654 536
3 648 654 649
3 649 654 655
3 649 655 650
3 650 655 656
3 650 656 548
3 540 650 548
3 657 651 543
3 550 657 543
3 651 657 652
3 652 657 658
3 652 658 653
3 653 658 659
3 653 659 552
3 544 653 552
3 660 654 545
3 553 660 545
3 654 660 655
3 655 660 661
3 556 555 656
3 556 656 661
3 661 656 655
3 656 555 548
3 657 550 557
3 557 559 662
3 557 662 657
3 657 662 658
3 658 662 659
3 659 662 663
3 659 663 560
3 552 659 560
3 664 660 553
3 561 664 553
3 660 664 661
3 661 664 665
3 661 665 563
3 556 661 563
3 666 662 559
3 565 666 559
3 662 666 663
3 663 666 667
3 663 667 566
3 560 663 566
3 668 664 561
3 567 668 561
3 664 668 665
3 665 668 669
3 665 669 569
3 563 665 569
3 670 666 565
3 571 670 565
3 666 670 667
3 667 670 671
3 667 671 572
3 566 667 572
3 672 668 567
3 574 672 567
3 668 672 669
3 669 672 673
3 669 673 576
3 569 669 576
3 674 670 571
3 578 674 571
3 670 674 671
3 671 674 675
3 671 675 579
3 572 671 579
3 676 672 574
3 580 676 574
3 672 676 673
3 673 676 677
3 673 677 582
3 576 673 582
3 678 674 578
3 584 678 578
3 674 678 675
3 675 678 679
3 675 679 585
3 579 675 585
3 680 676 580
3 586 680 580
3 676 680 677
3 677 680 681
3 677 681 588
3 582 677 588
3 682 678 584
3 590 682 584
3 678 682 679
3 679 682 683
3 679 683 591
3 585 679 591
3 680 586 592
3 681 680 592
3 593 681 592
3 681 593 588
3 682 590 594
3 683 682 594
3 595 683 594
3 683 595 591
