ply
format ascii 1.0
element vertex 454
property float x
property float y
property float z
property uchar red
property uchar green
property uchar blue
element face 908
property list uchar int vertex_indices
end_header
-6.06812763214111328 5 2 86 83 79
-6 4.93222188949584961 2 165 160 155
-6 5 1.8408362865447998 89 86 83
-6 5 2.11103200912475586 34 33 32
-6 5.06895160675048828 2 34 33 32
-5.03939056396484375 1 1 255 231 216
-5 0.957457184791564941 1 255 221 203
-5 1 0.9077339768409729 255 230 210
-5.06623458862304688 1 2 255 232 221
-5 0.628229856491088867 2 255 225 211
-5 1 2.1601417064666748 255 234 222
-5.16902256011962891 2 -2 255 239 229
-5 1.28234851360321045 -2 255 231 210
-5 2 -2.72116684913635254 255 241 229
-5.31167936325073242 2 -1 255 239 226
-5 1.44370269775390625 -1 255 230 208
-5.34717750549316406 2 0 255 239 225
-5 1.37541472911834717 0 255 230 210
-5.23612451553344727 2 1 255 239 227
-5.04897165298461914 2 2 255 240 230
-5 2 2.08083701133728027 255 242 233
-5.00213050842285156 3 -2 255 244 238
-5 3 -2.0042884349822998 255 247 242
-5.14605331420898438 3 -1 255 245 237
-5.15943765640258789 3 0 255 245 236
-5.05550670623779297 3 1 255 245 236
-5 2.1076512336730957 2 255 242 233
-5 3 1.12674295902252197 255 246 237
-5 3.00250577926635742 -2 255 247 237
-5 3.21033191680908203 -1 255 246 234
-5 3.23183560371398926 0 255 246 234
-5 3.06632828712463379 1 255 246 237
-5.93179988861083984 5 2 34 33 32
-5.08334016799926758 6 -3 82 80 77
-5 5.91730260848999023 -3 142 140 138
-5 6 -3.09893202781677246 64 63 61
-5.07741975784301758 6 -2 48 47 44
-5 5.93885660171508789 -2 199 196 194
-5 6 -1.77700650691986084 53 52 51
-5.13512992858886719 6 1 50 49 47
-5 5.89592552185058594 1 213 211 208
-5 6 0.640694141387939453 86 84 82
-5.1476740837097168 6 2 86 85 82
-5 5.85380077362060547 2 165 163 161
-5 6 2.1855316162109375 7 7 7
-5 6.08229303359985352 -3 2 2 2
-5 6.06339454650878906 -2 53 52 51
-5 6.10852336883544922 1 61 60 58
-5 6.14524555206298828 2 7 7 7
-4.98604774475097656 1 1 255 231 215
-4.84618568420410156 1 2 255 234 222
-4.14792585372924805 1 3 255 239 231
-4 0.757770359516143799 3 255 229 219
-4 1 2.85800051689147949 255 234 221
-4 1 3.13842630386352539 255 239 231
-4.52683925628662109 2 -3 255 241 229
-4 1.87255585193634033 -3 255 233 212
-4 2 -3.93013429641723633 255 244 233
-4.58610677719116211 2 -2 255 240 223
-4 2 -2.76686453819274902 255 241 226
-4.71550178527832031 2 -1 255 239 221
-4.68357753753662109 2 0 255 239 222
-4.39663839340209961 2 1 255 240 227
-4 1.65079343318939209 2 255 234 221
-4 2 1.44540834426879883 255 240 226
-4.18231821060180664 2 3 255 245 240
-4 2 3.17793703079223633 255 247 242
-4.25961637496948242 3 -3 255 247 242
-4 3 -3.3754878044128418 255 250 246
-4 2.41994929313659668 -2 255 239 221
-4 2.62273812294006348 -1 255 238 220
-4 2.59749031066894531 0 255 239 222
-4 2.29075193405151367 1 255 240 226
-4.37633466720581055 3 2 255 248 242
-4 2.45698690414428711 3 255 247 242
-4 3 2.62411165237426758 255 250 245
-4 3.33774542808532715 -3 255 248 239
-4.14713191986083984 4 -2 255 251 248
-4 4 -2.30078744888305664 255 253 251
-4.31279182434082031 4 -1 255 251 246
-4.32767438888549805 4 0 255 251 245
-4.18990373611450195 4 1 255 251 246
-4 3.50297856330871582 2 255 250 245
-4 4 1.44543218612670898 255 252 249
-4 4.13489389419555664 -2 255 252 247
-4 4.26285171508789062 -1 255 251 245
-4 4.2739558219909668 0 255 252 246
-4 4.17253303527832031 1 255 252 249
-4.11537265777587891 6 -4 64 63 61
-4 5.90389633178710938 -4 152 152 152
-4 6 -4.11224651336669922 80 79 78
-4.88570499420166016 6 -3 2 2 2
-4 6 -3.86708784103393555 10 10 10
-4.93775653839111328 6 -2 53 52 51
-4.89372158050537109 6 1 61 60 58
-4.78667402267456055 6 2 7 7 7
-4.2212071418762207 6 3 63 62 61
-4 5.82548046112060547 3 186 185 185
-4 6 2.74731183052062988 111 110 109
-4 6 3.21865940093994141 26 26 26
-4 6.09670591354370117 -4 10 10 10
-4.07006549835205078 7 -2 84 83 81
-4 6.93119716644287109 -2 145 145 145
-4 7 -2.0960545539855957 64 63 62
-4.23627233505249023 7 -1 67 66 64
-4 6.78803539276123047 -1 177 177 177
-4.24424839019775391 7 0 67 66 64
-4 6.78200101852416992 0 183 183 183
-4.11420583724975586 7 1 84 83 81
-4 6.88814210891723633 1 162 162 161
-4 7 1.16744685173034668 15 15 15
-4 6.17618942260742188 3 26 26 26
-4 7.06764936447143555 -2 19 19 19
-4 7.2116999626159668 -1 5 5 5
-4 7.21770811080932617 0 7 7 7
-4 7.10966062545776367 1 15 15 15
-3.86675810813903809 1 3 255 239 231
-3.03765773773193359 1 4 255 246 243
-3 0.919318914413452148 4 255 239 233
-3 1 3.96391081809997559 255 242 234
-3 1 4.01459598541259766 255 248 245
-3.89644050598144531 2 -3 255 241 226
-3.72047042846679688 2 2 255 243 233
-3 1.69418394565582275 3 255 242 234
-3 2 2.74463653564453125 255 246 239
-3.0202326774597168 2 4 255 253 252
-3 2 4.01212358474731445 255 254 253
-3.30395245552062988 3 -4 255 250 246
-3 2.02656841278076172 -4 255 245 235
-3 3 -4.17433452606201172 255 254 254
-3 2.72358322143554688 -3 255 241 229
-3.10613346099853516 3 -2 255 247 235
-3 3 -2.14025568962097168 255 249 243
-3.50561213493347168 3 -1 255 246 234
-3.4696505069732666 3 0 255 246 235
-3 2.96604681015014648 1 255 241 231
-3 3 0.880536377429962158 255 248 241
-3 2.59699773788452148 2 255 246 239
-3.61183309555053711 3 3 255 253 252
-3 2.02599883079528809 4 255 254 253
-3 3 3.34384036064147949 255 253 252
-3 3.24018239974975586 -4 255 252 248
-3.3877265453338623 4 -3 255 253 251
-3 4 -3.35082864761352539 255 253 251
-3 3.08351445198059082 -2 255 248 240
-3 3.42141199111938477 -1 255 247 240
-3 3.39547324180603027 0 255 248 241
-3.53466057777404785 4 2 255 254 253
-3 3.46997475624084473 3 255 253 252
-3 4 2.51467514038085938 255 252 249
-3 4.21474695205688477 -3 255 254 254
-3 4.69556522369384766 -2 255 254 252
-3.15859055519104004 5 -1 255 254 254
-3 5 -1.5061265230178833 255 253 250
-3.17611980438232422 5 0 255 254 254
-3 4.81299161911010742 1 255 254 253
-3 5 0.672768950462341309 255 253 249
-3 4.27416849136352539 2 255 252 249
-3.03120732307434082 5 5 65 65 65
-3 4.98067808151245117 5 139 135 132
-3 5 4.98055934906005859 151 148 144
-3 5 5.0193934440612793 4 4 4
-3.87297224998474121 6 -4 10 10 10
-3 5.12078475952148438 -1 255 253 250
-3 5.13291263580322266 0 255 253 249
-3.75156164169311523 6 3 26 26 26
-3.1559600830078125 6 4 73 73 73
-3 5.87663936614990234 4 151 148 144
-3 6 3.82084202766418457 104 104 102
-3 5.01961040496826172 5 4 4 4
-3 6 4.12432384490966797 10 10 10
-3.24618864059448242 7 -3 64 63 62
-3 6.81731176376342773 -3 156 155 153
-3 7 -3.23628020286560059 79 79 79
-3 6.82978963851928711 -2 213 211 208
-3.16001319885253906 7 -1 5 5 5
-3 7 -1.19949436187744141 42 42 42
-3.10297083854675293 7 0 7 7 7
-3 6.8045659065246582 1 230 229 224
-3 7 0.116226948797702789 77 77 77
-3.31210756301879883 7 2 59 59 59
-3 6.78188848495483398 2 184 183 180
-3 7 2.30707216262817383 1 1 1
-3 6.12264156341552734 4 10 10 10
-3 7.18251276016235352 -3 10 10 10
-3 7.1730952262878418 -2 42 42 42
-3 7.19936323165893555 1 54 54 53
-3 7.2178196907043457 2 1 1 1
-2.81751799583435059 1 4 255 248 245
-2.55196809768676758 2 3 255 250 247
-2 1.27585375308990479 4 255 253 252
-2 2 3.5520932674407959 255 254 254
-2 2 4.16676759719848633 255 249 246
-2 2.65583252906799316 -4 255 248 244
-2 3 -4.46684026718139648 255 251 248
-2.33463525772094727 3 -3 255 249 243
-2 3 -3.36145496368408203 255 254 253
-2.94594669342041016 3 1 255 250 245
-2 2.98751473426818848 2 255 249 245
-2 3 1.97963643074035645 255 254 253
-2 2.3764193058013916 3 255 254 254
-2.00735306739807129 3 4 255 249 244
-2 3 4.00323963165283203 255 245 236
-2.09700465202331543 4 -4 255 253 251
-2 4 -4.044677734375 255 248 241
-2 3.23372197151184082 -3 255 253 252
-2 3.66173481941223145 -2 255 251 248
-2 3.7566063404083252 -1 255 250 246
-2 3.74529266357421875 0 255 251 248
-2 3.62043070793151855 1 255 254 253
-2.38565754890441895 4 3 255 250 244
-2 3.00381875038146973 4 255 245 236
-2 4 3.16106700897216797 255 246 235
-2 4.04247426986694336 -4 255 250 244
-2 4.59264564514160156 -3 255 251 246
-2.64368653297424316 5 -2 255 253 250
-2 5 -2.5553443431854248 255 250 240
-2.78659534454345703 5 1 255 252 247
-2 4.77262163162231445 2 255 249 239
-2 5 1.74527621269226074 255 249 237
-2 4.14853715896606445 3 255 246 235
-2.95859122276306152 5 5 4 4 4
-2 5.1990513801574707 -2 255 250 240
-2 5.26836204528808594 -1 255 250 240
-2 5.27331113815307617 0 255 250 238
-2 5.22125673294067383 1 255 249 237
-2 5.93795251846313477 4 193 186 176
-2 6 3.93674397468566895 151 148 142
-2 6 4.07766962051391602 37 37 36
-2 6.86018562316894531 -3 198 195 189
-2 7 -3.81486296653747559 47 47 46
-2.72796463966369629 7 -2 42 42 42
-2 7 -2.7713778018951416 29 29 28
-2.67250704765319824 7 1 54 54 53
-2 6.81224632263183594 2 224 220 209
-2 7 1.68324673175811768 101 100 99
-2.12616777420043945 7 3 68 68 68
-2 6.9155268669128418 3 151 148 142
-2 6.06433868408203125 4 37 37 36
-2 7 3.08588552474975586 31 31 31
-2 7.1418147087097168 -3 29 29 28
-2 7.19132328033447266 2 48 48 47
-2 7.082977294921875 3 31 31 31
-1 1.63749909400939941 4 255 250 248
-1 2 3.80300235748291016 255 250 246
-1 2 4.19981193542480469 255 244 236
-1 2.85453081130981445 -4 255 254 254
-1 3 -4.59898614883422852 255 246 238
-1 3 -3.79306721687316895 255 248 242
-1.96006441116333008 3 2 255 252 249
-1 2.67173051834106445 3 255 250 246
-1 3 2.5555267333984375 255 247 240
-1 3 4.10282754898071289 255 240 227
-1 4 -4.15838432312011719 255 244 232
-1 3.56376004219055176 -3 255 250 247
-1 3.79284501075744629 -2 248 246 245
-1 3.89890384674072266 -1 235 235 235
-1 3.88356614112854004 0 240 239 239
-1 3.75638222694396973 1 255 251 248
-1 3.44559216499328613 2 255 247 240
-1 3.14501476287841797 4 255 240 227
-1 4 3.27818489074707031 255 242 225
-1 4.14439249038696289 -4 255 244 233
-1.15124261379241943 5 -3 255 250 240
-1 5 -3.04021453857421875 255 244 230
-1.56480908393859863 5 2 255 248 235
-1 4.24020862579345703 3 255 242 225
-1 5 2.13936591148376465 255 245 224
-1 5.03325176239013672 -3 255 244 229
-1 5.25123119354248047 -2 255 244 228
-1 5.33854389190673828 -1 255 245 228
-1 5.34545230865478516 0 255 245 227
-1 5.26846218109130859 1 255 246 225
-1 5.10848093032836914 2 255 245 224
-1.81145060062408447 6 4 37 37 36
-1.80641722679138184 7 -4 47 47 46
-1 6.86668634414672852 -4 136 132 126
-1 7 -4.14151859283447266 122 120 116
-1.50884032249450684 7 -3 29 29 28
-1 7 -3.5225830078125 32 32 31
-1.23194766044616699 7 2 48 48 47
-1 6.80123996734619141 3 168 163 151
-1 7 2.21972107887268066 67 66 64
-1 7 3.21827816963195801 14 13 13
-1 7.13322162628173828 -4 32 32 31
-1 7.19854164123535156 3 14 13 13
0 1.7661055326461792 4 255 243 237
0 2 3.87100863456726074 255 244 236
0 2 4.13077974319458008 255 238 226
0 2.90984916687011719 -4 250 243 238
0 3 -4.3601069450378418 255 239 226
0 3 -3.87310981750488281 255 241 229
0 2.72208619117736816 3 255 244 236
0 3 2.62770318984985352 255 243 230
0 3 4.07083559036254883 255 235 216
0 4 -4.12273502349853516 253 237 220
0 3.60874843597412109 -3 255 243 234
0 3.81922674179077148 -2 237 228 223
0 3.93134522438049316 -1 225 219 214
0 3.9146115779876709 0 231 224 219
0 3.78000426292419434 1 254 244 236
0 3.49361705780029297 2 255 243 230
0 3.09822201728820801 4 255 235 216
0 4 3.24759507179260254 255 238 215
0 4.11243772506713867 -4 255 238 220
-0.0634603649377822876 5 -3 255 244 229
0 4.99068403244018555 -3 255 239 222
0 5 -2.99173736572265625 255 239 217
0 4.21550273895263672 3 255 238 215
0 5 2.10244297981262207 255 242 213
0 5.23778676986694336 -2 255 239 216
0 5.3240966796875 -1 255 239 216
0 5.33152198791503906 0 255 240 215
0 5.25750017166137695 1 255 242 214
0 5.08101940155029297 2 255 242 213
0 6.89086675643920898 -4 127 122 114
0 7 -4.11523914337158203 130 128 121
0 7 -3.62905240058898926 40 40 38
0 6.8168187141418457 3 159 153 138
0 7 2.32638096809387207 58 57 53
0 7 3.19952583312988281 21 21 20
0 7.10906744003295898 -4 40 40 38
0 7.18300485610961914 3 21 21 20
1 1.90897822380065918 4 255 235 223
1 2 3.94239282608032227 255 238 223
1 2 4.02320718765258789 255 231 213
1 2.88666844367980957 -4 252 235 224
1 3 -4.15029621124267578 255 233 213
1 3 -3.79833483695983887 255 233 215
1 2.61493754386901855 3 255 238 223
1 3 2.38367152214050293 255 238 217
0.385259389877319336 3 4 255 235 216
1 2.12750697135925293 4 255 231 213
1 3 3.59952259063720703 255 234 211
0.601181566715240479 4 -4 255 238 220
1 3.42243051528930664 -4 255 233 215
1 3.48751688003540039 -3 255 235 220
1 4 -3.75269913673400879 255 232 208
1 3.74935674667358398 -2 242 226 214
1 3.83303666114807129 -1 233 218 208
1 3.81895732879638672 0 240 225 214
1 3.70388388633728027 1 255 239 223
1 3.27710938453674316 2 255 238 217
1 4 3.06498050689697266 255 234 204
1 4.40796089172363281 -3 255 232 209
1 5 -2.34056353569030762 255 233 206
0.293410956859588623 5 2 255 242 213
1 4.56202411651611328 2 255 237 207
1 5 1.49033939838409424 255 239 204
1 4.06079959869384766 3 255 234 204
1 5.1405797004699707 -2 255 233 205
1 5.23049020767211914 -1 255 235 205
1 5.23792743682861328 0 255 237 204
1 5.17266225814819336 1 255 239 204
0.444223940372467041 7 -4 40 40 38
0.76130223274230957 7 -3 37 37 35
1 6.9388880729675293 -3 167 157 141
1 7 -3.29823541641235352 73 72 67
1 7 -2.90758919715881348 2 2 2
0.422709673643112183 7 2 58 57 53
1 6.87097597122192383 2 195 186 161
1 7 1.80069780349731445 72 71 64
0.930279791355133057 7 3 21 21 20
1 7 2.89826154708862305 22 21 19
1 7.06173563003540039 -3 2 2 2
1 7.13077354431152344 2 22 21 19
1.08240306377410889 2 4 255 231 213
1.48054873943328857 3 -4 255 233 215
1.99143242835998535 3 -3 255 235 220
2 2.99712848663330078 -3 236 214 201
2 3 -3.03067684173583984 255 226 202
2 3 -2.99217820167541504 255 227 205
1.53190803527832031 3 2 255 238 217
2 2.85292983055114746 2 255 235 216
2 3 1.6407092809677124 255 234 208
2 2.44253683090209961 3 255 230 207
2 3 3.11040449142456055 255 228 198
2 4 -3.0884404182434082 248 222 193
2 3.52621269226074219 -2 255 228 208
2 3.65313506126403809 -1 254 229 210
2 3.63049077987670898 0 255 233 211
2 3.40570902824401855 1 255 234 208
1.12059438228607178 4 3 255 234 204
2 3.1432335376739502 3 255 228 198
2 4 2.23887372016906738 255 233 196
2 4.05981636047363281 -3 255 226 197
1.32726848125457764 5 -2 255 233 205
2 4.3786616325378418 -2 255 227 198
1.8720015287399292 5 -1 255 235 205
2 4.84969902038574219 -1 255 228 199
1.93168330192565918 5 0 255 237 204
2 4.92018222808837891 0 255 232 199
1.42899239063262939 5 1 255 239 204
2 4.46893787384033203 1 255 234 198
2 4.14529895782470703 2 255 233 196
2 6.93235254287719727 -3 110 103 91
2 7 -3.08091187477111816 125 122 112
1.93057870864868164 7 -2 57 56 51
2 6.95448875427246094 -2 162 150 130
2 7 -1.8379286527633667 2 2 2
1.8562319278717041 7 1 72 71 64
2 6.90920448303222656 1 180 170 143
2 7 0.694288432598114014 32 32 28
2 6.86601352691650391 2 137 129 110
2 7 2.170013427734375 38 37 32
2 7.06761360168457031 -3 55 55 49
2 7.04595088958740234 -2 2 2 2
2 7.09183502197265625 1 10 10 9
2 7.13389348983764648 2 38 37 32
2.02301740646362305 3 -3 255 227 205
2.93432807922363281 3 -2 255 228 208
3 2.96547555923461914 -2 244 214 196
3 3 -2.17359232902526855 255 219 191
2.99498701095581055 3 -1 254 229 210
3 2.99653363227844238 -1 239 214 195
2.95112919807434082 3 0 255 233 211
3 2.96638631820678711 0 246 223 200
2.70031404495239258 3 1 255 234 208
3 2.84566664695739746 1 255 230 204
3 2.8508446216583252 2 255 227 198
2.15184617042541504 3 3 255 228 198
3 3 2.04732847213745117 255 226 190
2.08625245094299316 4 -3 255 226 197
2.64864754676818848 4 -2 255 227 198
3 3.12596559524536133 -2 255 221 193
3 4 -1.33603394031524658 255 222 186
2.82666921615600586 4 1 255 234 198
3 3.58216738700866699 1 255 229 193
3 4 0.592029988765716553 255 229 187
2.21891665458679199 4 2 255 233 196
3 3.03978061676025391 2 255 226 190
3 4.06018304824829102 -1 255 225 187
3 4.07863283157348633 0 255 229 187
2.08015656471252441 7 -3 55 55 49
2.19881916046142578 7 -2 2 2 2
2.77183008193969727 7 -1 27 27 24
3 6.93205738067626953 -1 110 103 86
3 7 -1.27498626708984375 84 82 72
2.71556591987609863 7 0 32 32 28
3 6.91731166839599609 0 116 109 91
2.42958259582519531 7 1 10 10 9
3 7 0.404709130525588989 52 50 43
2.16428065299987793 7 2 38 37 32
3 7.06790876388549805 -1 56 55 47
3 7.08264446258544922 0 52 50 43
3.04311442375183105 3 -2 255 221 193
3.01183438301086426 3 -1 255 224 194
3.11625909805297852 3 0 255 228 195
3.19433879852294922 3 1 255 229 193
3.02922368049621582 3 2 255 226 190
3.06450867652893066 4 -1 255 225 187
3.08444523811340332 4 0 255 229 187
3.0710291862487793 7 -1 56 55 47
3.08663058280944824 7 0 52 50 43
3 2 1 0
3 1 3 0
3 2 0 4
3 0 3 4
3 7 6 5
3 6 9 8
3 5 6 8
3 9 10 8
3 13 12 11
3 12 15 14
3 11 12 14
3 15 17 16
3 14 15 16
3 17 7 5
3 17 5 16
3 16 5 18
3 5 8 18
3 8 19 18
3 10 20 19
3 8 10 19
3 22 13 11
3 21 22 11
3 11 14 21
3 14 23 21
3 14 16 23
3 16 24 23
3 16 18 24
3 18 25 24
3 26 27 25
3 26 25 19
3 19 25 18
3 19 20 26
3 22 21 28
3 21 23 29
3 28 21 29
3 23 24 30
3 29 23 30
3 24 25 31
3 30 24 31
3 25 27 31
3 1 2 32
3 1 32 3
3 35 34 33
3 34 37 36
3 33 34 36
3 37 38 36
3 41 40 39
3 42 39 2
3 42 2 4
3 39 40 2
3 32 2 43
3 40 43 2
3 42 4 3
3 42 3 44
3 32 43 3
3 43 44 3
3 35 33 45
3 33 36 46
3 45 33 46
3 36 38 46
3 41 39 47
3 39 42 48
3 47 39 48
3 42 44 48
3 6 7 49
3 9 6 49
3 50 9 49
3 51 10 9
3 51 9 52
3 50 53 9
3 53 52 9
3 52 54 51
3 57 56 55
3 13 55 56
3 13 56 12
3 59 58 56
3 58 12 56
3 15 12 58
3 60 15 58
3 17 15 60
3 61 17 60
3 7 17 61
3 7 61 49
3 49 61 62
3 63 62 64
3 63 50 62
3 50 49 62
3 10 65 20
3 10 51 65
3 53 50 63
3 54 66 65
3 51 54 65
3 68 57 55
3 67 68 55
3 55 22 67
3 55 13 22
3 58 59 69
3 58 70 60
3 69 70 58
3 60 71 61
3 70 71 60
3 61 72 62
3 71 72 61
3 62 72 64
3 27 26 73
3 73 74 75
3 26 74 73
3 26 65 74
3 26 20 65
3 65 66 74
3 68 67 76
3 78 28 77
3 76 28 78
3 76 22 28
3 76 67 22
3 29 77 28
3 79 77 29
3 30 79 29
3 80 79 30
3 31 80 30
3 81 80 31
3 81 82 83
3 31 82 81
3 31 73 82
3 31 27 73
3 73 75 82
3 78 77 84
3 77 79 85
3 84 77 85
3 79 80 86
3 85 79 86
3 80 81 87
3 86 80 87
3 81 83 87
3 90 89 88
3 35 88 89
3 35 89 34
3 92 91 89
3 91 34 89
3 37 34 91
3 93 37 91
3 37 93 38
3 40 41 94
3 43 40 94
3 95 43 94
3 96 44 43
3 96 43 97
3 95 98 43
3 98 97 43
3 97 99 96
3 90 88 100
3 91 92 100
3 91 100 45
3 88 35 100
3 35 45 100
3 93 91 103
3 93 103 102
3 91 45 103
3 101 103 46
3 45 46 103
3 102 105 38
3 102 38 93
3 105 104 38
3 46 38 101
3 104 101 38
3 105 107 106
3 104 105 106
3 108 106 41
3 108 41 47
3 106 107 41
3 94 41 109
3 107 109 41
3 47 48 110
3 47 110 108
3 48 95 110
3 109 110 94
3 95 94 110
3 44 96 111
3 44 111 48
3 98 95 111
3 95 48 111
3 96 99 111
3 103 101 112
3 101 104 113
3 112 101 113
3 104 106 114
3 113 104 114
3 106 108 115
3 114 106 115
3 108 110 115
3 52 53 116
3 117 54 52
3 117 52 118
3 116 119 52
3 119 118 52
3 118 120 117
3 56 57 121
3 56 121 59
3 63 64 122
3 122 124 123
3 63 122 123
3 63 123 116
3 63 116 53
3 54 125 66
3 54 117 125
3 119 116 123
3 120 126 125
3 117 120 125
3 129 128 127
3 127 128 130
3 127 130 57
3 127 57 68
3 121 57 130
3 132 131 69
3 130 132 69
3 130 69 59
3 130 59 121
3 70 69 131
3 133 70 131
3 71 70 133
3 134 71 133
3 134 136 135
3 134 135 71
3 71 135 72
3 64 137 122
3 64 72 137
3 72 135 137
3 122 137 124
3 75 74 138
3 138 139 140
3 74 139 138
3 74 125 139
3 74 66 125
3 125 126 139
3 129 127 141
3 143 76 142
3 141 76 143
3 141 68 76
3 141 127 68
3 132 144 131
3 142 76 78
3 131 145 133
3 144 145 131
3 133 146 134
3 145 146 133
3 134 146 136
3 82 147 83
3 147 148 149
3 82 148 147
3 82 138 148
3 82 75 138
3 138 140 148
3 143 142 150
3 142 78 84
3 142 84 150
3 150 84 151
3 153 85 152
3 153 151 85
3 151 84 85
3 86 152 85
3 154 152 86
3 154 155 156
3 154 86 155
3 86 87 155
3 83 147 157
3 83 157 87
3 87 157 155
3 147 149 157
3 160 159 158
3 159 161 158
3 89 90 162
3 89 162 92
3 153 152 163
3 152 154 164
3 163 152 164
3 154 156 164
3 97 98 165
3 166 99 97
3 166 97 167
3 165 168 97
3 168 167 97
3 169 170 166
3 169 166 158
3 167 160 166
3 160 158 166
3 158 161 169
3 162 90 100
3 162 100 92
3 172 171 173
3 103 171 172
3 103 172 102
3 102 172 174
3 176 175 105
3 176 105 174
3 174 105 102
3 107 105 175
3 177 107 175
3 177 179 178
3 177 178 107
3 107 178 109
3 180 110 109
3 180 109 181
3 181 109 178
3 181 182 180
3 98 111 165
3 99 166 183
3 99 183 111
3 168 165 183
3 165 111 183
3 166 170 183
3 173 171 184
3 171 103 112
3 171 112 184
3 184 112 185
3 175 176 185
3 175 185 113
3 113 185 112
3 177 175 113
3 114 177 113
3 179 177 114
3 179 114 186
3 186 114 115
3 110 180 187
3 110 187 115
3 115 187 186
3 180 182 187
3 118 119 188
3 118 188 120
3 123 124 189
3 189 191 190
3 123 189 190
3 123 190 188
3 123 188 119
3 188 190 192
3 188 192 120
3 120 192 126
3 129 194 193
3 128 129 193
3 196 195 130
3 196 130 193
3 193 130 128
3 130 195 132
3 135 136 197
3 197 199 198
3 197 198 135
3 135 198 137
3 124 200 189
3 124 137 200
3 137 198 200
3 189 200 191
3 140 139 201
3 201 139 126
3 201 126 202
3 202 126 192
3 141 203 204
3 141 204 129
3 129 204 194
3 196 205 195
3 203 141 143
3 195 144 132
3 195 205 144
3 205 206 144
3 206 207 144
3 144 207 145
3 207 208 145
3 145 208 146
3 136 209 197
3 136 146 209
3 146 208 209
3 197 209 199
3 148 210 149
3 210 211 212
3 148 211 210
3 148 201 211
3 148 140 201
3 201 202 211
3 204 203 213
3 203 143 150
3 203 150 213
3 213 150 214
3 216 151 215
3 216 214 151
3 214 150 151
3 151 153 215
3 155 217 156
3 217 218 219
3 217 155 218
3 155 157 218
3 149 210 220
3 149 220 157
3 157 220 218
3 210 212 220
3 159 160 221
3 159 221 161
3 216 215 222
3 215 153 163
3 215 163 222
3 222 163 223
3 223 163 224
3 163 164 224
3 156 217 225
3 156 225 164
3 164 225 224
3 217 219 225
3 168 227 226
3 167 168 226
3 167 226 221
3 167 221 160
3 226 228 221
3 169 221 170
3 228 170 221
3 221 169 161
3 173 230 229
3 172 173 229
3 232 231 174
3 232 174 229
3 229 174 172
3 174 231 176
3 178 179 233
3 233 235 234
3 233 234 178
3 178 234 181
3 236 182 181
3 236 181 237
3 237 181 234
3 227 168 236
3 227 236 237
3 168 183 236
3 239 236 238
3 183 238 236
3 238 183 170
3 228 238 170
3 230 173 184
3 240 230 184
3 231 232 240
3 231 240 185
3 185 240 184
3 231 185 176
3 233 179 186
3 235 233 186
3 235 186 241
3 241 186 187
3 182 236 242
3 182 242 187
3 187 242 241
3 236 239 242
3 191 244 243
3 190 191 243
3 190 243 245
3 192 190 245
3 194 247 246
3 193 194 246
3 193 246 248
3 196 193 248
3 198 199 249
3 249 251 250
3 249 250 198
3 198 250 200
3 250 191 200
3 244 191 250
3 245 252 192
3 252 202 192
3 247 194 253
3 253 194 204
3 248 205 196
3 254 205 248
3 254 255 205
3 205 255 206
3 255 256 206
3 206 256 207
3 256 257 207
3 207 257 208
3 257 258 208
3 208 258 209
3 199 259 249
3 199 209 259
3 209 258 259
3 249 259 251
3 212 260 261
3 211 260 212
3 260 211 202
3 252 260 202
3 253 204 213
3 262 253 213
3 264 214 263
3 264 262 214
3 262 213 214
3 214 216 263
3 218 265 219
3 265 266 267
3 265 218 266
3 218 220 266
3 266 220 212
3 261 266 212
3 264 263 268
3 263 216 222
3 263 222 268
3 268 222 269
3 269 222 270
3 222 223 270
3 270 223 271
3 223 224 271
3 271 224 272
3 224 225 272
3 219 265 273
3 219 273 225
3 225 273 272
3 265 267 273
3 226 227 274
3 226 274 228
3 277 276 275
3 230 275 276
3 230 276 229
3 279 278 276
3 278 229 276
3 229 278 232
3 234 235 280
3 280 282 281
3 280 281 234
3 234 281 237
3 237 281 274
3 237 274 227
3 281 283 274
3 238 274 239
3 283 239 274
3 274 238 228
3 277 275 284
3 278 279 284
3 278 284 240
3 275 230 284
3 230 240 284
3 278 240 232
3 280 235 241
3 282 280 241
3 282 241 285
3 285 241 242
3 285 242 239
3 283 285 239
3 244 287 286
3 243 244 286
3 243 286 288
3 245 243 288
3 247 290 289
3 246 247 289
3 246 289 291
3 248 246 291
3 251 293 292
3 250 251 292
3 292 244 250
3 287 244 292
3 288 294 245
3 294 252 245
3 290 247 295
3 295 247 253
3 291 254 248
3 296 254 291
3 296 297 254
3 254 297 255
3 297 298 255
3 255 298 256
3 298 299 256
3 256 299 257
3 299 300 257
3 257 300 258
3 300 301 258
3 258 301 259
3 301 251 259
3 293 251 301
3 261 302 303
3 260 302 261
3 302 260 252
3 294 302 252
3 295 253 262
3 304 295 262
3 305 262 264
3 305 306 262
3 306 304 262
3 306 305 307
3 267 308 309
3 266 308 267
3 308 266 261
3 303 308 261
3 305 264 268
3 307 305 268
3 307 268 310
3 310 268 269
3 310 269 311
3 269 270 311
3 311 270 312
3 270 271 312
3 312 271 313
3 271 272 313
3 313 272 314
3 272 273 314
3 314 273 267
3 309 314 267
3 277 316 315
3 276 277 315
3 276 315 317
3 279 276 317
3 282 319 318
3 281 282 318
3 281 318 320
3 283 281 320
3 316 277 284
3 321 316 284
3 321 284 279
3 317 321 279
3 319 282 285
3 322 319 285
3 322 285 283
3 320 322 283
3 287 324 323
3 286 287 323
3 286 323 325
3 288 286 325
3 290 327 326
3 289 290 326
3 289 326 328
3 291 289 328
3 293 330 329
3 292 293 329
3 329 287 292
3 329 324 287
3 332 333 331
3 332 331 294
3 332 294 325
3 325 294 288
3 334 335 327
3 334 327 295
3 295 327 290
3 328 296 291
3 328 336 296
3 337 335 334
3 336 338 296
3 296 338 297
3 338 339 297
3 297 339 298
3 339 340 298
3 298 340 299
3 340 341 299
3 299 341 300
3 341 342 300
3 300 342 301
3 342 293 301
3 330 293 342
3 331 303 302
3 331 333 303
3 333 343 303
3 331 302 294
3 334 295 304
3 337 334 304
3 337 304 344
3 344 304 306
3 306 345 344
3 307 345 306
3 348 346 347
3 309 347 346
3 309 308 347
3 308 349 347
3 349 308 303
3 343 349 303
3 345 307 310
3 350 345 310
3 350 310 351
3 310 311 351
3 351 311 352
3 311 312 352
3 352 312 353
3 312 313 353
3 346 348 353
3 346 353 314
3 314 353 313
3 346 314 309
3 315 316 354
3 355 317 315
3 355 315 356
3 354 357 315
3 357 356 315
3 356 358 355
3 361 360 359
3 319 359 360
3 319 360 318
3 363 362 360
3 362 318 360
3 318 362 320
3 354 316 321
3 317 355 364
3 317 364 321
3 357 354 364
3 354 321 364
3 355 358 364
3 361 359 365
3 362 363 365
3 362 365 322
3 359 319 365
3 319 322 365
3 362 322 320
3 323 324 366
3 323 366 325
3 326 327 367
3 368 328 326
3 368 326 369
3 367 370 326
3 370 369 326
3 369 371 368
3 374 373 372
3 330 372 373
3 330 373 329
3 329 373 375
3 329 375 366
3 329 366 324
3 375 376 366
3 332 366 333
3 376 333 366
3 366 332 325
3 367 327 335
3 368 336 328
3 370 367 337
3 370 337 377
3 337 367 335
3 371 336 368
3 371 378 336
3 378 338 336
3 378 379 338
3 338 379 339
3 379 380 339
3 339 380 340
3 380 381 340
3 340 381 341
3 372 381 374
3 372 342 381
3 342 341 381
3 372 330 342
3 383 384 382
3 383 382 343
3 383 343 376
3 376 343 333
3 377 337 344
3 385 377 344
3 386 344 345
3 386 387 344
3 387 385 344
3 387 388 389
3 386 388 387
3 389 390 391
3 388 390 389
3 391 392 393
3 390 392 391
3 348 393 392
3 348 347 393
3 347 394 393
3 382 384 394
3 382 394 349
3 349 394 347
3 382 349 343
3 386 345 350
3 388 386 350
3 351 388 350
3 390 388 351
3 352 390 351
3 392 390 352
3 353 392 352
3 392 353 348
3 357 396 395
3 356 357 395
3 397 358 356
3 397 356 398
3 398 356 395
3 398 399 397
3 402 401 400
3 361 400 401
3 361 401 360
3 360 401 403
3 360 403 404
3 363 360 404
3 396 357 364
3 405 396 364
3 358 397 406
3 358 406 364
3 364 406 405
3 397 399 406
3 402 400 407
3 400 361 365
3 400 365 407
3 407 365 408
3 408 365 363
3 404 408 363
3 369 370 409
3 410 371 369
3 410 369 411
3 409 412 369
3 412 411 369
3 411 414 413
3 410 411 413
3 414 416 415
3 413 414 415
3 416 418 417
3 415 416 417
3 374 417 418
3 374 418 373
3 373 418 419
3 421 420 375
3 421 375 419
3 419 375 373
3 375 420 376
3 422 409 370
3 377 422 370
3 371 410 378
3 412 409 424
3 409 423 424
3 409 422 423
3 378 413 379
3 378 410 413
3 424 423 425
3 415 379 413
3 380 379 415
3 417 380 415
3 417 381 380
3 426 427 428
3 427 429 430
3 427 426 429
3 381 417 374
3 420 384 383
3 421 384 420
3 421 429 384
3 421 430 429
3 420 383 376
3 422 377 385
3 423 422 385
3 387 423 385
3 425 423 387
3 425 387 431
3 431 387 389
3 431 389 432
3 389 391 432
3 426 428 432
3 426 432 393
3 393 432 391
3 429 426 393
3 394 429 393
3 429 394 384
3 395 396 433
3 398 395 433
3 434 398 433
3 435 399 398
3 435 398 436
3 434 437 398
3 437 436 398
3 436 439 438
3 435 436 438
3 402 438 439
3 402 439 401
3 441 440 439
3 440 401 439
3 403 401 440
3 442 403 440
3 403 442 404
3 433 396 405
3 434 433 405
3 406 434 405
3 399 435 443
3 399 443 406
3 437 434 443
3 434 406 443
3 435 438 444
3 443 435 444
3 440 441 444
3 440 444 407
3 438 402 444
3 402 407 444
3 442 440 407
3 408 442 407
3 442 408 404
3 411 412 445
3 414 411 445
3 446 414 445
3 416 414 446
3 447 416 446
3 418 416 447
3 448 418 447
3 419 418 448
3 449 419 448
3 419 449 421
3 445 412 424
3 424 425 450
3 424 450 445
3 445 450 446
3 446 450 447
3 447 450 451
3 428 427 448
3 428 448 451
3 451 448 447
3 449 448 427
3 430 449 427
3 449 430 421
3 450 425 431
3 451 450 431
3 432 451 431
3 451 432 428
3 436 437 452
3 439 436 452
3 453 439 452
3 439 453 441
3 452 437 443
3 453 452 443
3 444 453 443
3 453 444 441
