ply
format ascii 1.0
element vertex 712
property float x
property float y
property float z
property uchar red
property uchar green
property uchar blue
element face 1412
property list uchar int vertex_indices
end_header
-9.94388675689697266 -9 -9 12 2 13
-9 -9.94388675689697266 -9 12 2 14
-9 -9 -9.94388675689697266 8 2 8
-9.91750526428222656 -9 -8 12 3 17
-9 -9.91750526428222656 -8 10 3 19
-9.84856891632080078 -9 -7 7 3 21
-9 -9.84856891632080078 -7 3 3 23
-9.33797073364257812 -9 -6 4 10 23
-9 -9.33797073364257812 -6 3 16 25
-9 -9 -5.88535547256469727 3 11 22
-9.22996139526367188 -9 4 2 3 8
-9 -9.22996139526367188 4 2 8 9
-9 -9 3.93243980407714844 3 10 10
-9.84295940399169922 -9 5 5 1 9
-9 -9.84295940399169922 5 2 2 10
-9.91577053070068359 -9 6 9 1 10
-9 -9.91577053070068359 6 7 1 11
-9.94308090209960938 -9 7 10 1 10
-9 -9.94308090209960938 7 9 1 11
-9.95690155029296875 -9 8 7 1 8
-9 -9.95690155029296875 8 7 1 10
-9 -9 8.95690155029296875 9 1 10
-9.92909812927246094 -8 -9 7 2 7
-9 -8 -9.92909812927246094 5 1 6
-9.87391948699951172 -8 -8 9 3 11
-9.49981689453125 -8 -7 7 3 16
-9 -8.89682197570800781 -6 3 11 22
-9 -8 -6.81619548797607422 5 3 14
-9 -8.93980693817138672 4 2 7 7
-9.42747306823730469 -8 5 3 1 7
-9 -8 4.86197137832641602 2 6 5
-9.86948776245117188 -8 6 8 1 9
-9.92769241333007812 -8 7 9 1 9
-9.94994163513183594 -8 8 8 1 8
-9 -8 8.94994163513183594 8 1 9
-9.90680122375488281 -7 -9 3 1 3
-9 -7 -9.90680122375488281 3 1 3
-9.75931262969970703 -7 -8 4 2 5
-9 -7.75750589370727539 -7 5 3 14
-9 -7 -7.49735212326049805 3 2 5
-9 -7.81941318511962891 5 1 3 6
-9.74152660369873047 -7 6 6 1 7
-9 -7 5.54147624969482422 1 2 3
-9.90418338775634766 -7 7 8 1 8
-9.94127178192138672 -7 8 8 1 7
-9 -7 8.94127178192138672 8 1 8
-9.872467041015625 -6 -9 0 0 0
-9 -6 -9.872467041015625 0 0 0
-9 -6.01796722412109375 -8 3 2 5
-9 -6 -8.00836658477783203 0 0 0
-9 -6.11060523986816406 6 4 1 6
-9.86724472045898438 -6 7 7 1 7
-9 -6 6.05178594589233398 3 1 4
-9.93097496032714844 -6 8 7 1 6
-9 -6 8.93097496032714844 6 1 7
-9.81938552856445312 -5 -9 2 2 3
-9 -5 -9.81938552856445312 3 1 3
-9 -5 -8.36493682861328125 2 2 3
-9.80830287933349609 -5 7 6 1 5
-9 -5 6.40881872177124023 3 1 4
-9.91968345642089844 -5 8 6 0 5
-9 -5 8.91968345642089844 5 0 5
-9.7410888671875 -4 -9 5 4 6
-9 -4 -9.7410888671875 6 4 6
-9 -4 -8.60865020751953125 6 6 7
-9.71704196929931641 -4 7 5 0 4
-9 -4 6.65293455123901367 3 1 3
-9.90880203247070312 -4 8 4 0 3
-9 -4 8.90880203247070312 2 0 2
-9.64432525634765625 -3 -9 9 8 9
-9 -3 -9.64432525634765625 9 9 9
-9 -3 -8.75578022003173828 9 9 11
-9.59650039672851562 -3 7 3 0 2
-9 -3 6.80034399032592773 2 0 2
-9.90030097961425781 -3 8 2 0 2
-9 -3 8.90030097961425781 0 0 0
-9.57120800018310547 -2 -9 11 10 12
-9 -2 -9.57120800018310547 11 9 12
-9 -2 -8.82153129577636719 8 11 13
-9.49916172027587891 -2 7 1 0 1
-9 -2 6.86622905731201172 0 0 0
-9.89586639404296875 -2 8 0 0 0
-9 -2 8.89586639404296875 4 2 4
-9.57221508026123047 -1 -9 8 8 13
-9 -1 -9.57221508026123047 8 8 14
-9 -1 -8.82078266143798828 6 8 12
-9.50054073333740234 -1 7 0 0 0
-9 -1 6.86547946929931641 1 0 1
-9.89591884613037109 -1 8 2 0 1
-9 -1 8.89591884613037109 8 8 8
-9.63246250152587891 0 -9 6 6 11
-9 0 -9.63246250152587891 7 5 10
-9 0 -8.76829051971435547 4 3 5
-9.58108901977539062 0 7 1 0 1
-9 0 6.81287908554077148 3 3 3
-9.89949131011962891 0 8 5 4 5
-9 0 8.89949131011962891 9 10 11
-9.70302963256835938 1 -9 3 2 3
-9 1 -9.70302963256835938 1 0 1
-9 1 -8.67848873138427734 2 2 3
-9.67069816589355469 1 7 4 4 4
-9 1 6.72290229797363281 5 5 6
-9.90498733520507812 1 8 8 7 8
-9 1 8.90498733520507812 6 8 9
-9.76007366180419922 2 -9 6 6 6
-9 2 -9.76007366180419922 8 8 8
-9 2 -8.56504344940185547 9 9 9
-9.73966312408447266 2 7 4 4 5
-9 2 6.60925006866455078 3 4 5
-9.91100502014160156 2 8 4 4 5
-9 2 8.91100502014160156 1 1 1
-9.80112266540527344 3 -9 13 12 13
-9 3 -9.80112266540527344 14 12 13
-9 3 -8.44021511077880859 13 13 13
-9.78748893737792969 3 7 0 0 0
-9 3 6.48421382904052734 0 0 0
-9.91666793823242188 3 8 2 2 2
-9 3 8.91666793823242188 7 7 7
-9.82979965209960938 4 -9 17 15 16
-9 4 -9.82979965209960938 17 15 16
-9 4 -8.31412696838378906 16 15 16
-9.82004833221435547 4 7 7 6 7
-9 4 6.35793399810791016 5 4 6
-9.92157363891601562 4 8 11 9 10
-9 4 8.92157363891601562 13 10 13
-9.84990787506103516 5 -9 19 18 18
-9 5 -9.84990787506103516 19 18 18
-9 5 -8.19399356842041016 18 16 17
-9.84247398376464844 5 7 13 12 13
-9 5 6.23763561248779297 10 10 10
-9.92563438415527344 5 8 16 11 14
-9 5 8.92563438415527344 17 12 16
-9.86431312561035156 6 -9 20 19 20
-9 6 -9.86431312561035156 21 19 20
-9 6 -8.08343982696533203 20 18 19
-9.85833835601806641 6 7 17 14 16
-9 6 6.12694454193115234 13 12 13
-9.92893600463867188 6 8 20 12 17
-9 6 8.92893600463867188 20 13 17
-9.87507343292236328 7 -9 22 20 21
-9 7 -9.87507343292236328 23 20 21
-9.11008739471435547 7 -8 22 20 21
-9 6.82418060302734375 -8 20 17 19
-9 7 -7.9810638427734375 21 19 21
-9.87008094787597656 7 7 19 15 17
-9 7 6.02541255950927734 13 12 13
-9.9316558837890625 7 8 22 14 18
-9 7 8.9316558837890625 21 14 18
-9.88370990753173828 8 -9 23 23 23
-9 8 -9.88370990753173828 25 21 22
-9.43930721282958984 8 -8 23 21 22
-9 8 -7.87905979156494141 23 21 22
-9.32787513732910156 8 6 15 13 14
-9 7.26360988616943359 6 13 12 13
-9 8 5.92445278167724609 9 6 9
-9.87944126129150391 8 7 19 17 18
-9.93401718139648438 8 8 22 15 18
-9 8 8.93401718139648438 20 14 17
-9 8.88370990753173828 -9 24 23 23
-9 8.43930721282958984 -8 23 21 22
-9 8.32787513732910156 6 12 9 12
-9 8.87944126129150391 7 16 16 16
-9 8.93401718139648438 8 20 14 17
-8 -9.90876388549804688 -9 9 2 12
-8 -9 -9.90876388549804688 7 2 8
-8 -9.77335929870605469 -8 6 2 15
-8.33645915985107422 -9 -7 4 3 19
-8 -9 -7.45435953140258789 6 2 12
-8.94358730316162109 -9 -6 3 11 22
-8.96708583831787109 -9 4 2 7 7
-8.36660957336425781 -9 5 2 3 8
-8 -9.757720947265625 6 2 1 11
-8 -9 5.49834966659545898 2 7 7
-8 -9.90626811981201172 7 6 1 12
-8 -9.94196224212646484 8 8 1 11
-8 -9 8.94196224212646484 7 1 10
-8 -8 -9.86125469207763672 5 1 6
-8.09879302978515625 -8 -8 6 2 9
-8 -8.18212509155273438 -8 6 2 12
-8 -8 -8.10905933380126953 4 2 7
-8.88051986694335938 -8 -7 5 3 14
-8.91100883483886719 -8 5 1 3 6
-8.13745498657226562 -8 6 4 1 8
-8 -8.25343418121337891 6 1 1 9
-8 -8 6.15259504318237305 1 1 7
-8 -8 8.92820453643798828 7 1 9
-8 -7 -9.74773502349853516 2 1 3
-8.57905483245849609 -7 -8 3 2 5
-8 -7 -8.59417247772216797 2 1 4
-8.61869907379150391 -7 6 4 1 6
-8 -7 6.63843154907226562 2 1 6
-8 -7 8.90954780578613281 6 1 7
-8 -6 -9.24500656127929688 0 0 0
-8 -6 -8.9570770263671875 0 0 0
-8.00238513946533203 -6 7 6 1 6
-8 -6.005889892578125 7 5 1 7
-8 -6 7.00202322006225586 4 1 6
-8 -6 8.88510894775390625 4 0 5
-8.26948833465576172 -5 -9 2 2 3
-8 -5.83758783340454102 -9 0 0 0
-8.32418441772460938 -5 7 5 1 5
-8 -5 7.25480031967163086 3 1 4
-8 -5 8.85539817810058594 2 0 2
-8.51557159423828125 -4 -9 6 6 7
-8.57305908203125 -4 7 4 0 4
-8 -4 7.42074394226074219 1 0 1
-8 -4 8.82403087615966797 1 0 1
-8.68029975891113281 -3 -9 9 9 11
-8.74026393890380859 -3 7 1 0 1
-8 -3 7.51580047607421875 1 0 2
-8 -3 8.79819107055664062 5 4 6
-8.75887680053710938 -2 -9 8 11 13
-8.82039260864257812 -2 7 0 0 0
-8 -2 7.55494594573974609 6 5 6
-8 -2 8.78498935699462891 10 10 10
-8.75718307495117188 -1 -9 6 8 12
-8.81887722015380859 -1 7 4 2 4
-8 -1 7.55247306823730469 9 9 10
-8 -1 8.78587722778320312 10 13 13
-8.69423675537109375 0 -9 4 3 5
-8.75461387634277344 0 7 7 7 7
-8 0 7.52187633514404297 8 11 12
-8 0 8.79625606536865234 8 12 11
-8.59718990325927734 1 -9 2 2 3
-8.65499210357666016 1 7 6 7 9
-8 1 7.47545480728149414 5 8 8
-8 1 8.81010055541992188 4 4 5
-8.49228000640869141 2 -9 9 9 9
-8.54671096801757812 2 7 3 3 4
-8 2 7.42374229431152344 0 1 1
-8 2 8.82332420349121094 1 1 2
-8.39788818359375 3 -9 13 13 13
-8.44864273071289062 3 7 2 2 3
-8 3 7.37486648559570312 5 5 5
-8 3 8.83411693572998047 8 8 9
-8.32263374328613281 4 -9 16 15 16
-8.36980342864990234 4 7 10 10 10
-8 4 7.33394527435302734 11 11 11
-8 4 8.84210968017578125 13 11 13
-8.26715755462646484 5 -9 18 16 17
-8.31109237670898438 5 7 15 13 14
-8 5 7.30263805389404297 14 13 14
-8 5 8.84767818450927734 17 12 16
-8.22697067260742188 6 -9 20 18 19
-8.26816558837890625 6 7 17 14 16
-8 6 7.2789459228515625 15 13 15
-8 6 8.85161304473876953 18 12 17
-8.19473838806152344 7 -9 21 20 21
-8.98706531524658203 7 -8 21 19 21
-8.23376083374023438 7 7 18 15 17
-8 7 7.25730705261230469 14 13 14
-8 7 8.85501575469970703 18 13 16
-8.16154003143310547 8 -9 24 23 23
-8.92143630981445312 8 -8 23 21 22
-8.95126247406005859 8 6 12 9 12
-8.19899559020996094 8 7 16 16 16
-8 8 7.22894430160522461 11 11 11
-8 8 8.859222412109375 16 14 15
-8 8.859222412109375 8 16 14 15
-7 -9.791351318359375 -9 7 2 11
-7 -9 -9.791351318359375 7 2 8
-7.50110101699829102 -9 -8 6 2 12
-7 -9 -8.47469520568847656 6 2 10
-7.54455041885375977 -9 6 1 1 9
-7 -9.77623653411865234 7 4 1 11
-7 -9 6.51874923706054688 1 3 8
-7 -9.915191650390625 8 6 1 11
-7 -9 8.915191650390625 6 1 10
-7 -8 -9.19445514678955078 5 1 6
-7 -8 -8.96810340881347656 4 2 7
-7.01653385162353516 -8 7 5 1 9
-7 -8.02777862548828125 7 4 1 10
-7 -8 7.01282453536987305 4 1 8
-7 -8 8.88411998748779297 5 1 8
-7.47733974456787109 -7 -9 2 1 4
-7 -7.91812849044799805 -9 4 2 7
-7.53723907470703125 -7 7 5 1 7
-7 -7 7.38027715682983398 4 1 7
-7 -7 8.83299350738525391 4 1 6
-7.93932247161865234 -6 -9 0 0 0
-7 -6 7.64995574951171875 3 1 4
-7 -6 8.74367046356201172 1 0 2
-7 -5 7.83981752395629883 0 0 1
-7 -5 8.57535934448242188 1 0 1
-7 -4 7.96592378616333008 2 1 3
-7 -4 8.22607231140136719 4 5 6
-7.08628368377685547 -3 8 5 4 6
-7 -3.56113457679748535 8 4 5 6
-7.16930246353149414 -2 8 10 10 10
-7.20128011703491211 -1 8 10 13 13
-7.20586919784545898 0 8 8 12 11
-7.20339298248291016 1 8 4 4 5
-7.20620441436767578 2 8 1 1 2
-7.21872377395629883 3 8 8 8 9
-7.23977756500244141 4 8 13 11 13
-7.26496315002441406 5 8 17 12 16
-7.28814935684204102 6 8 18 12 17
-7.30206537246704102 7 8 18 13 16
-7.29818916320800781 8 8 16 14 15
-6.23613739013671875 -9 -9 6 2 10
-6.30457878112792969 -9 7 4 1 10
-6 -9.86421775817871094 8 4 1 11
-6 -9 7.19271087646484375 3 1 9
-6 -9 8.86421775817871094 4 1 9
-6.9479517936706543 -8 -9 4 2 7
-6 -8 7.57843446731567383 3 1 7
-6 -8 8.77613925933837891 2 1 6
-6 -7 7.87076282501220703 2 1 5
-6 -7 8.52307701110839844 0 1 3
-6.20914983749389648 -6 8 1 0 2
-6 -6.41161394119262695 8 0 1 3
-6.61739635467529297 -5 8 1 0 1
-6.91751766204833984 -4 8 4 5 6
-5 -9.76348400115966797 8 2 1 10
-5 -9 7.60878705978393555 1 2 8
-5 -9 8.76348400115966797 1 2 7
-5 -8 7.92984914779663086 1 3 5
-5 -8 8.37463760375976562 1 3 4
-5.58944511413574219 -7 8 0 1 3
-5 -7.72440481185913086 8 1 3 4
-4 -9.58842182159423828 8 1 4 8
-4 -9 7.83081960678100586 1 5 6
-4 -9 8.58842182159423828 1 5 6
-4.63264131546020508 -8 8 1 3 4
-4 -8.41915416717529297 8 1 5 6
-3 -9.45255756378173828 8 1 7 8
-3 -9 7.90292119979858398 1 6 5
-3 -9 8.45255756378173828 2 6 9
-3 -8.66413116455078125 8 2 6 9
-2 -9.53663158416748047 8 2 7 13
-2 -9 7.86342906951904297 2 8 10
-2 -9 8.53663158416748047 2 9 15
-2 -8.56270313262939453 8 2 9 15
-1 -9.680023193359375 8 2 13 19
-1 -9 7.74622631072998047 2 12 15
-1 -9 8.680023193359375 2 13 18
-1 -8.29162120819091797 8 2 13 18
0 -9.77577877044677734 8 2 16 21
0 -9 7.57935047149658203 2 15 18
0 -9 8.77577877044677734 2 15 20
0 -8.00118350982666016 8 2 15 20
1 -9.8325347900390625 8 2 16 22
1 -9 7.3824615478515625 2 15 19
1 -9 8.8325347900390625 2 14 20
0.00407487386837601662 -8 8 2 13 17
1 -8 7.88207149505615234 2 12 15
1 -8 8.50050067901611328 2 12 17
1 -7.76561689376831055 8 2 12 17
2 -9.86789321899414062 8 2 14 22
2 -9 7.16408109664916992 2 12 19
2 -9 8.86789321899414062 2 12 20
2 -8 7.74548006057739258 2 9 15
2 -8 8.68064498901367188 2 9 17
2 -7.55231237411499023 8 2 9 17
2.49705290794372559 -9 -9 6 12 12
3 -9.48845958709716797 -9 5 12 13
3 -9 -9.48845958709716797 4 3 15
3 -9 -8.87269115447998047 4 10 13
2.67614960670471191 -9 7 2 12 19
3 -9.38181686401367188 7 1 11 21
3 -9 6.91749763488769531 2 6 13
3 -9.89208507537841797 8 1 10 22
3 -9 8.89208507537841797 1 8 19
3 -8.82132816314697266 -9 4 10 13
3 -8.88493442535400391 7 1 7 18
3 -8 7.57762050628662109 1 4 12
3 -8 8.77645969390869141 1 5 16
3 -7.31645584106445312 8 1 5 16
4 -9.75501918792724609 -9 3 9 14
4 -9 -9.75501918792724609 9 2 18
4 -9 -8.57735157012939453 2 6 15
4 -9.73367118835449219 7 1 4 19
4 -9 6.62158060073852539 1 2 9
4 -9.91039657592773438 8 1 4 21
4 -9 8.91039657592773438 1 1 18
4 -8.44543743133544922 -9 2 6 15
4 -8.50656414031982422 7 1 2 14
4 -8 7.35245418548583984 1 1 8
4 -8 8.83860111236572266 2 1 13
3.98522830009460449 -7 8 1 2 10
4 -7 7.99719667434692383 0 0 1
4 -7 8.02354240417480469 1 0 5
4 -6.99536848068237305 8 1 0 5
5 -9.84876251220703125 -9 2 2 17
5 -9 -9.84876251220703125 17 1 20
5 -9 -8.20178794860839844 6 1 19
5 -9.84120464324951172 7 3 1 15
5 -9 6.24544000625610352 1 0 6
5 -9.92538642883300781 8 4 0 19
5 -9 8.92538642883300781 4 0 14
4.96191930770874023 -8 -9 2 2 16
5 -8 -9.08925342559814453 16 1 17
5 -8 -8.98707389831542969 10 1 19
5 -8.04388809204101562 7 3 0 9
5 -8 7.03139781951904297 1 0 4
5 -8 8.88237380981445312 3 0 7
5 -7.98235893249511719 -9 10 1 19
5 -7 7.69879484176635742 0 0 1
5 -7 8.71506881713867188 1 0 2
5 -6.48605251312255859 8 1 0 2
6 -9.89724349975585938 -9 11 1 21
6 -9 -9.89724349975585938 18 0 16
5.40986442565917969 -9 -8 2 8 16
6 -9.67134952545166016 -8 1 4 18
6 -9 -7.67944049835205078 4 1 19
5.49581623077392578 -9 6 1 0 6
6 -9.63665485382080078 6 3 0 7
6 -9 5.72415256500244141 2 0 5
6 -9.89399242401123047 7 5 0 10
6 -9.93808746337890625 8 7 0 14
6 -9 8.93808746337890625 5 0 8
6 -8 -9.77988147735595703 13 0 11
6 -8.64444446563720703 -8 4 1 19
6 -8 -8.51100540161132812 15 0 17
6 -8.69620323181152344 6 2 0 5
5.07025480270385742 -8 7 1 0 4
6 -8 6.55511999130249023 2 0 3
6 -8 8.91356658935546875 3 0 4
6 -7.30409336090087891 -9 15 0 17
6 -7.3708338737487793 7 2 0 3
6 -7 7.23934412002563477 1 0 2
6 -7 8.8577117919921875 1 0 1
5.57836484909057617 -6 8 0 0 0
6 -6 7.79445505142211914 0 0 0
6 -6 8.63373279571533203 0 0 0
6 -5.5511479377746582 8 0 0 0
5.88008022308349609 7 8 16 5 13
6 6.57235288619995117 8 13 3 10
6 7 7.89729976654052734 15 5 12
6 7 8.46638965606689453 17 4 13
5.56868505477905273 8 8 19 6 15
6 8 7.6602635383605957 18 6 13
6 8 8.73814678192138672 20 5 14
6 8.73814678192138672 8 20 5 14
7 -9.92632865905761719 -9 20 0 21
7 -9 -9.92632865905761719 14 0 10
7 -9.86368942260742188 -8 10 0 21
6.92561531066894531 -9 -7 1 10 16
7 -9.25813007354736328 -7 1 5 19
7 -9 -6.93653488159179688 3 0 20
6.98016786575317383 -9 5 2 0 5
7 -9.08514499664306641 5 4 0 6
7 -9 4.98293781280517578 2 0 5
7 -9.85844039916992188 6 4 0 6
7 -9.92479228973388672 7 5 0 6
7 -9.94875621795654297 8 7 0 9
7 -9 8.94875621795654297 5 0 5
7 -8 -9.88857078552246094 10 0 7
6.75517702102661133 -8 -8 9 0 19
7 -8.93777084350585938 -7 3 0 20
7 -8 -7.81372261047363281 14 0 17
7 -8.98340797424316406 5 3 0 5
6.81585597991943359 -8 6 2 0 3
7 -8 5.85888814926147461 2 0 3
7 -8 8.9354248046875 3 0 3
6.30091714859008789 -7 -9 10 0 11
7 -7 -9.78245449066162109 6 0 5
7 -7.75218486785888672 -8 14 0 17
7 -7 -8.50321483612060547 9 0 8
7 -7.81360578536987305 6 2 0 3
6.36695957183837891 -7 7 1 0 2
7 -7 6.54731607437133789 1 0 2
7 -7 8.91392230987548828 2 0 2
7 -6.09089851379394531 -9 9 0 8
7 -6.17682552337646484 7 2 0 2
7 -6 7.09016609191894531 0 0 0
7 -6 8.87642669677734375 0 0 0
6.34287881851196289 -5 8 0 0 1
7 -5 7.50071334838867188 0 0 1
7 -5 8.80282783508300781 0 0 0
6.76203298568725586 -4 8 2 0 2
7 -4 7.80109548568725586 2 0 2
7 -4 8.62624263763427734 2 0 2
7 -3.0165708065032959 8 2 0 2
6.92439174652099609 2 8 12 8 13
7 1.34010148048400879 8 14 10 16
7 2 7.91578006744384766 12 10 14
7 2 8.41797924041748047 12 11 14
6.77912759780883789 3 8 10 8 11
7 3 7.75705480575561523 9 8 10
7 3 8.67071819305419922 7 4 7
6.60413599014282227 4 8 3 2 3
7 4 7.57773113250732422 2 1 1
7 4 8.77641582489013672 2 0 2
6.39772415161132812 5 8 6 2 5
7 5 7.38778448104858398 6 2 5
7 5 8.83140659332275391 9 2 7
6.15566158294677734 6 8 13 3 10
7 6 7.19544219970703125 12 3 9
7 6 8.86385440826416016 14 3 10
6.96157646179199219 7 -9 13 9 12
7 6.80448341369628906 -9 11 7 9
7 7 -9.22496986389160156 14 7 10
7 7 -8.96162223815917969 13 8 11
7 7 7.00647640228271484 16 4 11
7 7 8.88470363616943359 17 4 11
6.75392293930053711 8 -9 15 11 14
7 8 -9.62539291381835938 16 8 11
7 8 -8.77535438537597656 15 9 12
6.80399894714355469 8 7 18 6 13
7 7.03609895706176758 7 16 4 11
7 8 6.81995820999145508 14 5 10
7 8 8.89902687072753906 19 4 12
7 8.62539291381835938 -9 15 9 12
7 8.57183647155761719 7 18 5 12
7 8.89902687072753906 8 19 4 12
8 -9.94490146636962891 -9 18 0 15
8 -9 -9.94490146636962891 11 0 7
8 -9.91995906829833984 -8 19 0 21
8 -9.85742282867431641 -7 10 0 21
7.84348058700561523 -9 -6 1 11 17
8 -9.48791027069091797 -6 0 4 19
8 -9 -5.78479385375976562 2 0 20
7.87840700149536133 -9 4 2 0 5
8 -9.42600822448730469 4 3 0 7
8 -9 3.83112668991088867 1 0 13
8 -9.85249423980712891 5 4 0 6
8 -9.91833972930908203 6 5 0 6
8 -9.94413089752197266 7 6 0 6
8 -9.95742321014404297 8 6 0 6
8 -9 8.95742321014404297 5 0 4
8 -8 -9.93024444580078125 9 0 5
7.8032679557800293 -8 -7 8 0 19
8 -8.81262588500976562 -6 2 0 20
8 -8 -6.76290512084960938 13 0 18
8 -8.85444164276123047 4 3 0 7
7.84233283996582031 -8 5 2 0 3
8 -8 4.80840587615966797 2 0 8
8 -8 8.95044231414794922 3 0 3
8 -7 -9.90764522552490234 6 0 4
7.52744054794311523 -7 -8 11 0 13
8 -7.70042610168457031 -7 13 0 18
8 -7 -7.47912120819091797 11 0 11
8 -7.75993108749389648 5 2 0 4
7.57046222686767578 -7 6 1 0 2
8 -7 5.52318811416625977 1 0 3
8 -7 8.94156742095947266 2 0 2
7.05036115646362305 -6 -9 4 0 4
8 -6 -9.87148761749267578 3 0 2
8 -6.03658866882324219 -8 11 0 11
8 -6 -8.01795291900634766 4 0 3
8 -6.1244206428527832 6 1 0 2
7.09795379638671875 -6 7 0 0 0
8 -6 6.06138229370117188 0 0 0
8 -6 8.93072319030761719 0 0 0
7.46356678009033203 -5 -9 0 0 0
8 -5 -9.81171321868896484 0 0 0
8 -5 -8.39847946166992188 1 0 0
7.50578975677490234 -5 7 0 0 1
8 -5 6.44241237640380859 2 0 2
8 -5 8.91837310791015625 1 0 1
7.72004365921020508 -4 -9 4 0 4
8 -4 -9.712677001953125 5 0 3
8 -4 -8.66262054443359375 3 0 2
7.75835180282592773 -4 7 2 0 2
8 -4 6.70700407028198242 3 0 3
8 -4 8.90588665008544922 3 0 3
7.86409378051757812 -3 -9 8 2 8
8 -3 -9.56500434875488281 9 2 7
8 -3 -8.82606124877929688 7 2 6
7.89963626861572266 -3 7 3 0 3
8 -3 6.87076902389526367 5 0 4
7.00328207015991211 -3 8 4 0 3
8 -3 8.89554405212402344 7 0 5
7.9279017448425293 -2 -9 11 6 12
8 -2 -9.42095375061035156 13 5 11
8 -2 -8.90335559844970703 10 4 10
7.96161079406738281 -2 7 5 0 4
8 -2 6.94822931289672852 6 0 5
7.11296463012695312 -2 8 6 0 5
8 -2 8.8896636962890625 10 2 9
7.93404293060302734 -1 -9 14 10 15
8 -1 -9.40702152252197266 15 9 14
8 -1 -8.90879726409912109 11 6 11
7.9667048454284668 -1 7 6 1 6
8 -1 6.95368194580078125 8 1 6
7.14475870132446289 -1 8 9 1 8
8 -1 8.88922119140625 15 5 14
7.8979344367980957 0 -9 14 12 15
8 0 -9.51762104034423828 14 9 12
8 0 -8.85671806335449219 9 5 9
7.93024873733520508 0 7 9 2 8
8 0 6.90149068832397461 11 3 10
7.11645984649658203 0 8 13 4 13
8 0 8.89329910278320312 15 10 17
7.8298039436340332 1 -9 10 8 10
8 1 -9.63911342620849609 8 5 7
8 1 -8.76138114929199219 4 2 4
7.86242914199829102 1 7 12 6 12
8 1 6.80595684051513672 14 8 14
7.03952550888061523 1 8 14 10 16
8 1 8.89994049072265625 14 11 17
7.73615360260009766 2 -9 2 1 2
8 2 -9.72716331481933594 1 0 0
8 2 -8.63657951354980469 0 0 0
7.76973724365234375 2 7 12 10 14
8 2 6.68091487884521484 13 11 14
8 2 8.90732002258300781 10 6 10
7.62079858779907227 3 -9 4 1 3
8 3 -9.78507900238037109 4 1 3
8 3 -8.49506282806396484 4 1 3
7.65600109100341797 3 7 9 8 10
8 3 6.53915119171142578 9 7 10
8 3 8.91428947448730469 2 1 2
7.48558616638183594 4 -9 7 3 7
8 4 -9.82304096221923828 7 3 5
8 4 -8.34783935546875 6 3 5
7.52309513092041016 4 7 2 1 1
8 4 6.39169549942016602 2 1 2
8 4 8.92033195495605469 5 1 4
7.33086109161376953 5 -9 9 5 8
8 5 -9.84852313995361328 10 4 6
8 5 -8.20339775085449219 8 4 7
7.37139368057250977 5 7 6 2 5
8 5 6.24705171585083008 4 1 3
8 5 8.92533493041992188 10 2 7
7.15575313568115234 6 -9 11 7 9
8 6 -9.86620235443115234 12 5 8
8 6 -8.06696033477783203 10 5 8
7.20004367828369141 6 7 12 3 9
8 6 6.11044597625732422 9 3 6
8 6 8.92939662933349609 14 3 9
8 7 -9.87900161743164062 14 6 9
7.94638633728027344 7 -8 13 9 12
8 6.52998685836791992 -8 10 6 9
8 7 -7.93669891357421875 12 7 10
7.98511028289794922 7 6 12 4 9
8 6.86950206756591797 6 9 3 6
8 7 5.98229598999023438 6 3 4
7.00713682174682617 7 7 16 4 11
8 7 8.932708740234375 17 3 9
8 8 -9.88883686065673828 17 6 9
7.82477903366088867 8 -8 15 10 13
8 8 -7.8099675178527832 14 8 11
7.86735057830810547 8 6 14 5 10
8 8 5.85512018203735352 6 3 4
8 8 8.93550300598144531 18 3 9
8 8.88883686065673828 -9 15 7 11
8 8.55038738250732422 -8 14 8 11
8 8.48192787170410156 6 11 4 7
8 8.88496971130371094 7 15 4 9
8 8.93550300598144531 8 18 3 9
8.94490146636962891 -9 -9 14 0 11
8.91995906829833984 -9 -8 18 0 18
8.85742282867431641 -9 -7 13 0 20
8.48791027069091797 -9 -6 2 0 20
8.42600822448730469 -9 4 3 0 7
8.85249423980712891 -9 5 3 0 5
8.91833972930908203 -9 6 4 0 5
8.94413089752197266 -9 7 5 0 5
8.95742321014404297 -9 8 5 0 4
8.93024444580078125 -8 -9 11 0 8
8.87792491912841797 -8 -8 15 0 14
8.56220626831054688 -8 -7 13 0 18
8.50800704956054688 -8 5 2 0 4
8.87379264831542969 -8 6 3 0 3
8.92889022827148438 -8 7 3 0 3
8.95044231414794922 -8 8 3 0 3
8.90764522552490234 -7 -9 8 0 6
8.76548957824707031 -7 -8 11 0 11
8.74866580963134766 -7 6 1 0 2
8.90508079528808594 -7 7 2 0 2
8.94156742095947266 -7 8 2 0 2
8.87148761749267578 -6 -9 4 0 3
8.86617755889892578 -6 7 0 0 0
8.93072319030761719 -6 8 0 0 0
8.81171321868896484 -5 -9 1 0 0
8.79959392547607422 -5 7 1 0 1
8.91837310791015625 -5 8 1 0 1
8.712677001953125 -4 -9 3 0 2
8.68257331848144531 -4 7 3 0 2
8.90588665008544922 -4 8 3 0 3
8.56500434875488281 -3 -9 7 2 6
8.49063682556152344 -3 7 5 0 4
8.89554405212402344 -3 8 7 0 5
8.42095375061035156 -2 -9 10 4 10
8.27989673614501953 -2 7 7 1 6
8.8896636962890625 -2 8 10 2 9
8.40702152252197266 -1 -9 11 6 11
8.25812053680419922 -1 7 11 2 9
8.88922119140625 -1 8 15 5 14
8.51762104034423828 0 -9 9 5 9
8.42408561706542969 0 7 15 7 14
8.89329910278320312 0 8 15 10 17
8.63911342620849609 1 -9 4 2 4
8.58974742889404297 1 7 15 11 17
8.89994049072265625 1 8 14 11 17
8.72716331481933594 2 -9 0 0 0
8.70024013519287109 2 7 12 10 14
8.90732002258300781 2 8 10 6 10
8.78507900238037109 3 -9 4 1 3
8.76897048950195312 3 7 6 3 6
8.91428947448730469 3 8 2 1 2
8.82304096221923828 4 -9 6 3 5
8.81243610382080078 4 7 2 0 1
8.92033195495605469 4 8 5 1 4
8.84852313995361328 5 -9 8 4 7
8.84093952178955078 5 7 8 2 6
8.92533493041992188 5 8 10 2 7
8.86620235443115234 6 -9 10 5 8
8.86040687561035156 6 7 12 3 8
8.92939662933349609 6 8 14 3 9
8.87900161743164062 7 -9 12 6 9
8.29180335998535156 7 -8 12 7 10
8.10302257537841797 7 6 11 3 7
8.87434577941894531 7 7 15 3 9
8.932708740234375 7 8 17 3 9
8.88883686065673828 8 -9 15 7 11
8.55038738250732422 8 -8 14 8 11
8.48192787170410156 8 6 11 4 7
8.88496971130371094 8 7 15 4 9
8.93550300598144531 8 8 18 3 9
3 2 1 0
3 1 4 3
3 0 1 3
3 4 6 5
3 3 4 5
3 6 8 7
3 5 6 7
3 8 9 7
3 12 11 10
3 11 14 13
3 10 11 13
3 14 16 15
3 13 14 15
3 16 18 17
3 15 16 17
3 18 20 19
3 17 18 19
3 20 21 19
3 23 2 0
3 22 23 0
3 0 3 22
3 3 24 22
3 3 5 24
3 5 25 24
3 26 27 25
3 26 25 7
3 7 25 5
3 7 9 26
3 12 10 28
3 30 28 10
3 30 10 29
3 29 10 13
3 13 15 29
3 15 31 29
3 15 17 31
3 17 32 31
3 17 19 32
3 19 33 32
3 21 34 33
3 19 21 33
3 36 23 22
3 35 36 22
3 22 24 35
3 24 37 35
3 38 39 37
3 38 37 25
3 25 37 24
3 25 27 38
3 30 29 40
3 42 40 29
3 42 29 41
3 41 29 31
3 31 32 41
3 32 43 41
3 32 33 43
3 33 44 43
3 34 45 44
3 33 34 44
3 47 36 35
3 46 47 35
3 48 49 46
3 48 46 37
3 37 46 35
3 37 39 48
3 42 41 50
3 52 50 41
3 52 41 51
3 51 41 43
3 43 44 51
3 44 53 51
3 45 54 53
3 44 45 53
3 56 47 46
3 55 56 46
3 49 57 55
3 46 49 55
3 59 52 51
3 58 59 51
3 51 53 58
3 53 60 58
3 54 61 60
3 53 54 60
3 63 56 55
3 62 63 55
3 57 64 62
3 55 57 62
3 66 59 58
3 65 66 58
3 58 60 65
3 60 67 65
3 61 68 67
3 60 61 67
3 70 63 62
3 69 70 62
3 64 71 69
3 62 64 69
3 73 66 65
3 72 73 65
3 65 67 72
3 67 74 72
3 68 75 74
3 67 68 74
3 77 70 69
3 76 77 69
3 71 78 76
3 69 71 76
3 80 73 72
3 79 80 72
3 72 74 79
3 74 81 79
3 75 82 81
3 74 75 81
3 84 77 76
3 83 84 76
3 78 85 83
3 76 78 83
3 87 80 79
3 86 87 79
3 79 81 86
3 81 88 86
3 82 89 88
3 81 82 88
3 91 84 83
3 90 91 83
3 85 92 90
3 83 85 90
3 94 87 86
3 93 94 86
3 86 88 93
3 88 95 93
3 89 96 95
3 88 89 95
3 98 91 90
3 97 98 90
3 92 99 97
3 90 92 97
3 101 94 93
3 100 101 93
3 93 95 100
3 95 102 100
3 96 103 102
3 95 96 102
3 105 98 97
3 104 105 97
3 99 106 104
3 97 99 104
3 108 101 100
3 107 108 100
3 100 102 107
3 102 109 107
3 103 110 109
3 102 103 109
3 112 105 104
3 111 112 104
3 106 113 111
3 104 106 111
3 115 108 107
3 114 115 107
3 107 109 114
3 109 116 114
3 110 117 116
3 109 110 116
3 119 112 111
3 118 119 111
3 113 120 118
3 111 113 118
3 122 115 114
3 121 122 114
3 114 116 121
3 116 123 121
3 117 124 123
3 116 117 123
3 126 119 118
3 125 126 118
3 120 127 125
3 118 120 125
3 129 122 121
3 128 129 121
3 121 123 128
3 123 130 128
3 124 131 130
3 123 124 130
3 133 126 125
3 132 133 125
3 127 134 132
3 125 127 132
3 136 129 128
3 135 136 128
3 128 130 135
3 130 137 135
3 131 138 137
3 130 131 137
3 140 133 132
3 139 140 132
3 134 142 141
3 134 141 132
3 132 141 139
3 142 143 141
3 145 136 135
3 144 145 135
3 135 137 144
3 137 146 144
3 138 147 146
3 137 138 146
3 149 140 139
3 148 149 139
3 139 141 148
3 141 150 148
3 143 151 150
3 141 143 150
3 154 153 152
3 153 145 144
3 153 144 152
3 152 144 155
3 144 146 155
3 146 156 155
3 147 157 156
3 146 147 156
3 149 148 158
3 148 150 159
3 158 148 159
3 150 151 159
3 154 152 160
3 152 155 161
3 160 152 161
3 155 156 162
3 161 155 162
3 156 157 162
3 2 164 163
3 1 2 163
3 163 165 1
3 1 165 4
3 167 166 6
3 167 6 165
3 165 6 4
3 8 6 166
3 168 8 166
3 8 168 9
3 11 12 169
3 14 11 169
3 170 14 169
3 170 172 171
3 170 171 14
3 14 171 16
3 171 173 16
3 16 173 18
3 173 174 18
3 18 174 20
3 20 174 175
3 21 20 175
3 164 2 176
3 176 2 23
3 179 177 178
3 178 166 167
3 178 177 166
3 177 180 166
3 27 26 168
3 27 168 180
3 180 168 166
3 168 26 9
3 169 12 28
3 28 30 181
3 28 181 169
3 169 181 170
3 172 182 183
3 172 170 182
3 170 181 182
3 183 182 184
3 175 185 21
3 185 34 21
3 176 23 186
3 186 23 36
3 188 177 179
3 187 177 188
3 39 38 180
3 39 180 187
3 187 180 177
3 180 38 27
3 181 30 40
3 40 42 189
3 40 189 181
3 181 189 182
3 184 189 190
3 182 189 184
3 185 191 34
3 191 45 34
3 186 36 192
3 192 36 47
3 187 49 48
3 187 188 49
3 188 193 49
3 187 48 39
3 189 42 50
3 50 52 194
3 189 50 194
3 189 194 195
3 189 195 190
3 195 194 196
3 191 197 45
3 197 54 45
3 198 199 192
3 198 192 56
3 56 192 47
3 199 198 57
3 199 57 193
3 193 57 49
3 200 194 52
3 59 200 52
3 196 200 201
3 194 200 196
3 197 202 54
3 202 61 54
3 203 198 56
3 63 203 56
3 198 203 64
3 57 198 64
3 204 200 59
3 66 204 59
3 201 204 205
3 200 204 201
3 202 206 61
3 206 68 61
3 207 203 63
3 70 207 63
3 203 207 71
3 64 203 71
3 208 204 66
3 73 208 66
3 205 208 209
3 204 208 205
3 206 210 68
3 210 75 68
3 211 207 70
3 77 211 70
3 207 211 78
3 71 207 78
3 212 208 73
3 80 212 73
3 209 212 213
3 208 212 209
3 210 214 75
3 214 82 75
3 215 211 77
3 84 215 77
3 211 215 85
3 78 211 85
3 216 212 80
3 87 216 80
3 213 216 217
3 212 216 213
3 214 218 82
3 218 89 82
3 219 215 84
3 91 219 84
3 215 219 92
3 85 215 92
3 220 216 87
3 94 220 87
3 217 220 221
3 216 220 217
3 218 222 89
3 222 96 89
3 223 219 91
3 98 223 91
3 219 223 99
3 92 219 99
3 224 220 94
3 101 224 94
3 221 224 225
3 220 224 221
3 222 226 96
3 226 103 96
3 227 223 98
3 105 227 98
3 223 227 106
3 99 223 106
3 228 224 101
3 108 228 101
3 225 228 229
3 224 228 225
3 226 230 103
3 230 110 103
3 231 227 105
3 112 231 105
3 227 231 113
3 106 227 113
3 232 228 108
3 115 232 108
3 229 232 233
3 228 232 229
3 230 234 110
3 234 117 110
3 235 231 112
3 119 235 112
3 231 235 120
3 113 231 120
3 236 232 115
3 122 236 115
3 233 236 237
3 232 236 233
3 234 238 117
3 238 124 117
3 239 235 119
3 126 239 119
3 235 239 127
3 120 235 127
3 240 236 122
3 129 240 122
3 237 240 241
3 236 240 237
3 238 242 124
3 242 131 124
3 243 239 126
3 133 243 126
3 239 243 134
3 127 239 134
3 244 240 129
3 136 244 129
3 241 244 245
3 240 244 241
3 242 246 131
3 246 138 131
3 247 243 133
3 140 247 133
3 142 134 243
3 142 243 248
3 248 243 247
3 142 248 143
3 249 244 136
3 145 249 136
3 245 249 250
3 244 249 245
3 246 251 138
3 251 147 138
3 252 247 140
3 149 252 140
3 247 252 248
3 248 252 253
3 248 253 151
3 143 248 151
3 153 154 254
3 145 153 254
3 145 254 249
3 249 254 255
3 250 255 256
3 249 255 250
3 251 257 147
3 257 157 147
3 252 149 158
3 253 252 158
3 159 253 158
3 253 159 151
3 254 154 160
3 255 254 160
3 161 255 160
3 256 255 161
3 256 161 258
3 258 161 162
3 258 162 157
3 257 258 157
3 164 260 259
3 163 164 259
3 262 261 165
3 262 165 259
3 259 165 163
3 165 261 167
3 171 172 263
3 263 265 264
3 263 264 171
3 171 264 173
3 264 266 173
3 173 266 174
3 174 266 267
3 175 174 267
3 260 164 268
3 268 164 176
3 261 179 178
3 261 262 179
3 262 269 179
3 261 178 167
3 263 172 183
3 183 184 270
3 263 183 270
3 263 270 271
3 263 271 265
3 271 270 272
3 267 273 175
3 273 185 175
3 274 275 268
3 274 268 186
3 186 268 176
3 275 274 188
3 275 188 269
3 269 188 179
3 276 270 184
3 190 276 184
3 272 276 277
3 270 276 272
3 273 278 185
3 278 191 185
3 279 274 186
3 192 279 186
3 274 279 193
3 188 274 193
3 276 190 195
3 195 277 276
3 195 196 277
3 196 280 277
3 278 281 191
3 281 197 191
3 279 192 199
3 279 199 193
3 280 196 282
3 282 196 201
3 281 283 197
3 283 202 197
3 282 201 284
3 284 201 205
3 283 285 202
3 285 206 202
3 286 287 284
3 286 284 209
3 209 284 205
3 287 286 210
3 287 210 285
3 285 210 206
3 288 286 209
3 213 288 209
3 286 288 214
3 210 286 214
3 289 288 213
3 217 289 213
3 288 289 218
3 214 288 218
3 290 289 217
3 221 290 217
3 289 290 222
3 218 289 222
3 291 290 221
3 225 291 221
3 290 291 226
3 222 290 226
3 292 291 225
3 229 292 225
3 291 292 230
3 226 291 230
3 293 292 229
3 233 293 229
3 292 293 234
3 230 292 234
3 294 293 233
3 237 294 233
3 293 294 238
3 234 293 238
3 295 294 237
3 241 295 237
3 294 295 242
3 238 294 242
3 296 295 241
3 245 296 241
3 295 296 246
3 242 295 246
3 297 296 245
3 250 297 245
3 296 297 251
3 246 296 251
3 298 297 250
3 256 298 250
3 297 298 257
3 251 297 257
3 298 256 258
3 298 258 257
3 259 260 299
3 259 299 262
3 264 265 300
3 300 302 301
3 300 301 264
3 264 301 266
3 266 301 303
3 267 266 303
3 304 299 260
3 268 304 260
3 299 304 269
3 262 299 269
3 300 265 271
3 271 302 300
3 271 272 302
3 272 305 302
3 303 306 267
3 306 273 267
3 304 268 275
3 304 275 269
3 305 272 307
3 307 272 277
3 306 308 273
3 308 278 273
3 309 310 307
3 309 307 280
3 280 307 277
3 310 309 281
3 310 281 308
3 308 281 278
3 311 309 280
3 282 311 280
3 309 311 283
3 281 309 283
3 312 311 282
3 284 312 282
3 311 312 285
3 283 311 285
3 312 284 287
3 312 287 285
3 302 314 313
3 301 302 313
3 301 313 315
3 303 301 315
3 314 302 316
3 316 302 305
3 315 317 303
3 317 306 303
3 318 319 316
3 318 316 307
3 307 316 305
3 319 318 308
3 319 308 317
3 317 308 306
3 318 307 310
3 318 310 308
3 314 321 320
3 313 314 320
3 313 320 322
3 315 313 322
3 323 324 321
3 323 321 316
3 316 321 314
3 324 323 317
3 324 317 322
3 322 317 315
3 323 316 319
3 323 319 317
3 321 326 325
3 320 321 325
3 320 325 327
3 322 320 327
3 326 321 324
3 328 326 324
3 328 324 322
3 327 328 322
3 326 330 329
3 325 326 329
3 325 329 331
3 327 325 331
3 330 326 328
3 332 330 328
3 332 328 327
3 331 332 327
3 330 334 333
3 329 330 333
3 329 333 335
3 331 329 335
3 334 330 332
3 336 334 332
3 336 332 331
3 335 336 331
3 334 338 337
3 333 334 337
3 333 337 339
3 335 333 339
3 338 334 336
3 340 338 336
3 340 336 335
3 339 340 335
3 338 342 341
3 337 338 341
3 337 341 343
3 339 337 343
3 340 344 345
3 340 345 338
3 338 345 342
3 344 340 339
3 344 339 346
3 346 339 343
3 345 344 347
3 344 346 347
3 342 349 348
3 341 342 348
3 341 348 350
3 343 341 350
3 349 342 351
3 351 342 345
3 350 352 343
3 352 346 343
3 351 345 347
3 353 351 347
3 353 347 346
3 352 353 346
3 356 355 354
3 355 357 354
3 360 359 358
3 349 358 359
3 349 359 348
3 348 359 361
3 348 361 362
3 350 348 362
3 356 354 363
3 354 357 363
3 360 358 364
3 358 365 364
3 358 349 365
3 349 351 365
3 362 366 350
3 366 352 350
3 365 351 353
3 367 365 353
3 367 353 352
3 366 367 352
3 356 369 368
3 355 356 368
3 355 368 370
3 357 355 370
3 360 372 371
3 359 360 371
3 371 373 359
3 359 373 361
3 361 373 374
3 362 361 374
3 369 356 363
3 375 369 363
3 375 363 357
3 370 375 357
3 372 360 364
3 376 372 364
3 364 377 376
3 365 377 364
3 374 378 362
3 378 366 362
3 367 379 380
3 367 380 365
3 365 380 377
3 379 367 366
3 379 366 381
3 381 366 378
3 380 379 382
3 379 381 382
3 369 384 383
3 368 369 383
3 368 383 385
3 370 368 385
3 372 387 386
3 371 372 386
3 386 388 371
3 371 388 373
3 373 388 389
3 374 373 389
3 375 390 391
3 375 391 369
3 369 391 384
3 390 375 370
3 390 370 392
3 392 370 385
3 387 372 376
3 393 387 376
3 376 394 393
3 377 394 376
3 389 395 374
3 395 378 374
3 391 390 396
3 390 392 396
3 394 377 397
3 397 377 380
3 395 398 378
3 398 381 378
3 397 380 382
3 399 397 382
3 399 382 381
3 398 399 381
3 384 401 400
3 383 384 400
3 402 385 383
3 402 383 403
3 403 383 400
3 403 404 402
3 407 406 405
3 387 405 406
3 387 406 386
3 386 406 408
3 408 409 386
3 386 409 388
3 388 409 410
3 389 388 410
3 401 384 411
3 411 384 391
3 412 385 402
3 412 413 385
3 413 392 385
3 402 404 412
3 407 405 414
3 416 393 415
3 414 393 416
3 414 387 393
3 414 405 387
3 393 394 415
3 410 417 389
3 417 395 389
3 411 391 396
3 418 411 396
3 418 396 392
3 413 418 392
3 416 415 419
3 415 420 419
3 415 394 420
3 394 397 420
3 417 421 395
3 421 398 395
3 399 422 423
3 399 423 397
3 397 423 420
3 422 399 398
3 422 398 424
3 424 398 421
3 423 422 425
3 422 424 425
3 428 427 426
3 427 429 426
3 431 428 426
3 430 431 426
3 429 432 430
3 426 429 430
3 431 430 433
3 430 432 433
3 401 435 434
3 400 401 434
3 434 436 400
3 400 436 403
3 437 404 403
3 437 403 438
3 438 403 436
3 438 439 437
3 442 441 440
3 407 440 441
3 407 441 406
3 406 441 443
3 443 444 406
3 406 444 408
3 444 445 408
3 408 445 409
3 409 445 446
3 410 409 446
3 435 401 447
3 447 401 411
3 412 448 413
3 448 449 450
3 412 449 448
3 412 437 449
3 412 404 437
3 437 439 449
3 442 440 451
3 453 414 452
3 451 414 453
3 451 407 414
3 451 440 407
3 414 416 452
3 446 454 410
3 454 417 410
3 418 455 456
3 418 456 411
3 411 456 447
3 455 457 458
3 418 457 455
3 418 448 457
3 418 413 448
3 448 450 457
3 453 452 459
3 461 419 460
3 459 419 461
3 459 416 419
3 459 452 416
3 419 420 460
3 454 462 417
3 462 421 417
3 456 455 463
3 455 458 463
3 461 460 464
3 460 465 464
3 460 420 465
3 420 423 465
3 462 466 421
3 466 424 421
3 425 467 468
3 425 468 423
3 423 468 465
3 467 425 424
3 467 424 469
3 469 424 466
3 471 468 467
3 470 471 467
3 469 472 470
3 467 469 470
3 471 470 473
3 470 472 473
3 476 475 474
3 475 477 474
3 479 476 474
3 478 479 474
3 477 480 478
3 474 477 478
3 482 479 478
3 481 482 478
3 480 483 481
3 478 480 481
3 485 482 481
3 484 485 481
3 483 486 484
3 481 483 484
3 488 485 484
3 487 488 484
3 486 489 487
3 484 486 487
3 492 491 490
3 491 493 490
3 487 427 428
3 487 428 488
3 488 428 494
3 427 487 489
3 427 489 429
3 429 489 495
3 497 492 490
3 496 497 490
3 493 498 496
3 490 493 496
3 501 500 499
3 500 431 499
3 500 494 431
3 494 428 431
3 495 502 429
3 502 432 429
3 497 496 503
3 496 498 503
3 501 499 504
3 499 431 433
3 499 433 504
3 504 433 505
3 505 433 432
3 502 505 432
3 435 507 506
3 434 435 506
3 506 508 434
3 434 508 436
3 508 509 436
3 436 509 438
3 510 439 438
3 510 438 511
3 511 438 509
3 511 512 510
3 515 514 513
3 442 513 514
3 442 514 441
3 441 514 516
3 516 517 441
3 441 517 443
3 517 518 443
3 443 518 444
3 518 519 444
3 444 519 445
3 445 519 520
3 446 445 520
3 507 435 521
3 521 435 447
3 449 522 450
3 522 523 524
3 449 523 522
3 449 510 523
3 449 439 510
3 510 512 523
3 515 513 525
3 527 451 526
3 525 451 527
3 525 442 451
3 525 513 442
3 451 453 526
3 520 528 446
3 528 454 446
3 521 447 529
3 529 447 456
3 457 530 458
3 530 531 532
3 457 531 530
3 457 522 531
3 457 450 522
3 522 524 531
3 527 526 533
3 535 459 534
3 533 459 535
3 533 453 459
3 533 526 453
3 459 461 534
3 528 536 454
3 536 462 454
3 463 537 538
3 463 538 456
3 456 538 529
3 537 539 540
3 463 539 537
3 463 530 539
3 463 458 530
3 530 532 539
3 535 534 541
3 543 464 542
3 541 464 543
3 541 461 464
3 541 534 461
3 464 465 542
3 536 544 462
3 544 466 462
3 546 538 537
3 545 546 537
3 540 547 545
3 537 540 545
3 549 543 542
3 548 549 542
3 542 468 548
3 465 468 542
3 544 550 466
3 550 469 466
3 552 546 545
3 551 552 545
3 547 553 551
3 545 547 551
3 555 549 548
3 554 555 548
3 548 471 554
3 468 471 548
3 550 556 469
3 556 472 469
3 558 552 551
3 557 558 551
3 553 559 557
3 551 553 557
3 561 555 554
3 560 561 554
3 473 554 471
3 473 562 554
3 562 560 554
3 562 473 472
3 562 472 563
3 563 472 556
3 565 558 557
3 564 565 557
3 559 566 564
3 557 559 564
3 568 561 560
3 567 568 560
3 560 562 567
3 562 569 567
3 563 570 569
3 562 563 569
3 572 565 564
3 571 572 564
3 566 573 571
3 564 566 571
3 575 568 567
3 574 575 567
3 567 569 574
3 569 576 574
3 570 577 576
3 569 570 576
3 579 572 571
3 578 579 571
3 573 580 578
3 571 573 578
3 582 575 574
3 581 582 574
3 574 576 581
3 576 583 581
3 577 584 583
3 576 577 583
3 586 579 578
3 585 586 578
3 580 587 585
3 578 580 585
3 589 582 581
3 588 589 581
3 581 583 588
3 583 590 588
3 584 591 590
3 583 584 590
3 593 586 585
3 592 593 585
3 587 594 592
3 585 587 592
3 596 589 588
3 595 596 588
3 476 590 475
3 476 595 590
3 595 588 590
3 475 590 591
3 475 591 477
3 477 591 597
3 599 593 592
3 598 599 592
3 594 600 598
3 592 594 598
3 602 596 595
3 601 602 595
3 595 479 601
3 476 479 595
3 597 603 477
3 603 480 477
3 605 599 598
3 604 605 598
3 600 606 604
3 598 600 604
3 608 602 601
3 607 608 601
3 601 482 607
3 479 482 601
3 603 609 480
3 609 483 480
3 611 605 604
3 610 611 604
3 606 612 610
3 604 606 610
3 614 608 607
3 613 614 607
3 607 485 613
3 482 485 607
3 609 615 483
3 615 486 483
3 617 611 610
3 616 617 610
3 612 618 616
3 610 612 616
3 620 614 613
3 619 620 613
3 613 488 619
3 485 488 613
3 615 621 486
3 621 489 486
3 616 491 492
3 616 492 617
3 617 492 622
3 491 623 493
3 616 623 491
3 616 624 623
3 616 618 624
3 624 625 623
3 628 627 626
3 627 620 619
3 627 619 626
3 626 619 629
3 619 494 629
3 488 494 619
3 621 630 489
3 630 495 489
3 622 492 631
3 631 492 497
3 632 493 623
3 498 493 632
3 625 633 632
3 623 625 632
3 635 628 626
3 634 635 626
3 501 629 500
3 501 634 629
3 634 626 629
3 629 494 500
3 630 636 495
3 636 502 495
3 631 497 503
3 637 631 503
3 498 632 638
3 498 638 503
3 503 638 637
3 632 633 638
3 635 634 639
3 634 501 504
3 634 504 639
3 639 504 640
3 640 504 641
3 504 505 641
3 641 505 502
3 636 641 502
3 506 507 642
3 508 506 642
3 643 508 642
3 509 508 643
3 644 509 643
3 511 509 644
3 645 511 644
3 511 645 512
3 514 515 646
3 516 514 646
3 647 516 646
3 517 516 647
3 648 517 647
3 518 517 648
3 649 518 648
3 519 518 649
3 650 519 649
3 519 650 520
3 651 642 507
3 521 651 507
3 642 651 643
3 643 651 652
3 643 652 644
3 644 652 653
3 524 523 645
3 524 645 653
3 653 645 644
3 645 523 512
3 646 515 525
3 525 527 654
3 525 654 646
3 646 654 647
3 647 654 648
3 648 654 655
3 648 655 649
3 649 655 656
3 649 656 650
3 650 656 657
3 650 657 528
3 520 650 528
3 658 651 521
3 529 658 521
3 651 658 652
3 652 658 659
3 532 531 653
3 532 653 659
3 659 653 652
3 653 531 524
3 654 527 533
3 533 535 660
3 533 660 654
3 654 660 655
3 655 660 656
3 656 660 661
3 656 661 657
3 657 661 662
3 657 662 536
3 528 657 536
3 663 658 529
3 538 663 529
3 540 539 659
3 540 659 663
3 663 659 658
3 659 539 532
3 660 535 541
3 541 543 664
3 541 664 660
3 660 664 661
3 661 664 662
3 662 664 665
3 662 665 544
3 536 662 544
3 666 663 538
3 546 666 538
3 663 666 547
3 540 663 547
3 667 664 543
3 549 667 543
3 664 667 665
3 665 667 668
3 665 668 550
3 544 665 550
3 669 666 546
3 552 669 546
3 666 669 553
3 547 666 553
3 670 667 549
3 555 670 549
3 667 670 668
3 668 670 671
3 668 671 556
3 550 668 556
3 672 669 552
3 558 672 552
3 669 672 559
3 553 669 559
3 673 670 555
3 561 673 555
3 670 673 671
3 671 673 674
3 671 674 563
3 556 671 563
3 675 672 558
3 565 675 558
3 672 675 566
3 559 672 566
3 676 673 561
3 568 676 561
3 673 676 674
3 674 676 677
3 674 677 570
3 563 674 570
3 678 675 565
3 572 678 565
3 675 678 573
3 566 675 573
3 679 676 568
3 575 679 568
3 676 679 677
3 677 679 680
3 677 680 577
3 570 677 577
3 681 678 572
3 579 681 572
3 678 681 580
3 573 678 580
3 682 679 575
3 582 682 575
3 679 682 680
3 680 682 683
3 680 683 584
3 577 680 584
3 684 681 579
3 586 684 579
3 681 684 587
3 580 681 587
3 685 682 582
3 589 685 582
3 682 685 683
3 683 685 686
3 683 686 591
3 584 683 591
3 687 684 586
3 593 687 586
3 684 687 594
3 587 684 594
3 688 685 589
3 596 688 589
3 685 688 686
3 686 688 689
3 686 689 597
3 591 686 597
3 690 687 593
3 599 690 593
3 687 690 600
3 594 687 600
3 691 688 596
3 602 691 596
3 688 691 689
3 689 691 692
3 689 692 603
3 597 689 603
3 693 690 599
3 605 693 599
3 690 693 606
3 600 690 606
3 694 691 602
3 608 694 602
3 691 694 692
3 692 694 695
3 692 695 609
3 603 692 609
3 696 693 605
3 611 696 605
3 693 696 612
3 606 693 612
3 697 694 608
3 614 697 608
3 694 697 695
3 695 697 698
3 695 698 615
3 609 695 615
3 699 696 611
3 617 699 611
3 696 699 618
3 612 696 618
3 700 697 614
3 620 700 614
3 697 700 698
3 698 700 701
3 698 701 621
3 615 698 621
3 702 699 617
3 622 702 617
3 624 618 699
3 624 699 703
3 703 699 702
3 624 703 625
3 627 628 704
3 620 627 704
3 620 704 700
3 700 704 705
3 700 705 701
3 701 705 706
3 701 706 630
3 621 701 630
3 707 702 622
3 631 707 622
3 702 707 703
3 703 707 708
3 703 708 633
3 625 703 633
3 709 704 628
3 635 709 628
3 704 709 705
3 705 709 710
3 705 710 706
3 706 710 711
3 706 711 636
3 630 706 636
3 707 631 637
3 708 707 637
3 638 708 637
3 708 638 633
3 709 635 639
3 710 709 639
3 640 710 639
3 711 710 640
3 641 711 640
3 711 641 636
