ply
format ascii 1.0
element vertex 424
property float x
property float y
property float z
property uchar red
property uchar green
property uchar blue
element face 876
property list uchar int vertex_indices
end_header
-6.09902715682983398 7 -2 201 174 126
-6 6.88329553604125977 -2 15 14 12
-6 7 -2.30614590644836426 195 168 113
-6.1848912239074707 7 -1 213 183 135
-6 6.8343052864074707 -1 85 84 82
-6.18432092666625977 7 0 213 177 127
-6 6.83480024337768555 0 85 85 85
-6.09719657897949219 7 1 201 162 121
-6 6.88549709320068359 1 15 15 15
-6 7 1.29858767986297607 147 125 92
-6 7.09672307968139648 -2 147 128 90
-6 7.17460393905639648 -1 122 108 81
-6 7.17407417297363281 0 122 108 82
-6 7.09494113922119141 1 147 125 92
-5.11357021331787109 7 -4 214 190 144
-5 6.88162088394165039 -4 15 13 10
-5 7 -4.13854742050170898 228 204 161
-5.43948793411254883 7 -3 195 168 113
-5 6.8554081916809082 -3 213 183 137
-5.43474864959716797 7 -2 147 128 90
-5 7 -2.30206966400146484 69 64 54
-5.62469482421875 7 -1 122 108 81
-5.62601757049560547 7 0 122 108 82
-5.44646024703979492 7 1 147 125 92
-5.43146467208862305 7 2 195 151 105
-5 6.85751533508300781 2 213 174 105
-5 7 1.31149542331695557 28 28 26
-5.10866641998291016 7 3 215 158 120
-5 6.88675594329833984 3 14 13 13
-5 7 3.13222265243530273 142 120 98
-5 7.09807825088500977 -4 141 124 92
-5 7.23885774612426758 -3 69 64 54
-5.0631108283996582 8 -1 187 184 180
-5 7.83941078186035156 -1 10 10 10
-5 8 -1.28264832496643066 210 209 205
-5.06238842010498047 8 0 187 183 178
-5 7.84132289886474609 0 10 10 10
-5 8 0.277209460735321045 188 179 163
-5 7.23487997055053711 2 70 66 59
-5 7.09392118453979492 3 142 120 98
-5 8.88227748870849609 -1 188 181 166
-5 8.88104820251464844 0 188 179 163
-4.13954734802246094 7 -5 228 204 161
-4 6.88064956665039062 -5 14 12 10
-4 7 -5.1145782470703125 215 190 151
-4 6.9247593879699707 -4 255 199 125
-4.75073957443237305 7 -3 69 64 54
-4 7 -3.85947608947753906 42 40 36
-4.75492382049560547 7 2 70 66 59
-4 6.92846870422363281 3 255 190 83
-4 7 2.86654925346374512 17 15 10
-4.13171052932739258 7 4 229 156 121
-4 6.88724994659423828 4 13 12 11
-4 7 4.10815238952636719 138 119 106
-4 7.09886312484741211 -5 136 121 96
-4 7.19402647018432617 -4 42 40 36
-4.27363920211791992 8 -3 210 210 209
-4 7.71501064300537109 -3 18 17 16
-4 8 -3.3698270320892334 224 219 209
-4.70514154434204102 8 -2 210 209 205
-4 7.71639108657836914 -2 155 130 85
-4 7.7287440299987793 -1 216 171 82
-4 7.72892570495605469 0 216 170 77
-4.70150279998779297 8 1 210 202 191
-4 7.71712350845336914 1 155 127 72
-4.2700200080871582 8 2 210 194 177
-4 7.71881914138793945 2 17 15 10
-4 7.18367481231689453 3 43 43 43
-4 8 2.36367011070251465 159 156 152
-4 7.0935206413269043 4 138 119 106
-4 8.96538925170898438 -3 158 155 147
-4 8.97848892211914062 -2 109 108 106
-4 8.97910499572753906 -1 85 83 78
-4 8.97909259796142578 0 85 82 76
-4 8.97844219207763672 1 110 107 103
-4 8.96496772766113281 2 159 156 152
-3.3246924877166748 5 -2 255 250 244
-3 4.42184686660766602 -2 255 238 213
-3 5 -2.56963229179382324 255 250 245
-3.65658736228942871 5 -1 255 250 244
-3 4.48028326034545898 -1 255 226 177
-3.65364456176757812 5 0 255 246 232
-3 4.48257303237915039 0 255 224 166
-3.31833744049072266 5 1 255 238 209
-3 4.43343019485473633 1 255 229 180
-3 5 1.55377721786499023 255 237 207
-3 5.17136764526367188 -2 255 249 242
-3 5.33384227752685547 -1 255 244 227
-3 5.33242988586425781 0 255 240 215
-3 5.16814708709716797 1 255 237 207
-3 6.85427951812744141 -5 212 171 123
-3 7 -5.44487714767456055 179 158 128
-3.85926985740661621 7 -4 42 40 36
-3 7 -4.74880123138427734 58 56 52
-3.86663985252380371 7 3 43 43 43
-3 6.85806846618652344 4 211 155 78
-3 7 3.75586509704589844 16 13 8
-3 7 4.42880868911743164 59 58 56
-3 7.2409977912902832 -5 58 56 52
-3.37061715126037598 8 -4 224 219 209
-3 7.71397161483764648 -4 17 17 16
-3 8 -4.27493190765380859 211 206 196
-3 7.72831487655639648 -3 216 164 83
-3 7.77376365661621094 -2 255 180 59
-3 7.84576034545898438 -1 255 180 49
-3 7.84619426727294922 0 255 182 45
-3 7.77458000183105469 1 255 185 46
-3 7.72922420501708984 2 215 162 60
-3.36329746246337891 8 3 225 211 201
-3 7.71930265426635742 3 16 13 8
-3 7.23383998870849609 4 59 58 56
-3 8 3.2694098949432373 154 150 147
-3 8.96550273895263672 -4 153 153 152
-3 8.97913360595703125 -3 79 75 68
-3 8.97493743896484375 -2 34 31 26
-3 8.96004199981689453 -1 14 13 10
-3 8.95992374420166016 0 14 13 10
-3 8.97483921051025391 1 34 31 24
-3 8.97907161712646484 2 80 73 62
-3 8.96491336822509766 3 154 150 147
-2.57173752784729004 5 -3 255 250 245
-2 4.41645240783691406 -3 255 232 203
-2 5 -3.3287041187286377 255 239 221
-2 4.55671787261962891 -2 255 211 141
-2 4.63823509216308594 -1 255 203 108
-2 4.63944625854492188 0 255 204 100
-2 4.56149053573608398 1 255 209 115
-2.55283141136169434 5 2 255 231 189
-2 4.43576192855834961 2 255 220 151
-2 5 2.31658649444580078 255 226 176
-2 5.17286396026611328 -3 255 244 231
-2 5.60252141952514648 -2 255 235 209
-2.10358738899230957 6 -1 255 210 142
-2 6 -1.22810053825378418 255 210 151
-2.10155749320983887 6 0 255 208 133
-2 5.59580755233764648 1 255 226 176
-2 6 0.221469029784202576 255 212 144
-2 5.16749763488769531 2 255 226 176
-2.31624293327331543 7 -6 179 158 128
-2 6.879364013671875 -6 20 18 17
-2 7 -6.10233974456787109 204 192 177
-2.29201936721801758 7 -5 58 56 52
-2 7 -5.41680717468261719 125 118 109
-2 6.03743267059326172 -1 255 214 154
-2 6.03671741485595703 0 255 212 144
-2.31618475914001465 7 4 59 58 56
-2.29360604286193848 7 5 182 145 134
-2 6.88742589950561523 5 20 17 14
-2 7 4.45508670806884766 11 9 8
-2 7 5.09556484222412109 127 123 121
-2 7.09990167617797852 -6 125 118 109
-2 7.71571969985961914 -4 154 120 75
-2 8 -4.70992708206176758 193 191 189
-2 7.77338504791259766 -3 255 171 55
-2.02443337440490723 8 -2 34 31 26
-2 8 -2.02438950538635254 28 25 19
-2.57973551750183105 8 -1 14 13 10
-2.58120298385620117 8 0 14 13 10
-2.03127336502075195 8 1 34 31 24
-2 7.77474498748779297 2 255 179 37
-2 8 1.03129780292510986 9 7 4
-2 7.71742725372314453 3 153 114 51
-2 8 3.69930028915405273 98 86 73
-2 7.09337806701660156 5 127 123 121
-2 8.97853183746337891 -4 98 91 80
-2 8.97498226165771484 -3 28 25 19
-2 8.97481918334960938 2 28 24 17
-2 8.97842216491699219 3 98 86 73
-1 4.47384119033813477 -3 255 214 158
-1 5 -3.66773247718811035 255 233 211
-1 4.6365208625793457 -2 255 196 101
-1 4.71436309814453125 -1 255 193 74
-1 4.71536827087402344 0 255 194 69
-1 4.64015436172485352 1 255 199 80
-1 4.48529577255249023 2 255 208 114
-1 5 2.64885592460632324 255 218 154
-1 5.33781147003173828 -3 255 233 206
-1.23290848731994629 6 -2 255 210 151
-1 6 -2.10678505897521973 255 196 126
-1.21946430206298828 6 1 255 206 123
-1 5.33075046539306641 2 255 218 154
-1 6 1.10023760795593262 255 203 119
-1 6.83095932006835938 -6 82 76 69
-1 7 -6.18886804580688477 217 209 201
-1 7 -5.61646938323974609 94 94 94
-1 6.03844356536865234 -2 255 207 146
-1 6.16159200668334961 -1 255 210 146
-1 6.16098213195800781 0 255 208 136
-1 6.03629875183105469 1 255 203 119
-1 6.83639144897460938 5 82 62 43
-1 7 4.6298518180847168 11 9 6
-1 7 5.18242073059082031 96 87 84
-1 7.17818832397460938 -6 94 94 94
-1.29987001419067383 8 -5 193 191 189
-1 7.828887939453125 -5 12 11 10
-1 8 -5.06711673736572266 191 170 141
-1 7.72798776626586914 -4 215 149 67
-1 7.84454441070556641 -3 255 163 43
-1 8 -2.57661867141723633 4 3 2
-1 7.84671115875244141 2 255 175 29
-1 8 1.58251750469207764 28 21 8
-1 7.72925901412963867 3 214 150 43
-1.26934385299682617 8 4 196 195 194
-1 7.84609460830688477 4 11 9 6
-1 7.17237138748168945 5 96 87 84
-1 8 4.06056118011474609 168 148 140
-1 8.88860034942626953 -5 166 156 141
-1 8.97915554046630859 -4 69 61 48
-1 8.96037101745605469 -3 4 3 2
-1 8.95978164672851562 2 5 4 2
-1 8.97906970977783203 3 70 57 42
-1 8.87786388397216797 4 168 148 140
0 4.47287321090698242 -3 255 209 147
0 5 -3.66898226737976074 255 228 199
0 4.63600969314575195 -2 255 194 93
0 4.71393918991088867 -1 255 191 68
0 4.71494436264038086 0 255 193 63
0 4.63964366912841797 1 255 197 74
0 4.48433017730712891 2 255 205 105
0 5 2.65009331703186035 255 215 144
0 5.33840751647949219 -3 255 228 194
0 6 -2.10764360427856445 255 192 118
0 5.33134603500366211 2 255 215 144
0 6 1.10109281539916992 255 201 111
0 6.83075237274169922 -6 84 74 66
0 7 -6.18910694122314453 219 214 209
0 7 -5.61591148376464844 99 97 94
0 6.03874444961547852 -2 255 204 136
0 6.1618494987487793 -1 255 206 136
0 6.1612396240234375 0 255 205 127
0 6.03660058975219727 1 255 201 111
0 6.836181640625 5 82 62 42
0 7 4.62929344177246094 4 3 2
0 7 5.18266201019287109 100 89 84
0 7.17841005325317383 -6 99 97 94
0 7.82808208465576172 -5 6 5 5
0 8 -5.06741952896118164 193 168 134
0 7.72791194915771484 -4 216 147 62
0 7.84436273574829102 -3 255 162 39
0 8 -2.57600069046020508 11 9 6
0 7.8465275764465332 2 255 175 26
0 8 1.58189809322357178 21 16 5
0 7.72918176651000977 3 215 149 39
0 7.84528779983520508 4 4 3 2
0 7.17259550094604492 5 100 89 84
0 8 4.0608668327331543 171 146 135
0 8.88905620574951172 -5 171 158 139
0 8.97916030883789062 -4 75 65 50
0 8.96041965484619141 -3 11 9 6
0 8.95983219146728516 2 12 9 5
0 8.97907447814941406 3 76 61 44
0 8.87841415405273438 4 171 146 135
1 4.41161012649536133 -3 255 214 159
1 5 -3.33136677742004395 255 217 177
1 4.55472469329833984 -2 255 197 107
1 4.6367182731628418 -1 255 193 80
1 4.63792991638183594 0 255 194 74
1 4.55949926376342773 1 255 199 85
1 4.43093204498291016 2 255 208 115
1 5 2.31923341751098633 255 212 137
1 5.17420625686645508 -3 255 224 186
0.235730275511741638 6 -2 255 204 136
1 5.60532665252685547 -2 255 217 166
1 6 -1.23374998569488525 255 195 116
0.222230911254882812 6 1 255 201 111
1 5.59860754013061523 1 255 212 137
1 6 0.227063044905662537 255 198 111
1 5.16884231567382812 2 255 212 137
1 6.87845134735107422 -6 15 14 14
1 7 -6.10309743881225586 207 202 197
1 7 -5.41192722320556641 129 126 123
1 6.03832674026489258 -1 255 199 119
1 6.0376129150390625 0 255 198 111
1 6.88650417327880859 5 13 10 7
1 7 4.45019292831420898 18 15 11
1 7 5.09633159637451172 130 117 110
1 7.10063838958740234 -6 129 126 123
0.302217811346054077 8 -5 171 158 139
1 7.71541643142700195 -4 155 113 56
1 8 -4.71146059036254883 198 184 161
1 7.77304649353027344 -3 255 165 39
1 8 -2.0215308666229248 37 31 21
1 7.77440357208251953 2 255 175 26
1 8 1.02844524383544922 0 0 0
1 7.71712017059326172 3 154 110 37
0.271594107151031494 8 4 171 146 135
1 8 3.70081186294555664 105 85 62
1 7.09412479400634766 5 130 117 110
1 8.97855091094970703 -4 104 92 70
1 8.97502231597900391 -3 37 31 21
1 8.97486019134521484 2 37 30 18
1 8.97844219207763672 3 105 85 62
1.57830810546875 5 -3 255 224 186
2 4.41394853591918945 -2 255 205 138
2 5 -2.57741045951843262 255 212 165
2 4.4756016731262207 -1 255 199 110
2 4.47789382934570312 0 255 200 103
2 4.42554426193237305 1 255 205 114
1.55932772159576416 5 2 255 212 137
2 5 1.56147933006286621 255 210 136
2 5.17355823516845703 -2 255 214 164
1.10631203651428223 6 -1 255 199 119
2 5.33672714233398438 -1 255 212 152
1.1042788028717041 6 0 255 198 111
2 5.33531475067138672 0 255 211 142
2 5.17034053802490234 1 255 210 136
1.31939947605133057 7 -6 129 126 123
1.2881317138671875 7 -5 17 15 13
2 6.85342741012573242 -5 210 143 72
2 7 -5.44817113876342773 182 180 178
2 7 -4.74709796905517578 64 59 51
1.31227469444274902 7 4 18 15 11
2 6.85720348358154297 4 210 140 43
2 7 3.75415229797363281 17 12 5
1.2967151403427124 7 5 130 117 110
2 7 4.43207883834838867 65 54 42
2 7.24261856079101562 -5 64 59 51
2 7.7124180793762207 -4 18 15 12
2 8 -4.27641010284423828 216 189 142
2 7.72794580459594727 -3 216 149 48
1.02154767513275146 8 -2 0 0 0
2 7.77321004867553711 -2 255 168 32
1.57730746269226074 8 -1 20 16 6
2 7.84487628936767578 -1 255 170 27
1.5787736177444458 8 0 20 15 6
2 7.84530878067016602 0 255 173 25
1.02839398384094238 8 1 0 0 0
2 7.77402353286743164 1 255 176 25
2 7.728851318359375 2 216 152 33
2 7.71774578094482422 3 17 12 5
2 7.23546695709228516 4 65 54 42
2 8 3.2708888053894043 158 130 102
2 8.96566963195800781 -4 157 141 111
2 8.97915840148925781 -3 86 74 51
2 8.97500228881835938 -2 42 35 22
2 8.9602813720703125 -1 23 19 11
2 8.96016502380371094 0 23 19 10
2 8.97490596771240234 1 43 35 19
2 8.97909736633300781 2 86 70 45
2 8.965087890625 3 158 130 102
2.32958817481994629 5 -2 255 214 164
2.66413021087646484 5 -1 255 212 152
2.66117644309997559 5 0 255 211 142
2.32321953773498535 5 1 255 210 136
3 6.87862539291381836 -5 5 4 4
3 7 -5.11651182174682617 225 207 184
2.85646891593933105 7 -4 18 15 12
3 6.92330026626586914 -4 255 151 52
3 7 -3.8565666675567627 51 44 35
2.86382269859313965 7 3 17 12 5
3 6.92699384689331055 3 255 170 35
3 7 2.86362338066101074 16 12 5
3 6.88521003723144531 4 9 6 4
3 7 4.11010026931762695 141 121 121
3 7.10049819946289062 -5 141 132 118
2.37309980392456055 8 -4 157 141 111
3 7.19812583923339844 -4 51 44 35
3 7.71290016174316406 -3 16 13 8
3 8 -3.37273502349853516 228 193 126
3 7.71571636199951172 -2 153 111 39
3 7.728240966796875 -1 214 150 36
3 7.72842168807983398 0 214 152 33
3 7.7164459228515625 1 153 112 32
3 7.716705322265625 2 16 12 5
2.36577057838439941 8 3 158 130 102
3 7.18777894973754883 3 51 42 29
3 8 2.36656785011291504 163 134 97
3 7.09517335891723633 4 141 121 121
3 8.96561813354492188 -3 163 143 103
3 8.97853183746337891 -2 115 99 64
3 8.97913837432861328 -1 92 77 47
3 8.9791259765625 0 92 76 45
3 8.978485107421875 1 115 95 60
3 8.96520328521728516 2 163 134 97
3.14203238487243652 7 -5 141 132 118
4 6.87911510467529297 -4 0 0 0
4 7 -4.14152956008911133 237 189 144
3.74802780151367188 7 -3 16 13 8
4 6.85397195816040039 -3 200 116 42
4 7 -2.29287171363830566 79 67 49
3.75220370292663574 7 2 16 12 5
4 6.85606765747070312 2 204 134 35
4 7 1.30227458477020264 40 33 20
4 6.88423442840576172 3 5 3 2
3.13420462608337402 7 4 141 121 121
4 7 3.13521313667297363 147 122 119
4 7.10010290145874023 -4 148 129 106
3.27579569816589355 8 -3 163 143 103
4 7.24158287048339844 -3 79 67 49
3.70922303199768066 8 -2 115 99 64
4 7.83285093307495117 -1 23 18 10
4 8 -1.29435062408447266 213 178 108
4 7.8347625732421875 0 23 18 9
3.70556497573852539 8 1 115 95 60
4 8 0.288822203874588013 192 161 111
3.27217817306518555 8 2 163 134 97
4 7.23761081695556641 2 80 63 46
4 7.09596347808837891 3 147 122 119
4 8.88630294799804688 -1 192 163 109
4 8.88515949249267578 0 192 161 111
4.11599922180175781 7 -4 148 129 106
4.44547700881958008 7 -3 79 67 49
4.42045164108276367 7 -2 40 33 22
5 6.88036441802978516 -2 0 0 0
5 7 -2.3144230842590332 199 159 138
4.61973047256469727 7 -1 23 18 10
5 6.83232831954956055 -1 71 46 24
4.62105321884155273 7 0 23 18 9
5 6.83282041549682617 0 72 46 24
4.432159423828125 7 1 40 33 20
5 6.88255786895751953 1 3 2 1
4.43743515014648438 7 2 80 63 46
5 7 1.30682134628295898 151 115 115
4.11110925674438477 7 3 147 122 119
5 7.09909391403198242 -2 153 119 96
4.06560277938842773 8 -1 192 163 109
5 7.17672157287597656 -1 130 99 78
4.06488275527954102 8 0 192 161 111
5 7.17619419097900391 0 129 96 82
5 7.0973200798034668 1 151 115 115
5.10148096084594727 7 -2 153 119 96
5.18721675872802734 7 -1 130 99 78
5.18664836883544922 7 0 129 96 82
5.09965848922729492 7 1 151 115 115
3 2 1 0
3 1 4 3
3 0 1 3
3 4 6 5
3 3 4 5
3 6 8 7
3 5 6 7
3 8 9 7
3 2 0 10
3 0 3 11
3 10 0 11
3 3 5 12
3 11 3 12
3 5 7 13
3 12 5 13
3 7 9 13
3 16 15 14
3 15 18 17
3 14 15 17
3 2 17 18
3 2 18 1
3 20 19 18
3 19 1 18
3 4 1 19
3 21 4 19
3 6 4 21
3 22 6 21
3 8 6 22
3 23 8 22
3 24 9 8
3 24 8 25
3 23 26 8
3 26 25 8
3 25 28 27
3 24 25 27
3 28 29 27
3 16 14 30
3 14 17 31
3 30 14 31
3 19 20 31
3 19 31 10
3 17 2 31
3 2 10 31
3 21 19 34
3 21 34 33
3 19 10 34
3 32 34 11
3 10 11 34
3 11 35 32
3 11 12 35
3 33 36 21
3 36 22 21
3 12 13 37
3 12 37 35
3 13 23 37
3 36 37 22
3 23 22 37
3 9 24 38
3 9 38 13
3 26 23 38
3 23 13 38
3 24 27 39
3 38 24 39
3 27 29 39
3 34 32 40
3 32 35 41
3 40 32 41
3 35 37 41
3 44 43 42
3 16 42 43
3 16 43 15
3 15 43 45
3 47 46 18
3 47 18 45
3 45 18 15
3 18 46 20
3 25 26 48
3 48 50 49
3 48 49 25
3 25 49 28
3 51 29 28
3 51 28 52
3 52 28 49
3 52 53 51
3 44 42 54
3 42 16 30
3 42 30 54
3 54 30 55
3 47 57 46
3 58 55 56
3 55 31 56
3 55 30 31
3 57 60 20
3 57 20 46
3 60 59 20
3 31 20 56
3 59 56 20
3 34 59 60
3 34 60 33
3 33 60 61
3 61 62 33
3 33 62 36
3 63 37 36
3 63 36 64
3 64 36 62
3 65 63 26
3 65 26 38
3 63 64 26
3 48 26 66
3 64 66 26
3 50 48 66
3 67 68 38
3 67 38 39
3 38 68 65
3 29 51 69
3 29 69 39
3 39 69 67
3 51 53 69
3 58 56 70
3 56 59 71
3 70 56 71
3 59 34 40
3 59 40 71
3 71 40 72
3 72 40 73
3 40 41 73
3 37 63 74
3 37 74 41
3 41 74 73
3 63 65 75
3 74 63 75
3 65 68 75
3 78 77 76
3 77 80 79
3 76 77 79
3 80 82 81
3 79 80 81
3 82 84 83
3 81 82 83
3 84 85 83
3 78 76 86
3 76 79 87
3 86 76 87
3 79 81 88
3 87 79 88
3 81 83 89
3 88 81 89
3 83 85 89
3 44 91 90
3 43 44 90
3 93 92 45
3 93 45 90
3 90 45 43
3 45 92 47
3 49 50 94
3 94 96 95
3 94 95 49
3 49 95 52
3 52 95 97
3 53 52 97
3 91 44 54
3 98 91 54
3 93 100 92
3 101 98 99
3 98 55 99
3 98 54 55
3 99 55 58
3 92 100 47
3 100 57 47
3 100 102 57
3 102 103 57
3 57 103 60
3 103 104 60
3 60 104 61
3 104 105 61
3 61 105 62
3 105 106 62
3 62 106 64
3 106 107 64
3 64 107 66
3 68 67 108
3 50 66 94
3 66 109 94
3 66 107 109
3 96 94 109
3 110 111 67
3 110 67 69
3 67 111 108
3 110 69 53
3 97 110 53
3 101 99 112
3 99 58 70
3 99 70 112
3 112 70 113
3 113 70 114
3 70 71 114
3 114 71 115
3 71 72 115
3 115 72 116
3 72 73 116
3 116 73 117
3 73 74 117
3 117 74 118
3 74 75 118
3 68 108 119
3 68 119 75
3 75 119 118
3 108 111 119
3 122 121 120
3 78 120 121
3 78 121 77
3 77 121 123
3 123 124 77
3 77 124 80
3 124 125 80
3 80 125 82
3 125 126 82
3 82 126 84
3 127 85 84
3 127 84 128
3 128 84 126
3 128 129 127
3 122 120 130
3 120 78 86
3 120 86 130
3 130 86 131
3 133 87 132
3 133 131 87
3 131 86 87
3 88 132 87
3 134 132 88
3 134 135 136
3 134 88 135
3 88 89 135
3 85 127 137
3 85 137 89
3 89 137 135
3 127 129 137
3 140 139 138
3 91 138 139
3 91 139 90
3 142 141 139
3 141 90 139
3 90 141 93
3 133 132 143
3 132 134 144
3 143 132 144
3 134 136 144
3 95 96 145
3 146 97 95
3 146 95 147
3 145 148 95
3 148 147 95
3 147 149 146
3 140 138 150
3 141 142 150
3 141 150 98
3 138 91 150
3 91 98 150
3 101 152 141
3 101 141 98
3 152 151 141
3 93 141 100
3 151 100 141
3 151 153 100
3 100 153 102
3 155 154 103
3 155 103 153
3 153 103 102
3 104 103 154
3 156 104 154
3 105 104 156
3 157 105 156
3 106 105 157
3 158 106 157
3 158 160 159
3 158 159 106
3 106 159 107
3 159 161 107
3 107 161 109
3 109 161 145
3 109 145 96
3 161 162 145
3 110 145 111
3 162 111 145
3 97 146 163
3 97 163 110
3 148 145 163
3 145 110 163
3 146 149 163
3 152 101 112
3 164 152 112
3 164 112 165
3 112 113 165
3 154 155 165
3 154 165 114
3 114 165 113
3 156 154 114
3 115 156 114
3 157 156 115
3 116 157 115
3 158 157 116
3 117 158 116
3 160 158 117
3 160 117 166
3 166 117 118
3 166 118 167
3 118 119 167
3 167 119 111
3 162 167 111
3 122 169 168
3 121 122 168
3 168 170 121
3 121 170 123
3 170 171 123
3 123 171 124
3 171 172 124
3 124 172 125
3 172 173 125
3 125 173 126
3 173 174 126
3 126 174 128
3 128 174 175
3 129 128 175
3 169 122 130
3 176 169 130
3 178 131 177
3 178 176 131
3 176 130 131
3 131 133 177
3 135 179 136
3 179 180 181
3 179 135 180
3 135 137 180
3 180 137 129
3 175 180 129
3 140 183 182
3 139 140 182
3 139 182 184
3 142 139 184
3 178 177 185
3 177 133 143
3 177 143 185
3 185 143 186
3 186 143 187
3 143 144 187
3 136 179 188
3 136 188 144
3 144 188 187
3 179 181 188
3 148 190 189
3 147 148 189
3 147 189 191
3 149 147 191
3 183 140 150
3 192 183 150
3 192 150 193
3 192 193 195
3 150 142 193
3 194 193 184
3 142 184 193
3 152 193 194
3 152 194 151
3 151 194 196
3 196 197 151
3 151 197 153
3 153 197 198
3 155 153 198
3 160 200 199
3 159 160 199
3 199 201 159
3 159 201 161
3 202 162 161
3 202 161 203
3 203 161 201
3 190 148 202
3 190 202 203
3 148 163 202
3 205 202 204
3 163 204 202
3 204 163 149
3 191 204 149
3 195 193 206
3 193 152 164
3 193 164 206
3 206 164 207
3 207 164 208
3 164 165 208
3 208 165 155
3 198 208 155
3 200 160 166
3 209 200 166
3 209 166 210
3 166 167 210
3 162 202 211
3 162 211 167
3 167 211 210
3 202 205 211
3 169 213 212
3 168 169 212
3 212 214 168
3 168 214 170
3 214 215 170
3 170 215 171
3 215 216 171
3 171 216 172
3 216 217 172
3 172 217 173
3 217 218 173
3 173 218 174
3 174 218 219
3 175 174 219
3 213 169 176
3 220 213 176
3 176 221 220
3 178 221 176
3 181 222 223
3 180 222 181
3 222 180 175
3 219 222 175
3 183 225 224
3 182 183 224
3 182 224 226
3 184 182 226
3 221 178 185
3 227 221 185
3 227 185 228
3 185 186 228
3 228 186 229
3 186 187 229
3 229 187 230
3 187 188 230
3 230 188 181
3 223 230 181
3 190 232 231
3 189 190 231
3 189 231 233
3 191 189 233
3 225 183 192
3 234 225 192
3 226 235 184
3 184 235 194
3 236 234 192
3 236 192 195
3 235 237 194
3 194 237 196
3 237 238 196
3 196 238 197
3 197 238 239
3 198 197 239
3 200 241 240
3 199 200 240
3 240 242 199
3 199 242 201
3 242 243 201
3 201 243 203
3 245 204 244
3 245 205 204
3 232 190 243
3 190 203 243
3 244 204 191
3 233 244 191
3 236 195 206
3 246 236 206
3 246 206 247
3 206 207 247
3 247 207 248
3 207 208 248
3 248 208 198
3 239 248 198
3 241 200 209
3 249 241 209
3 249 209 250
3 209 210 250
3 250 210 251
3 210 211 251
3 251 211 205
3 245 251 205
3 213 253 252
3 212 213 252
3 252 254 212
3 212 254 214
3 254 255 214
3 214 255 215
3 255 256 215
3 215 256 216
3 256 257 216
3 216 257 217
3 257 258 217
3 217 258 218
3 218 258 259
3 219 218 259
3 253 213 220
3 260 253 220
3 261 220 221
3 261 262 220
3 262 260 220
3 262 261 263
3 266 264 265
3 223 265 264
3 223 222 265
3 222 267 265
3 267 222 219
3 259 267 219
3 225 269 268
3 224 225 268
3 224 268 270
3 226 224 270
3 261 221 227
3 263 261 227
3 263 227 271
3 271 227 228
3 271 228 272
3 228 229 272
3 264 266 272
3 264 272 230
3 230 272 229
3 264 230 223
3 232 274 273
3 231 232 273
3 231 273 275
3 233 231 275
3 269 225 234
3 276 269 234
3 226 270 277
3 226 277 235
3 270 276 277
3 236 277 234
3 276 234 277
3 277 279 278
3 277 278 235
3 235 278 237
3 278 280 237
3 237 280 238
3 238 280 281
3 239 238 281
3 241 283 282
3 240 241 282
3 282 284 240
3 240 284 242
3 286 285 243
3 286 243 284
3 284 243 242
3 244 287 285
3 244 285 245
3 287 274 285
3 243 285 232
3 274 232 285
3 287 244 233
3 275 287 233
3 277 236 246
3 279 277 246
3 279 246 288
3 288 246 247
3 288 247 289
3 247 248 289
3 289 248 239
3 281 289 239
3 283 241 249
3 290 283 249
3 290 249 291
3 249 250 291
3 285 286 291
3 285 291 251
3 251 291 250
3 285 251 245
3 252 253 292
3 292 294 293
3 292 293 252
3 252 293 254
3 293 295 254
3 254 295 255
3 295 296 255
3 255 296 256
3 296 297 256
3 256 297 257
3 299 298 258
3 299 258 297
3 297 258 257
3 258 298 259
3 292 253 260
3 294 292 260
3 294 260 300
3 300 260 262
3 301 262 263
3 301 302 262
3 302 300 262
3 302 303 304
3 301 303 302
3 266 304 303
3 266 265 304
3 265 305 304
3 298 299 305
3 298 305 267
3 267 305 265
3 298 267 259
3 268 269 306
3 307 270 268
3 307 268 308
3 306 309 268
3 309 308 268
3 308 310 307
3 301 263 271
3 303 301 271
3 272 303 271
3 303 272 266
3 313 312 311
3 274 311 312
3 274 312 273
3 315 314 312
3 314 273 312
3 273 314 275
3 306 269 276
3 270 307 316
3 270 316 276
3 309 306 316
3 306 276 316
3 317 278 307
3 317 307 310
3 278 279 307
3 316 307 318
3 279 318 307
3 317 319 278
3 278 319 280
3 320 281 280
3 320 280 321
3 321 280 319
3 321 323 322
3 320 321 322
3 323 325 324
3 322 323 324
3 325 327 326
3 324 325 326
3 283 326 327
3 283 327 282
3 282 327 328
3 328 329 282
3 282 329 284
3 331 286 311
3 331 311 330
3 286 284 311
3 313 311 329
3 284 329 311
3 314 315 330
3 314 330 287
3 311 274 330
3 274 287 330
3 314 287 275
3 318 279 288
3 332 318 288
3 332 288 333
3 288 289 333
3 281 320 334
3 281 334 289
3 289 334 333
3 320 322 335
3 334 320 335
3 322 324 336
3 335 322 336
3 324 326 337
3 336 324 337
3 326 283 290
3 326 290 337
3 337 290 338
3 338 290 339
3 290 291 339
3 339 291 286
3 331 339 286
3 293 294 340
3 295 293 340
3 341 295 340
3 296 295 341
3 342 296 341
3 297 296 342
3 343 297 342
3 297 343 299
3 340 294 300
3 341 340 300
3 302 341 300
3 342 341 302
3 304 342 302
3 343 342 304
3 305 343 304
3 343 305 299
3 309 345 344
3 308 309 344
3 346 310 308
3 346 308 347
3 347 308 344
3 347 348 346
3 351 350 349
3 313 349 350
3 313 350 312
3 312 350 352
3 312 352 353
3 315 312 353
3 345 309 316
3 354 345 316
3 310 346 317
3 316 318 356
3 316 356 354
3 356 318 355
3 358 356 355
3 348 357 346
3 357 317 346
3 357 319 317
3 357 359 319
3 319 359 321
3 359 360 321
3 321 360 323
3 360 361 323
3 323 361 325
3 361 362 325
3 325 362 327
3 362 363 327
3 327 363 328
3 366 364 365
3 363 351 329
3 363 329 328
3 329 351 349
3 349 313 329
3 365 364 330
3 365 330 367
3 330 364 331
3 367 330 315
3 353 367 315
3 355 318 332
3 358 355 332
3 358 332 368
3 368 332 333
3 368 333 369
3 333 334 369
3 369 334 370
3 334 335 370
3 370 335 371
3 335 336 371
3 371 336 372
3 336 337 372
3 372 337 373
3 337 338 373
3 364 366 373
3 364 373 339
3 339 373 338
3 364 339 331
3 344 345 374
3 374 376 375
3 374 375 344
3 344 375 347
3 377 348 347
3 377 347 378
3 378 347 375
3 378 379 377
3 382 381 380
3 351 380 381
3 351 381 350
3 350 381 383
3 385 384 352
3 385 352 383
3 383 352 350
3 352 384 353
3 374 345 354
3 376 374 354
3 376 354 386
3 386 354 356
3 348 377 357
3 356 358 388
3 356 388 386
3 388 358 387
3 387 389 379
3 387 379 388
3 389 359 379
3 377 379 357
3 359 357 379
3 389 391 390
3 389 390 359
3 359 390 360
3 390 392 360
3 360 392 361
3 394 393 362
3 394 362 392
3 392 362 361
3 363 362 382
3 363 382 380
3 362 393 382
3 396 382 395
3 393 395 382
3 380 351 363
3 396 395 365
3 396 365 397
3 365 395 366
3 384 385 397
3 384 397 367
3 367 397 365
3 384 367 353
3 387 358 368
3 389 387 368
3 369 389 368
3 391 389 369
3 391 369 398
3 398 369 370
3 398 370 399
3 370 371 399
3 393 394 399
3 393 399 372
3 372 399 371
3 395 393 372
3 373 395 372
3 395 373 366
3 375 376 400
3 378 375 400
3 401 378 400
3 402 379 378
3 402 378 403
3 401 404 378
3 404 403 378
3 403 406 405
3 402 403 405
3 406 408 407
3 405 406 407
3 408 410 409
3 407 408 409
3 382 409 410
3 382 410 381
3 412 411 410
3 411 381 410
3 383 381 411
3 413 383 411
3 383 413 385
3 400 376 386
3 401 400 386
3 388 401 386
3 379 402 414
3 379 414 388
3 404 401 414
3 401 388 414
3 416 414 391
3 416 391 415
3 414 402 391
3 390 391 405
3 402 405 391
3 416 415 418
3 418 415 417
3 390 405 407
3 390 407 392
3 407 409 394
3 407 394 392
3 409 419 394
3 417 394 418
3 419 418 394
3 411 412 419
3 411 419 396
3 409 382 419
3 382 396 419
3 413 411 396
3 397 413 396
3 413 397 385
3 415 391 398
3 417 415 398
3 399 417 398
3 417 399 394
3 403 404 420
3 406 403 420
3 421 406 420
3 408 406 421
3 422 408 421
3 410 408 422
3 423 410 422
3 410 423 412
3 420 404 414
3 421 420 414
3 416 421 414
3 422 421 416
3 418 422 416
3 423 422 418
3 419 423 418
3 423 419 412
