ply
format ascii 1.0
element vertex 74
property float x
property float y
property float z
property uchar red
property uchar green
property uchar blue
element face 144
property list uchar int vertex_indices
end_header
-1.04090487957000732 -6 0 33 73 84
-1 -6.05343246459960938 0 32 13 32
-1 -6 -0.0575897917151451111 57 91 153
-1 -6 0.223175078630447388 61 109 147
-1.58049249649047852 -5 0 143 179 73
-1 -5 -0.81716310977935791 104 226 86
-1.39357376098632812 -5 1 122 152 68
-1 -5.73190641403198242 1 54 88 117
-1 -5 1.36157023906707764 134 203 95
-1.18336927890777588 -4 -1 237 126 90
-1 -4.58861446380615234 -1 104 226 86
-1 -4 -1.11227250099182129 251 190 90
-1.8984304666519165 -4 0 235 168 98
-1.70860791206359863 -4 1 218 159 101
-1 -4 1.64993917942047119 247 141 118
-1.26780331134796143 -3 -1 122 254 99
-1 -3 -1.16390025615692139 251 250 93
-1.98509025573730469 -3 0 109 254 124
-1.79420387744903564 -3 1 118 249 130
-1 -3 1.72766852378845215 153 254 125
-1.12337136268615723 -2 -1 99 230 247
-1 -2 -1.07549607753753662 88 231 133
-1.8370521068572998 -2 0 110 201 249
-1.64693498611450195 -2 1 124 211 254
-1 -2 1.59236228466033936 121 232 238
-1 -1.66995739936828613 -1 92 220 198
-1.45734083652496338 -1 0 135 106 233
-1 -1 -0.643533647060394287 81 106 189
-1.26967489719390869 -1 1 150 124 245
-1 -1 1.24685466289520264 112 115 215
-1 -0.244986474514007568 0 91 93 193
-1 -0.554773092269897461 1 112 115 215
0 -6.18415451049804688 0 76 32 65
0 -6 -0.197958618402481079 81 73 186
0 -6 0.769573509693145752 78 90 181
0 -5 -0.958100378513336182 97 243 158
0 -5.92048549652099609 1 74 83 155
0 -5 1.45382320880889893 111 227 133
0 -4.90541601181030273 -1 97 243 158
0 -4 -1.17215085029602051 221 254 96
0 -4 1.74228000640869141 254 180 127
0 -3 -1.22354936599731445 241 150 93
0 -3 1.81954026222229004 223 246 126
0 -2 -1.13462257385253906 117 210 84
0 -2 1.68318629264831543 116 219 168
0 -1.41169619560241699 -1 85 195 114
0 -1 -0.780869185924530029 71 134 157
0 -1 1.33607637882232666 103 146 188
0 -0.0837566852569580078 0 80 121 161
0 -0.394158512353897095 1 103 146 188
0.177098751068115234 -6 0 78 90 181
0.854377865791320801 -5 0 107 241 130
0.62019956111907959 -5 1 111 227 133
0.35180366039276123 -4 -1 253 204 104
1 -4.63028812408447266 0 115 245 237
1 -4 -0.273635417222976685 177 252 109
1 -4.03400421142578125 1 121 234 227
1 -4 1.00961685180664062 223 254 134
0.456284642219543457 -3 -1 232 224 98
1 -3 -0.38974270224571228 225 107 101
1 -3 1.08432364463806152 242 166 131
0.274526208639144897 -2 -1 85 195 114
1 -2 -0.184913977980613708 144 185 85
0.931710660457611084 -2 1 116 219 168
1 -2.36761569976806641 1 242 166 131
1 -2 0.7107352614402771 126 189 95
0.692465484142303467 -1 0 80 121 161
1 -1.64879226684570312 0 126 189 95
0.458177059888839722 -1 1 103 146 188
1.11302316188812256 -4 0 218 252 121
1.00608658790588379 -4 1 223 254 134
1.16076374053955078 -3 0 228 150 112
1.05335819721221924 -3 1 242 166 131
1.07622253894805908 -2 0 126 189 95
3 2 1 0
3 1 3 0
3 5 2 0
3 4 5 0
3 3 7 6
3 3 6 0
3 0 6 4
3 7 8 6
3 11 10 9
3 10 5 4
3 10 4 9
3 9 4 12
3 4 6 12
3 6 13 12
3 8 14 13
3 6 8 13
3 16 11 9
3 15 16 9
3 9 12 15
3 12 17 15
3 12 13 17
3 13 18 17
3 14 19 18
3 13 14 18
3 21 16 15
3 20 21 15
3 15 17 20
3 17 22 20
3 17 18 22
3 18 23 22
3 19 24 23
3 18 19 23
3 21 20 25
3 27 25 20
3 27 20 26
3 26 20 22
3 22 23 26
3 23 28 26
3 24 29 28
3 23 24 28
3 27 26 30
3 26 28 31
3 30 26 31
3 28 29 31
3 2 33 32
3 1 2 32
3 1 32 34
3 3 1 34
3 33 2 35
3 35 2 5
3 34 7 3
3 36 7 34
3 7 36 37
3 8 7 37
3 11 39 38
3 10 11 38
3 38 5 10
3 35 5 38
3 37 40 8
3 40 14 8
3 39 11 41
3 41 11 16
3 40 42 14
3 42 19 14
3 41 16 43
3 43 16 21
3 42 44 19
3 44 24 19
3 43 21 25
3 45 43 25
3 25 46 45
3 27 46 25
3 44 47 24
3 47 29 24
3 46 27 30
3 48 46 30
3 48 30 49
3 30 31 49
3 49 31 29
3 47 49 29
3 32 33 50
3 32 50 34
3 51 50 33
3 35 51 33
3 36 34 50
3 36 50 52
3 52 50 51
3 36 52 37
3 38 39 53
3 53 55 54
3 38 53 54
3 38 54 51
3 38 51 35
3 51 56 52
3 54 56 51
3 52 56 57
3 52 57 37
3 37 57 40
3 58 53 39
3 41 58 39
3 55 58 59
3 53 58 55
3 57 60 40
3 60 42 40
3 61 58 41
3 43 61 41
3 59 61 62
3 58 61 59
3 65 63 64
3 64 63 44
3 64 44 60
3 60 44 42
3 61 43 45
3 45 46 66
3 61 45 66
3 61 66 67
3 61 67 62
3 67 63 65
3 67 66 63
3 66 68 63
3 63 68 47
3 44 63 47
3 66 46 48
3 68 66 48
3 49 68 48
3 68 49 47
3 54 55 69
3 56 54 69
3 70 56 69
3 56 70 57
3 71 69 55
3 59 71 55
3 69 71 70
3 70 71 72
3 70 72 60
3 57 70 60
3 73 71 59
3 62 73 59
3 65 64 72
3 65 72 73
3 73 72 71
3 72 64 60
3 73 62 67
3 73 67 65
