ply
format ascii 1.0
element vertex 592
property float x
property float y
property float z
property uchar red
property uchar green
property uchar blue
element face 1168
property list uchar int vertex_indices
end_header
-9.93057441711425781 -9 -9 9 1 6
-9 -9.93057441711425781 -9 11 1 11
-9 -9 -9.93057441711425781 10 0 6
-9.87944316864013672 -9 -8 7 1 8
-9 -9.87944316864013672 -8 3 1 10
-9.58703994750976562 -9 -7 1 1 6
-9 -9.58703994750976562 -7 1 8 8
-9 -9 -6.73604536056518555 1 4 6
-9.52112197875976562 -9 5 5 0 7
-9 -9.52112197875976562 5 2 0 8
-9 -9 4.79658174514770508 0 3 5
-9.87404727935791016 -9 6 7 0 7
-9 -9.87404727935791016 6 5 0 9
-9.92878532409667969 -9 7 8 0 7
-9 -9.92878532409667969 7 7 0 10
-9.95031452178955078 -9 8 9 0 7
-9 -9.95031452178955078 8 8 0 11
-9 -9 8.95031452178955078 7 0 8
-9.92116260528564453 -8 -9 7 0 5
-9 -8 -9.92116260528564453 8 0 4
-9.84293365478515625 -8 -8 6 0 6
-9 -8.32559871673583984 -7 1 4 6
-9 -8 -7.11338376998901367 3 0 6
-9 -8.48607158660888672 5 1 0 6
-9.83333015441894531 -8 6 6 0 6
-9 -8 5.17071008682250977 1 0 5
-9.91876220703125 -8 7 7 0 5
-9.94630241394042969 -8 8 7 0 5
-9 -8 8.94630241394042969 6 0 6
-9.90975093841552734 -7 -9 7 0 4
-9 -7 -9.90975093841552734 7 0 4
-9.78138828277587891 -7 -8 6 0 6
-9 -7 -7.4247746467590332 4 0 6
-9.76174545288085938 -7 6 6 0 6
-9 -7 5.48333024978637695 2 0 5
-9.90648841857910156 -7 7 7 0 5
-9.94191360473632812 -7 8 7 0 4
-9 -7 8.94191360473632812 6 0 5
-9.89590358734130859 -6 -9 8 0 5
-9 -6 -9.89590358734130859 8 0 4
-9.65896224975585938 -6 -8 8 1 8
-9 -6 -7.6959834098815918 5 1 7
-9.6072235107421875 -6 6 8 0 7
-9 -6 5.75570535659790039 4 0 7
-9.89141464233398438 -6 7 8 0 6
-9.93718051910400391 -6 8 8 0 5
-9 -6 8.93718051910400391 7 0 6
-9.87911796569824219 -5 -9 11 1 6
-9 -5 -9.87911796569824219 9 1 4
-9.31054210662841797 -5 -8 11 1 10
-9 -5 -7.93048429489135742 8 1 9
-9.05318546295166016 -5 6 11 0 9
-9 -5 5.99129152297973633 8 1 10
-9.87287139892578125 -5 7 11 0 7
-9.93216419219970703 -5 8 11 0 6
-9 -5 8.93216419219970703 9 0 7
-9.85884857177734375 -4 -9 15 2 8
-9 -4 -9.85884857177734375 12 2 5
-9 -4.65780782699584961 -8 8 1 9
-9 -4 -8.12457466125488281 12 2 8
-9 -4.95754623413085938 6 10 1 10
-9.85007572174072266 -4 7 15 1 9
-9 -4 6.18264293670654297 13 1 12
-9.92695808410644531 -4 8 14 1 8
-9 -4 8.92695808410644531 12 1 9
-9.83455848693847656 -3 -9 19 3 10
-9 -3 -9.83455848693847656 16 3 7
-9 -3 -8.28551101684570312 16 4 11
-9.82215595245361328 -3 7 19 2 11
-9 -3 6.34386920928955078 17 2 14
-9.92168426513671875 -3 8 19 1 10
-9 -3 8.92168426513671875 15 2 12
-9.80582714080810547 -2 -9 23 5 12
-9 -2 -9.80582714080810547 20 5 9
-9 -2 -8.41978740692138672 20 7 14
-9.7882537841796875 -2 7 24 3 13
-9 -2 6.47841739654541016 21 4 16
-9.91648960113525391 -2 8 23 3 13
-9 -2 8.91648960113525391 19 4 15
-9.77253150939941406 -1 -9 28 8 15
-9 -1 -9.77253150939941406 24 9 13
-9 -1 -8.53020858764648438 24 11 18
-9.74772262573242188 -1 7 27 5 15
-9 -1 6.58908462524414062 25 7 18
-9.91153526306152344 -1 8 26 5 16
-9 -1 8.91153526306152344 22 6 19
-9.73510265350341797 0 -9 32 13 20
-9 0 -9.73510265350341797 29 16 19
-9 0 -8.61940288543701172 28 19 23
-9.70048713684082031 0 7 31 8 19
-9 0 6.67849206924438477 28 12 22
-9.90698337554931641 0 8 30 7 20
-9 0 8.90698337554931641 26 10 22
-9.69483280181884766 1 -9 35 20 25
-9 1 -9.69483280181884766 32 24 26
-9 1 -8.68981742858886719 31 28 29
-9.64757156372070312 1 7 33 12 23
-9 1 6.7490839958190918 30 18 26
-9.90297412872314453 1 8 33 11 23
-9 1 8.90297412872314453 30 16 25
-9.65410137176513672 2 -9 37 29 32
-9 2 -9.65410137176513672 36 34 34
-9 2 -8.74370193481445312 34 31 32
-9.59169769287109375 2 7 35 17 26
-9 2 6.80311012268066406 32 24 29
-9.89962100982666016 2 8 35 17 25
-9 2 8.89962100982666016 32 23 28
-9.61633396148681641 3 -9 38 38 38
-9 3 -9.61633396148681641 38 33 34
-9 3 -8.78308486938476562 36 27 30
-9.53763675689697266 3 7 35 23 29
-9 3 6.84260034561157227 32 30 32
-9.89699268341064453 3 8 37 22 28
-9 3 8.89699268341064453 34 29 32
-9.58550548553466797 4 -9 39 33 34
-9 4 -9.58550548553466797 40 29 31
-9 4 -8.80974197387695312 37 23 28
-9.49180412292480469 4 7 35 28 31
-9 4 6.86933088302612305 32 30 31
-9.89512252807617188 4 8 37 28 31
-9 4 8.89512252807617188 35 34 35
-9.56521987915039062 5 -9 38 28 30
-9 5 -9.56521987915039062 40 25 27
-9 5 -8.82515716552734375 36 20 24
-9.46076679229736328 5 7 35 32 33
-9 5 6.88478994369506836 31 25 28
-9.89400386810302734 5 8 37 32 33
-9 5 8.89400386810302734 35 32 33
-9.557708740234375 6 -9 37 24 26
-9 6 -9.557708740234375 39 22 24
-9 6 -8.83049583435058594 35 18 21
-9.44909191131591797 6 7 33 32 32
-9 6 6.89014339447021484 28 21 24
-9.89361000061035156 6 8 36 34 35
-9 6 8.89361000061035156 33 29 30
-9.56325912475585938 7 -9 35 21 22
-9 7 -9.56325912475585938 37 20 22
-9 7 -8.82656955718994141 32 16 18
-9.45772743225097656 7 7 31 28 28
-9 7 6.88620615005493164 26 18 20
-9.89389991760253906 7 8 34 33 33
-9 7 8.89389991760253906 31 26 27
-9.58033561706542969 8 -9 33 19 20
-9 8 -9.58033561706542969 34 19 20
-9 8 -8.81381702423095703 29 14 16
-9.48396110534667969 8 7 29 25 25
-9 8 6.87341737747192383 23 16 18
-9.89482879638671875 8 8 32 29 30
-9 8 8.89482879638671875 28 23 24
-9 8.58033561706542969 -9 29 14 16
-9 8.48396110534667969 7 25 19 20
-9 8.89482879638671875 8 28 23 24
-8 -9.87348842620849609 -9 6 1 10
-8 -9 -9.87348842620849609 8 0 6
-8 -9.04047679901123047 -8 1 4 9
-8.81987667083740234 -9 -7 1 4 6
-8 -9 -7.99352264404296875 0 1 6
-8.86270046234130859 -9 5 1 0 6
-8.04856491088867188 -9 6 4 0 6
-8 -9.86658477783203125 7 2 0 9
-8 -9 6.05171346664428711 1 0 5
-8 -9.930633544921875 8 3 0 9
-8 -9 8.930633544921875 3 0 7
-8 -8 -9.83573246002197266 6 0 4
-8.26831817626953125 -8 -8 3 0 6
-8 -8.97901535034179688 -8 0 1 6
-8 -8 -8.2789306640625 5 0 5
-8.32202339172363281 -8 6 4 0 5
-8 -8 6.33727645874023438 1 0 4
-8 -8 8.92191886901855469 3 0 5
-8 -7 -9.77319145202636719 5 0 3
-8.51654052734375 -7 -8 4 0 6
-8 -7 -8.52835464477539062 5 0 5
-8.56980991363525391 -7 6 4 0 6
-8 -7 6.58722591400146484 2 0 4
-8 -7 8.91162490844726562 3 0 4
-8 -6 -9.65237903594970703 6 0 3
-8.74012184143066406 -6 -8 5 1 7
-8 -6 -8.74569129943847656 5 0 5
-8.793121337890625 -6 6 7 0 7
-8 -6 6.80510473251342773 4 0 5
-8 -6 8.89949131011962891 4 0 5
-8 -5 -9.33085441589355469 7 1 4
-8.93968677520751953 -5 -8 8 1 9
-8 -5 -8.93417930603027344 7 1 6
-8.99251461029052734 -5 6 10 1 10
-8 -5 6.99413013458251953 7 1 7
-8 -5 8.8852386474609375 6 0 6
-8.10819625854492188 -4 -9 12 2 8
-8 -4.59887552261352539 -9 7 1 6
-8.17419910430908203 -4 7 13 1 10
-8 -4.96453428268432617 7 7 1 7
-8 -4 7.15324115753173828 10 1 9
-8 -4 8.86857795715332031 8 1 9
-8.26570224761962891 -3 -9 16 4 11
-8.33122158050537109 -3 7 17 2 12
-8 -3 7.28900718688964844 13 3 12
-8 -3 8.84922885894775391 11 2 11
-8.40062332153320312 -2 -9 20 7 14
-8.46561622619628906 -2 7 20 4 15
-8 -2 7.40431499481201172 16 5 15
-8 -2 8.82695484161376953 14 5 15
-8.51408767700195312 -1 -9 24 11 18
-8.57847309112548828 -1 7 24 7 19
-8 -1 7.50167703628540039 20 9 19
-8 -1 8.80159664154052734 18 8 18
-8.60741043090820312 0 -9 28 19 23
-8.67108154296875 0 7 27 11 23
-8 0 7.58336782455444336 23 15 23
-8 0 8.77313327789306641 23 13 21
-8.68212699890136719 1 -9 31 28 29
-8.74497032165527344 1 7 30 17 26
-8 1 7.65141391754150391 27 22 26
-8 1 8.74175071716308594 27 20 25
-8.73996925354003906 2 -9 34 31 32
-8.80187892913818359 2 7 32 24 29
-8 2 7.70757627487182617 30 29 29
-8 2 8.70794486999511719 30 27 29
-8.78277969360351562 3 -9 36 27 30
-8.84366798400878906 3 7 33 30 32
-8 3 7.75333118438720703 31 28 30
-8 3 8.67263984680175781 32 31 32
-8.81239604949951172 4 -9 37 23 28
-8.87220668792724609 4 7 34 33 33
-8 4 7.78984546661376953 32 26 29
-8 4 8.63733863830566406 33 29 31
-8.83053302764892578 5 -9 36 20 24
-8.88924407958984375 5 7 33 28 30
-8 5 7.81795930862426758 30 23 26
-8 5 8.60424900054931641 33 26 29
-8.83866596221923828 6 -9 35 18 21
-8.89629077911376953 6 7 31 25 26
-8 6 7.83817195892333984 28 20 23
-8 6 8.57631111145019531 30 24 26
-8.83794021606445312 7 -9 32 16 18
-8.89453315734863281 7 7 28 21 23
-8 7 7.85063266754150391 24 17 19
-8 7 8.5569610595703125 27 21 23
-8.82911872863769531 8 -9 29 14 16
-8.88476657867431641 8 7 25 19 20
-8 8 7.85514593124389648 21 15 17
-8 8 8.54949665069580078 24 19 20
-8 8.54949665069580078 8 24 19 20
-7 -9.44764423370361328 -9 3 1 9
-7 -9 -9.44764423370361328 7 0 6
-7.99371671676635742 -9 -8 0 1 6
-7 -9 -8.89168453216552734 3 0 5
-7 -9.26572608947753906 7 0 2 7
-7 -9 6.95150852203369141 0 1 4
-7 -9.88884639739990234 8 0 2 8
-7 -9 8.88884639739990234 0 0 5
-7.17238807678222656 -8 -9 5 0 5
-7 -8.56665325164794922 -9 3 0 5
-7.24564027786254883 -8 7 3 0 5
-7 -8.807647705078125 7 0 0 4
-7 -8 7.19381523132324219 1 0 3
-7 -8 8.86339664459228516 1 0 3
-7.4494476318359375 -7 -9 5 0 5
-7.52214670181274414 -7 7 3 0 4
-7 -7 7.40540361404418945 1 0 2
-7 -7 8.82670974731445312 1 0 2
-7.69898366928100586 -6 -9 5 0 5
-7.77121305465698242 -6 7 4 0 5
-7 -6 7.59080266952514648 1 0 2
-7 -6 8.77010059356689453 1 0 2
-7.92128419876098633 -5 -9 7 1 6
-7.99303817749023438 -5 7 7 1 7
-7 -5 7.75310707092285156 3 0 4
-7 -5 8.67283439636230469 2 0 3
-7 -4 7.89511871337890625 5 1 6
-7 -4 8.47002410888671875 3 1 4
-7.02862358093261719 -3 8 11 2 11
-7 -3.15764284133911133 8 3 1 4
-7.18853330612182617 -2 8 14 5 15
-7.32611417770385742 -1 8 18 8 18
-7.44294595718383789 0 8 23 13 21
-7.54078960418701172 1 8 27 20 25
-7.62150287628173828 2 8 30 27 29
-7.68692207336425781 3 8 32 31 32
-7.73874044418334961 4 8 33 29 31
-7.77839803695678711 5 8 33 26 29
-7.80699825286865234 6 8 30 24 26
-7.82524919509887695 7 8 27 21 23
-7.83342981338500977 8 8 24 19 20
-6.84997081756591797 -9 -9 3 0 5
-6.93339109420776367 -9 7 0 0 4
-6 -9.75837612152099609 8 0 4 6
-6 -9 7.61769485473632812 0 1 2
-6 -9 8.75837612152099609 0 1 3
-6 -8 7.83178138732910156 0 0 0
-6 -8 8.58557510375976562 0 0 0
-6.03841447830200195 -7 8 1 0 2
-6 -7.11884975433349609 8 0 0 0
-6.33330631256103516 -6 8 1 0 2
-6.5968475341796875 -5 8 2 0 3
-6.82927227020263672 -4 8 3 1 4
-5.23608636856079102 -9 8 0 1 3
-5.66066980361938477 -8 8 0 0 0
4.14048337936401367 -9 8 0 0 1
5 -9.77654075622558594 8 1 0 3
5 -9 7.57475471496582031 0 0 0
5 -9 8.77654075622558594 0 0 0
4.73012351989746094 -8 8 0 0 2
5 -8 7.86498928070068359 0 0 0
5 -8 8.53228092193603516 0 0 0
5 -7.49135875701904297 8 0 0 0
5.79845952987670898 -9 -9 0 0 1
6 -9.51572704315185547 -9 3 1 5
6 -9 -9.51572704315185547 4 0 4
6 -9 -8.85720443725585938 1 0 2
5.88372707366943359 -9 7 0 0 0
6 -9.3819427490234375 7 4 0 4
6 -9 6.91692781448364258 1 0 1
6 -9.89158916473388672 8 4 0 5
6 -9 8.89158916473388672 2 0 2
6 -8.54341411590576172 -9 1 0 2
6 -8.73663234710693359 7 1 0 2
6 -8 7.21983957290649414 1 0 1
6 -8 8.85982418060302734 1 0 1
5.20932388305664062 -7 8 0 0 0
6 -7 7.48700046539306641 2 0 2
6 -7 8.80592441558837891 2 0 2
5.58206462860107422 -6 8 2 0 4
6 -6 7.72246885299682617 4 0 5
6 -6 8.697357177734375 4 0 5
5.89451169967651367 -5 8 5 1 8
6 -5 7.92820835113525391 8 1 9
6 -5 8.37856864929199219 8 0 9
6 -4.60062074661254883 8 8 0 9
7 -9.87529373168945312 -9 6 1 7
7 -9 -9.87529373168945312 5 0 4
6.97423267364501953 -9 -8 0 1 1
7 -9.14463138580322266 -8 1 1 5
7 -9 -7.97399616241455078 0 0 3
7 -9.86860561370849609 7 6 0 4
7 -9 6.03314876556396484 2 0 2
7 -9.93111705780029297 8 7 0 4
7 -9 8.93111705780029297 4 0 3
6.20242691040039062 -8 -9 0 0 1
7 -8 -9.83316326141357422 4 0 3
7 -8.92453765869140625 -8 0 0 3
7 -8 -8.2931976318359375 2 0 3
6.2743377685546875 -8 7 1 0 1
7 -8 6.35157012939453125 2 0 2
7 -8 8.92140769958496094 3 0 2
6.52816104888916016 -7 -9 1 0 2
7 -7 -9.75601863861083984 4 0 2
7 -7 -8.57312774658203125 2 0 3
6.59669876098632812 -7 7 2 0 2
7 -7 6.63210487365722656 3 0 3
7 -7 8.90941238403320312 3 0 2
6.80305147171020508 -6 -9 3 1 5
7 -6 -9.57486629486083984 5 0 3
7 -6 -8.81801605224609375 4 0 5
6.8686528205871582 -6 7 4 0 5
7 -6 6.87762832641601562 5 0 5
7 -6 8.89452552795410156 5 0 4
7 -5.1458735466003418 -9 4 0 5
7 -5.4305567741394043 7 5 0 4
7 -5 7.08849048614501953 8 0 7
7 -5 8.8759918212890625 8 0 6
6.13644313812255859 -4 8 14 1 13
7 -4 7.26625537872314453 12 1 9
7 -4 8.85290622711181641 12 1 8
6.32518959045410156 -3 8 18 2 16
7 -3 7.4161524772644043 16 2 10
7 -3 8.82425022125244141 16 2 10
6.47732114791870117 -2 8 22 3 17
7 -2 7.54062843322753906 20 3 11
7 -2 8.78903675079345703 20 3 11
6.59783840179443359 -1 8 25 4 17
7 -1 7.64200305938720703 24 4 12
7 -1 8.74662971496582031 23 4 12
6.69120311737060547 0 8 27 5 17
7 0 7.72249269485473633 26 7 12
7 0 8.69734001159667969 26 6 14
6.76130580902099609 1 8 28 7 16
7 1 7.78421401977539062 28 9 14
7 1 8.64329147338867188 27 9 15
6.81146478652954102 2 8 28 9 16
7 2 7.82917928695678711 29 12 15
7 2 8.58922863006591797 29 12 17
6.84444046020507812 3 8 27 11 16
7 3 7.85927486419677734 29 15 18
7 3 8.54243659973144531 29 15 19
6.86246347427368164 4 8 25 13 17
7 4 7.87623310089111328 28 18 20
7 4 8.51088237762451172 29 19 21
6.86725997924804688 5 8 23 15 17
7 5 7.88160037994384766 26 20 21
7 5 8.49994182586669922 28 21 22
6.860076904296875 6 8 21 16 17
7 6 7.87669992446899414 23 21 21
7 6 8.50994968414306641 26 22 23
6.84170150756835938 7 8 19 17 17
7 7 7.86259555816650391 21 21 21
7 7 8.536590576171875 24 22 22
6.81247854232788086 8 8 17 17 17
7 8 7.84006023406982422 19 17 17
7 8 8.57349109649658203 21 21 21
7 8.57349109649658203 8 21 21 21
8 -9.93049144744873047 -9 8 1 7
8 -9 -9.93049144744873047 7 0 3
8 -9.87916469573974609 -8 4 1 7
7.81890106201171875 -9 -7 0 1 1
8 -9.58343601226806641 -7 1 2 5
8 -9 -6.74000740051269531 0 1 3
7.86260271072387695 -9 5 1 0 2
8 -9.51624679565429688 5 5 0 5
8 -9 4.80057048797607422 1 0 2
7.03171253204345703 -9 6 2 0 2
8 -9.87374114990234375 6 6 0 4
8 -9.92869758605957031 7 7 0 4
8 -9.95027828216552734 8 8 0 4
8 -9 8.95027828216552734 5 0 2
8 -8 -9.9212493896484375 4 0 2
7.27791643142700195 -8 -8 0 0 2
8 -8.32332229614257812 -7 0 1 3
8 -8 -7.11058473587036133 1 0 2
8 -8.48674583435058594 5 3 0 3
7.33075904846191406 -8 6 2 0 2
8 -8 5.16790008544921875 2 0 2
8 -8 8.94633769989013672 3 0 2
8 -7 -9.91012763977050781 4 0 2
7.53430032730102539 -7 -8 0 0 2
8 -7 -7.41599607467651367 1 0 2
7.5848698616027832 -7 6 3 0 3
8 -7 5.47451543807983398 2 0 2
8 -7 8.94205093383789062 3 0 1
8 -6 -9.89675045013427734 4 0 2
7.75056743621826172 -6 -8 1 1 4
8 -6 -7.68181276321411133 2 0 3
7.79921913146972656 -6 6 5 0 5
8 -6 5.74147176742553711 4 0 3
8 -6 8.93745326995849609 4 0 2
7.03033542633056641 -5 -9 8 1 8
8 -5 -9.88069438934326172 6 1 3
7.93179798126220703 -5 -8 3 1 8
8 -5 -7.91163015365600586 4 1 5
7.97885656356811523 -5 6 9 0 8
8 -5 5.97234773635864258 6 0 4
7.08950519561767578 -5 7 8 0 7
8 -5 8.93260574340820312 6 0 3
7.20871591567993164 -4 -9 12 2 11
8 -4 -9.86151409149169922 8 1 4
8 -4.55566120147705078 -8 4 1 5
8 -4 -8.10307693481445312 8 2 6
8 -4.86229991912841797 6 6 0 4
7.26595497131347656 -4 7 12 1 9
8 -4 6.16110897064208984 9 1 5
8 -4 8.9275970458984375 8 1 4
7.35571575164794922 -3 -9 16 4 14
8 -3 -9.83878612518310547 12 3 6
8 -3 -8.26132583618164062 12 4 8
7.41141176223754883 -3 7 16 2 10
8 -3 6.31963777542114258 13 2 6
8 -3 8.92253684997558594 12 1 5
7.4758143424987793 -2 -9 20 7 16
8 -2 -9.81219482421875 16 6 8
8 -2 -8.39385700225830078 16 7 11
7.53032255172729492 -2 7 20 3 11
8 -2 6.45243263244628906 17 3 7
8 -2 8.91755771636962891 15 3 7
7.57297563552856445 -1 -9 23 11 19
8 -1 -9.78165817260742188 20 10 12
8 -1 -8.50351428985595703 20 11 15
7.62662076950073242 -1 7 24 4 12
8 -1 6.56232833862304688 21 5 8
8 -1 8.91279697418212891 19 4 9
7.65064716339111328 0 -9 26 16 21
8 0 -9.74750804901123047 24 15 16
8 0 -8.59293460845947266 24 17 19
7.70372819900512695 0 7 26 7 12
8 0 6.65195894241333008 24 8 10
8 0 8.90839099884033203 22 7 11
7.7117767333984375 1 -9 29 21 24
8 1 -9.71068477630615234 28 21 22
8 1 -8.66454982757568359 27 24 25
7.76456975936889648 1 7 28 9 14
8 1 6.72375202178955078 27 11 13
8 1 8.90445899963378906 26 10 14
7.75883340835571289 2 -9 30 27 28
8 2 -9.67290496826171875 32 29 29
8 2 -8.72056293487548828 31 30 30
7.81159353256225586 2 7 29 12 15
8 2 6.77990961074829102 29 15 16
8 2 8.90109348297119141 29 14 17
7.79382991790771484 3 -9 31 30 30
8 3 -9.63667964935302734 35 35 35
8 3 -8.7629241943359375 33 28 29
7.84679222106933594 3 7 29 15 18
8 3 6.82238388061523438 30 19 20
8 3 8.89835834503173828 31 19 20
7.81834268569946289 4 -9 31 25 26
8 4 -9.60509586334228516 37 32 33
8 4 -8.79330062866210938 34 26 27
7.87172174453735352 4 7 28 18 20
8 4 6.8528437614440918 30 22 23
8 4 8.89628505706787109 32 22 23
7.83352184295654297 5 -9 30 21 22
8 5 -9.58132553100585938 37 29 29
8 5 -8.81304454803466797 34 23 24
7.88751363754272461 5 7 26 20 21
8 5 6.87264251708984375 29 24 24
8 5 8.89488506317138672 32 25 25
7.84010219573974609 6 -9 28 16 18
8 6 -9.56796073913574219 36 25 26
8 6 -8.82316207885742188 32 19 20
7.89487886428833008 6 7 23 21 21
8 6 6.88278913497924805 26 24 24
8 6 8.8941497802734375 30 26 26
7.83840560913085938 7 -9 25 13 14
8 7 -9.56641197204589844 34 22 22
8 7 -8.82429313659667969 29 16 17
7.89411497116088867 7 7 21 21 21
8 7 6.88392257690429688 23 22 22
8 7 8.89406776428222656 28 25 25
7.82834529876708984 8 -9 23 11 12
8 8 -9.57661151885986328 30 19 19
8 8 -8.81668853759765625 26 14 15
7.88510704040527344 8 7 19 17 17
8 8 6.8762969970703125 20 20 20
8 8 8.89462184906005859 25 23 23
8 8.57661151885986328 -9 26 14 15
8 8.47828292846679688 7 22 22 22
8 8.89462184906005859 8 25 23 23
8.93049144744873047 -9 -9 5 0 4
8.87916469573974609 -9 -8 2 0 4
8.58343601226806641 -9 -7 0 1 3
8.51624679565429688 -9 5 3 0 3
8.87374114990234375 -9 6 3 0 2
8.92869758605957031 -9 7 4 0 2
8.95027828216552734 -9 8 5 0 2
8.9212493896484375 -8 -9 3 0 3
8.84331893920898438 -8 -8 1 0 2
8.83376693725585938 -8 6 2 0 1
8.91885471343994141 -8 7 3 0 1
8.94633769989013672 -8 8 3 0 2
8.91012763977050781 -7 -9 3 0 2
8.78383922576904297 -7 -8 1 0 2
8.76467132568359375 -7 6 2 0 2
8.90689563751220703 -7 7 3 0 1
8.94205093383789062 -7 8 3 0 1
8.89675045013427734 -6 -9 4 0 3
8.66886520385742188 -6 -8 2 0 3
8.62037086486816406 -6 6 4 0 2
8.89234256744384766 -6 7 4 0 2
8.93745326995849609 -6 8 4 0 2
8.88069438934326172 -5 -9 6 1 4
8.36374473571777344 -5 -8 4 1 5
8.15117549896240234 -5 6 6 0 4
8.87462615966796875 -5 7 6 0 3
8.93260574340820312 -5 8 6 0 3
8.86151409149169922 -4 -9 8 2 6
8.85309886932373047 -4 7 9 1 4
8.9275970458984375 -4 8 8 1 4
8.83878612518310547 -3 -9 12 4 8
8.82706356048583984 -3 7 13 1 5
8.92253684997558594 -3 8 12 1 5
8.81219482421875 -2 -9 16 7 11
8.79585075378417969 -2 7 17 3 7
8.91755771636962891 -2 8 15 3 7
8.78165817260742188 -1 -9 20 11 15
8.75896930694580078 -1 7 20 5 8
8.91279697418212891 -1 8 19 4 9
8.74750804901123047 0 -9 24 17 19
8.71634578704833984 0 7 24 7 11
8.90839099884033203 0 8 22 7 11
8.71068477630615234 1 -9 27 24 25
8.66866970062255859 1 7 27 11 14
8.90445899963378906 1 8 26 10 14
8.67290496826171875 2 -9 31 30 30
8.61779499053955078 2 7 29 15 17
8.90109348297119141 2 8 29 14 17
8.63667964935302734 3 -9 33 28 29
8.56703758239746094 3 7 31 19 21
8.89835834503173828 3 8 31 19 20
8.60509586334228516 4 -9 34 26 27
8.52111148834228516 4 7 31 23 23
8.89628505706787109 4 8 32 22 23
8.58132553100585938 5 -9 34 23 24
8.48546695709228516 5 7 30 25 25
8.89488506317138672 5 8 32 25 25
8.56796073913574219 6 -9 32 19 20
8.46500110626220703 6 7 28 25 25
8.8941497802734375 6 8 30 26 26
8.56641197204589844 7 -9 29 16 17
8.46261024475097656 7 7 25 24 24
8.89406776428222656 7 8 28 25 25
8.57661151885986328 8 -9 26 14 15
8.47828292846679688 8 7 22 22 22
8.89462184906005859 8 8 25 23 23
3 2 1 0
3 1 4 3
3 0 1 3
3 4 6 5
3 3 4 5
3 6 7 5
3 10 9 8
3 9 12 11
3 8 9 11
3 12 14 13
3 11 12 13
3 14 16 15
3 13 14 15
3 16 17 15
3 19 2 0
3 18 19 0
3 0 3 18
3 3 20 18
3 21 22 20
3 21 20 5
3 5 20 3
3 5 7 21
3 10 8 23
3 25 23 8
3 25 8 24
3 24 8 11
3 11 13 24
3 13 26 24
3 13 15 26
3 15 27 26
3 17 28 27
3 15 17 27
3 30 19 18
3 29 30 18
3 18 20 29
3 20 31 29
3 22 32 31
3 20 22 31
3 34 25 24
3 33 34 24
3 24 26 33
3 26 35 33
3 26 27 35
3 27 36 35
3 28 37 36
3 27 28 36
3 39 30 29
3 38 39 29
3 29 31 38
3 31 40 38
3 32 41 40
3 31 32 40
3 43 34 33
3 42 43 33
3 33 35 42
3 35 44 42
3 35 36 44
3 36 45 44
3 37 46 45
3 36 37 45
3 48 39 38
3 47 48 38
3 38 40 47
3 40 49 47
3 41 50 49
3 40 41 49
3 52 43 42
3 51 52 42
3 42 44 51
3 44 53 51
3 44 45 53
3 45 54 53
3 46 55 54
3 45 46 54
3 57 48 47
3 56 57 47
3 58 59 56
3 58 56 49
3 49 56 47
3 49 50 58
3 52 51 60
3 62 60 51
3 62 51 61
3 61 51 53
3 53 54 61
3 54 63 61
3 55 64 63
3 54 55 63
3 66 57 56
3 65 66 56
3 59 67 65
3 56 59 65
3 69 62 61
3 68 69 61
3 61 63 68
3 63 70 68
3 64 71 70
3 63 64 70
3 73 66 65
3 72 73 65
3 67 74 72
3 65 67 72
3 76 69 68
3 75 76 68
3 68 70 75
3 70 77 75
3 71 78 77
3 70 71 77
3 80 73 72
3 79 80 72
3 74 81 79
3 72 74 79
3 83 76 75
3 82 83 75
3 75 77 82
3 77 84 82
3 78 85 84
3 77 78 84
3 87 80 79
3 86 87 79
3 81 88 86
3 79 81 86
3 90 83 82
3 89 90 82
3 82 84 89
3 84 91 89
3 85 92 91
3 84 85 91
3 94 87 86
3 93 94 86
3 88 95 93
3 86 88 93
3 97 90 89
3 96 97 89
3 89 91 96
3 91 98 96
3 92 99 98
3 91 92 98
3 101 94 93
3 100 101 93
3 95 102 100
3 93 95 100
3 104 97 96
3 103 104 96
3 96 98 103
3 98 105 103
3 99 106 105
3 98 99 105
3 108 101 100
3 107 108 100
3 102 109 107
3 100 102 107
3 111 104 103
3 110 111 103
3 103 105 110
3 105 112 110
3 106 113 112
3 105 106 112
3 115 108 107
3 114 115 107
3 109 116 114
3 107 109 114
3 118 111 110
3 117 118 110
3 110 112 117
3 112 119 117
3 113 120 119
3 112 113 119
3 122 115 114
3 121 122 114
3 116 123 121
3 114 116 121
3 125 118 117
3 124 125 117
3 117 119 124
3 119 126 124
3 120 127 126
3 119 120 126
3 129 122 121
3 128 129 121
3 123 130 128
3 121 123 128
3 132 125 124
3 131 132 124
3 124 126 131
3 126 133 131
3 127 134 133
3 126 127 133
3 136 129 128
3 135 136 128
3 130 137 135
3 128 130 135
3 139 132 131
3 138 139 131
3 131 133 138
3 133 140 138
3 134 141 140
3 133 134 140
3 143 136 135
3 142 143 135
3 137 144 142
3 135 137 142
3 146 139 138
3 145 146 138
3 138 140 145
3 140 147 145
3 141 148 147
3 140 141 147
3 143 142 149
3 142 144 149
3 146 145 150
3 145 147 151
3 150 145 151
3 147 148 151
3 2 153 152
3 1 2 152
3 152 154 1
3 1 154 4
3 156 155 6
3 156 6 154
3 154 6 4
3 6 155 7
3 9 10 157
3 12 9 157
3 158 12 157
3 158 160 159
3 158 159 12
3 12 159 14
3 159 161 14
3 14 161 16
3 16 161 162
3 17 16 162
3 153 2 163
3 163 2 19
3 166 164 165
3 155 22 21
3 156 22 155
3 156 164 22
3 156 165 164
3 155 21 7
3 157 10 23
3 23 25 167
3 23 167 157
3 157 167 158
3 160 167 168
3 158 167 160
3 162 169 17
3 169 28 17
3 163 19 170
3 170 19 30
3 172 164 166
3 171 164 172
3 164 171 32
3 22 164 32
3 173 167 25
3 34 173 25
3 168 173 174
3 167 173 168
3 169 175 28
3 175 37 28
3 170 30 176
3 176 30 39
3 178 171 172
3 177 171 178
3 171 177 41
3 32 171 41
3 179 173 34
3 43 179 34
3 174 179 180
3 173 179 174
3 175 181 37
3 181 46 37
3 176 39 182
3 182 39 48
3 184 177 178
3 183 177 184
3 177 183 50
3 41 177 50
3 185 179 43
3 52 185 43
3 180 185 186
3 179 185 180
3 181 187 46
3 187 55 46
3 188 189 182
3 188 182 57
3 57 182 48
3 183 59 58
3 184 59 183
3 184 188 59
3 184 189 188
3 183 58 50
3 185 52 60
3 60 62 190
3 185 60 190
3 185 190 191
3 185 191 186
3 191 190 192
3 187 193 55
3 193 64 55
3 194 188 57
3 66 194 57
3 188 194 67
3 59 188 67
3 195 190 62
3 69 195 62
3 192 195 196
3 190 195 192
3 193 197 64
3 197 71 64
3 198 194 66
3 73 198 66
3 194 198 74
3 67 194 74
3 199 195 69
3 76 199 69
3 196 199 200
3 195 199 196
3 197 201 71
3 201 78 71
3 202 198 73
3 80 202 73
3 198 202 81
3 74 198 81
3 203 199 76
3 83 203 76
3 200 203 204
3 199 203 200
3 201 205 78
3 205 85 78
3 206 202 80
3 87 206 80
3 202 206 88
3 81 202 88
3 207 203 83
3 90 207 83
3 204 207 208
3 203 207 204
3 205 209 85
3 209 92 85
3 210 206 87
3 94 210 87
3 206 210 95
3 88 206 95
3 211 207 90
3 97 211 90
3 208 211 212
3 207 211 208
3 209 213 92
3 213 99 92
3 214 210 94
3 101 214 94
3 210 214 102
3 95 210 102
3 215 211 97
3 104 215 97
3 212 215 216
3 211 215 212
3 213 217 99
3 217 106 99
3 218 214 101
3 108 218 101
3 214 218 109
3 102 214 109
3 219 215 104
3 111 219 104
3 216 219 220
3 215 219 216
3 217 221 106
3 221 113 106
3 222 218 108
3 115 222 108
3 218 222 116
3 109 218 116
3 223 219 111
3 118 223 111
3 220 223 224
3 219 223 220
3 221 225 113
3 225 120 113
3 226 222 115
3 122 226 115
3 222 226 123
3 116 222 123
3 227 223 118
3 125 227 118
3 224 227 228
3 223 227 224
3 225 229 120
3 229 127 120
3 230 226 122
3 129 230 122
3 226 230 130
3 123 226 130
3 231 227 125
3 132 231 125
3 228 231 232
3 227 231 228
3 229 233 127
3 233 134 127
3 234 230 129
3 136 234 129
3 230 234 137
3 130 230 137
3 235 231 132
3 139 235 132
3 232 235 236
3 231 235 232
3 233 237 134
3 237 141 134
3 238 234 136
3 143 238 136
3 234 238 144
3 137 234 144
3 239 235 139
3 146 239 139
3 236 239 240
3 235 239 236
3 237 241 141
3 241 148 141
3 238 143 149
3 238 149 144
3 239 146 150
3 240 239 150
3 240 150 242
3 242 150 151
3 242 151 148
3 241 242 148
3 153 244 243
3 152 153 243
3 246 245 154
3 246 154 243
3 243 154 152
3 154 245 156
3 160 248 247
3 159 160 247
3 247 249 159
3 159 249 161
3 161 249 250
3 162 161 250
3 251 252 244
3 251 244 163
3 163 244 153
3 245 166 165
3 246 166 245
3 246 251 166
3 246 252 251
3 245 165 156
3 253 254 248
3 253 248 168
3 168 248 160
3 254 253 255
3 250 256 162
3 256 169 162
3 257 251 163
3 170 257 163
3 251 257 172
3 166 251 172
3 258 253 168
3 174 258 168
3 255 258 259
3 253 258 255
3 256 260 169
3 260 175 169
3 261 257 170
3 176 261 170
3 257 261 178
3 172 257 178
3 262 258 174
3 180 262 174
3 259 262 263
3 258 262 259
3 260 264 175
3 264 181 175
3 265 261 176
3 182 265 176
3 261 265 184
3 178 261 184
3 266 262 180
3 186 266 180
3 263 266 267
3 262 266 263
3 264 268 181
3 268 187 181
3 265 182 189
3 265 189 184
3 266 186 191
3 191 267 266
3 191 192 267
3 192 269 267
3 268 270 187
3 270 193 187
3 271 272 269
3 271 269 196
3 196 269 192
3 272 271 197
3 272 197 270
3 270 197 193
3 273 271 196
3 200 273 196
3 271 273 201
3 197 271 201
3 274 273 200
3 204 274 200
3 273 274 205
3 201 273 205
3 275 274 204
3 208 275 204
3 274 275 209
3 205 274 209
3 276 275 208
3 212 276 208
3 275 276 213
3 209 275 213
3 277 276 212
3 216 277 212
3 276 277 217
3 213 276 217
3 278 277 216
3 220 278 216
3 277 278 221
3 217 277 221
3 279 278 220
3 224 279 220
3 278 279 225
3 221 278 225
3 280 279 224
3 228 280 224
3 279 280 229
3 225 279 229
3 281 280 228
3 232 281 228
3 280 281 233
3 229 280 233
3 282 281 232
3 236 282 232
3 281 282 237
3 233 281 237
3 283 282 236
3 240 283 236
3 282 283 241
3 237 282 241
3 283 240 242
3 283 242 241
3 243 244 284
3 243 284 246
3 247 248 285
3 285 287 286
3 285 286 247
3 247 286 249
3 249 286 288
3 250 249 288
3 284 244 252
3 284 252 246
3 285 248 254
3 254 287 285
3 254 255 287
3 255 289 287
3 288 290 250
3 290 256 250
3 291 292 289
3 291 289 259
3 259 289 255
3 292 291 260
3 292 260 290
3 290 260 256
3 293 291 259
3 263 293 259
3 291 293 264
3 260 291 264
3 294 293 263
3 267 294 263
3 293 294 268
3 264 293 268
3 295 294 267
3 269 295 267
3 294 295 270
3 268 294 270
3 295 269 272
3 295 272 270
3 286 287 296
3 286 296 288
3 297 296 287
3 289 297 287
3 296 297 290
3 288 296 290
3 297 289 292
3 297 292 290
3 300 299 298
3 299 301 298
3 303 300 298
3 302 303 298
3 301 304 302
3 298 301 302
3 303 302 305
3 302 304 305
3 308 307 306
3 307 309 306
3 312 311 310
3 300 310 311
3 300 311 299
3 299 311 313
3 299 313 314
3 301 299 314
3 308 306 315
3 306 309 315
3 312 310 316
3 310 317 316
3 310 300 317
3 300 303 317
3 314 318 301
3 318 304 301
3 305 319 320
3 305 320 303
3 303 320 317
3 319 305 304
3 319 304 321
3 321 304 318
3 323 320 319
3 322 323 319
3 321 324 322
3 319 321 322
3 326 323 322
3 325 326 322
3 324 327 325
3 322 324 325
3 326 325 328
3 325 327 328
3 308 330 329
3 307 308 329
3 331 309 307
3 331 307 332
3 332 307 329
3 332 333 331
3 312 335 334
3 311 312 334
3 334 336 311
3 311 336 313
3 313 336 337
3 314 313 337
3 315 338 339
3 315 339 308
3 308 339 330
3 338 340 341
3 315 340 338
3 315 331 340
3 315 309 331
3 331 333 340
3 316 342 343
3 316 343 312
3 312 343 335
3 316 317 342
3 337 344 314
3 344 318 314
3 346 339 338
3 345 346 338
3 341 347 345
3 338 341 345
3 349 343 342
3 348 349 342
3 342 320 348
3 317 320 342
3 344 350 318
3 350 321 318
3 352 346 345
3 351 352 345
3 347 353 351
3 345 347 351
3 355 349 348
3 354 355 348
3 348 323 354
3 320 323 348
3 350 356 321
3 356 324 321
3 352 351 357
3 351 353 357
3 355 354 358
3 354 359 358
3 354 323 359
3 323 326 359
3 356 360 324
3 360 327 324
3 328 361 362
3 328 362 326
3 326 362 359
3 361 328 327
3 361 327 363
3 363 327 360
3 365 362 361
3 364 365 361
3 363 366 364
3 361 363 364
3 368 365 364
3 367 368 364
3 366 369 367
3 364 366 367
3 371 368 367
3 370 371 367
3 369 372 370
3 367 369 370
3 374 371 370
3 373 374 370
3 372 375 373
3 370 372 373
3 377 374 373
3 376 377 373
3 375 378 376
3 373 375 376
3 380 377 376
3 379 380 376
3 378 381 379
3 376 378 379
3 383 380 379
3 382 383 379
3 381 384 382
3 379 381 382
3 386 383 382
3 385 386 382
3 384 387 385
3 382 384 385
3 389 386 385
3 388 389 385
3 387 390 388
3 385 387 388
3 392 389 388
3 391 392 388
3 390 393 391
3 388 390 391
3 395 392 391
3 394 395 391
3 393 396 394
3 391 393 394
3 398 395 394
3 397 398 394
3 396 399 397
3 394 396 397
3 398 397 400
3 397 399 400
3 330 402 401
3 329 330 401
3 401 403 329
3 329 403 332
3 404 333 332
3 404 332 405
3 405 332 403
3 405 406 404
3 409 408 407
3 408 411 410
3 407 408 410
3 335 410 411
3 335 411 334
3 334 411 412
3 412 413 334
3 334 413 336
3 336 413 414
3 337 336 414
3 402 330 415
3 415 330 339
3 340 416 341
3 416 417 418
3 340 417 416
3 340 404 417
3 340 333 404
3 404 406 417
3 409 407 419
3 421 419 407
3 421 407 420
3 420 407 410
3 410 343 420
3 335 343 410
3 414 422 337
3 422 344 337
3 415 339 423
3 423 339 346
3 424 341 416
3 347 341 424
3 418 425 424
3 416 418 424
3 427 421 420
3 426 427 420
3 420 349 426
3 343 349 420
3 422 428 344
3 428 350 344
3 423 346 429
3 429 346 352
3 430 347 424
3 353 347 430
3 425 431 430
3 424 425 430
3 433 427 426
3 432 433 426
3 426 355 432
3 349 355 426
3 428 434 350
3 434 356 350
3 357 435 436
3 357 436 352
3 352 436 429
3 353 435 357
3 353 430 435
3 430 437 435
3 431 438 437
3 430 431 437
3 440 433 432
3 439 440 432
3 358 432 355
3 358 441 432
3 441 439 432
3 358 359 441
3 434 442 356
3 442 360 356
3 444 436 435
3 443 444 435
3 445 446 443
3 445 443 437
3 437 443 435
3 437 438 445
3 440 439 447
3 449 447 439
3 449 439 448
3 448 439 441
3 441 362 448
3 359 362 441
3 442 450 360
3 450 363 360
3 452 444 443
3 451 452 443
3 446 453 451
3 443 446 451
3 455 449 448
3 454 455 448
3 448 365 454
3 362 365 448
3 450 456 363
3 456 366 363
3 458 452 451
3 457 458 451
3 453 459 457
3 451 453 457
3 461 455 454
3 460 461 454
3 454 368 460
3 365 368 454
3 456 462 366
3 462 369 366
3 464 458 457
3 463 464 457
3 459 465 463
3 457 459 463
3 467 461 460
3 466 467 460
3 460 371 466
3 368 371 460
3 462 468 369
3 468 372 369
3 470 464 463
3 469 470 463
3 465 471 469
3 463 465 469
3 473 467 466
3 472 473 466
3 466 374 472
3 371 374 466
3 468 474 372
3 474 375 372
3 476 470 469
3 475 476 469
3 471 477 475
3 469 471 475
3 479 473 472
3 478 479 472
3 472 377 478
3 374 377 472
3 474 480 375
3 480 378 375
3 482 476 475
3 481 482 475
3 477 483 481
3 475 477 481
3 485 479 478
3 484 485 478
3 478 380 484
3 377 380 478
3 480 486 378
3 486 381 378
3 488 482 481
3 487 488 481
3 483 489 487
3 481 483 487
3 491 485 484
3 490 491 484
3 484 383 490
3 380 383 484
3 486 492 381
3 492 384 381
3 494 488 487
3 493 494 487
3 489 495 493
3 487 489 493
3 497 491 490
3 496 497 490
3 490 386 496
3 383 386 490
3 492 498 384
3 498 387 384
3 500 494 493
3 499 500 493
3 495 501 499
3 493 495 499
3 503 497 496
3 502 503 496
3 496 389 502
3 386 389 496
3 498 504 387
3 504 390 387
3 506 500 499
3 505 506 499
3 501 507 505
3 499 501 505
3 509 503 502
3 508 509 502
3 502 392 508
3 389 392 502
3 504 510 390
3 510 393 390
3 512 506 505
3 511 512 505
3 507 513 511
3 505 507 511
3 515 509 508
3 514 515 508
3 508 395 514
3 392 395 508
3 510 516 393
3 516 396 393
3 518 512 511
3 517 518 511
3 513 519 517
3 511 513 517
3 521 515 514
3 520 521 514
3 514 398 520
3 395 398 514
3 516 522 396
3 522 399 396
3 518 517 523
3 517 519 523
3 521 520 524
3 520 398 400
3 520 400 524
3 524 400 525
3 525 400 399
3 522 525 399
3 401 402 526
3 403 401 526
3 527 403 526
3 405 403 527
3 528 405 527
3 405 528 406
3 408 409 529
3 411 408 529
3 530 411 529
3 412 411 530
3 531 412 530
3 413 412 531
3 532 413 531
3 413 532 414
3 533 526 402
3 415 533 402
3 526 533 527
3 527 533 534
3 418 417 528
3 418 528 534
3 534 528 527
3 528 417 406
3 529 409 419
3 419 421 535
3 419 535 529
3 529 535 530
3 530 535 531
3 531 535 536
3 531 536 532
3 532 536 537
3 532 537 422
3 414 532 422
3 538 533 415
3 423 538 415
3 533 538 534
3 534 538 539
3 534 539 425
3 418 534 425
3 540 535 421
3 427 540 421
3 535 540 536
3 536 540 541
3 536 541 537
3 537 541 542
3 537 542 428
3 422 537 428
3 543 538 423
3 429 543 423
3 538 543 539
3 539 543 544
3 539 544 431
3 425 539 431
3 545 540 427
3 433 545 427
3 540 545 541
3 541 545 546
3 541 546 542
3 542 546 547
3 542 547 434
3 428 542 434
3 548 543 429
3 436 548 429
3 543 548 544
3 544 548 549
3 544 549 438
3 431 544 438
3 550 545 433
3 440 550 433
3 545 550 546
3 546 550 551
3 546 551 547
3 547 551 552
3 547 552 442
3 434 547 442
3 553 548 436
3 444 553 436
3 446 445 549
3 446 549 553
3 553 549 548
3 549 445 438
3 550 440 447
3 447 449 554
3 447 554 550
3 550 554 551
3 551 554 552
3 552 554 555
3 552 555 450
3 442 552 450
3 556 553 444
3 452 556 444
3 553 556 453
3 446 553 453
3 557 554 449
3 455 557 449
3 554 557 555
3 555 557 558
3 555 558 456
3 450 555 456
3 559 556 452
3 458 559 452
3 556 559 459
3 453 556 459
3 560 557 455
3 461 560 455
3 557 560 558
3 558 560 561
3 558 561 462
3 456 558 462
3 562 559 458
3 464 562 458
3 559 562 465
3 459 559 465
3 563 560 461
3 467 563 461
3 560 563 561
3 561 563 564
3 561 564 468
3 462 561 468
3 565 562 464
3 470 565 464
3 562 565 471
3 465 562 471
3 566 563 467
3 473 566 467
3 563 566 564
3 564 566 567
3 564 567 474
3 468 564 474
3 568 565 470
3 476 568 470
3 565 568 477
3 471 565 477
3 569 566 473
3 479 569 473
3 566 569 567
3 567 569 570
3 567 570 480
3 474 567 480
3 571 568 476
3 482 571 476
3 568 571 483
3 477 568 483
3 572 569 479
3 485 572 479
3 569 572 570
3 570 572 573
3 570 573 486
3 480 570 486
3 574 571 482
3 488 574 482
3 571 574 489
3 483 571 489
3 575 572 485
3 491 575 485
3 572 575 573
3 573 575 576
3 573 576 492
3 486 573 492
3 577 574 488
3 494 577 488
3 574 577 495
3 489 574 495
3 578 575 491
3 497 578 491
3 575 578 576
3 576 578 579
3 576 579 498
3 492 576 498
3 580 577 494
3 500 580 494
3 577 580 501
3 495 577 501
3 581 578 497
3 503 581 497
3 578 581 579
3 579 581 582
3 579 582 504
3 498 579 504
3 583 580 500
3 506 583 500
3 580 583 507
3 501 580 507
3 584 581 503
3 509 584 503
3 581 584 582
3 582 584 585
3 582 585 510
3 504 582 510
3 586 583 506
3 512 586 506
3 583 586 513
3 507 583 513
3 587 584 509
3 515 587 509
3 584 587 585
3 585 587 588
3 585 588 516
3 510 585 516
3 589 586 512
3 518 589 512
3 586 589 519
3 513 586 519
3 590 587 515
3 521 590 515
3 587 590 588
3 588 590 591
3 588 591 522
3 516 588 522
3 589 518 523
3 589 523 519
3 590 521 524
3 591 590 524
3 525 591 524
3 591 525 522
