ply
format ascii 1.0
element vertex 538
property float x
property float y
property float z
property uchar red
property uchar green
property uchar blue
element face 1076
property list uchar int vertex_indices
end_header
-9.76397323608398438 1 -5 78 178 158
-9 0.907541453838348389 -5 40 74 72
-9 1 -5.04721307754516602 49 111 120
-9 1 -4.97263765335083008 21 45 44
-9.95230960845947266 2 -5 89 192 170
-9 2 -5.1556849479675293 63 142 152
-9 2 -4.58309412002563477 7 17 18
-9 2.39955282211303711 -5 7 17 18
-9.9730987548828125 3 -4 72 174 143
-9 2.43568944931030273 -4 77 140 128
-9 3 -4.54657316207885742 36 95 97
-9 3 -3.22740411758422852 14 37 35
-9.88529491424560547 3 3 55 144 85
-9 2.88807415962219238 3 97 185 137
-9 3 2.81866931915283203 94 188 139
-9 3 3.08714723587036133 33 89 65
-9 3.75526618957519531 -4 14 37 35
-9.97699356079101562 4 -3 70 173 132
-9 3.20045757293701172 -3 82 157 137
-9 4 -3.7836911678314209 27 81 77
-9.97606849670410156 4 -2 53 146 103
-9 3.69728326797485352 -2 147 222 187
-9.96462726593017578 4 -1 42 124 83
-9 3.82155776023864746 -1 166 243 198
-9.95927047729492188 4 0 40 119 75
-9 3.84398818016052246 0 166 246 195
-9.96959495544433594 4 1 46 131 79
-9 3.76477241516113281 1 151 234 183
-9.96284866333007812 4 2 58 153 90
-9 3.57347202301025391 2 94 188 139
-9 3.12628078460693359 3 33 89 65
-9 4 2.32674908638000488 19 57 42
-9 4.39039087295532227 -3 7 20 18
-9.68374538421630859 5 -2 75 184 129
-9 5 -2.03157353401184082 36 111 97
-9.96168422698974609 5 -1 69 175 114
-9.95363330841064453 5 0 66 171 106
-9 4.67724037170410156 1 48 124 92
-9 5 0.5750618577003479 3 12 9
-9 4.21945381164550781 2 19 57 42
-9 5.01557779312133789 -2 17 56 47
-9 5.16324234008789062 -1 5 19 15
-9 5.13578891754150391 0 3 12 9
-8.97881889343261719 1 -5 21 45 44
-8.87793159484863281 2 -5 7 17 18
-8.18461227416992188 3 -6 84 177 184
-8 2.07339763641357422 -6 42 72 79
-8 3 -6.21233081817626953 76 137 169
-8 3 -5.62935400009155273 9 18 22
-8.80224132537841797 3 -4 14 37 35
-8.95061397552490234 3 3 33 89 65
-8 3.41412615776062012 -6 9 18 22
-8.26082897186279297 4 -5 65 163 160
-8 3.54895544052124023 -5 108 172 172
-8 4 -5.49651575088500977 47 103 122
-8 4 -4.43972396850585938 13 31 34
-8.76247692108154297 4 -3 7 20 18
-8.78425788879394531 4 -2 40 103 86
-8.84558963775634766 4 -1 63 147 116
-8.86384296417236328 4 0 65 153 117
-8.82351875305175781 4 1 48 124 92
-8.84508800506591797 4 2 19 57 42
-8.08943367004394531 4 4 44 120 83
-8 3.86753273010253906 4 129 220 179
-8 4 3.82761645317077637 125 223 178
-8 4 4.12004709243774414 37 101 82
-8 4.64144229888916016 -5 13 31 34
-8.27020931243896484 5 -4 63 163 149
-8 4.41769552230834961 -4 111 188 180
-8 5 -4.66185903549194336 37 97 107
-8.38304805755615234 5 -3 36 111 97
-8 4.76803827285766602 -3 150 250 216
-8.89287567138671875 5 -2 17 56 47
-8 5 -2.30443572998046875 59 138 130
-8.73057746887207031 5 -1 5 19 15
-8.77832508087158203 5 0 3 12 9
-8.2191925048828125 5 2 25 81 56
-8 4.84528779983520508 2 147 254 190
-8 5 1.55444192886352539 118 222 178
-8.18659210205078125 5 3 47 131 88
-8 4.67209196090698242 3 125 223 178
-8 4.15277814865112305 4 37 101 82
-8 5 3.29696083068847656 23 71 57
-8 5.38639736175537109 -4 6 17 18
-8.14085769653320312 6 -3 70 178 149
-8 6 -3.23411321640014648 45 130 130
-8.26402187347412109 6 -2 57 157 124
-8 5.26882791519165039 -2 113 209 183
-8.27985763549804688 6 -1 48 141 105
-8 5.57649993896484375 -1 144 235 199
-8.27532958984375 6 0 46 136 96
-8 5.59217453002929688 0 144 238 196
-8.23919582366943359 6 1 50 144 98
-8 5.42110061645507812 1 118 222 178
-8 5.91904544830322266 2 71 171 136
-8 6 1.95102989673614502 10 35 28
-8 5.22989034652709961 3 23 71 57
-8 6.14825153350830078 -3 17 57 55
-8 6.29764127731323242 -2 3 12 11
-8 6.33837747573852539 -1 17 56 49
-8 6.32761430740356445 0 19 63 53
-8 6.26203489303588867 1 10 35 28
-7.20785236358642578 3 -7 76 137 169
-7 2.57158970832824707 -7 63 87 101
-7 3 -7.20638704299926758 86 127 178
-7.80019187927246094 3 -6 9 18 22
-7 3 -6.80447196960449219 1 2 3
-7 3.71382856369018555 -7 1 2 3
-7.36321210861206055 4 -6 47 103 122
-7 3.83229899406433105 -6 167 212 217
-7 4 -6.674041748046875 45 82 113
-7.75501585006713867 4 -5 13 31 34
-7 4 -5.84198284149169922 47 80 93
-7.91217517852783203 4 4 37 101 82
-7.18567991256713867 5 -6 82 166 185
-7 5 -6.19492244720458984 84 145 184
-7.61215353012084961 5 -5 37 97 107
-7 4.77743864059448242 -5 156 243 238
-7.68784618377685547 5 -4 6 17 18
-7 5 -4.73209619522094727 53 104 114
-7.78159856796264648 5 -3 59 138 130
-7.85164451599121094 5 2 71 171 136
-7.79215002059936523 5 3 23 71 57
-7.077484130859375 5 4 16 51 40
-7 4.95707988739013672 4 153 254 201
-7 5 3.95041251182556152 164 253 208
-7 5 4.20609664916992188 75 175 147
-7 5.20603513717651367 -6 25 54 70
-7.15455913543701172 6 -5 76 177 182
-7 6 -5.17337560653686523 72 146 173
-7.388641357421875 6 -4 45 130 130
-7 5.68581295013427734 -4 162 238 228
-7 5.81856203079223633 -3 116 252 208
-7.50879812240600586 6 -2 3 12 11
-7 6 -2.60853028297424316 83 177 171
-7.66213464736938477 6 -1 17 56 49
-7.67043209075927734 6 0 19 63 53
-7.59102535247802734 6 1 10 35 28
-7.86374092102050781 6 2 6 22 18
-7 5.91135454177856445 2 106 241 161
-7 6 1.81575191020965576 142 243 201
-7.29046440124511719 6 3 29 92 69
-7 5.73538780212402344 3 164 253 208
-7 5.21868515014648438 4 75 175 147
-7 6 3.65873885154724121 37 112 94
-7 6.15965366363525391 -5 26 66 78
-7 6.46216535568237305 -4 21 55 60
-7.21725225448608398 7 -3 61 167 151
-7 7 -3.3971867561340332 42 120 126
-7.29990482330322266 7 -2 47 141 121
-7 6.50609779357910156 -2 140 234 210
-7.32747411727905273 7 -1 38 121 99
-7 6.67302989959716797 -1 154 250 214
-7.32346248626708984 7 0 36 115 90
-7 6.67459678649902344 0 154 251 210
-7.28401756286621094 7 1 40 126 94
-7 6.56399869918823242 1 142 243 201
-7.10579919815063477 7 2 50 145 105
-7 6.32151317596435547 3 37 112 94
-7 7 2.15157294273376465 4 17 14
-7 7.21755743026733398 -3 15 51 51
-7 7.29349946975708008 -2 5 18 18
-7 7.31226634979248047 -1 18 62 57
-7 7.30972623825073242 0 20 69 61
-7 7.27940845489501953 1 11 41 35
-7 7.1058964729309082 2 4 17 14
-6.16559505462646484 3 -8 86 127 178
-6 2.44782900810241699 -8 25 32 42
-6 3 -8.14313983917236328 117 145 205
-6.80886602401733398 3 -7 1 2 3
-6 3 -7.84722328186035156 26 37 56
-6 3.31825757026672363 -8 26 37 56
-6.60564041137695312 4 -7 45 82 113
-6 3.87299299240112305 -7 166 194 204
-6 4 -7.27358865737915039 66 97 147
-6.84990787506103516 4 -6 47 80 93
-6 4 -6.88405227661132812 40 59 74
-6.18082761764526367 5 -7 84 145 184
-6 5 -7.17133045196533203 103 148 200
-6 4.93082332611083984 -6 149 241 248
-6.78510808944702148 5 -5 53 104 114
-6 5 -5.92979001998901367 74 117 134
-6.95788955688476562 5 4 75 175 147
-6 5.19026565551757812 -7 34 60 86
-6.25603914260864258 6 -6 72 146 173
-6 6 -6.25473117828369141 82 141 182
-6 5.75859689712524414 -5 140 252 246
-6.66685199737548828 6 -4 21 55 60
-6 6 -4.68308067321777344 53 105 117
-6.81745338439941406 6 -3 83 177 171
-6.91100263595581055 6 2 92 205 168
-6.72508955001831055 6 3 37 112 94
-6.45693874359130859 6 4 5 18 15
-6 5.88326930999755859 4 130 250 184
-6 6 3.85817360877990723 160 253 207
-6 6 4.7499542236328125 74 177 148
-6 6.25011396408081055 -6 24 51 67
-6.09567832946777344 7 -5 73 167 179
-6 7 -5.10168600082397461 76 153 181
-6.44514226913452148 7 -4 42 120 126
-6 6.68193292617797852 -4 159 239 231
-6 6.7456364631652832 -3 112 251 210
-6 6.93344640731811523 -2 83 223 166
-6.45496320724487305 7 -1 18 62 57
-6 7 -1.78900825977325439 109 214 195
-6.47596168518066406 7 0 20 69 61
-6.04495048522949219 7 1 11 41 35
-6 6.76914691925048828 2 103 240 161
-6 7 1.04982089996337891 113 227 187
-6.33927774429321289 7 3 26 87 69
-6 6.70879459381103516 3 160 253 207
-6 6.33718109130859375 4 74 177 148
-6 7 3.55842781066894531 24 79 67
-6 7.09286594390869141 -5 33 85 100
-6 7.32070636749267578 -4 8 24 27
-6 7.97094869613647461 -3 59 146 145
-6.27684402465820312 8 -2 50 149 133
-6 8 -2.96833944320678711 29 97 97
-6.3229212760925293 8 -1 41 131 112
-6 7.44280099868774414 -1 137 239 207
-6.31397533416748047 8 0 39 126 102
-6 7.47102499008178711 0 137 242 204
-6.2276463508605957 8 1 43 134 105
-6 7.05830764770507812 1 113 227 187
-6 7.58164882659912109 2 69 178 147
-6 8 1.54072880744934082 5 19 16
-6 7.28309917449951172 3 24 79 67
-6 8.97856712341308594 -2 11 40 39
-6 8.9803924560546875 -1 0 2 2
-6 8.98030662536621094 0 1 4 4
-6 8.97408771514892578 1 5 19 16
-5.77343606948852539 3 -8 26 37 56
-5.40449666976928711 4 -8 66 97 147
-5 3.70115160942077637 -8 88 105 119
-5 4 -8.21072959899902344 108 137 198
-5.88083553314208984 4 -7 40 59 74
-5 4 -7.80386638641357422 11 16 23
-5 4.50667810440063477 -8 11 16 23
-5 4.83069705963134766 -7 161 212 225
-5 5 -7.46176910400390625 65 99 147
-5.93031692504882812 5 -6 74 117 134
-5 5 -6.83393096923828125 39 59 74
-5.1416163444519043 6 -7 82 141 182
-5 6 -7.12567377090454102 109 158 206
-5 5.77358388900756836 -6 147 243 248
-5.73978805541992188 6 -5 53 105 117
-5 6 -5.75406789779663086 46 82 96
-5.87846517562866211 6 4 74 177 148
-5.34955310821533203 6 5 2 8 7
-5 5.97699832916259766 5 137 252 184
-5 6 4.97581052780151367 147 254 192
-5 6 5.06123208999633789 76 172 141
-5 6.12995243072509766 -7 43 80 111
-5.08529853820800781 7 -6 76 153 181
-5 7 -6.07962751388549805 94 161 197
-5 6.73554468154907227 -5 150 244 239
-5 6.9616999626159668 -4 96 237 202
-5.70911550521850586 7 -3 59 146 145
-5 7 -3.95345330238342285 106 195 191
-5.93176174163818359 7 -2 109 214 195
-5.74677705764770508 7 2 69 178 147
-5.34822177886962891 7 3 24 79 67
-5.54131793975830078 7 4 13 43 35
-5 6.75702619552612305 4 147 254 192
-5 7 3.36407232284545898 117 227 179
-5 6.06175470352172852 5 76 172 141
-5 7 4.46010065078735352 37 109 88
-5 7.07757711410522461 -6 41 93 116
-5 7.39705657958984375 -5 15 37 42
-5.32250690460205078 8 -4 54 148 153
-5 8 -4.39505243301391602 55 140 153
-5.96343278884887695 8 -3 29 97 97
-5 7.755645751953125 -3 140 252 221
-5 7.76827430725097656 -2 106 249 188
-5 7.74800443649291992 -1 90 235 160
-5 7.74758148193359375 0 87 231 148
-5 7.7514185905456543 1 101 242 157
-5.60512351989746094 8 2 18 67 53
-5 7.72793722152709961 2 136 254 186
-5.15975666046142578 8 3 38 119 91
-5 7.52598476409912109 3 117 227 179
-5 7.28703403472900391 4 37 109 88
-5 8 3.17198872566223145 5 18 14
-5 8.97893333435058594 -4 20 62 66
-5 8.9752044677734375 -3 11 37 37
-5 8.97765922546386719 -2 41 120 111
-5 8.98031520843505859 -1 61 162 140
-5 8.98039150238037109 0 63 168 140
-5 8.97978019714355469 1 47 141 114
-5 8.97997188568115234 2 22 75 60
-5 8.95897960662841797 3 5 18 14
-4.20098209381103516 3 -9 74 94 149
-4 2.86873054504394531 -9 32 37 44
-4 3 -9.91668987274169922 141 161 217
-4 3 -8.93113899230957031 31 40 56
-4 3.27538275718688965 -9 31 40 56
-4.67821502685546875 4 -8 11 16 23
-4.55038166046142578 5 -8 65 99 147
-4 4.63878202438354492 -8 86 104 116
-4 5 -8.23418235778808594 118 154 207
-4.81097555160522461 5 -7 39 59 74
-4 5 -7.75043344497680664 27 42 59
-4 5.32703542709350586 -8 27 42 59
-4 5.71605253219604492 -7 161 195 202
-4 6 -7.36687183380126953 84 134 178
-4.72496366500854492 6 -6 46 82 96
-4 6 -6.69485330581665039 1 3 3
-4.97450780868530273 6 5 76 172 141
-4.16879892349243164 6 6 9 29 24
-4 5.92853069305419922 6 182 249 208
-4 6 5.92468881607055664 172 250 199
-4 6 6.07478904724121094 36 93 72
-4 6.43614721298217773 -7 1 3 3
-4 6.69582128524780273 -6 160 216 216
-4 7 -6.43502426147460938 70 135 166
-4.06739664077758789 7 -5 15 37 42
-4 7 -5.06466817855834961 6 14 16
-4.95926809310913086 7 -4 106 195 191
-4.49942970275878906 7 4 37 109 88
-4.39524507522583008 7 5 15 49 39
-4 6.7938084602355957 5 172 250 199
-4 7 4.56539821624755859 120 223 165
-4 6.08263492584228516 6 36 93 72
-4 7 5.22317171096801758 21 64 47
-4 7.32822990417480469 -6 6 14 16
-4.38903188705444336 8 -5 55 140 153
-4 7.06954193115234375 -5 102 176 175
-4 8 -5.31129074096679688 73 162 178
-4 7.77369499206542969 -4 131 253 216
-4 7.7725977897644043 -3 90 234 168
-4.42315149307250977 8 -2 41 120 111
-4 8 -2.4230802059173584 77 169 151
-4.62737894058227539 8 -1 61 162 140
-4.6364588737487793 8 0 63 168 140
-4.48639917373657227 8 1 47 141 114
-4 7.82930946350097656 2 78 213 108
-4 8 1.59883570671081543 136 240 179
-4 7.74354839324951172 3 123 252 156
-4.08660316467285156 8 4 35 107 79
-4 7.80902957916259766 4 120 223 165
-4 7.20628261566162109 5 21 64 47
-4 8 4.07391166687011719 8 27 18
-4 8.97840595245361328 -5 28 80 86
-4 8.97613525390625 -4 17 51 51
-4 8.97766494750976562 -3 77 169 151
-4 8.96849632263183594 2 87 198 142
-4 8.9803924560546875 3 33 103 73
-4 8.91432094573974609 4 8 27 18
-3.85654234886169434 3 -9 31 40 56
-3.41126465797424316 4 -9 75 101 151
-3 3.76461005210876465 -9 28 33 37
-3 4 -9.95288658142089844 152 180 224
-3 4 -8.87782096862792969 49 68 92
-3 4.20288467407226562 -9 49 68 92
-3 4.92879390716552734 -8 157 193 199
-3 5 -8.12295722961425781 98 140 185
-3 5 -7.93041849136352539 19 27 32
-3.09835052490234375 6 -8 84 134 178
-3 6 -8.05967044830322266 139 187 222
-3 5.98379135131835938 -7 146 246 239
-3 6 -6.98369646072387695 57 89 94
-3.84332609176635742 6 6 36 93 72
-3 6.06263256072998047 -8 63 110 140
-3.31379222869873047 7 -7 70 135 166
-3 7 -7.1734461784362793 116 186 212
-3 6.7711939811706543 -6 137 251 226
-3 7 -5.74738788604736328 38 76 78
-3 6.95625591278076172 5 124 249 131
-3 7 4.95372819900512695 149 254 159
-3 7 5.14005136489868164 70 156 101
-3 7.17409133911132812 -7 50 107 124
-3 7.8339381217956543 -6 38 76 78
-3 7.74429798126220703 -5 148 237 210
-3 8 -5.83618307113647461 56 142 147
-3 7.79073143005371094 -4 101 244 171
-3.66904020309448242 8 -3 77 169 151
-3 8 -3.69180941581726074 72 147 128
-3.77333736419677734 8 2 87 198 142
-3 7.9015049934387207 3 85 220 88
-3 8 2.86516451835632324 153 249 167
-3 7.75016164779663086 4 149 254 159
-3 7.08431386947631836 5 70 156 101
-3 8 4.38728237152099609 18 56 33
-3 8.97809791564941406 -5 3 10 10
-3 8.97525978088378906 -4 72 147 128
-3 8.942352294921875 3 87 191 118
-3 8.97914981842041016 4 18 56 33
-2 3.9979245662689209 -9 93 98 99
-2 4 -9.21521568298339844 145 183 218
-2 4 -8.99817085266113281 28 38 44
-2 4.01252031326293945 -9 28 38 44
-2.87153434753417969 5 -8 19 27 32
-2 5.66400766372680664 -8 71 91 93
-2 6 -8.214996337890625 136 197 219
-2.97490048408508301 6 -7 57 89 94
-2 6 -7.71368789672851562 50 94 107
-2 6.23966407775878906 -8 50 94 107
-2 6.66494512557983398 -7 120 153 148
-2 7 -7.28362131118774414 111 195 206
-2.38766837120056152 7 -6 38 76 78
-2 7 -6.36671257019042969 37 85 88
-2.9182274341583252 7 5 70 156 101
-2.02948474884033203 7 6 16 45 28
-2 6.99014711380004883 6 163 224 162
-2 7 5.98365879058837891 122 204 123
-2 7 6.0086979866027832 0 0 0
-2 7.27995014190673828 -7 37 85 88
-2.81909918785095215 8 -6 56 142 147
-2 7.41251420974731445 -6 89 137 125
-2 8 -6.24278497695922852 103 204 197
-2 7.7479705810546875 -5 131 252 183
-2.57140731811523438 8 -4 72 147 128
-2 8 -4.51408720016479492 19 44 37
-2.83332180976867676 8 3 87 191 118
-2 7.78905630111694336 4 148 251 121
-2 8 3.67207050323486328 148 230 142
-2 8 4.75829839706420898 44 111 52
-2 7.00874805450439453 6 0 0 0
-2 8.97537803649902344 -6 46 120 112
-2 8.98026657104492188 -5 19 44 37
-2 8.97553730010986328 4 44 111 52
-1.99251389503479004 4 -9 28 38 44
-1 5.75728654861450195 -8 100 113 110
-1 6 -8.22203922271728516 139 213 219
-1 6 -7.77366113662719727 48 94 95
-1 6.26276969909667969 -8 48 94 95
-1 6.73087501525878906 -7 144 169 158
-1 7 -7.30968523025512695 113 206 198
-1 7 -6.64383506774902344 35 76 69
-1 6.97535371780395508 6 200 233 183
-1 7 5.97041559219360352 174 217 153
-1 7 6.02501869201660156 6 14 5
-1 7.30068159103393555 -7 35 76 69
-1 7.64907646179199219 -6 118 155 135
-1 8 -6.29588127136230469 105 205 177
-1 7.77165126800537109 -5 128 254 149
-1 8 -4.70696830749511719 31 63 46
-1 7.90332746505737305 4 181 248 115
-1 8 3.88521075248718262 192 238 161
-1.33169841766357422 8 5 18 54 24
-1 7.94981718063354492 5 174 217 153
-1 7.02515363693237305 6 6 14 5
-1 8 5.04280328750610352 18 43 15
-1 8.97914981842041016 -6 44 112 90
-1 8.97783660888671875 -5 31 63 46
-1 8.94126605987548828 4 71 129 59
-1 8.86317825317382812 5 18 43 15
0 5.80185985565185547 -8 85 92 89
0 6 -8.18604946136474609 151 225 214
0 6 -7.81295108795166016 60 111 100
0 6.21723747253417969 -8 60 111 100
0 6.75237131118774414 -7 134 151 139
0 7 -7.28417730331420898 124 212 185
0 7 -6.68794775009155273 45 93 74
-0.665532529354095459 7 6 6 14 5
0 7.27676963806152344 -7 45 93 74
0 7.69341421127319336 -6 108 137 114
0 8 -6.27167749404907227 116 212 162
0 7.79905605316162109 -5 145 251 134
0 8 -4.75410747528076172 22 42 26
0 7.97435235977172852 4 225 252 125
0 8 3.97046303749084473 208 228 162
-0.330743163824081421 8 5 18 43 15
0 8 4.55850410461425781 79 109 53
0 8.9774627685546875 -6 54 126 85
0 8.97406864166259766 -5 22 42 26
0 8.79773616790771484 4 79 109 53
1 5.87771511077880859 -8 27 31 28
1 6 -8.09507846832275391 173 233 210
1 6 -7.88978719711303711 84 149 120
1 6.10326147079467773 -8 84 149 120
1 6.78314065933227539 -7 85 94 86
1 7 -7.20472955703735352 145 224 180
1 7 -6.67634153366088867 68 134 93
1 7.20284080505371094 -7 68 134 93
1 7.77585744857788086 -6 58 77 58
1 8 -6.13315916061401367 136 223 155
1 7.77647876739501953 -5 173 232 142
1 8 -4.68130970001220703 8 16 8
1 7.92336416244506836 4 253 248 144
1 8 3.90093612670898438 185 191 137
1 8 4.23139238357543945 41 50 23
1 8.95324897766113281 -6 74 160 89
1 8.97723484039306641 -5 8 16 8
1 8.92553329467773438 4 41 50 23
1.28565478324890137 6 -8 84 149 120
1.72249269485473633 7 -7 68 134 93
1.28027164936065674 8 -6 74 160 89
2 7.76805210113525391 -5 156 173 138
2 8 -5.45636320114135742 111 197 105
2 8 -4.30555009841918945 57 99 48
2 7.92620038986206055 4 221 209 165
2 8 3.81590557098388672 101 102 61
2 8 4.09945201873779297 38 42 18
2 8.97775554656982422 -5 57 99 48
2 8.92201805114746094 4 38 42 18
2.25950479507446289 7 -6 14 21 13
3 6.87961292266845703 -6 103 103 102
3 7 -6.1529698371887207 148 220 145
3 7 -5.83204269409179688 83 130 75
3 7.13228225708007812 -6 83 130 75
2.95592594146728516 8 -5 57 99 48
2.36363959312438965 8 -4 39 49 31
3 7.81497573852539062 -4 185 192 143
3 8 -4.94350242614746094 119 176 92
3 8 -3.53233075141906738 59 77 41
2.91046309471130371 8 3 101 102 61
3 7.96670818328857422 3 226 200 160
3 8 2.92275571823120117 76 73 49
2.17860102653503418 8 4 38 42 18
3 8 3.08656573295593262 31 31 15
3 8.97130012512207031 -4 59 77 41
3 8.83748531341552734 3 31 31 15
3.2258150577545166 7 -6 83 130 75
3.98228597640991211 7 -5 43 47 38
4 6.98826932907104492 -5 126 128 119
4 7 -5.02539587020874023 148 206 131
4 7 -4.98426675796508789 84 110 69
4 7.01428556442260742 -5 84 110 69
3.66130805015563965 8 -4 59 77 41
3.61989188194274902 8 -3 35 39 26
4 7.86256647109985352 -3 157 156 134
4 8 -3.57677364349365234 141 180 99
3.96549749374389648 8 -2 126 126 103
4 7.97289848327636719 -2 215 203 150
4 8 -1.86195278167724609 41 45 26
3.99314737319946289 8 2 76 73 49
4 7.99715852737426758 2 187 175 156
4 8 1.96001255512237549 24 24 14
3.08155727386474609 8 3 31 31 15
4 8 2.00726604461669922 84 84 43
4 8.95938587188720703 -3 95 113 61
4 8.80671596527099609 -2 41 45 26
4 8.298126220703125 2 84 84 43
4.02130746841430664 7 -5 84 110 69
4.20483970642089844 8 -3 95 113 61
4.09682655334472656 8 -2 41 45 26
4.00377941131591797 8 2 84 84 43
3 2 1 0
3 1 3 0
3 5 2 0
3 4 5 0
3 3 6 4
3 0 3 4
3 5 4 7
3 10 7 4
3 10 4 8
3 6 9 4
3 9 8 4
3 9 11 8
3 14 13 12
3 13 15 12
3 10 8 16
3 19 16 8
3 19 8 17
3 11 18 8
3 18 17 8
3 18 21 20
3 17 18 20
3 21 23 22
3 20 21 22
3 23 25 24
3 22 23 24
3 25 27 26
3 24 25 26
3 27 29 28
3 26 27 28
3 30 31 28
3 30 28 12
3 29 14 28
3 14 12 28
3 12 15 30
3 19 17 32
3 34 32 17
3 34 17 33
3 33 17 20
3 20 22 33
3 22 35 33
3 22 24 35
3 24 36 35
3 37 38 36
3 37 36 26
3 26 36 24
3 26 28 39
3 37 26 39
3 28 31 39
3 34 33 40
3 33 35 41
3 40 33 41
3 35 36 42
3 41 35 42
3 36 38 42
3 1 2 43
3 1 43 3
3 44 43 2
3 5 44 2
3 43 44 6
3 3 43 6
3 47 46 45
3 46 48 45
3 5 7 44
3 9 6 44
3 9 44 49
3 7 10 44
3 10 49 44
3 9 49 11
3 13 14 50
3 13 50 15
3 47 45 51
3 54 51 45
3 54 45 52
3 48 53 45
3 53 52 45
3 53 55 52
3 10 16 49
3 18 11 49
3 18 49 56
3 16 19 49
3 19 56 49
3 21 18 56
3 57 21 56
3 23 21 57
3 58 23 57
3 25 23 58
3 59 25 58
3 27 25 59
3 60 27 59
3 29 27 60
3 61 29 60
3 31 30 50
3 31 50 61
3 14 29 50
3 29 61 50
3 50 30 15
3 63 62 64
3 63 65 62
3 54 52 66
3 69 66 52
3 69 52 67
3 55 68 52
3 68 67 52
3 70 67 19
3 70 19 32
3 67 68 19
3 56 19 71
3 68 71 19
3 32 34 70
3 56 71 72
3 56 72 57
3 72 71 73
3 57 72 58
3 58 72 74
3 58 74 59
3 59 74 75
3 38 37 60
3 38 60 75
3 75 60 59
3 61 60 78
3 61 78 77
3 60 37 78
3 76 78 39
3 37 39 78
3 77 80 31
3 77 31 61
3 80 79 31
3 39 31 76
3 79 76 31
3 81 82 79
3 81 79 62
3 80 64 79
3 64 62 79
3 62 65 81
3 69 67 83
3 85 83 67
3 85 67 84
3 84 67 70
3 73 87 72
3 70 34 86
3 70 86 84
3 86 34 40
3 40 88 86
3 40 41 88
3 87 89 72
3 89 74 72
3 41 90 88
3 41 42 90
3 89 91 74
3 91 75 74
3 91 93 38
3 91 38 75
3 93 92 38
3 42 38 90
3 92 90 38
3 94 95 92
3 94 92 76
3 93 78 92
3 78 76 92
3 76 79 96
3 94 76 96
3 79 82 96
3 85 84 97
3 84 86 98
3 97 84 98
3 86 88 99
3 98 86 99
3 88 90 100
3 99 88 100
3 90 92 101
3 100 90 101
3 92 95 101
3 104 103 102
3 47 102 103
3 47 103 46
3 106 105 103
3 105 46 103
3 46 105 48
3 104 102 107
3 107 108 110
3 107 51 108
3 107 102 51
3 47 51 102
3 106 109 105
3 109 48 105
3 109 53 48
3 109 112 53
3 111 53 112
3 108 51 54
3 53 111 55
3 63 64 113
3 63 113 65
3 115 110 108
3 114 115 108
3 112 117 111
3 108 54 116
3 108 116 114
3 116 54 66
3 117 55 111
3 117 68 55
3 117 119 68
3 118 68 119
3 116 66 69
3 71 68 118
3 120 71 118
3 71 120 73
3 77 78 121
3 80 77 121
3 122 80 121
3 80 113 64
3 80 124 113
3 80 122 124
3 125 124 122
3 82 81 123
3 123 81 65
3 123 65 126
3 113 124 65
3 124 126 65
3 115 114 127
3 129 127 114
3 129 114 128
3 128 114 116
3 119 131 118
3 116 69 130
3 116 130 128
3 130 69 83
3 118 132 120
3 118 131 132
3 130 83 85
3 134 133 87
3 132 134 87
3 132 87 73
3 132 73 120
3 89 87 133
3 135 89 133
3 91 89 135
3 136 91 135
3 93 91 136
3 137 93 136
3 93 121 78
3 93 139 121
3 93 137 139
3 140 139 137
3 95 94 138
3 94 141 138
3 94 96 141
3 139 142 121
3 142 122 121
3 96 144 141
3 96 143 144
3 96 82 143
3 123 143 82
3 122 142 125
3 123 126 143
3 129 128 145
3 128 130 146
3 145 128 146
3 148 97 147
3 146 97 148
3 146 85 97
3 146 130 85
3 98 147 97
3 98 149 147
3 150 133 134
3 98 151 149
3 98 99 151
3 150 152 133
3 152 135 133
3 99 153 151
3 99 100 153
3 152 154 135
3 154 136 135
3 100 155 153
3 100 101 155
3 154 156 136
3 156 137 136
3 156 140 137
3 155 101 138
3 155 138 157
3 138 101 95
3 158 159 157
3 158 157 141
3 141 157 138
3 141 144 158
3 148 147 160
3 147 149 161
3 160 147 161
3 149 151 162
3 161 149 162
3 151 153 163
3 162 151 163
3 153 155 164
3 163 153 164
3 155 157 165
3 164 155 165
3 157 159 165
3 168 167 166
3 104 166 167
3 104 167 103
3 170 169 167
3 169 103 167
3 103 169 106
3 168 166 171
3 171 172 174
3 171 107 172
3 171 166 107
3 104 107 166
3 170 173 169
3 173 106 169
3 173 109 106
3 173 176 109
3 175 109 176
3 172 107 110
3 109 175 112
3 178 174 172
3 177 178 172
3 172 115 177
3 172 110 115
3 175 176 179
3 181 180 117
3 179 181 117
3 179 117 112
3 179 112 175
3 117 180 119
3 124 125 182
3 124 182 126
3 178 177 183
3 185 127 184
3 183 127 185
3 183 115 127
3 183 177 115
3 181 186 180
3 184 127 129
3 188 187 131
3 186 188 131
3 186 131 119
3 186 119 180
3 132 131 187
3 189 132 187
3 132 189 134
3 139 140 190
3 142 139 190
3 191 142 190
3 142 182 125
3 142 193 182
3 142 191 193
3 194 193 191
3 144 143 192
3 192 143 126
3 192 126 195
3 182 193 126
3 193 195 126
3 185 184 196
3 198 145 197
3 196 145 198
3 196 129 145
3 196 184 129
3 146 197 145
3 146 199 197
3 200 187 188
3 187 201 189
3 187 200 201
3 199 146 148
3 189 150 134
3 189 201 150
3 201 202 150
3 204 203 152
3 204 152 202
3 202 152 150
3 154 152 203
3 205 154 203
3 156 154 205
3 206 156 205
3 206 208 207
3 156 206 207
3 156 207 190
3 156 190 140
3 210 190 207
3 210 191 190
3 158 209 159
3 158 212 209
3 158 211 212
3 158 144 211
3 192 211 144
3 191 210 194
3 192 195 211
3 198 197 213
3 197 199 214
3 213 197 214
3 199 148 160
3 199 160 214
3 214 160 215
3 217 161 216
3 217 215 161
3 215 160 161
3 162 216 161
3 162 218 216
3 219 203 204
3 162 220 218
3 162 163 220
3 219 221 203
3 221 205 203
3 163 222 220
3 163 164 222
3 221 223 205
3 223 206 205
3 208 206 223
3 224 225 164
3 224 164 165
3 164 225 222
3 159 209 226
3 159 226 165
3 165 226 224
3 209 212 226
3 217 216 227
3 216 218 228
3 227 216 228
3 218 220 229
3 228 218 229
3 220 222 230
3 229 220 230
3 222 225 230
3 167 168 231
3 167 231 170
3 171 232 234
3 171 234 168
3 233 231 234
3 231 168 234
3 233 170 231
3 233 173 170
3 233 236 173
3 235 173 236
3 232 171 174
3 173 235 176
3 234 232 237
3 235 236 238
3 232 174 237
3 174 239 237
3 174 178 239
3 241 240 179
3 238 241 179
3 238 179 176
3 238 176 235
3 179 240 181
3 183 242 243
3 183 243 178
3 178 243 239
3 241 244 240
3 242 183 185
3 246 245 186
3 244 246 186
3 244 186 181
3 244 181 240
3 186 245 188
3 193 194 247
3 248 195 193
3 248 193 249
3 247 250 193
3 250 249 193
3 249 251 248
3 243 242 252
3 254 196 253
3 252 196 254
3 252 185 196
3 252 242 185
3 246 255 245
3 253 196 198
3 245 200 188
3 245 255 200
3 255 256 200
3 258 257 201
3 258 201 256
3 256 201 200
3 202 201 257
3 259 202 257
3 202 259 204
3 207 208 260
3 210 207 260
3 261 210 260
3 210 247 194
3 210 263 247
3 210 261 263
3 264 263 261
3 212 211 262
3 211 266 262
3 211 265 266
3 211 195 265
3 248 265 195
3 247 263 250
3 248 251 265
3 254 253 267
3 253 198 213
3 253 213 267
3 267 213 268
3 270 214 269
3 270 268 214
3 268 213 214
3 215 269 214
3 215 271 269
3 272 257 258
3 257 273 259
3 257 272 273
3 271 215 217
3 259 219 204
3 259 273 219
3 273 274 219
3 274 275 219
3 219 275 221
3 275 276 221
3 221 276 223
3 225 224 277
3 208 223 260
3 223 278 260
3 223 276 278
3 224 279 277
3 224 226 279
3 278 280 260
3 280 261 260
3 226 282 279
3 226 281 282
3 226 212 281
3 262 281 212
3 261 280 264
3 262 266 281
3 270 269 283
3 269 271 284
3 283 269 284
3 271 217 227
3 271 227 284
3 284 227 285
3 285 227 286
3 227 228 286
3 286 228 287
3 228 229 287
3 287 229 288
3 229 230 288
3 225 277 289
3 225 289 230
3 230 289 288
3 277 279 290
3 289 277 290
3 279 282 290
3 293 292 291
3 292 294 291
3 293 291 295
3 291 294 295
3 234 296 233
3 233 296 236
3 237 297 299
3 237 299 234
3 298 296 299
3 296 234 299
3 298 236 296
3 298 238 236
3 298 301 238
3 300 238 301
3 297 237 239
3 238 300 241
3 299 297 302
3 300 301 303
3 297 239 302
3 239 304 302
3 239 243 304
3 306 305 244
3 303 306 244
3 303 244 241
3 303 241 300
3 244 305 246
3 249 250 307
3 308 251 249
3 308 249 309
3 307 310 249
3 310 309 249
3 309 311 308
3 304 243 252
3 312 304 252
3 314 252 254
3 314 312 252
3 306 313 305
3 316 315 255
3 313 316 255
3 313 255 246
3 313 246 305
3 256 255 315
3 317 256 315
3 256 317 258
3 263 264 318
3 263 307 250
3 263 320 307
3 263 318 320
3 321 320 318
3 266 265 319
3 265 323 319
3 265 322 323
3 265 251 322
3 308 322 251
3 307 320 310
3 308 311 322
3 314 254 267
3 324 314 267
3 316 326 315
3 327 324 325
3 324 268 325
3 324 267 268
3 315 328 317
3 315 326 328
3 325 268 270
3 317 272 258
3 317 328 272
3 328 329 272
3 331 330 273
3 331 273 329
3 329 273 272
3 274 273 330
3 332 274 330
3 275 274 332
3 333 275 332
3 276 275 333
3 334 276 333
3 334 336 335
3 334 335 276
3 276 335 278
3 335 337 278
3 278 337 280
3 282 281 338
3 264 280 318
3 280 339 318
3 280 337 339
3 281 341 338
3 281 340 341
3 281 266 340
3 319 340 266
3 318 339 321
3 319 323 340
3 327 325 342
3 325 270 283
3 325 283 342
3 342 283 343
3 343 283 344
3 283 284 344
3 330 331 344
3 330 344 285
3 285 344 284
3 332 330 285
3 286 332 285
3 333 332 286
3 287 333 286
3 334 333 287
3 288 334 287
3 336 334 288
3 336 288 345
3 345 288 289
3 345 289 346
3 289 290 346
3 282 338 347
3 282 347 290
3 290 347 346
3 338 341 347
3 292 293 348
3 292 348 294
3 295 349 351
3 295 351 293
3 350 348 351
3 348 293 351
3 349 295 294
3 349 294 352
3 348 350 294
3 350 352 294
3 351 349 353
3 354 298 349
3 354 349 352
3 298 299 349
3 353 349 355
3 299 355 349
3 298 354 356
3 301 298 356
3 302 357 358
3 302 358 299
3 299 358 355
3 303 356 359
3 303 301 356
3 302 304 357
3 303 359 360
3 306 303 360
3 309 310 361
3 309 361 311
3 358 357 362
3 364 312 363
3 362 312 364
3 362 304 312
3 362 357 304
3 313 360 365
3 313 306 360
3 312 314 363
3 313 365 366
3 316 313 366
3 321 368 367
3 320 321 367
3 320 367 361
3 320 361 310
3 367 369 361
3 322 361 323
3 369 323 361
3 361 322 311
3 364 363 370
3 363 314 324
3 363 324 370
3 370 324 371
3 366 372 316
3 316 372 326
3 373 371 324
3 373 324 327
3 372 374 326
3 326 374 328
3 376 375 329
3 376 329 374
3 374 329 328
3 329 375 331
3 335 336 377
3 377 379 378
3 377 378 335
3 335 378 337
3 378 380 337
3 337 380 339
3 382 340 381
3 382 341 340
3 368 321 380
3 321 339 380
3 381 340 323
3 369 381 323
3 373 327 342
3 383 373 342
3 383 342 384
3 342 343 384
3 375 376 384
3 375 384 344
3 344 384 343
3 375 344 331
3 377 336 345
3 379 377 345
3 379 345 385
3 385 345 346
3 385 346 386
3 346 347 386
3 386 347 341
3 382 386 341
3 351 388 387
3 350 351 387
3 350 387 389
3 352 350 389
3 388 351 353
3 390 388 353
3 352 389 391
3 352 391 354
3 389 390 391
3 355 391 353
3 390 353 391
3 354 391 356
3 392 391 355
3 392 355 393
3 393 355 358
3 395 394 359
3 392 395 359
3 392 359 356
3 392 356 391
3 359 394 360
3 393 358 362
3 396 393 362
3 398 362 364
3 398 396 362
3 395 397 394
3 400 399 365
3 397 400 365
3 397 365 360
3 397 360 394
3 365 399 366
3 367 368 401
3 402 369 367
3 402 367 403
3 401 404 367
3 404 403 367
3 403 405 402
3 398 364 370
3 406 398 370
3 400 408 399
3 409 406 407
3 406 371 407
3 406 370 371
3 407 371 373
3 399 408 366
3 408 372 366
3 408 410 372
3 412 411 374
3 412 374 410
3 410 374 372
3 374 411 376
3 378 379 413
3 413 415 414
3 413 414 378
3 378 414 380
3 380 414 401
3 380 401 368
3 414 416 401
3 381 401 382
3 416 382 401
3 369 402 417
3 369 417 381
3 404 401 417
3 401 381 417
3 402 405 417
3 409 407 418
3 407 373 383
3 407 383 418
3 418 383 419
3 411 412 419
3 411 419 384
3 384 419 383
3 411 384 376
3 413 379 385
3 415 413 385
3 415 385 420
3 420 385 386
3 420 386 382
3 416 420 382
3 387 388 421
3 387 421 389
3 421 388 390
3 421 390 389
3 393 423 422
3 392 393 422
3 392 422 424
3 395 392 424
3 423 393 396
3 425 423 396
3 424 426 395
3 395 426 397
3 427 425 396
3 427 396 398
3 397 426 428
3 400 397 428
3 404 430 429
3 403 404 429
3 403 429 431
3 405 403 431
3 427 398 406
3 432 427 406
3 428 433 400
3 400 433 408
3 434 432 406
3 434 406 409
3 433 435 408
3 408 435 410
3 410 435 436
3 412 410 436
3 415 438 437
3 414 415 437
3 439 416 414
3 439 414 440
3 440 414 437
3 430 404 439
3 430 439 440
3 404 417 439
3 442 439 441
3 417 441 439
3 441 417 405
3 431 441 405
3 434 409 418
3 443 434 418
3 443 418 444
3 418 419 444
3 444 419 412
3 436 444 412
3 438 415 420
3 445 438 420
3 416 439 446
3 416 446 420
3 420 446 445
3 439 442 446
3 423 448 447
3 422 423 447
3 422 447 449
3 424 422 449
3 448 423 425
3 450 448 425
3 449 451 424
3 424 451 426
3 452 450 425
3 452 425 427
3 426 451 453
3 428 426 453
3 429 430 454
3 429 454 431
3 452 427 432
3 455 452 432
3 453 456 428
3 428 456 433
3 457 455 432
3 457 432 434
3 456 458 433
3 433 458 435
3 435 458 459
3 436 435 459
3 438 461 460
3 437 438 460
3 463 462 440
3 463 440 460
3 460 440 437
3 442 441 454
3 442 454 462
3 430 440 454
3 440 462 454
3 454 441 431
3 457 434 443
3 464 457 443
3 464 443 465
3 443 444 465
3 465 444 436
3 459 465 436
3 461 438 445
3 466 461 445
3 462 463 466
3 462 466 446
3 446 466 445
3 462 446 442
3 448 468 467
3 447 448 467
3 447 467 469
3 449 447 469
3 468 448 450
3 470 468 450
3 469 471 449
3 449 471 451
3 472 470 450
3 472 450 452
3 451 471 473
3 453 451 473
3 472 452 455
3 474 472 455
3 473 475 453
3 453 475 456
3 476 474 455
3 476 455 457
3 475 477 456
3 456 477 458
3 458 477 478
3 459 458 478
3 461 480 479
3 460 461 479
3 460 479 481
3 463 460 481
3 476 457 464
3 482 476 464
3 482 464 483
3 464 465 483
3 483 465 459
3 478 483 459
3 480 461 466
3 484 480 466
3 484 466 463
3 481 484 463
3 467 468 485
3 467 485 469
3 485 468 470
3 471 469 485
3 471 485 486
3 470 472 485
3 472 486 485
3 471 486 473
3 486 472 474
3 475 473 486
3 475 486 487
3 474 476 486
3 476 487 486
3 487 489 488
3 487 488 475
3 475 488 477
3 477 488 490
3 478 477 490
3 480 492 491
3 479 480 491
3 479 491 493
3 481 479 493
3 487 476 482
3 489 487 482
3 489 482 494
3 494 482 483
3 494 483 478
3 490 494 478
3 492 480 484
3 495 492 484
3 495 484 481
3 493 495 481
3 498 497 496
3 497 499 496
3 498 496 500
3 496 499 500
3 489 501 488
3 502 490 488
3 502 488 503
3 501 504 488
3 504 503 488
3 503 505 502
3 508 507 506
3 492 506 507
3 492 507 491
3 510 509 507
3 509 491 507
3 491 509 493
3 501 489 494
3 490 502 511
3 490 511 494
3 504 501 511
3 501 494 511
3 502 505 511
3 508 506 512
3 509 510 512
3 509 512 495
3 506 492 512
3 492 495 512
3 509 495 493
3 497 498 513
3 514 499 497
3 514 497 515
3 513 516 497
3 516 515 497
3 515 517 514
3 513 498 500
3 499 514 518
3 499 518 500
3 516 513 518
3 513 500 518
3 514 517 518
3 504 519 503
3 520 505 503
3 520 503 521
3 519 522 503
3 522 521 503
3 521 524 523
3 520 521 523
3 524 525 523
3 528 527 526
3 508 526 527
3 508 527 507
3 530 529 527
3 529 507 527
3 507 529 510
3 519 504 511
3 505 520 531
3 505 531 511
3 522 519 531
3 519 511 531
3 520 523 532
3 531 520 532
3 523 525 532
3 528 526 533
3 529 530 533
3 529 533 512
3 526 508 533
3 508 512 533
3 529 512 510
3 515 516 534
3 515 534 517
3 534 516 518
3 534 518 517
3 521 522 535
3 524 521 535
3 536 524 535
3 524 536 525
3 527 528 537
3 527 537 530
3 535 522 531
3 536 535 531
3 532 536 531
3 536 532 525
3 537 528 533
3 537 533 530
