ply
format ascii 1.0
element vertex 510
property float x
property float y
property float z
property uchar red
property uchar green
property uchar blue
element face 1004
property list uchar int vertex_indices
end_header
-7.84472084045410156 -9 -9 36 0 0
-7 -9.61060905456542969 -9 36 0 0
-7 -9 -9.61060905456542969 40 0 22
-7 -9 -8.53529262542724609 37 0 0
-7.87582302093505859 -9 8 47 0 0
-7 -9.58148002624511719 8 47 0 0
-7 -9 7.58205413818359375 45 0 0
-7 -9 8.58148002624511719 49 0 0
-7.35420942306518555 -8 -9 36 0 0
-7 -8 -9.58831119537353516 40 0 31
-7 -8 -8.57380008697509766 37 0 6
-7.35659360885620117 -8 8 47 0 0
-7 -8 7.59963655471801758 46 0 0
-7 -8 8.57169723510742188 49 0 0
-7.10979986190795898 -7 -9 34 0 18
-7 -7 -9.4033660888671875 39 0 36
-7 -7 -8.79920768737792969 37 0 26
-7.11669492721557617 -7 8 46 0 0
-7 -7 7.79719257354736328 46 0 0
-7 -7 8.40589427947998047 49 0 0
-7 -6.49727106094360352 -9 37 0 26
-7 -6.44623470306396484 8 49 0 0
-7.11346054077148438 6 -9 40 0 35
-7 5.46757411956787109 -9 30 0 41
-7 6 -9.40536975860595703 45 0 0
-7 6 -8.79755496978759766 39 0 42
-7.11263227462768555 6 8 21 46 0
-7 5.48180341720581055 8 0 47 29
-7 6 7.79803705215454102 7 43 19
-7 6 8.40494537353515625 0 49 2
-7.35529422760009766 7 -9 41 0 25
-7 7 -9.58140277862548828 48 0 0
-7 7 -8.58771705627441406 42 0 40
-7.35597801208496094 7 8 44 17 3
-7 7 7.58314228057861328 20 45 6
-7 7 8.58127784729003906 47 38 3
-7.85472965240478516 8 -9 42 0 21
-7 8 -9.60080242156982422 48 0 0
-7 8 -8.55706882476806641 44 0 31
-7.86232471466064453 8 8 43 27 3
-7 8 7.55684709548950195 43 28 16
-7 8 8.59521770477294922 45 20 7
-7 8.60080242156982422 -9 44 0 31
-7 8.59521770477294922 8 45 20 7
-6.64731454849243164 -9 -9 37 0 0
-6.70789527893066406 -9 8 49 0 0
-6.32243633270263672 -8 -9 37 0 6
-6.4518733024597168 -8 8 49 0 0
-6 -7.55244112014770508 -9 37 0 22
-6 -7 -9.4563446044921875 28 0 40
-6 -7 -8.75360774993896484 32 0 38
-6 -7.31732177734375 8 50 0 0
-6 -7 7.84786272048950195 46 0 0
-6 -7 8.33840084075927734 49 0 0
-6.71820926666259766 -6 -9 29 0 36
-6 -6 -9.6302337646484375 23 0 40
-6 -6 -8.49017620086669922 14 0 38
-6.72950220108032227 -6 8 47 0 0
-6 -6 7.55351400375366211 45 0 0
-6 -6 8.59754276275634766 48 0 0
-6.42985963821411133 -5 -9 12 0 35
-6 -5 -9.66016960144042969 20 0 40
-6 -5 -8.41437149047851562 0 1 37
-6.43951177597045898 -5 8 45 0 0
-6 -5 7.44501972198486328 43 0 0
-6 -5 8.64779853820800781 46 0 0
-6.24025535583496094 -4 -9 0 1 34
-6 -4 -9.61293315887451172 17 0 39
-6 -4 -8.5241851806640625 0 12 37
-6.25483417510986328 -4 8 43 0 0
-6 -4 7.52003908157348633 41 0 0
-6 -4 8.61497306823730469 44 0 0
-6.07694673538208008 -3 -9 0 13 33
-6 -3 -9.39721775054931641 14 0 38
-6 -3 -8.80464935302734375 0 21 37
-6.09481334686279297 -3 8 41 0 0
-6 -3 7.76722145080566406 39 0 0
-6 -3 8.43923187255859375 43 0 0
-6 -2.54652523994445801 -9 0 21 37
-6 -2.42238116264343262 8 43 0 0
-6.09012508392333984 2 -9 0 5 37
-6 1.45127451419830322 -9 0 20 38
-6 2 -9.42906665802001953 30 27 32
-6 2 -8.77508258819580078 0 11 40
-6.07854557037353516 2 8 32 0 41
-6 1.54106247425079346 8 42 0 42
-6 2 7.80125188827514648 24 9 38
-6 2 8.40144252777099609 12 1 44
-6.25039482116699219 3 -9 7 0 39
-6 3 -9.61461639404296875 32 28 33
-6 3 -8.52049160003662109 0 3 41
-6.24258041381835938 3 8 1 7 43
-6 3 7.52332115173339844 11 12 39
-6 3 8.61344337463378906 1 16 45
-6.43645143508911133 4 -9 19 0 40
-6 4 -9.65288639068603516 37 13 26
-6 4 -8.43719482421875 6 0 42
-6.43211984634399414 4 8 1 37 45
-6 4 7.41932058334350586 13 29 41
-6 4 8.65763187408447266 2 40 47
-6.72562360763549805 5 -9 30 0 41
-6 5 -9.61289691925048828 43 0 0
-6 5 -8.53291416168212891 15 0 42
-6.72169685363769531 5 8 0 47 29
-6 5 7.50474262237548828 14 42 38
-6 5 8.62132549285888672 2 48 28
-6 6 -9.40390300750732422 47 0 0
-6 6 -8.80461692810058594 23 1 42
-6 6 7.78527641296386719 15 44 19
-6 6 8.41805553436279297 9 50 1
-6.38217496871948242 7 -9 42 0 40
-6 6.4409184455871582 -9 23 1 42
-6.38588094711303711 7 8 47 38 3
-6 6.45162105560302734 8 9 50 1
-6.66936445236206055 8 -9 44 0 31
-6.68193197250366211 8 8 45 20 7
-5.86674118041992188 -7 -9 32 0 38
-5.923614501953125 -7 8 49 0 0
-5.56288385391235352 -6 -9 14 0 38
-5.65370035171508789 -6 8 48 0 0
-5 -5.1404118537902832 -9 0 9 38
-5 -5 -9.26390361785888672 2 0 40
-5 -5 -8.89451694488525391 0 22 38
-5.06017780303955078 -5 8 46 0 0
-5 -4 -9.69022369384765625 0 1 39
-5 -4 -8.32417106628417969 0 33 38
-5 -4.94127798080444336 8 45 0 0
-5 -4 7.42988681793212891 41 0 0
-5 -4 8.65371608734130859 44 0 0
-5 -3 -9.77525043487548828 0 4 37
-5.07391738891601562 -3 -8 0 30 35
-5 -3.16854572296142578 -8 0 36 36
-5 -3 -7.92841148376464844 0 37 18
-5 -3 7.00341939926147461 40 1 1
-5 -3 8.76420211791992188 44 0 0
-5.83640718460083008 -2 -9 0 28 36
-5 -2 -9.80239105224609375 2 7 35
-5.1676182746887207 -2 -8 0 34 18
-5 -2 -7.71391487121582031 0 37 1
-5.1588134765625 -2 7 38 1 1
-5 -2.9854736328125 7 40 1 1
-5 -2 6.74738502502441406 35 9 9
-5.87399530410766602 -2 8 42 0 0
-5 -2 8.79890632629394531 43 0 0
-5.6002812385559082 -1 -9 0 33 36
-5 -1 -9.80393409729003906 12 15 33
-5.12357568740844727 -1 -8 0 33 0
-5 -1 -7.70286703109741211 9 37 0
-5.13255500793457031 -1 7 36 2 2
-5 -1 6.69589710235595703 35 13 13
-5.62862348556518555 -1 8 41 0 0
-5 -1 8.80455780029296875 44 0 7
-5.62445163726806641 0 -9 0 31 37
-5 0 -9.80448818206787109 28 28 32
-5.13246870040893555 0 -8 7 34 0
-5 0 -7.69593667984008789 15 37 0
-5.12378263473510742 0 7 36 4 4
-5 0 6.70270299911499023 35 18 24
-5.59843015670776367 0 8 41 0 2
-5 0 8.80386543273925781 44 0 33
-5.86603736877441406 1 -9 0 20 38
-5 1 -9.79982280731201172 23 22 32
-5.15951442718505859 1 -8 6 35 0
-5 1 -7.74596309661865234 16 38 0
-5.16707468032836914 1 7 37 6 31
-5 1 6.71522092819213867 35 25 34
-5.83696222305297852 1 8 42 0 42
-5 1 8.80233573913574219 27 1 45
-5 2 -9.76781654357910156 17 10 32
-5.00386428833007812 2 -8 1 36 0
-5 2 -7.99669170379638672 14 40 0
-5.0672297477722168 2 7 24 9 38
-5 2 6.93509626388549805 34 32 35
-5 2 8.77422428131103516 2 3 45
-5 3 -9.66833972930908203 34 30 35
-5 2.00724220275878906 -8 14 40 0
-5 3 -8.40595626831054688 1 18 41
-5 2.14863467216491699 7 20 13 40
-5 3 7.33979368209838867 17 26 41
-5 3 8.68442821502685547 3 31 47
-5 4 -9.08040904998779297 41 6 16
-5 4 -8.97515487670898438 3 11 40
-5 4 7.92872762680053711 22 42 41
-5 4 8.19332122802734375 4 48 34
-5.61279535293579102 5 -9 15 0 42
-5 4.03371953964233398 -9 3 11 40
-5.59323692321777344 5 8 2 48 28
-5 4.09103059768676758 8 4 48 34
-5.89517450332641602 6 -9 23 1 42
-5.88901710510253906 6 8 9 50 1
-4.95592737197875977 -5 -9 0 22 38
-4.60837841033935547 -4 -9 0 33 38
-4.68902206420898438 -4 8 44 0 0
-4 -3.03092098236083984 -9 0 38 17
-4 -3 -9.09945964813232422 9 22 34
-4.93726015090942383 -3 -8 0 37 18
-4 -3 -8.96700191497802734 0 38 15
-4.12003421783447266 -3 8 44 0 0
-4 -2 -9.74770164489746094 26 30 33
-4.22558355331420898 -2 -8 0 37 1
-4 -2 -8.07748031616210938 0 39 15
-4.48898983001708984 -2 7 39 2 2
-4 -2.85320711135864258 8 43 0 0
-4 -2 7.21931219100952148 39 5 5
-4 -2 8.71985244750976562 44 0 4
-4 -1 -9.83705711364746094 15 24 32
-4 -1.89047622680664062 -8 24 38 0
-4 -1 -7.309295654296875 30 38 0
-4 -1.70201694965362549 7 39 5 5
-4 -1 6.42405557632446289 36 21 24
-4 -1 8.83002090454101562 45 0 27
-4 0 -9.83163738250732422 2 13 31
-4 0 -7.42431354522705078 34 39 0
-4 0 6.3132166862487793 36 26 33
-4 0 8.83769607543945312 38 1 46
-4 1 -9.72905921936035156 0 3 31
-4.47410106658935547 1 -8 16 38 0
-4 0.713628053665161133 -8 34 39 0
-4 1 -8.20295333862304688 4 38 26
-4.25569868087768555 1 7 35 9 39
-4 0.873407483100891113 7 41 9 38
-4 1 7.08981180191040039 25 14 41
-4 1 8.74715995788574219 8 2 46
-4.06555604934692383 2 -9 0 27 40
-4 1.92062544822692871 -9 4 38 26
-4.99735164642333984 2 -8 14 40 0
-4.94463872909545898 2 7 20 13 40
-4 2 7.98718833923339844 21 27 41
-4 2 8.04136943817138672 4 27 47
-4.6571202278137207 3 -9 1 18 41
-4.624969482421875 3 8 3 31 47
-4 2.01179909706115723 8 4 27 47
-4.98947000503540039 4 -9 3 11 40
-4.97105550765991211 4 8 4 48 34
-3.98884367942810059 -3 -9 0 38 15
-3.60108089447021484 -2 -9 0 39 15
-3.6659243106842041 -2 8 44 0 4
-3 -1.01946127414703369 -9 16 36 8
-3 -1 -9.08141231536865234 2 21 30
-3.61056709289550781 -1 -8 30 38 0
-3 -1 -8.97282600402832031 24 35 20
-3.69211030006408691 -1 7 40 6 19
-3.07242894172668457 -1 8 45 0 27
-3.04579854011535645 0 -9 2 38 19
-3 -0.727895021438598633 -9 24 35 20
-3.69009900093078613 0 -8 34 39 0
-3.61472320556640625 0 7 41 9 38
-3 -0.285028129816055298 8 46 2 42
-3 0 7.95478534698486328 32 15 42
-3 0 8.13194847106933594 21 2 47
-3.64333176612854004 1 -9 4 38 26
-3.60279321670532227 1 8 8 2 46
-3 0.0327840298414230347 8 21 2 47
-3.99567103385925293 2 8 4 27 47
-2.99230551719665527 -1 -9 24 35 20
-2.98674273490905762 0 8 21 2 47
1.99445581436157227 -1 8 13 48 18
2 -1.01377260684967041 8 34 46 6
2 -1 7.9813084602355957 42 37 21
2 -1 8.06038188934326172 44 15 10
1.98271811008453369 0 -9 0 9 31
2 -0.352987915277481079 -9 17 7 30
2 0 -9.16534042358398438 39 1 1
2 0 -8.94400596618652344 33 28 34
2 -0.824357569217681885 8 44 15 10
2 0.0435408055782318115 -9 33 28 34
2.9983675479888916 -3 8 6 46 28
3 -3.00449132919311523 8 27 42 3
3 -3 7.99520063400268555 38 35 18
3 -3 8.01620388031005859 39 11 10
2.6600949764251709 -2 -9 23 0 30
3 -2.86986160278320312 -9 26 2 24
3 -2 -9.72108078002929688 35 5 5
3 -2 -8.19020271301269531 29 19 26
2.61040234565734863 -2 8 34 46 6
3 -2 7.1071934700012207 35 34 34
3 -2 8.74600315093994141 32 36 22
2.06931757926940918 -1 -9 17 7 30
3 -1 -9.82978916168212891 35 5 5
2.67287921905517578 -1 -8 7 17 33
3 -1.74296116828918457 -8 32 0 30
3 -1 -7.38752079010009766 24 0 30
2.63074827194213867 -1 7 42 37 21
3 -1.84850311279296875 7 35 34 34
3 -1 6.33006763458251953 17 33 15
3 -1 8.83741092681884766 16 31 40
3 0 -9.83836555480957031 36 6 11
2.62697434425354004 0 -8 2 6 33
3 0 -7.33953714370727539 1 13 26
2.67961955070495605 0 7 38 36 33
3 0 6.41020345687866211 34 39 36
2.05806851387023926 0 8 35 40 29
3 0 8.83028888702392578 8 21 44
2.59061551094055176 1 -9 37 10 32
3 1 -9.75101184844970703 37 6 27
3 0.873490273952484131 -8 1 13 26
3 1 -8.08709907531738281 36 5 17
3 0.715437233448028564 7 20 40 41
2.66144061088562012 1 8 24 31 44
3 1 7.21079158782958984 14 30 42
3 1 8.72061347961425781 9 5 46
2.9842526912689209 2 -9 38 5 32
3 2 -9.1341094970703125 29 8 38
3 2 -8.95476722717285156 38 3 23
3 1.85598850250244141 8 9 5 46
3 2.04310798645019531 -9 38 3 23
3.96686005592346191 -5 8 2 44 29
4 -5.10591936111450195 8 37 35 3
4 -5 7.91874837875366211 32 25 17
4 -5 8.2170257568359375 34 19 10
3.68203091621398926 -4 -9 31 12 12
4 -4.95287847518920898 -9 28 18 18
4 -4 -9.65498065948486328 29 17 17
4 -4 -8.41702175140380859 25 11 11
3.62476468086242676 -4 8 27 42 3
4 -4 7.33879709243774414 29 35 17
4 -4 8.68678188323974609 5 39 23
3.10654926300048828 -3 -9 26 2 24
4 -3 -9.76433181762695312 29 23 23
3.99444222450256348 -3 -8 20 2 30
4 -3.0148766040802002 -8 32 7 7
4 -3 -7.99308300018310547 31 7 7
3.94703054428100586 -3 7 38 35 18
4 -3.1453254222869873 7 29 35 17
4 -3 6.93662834167480469 21 37 18
4 -3 8.77486515045166016 2 43 43
4 -2 -9.79886627197265625 28 23 25
3.44284725189208984 -2 -8 32 0 30
4 -2 -7.74234580993652344 27 2 12
3.29383563995361328 -2 7 35 34 34
4 -2 6.71604251861572266 27 40 12
4 -2 8.80250263214111328 1 45 30
4 -1 -9.80457019805908203 21 8 27
4 -1 -7.69630622863769531 10 0 24
4 -1 6.70249605178833008 9 40 11
4 -1 8.80382537841796875 1 44 46
4 0 -9.80381298065185547 3 5 28
4 0 -7.70234012603759766 16 8 26
4 0 6.69594955444335938 16 12 38
4 0 8.80456829071044922 26 2 44
4 1 -9.80255699157714844 1 23 29
3.25209164619445801 1 -8 14 13 30
4 1 -7.71461153030395508 29 27 30
3.47721719741821289 1 7 14 30 42
4 1 6.74718475341796875 21 30 31
4 1 8.79886150360107422 41 3 32
4 2 -9.77509212493896484 0 31 22
3.93771219253540039 2 -8 28 22 34
4 2 -7.92815923690795898 29 14 33
4 1.98519492149353027 7 13 10 36
3.11805915832519531 2 8 43 7 32
4 2 7.00348615646362305 11 16 34
4 2 8.76424217224121094 14 7 37
3.6096193790435791 3 -9 38 3 35
4 3 -9.68765354156494141 0 33 8
4 2.16944503784179688 -8 29 14 33
4 3 -8.32591152191162109 20 20 35
3.68812322616577148 3 8 14 11 38
4 3 7.42942380905151367 5 13 37
4 3 8.65443325042724609 14 5 38
3.96388769149780273 4 -9 26 4 39
4 4 -9.22586154937744141 32 25 3
4 4 -8.91215229034423828 25 31 35
4 3.94844579696655273 8 14 5 38
4 4.11177682876586914 -9 25 31 35
4.9259648323059082 -7 -9 35 24 24
5 -7.30040359497070312 -9 33 10 10
5 -7 -9.32854747772216797 29 12 12
5 -7 -8.85270309448242188 30 15 15
4.87594270706176758 -7 8 0 40 11
5 -7.52050876617431641 8 35 12 1
5 -7 7.76172018051147461 21 37 2
5 -7 8.4459991455078125 0 41 9
4.65178394317626953 -6 -9 32 29 29
5 -6 -9.5959320068359375 30 17 17
5 -6 -8.5538482666015625 28 22 22
4.58068323135375977 -6 8 37 35 3
5 -6 7.49286746978759766 31 41 1
5 -6 8.62819004058837891 7 44 0
4.04862546920776367 -5 -9 28 18 18
5 -5 -9.64748668670654297 31 21 21
5 -5 -8.44473075866699219 26 24 24
5 -5 7.41499996185302734 38 43 1
5 -5 8.6597747802734375 11 45 0
5 -4 -9.61497402191162109 34 25 25
5 -4 -8.52005481719970703 25 18 18
5 -4 7.52414560317993164 15 43 0
5 -4 8.61294364929199219 0 46 8
5 -3 -9.43855571746826172 36 29 32
4.00787591934204102 -3 -8 31 7 7
5 -3 -8.76782608032226562 26 16 16
4.06576919555664062 -3 7 8 40 24
5 -3 7.80557394027709961 1 42 21
5 -3 8.39574718475341797 0 46 32
4.87232303619384766 -2 -9 28 27 27
5 -2.4266810417175293 -9 26 16 16
4.16047954559326172 -2 -8 27 2 12
4.16648530960083008 -2 7 6 42 5
4.83392143249511719 -2 8 1 45 30
5 -2.55269074440002441 8 0 46 32
4.62685918807983398 -1 -9 28 26 27
4.13253068923950195 -1 -8 10 0 24
4.12369489669799805 -1 7 4 43 21
4.59733200073242188 -1 8 1 44 46
4.6005854606628418 0 -9 30 24 29
4.12366199493408203 0 -8 16 8 26
4.13251447677612305 0 7 17 5 41
4.62839555740356445 0 8 26 2 44
4.84094619750976562 1 -9 30 19 32
4.1676936149597168 1 -8 29 27 30
4.15863895416259766 1 7 13 10 36
4.87179183959960938 1 8 41 3 32
5 1.52892971038818359 -9 21 12 32
5 2 -9.40642166137695312 30 22 18
4.07422542572021484 2 -8 29 14 33
5 2 -8.79821395874023438 7 16 33
5 1.43058204650878906 8 45 0 38
5 2 7.77016210556030273 6 18 35
5 2 8.43579959869384766 44 1 26
5 3 -9.61377811431884766 35 13 7
5 3 -8.52309989929199219 3 34 30
5 3 7.52021646499633789 10 16 34
5 3 8.61486434936523438 43 2 35
5 4 -9.65612411499023438 38 13 1
5 4 -8.42008590698242188 25 28 1
4.05249118804931641 4 8 12 3 39
5 4 7.44053363800048828 14 17 34
5 4 8.65012359619140625 43 3 36
4.59010839462280273 5 -9 35 35 35
5 5 -9.61691570281982422 20 37 2
5 5 -8.50752449035644531 33 27 22
4.64432239532470703 5 8 8 2 41
5 5 7.54174041748046875 16 22 35
5 5 8.60507583618164062 44 6 36
4.89426326751708984 6 -9 27 35 22
5 6 -9.40073204040527344 8 33 29
5 6 -8.79575634002685547 38 14 10
4.91162347793579102 6 8 7 2 42
5 6 7.82456302642822266 20 28 37
5 6 8.37320709228515625 46 7 41
5 6.41518545150756836 -9 38 14 10
5 6.3795623779296875 8 46 7 41
5.71831798553466797 -9 -9 35 7 7
6 -9.57337570190429688 -9 36 1 1
6 -9 -9.57337570190429688 37 2 2
6 -9 -8.59488296508789062 34 3 3
5.65405988693237305 -9 8 26 36 0
6 -9.61134147644042969 8 44 44 0
6 -9 7.52845478057861328 43 0 0
6 -9 8.61134147644042969 46 28 0
5.4635310173034668 -8 -9 33 10 10
6 -8 -9.56874847412109375 37 5 5
6 -8 -8.604461669921875 33 5 5
5.34141159057617188 -8 8 35 12 1
6 -8 7.5713658332824707 44 15 0
6 -8 8.58857631683349609 47 41 0
6 -7 -9.40585136413574219 36 11 11
6 -7 -8.79722881317138672 33 7 7
6 -7 7.79936075210571289 44 42 0
6 -7 8.40331459045410156 32 47 0
5.72887754440307617 -6 -9 28 22 22
6 -6.44540596008300781 -9 33 7 7
5.7163538932800293 -6 8 7 44 0
6 -6.4974207878112793 8 32 47 0
5.43819475173950195 -5 -9 26 24 24
5.42953872680664062 -5 8 11 45 0
5.2535090446472168 -4 -9 25 18 18
5.24040794372558594 -4 8 0 46 8
5.0938262939453125 -3 -9 26 16 16
5.07658147811889648 -3 8 0 46 32
5.08158016204833984 2 -9 7 16 33
5.09220027923583984 2 8 44 1 26
5.24785518646240234 3 -9 3 34 30
5.25000143051147461 3 8 43 2 35
5.43990135192871094 4 -9 25 28 1
5.4323725700378418 4 8 43 3 36
5.73447751998901367 5 -9 33 27 22
5.71708917617797852 5 8 44 6 36
6 5.46012544631958008 -9 5 32 4
6 6 -9.40585136413574219 32 0 44
6 6 -8.79730987548828125 10 23 30
6 5.4701075553894043 8 13 31 46
6 6 7.79772138595581055 16 47 39
6 6 8.40523624420166016 23 44 27
5.41233301162719727 7 -9 39 30 4
6 7 -9.57309341430664062 43 0 44
6 7 -8.59431362152099609 3 36 34
5.41114091873168945 7 8 37 8 49
6 7 7.58313131332397461 25 47 47
6 7 8.58228778839111328 40 44 31
5.70154809951782227 8 -9 9 37 9
6 8 -9.57966995239257812 32 0 41
6 8 -8.57944107055664062 0 11 43
5.67810773849487305 8 8 8 14 51
6 8 7.54710626602172852 30 46 47
6 8 8.60242080688476562 42 43 38
6 8.57966995239257812 -9 0 11 43
6 8.60242080688476562 8 42 43 38
6.87853145599365234 -9 -9 34 3 3
6.84224987030029297 -9 8 46 28 0
6.35406494140625 -8 -9 33 5 5
6.35434770584106445 -8 8 47 41 0
6.11614608764648438 -7 -9 33 7 7
6.11002635955810547 -7 8 32 47 0
6.11683845520019531 6 -9 10 23 30
6.11154413223266602 6 8 23 44 27
6.35993051528930664 7 -9 3 36 34
6.35040187835693359 7 8 40 44 31
6.88503074645996094 8 -9 0 11 43
6.8412318229675293 8 8 42 43 38
3 2 1 0
3 1 3 0
3 6 5 4
3 5 7 4
3 9 2 0
3 8 9 0
3 3 10 8
3 0 3 8
3 12 6 4
3 11 12 4
3 7 13 11
3 4 7 11
3 15 9 8
3 14 15 8
3 10 16 14
3 8 10 14
3 18 12 11
3 17 18 11
3 13 19 17
3 11 13 17
3 15 14 20
3 14 16 20
3 18 17 21
3 17 19 21
3 24 23 22
3 23 25 22
3 28 27 26
3 27 29 26
3 31 24 22
3 30 31 22
3 25 32 30
3 22 25 30
3 34 28 26
3 33 34 26
3 29 35 33
3 26 29 33
3 37 31 30
3 36 37 30
3 32 38 36
3 30 32 36
3 40 34 33
3 39 40 33
3 35 41 39
3 33 35 39
3 37 36 42
3 36 38 42
3 40 39 43
3 39 41 43
3 1 2 44
3 1 44 3
3 5 6 45
3 5 45 7
3 46 44 2
3 9 46 2
3 44 46 10
3 3 44 10
3 47 45 6
3 12 47 6
3 45 47 13
3 7 45 13
3 48 46 9
3 48 9 49
3 49 9 15
3 46 48 50
3 46 50 10
3 10 50 16
3 51 47 12
3 51 12 52
3 52 12 18
3 47 51 53
3 47 53 13
3 13 53 19
3 20 54 55
3 20 55 15
3 15 55 49
3 54 20 16
3 54 16 56
3 56 16 50
3 21 57 58
3 21 58 18
3 18 58 52
3 57 21 19
3 57 19 59
3 59 19 53
3 61 55 54
3 60 61 54
3 56 62 60
3 54 56 60
3 64 58 57
3 63 64 57
3 59 65 63
3 57 59 63
3 67 61 60
3 66 67 60
3 62 68 66
3 60 62 66
3 70 64 63
3 69 70 63
3 65 71 69
3 63 65 69
3 73 67 66
3 72 73 66
3 68 74 72
3 66 68 72
3 76 70 69
3 75 76 69
3 71 77 75
3 69 71 75
3 73 72 78
3 72 74 78
3 76 75 79
3 75 77 79
3 82 81 80
3 81 83 80
3 86 85 84
3 85 87 84
3 89 82 80
3 88 89 80
3 83 90 88
3 80 83 88
3 92 86 84
3 91 92 84
3 87 93 91
3 84 87 91
3 95 89 88
3 94 95 88
3 90 96 94
3 88 90 94
3 98 92 91
3 97 98 91
3 93 99 97
3 91 93 97
3 101 95 94
3 100 101 94
3 96 102 100
3 94 96 100
3 104 98 97
3 103 104 97
3 99 105 103
3 97 99 103
3 100 23 24
3 100 24 101
3 101 24 106
3 23 100 102
3 23 102 25
3 25 102 107
3 103 27 28
3 103 28 104
3 104 28 108
3 27 103 105
3 27 105 29
3 29 105 109
3 110 111 106
3 110 106 31
3 31 106 24
3 111 110 32
3 111 32 107
3 107 32 25
3 112 113 108
3 112 108 34
3 34 108 28
3 113 112 35
3 113 35 109
3 109 35 29
3 114 110 31
3 37 114 31
3 110 114 38
3 32 110 38
3 115 112 34
3 40 115 34
3 112 115 41
3 35 112 41
3 114 37 42
3 114 42 38
3 115 40 43
3 115 43 41
3 48 49 116
3 48 116 50
3 51 52 117
3 51 117 53
3 118 116 49
3 55 118 49
3 116 118 56
3 50 116 56
3 119 117 52
3 58 119 52
3 117 119 59
3 53 117 59
3 120 118 55
3 120 55 121
3 121 55 61
3 118 120 122
3 118 122 56
3 56 122 62
3 123 119 58
3 64 123 58
3 119 123 65
3 59 119 65
3 121 61 124
3 124 61 67
3 122 125 62
3 125 68 62
3 126 123 64
3 126 64 127
3 127 64 70
3 123 126 128
3 123 128 65
3 65 128 71
3 124 67 129
3 129 67 73
3 130 125 131
3 130 74 125
3 74 68 125
3 131 132 130
3 127 70 133
3 133 70 76
3 128 134 71
3 134 77 71
3 78 135 136
3 78 136 73
3 73 136 129
3 74 135 78
3 74 130 135
3 130 137 135
3 132 138 137
3 130 132 137
3 141 140 139
3 140 142 139
3 140 76 142
3 140 133 76
3 76 79 142
3 142 79 77
3 142 77 143
3 143 77 134
3 145 136 135
3 144 145 135
3 135 137 144
3 137 146 144
3 138 147 146
3 137 138 146
3 149 141 139
3 148 149 139
3 139 142 148
3 142 150 148
3 143 151 150
3 142 143 150
3 153 145 144
3 152 153 144
3 144 146 152
3 146 154 152
3 147 155 154
3 146 147 154
3 157 149 148
3 156 157 148
3 148 150 156
3 150 158 156
3 151 159 158
3 150 151 158
3 161 153 152
3 160 161 152
3 152 154 160
3 154 162 160
3 155 163 162
3 154 155 162
3 165 157 156
3 164 165 156
3 156 158 164
3 158 166 164
3 159 167 166
3 158 159 166
3 160 81 82
3 160 82 161
3 161 82 168
3 81 169 83
3 81 160 169
3 160 162 169
3 163 170 169
3 162 163 169
3 172 165 164
3 171 172 164
3 86 166 85
3 86 171 166
3 171 164 166
3 85 166 167
3 85 167 87
3 87 167 173
3 168 82 174
3 174 82 89
3 175 83 169
3 175 176 83
3 176 90 83
3 169 170 175
3 172 171 177
3 171 178 177
3 171 86 178
3 86 92 178
3 173 179 87
3 179 93 87
3 174 89 180
3 180 89 95
3 176 181 90
3 181 96 90
3 178 92 182
3 182 92 98
3 179 183 93
3 183 99 93
3 184 185 180
3 184 180 101
3 101 180 95
3 185 184 102
3 185 102 181
3 181 102 96
3 186 187 182
3 186 182 104
3 104 182 98
3 187 186 105
3 187 105 183
3 183 105 99
3 188 184 101
3 106 188 101
3 184 188 107
3 102 184 107
3 189 186 104
3 108 189 104
3 186 189 109
3 105 186 109
3 188 106 111
3 188 111 107
3 189 108 113
3 189 113 109
3 120 121 190
3 120 190 122
3 191 190 121
3 124 191 121
3 190 191 125
3 122 190 125
3 126 127 192
3 126 192 128
3 193 191 124
3 193 124 194
3 194 124 129
3 196 195 131
3 193 196 131
3 193 131 125
3 193 125 191
3 131 195 132
3 197 192 127
3 133 197 127
3 192 197 134
3 128 192 134
3 194 129 198
3 198 129 136
3 200 195 196
3 199 195 200
3 195 199 138
3 132 195 138
3 140 141 201
3 201 203 202
3 140 201 202
3 140 202 197
3 140 197 133
3 197 202 204
3 197 204 134
3 134 204 143
3 198 136 205
3 205 136 145
3 200 206 199
3 199 206 207
3 199 207 138
3 138 207 147
3 208 201 141
3 208 141 209
3 209 141 149
3 201 208 203
3 204 210 143
3 210 151 143
3 205 145 211
3 211 145 153
3 207 212 147
3 212 155 147
3 209 149 213
3 213 149 157
3 210 214 151
3 214 159 151
3 211 153 215
3 215 153 161
3 218 216 217
3 217 216 163
3 217 163 212
3 212 163 155
3 219 220 213
3 219 213 165
3 165 213 157
3 220 219 221
3 214 222 159
3 222 167 159
3 223 224 215
3 223 215 168
3 168 215 161
3 224 216 218
3 224 223 216
3 223 225 216
3 216 225 170
3 163 216 170
3 226 219 165
3 172 226 165
3 221 226 227
3 219 226 221
3 222 228 167
3 228 173 167
3 229 223 168
3 174 229 168
3 176 175 225
3 176 225 229
3 229 225 223
3 225 175 170
3 226 172 177
3 177 178 230
3 226 177 230
3 226 230 231
3 226 231 227
3 231 230 179
3 231 179 228
3 228 179 173
3 232 229 174
3 180 232 174
3 229 232 181
3 176 229 181
3 233 230 178
3 182 233 178
3 230 233 183
3 179 230 183
3 232 180 185
3 232 185 181
3 233 182 187
3 233 187 183
3 193 194 234
3 193 234 196
3 235 234 194
3 198 235 194
3 234 235 200
3 196 234 200
3 202 203 236
3 202 236 204
3 237 235 198
3 237 198 238
3 238 198 205
3 240 239 206
3 237 240 206
3 237 206 200
3 237 200 235
3 206 239 207
3 208 209 241
3 203 208 241
3 203 241 236
3 236 241 242
3 236 242 210
3 204 236 210
3 243 244 238
3 243 238 211
3 211 238 205
3 244 239 240
3 244 243 239
3 243 245 239
3 239 245 212
3 207 239 212
3 246 241 209
3 213 246 209
3 247 246 248
3 247 242 246
3 242 241 246
3 242 247 249
3 242 249 210
3 210 249 214
3 250 243 211
3 215 250 211
3 218 217 245
3 218 245 250
3 250 245 243
3 245 217 212
3 246 213 220
3 220 221 251
3 246 220 251
3 246 251 252
3 246 252 248
3 252 251 222
3 252 222 249
3 249 222 214
3 250 215 224
3 250 224 218
3 253 251 221
3 227 253 221
3 251 253 228
3 222 251 228
3 253 227 231
3 253 231 228
3 237 238 254
3 237 254 240
3 254 238 244
3 254 244 240
3 247 248 255
3 247 255 249
3 255 248 252
3 255 252 249
3 258 257 256
3 257 259 256
3 262 261 260
3 261 263 260
3 258 256 264
3 256 259 264
3 262 260 265
3 260 263 265
3 268 267 266
3 267 269 266
3 272 271 270
3 271 273 270
3 275 268 266
3 274 275 266
3 269 276 274
3 266 269 274
3 278 272 270
3 277 278 270
3 273 280 279
3 273 279 270
3 270 279 277
3 280 281 279
3 284 283 282
3 274 257 258
3 275 274 258
3 275 258 282
3 275 282 283
3 257 274 276
3 257 276 259
3 259 276 285
3 277 261 262
3 277 262 278
3 278 262 286
3 261 287 263
3 261 277 287
3 277 279 287
3 281 288 287
3 279 281 287
3 290 284 282
3 289 290 282
3 264 282 258
3 264 291 282
3 291 289 282
3 291 264 259
3 291 259 292
3 292 259 285
3 265 293 294
3 265 294 262
3 262 294 286
3 293 295 296
3 265 295 293
3 265 287 295
3 265 263 287
3 287 288 295
3 290 289 297
3 299 297 289
3 299 289 298
3 298 289 291
3 292 300 298
3 291 292 298
3 302 294 293
3 301 302 293
3 296 303 301
3 293 296 301
3 299 298 304
3 298 300 304
3 302 301 305
3 301 303 305
3 308 307 306
3 307 309 306
3 312 311 310
3 311 313 310
3 315 308 306
3 314 315 306
3 309 316 314
3 306 309 314
3 318 312 310
3 317 318 310
3 313 320 319
3 313 319 310
3 310 319 317
3 320 321 319
3 324 323 322
3 314 267 268
3 315 314 268
3 315 268 322
3 315 322 323
3 267 314 316
3 267 316 269
3 269 316 325
3 317 271 272
3 317 272 318
3 318 272 326
3 271 327 273
3 271 317 327
3 317 319 327
3 321 328 327
3 319 321 327
3 330 324 322
3 329 330 322
3 322 275 329
3 268 275 322
3 325 331 269
3 331 276 269
3 326 272 332
3 332 272 278
3 327 280 273
3 280 327 328
3 280 328 281
3 281 328 333
3 329 283 284
3 329 284 330
3 330 284 334
3 329 275 283
3 331 335 276
3 335 285 276
3 332 278 336
3 336 278 286
3 333 337 281
3 337 288 281
3 334 284 338
3 338 284 290
3 335 339 285
3 339 292 285
3 336 286 340
3 340 286 294
3 295 341 296
3 341 295 288
3 341 288 342
3 342 288 337
3 297 343 344
3 297 344 290
3 290 344 338
3 297 299 343
3 339 345 292
3 345 300 292
3 340 294 346
3 346 294 302
3 347 296 341
3 303 296 347
3 342 348 347
3 341 342 347
3 344 343 349
3 351 304 350
3 349 304 351
3 349 299 304
3 349 343 299
3 350 304 300
3 350 300 352
3 352 300 345
3 305 353 354
3 305 354 302
3 302 354 346
3 353 355 356
3 305 355 353
3 305 347 355
3 305 303 347
3 347 348 355
3 358 351 350
3 357 358 350
3 352 359 357
3 350 352 357
3 361 354 353
3 360 361 353
3 356 362 360
3 353 356 360
3 358 357 363
3 357 359 363
3 361 360 364
3 360 362 364
3 367 366 365
3 366 368 365
3 371 370 369
3 370 372 369
3 374 367 365
3 373 374 365
3 368 375 373
3 365 368 373
3 377 371 369
3 376 377 369
3 372 378 376
3 369 372 376
3 380 374 373
3 379 380 373
3 375 381 379
3 373 375 379
3 376 307 308
3 376 308 377
3 377 308 382
3 307 376 378
3 307 378 309
3 309 378 383
3 379 311 312
3 379 312 380
3 380 312 384
3 311 379 381
3 311 381 313
3 313 381 385
3 382 308 386
3 386 308 315
3 383 387 309
3 387 316 309
3 384 312 388
3 388 312 318
3 320 390 389
3 320 313 390
3 313 385 390
3 320 389 321
3 323 324 391
3 391 315 323
3 391 392 315
3 392 386 315
3 387 393 316
3 393 325 316
3 394 395 388
3 394 388 326
3 326 388 318
3 395 389 390
3 395 394 389
3 394 396 389
3 389 396 328
3 321 389 328
3 397 391 324
3 330 397 324
3 392 398 399
3 392 391 398
3 391 397 398
3 399 398 331
3 399 331 393
3 393 331 325
3 400 394 326
3 332 400 326
3 394 400 396
3 396 400 401
3 396 401 333
3 328 396 333
3 402 397 330
3 334 402 330
3 397 402 398
3 398 402 403
3 398 403 335
3 331 398 335
3 404 400 332
3 336 404 332
3 400 404 401
3 401 404 405
3 401 405 337
3 333 401 337
3 406 402 334
3 338 406 334
3 402 406 403
3 403 406 407
3 403 407 339
3 335 403 339
3 408 404 336
3 340 408 336
3 404 408 405
3 405 408 409
3 405 409 342
3 337 405 342
3 410 406 338
3 344 410 338
3 406 410 407
3 407 410 411
3 407 411 345
3 339 407 345
3 412 408 340
3 412 340 413
3 413 340 346
3 415 408 412
3 415 414 408
3 414 409 408
3 409 414 348
3 342 409 348
3 410 344 349
3 416 411 410
3 416 410 351
3 416 351 417
3 351 410 349
3 411 416 418
3 411 418 345
3 345 418 352
3 413 346 419
3 419 346 354
3 414 356 355
3 414 415 356
3 415 420 356
3 414 355 348
3 417 351 421
3 421 351 358
3 418 422 352
3 422 359 352
3 419 354 423
3 423 354 361
3 420 424 356
3 424 362 356
3 363 425 426
3 363 426 358
3 358 426 421
3 425 363 359
3 425 359 427
3 427 359 422
3 364 428 429
3 364 429 361
3 361 429 423
3 428 364 362
3 428 362 430
3 430 362 424
3 432 426 425
3 431 432 425
3 427 433 431
3 425 427 431
3 435 429 428
3 434 435 428
3 430 436 434
3 428 430 434
3 438 432 431
3 437 438 431
3 433 439 437
3 431 433 437
3 435 434 440
3 434 436 440
3 438 437 441
3 437 439 441
3 444 443 442
3 443 445 442
3 448 447 446
3 447 449 446
3 451 444 442
3 450 451 442
3 445 452 450
3 442 445 450
3 454 448 446
3 453 454 446
3 449 455 453
3 446 449 453
3 450 366 367
3 450 367 451
3 451 367 456
3 366 450 452
3 366 452 368
3 368 452 457
3 453 370 371
3 453 371 454
3 454 371 458
3 370 453 455
3 370 455 372
3 372 455 459
3 460 461 456
3 460 456 374
3 374 456 367
3 461 460 375
3 461 375 457
3 457 375 368
3 462 463 458
3 462 458 377
3 377 458 371
3 463 462 378
3 463 378 459
3 459 378 372
3 464 460 374
3 380 464 374
3 460 464 381
3 375 460 381
3 465 462 377
3 382 465 377
3 462 465 383
3 378 462 383
3 466 464 380
3 384 466 380
3 464 466 385
3 381 464 385
3 467 465 382
3 386 467 382
3 465 467 387
3 383 465 387
3 468 466 384
3 388 468 384
3 466 468 390
3 385 466 390
3 469 467 386
3 392 469 386
3 467 469 393
3 387 467 393
3 468 388 395
3 468 395 390
3 469 392 399
3 469 399 393
3 412 413 470
3 412 470 415
3 416 417 471
3 416 471 418
3 472 470 413
3 419 472 413
3 470 472 420
3 415 470 420
3 473 471 417
3 421 473 417
3 471 473 422
3 418 471 422
3 474 472 419
3 423 474 419
3 472 474 424
3 420 472 424
3 475 473 421
3 426 475 421
3 473 475 427
3 422 473 427
3 476 474 423
3 429 476 423
3 474 476 430
3 424 474 430
3 477 475 426
3 432 477 426
3 475 477 433
3 427 475 433
3 478 476 429
3 478 429 479
3 479 429 435
3 476 478 480
3 476 480 430
3 430 480 436
3 481 477 432
3 481 432 482
3 482 432 438
3 477 481 483
3 477 483 433
3 433 483 439
3 440 484 485
3 440 485 435
3 435 485 479
3 484 440 436
3 484 436 486
3 486 436 480
3 441 487 488
3 441 488 438
3 438 488 482
3 487 441 439
3 487 439 489
3 489 439 483
3 491 485 484
3 490 491 484
3 486 492 490
3 484 486 490
3 494 488 487
3 493 494 487
3 489 495 493
3 487 489 493
3 491 490 496
3 490 492 496
3 494 493 497
3 493 495 497
3 443 444 498
3 443 498 445
3 447 448 499
3 447 499 449
3 500 498 444
3 451 500 444
3 498 500 452
3 445 498 452
3 501 499 448
3 454 501 448
3 499 501 455
3 449 499 455
3 502 500 451
3 456 502 451
3 500 502 457
3 452 500 457
3 503 501 454
3 458 503 454
3 501 503 459
3 455 501 459
3 502 456 461
3 502 461 457
3 503 458 463
3 503 463 459
3 478 479 504
3 478 504 480
3 481 482 505
3 481 505 483
3 506 504 479
3 485 506 479
3 504 506 486
3 480 504 486
3 507 505 482
3 488 507 482
3 505 507 489
3 483 505 489
3 508 506 485
3 491 508 485
3 506 508 492
3 486 506 492
3 509 507 488
3 494 509 488
3 507 509 495
3 489 507 495
3 508 491 496
3 508 496 492
3 509 494 497
3 509 497 495
