ply
format ascii 1.0
element vertex 118
property float x
property float y
property float z
property uchar red
property uchar green
property uchar blue
element face 228
property list uchar int vertex_indices
end_header
6.94167137145996094 6 8 99 67 67
7 5.80038833618164062 8 101 67 65
7 6 7.90809249877929688 100 70 70
7 6 8.18294906616210938 109 73 69
6.70273351669311523 7 -9 112 72 69
7 6.06514406204223633 -9 110 70 65
7 7 -9.53000926971435547 137 94 69
7 7 -8.52436637878417969 120 80 69
6.62279129028320312 7 8 109 77 72
7 7 7.40550422668457031 111 81 76
7 7 8.58767509460449219 117 84 72
6.35376262664794922 8 -9 124 85 75
7 8 -9.70666694641113281 149 111 73
6.97925662994384766 8 -8 108 74 72
7 7.93970012664794922 -8 106 71 69
7 8 -7.96196174621582031 116 82 73
6.90967702865600586 8 7 116 88 83
7 7.7374119758605957 7 111 81 76
7 8 6.83719873428344727 123 96 90
6.27240514755249023 8 8 119 89 77
7 8 8.72982501983642578 127 98 76
7 8.70666694641113281 -9 131 93 73
7 8.07388401031494141 -8 116 82 73
7 8.25716114044189453 7 123 94 83
7 8.72982501983642578 8 127 98 76
7.97645854949951172 2 -9 80 56 50
8 1.86534273624420166 -9 87 55 51
8 2 -9.08916568756103516 103 57 52
8 2 -8.95927238464355469 92 55 53
7.90351247787475586 2 8 82 69 55
8 1.44800913333892822 8 90 75 56
8 2 7.83556938171386719 78 66 54
8 2 8.28555011749267578 94 73 58
7.77765655517578125 3 -9 87 58 54
8 3 -9.47775936126708984 110 64 55
8 3 -8.61525726318359375 99 57 56
7.70395088195800781 3 8 87 69 58
8 3 7.49538946151733398 85 68 58
8 3 8.54818058013916016 99 71 61
7.55265998840332031 4 -9 94 59 57
8 4 -9.64519023895263672 118 73 57
8 4 -8.22576045989990234 105 64 59
7.47806215286254883 4 8 94 68 61
8 4 7.11018228530883789 93 69 63
8 4 8.67877769470214844 105 67 64
7.30047130584716797 5 -9 102 62 61
8 5 -9.73718547821044922 125 82 60
7.88187932968139648 5 -8 90 64 61
8 4.52036809921264648 -8 95 61 60
8 5 -7.76571846008300781 102 65 63
7.81721353530883789 5 7 90 68 64
8 4.25770902633666992 7 93 69 63
8 5 6.64364862442016602 93 71 67
7.22483444213867188 5 8 101 67 65
8 5 8.755828857421875 112 70 66
7.01989984512329102 6 -9 110 70 65
8 6 -9.79467582702636719 134 94 63
7.61010122299194336 6 -8 98 66 65
8 6 -7.22643852233886719 109 72 66
7.54449892044067383 6 7 100 70 70
8 6 6.11171388626098633 104 74 74
8 6 8.80606174468994141 119 81 69
8 7 -9.83361244201660156 144 108 66
7.30989456176757812 7 -8 106 71 69
7.81880617141723633 7 -7 96 70 68
8 6.38380527496337891 -7 100 68 67
8 7 -6.57926034927368164 107 75 70
7.76259040832519531 7 6 108 82 81
8 6.19255685806274414 6 104 74 74
8 7 5.45967388153076172 117 90 88
7.24320697784423828 7 7 111 81 76
8 7 8.84104251861572266 127 94 72
8 8 -9.86147975921630859 155 127 69
7.49780178070068359 8 -7 104 75 72
7.92992734909057617 8 -6 95 72 72
8 7.77968454360961914 -6 100 72 71
8 8 -5.80399560928344727 106 79 74
7.8826446533203125 8 5 122 98 96
8 7.6309967041015625 5 117 90 88
8 8 4.67953729629516602 128 103 100
7.44061374664306641 8 6 123 96 90
8 8 8.86657142639160156 135 109 75
8 8.86147975921630859 -9 139 106 71
8 8.80079936981201172 -8 125 92 73
8 8.67055034637451172 -7 114 83 73
8 8.22520923614501953 -6 106 79 74
8 8.32686042785644531 5 131 103 96
8 8.69326496124267578 6 130 102 89
8 8.81031322479248047 7 131 103 81
8 8.86657142639160156 8 135 109 75
8.08916568756103516 2 -9 92 55 53
8.28555011749267578 2 8 94 73 58
8.47775936126708984 3 -9 99 57 56
8.54818058013916016 3 8 99 71 61
8.64519023895263672 4 -9 105 64 59
8.67877769470214844 4 8 105 67 64
8.73718547821044922 5 -9 113 71 62
8.32828330993652344 5 -8 102 65 63
8.42976570129394531 5 7 101 68 67
8.755828857421875 5 8 112 70 66
8.79467582702636719 6 -9 120 80 65
8.61387538909912109 6 -8 109 72 66
8.64921760559082031 6 7 110 76 71
8.80606174468994141 6 8 119 81 69
8.83361244201660156 7 -9 129 91 68
8.73464870452880859 7 -8 117 81 69
8.427642822265625 7 -7 107 75 70
8.49393367767333984 7 6 117 87 81
8.75156211853027344 7 7 120 88 76
8.84104251861572266 7 8 127 94 72
8.86147975921630859 8 -9 139 106 71
8.80079936981201172 8 -8 125 92 73
8.67055034637451172 8 -7 114 83 73
8.22520923614501953 8 -6 106 79 74
8.32686042785644531 8 5 131 103 96
8.69326496124267578 8 6 130 102 89
8.81031322479248047 8 7 131 103 81
8.86657142639160156 8 8 135 109 75
3 2 1 0
3 1 3 0
3 6 5 4
3 5 7 4
3 9 2 0
3 8 9 0
3 3 10 8
3 0 3 8
3 12 6 4
3 11 12 4
3 7 14 13
3 7 13 4
3 4 13 11
3 14 15 13
3 18 17 16
3 17 9 8
3 17 8 16
3 16 8 19
3 10 20 19
3 8 10 19
3 12 11 21
3 11 13 22
3 21 11 22
3 13 15 22
3 18 16 23
3 16 19 24
3 23 16 24
3 19 20 24
3 27 26 25
3 26 28 25
3 31 30 29
3 30 32 29
3 34 27 25
3 33 34 25
3 28 35 33
3 25 28 33
3 37 31 29
3 36 37 29
3 32 38 36
3 29 32 36
3 40 34 33
3 39 40 33
3 35 41 39
3 33 35 39
3 43 37 36
3 42 43 36
3 38 44 42
3 36 38 42
3 46 40 39
3 45 46 39
3 41 48 47
3 41 47 39
3 39 47 45
3 48 49 47
3 52 51 50
3 51 43 42
3 51 42 50
3 50 42 53
3 44 54 53
3 42 44 53
3 56 46 45
3 55 56 45
3 45 47 55
3 47 57 55
3 49 58 57
3 47 49 57
3 60 52 50
3 59 60 50
3 2 53 1
3 2 59 53
3 59 50 53
3 1 53 54
3 1 54 3
3 3 54 61
3 55 5 6
3 55 6 56
3 56 6 62
3 5 63 7
3 5 55 63
3 55 57 63
3 58 65 64
3 58 64 57
3 57 64 63
3 65 66 64
3 69 68 67
3 68 60 59
3 68 59 67
3 67 59 70
3 59 9 70
3 2 9 59
3 61 71 3
3 71 10 3
3 62 6 72
3 72 6 12
3 63 14 7
3 14 73 15
3 14 63 73
3 63 64 73
3 66 75 74
3 66 74 64
3 64 74 73
3 75 76 74
3 79 78 77
3 78 69 67
3 78 67 77
3 77 67 80
3 18 70 17
3 18 80 70
3 80 67 70
3 70 9 17
3 71 81 10
3 81 20 10
3 72 12 21
3 82 72 21
3 82 21 83
3 21 22 83
3 15 73 84
3 15 84 22
3 22 84 83
3 73 74 85
3 84 73 85
3 74 76 85
3 79 77 86
3 77 80 87
3 86 77 87
3 80 18 23
3 80 23 87
3 87 23 88
3 88 23 89
3 23 24 89
3 89 24 20
3 81 89 20
3 26 27 90
3 26 90 28
3 30 31 91
3 30 91 32
3 92 90 27
3 34 92 27
3 90 92 35
3 28 90 35
3 93 91 31
3 37 93 31
3 91 93 38
3 32 91 38
3 94 92 34
3 40 94 34
3 92 94 41
3 35 92 41
3 95 93 37
3 43 95 37
3 93 95 44
3 38 93 44
3 96 94 40
3 46 96 40
3 48 41 94
3 48 94 97
3 97 94 96
3 48 97 49
3 51 52 98
3 43 51 98
3 43 98 95
3 95 98 99
3 95 99 54
3 44 95 54
3 100 96 46
3 56 100 46
3 96 100 97
3 97 100 101
3 97 101 58
3 49 97 58
3 102 98 52
3 60 102 52
3 98 102 99
3 99 102 103
3 99 103 61
3 54 99 61
3 104 100 56
3 62 104 56
3 100 104 101
3 101 104 105
3 65 58 101
3 65 101 106
3 106 101 105
3 65 106 66
3 68 69 107
3 60 68 107
3 60 107 102
3 102 107 108
3 102 108 103
3 103 108 109
3 103 109 71
3 61 103 71
3 110 104 62
3 72 110 62
3 104 110 105
3 105 110 111
3 105 111 106
3 106 111 112
3 75 66 106
3 75 106 113
3 113 106 112
3 75 113 76
3 78 79 114
3 69 78 114
3 69 114 107
3 107 114 115
3 107 115 108
3 108 115 116
3 108 116 109
3 109 116 117
3 109 117 81
3 71 109 81
3 110 72 82
3 111 110 82
3 83 111 82
3 112 111 83
3 84 112 83
3 113 112 84
3 85 113 84
3 113 85 76
3 114 79 86
3 115 114 86
3 87 115 86
3 116 115 87
3 88 116 87
3 117 116 88
3 89 117 88
3 117 89 81
