ply
format ascii 1.0
element vertex 374
property float x
property float y
property float z
property uchar red
property uchar green
property uchar blue
element face 744
property list uchar int vertex_indices
end_header
-7.07079315185546875 8 -4 114 126 155
-7 7.89168834686279297 -4 27 35 35
-7 8 -4.12938499450683594 104 116 149
-7.28468036651611328 8 -3 108 121 137
-7 7.83766460418701172 -3 13 16 15
-7.40294170379638672 8 -2 102 113 121
-7 7.9042201042175293 -2 46 52 47
-7.38112735748291016 8 -1 98 107 111
-7 7.97102785110473633 -1 66 70 65
-7.32837581634521484 8 0 100 107 108
-7 7.97491168975830078 0 71 73 71
-7.35497426986694336 8 1 108 113 114
-7 7.91454410552978516 1 61 61 61
-7.25100374221801758 8 2 122 125 126
-7 7.85534906387329102 2 31 32 31
-7.03570127487182617 8 3 139 141 141
-7 7.94587850570678711 3 13 13 13
-7 8 3.0632317066192627 99 100 100
-7 8.88082122802734375 -4 90 104 119
-7 8.95388317108154297 -3 71 82 86
-7 8.93012237548828125 -2 51 58 58
-7 8.79670810699462891 -1 38 41 41
-7 8.77195644378662109 0 37 38 38
-7 8.92192459106445312 1 48 49 49
-7 8.94832515716552734 2 71 72 72
-7 8.78709220886230469 3 99 100 100
-6.29791164398193359 8 -5 104 116 149
-6 7.81265544891357422 -5 12 17 17
-6 8 -5.40466785430908203 98 109 153
-6 7.95211553573608398 -4 40 50 43
-6.6634364128112793 8 -3 71 82 86
-6 8 -3.86147522926330566 48 59 61
-6.85392284393310547 8 -2 51 58 58
-6.95970916748046875 8 -1 38 41 41
-6.96516084671020508 8 0 37 38 38
-6.87036895751953125 8 1 48 49 49
-6.7039647102355957 8 2 71 72 72
-6 7.97887706756591797 3 69 71 67
-6 8 2.9388430118560791 3 3 3
-6.23558950424194336 8 4 127 129 129
-6 7.84967327117919922 4 10 10 10
-6 8 4.3108830451965332 84 87 86
-6 8.95475578308105469 -5 80 95 112
-6 8.86765766143798828 -4 48 59 61
-6 8.73976898193359375 3 38 40 39
-6 8.94406986236572266 4 84 87 86
-5.4197382926940918 8 -6 98 109 153
-5 7.80069351196289062 -6 21 31 31
-5 8 -6.32638263702392578 97 103 167
-5.16971492767333984 8 -5 80 95 112
-5 8 -5.16112852096557617 81 96 123
-5.92042207717895508 8 -4 48 59 61
-5.96538782119750977 8 3 38 40 39
-5.35657358169555664 8 4 84 87 86
-5.31683778762817383 8 5 124 128 127
-5 7.84553623199462891 5 2 2 2
-5 8 4.35025548934936523 31 33 31
-5 8 5.24432611465454102 90 94 92
-5 8.95736789703369141 -6 81 96 123
-5 8.94551277160644531 5 90 94 92
-4.02570199966430664 6 -2 167 168 163
-4 5.89728498458862305 -2 176 175 170
-4 6 -2.0639188289642334 163 166 153
-4.19184684753417969 6 -1 173 173 171
-4 5.6235508918762207 -1 178 178 177
-4.17766427993774414 6 0 175 174 166
-4 5.65168905258178711 0 180 175 172
-4 6 0.929986298084259033 179 175 169
-4 6.02115774154663086 -2 173 173 169
-4 6.16514921188354492 -1 177 177 174
-4 6.15298128128051758 0 179 175 169
-4.20544910430908203 8 -7 97 103 167
-4 7.82355546951293945 -7 45 64 76
-4 8 -7.11533069610595703 101 95 186
-4 7.93042659759521484 -6 15 22 19
-4 8 -5.88503694534301758 58 76 87
-4 7.97117519378662109 5 55 56 52
-4 8 4.95285987854003906 20 21 19
-4.08941841125488281 8 6 135 141 139
-4 7.92282962799072266 6 36 37 36
-4 8 6.05090618133544922 115 120 117
-4 8.92298412322998047 -7 88 99 149
-4 8.90614891052246094 -6 58 76 87
-4 8.79586410522460938 5 52 55 53
-4 8.84052085876464844 6 115 120 117
-3.35979342460632324 6 -3 163 166 153
-3 5.51071453094482422 -3 169 167 153
-3 6 -3.38539791107177734 150 158 135
-3 5.49915361404418945 -2 172 169 165
-3 5.54779767990112305 -1 173 173 173
-3 5.56003427505493164 0 175 170 168
-3.96930146217346191 6 1 178 172 163
-3 5.54460382461547852 1 177 167 165
-3.2563166618347168 6 2 175 167 157
-3 5.65204668045043945 2 177 164 161
-3 6 2.26204013824462891 176 166 158
-3 6.21364784240722656 -3 166 168 154
-3 6.76892900466918945 -2 173 173 168
-3.14895868301391602 7 -1 165 165 161
-3 7 -1.55039548873901367 163 164 159
-3.13651752471923828 7 0 166 165 157
-3 6.6977238655090332 1 178 170 164
-3 7 0.45946037769317627 170 168 161
-3 6.15282630920410156 2 176 166 158
-3 7.79739999771118164 -7 23 39 40
-3 8 -7.37387275695800781 92 91 180
-3.78665924072265625 8 -6 58 76 87
-3 8 -6.57811546325683594 78 95 133
-3 7.07322216033935547 -1 169 168 165
-3 7.06722211837768555 0 170 168 161
-3.91495299339294434 8 5 52 55 53
-3 7.84133815765380859 6 0 0 0
-3 8 5.67495250701904297 19 20 19
-3 8 6.27973747253417969 96 100 97
-3 8.9629364013671875 -7 78 95 133
-3 8.95282840728759766 6 96 100 97
-2.22654080390930176 6 -4 150 158 135
-2 5.5994715690612793 -4 158 160 134
-2 6 -4.10340118408203125 122 141 110
-2 5.453521728515625 -3 164 159 146
-2 5.56266593933105469 -2 165 161 156
-2 5.62696981430053711 -1 167 165 164
-2 5.63589954376220703 0 168 165 165
-2 5.59357547760009766 1 171 162 162
-2 5.52968454360961914 2 172 160 159
-2.02946615219116211 6 3 171 160 151
-2 5.94805717468261719 3 172 158 157
-2 6 3.01318693161010742 170 158 152
-2 6.0815739631652832 -4 150 157 133
-2 6.84074115753173828 -3 165 165 150
-2.774444580078125 7 -2 163 164 159
-2 7 -2.83431458473205566 152 155 141
-2.70497465133666992 7 1 169 164 155
-2 6.72106218338012695 2 174 163 158
-2 7 1.72206568717956543 169 164 157
-2 6.01071977615356445 3 170 158 152
-2 7.85615825653076172 -7 10 18 16
-2 8 -7.68372678756713867 88 91 177
-2 8 -6.77807855606079102 70 92 121
-2 7.2191157341003418 -2 163 163 157
-2 7.34942007064819336 -1 168 168 167
-2 7.34283685684204102 0 170 168 162
-2 7.20112228393554688 1 169 164 157
-2 7.89768028259277344 6 22 22 21
-2 8 5.84423398971557617 2 2 2
-2 8 6.44169473648071289 84 86 84
-2 8.95344066619873047 -7 70 92 121
-2 8.93451213836669922 6 84 86 84
-1 5.36822938919067383 -4 153 154 126
-1 6 -4.33499860763549805 119 138 104
-1 5.47405195236206055 -3 157 151 137
-1 5.60022974014282227 -2 158 151 146
-1 5.66703939437866211 -1 159 155 154
-1 5.67505645751953125 0 161 161 161
-1 5.62708377838134766 1 164 159 159
-1 5.53584575653076172 2 166 157 157
-1 5.56816768646240234 3 167 156 155
-1 6 3.22309613227844238 166 156 152
-1 6.274200439453125 -4 146 152 126
-1.72739696502685547 7 -3 152 155 141
-1 7 -3.23274111747741699 126 137 113
-1.52101516723632812 7 2 164 158 149
-1 6.18901300430297852 3 166 156 152
-1 7 2.16325974464416504 161 156 150
-1.34741103649139404 8 -8 88 91 177
-1 7.87743186950683594 -8 59 85 120
-1 8 -8.04333209991455078 109 85 207
-1 7.90640974044799805 -7 8 13 11
-1 8 -6.86808252334594727 66 92 118
-1 7.10859107971191406 -3 148 151 135
-1 7.36910104751586914 -2 160 160 151
-1 7.53156518936157227 -1 164 164 162
-1 7.52358198165893555 0 166 165 162
-1 7.34933614730834961 1 165 162 157
-1 7.07904672622680664 2 161 156 150
-1 7.95235204696655273 6 26 27 26
-1 8 5.93355035781860352 7 7 7
-1 8 6.67938899993896484 83 83 83
-1 8.83451366424560547 -8 86 91 177
-1 8.92945480346679688 -7 66 92 118
-1 8.86707115173339844 6 83 83 83
0 5.31067943572998047 -4 145 147 116
0 6 -4.36487674713134766 109 130 95
0 5.44924068450927734 -3 150 143 126
0 5.58237648010253906 -2 151 143 135
0 5.65109491348266602 -1 152 145 143
0 5.65912055969238281 0 154 151 150
0 5.60930728912353516 1 157 157 157
0 5.51138496398925781 2 160 156 156
0 5.51179981231689453 3 161 154 154
0 6 3.25177431106567383 159 153 151
0 6.29843664169311523 -4 137 145 116
0 7 -3.25855565071105957 117 129 103
0 6.21318340301513672 3 159 153 151
0 7 2.18831276893615723 154 151 148
0 7.8515772819519043 -8 60 89 129
0 8 -8.05217361450195312 108 83 210
0 7.89979028701782227 -7 13 24 21
0 8 -6.85831212997436523 68 97 126
0 7.12018489837646484 -3 140 144 124
0 7.38221311569213867 -2 153 153 140
0 7.54751253128051758 -1 158 156 151
0 7.53947353363037109 0 160 159 159
0 7.36242532730102539 1 159 157 155
0 7.09085559844970703 2 154 151 148
0 7.94501972198486328 6 15 15 15
0 8 5.92309808731079102 3 3 3
0 8 6.79220151901245117 91 93 91
0 8.85898685455322266 -8 85 89 183
0 8.93404102325439453 -7 68 97 126
0 8.88319683074951172 6 91 93 91
1 5.2979273796081543 -4 134 138 104
1 6 -4.17962503433227539 94 117 81
1 5.36111068725585938 -3 142 137 115
1 5.50063657760620117 -2 144 135 124
1 5.57348489761352539 -1 146 136 131
1 5.58249092102050781 0 148 141 139
1 5.53196191787719727 1 151 146 146
1 5.43874073028564453 2 153 152 151
1 5.65149641036987305 3 153 152 152
1 6 3.08769750595092773 150 148 147
1 6.1413121223449707 -4 124 134 103
0.974110841751098633 7 -3 140 144 124
1 6.98719978332519531 -3 143 144 119
1 7 -2.98668837547302246 126 132 109
0.72397160530090332 7 2 154 151 148
1 6.86407327651977539 2 155 154 154
1 7 1.86455738544464111 149 148 147
1 6.0711207389831543 3 150 148 147
0.498748153448104858 8 -8 85 89 183
1 7.83841180801391602 -7 26 51 46
1 8 -7.79106044769287109 84 86 192
1 8 -6.74776029586791992 74 103 145
1 7.25457906723022461 -2 141 142 125
1 7.38873529434204102 -1 148 146 136
1 7.38212919235229492 0 150 148 144
1 7.23677825927734375 1 149 148 147
1 7.87813663482666016 6 11 11 10
1 8 5.81242561340332031 30 31 30
1 8 6.54018974304199219 108 114 109
1 8.95864105224609375 -7 74 103 145
1 8.94496059417724609 6 108 114 109
1.44968283176422119 6 -4 124 134 103
2 5.22376489639282227 -3 133 131 103
2 6 -3.60970377922058105 105 119 86
2 5.34560918807983398 -2 137 128 112
2 5.42442607879638672 -1 139 129 120
2 5.43701410293579102 0 141 131 127
2 5.39252948760986328 1 143 135 133
2 5.36933088302612305 2 144 139 137
1.22372913360595703 6 3 150 148 147
2 6 2.47339344024658203 143 140 137
2 6.3347930908203125 -3 127 132 103
2 7 -2.00902533531188965 105 114 89
1.93327903747558594 7 1 149 148 147
2 6.93724775314331055 1 145 141 136
2 7 0.888540506362915039 135 133 123
2 6.27373552322387695 2 143 140 137
2 7.76583003997802734 -7 44 88 91
2 8 -7.44299888610839844 88 83 204
2 8 -6.49816036224365234 80 105 168
2 7.00289297103881836 -2 123 126 105
2 7.13162565231323242 -1 133 132 116
2 7.12584114074707031 0 135 133 123
2 7.80746984481811523 6 51 54 49
2 8 5.59490489959716797 68 73 67
2 8 6.34705257415771484 128 143 133
2 8.96780586242675781 -7 80 105 168
2 8.96103096008300781 6 128 143 133
2.62454462051391602 6 -3 127 132 103
3 5.19685125350952148 -2 126 122 97
3 6 -2.49735665321350098 103 113 82
3 5.22413873672485352 -1 130 121 105
3 5.25346565246582031 0 132 122 112
3 5.35016489028930664 1 133 124 117
2.50807929039001465 6 2 143 140 137
3 6 1.3779609203338623 130 125 115
2.00580406188964844 7 -2 123 126 105
3 6.16100835800170898 -2 121 123 96
2.28832077980041504 7 -1 133 132 116
3 6.33463764190673828 -1 128 126 105
2.2751154899597168 7 0 135 133 123
3 6.3224029541015625 0 130 126 112
3 6.13106822967529297 1 130 125 115
3 7.71955537796020508 -7 61 106 139
3 8 -7.17970037460327148 95 80 215
2.6428065299987793 8 -6 57 98 104
3 7.88370227813720703 -6 28 54 43
3 8 -5.80197286605834961 74 116 148
2.76477456092834473 8 5 68 73 67
3 7.92022466659545898 5 20 20 17
3 8 4.86574172973632812 51 55 48
3 7.81669235229492188 6 91 108 91
3 8 6.11866998672485352 144 172 160
3 8.94940662384033203 -7 84 99 192
3 8.94312381744384766 -6 74 116 148
3 8.91762351989746094 5 105 123 110
3 8.92560577392578125 6 144 172 160
3.20772242546081543 6 -2 121 123 96
3.41640758514404297 6 -1 128 126 105
3.40101885795593262 6 0 130 126 112
3.16884040832519531 6 1 130 125 115
3.3421626091003418 8 -7 84 99 192
4 7.73190975189208984 -6 56 114 121
4 8 -6.45418405532836914 83 86 210
3.92571449279785156 8 -5 47 81 73
4 7.96023845672607422 -5 25 47 33
4 8 -4.92517757415771484 74 125 143
3.99217772483825684 8 4 51 55 48
4 7.99572515487670898 4 18 19 16
4 8 3.99200773239135742 58 69 56
4 7.77367401123046875 5 77 93 74
3.22216582298278809 8 6 144 172 160
4 8 5.36908054351806641 132 167 152
4 8.96776390075683594 -6 84 114 185
4 8.84347820281982422 -5 74 125 143
4 8.36155796051025391 4 98 122 104
4 8.96223926544189453 5 132 167 152
4.62025165557861328 8 -6 84 114 185
5 7.72823524475097656 -5 59 126 127
5 8 -5.6232762336730957 85 101 210
4.79172420501708984 8 -4 51 89 75
5 7.87746953964233398 -4 36 69 49
5 8 -3.61601758003234863 81 138 158
4.83263158798217773 8 3 58 69 56
5 7.90000057220458984 3 42 48 36
5 8 2.68707776069641113 80 111 88
5 7.76217317581176758 4 78 105 78
4.50737237930297852 8 5 132 167 152
5 8 4.51951837539672852 128 174 161
5 8.96816349029541016 -5 87 126 188
5 8.94603061676025391 -4 81 138 158
5 8.93390369415283203 3 105 144 124
5 8.96396732330322266 4 128 174 161
5.46537256240844727 8 -5 87 126 188
6 7.69754505157470703 -4 71 142 155
6 8 -4.36577320098876953 87 110 215
5.47091579437255859 8 -3 70 123 114
6 7.75371122360229492 -3 60 118 99
5.72451162338256836 8 -2 57 93 72
6 7.82428789138793945 -2 48 88 59
5.83043432235717773 8 -1 49 75 53
6 7.88065433502197266 -1 42 71 42
5.83520364761352539 8 0 50 72 51
6 7.88382387161254883 0 45 68 42
5.73946619033813477 8 1 60 85 62
6 7.83281135559082031 1 54 79 51
5.5113677978515625 8 2 80 111 88
6 7.76909399032592773 2 69 105 72
6 7.74960708618164062 3 93 141 111
5.39997625350952148 8 4 128 174 161
6 8 3.29563689231872559 127 192 188
6 8.95271492004394531 -4 91 133 201
6 8.96932029724121094 -3 92 149 185
6 8.96203422546386719 -2 92 158 169
6 8.94458103179931641 -1 92 159 156
6 8.94306373596191406 0 96 157 148
6 8.96005535125732422 1 104 164 154
6 8.96736812591552734 2 115 177 169
6 8.94396018981933594 3 127 192 188
6.19380044937133789 8 -4 91 133 201
6.47484254837036133 8 -3 92 149 185
6.89945125579833984 8 -2 92 158 169
7 7.76168441772460938 -1 84 166 162
7 8 -1.77364635467529297 99 153 210
7 7.77469968795776367 0 88 164 152
6.84249639511108398 8 1 104 164 154
7 8 0.671091377735137939 110 177 205
6.43931770324707031 8 2 115 177 169
6.16210365295410156 8 3 127 192 188
7 8.90638065338134766 -1 104 167 206
7 8.90165042877197266 0 110 177 205
7.08232641220092773 8 -1 104 167 206
7.07806301116943359 8 0 110 177 205
3 2 1 0
3 1 4 3
3 0 1 3
3 4 6 5
3 3 4 5
3 6 8 7
3 5 6 7
3 8 10 9
3 7 8 9
3 10 12 11
3 9 10 11
3 12 14 13
3 11 12 13
3 14 16 15
3 13 14 15
3 16 17 15
3 2 0 18
3 0 3 19
3 18 0 19
3 3 5 20
3 19 3 20
3 5 7 21
3 20 5 21
3 7 9 22
3 21 7 22
3 9 11 23
3 22 9 23
3 11 13 24
3 23 11 24
3 13 15 25
3 24 13 25
3 15 17 25
3 28 27 26
3 2 26 27
3 2 27 1
3 1 27 29
3 31 30 4
3 31 4 29
3 29 4 1
3 6 4 30
3 32 6 30
3 8 6 32
3 33 8 32
3 10 8 33
3 34 10 33
3 12 10 34
3 35 12 34
3 14 12 35
3 36 14 35
3 36 38 37
3 36 37 14
3 14 37 16
3 39 17 16
3 39 16 40
3 40 16 37
3 40 41 39
3 28 26 42
3 26 2 18
3 26 18 42
3 42 18 43
3 30 31 43
3 30 43 19
3 19 43 18
3 32 30 19
3 20 32 19
3 33 32 20
3 21 33 20
3 34 33 21
3 22 34 21
3 35 34 22
3 23 35 22
3 36 35 23
3 24 36 23
3 38 36 24
3 38 24 44
3 44 24 25
3 17 39 45
3 17 45 25
3 25 45 44
3 39 41 45
3 48 47 46
3 28 46 47
3 28 47 27
3 50 49 47
3 49 27 47
3 29 27 49
3 51 29 49
3 29 51 31
3 37 38 52
3 40 37 52
3 53 40 52
3 54 41 40
3 54 40 55
3 53 56 40
3 56 55 40
3 55 57 54
3 48 46 58
3 49 50 58
3 49 58 42
3 46 28 58
3 28 42 58
3 51 49 42
3 43 51 42
3 51 43 31
3 52 38 44
3 53 52 44
3 45 53 44
3 41 54 59
3 41 59 45
3 56 53 59
3 53 45 59
3 54 57 59
3 62 61 60
3 61 64 63
3 60 61 63
3 64 66 65
3 63 64 65
3 66 67 65
3 62 60 68
3 60 63 69
3 68 60 69
3 63 65 70
3 69 63 70
3 65 67 70
3 73 72 71
3 48 71 72
3 48 72 47
3 47 72 74
3 47 74 75
3 50 47 75
3 56 77 76
3 55 56 76
3 78 57 55
3 78 55 79
3 79 55 76
3 79 80 78
3 73 71 81
3 71 48 58
3 71 58 81
3 81 58 82
3 82 58 50
3 75 82 50
3 77 56 59
3 83 77 59
3 57 78 84
3 57 84 59
3 59 84 83
3 78 80 84
3 87 86 85
3 62 85 86
3 62 86 61
3 61 86 88
3 88 89 61
3 61 89 64
3 89 90 64
3 64 90 66
3 91 67 66
3 91 66 92
3 92 66 90
3 92 94 93
3 91 92 93
3 94 95 93
3 87 85 96
3 85 62 68
3 85 68 96
3 96 68 97
3 99 69 98
3 99 97 69
3 97 68 69
3 70 98 69
3 100 98 70
3 100 101 102
3 70 101 100
3 70 91 101
3 70 67 91
3 91 93 103
3 101 91 103
3 93 95 103
3 73 105 104
3 72 73 104
3 107 106 74
3 107 74 104
3 104 74 72
3 74 106 75
3 99 98 108
3 98 100 109
3 108 98 109
3 100 102 109
3 76 77 110
3 110 112 111
3 110 111 76
3 76 111 79
3 79 111 113
3 80 79 113
3 105 73 81
3 114 105 81
3 106 107 114
3 106 114 82
3 82 114 81
3 106 82 75
3 110 77 83
3 112 110 83
3 112 83 115
3 115 83 84
3 115 84 80
3 113 115 80
3 118 117 116
3 87 116 117
3 87 117 86
3 86 117 119
3 119 120 86
3 86 120 88
3 120 121 88
3 88 121 89
3 121 122 89
3 89 122 90
3 122 123 90
3 90 123 92
3 123 124 92
3 92 124 94
3 125 95 94
3 125 94 126
3 126 94 124
3 126 127 125
3 118 116 128
3 116 87 96
3 116 96 128
3 128 96 129
3 131 97 130
3 131 129 97
3 129 96 97
3 97 99 130
3 101 132 102
3 132 133 134
3 132 101 133
3 101 103 133
3 95 125 135
3 95 135 103
3 103 135 133
3 125 127 135
3 105 137 136
3 104 105 136
3 104 136 138
3 107 104 138
3 131 130 139
3 130 99 108
3 130 108 139
3 139 108 140
3 140 108 141
3 108 109 141
3 102 132 142
3 102 142 109
3 109 142 141
3 132 134 142
3 112 144 143
3 111 112 143
3 111 143 145
3 113 111 145
3 137 105 114
3 146 137 114
3 146 114 107
3 138 146 107
3 144 112 115
3 147 144 115
3 147 115 113
3 145 147 113
3 118 149 148
3 117 118 148
3 148 150 117
3 117 150 119
3 150 151 119
3 119 151 120
3 151 152 120
3 120 152 121
3 152 153 121
3 121 153 122
3 153 154 122
3 122 154 123
3 154 155 123
3 123 155 124
3 155 156 124
3 124 156 126
3 126 156 157
3 127 126 157
3 149 118 128
3 158 149 128
3 160 129 159
3 160 158 129
3 158 128 129
3 129 131 159
3 133 161 134
3 161 162 163
3 161 133 162
3 133 135 162
3 162 135 127
3 157 162 127
3 166 165 164
3 137 164 165
3 137 165 136
3 136 165 167
3 136 167 168
3 138 136 168
3 160 159 169
3 159 131 139
3 159 139 169
3 169 139 170
3 170 139 171
3 139 140 171
3 171 140 172
3 140 141 172
3 172 141 173
3 141 142 173
3 134 161 174
3 134 174 142
3 142 174 173
3 161 163 174
3 144 176 175
3 143 144 175
3 143 175 177
3 145 143 177
3 166 164 178
3 164 137 146
3 164 146 178
3 178 146 179
3 179 146 138
3 168 179 138
3 176 144 147
3 180 176 147
3 180 147 145
3 177 180 145
3 149 182 181
3 148 149 181
3 181 183 148
3 148 183 150
3 183 184 150
3 150 184 151
3 184 185 151
3 151 185 152
3 185 186 152
3 152 186 153
3 186 187 153
3 153 187 154
3 187 188 154
3 154 188 155
3 188 189 155
3 155 189 156
3 156 189 190
3 157 156 190
3 182 149 158
3 191 182 158
3 158 192 191
3 160 192 158
3 163 193 194
3 162 193 163
3 193 162 157
3 190 193 157
3 166 196 195
3 165 166 195
3 195 197 165
3 165 197 167
3 167 197 198
3 168 167 198
3 192 160 169
3 199 192 169
3 199 169 200
3 169 170 200
3 200 170 201
3 170 171 201
3 201 171 202
3 171 172 202
3 202 172 203
3 172 173 203
3 203 173 204
3 173 174 204
3 204 174 163
3 194 204 163
3 176 206 205
3 175 176 205
3 175 205 207
3 177 175 207
3 196 166 178
3 208 196 178
3 208 178 209
3 178 179 209
3 209 179 168
3 198 209 168
3 206 176 180
3 210 206 180
3 210 180 177
3 207 210 177
3 182 212 211
3 181 182 211
3 211 213 181
3 181 213 183
3 213 214 183
3 183 214 184
3 214 215 184
3 184 215 185
3 215 216 185
3 185 216 186
3 216 217 186
3 186 217 187
3 217 218 187
3 187 218 188
3 218 219 188
3 188 219 189
3 189 219 220
3 190 189 220
3 212 182 191
3 221 212 191
3 222 191 192
3 222 223 191
3 223 221 191
3 223 222 224
3 227 225 226
3 194 226 225
3 194 193 226
3 193 228 226
3 228 193 190
3 220 228 190
3 195 196 229
3 229 231 230
3 229 230 195
3 195 230 197
3 197 230 232
3 198 197 232
3 222 192 199
3 224 222 199
3 224 199 233
3 233 199 200
3 233 200 234
3 200 201 234
3 234 201 235
3 201 202 235
3 235 202 236
3 202 203 236
3 225 227 236
3 225 236 204
3 204 236 203
3 225 204 194
3 206 238 237
3 205 206 237
3 205 237 239
3 207 205 239
3 229 196 208
3 231 229 208
3 231 208 240
3 240 208 209
3 240 209 198
3 232 240 198
3 238 206 210
3 241 238 210
3 241 210 207
3 239 241 207
3 211 212 242
3 242 244 243
3 242 243 211
3 211 243 213
3 243 245 213
3 213 245 214
3 245 246 214
3 214 246 215
3 246 247 215
3 215 247 216
3 247 248 216
3 216 248 217
3 248 249 217
3 217 249 218
3 251 250 219
3 251 219 249
3 249 219 218
3 219 250 220
3 242 212 221
3 244 242 221
3 244 221 252
3 252 221 223
3 223 253 252
3 224 253 223
3 256 254 255
3 227 255 254
3 227 226 255
3 226 257 255
3 250 251 257
3 250 257 228
3 228 257 226
3 250 228 220
3 231 259 258
3 230 231 258
3 230 258 260
3 232 230 260
3 253 224 233
3 261 253 233
3 261 233 262
3 233 234 262
3 262 234 263
3 234 235 263
3 254 256 263
3 254 263 236
3 236 263 235
3 254 236 227
3 238 265 264
3 237 238 264
3 237 264 266
3 239 237 266
3 259 231 240
3 267 259 240
3 267 240 232
3 260 267 232
3 265 238 241
3 268 265 241
3 268 241 239
3 266 268 239
3 243 244 269
3 269 271 270
3 269 270 243
3 243 270 245
3 270 272 245
3 245 272 246
3 272 273 246
3 246 273 247
3 273 274 247
3 247 274 248
3 276 275 249
3 276 249 274
3 274 249 248
3 249 275 251
3 269 244 252
3 252 253 277
3 269 252 277
3 269 277 278
3 269 278 271
3 278 279 280
3 277 279 278
3 280 281 282
3 279 281 280
3 256 282 281
3 256 255 282
3 255 283 282
3 275 276 283
3 275 283 257
3 257 283 255
3 275 257 251
3 259 285 284
3 258 259 284
3 286 260 258
3 286 258 287
3 287 258 284
3 287 288 286
3 277 253 261
3 279 277 261
3 262 279 261
3 281 279 262
3 263 281 262
3 281 263 256
3 291 290 289
3 265 289 290
3 265 290 264
3 264 290 292
3 264 292 293
3 266 264 293
3 285 259 267
3 294 285 267
3 260 286 295
3 260 295 267
3 267 295 294
3 286 288 295
3 291 289 296
3 289 265 268
3 289 268 296
3 296 268 297
3 297 268 266
3 293 297 266
3 270 271 298
3 272 270 298
3 299 272 298
3 273 272 299
3 300 273 299
3 274 273 300
3 301 274 300
3 274 301 276
3 298 271 278
3 299 298 278
3 280 299 278
3 300 299 280
3 282 300 280
3 301 300 282
3 283 301 282
3 301 283 276
3 284 285 302
3 302 304 303
3 302 303 284
3 284 303 287
3 305 288 287
3 305 287 306
3 306 287 303
3 306 307 305
3 310 309 308
3 291 308 309
3 291 309 290
3 290 309 311
3 313 312 292
3 313 292 311
3 311 292 290
3 292 312 293
3 302 285 294
3 304 302 294
3 304 294 314
3 314 294 295
3 288 305 315
3 288 315 295
3 295 315 314
3 305 307 315
3 310 308 316
3 308 291 296
3 308 296 316
3 316 296 317
3 312 313 317
3 312 317 297
3 297 317 296
3 312 297 293
3 303 304 318
3 318 320 319
3 318 319 303
3 303 319 306
3 321 307 306
3 321 306 322
3 322 306 319
3 322 323 321
3 326 325 324
3 310 324 325
3 310 325 309
3 309 325 327
3 329 328 311
3 329 311 327
3 327 311 309
3 311 328 313
3 318 304 314
3 320 318 314
3 320 314 330
3 330 314 315
3 307 321 331
3 307 331 315
3 315 331 330
3 321 323 331
3 326 324 332
3 324 310 316
3 324 316 332
3 332 316 333
3 328 329 333
3 328 333 317
3 317 333 316
3 328 317 313
3 319 320 334
3 334 336 335
3 334 335 319
3 319 335 322
3 337 323 322
3 337 322 338
3 338 322 335
3 338 340 339
3 337 338 339
3 340 342 341
3 339 340 341
3 342 344 343
3 341 342 343
3 344 346 345
3 343 344 345
3 346 348 347
3 345 346 347
3 326 347 348
3 326 348 325
3 325 348 349
3 351 350 327
3 351 327 349
3 349 327 325
3 327 350 329
3 334 320 330
3 336 334 330
3 336 330 352
3 352 330 331
3 323 337 353
3 323 353 331
3 331 353 352
3 337 339 354
3 353 337 354
3 339 341 355
3 354 339 355
3 341 343 356
3 355 341 356
3 343 345 357
3 356 343 357
3 345 347 358
3 357 345 358
3 347 326 332
3 347 332 358
3 358 332 359
3 350 351 359
3 350 359 333
3 333 359 332
3 350 333 329
3 335 336 360
3 338 335 360
3 361 338 360
3 340 338 361
3 362 340 361
3 362 364 363
3 362 363 340
3 340 363 342
3 363 365 342
3 342 365 344
3 367 366 346
3 367 346 365
3 365 346 344
3 348 346 366
3 368 348 366
3 349 348 368
3 369 349 368
3 349 369 351
3 360 336 352
3 361 360 352
3 353 361 352
3 362 361 353
3 354 362 353
3 364 362 354
3 364 354 370
3 370 354 355
3 370 355 371
3 355 356 371
3 366 367 371
3 366 371 357
3 357 371 356
3 368 366 357
3 358 368 357
3 369 368 358
3 359 369 358
3 369 359 351
3 363 364 372
3 365 363 372
3 373 365 372
3 365 373 367
3 372 364 370
3 373 372 370
3 371 373 370
3 373 371 367
