ply
format ascii 1.0
element vertex 56
property float x
property float y
property float z
property uchar red
property uchar green
property uchar blue
element face 104
property list uchar int vertex_indices
end_header
-7.01085853576660156 8 -1 66 70 71
-7 7.99289321899414062 -1 56 124 96
-7 8 -1.20528793334960938 42 52 53
-7 8 -0.55280005931854248 50 55 54
-7 8.27638339996337891 -1 50 55 54
-6.06281423568725586 8 -4 33 51 57
-6 7.96805191040039062 -4 9 114 96
-6 8 -4.1159820556640625 16 35 41
-6.35277557373046875 8 -3 36 48 51
-6 7.93296909332275391 -3 1 153 105
-6.66129875183105469 8 -2 42 52 53
-6 7.96225786209106445 -2 0 181 95
-6 7.9916377067565918 -1 0 195 70
-6 8 -0.216743126511573792 32 84 72
-6.07967329025268555 8 1 37 50 46
-6 7.99537754058837891 1 24 177 32
-6 8 0.343136578798294067 44 83 68
-6.02919673919677734 8 2 25 46 37
-6 7.99434232711791992 2 78 147 73
-6 8 2.0826714038848877 47 55 50
-6 8.63190555572509766 -4 18 42 45
-6 8.82131767272949219 -3 22 59 60
-6 8.74272537231445312 -2 25 75 70
-6 8.39971160888671875 -1 32 84 72
-6 8.26075077056884766 1 58 72 65
-6 8.27927207946777344 2 47 55 50
-5.19961309432983398 8 -5 16 35 41
-5 7.94472074508666992 -5 0 115 92
-5 8 -5.19467401504516602 6 24 28
-5 7.95666265487670898 -4 17 171 117
-5.42759895324707031 8 -3 22 59 60
-5 8 -3.50865435600280762 6 65 64
-5.79283475875854492 8 -2 25 75 70
-5.96018314361572266 8 -1 32 84 72
-5.97492122650146484 8 1 58 72 65
-5.95261240005493164 8 2 47 55 50
-5 8.76543807983398438 -5 7 34 37
-5 8.76835155487060547 -4 6 65 64
-4.06119775772094727 8 -6 6 24 28
-4 7.98364400863647461 -6 0 90 71
-4 8 -6.03172111511230469 2 17 20
-4 7.96242380142211914 -5 35 158 114
-4.67878293991088867 8 -4 6 65 64
-4 8 -4.7090754508972168 1 52 50
-4 8.46808147430419922 -6 2 19 20
-4 8.74198532104492188 -5 1 52 50
-3 7.95198678970336914 -6 18 116 82
-3 8 -6.24512052536010742 0 2 2
-3.60419178009033203 8 -5 1 52 50
-3 8 -5.57122182846069336 0 23 22
-3 8.76717662811279297 -6 0 23 22
-2 7.98615646362304688 -6 55 133 97
-2 8 -6.22386598587036133 0 7 7
-2 8 -5.92238569259643555 0 27 23
-2 8.51413822174072266 -6 0 27 23
-1.61997354030609131 8 -6 0 27 23
3 2 1 0
3 1 3 0
3 2 0 4
3 0 3 4
3 7 6 5
3 6 9 8
3 5 6 8
3 9 11 10
3 8 9 10
3 2 10 11
3 2 11 1
3 1 11 12
3 1 12 13
3 3 1 13
3 16 15 14
3 15 18 17
3 14 15 17
3 18 19 17
3 7 5 20
3 5 8 21
3 20 5 21
3 8 10 22
3 21 8 22
3 10 2 4
3 10 4 22
3 22 4 23
3 23 4 3
3 13 23 3
3 16 14 24
3 14 17 25
3 24 14 25
3 17 19 25
3 28 27 26
3 7 26 27
3 7 27 6
3 6 27 29
3 31 30 9
3 31 9 29
3 29 9 6
3 11 9 30
3 32 11 30
3 12 11 32
3 33 12 32
3 12 33 13
3 15 16 34
3 18 15 34
3 35 18 34
3 18 35 19
3 28 26 36
3 26 7 20
3 26 20 36
3 36 20 37
3 30 31 37
3 30 37 21
3 21 37 20
3 32 30 21
3 22 32 21
3 33 32 22
3 23 33 22
3 33 23 13
3 34 16 24
3 35 34 24
3 25 35 24
3 35 25 19
3 40 39 38
3 28 38 39
3 28 39 27
3 27 39 41
3 43 42 29
3 43 29 41
3 41 29 27
3 29 42 31
3 40 38 44
3 38 28 36
3 38 36 44
3 44 36 45
3 42 43 45
3 42 45 37
3 37 45 36
3 42 37 31
3 40 47 46
3 39 40 46
3 49 48 41
3 49 41 46
3 46 41 39
3 41 48 43
3 47 40 44
3 50 47 44
3 48 49 50
3 48 50 45
3 45 50 44
3 48 45 43
3 47 52 51
3 46 47 51
3 46 51 53
3 49 46 53
3 52 47 50
3 54 52 50
3 54 50 49
3 53 54 49
3 51 52 55
3 51 55 53
3 55 52 54
3 55 54 53
