ply
format ascii 1.0
element vertex 552
property float x
property float y
property float z
property uchar red
property uchar green
property uchar blue
element face 1100
property list uchar int vertex_indices
end_header
2.39337515830993652 -9 8 230 232 203
3 -9.72779560089111328 8 226 235 205
3 -9 7.56655025482177734 221 231 199
3 -9 8.72779560089111328 230 233 216
2.40084171295166016 -8 8 231 230 214
3 -8 7.57187414169311523 226 229 210
3 -8 8.72541904449462891 231 232 227
2.40692424774169922 -7 8 229 228 224
3 -7 7.57621097564697266 227 227 220
3 -7 8.72345066070556641 230 229 222
2.41163516044616699 -6 8 227 224 219
3 -6 7.57957077026367188 225 224 219
3 -6 8.72190570831298828 228 223 208
2.41498708724975586 -5 8 225 215 204
3 -5 7.58196210861206055 222 219 204
3 -5 8.72079563140869141 226 214 194
2.41699409484863281 -4 8 223 204 190
3 -4 7.58339500427246094 220 210 190
3 -4 8.72012710571289062 224 202 179
2.41766881942749023 -3 8 221 188 176
3 -3 7.5838780403137207 218 199 176
3 -3 8.71990108489990234 222 187 166
2.41702079772949219 -2 8 218 170 162
3 -2 7.58341693878173828 216 183 162
3 -2 8.72011756896972656 220 168 153
2.41505575180053711 -1 8 216 149 149
3 -1 7.58201503753662109 213 165 148
3 -1 8.72077083587646484 218 146 140
2.41177725791931152 0 8 214 148 136
3 0 7.57967472076416016 210 143 135
3 0 8.72185516357421875 216 134 127
2.40719294548034668 1 8 211 151 123
3 1 7.57640361785888672 207 127 123
3 1 8.72335529327392578 213 138 116
2.4013206958770752 2 8 208 158 111
3 2 7.57221555709838867 204 131 111
3 2 8.72525310516357422 211 146 104
2.39419293403625488 3 8 205 170 100
3 3 7.56713581085205078 199 141 99
3 3 8.72751998901367188 207 159 93
2.38586688041687012 4 8 200 187 88
3 4 7.56121015548706055 193 156 87
3 4 8.73011970520019531 202 178 82
2.37644672393798828 5 8 174 191 77
3 5 7.5545191764831543 183 176 74
3 5 8.73299980163574219 185 194 71
2.36599540710449219 6 8 122 177 64
3 6 7.54709291458129883 133 164 60
3 6 8.73612689971923828 133 180 60
2.35416126251220703 7 8 72 155 50
3 7 7.53863239288330078 83 140 46
3 7 8.73958206176757812 82 160 47
2.34052014350891113 8 8 38 133 40
3 8 7.52886819839477539 48 116 34
3 8 8.74344158172607422 46 139 37
3 8.74344158172607422 8 46 139 37
3.69763660430908203 -9 7 221 231 199
4 -9.60233116149902344 7 218 234 203
4 -9 6.73546791076660156 214 230 198
4 -9.87913990020751953 8 230 236 220
4 -9 8.87913990020751953 233 234 230
3.70418500900268555 -8 7 226 229 210
4 -8 6.74119281768798828 221 228 208
4 -8 8.87870502471923828 232 233 224
3.7095189094543457 -7 7 227 227 220
4 -7 6.74585628509521484 224 225 219
4 -7 8.87834739685058594 231 230 210
3.71364998817443848 -6 7 225 224 219
4 -6 6.74946880340576172 222 223 218
4 -6 8.87806987762451172 229 224 196
3.71659135818481445 -5 7 222 219 204
4 -5 6.75204133987426758 221 221 203
4 -5 8.87787055969238281 228 214 183
3.71835517883300781 -4 7 220 210 190
4 -4 6.75358438491821289 218 214 188
4 -4 8.87775135040283203 226 201 169
3.71895122528076172 -3 7 218 199 176
4 -3 6.75410699844360352 216 205 174
4 -3 8.87771129608154297 224 185 156
3.71838593482971191 -2 7 216 183 162
4 -2 6.75361347198486328 213 192 160
4 -2 8.87774944305419922 222 165 143
3.71666169166564941 -1 7 213 165 148
4 -1 6.752105712890625 210 176 147
4 -1 8.87786483764648438 220 143 131
3.71378207206726074 0 7 210 143 135
4 0 6.7495880126953125 207 156 133
4 0 8.87805843353271484 218 120 119
3.70975661277770996 1 7 207 127 123
4 1 6.74606943130493164 204 133 121
4 1 8.878326416015625 216 126 108
3.7046058177947998 2 7 204 131 111
4 2 6.74156856536865234 200 111 108
4 2 8.87866878509521484 213 136 97
3.6983637809753418 3 7 199 141 99
4 3 6.73611736297607422 194 119 96
4 3 8.87908172607421875 210 152 87
3.69109177589416504 4 7 193 156 87
4 4 6.72977256774902344 187 134 84
4 4 8.87956047058105469 205 173 77
3.68289685249328613 5 7 183 176 74
4 5 6.72263193130493164 174 153 71
4 5 8.88009834289550781 195 197 66
3.6737825870513916 6 7 133 164 60
4 6 6.71467399597167969 135 151 55
4 6 8.8806915283203125 142 184 56
3.663330078125 7 7 83 140 46
4 7 6.70550870895385742 86 125 41
4 7 8.88135814666748047 91 166 45
3.65126299858093262 8 7 48 116 34
4 8 6.69493293762207031 52 100 29
4 8 8.88211345672607422 55 147 35
4 8.63528156280517578 7 57 124 33
4 8.88211345672607422 8 55 147 35
4.75786972045898438 -9 6 214 230 198
5 -9.57363605499267578 6 214 233 203
5 -9 5.74133539199829102 211 229 200
5 -9.86943340301513672 7 226 235 218
5 -9.92284488677978516 8 236 237 235
5 -9 8.92284488677978516 233 236 226
4.76376152038574219 -8 6 221 228 208
5 -8 5.74762821197509766 219 227 210
5 -8 8.92268085479736328 231 234 212
4.76856040954589844 -7 6 224 225 219
5 -7 5.75275325775146484 223 225 220
5 -7 8.92254734039306641 233 233 198
4.77227783203125 -6 6 222 223 218
5 -6 5.75672388076782227 220 222 215
5 -6 8.92244338989257812 231 225 185
4.77492666244506836 -5 6 221 221 203
5 -5 5.75955295562744141 217 220 200
5 -5 8.92236900329589844 229 214 171
4.77651739120483398 -4 6 218 214 188
5 -4 5.76125335693359375 217 217 185
5 -4 8.92232418060302734 228 199 158
4.77705812454223633 -3 6 216 205 174
5 -3 5.76183176040649414 214 209 171
5 -3 8.92230987548828125 226 182 146
4.77655267715454102 -2 6 213 192 160
5 -2 5.76129293441772461 211 197 157
5 -2 8.92232322692871094 224 162 133
4.77500295639038086 -1 6 210 176 147
5 -1 5.75963878631591797 208 182 144
5 -1 8.92236614227294922 222 138 122
4.77241325378417969 0 6 207 156 133
5 0 5.75687408447265625 205 163 130
5 0 8.92243766784667969 221 112 111
4.76879501342773438 1 6 204 133 121
5 1 5.75301265716552734 201 141 118
5 1 8.92253780364990234 219 118 100
4.76417112350463867 2 6 200 111 108
5 2 5.74807929992675781 197 114 105
5 2 8.92266464233398438 216 130 90
4.75857686996459961 3 6 194 119 96
5 3 5.74211454391479492 190 105 93
5 3 8.92281818389892578 213 148 80
4.75207948684692383 4 6 187 134 84
5 4 5.73519515991210938 181 119 80
5 4 8.92299747467041016 208 171 71
4.7447810173034668 5 6 174 153 71
5 5 5.72742843627929688 165 138 66
5 5 8.92319965362548828 201 200 62
4.73659372329711914 6 6 135 151 55
5 6 5.71867895126342773 131 139 50
5 6 8.92342472076416016 150 189 52
4.72708511352539062 7 6 86 125 41
5 7 5.70848512649536133 85 112 36
5 7 8.92367935180664062 100 173 42
4.71613645553588867 8 6 52 100 29
5 8 5.69676542282104492 52 87 25
5 8 8.92396831512451172 63 156 34
5 8.61131572723388672 6 62 112 30
5 8.87292575836181641 7 66 135 33
5 8.92396831512451172 8 63 156 34
5.63956928253173828 -9 5 211 229 200
6 -9.684844970703125 5 213 233 205
6 -9 4.52920341491699219 212 229 204
6 -9.87443065643310547 6 224 235 219
6 -9.92198848724365234 7 235 237 234
6 -9.94325923919677734 8 232 238 225
6 -9 8.94325923919677734 229 237 212
5.64499187469482422 -8 5 219 227 210
6 -8 4.53628683090209961 220 227 214
6 -8 8.94317913055419922 229 235 199
5.64940786361694336 -7 5 223 225 220
6 -7 4.54205560684204102 224 224 224
6 -7 8.94311332702636719 233 234 185
5.65282964706420898 -6 5 220 222 215
6 -6 4.54652547836303711 218 222 210
6 -6 8.94306182861328125 233 225 172
5.65526866912841797 -5 5 217 220 200
6 -5 4.5497126579284668 215 219 196
6 -5 8.94302558898925781 231 212 160
5.65673637390136719 -4 5 217 217 185
6 -4 4.55163145065307617 214 217 181
6 -4 8.94300365447998047 230 196 147
5.65723800659179688 -3 5 214 209 171
6 -3 4.55228900909423828 214 211 167
6 -3 8.94299602508544922 228 177 135
5.65677642822265625 -2 5 211 197 157
6 -2 4.55168914794921875 211 199 153
6 -2 8.94300270080566406 227 155 124
5.65535402297973633 -1 5 208 182 144
6 -1 4.54983425140380859 208 184 140
6 -1 8.943023681640625 225 130 113
5.65297603607177734 0 5 205 163 130
6 0 4.54673290252685547 204 166 126
6 0 8.94305801391601562 223 103 102
5.64965581893920898 1 5 201 141 118
6 1 4.54240512847900391 200 143 114
6 1 8.94310665130615234 221 112 92
5.64541769027709961 2 5 197 114 105
6 2 4.53688383102416992 194 115 101
6 2 8.94316864013671875 219 127 83
5.64030027389526367 3 5 190 105 93
6 3 4.53022575378417969 187 96 89
6 3 8.94324398040771484 216 147 74
5.63437938690185547 4 5 181 119 80
6 4 4.52253913879394531 176 112 76
6 4 8.94333171844482422 212 173 65
5.6277308464050293 5 5 165 138 66
6 5 4.51389455795288086 157 130 61
6 5 8.94343090057373047 206 204 57
5.62016105651855469 6 5 131 139 50
6 6 4.50395441055297852 126 130 45
6 6 8.94354248046875 155 195 48
5.611297607421875 7 5 85 112 36
6 7 4.49229907989501953 82 104 32
6 7 8.94366836547851562 108 181 40
5.60114669799804688 8 5 52 87 25
6 8 4.47899103164672852 51 78 22
6 8 8.94381141662597656 71 165 32
6 8.70569038391113281 5 64 103 27
6 8.87764644622802734 6 73 126 30
6 8.92313957214355469 7 75 147 32
6 8.94381141662597656 8 71 165 32
6.38135766983032227 -9 4 212 229 204
7 -9.79848670959472656 4 215 233 211
7 -9 3.00644493103027344 217 229 211
7 -9.89099979400634766 5 226 235 222
7 -9.92599201202392578 6 236 236 236
7 -9.94405078887939453 7 230 238 225
7 -9.95486640930175781 8 224 239 211
7 -9 8.95486640930175781 224 238 198
6.3864588737487793 -8 4 220 227 214
7 -8 3.0146479606628418 224 227 221
7 -8 8.95482063293457031 227 237 185
6.39061260223388672 -7 4 224 224 224
7 -7 3.02132534980773926 222 225 219
7 -7 8.95478343963623047 234 236 172
6.39383125305175781 -6 4 218 222 210
7 -6 3.02649998664855957 217 222 205
7 -6 8.95475387573242188 235 224 160
6.39612770080566406 -5 4 215 219 196
7 -5 3.03019309043884277 214 220 190
7 -5 8.95473384857177734 233 209 148
6.39751052856445312 -4 4 214 217 181
7 -4 3.03242087364196777 214 217 176
7 -4 8.95472145080566406 232 191 136
6.39798641204833984 -3 4 214 211 167
7 -3 3.03319215774536133 214 212 162
7 -3 8.95471668243408203 231 170 125
6.39755678176879883 -2 4 211 199 153
7 -2 3.03251004219055176 211 199 148
7 -2 8.95472049713134766 229 146 114
6.39622402191162109 -1 4 208 184 140
7 -1 3.0303797721862793 208 184 135
7 -1 8.95473194122314453 228 119 103
6.39399576187133789 0 4 204 166 126
7 0 3.02681565284729004 204 164 122
7 0 8.95475101470947266 226 97 94
6.39088678359985352 1 4 200 143 114
7 1 3.02184581756591797 200 140 109
7 1 8.95477867126464844 225 111 85
6.38692283630371094 2 4 194 115 101
7 2 3.01551914215087891 194 110 97
7 2 8.95481300354003906 223 129 76
6.38214921951293945 3 4 187 96 89
7 3 3.00792551040649414 186 95 84
7 3 8.95485496520996094 220 152 68
6.99952363967895508 4 3 162 106 73
7 3.90762090682983398 3 186 95 84
7 4 2.99912452697753906 158 109 68
6.37664556503295898 4 4 176 112 76
7 4 8.95490455627441406 216 180 60
6.99363470077514648 5 3 138 117 56
7 5 2.98830556869506836 133 117 51
6.37043666839599609 5 4 157 130 61
7 5 8.95496082305908203 208 210 52
6.98669719696044922 6 3 104 108 40
7 6 2.97555327415466309 100 105 36
6.36323738098144531 6 4 126 130 45
7 6 8.95502376556396484 159 201 44
6.97859764099121094 7 3 65 80 26
7 7 2.96066164970397949 63 78 24
6.35479593276977539 7 4 82 104 32
7 7 8.95509624481201172 114 189 37
6.96942758560180664 8 3 36 54 16
7 8 2.94380068778991699 36 52 14
6.3451848030090332 8 4 51 78 22
7 8 8.95517730712890625 78 176 31
7 8.17079448699951172 3 51 75 20
7 8.80701541900634766 4 65 97 24
7 8.89338397979736328 5 77 120 28
7 8.92701530456542969 6 83 140 30
7 8.94458484649658203 7 84 159 31
7 8.95517730712890625 8 78 176 31
7.95964908599853516 -9 1 205 225 195
8 -9.22708320617675781 1 210 230 203
8 -9 0.887106478214263916 216 227 208
7.52888393402099609 -9 2 210 227 202
8 -9.76728343963623047 2 215 232 210
7.00385856628417969 -9 3 217 229 211
8 -9.86903762817382812 3 222 234 218
8 -9.91098308563232422 4 230 235 229
8 -9.93336105346679688 5 234 237 233
8 -9.94698429107666016 6 227 238 222
8 -9.95596599578857422 7 221 239 210
8 -9.96220684051513672 8 215 241 196
8 -9 8.96220684051513672 218 239 183
7.96415090560913086 -8 1 212 222 205
8 -8 0.899705708026885986 221 224 218
7.53355550765991211 -8 2 217 225 212
7.00876951217651367 -8 3 224 227 221
8 -8 8.96217823028564453 225 238 171
7.96781396865844727 -7 1 217 219 214
8 -7 0.909956872463226318 220 222 216
7.53735828399658203 -7 2 222 222 221
7.01276731491088867 -7 3 222 225 219
8 -7 8.96215534210205078 236 237 159
7.97065305709838867 -6 1 214 216 210
8 -6 0.917901098728179932 215 219 201
7.54030513763427734 -6 2 215 219 208
7.01586484909057617 -6 3 217 222 205
8 -6 8.96213722229003906 236 222 147
7.97268152236938477 -5 1 209 213 195
8 -5 0.923576831817626953 213 216 186
7.54240989685058594 -5 2 211 216 193
7.01807594299316406 -5 3 214 220 190
8 -5 8.96212387084960938 235 204 135
7.97390890121459961 -4 1 207 209 180
8 -4 0.927012026309967041 212 211 172
7.54368114471435547 -4 2 210 213 178
7.0194096565246582 -4 3 214 217 176
8 -4 8.96211624145507812 234 183 124
7.97434091567993164 -3 1 206 204 165
8 -3 0.928221523761749268 209 201 158
7.54412460327148438 -3 2 210 208 164
7.01987171173095703 -3 3 214 212 162
8 -3 8.96211338043212891 233 159 114
7.97397994995117188 -2 1 202 192 150
8 -2 0.927213430404663086 205 186 143
7.54374217987060547 -2 2 207 197 150
7.01946353912353516 -2 3 211 199 148
8 -2 8.96211528778076172 232 133 104
7.97283077239990234 -1 1 197 177 136
8 -1 0.924001693725585938 201 168 130
7.54253864288330078 -1 2 203 182 136
7.0181884765625 -1 3 208 184 135
8 -1 8.96212291717529297 231 104 94
7.97090530395507812 0 1 192 157 122
8 0 0.918618619441986084 196 146 116
7.54052352905273438 0 2 198 162 123
7.01605463027954102 0 3 204 164 122
8 0 8.96213436126708984 229 97 85
7.96822452545166016 1 1 186 133 109
8 1 0.911126017570495605 189 118 103
7.53771543502807617 1 2 193 138 110
7.01307964324951172 1 3 200 140 109
8 1 8.96215152740478516 228 114 77
7.96482753753662109 2 1 177 103 95
8 2 0.901635527610778809 180 95 89
7.53414773941040039 2 2 186 109 96
7.0092921257019043 2 3 194 110 97
8 2 8.96217250823974609 226 135 69
7.96077299118041992 3 1 164 96 80
8 3 0.890311598777770996 165 107 75
7.52987909317016602 3 2 175 94 83
7.0047459602355957 3 3 186 95 84
8 3 8.96219825744628906 224 160 61
7.95605897903442383 4 1 143 106 63
8 4 0.877120792865753174 143 116 59
7.52495908737182617 4 2 158 109 68
8 4 8.96222877502441406 220 190 54
7.9504694938659668 5 1 114 105 46
8 5 0.861443698406219482 117 114 43
7.51923894882202148 5 2 133 117 51
8 5 8.96226310729980469 206 215 47
7.94383144378662109 6 1 79 85 31
8 6 0.842828273773193359 80 90 30
7.51244497299194336 6 2 100 105 36
8 6 8.96230220794677734 160 208 41
7.93619060516357422 7 1 46 58 18
8 7 0.821413636207580566 49 64 19
7.50456714630126953 7 2 63 78 24
8 7 8.96234703063964844 117 198 34
7.92760467529296875 8 1 21 32 9
8 8 0.797353863716125488 26 39 10
7.49568462371826172 8 2 36 52 14
8 8 8.96239662170410156 84 187 29
8 8.34457206726074219 1 39 57 14
8 8.77872753143310547 2 53 76 19
8 8.87255859375 3 67 97 23
8 8.91252613067626953 4 80 118 26
8 8.93416690826416016 5 89 138 29
8 8.94745254516601562 6 93 156 30
8 8.95625782012939453 7 92 172 30
8 8.96239662170410156 8 84 187 29
8.22708320617675781 -9 1 219 229 214
8.76728343963623047 -9 2 224 230 220
8.86903762817382812 -9 3 230 232 229
8.91098308563232422 -9 4 231 234 229
8.93336105346679688 -9 5 226 235 220
8.94698429107666016 -9 6 222 237 209
8.95596599578857422 -9 7 219 238 197
8.96220684051513672 -9 8 218 239 183
8.20705318450927734 -8 1 225 226 223
8.76557064056396484 -8 2 227 228 226
8.86852264404296875 -8 3 226 230 221
8.91075897216796875 -8 4 224 232 215
8.93324375152587891 -8 5 222 234 206
8.94691562652587891 -8 6 221 236 196
8.95592308044433594 -8 7 222 237 184
8.96217823028564453 -8 8 225 238 171
8.18996143341064453 -7 1 220 224 215
8.76415729522705078 -7 2 220 226 212
8.86810111999511719 -7 3 220 229 208
8.91057586669921875 -7 4 220 231 201
8.93314838409423828 -7 5 221 233 193
8.94686031341552734 -7 6 223 234 183
8.95588874816894531 -7 7 228 236 171
8.96215534210205078 -7 8 236 237 159
8.17619228363037109 -6 1 216 221 200
8.76305103302001953 -6 2 216 224 198
8.86777210235595703 -6 3 217 226 194
8.91043376922607422 -6 4 219 229 187
8.93307399749755859 -6 5 222 231 180
8.94681739807128906 -6 6 228 233 170
8.95586109161376953 -6 7 235 232 159
8.96213722229003906 -6 8 236 222 147
8.1660614013671875 -5 1 214 219 186
8.76225376129150391 -5 2 215 221 183
8.86753654479980469 -5 3 218 224 180
8.91033172607421875 -5 4 221 227 174
8.93302154541015625 -5 5 227 229 167
8.94678592681884766 -5 6 232 227 158
8.95584201812744141 -5 7 233 218 147
8.96212387084960938 -5 8 235 204 135
8.15980720520019531 -4 1 215 216 171
8.76177024841308594 -4 2 217 219 169
8.86739444732666016 -4 3 221 222 166
8.91027069091796875 -4 4 225 223 161
8.93299007415771484 -4 5 228 220 154
8.94676780700683594 -4 6 230 213 145
8.95583057403564453 -4 7 232 201 135
8.96211624145507812 -4 8 234 183 124
8.15758323669433594 -3 1 212 206 157
8.76160144805908203 -3 2 216 210 156
8.86734485626220703 -3 3 220 211 153
8.91024971008300781 -3 4 223 210 148
8.93297863006591797 -3 5 226 206 141
8.94676113128662109 -3 6 228 196 133
8.9558258056640625 -3 7 231 181 124
8.96211338043212891 -3 8 233 159 114
8.15944099426269531 -2 1 209 192 143
8.76174545288085938 -2 2 213 196 142
8.86738777160644531 -2 3 217 197 140
8.91026878356933594 -2 4 221 194 135
8.93298816680908203 -2 5 224 188 129
8.94676685333251953 -2 6 227 176 122
8.95582962036132812 -2 7 229 158 113
8.96211528778076172 -2 8 232 133 104
8.16530132293701172 -1 1 205 175 130
8.76220226287841797 -1 2 210 178 129
8.867523193359375 -1 3 214 179 127
8.91032695770263672 -1 4 218 175 123
8.93301868438720703 -1 5 222 167 118
8.94678401947021484 -1 6 225 153 111
8.95584011077880859 -1 7 228 132 103
8.96212291717529297 -1 8 231 104 94
8.17494106292724609 0 1 201 153 117
8.76296234130859375 0 2 206 157 116
8.86774826049804688 0 3 211 157 115
8.91042327880859375 0 4 215 152 111
8.93306922912597656 0 5 220 143 107
8.94681358337402344 0 6 223 126 101
8.95585823059082031 0 7 226 103 93
8.96213436126708984 0 8 229 97 85
8.18799114227294922 1 1 195 126 104
8.76401424407958984 1 2 201 130 104
8.86806106567382812 1 3 207 130 103
8.91055870056152344 1 4 212 125 100
8.93313884735107422 1 5 217 114 96
8.94685459136962891 1 6 221 97 91
8.95588397979736328 1 7 225 96 84
8.96215152740478516 1 8 228 114 77
8.20393848419189453 2 1 187 93 91
8.76533699035644531 2 2 195 98 92
8.86845779418945312 2 3 202 98 91
8.91073131561279297 2 4 208 93 89
8.93322849273681641 2 5 213 90 86
8.94690608978271484 2 6 218 100 81
8.95591640472412109 2 7 222 114 75
8.96217250823974609 2 8 226 135 69
8.22216033935546875 3 1 176 103 78
8.76690101623535156 3 2 185 101 79
8.86893081665039062 3 3 194 100 80
8.91093826293945312 3 4 202 103 79
8.93333721160888672 3 5 209 110 76
8.94696903228759766 3 6 215 121 72
8.95595550537109375 3 7 219 137 67
8.96219825744628906 3 8 224 160 61
8.24232292175292969 4 1 157 118 63
8.76868343353271484 4 2 170 120 66
8.86947441101074219 4 3 182 122 68
8.91117668151855469 4 4 193 127 68
8.93346214294433594 4 5 202 135 66
8.94704246520996094 4 6 209 148 63
8.95600128173828125 4 7 215 166 59
8.96222877502441406 4 8 220 190 54
8.26490211486816406 5 1 132 123 48
8.77073001861572266 5 2 148 132 52
8.87009429931640625 5 3 164 142 55
8.91144752502441406 5 4 178 152 56
8.93360519409179688 5 5 190 164 56
8.94712543487548828 5 6 200 179 54
8.95605373382568359 5 7 208 199 51
8.96226310729980469 5 8 206 215 47
8.28999900817871094 6 1 98 107 34
8.77310562133789062 6 2 118 124 39
8.87081623077392578 6 3 136 142 42
8.91176128387451172 6 4 152 159 45
8.93376827239990234 6 5 164 174 46
8.94722080230712891 6 6 170 187 45
8.95611286163330078 6 7 169 198 43
8.96230220794677734 6 8 160 208 41
8.31680679321289062 7 1 65 81 23
8.77578639984130859 7 2 81 100 28
8.87164115905761719 7 3 97 119 32
8.91212177276611328 7 4 111 138 35
8.93395614624023438 7 5 122 156 37
8.94732952117919922 7 6 127 172 37
8.95618152618408203 7 7 125 186 36
8.96234703063964844 7 8 117 198 34
8.34457206726074219 8 1 39 57 14
8.77872753143310547 8 2 53 76 19
8.87255859375 8 3 67 97 23
8.91252613067626953 8 4 80 118 26
8.93416690826416016 8 5 89 138 29
8.94745254516601562 8 6 93 156 30
8.95625782012939453 8 7 92 172 30
8.96239662170410156 8 8 84 187 29
3 2 1 0
3 1 3 0
3 5 2 0
3 4 5 0
3 3 6 4
3 0 3 4
3 8 5 4
3 7 8 4
3 6 9 7
3 4 6 7
3 11 8 7
3 10 11 7
3 9 12 10
3 7 9 10
3 14 11 10
3 13 14 10
3 12 15 13
3 10 12 13
3 17 14 13
3 16 17 13
3 15 18 16
3 13 15 16
3 20 17 16
3 19 20 16
3 18 21 19
3 16 18 19
3 23 20 19
3 22 23 19
3 21 24 22
3 19 21 22
3 26 23 22
3 25 26 22
3 24 27 25
3 22 24 25
3 29 26 25
3 28 29 25
3 27 30 28
3 25 27 28
3 32 29 28
3 31 32 28
3 30 33 31
3 28 30 31
3 35 32 31
3 34 35 31
3 33 36 34
3 31 33 34
3 38 35 34
3 37 38 34
3 36 39 37
3 34 36 37
3 41 38 37
3 40 41 37
3 39 42 40
3 37 39 40
3 44 41 40
3 43 44 40
3 42 45 43
3 40 42 43
3 47 44 43
3 46 47 43
3 45 48 46
3 43 45 46
3 50 47 46
3 49 50 46
3 48 51 49
3 46 48 49
3 53 50 49
3 52 53 49
3 51 54 52
3 49 51 52
3 53 52 55
3 52 54 55
3 58 57 56
3 2 56 57
3 2 57 1
3 1 57 59
3 1 59 60
3 3 1 60
3 62 58 56
3 61 62 56
3 56 5 61
3 2 5 56
3 60 63 3
3 63 6 3
3 65 62 61
3 64 65 61
3 61 8 64
3 5 8 61
3 63 66 6
3 66 9 6
3 68 65 64
3 67 68 64
3 64 11 67
3 8 11 64
3 66 69 9
3 69 12 9
3 71 68 67
3 70 71 67
3 67 14 70
3 11 14 67
3 69 72 12
3 72 15 12
3 74 71 70
3 73 74 70
3 70 17 73
3 14 17 70
3 72 75 15
3 75 18 15
3 77 74 73
3 76 77 73
3 73 20 76
3 17 20 73
3 75 78 18
3 78 21 18
3 80 77 76
3 79 80 76
3 76 23 79
3 20 23 76
3 78 81 21
3 81 24 21
3 83 80 79
3 82 83 79
3 79 26 82
3 23 26 79
3 81 84 24
3 84 27 24
3 86 83 82
3 85 86 82
3 82 29 85
3 26 29 82
3 84 87 27
3 87 30 27
3 89 86 85
3 88 89 85
3 85 32 88
3 29 32 85
3 87 90 30
3 90 33 30
3 92 89 88
3 91 92 88
3 88 35 91
3 32 35 88
3 90 93 33
3 93 36 33
3 95 92 91
3 94 95 91
3 91 38 94
3 35 38 91
3 93 96 36
3 96 39 36
3 98 95 94
3 97 98 94
3 94 41 97
3 38 41 94
3 96 99 39
3 99 42 39
3 101 98 97
3 100 101 97
3 97 44 100
3 41 44 97
3 99 102 42
3 102 45 42
3 104 101 100
3 103 104 100
3 100 47 103
3 44 47 100
3 102 105 45
3 105 48 45
3 107 104 103
3 106 107 103
3 103 50 106
3 47 50 103
3 105 108 48
3 108 51 48
3 110 107 106
3 109 110 106
3 106 53 109
3 50 53 106
3 108 111 51
3 111 54 51
3 110 109 112
3 109 53 55
3 109 55 112
3 112 55 113
3 113 55 54
3 111 113 54
3 116 115 114
3 58 114 115
3 58 115 57
3 57 115 117
3 117 118 57
3 57 118 59
3 59 118 119
3 60 59 119
3 121 116 114
3 120 121 114
3 114 62 120
3 58 62 114
3 119 122 60
3 122 63 60
3 124 121 120
3 123 124 120
3 120 65 123
3 62 65 120
3 122 125 63
3 125 66 63
3 127 124 123
3 126 127 123
3 123 68 126
3 65 68 123
3 125 128 66
3 128 69 66
3 130 127 126
3 129 130 126
3 126 71 129
3 68 71 126
3 128 131 69
3 131 72 69
3 133 130 129
3 132 133 129
3 129 74 132
3 71 74 129
3 131 134 72
3 134 75 72
3 136 133 132
3 135 136 132
3 132 77 135
3 74 77 132
3 134 137 75
3 137 78 75
3 139 136 135
3 138 139 135
3 135 80 138
3 77 80 135
3 137 140 78
3 140 81 78
3 142 139 138
3 141 142 138
3 138 83 141
3 80 83 138
3 140 143 81
3 143 84 81
3 145 142 141
3 144 145 141
3 141 86 144
3 83 86 141
3 143 146 84
3 146 87 84
3 148 145 144
3 147 148 144
3 144 89 147
3 86 89 144
3 146 149 87
3 149 90 87
3 151 148 147
3 150 151 147
3 147 92 150
3 89 92 147
3 149 152 90
3 152 93 90
3 154 151 150
3 153 154 150
3 150 95 153
3 92 95 150
3 152 155 93
3 155 96 93
3 157 154 153
3 156 157 153
3 153 98 156
3 95 98 153
3 155 158 96
3 158 99 96
3 160 157 156
3 159 160 156
3 156 101 159
3 98 101 156
3 158 161 99
3 161 102 99
3 163 160 159
3 162 163 159
3 159 104 162
3 101 104 159
3 161 164 102
3 164 105 102
3 166 163 162
3 165 166 162
3 162 107 165
3 104 107 162
3 164 167 105
3 167 108 105
3 169 166 165
3 168 169 165
3 165 110 168
3 107 110 165
3 167 170 108
3 170 111 108
3 169 168 171
3 168 110 112
3 168 112 171
3 171 112 172
3 172 112 173
3 112 113 173
3 173 113 111
3 170 173 111
3 176 175 174
3 116 174 175
3 116 175 115
3 115 175 177
3 177 178 115
3 115 178 117
3 178 179 117
3 117 179 118
3 118 179 180
3 119 118 180
3 182 176 174
3 181 182 174
3 174 121 181
3 116 121 174
3 180 183 119
3 183 122 119
3 185 182 181
3 184 185 181
3 181 124 184
3 121 124 181
3 183 186 122
3 186 125 122
3 188 185 184
3 187 188 184
3 184 127 187
3 124 127 184
3 186 189 125
3 189 128 125
3 191 188 187
3 190 191 187
3 187 130 190
3 127 130 187
3 189 192 128
3 192 131 128
3 194 191 190
3 193 194 190
3 190 133 193
3 130 133 190
3 192 195 131
3 195 134 131
3 197 194 193
3 196 197 193
3 193 136 196
3 133 136 193
3 195 198 134
3 198 137 134
3 200 197 196
3 199 200 196
3 196 139 199
3 136 139 196
3 198 201 137
3 201 140 137
3 203 200 199
3 202 203 199
3 199 142 202
3 139 142 199
3 201 204 140
3 204 143 140
3 206 203 202
3 205 206 202
3 202 145 205
3 142 145 202
3 204 207 143
3 207 146 143
3 209 206 205
3 208 209 205
3 205 148 208
3 145 148 205
3 207 210 146
3 210 149 146
3 212 209 208
3 211 212 208
3 208 151 211
3 148 151 208
3 210 213 149
3 213 152 149
3 215 212 211
3 214 215 211
3 211 154 214
3 151 154 211
3 213 216 152
3 216 155 152
3 218 215 214
3 217 218 214
3 214 157 217
3 154 157 214
3 216 219 155
3 219 158 155
3 221 218 217
3 220 221 217
3 217 160 220
3 157 160 217
3 219 222 158
3 222 161 158
3 224 221 220
3 223 224 220
3 220 163 223
3 160 163 220
3 222 225 161
3 225 164 161
3 227 224 223
3 226 227 223
3 223 166 226
3 163 166 223
3 225 228 164
3 228 167 164
3 230 227 226
3 229 230 226
3 226 169 229
3 166 169 226
3 228 231 167
3 231 170 167
3 230 229 232
3 229 169 171
3 229 171 232
3 232 171 233
3 233 171 234
3 171 172 234
3 234 172 235
3 172 173 235
3 235 173 170
3 231 235 170
3 238 237 236
3 176 236 237
3 176 237 175
3 175 237 239
3 239 240 175
3 175 240 177
3 240 241 177
3 177 241 178
3 241 242 178
3 178 242 179
3 179 242 243
3 180 179 243
3 245 238 236
3 244 245 236
3 236 182 244
3 176 182 236
3 243 246 180
3 246 183 180
3 248 245 244
3 247 248 244
3 244 185 247
3 182 185 244
3 246 249 183
3 249 186 183
3 251 248 247
3 250 251 247
3 247 188 250
3 185 188 247
3 249 252 186
3 252 189 186
3 254 251 250
3 253 254 250
3 250 191 253
3 188 191 250
3 252 255 189
3 255 192 189
3 257 254 253
3 256 257 253
3 253 194 256
3 191 194 253
3 255 258 192
3 258 195 192
3 260 257 256
3 259 260 256
3 256 197 259
3 194 197 256
3 258 261 195
3 261 198 195
3 263 260 259
3 262 263 259
3 259 200 262
3 197 200 259
3 261 264 198
3 264 201 198
3 266 263 262
3 265 266 262
3 262 203 265
3 200 203 262
3 264 267 201
3 267 204 201
3 269 266 265
3 268 269 265
3 265 206 268
3 203 206 265
3 267 270 204
3 270 207 204
3 272 269 268
3 271 272 268
3 268 209 271
3 206 209 268
3 270 273 207
3 273 210 207
3 275 272 271
3 274 275 271
3 271 212 274
3 209 212 271
3 273 276 210
3 276 213 210
3 278 275 274
3 277 278 274
3 274 215 277
3 212 215 274
3 276 279 213
3 279 216 213
3 282 281 280
3 281 278 277
3 281 277 280
3 280 277 283
3 277 218 283
3 215 218 277
3 279 284 216
3 284 219 216
3 286 282 280
3 285 286 280
3 280 283 285
3 283 287 285
3 283 221 287
3 218 221 283
3 284 288 219
3 288 222 219
3 290 286 285
3 289 290 285
3 285 287 289
3 287 291 289
3 287 224 291
3 221 224 287
3 288 292 222
3 292 225 222
3 294 290 289
3 293 294 289
3 289 291 293
3 291 295 293
3 291 227 295
3 224 227 291
3 292 296 225
3 296 228 225
3 298 294 293
3 297 298 293
3 293 295 297
3 295 299 297
3 295 230 299
3 227 230 295
3 296 300 228
3 300 231 228
3 298 297 301
3 297 299 302
3 301 297 302
3 299 230 232
3 299 232 302
3 302 232 303
3 303 232 304
3 232 233 304
3 304 233 305
3 233 234 305
3 305 234 306
3 234 235 306
3 306 235 231
3 300 306 231
3 309 308 307
3 308 311 310
3 307 308 310
3 311 313 312
3 310 311 312
3 238 312 313
3 238 313 237
3 237 313 314
3 314 315 237
3 237 315 239
3 315 316 239
3 239 316 240
3 316 317 240
3 240 317 241
3 317 318 241
3 241 318 242
3 242 318 319
3 243 242 319
3 321 309 307
3 320 321 307
3 307 310 320
3 310 322 320
3 310 312 322
3 312 323 322
3 312 245 323
3 238 245 312
3 319 324 243
3 324 246 243
3 326 321 320
3 325 326 320
3 320 322 325
3 322 327 325
3 322 323 327
3 323 328 327
3 323 248 328
3 245 248 323
3 324 329 246
3 329 249 246
3 331 326 325
3 330 331 325
3 325 327 330
3 327 332 330
3 327 328 332
3 328 333 332
3 328 251 333
3 248 251 328
3 329 334 249
3 334 252 249
3 336 331 330
3 335 336 330
3 330 332 335
3 332 337 335
3 332 333 337
3 333 338 337
3 333 254 338
3 251 254 333
3 334 339 252
3 339 255 252
3 341 336 335
3 340 341 335
3 335 337 340
3 337 342 340
3 337 338 342
3 338 343 342
3 338 257 343
3 254 257 338
3 339 344 255
3 344 258 255
3 346 341 340
3 345 346 340
3 340 342 345
3 342 347 345
3 342 343 347
3 343 348 347
3 343 260 348
3 257 260 343
3 344 349 258
3 349 261 258
3 351 346 345
3 350 351 345
3 345 347 350
3 347 352 350
3 347 348 352
3 348 353 352
3 348 263 353
3 260 263 348
3 349 354 261
3 354 264 261
3 356 351 350
3 355 356 350
3 350 352 355
3 352 357 355
3 352 353 357
3 353 358 357
3 353 266 358
3 263 266 353
3 354 359 264
3 359 267 264
3 361 356 355
3 360 361 355
3 355 357 360
3 357 362 360
3 357 358 362
3 358 363 362
3 358 269 363
3 266 269 358
3 359 364 267
3 364 270 267
3 366 361 360
3 365 366 360
3 360 362 365
3 362 367 365
3 362 363 367
3 363 368 367
3 363 272 368
3 269 272 363
3 364 369 270
3 369 273 270
3 371 366 365
3 370 371 365
3 365 367 370
3 367 372 370
3 367 368 372
3 368 373 372
3 368 275 373
3 272 275 368
3 369 374 273
3 374 276 273
3 376 371 370
3 375 376 370
3 370 372 375
3 372 377 375
3 372 373 377
3 373 378 377
3 373 278 378
3 275 278 373
3 374 379 276
3 379 279 276
3 381 376 375
3 380 381 375
3 375 377 380
3 377 382 380
3 282 378 281
3 282 382 378
3 382 377 378
3 378 278 281
3 379 383 279
3 383 284 279
3 385 381 380
3 384 385 380
3 380 382 384
3 382 386 384
3 382 286 386
3 282 286 382
3 383 387 284
3 387 288 284
3 389 385 384
3 388 389 384
3 384 386 388
3 386 390 388
3 386 290 390
3 286 290 386
3 387 391 288
3 391 292 288
3 393 389 388
3 392 393 388
3 388 390 392
3 390 394 392
3 390 294 394
3 290 294 390
3 391 395 292
3 395 296 292
3 397 393 392
3 396 397 392
3 392 394 396
3 394 398 396
3 394 298 398
3 294 298 394
3 395 399 296
3 399 300 296
3 397 396 400
3 396 398 401
3 400 396 401
3 398 298 301
3 398 301 401
3 401 301 402
3 402 301 403
3 301 302 403
3 403 302 404
3 302 303 404
3 404 303 405
3 303 304 405
3 405 304 406
3 304 305 406
3 406 305 407
3 305 306 407
3 407 306 300
3 399 407 300
3 308 309 408
3 311 308 408
3 409 311 408
3 313 311 409
3 410 313 409
3 314 313 410
3 411 314 410
3 315 314 411
3 412 315 411
3 316 315 412
3 413 316 412
3 317 316 413
3 414 317 413
3 318 317 414
3 415 318 414
3 318 415 319
3 416 408 309
3 321 416 309
3 408 416 409
3 409 416 417
3 409 417 410
3 410 417 418
3 410 418 411
3 411 418 419
3 411 419 412
3 412 419 420
3 412 420 413
3 413 420 421
3 413 421 414
3 414 421 422
3 414 422 415
3 415 422 423
3 415 423 324
3 319 415 324
3 424 416 321
3 326 424 321
3 416 424 417
3 417 424 425
3 417 425 418
3 418 425 426
3 418 426 419
3 419 426 427
3 419 427 420
3 420 427 428
3 420 428 421
3 421 428 429
3 421 429 422
3 422 429 430
3 422 430 423
3 423 430 431
3 423 431 329
3 324 423 329
3 432 424 326
3 331 432 326
3 424 432 425
3 425 432 433
3 425 433 426
3 426 433 434
3 426 434 427
3 427 434 435
3 427 435 428
3 428 435 436
3 428 436 429
3 429 436 437
3 429 437 430
3 430 437 438
3 430 438 431
3 431 438 439
3 431 439 334
3 329 431 334
3 440 432 331
3 336 440 331
3 432 440 433
3 433 440 441
3 433 441 434
3 434 441 442
3 434 442 435
3 435 442 443
3 435 443 436
3 436 443 444
3 436 444 437
3 437 444 445
3 437 445 438
3 438 445 446
3 438 446 439
3 439 446 447
3 439 447 339
3 334 439 339
3 448 440 336
3 341 448 336
3 440 448 441
3 441 448 449
3 441 449 442
3 442 449 450
3 442 450 443
3 443 450 451
3 443 451 444
3 444 451 452
3 444 452 445
3 445 452 453
3 445 453 446
3 446 453 454
3 446 454 447
3 447 454 455
3 447 455 344
3 339 447 344
3 456 448 341
3 346 456 341
3 448 456 449
3 449 456 457
3 449 457 450
3 450 457 458
3 450 458 451
3 451 458 459
3 451 459 452
3 452 459 460
3 452 460 453
3 453 460 461
3 453 461 454
3 454 461 462
3 454 462 455
3 455 462 463
3 455 463 349
3 344 455 349
3 464 456 346
3 351 464 346
3 456 464 457
3 457 464 465
3 457 465 458
3 458 465 466
3 458 466 459
3 459 466 467
3 459 467 460
3 460 467 468
3 460 468 461
3 461 468 469
3 461 469 462
3 462 469 470
3 462 470 463
3 463 470 471
3 463 471 354
3 349 463 354
3 472 464 351
3 356 472 351
3 464 472 465
3 465 472 473
3 465 473 466
3 466 473 474
3 466 474 467
3 467 474 475
3 467 475 468
3 468 475 476
3 468 476 469
3 469 476 477
3 469 477 470
3 470 477 478
3 470 478 471
3 471 478 479
3 471 479 359
3 354 471 359
3 480 472 356
3 361 480 356
3 472 480 473
3 473 480 481
3 473 481 474
3 474 481 482
3 474 482 475
3 475 482 483
3 475 483 476
3 476 483 484
3 476 484 477
3 477 484 485
3 477 485 478
3 478 485 486
3 478 486 479
3 479 486 487
3 479 487 364
3 359 479 364
3 488 480 361
3 366 488 361
3 480 488 481
3 481 488 489
3 481 489 482
3 482 489 490
3 482 490 483
3 483 490 491
3 483 491 484
3 484 491 492
3 484 492 485
3 485 492 493
3 485 493 486
3 486 493 494
3 486 494 487
3 487 494 495
3 487 495 369
3 364 487 369
3 496 488 366
3 371 496 366
3 488 496 489
3 489 496 497
3 489 497 490
3 490 497 498
3 490 498 491
3 491 498 499
3 491 499 492
3 492 499 500
3 492 500 493
3 493 500 501
3 493 501 494
3 494 501 502
3 494 502 495
3 495 502 503
3 495 503 374
3 369 495 374
3 504 496 371
3 376 504 371
3 496 504 497
3 497 504 505
3 497 505 498
3 498 505 506
3 498 506 499
3 499 506 507
3 499 507 500
3 500 507 508
3 500 508 501
3 501 508 509
3 501 509 502
3 502 509 510
3 502 510 503
3 503 510 511
3 503 511 379
3 374 503 379
3 512 504 376
3 381 512 376
3 504 512 505
3 505 512 513
3 505 513 506
3 506 513 514
3 506 514 507
3 507 514 515
3 507 515 508
3 508 515 516
3 508 516 509
3 509 516 517
3 509 517 510
3 510 517 518
3 510 518 511
3 511 518 519
3 511 519 383
3 379 511 383
3 520 512 381
3 385 520 381
3 512 520 513
3 513 520 521
3 513 521 514
3 514 521 522
3 514 522 515
3 515 522 523
3 515 523 516
3 516 523 524
3 516 524 517
3 517 524 525
3 517 525 518
3 518 525 526
3 518 526 519
3 519 526 527
3 519 527 387
3 383 519 387
3 528 520 385
3 389 528 385
3 520 528 521
3 521 528 529
3 521 529 522
3 522 529 530
3 522 530 523
3 523 530 531
3 523 531 524
3 524 531 532
3 524 532 525
3 525 532 533
3 525 533 526
3 526 533 534
3 526 534 527
3 527 534 535
3 527 535 391
3 387 527 391
3 536 528 389
3 393 536 389
3 528 536 529
3 529 536 537
3 529 537 530
3 530 537 538
3 530 538 531
3 531 538 539
3 531 539 532
3 532 539 540
3 532 540 533
3 533 540 541
3 533 541 534
3 534 541 542
3 534 542 535
3 535 542 543
3 535 543 395
3 391 535 395
3 544 536 393
3 397 544 393
3 536 544 537
3 537 544 545
3 537 545 538
3 538 545 546
3 538 546 539
3 539 546 547
3 539 547 540
3 540 547 548
3 540 548 541
3 541 548 549
3 541 549 542
3 542 549 550
3 542 550 543
3 543 550 551
3 543 551 399
3 395 543 399
3 544 397 400
3 545 544 400
3 401 545 400
3 546 545 401
3 402 546 401
3 547 546 402
3 403 547 402
3 548 547 403
3 404 548 403
3 549 548 404
3 405 549 404
3 550 549 405
3 406 550 405
3 551 550 406
3 407 551 406
3 551 407 399
