ply
format ascii 1.0
element vertex 634
property float x
property float y
property float z
property uchar red
property uchar green
property uchar blue
element face 1268
property list uchar int vertex_indices
end_header
-8.09903335571289062 5 -2 255 243 242
-8 4.8598332405090332 -2 137 98 94
-8 5 -2.67108988761901855 255 254 254
-8.09610652923583984 5 -1 255 251 251
-8 4.90998983383178711 -1 104 69 64
-8.05160903930664062 5 0 255 252 252
-8 4.95319366455078125 0 100 64 58
-8 5 0.883413910865783691 220 190 185
-8 5.31078863143920898 -2 253 236 234
-8 5.51215696334838867 -1 225 198 195
-8 5.30771827697753906 0 220 190 185
-7.26685428619384766 5 -4 255 234 233
-7 4.84932184219360352 -4 100 71 69
-7 5 -4.9521479606628418 255 236 236
-7 5 -3.5980374813079834 227 213 212
-7.89446210861206055 5 -2 253 236 234
-7.92926454544067383 5 -1 225 198 195
-7.96319961547851562 5 0 220 190 185
-7.12826967239379883 6 -4 255 197 195
-7 6 -4.19391489028930664 255 195 193
-7.43605995178222656 6 -3 255 209 206
-7 5.40429210662841797 -3 141 114 110
-7.6413426399230957 6 -2 255 219 216
-7 5.68124961853027344 -2 79 56 52
-7.79637622833251953 6 -1 255 227 223
-7 5.77907562255859375 -1 44 29 26
-7.73084354400634766 6 0 255 231 228
-7 5.81077098846435547 0 39 25 22
-7.50847387313842773 6 1 255 233 229
-7 5.78090667724609375 1 63 43 37
-7.29878330230712891 6 2 255 233 228
-7 5.70573902130126953 2 117 84 74
-7 6 2.87749385833740234 253 250 249
-7 6.24728584289550781 -4 255 214 211
-7 6.93715953826904297 -3 255 234 233
-7.30847024917602539 7 -2 255 174 167
-7 7 -2.89964389801025391 255 177 171
-7.40273332595825195 7 -1 255 179 171
-7.37723064422607422 7 0 255 184 174
-7.22713947296142578 7 1 255 187 176
-7 6.66791057586669922 2 253 250 249
-7 7 1.58670222759246826 255 201 190
-7 7.67051315307617188 -2 255 187 180
-7 7.77195119857788086 -1 255 195 187
-7 7.70753717422485352 0 255 199 190
-7 7.44864606857299805 1 255 201 190
-6.13941097259521484 5 -6 255 210 209
-6 4.70403289794921875 -6 206 188 188
-6 5 -6.14091300964355469 255 201 199
-6.78387451171875 5 -5 255 236 236
-6 4.97671842575073242 -5 58 39 37
-6.84978914260864258 5 -4 227 213 212
-6 5 -4.96878576278686523 192 174 172
-6 5.27270412445068359 -6 255 231 231
-6.42782831192016602 6 -5 255 195 193
-6 6 -5.52135133743286133 255 189 189
-6 5.70024633407592773 -4 73 52 49
-6 5.99458599090576172 -3 19 12 10
-6.62041378021240234 6 -2 225 224 224
-6 6 -2.98781847953796387 136 121 119
-6.75616264343261719 6 -1 194 185 184
-6.79422426223754883 6 0 188 177 175
-6.75612545013427734 6 1 209 199 197
-6.62147903442382812 6 2 253 250 249
-6.76788759231567383 6 3 255 250 249
-6 5.91682291030883789 3 39 25 19
-6 6 2.78045463562011719 108 88 81
-6.17003011703491211 6 4 255 246 243
-6 5.79272890090942383 4 152 109 93
-6 6 4.19466209411621094 255 244 240
-6 6.73462820053100586 -5 255 215 214
-6.51649761199951172 7 -4 255 166 162
-6 7 -4.74332761764526367 255 164 161
-6.95320653915405273 7 -3 255 177 171
-6 6.54944610595703125 -2 72 57 54
-6 6.65995454788208008 -1 36 27 25
-6 6.68165683746337891 0 30 22 20
-6 6.64371776580810547 1 54 41 37
-6.78644323348999023 7 2 255 201 189
-6 6.47276735305786133 2 108 88 81
-6.3211522102355957 7 3 255 202 189
-6 6.28573703765869141 4 255 244 240
-6 7 3.42892885208129883 255 216 206
-6 7.96263790130615234 -4 255 180 176
-6.62614011764526367 8 -3 255 134 129
-6 8 -3.93179583549499512 255 131 127
-6.76901483535766602 8 -2 255 140 131
-6.82053089141845703 8 -1 255 146 135
-6.76964521408081055 8 0 255 151 137
-6.60062170028686523 8 1 255 156 140
-6.20861530303955078 8 2 255 161 144
-6 7.50974225997924805 3 255 216 206
-6 8 2.25783133506774902 255 168 150
-6 8.94716739654541016 -3 255 141 134
-6 8.97238636016845703 -2 255 150 140
-6 8.97683238983154297 -1 255 157 145
-6 8.97639083862304688 0 255 163 148
-6 8.96945667266845703 1 255 166 150
-6 8.89031600952148438 2 255 168 150
-5.02445268630981445 5 -7 255 201 199
-5 4.88623332977294922 -7 250 249 249
-5 5 -7.01938343048095703 255 189 185
-5 4.95000362396240234 -6 76 54 52
-5.97345447540283203 5 -5 192 174 172
-5 5 -5.94379806518554688 211 198 198
-5 5.03925561904907227 -7 255 216 215
-5.52751731872558594 6 -6 255 189 189
-5 6 -6.44325637817382812 255 180 179
-5 5.74565029144287109 -5 62 44 41
-5.52973318099975586 6 -4 224 220 219
-5 6 -4.54471015930175781 217 214 214
-5.99376392364501953 6 -3 136 121 119
-5.89685153961181641 6 3 188 167 160
-5.39594841003417969 6 4 255 244 240
-5.14575004577636719 6 5 255 253 253
-5 5.85707998275756836 5 163 115 94
-5 6 4.48149728775024414 171 143 132
-5 6 5.11385059356689453 255 236 230
-5 6.75218296051025391 -6 255 207 206
-5.78310632705688477 7 -5 255 164 161
-5 7 -5.79432487487792969 255 157 157
-5 6.47128057479858398 -4 98 81 79
-5 6.72277212142944336 -3 4 3 2
-5 6.90917158126831055 -2 59 38 31
-5.31080198287963867 7 -1 210 189 185
-5 7 -1.61327588558197021 120 117 116
-5.40277957916259766 7 0 204 187 183
-5.20557546615600586 7 1 225 204 199
-5 6.84708070755004883 2 24 16 13
-5 7 1.33295488357543945 101 94 91
-5 6.69237899780273438 3 59 44 37
-5.48815679550170898 7 4 255 213 201
-5 6.21565437316894531 4 171 143 132
-5 6.19933032989501953 5 255 236 230
-5 7 4.45676946640014648 255 228 220
-5.55382585525512695 8 -5 255 124 124
-5 8 -5.73650789260864258 255 124 121
-5.96515846252441406 8 -4 255 131 127
-5 7.32421302795410156 -1 84 77 75
-5 7.40443134307861328 0 78 70 68
-5 7.19904899597167969 1 101 94 91
-5.54180717468261719 8 3 255 171 152
-5 7.60858726501464844 4 255 228 220
-5 8 3.58204746246337891 255 181 162
-5 8.84451103210449219 -5 255 128 126
-5 8.97322750091552734 -4 255 140 135
-5 8.98038005828857422 -3 255 154 146
-5 8.97916507720947266 -2 255 168 158
-5 8.97852134704589844 -1 255 178 167
-5 8.97904682159423828 0 255 184 171
-5 8.97999191284179688 1 255 184 170
-5 8.97998332977294922 2 255 182 165
-5 8.96507072448730469 3 255 181 162
-4 4.78463315963745117 -7 152 127 127
-4 5 -7.36060762405395508 255 196 193
-4.92810344696044922 5 -6 211 198 198
-4 5 -6.78298187255859375 255 241 241
-4.22791862487792969 6 -7 255 180 179
-4 6 -7.15728282928466797 255 171 168
-4 5.66062068939208984 -6 110 86 83
-4.49961185455322266 6 -5 217 214 214
-4 6 -5.46306896209716797 255 235 234
-4 5.98930120468139648 5 61 38 26
-4 6 4.98657417297363281 69 51 41
-4 6 5.08241033554077148 210 177 162
-4 6.30660486221313477 -7 255 190 190
-4.75853586196899414 7 -6 255 157 157
-4 7 -6.55242824554443359 255 151 149
-4 6.42711687088012695 -5 118 101 98
-4 6.75531959533691406 -4 4 3 2
-4.41196155548095703 7 -3 183 171 169
-4 7 -3.43730282783508301 176 168 166
-4.87251949310302734 7 -2 120 117 116
-4.76118659973144531 7 2 153 150 149
-4.03841114044189453 7 3 230 219 215
-4 6.71338987350463867 4 69 51 41
-4 7 3.04044413566589355 135 124 120
-4.32756805419921875 7 5 255 222 211
-4 7 5.21728849411010742 255 233 226
-4.48070049285888672 8 -6 255 124 121
-4 8 -6.83940792083740234 255 126 120
-4 7.43750715255737305 -3 82 75 73
-4 7.67319488525390625 -2 17 14 13
-4 7.70038461685180664 -1 18 14 12
-4 7.70735788345336914 0 24 19 16
-4 7.69321966171264648 1 1 1 1
-4 7.61528778076171875 2 51 43 40
-4 7.03360223770141602 3 135 124 120
-4.55356788635253906 8 4 255 182 162
-4 7.35208034515380859 5 255 233 226
-4 8 4.42792081832885742 255 190 171
-4 8.64268779754638672 -6 255 123 122
-4 8.97329425811767578 -5 255 136 132
-4 8.97997379302978516 -4 255 154 148
-4 8.97628116607666016 -3 255 175 167
-4 8.97862911224365234 -2 217 167 159
-4 8.98031902313232422 -1 183 151 144
-4 8.98037910461425781 0 177 149 142
-4 8.98030853271484375 1 198 165 156
-4 8.97983837127685547 2 246 196 183
-4 8.98034381866455078 3 255 195 178
-4 8.96093845367431641 4 255 190 171
-3.03891921043395996 5 -8 255 196 193
-3 4.87683534622192383 -8 255 240 239
-3 5 -8.0176849365234375 255 180 174
-3.21120929718017578 5 -7 255 241 241
-3 5 -7.78854751586914062 255 206 204
-3 5.03781509399414062 -8 255 206 204
-3 5.13582468032836914 -7 216 203 203
-3 6 -7.48253440856933594 255 175 172
-3 5.88182163238525391 -6 36 24 22
-3 6 -5.86171293258666992 196 189 188
-3.97695374488830566 6 5 210 177 162
-3.37686634063720703 6 6 255 236 228
-3 5.8943023681640625 6 162 108 81
-3 6 5.86292076110839844 140 107 90
-3 6 6.10904121398925781 255 223 209
-3 6.98907136917114258 -7 255 205 204
-3 7 -6.99123620986938477 255 155 154
-3 6.69405031204223633 -5 44 33 30
-3.35150671005249023 7 -4 176 168 166
-3 7 -4.31331729888916016 225 201 198
-3 6.90841007232666016 4 3 2 1
-3 7 3.85754227638244629 62 51 46
-3 6.60599374771118164 5 140 107 90
-3 6.2461700439453125 6 255 223 209
-3 7 5.57202529907226562 255 247 244
-3 8 -6.94499540328979492 255 123 119
-3 7.36016321182250977 -4 104 95 94
-3 7.69167995452880859 -3 9 7 7
-3 7.7427678108215332 -2 53 39 34
-3 7.84990692138671875 -1 86 60 51
-3 7.8947906494140625 0 92 64 53
-3 7.81669330596923828 1 71 51 41
-3 7.72585439682006836 2 20 15 13
-3 7.62978219985961914 3 62 51 46
-3 7.90628623962402344 5 255 247 244
-3 8 4.9223332405090332 255 200 183
-3 8.95119094848632812 -6 255 127 126
-3 8.98038482666015625 -5 255 146 141
-3 8.97541046142578125 -4 255 171 164
-3 8.97929859161376953 -3 212 167 160
-3 8.97821998596191406 -2 149 131 128
-3 8.9597930908203125 -1 112 106 104
-3 8.94143295288085938 0 106 102 100
-3 8.96828079223632812 1 129 121 119
-3 8.97966289520263672 2 181 162 155
-3 8.98015975952148438 3 255 212 198
-3 8.97923851013183594 4 255 200 183
-2 4.6669464111328125 -8 242 238 238
-2 5 -8.19797897338867188 255 183 177
-2 5 -7.73216772079467773 255 217 216
-2 5.52819299697875977 -8 255 217 216
-2 5.54663467407226562 -7 173 148 146
-2 6 -7.71737051010131836 255 179 178
-2.62691378593444824 6 -6 196 189 188
-2 6 -6.40160417556762695 255 219 218
-2 5.94964361190795898 6 119 75 50
-2 6 5.94440650939941406 97 70 54
-2 6 6.10882186889648438 255 212 192
-2.9809424877166748 7 -7 255 155 154
-2 7 -7.37786149978637695 255 148 144
-2 6.37569570541381836 -6 153 134 132
-2 6.79949378967285156 -5 2 1 1
-2 7 -4.70377016067504883 184 180 179
-2.70976519584655762 7 4 175 162 157
-2 6.73233127593994141 5 97 70 54
-2 7 4.46957302093505859 132 114 106
-2 6.91940116882324219 6 255 212 192
-2 7 5.98607778549194336 255 250 247
-2 7.95976877212524414 -7 255 161 160
-2 8 -6.97405385971069336 255 124 120
-2 7.65735149383544922 -4 60 50 48
-2 7.72639369964599609 -3 32 23 20
-2 7.94110679626464844 -2 91 62 52
-2.56440639495849609 8 -1 112 106 104
-2 8 -1.78523540496826172 106 103 102
-2.71796560287475586 8 0 106 102 100
-2.39603877067565918 8 1 129 121 119
-2 7.84519624710083008 2 61 43 34
-2 8 1.44270813465118408 86 84 83
-2 7.70747280120849609 3 19 14 12
-2 7.40577936172485352 4 132 114 106
-2.83324360847473145 8 5 255 196 177
-2 8 5.30336380004882812 255 202 183
-2 8.9725799560546875 -6 255 133 131
-2 8.97867202758789062 -5 255 156 151
-2 8.97630119323730469 -4 255 187 181
-2 8.97953033447265625 -3 171 149 145
-2 8.89428615570068359 -2 106 103 102
-2 8.96182918548583984 2 139 135 133
-2 8.98028659820556641 3 219 196 188
-2 8.98039054870605469 4 255 210 195
-2 8.95202922821044922 5 255 202 183
-1 4.72344160079956055 -8 228 214 214
-1 5 -8.24757289886474609 255 184 179
-1 5 -7.77469778060913086 255 223 223
-1 5.84051370620727539 -8 255 223 223
-1 5.64517927169799805 -7 159 129 126
-1 6 -7.90880823135375977 255 183 181
-1 6 -6.57082509994506836 255 229 228
-1.30662250518798828 6 6 255 212 192
-1 7 -7.47856378555297852 255 149 146
-1 6.54085016250610352 -6 139 115 112
-1 6.90493392944335938 -5 10 6 5
-1 7 -4.87347698211669922 170 166 165
-1 6.7803654670715332 5 83 58 42
-1 7 4.64393043518066406 119 99 88
-1.95447158813476562 7 6 255 242 236
-1 6.19395017623901367 6 254 205 181
-1 7 6.12515020370483398 255 246 243
-1.29417228698730469 8 -7 255 124 120
-1 8 -7.11427402496337891 255 130 122
-1 7.68856382369995117 -4 46 37 34
-1 7.77599525451660156 -3 43 30 26
-1.69691431522369385 8 -2 106 103 102
-1 8 -2.33854866027832031 158 146 143
-1 7.98663043975830078 2 72 50 37
-1 8 1.96297943592071533 72 67 65
-1 7.73536825180053711 3 5 4 3
-1 7.55351352691650391 4 119 99 88
-1 7.21761703491210938 6 255 246 243
-1 8 5.42203474044799805 255 206 188
-1 8.28252506256103516 -7 255 125 122
-1 8.97678756713867188 -6 255 138 135
-1 8.97688102722167969 -5 255 163 158
-1 8.97831153869628906 -4 250 195 188
-1 8.97436237335205078 -3 158 146 143
-1 8.65383625030517578 2 126 124 124
-1 8.97903728485107422 3 208 193 188
-1 8.98035907745361328 4 255 217 203
-1 8.96770858764648438 5 255 206 188
0 4.73200798034667969 -8 243 228 228
0 5 -8.23746490478515625 255 185 180
0 5 -7.78031635284423828 255 224 223
0 5.78632593154907227 -8 255 224 223
0 5.64616012573242188 -7 174 141 138
0 6 -7.87742042541503906 255 184 183
0 6 -6.56926918029785156 255 230 229
0 7 -7.45817422866821289 255 151 148
0 6.53772401809692383 -6 155 128 124
0 6.89989137649536133 -5 5 3 2
0 7 -4.86623430252075195 186 180 179
0 6.77918338775634766 5 99 69 50
0 7 4.63868284225463867 135 112 99
0 6.20426177978515625 6 255 204 179
0 7 6.10875177383422852 255 248 246
-0.725896537303924561 8 -7 255 125 122
0 7.96759271621704102 -7 255 168 167
0 8 -6.97530698776245117 255 126 125
0 7.68759012222290039 -4 62 49 46
0 7.77278804779052734 -3 28 19 16
0 8 -2.31697750091552734 175 162 159
0 7.97836732864379883 2 56 38 29
0 8 1.93940699100494385 88 82 79
0 7.73424959182739258 3 21 16 12
0 7.54815006256103516 4 135 112 99
0 7.18829536437988281 6 255 248 246
0 8 5.4017491340637207 255 208 191
0 8.97629642486572266 -6 255 140 138
0 8.97717094421386719 -5 255 166 160
0 8.97826480865478516 -4 255 201 194
0 8.97481632232666016 -3 175 162 159
0 8.75509738922119141 2 142 139 138
0 8.97910976409912109 3 224 210 204
0 8.98037242889404297 4 255 219 206
0 8.96633529663085938 5 255 208 191
1 4.71145772933959961 -8 255 250 250
1 5 -8.16686916351318359 255 183 179
1 5 -7.76140975952148438 255 218 218
1 5.42298603057861328 -8 255 218 218
1 5.55191469192504883 -7 219 186 183
1 6 -7.65508937835693359 255 183 182
1 6 -6.39128494262695312 255 224 223
0.306870639324188232 6 6 255 204 179
1 5.95250892639160156 6 167 105 68
1 6 5.94707918167114258 145 103 77
1 6 6.09275913238525391 255 208 185
1 7 -7.30276679992675781 255 153 150
1 6.35964679718017578 -6 200 172 169
1 6.79216480255126953 -5 49 32 28
1 7 -4.68668699264526367 231 231 231
1 6.72980976104736328 5 145 103 77
1 7 4.44322299957275391 181 154 140
0.631201744079589844 7 6 255 248 246
1 6.49807453155517578 6 255 208 185
1 7 5.86798095703125 255 244 240
1 7.78221988677978516 -7 255 168 167
1 8 -6.86362981796264648 255 128 127
1 7.64783382415771484 -4 108 89 84
1 7.72282886505126953 -3 15 11 9
0.592863142490386963 8 -2 108 106 105
1 7.91657209396362305 -2 44 29 24
1 8 -1.68254101276397705 155 154 154
1 7.83249425888061523 2 13 9 7
1 8 1.36433517932891846 134 129 127
1 7.70451593399047852 3 67 51 41
1 7.37805032730102539 4 181 154 140
1 8 5.23162651062011719 255 208 190
1 8.96955776214599609 -6 255 141 138
1 8.97927379608154297 -5 255 164 158
1 8.97640132904052734 -4 255 195 188
1 8.97981548309326172 -3 220 197 193
1 8.92501544952392578 -2 155 154 154
1 8.96511363983154297 2 188 185 185
1 8.98030757904052734 3 255 233 225
1 8.98034763336181641 4 255 216 202
1 8.93822383880615234 5 255 208 190
1.7668224573135376 5 -8 255 218 218
2 5.17022705078125 -7 255 236 235
2 6 -7.41278696060180664 255 181 180
1.59709846973419189 6 -6 200 172 169
2 5.87536144256591797 -6 113 75 68
2 6 -5.85209751129150391 255 238 236
2 5.93385982513427734 6 241 158 113
2 6 5.90915489196777344 220 164 133
2 6 6.05972766876220703 255 215 197
1.65888285636901855 7 -7 255 168 167
2 6.79413700103759766 -7 255 213 212
2 7 -6.83802938461303711 255 166 165
2 6.68954324722290039 -5 123 89 81
2 7 -4.25056314468383789 255 237 235
1.63796627521514893 7 4 181 154 140
2 6.88867902755737305 4 76 51 34
2 7 3.81989097595214844 142 114 100
2 6.60201168060302734 5 220 164 133
2 6.12272787094116211 6 255 215 197
2 7 5.48067474365234375 255 252 252
2 8 -6.62344074249267578 255 132 130
2 7.28172779083251953 -4 184 163 159
2 7.68737411499023438 -3 89 68 62
2 7.73423957824707031 -2 26 18 15
1.47969043254852295 8 -1 118 112 110
2 7.8246464729309082 -1 7 5 4
1.63041746616363525 8 0 111 104 102
2 7.86425256729125977 0 13 9 7
1.31672048568725586 8 1 134 129 127
2 7.79874420166015625 1 8 5 4
2 7.72087812423706055 2 59 44 35
2 7.61187267303466797 3 142 114 100
1.53558540344238281 8 5 255 208 190
2 7.72971153259277344 5 255 252 252
2 8 4.77188825607299805 255 210 194
2 8.92198467254638672 -6 255 141 138
2 8.98007869720458984 -5 255 159 153
2 8.97665119171142578 -4 255 184 176
2 8.97909355163574219 -3 255 212 205
2 8.97904300689697266 -2 230 213 209
2 8.96640777587890625 -1 194 190 189
2 8.95556068420410156 0 187 187 186
2 8.97159671783447266 1 210 205 204
2 8.97989559173583984 2 255 236 230
2 8.98027133941650391 3 255 221 210
2 8.97805213928222656 4 255 210 194
2.28194880485534668 5 -7 255 236 235
3 4.82327365875244141 -7 255 215 213
3 5 -7.26312971115112305 255 200 198
3 5 -6.81506872177124023 255 246 246
3 6 -7.0190281867980957 255 180 178
3 5.66730070114135742 -6 218 167 160
3 6 -5.43822860717773438 255 246 245
2.95589923858642578 6 5 220 164 133
3 5.98064899444580078 5 172 107 68
3 6 4.97479534149169922 182 129 99
2.16605234146118164 6 6 255 215 197
3 6 5.08419418334960938 255 204 181
3 6.03608036041259766 -7 255 203 201
3 7 -6.39284992218017578 255 165 164
3 6.39263820648193359 -5 228 187 180
2.27634477615356445 7 -4 184 163 159
3 6.74509334564208984 -4 105 71 61
3 7 -3.35182499885559082 255 253 253
2.94077253341674805 7 3 142 114 100
3 6.96613836288452148 3 68 44 29
3 7 2.93359875679016113 164 133 117
3 6.70597219467163086 4 182 129 99
3 7 5.09028482437133789 255 248 245
2.57949471473693848 8 -6 255 141 138
3 7.74881172180175781 -6 255 186 182
3 8 -5.76299619674682617 255 140 138
3 7.34772491455078125 -3 194 167 161
3 7.65790176391601562 -2 129 101 91
3 7.69496250152587891 -1 93 70 60
3 7.70169448852539062 0 87 65 54
3 7.68445634841918945 1 110 84 72
3 7.58466053009033203 2 164 133 117
3 7.14355897903442383 5 255 248 245
3 8 4.2361907958984375 255 205 187
3 8.96504402160644531 -5 255 155 149
3 8.98039054870605469 -4 255 172 165
3 8.97765159606933594 -3 255 193 184
3 8.97863197326660156 -2 255 211 203
3 8.98020362854003906 -1 255 224 217
3 8.98038768768310547 0 255 229 222
3 8.98027133941650391 1 255 226 217
3 8.98010158538818359 2 255 217 206
3 8.97984409332275391 3 255 209 194
3 8.93275070190429688 4 255 205 187
3.6373445987701416 5 -7 255 246 246
3.9608156681060791 5 -6 218 167 160
4 4.97366189956665039 -6 210 151 145
4 5 -6.24005794525146484 255 222 222
4 5 -5.96954441070556641 255 233 231
3.02510595321655273 6 -7 255 203 201
4 6 -6.29336881637573242 255 195 194
3.47199249267578125 6 -5 228 187 180
4 5.74899387359619141 -5 200 140 129
4 6 -4.5102076530456543 255 244 243
3.71436476707458496 6 5 255 204 181
3.48441600799560547 7 -6 255 186 182
4 6.46701574325561523 -6 255 223 222
4 7 -5.55319738388061523 255 180 177
4 6.4308319091796875 -4 240 189 179
3.33373785018920898 7 -3 194 167 161
4 6.71268463134765625 -3 146 99 85
3.80675983428955078 7 -2 129 101 91
4 6.86669683456420898 -2 82 52 40
4 7 -1.33859872817993164 255 232 226
3.70694112777709961 7 2 164 133 117
4 6.82177400588989258 2 119 79 56
4 7 1.06698358058929443 245 214 202
4 6.6802668571472168 3 203 144 114
4 6.17397546768188477 4 255 201 177
3.12286520004272461 7 5 255 248 245
4 7 4.27643775939941406 255 247 244
3.75840020179748535 8 -5 255 155 149
4 7.79298114776611328 -5 255 200 196
4 8 -4.73626708984375 255 152 147
4 7.18291616439819336 -1 228 197 187
4 7.29205513000488281 0 222 189 177
4 7.03963804244995117 1 245 214 202
3.27818942070007324 8 4 255 205 187
4 7.36298131942749023 4 255 247 244
4 8 3.28016400337219238 255 200 184
4 8.96086502075195312 -4 255 165 157
4 8.97945976257324219 -3 255 178 169
4 8.98020553588867188 -2 255 191 180
4 8.97969341278076172 -1 255 200 189
4 8.97994518280029297 0 255 204 193
4 8.98038959503173828 1 255 204 192
4 8.97824382781982422 2 255 202 187
4 8.93336296081542969 3 255 200 184
4.61650323867797852 5 -6 255 233 231
4.32447576522827148 6 -6 255 223 222
5 5.01911258697509766 -5 255 222 218
5 6 -5.29310512542724609 255 210 208
4.50561904907226562 6 -4 240 189 179
5 5.70911455154418945 -4 242 170 156
4.95259618759155273 6 -3 146 99 85
5 5.9596400260925293 -3 150 90 73
5 6 -2.89807796478271484 255 211 202
4.88350105285644531 6 3 203 144 114
5 5.90987253189086914 3 213 132 92
5 6 2.71529936790466309 255 194 169
4.90422582626342773 6 4 255 201 177
5 5.98990297317504883 4 255 173 138
5 6 4.00623273849487305 255 224 211
4.51489543914794922 7 -5 255 200 196
5 6.39336252212524414 -5 255 235 234
5 7 -4.37750673294067383 255 192 187
5 6.51029300689697266 -2 246 184 167
4.18447065353393555 7 -1 228 197 187
5 6.63985872268676758 -1 211 150 128
4.30313682556152344 7 0 222 189 177
5 6.66404390335083008 0 206 144 120
4.0436553955078125 7 1 245 214 202
5 6.62058353424072266 1 230 166 139
5 6.43149471282958984 2 255 194 169
4.27834463119506836 7 4 255 247 244
5 6.00853109359741211 4 255 224 211
5 7 3.13486719131469727 255 241 237
4.57249355316162109 8 -4 255 165 157
5 7.51215314865112305 -4 255 208 202
4.99139881134033203 8 -3 255 178 169
5 7.99086523056030273 -3 255 225 221
5 8 -2.97959518432617188 255 171 161
4.79280233383178711 8 2 255 202 187
5 7.76786994934082031 2 255 247 245
5 8 1.56915342807769775 255 192 177
4.24947977066040039 8 3 255 200 184
5 7.16436624526977539 3 255 241 237
5 8.95206356048583984 -2 255 179 168
5 8.96763324737548828 -1 255 186 173
5 8.96644687652587891 0 255 190 176
5 8.93948078155517578 1 255 192 177
5.91588354110717773 5 -4 242 170 156
6 4.92030668258666992 -4 255 182 172
6 5 -4.29925918579101562 255 250 249
6 5 -3.74421453475952148 255 226 223
5.23801088333129883 6 -5 255 235 234
5.77452421188354492 6 -4 255 242 240
6 5.43473339080810547 -4 255 226 223
6 5.4906158447265625 -3 255 195 184
6 6 -3.69908952713012695 255 239 237
5.61368370056152344 6 -2 246 184 167
6 5.69939994812011719 -2 255 174 154
5.75180196762084961 6 -1 211 150 128
6 5.78367805480957031 -1 247 159 131
5.78970241546630859 6 0 206 144 120
6 5.81267499923706055 0 243 154 122
5.76263284683227539 6 1 230 166 139
6 5.79632186889648438 1 255 164 131
5.69054365158081055 6 2 255 194 169
6 5.79599761962890625 2 255 173 142
5.3187098503112793 6 3 255 209 191
6 6 2.34499669075012207 255 226 217
5.00537109375 6 4 255 224 211
5.26480245590209961 7 -4 255 208 202
5.62739706039428711 7 -3 255 225 221
6 6.48299837112426758 -3 255 250 250
6 7 -2.00240039825439453 255 210 204
5.90252399444580078 7 1 255 253 253
6 6.82497835159301758 1 255 220 210
6 7 0.702036678791046143 255 231 225
5.51125001907348633 7 2 255 247 245
6 6.26242351531982422 2 255 226 217
5.10198688507080078 7 3 255 241 237
5.39581012725830078 8 -2 255 179 168
6 7.00211095809936523 -2 255 220 214
5.49453830718994141 8 -1 255 186 173
6 7.29816961288452148 -1 255 227 221
5.45854806900024414 8 0 255 190 176
6 7.25273847579956055 0 255 231 225
5.27120494842529297 8 1 255 192 177
6.10598325729370117 5 -4 255 226 223
6.25625467300415039 6 -3 255 250 250
6.39595651626586914 6 -2 255 233 229
6.44413375854492188 6 -1 255 222 214
6.39738273620605469 6 0 255 218 208
6.29686927795410156 6 1 255 220 210
6.13818216323852539 6 2 255 226 217
6.00091648101806641 7 -2 255 220 214
6.15729141235351562 7 -1 255 227 221
6.1367955207824707 7 0 255 231 225
3 2 1 0
3 1 4 3
3 0 1 3
3 4 6 5
3 3 4 5
3 6 7 5
3 2 0 8
3 0 3 9
3 8 0 9
3 3 5 10
3 9 3 10
3 5 7 10
3 13 12 11
3 12 14 11
3 1 2 15
3 4 1 15
3 16 4 15
3 6 4 16
3 17 6 16
3 6 17 7
3 19 13 11
3 18 19 11
3 14 21 20
3 14 20 11
3 11 20 18
3 22 20 2
3 22 2 8
3 20 21 2
3 15 2 23
3 21 23 2
3 8 24 22
3 8 9 24
3 23 25 15
3 25 16 15
3 9 26 24
3 9 10 26
3 25 27 16
3 27 17 16
3 27 29 7
3 27 7 17
3 29 28 7
3 10 7 26
3 28 26 7
3 29 31 30
3 28 29 30
3 31 32 30
3 19 18 33
3 18 20 34
3 33 18 34
3 36 34 20
3 36 20 35
3 35 20 22
3 22 24 35
3 24 37 35
3 24 26 37
3 26 38 37
3 26 28 38
3 28 39 38
3 40 41 39
3 40 39 30
3 30 39 28
3 30 32 40
3 36 35 42
3 35 37 43
3 42 35 43
3 37 38 44
3 43 37 44
3 38 39 45
3 44 38 45
3 39 41 45
3 48 47 46
3 47 50 49
3 46 47 49
3 13 49 50
3 13 50 12
3 52 51 50
3 51 12 50
3 12 51 14
3 48 46 53
3 55 53 46
3 55 46 54
3 54 46 49
3 49 19 54
3 49 13 19
3 51 52 56
3 51 21 14
3 51 56 21
3 56 57 21
3 59 58 23
3 59 23 57
3 57 23 21
3 25 23 58
3 60 25 58
3 27 25 60
3 61 27 60
3 29 27 61
3 62 29 61
3 31 29 62
3 63 31 62
3 64 32 31
3 64 31 65
3 63 66 31
3 66 65 31
3 65 68 67
3 64 65 67
3 68 69 67
3 55 54 70
3 72 33 71
3 70 33 72
3 70 19 33
3 70 54 19
3 34 71 33
3 73 71 34
3 59 74 58
3 73 34 36
3 58 75 60
3 74 75 58
3 60 76 61
3 75 76 60
3 61 77 62
3 76 77 61
3 79 62 77
3 79 63 62
3 40 78 41
3 79 66 63
3 78 40 64
3 78 64 80
3 64 40 32
3 81 82 80
3 81 80 67
3 67 80 64
3 67 69 81
3 72 71 83
3 85 83 71
3 85 71 84
3 84 71 73
3 42 73 36
3 42 86 73
3 86 84 73
3 43 86 42
3 87 86 43
3 44 87 43
3 88 87 44
3 45 88 44
3 89 88 45
3 41 89 45
3 41 78 89
3 78 90 89
3 91 92 90
3 91 90 80
3 80 90 78
3 80 82 91
3 85 84 93
3 84 86 94
3 93 84 94
3 86 87 95
3 94 86 95
3 87 88 96
3 95 87 96
3 88 89 97
3 96 88 97
3 89 90 98
3 97 89 98
3 90 92 98
3 101 100 99
3 48 99 100
3 48 100 47
3 47 100 102
3 104 103 50
3 104 50 102
3 102 50 47
3 50 103 52
3 101 99 105
3 107 53 106
3 105 53 107
3 105 48 53
3 105 99 48
3 104 108 103
3 106 53 55
3 110 109 56
3 108 110 56
3 108 56 52
3 108 52 103
3 57 56 109
3 111 57 109
3 57 111 59
3 65 66 112
3 68 65 112
3 113 68 112
3 114 69 68
3 114 68 115
3 113 116 68
3 116 115 68
3 115 117 114
3 107 106 118
3 120 70 119
3 118 70 120
3 118 55 70
3 118 106 55
3 110 121 109
3 119 70 72
3 109 122 111
3 121 122 109
3 111 74 59
3 111 122 74
3 122 123 74
3 125 124 75
3 125 75 123
3 123 75 74
3 76 75 124
3 126 76 124
3 77 76 126
3 127 77 126
3 127 129 128
3 127 128 77
3 77 128 79
3 66 130 112
3 66 79 130
3 79 128 130
3 132 112 130
3 132 113 112
3 81 131 82
3 81 134 131
3 81 133 134
3 81 69 133
3 114 133 69
3 113 132 116
3 114 117 133
3 136 120 119
3 135 136 119
3 83 119 72
3 83 137 119
3 137 135 119
3 83 85 137
3 125 138 124
3 124 139 126
3 138 139 124
3 126 140 127
3 139 140 126
3 127 140 129
3 91 141 92
3 141 142 143
3 91 142 141
3 91 131 142
3 91 82 131
3 131 134 142
3 136 135 144
3 135 137 145
3 144 135 145
3 137 85 93
3 137 93 145
3 145 93 146
3 146 93 147
3 93 94 147
3 147 94 148
3 94 95 148
3 148 95 149
3 95 96 149
3 149 96 150
3 96 97 150
3 150 97 151
3 97 98 151
3 92 141 152
3 92 152 98
3 98 152 151
3 141 143 152
3 101 154 153
3 100 101 153
3 156 155 102
3 156 102 153
3 153 102 100
3 102 155 104
3 105 157 158
3 105 158 101
3 101 158 154
3 156 159 155
3 157 105 107
3 161 160 108
3 159 161 108
3 159 108 104
3 159 104 155
3 108 160 110
3 116 163 162
3 115 116 162
3 115 162 164
3 117 115 164
3 158 157 165
3 167 118 166
3 165 118 167
3 165 107 118
3 165 157 107
3 161 168 160
3 166 118 120
3 160 121 110
3 160 168 121
3 168 169 121
3 171 170 122
3 171 122 169
3 169 122 121
3 123 122 170
3 172 123 170
3 123 172 125
3 128 129 173
3 130 128 173
3 174 130 173
3 174 176 175
3 174 175 130
3 130 175 132
3 116 175 163
3 116 132 175
3 134 133 177
3 177 133 117
3 177 117 178
3 178 117 164
3 180 167 166
3 179 180 166
3 166 136 179
3 120 136 166
3 171 181 170
3 170 182 172
3 181 182 170
3 172 138 125
3 172 182 138
3 182 183 138
3 183 184 138
3 138 184 139
3 184 185 139
3 139 185 140
3 129 186 173
3 129 140 186
3 140 185 186
3 173 187 174
3 186 187 173
3 174 187 176
3 143 142 188
3 188 189 190
3 142 189 188
3 142 177 189
3 142 134 177
3 177 178 189
3 180 179 191
3 179 136 144
3 179 144 191
3 191 144 192
3 192 144 193
3 144 145 193
3 193 145 194
3 145 146 194
3 194 146 195
3 146 147 195
3 195 147 196
3 147 148 196
3 196 148 197
3 148 149 197
3 197 149 198
3 149 150 198
3 198 150 199
3 150 151 199
3 199 151 200
3 151 152 200
3 143 188 201
3 143 201 152
3 152 201 200
3 188 190 201
3 204 203 202
3 154 202 203
3 154 203 153
3 206 205 203
3 205 153 203
3 153 205 156
3 204 202 207
3 205 206 208
3 202 154 207
3 154 209 207
3 154 158 209
3 205 159 156
3 205 208 159
3 208 210 159
3 159 210 211
3 161 159 211
3 162 163 212
3 213 164 162
3 213 162 214
3 212 215 162
3 215 214 162
3 214 216 213
3 209 158 165
3 217 209 165
3 165 218 217
3 167 218 165
3 211 168 161
3 219 168 211
3 221 220 169
3 221 169 219
3 219 169 168
3 169 220 171
3 176 223 222
3 175 176 222
3 163 224 212
3 163 175 224
3 175 222 224
3 212 224 215
3 164 213 226
3 164 226 178
3 226 213 225
3 213 216 225
3 218 167 227
3 227 167 180
3 221 228 220
3 220 181 171
3 220 228 181
3 228 229 181
3 229 230 181
3 181 230 182
3 230 231 182
3 182 231 183
3 231 232 183
3 183 232 184
3 232 233 184
3 184 233 185
3 233 234 185
3 185 234 186
3 234 235 186
3 186 235 187
3 235 176 187
3 223 176 235
3 190 236 237
3 189 236 190
3 236 189 178
3 226 236 178
3 227 180 191
3 238 227 191
3 238 191 239
3 191 192 239
3 239 192 240
3 192 193 240
3 240 193 241
3 193 194 241
3 241 194 242
3 194 195 242
3 242 195 243
3 195 196 243
3 243 196 244
3 196 197 244
3 244 197 245
3 197 198 245
3 245 198 246
3 198 199 246
3 246 199 247
3 199 200 247
3 247 200 248
3 200 201 248
3 248 201 190
3 237 248 190
3 204 250 249
3 203 204 249
3 203 249 251
3 206 203 251
3 250 204 207
3 252 250 207
3 251 253 206
3 206 253 208
3 254 252 207
3 254 207 209
3 256 255 210
3 256 210 253
3 253 210 208
3 210 255 211
3 215 258 257
3 214 215 257
3 214 257 259
3 216 214 259
3 217 260 261
3 217 261 209
3 209 261 254
3 256 262 255
3 260 217 218
3 255 219 211
3 255 262 219
3 262 263 219
3 219 263 264
3 221 219 264
3 222 223 265
3 265 267 266
3 265 266 222
3 222 266 224
3 269 225 268
3 269 226 225
3 258 215 266
3 215 224 266
3 268 225 216
3 259 268 216
3 261 260 270
3 260 271 270
3 260 218 271
3 218 227 271
3 264 228 221
3 272 228 264
3 272 273 228
3 228 273 229
3 273 274 229
3 229 274 230
3 276 275 231
3 276 231 274
3 274 231 230
3 232 231 275
3 277 232 275
3 233 232 277
3 278 233 277
3 278 280 279
3 278 279 233
3 233 279 234
3 279 281 234
3 234 281 235
3 223 282 265
3 223 235 282
3 235 281 282
3 265 282 267
3 237 236 283
3 283 236 226
3 283 226 284
3 284 226 269
3 271 227 238
3 285 271 238
3 285 238 286
3 238 239 286
3 286 239 287
3 239 240 287
3 287 240 288
3 240 241 288
3 288 241 289
3 241 242 289
3 275 276 289
3 275 289 243
3 243 289 242
3 277 275 243
3 244 277 243
3 278 277 244
3 245 278 244
3 280 278 245
3 280 245 290
3 290 245 246
3 290 246 291
3 246 247 291
3 291 247 292
3 247 248 292
3 237 283 293
3 237 293 248
3 248 293 292
3 283 284 293
3 250 295 294
3 249 250 294
3 249 294 296
3 251 249 296
3 295 250 252
3 297 295 252
3 296 298 251
3 251 298 253
3 299 297 252
3 299 252 254
3 253 298 300
3 256 253 300
3 257 258 301
3 257 301 259
3 299 254 302
3 302 254 261
3 300 262 256
3 303 262 300
3 303 304 262
3 262 304 263
3 263 304 305
3 264 263 305
3 267 307 306
3 266 267 306
3 269 268 308
3 258 266 301
3 266 309 301
3 266 306 309
3 308 268 259
3 308 259 310
3 301 309 259
3 309 310 259
3 270 311 312
3 270 312 261
3 261 312 302
3 270 271 311
3 305 272 264
3 313 272 305
3 313 314 272
3 272 314 273
3 316 315 274
3 316 274 314
3 314 274 273
3 274 315 276
3 280 318 317
3 279 280 317
3 317 319 279
3 279 319 281
3 319 320 281
3 281 320 282
3 320 267 282
3 307 267 320
3 321 269 308
3 321 322 269
3 322 284 269
3 308 310 321
3 312 311 323
3 311 271 285
3 311 285 323
3 323 285 324
3 324 285 325
3 285 286 325
3 325 286 326
3 286 287 326
3 326 287 327
3 287 288 327
3 315 316 327
3 315 327 289
3 289 327 288
3 315 289 276
3 318 280 290
3 328 318 290
3 328 290 329
3 290 291 329
3 329 291 330
3 291 292 330
3 330 292 331
3 292 293 331
3 331 293 284
3 322 331 284
3 295 333 332
3 294 295 332
3 294 332 334
3 296 294 334
3 333 295 297
3 335 333 297
3 334 336 296
3 296 336 298
3 337 335 297
3 337 297 299
3 298 336 338
3 300 298 338
3 337 299 339
3 339 299 302
3 338 303 300
3 340 303 338
3 340 341 303
3 303 341 304
3 304 341 342
3 305 304 342
3 307 344 343
3 306 307 343
3 343 345 306
3 306 345 309
3 309 345 346
3 310 309 346
3 347 348 339
3 347 339 312
3 312 339 302
3 348 347 349
3 342 313 305
3 350 313 342
3 350 351 313
3 313 351 314
3 314 351 352
3 316 314 352
3 318 354 353
3 317 318 353
3 353 355 317
3 317 355 319
3 355 356 319
3 319 356 320
3 356 307 320
3 344 307 356
3 322 357 358
3 321 357 322
3 357 321 310
3 346 357 310
3 347 312 323
3 349 347 323
3 349 323 359
3 359 323 324
3 359 324 360
3 324 325 360
3 360 325 361
3 325 326 361
3 361 326 362
3 326 327 362
3 362 327 316
3 352 362 316
3 354 318 328
3 363 354 328
3 363 328 364
3 328 329 364
3 364 329 365
3 329 330 365
3 365 330 366
3 330 331 366
3 366 331 322
3 358 366 322
3 333 368 367
3 332 333 367
3 332 367 369
3 334 332 369
3 368 333 335
3 370 368 335
3 369 371 334
3 334 371 336
3 372 370 335
3 372 335 337
3 336 371 373
3 338 336 373
3 376 375 374
3 375 377 374
3 372 337 378
3 378 337 339
3 373 340 338
3 379 340 373
3 379 380 340
3 340 380 341
3 341 380 381
3 342 341 381
3 344 383 382
3 343 344 382
3 386 384 385
3 382 376 345
3 382 345 343
3 345 376 374
3 345 374 377
3 345 377 346
3 385 384 377
3 384 346 377
3 378 339 348
3 387 378 348
3 348 388 387
3 349 388 348
3 381 350 342
3 389 350 381
3 389 390 350
3 350 390 351
3 391 352 351
3 391 351 392
3 392 351 390
3 392 393 391
3 354 395 394
3 353 354 394
3 394 396 353
3 353 396 355
3 396 397 355
3 355 397 356
3 397 344 356
3 383 344 397
3 384 358 357
3 384 386 358
3 386 398 358
3 384 357 346
3 388 349 359
3 399 388 359
3 399 359 400
3 359 360 400
3 400 360 401
3 360 361 401
3 401 361 402
3 361 362 402
3 352 391 403
3 352 403 362
3 362 403 402
3 391 393 403
3 395 354 363
3 404 395 363
3 404 363 405
3 363 364 405
3 405 364 406
3 364 365 406
3 406 365 407
3 365 366 407
3 407 366 358
3 398 407 358
3 367 368 408
3 367 408 369
3 408 368 370
3 372 410 408
3 372 408 370
3 410 409 408
3 369 408 371
3 409 371 408
3 411 373 371
3 411 371 412
3 412 371 409
3 412 413 411
3 376 415 414
3 375 376 414
3 375 414 416
3 377 375 416
3 417 418 410
3 417 410 378
3 378 410 372
3 418 417 419
3 373 411 379
3 413 379 411
3 413 420 379
3 420 380 379
3 380 420 421
3 381 380 421
3 424 423 422
3 383 422 423
3 383 423 382
3 382 423 425
3 427 385 426
3 427 386 385
3 415 376 425
3 376 382 425
3 426 385 377
3 416 426 377
3 417 378 387
3 387 419 417
3 387 388 419
3 388 428 419
3 421 389 381
3 429 389 421
3 429 430 389
3 389 430 390
3 430 431 390
3 390 431 392
3 432 393 392
3 432 392 433
3 433 392 431
3 433 435 434
3 432 433 434
3 435 437 436
3 434 435 436
3 395 436 437
3 395 437 394
3 394 437 438
3 438 439 394
3 394 439 396
3 422 439 424
3 422 397 439
3 397 396 439
3 422 383 397
3 441 442 440
3 441 440 398
3 441 398 427
3 427 398 386
3 428 388 399
3 443 428 399
3 443 399 444
3 399 400 444
3 444 400 445
3 400 401 445
3 445 401 446
3 401 402 446
3 446 402 447
3 402 403 447
3 393 432 448
3 393 448 403
3 403 448 447
3 432 434 449
3 448 432 449
3 434 436 450
3 449 434 450
3 436 395 404
3 436 404 450
3 450 404 451
3 451 404 452
3 404 405 452
3 452 405 453
3 405 406 453
3 440 442 453
3 440 453 407
3 407 453 406
3 440 407 398
3 456 455 454
3 455 457 454
3 454 409 410
3 454 410 456
3 456 410 458
3 457 409 454
3 457 459 409
3 459 412 409
3 412 459 460
3 413 412 460
3 463 462 461
3 415 461 462
3 415 462 414
3 465 464 462
3 464 414 462
3 414 464 416
3 458 410 418
3 466 458 418
3 418 467 466
3 419 467 418
3 460 420 413
3 468 420 460
3 469 421 420
3 469 420 470
3 470 420 468
3 470 471 469
3 474 473 472
3 424 472 473
3 424 473 423
3 423 473 475
3 461 475 463
3 461 425 475
3 425 423 475
3 461 415 425
3 464 465 426
3 465 427 426
3 465 476 427
3 464 426 416
3 477 478 467
3 477 467 428
3 428 467 419
3 478 477 479
3 469 429 421
3 471 429 469
3 471 480 429
3 480 430 429
3 480 481 430
3 430 481 431
3 481 482 431
3 431 482 433
3 482 483 433
3 433 483 435
3 483 484 435
3 435 484 437
3 484 485 437
3 437 485 438
3 472 485 474
3 472 439 485
3 439 438 485
3 472 424 439
3 442 486 487
3 441 486 442
3 486 441 427
3 476 486 427
3 477 428 443
3 479 477 443
3 479 443 488
3 488 443 444
3 488 444 489
3 444 445 489
3 489 445 490
3 445 446 490
3 490 446 491
3 446 447 491
3 491 447 492
3 447 448 492
3 492 448 493
3 448 449 493
3 493 449 494
3 449 450 494
3 494 450 495
3 450 451 495
3 495 451 496
3 451 452 496
3 496 452 497
3 452 453 497
3 497 453 442
3 487 497 442
3 455 456 498
3 499 457 455
3 499 455 500
3 498 501 455
3 501 500 455
3 500 502 499
3 503 498 456
3 458 503 456
3 501 503 504
3 501 498 503
3 457 499 459
3 459 505 460
3 499 505 459
3 499 506 505
3 499 502 506
3 506 507 505
3 462 463 508
3 462 508 465
3 503 458 466
3 466 467 509
3 503 466 509
3 503 509 510
3 503 510 504
3 510 509 511
3 460 505 468
3 507 468 505
3 507 512 468
3 512 470 468
3 513 471 470
3 513 470 514
3 514 470 512
3 514 516 515
3 513 514 515
3 516 517 515
3 520 519 518
3 474 518 519
3 474 519 473
3 473 519 521
3 521 522 473
3 473 522 475
3 463 475 522
3 463 522 523
3 463 523 508
3 523 522 524
3 508 523 476
3 465 508 476
3 509 467 478
3 478 479 525
3 509 478 525
3 509 525 526
3 509 526 511
3 526 525 527
3 513 480 471
3 515 480 513
3 481 480 515
3 517 481 515
3 517 528 481
3 528 482 481
3 528 529 482
3 482 529 483
3 529 530 483
3 483 530 484
3 518 530 520
3 518 485 530
3 485 484 530
3 518 474 485
3 533 531 532
3 523 487 486
3 524 487 523
3 524 531 487
3 524 532 531
3 523 486 476
3 525 479 488
3 527 525 488
3 527 488 534
3 534 488 489
3 534 489 535
3 489 490 535
3 535 490 536
3 490 491 536
3 536 491 537
3 491 492 537
3 537 492 538
3 492 493 538
3 538 493 539
3 493 494 539
3 539 494 540
3 494 495 540
3 540 495 541
3 495 496 541
3 531 533 541
3 531 541 497
3 497 541 496
3 531 497 487
3 500 501 542
3 500 542 502
3 543 542 501
3 504 543 501
3 502 542 543
3 502 543 544
3 502 544 506
3 545 544 543
3 546 507 506
3 546 506 547
3 547 506 544
3 547 549 548
3 546 547 548
3 549 550 548
3 553 552 551
3 552 555 554
3 551 552 554
3 555 556 554
3 543 504 510
3 510 511 557
3 543 510 557
3 543 557 558
3 543 558 545
3 558 557 559
3 507 546 512
3 548 512 546
3 514 512 548
3 550 514 548
3 550 560 514
3 560 516 514
3 561 517 516
3 561 516 562
3 562 516 560
3 562 564 563
3 561 562 563
3 564 566 565
3 563 564 565
3 520 565 566
3 520 566 519
3 519 566 567
3 551 567 553
3 551 521 567
3 521 519 567
3 554 521 551
3 554 522 521
3 568 569 570
3 522 554 556
3 522 556 524
3 569 568 556
3 568 524 556
3 557 511 526
3 526 527 571
3 557 526 571
3 557 571 572
3 557 572 559
3 572 573 574
3 571 573 572
3 574 573 575
3 561 528 517
3 563 528 561
3 529 528 563
3 565 529 563
3 530 529 565
3 565 520 530
3 577 578 576
3 577 579 580
3 576 579 577
3 568 533 532
3 570 533 568
3 570 579 533
3 570 580 579
3 568 532 524
3 571 527 534
3 573 571 534
3 535 573 534
3 575 573 535
3 575 535 581
3 581 535 536
3 581 536 582
3 536 537 582
3 582 537 583
3 537 538 583
3 583 538 584
3 538 539 584
3 576 578 584
3 576 584 540
3 540 584 539
3 579 576 540
3 541 579 540
3 579 541 533
3 587 586 585
3 586 588 585
3 544 545 589
3 547 544 587
3 547 587 585
3 544 589 587
3 591 587 590
3 589 590 587
3 593 591 590
3 588 592 585
3 592 547 585
3 592 549 547
3 594 550 549
3 594 549 595
3 595 549 592
3 595 597 596
3 594 595 596
3 597 599 598
3 596 597 598
3 599 601 600
3 598 599 600
3 601 603 602
3 600 601 602
3 553 602 603
3 553 603 552
3 605 604 603
3 604 552 603
3 555 552 604
3 606 555 604
3 555 606 556
3 589 545 558
3 558 559 607
3 558 607 589
3 589 607 590
3 593 608 609
3 593 590 608
3 590 607 608
3 609 608 610
3 550 594 560
3 596 560 594
3 562 560 596
3 598 562 596
3 564 562 598
3 600 564 598
3 600 566 564
3 611 612 613
3 612 611 615
3 615 611 614
3 566 600 602
3 566 602 567
3 567 602 553
3 615 614 605
3 614 604 605
3 614 616 604
3 570 569 606
3 570 606 616
3 616 606 604
3 606 569 556
3 607 559 572
3 608 607 572
3 574 608 572
3 574 575 617
3 608 574 617
3 608 617 618
3 608 618 610
3 618 619 620
3 617 619 618
3 620 621 622
3 619 621 620
3 622 611 613
3 622 621 611
3 621 623 611
3 578 577 614
3 578 614 623
3 623 614 611
3 616 614 577
3 580 616 577
3 616 580 570
3 617 575 581
3 619 617 581
3 582 619 581
3 621 619 582
3 583 621 582
3 623 621 583
3 584 623 583
3 623 584 578
3 586 587 624
3 586 624 588
3 624 587 591
3 592 588 624
3 592 624 625
3 591 593 624
3 593 625 624
3 595 592 625
3 626 595 625
3 597 595 626
3 627 597 626
3 599 597 627
3 628 599 627
3 601 599 628
3 629 601 628
3 603 601 629
3 630 603 629
3 603 630 605
3 625 593 609
3 609 610 631
3 609 631 625
3 625 631 626
3 626 631 627
3 627 631 632
3 627 632 628
3 628 632 633
3 613 612 629
3 613 629 633
3 633 629 628
3 630 629 612
3 615 630 612
3 630 615 605
3 631 610 618
3 632 631 618
3 620 632 618
3 633 632 620
3 622 633 620
3 633 622 613
