ply
format ascii 1.0
element vertex 782
property float x
property float y
property float z
property uchar red
property uchar green
property uchar blue
element face 1552
property list uchar int vertex_indices
end_header
-9.94854354858398438 -9 -9 13 2 2
-9 -9.94854354858398438 -9 17 3 4
-9 -9 -9.94854354858398438 17 5 5
-9.92713356018066406 -9 -8 15 1 2
-9 -9.92713356018066406 -8 18 2 3
-9.87728214263916016 -9 -7 21 1 3
-9 -9.87728214263916016 -7 24 1 5
-9.66428661346435547 -9 -6 22 1 7
-9 -9.66428661346435547 -6 26 1 12
-9 -9 -5.56289815902709961 22 1 8
-9.64623451232910156 -9 4 4 5 15
-9 -9.64623451232910156 4 5 18 10
-9 -9 3.59475326538085938 6 21 5
-9.87430953979492188 -9 5 13 2 13
-9 -9.87430953979492188 5 3 3 17
-9.92587471008300781 -9 6 10 1 6
-9 -9.92587471008300781 6 14 2 15
-9.94787311553955078 -9 7 10 1 5
-9 -9.94787311553955078 7 14 1 10
-9.95963764190673828 -9 8 12 1 6
-9 -9.95963764190673828 8 15 1 12
-9 -9 8.95963764190673828 15 1 9
-9.93641281127929688 -8 -9 15 4 5
-9 -8 -9.93641281127929688 13 4 5
-9.89490413665771484 -8 -8 16 3 4
-9.71391010284423828 -8 -7 16 1 3
-9 -8.6067657470703125 -6 22 1 8
-9 -8 -6.55026435852050781 21 3 8
-9 -8.63818454742431641 4 4 15 6
-9.69502639770507812 -8 5 10 3 13
-9 -8 4.58571910858154297 3 10 4
-9.89194965362548828 -8 6 12 1 7
-9.93526744842529297 -8 7 11 1 4
-9.95365810394287109 -8 8 11 1 4
-9 -8 8.95365810394287109 14 1 6
-9.91899490356445312 -7 -9 11 4 4
-9 -7 -9.91899490356445312 8 3 3
-9.82470798492431641 -7 -8 15 4 6
-9 -7.40304136276245117 -7 21 3 8
-9 -7 -7.26367855072021484 13 4 7
-9 -7.45768594741821289 5 2 7 10
-9.81550693511962891 -7 6 12 2 7
-9 -7 5.30319309234619141 1 3 4
-9.91694831848144531 -7 7 10 1 3
-9.94635677337646484 -7 8 10 1 2
-9 -7 8.94635677337646484 12 1 4
-9.89407253265380859 -6 -9 3 1 1
-9 -6 -9.89407253265380859 2 1 1
-9.59238624572753906 -6 -8 7 3 3
-9 -6 -7.78252458572387695 6 3 4
-9.53372764587402344 -6 6 9 1 6
-9 -6 5.82741212844848633 0 1 2
-9.89024162292480469 -6 7 8 1 2
-9.93789291381835938 -6 8 7 0 1
-9 -6 8.93789291381835938 8 1 2
-9.85953426361083984 -5 -9 3 1 1
-9 -5 -9.85953426361083984 0 0 0
-9 -5.43772315979003906 -8 6 3 4
-9 -5 -8.15603923797607422 1 0 0
-9 -5.56175804138183594 6 9 2 9
-9.85215282440185547 -5 7 4 0 1
-9 -5 6.20291566848754883 7 1 4
-9.928863525390625 -5 8 3 0 0
-9 -5 8.928863525390625 4 0 1
-9.81566143035888672 -4 -9 3 2 2
-9 -4 -9.81566143035888672 0 0 0
-9 -4 -8.40456581115722656 1 1 1
-9.80209636688232422 -4 7 0 0 0
-9 -4 6.45390176773071289 0 0 0
-9.92041110992431641 -4 8 0 0 0
-9 -4 8.92041110992431641 0 0 0
-9.77021026611328125 -3 -9 2 2 2
-9 -3 -9.77021026611328125 2 2 2
-9 -3 -8.55560874938964844 3 3 3
-9.74882411956787109 -3 7 1 0 0
-9 -3 6.60474395751953125 2 0 0
-9.91401195526123047 -3 8 2 0 0
-9 -3 8.91401195526123047 5 0 1
-9.74098110198974609 -2 -9 6 6 6
-9 -2 -9.74098110198974609 13 12 12
-9 -2 -8.62306404113769531 13 11 12
-9.71430873870849609 -2 7 1 0 0
-9 -2 6.67102479934692383 2 0 0
-9.91081619262695312 -2 8 5 0 0
-9 -2 8.91081619262695312 9 2 5
-9.74132347106933594 -1 -9 18 14 15
-9 -1 -9.74132347106933594 24 18 19
-9 -1 -8.62215995788574219 19 16 17
-9.71617031097412109 -1 7 4 0 0
-9 -1 6.66826915740966797 4 1 1
-9.91091537475585938 -1 8 11 2 2
-9 -1 8.91091537475585938 17 9 16
-9.76527500152587891 0 -9 26 18 20
-9 0 -9.76527500152587891 25 16 18
-9 0 -8.56783199310302734 19 16 17
-9.74544715881347656 0 7 11 2 3
-9 0 6.61267328262329102 13 5 8
-9.91339969635009766 0 8 17 6 8
-9 0 8.91339969635009766 18 18 19
-9.79699230194091797 1 -9 24 17 18
-9 1 -9.79699230194091797 19 13 14
-9 1 -8.47593307495117188 14 13 13
-9.78061962127685547 1 7 18 9 10
-9 1 6.52227497100830078 18 15 17
-9.91743183135986328 1 8 25 18 21
-9 1 8.91743183135986328 10 13 12
-9.82551765441894531 2 -9 14 12 12
-9 2 -9.82551765441894531 10 9 9
-9 2 -8.36083602905273438 3 3 3
-9.81340599060058594 2 7 15 15 15
-9 2 6.40926170349121094 5 5 7
-9.92203617095947266 2 8 11 9 11
-9 2 8.92203617095947266 9 12 12
-9.84840774536132812 3 -9 0 0 0
-9 3 -9.84840774536132812 5 5 5
-9 3 -8.23382949829101562 9 9 9
-9.83965396881103516 3 7 6 4 6
-9 3 6.28263092041015625 7 8 12
-9.92647933959960938 3 8 6 5 6
-9 3 8.92647933959960938 4 4 5
-9.86576652526855469 4 -9 15 14 14
-9 4 -9.86576652526855469 18 18 18
-9 4 -8.10533809661865234 18 18 18
-9.85931491851806641 4 7 4 2 4
-9 4 6.15321731567382812 6 5 9
-9.93039226531982422 4 8 2 2 2
-9 4 8.93039226531982422 5 5 5
-9.8786773681640625 5 -9 23 21 21
-9 5 -9.8786773681640625 24 23 23
-9.10919284820556641 5 -8 22 22 22
-9 4.86101770401000977 -8 18 17 17
-9 5 -7.98193073272705078 24 23 23
-9.87373447418212891 5 7 5 4 5
-9 5 6.02913665771484375 0 0 0
-9.93366813659667969 5 8 11 10 11
-9 5 8.93366813659667969 14 13 13
-9.88832569122314453 6 -9 24 22 22
-9 6 -9.88832569122314453 25 23 23
-9.47812843322753906 6 -8 23 23 23
-9 6 -7.86362838745117188 24 23 23
-9.37506484985351562 6 6 4 3 3
-9 5.25707244873046875 6 0 0 0
-9 6 5.91049003601074219 0 0 0
-9.88437175750732422 6 7 11 10 10
-9.93635463714599609 6 8 12 9 9
-9 6 8.93635463714599609 13 10 10
-9.89574527740478516 7 -9 27 26 26
-9 7 -9.89574527740478516 28 24 24
-9.61961841583251953 7 -8 27 26 26
-9 7 -7.75530195236206055 25 25 25
-9.56969165802001953 7 6 11 8 9
-9 7 5.80071592330932617 6 3 4
-9.89246654510498047 7 7 14 12 13
-9.93852329254150391 7 8 19 13 13
-9 7 8.93852329254150391 17 12 12
-9.90182113647460938 8 -9 30 29 29
-9 8 -9.90182113647460938 32 25 25
-9.69650936126708984 8 -8 30 30 30
-9 8 -7.65205812454223633 28 28 28
-9.66661357879638672 8 6 14 11 11
-9 8 5.69609832763671875 9 5 6
-9.89902877807617188 8 7 15 13 13
-9.94043159484863281 8 8 24 16 16
-9 8 8.94043159484863281 18 12 12
-9 8.90182113647460938 -9 30 28 28
-9 8.69650936126708984 -8 28 28 28
-9 8.66661357879638672 6 10 7 8
-9 8.89902877807617188 7 9 9 9
-9 8.94043159484863281 8 18 12 12
-8 -9.92043495178222656 -9 23 5 9
-8 -9 -9.92043495178222656 18 5 6
-8 -9.83201217651367188 -8 24 4 10
-8.16534328460693359 -9 -7 19 2 5
-8 -9 -7.22235298156738281 23 5 11
-8.78558349609375 -9 -6 22 1 8
-8.80260753631591797 -9 4 4 15 6
-8.19091320037841797 -9 5 3 9 16
-8 -9.82398033142089844 6 3 4 20
-8 -9 5.25960445404052734 3 14 5
-8 -9.91853237152099609 7 17 2 19
-8 -9.94693470001220703 8 19 1 16
-8 -9 8.94693470001220703 18 1 13
-8 -8 -9.88623905181884766 13 4 5
-8.70711994171142578 -8 -7 21 3 8
-8 -8 -7.89266157150268555 19 5 11
-8.73335933685302734 -8 5 2 7 10
-8 -8 5.9356236457824707 2 9 4
-8 -8 8.93567180633544922 15 1 10
-8 -7 -9.81866645812988281 8 3 4
-8.38259506225585938 -7 -8 13 4 7
-8 -7.80096960067749023 -8 19 5 11
-8 -7 -8.39238262176513672 10 4 5
-8.42214202880859375 -7 6 9 2 11
-8 -7.88217830657958984 6 2 3 14
-8 -7 6.43619060516357422 4 2 11
-8 -7 8.92102909088134766 12 1 7
-8 -6 -9.6483306884765625 4 2 2
-8.80145549774169922 -6 -8 6 3 4
-8 -6 -8.76088619232177734 6 3 4
-8.84418582916259766 -6 6 9 2 9
-8 -6 6.80730819702148438 7 2 9
-8 -6 8.90288448333740234 8 1 5
-8.02856731414794922 -5 -9 1 0 0
-8 -5.08892917633056641 -9 6 3 4
-8.08901309967041016 -5 7 4 0 1
-8 -5.2756037712097168 7 8 1 5
-8 -5 7.06987237930297852 2 0 1
-8 -5 8.88230991363525391 4 0 3
-8.26284599304199219 -4 -9 1 1 1
-8.32650947570800781 -4 7 0 0 0
-8 -4 7.23887729644775391 1 0 1
-8 -4 8.86227035522460938 1 0 0
-8.41765499114990234 -3 -9 3 3 3
-8.48262405395507812 -3 7 3 0 0
-8 -3 7.33468723297119141 8 2 6
-8 -3 8.84681987762451172 7 4 9
-8.48980998992919922 -2 -9 13 11 12
-8.55438518524169922 -2 7 7 1 2
-8 -2 7.37414693832397461 11 7 13
-8 -2 8.83879280090332031 13 15 19
-8.48702526092529297 -1 -9 19 16 17
-8.55236053466796875 -1 7 13 4 7
-8 -1 7.37434482574462891 13 14 15
-8 -1 8.83880710601806641 10 10 10
-8.42946052551269531 0 -9 19 16 17
-8.4944000244140625 0 7 21 14 19
-8 0 7.34502935409545898 10 11 9
-8 0 8.84462356567382812 14 13 10
-8.34324264526367188 1 -9 14 13 13
-8.40949821472167969 1 7 10 11 12
-8 1 7.29850101470947266 18 17 11
-8 1 8.85291957855224609 15 16 11
-8.25368595123291016 2 -9 3 3 3
-8.3163604736328125 2 7 8 13 13
-8 2 7.24536657333374023 14 18 11
-8 2 8.86119174957275391 9 11 10
-8.17594242095947266 3 -9 9 9 9
-8.23291587829589844 3 7 7 9 12
-8 3 7.19447565078735352 7 11 11
-8 3 8.86817550659179688 2 3 3
-8.11684703826904297 4 -9 18 18 18
-8.16783523559570312 4 7 2 2 2
-8 4 7.15139675140380859 0 0 0
-8 4 8.87349891662597656 7 7 7
-8.07590484619140625 5 -9 24 24 24
-8.98583984375 5 -8 24 23 23
-8.12162208557128906 5 7 9 7 8
-8 5 7.11816978454589844 10 8 10
-8 5 8.87730026245117188 15 14 14
-8.04816246032714844 6 -9 24 24 24
-8.90081787109375 6 -8 24 23 23
-8.93530941009521484 6 6 6 4 5
-8.08952903747558594 6 7 12 12 12
-8 6 7.09299087524414062 11 10 10
-8 6 8.88003444671630859 11 8 9
-8.02616024017333984 7 -9 26 26 26
-8.83308124542236328 7 -8 25 25 25
-8.86488246917724609 7 6 10 7 8
-8.06407070159912109 7 7 12 11 11
-8 7 7.07047843933105469 7 6 6
-8 7 8.88225841522216797 8 6 6
-8.00078296661376953 8 -9 30 28 28
-8.77452373504638672 8 -8 28 28 28
-8.80409717559814453 8 6 10 7 8
-8.03605365753173828 8 7 9 9 9
-8 8 7.04144382476806641 3 2 2
-8 8 8.88509082794189453 5 4 4
-8 8.88509082794189453 8 5 4 4
-7 -9.84236812591552734 -9 24 6 12
-7 -9 -9.84236812591552734 19 6 7
-7.28745555877685547 -9 -8 23 5 11
-7 -9 -8.27214336395263672 21 6 11
-7.32906770706176758 -9 6 3 6 18
-7 -9.83382701873779297 7 7 2 22
-7 -9 6.31392097473144531 3 18 17
-7 -9.92538070678710938 8 17 2 21
-7 -9 8.92538070678710938 17 2 19
-7 -8 -9.63579082489013672 15 5 7
-7.89188432693481445 -8 -8 19 5 11
-7 -8 -8.77393436431884766 17 6 9
-7.93583488464355469 -8 6 2 3 14
-7 -8 6.81799221038818359 3 11 15
-7 -8 8.90218067169189453 14 2 16
-7.21675205230712891 -7 -9 10 4 5
-7 -7.41714811325073242 -9 17 6 9
-7.27864456176757812 -7 7 13 2 11
-7 -7.53531360626220703 7 9 2 16
-7 -7 7.19726371765136719 8 2 11
-7 -7 8.86774158477783203 9 2 11
-7.66179466247558594 -6 -9 6 3 4
-7.72895383834838867 -6 7 8 1 5
-7 -6 7.47173070907592773 5 1 6
-7 -6 8.81678676605224609 4 1 7
-7 -5 7.66435527801513672 1 0 1
-7 -5 8.74311637878417969 0 0 1
-7 -4 7.79344940185546875 2 2 4
-7 -4 8.64305305480957031 6 11 12
-7 -3 7.87395191192626953 11 16 15
-7 -3 8.525909423828125 12 13 10
-7 -2 7.91869640350341797 8 7 7
-7 -2 8.41852378845214844 7 7 7
-7 -1 7.94020509719848633 12 12 9
-7 -1 8.3468170166015625 11 10 9
-7 0 7.95039129257202148 19 20 13
-7 0 8.30619335174560547 15 13 12
-7 1 7.95877504348754883 21 17 13
-7 1 8.26857185363769531 15 13 11
-7 2 7.97199869155883789 17 15 11
-7 2 8.19987583160400391 8 10 8
-7 3 7.99358224868774414 6 10 7
-7 3 8.05428028106689453 1 1 1
-7.02980995178222656 4 8 7 7 7
-7 3.21292448043823242 8 1 1 1
-7.06926345825195312 5 8 15 14 14
-7.10361433029174805 6 8 11 8 9
-7.12604379653930664 7 8 8 6 6
-7.12738370895385742 8 8 5 4 4
-6 -9.23136043548583984 -9 25 6 15
-6 -9 -9.23136043548583984 20 6 9
-6 -9 -8.96174526214599609 22 6 13
-6.00884151458740234 -9 7 8 2 19
-6 -9.88823699951171875 8 8 2 22
-6 -9 7.0056004524230957 3 6 19
-6 -9 8.88823699951171875 6 2 19
-6.63086032867431641 -8 -9 17 6 9
-6 -8.90835285186767578 -9 22 6 13
-6.70463705062866211 -8 7 9 2 16
-6 -8 7.3991694450378418 2 5 15
-6 -8 8.83404445648193359 2 4 15
-6 -7 7.69559526443481445 2 5 10
-6 -7 8.72481822967529297 3 8 10
-6 -6 7.91744327545166016 1 3 3
-6 -6 8.42214393615722656 0 1 1
-6.19987010955810547 -5 8 0 0 1
-6 -5.49727535247802734 8 0 1 1
-6.50190305709838867 -4 8 6 11 12
-6.70477914810180664 -3 8 12 13 10
-6.82209205627441406 -2 8 7 7 7
-6.88132762908935547 -1 8 11 10 9
-6.91206836700439453 0 8 15 13 12
-6.93497562408447266 1 8 15 13 11
-6.96048355102539062 2 8 8 10 8
-6.99180316925048828 3 8 1 1 1
-5.91563034057617188 -9 -9 22 6 13
-5 -9.82713794708251953 8 3 13 21
-5 -9 7.42998552322387695 3 17 16
-5 -9 8.82713794708251953 3 18 17
-5 -8 7.75586318969726562 3 13 7
-5 -8 8.67996692657470703 3 12 5
-5.03331804275512695 -7 8 3 8 10
-5 -7.04097747802734375 8 3 12 5
-5.72313022613525391 -6 8 0 1 1
-4 -9.74791145324707031 8 4 19 3
-4 -9 7.65517520904541016 12 15 4
-4 -9 8.74791145324707031 11 15 3
-4 -8 7.94756841659545898 3 3 1
-4 -8 8.31798171997070312 5 8 2
-4 -7.78541755676269531 8 5 8 2
-3 -9.70120811462402344 8 16 14 3
-3 -9 7.72935819625854492 7 3 2
-3 -9 8.70120811462402344 5 10 2
-3.25834751129150391 -8 8 5 8 2
-3 -8.06472492218017578 8 5 10 2
-2 -9.72706699371337891 8 3 15 2
-2 -9 7.69098281860351562 13 10 2
-2 -9 8.72706699371337891 3 26 9
-2 -8.01087665557861328 8 3 26 9
-1 -9.78424739837646484 8 3 35 11
-1 -9 7.57302618026733398 30 32 5
-1 -9 8.78424739837646484 4 38 13
-1.9528428316116333 -8 8 4 32 9
-1 -8 7.93322944641113281 33 33 6
-1 -8 8.37182235717773438 4 36 5
-1 -7.81412792205810547 8 4 36 5
0 -9.83293819427490234 8 3 40 17
0 -9 7.40357351303100586 21 37 5
0 -9 8.83293819427490234 4 38 11
0 -8 7.8317255973815918 26 35 6
0 -8 8.59611892700195312 4 35 5
0 -7.60801982879638672 8 4 35 5
1 -9.86693191528320312 8 3 38 18
1 -9 7.20292425155639648 7 36 4
1 -9 8.86693191528320312 3 36 15
1 -8 7.71170330047607422 16 34 5
1 -8 8.71390914916992188 4 35 14
1 -7.42554712295532227 8 4 35 14
1.70027029514312744 -9 -9 15 22 14
2 -9.35222721099853516 -9 12 20 12
2 -9 -9.35222721099853516 21 11 24
2 -9 -8.93062114715576172 11 18 15
1.91185200214385986 -9 7 7 36 4
2 -9.13818168640136719 7 3 35 18
2 -9 6.97946643829345703 25 32 6
2 -9.89043235778808594 8 3 36 28
2 -9 8.89043235778808594 3 35 31
2 -8.89180469512939453 -9 11 18 15
2 -8.96819686889648438 7 4 35 16
2 -8 7.57302236557006836 5 32 6
2 -8 8.78435230255126953 4 34 31
2 -7.24714994430541992 8 4 34 31
3 -9.71163463592529297 -9 7 14 15
3 -9 -9.71163463592529297 27 9 20
3 -9 -8.67676448822021484 7 8 16
3 -9.67727375030517578 7 3 32 35
3 -9 6.72432088851928711 10 25 5
3 -9.90769577026367188 8 2 21 35
3 -9 8.90769577026367188 3 16 35
3 -8.54745292663574219 -9 7 8 16
3 -8.61500167846679688 7 4 33 31
3 -8 7.40156173706054688 3 20 12
3 -8 8.83321952819824219 3 16 30
3 -7.0288996696472168 8 3 16 30
4 -9.82152748107910156 -9 10 6 16
4 -9 -9.82152748107910156 33 6 10
4 -9 -8.37764549255371094 21 6 18
4 -9.81035995483398438 7 3 13 33
4 -9 6.4214625358581543 1 7 3
4 -9.92149925231933594 8 10 2 35
4 -9 8.92149925231933594 10 2 32
4 -8.18765735626220703 -9 21 6 18
4 -8.24435138702392578 7 3 13 21
4 -8 7.17002964019775391 0 1 1
4 -8 8.87088394165039062 2 1 12
3.08875608444213867 -7 8 1 7 8
4 -7 7.82605934143066406 2 6 2
4 -7 8.60418605804443359 0 0 0
4 -6.71250295639038086 8 0 0 0
5 -9.87708950042724609 -9 23 4 13
5 -9 -9.87708950042724609 33 3 4
4.99256086349487305 -9 -8 4 9 12
5 -9.02050495147705078 -8 5 3 12
5 -9 -7.99690914154052734 17 3 14
5 -9.87272548675537109 7 4 2 19
5 -9 6.03568696975708008 0 0 0
5 -9.93331813812255859 8 26 1 31
5 -9 8.93331813812255859 9 1 13
4.40912628173828125 -8 -9 26 5 12
5 -8 -9.60563564300537109 17 2 2
5 -8.99662876129150391 -8 17 3 14
5 -8 -8.80118465423583984 24 2 4
4.52419567108154297 -8 7 0 1 1
5 -8 6.83745384216308594 0 1 1
5 -8 8.90085601806640625 0 0 1
5 -7.72812700271606445 -9 24 2 4
5 -7.77945756912231445 7 0 2 2
5 -7 7.52278375625610352 0 0 1
5 -7 8.80183982849121094 0 0 1
5 -6.18536949157714844 8 0 0 1
6 -9.91126346588134766 -9 31 2 4
6 -9 -9.91126346588134766 19 1 2
6 -9.77819252014160156 -8 20 2 9
6 -9 -7.45757007598876953 24 2 5
5.07204818725585938 -9 6 0 0 0
6 -9.76571846008300781 6 0 0 1
6 -9 5.49446439743041992 1 0 3
6 -9.90929508209228516 7 1 0 2
6 -9.94368934631347656 8 11 0 9
6 -9 8.94368934631347656 2 0 3
6 -8 -9.83428955078125 3 0 0
6 -8.40031719207763672 -8 24 2 5
6 -8 -8.31749248504638672 8 1 1
6 -8.44344711303710938 6 1 0 3
6 -8 6.35393953323364258 3 0 4
6 -8 8.924102783203125 3 1 6
6 -7.02154111862182617 -9 8 1 1
6 -7.08672523498535156 7 3 1 5
6 -7 7.0561065673828125 2 0 2
6 -7 8.88363838195800781 2 0 2
5.22192144393920898 -6 8 0 0 0
6 -6 7.62371683120727539 1 0 0
6 -6 8.76349735260009766 1 0 1
6 -5.17961549758911133 8 1 0 1
5.96683168411254883 6 8 22 8 9
6 5.87251663208007812 8 20 7 7
6 6 7.96968269348144531 26 11 11
6 6 8.21243762969970703 30 9 9
5.68410110473632812 7 8 32 11 11
6 7 7.7296290397644043 31 12 12
6 7 8.70098018646240234 31 9 9
5.35020923614501953 8 8 34 12 12
6 8 7.48867177963256836 32 12 12
6 8 8.81189918518066406 32 10 10
6 8.81189918518066406 8 32 10 10
7 -9.93392848968505859 -9 27 1 1
7 -9 -9.93392848968505859 5 0 0
7 -9.88694381713867188 -8 27 1 2
6.62484931945800781 -9 -7 15 2 10
7 -9.63988208770751953 -7 18 1 6
7 -9 -6.68098354339599609 19 1 3
6.6699519157409668 -9 5 1 0 3
7 -9.61163234710693359 5 4 0 4
7 -9 4.71622657775878906 2 3 9
7 -9.88401603698730469 6 4 0 4
7 -9.93287467956542969 7 5 0 4
7 -9.95262622833251953 8 4 0 3
7 -9 8.95262622833251953 7 1 5
7 -8 -9.904998779296875 7 1 1
6.46872615814208984 -8 -8 16 1 2
7 -8.68813610076904297 -7 19 1 3
7 -8 -7.59628057479858398 8 0 1
7 -8.72422218322753906 5 6 1 8
6.52084064483642578 -8 6 3 0 4
7 -8 5.63320350646972656 4 1 7
7 -8 8.9414825439453125 6 0 3
6.02119541168212891 -7 -9 5 1 2
7 -7 -9.83656406402587891 3 1 1
7 -7.45887327194213867 -8 8 0 1
7 -7 -8.30544948577880859 5 1 2
7 -7.51595926284790039 6 7 1 6
6.0861663818359375 -7 7 2 0 2
7 -7 6.34787368774414062 4 0 3
7 -7 8.92426204681396484 3 0 1
6.81644916534423828 -6 -9 0 0 0
7 -6 -9.52699184417724609 2 0 0
7 -6 -8.85678195953369141 1 0 0
6.87791109085083008 -6 7 1 0 0
7 -6 6.90397977828979492 4 0 3
7 -6 8.89629936218261719 2 0 0
7 -5.67428874969482422 -9 1 0 0
7 -5.78449296951293945 7 3 0 1
6.11244392395019531 -5 8 0 0 0
7 -5 7.32685136795043945 0 0 0
7 -5 8.84800148010253906 0 0 0
6.5616145133972168 -4 8 5 0 0
7 -4 7.63390636444091797 5 0 0
7 -4 8.75856494903564453 6 0 0
6.82383489608764648 -3 8 10 0 1
7 -3 7.83959865570068359 11 1 1
7 -3 8.58492183685302734 12 1 1
6.95411348342895508 -2 8 14 1 1
7 -2 7.95503616333007812 15 1 2
7 -2 8.28590488433837891 16 1 2
6.99122047424316406 -1 8 15 1 2
7 -1 7.99088096618652344 17 2 3
7 -1 8.07544612884521484 16 3 4
6.96164608001708984 0 8 13 2 4
7 0 7.95847034454345703 16 4 6
7 0 8.27040958404541016 12 5 7
6.88648223876953125 1 8 8 3 4
7 1 7.87409400939941406 12 7 9
7 1 8.52566146850585938 20 13 17
6.7710566520690918 2 8 14 9 12
7 2 7.74508142471313477 17 13 15
7 2 8.68913173675537109 15 9 11
6.62133264541625977 3 8 13 8 10
7 3 7.58327388763427734 11 7 8
7 3 8.78043270111083984 4 1 2
6.43931436538696289 4 8 3 1 1
7 4 7.40191841125488281 4 1 2
7 4 8.83313083648681641 16 5 5
6.22225141525268555 5 8 20 7 7
7 5 7.20941734313964844 23 8 9
7 5 8.86595916748046875 26 7 7
6.96798181533813477 6 -9 16 15 15
7 5.83108997344970703 -9 13 11 11
7 6 -9.21388339996337891 22 18 18
7 6 -8.96536445617675781 14 14 14
7 6 7.01364898681640625 28 9 9
7 6 8.88745975494384766 29 7 7
6.76848459243774414 7 -9 16 15 15
7 7 -9.64062976837158203 23 21 21
7 7 -8.76870346069335938 15 14 14
6.81844997406005859 7 7 31 12 12
7 6.07215023040771484 7 28 9 9
7 7 6.81743192672729492 28 13 13
7 7 8.90219306945800781 29 7 7
6.53922367095947266 8 -9 19 16 16
7 8 -9.76074409484863281 26 25 25
7 8 -8.57958221435546875 19 17 17
6.59491539001464844 8 7 32 12 12
7 8 6.62764501571655273 30 15 15
7 8 8.91275501251220703 31 8 8
7 8.76074409484863281 -9 19 17 17
7 8.73744964599609375 7 31 10 10
7 8.91275501251220703 8 31 8 8
8 -9.94928455352783203 -9 13 0 0
8 -9 -9.94928455352783203 8 1 1
8 -9.92880821228027344 -8 21 0 1
8 -9.88253879547119141 -7 23 0 1
7.61390161514282227 -9 -6 15 1 8
8 -9.70462226867675781 -6 17 1 4
8 -9 -5.46876239776611328 16 0 2
7.64046525955200195 -9 4 2 3 9
8 -9.69053363800048828 4 8 1 11
8 -9 3.50279831886291504 9 1 14
8 -9.88001441955566406 5 10 1 8
8 -9.92772388458251953 6 8 0 4
8 -9.94869041442871094 7 8 0 3
8 -9.96005630493164062 8 8 0 3
8 -9 8.96005630493164062 8 0 2
8 -8 -9.93718242645263672 8 1 1
7.58936166763305664 -8 -7 12 0 1
8 -8.53927993774414062 -6 16 0 2
8 -8 -6.50547599792480469 10 0 1
8 -8.56991481781005859 4 6 1 11
7.62055492401123047 -8 5 4 1 7
8 -8 4.53900575637817383 2 1 7
8 -8 8.95403480529785156 6 0 1
8 -7 -9.91940212249755859 2 0 0
7.32047653198242188 -7 -8 9 2 3
8 -7.37109804153442383 -7 10 0 1
8 -7 -7.25245761871337891 8 1 2
8 -7.42160367965698242 5 4 0 4
7.36230278015136719 -7 6 4 0 3
8 -7 5.29083061218261719 1 0 1
8 -7 8.94652557373046875 4 0 0
8 -6 -9.89298915863037109 0 0 0
7.83191251754760742 -6 -8 2 1 1
8 -6 -7.7987675666809082 3 1 1
7.87100744247436523 -6 6 4 0 3
8 -6 5.84376764297485352 0 0 0
8 -6 8.93756389617919922 2 0 0
7.28261995315551758 -5 -9 7 4 4
8 -5 -9.85411167144775391 4 1 1
8 -5.51385641098022461 -8 3 1 1
8 -5 -8.19558334350585938 5 2 2
8 -5.62965297698974609 6 4 0 2
7.33022975921630859 -5 7 0 0 0
8 -5 6.24303483963012695 1 0 0
8 -5 8.92764186859130859 2 0 0
7.55570363998413086 -4 -9 13 8 9
8 -4 -9.80026435852050781 8 4 4
8 -4 -8.46417903900146484 10 6 7
7.60029315948486328 -4 7 5 0 0
8 -4 6.51465320587158203 6 0 1
8 -4 8.91792678833007812 8 0 0
7.71106958389282227 -3 -9 19 14 15
8 -3 -9.73785877227783203 13 9 9
8 -3 -8.62991237640380859 15 12 12
7.75317955017089844 -3 7 11 1 1
8 -3 6.68180990219116211 13 1 1
8 -3 8.91015815734863281 14 1 2
7.78290843963623047 -2 -9 21 19 19
8 -2 -9.69053840637207031 16 14 14
8 -2 -8.70894718170166016 13 12 13
7.82181835174560547 -2 7 15 1 2
8 -2 6.75943136215209961 15 2 2
8 -2 8.90595149993896484 16 3 4
7.79387617111206055 -1 -9 15 14 14
8 -1 -9.68631458282470703 14 14 14
8 -1 -8.71536064147949219 10 8 8
7.82930469512939453 -1 7 17 2 3
8 -1 6.76224470138549805 17 3 4
8 -1 8.90583896636962891 15 7 9
7.76078557968139648 0 -9 7 7 7
8 0 -9.71885871887207031 14 11 11
8 0 -8.66533946990966797 11 6 6
7.79243803024291992 0 7 16 4 6
8 0 6.70635223388671875 19 7 9
8 0 8.9087066650390625 25 15 20
7.69288778305053711 1 -9 8 4 4
8 1 -9.76483726501464844 0 0 0
8 1 -8.56951332092285156 8 3 3
7.72367334365844727 1 7 12 7 9
8 1 6.61001396179199219 19 13 15
8 1 8.91366672515869141 17 10 13
7.59571361541748047 2 -9 10 4 4
8 2 -9.80624294281005859 18 8 8
8 2 -8.441619873046875 17 8 8
7.62677669525146484 2 7 17 13 15
8 2 6.48269510269165039 9 8 9
8 2 8.91927719116210938 4 1 1
7.47293329238891602 3 -9 16 8 8
8 3 -9.83798408508300781 21 10 10
8 3 -8.29572963714599609 15 9 9
7.5057525634765625 3 7 11 7 8
8 3 6.33716535568237305 5 4 4
8 3 8.92455863952636719 15 4 5
7.32663583755493164 4 -9 13 9 9
8 4 -9.86097145080566406 19 11 11
8 4 -8.14412784576416016 11 8 8
7.3639988899230957 4 7 4 1 2
8 4 6.18760538101196289 6 3 4
8 4 8.92925262451171875 21 5 5
7.15751028060913086 5 -9 13 11 11
8 5 -9.87745761871337891 19 14 14
7.99673080444335938 5 -8 9 9 9
8 4.97144985198974609 -8 8 7 7
8 5 -7.99549388885498047 11 10 10
7.2006077766418457 5 7 23 8 9
8 5 6.04122257232666016 20 9 9
8 5 8.93321800231933594 25 5 5
8 6 -9.88942337036132812 20 17 17
7.88203573226928711 6 -8 13 12 12
8 6 -7.8490452766418457 13 13 13
7.92054319381713867 6 6 24 12 12
8 5.29959535598754883 6 20 9 9
8 6 5.89722919464111328 16 10 10
7.01397323608398438 6 7 28 9 9
8 6 8.93648147583007812 27 5 6
8 7 -9.89836215972900391 24 20 20
7.75678920745849609 7 -8 15 14 14
8 7 -7.71321344375610352 14 14 14
7.79923534393310547 7 6 28 13 13
8 7 5.76059341430664062 17 12 12
8 7 8.93916797637939453 29 6 6
8 8 -9.90538215637207031 30 22 22
7.6167144775390625 8 -8 18 16 16
8 8 -7.58482885360717773 17 17 17
7.66262960433959961 8 6 30 15 15
8 8 5.63032960891723633 13 10 10
8 8 8.9414520263671875 32 7 7
8 8.90538215637207031 -9 21 19 19
8 8.73149013519287109 -8 17 17 17
8 8.70679092407226562 6 26 13 13
8 8.90236186981201172 7 32 9 9
8 8.9414520263671875 8 32 7 7
8.94928455352783203 -9 -9 8 0 0
8.92880821228027344 -9 -8 10 0 0
8.88253879547119141 -9 -7 15 0 1
8.70462226867675781 -9 -6 16 0 2
8.69053363800048828 -9 4 6 1 11
8.88001441955566406 -9 5 9 1 9
8.92772388458251953 -9 6 9 1 5
8.94869041442871094 -9 7 8 0 3
8.96005630493164062 -9 8 8 0 2
8.93718242645263672 -8 -9 10 1 2
8.89722347259521484 -8 -8 10 1 1
8.73202896118164062 -8 -7 10 0 1
8.71662425994873047 -8 5 4 0 4
8.89457035064697266 -8 6 7 0 4
8.93611717224121094 -8 7 7 0 2
8.95403480529785156 -8 8 6 0 1
8.91940212249755859 -7 -9 3 1 1
8.82678031921386719 -7 -8 8 1 2
8.81801223754882812 -7 6 3 0 2
8.91740989685058594 -7 7 4 0 1
8.94652557373046875 -7 8 4 0 0
8.89298915863037109 -6 -9 0 0 0
8.5738677978515625 -6 -8 3 1 1
8.50921344757080078 -6 6 4 0 2
8.88906097412109375 -6 7 3 0 0
8.93756389617919922 -6 8 2 0 0
8.85411167144775391 -5 -9 5 2 2
8.84601688385009766 -5 7 1 0 0
8.92764186859130859 -5 8 2 0 0
8.80026435852050781 -4 -9 10 6 7
8.78366470336914062 -4 7 8 0 0
8.91792678833007812 -4 8 8 0 0
8.73785877227783203 -3 -9 15 12 12
8.70736312866210938 -3 7 13 1 1
8.91015815734863281 -3 8 14 1 2
8.69053840637207031 -2 -9 13 12 13
8.64835643768310547 -2 7 18 2 3
8.90595149993896484 -2 8 16 3 4
8.68631458282470703 -1 -9 10 8 8
8.64603424072265625 -1 7 20 5 7
8.90583896636962891 -1 8 15 7 9
8.71885871887207031 0 -9 11 6 6
8.69140720367431641 0 7 20 11 14
8.9087066650390625 0 8 25 15 20
8.76483726501464844 1 -9 8 3 3
8.74604511260986328 1 7 19 14 16
8.91366672515869141 1 8 17 10 13
8.80624294281005859 2 -9 17 8 8
8.79416275024414062 2 7 9 6 7
8.91927719116210938 2 8 4 1 1
8.83798408508300781 3 -9 15 9 9
8.82940387725830078 3 7 3 1 1
8.92455863952636719 3 8 15 4 5
8.86097145080566406 4 -9 11 8 8
8.85427761077880859 4 7 18 6 6
8.92925262451171875 4 8 21 5 5
8.87745761871337891 5 -9 12 10 10
8.02973747253417969 5 -8 11 10 10
8.87211036682128906 5 7 24 7 7
8.93321800231933594 5 8 25 5 5
8.88942337036132812 6 -9 13 13 13
8.50352191925048828 6 -8 13 13 13
8.40668392181396484 6 6 25 10 10
8.88505935668945312 6 7 27 7 7
8.93648147583007812 6 8 27 5 6
8.89836215972900391 7 -9 16 15 15
8.65564632415771484 7 -8 14 14 14
8.61214828491210938 7 6 27 11 12
8.89473438262939453 7 7 29 8 8
8.93916797637939453 7 8 29 6 6
8.90538215637207031 8 -9 21 19 19
8.73149013519287109 8 -8 17 17 17
8.70679092407226562 8 6 26 13 13
8.90236186981201172 8 7 32 9 9
8.9414520263671875 8 8 32 7 7
3 2 1 0
3 1 4 3
3 0 1 3
3 4 6 5
3 3 4 5
3 6 8 7
3 5 6 7
3 8 9 7
3 12 11 10
3 11 14 13
3 10 11 13
3 14 16 15
3 13 14 15
3 16 18 17
3 15 16 17
3 18 20 19
3 17 18 19
3 20 21 19
3 23 2 0
3 22 23 0
3 0 3 22
3 3 24 22
3 3 5 24
3 5 25 24
3 26 27 25
3 26 25 7
3 7 25 5
3 7 9 26
3 12 10 28
3 30 28 10
3 30 10 29
3 29 10 13
3 13 15 29
3 15 31 29
3 15 17 31
3 17 32 31
3 17 19 32
3 19 33 32
3 21 34 33
3 19 21 33
3 36 23 22
3 35 36 22
3 22 24 35
3 24 37 35
3 38 39 37
3 38 37 25
3 25 37 24
3 25 27 38
3 30 29 40
3 42 40 29
3 42 29 41
3 41 29 31
3 31 32 41
3 32 43 41
3 32 33 43
3 33 44 43
3 34 45 44
3 33 34 44
3 47 36 35
3 46 47 35
3 35 37 46
3 37 48 46
3 39 49 48
3 37 39 48
3 51 42 41
3 50 51 41
3 41 43 50
3 43 52 50
3 43 44 52
3 44 53 52
3 45 54 53
3 44 45 53
3 56 47 46
3 55 56 46
3 57 58 55
3 57 55 48
3 48 55 46
3 48 49 57
3 51 50 59
3 61 59 50
3 61 50 60
3 60 50 52
3 52 53 60
3 53 62 60
3 54 63 62
3 53 54 62
3 65 56 55
3 64 65 55
3 58 66 64
3 55 58 64
3 68 61 60
3 67 68 60
3 60 62 67
3 62 69 67
3 63 70 69
3 62 63 69
3 72 65 64
3 71 72 64
3 66 73 71
3 64 66 71
3 75 68 67
3 74 75 67
3 67 69 74
3 69 76 74
3 70 77 76
3 69 70 76
3 79 72 71
3 78 79 71
3 73 80 78
3 71 73 78
3 82 75 74
3 81 82 74
3 74 76 81
3 76 83 81
3 77 84 83
3 76 77 83
3 86 79 78
3 85 86 78
3 80 87 85
3 78 80 85
3 89 82 81
3 88 89 81
3 81 83 88
3 83 90 88
3 84 91 90
3 83 84 90
3 93 86 85
3 92 93 85
3 87 94 92
3 85 87 92
3 96 89 88
3 95 96 88
3 88 90 95
3 90 97 95
3 91 98 97
3 90 91 97
3 100 93 92
3 99 100 92
3 94 101 99
3 92 94 99
3 103 96 95
3 102 103 95
3 95 97 102
3 97 104 102
3 98 105 104
3 97 98 104
3 107 100 99
3 106 107 99
3 101 108 106
3 99 101 106
3 110 103 102
3 109 110 102
3 102 104 109
3 104 111 109
3 105 112 111
3 104 105 111
3 114 107 106
3 113 114 106
3 108 115 113
3 106 108 113
3 117 110 109
3 116 117 109
3 109 111 116
3 111 118 116
3 112 119 118
3 111 112 118
3 121 114 113
3 120 121 113
3 115 122 120
3 113 115 120
3 124 117 116
3 123 124 116
3 116 118 123
3 118 125 123
3 119 126 125
3 118 119 125
3 128 121 120
3 127 128 120
3 122 130 129
3 122 129 120
3 120 129 127
3 130 131 129
3 133 124 123
3 132 133 123
3 123 125 132
3 125 134 132
3 126 135 134
3 125 126 134
3 137 128 127
3 136 137 127
3 127 129 136
3 129 138 136
3 131 139 138
3 129 131 138
3 142 141 140
3 141 133 132
3 141 132 140
3 140 132 143
3 132 134 143
3 134 144 143
3 135 145 144
3 134 135 144
3 147 137 136
3 146 147 136
3 136 138 146
3 138 148 146
3 139 149 148
3 138 139 148
3 151 142 140
3 150 151 140
3 140 143 150
3 143 152 150
3 143 144 152
3 144 153 152
3 145 154 153
3 144 145 153
3 156 147 146
3 155 156 146
3 146 148 155
3 148 157 155
3 149 158 157
3 148 149 157
3 160 151 150
3 159 160 150
3 150 152 159
3 152 161 159
3 152 153 161
3 153 162 161
3 154 163 162
3 153 154 162
3 156 155 164
3 155 157 165
3 164 155 165
3 157 158 165
3 160 159 166
3 159 161 167
3 166 159 167
3 161 162 168
3 167 161 168
3 162 163 168
3 2 170 169
3 1 2 169
3 169 171 1
3 1 171 4
3 173 172 6
3 173 6 171
3 171 6 4
3 8 6 172
3 174 8 172
3 8 174 9
3 11 12 175
3 14 11 175
3 176 14 175
3 176 178 177
3 176 177 14
3 14 177 16
3 177 179 16
3 16 179 18
3 179 180 18
3 18 180 20
3 20 180 181
3 21 20 181
3 170 2 182
3 182 2 23
3 184 172 173
3 183 172 184
3 27 26 174
3 27 174 183
3 183 174 172
3 174 26 9
3 175 12 28
3 28 30 185
3 28 185 175
3 175 185 176
3 178 185 186
3 176 185 178
3 181 187 21
3 187 34 21
3 182 23 188
3 188 23 36
3 191 189 190
3 183 39 38
3 184 39 183
3 184 189 39
3 184 190 189
3 183 38 27
3 185 30 40
3 40 42 192
3 185 40 192
3 185 192 193
3 185 193 186
3 193 192 194
3 187 195 34
3 195 45 34
3 188 36 196
3 196 36 47
3 198 189 191
3 197 189 198
3 189 197 49
3 39 189 49
3 199 192 42
3 51 199 42
3 194 199 200
3 192 199 194
3 195 201 45
3 201 54 45
3 202 203 196
3 202 196 56
3 56 196 47
3 197 58 57
3 198 58 197
3 198 202 58
3 198 203 202
3 197 57 49
3 199 51 59
3 59 61 204
3 199 59 204
3 199 204 205
3 199 205 200
3 205 204 206
3 201 207 54
3 207 63 54
3 208 202 56
3 65 208 56
3 202 208 66
3 58 202 66
3 209 204 61
3 68 209 61
3 206 209 210
3 204 209 206
3 207 211 63
3 211 70 63
3 212 208 65
3 72 212 65
3 208 212 73
3 66 208 73
3 213 209 68
3 75 213 68
3 210 213 214
3 209 213 210
3 211 215 70
3 215 77 70
3 216 212 72
3 79 216 72
3 212 216 80
3 73 212 80
3 217 213 75
3 82 217 75
3 214 217 218
3 213 217 214
3 215 219 77
3 219 84 77
3 220 216 79
3 86 220 79
3 216 220 87
3 80 216 87
3 221 217 82
3 89 221 82
3 218 221 222
3 217 221 218
3 219 223 84
3 223 91 84
3 224 220 86
3 93 224 86
3 220 224 94
3 87 220 94
3 225 221 89
3 96 225 89
3 222 225 226
3 221 225 222
3 223 227 91
3 227 98 91
3 228 224 93
3 100 228 93
3 224 228 101
3 94 224 101
3 229 225 96
3 103 229 96
3 226 229 230
3 225 229 226
3 227 231 98
3 231 105 98
3 232 228 100
3 107 232 100
3 228 232 108
3 101 228 108
3 233 229 103
3 110 233 103
3 230 233 234
3 229 233 230
3 231 235 105
3 235 112 105
3 236 232 107
3 114 236 107
3 232 236 115
3 108 232 115
3 237 233 110
3 117 237 110
3 234 237 238
3 233 237 234
3 235 239 112
3 239 119 112
3 240 236 114
3 121 240 114
3 236 240 122
3 115 236 122
3 241 237 117
3 124 241 117
3 238 241 242
3 237 241 238
3 239 243 119
3 243 126 119
3 244 240 121
3 128 244 121
3 130 122 240
3 130 240 245
3 245 240 244
3 130 245 131
3 246 241 124
3 133 246 124
3 242 246 247
3 241 246 242
3 243 248 126
3 248 135 126
3 249 244 128
3 137 249 128
3 244 249 245
3 245 249 250
3 245 250 139
3 131 245 139
3 141 142 251
3 133 141 251
3 133 251 246
3 246 251 252
3 247 252 253
3 246 252 247
3 248 254 135
3 254 145 135
3 255 249 137
3 147 255 137
3 249 255 250
3 250 255 256
3 250 256 149
3 139 250 149
3 257 251 142
3 151 257 142
3 251 257 252
3 252 257 258
3 253 258 259
3 252 258 253
3 254 260 145
3 260 154 145
3 261 255 147
3 156 261 147
3 255 261 256
3 256 261 262
3 256 262 158
3 149 256 158
3 263 257 151
3 160 263 151
3 257 263 258
3 258 263 264
3 259 264 265
3 258 264 259
3 260 266 154
3 266 163 154
3 261 156 164
3 262 261 164
3 165 262 164
3 262 165 158
3 263 160 166
3 264 263 166
3 167 264 166
3 265 264 167
3 265 167 267
3 267 167 168
3 267 168 163
3 266 267 163
3 170 269 268
3 169 170 268
3 271 270 171
3 271 171 268
3 268 171 169
3 171 270 173
3 177 178 272
3 272 274 273
3 272 273 177
3 177 273 179
3 273 275 179
3 179 275 180
3 180 275 276
3 181 180 276
3 269 170 277
3 277 170 182
3 279 270 271
3 278 270 279
3 270 278 184
3 173 270 184
3 280 272 178
3 186 280 178
3 274 280 281
3 272 280 274
3 276 282 181
3 282 187 181
3 283 284 277
3 283 277 188
3 188 277 182
3 278 191 190
3 279 191 278
3 279 283 191
3 279 284 283
3 278 190 184
3 280 186 193
3 193 194 285
3 280 193 285
3 280 285 286
3 280 286 281
3 286 285 287
3 282 288 187
3 288 195 187
3 289 283 188
3 196 289 188
3 283 289 198
3 191 283 198
3 290 285 194
3 200 290 194
3 287 290 291
3 285 290 287
3 288 292 195
3 292 201 195
3 289 196 203
3 289 203 198
3 290 200 205
3 205 291 290
3 205 206 291
3 206 293 291
3 292 294 201
3 294 207 201
3 293 206 295
3 295 206 210
3 294 296 207
3 296 211 207
3 295 210 297
3 297 210 214
3 296 298 211
3 298 215 211
3 297 214 299
3 299 214 218
3 298 300 215
3 300 219 215
3 299 218 301
3 301 218 222
3 300 302 219
3 302 223 219
3 301 222 303
3 303 222 226
3 302 304 223
3 304 227 223
3 303 226 305
3 305 226 230
3 304 306 227
3 306 231 227
3 305 230 307
3 307 230 234
3 306 308 231
3 308 235 231
3 307 234 309
3 309 234 238
3 308 310 235
3 310 239 235
3 311 312 309
3 311 309 242
3 242 309 238
3 312 311 243
3 312 243 310
3 310 243 239
3 313 311 242
3 247 313 242
3 311 313 248
3 243 311 248
3 314 313 247
3 253 314 247
3 313 314 254
3 248 313 254
3 315 314 253
3 259 315 253
3 314 315 260
3 254 314 260
3 316 315 259
3 265 316 259
3 315 316 266
3 260 315 266
3 316 265 267
3 316 267 266
3 269 318 317
3 268 269 317
3 268 317 319
3 271 268 319
3 273 274 320
3 320 322 321
3 320 321 273
3 273 321 275
3 275 321 323
3 276 275 323
3 324 325 318
3 324 318 277
3 277 318 269
3 325 324 279
3 325 279 319
3 319 279 271
3 326 320 274
3 281 326 274
3 322 326 327
3 320 326 322
3 323 328 276
3 328 282 276
3 324 277 284
3 324 284 279
3 326 281 286
3 286 327 326
3 286 287 327
3 287 329 327
3 328 330 282
3 330 288 282
3 329 287 331
3 331 287 291
3 330 332 288
3 332 292 288
3 333 334 331
3 333 331 293
3 293 331 291
3 334 333 294
3 334 294 332
3 332 294 292
3 335 333 293
3 295 335 293
3 333 335 296
3 294 333 296
3 336 335 295
3 297 336 295
3 335 336 298
3 296 335 298
3 337 336 297
3 299 337 297
3 336 337 300
3 298 336 300
3 338 337 299
3 301 338 299
3 337 338 302
3 300 337 302
3 339 338 301
3 303 339 301
3 338 339 304
3 302 338 304
3 340 339 303
3 305 340 303
3 339 340 306
3 304 339 306
3 341 340 305
3 307 341 305
3 340 341 308
3 306 340 308
3 342 341 307
3 309 342 307
3 341 342 310
3 308 341 310
3 342 309 312
3 342 312 310
3 317 318 343
3 317 343 319
3 322 345 344
3 321 322 344
3 321 344 346
3 323 321 346
3 343 318 325
3 343 325 319
3 345 322 347
3 347 322 327
3 346 348 323
3 348 328 323
3 349 350 347
3 349 347 329
3 329 347 327
3 350 349 330
3 350 330 348
3 348 330 328
3 351 349 329
3 331 351 329
3 349 351 332
3 330 349 332
3 351 331 334
3 351 334 332
3 345 353 352
3 344 345 352
3 344 352 354
3 346 344 354
3 353 345 355
3 355 345 347
3 354 356 346
3 356 348 346
3 355 347 350
3 357 355 350
3 357 350 348
3 356 357 348
3 353 359 358
3 352 353 358
3 352 358 360
3 354 352 360
3 361 362 359
3 361 359 355
3 355 359 353
3 362 361 356
3 362 356 360
3 360 356 354
3 361 355 357
3 361 357 356
3 359 364 363
3 358 359 363
3 358 363 365
3 360 358 365
3 364 359 362
3 366 364 362
3 366 362 360
3 365 366 360
3 364 368 367
3 363 364 367
3 363 367 369
3 365 363 369
3 366 370 371
3 366 371 364
3 364 371 368
3 370 366 365
3 370 365 372
3 372 365 369
3 371 370 373
3 370 372 373
3 368 375 374
3 367 368 374
3 367 374 376
3 369 367 376
3 375 368 377
3 377 368 371
3 376 378 369
3 378 372 369
3 377 371 373
3 379 377 373
3 379 373 372
3 378 379 372
3 375 381 380
3 374 375 380
3 374 380 382
3 376 374 382
3 381 375 383
3 383 375 377
3 382 384 376
3 384 378 376
3 383 377 379
3 385 383 379
3 385 379 378
3 384 385 378
3 388 387 386
3 387 389 386
3 392 391 390
3 381 390 391
3 381 391 380
3 380 391 393
3 380 393 394
3 382 380 394
3 388 386 395
3 386 389 395
3 392 390 396
3 390 397 396
3 390 381 397
3 381 383 397
3 394 398 382
3 398 384 382
3 397 383 385
3 399 397 385
3 399 385 384
3 398 399 384
3 388 401 400
3 387 388 400
3 387 400 402
3 389 387 402
3 392 404 403
3 391 392 403
3 403 405 391
3 391 405 393
3 393 405 406
3 394 393 406
3 401 388 395
3 407 401 395
3 407 395 389
3 402 407 389
3 404 392 396
3 408 404 396
3 396 409 408
3 397 409 396
3 406 410 394
3 410 398 394
3 409 397 399
3 411 409 399
3 411 399 398
3 410 411 398
3 401 413 412
3 400 401 412
3 400 412 414
3 402 400 414
3 404 416 415
3 403 404 415
3 415 417 403
3 403 417 405
3 405 417 418
3 406 405 418
3 413 401 407
3 419 413 407
3 419 407 402
3 414 419 402
3 416 404 408
3 420 416 408
3 408 421 420
3 409 421 408
3 418 422 406
3 422 410 406
3 411 423 424
3 411 424 409
3 409 424 421
3 423 411 410
3 423 410 425
3 425 410 422
3 424 423 426
3 423 425 426
3 413 428 427
3 412 413 427
3 429 414 412
3 429 412 430
3 430 412 427
3 430 431 429
3 416 433 432
3 415 416 432
3 432 434 415
3 415 434 417
3 417 434 435
3 418 417 435
3 419 436 437
3 419 437 413
3 413 437 428
3 436 438 439
3 419 438 436
3 419 429 438
3 419 414 429
3 429 431 438
3 420 440 441
3 420 441 416
3 416 441 433
3 420 421 440
3 435 442 418
3 442 422 418
3 437 436 443
3 436 439 443
3 441 440 444
3 440 445 444
3 440 421 445
3 421 424 445
3 442 446 422
3 446 425 422
3 445 424 426
3 447 445 426
3 447 426 425
3 446 447 425
3 428 449 448
3 427 428 448
3 448 450 427
3 427 450 430
3 430 450 451
3 431 430 451
3 454 453 452
3 433 452 453
3 433 453 432
3 432 453 455
3 455 456 432
3 432 456 434
3 434 456 457
3 435 434 457
3 449 428 458
3 458 428 437
3 439 459 460
3 438 459 439
3 459 438 431
3 451 459 431
3 454 452 461
3 452 462 461
3 452 433 462
3 433 441 462
3 457 463 435
3 463 442 435
3 458 437 443
3 464 458 443
3 464 443 439
3 460 464 439
3 462 441 444
3 465 462 444
3 444 466 465
3 445 466 444
3 463 467 442
3 467 446 442
3 447 468 469
3 447 469 445
3 445 469 466
3 468 447 446
3 468 446 470
3 470 446 467
3 469 468 471
3 468 470 471
3 474 473 472
3 473 475 472
3 477 474 472
3 476 477 472
3 475 478 476
3 472 475 476
3 480 477 476
3 479 480 476
3 478 481 479
3 476 478 479
3 480 479 482
3 479 481 482
3 449 484 483
3 448 449 483
3 483 485 448
3 448 485 450
3 486 451 450
3 486 450 487
3 487 450 485
3 487 488 486
3 491 490 489
3 454 489 490
3 454 490 453
3 453 490 492
3 492 493 453
3 453 493 455
3 493 494 455
3 455 494 456
3 456 494 495
3 457 456 495
3 484 449 496
3 496 449 458
3 459 497 460
3 497 498 499
3 459 498 497
3 459 486 498
3 459 451 486
3 486 488 498
3 491 489 500
3 502 461 501
3 500 461 502
3 500 454 461
3 500 489 454
3 461 462 501
3 495 503 457
3 503 463 457
3 464 504 505
3 464 505 458
3 458 505 496
3 504 506 507
3 464 506 504
3 464 497 506
3 464 460 497
3 497 499 506
3 502 501 508
3 510 465 509
3 508 465 510
3 508 462 465
3 508 501 462
3 465 466 509
3 503 511 463
3 511 467 463
3 513 505 504
3 512 513 504
3 507 514 512
3 504 507 512
3 516 510 509
3 515 516 509
3 509 469 515
3 466 469 509
3 511 517 467
3 517 470 467
3 513 512 518
3 512 514 518
3 516 515 519
3 521 471 520
3 519 471 521
3 519 469 471
3 519 515 469
3 520 471 470
3 520 470 522
3 522 470 517
3 524 521 520
3 523 524 520
3 522 525 523
3 520 522 523
3 527 524 523
3 526 527 523
3 525 528 526
3 523 525 526
3 530 527 526
3 529 530 526
3 528 531 529
3 526 528 529
3 533 530 529
3 532 533 529
3 531 534 532
3 529 531 532
3 536 533 532
3 535 536 532
3 534 537 535
3 532 534 535
3 539 536 535
3 538 539 535
3 537 540 538
3 535 537 538
3 542 539 538
3 541 542 538
3 540 543 541
3 538 540 541
3 545 542 541
3 544 545 541
3 543 546 544
3 541 543 544
3 548 545 544
3 547 548 544
3 546 549 547
3 544 546 547
3 551 548 547
3 550 551 547
3 549 552 550
3 547 549 550
3 555 554 553
3 554 556 553
3 550 473 474
3 550 474 551
3 551 474 557
3 473 550 552
3 473 552 475
3 475 552 558
3 560 555 553
3 559 560 553
3 556 561 559
3 553 556 559
3 564 563 562
3 563 477 562
3 563 557 477
3 557 474 477
3 558 565 475
3 565 478 475
3 567 560 559
3 566 567 559
3 561 568 566
3 559 561 566
3 570 564 562
3 569 570 562
3 562 480 569
3 477 480 562
3 565 571 478
3 571 481 478
3 567 566 572
3 566 568 572
3 570 569 573
3 569 480 482
3 569 482 573
3 573 482 574
3 574 482 481
3 571 574 481
3 484 576 575
3 483 484 575
3 575 577 483
3 483 577 485
3 577 578 485
3 485 578 487
3 579 488 487
3 579 487 580
3 580 487 578
3 580 581 579
3 584 583 582
3 491 582 583
3 491 583 490
3 490 583 585
3 585 586 490
3 490 586 492
3 586 587 492
3 492 587 493
3 587 588 493
3 493 588 494
3 494 588 589
3 495 494 589
3 576 484 590
3 590 484 496
3 498 591 499
3 591 592 593
3 498 592 591
3 498 579 592
3 498 488 579
3 579 581 592
3 584 582 594
3 596 500 595
3 594 500 596
3 594 491 500
3 594 582 491
3 500 502 595
3 589 597 495
3 597 503 495
3 590 496 598
3 598 496 505
3 506 599 507
3 599 600 601
3 506 600 599
3 506 591 600
3 506 499 591
3 591 593 600
3 596 595 602
3 604 508 603
3 602 508 604
3 602 502 508
3 602 595 502
3 508 510 603
3 597 605 503
3 605 511 503
3 598 505 606
3 606 505 513
3 607 507 599
3 514 507 607
3 601 608 607
3 599 601 607
3 610 604 603
3 609 610 603
3 603 516 609
3 510 516 603
3 605 611 511
3 611 517 511
3 518 612 613
3 518 613 513
3 513 613 606
3 612 614 615
3 518 614 612
3 518 607 614
3 518 514 607
3 607 608 614
3 610 609 616
3 618 519 617
3 616 519 618
3 616 516 519
3 616 609 516
3 519 521 617
3 611 619 517
3 619 522 517
3 621 613 612
3 620 621 612
3 615 622 620
3 612 615 620
3 624 618 617
3 623 624 617
3 617 524 623
3 521 524 617
3 619 625 522
3 625 525 522
3 627 621 620
3 626 627 620
3 622 628 626
3 620 622 626
3 630 624 623
3 629 630 623
3 623 527 629
3 524 527 623
3 625 631 525
3 631 528 525
3 633 627 626
3 632 633 626
3 628 634 632
3 626 628 632
3 636 630 629
3 635 636 629
3 629 530 635
3 527 530 629
3 631 637 528
3 637 531 528
3 639 633 632
3 638 639 632
3 634 640 638
3 632 634 638
3 642 636 635
3 641 642 635
3 635 533 641
3 530 533 635
3 637 643 531
3 643 534 531
3 645 639 638
3 644 645 638
3 640 646 644
3 638 640 644
3 648 642 641
3 647 648 641
3 641 536 647
3 533 536 641
3 643 649 534
3 649 537 534
3 651 645 644
3 650 651 644
3 646 652 650
3 644 646 650
3 654 648 647
3 653 654 647
3 647 539 653
3 536 539 647
3 649 655 537
3 655 540 537
3 657 651 650
3 656 657 650
3 652 658 656
3 650 652 656
3 660 654 653
3 659 660 653
3 653 542 659
3 539 542 653
3 655 661 540
3 661 543 540
3 663 657 656
3 662 663 656
3 658 664 662
3 656 658 662
3 666 660 659
3 665 666 659
3 659 545 665
3 542 545 659
3 661 667 543
3 667 546 543
3 669 663 662
3 668 669 662
3 664 670 668
3 662 664 668
3 672 666 665
3 671 672 665
3 665 548 671
3 545 548 665
3 667 673 546
3 673 549 546
3 675 669 668
3 674 675 668
3 670 677 676
3 670 676 668
3 668 676 674
3 677 678 676
3 680 672 671
3 679 680 671
3 671 551 679
3 548 551 671
3 673 681 549
3 681 552 549
3 674 554 555
3 674 555 675
3 675 555 682
3 554 683 556
3 554 674 683
3 674 676 683
3 678 684 683
3 676 678 683
3 687 686 685
3 686 680 679
3 686 679 685
3 685 679 688
3 679 557 688
3 551 557 679
3 681 689 552
3 689 558 552
3 682 555 690
3 690 555 560
3 691 556 683
3 561 556 691
3 684 692 691
3 683 684 691
3 694 687 685
3 693 694 685
3 564 688 563
3 564 693 688
3 693 685 688
3 688 557 563
3 689 695 558
3 695 565 558
3 690 560 696
3 696 560 567
3 697 561 691
3 568 561 697
3 692 698 697
3 691 692 697
3 700 694 693
3 699 700 693
3 693 570 699
3 564 570 693
3 695 701 565
3 701 571 565
3 696 567 572
3 702 696 572
3 568 697 703
3 568 703 572
3 572 703 702
3 697 698 703
3 700 699 704
3 699 570 573
3 699 573 704
3 704 573 705
3 705 573 706
3 573 574 706
3 706 574 571
3 701 706 571
3 575 576 707
3 577 575 707
3 708 577 707
3 578 577 708
3 709 578 708
3 580 578 709
3 710 580 709
3 580 710 581
3 583 584 711
3 585 583 711
3 712 585 711
3 586 585 712
3 713 586 712
3 587 586 713
3 714 587 713
3 588 587 714
3 715 588 714
3 588 715 589
3 716 707 576
3 590 716 576
3 707 716 708
3 708 716 717
3 708 717 709
3 709 717 718
3 593 592 710
3 593 710 718
3 718 710 709
3 710 592 581
3 711 584 594
3 594 596 719
3 594 719 711
3 711 719 712
3 712 719 713
3 713 719 720
3 713 720 714
3 714 720 721
3 714 721 715
3 715 721 722
3 715 722 597
3 589 715 597
3 723 716 590
3 598 723 590
3 716 723 717
3 717 723 724
3 601 600 718
3 601 718 724
3 724 718 717
3 718 600 593
3 719 596 602
3 602 604 725
3 602 725 719
3 719 725 720
3 720 725 721
3 721 725 726
3 721 726 722
3 722 726 727
3 722 727 605
3 597 722 605
3 728 723 598
3 606 728 598
3 723 728 724
3 724 728 729
3 724 729 608
3 601 724 608
3 730 725 604
3 610 730 604
3 725 730 726
3 726 730 731
3 726 731 727
3 727 731 732
3 727 732 611
3 605 727 611
3 733 728 606
3 613 733 606
3 615 614 729
3 615 729 733
3 733 729 728
3 729 614 608
3 730 610 616
3 616 618 734
3 616 734 730
3 730 734 731
3 731 734 732
3 732 734 735
3 732 735 619
3 611 732 619
3 736 733 613
3 621 736 613
3 733 736 622
3 615 733 622
3 737 734 618
3 624 737 618
3 734 737 735
3 735 737 738
3 735 738 625
3 619 735 625
3 739 736 621
3 627 739 621
3 736 739 628
3 622 736 628
3 740 737 624
3 630 740 624
3 737 740 738
3 738 740 741
3 738 741 631
3 625 738 631
3 742 739 627
3 633 742 627
3 739 742 634
3 628 739 634
3 743 740 630
3 636 743 630
3 740 743 741
3 741 743 744
3 741 744 637
3 631 741 637
3 745 742 633
3 639 745 633
3 742 745 640
3 634 742 640
3 746 743 636
3 642 746 636
3 743 746 744
3 744 746 747
3 744 747 643
3 637 744 643
3 748 745 639
3 645 748 639
3 745 748 646
3 640 745 646
3 749 746 642
3 648 749 642
3 746 749 747
3 747 749 750
3 747 750 649
3 643 747 649
3 751 748 645
3 651 751 645
3 748 751 652
3 646 748 652
3 752 749 648
3 654 752 648
3 749 752 750
3 750 752 753
3 750 753 655
3 649 750 655
3 754 751 651
3 657 754 651
3 751 754 658
3 652 751 658
3 755 752 654
3 660 755 654
3 752 755 753
3 753 755 756
3 753 756 661
3 655 753 661
3 757 754 657
3 663 757 657
3 754 757 664
3 658 754 664
3 758 755 660
3 666 758 660
3 755 758 756
3 756 758 759
3 756 759 667
3 661 756 667
3 760 757 663
3 669 760 663
3 757 760 670
3 664 757 670
3 761 758 666
3 672 761 666
3 758 761 759
3 759 761 762
3 759 762 673
3 667 759 673
3 763 760 669
3 675 763 669
3 677 670 760
3 677 760 764
3 764 760 763
3 677 764 678
3 765 761 672
3 680 765 672
3 761 765 762
3 762 765 766
3 762 766 681
3 673 762 681
3 767 763 675
3 682 767 675
3 763 767 764
3 764 767 768
3 764 768 684
3 678 764 684
3 686 687 769
3 680 686 769
3 680 769 765
3 765 769 770
3 765 770 766
3 766 770 771
3 766 771 689
3 681 766 689
3 772 767 682
3 690 772 682
3 767 772 768
3 768 772 773
3 768 773 692
3 684 768 692
3 774 769 687
3 694 774 687
3 769 774 770
3 770 774 775
3 770 775 771
3 771 775 776
3 771 776 695
3 689 771 695
3 777 772 690
3 696 777 690
3 772 777 773
3 773 777 778
3 773 778 698
3 692 773 698
3 779 774 694
3 700 779 694
3 774 779 775
3 775 779 780
3 775 780 776
3 776 780 781
3 776 781 701
3 695 776 701
3 777 696 702
3 778 777 702
3 703 778 702
3 778 703 698
3 779 700 704
3 780 779 704
3 705 780 704
3 781 780 705
3 706 781 705
3 781 706 701
