ply
format ascii 1.0
element vertex 106
property float x
property float y
property float z
property uchar red
property uchar green
property uchar blue
element face 200
property list uchar int vertex_indices
end_header
-6.08107995986938477 8 -1 231 127 0
-6 7.77830028533935547 -1 153 136 77
-6 8 -1.58064842224121094 224 122 3
-6.06530952453613281 8 0 231 120 1
-6 7.82203769683837891 0 152 133 80
-6 8 0.37640082836151123 219 113 22
-6 8.84253501892089844 -1 220 117 16
-6 8.81172466278076172 0 219 113 22
-5.3842167854309082 8 -3 230 141 0
-5 7.73670864105224609 -3 121 123 85
-5 8 -3.77307391166687012 228 156 0
-5.80966424942016602 8 -2 224 122 3
-5 7.82791566848754883 -2 66 66 66
-5 7.900177001953125 -1 33 34 29
-5 7.90990591049194336 0 30 31 26
-5.65495538711547852 8 1 223 109 22
-5 7.85800886154174805 1 59 59 55
-5.27097463607788086 8 2 228 111 19
-5 7.81267309188842773 2 113 110 94
-5 8 2.49112081527709961 211 126 52
-5 8.9448394775390625 -3 215 145 23
-5 8.94265460968017578 -2 198 148 58
-5 8.91051387786865234 -1 186 148 79
-5 8.90166854858398438 0 185 146 83
-5 8.93131065368652344 1 195 139 74
-5 8.92491436004638672 2 211 126 52
-4.77191829681396484 8 -4 228 156 0
-4 7.79455709457397461 -4 103 109 86
-4 8 -4.69994640350341797 231 185 0
-4.01107645034790039 8 -3 215 145 23
-4 8 -3.01114869117736816 213 170 29
-4.64523649215698242 8 -2 198 148 58
-4.8235626220703125 8 -1 186 148 79
-4.84128236770629883 8 0 185 146 83
-4.7107090950012207 8 1 195 139 74
-4.31247472763061523 8 2 211 126 52
-4.44453287124633789 8 3 224 117 32
-4 7.87717199325561523 3 94 94 92
-4 8 2.35404372215270996 174 153 106
-4 8 3.37080621719360352 207 142 69
-4 8.94449615478515625 -4 213 170 29
-4 8.91082954406738281 3 207 142 69
-3.64342379570007324 8 -5 231 185 0
-3 7.79952335357666016 -5 128 144 87
-3 8 -5.27610015869140625 238 226 0
-3.12423348426818848 8 -4 213 170 29
-3 8 -4.1549687385559082 222 195 5
-3.49672412872314453 8 3 207 142 69
-3.18962502479553223 8 4 227 129 35
-3 7.93878173828125 4 127 127 110
-3 8 3.7131199836730957 179 162 112
-3 8 4.07959270477294922 217 148 60
-3 8.92939376831054688 -5 222 195 5
-3 8.80220222473144531 4 217 148 60
-2 7.89092540740966797 -5 98 105 91
-2 8 -5.44440031051635742 235 235 0
-2 8 -4.76899814605712891 212 213 36
-2 7.98822975158691406 4 83 85 75
-2 8 3.97464966773986816 151 150 132
-2 8 4.04168367385864258 206 170 87
-2 8.91223621368408203 -5 212 213 36
-2 8.52511215209960938 4 206 170 87
-1.36281895637512207 -1 -1 117 116 111
-1 -1.32341849803924561 -1 105 105 105
-1 -1 -1.33264470100402832 104 103 102
-1.32205891609191895 -1 0 119 117 109
-1 -1.28717267513275146 0 107 107 104
-1 -1 0.273358434438705444 88 88 83
-1.73366367816925049 0 -1 88 86 84
-1 0 -1.67116928100585938 73 73 72
-1.6908104419708252 0 0 91 87 83
-1 0 0.583881199359893799 56 55 53
-1.37940990924835205 1 -1 101 94 86
-1 1 -1.34650552272796631 84 80 75
-1.33661293983459473 1 0 103 94 85
-1 1 0.283688575029373169 67 66 65
-1 1.3567357063293457 -1 65 64 64
-1 1.31654536724090576 0 67 66 65
-1 7.98363351821899414 -5 88 89 88
-1 8 -5.22391414642333984 216 235 0
-1 8 -4.97068929672241211 187 209 54
-1.87987053394317627 8 4 206 170 87
-1 8.62128829956054688 -5 187 209 54
0 -1.21246659755706787 -1 90 90 90
0 -1 -1.21847653388977051 92 92 91
0 -1.1764678955078125 0 92 92 90
0 -1 0.16804911196231842 76 75 70
0 0 -1.55221378803253174 60 60 60
0 0 0.475074052810668945 43 42 40
0 1 -1.2271268367767334 68 66 62
0 1 0.173952147364616394 51 50 50
0 1.23377895355224609 -1 48 48 48
0 1.19392883777618408 0 51 50 50
-0.499130010604858398 8 -5 187 209 54
0.187894269824028015 -1 -1 73 73 66
0.156112834811210632 -1 0 76 75 70
0.473016083240509033 0 -1 40 39 36
0.440453320741653442 0 0 43 42 40
0.194145947694778442 1 -1 48 48 48
0.161131471395492554 1 0 51 50 50
0.648600459098815918 8 -5 175 213 52
1 7.99056768417358398 -5 117 134 111
1 8 -5.03649473190307617 175 240 0
1 8 -4.98069238662719727 168 223 29
1 8.46969890594482422 -5 168 223 29
1.24766576290130615 8 -5 168 223 29
3 2 1 0
3 1 4 3
3 0 1 3
3 4 5 3
3 2 0 6
3 0 3 7
3 6 0 7
3 3 5 7
3 10 9 8
3 9 12 11
3 8 9 11
3 2 11 12
3 2 12 1
3 1 12 13
3 13 14 1
3 1 14 4
3 15 5 4
3 15 4 16
3 16 4 14
3 16 18 17
3 15 16 17
3 18 19 17
3 10 8 20
3 8 11 21
3 20 8 21
3 11 2 6
3 11 6 21
3 21 6 22
3 22 6 23
3 6 7 23
3 5 15 24
3 5 24 7
3 7 24 23
3 15 17 25
3 24 15 25
3 17 19 25
3 28 27 26
3 10 26 27
3 10 27 9
3 30 29 27
3 29 9 27
3 12 9 29
3 31 12 29
3 13 12 31
3 32 13 31
3 14 13 32
3 33 14 32
3 16 14 33
3 34 16 33
3 18 16 34
3 35 18 34
3 36 19 18
3 36 18 37
3 35 38 18
3 38 37 18
3 37 39 36
3 28 26 40
3 29 30 40
3 29 40 20
3 26 10 40
3 10 20 40
3 31 29 20
3 21 31 20
3 32 31 21
3 22 32 21
3 33 32 22
3 23 33 22
3 34 33 23
3 24 34 23
3 35 34 24
3 25 35 24
3 19 36 41
3 19 41 25
3 38 35 41
3 35 25 41
3 36 39 41
3 44 43 42
3 28 42 43
3 28 43 27
3 46 45 43
3 45 27 43
3 27 45 30
3 37 38 47
3 48 39 37
3 48 37 49
3 47 50 37
3 50 49 37
3 49 51 48
3 44 42 52
3 45 46 52
3 45 52 40
3 42 28 52
3 28 40 52
3 45 40 30
3 47 38 41
3 39 48 53
3 39 53 41
3 50 47 53
3 47 41 53
3 48 51 53
3 44 55 54
3 43 44 54
3 43 54 56
3 46 43 56
3 50 58 57
3 49 50 57
3 49 57 59
3 51 49 59
3 55 44 52
3 60 55 52
3 60 52 46
3 56 60 46
3 58 50 53
3 61 58 53
3 61 53 51
3 59 61 51
3 64 63 62
3 63 66 65
3 62 63 65
3 66 67 65
3 69 64 62
3 68 69 62
3 62 65 68
3 65 70 68
3 67 71 70
3 65 67 70
3 73 69 68
3 72 73 68
3 68 70 72
3 70 74 72
3 71 75 74
3 70 71 74
3 73 72 76
3 72 74 77
3 76 72 77
3 74 75 77
3 55 79 78
3 54 55 78
3 54 78 80
3 56 54 80
3 57 58 81
3 57 81 59
3 79 55 60
3 82 79 60
3 82 60 56
3 80 82 56
3 81 58 61
3 81 61 59
3 64 84 83
3 63 64 83
3 83 85 63
3 63 85 66
3 66 85 86
3 67 66 86
3 84 64 87
3 87 64 69
3 86 88 67
3 88 71 67
3 87 69 89
3 89 69 73
3 88 90 71
3 90 75 71
3 89 73 76
3 91 89 76
3 91 76 92
3 76 77 92
3 92 77 75
3 90 92 75
3 78 79 93
3 78 93 80
3 93 79 82
3 93 82 80
3 83 84 94
3 85 83 94
3 95 85 94
3 85 95 86
3 96 94 84
3 87 96 84
3 94 96 95
3 95 96 97
3 95 97 88
3 86 95 88
3 98 96 87
3 89 98 87
3 96 98 97
3 97 98 99
3 97 99 90
3 88 97 90
3 98 89 91
3 99 98 91
3 92 99 91
3 99 92 90
3 102 101 100
3 101 103 100
3 102 100 104
3 100 103 104
3 101 102 105
3 101 105 103
3 105 102 104
3 105 104 103
