ply
format ascii 1.0
element vertex 690
property float x
property float y
property float z
property uchar red
property uchar green
property uchar blue
element face 1364
property list uchar int vertex_indices
end_header
-9.87695217132568359 -9 -9 14 0 0
-9 -9.87695217132568359 -9 21 0 0
-9 -9 -9.87695217132568359 22 0 0
-9.63556385040283203 -9 -8 4 0 0
-9 -9.63556385040283203 -8 0 0 0
-9 -9 -7.66516828536987305 0 0 0
-9.85683822631835938 -9 8 84 0 84
-9 -9.85683822631835938 8 66 6 6
-9 -9 7.14227437973022461 89 11 71
-9 -9 8.85683822631835938 64 0 82
-9.88461112976074219 -8 -9 14 0 0
-9 -8 -9.88461112976074219 7 0 0
-9.65942192077636719 -8 -8 12 0 0
-9 -8 -7.65881443023681641 17 0 5
-9.86183261871337891 -8 8 0 65 92
-9 -8 7.1045989990234375 0 38 97
-9 -8 8.86183261871337891 0 83 90
-9.89287948608398438 -7 -9 33 0 12
-9 -7 -9.89287948608398438 20 0 0
-9.71530532836914062 -7 -8 33 0 28
-9 -7 -7.57900667190551758 29 0 37
-9.87149333953857422 -7 8 12 95 0
-9 -7 7.00944995880126953 0 99 21
-9 -7 8.87149333953857422 33 93 0
-9.89910411834716797 -6 -9 24 0 40
-9 -6 -9.89910411834716797 22 0 22
-9.76863861083984375 -6 -8 14 0 46
-9 -6 -7.44149494171142578 0 2 46
-9.51596260070800781 -6 7 76 104 0
-9 -6.94277811050415039 7 0 99 21
-9 -6 6.82877683639526367 31 106 0
-9.8847808837890625 -6 8 95 65 0
-9 -6 8.8847808837890625 90 42 0
-9.90592765808105469 -5 -9 0 16 43
-9 -5 -9.90592765808105469 0 0 10
-9.80877494812011719 -5 -8 0 29 53
-9 -5 -7.24005794525146484 0 47 52
-9.73004436492919922 -5 7 102 26 0
-9 -5 6.55279970169067383 105 75 0
-9.90040779113769531 -5 8 93 28 0
-9 -5 8.90040779113769531 89 46 0
-9.91364288330078125 -4 -9 0 35 27
-9 -4 -9.91364288330078125 0 0 0
-9.84429359436035156 -4 -8 0 59 34
-9.13520431518554688 -4 -7 0 61 50
-9 -4.10476016998291016 -7 0 39 52
-9 -4 -6.97101688385009766 0 60 27
-9.82520771026611328 -4 7 93 50 0
-9 -4 6.19922828674316406 95 4 0
-9.91555690765380859 -4 8 74 86 0
-9 -4 8.91555690765380859 52 84 0
-9.92276763916015625 -3 -9 0 24 1
-9 -3 -9.92276763916015625 0 5 3
-9.87373542785644531 -3 -8 12 58 0
-9.66650867462158203 -3 -7 3 70 0
-9 -3 -6.59468650817871094 28 68 0
-9.55450725555419922 -3 6 74 21 0
-9 -3.51449227333068848 6 95 4 0
-9 -3 5.76265907287597656 74 27 0
-9.87411689758300781 -3 7 66 74 0
-9.92790985107421875 -3 8 16 70 0
-9 -3 8.92790985107421875 0 70 2
-9.93257713317871094 -2 -9 10 18 0
-9 -2 -9.93257713317871094 0 8 0
-9.89836978912353516 -2 -8 45 49 0
-9.80743312835693359 -2 -7 66 75 0
-9 -2 -6.08084583282470703 71 54 0
-9.79308319091796875 -2 6 51 28 0
-9 -2 5.26228046417236328 55 5 0
-9.90320396423339844 -2 7 28 49 0
-9.93751811981201172 -2 8 0 48 7
-9 -2 8.93751811981201172 0 49 21
-9.94180965423583984 -1 -9 19 16 0
-9 -1 -9.94180965423583984 3 5 0
-9.91858386993408203 -1 -8 44 19 0
-9.87137699127197266 -1 -7 74 27 0
-9.71873950958251953 -1 -6 83 54 0
-9 -1.87387979030609131 -6 61 73 0
-9 -1 -5.35343790054321289 81 21 0
-9.57838916778564453 -1 5 42 8 0
-9 -1.50167524814605713 5 55 5 0
-9 -1 4.67255926132202148 39 31 5
-9.86612033843994141 -1 6 36 24 0
-9.92209815979003906 -1 7 11 26 0
-9.94521903991699219 -1 8 0 23 7
-9 -1 8.94521903991699219 0 24 14
-9.94230365753173828 0 -9 24 7 0
-9 0 -9.94230365753173828 2 2 0
-9.91908454895019531 0 -8 42 6 0
-9.8715057373046875 0 -7 70 22 0
-9.72872829437255859 0 -6 86 14 0
-9 0 -5.29186153411865234 83 44 0
-9.55657291412353516 0 5 29 0 0
-9 0 4.67998361587524414 27 15 4
-9.86180973052978516 0 6 25 21 0
-9.92113018035888672 0 7 4 13 0
-9.94494533538818359 0 8 0 5 2
-9 0 8.94494533538818359 0 5 3
-9.93386554718017578 1 -9 24 3 0
-9 1 -9.93386554718017578 8 4 0
-9.89894008636474609 1 -8 36 25 0
-9.80339431762695312 1 -7 61 59 0
-9 0.984479129314422607 -6 83 44 0
-9 1 -6.01025772094726562 35 47 0
-9 0.400660544633865356 5 27 6 0
-9.76275348663330078 1 6 16 15 0
-9 1 5.36868619918823242 17 6 0
-9.89911270141601562 1 7 1 4 0
-9.93641853332519531 1 8 0 5 2
-9 1 8.93641853332519531 0 6 5
-9.92402076721191406 2 -9 27 13 0
-9 2 -9.92402076721191406 18 5 0
-9.87101078033447266 2 -8 27 32 0
-9.63606071472167969 2 -7 23 51 0
-9 2 -6.58796548843383789 6 35 0
-9.29545402526855469 2 6 6 6 0
-9 2 5.91836404800415039 7 2 0
-9.86307907104492188 2 7 0 2 0
-9.92544174194335938 2 8 0 13 5
-9 2 8.92544174194335938 0 15 10
-9.91279888153076172 3 -9 33 23 0
-9 3 -9.91279888153076172 28 7 0
-9.83177757263183594 3 -8 15 32 0
-9 2.91273975372314453 -7 6 35 0
-9 3 -7.03268766403198242 4 16 0
-9 2.16912317276000977 6 2 3 0
-9.796844482421875 3 7 4 8 0
-9 3 6.34437084197998047 5 5 0
-9.91122055053710938 3 8 0 19 3
-9 3 8.91122055053710938 0 22 10
-9.90041637420654297 4 -9 39 27 0
-9 4 -9.90041637420654297 34 15 0
-9.77542686462402344 4 -8 10 35 0
-9 4 -7.32587480545043945 1 21 0
-9.65038681030273438 4 7 14 16 0
-9 4 6.68885564804077148 15 12 0
-9.89301204681396484 4 8 4 24 0
-9 4 8.89301204681396484 0 28 2
-9.88742542266845703 5 -9 42 19 0
-9 5 -9.88742542266845703 33 27 0
-9.69269084930419922 5 -8 13 41 0
-9 5 -7.55644798278808594 3 30 0
-9.19199752807617188 5 7 25 21 0
-9 5 6.95960330963134766 26 17 0
-9.87101936340332031 5 8 18 30 0
-9 5 8.87101936340332031 11 34 0
-9.87447452545166016 6 -9 38 0 0
-9 6 -9.87447452545166016 15 26 0
-9.57489585876464844 6 -8 28 44 0
-9 6 -7.73270130157470703 17 38 0
-9 5.22685623168945312 7 25 28 0
-9.84871387481689453 6 8 38 37 0
-9 6 7.1261444091796875 37 33 0
-9 6 8.84871387481689453 30 41 0
-9.86137008666992188 7 -9 30 23 0
-9 7 -9.86137008666992188 0 19 3
-9.43247890472412109 7 -8 40 31 0
-9 7 -7.84943532943725586 40 39 0
-9.83515167236328125 7 8 47 32 0
-9 7 7.18623733520507812 48 41 0
-9 7 8.83515167236328125 49 50 0
-9.84923648834228516 8 -9 8 23 0
-9 8 -9.84923648834228516 0 13 12
-9.27899265289306641 8 -8 32 1 0
-9 8 -7.92136907577514648 31 5 0
-9.8400115966796875 8 8 57 39 0
-9 8 7.11897659301757812 48 57 0
-9 8 8.8400115966796875 58 60 0
-9 8.84923648834228516 -9 14 23 0
-9 8.27899265289306641 -8 31 5 0
-9 8.8400115966796875 8 58 60 0
-8 -9.42935752868652344 -9 23 0 0
-8 -9 -9.42935752868652344 24 0 0
-8.7431640625 -9 -8 0 0 0
-8 -9 -8.87024307250976562 12 0 0
-8.10858821868896484 -9 8 64 0 82
-8 -8 -9.57760334014892578 7 0 0
-8.71307945251464844 -8 -8 17 0 5
-8 -8 -8.77871036529541016 19 0 0
-8.06700897216796875 -8 8 0 83 90
-8 -7 -9.67175769805908203 18 0 0
-8.62660789489746094 -7 -8 29 0 37
-8 -7 -8.67323207855224609 32 0 31
-8 -7.21141242980957031 8 0 87 79
-8 -7 7.98408317565917969 0 95 5
-8 -7 8.10722541809082031 45 88 0
-8 -6 -9.72451400756835938 12 0 15
-8.50640678405761719 -6 -8 0 2 46
-8 -6 -8.56446552276611328 1 0 35
-8.85393905639648438 -6 7 96 100 0
-8 -6 7.85640430450439453 93 83 0
-8 -6 8.51098918914794922 82 27 0
-8 -5 -9.76911258697509766 0 0 0
-8.36832809448242188 -5 -8 0 47 52
-8 -5 -8.42540359497070312 0 27 29
-8.62070274353027344 -5 7 100 2 0
-8 -5 7.63672780990600586 95 12 0
-8 -5 8.71630191802978516 81 54 0
-8 -4 -9.81146621704101562 0 11 11
-8.18755912780761719 -4 -8 0 56 13
-8 -4 -8.22530937194824219 0 11 3
-8.97765922546386719 -4 -7 0 60 27
-8.31209850311279297 -4 7 92 73 0
-8 -4 7.31852531433105469 90 87 0
-8 -4 8.82087230682373047 36 80 0
-8 -3 -9.853271484375 0 16 4
-8 -3.18944334983825684 -8 2 49 0
-8.71054744720458984 -3 -7 28 68 0
-8 -3 -7.94372224807739258 29 36 0
-8.82679176330566406 -3 6 75 42 0
-8 -3.14232325553894043 7 90 87 0
-8 -3 6.94355392456054688 75 57 0
-8 -3 8.8740081787109375 0 68 15
-8 -2 -9.88795948028564453 6 18 0
-8.38305187225341797 -2 -7 71 54 0
-8 -2 -7.52430200576782227 20 11 0
-8.44564723968505859 -2 6 50 42 0
-8 -2 6.50660800933837891 47 50 0
-8 -2 8.90351676940917969 0 48 31
-8 -1 -9.91335487365722656 15 17 0
-8 -1.05223917961120605 -7 63 28 0
-8.62705516815185547 -1 -6 81 21 0
-8 -1 -6.9676823616027832 53 14 0
-8.80498981475830078 -1 5 40 2 0
-8.01602458953857422 -1 6 32 30 0
-8 -1 6.01782941818237305 22 27 0
-8 -1 8.92240810394287109 0 24 20
-8 0 -9.91431999206542969 14 10 0
-8.61164379119873047 0 -6 83 44 0
-8 0 -6.98029470443725586 41 37 0
-8.82380199432373047 0 5 27 6 0
-8.05060291290283203 0 6 19 20 0
-8 0 6.05555009841918945 9 14 0
-8 0 8.92176151275634766 0 4 4
-8 1 -9.89095115661621094 10 4 0
-8.41681861877441406 1 -7 35 47 0
-8 0.0282951667904853821 -7 41 37 0
-8 1 -7.55076122283935547 1 1 0
-8.53260898590087891 1 6 9 11 0
-8 1 6.5868983268737793 2 4 0
-8 1 8.90037918090820312 0 7 7
-8 2 -9.85620403289794922 1 0 0
-8.75803565979003906 2 -7 6 35 0
-8 2 -7.99763250350952148 0 0 0
-8.94144916534423828 2 6 2 3 0
-8.04615116119384766 2 7 0 7 0
-8 1.89423763751983643 7 0 4 0
-8 2 7.04520034790039062 0 12 1
-8 2 8.86563682556152344 0 17 15
-8 3 -9.80138492584228516 12 1 0
-8.2870941162109375 3 -8 4 16 0
-8 2.00648283958435059 -8 0 0 0
-8 3 -8.33043193817138672 0 0 0
-8.42753791809082031 3 7 4 13 0
-8 3 7.42001247406005859 1 19 0
-8 3 8.801788330078125 0 25 17
-8 4 -9.70760726928710938 25 7 0
-8.51466941833496094 4 -8 1 21 0
-8 4 -8.60207462310791016 11 12 0
-8.73650932312011719 4 7 11 20 0
-8 4 7.73086404800415039 9 26 0
-8 4 8.65692806243896484 0 32 10
-8 5 -9.53059864044189453 30 20 0
-8.6902618408203125 5 -8 3 30 0
-8 5 -8.81630706787109375 27 21 0
-8.96711158752441406 5 7 25 28 0
-8 5 7.97880983352661133 21 33 0
-8 5 8.1313934326171875 3 38 0
-8 6 -9.14104557037353516 18 24 0
-8.81731605529785156 6 -8 17 38 0
-8 6 -8.97357749938964844 34 11 0
-8.16469478607177734 6 8 30 41 0
-8 5.12030553817749023 8 3 38 0
-8.08640003204345703 7 -9 30 15 0
-8 6.2184138298034668 -9 34 11 0
-8.89764976501464844 7 -8 40 39 0
-8.250823974609375 7 8 49 50 0
-8.16996383666992188 8 -9 14 23 0
-8.94776153564453125 8 -8 31 5 0
-8.21735572814941406 8 8 58 60 0
-7.87267398834228516 -9 -9 12 0 0
-7.76717567443847656 -8 -9 19 0 0
-7.65223360061645508 -7 -9 32 0 31
-7.98087024688720703 -7 8 45 88 0
-7.55568933486938477 -6 -9 1 0 35
-7.83454418182373047 -6 8 82 27 0
-7.44369602203369141 -5 -9 0 27 29
-7.59630250930786133 -5 8 81 54 0
-7.2741546630859375 -4 -9 0 11 3
-7.23956012725830078 -4 8 36 80 0
-7 -3.01641511917114258 -9 0 5 0
-7 -3 -9.02641391754150391 0 22 1
-7.95326757431030273 -3 -8 29 36 0
-7 -3 -8.99547481536865234 9 15 0
-7.94254398345947266 -3 7 30 73 0
-7 -3.4654090404510498 8 27 72 0
-7 -3 7.82267189025878906 19 71 0
-7 -3 8.5569000244140625 0 65 22
-7 -2 -9.70162105560302734 13 24 0
-7.61311244964599609 -2 -8 20 11 0
-7 -2 -8.61417770385742188 17 11 0
-7.49637413024902344 -2 7 3 49 0
-7 -2 7.425506591796875 0 48 4
-7 -2 8.79973030090332031 0 45 37
-7 -1 -9.83850765228271484 28 27 0
-7.13924264907836914 -1 -8 12 1 0
-7 -1 -8.13607120513916016 19 2 0
-7.97708654403686523 -1 -7 53 14 0
-7 -1.02670180797576904 7 0 48 4
-7 -1 6.98727607727050781 17 24 3
-7 -1 8.87119102478027344 0 22 22
-7 0 -9.84118747711181641 30 16 0
-7.12758398056030273 0 -8 8 5 0
-7 0 -8.12387275695800781 22 8 0
-7.98652124404907227 0 -7 41 37 0
-7.01247072219848633 0 7 0 6 0
-7 -0.467949360609054565 7 0 23 4
-7 0 7.01064395904541016 0 4 1
-7 0 8.86899852752685547 0 3 4
-7 1 -9.71780776977539062 28 7 0
-7.60819244384765625 1 -8 1 1 0
-7 1 -8.59246349334716797 24 19 0
-7.5689239501953125 1 7 0 4 0
-7 1 7.48487186431884766 0 7 2
-7 1 8.78334903717041016 0 6 7
-7 2 -9.08730125427246094 21 2 0
-7.9979248046875 2 -8 0 0 0
-7 2 -8.98492050170898438 22 23 0
-7 2 7.89376688003540039 0 17 4
-7 2 8.43637847900390625 0 17 18
-7.33592462539672852 3 -9 0 0 0
-7 2.04476642608642578 -9 22 23 0
-7.31232595443725586 3 8 0 25 17
-7 2.29648041725158691 8 0 17 18
-7.61433553695678711 4 -9 11 12 0
-7.68393802642822266 4 8 0 32 10
-7.82434558868408203 5 -9 27 21 0
-7.97555255889892578 5 8 3 38 0
-7.97479009628295898 6 -9 34 11 0
-6.99452447891235352 -3 -9 9 15 0
-6.76006937026977539 -3 8 0 65 22
-6.51953315734863281 -2 -9 17 11 0
-6.1833491325378418 -2 8 0 45 37
-6 -1.14280021190643311 -9 22 11 0
-6 -1 -9.29754257202148438 33 27 0
-6 -1 -8.93441104888916016 25 2 0
-6.98427152633666992 -1 7 0 23 4
-6 -1.70204341411590576 8 0 42 37
-6 -1 7.70620632171630859 0 20 7
-6 -1 8.67870712280273438 0 17 19
-6 0 -9.32822132110595703 39 16 0
-6 0 -8.92408943176269531 29 16 0
-6 0 7.72824764251708984 0 2 0
-6 0 8.66182327270507812 0 1 2
-6.49320173263549805 1 -9 24 19 0
-6 0.164838120341300964 -9 29 16 0
-6.26367282867431641 1 8 0 6 7
-6 0.601831018924713135 8 0 1 2
-6.98168754577636719 2 -9 22 23 0
-6.84870338439941406 2 8 0 17 18
-5.89313364028930664 -1 -9 25 2 0
-5.47039556503295898 -1 8 0 17 19
-5.87787771224975586 0 -9 29 16 0
-5.51064586639404297 0 8 0 1 2
4.83373641967773438 -1 8 23 26 0
5 -1.20202302932739258 8 50 26 0
5 -1 7.88449811935424805 38 3 0
5 -1 8.4072418212890625 37 28 0
4.72608375549316406 0 8 12 16 0
5 0 7.81962442398071289 18 4 0
5 0 8.52899074554443359 26 23 0
5 0.445623546838760376 8 26 23 0
5.54012298583984375 -2 8 50 26 0
6 -2.82407379150390625 8 68 21 0
6 -2 7.59761571884155273 67 25 0
6 -2 8.69793415069580078 62 9 0
5.44231414794921875 -1 -9 54 21 0
6 -1.92127227783203125 -9 39 56 0
6 -1 -9.73006916046142578 0 32 19
6 -1 -8.57037925720214844 55 48 0
6 -1 7.03450250625610352 47 9 0
6 -1 8.84545326232910156 48 19 0
5.41091346740722656 0 -9 52 5 0
6 0 -9.73972320556640625 0 27 9
6 0 -8.5506744384765625 52 31 0
6 0 7.01940727233886719 27 1 0
6 0 8.85380363464355469 35 20 0
5.97355079650878906 1 -9 50 0 0
6 1 -9.11662960052490234 0 21 5
6 1 -8.97993564605712891 48 24 0
5.28990888595581055 1 8 15 16 0
6 1 7.47000980377197266 11 1 0
6 1 8.77386951446533203 24 17 0
6 1.05730152130126953 -9 48 24 0
5.75268268585205078 2 8 0 0 0
6 2 7.82065868377685547 1 0 0
6 2 8.5479278564453125 8 6 0
6 2.60302352905273438 8 8 6 0
6.82179403305053711 -5 8 7 58 0
7 -5.98114824295043945 8 0 36 48
7 -5 7.83884286880493164 0 52 33
7 -5 8.50616168975830078 0 49 16
6.8229222297668457 -4 -9 0 40 37
7 -4.63006782531738281 -9 17 0 26
7 -4 -9.52052783966064453 30 0 28
7 -4 -8.83930873870849609 0 23 44
6.51032400131225586 -4 8 64 65 0
7 -4 7.54235315322875977 8 60 0
7 -4 8.73453521728515625 29 57 0
6.4687199592590332 -3 -9 0 53 0
7 -3 -9.75911521911621094 8 0 36
7 -3 -8.51091384887695312 0 55 28
6.08802080154418945 -3 8 68 21 0
7 -3 7.1022791862487793 60 74 0
7 -3 8.83635139465332031 68 53 0
6.04057931900024414 -2 -9 39 56 0
7 -2 -9.84531116485595703 0 14 36
7 -2 -8.09692573547363281 8 57 0
6.58922386169433594 -2 7 67 25 0
7 -2.80425238609313965 7 60 74 0
7 -2 6.54281759262084961 53 65 0
7 -2 8.88646793365478516 69 17 0
7 -1 -9.89056777954101562 0 26 32
6.60456037521362305 -1 -8 75 49 0
7 -1.80018281936645508 -8 74 22 0
7 -1 -7.55616188049316406 74 13 0
6.99004411697387695 -1 6 27 21 0
7 -1.02033913135528564 6 53 65 0
7 -1 5.98753833770751953 14 18 0
6.03472900390625 -1 7 47 9 0
7 -1 8.9146728515625 57 1 0
7 0 -9.89183712005615234 0 26 24
6.58913612365722656 0 -8 74 72 0
7 0 -7.5387425422668457 72 34 0
6.97904014587402344 0 6 11 5 0
7 0 5.97373723983764648 9 7 0
6.02056360244750977 0 7 27 1 0
7 0 8.91681861877441406 43 9 0
7 1 -9.851593017578125 0 19 16
7 0.878160476684570312 -8 72 34 0
7 1 -8.05547523498535156 40 45 0
7 0.0420382507145404816 6 18 12 0
6.52386569976806641 1 7 11 1 0
7 1 6.50411033630371094 9 2 0
7 1 8.89755344390869141 31 13 0
6.37669706344604492 2 -9 45 26 0
7 2 -9.78232479095458984 0 13 11
7 2 -8.42919635772705078 33 40 0
6.94802951812744141 2 7 1 0 0
7 2 6.94635248184204102 2 0 0
7 2 8.87005424499511719 15 8 0
6.68474340438842773 3 -9 40 32 0
7 3 -9.64992713928222656 0 7 7
7 3 -8.71321010589599609 21 34 0
7 2.1487729549407959 7 4 0 0
6.14197015762329102 3 8 11 9 0
7 3 7.26510906219482422 6 3 0
7 3 8.82824516296386719 2 1 0
6.90750026702880859 4 -9 27 33 0
7 4 -9.35644626617431641 0 5 6
7 4 -8.9160614013671875 8 29 0
6.42413139343261719 4 8 26 26 0
7 4 7.510528564453125 16 17 0
7 4 8.76516914367675781 17 16 0
7 4.78787803649902344 -9 8 29 0
6.63412904739379883 5 8 23 38 0
7 5 7.70059585571289062 7 29 0
7 5 8.67259597778320312 16 30 0
6.81300210952758789 6 8 0 50 1
7 6 7.84810733795166016 0 40 27
7 6 8.50837326049804688 0 42 8
6.99590635299682617 7 -9 0 20 3
7 6.87950658798217773 -9 0 27 8
7 7 -9.02333831787109375 0 12 11
7 7 -8.99647617340087891 0 26 9
6.90221929550170898 7 8 0 62 60
7 7 7.91273689270019531 0 7 46
7 7 8.36620235443115234 0 42 51
6.94365882873535156 8 -9 0 12 0
7 8 -9.24495601654052734 0 12 2
7 8 -8.94936180114746094 0 24 1
6.88068628311157227 8 8 9 0 67
7 8 7.89252233505249023 48 0 39
7 8 8.41292762756347656 23 0 57
7 8.24495601654052734 -9 0 24 1
7 8.41292762756347656 8 23 0 57
7.38212203979492188 -9 -9 16 0 0
8 -9.80986499786376953 -9 11 2 2
8 -9 -9.80986499786376953 32 0 0
8 -9 -8.32561492919921875 13 0 0
7.01621294021606445 -9 8 41 0 0
8 -9.86223030090332031 8 24 0 0
8 -9 7.02047491073608398 57 0 0
8 -9 8.86223030090332031 45 0 0
7.42048501968383789 -8 -9 13 0 0
8 -8 -9.80127239227294922 30 0 0
8 -8 -8.36261749267578125 10 0 0
7.05199241638183594 -8 8 53 0 32
8 -8 7.06357955932617188 56 0 30
8 -8 8.85793972015380859 52 0 17
7.39031362533569336 -7 -9 4 0 0
8 -7 -9.80974483489990234 17 0 0
8 -7 -8.32724475860595703 0 0 0
7.06478309631347656 -7 8 14 0 51
8 -7 7.05517339706420898 33 0 53
8 -7 8.85653495788574219 30 0 48
7.28219032287597656 -6 -9 10 0 0
8 -6 -9.83244228363037109 2 0 0
8 -6 -8.21588134765625 13 0 0
7.9631190299987793 -6 7 0 26 52
8 -6.42159175872802734 7 33 0 53
8 -6 6.95433425903320312 0 13 59
7.00310087203979492 -6 8 0 36 48
8 -6 8.86359214782714844 0 14 43
7.09439992904663086 -5 -9 17 0 26
8 -5 -9.85944747924804688 19 0 0
8 -5 -8.02781391143798828 27 0 19
7.78561592102050781 -5 7 0 52 33
8 -5 6.72296905517578125 0 55 57
8 -5 8.87893962860107422 0 41 33
8 -4 -9.884613037109375 31 0 9
7.79450607299804688 -4 -8 0 42 3
8 -4.89342832565307617 -8 0 7 31
8 -4 -7.74077272415161133 0 43 28
7.49763774871826172 -4 7 8 60 0
8 -4 6.32945680618286133 0 66 23
8 -4 8.89802742004394531 0 45 0
8 -3 -9.90461826324462891 31 0 36
7.47273874282836914 -3 -8 59 63 0
8 -3 -7.34788227081298828 25 64 0
7.84645318984985352 -3 6 37 77 0
8 -3.39069318771362305 6 0 66 23
8 -3 5.76415729522705078 6 76 0
7.09135961532592773 -3 7 60 74 0
8 -3 8.91640949249267578 43 59 0
8 -2 -9.92023944854736328 8 0 35
7.08778905868530273 -2 -8 74 22 0
7.87451505661010742 -2 -7 76 67 0
8 -2.3150029182434082 -7 51 24 0
8 -2 -6.81044626235961914 76 33 0
7.42636346817016602 -2 6 53 65 0
8 -2 5.16645097732543945 20 55 0
8 -2 8.93111801147460938 71 49 0
8 -1 -9.93296146392822266 0 4 30
7.42811489105224609 -1 -7 44 89 0
8 -1 -6.09833431243896484 85 88 0
7.69229221343994141 -1 5 14 18 0
8 -1.73131954669952393 5 20 55 0
8 -1 4.46463489532470703 9 12 0
8 -1 8.94180011749267578 62 23 0
8 0 -9.93330955505371094 0 9 23
7.41416072845458984 0 -7 11 90 0
8 0 -6.05594396591186523 55 89 0
7.68520641326904297 0 5 9 7 0
8 0 4.45211982727050781 9 5 0
8 0 8.9426422119140625 49 6 0
8 1 -9.92143821716308594 0 7 14
7.05109643936157227 1 -8 69 41 0
7.81826686859130859 1 -7 0 90 7
8 1 -6.70770597457885742 39 88 0
8 0.717230796813964844 5 17 15 0
7.42769765853881836 1 6 9 2 0
8 1 5.18048763275146484 13 3 0
8 1 8.93497276306152344 36 4 0
8 2 -9.90718364715576172 0 3 7
7.39792203903198242 2 -8 66 36 0
8 1.54974400997161865 -7 39 88 0
8 2 -7.20526313781738281 60 5 0
7.80040073394775391 2 6 2 0 0
8 2 5.72173786163330078 8 3 0
8 2 8.92594718933105469 22 7 0
8 3 -9.8910064697265625 0 0 1
7.66598033905029297 3 -8 62 19 0
8 3 -7.56237077713012695 55 18 0
8 2.63033413887023926 6 9 1 0
7.26573514938354492 3 7 6 3 0
8 3 6.14028835296630859 0 0 0
8 3 8.91536998748779297 6 3 0
8 4 -9.87445735931396484 0 0 1
7.86111736297607422 4 -8 56 5 0
8 4 -7.81962442398071289 48 35 0
7.51801824569702148 4 7 16 17 0
8 4 6.44475269317626953 4 9 0
8 4 8.90351772308349609 8 8 0
7.02310514450073242 5 -9 0 25 1
8 5 -9.86310482025146484 0 2 6
7.98716211318969727 5 -8 49 29 0
8 5 -7.98347282409667969 34 42 0
7.72026443481445312 5 7 7 29 0
8 5 6.66372823715209961 0 17 7
8 5 8.89053249359130859 10 22 0
7.02736186981201172 6 -9 0 27 8
8 6 -9.861114501953125 0 6 11
8 5.30028867721557617 -8 34 42 0
8 6 -8.03293228149414062 0 24 16
7.83556079864501953 6 7 0 40 27
8 6 6.79217004776000977 0 10 24
8 6 8.87931537628173828 0 33 11
8 7 -9.86267662048339844 0 15 15
7.97532081604003906 7 -8 21 41 0
8 6.55257081985473633 -8 15 37 0
8 7 -7.97073650360107422 7 40 0
7.86694049835205078 7 7 0 7 46
8 7 6.83066320419311523 25 0 28
8 7 8.87380027770996094 0 27 42
8 8 -9.86540412902832031 0 18 2
7.89926338195800781 8 -8 15 36 0
8 8 -7.87534284591674805 10 39 0
7.83758831024169922 8 7 48 0 39
8 8 6.79460000991821289 28 0 0
8 8 8.87633514404296875 33 0 50
8 8.86540412902832031 -9 0 28 2
8 8.40523719787597656 -8 10 39 0
8 8.53108596801757812 7 40 0 22
8 8.87633514404296875 8 33 0 50
8.80986499786376953 -9 -9 13 0 0
8.86223030090332031 -9 8 45 0 0
8.80127239227294922 -8 -9 10 0 0
8.85793972015380859 -8 8 52 0 17
8.80974483489990234 -7 -9 0 0 0
8.85653495788574219 -7 8 30 0 48
8.83244228363037109 -6 -9 13 0 0
8.20262622833251953 -6 7 0 10 51
8.86359214782714844 -6 8 0 14 43
8.85944747924804688 -5 -9 27 0 19
8.59281063079833984 -5 7 0 49 48
8.87893962860107422 -5 8 0 41 33
8.884613037109375 -4 -9 3 0 45
8.59458446502685547 -4 -8 0 43 28
8.76799488067626953 -4 7 0 53 12
8.89802742004394531 -4 8 0 45 0
8.90461826324462891 -3 -9 0 47 55
8.78594493865966797 -3 -8 25 64 0
8.51049327850341797 -3 6 17 78 0
8.85274791717529297 -3 7 30 69 0
8.91640949249267578 -3 8 43 59 0
8.92023944854736328 -2 -9 0 55 27
8.85904312133789062 -2 -8 73 63 0
8.47388839721679688 -2 -7 76 33 0
8.79259777069091797 -2 6 43 71 0
8.89562225341796875 -2 7 70 75 0
8.93111801147460938 -2 8 71 49 0
8.93296146392822266 -1 -9 0 52 3
8.89714813232421875 -1 -8 73 28 0
8.79722118377685547 -1 -7 85 88 0
8.67502307891845703 -1 5 19 29 0
8.86765575408935547 -1 6 39 47 0
8.91926860809326172 -1 7 60 48 0
8.94180011749267578 -1 8 62 23 0
8.93330955505371094 0 -9 8 46 0
8.89772987365722656 0 -8 69 8 0
8.80052852630615234 0 -7 55 89 0
8.67700862884521484 0 5 17 15 0
8.86627483367919922 0 6 26 22 0
8.9198150634765625 0 7 43 24 0
8.9426422119140625 0 8 49 6 0
8.92143821716308594 1 -9 10 40 0
8.86223697662353516 1 -8 65 1 0
8.56320667266845703 1 -7 39 88 0
8.78957080841064453 1 6 17 7 0
8.89994239807128906 1 7 29 7 0
8.93497276306152344 1 8 36 4 0
8.90718364715576172 2 -9 6 33 0
8.80349254608154297 2 -8 60 5 0
8.57218837738037109 2 6 9 1 0
8.87093544006347656 2 7 14 1 0
8.92594718933105469 2 8 22 7 0
8.8910064697265625 3 -9 0 27 0
8.69839954376220703 3 -8 55 18 0
8.82778835296630859 3 7 1 0 0
8.91536998748779297 3 8 6 3 0
8.87445735931396484 4 -9 0 21 6
8.49364471435546875 4 -8 48 35 0
8.75973892211914062 4 7 8 9 0
8.90351772308349609 4 8 8 8 0
8.86310482025146484 5 -9 0 19 10
8.08308506011962891 5 -8 34 42 0
8.65119838714599609 5 7 2 21 0
8.89053249359130859 5 8 10 22 0
8.861114501953125 6 -9 0 24 16
8.53189849853515625 6 7 0 30 26
8.87931537628173828 6 8 0 33 11
8.86267662048339844 7 -9 0 27 15
8.14600372314453125 7 -8 7 40 0
8.48120975494384766 7 7 3 0 37
8.87380027770996094 7 8 0 27 42
8.86540412902832031 8 -9 0 28 2
8.40523719787597656 8 -8 10 39 0
8.53108596801757812 8 7 40 0 22
8.87633514404296875 8 8 33 0 50
3 2 1 0
3 1 4 3
3 0 1 3
3 4 5 3
3 8 7 6
3 7 9 6
3 11 2 0
3 10 11 0
3 0 3 10
3 3 12 10
3 5 13 12
3 3 5 12
3 15 8 6
3 14 15 6
3 9 16 14
3 6 9 14
3 18 11 10
3 17 18 10
3 10 12 17
3 12 19 17
3 13 20 19
3 12 13 19
3 22 15 14
3 21 22 14
3 16 23 21
3 14 16 21
3 25 18 17
3 24 25 17
3 17 19 24
3 19 26 24
3 20 27 26
3 19 20 26
3 30 29 28
3 29 22 21
3 29 21 28
3 28 21 31
3 23 32 31
3 21 23 31
3 34 25 24
3 33 34 24
3 24 26 33
3 26 35 33
3 27 36 35
3 26 27 35
3 38 30 28
3 37 38 28
3 28 31 37
3 31 39 37
3 32 40 39
3 31 32 39
3 42 34 33
3 41 42 33
3 33 35 41
3 35 43 41
3 36 45 44
3 36 44 35
3 35 44 43
3 45 46 44
3 48 38 37
3 47 48 37
3 37 39 47
3 39 49 47
3 40 50 49
3 39 40 49
3 52 42 41
3 51 52 41
3 41 43 51
3 43 53 51
3 43 44 53
3 44 54 53
3 46 55 54
3 44 46 54
3 58 57 56
3 57 48 47
3 57 47 56
3 56 47 59
3 47 49 59
3 49 60 59
3 50 61 60
3 49 50 60
3 63 52 51
3 62 63 51
3 51 53 62
3 53 64 62
3 53 54 64
3 54 65 64
3 55 66 65
3 54 55 65
3 68 58 56
3 67 68 56
3 56 59 67
3 59 69 67
3 59 60 69
3 60 70 69
3 61 71 70
3 60 61 70
3 73 63 62
3 72 73 62
3 62 64 72
3 64 74 72
3 64 65 74
3 65 75 74
3 66 77 76
3 66 76 65
3 65 76 75
3 77 78 76
3 81 80 79
3 80 68 67
3 80 67 79
3 79 67 82
3 67 69 82
3 69 83 82
3 69 70 83
3 70 84 83
3 71 85 84
3 70 71 84
3 87 73 72
3 86 87 72
3 72 74 86
3 74 88 86
3 74 75 88
3 75 89 88
3 75 76 89
3 76 90 89
3 78 91 90
3 76 78 90
3 93 81 79
3 92 93 79
3 79 82 92
3 82 94 92
3 82 83 94
3 83 95 94
3 83 84 95
3 84 96 95
3 85 97 96
3 84 85 96
3 99 87 86
3 98 99 86
3 86 88 98
3 88 100 98
3 88 89 100
3 89 101 100
3 102 103 101
3 102 101 90
3 90 101 89
3 90 91 102
3 93 92 104
3 106 104 92
3 106 92 105
3 105 92 94
3 94 95 105
3 95 107 105
3 95 96 107
3 96 108 107
3 97 109 108
3 96 97 108
3 111 99 98
3 110 111 98
3 98 100 110
3 100 112 110
3 100 101 112
3 101 113 112
3 103 114 113
3 101 103 113
3 116 106 105
3 115 116 105
3 105 107 115
3 107 117 115
3 107 108 117
3 108 118 117
3 109 119 118
3 108 109 118
3 121 111 110
3 120 121 110
3 110 112 120
3 112 122 120
3 123 124 122
3 123 122 113
3 113 122 112
3 113 114 123
3 116 115 125
3 127 125 115
3 127 115 126
3 126 115 117
3 117 118 126
3 118 128 126
3 119 129 128
3 118 119 128
3 131 121 120
3 130 131 120
3 120 122 130
3 122 132 130
3 124 133 132
3 122 124 132
3 135 127 126
3 134 135 126
3 126 128 134
3 128 136 134
3 129 137 136
3 128 129 136
3 139 131 130
3 138 139 130
3 130 132 138
3 132 140 138
3 133 141 140
3 132 133 140
3 143 135 134
3 142 143 134
3 134 136 142
3 136 144 142
3 137 145 144
3 136 137 144
3 147 139 138
3 146 147 138
3 138 140 146
3 140 148 146
3 141 149 148
3 140 141 148
3 143 142 150
3 152 150 142
3 152 142 151
3 151 142 144
3 145 153 151
3 144 145 151
3 155 147 146
3 154 155 146
3 146 148 154
3 148 156 154
3 149 157 156
3 148 149 156
3 159 152 151
3 158 159 151
3 153 160 158
3 151 153 158
3 162 155 154
3 161 162 154
3 154 156 161
3 156 163 161
3 157 164 163
3 156 157 163
3 166 159 158
3 165 166 158
3 160 167 165
3 158 160 165
3 162 161 168
3 161 163 169
3 168 161 169
3 163 164 169
3 166 165 170
3 165 167 170
3 2 172 171
3 1 2 171
3 174 173 4
3 174 4 171
3 171 4 1
3 4 173 5
3 7 8 175
3 7 175 9
3 172 2 176
3 176 2 11
3 178 173 174
3 177 173 178
3 173 177 13
3 5 173 13
3 179 175 8
3 15 179 8
3 175 179 16
3 9 175 16
3 176 11 180
3 180 11 18
3 182 177 178
3 181 177 182
3 177 181 20
3 13 177 20
3 183 179 15
3 183 15 184
3 184 15 22
3 179 183 185
3 179 185 16
3 16 185 23
3 180 18 186
3 186 18 25
3 188 181 182
3 187 181 188
3 181 187 27
3 20 181 27
3 29 30 189
3 189 22 29
3 189 190 22
3 190 184 22
3 185 191 23
3 191 32 23
3 186 25 192
3 192 25 34
3 194 187 188
3 193 187 194
3 187 193 36
3 27 187 36
3 195 189 30
3 38 195 30
3 190 195 196
3 189 195 190
3 191 197 32
3 197 40 32
3 192 34 198
3 198 34 42
3 200 193 194
3 199 193 200
3 45 36 193
3 45 193 201
3 201 193 199
3 45 201 46
3 202 195 38
3 48 202 38
3 196 202 203
3 195 202 196
3 197 204 40
3 204 50 40
3 198 42 205
3 205 42 52
3 200 206 199
3 208 199 206
3 208 207 199
3 207 201 199
3 201 207 55
3 46 201 55
3 57 58 209
3 209 211 210
3 57 209 210
3 57 210 202
3 57 202 48
3 202 210 203
3 204 212 50
3 212 61 50
3 205 52 213
3 213 52 63
3 215 207 208
3 214 207 215
3 207 214 66
3 55 207 66
3 216 209 58
3 68 216 58
3 211 216 217
3 209 216 211
3 212 218 61
3 218 71 61
3 213 63 219
3 219 63 73
3 215 220 214
3 222 221 77
3 220 222 77
3 220 77 66
3 220 66 214
3 77 221 78
3 80 81 223
3 68 80 223
3 68 223 216
3 216 223 224
3 217 224 225
3 216 224 217
3 218 226 71
3 226 85 71
3 219 73 227
3 227 73 87
3 229 221 222
3 228 221 229
3 221 228 91
3 78 221 91
3 230 223 81
3 93 230 81
3 223 230 224
3 224 230 231
3 225 231 232
3 224 231 225
3 226 233 85
3 233 97 85
3 227 87 234
3 234 87 99
3 237 235 236
3 228 103 102
3 229 103 228
3 229 235 103
3 229 236 235
3 228 102 91
3 230 93 104
3 104 106 238
3 104 238 230
3 230 238 231
3 232 238 239
3 231 238 232
3 233 240 97
3 240 109 97
3 234 99 241
3 241 99 111
3 243 235 237
3 242 235 243
3 235 242 114
3 103 235 114
3 244 238 106
3 116 244 106
3 239 245 246
3 239 238 245
3 238 244 245
3 246 245 247
3 240 248 109
3 248 119 109
3 241 111 249
3 249 111 121
3 252 250 251
3 242 124 123
3 243 124 242
3 243 250 124
3 243 251 250
3 242 123 114
3 244 116 125
3 125 127 253
3 125 253 244
3 244 253 245
3 247 253 254
3 245 253 247
3 248 255 119
3 255 129 119
3 249 121 256
3 256 121 131
3 258 250 252
3 257 250 258
3 250 257 133
3 124 250 133
3 259 253 127
3 135 259 127
3 254 259 260
3 253 259 254
3 255 261 129
3 261 137 129
3 256 131 262
3 262 131 139
3 264 257 258
3 263 257 264
3 257 263 141
3 133 257 141
3 265 259 135
3 143 265 135
3 260 265 266
3 259 265 260
3 261 267 137
3 267 145 137
3 262 139 268
3 268 139 147
3 270 263 264
3 269 263 270
3 263 269 149
3 141 263 149
3 265 143 150
3 150 152 271
3 265 150 271
3 265 271 272
3 265 272 266
3 272 271 153
3 272 153 267
3 267 153 145
3 273 274 268
3 273 268 155
3 155 268 147
3 274 269 270
3 274 273 269
3 273 275 269
3 269 275 157
3 149 269 157
3 276 271 152
3 159 276 152
3 271 276 160
3 153 271 160
3 277 273 155
3 162 277 155
3 273 277 275
3 275 277 278
3 275 278 164
3 157 275 164
3 279 276 159
3 166 279 159
3 276 279 167
3 160 276 167
3 277 162 168
3 278 277 168
3 169 278 168
3 278 169 164
3 279 166 170
3 279 170 167
3 171 172 280
3 171 280 174
3 281 280 172
3 176 281 172
3 280 281 178
3 174 280 178
3 282 281 176
3 180 282 176
3 281 282 182
3 178 281 182
3 183 184 283
3 183 283 185
3 284 282 180
3 186 284 180
3 282 284 188
3 182 282 188
3 285 283 184
3 190 285 184
3 283 285 191
3 185 283 191
3 286 284 186
3 192 286 186
3 284 286 194
3 188 284 194
3 287 285 190
3 196 287 190
3 285 287 197
3 191 285 197
3 288 286 192
3 198 288 192
3 286 288 200
3 194 286 200
3 289 287 196
3 203 289 196
3 287 289 204
3 197 287 204
3 290 288 198
3 290 198 291
3 291 198 205
3 293 292 206
3 290 293 206
3 290 206 200
3 290 200 288
3 206 292 208
3 210 211 294
3 294 296 295
3 210 294 295
3 210 295 289
3 210 289 203
3 289 295 297
3 289 297 204
3 204 297 212
3 291 205 298
3 298 205 213
3 300 292 293
3 299 292 300
3 292 299 215
3 208 292 215
3 301 294 211
3 217 301 211
3 296 301 302
3 294 301 296
3 297 303 212
3 303 218 212
3 298 213 304
3 304 213 219
3 306 299 300
3 305 299 306
3 220 215 299
3 220 299 307
3 307 299 305
3 220 307 222
3 308 301 217
3 308 217 309
3 309 217 225
3 301 308 302
3 303 310 218
3 310 226 218
3 304 219 311
3 311 219 227
3 313 305 306
3 312 305 313
3 305 312 307
3 307 312 314
3 307 314 229
3 222 307 229
3 315 316 309
3 315 309 232
3 232 309 225
3 316 315 317
3 310 318 226
3 318 233 226
3 311 227 319
3 319 227 234
3 321 312 313
3 320 312 321
3 237 236 314
3 237 314 320
3 320 314 312
3 314 236 229
3 322 315 232
3 239 322 232
3 317 322 323
3 315 322 317
3 318 324 233
3 324 240 233
3 319 234 325
3 325 234 241
3 327 320 321
3 326 320 327
3 320 326 243
3 237 320 243
3 322 239 246
3 246 323 322
3 246 247 323
3 247 328 323
3 324 329 240
3 329 248 240
3 330 331 325
3 330 325 249
3 249 325 241
3 326 252 251
3 327 252 326
3 327 330 252
3 327 331 330
3 326 251 243
3 332 333 328
3 332 328 254
3 254 328 247
3 333 332 255
3 333 255 329
3 329 255 248
3 334 330 249
3 256 334 249
3 330 334 258
3 252 330 258
3 335 332 254
3 260 335 254
3 332 335 261
3 255 332 261
3 336 334 256
3 262 336 256
3 334 336 264
3 258 334 264
3 337 335 260
3 266 337 260
3 335 337 267
3 261 335 267
3 338 336 262
3 268 338 262
3 336 338 270
3 264 336 270
3 337 266 272
3 337 272 267
3 338 268 274
3 338 274 270
3 290 291 339
3 290 339 293
3 295 296 340
3 295 340 297
3 341 339 291
3 298 341 291
3 339 341 300
3 293 339 300
3 342 340 296
3 302 342 296
3 340 342 303
3 297 340 303
3 343 341 298
3 343 298 344
3 344 298 304
3 341 343 345
3 341 345 300
3 300 345 306
3 308 309 346
3 346 348 347
3 308 346 347
3 308 347 342
3 308 342 302
3 342 347 349
3 342 349 303
3 303 349 310
3 344 304 350
3 350 304 311
3 345 351 306
3 351 313 306
3 346 309 316
3 316 348 346
3 316 317 348
3 317 352 348
3 349 353 310
3 353 318 310
3 354 355 350
3 354 350 319
3 319 350 311
3 355 354 321
3 355 321 351
3 351 321 313
3 356 357 352
3 356 352 323
3 323 352 317
3 357 356 324
3 357 324 353
3 353 324 318
3 358 354 319
3 325 358 319
3 354 358 327
3 321 354 327
3 359 356 323
3 328 359 323
3 356 359 329
3 324 356 329
3 358 325 331
3 358 331 327
3 359 328 333
3 359 333 329
3 343 344 360
3 343 360 345
3 347 348 361
3 347 361 349
3 362 360 344
3 350 362 344
3 360 362 351
3 345 360 351
3 363 361 348
3 352 363 348
3 361 363 353
3 349 361 353
3 362 350 355
3 362 355 351
3 363 352 357
3 363 357 353
3 366 365 364
3 365 367 364
3 369 366 364
3 368 369 364
3 367 370 368
3 364 367 368
3 369 368 371
3 368 370 371
3 374 373 372
3 373 375 372
3 378 377 376
3 377 379 376
3 372 365 366
3 372 366 374
3 374 366 380
3 365 372 375
3 365 375 367
3 367 375 381
3 383 378 376
3 382 383 376
3 379 384 382
3 376 379 382
3 380 366 385
3 385 366 369
3 381 386 367
3 386 370 367
3 388 383 382
3 387 388 382
3 384 389 387
3 382 384 387
3 371 390 391
3 371 391 369
3 369 391 385
3 390 371 370
3 390 370 392
3 392 370 386
3 388 387 393
3 387 389 393
3 395 391 390
3 394 395 390
3 392 396 394
3 390 392 394
3 395 394 397
3 394 396 397
3 400 399 398
3 399 401 398
3 404 403 402
3 403 405 402
3 407 400 398
3 406 407 398
3 401 408 406
3 398 401 406
3 410 404 402
3 409 410 402
3 405 411 409
3 402 405 409
3 413 407 406
3 412 413 406
3 408 414 412
3 406 408 412
3 416 410 409
3 415 416 409
3 411 417 415
3 409 411 415
3 420 419 418
3 412 373 374
3 413 412 374
3 413 374 418
3 413 418 419
3 373 412 414
3 373 414 375
3 375 414 421
3 415 377 378
3 415 378 416
3 416 378 422
3 377 423 379
3 415 423 377
3 415 424 423
3 415 417 424
3 424 425 423
3 428 427 426
3 427 420 418
3 427 418 426
3 426 418 429
3 418 380 429
3 374 380 418
3 421 430 375
3 430 381 375
3 422 378 431
3 431 378 383
3 432 379 423
3 384 379 432
3 425 433 432
3 423 425 432
3 435 428 426
3 434 435 426
3 426 429 434
3 429 436 434
3 429 385 436
3 380 385 429
3 430 437 381
3 437 386 381
3 431 383 438
3 438 383 388
3 439 384 432
3 439 440 384
3 440 389 384
3 432 433 439
3 435 434 441
3 443 441 434
3 443 434 442
3 442 434 436
3 436 391 442
3 385 391 436
3 437 444 386
3 444 392 386
3 393 445 446
3 393 446 388
3 388 446 438
3 445 393 389
3 445 389 447
3 447 389 440
3 449 443 442
3 448 449 442
3 442 395 448
3 391 395 442
3 444 450 392
3 450 396 392
3 452 446 445
3 451 452 445
3 447 453 451
3 445 447 451
3 449 448 454
3 456 397 455
3 454 397 456
3 454 395 397
3 454 448 395
3 455 397 396
3 455 396 457
3 457 396 450
3 459 452 451
3 458 459 451
3 453 460 458
3 451 453 458
3 462 456 455
3 461 462 455
3 457 463 461
3 455 457 461
3 459 458 464
3 458 460 464
3 466 462 461
3 465 466 461
3 463 467 465
3 461 463 465
3 469 466 465
3 468 469 465
3 467 470 468
3 465 467 468
3 473 472 471
3 472 474 471
3 476 469 468
3 475 476 468
3 470 477 475
3 468 470 475
3 479 473 471
3 478 479 471
3 474 480 478
3 471 474 478
3 482 476 475
3 481 482 475
3 477 483 481
3 475 477 481
3 479 478 484
3 478 480 484
3 482 481 485
3 481 483 485
3 488 487 486
3 487 489 486
3 492 491 490
3 491 493 490
3 495 488 486
3 494 495 486
3 489 496 494
3 486 489 494
3 498 492 490
3 497 498 490
3 493 499 497
3 490 493 497
3 501 495 494
3 500 501 494
3 496 502 500
3 494 496 500
3 504 498 497
3 503 504 497
3 499 505 503
3 497 499 503
3 507 501 500
3 506 507 500
3 502 508 506
3 500 502 506
3 511 510 509
3 510 504 503
3 510 503 509
3 509 503 512
3 505 513 512
3 503 505 512
3 515 507 506
3 514 515 506
3 508 516 514
3 506 508 514
3 518 511 509
3 517 518 509
3 400 512 399
3 400 517 512
3 517 509 512
3 399 512 513
3 399 513 401
3 401 513 519
3 514 403 404
3 514 404 515
3 515 404 520
3 403 521 405
3 514 521 403
3 514 522 521
3 514 516 522
3 522 523 521
3 525 518 517
3 524 525 517
3 517 407 524
3 400 407 517
3 519 526 401
3 526 408 401
3 520 404 527
3 527 404 410
3 528 405 521
3 411 405 528
3 523 529 528
3 521 523 528
3 532 531 530
3 531 525 524
3 531 524 530
3 530 524 533
3 524 413 533
3 407 413 524
3 526 534 408
3 534 414 408
3 527 410 535
3 535 410 416
3 536 411 528
3 417 411 536
3 529 538 537
3 529 537 528
3 528 537 536
3 538 539 537
3 541 532 530
3 540 541 530
3 420 533 419
3 420 540 533
3 540 530 533
3 533 413 419
3 534 542 414
3 542 421 414
3 535 416 543
3 543 416 422
3 536 424 417
3 424 544 425
3 424 536 544
3 536 537 544
3 539 545 544
3 537 539 544
3 548 547 546
3 540 427 428
3 541 540 428
3 541 428 546
3 541 546 547
3 540 420 427
3 542 549 421
3 549 430 421
3 543 422 550
3 550 422 431
3 551 425 544
3 433 425 551
3 545 552 551
3 544 545 551
3 554 548 546
3 553 554 546
3 546 435 553
3 428 435 546
3 549 555 430
3 555 437 430
3 550 431 556
3 556 431 438
3 439 557 440
3 433 557 439
3 433 551 557
3 551 558 557
3 552 559 558
3 551 552 558
3 554 553 560
3 562 441 561
3 560 441 562
3 560 435 441
3 560 553 435
3 441 443 561
3 555 563 437
3 563 444 437
3 556 438 564
3 564 438 446
3 565 440 557
3 447 440 565
3 566 567 565
3 566 565 558
3 558 565 557
3 558 559 566
3 569 562 561
3 568 569 561
3 561 449 568
3 443 449 561
3 563 570 444
3 570 450 444
3 564 446 571
3 571 446 452
3 572 447 565
3 453 447 572
3 567 573 572
3 565 567 572
3 569 568 574
3 576 454 575
3 574 454 576
3 574 449 454
3 574 568 449
3 454 456 575
3 570 577 450
3 577 457 450
3 571 452 578
3 578 452 459
3 579 453 572
3 460 453 579
3 573 580 579
3 572 573 579
3 582 576 575
3 581 582 575
3 575 462 581
3 456 462 575
3 577 583 457
3 583 463 457
3 464 584 585
3 464 585 459
3 459 585 578
3 460 584 464
3 460 579 584
3 579 586 584
3 580 587 586
3 579 580 586
3 589 582 581
3 588 589 581
3 581 466 588
3 462 466 581
3 583 590 463
3 590 467 463
3 592 585 584
3 591 592 584
3 593 594 591
3 593 591 586
3 586 591 584
3 586 587 593
3 596 589 588
3 595 596 588
3 588 469 595
3 466 469 588
3 590 597 467
3 597 470 467
3 591 472 473
3 591 473 592
3 592 473 598
3 472 599 474
3 591 599 472
3 591 600 599
3 591 594 600
3 600 601 599
3 603 596 595
3 602 603 595
3 595 476 602
3 469 476 595
3 597 604 470
3 604 477 470
3 598 473 605
3 605 473 479
3 606 474 599
3 480 474 606
3 601 607 606
3 599 601 606
3 609 603 602
3 608 609 602
3 602 482 608
3 476 482 602
3 604 610 477
3 610 483 477
3 605 479 484
3 611 605 484
3 480 606 612
3 480 612 484
3 484 612 611
3 606 607 612
3 609 608 613
3 608 482 485
3 608 485 613
3 613 485 614
3 614 485 483
3 610 614 483
3 487 488 615
3 487 615 489
3 491 492 616
3 491 616 493
3 617 615 488
3 495 617 488
3 615 617 496
3 489 615 496
3 618 616 492
3 498 618 492
3 616 618 499
3 493 616 499
3 619 617 495
3 501 619 495
3 617 619 502
3 496 617 502
3 620 618 498
3 504 620 498
3 618 620 505
3 499 618 505
3 621 619 501
3 507 621 501
3 619 621 508
3 502 619 508
3 510 511 622
3 504 510 622
3 504 622 620
3 620 622 623
3 620 623 513
3 505 620 513
3 624 621 507
3 515 624 507
3 621 624 516
3 508 621 516
3 625 622 511
3 518 625 511
3 622 625 623
3 623 625 626
3 623 626 519
3 513 623 519
3 627 624 515
3 520 627 515
3 522 516 624
3 522 624 628
3 628 624 627
3 522 628 523
3 629 625 518
3 525 629 518
3 625 629 626
3 626 629 630
3 626 630 526
3 519 626 526
3 631 627 520
3 527 631 520
3 627 631 628
3 628 631 632
3 628 632 529
3 523 628 529
3 531 532 633
3 525 531 633
3 525 633 629
3 629 633 634
3 629 634 630
3 630 634 635
3 630 635 534
3 526 630 534
3 636 631 527
3 535 636 527
3 631 636 632
3 632 636 637
3 538 529 632
3 538 632 638
3 638 632 637
3 538 638 539
3 639 633 532
3 541 639 532
3 633 639 634
3 634 639 640
3 634 640 635
3 635 640 641
3 635 641 542
3 534 635 542
3 642 636 535
3 543 642 535
3 636 642 637
3 637 642 643
3 637 643 638
3 638 643 644
3 638 644 545
3 539 638 545
3 547 548 645
3 541 547 645
3 541 645 639
3 639 645 646
3 639 646 640
3 640 646 647
3 640 647 641
3 641 647 648
3 641 648 549
3 542 641 549
3 649 642 543
3 550 649 543
3 642 649 643
3 643 649 650
3 643 650 644
3 644 650 651
3 644 651 552
3 545 644 552
3 652 645 548
3 554 652 548
3 645 652 646
3 646 652 653
3 646 653 647
3 647 653 654
3 647 654 648
3 648 654 655
3 648 655 555
3 549 648 555
3 656 649 550
3 556 656 550
3 649 656 650
3 650 656 657
3 650 657 651
3 651 657 658
3 651 658 559
3 552 651 559
3 652 554 560
3 560 562 659
3 560 659 652
3 652 659 653
3 653 659 654
3 654 659 660
3 654 660 655
3 655 660 661
3 655 661 563
3 555 655 563
3 662 656 556
3 564 662 556
3 656 662 657
3 657 662 663
3 567 566 658
3 567 658 663
3 663 658 657
3 658 566 559
3 664 659 562
3 569 664 562
3 659 664 660
3 660 664 665
3 660 665 661
3 661 665 666
3 661 666 570
3 563 661 570
3 667 662 564
3 571 667 564
3 662 667 663
3 663 667 668
3 663 668 573
3 567 663 573
3 664 569 574
3 574 576 669
3 574 669 664
3 664 669 665
3 665 669 666
3 666 669 670
3 666 670 577
3 570 666 577
3 671 667 571
3 578 671 571
3 667 671 668
3 668 671 672
3 668 672 580
3 573 668 580
3 673 669 576
3 582 673 576
3 669 673 670
3 670 673 674
3 670 674 583
3 577 670 583
3 675 671 578
3 585 675 578
3 671 675 672
3 672 675 676
3 672 676 587
3 580 672 587
3 677 673 582
3 589 677 582
3 673 677 674
3 674 677 678
3 674 678 590
3 583 674 590
3 679 675 585
3 592 679 585
3 594 593 676
3 594 676 679
3 679 676 675
3 676 593 587
3 680 677 589
3 596 680 589
3 677 680 678
3 678 680 681
3 678 681 597
3 590 678 597
3 682 679 592
3 598 682 592
3 600 594 679
3 600 679 683
3 683 679 682
3 600 683 601
3 684 680 596
3 603 684 596
3 680 684 681
3 681 684 685
3 681 685 604
3 597 681 604
3 686 682 598
3 605 686 598
3 682 686 683
3 683 686 687
3 683 687 607
3 601 683 607
3 688 684 603
3 609 688 603
3 684 688 685
3 685 688 689
3 685 689 610
3 604 685 610
3 686 605 611
3 687 686 611
3 612 687 611
3 687 612 607
3 688 609 613
3 689 688 613
3 614 689 613
3 689 614 610
