ply
format ascii 1.0
element vertex 10
property float x
property float y
property float z
property uchar red
property uchar green
property uchar blue
element face 16
property list uchar int vertex_indices
end_header
-1.725028395652771 8 -4 137 190 145
-1 7.96935606002807617 -4 141 188 158
-1 8 -4.33787155151367188 142 185 138
-1.69117951393127441 8 -3 139 193 159
-1 7.97078609466552734 -3 141 190 172
-1 8 -2.6877894401550293 141 192 166
-1 8.28085422515869141 -4 140 189 152
-1 8.27131748199462891 -3 141 192 166
-0.383871853351593018 8 -4 140 189 152
-0.412636458873748779 8 -3 141 192 166
3 2 1 0
3 1 4 3
3 0 1 3
3 4 5 3
3 2 0 6
3 0 3 7
3 6 0 7
3 3 5 7
3 1 2 8
3 4 1 8
3 9 4 8
3 4 9 5
3 8 2 6
3 9 8 6
3 7 9 6
3 9 7 5
