ply
format ascii 1.0
element vertex 714
property float x
property float y
property float z
property uchar red
property uchar green
property uchar blue
element face 1428
property list uchar int vertex_indices
end_header
-9.86965751647949219 7 -4 205 194 188
-9 6.75849103927612305 -4 194 155 149
-9 7 -4.38569927215576172 203 138 122
-9.93336296081542969 7 -3 204 162 130
-9 6.62465333938598633 -3 187 169 165
-9.94312095642089844 7 -2 202 148 93
-9 6.61895990371704102 -2 181 128 109
-9.94537067413330078 7 -1 201 149 80
-9 6.62810802459716797 -1 178 113 81
-9.94584465026855469 7 0 200 158 79
-9 6.62447595596313477 0 177 120 81
-9.94465446472167969 7 1 200 172 89
-9 6.60715770721435547 1 178 143 108
-9.93690395355224609 7 2 200 188 124
-9 6.60108137130737305 2 182 175 165
-9.88818931579589844 7 3 200 200 193
-9 6.71179676055908203 3 188 172 136
-9 7 3.47400307655334473 194 169 82
-9.84415721893310547 8 -4 193 57 35
-9 8 -4.16552972793579102 197 62 41
-9.95837306976318359 8 -3 195 64 7
-9.96905136108398438 8 -2 196 119 60
-9.97189235687255859 8 -1 196 151 99
-9.97199058532714844 8 0 195 159 100
-9.96943950653076172 8 1 194 153 66
-9.95971298217773438 8 2 192 141 13
-9.87120151519775391 8 3 188 139 16
-9 8 3.21054482460021973 193 190 179
-9 8.84415721893310547 -4 197 183 177
-9 8.95837306976318359 -3 196 159 140
-9 8.96905136108398438 -2 194 142 109
-9 8.97189235687255859 -1 193 141 98
-9 8.97199058532714844 0 192 148 97
-9 8.96943950653076172 1 192 160 105
-9 8.95971298217773438 2 193 177 133
-9 8.87120151519775391 3 193 190 179
-8.067840576171875 7 -6 205 167 161
-8 6.86660099029541016 -6 197 164 162
-8 7 -6.09899520874023438 205 201 201
-8.59218120574951172 7 -5 203 138 122
-8 6.61779165267944336 -5 186 115 112
-8 6.67389965057373047 -4 175 24 22
-8 6.76334238052368164 -3 164 14 0
-8 6.83553695678710938 -2 155 42 21
-8 6.87417697906494141 -1 149 68 43
-8 6.87209749221801758 0 148 77 45
-8 6.82914113998413086 1 151 74 25
-8 6.75185871124267578 2 157 75 1
-8 6.65487384796142578 3 166 102 18
-8.65500164031982422 7 4 197 190 113
-8 6.58412265777587891 4 177 155 109
-8.1074066162109375 7 5 197 198 162
-8 6.79077386856079102 5 187 178 143
-8 7 5.15830326080322266 193 183 108
-8 7.6296544075012207 -6 201 122 121
-8.50053787231445312 8 -5 197 62 41
-8 8 -5.93514251708984375 198 126 122
-8.52969837188720703 8 4 191 173 51
-8.00164031982421875 8 5 186 157 22
-8 8 5.00223302841186523 190 185 120
-8 8.96474647521972656 -5 196 155 151
-8 8.97507667541503906 -4 192 127 119
-8 8.97739887237548828 -3 188 133 125
-8 8.97805404663085938 -2 183 148 140
-8 8.97822856903076172 -1 180 156 149
-8 8.97825908660888672 0 180 157 146
-8 8.97814750671386719 1 181 152 131
-8 8.9775848388671875 2 183 150 112
-8 8.97547721862792969 3 187 160 106
-8 8.96617698669433594 4 189 180 140
-8 8.10672855377197266 5 190 185 120
-7.19209623336791992 7 -7 205 201 201
-7 6.74545574188232422 -7 196 190 189
-7 7 -7.19381618499755859 206 185 183
-7 6.6265721321105957 -6 182 72 48
-7 6.75961780548095703 -5 166 22 2
-7 6.91615200042724609 -4 148 78 74
-7.23135852813720703 7 -3 179 113 108
-7 7 -3.42989850044250488 167 27 12
-7.53529071807861328 7 -2 172 75 60
-7.66333198547363281 7 -1 168 65 38
-7.6582179069519043 7 0 167 75 38
-7.5192408561706543 7 1 169 100 60
-7.20081043243408203 7 2 174 139 109
-7 6.90511655807495117 3 138 114 93
-7 7 2.3678886890411377 148 55 4
-7 6.74335527420043945 4 153 89 7
-7 6.59862470626831055 5 169 125 40
-7.24561071395874023 7 6 196 196 190
-7 6.68102312088012695 6 183 182 182
-7 7 6.24791145324707031 190 182 128
-7.09079551696777344 8 -7 195 33 6
-7 8 -7.09113788604736328 195 57 10
-7.94779825210571289 8 -6 198 126 122
-7 7.08826780319213867 -3 155 6 2
-7 7.22155094146728516 -2 145 32 26
-7 7.2812800407409668 -1 139 59 48
-7 7.27973222732543945 0 137 67 50
-7 7.21643257141113281 1 141 60 30
-7 7.07767295837402344 2 148 55 4
-7.12419891357421875 8 6 186 170 0
-7 8 6.1248316764831543 188 185 122
-7 8.84805488586425781 -7 198 140 136
-7 8.97179985046386719 -6 195 155 152
-7 8.97742462158203125 -5 188 155 152
-7 8.97827816009521484 -4 180 168 167
-7 8.97798538208007812 -3 172 106 104
-7 8.97733974456787109 -2 165 65 62
-7 8.9768524169921875 -1 160 54 42
-7 8.9768829345703125 0 159 63 42
-7 8.97742366790771484 1 161 88 62
-7 8.97810745239257812 2 166 128 107
-7 8.97844123840332031 3 173 172 171
-7 8.97770023345947266 4 180 162 132
-7 8.97261238098144531 5 186 176 139
-7 8.88331508636474609 6 188 185 122
-6.12220382690429688 7 -8 206 185 183
-6 6.83109283447265625 -8 199 194 192
-6 7 -8.08523273468017578 206 134 113
-6 6.61453771591186523 -7 183 82 38
-6 6.78670263290405273 -6 163 51 15
-6.01065683364868164 7 -5 180 101 87
-6 7 -5.01158285140991211 178 87 53
-6.73847532272338867 7 -4 167 27 12
-6.70814752578735352 7 3 159 76 10
-6 6.99347114562988281 4 125 106 87
-6 7 3.97162222862243652 131 90 67
-6 6.7740483283996582 5 147 97 32
-6 6.59105730056762695 6 167 119 26
-6.17672109603881836 7 7 192 194 160
-6 6.76331424713134766 7 182 181 175
-6 7 7.12193727493286133 189 185 155
-6 7.76551103591918945 -8 202 172 162
-6 8 -7.96557998657226562 198 114 95
-6 7.00345802307128906 -5 160 35 0
-6 7.27567148208618164 -4 141 65 51
-6 7.43924474716186523 -3 124 123 122
-6 7.53610372543334961 -2 111 56 55
-6 7.5823211669921875 -1 103 33 28
-6 7.58173418045043945 0 102 35 25
-6 7.53425693511962891 1 106 55 42
-6 7.43574380874633789 2 117 101 94
-6 7.26918554306030273 3 131 90 67
-6.01406955718994141 8 7 184 174 3
-6 8 7.01042509078979492 186 183 72
-6 8.97202682495117188 -7 195 175 170
-6 8.97789382934570312 -6 187 182 180
-6 8.97824001312255859 -5 176 123 108
-6 8.97691440582275391 -4 162 55 31
-6 8.97434806823730469 -3 149 19 1
-6 8.9712066650390625 -2 139 12 4
-6 8.96893119812011719 -1 132 17 15
-6 8.96897602081298828 0 131 26 16
-6 8.97131919860839844 1 135 28 6
-6 8.97448825836181641 2 143 36 0
-6 8.97705745697021484 3 154 72 29
-6 8.97838878631591797 4 166 134 108
-6 8.978118896484375 5 176 169 159
-6 8.97277450561523438 6 184 179 162
-6 8.43095970153808594 7 186 183 72
-5 6.57642889022827148 -8 190 119 72
-5 7 -8.65329360961914062 205 200 197
-5 6.73776578903198242 -7 168 62 6
-5 6.99061441421508789 -6 141 138 137
-5 7 -5.96778440475463867 161 53 0
-5.97721576690673828 7 4 148 67 2
-5 6.9871373176574707 5 122 96 70
-5 7 4.95608711242675781 123 112 105
-5 6.73082351684570312 6 148 95 23
-5 6.55787849426269531 7 170 132 49
-5 7 7.70329618453979492 181 180 177
-5.95814275741577148 8 -8 198 114 95
-5 8 -8.52219104766845703 196 71 14
-5 7.32208108901977539 -5 136 93 78
-5 7.5275883674621582 -4 112 69 59
-5 7.66689252853393555 -3 90 16 5
-5 7.76073646545410156 -2 75 5 1
-5 7.8094172477722168 -1 67 6 6
-5 7.80948448181152344 0 66 12 8
-5 7.76087617874145508 1 71 14 4
-5 7.66694164276123047 2 83 18 0
-5 7.52727890014648438 3 101 49 27
-5 7.32067298889160156 4 123 112 105
-5 8 7.54980278015136719 183 179 157
-5 8.96593379974365234 -8 197 192 191
-5 8.97767257690429688 -7 189 187 186
-5 8.97836494445800781 -6 176 123 96
-5 8.97645473480224609 -5 159 57 12
-5 8.97155475616455078 -4 140 38 6
-5 8.96246910095214844 -3 122 62 50
-5 8.94905376434326172 -2 108 93 91
-5 8.93667316436767578 -1 100 89 89
-5 8.93667697906494141 0 99 84 84
-5 8.94908428192138672 1 104 100 99
-5 8.96253299713134766 2 115 71 61
-5 8.97163581848144531 3 130 42 12
-5 8.97654056549072266 4 147 56 8
-5 8.97846126556396484 5 163 123 88
-5 8.97785663604736328 6 176 174 172
-5 8.96702671051025391 7 183 179 157
-4.50463962554931641 7 -9 205 200 197
-4 6.66116809844970703 -9 199 176 156
-4 7 -9.901123046875 206 139 104
-4 6.62427234649658203 -8 179 81 5
-4 6.88193368911743164 -7 151 107 82
-4.95566844940185547 7 -6 161 53 0
-4 7 -6.63904905319213867 169 74 4
-4.94191789627075195 7 5 145 69 6
-4 6.88632297515869141 6 129 126 122
-4 7 5.65435361862182617 125 105 92
-4 6.62615633010864258 7 157 93 0
-4.56302213668823242 7 8 190 189 167
-4 6.64778995513916016 8 177 160 112
-4 7 8.90575981140136719 185 183 175
-4.22268342971801758 8 -9 196 71 14
-4 8 -9.88141155242919922 191 141 86
-4 7.24714422225952148 -6 141 85 55
-4 7.51557064056396484 -5 110 75 61
-4 7.70209884643554688 -4 82 18 1
-4 7.84798097610473633 -3 59 16 8
-4 7.95496034622192383 -2 44 23 21
-4.05943441390991211 8 -1 100 89 89
-4 8 -1.21881008148193359 77 28 20
-4.06361055374145508 8 0 99 84 84
-4 7.9576268196105957 1 40 29 28
-4 8 0.242243781685829163 67 5 5
-4 7.85180854797363281 2 53 26 20
-4 7.70662498474121094 3 72 20 3
-4 7.52083110809326172 4 97 44 19
-4 7.25387477874755859 5 125 105 92
-4.25855255126953125 8 8 183 180 4
-4 8 8.89332389831542969 183 174 58
-4 8.88141155242919922 -9 197 138 110
-4 8.97578811645507812 -8 193 188 184
-4 8.97862720489501953 -7 181 149 126
-4 8.97730827331542969 -6 162 78 22
-4 8.97204685211181641 -5 139 52 7
-4 8.95839595794677734 -4 114 81 69
-4 8.92099380493164062 -3 93 71 65
-4 8.76941967010498047 -2 77 28 20
-4 8.75864219665527344 1 73 16 12
-4 8.91929531097412109 2 86 47 41
-4 8.95794010162353516 3 105 93 90
-4 8.97190952301025391 4 127 48 18
-4 8.9772796630859375 5 148 61 11
-4 8.97864818572998047 6 166 136 106
-4 8.97594070434570312 7 178 175 167
-4 8.89332389831542969 8 183 174 58
-3 6.52177095413208008 -9 194 141 90
-3 7 -9.94531059265136719 206 188 177
-3 6.70254707336425781 -8 169 79 6
-3.07836794853210449 7 -7 169 74 4
-3 7 -7.03707647323608398 182 120 60
-3.18762850761413574 7 6 151 70 0
-3 6.71803045272827148 7 145 96 41
-3 7 6.09564495086669922 137 75 33
-3 6.54017114639282227 8 170 122 41
-3 7 8.94407844543457031 179 168 144
-3 8 -9.96226882934570312 193 85 0
-3 7.01466464996337891 -7 155 72 7
-3 7.40066766738891602 -6 121 119 117
-3 7.64197158813476562 -5 86 31 8
-3 7.83343982696533203 -4 55 17 5
-3 7.99580192565917969 -3 33 21 18
-3.70692706108093262 8 -2 77 28 20
-3 8 -2.96372056007385254 66 22 10
-3.72932767868041992 8 1 73 16 12
-3.02820777893066406 8 2 86 47 41
-3 7.84359407424926758 3 48 28 23
-3 8 2.02679443359375 61 7 1
-3 7.65323734283447266 4 75 21 1
-3 7.41490983963012695 5 106 70 51
-3 7.03785848617553711 6 137 75 33
-3 8 8.96233844757080078 181 166 98
-3 8.96226882934570312 -9 196 179 169
-3 8.97807502746582031 -8 188 184 180
-3 8.97855281829833984 -7 172 117 69
-3 8.97533321380615234 -6 147 63 0
-3 8.96464061737060547 -5 118 73 47
-3 8.92723178863525391 -4 90 73 67
-3 8.23254203796386719 -3 66 22 10
-3 8.92313003540039062 3 82 40 32
-3 8.96378231048583984 4 108 85 78
-3 8.97504901885986328 5 134 41 3
-3 8.97843837738037109 6 156 87 42
-3 8.97800159454345703 7 172 157 137
-3 8.96233844757080078 8 181 166 98
-2 6.50382423400878906 -9 189 121 50
-2 7 -9.95412349700927734 205 203 202
-2 6.76049423217773438 -8 159 88 31
-2 7 -7.32081890106201172 175 102 27
-2 6.78742313385009766 7 135 117 100
-2 7 6.40081787109375 126 98 84
-2 6.54166507720947266 8 164 94 8
-2 7 8.95139884948730469 175 146 106
-2 8 -9.97157382965087891 194 89 18
-2 7.13813018798828125 -7 143 80 30
-2 7.48533964157104492 -6 104 80 66
-2 7.72031068801879883 -5 66 19 0
-2 7.921722412109375 -4 35 17 11
-2.95641994476318359 8 -3 66 22 10
-2 8 -3.53465890884399414 69 38 25
-2 7.93805456161499023 3 30 27 26
-2 8 2.62405157089233398 40 4 1
-2 7.73774242401123047 4 58 23 12
-2 7.50598478317260742 5 91 34 10
-2 7.17092323303222656 6 126 98 84
-2 8 8.9710845947265625 178 158 110
-2 8.97157382965087891 -9 194 193 192
-2 8.97881031036376953 -8 184 170 156
-2 8.97823715209960938 -7 163 99 36
-2 8.97319793701171875 -6 134 62 6
-2 8.95561695098876953 -5 101 85 77
-2 8.85267353057861328 -4 69 38 25
-2 8.82115364074707031 3 63 12 4
-2 8.9531097412109375 4 92 73 69
-2 8.97249698638916016 5 122 51 29
-2 8.97795581817626953 6 148 55 10
-2 8.97861099243164062 7 167 132 101
-2 8.9710845947265625 8 178 158 110
-1 6.49511861801147461 -9 185 113 34
-1 7 -9.95745182037353516 204 194 186
-1 6.78288078308105469 -8 152 94 47
-1 7 -7.41345643997192383 169 95 15
-1 6.819915771484375 7 130 128 127
-1 7 6.51539468765258789 119 114 111
-1 6.54876089096069336 8 160 80 0
-1 7 8.95360374450683594 172 127 81
-1 8 -9.97428703308105469 193 103 46
-1 7.18329381942749023 -7 134 84 43
-1 7.51747369766235352 -6 92 61 43
-1 7.75211906433105469 -5 52 16 0
-1 7.95879554748535156 -4 22 12 9
-1 8 -3.75612497329711914 55 25 12
-1 7.9804377555847168 3 18 17 17
-1 8 2.88083171844482422 27 4 3
-1 7.77498626708984375 4 46 24 18
-1 7.54386568069458008 5 82 23 1
-1 7.22443628311157227 6 119 114 111
-1 8 8.97355365753173828 176 150 105
-1 8.97428703308105469 -9 192 188 184
-1 8.97911643981933594 -8 180 162 144
-1 8.97809696197509766 -7 156 91 24
-1 8.97206687927246094 -6 124 62 13
-1 8.95000839233398438 -5 88 85 83
-1 8.74835109710693359 -4 55 25 12
-1 8.58566951751708984 3 51 5 0
-1 8.94552040100097656 4 81 47 41
-1 8.97094345092773438 5 114 62 49
-1 8.97765636444091797 6 143 39 1
-1 8.97881889343261719 7 164 112 78
-1 8.97355365753173828 8 176 150 105
0 6.46654891967773438 -9 184 114 37
0 7 -9.95935535430908203 203 190 179
0 6.76376581192016602 -8 149 91 42
0 7 -7.3586277961730957 167 96 17
0 6.80919027328491211 7 129 126 123
0 7 6.48286914825439453 117 113 112
0 6.53548288345336914 8 160 72 0
0 7 8.95467185974121094 172 118 71
0 8 -9.97478389739990234 191 105 53
0 7.16035223007202148 -7 130 80 39
0 7.50165748596191406 -6 87 60 44
0 7.73639583587646484 -5 46 14 0
0 7.94058084487915039 -4 15 8 6
0 8 -3.64621329307556152 49 23 12
0 7.96516752243041992 3 13 12 12
0 8 2.78547024726867676 22 3 2
0 7.76278877258300781 4 42 21 16
0 7.53276824951171875 5 79 20 1
0 7.21046257019042969 6 117 113 112
0 8 8.97377395629882812 175 141 94
0 8.97478389739990234 -9 190 182 176
0 8.97928810119628906 -8 178 163 147
0 8.97834396362304688 -7 153 91 26
0 8.97272014617919922 -6 120 60 11
0 8.95272731781005859 -5 83 78 75
0 8.81096172332763672 -4 49 23 12
0 8.71558189392089844 3 46 4 0
0 8.94803810119628906 4 78 44 39
0 8.97144317626953125 5 111 60 50
0 8.97782039642333984 6 141 33 1
0 8.97891616821289062 7 163 102 69
0 8.97377395629882812 8 175 141 94
1 6.41247987747192383 -9 185 126 57
1 7 -9.96013259887695312 202 190 180
1 6.70242929458618164 -8 151 83 23
1 7 -7.14300727844238281 168 105 33
1 6.75469875335693359 7 134 118 109
1 7 6.29291391372680664 121 96 88
1 6.49895858764648438 8 163 69 2
1 7 8.95474433898925781 174 118 77
1 8 -9.97345447540283203 187 92 35
1 7.06324243545532227 -7 132 72 21
1 7.43692398071289062 -6 89 74 65
1 7.67462396621704102 -5 48 15 0
1 7.87029552459716797 -4 17 7 4
1 8 -3.21431517601013184 52 32 23
1 7.89491415023803711 3 14 12 12
1 8 2.34099411964416504 24 1 0
1 7.70224571228027344 4 45 15 9
1 7.47194528579711914 5 83 25 9
1 7.12524938583374023 6 121 96 88
1 8 8.971923828125 175 132 78
1 8.97345447540283203 -9 189 180 174
1 8.97934627532958984 -8 177 171 164
1 8.97889137268066406 -7 154 100 42
1 8.97478771209716797 -6 121 57 2
1 8.96120643615722656 -5 85 68 57
1 8.90548133850097656 -4 52 32 23
1 8.88593864440917969 3 49 7 4
1 8.95805263519287109 4 81 62 60
1 8.97369766235351562 5 115 44 33
1 8.97838973999023438 6 144 32 4
1 8.97891044616699219 7 164 103 74
1 8.971923828125 8 175 132 78
2 6.34589910507202148 -9 189 149 101
2 7 -9.95795154571533203 201 200 199
2 6.60092639923095703 -8 158 79 2
1.35416221618652344 7 -7 132 72 21
2 6.91907978057861328 -7 115 114 114
2 7 -6.77394533157348633 140 69 2
1.7292104959487915 7 6 121 96 88
2 6.96585273742675781 6 105 46 20
2 7 5.90384387969970703 93 52 42
2 6.66024208068847656 7 143 85 57
2 6.45708179473876953 8 169 77 17
2 7 8.951080322265625 177 127 90
2 8 -9.96806526184082031 182 73 5
2 7.31360769271850586 -6 99 89 82
2 7.56848239898681641 -5 59 26 10
2 7.75605392456054688 -4 26 7 1
1.28396081924438477 8 -3 26 6 0
2 7.90880918502807617 -3 3 1 1
2 8 -2.19128704071044922 37 16 9
1.43249547481536865 8 2 24 1 0
2 7.92695951461791992 2 1 1 1
2 8 1.31103396415710449 18 0 0
2 7.77857208251953125 3 23 11 10
2 7.59595060348510742 4 55 9 0
2 7.35349559783935547 5 93 52 42
2 8 8.96497631072998047 176 122 51
2 8.96806526184082031 -9 187 186 185
2 8.97911357879638672 -8 179 174 169
2 8.97944545745849609 -7 159 120 77
2 8.97715950012207031 -6 129 62 1
2 8.96968650817871094 -5 95 55 28
2 8.94868850708007812 -4 63 58 55
2 8.86823749542236328 -3 37 16 9
2 8.84060192108154297 2 35 1 1
2 8.94388866424560547 3 60 26 24
2 8.96801471710205078 4 91 73 71
2 8.97640514373779297 5 123 21 8
2 8.97902679443359375 6 150 44 20
2 8.97857475280761719 7 168 113 86
2 8.96497631072998047 8 176 122 51
3 6.33581686019897461 -9 195 181 164
3 7 -9.94464588165283203 199 164 145
3 6.46287727355957031 -8 169 92 9
3 6.75980949401855469 -7 131 90 57
3 7 -6.24013137817382812 152 81 8
3 6.8055272102355957 6 122 107 102
3 7 5.37803745269775391 110 96 93
3 6.53314924240112305 7 155 52 7
3 6.49298954010009766 8 177 102 53
3 7 8.93028926849365234 181 135 97
3 8 -9.93885898590087891 174 90 22
3 7.09845638275146484 -6 116 69 33
3 7.40976381301879883 -5 78 63 55
3 7.60344648361206055 -4 45 14 2
3 7.74438858032226562 -3 20 5 1
2.11941885948181152 8 -2 19 4 0
3 7.84432077407836914 -2 4 2 1
2.4356689453125 8 -1 11 1 0
3 7.89862442016601562 -1 3 1 1
2.45577073097229004 8 0 10 1 0
3 7.90193033218383789 0 3 2 2
2.18080592155456543 8 1 18 0 0
3 7.8538360595703125 1 2 1 1
3 7.75925445556640625 2 17 6 5
3 7.62346839904785156 3 42 5 1
3 7.43795967102050781 4 74 22 14
3 7.14863157272338867 5 110 96 93
3 8 8.9212646484375 175 112 12
3 8.93885898590087891 -9 184 157 143
3 8.97794437408447266 -8 180 167 155
3 8.97972011566162109 -7 165 148 130
3 8.97892189025878906 -6 141 83 27
3 8.97555351257324219 -5 111 49 2
3 8.96746635437011719 -4 82 55 39
3 8.95084953308105469 -3 57 50 48
3 8.91995525360107422 -2 39 20 14
3 8.87988471984863281 -1 30 9 5
3 8.87630748748779297 0 30 6 3
3 8.91515922546386719 1 38 9 8
3 8.94802474975585938 2 55 28 27
3 8.96597766876220703 3 79 71 71
3 8.97474765777587891 4 108 28 23
3 8.97846508026123047 5 136 15 1
3 8.97936248779296875 6 158 74 54
3 8.97711563110351562 7 171 121 93
3 8.9212646484375 8 175 112 12
4 6.85686254501342773 -9 200 189 177
4 7 -9.64707279205322266 194 90 38
4 6.31052637100219727 -8 182 130 71
4 6.56970787048339844 -7 151 75 3
3.31554055213928223 7 -6 116 69 33
4 6.84212589263916016 -6 113 104 97
4 7 -5.43500328063964844 137 65 0
3.48068523406982422 7 5 110 96 93
4 6.87691783905029297 5 107 65 53
4 7 4.55227231979370117 100 96 95
4 6.61823844909667969 6 142 67 43
4 6.40221357345581055 7 169 58 12
3.85099005699157715 7 8 181 135 97
4 7 7.90702724456787109 176 115 89
3.50707888603210449 8 -9 184 157 143
4 7.10939216613769531 -9 196 181 171
4 8 -8.70465373992919922 179 88 48
4 7.15565919876098633 -5 104 71 49
4 7.3984684944152832 -4 72 56 48
4 7.54685306549072266 -3 47 16 5
4 7.64080905914306641 -2 30 5 0
4 7.68900585174560547 -1 21 3 1
4 7.69149398803710938 0 21 2 1
4 7.64821910858154297 1 28 1 0
4 7.55937528610229492 2 44 2 0
4 7.41792678833007812 3 69 22 18
4 7.1897430419921875 4 100 96 95
3.37743759155273438 8 8 175 112 12
4 8 7.6319580078125 174 114 69
4 8.97268772125244141 -8 181 173 168
4 8.97938251495361328 -7 172 168 165
4 8.97975444793701172 -6 155 122 90
4 8.97869968414306641 -5 131 67 13
4 8.97584629058837891 -4 106 43 3
4 8.97085285186767578 -3 84 47 29
4 8.96444225311279297 -2 67 55 51
4 8.95930290222167969 -1 59 57 56
4 8.95899677276611328 0 58 53 52
4 8.96376323699951172 1 66 62 62
4 8.97016525268554688 2 82 49 47
4 8.97531032562255859 3 103 17 16
4 8.97832679748535156 4 128 5 0
4 8.97947502136230469 5 150 50 38
4 8.97895240783691406 6 166 110 93
4 8.97070789337158203 7 174 114 69
4.05676984786987305 7 -9 196 181 171
5 6.3070988655090332 -8 193 181 167
5 7 -8.33833885192871094 194 158 142
5 6.35239601135253906 -7 171 102 28
5 6.60049343109130859 -6 142 72 14
4.41858196258544922 7 -5 104 71 49
5 6.83112287521362305 -5 108 103 99
5 7 -4.22046470642089844 133 59 0
4.51159477233886719 7 4 100 96 95
5 6.85493087768554688 4 103 69 63
5 7 3.31575465202331543 103 66 65
5 6.63431358337402344 5 135 67 52
5 6.41282320022583008 6 163 38 2
5 6.45529508590698242 7 181 111 79
5 7 7.26211071014404297 183 137 108
5 8 -8.14293861389160156 168 72 15
5 7.06610298156738281 -4 106 63 37
5 7.27509975433349609 -3 83 80 79
5 7.38943386077880859 -2 66 43 37
5 7.44250679016113281 -1 57 24 18
5 7.44462347030639648 0 56 19 15
5 7.39614343643188477 1 64 27 25
5 7.28807353973388672 2 80 61 61
5 7.09095668792724609 3 103 66 65
5 8 7.09425783157348633 173 97 8
5 8.91284656524658203 -8 178 135 118
5 8.97655963897705078 -7 176 166 158
5 8.97966766357421875 -6 166 163 161
5 8.97983074188232422 -5 151 114 83
5 8.9791717529296875 -4 132 67 21
5 8.97778987884521484 -3 114 41 0
5 8.97606372833251953 -2 100 33 4
5 8.97479438781738281 -1 93 32 13
5 8.97472381591796875 0 92 29 15
5 8.97588348388671875 1 99 20 9
5 8.977569580078125 2 112 9 0
5 8.97896575927734375 3 129 9 7
5 8.979644775390625 4 147 50 45
5 8.97939109802246094 5 162 106 97
5 8.9756317138671875 6 171 121 99
5 8.87435531616210938 7 173 97 8
5.51524257659912109 7 -8 191 176 163
6 6.23703956604003906 -7 188 163 136
6 7 -7.56974601745605469 192 178 172
6 6.33603334426879883 -6 168 94 23
6 6.54499149322509766 -5 143 66 7
5.15418481826782227 7 -4 106 63 37
6 6.7257990837097168 -4 117 85 67
5.64848089218139648 7 -3 83 80 79
6 6.87177848815917969 -3 95 79 73
5.94664382934570312 7 -2 66 43 37
6 6.97947835922241211 -2 79 37 26
6 7 -1.65180957317352295 107 50 28
5.96192312240600586 7 1 64 27 25
6 6.98526811599731445 1 77 18 17
6 7 0.732743501663208008 99 55 47
5.6784977912902832 7 2 80 61 61
6 6.88148832321166992 2 92 51 49
5.21230316162109375 7 3 103 66 65
6 6.74033451080322266 3 113 97 96
6 6.56787776947021484 4 138 38 24
6 6.37780380249023438 5 162 31 5
6 6.33251857757568359 6 180 102 77
5.40501880645751953 7 7 183 137 108
6 7 6.48438024520874023 181 141 125
5.19992542266845703 8 -8 178 135 118
6 8 -7.29929971694946289 169 47 0
6 7.05497121810913086 -1 100 56 44
6 7.05761003494262695 0 99 55 47
5.13225460052490234 8 7 173 97 8
6 8 6.25057029724121094 171 94 30
6 8.94710159301757812 -7 175 143 130
6 8.97677898406982422 -6 173 166 162
6 8.97957229614257812 -5 165 163 161
6 8.97994422912597656 -4 154 127 108
6 8.97981166839599609 -3 142 90 58
6 8.97950363159179688 -2 132 61 28
6 8.97924327850341797 -1 127 45 15
6 8.97922229766845703 0 126 37 13
6 8.97944545745849609 1 131 37 22
6 8.97973060607910156 2 140 51 43
6 8.97983741760253906 3 151 80 80
6 8.97936820983886719 4 162 120 115
6 8.97612094879150391 5 169 126 112
6 8.9385223388671875 6 171 94 30
6.58309125900268555 7 -7 188 178 169
7 6.24305057525634766 -6 188 164 142
7 7 -6.54957675933837891 189 169 161
7 6.25188875198364258 -5 173 105 48
7 6.40260887145996094 -4 155 64 1
7 6.53446054458618164 -3 139 54 10
7 6.62503671646118164 -2 126 62 38
6.11479997634887695 7 -1 100 56 44
7 6.67156267166137695 -1 118 70 57
6.12029504776000977 7 0 99 55 47
7 6.67293977737426758 0 118 68 60
7 6.62942790985107422 1 124 51 45
7 6.54291820526123047 2 136 19 17
7 6.4180450439453125 3 151 5 0
7 6.28205776214599609 4 168 44 30
7 6.31557321548461914 5 182 118 103
6.50893783569335938 7 6 181 141 125
7 7 5.48116540908813477 181 149 138
6.30355548858642578 8 -7 175 143 130
7 8 -6.22597312927246094 166 38 0
6.2575688362121582 8 6 171 94 30
7 8 5.18445062637329102 168 85 26
7 8.92303085327148438 -6 172 118 103
7 8.97379875183105469 -5 171 167 165
7 8.97857952117919922 -4 167 166 165
7 8.97964191436767578 -3 161 153 149
7 8.97990512847900391 -2 156 134 125
7 8.97995853424072266 -1 152 120 109
7 8.97994804382324219 0 152 115 106
7 8.97986888885498047 1 155 119 115
7 8.97956180572509766 2 159 130 129
7 8.97837734222412109 3 165 139 136
7 8.97308921813964844 4 168 123 109
7 8.90869426727294922 5 168 85 26
7.37643957138061523 7 -6 186 180 176
8 6.61752605438232422 -5 191 180 172
8 7 -5.14891719818115234 186 131 114
8 6.18515539169311523 -4 182 140 112
8 6.207183837890625 -3 173 99 57
8 6.26919889450073242 -2 165 68 25
8 6.30785751342773438 -1 160 49 13
8 6.30930519104003906 0 159 39 12
8 6.27416896820068359 1 163 39 23
8 6.21812915802001953 2 170 56 51
8 6.20966625213623047 3 179 103 99
8 6.70303153991699219 4 187 154 148
7.33859682083129883 7 5 181 149 138
8 7 4.11160421371459961 182 144 131
7.16566562652587891 8 -6 172 118 103
7.76485586166381836 8 -5 171 167 165
8 7.30043172836303711 -5 185 179 176
8 8 -4.62647247314453125 166 51 33
7.73587989807128906 8 4 168 123 109
8 7.22400569915771484 4 182 144 131
8 8 3.58449244499206543 166 90 62
7.13757991790771484 8 5 168 85 26
8 8.95040702819824219 -4 169 117 107
8 8.97147083282470703 -3 168 148 143
8 8.97584342956542969 -2 166 156 153
8 8.9770965576171875 -1 165 155 153
8 8.9770660400390625 0 165 150 149
8 8.97572422027587891 1 165 141 140
8 8.97109508514404297 2 166 123 116
8 8.94807052612304688 3 166 90 62
8.83071136474609375 7 -5 185 179 176
8.95366954803466797 7 -4 182 180 179
8.96410179138183594 7 -3 176 163 157
8.96658515930175781 7 -2 171 143 132
8.96709346771240234 7 -1 168 129 116
8.96702289581298828 7 0 168 124 114
8.96635246276855469 7 1 170 130 125
8.96358680725097656 7 2 174 144 144
8.95215320587158203 7 3 179 157 155
8.78931999206542969 7 4 182 144 131
8.95040702819824219 8 -4 169 117 107
8.97147083282470703 8 -3 168 148 143
8.97584342956542969 8 -2 166 156 153
8.9770965576171875 8 -1 165 155 153
8.9770660400390625 8 0 165 150 149
8.97572422027587891 8 1 165 141 140
8.97109508514404297 8 2 166 123 116
8.94807052612304688 8 3 166 90 62
3 2 1 0
3 1 4 3
3 0 1 3
3 4 6 5
3 3 4 5
3 6 8 7
3 5 6 7
3 8 10 9
3 7 8 9
3 10 12 11
3 9 10 11
3 12 14 13
3 11 12 13
3 14 16 15
3 13 14 15
3 16 17 15
3 19 2 0
3 18 19 0
3 0 3 18
3 3 20 18
3 3 5 20
3 5 21 20
3 5 7 21
3 7 22 21
3 7 9 22
3 9 23 22
3 9 11 23
3 11 24 23
3 11 13 24
3 13 25 24
3 13 15 25
3 15 26 25
3 17 27 26
3 15 17 26
3 19 18 28
3 18 20 29
3 28 18 29
3 20 21 30
3 29 20 30
3 21 22 31
3 30 21 31
3 22 23 32
3 31 22 32
3 23 24 33
3 32 23 33
3 24 25 34
3 33 24 34
3 25 26 35
3 34 25 35
3 26 27 35
3 38 37 36
3 37 40 39
3 36 37 39
3 2 39 40
3 2 40 1
3 1 40 41
3 41 42 1
3 1 42 4
3 42 43 4
3 4 43 6
3 43 44 6
3 6 44 8
3 44 45 8
3 8 45 10
3 45 46 10
3 10 46 12
3 46 47 12
3 12 47 14
3 47 48 14
3 14 48 16
3 49 17 16
3 49 16 50
3 50 16 48
3 50 52 51
3 49 50 51
3 52 53 51
3 38 36 54
3 56 54 36
3 56 36 55
3 55 36 39
3 39 19 55
3 2 19 39
3 57 17 49
3 27 17 57
3 49 51 57
3 51 58 57
3 53 59 58
3 51 53 58
3 56 55 60
3 55 19 28
3 55 28 60
3 60 28 61
3 61 28 62
3 28 29 62
3 62 29 63
3 29 30 63
3 63 30 64
3 30 31 64
3 64 31 65
3 31 32 65
3 65 32 66
3 32 33 66
3 66 33 67
3 33 34 67
3 67 34 68
3 34 35 68
3 27 57 69
3 27 69 35
3 35 69 68
3 57 58 70
3 69 57 70
3 58 59 70
3 73 72 71
3 38 71 72
3 38 72 37
3 37 72 74
3 74 75 37
3 37 75 40
3 75 76 40
3 40 76 41
3 78 77 42
3 78 42 76
3 76 42 41
3 43 42 77
3 79 43 77
3 44 43 79
3 80 44 79
3 45 44 80
3 81 45 80
3 46 45 81
3 82 46 81
3 47 46 82
3 83 47 82
3 83 85 84
3 83 84 47
3 47 84 48
3 84 86 48
3 48 86 50
3 86 87 50
3 50 87 52
3 88 53 52
3 88 52 89
3 89 52 87
3 89 90 88
3 92 73 71
3 91 92 71
3 54 71 38
3 54 93 71
3 93 91 71
3 54 56 93
3 78 94 77
3 77 95 79
3 94 95 77
3 79 96 80
3 95 96 79
3 80 97 81
3 96 97 80
3 81 98 82
3 97 98 81
3 82 99 83
3 98 99 82
3 83 99 85
3 100 53 88
3 59 53 100
3 90 101 100
3 88 90 100
3 92 91 102
3 91 93 103
3 102 91 103
3 93 56 60
3 93 60 103
3 103 60 104
3 104 60 105
3 60 61 105
3 105 61 106
3 61 62 106
3 106 62 107
3 62 63 107
3 107 63 108
3 63 64 108
3 108 64 109
3 64 65 109
3 109 65 110
3 65 66 110
3 110 66 111
3 66 67 111
3 111 67 112
3 67 68 112
3 112 68 113
3 68 69 113
3 113 69 114
3 69 70 114
3 59 100 115
3 59 115 70
3 70 115 114
3 100 101 115
3 118 117 116
3 73 116 117
3 73 117 72
3 72 117 119
3 119 120 72
3 72 120 74
3 122 121 75
3 122 75 120
3 120 75 74
3 76 75 121
3 123 76 121
3 76 123 78
3 84 85 124
3 124 126 125
3 124 125 84
3 84 125 86
3 125 127 86
3 86 127 87
3 127 128 87
3 87 128 89
3 129 90 89
3 129 89 130
3 130 89 128
3 130 131 129
3 118 116 132
3 116 133 132
3 116 73 133
3 73 92 133
3 122 134 121
3 121 135 123
3 134 135 121
3 123 94 78
3 123 135 94
3 135 136 94
3 136 137 94
3 94 137 95
3 137 138 95
3 95 138 96
3 138 139 96
3 96 139 97
3 139 140 97
3 97 140 98
3 140 141 98
3 98 141 99
3 85 142 124
3 85 99 142
3 99 141 142
3 124 142 126
3 143 90 129
3 101 90 143
3 131 144 143
3 129 131 143
3 133 92 102
3 145 133 102
3 145 102 146
3 102 103 146
3 146 103 147
3 103 104 147
3 147 104 148
3 104 105 148
3 148 105 149
3 105 106 149
3 149 106 150
3 106 107 150
3 150 107 151
3 107 108 151
3 151 108 152
3 108 109 152
3 152 109 153
3 109 110 153
3 153 110 154
3 110 111 154
3 154 111 155
3 111 112 155
3 155 112 156
3 112 113 156
3 156 113 157
3 113 114 157
3 157 114 158
3 114 115 158
3 101 143 159
3 101 159 115
3 115 159 158
3 143 144 159
3 118 161 160
3 117 118 160
3 160 162 117
3 117 162 119
3 162 163 119
3 119 163 120
3 120 163 164
3 122 120 164
3 125 126 165
3 165 167 166
3 165 166 125
3 125 166 127
3 166 168 127
3 127 168 128
3 168 169 128
3 128 169 130
3 130 169 170
3 131 130 170
3 132 171 172
3 132 172 118
3 118 172 161
3 132 133 171
3 164 134 122
3 173 134 164
3 173 174 134
3 134 174 135
3 174 175 135
3 135 175 136
3 175 176 136
3 136 176 137
3 176 177 137
3 137 177 138
3 177 178 138
3 138 178 139
3 178 179 139
3 139 179 140
3 179 180 140
3 140 180 141
3 180 181 141
3 141 181 142
3 126 182 165
3 126 142 182
3 142 181 182
3 165 182 167
3 170 183 131
3 183 144 131
3 172 171 184
3 171 133 145
3 171 145 184
3 184 145 185
3 185 145 186
3 145 146 186
3 186 146 187
3 146 147 187
3 187 147 188
3 147 148 188
3 188 148 189
3 148 149 189
3 189 149 190
3 149 150 190
3 190 150 191
3 150 151 191
3 191 151 192
3 151 152 192
3 192 152 193
3 152 153 193
3 193 153 194
3 153 154 194
3 194 154 195
3 154 155 195
3 195 155 196
3 155 156 196
3 196 156 197
3 156 157 197
3 197 157 198
3 157 158 198
3 198 158 199
3 158 159 199
3 199 159 144
3 183 199 144
3 202 201 200
3 161 200 201
3 161 201 160
3 160 201 203
3 203 204 160
3 160 204 162
3 206 205 163
3 206 163 204
3 204 163 162
3 163 205 164
3 166 167 207
3 207 209 208
3 207 208 166
3 166 208 168
3 208 210 168
3 168 210 169
3 211 170 169
3 211 169 212
3 212 169 210
3 212 213 211
3 215 202 200
3 214 215 200
3 200 172 214
3 161 172 200
3 206 216 205
3 205 173 164
3 205 216 173
3 216 217 173
3 217 218 173
3 173 218 174
3 218 219 174
3 174 219 175
3 219 220 175
3 175 220 176
3 222 221 177
3 222 177 220
3 220 177 176
3 178 177 221
3 223 178 221
3 223 225 224
3 223 224 178
3 178 224 179
3 224 226 179
3 179 226 180
3 226 227 180
3 180 227 181
3 227 228 181
3 181 228 182
3 167 229 207
3 167 182 229
3 182 228 229
3 207 229 209
3 230 170 211
3 183 170 230
3 213 231 230
3 211 213 230
3 215 214 232
3 214 172 184
3 214 184 232
3 232 184 233
3 233 184 234
3 184 185 234
3 234 185 235
3 185 186 235
3 235 186 236
3 186 187 236
3 236 187 237
3 187 188 237
3 237 188 238
3 188 189 238
3 238 189 239
3 189 190 239
3 221 222 239
3 221 239 191
3 191 239 190
3 223 221 191
3 192 223 191
3 225 223 192
3 225 192 240
3 240 192 193
3 240 193 241
3 193 194 241
3 241 194 242
3 194 195 242
3 242 195 243
3 195 196 243
3 243 196 244
3 196 197 244
3 244 197 245
3 197 198 245
3 245 198 246
3 198 199 246
3 183 230 247
3 183 247 199
3 199 247 246
3 230 231 247
3 202 249 248
3 201 202 248
3 248 250 201
3 201 250 203
3 252 251 204
3 252 204 250
3 250 204 203
3 204 251 206
3 208 209 253
3 253 255 254
3 253 254 208
3 208 254 210
3 254 256 210
3 210 256 212
3 212 256 257
3 213 212 257
3 249 202 258
3 258 202 215
3 252 259 251
3 251 216 206
3 251 259 216
3 259 260 216
3 260 261 216
3 216 261 217
3 261 262 217
3 217 262 218
3 262 263 218
3 218 263 219
3 265 264 220
3 265 220 263
3 263 220 219
3 220 264 222
3 224 225 266
3 226 224 266
3 267 226 266
3 267 269 268
3 267 268 226
3 226 268 227
3 268 270 227
3 227 270 228
3 270 271 228
3 228 271 229
3 209 272 253
3 209 229 272
3 229 271 272
3 253 272 255
3 257 273 213
3 273 231 213
3 258 215 232
3 274 258 232
3 274 232 275
3 232 233 275
3 275 233 276
3 233 234 276
3 276 234 277
3 234 235 277
3 277 235 278
3 235 236 278
3 278 236 279
3 236 237 279
3 279 237 280
3 237 238 280
3 264 265 280
3 264 280 239
3 239 280 238
3 264 239 222
3 266 225 240
3 267 266 240
3 241 267 240
3 269 267 241
3 269 241 281
3 281 241 242
3 281 242 282
3 242 243 282
3 282 243 283
3 243 244 283
3 283 244 284
3 244 245 284
3 284 245 285
3 245 246 285
3 285 246 286
3 246 247 286
3 286 247 231
3 273 286 231
3 249 288 287
3 248 249 287
3 287 289 248
3 248 289 250
3 250 289 290
3 252 250 290
3 255 292 291
3 254 255 291
3 291 293 254
3 254 293 256
3 256 293 294
3 257 256 294
3 288 249 295
3 295 249 258
3 290 259 252
3 296 259 290
3 296 297 259
3 259 297 260
3 297 298 260
3 260 298 261
3 298 299 261
3 261 299 262
3 301 300 263
3 301 263 299
3 299 263 262
3 263 300 265
3 269 303 302
3 268 269 302
3 302 304 268
3 268 304 270
3 304 305 270
3 270 305 271
3 305 306 271
3 271 306 272
3 306 255 272
3 292 255 306
3 294 307 257
3 307 273 257
3 295 258 274
3 308 295 274
3 308 274 309
3 274 275 309
3 309 275 310
3 275 276 310
3 310 276 311
3 276 277 311
3 311 277 312
3 277 278 312
3 312 278 313
3 278 279 313
3 300 301 313
3 300 313 280
3 280 313 279
3 300 280 265
3 303 269 281
3 314 303 281
3 314 281 315
3 281 282 315
3 315 282 316
3 282 283 316
3 316 283 317
3 283 284 317
3 317 284 318
3 284 285 318
3 318 285 319
3 285 286 319
3 319 286 273
3 307 319 273
3 288 321 320
3 287 288 320
3 320 322 287
3 287 322 289
3 289 322 323
3 290 289 323
3 292 325 324
3 291 292 324
3 324 326 291
3 291 326 293
3 293 326 327
3 294 293 327
3 321 288 328
3 328 288 295
3 323 296 290
3 329 296 323
3 329 330 296
3 296 330 297
3 330 331 297
3 297 331 298
3 331 332 298
3 298 332 299
3 299 332 333
3 301 299 333
3 303 335 334
3 302 303 334
3 334 336 302
3 302 336 304
3 336 337 304
3 304 337 305
3 337 338 305
3 305 338 306
3 338 292 306
3 325 292 338
3 327 339 294
3 339 307 294
3 328 295 308
3 340 328 308
3 340 308 341
3 308 309 341
3 341 309 342
3 309 310 342
3 342 310 343
3 310 311 343
3 343 311 344
3 311 312 344
3 344 312 345
3 312 313 345
3 345 313 301
3 333 345 301
3 335 303 314
3 346 335 314
3 346 314 347
3 314 315 347
3 347 315 348
3 315 316 348
3 348 316 349
3 316 317 349
3 349 317 350
3 317 318 350
3 350 318 351
3 318 319 351
3 351 319 307
3 339 351 307
3 321 353 352
3 320 321 352
3 352 354 320
3 320 354 322
3 322 354 355
3 323 322 355
3 325 357 356
3 324 325 356
3 356 358 324
3 324 358 326
3 326 358 359
3 327 326 359
3 353 321 360
3 360 321 328
3 355 329 323
3 361 329 355
3 361 362 329
3 329 362 330
3 362 363 330
3 330 363 331
3 363 364 331
3 331 364 332
3 332 364 365
3 333 332 365
3 335 367 366
3 334 335 366
3 366 368 334
3 334 368 336
3 368 369 336
3 336 369 337
3 369 370 337
3 337 370 338
3 370 325 338
3 357 325 370
3 359 371 327
3 371 339 327
3 360 328 340
3 372 360 340
3 372 340 373
3 340 341 373
3 373 341 374
3 341 342 374
3 374 342 375
3 342 343 375
3 375 343 376
3 343 344 376
3 376 344 377
3 344 345 377
3 377 345 333
3 365 377 333
3 367 335 346
3 378 367 346
3 378 346 379
3 346 347 379
3 379 347 380
3 347 348 380
3 380 348 381
3 348 349 381
3 381 349 382
3 349 350 382
3 382 350 383
3 350 351 383
3 383 351 339
3 371 383 339
3 353 385 384
3 352 353 384
3 384 386 352
3 352 386 354
3 354 386 387
3 355 354 387
3 357 389 388
3 356 357 388
3 388 390 356
3 356 390 358
3 358 390 391
3 359 358 391
3 385 353 392
3 392 353 360
3 387 361 355
3 393 361 387
3 393 394 361
3 361 394 362
3 394 395 362
3 362 395 363
3 395 396 363
3 363 396 364
3 364 396 397
3 365 364 397
3 367 399 398
3 366 367 398
3 398 400 366
3 366 400 368
3 400 401 368
3 368 401 369
3 401 402 369
3 369 402 370
3 402 357 370
3 389 357 402
3 391 403 359
3 403 371 359
3 392 360 372
3 404 392 372
3 404 372 405
3 372 373 405
3 405 373 406
3 373 374 406
3 406 374 407
3 374 375 407
3 407 375 408
3 375 376 408
3 408 376 409
3 376 377 409
3 409 377 365
3 397 409 365
3 399 367 378
3 410 399 378
3 410 378 411
3 378 379 411
3 411 379 412
3 379 380 412
3 412 380 413
3 380 381 413
3 413 381 414
3 381 382 414
3 414 382 415
3 382 383 415
3 415 383 371
3 403 415 371
3 385 417 416
3 384 385 416
3 416 418 384
3 384 418 386
3 419 387 386
3 419 386 420
3 420 386 418
3 420 421 419
3 424 423 422
3 389 422 423
3 389 423 388
3 388 423 425
3 425 426 388
3 388 426 390
3 390 426 427
3 391 390 427
3 417 385 428
3 428 385 392
3 419 393 387
3 421 393 419
3 421 429 393
3 429 394 393
3 429 430 394
3 394 430 395
3 430 431 395
3 395 431 396
3 432 397 396
3 432 396 433
3 433 396 431
3 433 434 432
3 437 436 435
3 399 435 436
3 399 436 398
3 398 436 438
3 438 439 398
3 398 439 400
3 439 440 400
3 400 440 401
3 422 440 424
3 422 402 440
3 402 401 440
3 422 389 402
3 427 441 391
3 441 403 391
3 428 392 404
3 442 428 404
3 442 404 443
3 404 405 443
3 443 405 444
3 405 406 444
3 444 406 445
3 406 407 445
3 445 407 446
3 407 408 446
3 446 408 447
3 408 409 447
3 397 432 448
3 397 448 409
3 409 448 447
3 432 434 448
3 437 435 449
3 435 399 410
3 435 410 449
3 449 410 450
3 450 410 451
3 410 411 451
3 451 411 452
3 411 412 452
3 452 412 453
3 412 413 453
3 453 413 454
3 413 414 454
3 454 414 455
3 414 415 455
3 455 415 403
3 441 455 403
3 417 457 456
3 416 417 456
3 456 458 416
3 416 458 418
3 458 459 418
3 418 459 420
3 420 459 460
3 421 420 460
3 424 462 461
3 423 424 461
3 461 463 423
3 423 463 425
3 463 464 425
3 425 464 426
3 426 464 465
3 427 426 465
3 457 417 466
3 466 417 428
3 460 429 421
3 467 429 460
3 467 468 429
3 429 468 430
3 468 469 430
3 430 469 431
3 469 470 431
3 431 470 433
3 471 434 433
3 471 433 472
3 472 433 470
3 472 474 473
3 471 472 473
3 474 476 475
3 473 474 475
3 476 478 477
3 475 476 477
3 437 477 478
3 437 478 436
3 436 478 479
3 479 480 436
3 436 480 438
3 480 481 438
3 438 481 439
3 481 482 439
3 439 482 440
3 482 424 440
3 462 424 482
3 465 483 427
3 483 441 427
3 466 428 442
3 484 466 442
3 484 442 485
3 442 443 485
3 485 443 486
3 443 444 486
3 486 444 487
3 444 445 487
3 487 445 488
3 445 446 488
3 488 446 489
3 446 447 489
3 489 447 490
3 447 448 490
3 434 471 491
3 434 491 448
3 448 491 490
3 471 473 492
3 491 471 492
3 473 475 493
3 492 473 493
3 475 477 494
3 493 475 494
3 477 437 449
3 477 449 494
3 494 449 495
3 495 449 496
3 449 450 496
3 496 450 497
3 450 451 497
3 497 451 498
3 451 452 498
3 498 452 499
3 452 453 499
3 499 453 500
3 453 454 500
3 500 454 501
3 454 455 501
3 501 455 441
3 483 501 441
3 457 503 502
3 456 457 502
3 502 504 456
3 456 504 458
3 504 505 458
3 458 505 459
3 506 460 459
3 506 459 507
3 507 459 505
3 507 508 506
3 511 510 509
3 462 509 510
3 462 510 461
3 461 510 512
3 512 513 461
3 461 513 463
3 515 514 464
3 515 464 513
3 513 464 463
3 464 514 465
3 516 517 503
3 516 503 466
3 466 503 457
3 517 516 518
3 506 467 460
3 508 467 506
3 508 519 467
3 519 468 467
3 519 520 468
3 468 520 469
3 520 521 469
3 469 521 470
3 521 522 470
3 470 522 472
3 522 523 472
3 472 523 474
3 523 524 474
3 474 524 476
3 524 525 476
3 476 525 478
3 525 526 478
3 478 526 479
3 526 527 479
3 479 527 480
3 527 528 480
3 480 528 481
3 509 528 511
3 509 482 528
3 482 481 528
3 509 462 482
3 530 514 515
3 529 514 530
3 514 529 483
3 465 514 483
3 516 466 484
3 518 516 484
3 518 484 531
3 531 484 485
3 531 485 532
3 485 486 532
3 532 486 533
3 486 487 533
3 533 487 534
3 487 488 534
3 534 488 535
3 488 489 535
3 535 489 536
3 489 490 536
3 536 490 537
3 490 491 537
3 537 491 538
3 491 492 538
3 538 492 539
3 492 493 539
3 539 493 540
3 493 494 540
3 540 494 541
3 494 495 541
3 541 495 542
3 495 496 542
3 542 496 543
3 496 497 543
3 543 497 544
3 497 498 544
3 544 498 545
3 498 499 545
3 545 499 546
3 499 500 546
3 529 530 546
3 529 546 501
3 501 546 500
3 529 501 483
3 502 503 547
3 547 549 548
3 547 548 502
3 502 548 504
3 548 550 504
3 504 550 505
3 550 551 505
3 505 551 507
3 552 508 507
3 552 507 553
3 553 507 551
3 553 554 552
3 557 556 555
3 511 555 556
3 511 556 510
3 510 556 558
3 558 559 510
3 510 559 512
3 559 560 512
3 512 560 513
3 513 560 561
3 515 513 561
3 547 503 517
3 517 549 547
3 517 518 549
3 518 562 549
3 552 519 508
3 554 519 552
3 554 563 519
3 563 520 519
3 563 564 520
3 520 564 521
3 564 565 521
3 521 565 522
3 565 566 522
3 522 566 523
3 566 567 523
3 523 567 524
3 567 568 524
3 524 568 525
3 568 569 525
3 525 569 526
3 569 570 526
3 526 570 527
3 555 570 557
3 555 528 570
3 528 527 570
3 555 511 528
3 561 571 515
3 571 530 515
3 562 518 531
3 572 562 531
3 572 531 573
3 531 532 573
3 573 532 574
3 532 533 574
3 574 533 575
3 533 534 575
3 575 534 576
3 534 535 576
3 576 535 577
3 535 536 577
3 577 536 578
3 536 537 578
3 578 537 579
3 537 538 579
3 579 538 580
3 538 539 580
3 580 539 581
3 539 540 581
3 581 540 582
3 540 541 582
3 582 541 583
3 541 542 583
3 583 542 584
3 542 543 584
3 584 543 585
3 543 544 585
3 585 544 586
3 544 545 586
3 586 545 587
3 545 546 587
3 587 546 530
3 571 587 530
3 548 549 588
3 588 590 589
3 588 589 548
3 548 589 550
3 589 591 550
3 550 591 551
3 591 592 551
3 551 592 553
3 593 554 553
3 593 553 594
3 594 553 592
3 594 596 595
3 593 594 595
3 596 598 597
3 595 596 597
3 598 599 597
3 602 601 600
3 601 604 603
3 600 601 603
3 604 606 605
3 603 604 605
3 557 605 606
3 557 606 556
3 556 606 607
3 607 608 556
3 556 608 558
3 608 609 558
3 558 609 559
3 611 610 560
3 611 560 609
3 609 560 559
3 560 610 561
3 612 588 549
3 562 612 549
3 590 612 613
3 588 612 590
3 593 563 554
3 595 563 593
3 564 563 595
3 597 564 595
3 565 564 597
3 599 565 597
3 599 614 565
3 614 566 565
3 614 615 566
3 566 615 567
3 600 615 602
3 600 568 615
3 568 567 615
3 603 568 600
3 569 568 603
3 605 569 603
3 570 569 605
3 605 557 570
3 617 610 611
3 616 610 617
3 610 616 571
3 561 610 571
3 612 562 572
3 613 612 572
3 613 572 618
3 618 572 573
3 618 573 619
3 573 574 619
3 619 574 620
3 574 575 620
3 620 575 621
3 575 576 621
3 621 576 622
3 576 577 622
3 622 577 623
3 577 578 623
3 623 578 624
3 578 579 624
3 624 579 625
3 579 580 625
3 625 580 626
3 580 581 626
3 626 581 627
3 581 582 627
3 627 582 628
3 582 583 628
3 628 583 629
3 583 584 629
3 629 584 630
3 584 585 630
3 630 585 631
3 585 586 631
3 616 617 631
3 616 631 587
3 587 631 586
3 616 587 571
3 589 590 632
3 632 634 633
3 632 633 589
3 589 633 591
3 633 635 591
3 591 635 592
3 635 636 592
3 592 636 594
3 636 637 594
3 594 637 596
3 637 638 596
3 596 638 598
3 639 599 598
3 639 598 640
3 640 598 638
3 640 642 641
3 639 640 641
3 602 641 642
3 602 642 601
3 601 642 643
3 643 644 601
3 601 644 604
3 644 645 604
3 604 645 606
3 645 646 606
3 606 646 607
3 646 647 607
3 607 647 608
3 649 648 609
3 649 609 647
3 647 609 608
3 609 648 611
3 650 632 590
3 613 650 590
3 634 650 651
3 632 650 634
3 639 614 599
3 641 614 639
3 615 614 641
3 641 602 615
3 653 648 649
3 652 648 653
3 648 652 617
3 611 648 617
3 650 613 618
3 651 650 618
3 651 618 654
3 654 618 619
3 654 619 655
3 619 620 655
3 655 620 656
3 620 621 656
3 656 621 657
3 621 622 657
3 657 622 658
3 622 623 658
3 658 623 659
3 623 624 659
3 659 624 660
3 624 625 660
3 660 625 661
3 625 626 661
3 661 626 662
3 626 627 662
3 662 627 663
3 627 628 663
3 663 628 664
3 628 629 664
3 664 629 665
3 629 630 665
3 652 653 665
3 652 665 631
3 631 665 630
3 652 631 617
3 633 634 666
3 666 668 667
3 666 667 633
3 633 667 635
3 667 669 635
3 635 669 636
3 669 670 636
3 636 670 637
3 670 671 637
3 637 671 638
3 671 672 638
3 638 672 640
3 672 673 640
3 640 673 642
3 673 674 642
3 642 674 643
3 674 675 643
3 643 675 644
3 675 676 644
3 644 676 645
3 676 677 645
3 645 677 646
3 679 678 647
3 679 647 677
3 677 647 646
3 647 678 649
3 680 666 634
3 651 680 634
3 668 681 682
3 668 666 681
3 666 680 681
3 682 681 683
3 686 684 685
3 685 678 679
3 685 684 678
3 684 687 678
3 678 687 653
3 649 678 653
3 680 651 654
3 681 680 654
3 655 681 654
3 683 681 655
3 683 655 688
3 688 655 656
3 688 656 689
3 656 657 689
3 689 657 690
3 657 658 690
3 690 658 691
3 658 659 691
3 691 659 692
3 659 660 692
3 692 660 693
3 660 661 693
3 693 661 694
3 661 662 694
3 694 662 695
3 662 663 695
3 684 686 695
3 684 695 664
3 664 695 663
3 687 684 664
3 665 687 664
3 687 665 653
3 667 668 696
3 669 667 696
3 697 669 696
3 670 669 697
3 698 670 697
3 671 670 698
3 699 671 698
3 672 671 699
3 700 672 699
3 673 672 700
3 701 673 700
3 674 673 701
3 702 674 701
3 675 674 702
3 703 675 702
3 676 675 703
3 704 676 703
3 677 676 704
3 705 677 704
3 677 705 679
3 696 668 682
3 682 683 706
3 682 706 696
3 696 706 697
3 697 706 698
3 698 706 707
3 698 707 699
3 699 707 708
3 699 708 700
3 700 708 709
3 700 709 701
3 701 709 710
3 701 710 702
3 702 710 711
3 702 711 703
3 703 711 712
3 703 712 704
3 704 712 713
3 686 685 705
3 686 705 713
3 713 705 704
3 705 685 679
3 706 683 688
3 707 706 688
3 689 707 688
3 708 707 689
3 690 708 689
3 709 708 690
3 691 709 690
3 710 709 691
3 692 710 691
3 711 710 692
3 693 711 692
3 712 711 693
3 694 712 693
3 713 712 694
3 695 713 694
3 713 695 686
