ply
format ascii 1.0
element vertex 322
property float x
property float y
property float z
property uchar red
property uchar green
property uchar blue
element face 644
property list uchar int vertex_indices
end_header
-7.0690455436706543 7 -2 9 5 2
-7 6.94891977310180664 -2 119 88 69
-7 7 -2.56409573554992676 34 20 18
-7.05523777008056641 7 -1 19 12 6
-7 6.96904897689819336 -1 146 108 79
-7.04144716262817383 7 0 20 14 7
-7 6.9766697883605957 0 149 119 84
-7.03557634353637695 7 1 5 4 1
-7 6.97348690032958984 1 136 119 90
-7 7 1.23873269557952881 16 14 12
-7 7.07908439636230469 -2 1 1 1
-7 7.06597042083740234 -1 15 12 11
-7 7.0494542121887207 0 21 17 17
-7 7.04064369201660156 1 16 14 12
-6.1334528923034668 7 -4 52 22 16
-6 6.94431257247924805 -4 121 63 49
-6 7 -4.3494415283203125 69 26 25
-6 7 -3.80782055854797363 17 11 10
-6.92726373672485352 7 -2 1 1 1
-6.96139144897460938 7 -1 15 12 11
-6.97096014022827148 7 0 21 17 17
-6.96256065368652344 7 1 16 14 12
-6.00625705718994141 7 3 47 41 20
-6 6.99727725982666016 3 150 138 83
-6 7 2.99055290222167969 46 38 35
-6 7 3.01456403732299805 22 20 17
-6 7.12313079833984375 -4 17 11 10
-6.2282109260559082 8 -2 22 5 4
-6 7.78734397888183594 -2 137 80 75
-6 8 -2.92416024208068848 59 33 19
-6.31903839111328125 8 -1 1 0 0
-6 7.78964805603027344 -1 121 63 62
-6.30884647369384766 8 0 0 0 0
-6 7.79562091827392578 0 127 72 68
-6.1998744010925293 8 1 22 8 5
-6 7.81344175338745117 1 148 102 92
-6 8 1.72711598873138428 17 10 9
-6 7.00578832626342773 3 22 20 17
-6 8.95739173889160156 -2 32 22 15
-6 8.96589279174804688 -1 12 9 7
-6 8.96490573883056641 0 6 4 4
-6 8.95174598693847656 1 17 10 9
-5.1312556266784668 7 -5 69 26 25
-5 6.9845428466796875 -5 151 55 44
-5 7 -5.15139436721801758 87 31 26
-5.91239833831787109 7 -4 17 11 10
-5 7 -4.97370386123657227 27 17 14
-5.99582767486572266 7 3 22 20 17
-5 7.05993175506591797 -5 27 17 14
-5.30938816070556641 8 -4 13 5 2
-5 7.76551294326782227 -4 115 66 49
-5 8 -4.41965055465698242 56 28 9
-5.94549274444580078 8 -3 59 33 19
-5 7.80687284469604492 -3 162 74 50
-5 7.90722990036010742 -2 101 40 27
-5.12720918655395508 8 -1 12 9 7
-5 8 -1.21855497360229492 9 8 5
-5.1600651741027832 8 0 6 4 4
-5 7.92479658126831055 1 108 41 34
-5 8 0.308032393455505371 45 34 27
-5.79110908508300781 8 2 44 20 18
-5 7.82837581634521484 2 169 90 67
-5.22714424133300781 8 3 24 12 5
-5 7.82541465759277344 3 144 106 84
-5 8 3.29320120811462402 20 11 10
-5 8.96148204803466797 -4 57 40 21
-5 8.96968269348144531 -3 14 11 8
-5 8.93653964996337891 -2 9 8 5
-5 8.92169380187988281 1 19 14 12
-5 8.96555709838867188 2 14 9 9
-5 8.94903278350830078 3 20 11 10
-4.46318817138671875 7 -6 87 31 26
-4 6.92544174194335938 -6 87 26 23
-4 7 -6.19680118560791016 100 20 16
-4.9734654426574707 7 -5 27 17 14
-4 7 -5.88352298736572266 59 34 25
-4 7.17385053634643555 -6 59 34 25
-4.43444490432739258 8 -5 56 28 9
-4 7.75276422500610352 -5 96 54 34
-4 8 -5.34394454956054688 44 21 4
-4 7.83530139923095703 -4 118 55 26
-4.45113945007324219 8 -3 14 11 8
-4 8 -3.48740649223327637 27 22 12
-4.84915304183959961 8 -2 9 8 5
-4.87947320938110352 8 1 19 14 12
-4.53378582000732422 8 2 14 9 9
-4 7.86797046661376953 3 121 65 38
-4 8 2.59820151329040527 100 63 52
-4.29128074645996094 8 4 62 34 15
-4 7.82852411270141602 4 136 102 70
-4 8 4.22730827331542969 31 17 13
-4 8.96366024017333984 -5 77 55 23
-4 8.96509456634521484 -4 27 22 12
-4 8.95567131042480469 3 9 5 5
-4 8.94858169555664062 4 31 17 13
-3.06313514709472656 7 -7 100 20 16
-3 6.96430778503417969 -7 75 26 24
-3 7 -7.02765655517578125 67 10 4
-3.73543405532836914 7 -6 59 34 25
-3 7 -6.90996599197387695 110 43 26
-3 7.03072690963745117 -7 110 43 26
-3.08731460571289062 8 -6 44 21 4
-3 7.85944175720214844 -6 9 5 3
-3 8 -6.04979085922241211 73 26 3
-3 7.79648256301879883 -5 141 68 28
-3.47789645195007324 8 -4 27 22 12
-3 8 -4.4267125129699707 58 47 21
-3.60798406600952148 8 3 9 5 5
-3 7.83453559875488281 4 157 97 48
-3 8 3.55344223976135254 86 46 40
-3 8 4.78938674926757812 7 4 4
-3 8.82873916625976562 -6 108 68 18
-3 8.97142887115478516 -5 58 47 21
-3 8.96425819396972656 4 7 4 4
-2 6.89292097091674805 -7 15 3 3
-2 7 -7.16047954559326172 82 6 5
-2 7 -6.84878635406494141 103 48 27
-2.06283783912658691 7 6 49 48 19
-2 6.99392175674438477 6 92 103 37
-2 7 5.99155521392822266 120 91 46
-2 7 6.00857162475585938 35 33 15
-2 7.18290853500366211 -7 103 48 27
-2 7.73652076721191406 -6 65 34 15
-2 8 -6.31010913848876953 56 24 3
-2 7.88959360122680664 -5 59 28 8
-2 8 -4.82054471969604492 44 37 14
-2 7.94212627410888672 4 82 44 17
-2 8 3.90817570686340332 108 44 34
-2.72559499740600586 8 5 78 45 20
-2 7.82611799240112305 5 120 91 46
-2 7.00987052917480469 6 35 33 15
-2 8 5.19767665863037109 58 31 18
-2 8.96631908416748047 -6 108 78 22
-2 8.94696903228759766 -5 44 37 14
-2 8.89915370941162109 4 18 8 8
-2 8.95008373260498047 5 58 31 18
-1 6.91201591491699219 -7 37 6 5
-1 7 -7.18432855606079102 119 11 8
-1 7 -6.89044857025146484 106 50 26
-1.54746782779693604 7 6 35 33 15
-1 7.22040128707885742 -7 106 50 26
-1 7.74899721145629883 -6 18 8 3
-1 8 -6.43505239486694336 87 41 5
-1 7.99985456466674805 -5 58 26 6
-1 8 -4.99979782104492188 5 4 1
-1.5284501314163208 8 4 18 8 8
-1 7.81012678146362305 5 93 68 26
-1 8 4.27678680419921875 17 6 6
-1 8 5.30463457107543945 58 30 18
-1 8.97198295593261719 -6 112 83 23
-1 8.02079582214355469 -5 5 4 1
-1 8.96310997009277344 5 58 30 18
0 6.90991497039794922 -7 17 2 2
0 7 -7.19209623336791992 133 9 8
0 7 -6.88801431655883789 119 51 25
0 7.23081207275390625 -7 119 51 25
0 7.74690485000610352 -6 0 0 0
0 8 -6.44638538360595703 104 47 5
-0.735839366912841797 8 -5 5 4 1
0 8 -5.00168037414550781 125 90 22
0 7.80721092224121094 5 77 55 19
0 8 4.27453136444091797 33 11 11
0 8 5.31402873992919922 74 36 20
0 8.97233390808105469 -6 125 90 22
0 8.96382999420166016 5 74 36 20
1 6.88369846343994141 -7 38 6 5
1 7 -7.18179845809936523 129 9 5
1 7 -6.83710193634033203 142 54 25
0.194519981741905212 7 6 58 53 20
1 6.98167705535888672 6 46 53 12
1 7 5.974761962890625 74 53 19
1 7 6.02680778503417969 84 77 25
1 7.20911788940429688 -7 142 54 25
1 7.72567558288574219 -6 10 4 1
1 8 -6.33934354782104492 104 43 3
0.00327822426334023476 8 -5 19 16 4
1 7.88888454437255859 -5 7 3 0
1 8 -4.82083463668823242 91 73 19
0.527025938034057617 8 4 33 11 11
1 7.94131374359130859 4 31 16 4
1 8 3.90761327743530273 60 19 12
1 7.81104278564453125 5 74 53 19
1 7.0311741828918457 6 84 77 25
1 8 5.22453165054321289 103 49 22
1 8.96832942962646484 -6 146 100 19
1 8.94733238220214844 -5 91 73 19
1 8.90049362182617188 4 70 24 22
1 8.95498466491699219 5 103 49 22
2 6.91839265823364258 -7 7 1 1
2 7 -7.06789112091064453 133 19 3
2 7 -6.80872392654418945 168 46 20
1.2506566047668457 7 6 84 77 25
2 7.07619285583496094 -7 168 46 20
2 7.74609088897705078 -6 63 27 11
2 8 -6.10608530044555664 132 42 3
2 7.7913055419921875 -5 66 26 6
2 8 -4.42775487899780273 132 99 24
2 7.82782936096191406 4 87 47 13
2 8 3.54835009574890137 18 6 4
1.93498659133911133 8 5 103 49 22
2 8 4.95056676864624023 92 31 25
2 8.91086673736572266 -6 168 98 13
2 8.97237014770507812 -5 132 99 24
2 8.96594715118408203 4 92 31 25
2.17147469520568848 7 -7 168 46 20
2.6975257396697998 7 -6 63 27 11
3 6.9106907844543457 -6 23 4 2
3 7 -6.27507686614990234 183 15 10
3 7 -5.86343145370483398 157 57 25
2.96510863304138184 7 5 80 60 23
3 6.98879718780517578 5 36 37 6
3 7 4.98322725296020508 32 19 6
3 7 5.03043317794799805 114 91 30
2.20184683799743652 8 -6 168 98 13
3 7.24370670318603516 -6 157 57 25
3 7.7265625 -5 23 9 3
3 8 -5.43398094177246094 150 63 5
2.47814679145812988 8 -4 24 18 4
3 7.83025741577148438 -4 0 0 0
3 8 -3.49095940589904785 135 98 25
2.60248017311096191 8 3 18 6 4
3 7.86197566986083984 3 5 2 0
3 8 2.59584283828735352 3 1 0
3 7.7941441535949707 4 32 19 6
3 7.02838134765625 5 114 91 30
3 8 4.30741405487060547 137 48 24
3 8.96873283386230469 -5 167 105 19
3 8.96634197235107422 -4 135 98 25
3 8.95784759521484375 3 109 32 28
3 8.95916652679443359 4 137 48 24
3.80983400344848633 7 -6 157 57 25
3.95382285118103027 7 -5 23 9 3
4 6.97243595123291016 -5 14 2 1
4 7 -5.56587123870849609 191 28 16
4 7 -4.9544520378112793 159 53 25
3.09076476097106934 7 5 114 91 30
3.5861363410949707 8 -5 167 105 19
4 7.15410947799682617 -5 159 53 25
4 7.73062753677368164 -4 35 11 4
4 8 -4.58463525772094727 180 73 8
3.44731950759887695 8 -3 7 5 1
4 7.79694747924804688 -3 34 9 3
3.84844446182250977 8 -2 11 7 1
4 7.90500783920288086 -2 42 9 3
4 8 -1.24424898624420166 132 83 24
3.87798762321472168 8 1 9 4 1
4 7.9224390983581543 1 33 6 3
4 8 0.330640077590942383 97 49 19
3.5237576961517334 8 2 3 1 0
4 7.81690502166748047 2 45 15 5
4 7.78232765197753906 3 8 4 1
3.42079424858093262 8 4 137 48 24
4 8 3.43633055686950684 153 37 23
4 8.96854496002197266 -4 175 98 19
4 8.97160148620605469 -3 151 95 25
4 8.93808555603027344 -2 132 83 24
4 8.92408466339111328 1 127 55 27
4 8.96821498870849609 2 132 41 28
4 8.96158027648925781 3 153 37 23
4.5554046630859375 7 -5 159 53 25
4.87788820266723633 7 -4 35 11 4
5 6.92004919052124023 -4 41 12 3
5 7 -4.78453922271728516 197 16 15
5 7 -3.74460172653198242 173 40 25
4.95393705368041992 7 3 8 4 1
5 6.96904850006103516 3 5 4 0
5 7 2.90127968788146973 124 57 24
5 7 3.24577760696411133 150 93 31
4.43594932556152344 8 -4 175 98 19
5 7.22576332092285156 -4 173 40 25
5 7.76813411712646484 -3 113 27 17
5 8 -3.20421266555786133 177 49 6
5 7.74178695678710938 -2 39 7 5
4.12660598754882812 8 -1 95 54 17
5 7.76241254806518555 -1 53 6 6
4.15393161773681641 8 0 97 49 19
5 7.76750802993774414 0 46 9 5
5 7.76357841491699219 1 20 6 3
5 7.88775825500488281 2 124 57 24
4.34341526031494141 8 3 153 37 23
5 7.08321666717529297 3 150 93 31
5 8 2.09483814239501953 185 35 16
5 8.91090202331542969 -3 193 73 13
5 8.96754074096679688 -2 179 75 20
5 8.97124767303466797 -1 169 68 23
5 8.97063064575195312 0 165 55 24
5 8.96474647521972656 1 170 34 22
5 8.83371448516845703 2 185 35 16
5.25476312637329102 7 -4 173 40 25
5.84829330444335938 7 -3 113 27 17
6 6.93311071395874023 -3 69 30 9
6 7 -3.15127730369567871 207 46 10
5.86760282516479492 7 -2 39 7 5
6 6.90400075912475586 -2 88 41 9
5.92450809478759766 7 -1 53 6 6
6 6.93838071823120117 -1 39 20 3
5.93316221237182617 7 0 46 9 5
6 6.94533061981201172 0 34 21 3
5.89805507659912109 7 1 20 6 3
6 6.92546224594116211 1 69 49 8
5.98254680633544922 7 2 124 57 24
6 6.99215555191040039 2 70 58 12
5.0935821533203125 7 3 150 93 31
6 7 2.01646733283996582 184 111 23
5.10764694213867188 8 -3 193 73 13
6 7.06670284271240234 -3 196 38 19
5.33992815017700195 8 -2 179 75 20
6 7.18418216705322266 -2 182 41 25
5.44657516479492188 8 -1 169 68 23
6 7.17453718185424805 -1 174 49 27
5.43451499938964844 8 0 165 55 24
6 7.15375185012817383 0 171 62 28
5.30913829803466797 8 1 170 34 22
6 7.14093446731567383 1 173 81 28
5.05314064025878906 8 2 185 35 16
6 7.00782299041748047 2 184 111 23
6.05928182601928711 7 -3 196 38 19
6.15864753723144531 7 -2 182 41 25
6.14176368713378906 7 -1 174 49 27
6.125 7 0 171 62 28
6.12171459197998047 7 1 173 81 28
6.00698089599609375 7 2 184 111 23
3 2 1 0
3 1 4 3
3 0 1 3
3 4 6 5
3 3 4 5
3 6 8 7
3 5 6 7
3 8 9 7
3 2 0 10
3 0 3 11
3 10 0 11
3 3 5 12
3 11 3 12
3 5 7 13
3 12 5 13
3 7 9 13
3 16 15 14
3 15 17 14
3 1 2 18
3 4 1 18
3 19 4 18
3 6 4 19
3 20 6 19
3 8 6 20
3 21 8 20
3 8 21 9
3 24 23 22
3 23 25 22
3 16 14 26
3 14 17 26
3 10 27 29
3 10 29 2
3 28 18 29
3 18 2 29
3 10 30 27
3 10 11 30
3 28 31 18
3 31 19 18
3 11 32 30
3 11 12 32
3 31 33 19
3 33 20 19
3 12 34 32
3 12 13 34
3 33 35 20
3 35 21 20
3 34 13 9
3 34 9 36
3 21 35 9
3 35 36 9
3 24 22 37
3 22 25 37
3 29 27 38
3 27 30 39
3 38 27 39
3 30 32 40
3 39 30 40
3 32 34 41
3 40 32 41
3 34 36 41
3 44 43 42
3 16 42 43
3 16 43 15
3 46 45 43
3 45 15 43
3 15 45 17
3 23 24 47
3 23 47 25
3 44 42 48
3 48 49 51
3 48 26 49
3 48 42 26
3 16 26 42
3 46 50 45
3 50 53 17
3 50 17 45
3 53 52 17
3 26 17 49
3 52 49 17
3 29 52 53
3 29 53 28
3 28 53 54
3 56 55 31
3 56 31 54
3 54 31 28
3 33 31 55
3 57 33 55
3 57 59 58
3 57 58 33
3 33 58 35
3 60 36 35
3 60 35 61
3 61 35 58
3 62 60 24
3 62 24 37
3 60 61 24
3 47 24 63
3 61 63 24
3 62 37 25
3 62 25 64
3 47 63 25
3 63 64 25
3 51 49 65
3 49 52 66
3 65 49 66
3 52 29 38
3 52 38 66
3 66 38 67
3 55 56 67
3 55 67 39
3 39 67 38
3 57 55 39
3 40 57 39
3 59 57 40
3 59 40 68
3 68 40 41
3 36 60 69
3 36 69 41
3 41 69 68
3 60 62 70
3 69 60 70
3 62 64 70
3 73 72 71
3 44 71 72
3 44 72 43
3 75 74 72
3 74 43 72
3 43 74 46
3 73 71 76
3 76 77 79
3 76 48 77
3 76 71 48
3 44 48 71
3 75 78 74
3 77 48 51
3 74 78 46
3 78 50 46
3 78 80 50
3 82 81 53
3 82 53 80
3 80 53 50
3 54 53 81
3 83 54 81
3 54 83 56
3 58 59 84
3 61 58 84
3 85 61 84
3 85 87 86
3 85 86 61
3 61 86 63
3 88 64 63
3 88 63 89
3 89 63 86
3 89 90 88
3 79 77 91
3 77 51 65
3 77 65 91
3 91 65 92
3 81 82 92
3 81 92 66
3 66 92 65
3 83 81 66
3 67 83 66
3 83 67 56
3 84 59 68
3 85 84 68
3 69 85 68
3 87 85 69
3 87 69 93
3 93 69 70
3 64 88 94
3 64 94 70
3 70 94 93
3 88 90 94
3 97 96 95
3 73 95 96
3 73 96 72
3 99 98 96
3 98 72 96
3 72 98 75
3 97 95 100
3 100 101 103
3 100 76 101
3 100 95 76
3 73 76 95
3 99 102 98
3 101 76 79
3 98 102 75
3 102 78 75
3 102 104 78
3 106 105 80
3 106 80 104
3 104 80 78
3 80 105 82
3 86 87 107
3 107 109 108
3 107 108 86
3 86 108 89
3 89 108 110
3 90 89 110
3 103 101 111
3 101 79 91
3 101 91 111
3 111 91 112
3 105 106 112
3 105 112 92
3 92 112 91
3 105 92 82
3 107 87 93
3 109 107 93
3 109 93 113
3 113 93 94
3 113 94 90
3 110 113 90
3 97 115 114
3 96 97 114
3 96 114 116
3 99 96 116
3 119 118 117
3 118 120 117
3 115 97 100
3 121 115 100
3 116 122 99
3 99 122 102
3 123 121 100
3 123 100 103
3 122 124 102
3 102 124 104
3 104 124 125
3 106 104 125
3 109 127 126
3 108 109 126
3 128 110 108
3 128 108 129
3 129 108 126
3 130 131 128
3 130 128 117
3 129 119 128
3 119 117 128
3 117 120 130
3 123 103 111
3 132 123 111
3 132 111 133
3 111 112 133
3 133 112 106
3 125 133 106
3 127 109 113
3 134 127 113
3 110 128 135
3 110 135 113
3 113 135 134
3 128 131 135
3 115 137 136
3 114 115 136
3 114 136 138
3 116 114 138
3 118 119 139
3 118 139 120
3 137 115 121
3 140 137 121
3 138 141 116
3 116 141 122
3 142 140 121
3 142 121 123
3 141 143 122
3 122 143 124
3 124 143 144
3 125 124 144
3 126 127 145
3 145 147 146
3 145 146 126
3 126 146 129
3 129 146 139
3 129 139 119
3 146 148 139
3 130 139 131
3 148 131 139
3 139 130 120
3 142 123 132
3 149 142 132
3 149 132 150
3 132 133 150
3 150 133 125
3 144 150 125
3 145 127 134
3 147 145 134
3 147 134 151
3 151 134 135
3 151 135 131
3 148 151 131
3 137 153 152
3 136 137 152
3 136 152 154
3 138 136 154
3 153 137 140
3 155 153 140
3 154 156 138
3 138 156 141
3 157 155 140
3 157 140 142
3 159 158 143
3 159 143 156
3 156 143 141
3 143 158 144
3 147 161 160
3 146 147 160
3 146 160 162
3 148 146 162
3 157 142 149
3 163 157 149
3 158 159 163
3 158 163 150
3 150 163 149
3 158 150 144
3 161 147 151
3 164 161 151
3 164 151 148
3 162 164 148
3 153 166 165
3 152 153 165
3 152 165 167
3 154 152 167
3 170 169 168
3 169 171 168
3 166 153 155
3 172 166 155
3 167 173 154
3 154 173 156
3 174 172 155
3 174 155 157
3 175 159 156
3 175 156 176
3 176 156 173
3 176 177 175
3 180 179 178
3 161 178 179
3 161 179 160
3 160 179 181
3 183 162 168
3 183 168 182
3 162 160 168
3 170 168 181
3 160 181 168
3 168 171 182
3 174 157 163
3 184 174 163
3 159 175 185
3 159 185 163
3 163 185 184
3 175 177 185
3 180 178 186
3 178 161 164
3 178 164 186
3 186 164 187
3 187 164 162
3 183 187 162
3 166 189 188
3 165 166 188
3 165 188 190
3 167 165 190
3 169 170 191
3 169 191 171
3 189 166 172
3 192 189 172
3 190 193 167
3 167 193 173
3 194 192 172
3 194 172 174
3 193 195 173
3 173 195 176
3 176 195 196
3 177 176 196
3 180 198 197
3 179 180 197
3 200 199 181
3 200 181 197
3 197 181 179
3 183 182 191
3 183 191 199
3 170 181 191
3 181 199 191
3 191 182 171
3 194 174 184
3 201 194 184
3 201 184 202
3 184 185 202
3 202 185 177
3 196 202 177
3 198 180 186
3 203 198 186
3 199 200 203
3 199 203 187
3 187 203 186
3 199 187 183
3 188 189 204
3 205 190 188
3 205 188 206
3 204 207 188
3 207 206 188
3 206 208 205
3 211 210 209
3 210 212 209
3 204 189 192
3 204 214 207
3 204 213 214
3 204 192 213
3 194 213 192
3 190 205 193
3 216 214 213
3 208 215 205
3 215 193 205
3 215 195 193
3 217 196 195
3 217 195 218
3 218 195 215
3 218 219 217
3 222 221 220
3 198 220 221
3 198 221 197
3 197 221 223
3 225 200 209
3 225 209 224
3 200 197 209
3 211 209 223
3 197 223 209
3 209 212 224
3 213 194 201
3 216 213 201
3 216 201 226
3 226 201 202
3 196 217 227
3 196 227 202
3 202 227 226
3 217 219 227
3 222 220 228
3 220 198 203
3 220 203 228
3 228 203 229
3 229 203 200
3 225 229 200
3 206 207 230
3 231 208 206
3 231 206 232
3 230 233 206
3 233 232 206
3 232 234 231
3 210 211 235
3 210 235 212
3 230 207 214
3 230 237 233
3 230 236 237
3 230 214 236
3 216 236 214
3 208 231 215
3 239 237 236
3 234 238 231
3 238 215 231
3 238 218 215
3 240 219 218
3 240 218 241
3 241 218 238
3 241 243 242
3 240 241 242
3 243 244 242
3 247 246 245
3 246 249 248
3 245 246 248
3 222 248 249
3 222 249 221
3 221 249 250
3 252 251 223
3 252 223 250
3 250 223 221
3 225 224 235
3 225 235 251
3 211 223 235
3 223 251 235
3 235 224 212
3 236 216 226
3 239 236 226
3 239 226 253
3 253 226 227
3 219 240 254
3 219 254 227
3 227 254 253
3 240 242 255
3 254 240 255
3 242 244 255
3 247 245 256
3 245 248 257
3 256 245 257
3 248 222 228
3 248 228 257
3 257 228 258
3 251 252 258
3 251 258 229
3 229 258 228
3 251 229 225
3 232 233 259
3 260 234 232
3 260 232 261
3 259 262 232
3 262 261 232
3 261 263 260
3 266 265 264
3 265 267 264
3 259 233 237
3 259 269 262
3 259 268 269
3 259 237 268
3 239 268 237
3 234 260 238
3 271 269 268
3 263 270 260
3 270 238 260
3 270 241 238
3 270 272 241
3 241 272 243
3 273 244 243
3 273 243 274
3 274 243 272
3 274 276 275
3 273 274 275
3 247 275 276
3 247 276 246
3 246 276 277
3 277 278 246
3 246 278 249
3 281 279 280
3 278 266 250
3 278 250 249
3 250 266 264
3 250 264 267
3 250 267 252
3 280 279 267
3 279 252 267
3 268 239 253
3 271 268 253
3 271 253 282
3 282 253 254
3 282 254 283
3 254 255 283
3 244 273 284
3 244 284 255
3 255 284 283
3 273 275 285
3 284 273 285
3 275 247 256
3 275 256 285
3 285 256 286
3 286 256 287
3 256 257 287
3 279 281 287
3 279 287 258
3 258 287 257
3 279 258 252
3 261 262 288
3 289 263 261
3 289 261 290
3 288 291 261
3 291 290 261
3 290 293 292
3 289 290 292
3 293 295 294
3 292 293 294
3 295 297 296
3 294 295 296
3 297 299 298
3 296 297 298
3 299 301 300
3 298 299 300
3 266 300 301
3 266 301 265
3 303 302 301
3 302 265 301
3 265 302 267
3 288 262 269
3 288 305 291
3 288 304 305
3 288 269 304
3 271 304 269
3 263 289 270
3 305 304 307
3 307 304 306
3 270 289 292
3 270 292 272
3 307 306 309
3 309 306 308
3 272 292 294
3 272 294 274
3 309 308 311
3 311 308 310
3 274 294 296
3 274 296 276
3 311 310 313
3 313 310 312
3 276 296 298
3 276 298 277
3 313 312 315
3 315 312 314
3 277 298 300
3 277 300 278
3 303 280 302
3 303 281 280
3 303 315 281
3 314 281 315
3 300 266 278
3 302 280 267
3 304 271 282
3 306 304 282
3 283 306 282
3 308 306 283
3 284 308 283
3 310 308 284
3 285 310 284
3 312 310 285
3 286 312 285
3 314 312 286
3 287 314 286
3 314 287 281
3 290 291 316
3 293 290 316
3 317 293 316
3 295 293 317
3 318 295 317
3 297 295 318
3 319 297 318
3 299 297 319
3 320 299 319
3 301 299 320
3 321 301 320
3 301 321 303
3 316 291 305
3 317 316 305
3 307 317 305
3 318 317 307
3 309 318 307
3 319 318 309
3 311 319 309
3 320 319 311
3 313 320 311
3 321 320 313
3 315 321 313
3 321 315 303
