ply
format ascii 1.0
element vertex 462
property float x
property float y
property float z
property uchar red
property uchar green
property uchar blue
element face 908
property list uchar int vertex_indices
end_header
-9.5469207763671875 -7 8 20 222 27
-9 -7.54175186157226562 8 29 254 29
-9 -7 7.86420679092407227 89 225 30
-9 -7 8.5469207763671875 58 254 28
-9.63650321960449219 -6 -9 109 240 24
-9 -6.896881103515625 -9 92 174 22
-9 -6 -9.63650321960449219 114 243 25
-9 -6 -8.79748249053955078 111 177 22
-9.75739192962646484 -6 8 32 218 20
-9 -6 7.63986921310424805 111 229 33
-9 -6 8.75739192962646484 81 254 30
-9.77300930023193359 -5 -9 128 245 26
-9 -5 -9.77300930023193359 133 247 27
-9 -5 -8.59734439849853516 130 189 25
-9.82588386535644531 -5 8 44 207 21
-9 -5 7.44025945663452148 130 237 37
-9 -5 8.82588386535644531 96 251 33
-9.82697582244873047 -4 -9 140 251 31
-9 -4 -9.82697582244873047 145 252 31
-9 -4 -8.42381191253662109 149 205 31
-9.85894012451171875 -4 8 47 190 23
-9 -4 7.26698970794677734 143 245 44
-9 -4 8.85894012451171875 102 245 37
-9.85482978820800781 -3 -9 144 254 36
-9 -3 -9.85482978820800781 148 254 36
-9 -3 -8.27840614318847656 163 223 39
-9.87767410278320312 -3 8 42 165 23
-9 -3 7.12167072296142578 148 252 52
-9 -3 8.87767410278320312 99 234 40
-9.87088298797607422 -2 -9 138 253 39
-9 -2 -9.87088298797607422 141 252 40
-9 -2 -8.16254901885986328 169 239 46
-9.88905048370361328 -2 8 32 136 20
-9 -2 7.00580072402954102 145 254 58
-9 -2 8.88905048370361328 88 217 41
-9.88036537170410156 -1 -9 121 246 40
-9 -1 -9.88036537170410156 124 244 40
-9 -1 -8.07746696472167969 163 250 49
-9.3876800537109375 -1 7 74 207 40
-9 -1.93123328685760498 7 145 254 58
-9 -1 6.91877508163452148 160 242 68
-9.89598178863525391 -1 8 19 103 16
-9 -1 8.89598178863525391 70 195 38
-9.88554763793945312 0 -9 131 254 42
-9 0 -9.88554763793945312 135 254 43
-9 0 -8.02411460876464844 155 229 47
-9.51285648345947266 0 7 90 237 48
-9 0 6.86421823501586914 146 215 63
-9.89983940124511719 0 8 33 157 26
-9 0 8.89983940124511719 87 229 47
-9.88745021820068359 1 -9 123 201 37
-9 1 -9.88745021820068359 131 207 39
-9 1 -8.00311088562011719 86 112 25
-9.54885578155517578 1 7 116 244 54
-9 1 6.84276247024536133 67 88 28
-9.90126800537109375 1 8 76 246 45
-9 1 8.90126800537109375 119 249 57
-9.88640975952148438 2 -9 45 65 13
-9 2 -9.88640975952148438 53 75 15
-9 2 -8.01470375061035156 40 48 11
-9.529693603515625 2 7 83 151 36
-9 2 6.85460329055786133 61 74 26
-9.90048599243164062 2 8 91 235 47
-9 2 8.90048599243164062 92 167 41
-9.88224315643310547 3 -9 63 87 19
-9 3 -9.88224315643310547 58 78 17
-9 3 -8.05875587463378906 160 183 49
-9.43848419189453125 3 7 2 3 0
-9 3 6.89963197708129883 175 202 76
-9.89737415313720703 3 8 58 133 29
-9 3 8.89737415313720703 14 24 6
-9.87416362762451172 4 -9 147 201 47
-9 4 -9.87416362762451172 146 195 47
-9 4 -8.13475227355957031 218 249 71
-9.15025043487548828 4 7 82 135 38
-9 4 6.97744464874267578 222 254 102
-9.89143085479736328 4 8 3 6 1
-9 4 8.89143085479736328 72 118 34
-9.86036300659179688 5 -9 176 251 64
-9 5 -9.86036300659179688 179 250 66
-9 5 -8.24183177947998047 206 244 75
-9 4.20346212387084961 7 164 216 75
-9.8815460205078125 5 8 57 132 33
-9 5 7.08509969711303711 188 254 94
-9 5 8.8815460205078125 127 214 66
-9.83677768707275391 6 -9 156 245 67
-9 6 -9.83677768707275391 162 247 70
-9 6 -8.37883758544921875 149 191 63
-9.86539363861083984 6 8 81 214 57
-9 6 7.22205495834350586 161 234 91
-9 6 8.86539363861083984 137 253 83
-9.79298686981201172 7 -9 110 203 59
-9 7 -9.79298686981201172 117 209 63
-9 7 -8.54439544677734375 81 118 41
-9.83765697479248047 7 8 74 250 70
-9 7 7.38741016387939453 110 179 73
-9 7 8.83765697479248047 114 245 85
-9.69315147399902344 8 -9 62 147 46
-9 8 -9.69315147399902344 68 154 50
-9 8 -8.73700237274169922 25 43 16
-9.78353691101074219 8 8 74 252 102
-9 8 7.57957601547241211 58 113 48
-9 8 8.78353691101074219 76 211 76
-9 8.69315147399902344 -9 25 43 16
-9 8.78353691101074219 8 76 211 76
-8.85523128509521484 -7 8 58 254 28
-8.78852176666259766 -6 -9 111 177 22
-8.61601066589355469 -6 8 81 254 30
-8.57949352264404297 -5 -9 130 189 25
-8.40310478210449219 -5 8 96 251 33
-8.39822769165039062 -4 -9 149 205 31
-8.21825408935546875 -4 8 102 245 37
-8.2463226318359375 -3 -9 163 223 39
-8.06319618225097656 -3 8 99 234 40
-8.12527561187744141 -2 -9 169 239 46
-8 -2.48554301261901855 8 145 254 53
-8 -2 7.94909143447875977 167 236 65
-8 -2 8.31357097625732422 139 252 57
-8.03637790679931641 -1 -9 163 250 49
-8.92461681365966797 -1 7 131 251 60
-8 -1 7.87276792526245117 164 248 71
-8 -1 8.53097629547119141 123 243 58
-8 -0.346082240343093872 -9 167 211 50
-8 0 -9.12817955017089844 161 239 49
-8 0 -8.98333549499511719 137 169 42
-8.87398910522460938 0 7 138 254 63
-8 0 7.82500219345092773 154 225 68
-8 0 8.60766792297363281 134 254 64
-8 1 -9.23830699920654297 103 134 30
-8 1 -8.96446704864501953 15 16 4
-8.85407829284667969 1 7 119 188 51
-8 1 7.80621671676635742 82 107 35
-8 1 8.63120555877685547 130 210 58
-8 2 -9.18128776550292969 20 23 5
-8 2 -8.97487926483154297 134 140 41
-8.8650665283203125 2 7 32 45 13
-8 2 7.81658363342285156 45 54 19
-8 2 8.61858940124511719 55 80 24
-8.01682662963867188 3 -9 160 183 49
-8 2.6332857608795166 -9 134 140 41
-8.90685176849365234 3 7 81 108 35
-8 3 7.85600757598876953 164 189 73
-8 3 8.56118011474609375 55 75 24
-8.09623336791992188 4 -9 218 249 71
-8.97906589508056641 4 7 164 216 75
-8 4 7.92413568496704102 220 251 104
-8 4 8.40436363220214844 146 195 68
-8.20811080932617188 5 -9 206 244 75
-8.02417087554931641 5 8 127 214 66
-8 4.78645038604736328 8 146 195 68
-8.35124492645263672 6 -9 149 191 63
-8.17031002044677734 6 8 137 253 83
-8.52418804168701172 7 -9 81 118 41
-8.34672641754150391 7 8 114 245 85
-8.72535991668701172 8 -9 25 43 16
-8.55170631408691406 8 8 76 211 76
-7.93710231781005859 -2 8 139 252 57
-7.84278059005737305 -1 8 123 243 58
-7.97983455657958984 0 -9 137 169 42
-7.78373527526855469 0 8 134 254 64
-7.95699977874755859 1 -9 15 16 4
-7.76051139831542969 1 8 130 210 58
-7.96960115432739258 2 -9 134 140 41
-7.77332830429077148 2 8 55 80 24
-7.82206392288208008 3 8 55 75 24
-7.9062647819519043 4 8 146 195 68
5.99150753021240234 0 8 185 239 78
6 -0.141065537929534912 8 84 127 35
6 0 7.99334621429443359 201 246 84
6 0 8.05660247802734375 121 178 51
5.96794033050537109 1 8 207 242 87
6 1 7.97488164901733398 211 234 87
6 1 8.18435955047607422 193 252 79
5.98094606399536133 2 8 133 146 56
6 2 7.98507118225097656 121 127 51
6 2 8.11854648590087891 184 221 75
6 2.38419103622436523 8 184 221 75
6.99370098114013672 -6 -9 207 238 51
7 -6.02592754364013672 -9 165 251 52
7 -6 -9.04924297332763672 112 193 31
7 -6 -8.99413681030273438 185 250 47
6.81984329223632812 -6 8 142 229 40
7 -6.74243354797363281 8 60 150 22
7 -6 7.8357539176940918 152 232 42
7 -6 8.59274101257324219 71 145 21
6.78306913375854492 -5 -9 225 243 52
7 -5 -9.63582611083984375 118 185 29
7 -5 -8.79808712005615234 198 248 46
6.6055750846862793 -5 8 151 221 43
7 -5 7.640472412109375 161 224 45
7 -5 8.75709629058837891 73 130 21
6.60067033767700195 -4 -9 238 248 58
7 -4 -9.75926876068115234 115 170 28
7 -4 -8.62835788726806641 202 242 48
6.41979503631591797 -4 8 148 207 46
7 -4 7.47120809555053711 158 211 48
7 -4 8.81807994842529297 64 107 20
6.44799041748046875 -3 -9 244 253 66
7 -3 -9.81100082397460938 102 148 27
7 -3 -8.4863128662109375 195 231 52
6.2641291618347168 -3 8 135 186 46
7 -3 7.32941627502441406 145 190 49
7 -3 8.84873199462890625 46 77 16
6.32643461227416992 -2 -9 240 254 75
7 -2 -9.83791351318359375 81 120 25
7 -2 -8.37324142456054688 178 215 55
6.14009857177734375 -2 8 112 159 43
7 -2 7.21646213531494141 121 164 46
7 -2 8.86615085601806641 24 42 9
6.23722076416015625 -1 -9 225 250 79
7 -1 -9.85293006896972656 56 87 20
7 -1 -8.29026412963867188 152 193 53
6.04901599884033203 -1 8 84 127 35
7 -1 7.13352584838867188 92 133 38
7 -1 8.87635707855224609 2 4 1
6.18129920959472656 0 -9 234 254 86
7 0 -9.86087894439697266 97 144 36
7 0 -8.23825550079345703 185 228 68
7 0 7.08152389526367188 131 183 54
7 0 8.88190937042236328 38 68 16
6.15928840637207031 1 -9 192 192 72
7 1 -9.86375236511230469 185 242 68
7 1 -8.21778583526611328 224 250 82
7 1 7.06105232238769531 202 253 81
7 1 8.88394260406494141 133 204 55
6.17143630981445312 2 -9 53 50 21
7 2 -9.8621826171875 200 240 75
7 2 -8.22908306121826172 161 169 61
7 2 7.07235097885131836 187 218 76
7 2 8.88283061981201172 184 254 74
6.21760654449462891 3 -9 100 93 44
7 3 -9.85583114624023438 129 147 51
7 3 -8.27202129364013672 27 28 11
6.02898502349853516 3 8 93 108 39
7 3 7.11528730392456055 90 101 38
7 3 8.87837123870849609 157 206 64
6.29728317260742188 4 -9 209 196 101
7 4 -9.84318065643310547 10 12 4
7 4 -8.34612655639648438 110 112 48
6.11034154891967773 4 8 28 33 12
7 4 7.18936538696289062 35 39 15
7 4 8.86968994140625 71 92 31
6.40960788726806641 5 -9 253 245 131
7 5 -9.82049846649169922 98 114 47
7 5 -8.4506072998046875 201 209 98
6.22497463226318359 5 8 128 151 62
7 5 7.29375600814819336 137 157 66
7 5 8.85475635528564453 26 34 12
6.55343103408813477 6 -9 237 240 133
7 6 -9.77826213836669922 164 201 90
7 6 -8.58440685272216797 230 251 127
6.37164735794067383 6 8 179 225 98
7 6 7.42734813690185547 188 227 102
7 6 8.82892894744873047 97 140 53
6.72739315032958984 7 -9 178 193 114
7 7 -9.68568515777587891 185 245 119
7 7 -8.74627494812011719 212 249 135
6.54888916015625 7 8 184 253 116
7 7 7.5888209342956543 191 253 120
7 7 8.7799224853515625 129 209 84
6.93001937866210938 8 -9 113 131 83
7 8 -9.36375904083251953 173 254 134
7 8 -8.93485832214355469 172 219 128
6.75509357452392578 8 8 159 249 120
7 8 7.77673435211181641 166 248 123
7 8 8.66278266906738281 128 244 103
7 8.36375904083251953 -9 172 219 128
7 8.66278266906738281 8 128 244 103
7.75816059112548828 -9 -9 117 245 76
8 -9.68854713439941406 -9 52 145 64
8 -9 -9.68854713439941406 12 48 15
8 -9 -8.74277496337890625 56 165 47
7.60198307037353516 -9 8 23 133 25
8 -9.78130149841308594 8 6 34 16
8 -9 7.58533143997192383 22 124 23
8 -9 8.78130149841308594 1 7 2
7.48209905624389648 -8 -9 141 249 62
8 -8 -9.82088851928710938 16 61 12
8 -8 -8.44905185699462891 74 177 40
7.32070493698120117 -8 8 42 147 22
8 -8 7.29220199584960938 42 138 22
8 -8 8.85500621795654297 1 9 1
7.22668933868408203 -7 -9 165 251 52
8 -7 -9.86907196044921875 23 67 11
8 -7 -8.17721652984619141 92 182 34
7.06001567840576172 -7 8 60 150 22
8 -7 7.02047395706176758 59 142 21
8 -7 8.88774490356445312 3 13 1
8 -6 -9.89359474182128906 26 63 9
7.94058465957641602 -6 -8 213 244 53
8 -6.27953004837036133 -8 156 243 50
8 -6 -7.92721366882324219 175 242 45
7.80568647384643555 -6 7 152 232 42
8 -6.91529417037963867 7 59 142 21
8 -6 6.76743936538696289 144 220 39
8 -6 8.90592861175537109 2 7 0
8 -5 -9.90812873840332031 24 51 6
7.75518178939819336 -5 -8 230 248 54
8 -5 -7.69997119903564453 186 238 44
7.6174769401550293 -5 7 161 224 45
8 -5 6.54202747344970703 152 212 41
8 -5 8.91724491119384766 3 9 1
8 -4 -9.91746616363525391 16 32 4
7.59463405609130859 -4 -8 242 252 60
8 -4 -7.50305557250976562 188 229 46
7.45431804656982422 -4 7 158 211 48
8 -4 6.34650039672851562 147 196 44
8 -4 8.92473888397216797 15 35 5
8 -3 -9.92370986938476562 2 5 0
7.46024703979492188 -3 -8 245 254 68
8 -3 -7.3381352424621582 178 215 48
7.31762456893920898 -3 7 145 190 49
8 -3 6.18261003494262695 132 174 44
8 -3 8.92985248565673828 30 66 11
8 -2 -9.92791366577148438 13 26 4
7.3532567024230957 -2 -8 238 253 76
8 -2 -7.20677852630615234 158 194 49
7.20872163772583008 -2 7 121 164 46
8 -2 6.05199050903320312 107 145 40
8 -2 8.93334293365478516 44 100 19
8 -1 -9.9306488037109375 29 59 11
7.2747340202331543 -1 -8 221 245 79
8 -1 -7.11034154891967773 130 168 46
7.96677064895629883 -1 6 178 217 73
8 -1.455680251121521 6 107 145 40
8 -1 5.9533991813659668 157 195 63
7.12875461578369141 -1 7 92 133 38
8 -1 8.93563461303710938 52 132 26
8 0 -9.93223381042480469 1 3 0
7.22551393508911133 0 -8 234 254 87
8 0 -7.04988002777099609 168 210 62
7.92135095596313477 0 6 204 244 84
8 0 5.88968610763549805 188 229 76
7.07861185073852539 0 7 131 183 54
8 0 8.93696880340576172 31 74 15
8 1 -9.93283176422119141 98 156 38
7.20614099502563477 1 -8 204 204 77
8 1 -7.02607917785644531 225 254 84
7.90349149703979492 1 6 217 237 89
8 1 5.86462831497192383 224 249 90
7.05887222290039062 1 7 202 253 81
8 1 8.93747520446777344 46 90 20
8 2 -9.93250370025634766 172 246 67
7.21683311462402344 2 -8 71 68 29
8 2 -7.0392155647277832 182 193 70
7.91334724426269531 2 6 129 134 54
8 2 5.87845659255981445 158 165 64
7.06976747512817383 2 7 187 218 76
8 2 8.93719673156738281 127 216 53
8 3 -9.93121528625488281 177 238 72
7.25747013092041016 3 -8 82 76 37
8 3 -7.08913612365722656 60 62 24
7.95083189010620117 3 6 15 15 6
8 3 5.93104362487792969 23 23 9
7.11116886138916016 3 7 90 101 38
8 3 8.9361114501953125 161 254 67
8 4 -9.92883777618408203 114 150 50
7.32759857177734375 4 -8 198 185 96
8 4 -7.17527008056640625 78 80 34
8 3.75746989250183105 6 110 123 45
7.18259572982788086 4 7 35 39 15
8 4 6.02064800262451172 14 16 6
8 4 8.93411445617675781 132 205 58
8 5 -9.92510223388671875 21 29 10
7.42646360397338867 5 -8 251 242 131
8 5 -7.29666328430175781 178 187 87
7.28324413299560547 5 7 137 157 66
8 5 6.14137840270996094 120 137 57
8 5 8.93100452423095703 65 105 32
8 6 -9.91952896118164062 60 85 34
7.5530543327331543 6 -8 242 246 138
8 6 -7.45203781127929688 220 243 123
7.41203641891479492 6 7 188 227 102
8 6 6.29581403732299805 178 215 96
8 6 8.92641925811767578 3 5 1
8 7 -9.91123867034912109 109 170 74
7.70617532730102539 7 -8 189 204 123
8 7 -7.6398768424987793 214 254 138
7.56769084930419922 7 7 191 253 120
8 7 6.4823756217956543 189 250 117
8 7 8.91972064971923828 49 100 34
8 8 -9.89852809906005859 127 223 106
7.88453006744384766 8 -8 127 147 94
8 8 -7.85852766036987305 182 234 136
7.74880790710449219 8 7 166 248 123
8 8 6.69933366775512695 168 252 125
8 8 8.90972328186035156 65 169 61
8 8.89852809906005859 -9 175 254 135
8 8.5171661376953125 -8 182 234 136
8 8.6963958740234375 7 131 241 104
8 8.90972328186035156 8 65 169 61
8.68854713439941406 -9 -9 56 165 47
8.78130149841308594 -9 8 1 7 2
8.82088851928710938 -8 -9 74 177 40
8.85500621795654297 -8 8 1 9 1
8.86907196044921875 -7 -9 92 182 34
8.88774490356445312 -7 8 3 13 1
8.89359474182128906 -6 -9 105 180 29
8.35678768157958984 -6 -8 175 242 45
8.64107990264892578 -6 7 70 137 21
8.90592861175537109 -6 8 2 7 0
8.90812873840332031 -5 -9 110 171 27
8.69109249114990234 -5 -8 186 238 44
8.77476024627685547 -5 7 70 123 20
8.91724491119384766 -5 8 3 9 1
8.91746616363525391 -4 -9 106 156 26
8.78426551818847656 -4 -8 188 229 46
8.82797336578369141 -4 7 61 99 19
8.92473888397216797 -4 8 15 35 5
8.92370986938476562 -3 -9 92 132 25
8.82651329040527344 -3 -8 178 215 48
8.85552120208740234 -3 7 43 69 15
8.92985248565673828 -3 8 30 66 11
8.92791366577148438 -2 -9 70 103 22
8.84931087493896484 -2 -8 158 194 49
8.87142181396484375 -2 7 20 33 7
8.93334293365478516 -2 8 44 100 19
8.9306488037109375 -1 -9 45 69 16
8.86228466033935547 -1 -8 130 168 46
8.23731422424316406 -1 6 78 112 31
8.88082313537597656 -1 7 1 3 0
8.93563461303710938 -1 8 52 132 26
8.93223381042480469 0 -9 87 128 33
8.86922931671142578 0 -8 168 210 62
8.42284774780273438 0 6 118 166 48
8.88596439361572266 0 7 34 60 15
8.93696880340576172 0 8 31 74 15
8.93283176422119141 1 -9 181 235 67
8.87175178527832031 1 -8 225 254 84
8.472900390625 1 6 200 249 79
8.88785266876220703 1 7 133 199 54
8.93747520446777344 1 8 46 90 20
8.93250370025634766 2 -9 206 246 78
8.87037277221679688 2 -8 182 193 70
8.44643211364746094 2 6 197 229 78
8.88681983947753906 2 7 188 254 75
8.93719673156738281 2 8 127 216 53
8.93121528625488281 3 -9 142 162 57
8.86481285095214844 3 -8 60 62 24
8.31486415863037109 3 6 110 123 45
8.88268661499023438 3 7 164 211 67
8.9361114501953125 3 8 161 254 67
8.92883777618408203 4 -9 27 31 11
8.85383987426757812 4 -8 78 80 34
8.87467479705810547 4 7 79 100 34
8.93411445617675781 4 8 132 205 58
8.92510223388671875 5 -9 83 97 40
8.83449268341064453 5 -8 178 187 87
8.86099910736083984 5 7 19 25 9
8.93100452423095703 5 8 65 105 32
8.91952896118164062 6 -9 155 189 86
8.79954242706298828 6 -8 220 243 123
8.8376617431640625 6 7 94 132 51
8.92641925811767578 6 8 3 5 1
8.91123867034912109 7 -9 181 239 118
8.72750091552734375 7 -8 214 254 138
8.79443550109863281 7 7 129 203 83
8.91972064971923828 7 8 49 100 34
8.89852809906005859 8 -9 175 254 135
8.5171661376953125 8 -8 182 234 136
8.6963958740234375 8 7 131 241 104
8.90972328186035156 8 8 65 169 61
3 2 1 0
3 1 3 0
3 6 5 4
3 5 7 4
3 9 2 0
3 8 9 0
3 3 10 8
3 0 3 8
3 12 6 4
3 11 12 4
3 7 13 11
3 4 7 11
3 15 9 8
3 14 15 8
3 10 16 14
3 8 10 14
3 18 12 11
3 17 18 11
3 13 19 17
3 11 13 17
3 21 15 14
3 20 21 14
3 16 22 20
3 14 16 20
3 24 18 17
3 23 24 17
3 19 25 23
3 17 19 23
3 27 21 20
3 26 27 20
3 22 28 26
3 20 22 26
3 30 24 23
3 29 30 23
3 25 31 29
3 23 25 29
3 33 27 26
3 32 33 26
3 28 34 32
3 26 28 32
3 36 30 29
3 35 36 29
3 31 37 35
3 29 31 35
3 40 39 38
3 39 33 32
3 39 32 38
3 38 32 41
3 34 42 41
3 32 34 41
3 44 36 35
3 43 44 35
3 37 45 43
3 35 37 43
3 47 40 38
3 46 47 38
3 38 41 46
3 41 48 46
3 42 49 48
3 41 42 48
3 51 44 43
3 50 51 43
3 45 52 50
3 43 45 50
3 54 47 46
3 53 54 46
3 46 48 53
3 48 55 53
3 49 56 55
3 48 49 55
3 58 51 50
3 57 58 50
3 52 59 57
3 50 52 57
3 61 54 53
3 60 61 53
3 53 55 60
3 55 62 60
3 56 63 62
3 55 56 62
3 65 58 57
3 64 65 57
3 59 66 64
3 57 59 64
3 68 61 60
3 67 68 60
3 60 62 67
3 62 69 67
3 63 70 69
3 62 63 69
3 72 65 64
3 71 72 64
3 66 73 71
3 64 66 71
3 75 68 67
3 74 75 67
3 67 69 74
3 69 76 74
3 70 77 76
3 69 70 76
3 79 72 71
3 78 79 71
3 73 80 78
3 71 73 78
3 75 74 81
3 83 81 74
3 83 74 82
3 82 74 76
3 77 84 82
3 76 77 82
3 86 79 78
3 85 86 78
3 80 87 85
3 78 80 85
3 89 83 82
3 88 89 82
3 84 90 88
3 82 84 88
3 92 86 85
3 91 92 85
3 87 93 91
3 85 87 91
3 95 89 88
3 94 95 88
3 90 96 94
3 88 90 94
3 98 92 91
3 97 98 91
3 93 99 97
3 91 93 97
3 101 95 94
3 100 101 94
3 96 102 100
3 94 96 100
3 98 97 103
3 97 99 103
3 101 100 104
3 100 102 104
3 1 2 105
3 1 105 3
3 5 6 106
3 5 106 7
3 107 105 2
3 9 107 2
3 105 107 10
3 3 105 10
3 108 106 6
3 12 108 6
3 106 108 13
3 7 106 13
3 109 107 9
3 15 109 9
3 107 109 16
3 10 107 16
3 110 108 12
3 18 110 12
3 108 110 19
3 13 108 19
3 111 109 15
3 21 111 15
3 109 111 22
3 16 109 22
3 112 110 18
3 24 112 18
3 110 112 25
3 19 110 25
3 113 111 21
3 27 113 21
3 111 113 28
3 22 111 28
3 114 112 24
3 30 114 24
3 112 114 31
3 25 112 31
3 115 113 27
3 115 27 116
3 116 27 33
3 113 115 117
3 113 117 28
3 28 117 34
3 118 114 30
3 36 118 30
3 114 118 37
3 31 114 37
3 39 40 119
3 119 33 39
3 119 120 33
3 120 116 33
3 117 121 34
3 121 42 34
3 122 118 36
3 122 36 123
3 123 36 44
3 118 122 124
3 118 124 37
3 37 124 45
3 125 119 40
3 47 125 40
3 120 125 126
3 119 125 120
3 121 127 42
3 127 49 42
3 123 44 128
3 128 44 51
3 124 129 45
3 129 52 45
3 130 125 47
3 54 130 47
3 126 130 131
3 125 130 126
3 127 132 49
3 132 56 49
3 128 51 133
3 133 51 58
3 129 134 52
3 134 59 52
3 135 130 54
3 61 135 54
3 131 135 136
3 130 135 131
3 132 137 56
3 137 63 56
3 138 139 133
3 138 133 65
3 65 133 58
3 139 138 66
3 139 66 134
3 134 66 59
3 140 135 61
3 68 140 61
3 136 140 141
3 135 140 136
3 137 142 63
3 142 70 63
3 143 138 65
3 72 143 65
3 138 143 73
3 66 138 73
3 144 140 68
3 75 144 68
3 141 144 145
3 140 144 141
3 142 146 70
3 146 77 70
3 147 143 72
3 79 147 72
3 143 147 80
3 73 143 80
3 144 75 81
3 81 83 148
3 144 81 148
3 144 148 149
3 144 149 145
3 149 148 84
3 149 84 146
3 146 84 77
3 150 147 79
3 86 150 79
3 147 150 87
3 80 147 87
3 151 148 83
3 89 151 83
3 148 151 90
3 84 148 90
3 152 150 86
3 92 152 86
3 150 152 93
3 87 150 93
3 153 151 89
3 95 153 89
3 151 153 96
3 90 151 96
3 154 152 92
3 98 154 92
3 152 154 99
3 93 152 99
3 155 153 95
3 101 155 95
3 153 155 102
3 96 153 102
3 154 98 103
3 154 103 99
3 155 101 104
3 155 104 102
3 115 116 156
3 115 156 117
3 157 156 116
3 120 157 116
3 156 157 121
3 117 156 121
3 122 123 158
3 122 158 124
3 159 157 120
3 126 159 120
3 157 159 127
3 121 157 127
3 160 158 123
3 128 160 123
3 158 160 129
3 124 158 129
3 161 159 126
3 131 161 126
3 159 161 132
3 127 159 132
3 162 160 128
3 133 162 128
3 160 162 134
3 129 160 134
3 163 161 131
3 136 163 131
3 161 163 137
3 132 161 137
3 162 133 139
3 162 139 134
3 164 163 136
3 141 164 136
3 163 164 142
3 137 163 142
3 165 164 141
3 145 165 141
3 164 165 146
3 142 164 146
3 165 145 149
3 165 149 146
3 168 167 166
3 167 169 166
3 171 168 166
3 170 171 166
3 169 172 170
3 166 169 170
3 174 171 170
3 173 174 170
3 172 175 173
3 170 172 173
3 174 173 176
3 173 175 176
3 179 178 177
3 178 180 177
3 183 182 181
3 182 184 181
3 186 179 177
3 185 186 177
3 180 187 185
3 177 180 185
3 189 183 181
3 188 189 181
3 184 190 188
3 181 184 188
3 192 186 185
3 191 192 185
3 187 193 191
3 185 187 191
3 195 189 188
3 194 195 188
3 190 196 194
3 188 190 194
3 198 192 191
3 197 198 191
3 193 199 197
3 191 193 197
3 201 195 194
3 200 201 194
3 196 202 200
3 194 196 200
3 204 198 197
3 203 204 197
3 199 205 203
3 197 199 203
3 207 201 200
3 206 207 200
3 202 208 206
3 200 202 206
3 210 204 203
3 209 210 203
3 205 211 209
3 203 205 209
3 213 207 206
3 212 213 206
3 208 214 212
3 206 208 212
3 216 210 209
3 215 216 209
3 211 217 215
3 209 211 215
3 212 167 168
3 212 168 213
3 213 168 218
3 167 212 214
3 167 214 169
3 169 214 219
3 221 216 215
3 220 221 215
3 217 222 220
3 215 217 220
3 218 168 223
3 223 168 171
3 219 224 169
3 224 172 169
3 226 221 220
3 225 226 220
3 222 227 225
3 220 222 225
3 223 171 228
3 228 171 174
3 224 229 172
3 229 175 172
3 231 226 225
3 230 231 225
3 227 232 230
3 225 227 230
3 176 233 234
3 176 234 174
3 174 234 228
3 233 176 175
3 233 175 235
3 235 175 229
3 237 231 230
3 236 237 230
3 232 238 236
3 230 232 236
3 240 234 233
3 239 240 233
3 235 241 239
3 233 235 239
3 243 237 236
3 242 243 236
3 238 244 242
3 236 238 242
3 246 240 239
3 245 246 239
3 241 247 245
3 239 241 245
3 249 243 242
3 248 249 242
3 244 250 248
3 242 244 248
3 252 246 245
3 251 252 245
3 247 253 251
3 245 247 251
3 255 249 248
3 254 255 248
3 250 256 254
3 248 250 254
3 258 252 251
3 257 258 251
3 253 259 257
3 251 253 257
3 261 255 254
3 260 261 254
3 256 262 260
3 254 256 260
3 264 258 257
3 263 264 257
3 259 265 263
3 257 259 263
3 261 260 266
3 260 262 266
3 264 263 267
3 263 265 267
3 270 269 268
3 269 271 268
3 274 273 272
3 273 275 272
3 277 270 268
3 276 277 268
3 271 278 276
3 268 271 276
3 280 274 272
3 279 280 272
3 275 281 279
3 272 275 279
3 283 277 276
3 282 283 276
3 278 284 282
3 276 278 282
3 286 280 279
3 285 286 279
3 281 287 285
3 279 281 285
3 282 178 179
3 282 179 283
3 283 179 288
3 178 289 180
3 282 289 178
3 282 290 289
3 282 284 290
3 290 291 289
3 294 293 292
3 285 182 183
3 286 285 183
3 286 183 292
3 286 292 293
3 182 285 287
3 182 287 184
3 184 287 295
3 288 179 296
3 296 179 186
3 297 180 289
3 187 180 297
3 291 298 297
3 289 291 297
3 300 294 292
3 299 300 292
3 292 189 299
3 183 189 292
3 295 301 184
3 301 190 184
3 296 186 302
3 302 186 192
3 303 187 297
3 193 187 303
3 298 304 303
3 297 298 303
3 306 300 299
3 305 306 299
3 299 195 305
3 189 195 299
3 301 307 190
3 307 196 190
3 302 192 308
3 308 192 198
3 309 193 303
3 199 193 309
3 304 310 309
3 303 304 309
3 312 306 305
3 311 312 305
3 305 201 311
3 195 201 305
3 307 313 196
3 313 202 196
3 308 198 314
3 314 198 204
3 315 199 309
3 205 199 315
3 310 316 315
3 309 310 315
3 318 312 311
3 317 318 311
3 311 207 317
3 201 207 311
3 313 319 202
3 319 208 202
3 314 204 320
3 320 204 210
3 321 205 315
3 211 205 321
3 316 322 321
3 315 316 321
3 325 324 323
3 324 318 317
3 324 317 323
3 323 317 326
3 317 213 326
3 207 213 317
3 319 327 208
3 327 214 208
3 320 210 328
3 328 210 216
3 329 211 321
3 217 211 329
3 322 330 329
3 321 322 329
3 332 325 323
3 331 332 323
3 323 326 331
3 326 333 331
3 326 218 333
3 213 218 326
3 327 334 214
3 334 219 214
3 328 216 335
3 335 216 221
3 336 217 329
3 222 217 336
3 330 337 336
3 329 330 336
3 339 332 331
3 338 339 331
3 331 333 338
3 333 340 338
3 333 223 340
3 218 223 333
3 334 341 219
3 341 224 219
3 335 221 342
3 342 221 226
3 343 222 336
3 227 222 343
3 337 344 343
3 336 337 343
3 346 339 338
3 345 346 338
3 338 340 345
3 340 347 345
3 340 228 347
3 223 228 340
3 341 348 224
3 348 229 224
3 342 226 349
3 349 226 231
3 350 227 343
3 232 227 350
3 344 351 350
3 343 344 350
3 353 346 345
3 352 353 345
3 345 347 352
3 347 354 352
3 347 234 354
3 228 234 347
3 348 355 229
3 355 235 229
3 349 231 356
3 356 231 237
3 357 232 350
3 238 232 357
3 351 358 357
3 350 351 357
3 353 352 359
3 361 359 352
3 361 352 360
3 360 352 354
3 354 240 360
3 234 240 354
3 355 362 235
3 362 241 235
3 356 237 363
3 363 237 243
3 364 238 357
3 244 238 364
3 358 365 364
3 357 358 364
3 367 361 360
3 366 367 360
3 360 246 366
3 240 246 360
3 362 368 241
3 368 247 241
3 363 243 369
3 369 243 249
3 370 244 364
3 250 244 370
3 365 371 370
3 364 365 370
3 373 367 366
3 372 373 366
3 366 252 372
3 246 252 366
3 368 374 247
3 374 253 247
3 369 249 375
3 375 249 255
3 376 250 370
3 256 250 376
3 371 377 376
3 370 371 376
3 379 373 372
3 378 379 372
3 372 258 378
3 252 258 372
3 374 380 253
3 380 259 253
3 375 255 381
3 381 255 261
3 382 256 376
3 262 256 382
3 377 383 382
3 376 377 382
3 385 379 378
3 384 385 378
3 378 264 384
3 258 264 378
3 380 386 259
3 386 265 259
3 381 261 266
3 387 381 266
3 262 382 388
3 262 388 266
3 266 388 387
3 382 383 388
3 385 384 389
3 384 264 267
3 384 267 389
3 389 267 390
3 390 267 265
3 386 390 265
3 269 270 391
3 269 391 271
3 273 274 392
3 273 392 275
3 393 391 270
3 277 393 270
3 391 393 278
3 271 391 278
3 394 392 274
3 280 394 274
3 392 394 281
3 275 392 281
3 395 393 277
3 283 395 277
3 393 395 284
3 278 393 284
3 396 394 280
3 286 396 280
3 394 396 287
3 281 394 287
3 397 395 283
3 288 397 283
3 290 284 395
3 290 395 398
3 398 395 397
3 290 398 291
3 293 294 399
3 286 293 399
3 286 399 396
3 396 399 400
3 396 400 295
3 287 396 295
3 401 397 288
3 296 401 288
3 397 401 398
3 398 401 402
3 398 402 298
3 291 398 298
3 403 399 294
3 300 403 294
3 399 403 400
3 400 403 404
3 400 404 301
3 295 400 301
3 405 401 296
3 302 405 296
3 401 405 402
3 402 405 406
3 402 406 304
3 298 402 304
3 407 403 300
3 306 407 300
3 403 407 404
3 404 407 408
3 404 408 307
3 301 404 307
3 409 405 302
3 308 409 302
3 405 409 406
3 406 409 410
3 406 410 310
3 304 406 310
3 411 407 306
3 312 411 306
3 407 411 408
3 408 411 412
3 408 412 313
3 307 408 313
3 413 409 308
3 314 413 308
3 409 413 410
3 410 413 414
3 410 414 316
3 310 410 316
3 415 411 312
3 318 415 312
3 411 415 412
3 412 415 416
3 412 416 319
3 313 412 319
3 417 413 314
3 320 417 314
3 413 417 414
3 414 417 418
3 414 418 322
3 316 414 322
3 324 325 419
3 318 324 419
3 318 419 415
3 415 419 420
3 415 420 416
3 416 420 421
3 416 421 327
3 319 416 327
3 422 417 320
3 328 422 320
3 417 422 418
3 418 422 423
3 418 423 330
3 322 418 330
3 424 419 325
3 332 424 325
3 419 424 420
3 420 424 425
3 420 425 421
3 421 425 426
3 421 426 334
3 327 421 334
3 427 422 328
3 335 427 328
3 422 427 423
3 423 427 428
3 423 428 337
3 330 423 337
3 429 424 332
3 339 429 332
3 424 429 425
3 425 429 430
3 425 430 426
3 426 430 431
3 426 431 341
3 334 426 341
3 432 427 335
3 342 432 335
3 427 432 428
3 428 432 433
3 428 433 344
3 337 428 344
3 434 429 339
3 346 434 339
3 429 434 430
3 430 434 435
3 430 435 431
3 431 435 436
3 431 436 348
3 341 431 348
3 437 432 342
3 349 437 342
3 432 437 433
3 433 437 438
3 433 438 351
3 344 433 351
3 439 434 346
3 353 439 346
3 434 439 435
3 435 439 440
3 435 440 436
3 436 440 441
3 436 441 355
3 348 436 355
3 442 437 349
3 356 442 349
3 437 442 438
3 438 442 443
3 438 443 358
3 351 438 358
3 439 353 359
3 359 361 444
3 359 444 439
3 439 444 440
3 440 444 441
3 441 444 445
3 441 445 362
3 355 441 362
3 446 442 356
3 363 446 356
3 442 446 443
3 443 446 447
3 443 447 365
3 358 443 365
3 448 444 361
3 367 448 361
3 444 448 445
3 445 448 449
3 445 449 368
3 362 445 368
3 450 446 363
3 369 450 363
3 446 450 447
3 447 450 451
3 447 451 371
3 365 447 371
3 452 448 367
3 373 452 367
3 448 452 449
3 449 452 453
3 449 453 374
3 368 449 374
3 454 450 369
3 375 454 369
3 450 454 451
3 451 454 455
3 451 455 377
3 371 451 377
3 456 452 373
3 379 456 373
3 452 456 453
3 453 456 457
3 453 457 380
3 374 453 380
3 458 454 375
3 381 458 375
3 454 458 455
3 455 458 459
3 455 459 383
3 377 455 383
3 460 456 379
3 385 460 379
3 456 460 457
3 457 460 461
3 457 461 386
3 380 457 386
3 458 381 387
3 459 458 387
3 388 459 387
3 459 388 383
3 460 385 389
3 461 460 389
3 390 461 389
3 461 390 386
