ply
format ascii 1.0
element vertex 398
property float x
property float y
property float z
property uchar red
property uchar green
property uchar blue
element face 760
property list uchar int vertex_indices
end_header
-6.04721498489379883 6 -2 181 255 88
-6 5.96302509307861328 -2 182 246 146
-6 6 -2.10717034339904785 213 255 108
-6 6 -1.92421436309814453 204 255 67
-6.00139045715332031 6 1 184 255 120
-6 5.99889326095581055 1 183 255 155
-6 6 0.997684478759765625 131 157 73
-6 6 1.00283849239349365 184 242 78
-6 6.09305143356323242 -2 204 255 67
-6 6.00266790390014648 1 184 242 78
-5.1407928466796875 6 -4 200 255 100
-5 5.88935375213623047 -4 155 190 130
-5 6 -4.14503669738769531 214 255 115
-5 6 -3.88971519470214844 212 255 57
-5.96397686004638672 6 -2 204 255 67
-5.99891901016235352 6 1 184 242 78
-5.04918336868286133 6 3 209 255 171
-5 5.95983171463012695 3 200 255 185
-5 6 2.95985531806945801 9 9 8
-5 6 3.04956817626953125 189 255 93
-5 6.34287881851196289 -4 212 255 57
-5.17366409301757812 7 -1 255 246 74
-5 6.89615058898925781 -1 223 247 137
-5 7 -1.34851694107055664 255 223 116
-5.15534782409667969 7 0 255 251 84
-5 6.90618896484375 0 227 255 143
-5 7 0.284130454063415527 255 221 86
-5 6.11072683334350586 3 189 255 93
-5.0955662727355957 8 -2 255 191 0
-5 7.79071664810180664 -2 255 223 116
-5 8 -2.19138050079345703 255 154 0
-5.18390321731567383 8 -1 255 188 0
-5.16484260559082031 8 0 255 196 0
-5.03383874893188477 8 1 255 213 0
-5 7.92844581604003906 1 255 237 135
-5 8 1.06147980690002441 255 158 0
-5 8.89201164245605469 -2 255 136 0
-5 8.94209575653076172 -1 255 130 0
-5 8.93579387664794922 0 255 137 0
-5 8.74369430541992188 1 255 158 0
-4.14899158477783203 6 -5 214 255 115
-4 5.88716697692871094 -5 124 141 112
-4 6 -5.1663975715637207 191 255 57
-4.8908696174621582 6 -4 212 255 57
-4 6 -4.88776540756225586 219 255 62
-4.96024322509765625 6 3 189 255 93
-4.02314090728759766 6 4 225 255 200
-4 5.98148584365844727 4 198 226 192
-4 6 3.98154139518737793 67 68 65
-4 6 4.02485084533691406 191 255 110
-4 6.50059127807617188 -5 219 255 62
-4.30935907363891602 7 -3 255 230 122
-4 6.77785205841064453 -3 232 255 99
-4 7 -3.34356307983398438 255 223 127
-4 7 -2.57249546051025391 255 193 51
-4.89043855667114258 7 -1 255 215 81
-4.90111970901489258 7 0 255 221 86
-4.25547885894775391 7 2 255 250 164
-4 6.8096923828125 2 213 255 109
-4 7 1.63708484172821045 123 107 50
-4 7 2.27262282371520996 255 226 71
-4 6.06930923461914062 4 191 255 110
-4.39647865295410156 8 -3 255 154 0
-4 8 -3.62190866470336914 255 138 0
-4.59365606307983398 8 -2 255 136 0
-4 8 -2.34483838081359863 255 105 0
-4.70227861404418945 8 -1 255 130 0
-4.73550224304199219 8 0 255 137 0
-4.86385297775268555 8 1 255 158 0
-4.24835681915283203 8 2 255 190 0
-4 8 1.55711603164672852 255 133 45
-4 8 2.34955310821533203 255 142 0
-4 8.95820808410644531 -3 255 105 0
-4 8.93604373931884766 2 255 142 0
-3.86606645584106445 6 -5 219 255 62
-3.97863435745239258 6 4 191 255 110
-3.31750082969665527 7 -4 255 223 127
-3 6.80367183685302734 -4 198 211 102
-3 7 -4.32253170013427734 255 219 92
-3.74036693572998047 7 -3 255 193 51
-3 7 -3.76236748695373535 255 192 64
-3.78028607368469238 7 2 255 226 71
-3.21808910369873047 7 3 255 251 179
-3 6.85573577880859375 3 217 255 137
-3 7 2.82675671577453613 63 58 37
-3 7 3.2143242359161377 255 234 93
-3.67116785049438477 8 -4 255 138 0
-3 8 -4.41434049606323242 255 145 0
-3.46770048141479492 8 -3 255 105 0
-3 8 -3.41454887390136719 255 102 0
-3.67876219749450684 8 2 255 142 0
-3.39263343811035156 8 3 255 189 0
-3 8 2.63722491264343262 255 155 86
-3 8 3.23702144622802734 255 153 0
-3 8.96604537963867188 -4 255 102 0
-3 8.94625186920166016 3 255 153 0
-2.46922445297241211 7 -6 251 255 0
-2 6.3317413330078125 -6 228 255 93
-2 7 -6.0515284538269043 209 255 0
-2 7 -5.93092203140258789 255 235 0
-2 6.75660800933837891 -4 240 255 52
-2 7 -4.35874366760253906 255 219 132
-2 7 -3.81803631782531738 255 182 50
-2 6.82610082626342773 3 206 255 74
-2 7 2.8630988597869873 89 87 79
-2 7 3.23525333404541016 207 183 54
-2 7.07952451705932617 -6 255 235 0
-2.02351713180541992 8 -5 255 145 0
-2 7.98378229141235352 -5 255 219 132
-2 8 -5.01883220672607422 255 169 0
-2 8 -3.66686224937438965 255 78 0
-2.16489124298095703 8 -2 255 151 125
-2 7.94301176071166992 -2 223 180 103
-2 8 -2.18187069892883301 255 142 116
-2.66170620918273926 8 -1 255 151 127
-2 7.72469902038574219 -1 255 184 58
-2.63487577438354492 8 0 255 158 132
-2 7.7313685417175293 0 255 191 61
-2.04791617393493652 8 1 255 174 143
-2 7.9827427864074707 1 249 214 122
-2 8 1.04828691482543945 255 150 120
-2 8 2.8893120288848877 255 181 145
-2 8 3.27712202072143555 255 143 26
-2 8.49200057983398438 -5 255 125 0
-2 8.94930839538574219 -4 255 78 0
-2 8.89285850524902344 -2 255 128 108
-2 8.97700309753417969 -1 255 93 68
-2 8.97648811340332031 0 255 101 71
-2 8.70989418029785156 1 255 150 120
-2 8.85720157623291016 3 255 143 26
-1.06097853183746338 5 -7 164 255 103
-1 4.98693943023681641 -7 26 32 25
-1 5 -7.03323936462402344 48 255 0
-1 5 -6.98679590225219727 158 255 90
-1 5.03589200973510742 -7 158 255 90
-1.92160129547119141 6 -6 228 255 93
-1 5.8533782958984375 -6 76 83 71
-1 6 -6.32342195510864258 168 255 2
-1 6 -5.85402154922485352 227 255 77
-1.20970618724822998 6 5 208 255 155
-1 5.9574284553527832 5 175 186 173
-1 6 4.95752191543579102 119 120 119
-1 6 5.07781171798706055 196 255 128
-1 7 -6.01656293869018555 216 255 0
-1 7 -5.96727085113525391 255 226 0
-1.17992007732391357 7 -4 255 182 50
-1.45855402946472168 7 3 207 183 54
-1 6.23836088180541992 5 196 255 128
-1 7.0233922004699707 -6 255 226 0
-1 7.66791915893554688 -5 255 216 132
-1 8 -5.26033163070678711 255 163 0
-1 7.400787353515625 -4 223 167 71
-1 8 -3.72478008270263672 255 77 10
-1 7.77772140502929688 -2 251 186 78
-1 8 -2.55075979232788086 255 148 129
-1 7.63883590698242188 -1 255 172 37
-1 7.64377069473266602 0 255 180 41
-1 7.80230426788330078 1 255 206 89
-1 8 1.43901503086090088 255 128 96
-1.32582449913024902 8 3 255 143 26
-1.12882006168365479 8 4 255 191 0
-1 7.95930671691894531 4 255 250 181
-1 8 3.55614185333251953 255 152 60
-1 8 4.03228664398193359 255 182 0
-1 8.94629096984863281 -5 255 117 0
-1 8.91511631011962891 -4 255 77 10
-1 8.97207260131835938 -2 255 106 87
-1 8.98036384582519531 -1 255 67 41
-1 8.98031711578369141 0 255 75 44
-1 8.968475341796875 1 255 128 96
-1 8.69837856292724609 4 255 182 0
-0.855438709259033203 5 -7 158 255 90
0 5.91052484512329102 -6 38 39 38
0 6 -6.27752304077148438 162 255 0
0 6 -5.91044521331787109 229 255 98
-0.493586212396621704 6 5 196 255 128
0 7 -6.13387632369995117 213 255 0
0 7 -5.80310678482055664 255 231 0
-0.807343482971191406 7 -4 223 167 71
0 6.75258731842041016 -4 242 255 52
0 7 -4.40236234664916992 255 221 143
0 7 -3.82991886138916016 255 185 62
-0.507067203521728516 7 3 158 142 58
0 6.83382129669189453 3 209 255 79
0 7 2.87841677665710449 84 83 76
0 7 3.24361443519592285 210 186 61
0 7.20358657836914062 -6 255 231 0
0 7.77340221405029297 -5 255 221 143
0 8 -5.23400640487670898 255 166 0
0 8 -3.54548931121826172 255 74 0
0 7.84881210327148438 -2 214 168 90
0 8 -2.45930051803588867 255 150 129
0 7.67271566390991211 -1 255 181 54
0 7.67811775207519531 0 255 188 59
0 7.87934255599975586 1 238 202 110
0 8 1.32280087471008301 255 146 117
-0.787413358688354492 8 3 255 152 60
0 8 2.78154110908508301 255 185 154
-0.523454129695892334 8 4 255 182 0
0 8 3.80861520767211914 255 148 44
0 8.92932987213134766 -5 255 121 0
0 8.95828437805175781 -4 255 74 0
0 8.95904922485351562 -2 255 126 107
0 8.97974872589111328 -1 255 87 62
0 8.97955608367919922 0 255 94 65
0 8.94825267791748047 1 255 146 117
0 8.91486263275146484 3 255 148 44
0.221560612320899963 6 -6 229 255 98
1 6.76500988006591797 -6 235 255 153
1 7 -6.1828923225402832 200 255 0
1 7 -5.78221654891967773 255 250 0
1 6.72538995742797852 -4 179 191 79
1 7 -4.45703601837158203 255 225 133
1 7 -3.72255063056945801 255 190 64
1 6.75433063507080078 3 212 250 124
1 7 2.74903106689453125 67 63 48
1 7 3.36510920524597168 255 231 83
1 7.39665794372558594 -6 255 250 0
0.471292346715927124 8 -5 255 121 0
1 8 -4.72794342041015625 255 138 0
1 8 -3.19366860389709473 255 93 0
0.563948571681976318 8 -2 255 126 107
1 7.93486833572387695 -1 182 155 102
1 8 -1.34853148460388184 255 162 143
1 7.94728565216064453 0 190 166 109
0.426761746406555176 8 1 255 146 117
1 8 0.239779293537139893 255 156 132
1 8 2.39405298233032227 255 170 118
1 8 3.4947509765625 255 145 0
1 8.97529220581054688 -4 255 93 0
1 8.90643596649169922 -1 255 150 129
1 8.88589096069335938 0 255 156 132
1 8.96873950958251953 3 255 145 0
1.96585798263549805 4 -7 227 227 227
2 3.96741747856140137 -7 66 104 73
2 4 -7.05538797378540039 30 255 60
2 4 -6.96638727188110352 122 255 115
2 4.04712867736816406 -7 122 255 115
1.76636946201324463 6 -5 161 165 134
2 5.77667093276977539 -5 96 117 78
2 6 -5.33894777297973633 220 255 133
2 6 -4.7853083610534668 225 255 80
1.82040166854858398 6 4 76 81 70
2 5.82710599899291992 4 158 198 147
2 6 3.83172225952148438 56 57 54
2 6 4.23567008972167969 192 255 106
1.36920809745788574 7 -6 255 250 0
2 6.92123699188232422 -5 225 255 80
1.59883737564086914 7 -4 255 190 64
1.71618938446044922 7 -3 114 102 79
2 6.6862483024597168 -3 203 221 70
2 7 -3.60638332366943359 255 228 159
2 7 -2.6463015079498291 255 191 57
1.73058426380157471 7 2 67 63 48
2 6.70736932754516602 2 215 255 100
2 7 1.66595840454101562 129 117 77
1.47686851024627686 7 3 255 231 83
2 7 2.50081753730773926 255 221 67
2 6.57551956176757812 4 192 255 106
2 7.58584451675415039 -4 255 228 159
2 8 -4.36098766326904297 255 162 0
1.19955313205718994 8 -3 255 128 90
1.90501916408538818 8 -2 255 162 143
2 7.97932195663452148 -2 158 137 92
1.33862793445587158 8 -1 255 150 129
2 8 -1.90872752666473389 255 131 82
1.26912522315979004 8 0 255 156 132
1.3880009651184082 8 2 255 170 118
2 8 1.11670446395874023 255 157 99
2 7.80375003814697266 3 255 249 192
2 8 3.16920757293701172 255 176 0
2 8.95763301849365234 -4 255 125 0
2 8.97437763214111328 -3 255 92 0
2 8.65522670745849609 -2 255 131 82
2 8.96950054168701172 2 255 134 11
2 8.91992282867431641 3 255 176 0
2.04284930229187012 4 -7 122 255 115
2.36444401741027832 6 -5 225 255 80
2.82926106452941895 6 -4 8 8 8
3 5.81022977828979492 -4 113 153 82
3 6 -4.30160808563232422 237 255 184
3 6 -3.82883477210998535 224 255 93
2.87774419784545898 6 3 56 57 54
3 5.86703729629516602 3 151 212 130
3 6 2.87739729881286621 1 1 1
2.25669550895690918 6 4 192 255 106
3 6 3.1920769214630127 198 255 107
2.2374730110168457 7 -5 255 225 24
3 6.86398792266845703 -5 237 255 184
3 7 -5.14737033843994141 196 255 0
3 6.65618181228637695 -4 224 255 93
3 7 -4.58972740173339844 242 255 0
2.54406189918518066 7 -3 255 191 57
2.7203981876373291 7 -2 158 137 92
3 6.80154848098754883 -2 126 134 88
3 7 -2.45836877822875977 255 235 174
2.74341011047363281 7 -1 45 43 38
3 6.70916223526000977 -1 183 205 87
2.74510574340820312 7 0 35 34 30
3 6.71234941482543945 0 187 213 93
2.75282549858093262 7 1 129 117 77
3 6.82151174545288086 1 146 159 110
2.4761500358581543 7 2 255 221 67
3 7 1.37302768230438232 255 231 123
3 6.40086460113525391 3 198 255 107
3 7.54149150848388672 -5 242 255 0
2.39286375045776367 8 -4 255 125 0
3 7.71398639678955078 -3 255 235 174
3 8 -3.32128477096557617 255 163 0
2.31827068328857422 8 -1 255 162 129
2.34801721572875977 8 0 255 169 134
2.09945201873779297 8 1 255 157 99
3 7.86246395111083984 2 255 249 198
2.19356155395507812 8 3 255 176 0
3 8 2.1475062370300293 255 174 0
3 8.94297313690185547 -3 255 137 0
3 8.97624397277832031 -2 255 119 0
3 8.97592067718505859 -1 255 112 0
3 8.97530746459960938 0 255 119 0
3 8.97437858581542969 1 255 141 0
3 8.89226055145263672 2 255 174 0
3.2888796329498291 6 -4 224 255 93
3.80657649040222168 6 -3 48 48 46
4 5.80577754974365234 -3 52 55 51
4 6 -3.320526123046875 238 255 196
4 6 -2.23268890380859375 222 255 118
3.83748745918273926 6 2 1 1 1
4 5.83697032928466797 2 98 101 97
4 6 1.36038243770599365 214 255 129
3.19103527069091797 6 3 198 255 107
4 6 2.24695158004760742 209 255 133
3.15291333198547363 7 -5 242 255 0
3.73757529258728027 7 -4 255 230 73
4 6.92959976196289062 -4 238 255 196
4 7 -4.08451700210571289 194 255 0
3.70666670799255371 7 -3 255 235 174
3.53342390060424805 7 -2 255 217 115
4 7 -2.64070892333984375 255 247 15
3.49646162986755371 7 -1 255 208 73
3.4844048023223877 7 0 255 214 75
3.45485210418701172 7 1 255 231 123
3.86455631256103516 7 2 255 249 198
4 7 1.81987428665161133 255 252 144
4 7 2.53593349456787109 233 255 53
4 7.52978992462158203 -4 230 255 0
3.33367061614990234 8 -3 255 137 0
4 7.34162664413452148 -3 255 247 15
3.59112048149108887 8 -2 255 119 0
3.74784255027770996 8 -1 255 112 0
3.71792292594909668 8 0 255 119 0
3.52773952484130859 8 1 255 141 0
3.16354680061340332 8 2 255 174 0
4 7.1611323356628418 2 233 255 53
4.83268547058105469 5 -3 52 55 51
5 4.83444929122924805 -3 10 12 10
5 5 -3.25204277038574219 233 255 225
5 5 -2.76299643516540527 169 255 130
4.8693852424621582 5 2 98 101 97
5 4.87050390243530273 2 27 34 28
5 5 1.81692779064178467 208 246 197
5 5 2.18315601348876953 165 255 146
4.9646458625793457 6 -4 238 255 196
5 5.96955060958862305 -4 233 255 225
5 6 -4.03849220275878906 78 255 0
4.42400789260864258 6 -3 222 255 118
5 5.38028907775878906 -3 169 255 130
5 6 -3.94590163230895996 117 255 0
4.32968950271606445 6 2 209 255 133
5 5.27502632141113281 2 165 255 146
4.09289789199829102 7 -4 230 255 0
5 6.04722118377685547 -4 117 255 0
4.2752223014831543 7 -3 255 247 15
4.7666478157043457 7 -1 255 244 172
5 6.81280851364135742 -1 242 255 220
5 7 -1.85257768630981445 211 255 0
4.7936859130859375 7 0 255 247 177
5 6.83401203155517578 0 243 255 225
5 7 0.623371601104736328 210 255 0
4.13043355941772461 7 2 233 255 53
5 7.61794757843017578 -1 217 255 0
5 7.5449528694152832 0 210 255 0
5.95238161087036133 4 -2 92 136 91
6 3.95688223838806152 -2 42 69 50
6 4 -2.12945699691772461 217 255 220
6 4 -1.91046202182769775 159 255 166
5.98993730545043945 4 1 113 162 116
6 3.99080753326416016 1 24 40 30
6 4 0.980604708194732666 202 255 208
6 4 1.02433133125305176 168 255 180
5.31901741027832031 5 -3 169 255 130
6 4.06389474868774414 -2 159 255 166
6 4.01327657699584961 1 168 255 180
5.23372554779052734 5 2 165 255 146
5.0330653190612793 6 -4 117 255 0
5.22147655487060547 7 -1 217 255 0
5.19671344757080078 7 0 210 255 0
6.08160591125488281 4 -2 159 255 166
6.01679754257202148 4 1 168 255 180
3 2 1 0
3 1 3 0
3 6 5 4
3 5 7 4
3 2 0 8
3 0 3 8
3 6 4 9
3 4 7 9
3 12 11 10
3 11 13 10
3 1 2 14
3 1 14 3
3 5 6 15
3 5 15 7
3 18 17 16
3 17 19 16
3 12 10 20
3 10 13 20
3 14 2 8
3 14 8 3
3 22 21 23
3 22 25 24
3 21 22 24
3 25 26 24
3 6 9 15
3 15 9 7
3 18 16 27
3 16 19 27
3 30 29 28
3 29 23 21
3 29 21 28
3 28 21 31
3 21 24 31
3 24 32 31
3 26 34 33
3 26 33 24
3 24 33 32
3 34 35 33
3 30 28 36
3 28 31 37
3 36 28 37
3 31 32 38
3 37 31 38
3 32 33 39
3 38 32 39
3 33 35 39
3 42 41 40
3 12 40 41
3 12 41 11
3 44 43 41
3 43 11 41
3 11 43 13
3 17 18 45
3 46 19 17
3 46 17 47
3 45 48 17
3 48 47 17
3 47 49 46
3 42 40 50
3 43 44 50
3 43 50 20
3 40 12 50
3 12 20 50
3 43 20 13
3 52 51 53
3 52 54 51
3 22 23 55
3 25 22 55
3 56 25 55
3 25 56 26
3 59 58 57
3 58 60 57
3 18 27 45
3 19 46 61
3 19 61 27
3 48 45 61
3 45 27 61
3 46 49 61
3 63 53 51
3 62 63 51
3 62 51 29
3 62 29 30
3 51 54 29
3 64 29 65
3 54 65 29
3 23 29 64
3 23 64 55
3 55 64 66
3 55 66 56
3 56 66 67
3 34 26 56
3 34 56 68
3 68 56 67
3 70 59 34
3 70 34 68
3 59 57 34
3 35 34 69
3 57 69 34
3 60 71 69
3 57 60 69
3 63 62 72
3 64 65 72
3 64 72 36
3 62 30 72
3 30 36 72
3 66 64 36
3 37 66 36
3 67 66 37
3 38 67 37
3 68 67 38
3 39 68 38
3 35 69 73
3 35 73 39
3 70 68 73
3 68 39 73
3 69 71 73
3 41 42 74
3 41 74 44
3 47 48 75
3 47 75 49
3 74 42 50
3 74 50 44
3 77 76 78
3 53 76 77
3 53 77 52
3 80 79 77
3 79 52 77
3 52 79 54
3 58 59 81
3 82 60 58
3 82 58 83
3 81 84 58
3 84 83 58
3 83 85 82
3 48 61 75
3 75 61 49
3 87 78 76
3 86 87 76
3 76 53 86
3 86 53 63
3 79 80 89
3 79 89 88
3 79 88 65
3 54 79 65
3 90 81 59
3 70 90 59
3 82 71 60
3 82 91 71
3 81 90 84
3 90 92 84
3 85 93 91
3 82 85 91
3 87 86 94
3 88 89 94
3 88 94 72
3 86 63 94
3 63 72 94
3 88 72 65
3 90 70 73
3 71 91 95
3 71 95 73
3 92 90 95
3 90 73 95
3 91 93 95
3 98 97 96
3 97 99 96
3 78 101 100
3 77 78 100
3 77 100 102
3 80 77 102
3 84 104 103
3 83 84 103
3 83 103 105
3 85 83 105
3 98 96 106
3 109 106 96
3 109 96 107
3 99 108 96
3 108 107 96
3 108 87 107
3 108 101 87
3 101 78 87
3 102 110 80
3 110 89 80
3 113 112 111
3 112 115 114
3 111 112 114
3 115 117 116
3 114 115 116
3 117 119 118
3 116 117 118
3 119 120 118
3 104 84 121
3 121 84 92
3 105 122 85
3 122 93 85
3 109 107 123
3 107 87 94
3 107 94 123
3 123 94 124
3 124 94 89
3 110 124 89
3 113 111 125
3 111 114 126
3 125 111 126
3 114 116 127
3 126 114 127
3 116 118 128
3 127 116 128
3 118 120 128
3 121 92 95
3 129 121 95
3 129 95 93
3 122 129 93
3 132 131 130
3 131 133 130
3 132 130 134
3 137 134 130
3 137 130 135
3 133 136 130
3 136 135 130
3 136 138 135
3 141 140 139
3 140 142 139
3 135 97 98
3 135 98 137
3 137 98 143
3 97 135 138
3 97 138 99
3 99 138 144
3 100 101 145
3 100 145 102
3 103 104 146
3 103 146 105
3 141 139 147
3 139 142 147
3 143 98 106
3 148 143 106
3 144 149 99
3 99 149 108
3 150 148 106
3 150 106 109
3 101 151 145
3 101 108 151
3 108 149 151
3 145 151 152
3 145 152 102
3 102 152 110
3 113 154 153
3 112 113 153
3 153 155 112
3 112 155 115
3 155 156 115
3 115 156 117
3 156 157 117
3 117 157 119
3 119 157 158
3 120 119 158
3 159 146 104
3 121 159 104
3 122 105 161
3 122 161 160
3 105 146 161
3 162 161 159
3 146 159 161
3 161 163 160
3 150 109 123
3 164 150 123
3 164 123 165
3 123 124 165
3 165 124 110
3 152 165 110
3 154 113 125
3 166 154 125
3 166 125 167
3 125 126 167
3 167 126 168
3 126 127 168
3 168 127 169
3 127 128 169
3 169 128 120
3 158 169 120
3 159 121 129
3 122 160 170
3 122 170 129
3 162 159 170
3 159 129 170
3 160 163 170
3 131 132 171
3 131 171 133
3 171 132 134
3 137 173 171
3 137 171 134
3 173 172 171
3 133 171 136
3 172 136 171
3 136 172 174
3 138 136 174
3 140 141 175
3 140 175 142
3 173 137 176
3 176 137 143
3 174 177 138
3 177 144 138
3 180 179 178
3 179 181 178
3 184 183 182
3 183 185 182
3 175 141 147
3 175 147 142
3 176 143 148
3 186 176 148
3 177 187 144
3 144 187 149
3 188 186 148
3 188 148 150
3 178 187 180
3 178 151 187
3 151 149 187
3 151 178 181
3 151 181 152
3 152 181 189
3 154 191 190
3 153 154 190
3 190 192 153
3 153 192 155
3 192 193 155
3 155 193 156
3 193 194 156
3 156 194 157
3 157 194 195
3 158 157 195
3 197 184 182
3 196 197 182
3 196 182 161
3 196 161 162
3 182 185 161
3 198 161 199
3 185 199 161
3 161 198 163
3 188 150 164
3 200 188 164
3 200 164 201
3 164 165 201
3 201 165 152
3 189 201 152
3 191 154 166
3 202 191 166
3 202 166 203
3 166 167 203
3 203 167 204
3 167 168 204
3 204 168 205
3 168 169 205
3 205 169 158
3 195 205 158
3 197 196 206
3 198 199 206
3 198 206 170
3 196 162 206
3 162 170 206
3 198 170 163
3 172 173 207
3 172 207 174
3 208 207 173
3 208 173 209
3 209 173 176
3 207 208 210
3 207 210 174
3 174 210 177
3 180 212 211
3 179 180 211
3 179 211 213
3 181 179 213
3 184 215 214
3 183 184 214
3 183 214 216
3 185 183 216
3 209 176 186
3 217 209 186
3 177 210 218
3 177 218 187
3 210 217 218
3 188 218 186
3 217 186 218
3 218 180 187
3 218 219 180
3 219 212 180
3 213 220 181
3 220 189 181
3 190 191 221
3 221 223 222
3 221 222 190
3 190 222 192
3 222 224 192
3 192 224 193
3 226 225 194
3 226 194 224
3 224 194 193
3 194 225 195
3 215 184 227
3 227 184 197
3 216 228 185
3 228 199 185
3 218 188 200
3 219 218 200
3 219 200 229
3 229 200 201
3 229 201 189
3 220 229 189
3 221 191 202
3 223 221 202
3 223 202 230
3 230 202 203
3 230 203 231
3 203 204 231
3 225 226 231
3 225 231 205
3 205 231 204
3 225 205 195
3 227 197 206
3 232 227 206
3 232 206 199
3 228 232 199
3 235 234 233
3 234 236 233
3 235 233 237
3 233 236 237
3 240 239 238
3 239 241 238
3 244 243 242
3 243 245 242
3 208 209 246
3 240 238 247
3 246 210 208
3 238 241 247
3 212 248 211
3 249 213 211
3 249 211 250
3 248 251 211
3 251 250 211
3 250 252 249
3 255 254 253
3 215 253 254
3 215 254 214
3 257 256 254
3 256 214 254
3 244 242 258
3 256 216 214
3 242 245 258
3 246 209 217
3 246 217 210
3 259 248 212
3 259 212 260
3 260 212 219
3 213 261 220
3 213 249 261
3 251 248 259
3 252 263 262
3 252 262 249
3 249 262 261
3 223 262 263
3 223 263 222
3 265 264 263
3 264 222 263
3 224 222 264
3 266 224 264
3 224 266 226
3 268 255 253
3 267 268 253
3 253 227 267
3 253 215 227
3 256 257 269
3 256 269 270
3 256 270 216
3 216 270 228
3 260 219 229
3 271 260 229
3 220 261 272
3 220 272 229
3 229 272 271
3 261 262 273
3 272 261 273
3 264 265 273
3 264 273 230
3 262 223 273
3 223 230 273
3 266 264 230
3 231 266 230
3 266 231 226
3 268 267 274
3 267 227 232
3 267 232 274
3 274 232 275
3 275 232 228
3 270 275 228
3 234 235 276
3 234 276 236
3 276 235 237
3 276 237 236
3 239 240 277
3 278 241 239
3 278 239 279
3 277 280 239
3 280 279 239
3 279 281 278
3 284 283 282
3 244 282 283
3 244 283 243
3 286 285 283
3 285 243 283
3 243 285 245
3 247 287 289
3 247 289 240
3 288 277 289
3 277 240 289
3 247 291 287
3 247 290 291
3 247 241 290
3 278 290 241
3 277 288 280
3 278 281 290
3 251 292 250
3 293 252 250
3 293 250 294
3 292 295 250
3 295 294 250
3 294 297 296
3 293 294 296
3 297 299 298
3 296 297 298
3 299 301 300
3 298 299 300
3 255 300 301
3 255 301 254
3 303 302 301
3 302 254 301
3 284 282 304
3 302 257 254
3 285 286 304
3 285 304 258
3 282 244 304
3 244 258 304
3 285 258 245
3 289 287 305
3 287 291 305
3 260 306 259
3 306 308 307
3 259 306 307
3 259 307 292
3 259 292 251
3 292 307 295
3 252 293 263
3 263 309 265
3 263 293 309
3 293 296 309
3 296 298 309
3 298 310 309
3 298 300 310
3 300 311 310
3 300 268 311
3 300 255 268
3 302 303 312
3 314 313 269
3 312 314 269
3 312 269 257
3 312 257 302
3 269 313 270
3 306 260 271
3 308 306 271
3 308 271 315
3 315 271 272
3 315 272 316
3 272 273 316
3 265 309 317
3 265 317 273
3 273 317 316
3 309 310 318
3 317 309 318
3 310 311 319
3 318 310 319
3 311 268 274
3 311 274 319
3 319 274 320
3 313 314 320
3 313 320 275
3 275 320 274
3 313 275 270
3 279 280 321
3 322 281 279
3 322 279 323
3 321 324 279
3 324 323 279
3 323 325 322
3 328 327 326
3 284 326 327
3 284 327 283
3 330 329 327
3 329 283 327
3 283 329 286
3 288 289 331
3 288 321 280
3 288 333 321
3 288 331 333
3 334 333 331
3 291 290 332
3 333 324 321
3 332 290 322
3 332 322 335
3 322 290 281
3 335 322 294
3 335 294 295
3 322 325 294
3 336 294 337
3 325 337 294
3 297 294 336
3 338 297 336
3 299 297 338
3 339 299 338
3 301 299 339
3 340 301 339
3 342 328 301
3 342 301 340
3 328 326 301
3 303 301 341
3 326 341 301
3 330 343 304
3 330 304 329
3 343 341 304
3 284 304 326
3 341 326 304
3 329 304 286
3 331 289 305
3 291 332 344
3 291 344 305
3 334 331 344
3 331 305 344
3 346 344 308
3 346 308 345
3 344 332 308
3 307 308 335
3 332 335 308
3 307 335 295
3 346 345 337
3 345 336 337
3 345 347 336
3 336 347 338
3 338 347 348
3 338 348 339
3 339 348 349
3 339 349 340
3 340 349 350
3 303 341 312
3 342 340 352
3 340 351 352
3 340 350 351
3 312 341 343
3 312 343 314
3 352 351 343
3 351 314 343
3 345 308 315
3 347 345 315
3 316 347 315
3 348 347 316
3 317 348 316
3 349 348 317
3 318 349 317
3 350 349 318
3 319 350 318
3 351 350 319
3 320 351 319
3 351 320 314
3 355 354 353
3 354 356 353
3 359 358 357
3 358 360 357
3 363 362 361
3 355 361 362
3 355 324 361
3 355 353 324
3 323 324 353
3 365 366 364
3 323 353 356
3 323 356 325
3 365 364 356
3 364 325 356
3 367 368 359
3 367 359 328
3 357 327 359
3 327 328 359
3 327 357 360
3 327 360 330
3 368 367 360
3 367 330 360
3 369 370 363
3 369 363 334
3 361 333 363
3 333 334 363
3 333 361 324
3 370 369 366
3 369 364 366
3 369 371 364
3 364 371 337
3 325 364 337
3 374 373 372
3 373 376 375
3 372 373 375
3 376 377 375
3 378 367 328
3 342 378 328
3 367 378 343
3 330 367 343
3 369 334 344
3 371 369 344
3 346 371 344
3 371 346 337
3 374 372 379
3 372 375 380
3 379 372 380
3 375 377 380
3 378 342 352
3 378 352 343
3 383 382 381
3 382 384 381
3 387 386 385
3 386 388 385
3 354 355 389
3 383 381 390
3 389 356 354
3 381 384 390
3 387 385 391
3 385 388 391
3 359 392 358
3 358 392 360
3 362 363 393
3 366 365 389
3 366 389 393
3 355 362 389
3 362 393 389
3 389 365 356
3 392 359 368
3 392 368 360
3 393 363 370
3 393 370 366
3 373 374 394
3 376 373 394
3 395 376 394
3 376 395 377
3 394 374 379
3 395 394 379
3 380 395 379
3 395 380 377
3 382 383 396
3 382 396 384
3 386 387 397
3 386 397 388
3 396 383 390
3 396 390 384
3 397 387 391
3 397 391 388
