ply
format ascii 1.0
element vertex 672
property float x
property float y
property float z
property uchar red
property uchar green
property uchar blue
element face 1340
property list uchar int vertex_indices
end_header
-3.03224802017211914 -5 -1 155 84 41
-3 -5.10275077819824219 -1 151 111 57
-3 -5 -1.13463902473449707 151 64 32
-3.03988099098205566 -5 0 163 89 40
-3 -5.12827730178833008 0 159 117 56
-3 -5 0.179368838667869568 168 65 28
-3.06533288955688477 -4 -2 154 41 25
-3 -4.25674343109130859 -2 151 64 32
-3 -4 -2.14137005805969238 144 28 22
-3.29301786422729492 -4 -1 163 37 22
-3.29810214042663574 -4 0 171 40 21
-3.08059191703796387 -4 1 177 49 22
-3 -4.32442712783813477 1 175 75 28
-3 -4 1.17950737476348877 177 25 16
-3.22436213493347168 -3 -2 155 30 17
-3 -3 -2.49627113342285156 140 38 17
-3.44566512107849121 -3 -1 163 32 15
-3.4491877555847168 -3 0 172 29 14
-3.23475122451782227 -3 1 179 20 13
-3 -3 1.52866744995117188 173 38 12
-3.26395678520202637 -2 -2 152 50 14
-3 -2 -2.59056663513183594 133 54 15
-3.48296785354614258 -2 -1 159 53 13
-3.48543334007263184 -2 0 168 52 12
-3.27114558219909668 -2 1 178 45 11
-3 -2 1.61395847797393799 167 62 11
-3.17890691757202148 -1 -2 147 63 13
-3 -1 -2.39979648590087891 125 64 15
-3.39679861068725586 -1 -1 154 67 12
-3.39851689338684082 -1 0 164 67 11
-3.18383693695068359 -1 1 175 62 10
-3 -1 1.41467070579528809 161 76 11
-3.17825031280517578 0 -2 148 71 12
-3 0 -2.39829206466674805 125 70 14
-3.39615845680236816 0 -1 155 75 11
-3.39788126945495605 0 0 165 76 10
-3.18319368362426758 0 1 176 71 9
-3 0 1.41319441795349121 161 85 11
-3.26214909553527832 1 -2 156 74 11
-3 1 -2.58635377883911133 136 75 13
-3.48119354248046875 1 -1 163 79 10
-3.48367524147033691 1 0 172 80 9
-3.26938629150390625 1 1 182 74 8
-3 1 1.60986626148223877 170 90 9
-3.22168254852294922 2 -2 165 71 9
-3 2 -2.49012184143066406 148 75 11
-3.44307756423950195 2 -1 172 76 9
-3.44663381576538086 2 0 180 75 8
-3.23217463493347168 2 1 188 68 7
-3 2 1.52274119853973389 180 87 7
-3.06220102310180664 3 -2 172 57 9
-3 3 -2.13451671600341797 160 65 9
-3.29010653495788574 3 -1 180 61 8
-3.29525375366210938 3 0 187 60 7
-3.07765650749206543 3 1 193 51 7
-3 3 1.17293727397918701 190 73 6
-3 3.2453160285949707 -2 166 75 9
-3.02979421615600586 4 -1 183 36 8
-3 4 -1.12425863742828369 176 53 8
-3.03754353523254395 4 0 189 33 8
-3 3.31389594078063965 1 190 73 6
-3 4 0.168863087892532349 190 56 6
-3 4.09578514099121094 -1 183 58 7
-3 4.12187290191650391 0 190 56 6
-2.14239072799682617 -7 -1 129 128 103
-2 -7.40459918975830078 -1 114 116 107
-2 -7 -1.44087314605712891 130 125 90
-2.16503572463989258 -7 0 139 138 103
-2 -7.47804450988769531 0 126 127 125
-2 -7 0.598717808723449707 151 143 85
-2.30880546569824219 -6 -2 139 108 62
-2 -6.67069053649902344 -2 130 125 90
-2 -6 -2.51396536827087402 134 98 55
-2.60963249206542969 -6 -1 151 111 57
-2.62392616271972656 -6 0 159 117 56
-2.35193490982055664 -6 1 164 127 59
-2 -6.78936958312988281 1 156 152 89
-2 -6 1.6181647777557373 171 114 44
-2.15990662574768066 -5 -3 139 70 37
-2 -5.37909126281738281 -3 134 98 55
-2 -5 -3.181304931640625 130 65 35
-2.74068355560302734 -5 -2 151 64 32
-2.76945877075195312 -5 1 175 75 28
-2.20757126808166504 -5 2 178 92 32
-2 -5.513824462890625 2 174 129 49
-2 -5 2.24226593971252441 182 74 24
-2.4985356330871582 -4 -3 144 28 22
-2 -4 -3.57282447814941406 133 27 22
-2.53078198432922363 -4 2 184 40 17
-2 -4 2.62062811851501465 182 22 14
-2.70383691787719727 -3 -3 140 38 17
-2 -3 -3.81608676910400391 127 37 18
-2.72624635696411133 -3 2 184 24 11
-2 -3 2.85115909576416016 177 38 11
-2.7584836483001709 -2 -3 133 54 15
-2 -2 -3.88371777534484863 117 50 16
-2.77403807640075684 -2 2 180 50 10
-2 -2 2.90819501876831055 170 62 11
-2.64709782600402832 -1 -3 125 64 15
-2 -1 -3.75440311431884766 108 57 16
-2.65786433219909668 -1 2 176 67 9
-2 -1 2.77108359336853027 164 77 11
-2.64622926712036133 0 -3 125 70 14
-2 0 -3.75336599349975586 109 63 16
-2.65702486038208008 0 2 177 77 9
-2 0 2.77009034156799316 164 86 10
-2.75603008270263672 1 -3 136 75 13
-2 1 -3.8807682991027832 120 69 14
-2.77169036865234375 1 2 183 81 7
-2 1 2.90540838241577148 173 91 9
-2.70027017593383789 2 -3 148 75 11
-2 2 -3.81180596351623535 134 70 12
-2.72289586067199707 2 2 191 75 6
-2 2 2.84719419479370117 183 88 7
-2.49457931518554688 3 -3 160 65 9
-2 3 -3.56812906265258789 149 62 10
-2.52721786499023438 3 2 198 59 5
-2 3 2.61644434928894043 193 75 6
-2.15652298927307129 4 -3 168 44 9
-2 4 -3.17740201950073242 158 43 10
-2.73756718635559082 4 -2 176 53 8
-2.76674795150756836 4 1 196 47 6
-2.20489954948425293 4 2 201 30 6
-2 4 2.23915362358093262 201 48 5
-2 4.37387895584106445 -3 166 57 9
-2.30856919288635254 5 -2 178 20 9
-2 5 -2.51317334175109863 172 26 9
-2.60971689224243164 5 -1 186 22 8
-2.62424755096435547 5 0 192 19 7
-2.35242891311645508 5 1 196 9 7
-2 4.51159477233886719 2 201 48 5
-2 5 1.61908018589019775 200 26 6
-2 5.67937231063842773 -2 181 35 8
-2.14963912963867188 6 -1 177 45 14
-2 6 -1.46262955665588379 178 30 11
-2.17271232604980469 6 0 184 49 13
-2 5.80208539962768555 1 200 26 6
-2 6 0.627236306667327881 193 29 9
-2 6.43931388854980469 -1 187 25 9
-2 6.51733684539794922 0 193 29 9
-1.46011340618133545 -9 -1 49 78 42
-1 -9.78630542755126953 -1 18 48 28
-1 -9 -1.92588567733764648 48 74 40
-1.53448939323425293 -9 0 61 91 55
-1 -9.80954265594482422 0 27 62 38
-1.18766117095947266 -9 1 65 96 61
-1 -9.59669017791748047 1 32 69 46
-1 -9 1.24523639678955078 86 111 81
-1.18480193614959717 -8 -2 93 99 80
-1 -8.86311149597167969 -2 48 74 40
-1 -8 -2.20800566673278809 84 90 70
-1.6487661600112915 -8 -1 114 116 107
-1.69763684272766113 -8 0 126 127 125
-1.33431005477905273 -8 1 132 132 131
-1 -8 1.42788136005401611 138 144 126
-1.75782382488250732 -7 -2 130 125 90
-1 -7 -2.89047908782958984 122 118 86
-1.84945821762084961 -7 1 156 152 89
-1.06154024600982666 -7 2 156 157 97
-1 -7.14326810836791992 2 138 144 131
-1 -7 2.05189013481140137 166 163 83
-1.59810423851013184 -6 -3 134 98 55
-1 -6.88161993026733398 -3 122 118 86
-1 -6 -3.48261475563049316 123 95 55
-1.69712746143341064 -6 2 174 129 49
-1 -6 2.58348870277404785 179 120 40
-1 -5 -3.99666166305541992 133 56 30
-1.08800888061523438 -5 3 185 97 28
-1 -5.16258382797241211 3 180 141 48
-1 -5 3.05574393272399902 188 86 23
-1.48348879814147949 -4 -4 133 27 22
-1 -4.99235868453979492 -4 133 56 30
-1 -4 -4.297698974609375 123 34 24
-1.54542732238769531 -4 3 190 45 15
-1 -4 3.34124183654785156 189 33 13
-1.77963721752166748 -3 -4 127 37 18
-1 -3 -4.47722911834716797 119 30 19
-1.82237350940704346 -3 3 189 18 10
-1 -3 3.50899910926818848 186 27 10
-1.86129248142242432 -2 -4 117 50 16
-1 -2 -4.52575159072875977 110 43 17
-1.89066159725189209 -2 3 186 45 9
-1 -2 3.54823875427246094 180 53 9
-1.70707297325134277 -1 -4 108 57 16
-1 -1 -4.4329981803894043 101 49 17
-1.72713613510131836 -1 3 182 63 8
-1 -1 3.44842910766601562 174 70 10
-1.70582699775695801 0 -4 109 63 16
-1 0 -4.43225240707397461 102 54 16
-1.72594738006591797 0 3 183 74 8
-1 0 3.44772028923034668 175 80 9
-1.85776042938232422 1 -4 120 69 14
-1 1 -4.52365493774414062 113 59 15
-1.88733673095703125 1 3 189 77 7
-1 1 3.54628109931945801 182 84 8
-1.77446925640106201 2 -4 134 70 12
-1 2 -4.47413206100463867 127 59 13
-1.81762790679931641 2 3 196 71 5
-1 2 3.50618219375610352 191 79 6
-1.47767508029937744 3 -4 149 62 10
-1 3 -4.29414081573486328 140 51 11
-1.54037892818450928 3 3 202 53 5
-1 3 3.33816671371459961 200 64 5
-1 3.98253726959228516 -4 142 67 11
-1 4 -3.9923851490020752 157 51 10
-1.08422243595123291 4 3 206 24 5
-1 4 3.05335497856140137 206 35 4
-1.59726428985595703 5 -3 172 26 9
-1 5 -3.48173761367797852 163 21 10
-1.69794309139251709 5 2 203 8 6
-1 4.15711355209350586 3 206 35 4
-1 5 2.58425331115722656 205 19 5
-1 5.89110231399536133 -3 173 35 8
-1.76694798469543457 6 -2 178 30 11
-1 6 -2.90033411979675293 172 28 11
-1.86031818389892578 6 1 196 39 9
-1.07310700416564941 6 2 196 58 10
-1 6 2.06164669990539551 202 45 8
-1.21477591991424561 7 -2 157 83 24
-1 7 -2.24144434928894043 152 79 23
-1.67922961711883545 7 -1 169 83 20
-1.72907161712646484 7 0 176 88 20
-1.36716187000274658 7 1 177 99 21
-1 6.17691802978515625 2 202 45 8
-1 7 1.47016465663909912 188 89 15
-1.02745270729064941 8 -2 109 100 53
-1 8 -2.02975344657897949 103 94 49
-1.52477920055389404 8 -1 128 113 50
-1.60005807876586914 8 0 137 122 50
-1.25419366359710693 8 1 138 129 54
-1 8 1.3323436975479126 155 135 41
-1 8.17910480499267578 -2 130 110 44
-1 8.8064727783203125 -1 146 119 39
-1 8.82574272155761719 0 154 127 38
-1 8.66586971282958984 1 155 135 41
-0.937630832195281982 -9 -2 48 74 40
0 -9.81576919555664062 -2 12 37 19
0 -9 -2.59559988975524902 32 57 25
0 -9.89385128021240234 -1 23 58 33
0 -9.89955711364746094 0 32 72 44
0 -9.85931682586669922 1 38 78 52
0 -9 1.99960982799530029 98 121 92
0 -8 -2.87826752662658691 96 100 85
-0.234051898121833801 -8 2 138 144 131
0 -8.99822807312011719 2 93 119 89
0 -8 2.11714076995849609 143 151 129
-0.844465494155883789 -7 -3 122 118 86
0 -7.85261631011962891 -3 96 100 85
0 -7 -3.4010002613067627 107 106 89
0 -7 2.55085086822509766 171 165 77
0 -6 -3.96171879768371582 128 94 51
-0.15164610743522644 -6 3 180 141 48
0 -6.16200542449951172 3 164 170 90
0 -6 3.05769109725952148 184 139 43
-0.993297755718231201 -5 -4 133 56 30
0 -5.93300914764404297 -4 128 94 51
0 -5 -4.36283731460571289 122 66 36
0 -5 3.4273221492767334 190 82 21
0 -4 -4.65962076187133789 123 32 24
0 -4 3.70706272125244141 188 30 13
0 -3 -4.84687662124633789 115 32 20
0 -3 3.8808143138885498 183 31 11
0 -2 -4.90087985992431641 104 43 19
0 -2 3.92439627647399902 175 56 11
0 -1 -4.80337381362915039 94 49 19
0 -1 3.81957483291625977 168 72 11
0 0 -4.80257511138916016 94 53 18
0 0 3.81882143020629883 169 81 11
0 1 -4.89858531951904297 106 59 16
0 1 3.92226672172546387 177 85 9
0 2 -4.84354877471923828 122 60 14
0 2 3.8778069019317627 187 82 7
0 3 -4.65598297119140625 138 54 12
0 3 3.70395803451538086 198 67 5
-0.984701454639434814 4 -4 157 51 10
0 4 -4.35974597930908203 149 36 11
0 4 3.42510199546813965 206 40 5
0 4.93045139312744141 -4 155 54 10
0 5 -3.96045517921447754 165 24 10
-0.152900457382202148 5 3 207 17 5
0 5 3.05817079544067383 209 12 5
-0.85830456018447876 6 -3 172 28 11
0 6 -3.40722537040710449 161 40 14
0 5.16628646850585938 3 209 12 5
0 6 2.56021475791931152 205 40 7
0 6.88819360733032227 -3 176 24 10
0 7 -2.9098212718963623 161 78 20
-0.290774405002593994 7 2 186 106 18
0 7 2.14543390274047852 193 103 15
0 8 -2.66366267204284668 117 104 46
-0.115240000188350677 8 2 149 141 49
0 8 2.05608963966369629 160 147 43
0 8.83051109313964844 -2 142 116 39
0 8.89860439300537109 -1 157 123 34
0 8.90383148193359375 0 164 130 33
0 8.86811161041259766 1 166 139 36
0 8.34273433685302734 2 160 147 43
1 -9.85227680206298828 -2 12 41 21
1 -9 -2.7712700366973877 33 62 26
1 -9.90723514556884766 -1 23 62 35
1 -9.91152000427246094 0 32 76 46
1 -9.88116264343261719 1 37 82 53
0.00190240505617111921 -9 2 93 119 89
1 -9.55569171905517578 2 37 81 58
1 -9 2.13357734680175781 92 123 89
0.614125847816467285 -8 -3 96 100 85
1 -8.29057788848876953 -3 33 62 26
1 -8 -3.05312180519104004 62 74 46
1 -8 2.26406359672546387 146 154 135
1 -7 -3.54600834846496582 111 110 93
1 -7 2.70005702972412109 173 168 78
0.247320443391799927 -6 -4 128 94 51
1 -6.22415304183959961 -4 111 110 93
1 -6 -4.08819198608398438 109 96 65
1 -6.47106504440307617 3 166 172 92
1 -6 3.17704129219055176 185 143 44
1 -5 -4.47836780548095703 124 69 37
1 -5 3.54390120506286621 190 85 22
1 -4 -4.77921581268310547 123 35 26
1 -4 3.82715201377868652 188 33 14
1 -3 -4.97369241714477539 114 32 22
0.941003501415252686 -3 4 196 16 10
1 -3.04288482666015625 4 197 63 15
1 -3 4.0058445930480957 196 20 10
0.761072814464569092 -2 -5 104 43 19
1 -2.55064129829406738 -5 114 32 22
1 -2 -5.02333354949951172 106 32 21
0.584410548210144043 -2 4 193 31 8
1 -2 4.04094600677490234 192 30 9
1 -1.68911874294281006 -5 101 43 21
1 -1 -4.93174982070922852 90 47 21
1 -1.49807977676391602 4 192 30 9
1 -1 3.94750094413757324 166 70 13
1 0 -4.93091106414794922 90 51 20
1 0 3.94671106338500977 166 79 13
0.779120683670043945 1 -5 106 59 16
1 0.708340585231781006 -5 90 51 20
1 1 -5.021575927734375 109 46 18
0.601186513900756836 1 4 195 64 6
1 0.512273490428924561 4 188 59 9
1 1 4.03930282592773438 194 61 7
1 1.49978911876678467 -5 103 57 18
1 2 -4.97018527984619141 119 59 16
0.96556699275970459 2 4 202 57 5
1 2 4.00341224670410156 201 54 6
1 3 -4.77544689178466797 136 53 14
1 2.02503061294555664 4 201 54 6
1 3 3.82393026351928711 197 65 6
1 4 -4.4752202033996582 149 35 13
1 4 3.54163646697998047 206 37 5
0.255953490734100342 5 -4 165 24 10
1 5 -4.08710718154907227 152 21 14
1 5 3.17744612693786621 210 15 5
1 5.22452640533447266 -4 166 23 11
1 6 -3.55188202857971191 163 43 14
1 5.47972822189331055 3 210 15 5
1 6 2.70909380912780762 207 43 7
0.456426531076431274 7 -3 161 78 20
1 7 -3.07455873489379883 139 86 28
1 7 2.29152631759643555 195 107 15
1 7.44865751266479492 -3 164 81 20
1 8 -2.8384547233581543 123 109 47
1 8 2.1893303394317627 165 153 44
1 8.86160659790039062 -2 147 121 39
1 8.91074752807617188 -1 161 127 34
1 8.91472911834716797 0 169 134 33
1 8.88730621337890625 1 170 144 36
1 8.63815784454345703 2 165 153 44
2 -9.78469467163085938 -2 10 38 20
2 -9 -2.4867246150970459 27 59 22
2 -9.88466548919677734 -1 19 59 33
2 -9.89138317108154297 0 27 73 44
2 -9.84197330474853516 1 32 79 51
1.60003578662872314 -9 2 92 123 89
2 -9 1.86470198631286621 88 122 82
1.27836894989013672 -8 -3 99 105 87
2 -8 -2.80347347259521484 95 103 79
2 -8.43277263641357422 2 81 120 79
2 -8 2.0549929141998291 149 153 144
2 -7.76603841781616211 -3 95 103 79
2 -7 -3.36680293083190918 110 110 98
2 -7 2.51120257377624512 173 173 86
1.64981734752655029 -6 -4 131 97 53
2 -6 -3.93766689300537109 131 103 58
2 -6.10023784637451172 3 162 171 101
2 -6 3.03624105453491211 185 150 49
2 -5.89169979095458984 -4 131 103 58
2 -5 -4.34977197647094727 124 75 41
2 -5 3.41216731071472168 191 94 24
2 -4 -4.64952564239501953 124 42 28
2 -4 3.69537520408630371 189 43 16
2 -3 -4.83862018585205078 114 30 24
1.05461776256561279 -3 4 196 20 10
2 -3 3.87128567695617676 182 22 13
1.22622907161712646 -2 -5 101 43 21
2 -2 -4.89394760131835938 102 41 23
1.39050102233886719 -2 4 192 30 9
2 -2 3.91643118858337402 174 48 14
2 -1 -4.79748153686523438 91 46 23
2 -1 3.81284451484680176 167 64 14
2 0 -4.7966771125793457 91 50 22
2 0 3.81208515167236328 167 72 14
1.20908927917480469 1 -5 103 57 18
2 1 -4.89163303375244141 104 54 20
1.37463891506195068 1 4 194 61 7
2 1 3.91427969932556152 176 76 11
2 2 -4.8352503776550293 120 55 18
1.0318603515625 2 4 201 54 6
2 2 3.86823129653930664 187 71 9
2 3 -4.64581108093261719 137 48 15
2 3 3.69218206405639648 198 56 7
2 4 -4.34654092788696289 149 29 14
2 4 3.40978384017944336 206 28 6
1.64107680320739746 5 -4 166 23 11
2 4.88844633102416992 -4 155 47 13
2 5 -3.93610310554504395 166 17 12
2 5 3.03642034530639648 210 25 6
2 6 -3.37249755859375 163 51 16
2 5.10249233245849609 3 210 25 6
2 6 2.5199129581451416 206 54 8
1.39036953449249268 7 -3 164 81 20
2 6.7974858283996582 -3 177 36 12
2 7 -2.83377552032470703 163 89 23
2 7 2.08224201202392578 194 116 17
2 8 -2.55350708961486816 121 112 52
1.85068631172180176 8 2 165 153 44
2 7.75287199020385742 2 194 116 17
2 8 1.94934689998626709 168 150 40
2 8.80453968048095703 -2 145 125 44
2 8.89024734497070312 -1 160 133 38
2 8.89635753631591797 0 167 141 37
2 8.85297870635986328 1 168 150 40
2.65225625038146973 -9 -2 52 87 43
3 -9.67591762542724609 -1 13 49 28
3 -9 -1.51769459247589111 36 76 31
3 -9.72668552398681641 0 19 63 39
2.9704277515411377 -9 1 88 122 82
3 -9 0.94244760274887085 65 108 59
3 -8.20171165466308594 -2 36 76 31
3 -8 -2.05412173271179199 80 94 61
3 -8.92182350158691406 1 67 113 64
2.09706234931945801 -8 2 149 153 144
3 -8 1.24446344375610352 145 146 144
2.7184455394744873 -7 -3 132 128 90
3 -7 -2.78862142562866211 127 126 101
2.94612598419189453 -7 2 173 173 86
3 -7 1.95702815055847168 167 166 89
3 -6.77611827850341797 -3 127 126 101
3 -6 -3.4346778392791748 127 109 66
3 -6.95520877838134766 2 163 169 99
2.08960199356079102 -6 3 185 150 49
3 -6 2.52873969078063965 181 142 48
2.9235985279083252 -5 -4 135 64 34
3 -5 -3.96079373359680176 135 75 38
3 -5.07098722457885742 3 183 161 58
3 -5 3.02489709854125977 190 110 28
3 -4.91144800186157227 -4 135 75 38
3 -4 -4.27772903442382812 124 53 31
3 -4 3.31824994087219238 190 59 17
3 -3 -4.46130657196044922 117 27 26
3 -3 3.49070572853088379 185 19 14
3 -2 -4.51252412796020508 105 36 24
3 -2 3.53310465812683105 177 36 14
3 -1 -4.42170572280883789 95 42 24
3 -1 3.43558955192565918 170 53 15
3 0 -4.42094802856445312 95 46 23
3 0 3.43486785888671875 171 61 14
3 1 -4.51038551330566406 108 50 21
3 1 3.53110074996948242 179 64 12
3 2 -4.45812129974365234 123 48 19
3 2 3.48778986930847168 189 58 9
3 3 -4.27400588989257812 138 39 17
3 3 3.3149864673614502 199 41 7
2.91455292701721191 4 -4 155 47 13
3 3.90083551406860352 -4 139 54 16
3 4 -3.95616674423217773 156 36 14
3 4 3.02215814590454102 206 12 6
3 5 -3.43317365646362305 164 22 14
2.08997130393981934 5 3 210 25 6
3 4.06374883651733398 3 206 12 6
3 5 2.52876019477844238 205 17 7
2.72946715354919434 6 -3 177 36 12
3 5.7827000617980957 -3 173 18 12
3 6 -2.79692220687866211 174 51 15
2.96126747131347656 6 2 206 54 8
3 5.96742820739746094 2 205 17 7
3 6 1.96907496452331543 202 53 9
3 7 -2.08511710166931152 156 100 28
2.14503049850463867 7 2 194 116 17
3 7 1.28342902660369873 191 114 18
2.74206972122192383 8 -2 145 125 44
3 7.34879446029663086 -2 173 97 22
3 8 -1.64261984825134277 135 127 53
3 8 1.05781662464141846 160 154 51
3 8.72009086608886719 -1 151 138 48
3 8.75882434844970703 0 159 146 47
3 8.25988292694091797 1 160 154 51
3.2325584888458252 -9 -1 54 96 47
3.2979893684387207 -9 0 65 108 59
3.04463744163513184 -8 -2 109 117 95
3.47884702682495117 -8 -1 128 132 122
3.52211713790893555 -8 0 140 142 139
3.17747831344604492 -8 1 145 146 144
3.64089012145996094 -7 -2 142 139 93
4 -7.11735153198242188 -1 103 118 88
4 -7 -1.13670134544372559 131 133 108
4 -7.17652273178100586 0 115 128 103
3.7230074405670166 -7 1 167 166 89
4 -7 0.23507554829120636 151 154 104
3.52104735374450684 -6 -3 142 109 55
4 -6.50934791564941406 -2 131 133 108
4 -6 -2.40512704849243164 136 118 67
4 -6.61081266403198242 1 153 159 108
3.61055302619934082 -6 2 181 142 48
4 -6 1.4960780143737793 173 141 54
4 -5.25987339019775391 -3 136 118 67
4 -5 -3.1280369758605957 131 88 45
4 -5.37517023086547852 2 176 156 61
3.03815770149230957 -5 3 190 110 28
4 -5 2.18240261077880859 183 107 31
3.44241619110107422 -4 -4 129 39 28
4 -4 -3.53226280212402344 130 54 31
3.49832677841186523 -4 3 190 59 17
4 -4 2.57508993148803711 181 58 20
3.74291038513183594 -3 -4 115 34 25
4 -3 -3.78327107429504395 121 28 27
3.7808072566986084 -3 3 185 19 14
4 -3 2.81439685821533203 173 21 18
3.82996106147766113 -2 -4 100 44 25
4 -2 -3.8563079833984375 108 38 25
3.85544371604919434 -2 3 177 36 14
4 -2 2.87760829925537109 164 38 18
3.68156981468200684 -1 -4 86 48 25
4 -1 -3.73108243942260742 96 44 25
3.69858837127685547 -1 3 170 53 15
4 -1 2.74521875381469727 155 52 19
3.68030810356140137 0 -4 86 51 24
4 0 -3.73002219200134277 96 47 25
3.69738245010375977 0 3 171 61 14
4 0 2.7442009449005127 155 60 18
3.82636284828186035 1 -4 101 57 22
4 1 -3.85327601432800293 109 51 23
3.85204529762268066 1 3 179 64 12
4 1 2.87473249435424805 165 62 15
3.73760318756103516 2 -4 119 59 20
4 2 -3.77881789207458496 126 50 20
3.77590203285217285 2 3 189 58 9
4 2 2.81024265289306641 177 57 12
3.43637466430664062 3 -4 139 54 16
4 3 -3.52724719047546387 143 41 17
3.49300289154052734 3 3 199 41 7
4 3 2.57054710388183594 190 42 9
4 4 -3.12355327606201172 155 20 15
3.03394293785095215 4 3 206 12 6
4 4 2.17862653732299805 199 14 8
3.51923680305480957 5 -3 173 18 12
4 4.2525944709777832 -3 162 32 14
4 5 -2.40291976928710938 171 27 14
3.61022543907165527 5 2 205 17 7
4 4.37028837203979492 2 199 14 8
4 5 1.49531102180480957 199 24 9
3.64784646034240723 6 -2 185 42 12
4 5.51339483261108398 -2 179 17 12
4 6 -1.15398836135864258 179 64 15
3.73146986961364746 6 1 202 53 9
4 5.61810207366943359 1 199 24 9
4 6 0.257170498371124268 194 65 12
3.07022452354431152 7 -2 173 97 22
3.50454854965209961 7 -1 183 97 18
4 6.13640546798706055 -1 188 61 13
3.54863262176513672 7 0 189 103 17
4 6.19892549514770508 0 194 65 12
3.20547914505004883 7 1 191 114 18
3.28871560096740723 8 -1 151 138 48
3.35490989685058594 8 0 159 146 47
3.03989148139953613 8 1 160 154 51
4.04238271713256836 -7 -1 144 146 104
4.06260538101196289 -7 0 151 154 104
4.23682069778442383 -6 -2 149 120 59
4.53024768829345703 -6 -1 159 124 54
4.54293346405029297 -6 0 166 130 52
4.27528095245361328 -6 1 173 141 54
4.11054754257202148 -5 -3 142 81 39
4.68091058731079102 -5 -2 150 77 35
4.97568750381469727 -5 -1 158 76 32
4.98426723480224609 -5 0 167 80 30
4.70629119873046875 -5 1 175 90 30
4.15303897857666016 -5 2 183 107 31
4.45633792877197266 -4 -3 136 44 29
5 -4.10379266738891602 -2 148 96 42
5 -4 -2.05931234359741211 137 63 32
5 -4.93581056594848633 -1 157 97 39
5 -4.95821475982666016 0 165 103 37
5 -4.15771818161010742 1 172 114 37
4.48463058471679688 -4 2 181 58 20
5 -4 1.09051513671875 172 68 24
4.66791868209838867 -3 -3 122 33 26
5 -3 -2.43109822273254395 129 35 27
4.68717432022094727 -3 2 173 21 18
5 -3 1.45804512500762939 164 33 20
4.72815704345703125 -2 -3 106 44 26
5 -2 -2.53657174110412598 116 33 25
4.74116277694702148 -2 2 164 38 18
5 -2 1.55567538738250732 155 30 20
4.62189769744873047 -1 -3 92 48 26
5 -1 -2.35372400283813477 105 41 25
4.630615234375 -1 2 155 52 19
5 -1 1.36535823345184326 145 44 21
4.62100934982299805 0 -3 92 52 25
5 0 -2.35217094421386719 105 45 25
4.62975502014160156 0 2 155 60 18
5 0 1.36383152008056641 145 51 20
4.72562694549560547 1 -3 107 57 23
5 1 -2.53218507766723633 118 47 22
4.73873376846313477 1 2 165 62 15
5 1 1.55140006542205811 156 52 17
4.66419124603271484 2 -3 126 59 20
5 2 -2.42458438873291016 134 45 19
4.68365001678466797 2 2 177 57 12
5 2 1.45172762870788574 169 47 14
4.45209741592407227 3 -3 146 52 17
5 3 -2.05177831649780273 149 33 17
4.48075294494628906 3 2 190 42 9
5 3 1.08319854736328125 182 31 11
4.10669231414794922 4 -3 162 32 14
4.67723417282104492 4 -2 168 40 13
5 3.09092068672180176 -2 155 40 16
4.97188282012939453 4 -1 174 43 12
5 3.92562103271484375 -1 163 43 15
4.98058462142944336 4 0 182 40 11
5 3.94832777976989746 0 172 40 13
4.70298242568969727 4 1 191 31 9
5 3.14548134803771973 1 182 31 11
4.14983367919921875 4 2 199 14 8
4.23563575744628906 5 -2 179 17 12
4.52930307388305664 5 -1 186 13 10
4.54219961166381836 5 0 193 15 9
4.27474832534790039 5 1 199 24 9
4.04778909683227539 6 -1 188 61 13
4.06838655471801758 6 0 194 65 12
5.02700519561767578 -4 -2 145 58 29
5.25156497955322266 -4 -1 153 56 27
5.25591325759887695 -4 0 162 59 25
5.04011774063110352 -4 1 172 68 24
5.19264078140258789 -3 -2 134 29 26
5.41127109527587891 -3 -1 142 26 24
5.41421413421630859 -3 0 152 27 23
5.20135402679443359 -3 1 164 33 20
5.23748397827148438 -2 -2 120 38 25
5.45416498184204102 -2 -1 128 39 24
5.45616340637207031 -2 0 140 37 23
5.24333047866821289 -2 1 155 30 20
5.15688848495483398 -1 -2 108 45 26
5.37271451950073242 -1 -1 116 48 25
5.3740534782409668 -1 0 129 48 24
5.16073083877563477 -1 1 145 44 21
5.15621280670166016 0 -2 108 50 25
5.37205410003662109 0 -1 116 53 24
5.37339687347412109 0 0 129 54 23
5.16006708145141602 0 1 145 51 20
5.23560237884521484 1 -2 121 53 22
5.45231199264526367 1 -1 129 56 22
5.45432519912719727 1 0 141 57 20
5.24149417877197266 1 1 156 52 17
5.1898040771484375 2 -2 138 51 19
5.40851640701293945 2 -1 146 54 18
5.41149091720581055 2 0 156 53 16
5.19861268997192383 2 1 169 47 14
5.02358579635620117 3 -2 155 40 16
5.24834918975830078 3 -1 163 43 15
5.25275468826293945 3 0 172 40 13
5.03687810897827148 3 1 182 31 11
3 2 1 0
3 1 4 3
3 0 1 3
3 4 5 3
3 8 7 6
3 7 2 0
3 7 0 6
3 6 0 9
3 0 3 9
3 3 10 9
3 5 12 11
3 5 11 3
3 3 11 10
3 12 13 11
3 15 8 6
3 14 15 6
3 6 9 14
3 9 16 14
3 9 10 16
3 10 17 16
3 10 11 17
3 11 18 17
3 13 19 18
3 11 13 18
3 21 15 14
3 20 21 14
3 14 16 20
3 16 22 20
3 16 17 22
3 17 23 22
3 17 18 23
3 18 24 23
3 19 25 24
3 18 19 24
3 27 21 20
3 26 27 20
3 20 22 26
3 22 28 26
3 22 23 28
3 23 29 28
3 23 24 29
3 24 30 29
3 25 31 30
3 24 25 30
3 33 27 26
3 32 33 26
3 26 28 32
3 28 34 32
3 28 29 34
3 29 35 34
3 29 30 35
3 30 36 35
3 31 37 36
3 30 31 36
3 39 33 32
3 38 39 32
3 32 34 38
3 34 40 38
3 34 35 40
3 35 41 40
3 35 36 41
3 36 42 41
3 37 43 42
3 36 37 42
3 45 39 38
3 44 45 38
3 38 40 44
3 40 46 44
3 40 41 46
3 41 47 46
3 41 42 47
3 42 48 47
3 43 49 48
3 42 43 48
3 51 45 44
3 50 51 44
3 44 46 50
3 46 52 50
3 46 47 52
3 47 53 52
3 47 48 53
3 48 54 53
3 49 55 54
3 48 49 54
3 51 50 56
3 58 56 50
3 58 50 57
3 57 50 52
3 52 53 57
3 53 59 57
3 60 61 59
3 60 59 54
3 54 59 53
3 54 55 60
3 58 57 62
3 57 59 63
3 62 57 63
3 59 61 63
3 66 65 64
3 65 68 67
3 64 65 67
3 68 69 67
3 72 71 70
3 71 66 64
3 71 64 70
3 70 64 73
3 64 67 73
3 67 74 73
3 69 76 75
3 69 75 67
3 67 75 74
3 76 77 75
3 80 79 78
3 79 72 70
3 79 70 78
3 78 70 81
3 2 73 1
3 2 81 73
3 81 70 73
3 74 1 73
3 4 1 74
3 4 82 5
3 4 74 82
3 74 75 82
3 77 84 83
3 77 83 75
3 75 83 82
3 84 85 83
3 87 80 78
3 86 87 78
3 8 81 7
3 8 86 81
3 86 78 81
3 81 2 7
3 82 12 5
3 12 88 13
3 12 82 88
3 82 83 88
3 85 89 88
3 83 85 88
3 91 87 86
3 90 91 86
3 86 15 90
3 8 15 86
3 92 13 88
3 19 13 92
3 89 93 92
3 88 89 92
3 95 91 90
3 94 95 90
3 90 21 94
3 15 21 90
3 96 19 92
3 25 19 96
3 93 97 96
3 92 93 96
3 99 95 94
3 98 99 94
3 94 27 98
3 21 27 94
3 100 25 96
3 31 25 100
3 97 101 100
3 96 97 100
3 103 99 98
3 102 103 98
3 98 33 102
3 27 33 98
3 104 31 100
3 37 31 104
3 101 105 104
3 100 101 104
3 107 103 102
3 106 107 102
3 102 39 106
3 33 39 102
3 108 37 104
3 43 37 108
3 105 109 108
3 104 105 108
3 111 107 106
3 110 111 106
3 106 45 110
3 39 45 106
3 112 43 108
3 49 43 112
3 109 113 112
3 108 109 112
3 115 111 110
3 114 115 110
3 110 51 114
3 45 51 110
3 116 49 112
3 55 49 116
3 113 117 116
3 112 113 116
3 119 115 114
3 118 119 114
3 56 114 51
3 56 120 114
3 120 118 114
3 56 58 120
3 60 121 61
3 55 121 60
3 55 116 121
3 116 122 121
3 117 123 122
3 116 117 122
3 119 118 124
3 126 124 118
3 126 118 125
3 125 118 120
3 62 120 58
3 62 127 120
3 127 125 120
3 63 127 62
3 128 127 63
3 61 128 63
3 61 121 128
3 121 129 128
3 130 131 129
3 130 129 122
3 122 129 121
3 122 123 130
3 126 125 132
3 134 132 125
3 134 125 133
3 133 125 127
3 127 128 133
3 128 135 133
3 136 137 135
3 136 135 129
3 129 135 128
3 129 131 136
3 134 133 138
3 133 135 139
3 138 133 139
3 135 137 139
3 142 141 140
3 141 144 143
3 140 141 143
3 144 146 145
3 143 144 145
3 146 147 145
3 150 149 148
3 149 142 140
3 149 140 148
3 148 140 151
3 140 143 151
3 143 152 151
3 143 145 152
3 145 153 152
3 147 154 153
3 145 147 153
3 156 150 148
3 155 156 148
3 66 151 65
3 66 155 151
3 155 148 151
3 152 65 151
3 68 65 152
3 68 157 69
3 68 152 157
3 152 153 157
3 154 159 158
3 154 158 153
3 153 158 157
3 159 160 158
3 163 162 161
3 155 71 72
3 156 155 72
3 156 72 161
3 156 161 162
3 155 66 71
3 157 76 69
3 76 164 77
3 76 157 164
3 157 158 164
3 160 165 164
3 158 160 164
3 161 79 80
3 161 80 163
3 163 80 166
3 161 72 79
3 164 84 77
3 84 167 85
3 164 167 84
3 164 168 167
3 164 165 168
3 168 169 167
3 172 171 170
3 171 87 170
3 171 166 87
3 166 80 87
3 173 85 167
3 89 85 173
3 169 174 173
3 167 169 173
3 176 172 170
3 175 176 170
3 170 91 175
3 87 91 170
3 177 89 173
3 93 89 177
3 174 178 177
3 173 174 177
3 180 176 175
3 179 180 175
3 175 95 179
3 91 95 175
3 181 93 177
3 97 93 181
3 178 182 181
3 177 178 181
3 184 180 179
3 183 184 179
3 179 99 183
3 95 99 179
3 185 97 181
3 101 97 185
3 182 186 185
3 181 182 185
3 188 184 183
3 187 188 183
3 183 103 187
3 99 103 183
3 189 101 185
3 105 101 189
3 186 190 189
3 185 186 189
3 192 188 187
3 191 192 187
3 187 107 191
3 103 107 187
3 193 105 189
3 109 105 193
3 190 194 193
3 189 190 193
3 196 192 191
3 195 196 191
3 191 111 195
3 107 111 191
3 197 109 193
3 113 109 197
3 194 198 197
3 193 194 197
3 200 196 195
3 199 200 195
3 195 115 199
3 111 115 195
3 201 113 197
3 117 113 201
3 198 202 201
3 197 198 201
3 200 199 203
3 199 204 203
3 199 115 204
3 115 119 204
3 205 117 201
3 123 117 205
3 202 206 205
3 201 202 205
3 124 207 208
3 124 208 119
3 119 208 204
3 124 126 207
3 130 209 131
3 209 210 211
3 130 210 209
3 130 205 210
3 130 123 205
3 205 206 210
3 208 207 212
3 214 132 213
3 212 132 214
3 212 126 132
3 212 207 126
3 132 134 213
3 136 215 137
3 131 215 136
3 131 209 215
3 209 216 215
3 211 217 216
3 209 211 216
3 219 214 213
3 218 219 213
3 138 213 134
3 138 220 213
3 220 218 213
3 139 220 138
3 221 220 139
3 137 221 139
3 137 215 221
3 215 222 221
3 223 224 222
3 223 222 216
3 216 222 215
3 216 217 223
3 226 219 218
3 225 226 218
3 218 220 225
3 220 227 225
3 220 221 227
3 221 228 227
3 221 222 228
3 222 229 228
3 224 230 229
3 222 224 229
3 226 225 231
3 225 227 232
3 231 225 232
3 227 228 233
3 232 227 233
3 228 229 234
3 233 228 234
3 229 230 234
3 237 236 235
3 142 235 236
3 142 236 141
3 141 236 238
3 238 239 141
3 141 239 144
3 239 240 144
3 144 240 146
3 146 240 241
3 147 146 241
3 235 149 150
3 235 150 237
3 237 150 242
3 235 142 149
3 243 241 244
3 243 154 241
3 154 147 241
3 244 245 243
3 248 247 246
3 247 156 246
3 247 242 156
3 242 150 156
3 243 159 154
3 159 243 245
3 159 245 160
3 160 245 249
3 246 162 163
3 246 163 248
3 248 163 250
3 246 156 162
3 251 249 252
3 251 165 249
3 165 160 249
3 252 253 251
3 256 255 254
3 255 166 254
3 255 250 166
3 250 163 166
3 251 168 165
3 168 251 253
3 168 253 169
3 169 253 257
3 254 171 172
3 254 172 256
3 256 172 258
3 254 166 171
3 257 259 169
3 259 174 169
3 258 172 260
3 260 172 176
3 259 261 174
3 261 178 174
3 260 176 262
3 262 176 180
3 261 263 178
3 263 182 178
3 262 180 264
3 264 180 184
3 263 265 182
3 265 186 182
3 264 184 266
3 266 184 188
3 265 267 186
3 267 190 186
3 266 188 268
3 268 188 192
3 267 269 190
3 269 194 190
3 268 192 270
3 270 192 196
3 269 271 194
3 271 198 194
3 270 196 272
3 272 196 200
3 271 273 198
3 273 202 198
3 203 274 275
3 203 275 200
3 200 275 272
3 203 204 274
3 273 276 202
3 276 206 202
3 275 274 277
3 274 278 277
3 274 204 278
3 204 208 278
3 210 279 211
3 279 210 206
3 279 206 280
3 280 206 276
3 212 281 282
3 212 282 208
3 208 282 278
3 212 214 281
3 283 211 279
3 283 284 211
3 284 217 211
3 279 280 283
3 282 281 285
3 281 286 285
3 281 214 286
3 214 219 286
3 223 287 224
3 287 223 217
3 287 217 288
3 288 217 284
3 286 219 289
3 289 219 226
3 290 224 287
3 230 224 290
3 288 291 290
3 287 288 290
3 289 226 231
3 292 289 231
3 292 231 293
3 231 232 293
3 293 232 294
3 232 233 294
3 294 233 295
3 233 234 295
3 230 290 296
3 230 296 234
3 234 296 295
3 290 291 296
3 237 298 297
3 236 237 297
3 297 299 236
3 236 299 238
3 299 300 238
3 238 300 239
3 300 301 239
3 239 301 240
3 302 241 240
3 302 240 303
3 303 240 301
3 303 304 302
3 307 306 305
3 306 242 305
3 306 298 242
3 298 237 242
3 302 244 241
3 244 302 304
3 244 304 245
3 245 304 308
3 305 247 248
3 305 248 307
3 307 248 309
3 305 242 247
3 308 310 245
3 310 249 245
3 313 312 311
3 312 250 311
3 312 309 250
3 309 248 250
3 310 252 249
3 314 252 310
3 252 314 315
3 253 252 315
3 311 255 256
3 311 256 313
3 313 256 316
3 311 250 255
3 315 317 253
3 317 257 253
3 316 256 318
3 318 256 258
3 317 319 257
3 319 259 257
3 318 258 320
3 320 258 260
3 321 319 322
3 321 261 319
3 261 259 319
3 322 323 321
3 326 325 324
3 325 262 324
3 325 320 262
3 320 260 262
3 327 261 321
3 263 261 327
3 323 328 327
3 321 323 327
3 326 324 329
3 324 330 329
3 324 262 330
3 262 264 330
3 331 263 327
3 331 332 263
3 332 265 263
3 327 328 331
3 330 264 333
3 333 264 266
3 332 334 265
3 334 267 265
3 337 336 335
3 336 268 335
3 336 333 268
3 333 266 268
3 338 334 339
3 338 269 334
3 269 267 334
3 339 340 338
3 337 335 341
3 335 342 341
3 335 268 342
3 268 270 342
3 343 269 338
3 271 269 343
3 340 344 343
3 338 340 343
3 342 270 345
3 345 270 272
3 346 271 343
3 346 347 271
3 347 273 271
3 343 344 346
3 345 272 348
3 348 272 275
3 347 349 273
3 349 276 273
3 277 350 351
3 277 351 275
3 275 351 348
3 277 278 350
3 349 352 276
3 352 280 276
3 351 350 353
3 350 354 353
3 350 278 354
3 278 282 354
3 284 355 356
3 283 355 284
3 355 283 280
3 352 355 280
3 285 357 358
3 285 358 282
3 282 358 354
3 285 286 357
3 356 359 284
3 359 288 284
3 358 357 360
3 357 361 360
3 357 286 361
3 286 289 361
3 359 362 288
3 362 291 288
3 361 289 292
3 363 361 292
3 363 292 364
3 292 293 364
3 364 293 365
3 293 294 365
3 365 294 366
3 294 295 366
3 366 295 367
3 295 296 367
3 367 296 291
3 362 367 291
3 298 369 368
3 297 298 368
3 368 370 297
3 297 370 299
3 370 371 299
3 299 371 300
3 371 372 300
3 300 372 301
3 374 373 303
3 374 303 372
3 372 303 301
3 303 373 304
3 306 307 375
3 375 298 306
3 375 376 298
3 376 369 298
3 374 377 373
3 373 377 378
3 373 378 304
3 304 378 308
3 379 375 307
3 379 307 380
3 380 307 309
3 375 379 376
3 378 381 308
3 381 310 308
3 312 313 382
3 382 309 312
3 382 383 309
3 383 380 309
3 381 314 310
3 384 314 381
3 314 384 385
3 315 314 385
3 386 382 313
3 386 313 387
3 387 313 316
3 382 386 383
3 385 388 315
3 388 317 315
3 387 316 389
3 389 316 318
3 388 390 317
3 390 319 317
3 389 318 391
3 391 318 320
3 322 393 392
3 322 319 393
3 319 390 393
3 322 392 323
3 325 326 394
3 394 320 325
3 394 395 320
3 395 391 320
3 397 392 393
3 396 392 397
3 392 396 328
3 323 392 328
3 394 326 329
3 329 395 394
3 329 330 395
3 330 398 395
3 396 332 331
3 396 397 332
3 397 399 332
3 396 331 328
3 398 330 400
3 400 330 333
3 399 401 332
3 401 334 332
3 336 337 402
3 402 333 336
3 402 403 333
3 403 400 333
3 339 405 404
3 339 334 405
3 334 401 405
3 339 404 340
3 402 337 341
3 341 403 402
3 341 342 403
3 342 406 403
3 408 404 405
3 407 404 408
3 404 407 344
3 340 404 344
3 406 342 409
3 409 342 345
3 407 347 346
3 407 408 347
3 408 410 347
3 407 346 344
3 409 345 411
3 411 345 348
3 410 412 347
3 412 349 347
3 413 414 411
3 413 411 351
3 351 411 348
3 414 413 415
3 412 416 349
3 416 352 349
3 413 351 353
3 353 415 413
3 353 354 415
3 354 417 415
3 356 418 419
3 355 418 356
3 418 355 352
3 416 418 352
3 420 421 417
3 420 417 358
3 358 417 354
3 421 420 422
3 419 423 356
3 423 359 356
3 420 358 360
3 360 422 420
3 360 361 422
3 361 424 422
3 427 425 426
3 426 425 362
3 426 362 423
3 423 362 359
3 424 361 363
3 428 424 363
3 428 363 429
3 363 364 429
3 429 364 430
3 364 365 430
3 430 365 431
3 365 366 431
3 425 427 431
3 425 431 367
3 367 431 366
3 425 367 362
3 368 369 432
3 432 434 433
3 432 433 368
3 368 433 370
3 433 435 370
3 370 435 371
3 437 436 372
3 437 372 435
3 435 372 371
3 372 436 374
3 438 432 369
3 438 369 439
3 439 369 376
3 432 438 434
3 437 440 436
3 442 441 377
3 440 442 377
3 440 377 374
3 440 374 436
3 377 441 378
3 379 380 443
3 443 376 379
3 443 444 376
3 444 439 376
3 446 441 442
3 445 441 446
3 441 445 381
3 378 441 381
3 447 443 380
3 447 380 448
3 448 380 383
3 443 447 444
3 446 449 445
3 451 450 384
3 449 451 384
3 449 384 381
3 449 381 445
3 384 450 385
3 386 387 452
3 452 383 386
3 452 453 383
3 453 448 383
3 451 454 450
3 450 454 455
3 450 455 385
3 385 455 388
3 456 452 387
3 456 387 457
3 457 387 389
3 452 456 453
3 455 458 388
3 458 390 388
3 457 389 459
3 459 389 391
3 458 460 390
3 460 393 390
3 459 391 461
3 461 391 395
3 460 462 393
3 462 397 393
3 461 395 463
3 463 395 398
3 462 464 397
3 464 399 397
3 463 398 465
3 465 398 400
3 464 466 399
3 466 401 399
3 465 400 467
3 467 400 403
3 466 468 401
3 468 405 401
3 467 403 469
3 469 403 406
3 468 470 405
3 470 408 405
3 469 406 471
3 471 406 409
3 470 472 408
3 472 410 408
3 473 474 471
3 473 471 411
3 411 471 409
3 474 473 475
3 472 476 410
3 476 412 410
3 473 411 414
3 414 475 473
3 414 415 475
3 415 477 475
3 480 478 479
3 479 478 416
3 479 416 476
3 476 416 412
3 481 482 477
3 481 477 417
3 417 477 415
3 482 481 483
3 486 484 485
3 478 419 418
3 480 419 478
3 480 484 419
3 480 485 484
3 478 418 416
3 481 417 421
3 421 483 481
3 421 422 483
3 422 487 483
3 489 484 486
3 488 484 489
3 484 488 423
3 419 484 423
3 490 491 487
3 490 487 424
3 424 487 422
3 491 490 492
3 488 427 426
3 488 489 427
3 489 493 427
3 488 426 423
3 490 424 428
3 492 490 428
3 492 428 494
3 494 428 429
3 494 429 495
3 429 430 495
3 495 430 496
3 430 431 496
3 496 431 427
3 493 496 427
3 433 434 497
3 435 433 497
3 498 435 497
3 435 498 437
3 438 439 499
3 434 438 499
3 434 499 497
3 497 499 500
3 497 500 498
3 498 500 501
3 440 437 498
3 440 498 502
3 502 498 501
3 440 502 442
3 503 499 439
3 444 503 439
3 504 503 505
3 504 500 503
3 500 499 503
3 500 506 501
3 504 506 500
3 508 501 506
3 508 507 501
3 507 502 501
3 502 507 446
3 442 502 446
3 447 448 509
3 509 511 510
3 447 509 510
3 447 510 503
3 447 503 444
3 503 510 505
3 508 512 507
3 514 513 449
3 512 514 449
3 512 449 446
3 512 446 507
3 449 513 451
3 515 509 448
3 515 448 516
3 516 448 453
3 509 515 511
3 514 517 513
3 519 518 454
3 517 519 454
3 517 454 451
3 517 451 513
3 454 518 455
3 456 457 520
3 520 453 456
3 520 521 453
3 521 516 453
3 523 518 519
3 522 518 523
3 518 522 458
3 455 518 458
3 524 520 457
3 459 524 457
3 521 524 525
3 520 524 521
3 527 522 523
3 526 522 527
3 522 526 460
3 458 522 460
3 528 524 459
3 461 528 459
3 525 528 529
3 524 528 525
3 531 526 527
3 530 526 531
3 526 530 462
3 460 526 462
3 532 528 461
3 463 532 461
3 529 532 533
3 528 532 529
3 535 530 531
3 534 530 535
3 530 534 464
3 462 530 464
3 536 532 463
3 465 536 463
3 533 536 537
3 532 536 533
3 539 534 535
3 538 534 539
3 534 538 466
3 464 534 466
3 540 536 465
3 467 540 465
3 537 540 541
3 536 540 537
3 543 538 539
3 542 538 543
3 538 542 468
3 466 538 468
3 544 540 467
3 469 544 467
3 541 544 545
3 540 544 541
3 547 542 543
3 546 542 547
3 542 546 470
3 468 542 470
3 548 544 469
3 471 548 469
3 545 548 549
3 544 548 545
3 551 546 547
3 550 546 551
3 546 550 472
3 470 546 472
3 548 471 474
3 474 549 548
3 474 475 549
3 475 552 549
3 554 550 551
3 553 550 554
3 550 553 476
3 472 550 476
3 555 556 552
3 555 552 477
3 477 552 475
3 556 555 557
3 560 558 559
3 553 480 479
3 554 480 553
3 554 558 480
3 554 559 558
3 553 479 476
3 555 477 482
3 482 483 561
3 555 482 561
3 555 561 562
3 555 562 557
3 562 561 563
3 566 564 565
3 558 486 485
3 560 486 558
3 560 564 486
3 560 565 564
3 558 485 480
3 567 561 483
3 487 567 483
3 563 568 569
3 563 561 568
3 561 567 568
3 569 570 571
3 568 570 569
3 571 564 566
3 571 570 564
3 570 572 564
3 564 572 489
3 486 564 489
3 567 487 491
3 491 492 573
3 491 573 567
3 567 573 568
3 568 573 570
3 570 573 574
3 570 574 572
3 572 574 575
3 572 575 493
3 489 572 493
3 573 492 494
3 574 573 494
3 495 574 494
3 575 574 495
3 496 575 495
3 575 496 493
3 504 505 576
3 506 504 576
3 577 506 576
3 506 577 508
3 510 511 578
3 505 510 578
3 505 578 576
3 576 578 579
3 576 579 577
3 577 579 580
3 512 508 577
3 512 577 581
3 581 577 580
3 512 581 514
3 515 516 582
3 511 515 582
3 511 582 578
3 578 582 583
3 578 583 579
3 579 583 584
3 579 584 580
3 580 584 585
3 580 585 581
3 581 585 586
3 517 514 581
3 517 581 587
3 587 581 586
3 517 587 519
3 588 582 516
3 521 588 516
3 589 588 590
3 589 583 588
3 583 582 588
3 583 591 584
3 589 591 583
3 584 592 585
3 591 592 584
3 585 593 586
3 592 593 585
3 595 586 593
3 595 594 586
3 594 587 586
3 587 594 523
3 519 587 523
3 596 588 521
3 525 596 521
3 590 596 597
3 588 596 590
3 599 594 595
3 598 594 599
3 594 598 527
3 523 594 527
3 600 596 525
3 529 600 525
3 597 600 601
3 596 600 597
3 603 598 599
3 602 598 603
3 598 602 531
3 527 598 531
3 604 600 529
3 533 604 529
3 601 604 605
3 600 604 601
3 607 602 603
3 606 602 607
3 602 606 535
3 531 602 535
3 608 604 533
3 537 608 533
3 605 608 609
3 604 608 605
3 611 606 607
3 610 606 611
3 606 610 539
3 535 606 539
3 612 608 537
3 541 612 537
3 609 612 613
3 608 612 609
3 615 610 611
3 614 610 615
3 610 614 543
3 539 610 543
3 616 612 541
3 545 616 541
3 613 616 617
3 612 616 613
3 619 614 615
3 618 614 619
3 614 618 547
3 543 614 547
3 620 616 545
3 549 620 545
3 617 620 621
3 616 620 617
3 623 618 619
3 622 618 623
3 618 622 551
3 547 618 551
3 624 620 549
3 552 624 549
3 621 625 626
3 621 620 625
3 620 624 625
3 626 627 628
3 625 627 626
3 628 629 630
3 627 629 628
3 630 631 632
3 629 631 630
3 632 622 623
3 632 631 622
3 631 633 622
3 622 633 554
3 551 622 554
3 624 552 556
3 556 557 634
3 556 634 624
3 624 634 625
3 625 634 627
3 627 634 635
3 627 635 629
3 629 635 636
3 629 636 631
3 631 636 637
3 560 559 633
3 560 633 637
3 637 633 631
3 633 559 554
3 634 557 562
3 562 563 638
3 562 638 634
3 634 638 635
3 635 638 636
3 636 638 639
3 566 565 637
3 566 637 639
3 639 637 636
3 637 565 560
3 638 563 569
3 639 638 569
3 571 639 569
3 639 571 566
3 589 590 640
3 591 589 640
3 641 591 640
3 592 591 641
3 642 592 641
3 593 592 642
3 643 593 642
3 593 643 595
3 644 640 590
3 597 644 590
3 640 644 641
3 641 644 645
3 641 645 642
3 642 645 646
3 642 646 643
3 643 646 647
3 643 647 599
3 595 643 599
3 648 644 597
3 601 648 597
3 644 648 645
3 645 648 649
3 645 649 646
3 646 649 650
3 646 650 647
3 647 650 651
3 647 651 603
3 599 647 603
3 652 648 601
3 605 652 601
3 648 652 649
3 649 652 653
3 649 653 650
3 650 653 654
3 650 654 651
3 651 654 655
3 651 655 607
3 603 651 607
3 656 652 605
3 609 656 605
3 652 656 653
3 653 656 657
3 653 657 654
3 654 657 658
3 654 658 655
3 655 658 659
3 655 659 611
3 607 655 611
3 660 656 609
3 613 660 609
3 656 660 657
3 657 660 661
3 657 661 658
3 658 661 662
3 658 662 659
3 659 662 663
3 659 663 615
3 611 659 615
3 664 660 613
3 617 664 613
3 660 664 661
3 661 664 665
3 661 665 662
3 662 665 666
3 662 666 663
3 663 666 667
3 663 667 619
3 615 663 619
3 668 664 617
3 621 668 617
3 664 668 665
3 665 668 669
3 665 669 666
3 666 669 670
3 666 670 667
3 667 670 671
3 667 671 623
3 619 667 623
3 668 621 626
3 669 668 626
3 628 669 626
3 670 669 628
3 630 670 628
3 671 670 630
3 632 671 630
3 671 632 623
