ply
format ascii 1.0
element vertex 290
property float x
property float y
property float z
property uchar red
property uchar green
property uchar blue
element face 576
property list uchar int vertex_indices
end_header
-3.06297659873962402 -9 -1 222 248 107
-3 -9.15007972717285156 -1 187 241 104
-3 -9 -1.11128652095794678 236 191 120
-3.01839232444763184 -9 0 204 248 103
-3 -9.04911708831787109 0 162 244 100
-3 -9 0.0279963891953229904 237 213 110
-3.17464041709899902 -8 -1 245 177 118
-3 -8 -1.30862462520599365 231 133 130
-3.12987852096557617 -8 0 245 191 114
-3 -8 0.19770638644695282 229 132 119
-3.27857685089111328 -7 -1 242 149 129
-3 -7 -1.49232423305511475 226 195 139
-3.23364734649658203 -7 0 242 124 124
-3 -7 0.355680882930755615 222 173 127
-3.37470054626464844 -6 -1 240 210 139
-3 -6 -1.66223025321960449 205 221 148
-3.32961416244506836 -6 0 240 186 134
-3 -6 0.501787960529327393 216 215 134
-3.46293020248413086 -5 -1 225 237 149
-3 -5 -1.81819593906402588 174 218 156
-3.41769838333129883 -5 0 238 228 143
-3 -5 0.635902822017669678 184 212 141
-3.54319047927856445 -4 -1 202 237 158
-3 -4 -1.96008408069610596 163 215 167
-3.49782490730285645 -4 0 233 241 153
-3 -4 0.75790858268737793 175 215 152
-3.04863333702087402 -3 -2 197 244 176
-3 -3.68680381774902344 -2 163 215 167
-3 -3 -2.04087328910827637 193 239 199
-3.61541080474853516 -3 -1 202 241 168
-3.56992411613464355 -3 0 233 244 162
-3 -3 0.867696940898895264 211 239 173
-3.11143755912780762 -2 -2 208 246 185
-3 -2 -2.09365558624267578 206 245 204
-3.67952704429626465 -2 -1 214 245 177
-3.63393187522888184 -2 0 240 247 170
-3 -2 0.96516883373260498 225 244 182
-3.16623926162719727 -1 -2 215 245 192
-3 -1 -2.13971114158630371 217 246 212
-3.73548126220703125 -1 -1 227 246 185
-3.68979096412658691 -1 0 248 242 178
-3.03220748901367188 -1 1 249 199 171
-3 -1.59003758430480957 1 249 223 176
-3 -1 1.02510583400726318 249 224 182
-3.21299147605895996 0 -2 222 245 199
-3 0 -2.1790008544921875 225 245 219
-3.78322243690490723 0 -1 237 246 191
-3.73745059967041016 0 0 247 232 184
-3.07873630523681641 0 1 249 196 178
-3 0 1.06137394905090332 250 216 189
-3.25165367126464844 1 -2 231 244 204
-3 1 -2.21149158477783203 232 245 225
-3.82270622253417969 1 -1 245 242 197
-3.77686667442321777 1 0 246 219 190
-3.11721253395080566 1 1 247 187 184
-3 1 1.09136486053466797 250 209 194
-3.28219223022460938 2 -2 240 240 208
-3 2 -2.23715496063232422 238 244 229
-3.8538963794708252 2 -1 241 225 201
-3.80800271034240723 2 0 243 204 194
-3.14760351181030273 2 1 245 199 189
-3 2 1.11505293846130371 250 202 200
-3.3045799732208252 3 -2 237 227 210
-3 3 -2.25596833229064941 243 243 233
-3.87676310539245605 3 -1 238 213 204
-3.83083009719848633 3 0 242 201 199
-3.16988277435302734 3 1 246 213 193
-3 3 1.13241815567016602 251 213 204
-3.31879711151123047 4 -2 238 221 214
-3 4 -2.26791572570800781 243 241 236
-3.89128494262695312 4 -1 240 209 208
-3.84532690048217773 4 0 245 215 203
-3.18403100967407227 4 1 248 230 197
-3 4 1.14344561100006104 252 222 205
-3.32483100891113281 5 -2 242 220 218
-3 5 -2.27298617362976074 244 240 239
-3.89744853973388672 5 -1 244 223 212
-3.85147953033447266 5 0 247 233 206
-3.19003558158874512 5 1 252 239 198
-3 5 1.14812576770782471 254 217 203
-3.32267618179321289 6 -2 244 235 221
-3 6 -2.27117562294006348 247 243 241
-3.8952476978302002 6 -1 247 242 214
-3.84928250312805176 6 0 251 250 206
-3.18789148330688477 6 1 254 226 191
-3 6 1.1464545726776123 254 229 200
-3.31233501434326172 7 -2 243 248 222
-3 7 -2.26248526573181152 249 249 241
-3.88468432426452637 7 -1 236 250 214
-3.83873772621154785 7 0 232 253 204
-3.17760038375854492 7 1 243 254 189
-3 7 1.13843345642089844 249 254 198
-3.29381608963012695 8 -2 221 249 221
-3 8 -2.24692320823669434 247 253 239
-3.8657689094543457 8 -1 213 250 223
-3.8198549747467041 8 0 202 253 214
-3.15917134284973145 8 1 186 254 186
-3 8 1.12406933307647705 222 254 193
-3 8.44961643218994141 -2 254 254 223
-3 8.70211029052734375 -1 252 254 211
-3 8.69095230102539062 0 240 254 202
-3 8.30783367156982422 1 222 254 193
-2 -9.55104541778564453 -1 237 233 113
-2 -9 -1.78453934192657471 221 136 124
-2 -9.52476978302001953 0 204 240 109
-2 -9 0.606961846351623535 228 170 117
-2 -8 -1.98469710350036621 205 168 128
-2 -8 0.779072344303131104 214 144 123
-2.24933528900146484 -7 -2 226 195 139
-2 -7.91758632659912109 -2 205 168 128
-2 -7 -2.07965302467346191 215 214 150
-2 -7 0.939308583736419678 199 188 125
-2.50057244300842285 -6 -2 205 221 148
-2 -6 -2.15990066528320312 180 209 157
-2.14762759208679199 -6 1 224 193 133
-2 -6.58966064453125 1 208 167 126
-2 -6 1.04374277591705322 195 197 129
-2.73118829727172852 -5 -2 174 218 156
-2 -5 -2.2335503101348877 162 201 165
-2.37709498405456543 -5 1 227 222 144
-2 -5 1.11172592639923096 169 193 135
-2.94098210334777832 -4 -2 163 215 167
-2 -4 -2.30054092407226562 166 195 180
-2.58583426475524902 -4 1 247 214 159
-2 -4 1.17355835437774658 203 222 161
-2 -3 -2.36081576347351074 180 201 194
-2.77366280555725098 -3 1 249 211 168
-2 -3 1.22918879985809326 248 232 181
-2 -2 -2.4143226146697998 211 235 219
-2.9404137134552002 -2 1 249 223 176
-2 -2 1.27857041358947754 249 236 189
-2 -1 -2.46101522445678711 224 245 224
-2 -1 1.32166099548339844 248 235 195
-2 0 -2.50085163116455078 234 247 231
-2 0 1.35842311382293701 250 231 201
-2 1 -2.53379654884338379 241 247 237
-2 1 1.38882458209991455 251 225 206
-2 2 -2.55981993675231934 245 247 243
-2 2 1.41283833980560303 252 220 211
-2 3 -2.57889842987060547 247 248 247
-2 3 1.4304429292678833 253 216 214
-2 4 -2.59101438522338867 249 248 247
-2 4 1.44162273406982422 253 221 216
-2 5 -2.59615659713745117 251 250 250
-2 5 1.44636762142181396 254 226 215
-2 6 -2.59432029724121094 253 251 250
-2 6 1.44467329978942871 254 232 214
-2 7 -2.58550739288330078 254 247 245
-2 7 1.43654131889343262 254 243 211
-2 8 -2.56972575187683105 254 241 239
-2 8 1.42197883129119873 245 254 206
-2 8.65017223358154297 -2 254 239 231
-2 8.77148342132568359 -1 254 243 222
-2 8.76507282257080078 0 254 250 214
-2 8.59867095947265625 1 245 254 206
-1 -9.3738250732421875 -1 235 217 122
-1 -9 -1.37835371494293213 216 144 133
-1 -9.32101058959960938 0 226 236 118
-1 -9 0.257671356201171875 221 150 124
-1 -8 -1.57679605484008789 196 185 133
-1 -8 0.428321212530136108 202 162 126
-1.5844038724899292 -7 -2 187 193 131
-1 -7 -1.76153600215911865 155 175 129
-1 -7 0.587181508541107178 174 180 124
-1.16562509536743164 -6 -2 155 185 136
-1 -6 -1.93241500854492188 127 157 126
-1.75393354892730713 -6 1 195 197 129
-1 -6 0.734117031097412109 134 160 119
-1 -5.56834840774536133 -2 127 157 126
-1 -5 -2.04157900810241699 145 166 153
-1.37144708633422852 -5 1 169 193 135
-1 -5 0.869000077247619629 117 146 119
-1 -4 -2.10802650451660156 147 159 156
-1.02350234985351562 -4 1 203 222 161
-1 -4 0.991711080074310303 123 146 130
-1 -3 -2.16780829429626465 157 163 162
-1 -3.92475008964538574 1 153 180 144
-1 -3 1.05104219913482666 229 238 191
-1 -2 -2.22087407112121582 191 194 194
-1 -2 1.10002529621124268 246 247 202
-1 -1 -2.26717877388000488 235 241 236
-1 -1 1.14276552200317383 247 245 209
-1 0 -2.30668282508850098 245 247 244
-1 0 1.17922699451446533 249 240 214
-1 1 -2.33935117721557617 247 248 246
-1 1 1.20937848091125488 251 238 219
-1 2 -2.36515545845031738 246 250 243
-1 2 1.23319411277770996 252 236 224
-1 3 -2.38407278060913086 248 251 242
-1 3 1.25065302848815918 253 235 227
-1 4 -2.39608597755432129 251 252 242
-1 4 1.26174008846282959 253 235 229
-1 5 -2.4011845588684082 253 253 244
-1 5 1.26644551753997803 254 233 230
-1 6 -2.39936399459838867 254 253 247
-1 6 1.26476526260375977 254 234 229
-1 7 -2.3906257152557373 254 253 251
-1 7 1.25670075416564941 254 240 226
-1 8 -2.37497758865356445 254 253 253
-1 8 1.24225902557373047 254 251 222
-1 8.55230808258056641 -2 254 246 245
-1 8.73437786102294922 -1 254 244 237
-1 8.72559642791748047 0 254 245 230
-1 8.46341323852539062 1 254 251 222
-0.746494889259338379 -9 -1 218 130 128
-0.799573361873626709 -9 0 221 150 124
-0.613546788692474365 -8 -1 197 177 129
-0.66684257984161377 -8 0 202 162 126
-0.489786207675933838 -7 -1 158 175 125
-0.54328685998916626 -7 0 174 180 124
-0.375317841768264771 -6 -1 124 154 119
-0.429010093212127686 -6 0 134 160 119
-0.941421389579772949 -5 -2 123 144 131
-0.270240694284439087 -5 -1 115 139 122
-0.324110567569732666 -5 0 117 146 119
-0.84780275821685791 -4 -2 123 137 133
-0.174647435545921326 -4 -1 115 132 126
-0.228680402040481567 -4 0 123 146 130
-0.763571083545684814 -3 -2 133 142 141
-0.0886239558458328247 -3 -1 132 145 142
-0.142804861068725586 -3 0 159 184 165
-0.922466397285461426 -3 1 229 238 191
-0.688798427581787109 -2 -2 168 174 174
-0.0122487209737300873 -2 -1 186 201 193
-0.0665619000792503357 -2 0 219 240 207
-0.848056375980377197 -2 1 246 247 202
-0.623549699783325195 -1 -2 215 223 219
0 -1.81592667102813721 -1 183 185 184
0 -1 -1.07870173454284668 198 205 202
-2.17307551793055609e-05 -1 0 231 244 216
0 -1 -0.00039992964593693614 225 227 225
-0.783126175403594971 -1 1 247 245 209
-0.567882239818572998 0 -2 236 244 235
0 0 -1.16096174716949463 235 240 234
0 -0.999616563320159912 0 233 240 227
-0.727732181549072266 0 1 249 240 214
0 0 0.0707175955176353455 240 243 233
-0.521845579147338867 1 -2 245 248 242
0 1 -1.2289886474609375 243 248 240
-0.681922733783721924 1 1 251 238 219
0 1 0.12922060489654541 247 248 240
-0.485481113195419312 2 -2 249 250 247
0 2 -1.28272223472595215 245 250 239
-0.645738482475280762 2 1 252 236 224
0 2 0.175430819392204285 250 250 246
-0.458821654319763184 3 -2 251 251 251
0 3 -1.32211470603942871 248 252 238
-0.619211494922637939 3 1 253 235 227
0 3 0.209307491779327393 252 251 249
-0.441891491413116455 4 -2 252 252 252
0 4 -1.34713077545166016 251 253 238
-0.602365612983703613 4 1 253 235 229
0 4 0.230820626020431519 253 252 251
-0.434706062078475952 5 -2 253 253 253
0 5 -1.35774791240692139 253 252 239
-0.595215976238250732 5 1 254 233 230
0 5 0.239951059222221375 254 252 252
-0.43727189302444458 6 -2 254 253 253
0 6 -1.35395658016204834 254 249 241
-0.597769081592559814 6 1 254 234 229
0 6 0.236690670251846313 254 251 251
-0.449586719274520874 7 -2 254 251 250
0 7 -1.33576035499572754 254 247 244
-0.610022485256195068 7 1 254 240 226
0 7 0.221042364835739136 254 250 250
-0.47163921594619751 8 -2 254 246 245
0 8 -1.30317533016204834 254 248 248
-0.631965279579162598 8 1 254 251 222
0 8 0.193020075559616089 254 250 246
0 8.32392692565917969 -1 254 254 254
0 8.26183509826660156 0 254 250 246
0.0302041862159967422 -1 -1 225 227 225
0.0617712326347827911 0 -1 239 239 238
0.0315064378082752228 0 0 240 243 233
0.0878742337226867676 1 -1 246 247 246
0.0575690828263759613 1 0 247 248 240
0.108491331338882446 2 -1 249 250 247
0.0781541690230369568 2 0 250 250 246
0.123605117201805115 3 -1 251 251 246
0.093244403600692749 3 0 252 251 249
0.133202746510505676 4 -1 253 252 246
0.102827049791812897 4 0 253 252 251
0.137276038527488708 5 -1 253 251 247
0.106893979012966156 5 0 254 252 252
0.135821521282196045 6 -1 254 250 249
0.105441726744174957 6 0 254 251 251
0.128840416669845581 7 -1 254 252 251
0.0984715297818183899 7 0 254 250 250
0.116338692605495453 8 -1 254 254 254
0.0859893113374710083 8 0 254 250 246
3 2 1 0
3 1 4 3
3 0 1 3
3 4 5 3
3 7 2 0
3 6 7 0
3 0 3 6
3 3 8 6
3 5 9 8
3 3 5 8
3 11 7 6
3 10 11 6
3 6 8 10
3 8 12 10
3 9 13 12
3 8 9 12
3 15 11 10
3 14 15 10
3 10 12 14
3 12 16 14
3 13 17 16
3 12 13 16
3 19 15 14
3 18 19 14
3 14 16 18
3 16 20 18
3 17 21 20
3 16 17 20
3 23 19 18
3 22 23 18
3 18 20 22
3 20 24 22
3 21 25 24
3 20 21 24
3 28 27 26
3 27 23 22
3 27 22 26
3 26 22 29
3 22 24 29
3 24 30 29
3 25 31 30
3 24 25 30
3 33 28 26
3 32 33 26
3 26 29 32
3 29 34 32
3 29 30 34
3 30 35 34
3 31 36 35
3 30 31 35
3 38 33 32
3 37 38 32
3 32 34 37
3 34 39 37
3 34 35 39
3 35 40 39
3 36 42 41
3 36 41 35
3 35 41 40
3 42 43 41
3 45 38 37
3 44 45 37
3 37 39 44
3 39 46 44
3 39 40 46
3 40 47 46
3 40 41 47
3 41 48 47
3 43 49 48
3 41 43 48
3 51 45 44
3 50 51 44
3 44 46 50
3 46 52 50
3 46 47 52
3 47 53 52
3 47 48 53
3 48 54 53
3 49 55 54
3 48 49 54
3 57 51 50
3 56 57 50
3 50 52 56
3 52 58 56
3 52 53 58
3 53 59 58
3 53 54 59
3 54 60 59
3 55 61 60
3 54 55 60
3 63 57 56
3 62 63 56
3 56 58 62
3 58 64 62
3 58 59 64
3 59 65 64
3 59 60 65
3 60 66 65
3 61 67 66
3 60 61 66
3 69 63 62
3 68 69 62
3 62 64 68
3 64 70 68
3 64 65 70
3 65 71 70
3 65 66 71
3 66 72 71
3 67 73 72
3 66 67 72
3 75 69 68
3 74 75 68
3 68 70 74
3 70 76 74
3 70 71 76
3 71 77 76
3 71 72 77
3 72 78 77
3 73 79 78
3 72 73 78
3 81 75 74
3 80 81 74
3 74 76 80
3 76 82 80
3 76 77 82
3 77 83 82
3 77 78 83
3 78 84 83
3 79 85 84
3 78 79 84
3 87 81 80
3 86 87 80
3 80 82 86
3 82 88 86
3 82 83 88
3 83 89 88
3 83 84 89
3 84 90 89
3 85 91 90
3 84 85 90
3 93 87 86
3 92 93 86
3 86 88 92
3 88 94 92
3 88 89 94
3 89 95 94
3 89 90 95
3 90 96 95
3 91 97 96
3 90 91 96
3 93 92 98
3 92 94 99
3 98 92 99
3 94 95 100
3 99 94 100
3 95 96 101
3 100 95 101
3 96 97 101
3 2 103 102
3 1 2 102
3 102 104 1
3 1 104 4
3 4 104 105
3 5 4 105
3 103 2 106
3 106 2 7
3 105 107 5
3 107 9 5
3 110 109 108
3 109 11 108
3 109 106 11
3 106 7 11
3 107 111 9
3 111 13 9
3 113 110 108
3 112 113 108
3 108 15 112
3 11 15 108
3 114 111 115
3 114 17 111
3 17 13 111
3 115 116 114
3 118 113 112
3 117 118 112
3 112 19 117
3 15 19 112
3 119 17 114
3 21 17 119
3 116 120 119
3 114 116 119
3 122 118 117
3 121 122 117
3 117 23 121
3 19 23 117
3 123 21 119
3 25 21 123
3 120 124 123
3 119 120 123
3 121 27 28
3 121 28 122
3 122 28 125
3 121 23 27
3 126 25 123
3 31 25 126
3 124 127 126
3 123 124 126
3 125 28 128
3 128 28 33
3 129 31 126
3 36 31 129
3 127 130 129
3 126 127 129
3 128 33 131
3 131 33 38
3 129 42 36
3 42 129 130
3 42 130 43
3 43 130 132
3 131 38 133
3 133 38 45
3 132 134 43
3 134 49 43
3 133 45 135
3 135 45 51
3 134 136 49
3 136 55 49
3 135 51 137
3 137 51 57
3 136 138 55
3 138 61 55
3 137 57 139
3 139 57 63
3 138 140 61
3 140 67 61
3 139 63 141
3 141 63 69
3 140 142 67
3 142 73 67
3 141 69 143
3 143 69 75
3 142 144 73
3 144 79 73
3 143 75 145
3 145 75 81
3 144 146 79
3 146 85 79
3 145 81 147
3 147 81 87
3 146 148 85
3 148 91 85
3 147 87 149
3 149 87 93
3 148 150 91
3 150 97 91
3 149 93 98
3 151 149 98
3 151 98 152
3 98 99 152
3 152 99 153
3 99 100 153
3 153 100 154
3 100 101 154
3 154 101 97
3 150 154 97
3 103 156 155
3 102 103 155
3 155 157 102
3 102 157 104
3 104 157 158
3 105 104 158
3 156 103 159
3 159 103 106
3 158 160 105
3 160 107 105
3 109 110 161
3 161 106 109
3 161 162 106
3 162 159 106
3 160 163 107
3 163 111 107
3 164 161 110
3 113 164 110
3 162 164 165
3 161 164 162
3 115 167 166
3 115 111 167
3 111 163 167
3 115 166 116
3 168 164 113
3 168 113 169
3 169 113 118
3 164 168 165
3 171 166 167
3 170 166 171
3 166 170 120
3 116 166 120
3 169 118 172
3 172 118 122
3 174 170 171
3 173 170 174
3 170 173 124
3 120 170 124
3 172 122 175
3 175 122 125
3 174 176 173
3 173 176 177
3 173 177 124
3 124 177 127
3 175 125 178
3 178 125 128
3 177 179 127
3 179 130 127
3 178 128 180
3 180 128 131
3 179 181 130
3 181 132 130
3 180 131 182
3 182 131 133
3 181 183 132
3 183 134 132
3 182 133 184
3 184 133 135
3 183 185 134
3 185 136 134
3 184 135 186
3 186 135 137
3 185 187 136
3 187 138 136
3 186 137 188
3 188 137 139
3 187 189 138
3 189 140 138
3 188 139 190
3 190 139 141
3 189 191 140
3 191 142 140
3 190 141 192
3 192 141 143
3 191 193 142
3 193 144 142
3 192 143 194
3 194 143 145
3 193 195 144
3 195 146 144
3 194 145 196
3 196 145 147
3 195 197 146
3 197 148 146
3 196 147 198
3 198 147 149
3 197 199 148
3 199 150 148
3 198 149 151
3 200 198 151
3 200 151 201
3 151 152 201
3 201 152 202
3 152 153 202
3 202 153 203
3 153 154 203
3 203 154 150
3 199 203 150
3 155 156 204
3 157 155 204
3 205 157 204
3 157 205 158
3 206 204 156
3 159 206 156
3 204 206 205
3 205 206 207
3 205 207 160
3 158 205 160
3 208 206 159
3 162 208 159
3 206 208 207
3 207 208 209
3 207 209 163
3 160 207 163
3 210 208 162
3 165 210 162
3 208 210 209
3 209 210 211
3 209 211 167
3 163 209 167
3 168 169 212
3 165 168 212
3 165 212 210
3 210 212 213
3 210 213 211
3 211 213 214
3 211 214 171
3 167 211 171
3 215 212 169
3 172 215 169
3 212 215 213
3 213 215 216
3 213 216 214
3 214 216 217
3 214 217 174
3 171 214 174
3 218 215 172
3 175 218 172
3 215 218 216
3 216 218 219
3 216 219 217
3 217 219 220
3 176 174 217
3 176 217 221
3 221 217 220
3 176 221 177
3 222 218 175
3 178 222 175
3 218 222 219
3 219 222 223
3 219 223 220
3 220 223 224
3 220 224 221
3 221 224 225
3 221 225 179
3 177 221 179
3 226 222 178
3 180 226 178
3 227 226 228
3 227 223 226
3 223 222 226
3 230 223 227
3 230 229 223
3 229 224 223
3 224 229 225
3 225 229 231
3 225 231 181
3 179 225 181
3 232 226 180
3 182 232 180
3 228 232 233
3 226 232 228
3 230 234 229
3 236 229 234
3 236 235 229
3 235 231 229
3 231 235 183
3 181 231 183
3 237 232 182
3 184 237 182
3 233 237 238
3 232 237 233
3 240 235 236
3 239 235 240
3 235 239 185
3 183 235 185
3 241 237 184
3 186 241 184
3 238 241 242
3 237 241 238
3 244 239 240
3 243 239 244
3 239 243 187
3 185 239 187
3 245 241 186
3 188 245 186
3 242 245 246
3 241 245 242
3 248 243 244
3 247 243 248
3 243 247 189
3 187 243 189
3 249 245 188
3 190 249 188
3 246 249 250
3 245 249 246
3 252 247 248
3 251 247 252
3 247 251 191
3 189 247 191
3 253 249 190
3 192 253 190
3 250 253 254
3 249 253 250
3 256 251 252
3 255 251 256
3 251 255 193
3 191 251 193
3 257 253 192
3 194 257 192
3 254 257 258
3 253 257 254
3 260 255 256
3 259 255 260
3 255 259 195
3 193 255 195
3 261 257 194
3 196 261 194
3 258 261 262
3 257 261 258
3 264 259 260
3 263 259 264
3 259 263 197
3 195 259 197
3 265 261 196
3 198 265 196
3 262 265 266
3 261 265 262
3 268 263 264
3 267 263 268
3 263 267 199
3 197 263 199
3 265 198 200
3 266 265 200
3 266 200 269
3 269 200 201
3 269 201 270
3 201 202 270
3 267 268 270
3 267 270 203
3 203 270 202
3 267 203 199
3 227 228 271
3 227 271 230
3 272 271 228
3 233 272 228
3 234 230 271
3 234 271 273
3 273 271 272
3 234 273 236
3 274 272 233
3 238 274 233
3 272 274 273
3 273 274 275
3 273 275 240
3 236 273 240
3 276 274 238
3 242 276 238
3 274 276 275
3 275 276 277
3 275 277 244
3 240 275 244
3 278 276 242
3 246 278 242
3 276 278 277
3 277 278 279
3 277 279 248
3 244 277 248
3 280 278 246
3 250 280 246
3 278 280 279
3 279 280 281
3 279 281 252
3 248 279 252
3 282 280 250
3 254 282 250
3 280 282 281
3 281 282 283
3 281 283 256
3 252 281 256
3 284 282 254
3 258 284 254
3 282 284 283
3 283 284 285
3 283 285 260
3 256 283 260
3 286 284 258
3 262 286 258
3 284 286 285
3 285 286 287
3 285 287 264
3 260 285 264
3 288 286 262
3 266 288 262
3 286 288 287
3 287 288 289
3 287 289 268
3 264 287 268
3 288 266 269
3 289 288 269
3 270 289 269
3 289 270 268
